G04 (created by PCBNEW (2013-may-18)-stable) date Вт 17 фев 2015 22:42:46*
%MOIN*%
G04 Gerber Fmt 3.4, Leading zero omitted, Abs format*
%FSLAX34Y34*%
G01*
G70*
G90*
G04 APERTURE LIST*
%ADD10C,0.00590551*%
%ADD11R,0.06X0.06*%
%ADD12C,0.06*%
%ADD13C,0.034*%
%ADD14C,0.056*%
%ADD15C,0.16*%
G04 APERTURE END LIST*
G54D10*
G54D11*
X32440Y-34043D03*
G54D12*
X32440Y-32665D03*
X32440Y-31287D03*
X32440Y-29909D03*
X32440Y-28531D03*
X32440Y-27153D03*
G54D11*
X29212Y-34043D03*
G54D12*
X29212Y-32665D03*
X29212Y-31287D03*
X29212Y-29909D03*
X29212Y-28531D03*
X29212Y-27153D03*
G54D11*
X41153Y-23740D03*
G54D12*
X42531Y-23740D03*
X43909Y-23740D03*
X45287Y-23740D03*
X46665Y-23740D03*
X48043Y-23740D03*
G54D11*
X34224Y-42165D03*
G54D12*
X35602Y-42165D03*
X36980Y-42165D03*
X38358Y-42165D03*
X39736Y-42165D03*
X41113Y-42165D03*
G54D11*
X31535Y-35917D03*
G54D12*
X31535Y-37295D03*
X31535Y-38673D03*
X31535Y-40050D03*
X31535Y-41428D03*
X31535Y-42806D03*
G54D11*
X29203Y-23818D03*
G54D12*
X30581Y-23818D03*
G54D11*
X47531Y-36539D03*
G54D12*
X48531Y-36539D03*
X47531Y-35539D03*
X48531Y-35539D03*
X47531Y-34539D03*
X48531Y-34539D03*
X47531Y-33539D03*
X48531Y-33539D03*
G54D11*
X42716Y-43035D03*
G54D12*
X42716Y-42035D03*
X42716Y-41035D03*
X42716Y-40035D03*
G54D11*
X45400Y-33900D03*
G54D12*
X45400Y-34900D03*
X45400Y-35900D03*
X45400Y-36900D03*
G54D11*
X44200Y-35000D03*
X41929Y-31968D03*
X37204Y-35590D03*
X34527Y-37992D03*
G54D13*
X47210Y-31083D03*
X47210Y-27933D03*
G54D14*
X35590Y-35566D03*
X35590Y-33566D03*
G54D11*
X48000Y-38522D03*
G54D12*
X48000Y-39900D03*
X48000Y-41277D03*
X48000Y-42655D03*
G54D11*
X39291Y-24448D03*
G54D12*
X38503Y-24448D03*
X37716Y-24448D03*
X36929Y-24448D03*
X36141Y-24448D03*
X35354Y-24448D03*
X34566Y-24448D03*
X33779Y-24448D03*
X32992Y-24448D03*
G54D15*
X50000Y-23622D03*
X28740Y-42519D03*
X28740Y-36614D03*
M02*
