M48
;DRILL file {Pcbnew (2013-may-18)-stable} date Вт 17 фев 2015 22:40:49
;FORMAT={-:-/ absolute / metric / decimal}
FMAT,2
METRIC,TZ
T1C0.300
T2C0.800
T3C1.000
T4C3.000
%
G90
G05
M71
T1
X85.592Y-108.692
X88.7Y-108.7
X90.4Y-87.9
X91.4Y-74.2
X91.4Y-75.4
X92.2Y-100.4
X92.3Y-108.7
X92.8Y-94.7
X93.1Y-84.3
X93.1Y-97.2
X93.2Y-74.2
X93.2Y-93.8
X93.2Y-95.6
X93.2Y-99.4
X95.6Y-68.3
X96.2Y-94.7
X96.2Y-97.1
X96.6Y-93.8
X96.6Y-95.6
X99.1Y-68.3
X99.6Y-99.4
X99.6Y-100.4
X99.8Y-91.9
X100.2Y-95.
X100.6Y-81.3
X100.6Y-87.7
X101.3Y-84.1
X101.6Y-101.3
X102.6Y-101.3
X104.4Y-87.1
X105.5Y-93.9
X106.05Y-90.75
X106.2Y-82.9
X106.6Y-78.3
X106.6Y-84.
X108.3Y-82.9
X108.3Y-97.14
X109.4Y-80.7
X110.6Y-91.4
X111.1Y-78.4
X111.1Y-99.4
X111.2Y-70.8
X111.2Y-72.9
X111.2Y-103.7
X111.6Y-91.4
X112.Y-69.6
X113.Y-72.9
X113.Y-92.
X113.475Y-97.3
X113.6Y-93.5
X116.4Y-101.7
X116.4Y-105.8
X116.4Y-109.8
T2
X90.4Y-85.26
X90.4Y-90.34
T3
X74.178Y-60.5
X74.2Y-68.971
X74.2Y-72.471
X74.2Y-75.971
X74.2Y-79.471
X74.2Y-82.971
X74.2Y-86.471
X77.678Y-60.5
X80.1Y-91.23
X80.1Y-94.73
X80.1Y-98.23
X80.1Y-101.73
X80.1Y-105.23
X80.1Y-108.73
X82.4Y-68.971
X82.4Y-72.471
X82.4Y-75.971
X82.4Y-79.471
X82.4Y-82.971
X82.4Y-86.471
X83.8Y-62.1
X85.8Y-62.1
X86.929Y-107.1
X87.7Y-96.5
X87.8Y-62.1
X89.8Y-62.1
X90.429Y-107.1
X91.8Y-62.1
X93.8Y-62.1
X93.929Y-107.1
X94.5Y-90.4
X95.8Y-62.1
X97.429Y-107.1
X97.8Y-62.1
X99.8Y-62.1
X100.929Y-107.1
X104.429Y-107.1
X104.529Y-60.3
X106.5Y-81.2
X108.029Y-60.3
X108.5Y-101.69
X108.5Y-104.23
X108.5Y-106.77
X108.5Y-109.31
X111.529Y-60.3
X112.268Y-88.9
X115.029Y-60.3
X115.316Y-86.106
X115.316Y-88.646
X115.316Y-91.186
X115.316Y-93.726
X118.529Y-60.3
X119.916Y-70.952
X119.916Y-78.953
X120.73Y-85.19
X120.73Y-87.73
X120.73Y-90.27
X120.73Y-92.81
X121.92Y-97.846
X121.92Y-101.346
X121.92Y-104.846
X121.92Y-108.346
X122.029Y-60.3
X123.27Y-85.19
X123.27Y-87.73
X123.27Y-90.27
X123.27Y-92.81
T4
X73.Y-93.
X73.Y-108.
X127.Y-60.
T0
M30
