G04 (created by PCBNEW (2013-may-18)-stable) date Пн 18 апр 2016 10:16:46*
%MOIN*%
G04 Gerber Fmt 3.4, Leading zero omitted, Abs format*
%FSLAX34Y34*%
G01*
G70*
G90*
G04 APERTURE LIST*
%ADD10C,0.00590551*%
%ADD11C,0.16*%
%ADD12R,0.06X0.06*%
%ADD13C,0.06*%
%ADD14R,0.0787402X0.0984252*%
%ADD15O,0.0787402X0.0984252*%
%ADD16R,0.0984252X0.0787402*%
%ADD17O,0.0984252X0.0787402*%
%ADD18R,0.0787402X0.0393701*%
%ADD19C,0.1063*%
%ADD20C,0.0275591*%
%ADD21C,0.023622*%
G04 APERTURE END LIST*
G54D10*
G54D11*
X57836Y-75310D03*
X64923Y-75310D03*
G54D12*
X60880Y-77310D03*
G54D13*
X61880Y-77310D03*
X60880Y-76310D03*
X61880Y-76310D03*
X60880Y-75310D03*
X61880Y-75310D03*
X60880Y-74310D03*
X61880Y-74310D03*
X60880Y-73310D03*
X61880Y-73310D03*
G54D14*
X61880Y-70510D03*
G54D15*
X60880Y-70510D03*
G54D16*
X58280Y-73760D03*
G54D17*
X58280Y-72760D03*
X58280Y-71760D03*
G54D16*
X64480Y-76860D03*
G54D17*
X64480Y-77860D03*
X64480Y-78860D03*
G54D18*
X59364Y-78300D03*
X59364Y-77710D03*
X59364Y-77119D03*
X57395Y-77119D03*
X57395Y-77710D03*
X57395Y-78300D03*
X63395Y-72319D03*
X63395Y-72910D03*
X63395Y-73500D03*
X65364Y-73500D03*
X65364Y-72910D03*
X65364Y-72319D03*
X63205Y-49509D03*
X63205Y-50100D03*
X63205Y-50690D03*
X65174Y-50690D03*
X65174Y-50100D03*
X65174Y-49509D03*
X59174Y-55490D03*
X59174Y-54900D03*
X59174Y-54309D03*
X57205Y-54309D03*
X57205Y-54900D03*
X57205Y-55490D03*
G54D16*
X64290Y-54050D03*
G54D17*
X64290Y-55050D03*
X64290Y-56050D03*
G54D16*
X58090Y-50950D03*
G54D17*
X58090Y-49950D03*
X58090Y-48950D03*
G54D14*
X61690Y-47700D03*
G54D15*
X60690Y-47700D03*
G54D12*
X60690Y-54500D03*
G54D13*
X61690Y-54500D03*
X60690Y-53500D03*
X61690Y-53500D03*
X60690Y-52500D03*
X61690Y-52500D03*
X60690Y-51500D03*
X61690Y-51500D03*
X60690Y-50500D03*
X61690Y-50500D03*
G54D11*
X64733Y-52500D03*
X57646Y-52500D03*
G54D13*
X60550Y-64300D03*
X61550Y-64300D03*
X61550Y-63513D03*
X60550Y-63513D03*
G54D19*
X58688Y-62450D03*
X63412Y-62450D03*
G54D12*
X62550Y-66150D03*
G54D13*
X61550Y-66150D03*
X60550Y-66150D03*
X59550Y-66150D03*
G54D11*
X57200Y-64150D03*
X64900Y-64150D03*
X77950Y-64200D03*
X70250Y-64200D03*
G54D12*
X75600Y-66200D03*
G54D13*
X74600Y-66200D03*
X73600Y-66200D03*
X72600Y-66200D03*
X73600Y-64350D03*
X74600Y-64350D03*
X74600Y-63563D03*
X73600Y-63563D03*
G54D19*
X71738Y-62500D03*
X76462Y-62500D03*
G54D11*
X70696Y-52550D03*
X77783Y-52550D03*
G54D12*
X73740Y-54550D03*
G54D13*
X74740Y-54550D03*
X73740Y-53550D03*
X74740Y-53550D03*
X73740Y-52550D03*
X74740Y-52550D03*
X73740Y-51550D03*
X74740Y-51550D03*
X73740Y-50550D03*
X74740Y-50550D03*
G54D14*
X74740Y-47750D03*
G54D15*
X73740Y-47750D03*
G54D16*
X71140Y-51000D03*
G54D17*
X71140Y-50000D03*
X71140Y-49000D03*
G54D16*
X77340Y-54100D03*
G54D17*
X77340Y-55100D03*
X77340Y-56100D03*
G54D18*
X72224Y-55540D03*
X72224Y-54950D03*
X72224Y-54359D03*
X70255Y-54359D03*
X70255Y-54950D03*
X70255Y-55540D03*
X76255Y-49559D03*
X76255Y-50150D03*
X76255Y-50740D03*
X78224Y-50740D03*
X78224Y-50150D03*
X78224Y-49559D03*
X76445Y-72369D03*
X76445Y-72960D03*
X76445Y-73550D03*
X78414Y-73550D03*
X78414Y-72960D03*
X78414Y-72369D03*
X72414Y-78350D03*
X72414Y-77760D03*
X72414Y-77169D03*
X70445Y-77169D03*
X70445Y-77760D03*
X70445Y-78350D03*
G54D16*
X77530Y-76910D03*
G54D17*
X77530Y-77910D03*
X77530Y-78910D03*
G54D16*
X71330Y-73810D03*
G54D17*
X71330Y-72810D03*
X71330Y-71810D03*
G54D14*
X74930Y-70560D03*
G54D15*
X73930Y-70560D03*
G54D12*
X73930Y-77360D03*
G54D13*
X74930Y-77360D03*
X73930Y-76360D03*
X74930Y-76360D03*
X73930Y-75360D03*
X74930Y-75360D03*
X73930Y-74360D03*
X74930Y-74360D03*
X73930Y-73360D03*
X74930Y-73360D03*
G54D11*
X77973Y-75360D03*
X70886Y-75360D03*
X84286Y-75360D03*
X91373Y-75360D03*
G54D12*
X87330Y-77360D03*
G54D13*
X88330Y-77360D03*
X87330Y-76360D03*
X88330Y-76360D03*
X87330Y-75360D03*
X88330Y-75360D03*
X87330Y-74360D03*
X88330Y-74360D03*
X87330Y-73360D03*
X88330Y-73360D03*
G54D14*
X88330Y-70560D03*
G54D15*
X87330Y-70560D03*
G54D16*
X84730Y-73810D03*
G54D17*
X84730Y-72810D03*
X84730Y-71810D03*
G54D16*
X90930Y-76910D03*
G54D17*
X90930Y-77910D03*
X90930Y-78910D03*
G54D18*
X85814Y-78350D03*
X85814Y-77760D03*
X85814Y-77169D03*
X83845Y-77169D03*
X83845Y-77760D03*
X83845Y-78350D03*
X89845Y-72369D03*
X89845Y-72960D03*
X89845Y-73550D03*
X91814Y-73550D03*
X91814Y-72960D03*
X91814Y-72369D03*
X89655Y-49559D03*
X89655Y-50150D03*
X89655Y-50740D03*
X91624Y-50740D03*
X91624Y-50150D03*
X91624Y-49559D03*
X85624Y-55540D03*
X85624Y-54950D03*
X85624Y-54359D03*
X83655Y-54359D03*
X83655Y-54950D03*
X83655Y-55540D03*
G54D16*
X90740Y-54100D03*
G54D17*
X90740Y-55100D03*
X90740Y-56100D03*
G54D16*
X84540Y-51000D03*
G54D17*
X84540Y-50000D03*
X84540Y-49000D03*
G54D14*
X88140Y-47750D03*
G54D15*
X87140Y-47750D03*
G54D12*
X87140Y-54550D03*
G54D13*
X88140Y-54550D03*
X87140Y-53550D03*
X88140Y-53550D03*
X87140Y-52550D03*
X88140Y-52550D03*
X87140Y-51550D03*
X88140Y-51550D03*
X87140Y-50550D03*
X88140Y-50550D03*
G54D11*
X91183Y-52550D03*
X84096Y-52550D03*
G54D13*
X87000Y-64350D03*
X88000Y-64350D03*
X88000Y-63563D03*
X87000Y-63563D03*
G54D19*
X85138Y-62500D03*
X89862Y-62500D03*
G54D12*
X89000Y-66200D03*
G54D13*
X88000Y-66200D03*
X87000Y-66200D03*
X86000Y-66200D03*
G54D11*
X83650Y-64200D03*
X91350Y-64200D03*
G54D20*
X58880Y-74710D03*
X58690Y-51900D03*
X71740Y-51950D03*
X71930Y-74760D03*
X85330Y-74760D03*
X85140Y-51950D03*
X60680Y-78510D03*
X60490Y-55700D03*
X73540Y-55750D03*
X73730Y-78560D03*
X87130Y-78560D03*
X86940Y-55750D03*
X59530Y-72760D03*
X59340Y-49950D03*
X72390Y-50000D03*
X72580Y-72810D03*
X85980Y-72810D03*
X85790Y-50000D03*
X59680Y-76060D03*
X59490Y-53250D03*
X72540Y-53300D03*
X72730Y-76110D03*
X86130Y-76110D03*
X85940Y-53300D03*
X60080Y-76510D03*
X59890Y-53700D03*
X72940Y-53750D03*
X73130Y-76560D03*
X86530Y-76560D03*
X86340Y-53750D03*
X59430Y-75760D03*
X59240Y-52950D03*
X72290Y-53000D03*
X72480Y-75810D03*
X85880Y-75810D03*
X85690Y-53000D03*
X66130Y-73510D03*
X65940Y-50700D03*
X78990Y-50750D03*
X79180Y-73560D03*
X92580Y-73560D03*
X92390Y-50750D03*
X66130Y-72460D03*
X65940Y-49650D03*
X78990Y-49700D03*
X79180Y-72510D03*
X92580Y-72510D03*
X92390Y-49700D03*
X66130Y-72910D03*
X65940Y-50100D03*
X78990Y-50150D03*
X79180Y-72960D03*
X92580Y-72960D03*
X92390Y-50150D03*
X56680Y-78160D03*
X56490Y-55350D03*
X69540Y-55400D03*
X69730Y-78210D03*
X83130Y-78210D03*
X82940Y-55400D03*
X56680Y-77710D03*
X56490Y-54900D03*
X69540Y-54950D03*
X69730Y-77760D03*
X83130Y-77760D03*
X82940Y-54950D03*
X56680Y-77110D03*
X56490Y-54300D03*
X69540Y-54350D03*
X69730Y-77160D03*
X83130Y-77160D03*
X82940Y-54350D03*
G54D21*
X61380Y-76810D02*
X62180Y-76810D01*
X62180Y-76810D02*
X63130Y-77760D01*
X63130Y-77760D02*
X63130Y-78460D01*
X63130Y-78460D02*
X63530Y-78860D01*
X63530Y-78860D02*
X64480Y-78860D01*
X60880Y-76310D02*
X61380Y-76810D01*
X60480Y-76310D02*
X58880Y-74710D01*
X60880Y-76310D02*
X60480Y-76310D01*
X60690Y-53500D02*
X60290Y-53500D01*
X60290Y-53500D02*
X58690Y-51900D01*
X60690Y-53500D02*
X61190Y-54000D01*
X63340Y-56050D02*
X64290Y-56050D01*
X62940Y-55650D02*
X63340Y-56050D01*
X62940Y-54950D02*
X62940Y-55650D01*
X61990Y-54000D02*
X62940Y-54950D01*
X61190Y-54000D02*
X61990Y-54000D01*
X74240Y-54050D02*
X75040Y-54050D01*
X75040Y-54050D02*
X75990Y-55000D01*
X75990Y-55000D02*
X75990Y-55700D01*
X75990Y-55700D02*
X76390Y-56100D01*
X76390Y-56100D02*
X77340Y-56100D01*
X73740Y-53550D02*
X74240Y-54050D01*
X73340Y-53550D02*
X71740Y-51950D01*
X73740Y-53550D02*
X73340Y-53550D01*
X73930Y-76360D02*
X73530Y-76360D01*
X73530Y-76360D02*
X71930Y-74760D01*
X73930Y-76360D02*
X74430Y-76860D01*
X76580Y-78910D02*
X77530Y-78910D01*
X76180Y-78510D02*
X76580Y-78910D01*
X76180Y-77810D02*
X76180Y-78510D01*
X75230Y-76860D02*
X76180Y-77810D01*
X74430Y-76860D02*
X75230Y-76860D01*
X87830Y-76860D02*
X88630Y-76860D01*
X88630Y-76860D02*
X89580Y-77810D01*
X89580Y-77810D02*
X89580Y-78510D01*
X89580Y-78510D02*
X89980Y-78910D01*
X89980Y-78910D02*
X90930Y-78910D01*
X87330Y-76360D02*
X87830Y-76860D01*
X86930Y-76360D02*
X85330Y-74760D01*
X87330Y-76360D02*
X86930Y-76360D01*
X87140Y-53550D02*
X86740Y-53550D01*
X86740Y-53550D02*
X85140Y-51950D01*
X87140Y-53550D02*
X87640Y-54050D01*
X89790Y-56100D02*
X90740Y-56100D01*
X89390Y-55700D02*
X89790Y-56100D01*
X89390Y-55000D02*
X89390Y-55700D01*
X88440Y-54050D02*
X89390Y-55000D01*
X87640Y-54050D02*
X88440Y-54050D01*
X61880Y-77310D02*
X60680Y-78510D01*
X61690Y-54500D02*
X60490Y-55700D01*
X74740Y-54550D02*
X73540Y-55750D01*
X74930Y-77360D02*
X73730Y-78560D01*
X88330Y-77360D02*
X87130Y-78560D01*
X88140Y-54550D02*
X86940Y-55750D01*
X59530Y-72760D02*
X58280Y-72760D01*
X59340Y-49950D02*
X58090Y-49950D01*
X72390Y-50000D02*
X71140Y-50000D01*
X72580Y-72810D02*
X71330Y-72810D01*
X85980Y-72810D02*
X84730Y-72810D01*
X85790Y-50000D02*
X84540Y-50000D01*
X62550Y-66150D02*
X62550Y-63600D01*
X61113Y-62950D02*
X60550Y-63513D01*
X61900Y-62950D02*
X61113Y-62950D01*
X62550Y-63600D02*
X61900Y-62950D01*
X75600Y-63650D02*
X74950Y-63000D01*
X74950Y-63000D02*
X74163Y-63000D01*
X74163Y-63000D02*
X73600Y-63563D01*
X75600Y-66200D02*
X75600Y-63650D01*
X89000Y-66200D02*
X89000Y-63650D01*
X87563Y-63000D02*
X87000Y-63563D01*
X88350Y-63000D02*
X87563Y-63000D01*
X89000Y-63650D02*
X88350Y-63000D01*
X61380Y-74810D02*
X61380Y-73010D01*
X61380Y-73010D02*
X61580Y-72810D01*
X61580Y-72810D02*
X62130Y-72810D01*
X62130Y-72810D02*
X62820Y-73500D01*
X62820Y-73500D02*
X63395Y-73500D01*
X60880Y-75310D02*
X61380Y-74810D01*
X59364Y-76375D02*
X59680Y-76060D01*
X59364Y-77119D02*
X59364Y-76375D01*
X59174Y-54309D02*
X59174Y-53565D01*
X59174Y-53565D02*
X59490Y-53250D01*
X60690Y-52500D02*
X61190Y-52000D01*
X62630Y-50690D02*
X63205Y-50690D01*
X61940Y-50000D02*
X62630Y-50690D01*
X61390Y-50000D02*
X61940Y-50000D01*
X61190Y-50200D02*
X61390Y-50000D01*
X61190Y-52000D02*
X61190Y-50200D01*
X74240Y-52050D02*
X74240Y-50250D01*
X74240Y-50250D02*
X74440Y-50050D01*
X74440Y-50050D02*
X74990Y-50050D01*
X74990Y-50050D02*
X75680Y-50740D01*
X75680Y-50740D02*
X76255Y-50740D01*
X73740Y-52550D02*
X74240Y-52050D01*
X72224Y-53615D02*
X72540Y-53300D01*
X72224Y-54359D02*
X72224Y-53615D01*
X72414Y-77169D02*
X72414Y-76425D01*
X72414Y-76425D02*
X72730Y-76110D01*
X73930Y-75360D02*
X74430Y-74860D01*
X75870Y-73550D02*
X76445Y-73550D01*
X75180Y-72860D02*
X75870Y-73550D01*
X74630Y-72860D02*
X75180Y-72860D01*
X74430Y-73060D02*
X74630Y-72860D01*
X74430Y-74860D02*
X74430Y-73060D01*
X87830Y-74860D02*
X87830Y-73060D01*
X87830Y-73060D02*
X88030Y-72860D01*
X88030Y-72860D02*
X88580Y-72860D01*
X88580Y-72860D02*
X89270Y-73550D01*
X89270Y-73550D02*
X89845Y-73550D01*
X87330Y-75360D02*
X87830Y-74860D01*
X85814Y-76425D02*
X86130Y-76110D01*
X85814Y-77169D02*
X85814Y-76425D01*
X85624Y-54359D02*
X85624Y-53615D01*
X85624Y-53615D02*
X85940Y-53300D01*
X87140Y-52550D02*
X87640Y-52050D01*
X89080Y-50740D02*
X89655Y-50740D01*
X88390Y-50050D02*
X89080Y-50740D01*
X87840Y-50050D02*
X88390Y-50050D01*
X87640Y-50250D02*
X87840Y-50050D01*
X87640Y-52050D02*
X87640Y-50250D01*
X63930Y-72910D02*
X64080Y-73060D01*
X64080Y-73060D02*
X64080Y-73910D01*
X64080Y-73910D02*
X62680Y-75310D01*
X62680Y-75310D02*
X61880Y-75310D01*
X63395Y-72910D02*
X63930Y-72910D01*
X59880Y-77710D02*
X60080Y-77510D01*
X60080Y-77510D02*
X60080Y-76510D01*
X59364Y-77710D02*
X59880Y-77710D01*
X59174Y-54900D02*
X59690Y-54900D01*
X59890Y-54700D02*
X59890Y-53700D01*
X59690Y-54900D02*
X59890Y-54700D01*
X63205Y-50100D02*
X63740Y-50100D01*
X62490Y-52500D02*
X61690Y-52500D01*
X63890Y-51100D02*
X62490Y-52500D01*
X63890Y-50250D02*
X63890Y-51100D01*
X63740Y-50100D02*
X63890Y-50250D01*
X76790Y-50150D02*
X76940Y-50300D01*
X76940Y-50300D02*
X76940Y-51150D01*
X76940Y-51150D02*
X75540Y-52550D01*
X75540Y-52550D02*
X74740Y-52550D01*
X76255Y-50150D02*
X76790Y-50150D01*
X72740Y-54950D02*
X72940Y-54750D01*
X72940Y-54750D02*
X72940Y-53750D01*
X72224Y-54950D02*
X72740Y-54950D01*
X72414Y-77760D02*
X72930Y-77760D01*
X73130Y-77560D02*
X73130Y-76560D01*
X72930Y-77760D02*
X73130Y-77560D01*
X76445Y-72960D02*
X76980Y-72960D01*
X75730Y-75360D02*
X74930Y-75360D01*
X77130Y-73960D02*
X75730Y-75360D01*
X77130Y-73110D02*
X77130Y-73960D01*
X76980Y-72960D02*
X77130Y-73110D01*
X90380Y-72960D02*
X90530Y-73110D01*
X90530Y-73110D02*
X90530Y-73960D01*
X90530Y-73960D02*
X89130Y-75360D01*
X89130Y-75360D02*
X88330Y-75360D01*
X89845Y-72960D02*
X90380Y-72960D01*
X86330Y-77760D02*
X86530Y-77560D01*
X86530Y-77560D02*
X86530Y-76560D01*
X85814Y-77760D02*
X86330Y-77760D01*
X85624Y-54950D02*
X86140Y-54950D01*
X86340Y-54750D02*
X86340Y-53750D01*
X86140Y-54950D02*
X86340Y-54750D01*
X89655Y-50150D02*
X90190Y-50150D01*
X88940Y-52550D02*
X88140Y-52550D01*
X90340Y-51150D02*
X88940Y-52550D01*
X90340Y-50300D02*
X90340Y-51150D01*
X90190Y-50150D02*
X90340Y-50300D01*
X60530Y-73960D02*
X60380Y-73810D01*
X60380Y-73810D02*
X60380Y-73010D01*
X60380Y-73010D02*
X61070Y-72319D01*
X61070Y-72319D02*
X63395Y-72319D01*
X60880Y-74310D02*
X60530Y-73960D01*
X59430Y-75760D02*
X58630Y-76560D01*
X58630Y-76560D02*
X58630Y-78110D01*
X58630Y-78110D02*
X58820Y-78300D01*
X58820Y-78300D02*
X59364Y-78300D01*
X58630Y-55490D02*
X59174Y-55490D01*
X58440Y-55300D02*
X58630Y-55490D01*
X58440Y-53750D02*
X58440Y-55300D01*
X59240Y-52950D02*
X58440Y-53750D01*
X60690Y-51500D02*
X60340Y-51150D01*
X60880Y-49509D02*
X63205Y-49509D01*
X60190Y-50200D02*
X60880Y-49509D01*
X60190Y-51000D02*
X60190Y-50200D01*
X60340Y-51150D02*
X60190Y-51000D01*
X73390Y-51200D02*
X73240Y-51050D01*
X73240Y-51050D02*
X73240Y-50250D01*
X73240Y-50250D02*
X73930Y-49559D01*
X73930Y-49559D02*
X76255Y-49559D01*
X73740Y-51550D02*
X73390Y-51200D01*
X72290Y-53000D02*
X71490Y-53800D01*
X71490Y-53800D02*
X71490Y-55350D01*
X71490Y-55350D02*
X71680Y-55540D01*
X71680Y-55540D02*
X72224Y-55540D01*
X71870Y-78350D02*
X72414Y-78350D01*
X71680Y-78160D02*
X71870Y-78350D01*
X71680Y-76610D02*
X71680Y-78160D01*
X72480Y-75810D02*
X71680Y-76610D01*
X73930Y-74360D02*
X73580Y-74010D01*
X74120Y-72369D02*
X76445Y-72369D01*
X73430Y-73060D02*
X74120Y-72369D01*
X73430Y-73860D02*
X73430Y-73060D01*
X73580Y-74010D02*
X73430Y-73860D01*
X86980Y-74010D02*
X86830Y-73860D01*
X86830Y-73860D02*
X86830Y-73060D01*
X86830Y-73060D02*
X87520Y-72369D01*
X87520Y-72369D02*
X89845Y-72369D01*
X87330Y-74360D02*
X86980Y-74010D01*
X85880Y-75810D02*
X85080Y-76610D01*
X85080Y-76610D02*
X85080Y-78160D01*
X85080Y-78160D02*
X85270Y-78350D01*
X85270Y-78350D02*
X85814Y-78350D01*
X85080Y-55540D02*
X85624Y-55540D01*
X84890Y-55350D02*
X85080Y-55540D01*
X84890Y-53800D02*
X84890Y-55350D01*
X85690Y-53000D02*
X84890Y-53800D01*
X87140Y-51550D02*
X86790Y-51200D01*
X87330Y-49559D02*
X89655Y-49559D01*
X86640Y-50250D02*
X87330Y-49559D01*
X86640Y-51050D02*
X86640Y-50250D01*
X86790Y-51200D02*
X86640Y-51050D01*
X66120Y-73500D02*
X66130Y-73510D01*
X65364Y-73500D02*
X66120Y-73500D01*
X65174Y-50690D02*
X65930Y-50690D01*
X65930Y-50690D02*
X65940Y-50700D01*
X78980Y-50740D02*
X78990Y-50750D01*
X78224Y-50740D02*
X78980Y-50740D01*
X78414Y-73550D02*
X79170Y-73550D01*
X79170Y-73550D02*
X79180Y-73560D01*
X92570Y-73550D02*
X92580Y-73560D01*
X91814Y-73550D02*
X92570Y-73550D01*
X91624Y-50740D02*
X92380Y-50740D01*
X92380Y-50740D02*
X92390Y-50750D01*
X65989Y-72319D02*
X66130Y-72460D01*
X65364Y-72319D02*
X65989Y-72319D01*
X65174Y-49509D02*
X65799Y-49509D01*
X65799Y-49509D02*
X65940Y-49650D01*
X78849Y-49559D02*
X78990Y-49700D01*
X78224Y-49559D02*
X78849Y-49559D01*
X78414Y-72369D02*
X79039Y-72369D01*
X79039Y-72369D02*
X79180Y-72510D01*
X92439Y-72369D02*
X92580Y-72510D01*
X91814Y-72369D02*
X92439Y-72369D01*
X91624Y-49559D02*
X92249Y-49559D01*
X92249Y-49559D02*
X92390Y-49700D01*
X65364Y-72910D02*
X66130Y-72910D01*
X65174Y-50100D02*
X65940Y-50100D01*
X78224Y-50150D02*
X78990Y-50150D01*
X78414Y-72960D02*
X79180Y-72960D01*
X91814Y-72960D02*
X92580Y-72960D01*
X91624Y-50150D02*
X92390Y-50150D01*
X62630Y-76310D02*
X63180Y-76860D01*
X63180Y-76860D02*
X64480Y-76860D01*
X61880Y-76310D02*
X62630Y-76310D01*
X61380Y-75810D02*
X60630Y-75810D01*
X60630Y-75810D02*
X59180Y-74360D01*
X59180Y-74360D02*
X59180Y-74010D01*
X59180Y-74010D02*
X58930Y-73760D01*
X58930Y-73760D02*
X58280Y-73760D01*
X61880Y-76310D02*
X61380Y-75810D01*
X61690Y-53500D02*
X61190Y-53000D01*
X58740Y-50950D02*
X58090Y-50950D01*
X58990Y-51200D02*
X58740Y-50950D01*
X58990Y-51550D02*
X58990Y-51200D01*
X60440Y-53000D02*
X58990Y-51550D01*
X61190Y-53000D02*
X60440Y-53000D01*
X61690Y-53500D02*
X62440Y-53500D01*
X62990Y-54050D02*
X64290Y-54050D01*
X62440Y-53500D02*
X62990Y-54050D01*
X61550Y-63513D02*
X61913Y-63513D01*
X60550Y-65300D02*
X60550Y-66150D01*
X60750Y-65100D02*
X60550Y-65300D01*
X61900Y-65100D02*
X60750Y-65100D01*
X62150Y-64850D02*
X61900Y-65100D01*
X62150Y-63750D02*
X62150Y-64850D01*
X61913Y-63513D02*
X62150Y-63750D01*
X74963Y-63563D02*
X75200Y-63800D01*
X75200Y-63800D02*
X75200Y-64900D01*
X75200Y-64900D02*
X74950Y-65150D01*
X74950Y-65150D02*
X73800Y-65150D01*
X73800Y-65150D02*
X73600Y-65350D01*
X73600Y-65350D02*
X73600Y-66200D01*
X74600Y-63563D02*
X74963Y-63563D01*
X75490Y-53550D02*
X76040Y-54100D01*
X76040Y-54100D02*
X77340Y-54100D01*
X74740Y-53550D02*
X75490Y-53550D01*
X74240Y-53050D02*
X73490Y-53050D01*
X73490Y-53050D02*
X72040Y-51600D01*
X72040Y-51600D02*
X72040Y-51250D01*
X72040Y-51250D02*
X71790Y-51000D01*
X71790Y-51000D02*
X71140Y-51000D01*
X74740Y-53550D02*
X74240Y-53050D01*
X74930Y-76360D02*
X74430Y-75860D01*
X71980Y-73810D02*
X71330Y-73810D01*
X72230Y-74060D02*
X71980Y-73810D01*
X72230Y-74410D02*
X72230Y-74060D01*
X73680Y-75860D02*
X72230Y-74410D01*
X74430Y-75860D02*
X73680Y-75860D01*
X74930Y-76360D02*
X75680Y-76360D01*
X76230Y-76910D02*
X77530Y-76910D01*
X75680Y-76360D02*
X76230Y-76910D01*
X89080Y-76360D02*
X89630Y-76910D01*
X89630Y-76910D02*
X90930Y-76910D01*
X88330Y-76360D02*
X89080Y-76360D01*
X87830Y-75860D02*
X87080Y-75860D01*
X87080Y-75860D02*
X85630Y-74410D01*
X85630Y-74410D02*
X85630Y-74060D01*
X85630Y-74060D02*
X85380Y-73810D01*
X85380Y-73810D02*
X84730Y-73810D01*
X88330Y-76360D02*
X87830Y-75860D01*
X88140Y-53550D02*
X87640Y-53050D01*
X85190Y-51000D02*
X84540Y-51000D01*
X85440Y-51250D02*
X85190Y-51000D01*
X85440Y-51600D02*
X85440Y-51250D01*
X86890Y-53050D02*
X85440Y-51600D01*
X87640Y-53050D02*
X86890Y-53050D01*
X88140Y-53550D02*
X88890Y-53550D01*
X89440Y-54100D02*
X90740Y-54100D01*
X88890Y-53550D02*
X89440Y-54100D01*
X88000Y-63563D02*
X88363Y-63563D01*
X87000Y-65350D02*
X87000Y-66200D01*
X87200Y-65150D02*
X87000Y-65350D01*
X88350Y-65150D02*
X87200Y-65150D01*
X88600Y-64900D02*
X88350Y-65150D01*
X88600Y-63800D02*
X88600Y-64900D01*
X88363Y-63563D02*
X88600Y-63800D01*
X56820Y-78300D02*
X56680Y-78160D01*
X57395Y-78300D02*
X56820Y-78300D01*
X57205Y-55490D02*
X56630Y-55490D01*
X56630Y-55490D02*
X56490Y-55350D01*
X69680Y-55540D02*
X69540Y-55400D01*
X70255Y-55540D02*
X69680Y-55540D01*
X70445Y-78350D02*
X69870Y-78350D01*
X69870Y-78350D02*
X69730Y-78210D01*
X83270Y-78350D02*
X83130Y-78210D01*
X83845Y-78350D02*
X83270Y-78350D01*
X83655Y-55540D02*
X83080Y-55540D01*
X83080Y-55540D02*
X82940Y-55400D01*
X57395Y-77710D02*
X56680Y-77710D01*
X57205Y-54900D02*
X56490Y-54900D01*
X70255Y-54950D02*
X69540Y-54950D01*
X70445Y-77760D02*
X69730Y-77760D01*
X83845Y-77760D02*
X83130Y-77760D01*
X83655Y-54950D02*
X82940Y-54950D01*
X56689Y-77119D02*
X56680Y-77110D01*
X57395Y-77119D02*
X56689Y-77119D01*
X57205Y-54309D02*
X56499Y-54309D01*
X56499Y-54309D02*
X56490Y-54300D01*
X69549Y-54359D02*
X69540Y-54350D01*
X70255Y-54359D02*
X69549Y-54359D01*
X70445Y-77169D02*
X69739Y-77169D01*
X69739Y-77169D02*
X69730Y-77160D01*
X83139Y-77169D02*
X83130Y-77160D01*
X83845Y-77169D02*
X83139Y-77169D01*
X83655Y-54359D02*
X82949Y-54359D01*
X82949Y-54359D02*
X82940Y-54350D01*
M02*
