G04 (created by PCBNEW (2013-may-18)-stable) date Пн 18 апр 2016 10:16:46*
%MOIN*%
G04 Gerber Fmt 3.4, Leading zero omitted, Abs format*
%FSLAX34Y34*%
G01*
G70*
G90*
G04 APERTURE LIST*
%ADD10C,0.00590551*%
G04 APERTURE END LIST*
G54D10*
X79200Y-65000D02*
X82500Y-65000D01*
X82500Y-63800D02*
X82500Y-63750D01*
X79200Y-63800D02*
X82500Y-63800D01*
X69050Y-64950D02*
X69100Y-65000D01*
X66150Y-64950D02*
X69050Y-64950D01*
X66150Y-63750D02*
X69100Y-63750D01*
X62150Y-66850D02*
X64250Y-66850D01*
X62150Y-69450D02*
X62150Y-66850D01*
X60600Y-66850D02*
X57950Y-66850D01*
X60600Y-69450D02*
X60600Y-66850D01*
X62000Y-61550D02*
X63950Y-61550D01*
X62000Y-58350D02*
X62000Y-61550D01*
X60400Y-61550D02*
X58200Y-61550D01*
X60400Y-58350D02*
X60400Y-61550D01*
X60583Y-69442D02*
G75*
G03X62166Y-69442I791J-5852D01*
G74*
G01*
X61981Y-58342D02*
G75*
G03X60398Y-58342I-791J5852D01*
G74*
G01*
X60405Y-58345D02*
X60400Y-58345D01*
X66150Y-64950D02*
X64250Y-66850D01*
X63950Y-61550D02*
X66150Y-63750D01*
X56050Y-64950D02*
X57950Y-66850D01*
X56050Y-63700D02*
X56050Y-64950D01*
X58200Y-61550D02*
X56050Y-63700D01*
X71250Y-61600D02*
X69100Y-63750D01*
X69100Y-65000D02*
X71000Y-66900D01*
X77000Y-61600D02*
X79200Y-63800D01*
X79200Y-65000D02*
X77300Y-66900D01*
X73455Y-58395D02*
X73450Y-58395D01*
X75031Y-58392D02*
G75*
G03X73448Y-58392I-791J5852D01*
G74*
G01*
X73633Y-69492D02*
G75*
G03X75216Y-69492I791J-5852D01*
G74*
G01*
X73450Y-58400D02*
X73450Y-61600D01*
X73450Y-61600D02*
X71250Y-61600D01*
X75050Y-58400D02*
X75050Y-61600D01*
X75050Y-61600D02*
X77000Y-61600D01*
X73650Y-69500D02*
X73650Y-66900D01*
X73650Y-66900D02*
X71000Y-66900D01*
X75200Y-69500D02*
X75200Y-66900D01*
X75200Y-66900D02*
X77300Y-66900D01*
X88600Y-66900D02*
X90700Y-66900D01*
X88600Y-69500D02*
X88600Y-66900D01*
X87050Y-66900D02*
X84400Y-66900D01*
X87050Y-69500D02*
X87050Y-66900D01*
X88450Y-61600D02*
X90400Y-61600D01*
X88450Y-58400D02*
X88450Y-61600D01*
X86850Y-61600D02*
X84650Y-61600D01*
X86850Y-58400D02*
X86850Y-61600D01*
X87033Y-69492D02*
G75*
G03X88616Y-69492I791J-5852D01*
G74*
G01*
X88431Y-58392D02*
G75*
G03X86848Y-58392I-791J5852D01*
G74*
G01*
X86855Y-58395D02*
X86850Y-58395D01*
X92600Y-65000D02*
X90700Y-66900D01*
X92600Y-63800D02*
X92600Y-65000D01*
X90400Y-61600D02*
X92600Y-63800D01*
X82500Y-65000D02*
X84400Y-66900D01*
X84650Y-61600D02*
X82500Y-63750D01*
M02*
