M48
;DRILL file {Pcbnew (2013-may-18)-stable} date Пн 18 апр 2016 10:16:56
;FORMAT={-:-/ absolute / metric / decimal}
FMAT,2
METRIC,TZ
T1C0.635
T2C0.813
T3C1.000
T4C2.301
T5C3.000
%
G90
G05
M71
T1
X143.485Y-137.922
X143.485Y-139.446
X143.485Y-140.589
X143.967Y-195.859
X143.967Y-197.383
X143.967Y-198.526
X149.073Y-131.826
X149.555Y-189.763
X150.47Y-134.493
X150.724Y-126.873
X150.952Y-192.43
X151.105Y-135.255
X151.206Y-184.81
X151.587Y-193.192
X152.121Y-136.398
X152.603Y-194.335
X153.645Y-141.478
X154.127Y-199.415
X167.488Y-126.111
X167.488Y-127.254
X167.488Y-128.778
X167.97Y-184.048
X167.97Y-185.191
X167.97Y-186.715
X176.632Y-138.049
X176.632Y-139.573
X176.632Y-140.716
X177.114Y-195.986
X177.114Y-197.51
X177.114Y-198.653
X182.22Y-131.953
X182.702Y-189.89
X183.617Y-134.62
X183.871Y-127.
X184.099Y-192.557
X184.252Y-135.382
X184.353Y-184.937
X184.734Y-193.319
X185.268Y-136.525
X185.75Y-194.462
X186.792Y-141.605
X187.274Y-199.542
X200.635Y-126.238
X200.635Y-127.381
X200.635Y-128.905
X201.117Y-184.175
X201.117Y-185.318
X201.117Y-186.842
X210.668Y-138.049
X210.668Y-139.573
X210.668Y-140.716
X211.15Y-195.986
X211.15Y-197.51
X211.15Y-198.653
X216.256Y-131.953
X216.738Y-189.89
X217.653Y-134.62
X217.907Y-127.
X218.135Y-192.557
X218.288Y-135.382
X218.389Y-184.937
X218.77Y-193.319
X219.304Y-136.525
X219.786Y-194.462
X220.828Y-141.605
X221.31Y-199.542
X234.671Y-126.238
X234.671Y-127.381
X234.671Y-128.905
X235.153Y-184.175
X235.153Y-185.318
X235.153Y-186.842
T2
X153.797Y-161.323
X153.797Y-163.322
X156.337Y-161.323
X156.337Y-163.322
X186.944Y-161.45
X186.944Y-163.449
X189.484Y-161.45
X189.484Y-163.449
X220.98Y-161.45
X220.98Y-163.449
X223.52Y-161.45
X223.52Y-163.449
T3
X147.549Y-124.333
X147.549Y-126.873
X147.549Y-129.413
X148.031Y-182.27
X148.031Y-184.81
X148.031Y-187.35
X151.257Y-168.021
X153.797Y-168.021
X154.153Y-121.158
X154.153Y-128.27
X154.153Y-130.81
X154.153Y-133.35
X154.153Y-135.89
X154.153Y-138.43
X154.635Y-179.095
X154.635Y-186.207
X154.635Y-188.747
X154.635Y-191.287
X154.635Y-193.827
X154.635Y-196.367
X156.337Y-168.021
X156.693Y-121.158
X156.693Y-128.27
X156.693Y-130.81
X156.693Y-133.35
X156.693Y-135.89
X156.693Y-138.43
X157.175Y-179.095
X157.175Y-186.207
X157.175Y-188.747
X157.175Y-191.287
X157.175Y-193.827
X157.175Y-196.367
X158.877Y-168.021
X163.297Y-137.287
X163.297Y-139.827
X163.297Y-142.367
X163.779Y-195.224
X163.779Y-197.764
X163.779Y-200.304
X180.696Y-124.46
X180.696Y-127.
X180.696Y-129.54
X181.178Y-182.397
X181.178Y-184.937
X181.178Y-187.477
X184.404Y-168.148
X186.944Y-168.148
X187.3Y-121.285
X187.3Y-128.397
X187.3Y-130.937
X187.3Y-133.477
X187.3Y-136.017
X187.3Y-138.557
X187.782Y-179.222
X187.782Y-186.334
X187.782Y-188.874
X187.782Y-191.414
X187.782Y-193.954
X187.782Y-196.494
X189.484Y-168.148
X189.84Y-121.285
X189.84Y-128.397
X189.84Y-130.937
X189.84Y-133.477
X189.84Y-136.017
X189.84Y-138.557
X190.322Y-179.222
X190.322Y-186.334
X190.322Y-188.874
X190.322Y-191.414
X190.322Y-193.954
X190.322Y-196.494
X192.024Y-168.148
X196.444Y-137.414
X196.444Y-139.954
X196.444Y-142.494
X196.926Y-195.351
X196.926Y-197.891
X196.926Y-200.431
X214.732Y-124.46
X214.732Y-127.
X214.732Y-129.54
X215.214Y-182.397
X215.214Y-184.937
X215.214Y-187.477
X218.44Y-168.148
X220.98Y-168.148
X221.336Y-121.285
X221.336Y-128.397
X221.336Y-130.937
X221.336Y-133.477
X221.336Y-136.017
X221.336Y-138.557
X221.818Y-179.222
X221.818Y-186.334
X221.818Y-188.874
X221.818Y-191.414
X221.818Y-193.954
X221.818Y-196.494
X223.52Y-168.148
X223.876Y-121.285
X223.876Y-128.397
X223.876Y-130.937
X223.876Y-133.477
X223.876Y-136.017
X223.876Y-138.557
X224.358Y-179.222
X224.358Y-186.334
X224.358Y-188.874
X224.358Y-191.414
X224.358Y-193.954
X224.358Y-196.494
X226.06Y-168.148
X230.48Y-137.414
X230.48Y-139.954
X230.48Y-142.494
X230.962Y-195.351
X230.962Y-197.891
X230.962Y-200.431
T4
X149.068Y-158.623
X161.066Y-158.623
X182.215Y-158.75
X194.213Y-158.75
X216.251Y-158.75
X228.249Y-158.75
T5
X145.288Y-162.941
X146.423Y-133.35
X146.905Y-191.287
X164.423Y-133.35
X164.846Y-162.941
X164.905Y-191.287
X178.435Y-163.068
X179.57Y-133.477
X180.052Y-191.414
X197.57Y-133.477
X197.993Y-163.068
X198.052Y-191.414
X212.471Y-163.068
X213.606Y-133.477
X214.088Y-191.414
X231.606Y-133.477
X232.029Y-163.068
X232.088Y-191.414
T0
M30
