G04 (created by PCBNEW (2013-may-18)-stable) date Пн 18 апр 2016 10:16:46*
%MOIN*%
G04 Gerber Fmt 3.4, Leading zero omitted, Abs format*
%FSLAX34Y34*%
G01*
G70*
G90*
G04 APERTURE LIST*
%ADD10C,0.00590551*%
%ADD11C,0.16*%
%ADD12R,0.06X0.06*%
%ADD13C,0.06*%
%ADD14R,0.0787402X0.0984252*%
%ADD15O,0.0787402X0.0984252*%
%ADD16R,0.0984252X0.0787402*%
%ADD17O,0.0984252X0.0787402*%
%ADD18R,0.035X0.055*%
%ADD19C,0.1063*%
G04 APERTURE END LIST*
G54D10*
G54D11*
X57836Y-75310D03*
X64923Y-75310D03*
G54D12*
X60880Y-77310D03*
G54D13*
X61880Y-77310D03*
X60880Y-76310D03*
X61880Y-76310D03*
X60880Y-75310D03*
X61880Y-75310D03*
X60880Y-74310D03*
X61880Y-74310D03*
X60880Y-73310D03*
X61880Y-73310D03*
G54D14*
X61880Y-70510D03*
G54D15*
X60880Y-70510D03*
G54D16*
X58280Y-73760D03*
G54D17*
X58280Y-72760D03*
X58280Y-71760D03*
G54D16*
X64480Y-76860D03*
G54D17*
X64480Y-77860D03*
X64480Y-78860D03*
G54D18*
X63655Y-71260D03*
X64405Y-71260D03*
X58355Y-78510D03*
X57605Y-78510D03*
X58355Y-77710D03*
X57605Y-77710D03*
X58355Y-76910D03*
X57605Y-76910D03*
X64405Y-72110D03*
X65155Y-72110D03*
X64405Y-72910D03*
X65155Y-72910D03*
X64405Y-73710D03*
X65155Y-73710D03*
X64215Y-50900D03*
X64965Y-50900D03*
X64215Y-50100D03*
X64965Y-50100D03*
X64215Y-49300D03*
X64965Y-49300D03*
X58165Y-54100D03*
X57415Y-54100D03*
X58165Y-54900D03*
X57415Y-54900D03*
X58165Y-55700D03*
X57415Y-55700D03*
X63465Y-48450D03*
X64215Y-48450D03*
G54D16*
X64290Y-54050D03*
G54D17*
X64290Y-55050D03*
X64290Y-56050D03*
G54D16*
X58090Y-50950D03*
G54D17*
X58090Y-49950D03*
X58090Y-48950D03*
G54D14*
X61690Y-47700D03*
G54D15*
X60690Y-47700D03*
G54D12*
X60690Y-54500D03*
G54D13*
X61690Y-54500D03*
X60690Y-53500D03*
X61690Y-53500D03*
X60690Y-52500D03*
X61690Y-52500D03*
X60690Y-51500D03*
X61690Y-51500D03*
X60690Y-50500D03*
X61690Y-50500D03*
G54D11*
X64733Y-52500D03*
X57646Y-52500D03*
G54D13*
X60550Y-64300D03*
X61550Y-64300D03*
X61550Y-63513D03*
X60550Y-63513D03*
G54D19*
X58688Y-62450D03*
X63412Y-62450D03*
G54D12*
X62550Y-66150D03*
G54D13*
X61550Y-66150D03*
X60550Y-66150D03*
X59550Y-66150D03*
G54D11*
X57200Y-64150D03*
X64900Y-64150D03*
X77950Y-64200D03*
X70250Y-64200D03*
G54D12*
X75600Y-66200D03*
G54D13*
X74600Y-66200D03*
X73600Y-66200D03*
X72600Y-66200D03*
X73600Y-64350D03*
X74600Y-64350D03*
X74600Y-63563D03*
X73600Y-63563D03*
G54D19*
X71738Y-62500D03*
X76462Y-62500D03*
G54D11*
X70696Y-52550D03*
X77783Y-52550D03*
G54D12*
X73740Y-54550D03*
G54D13*
X74740Y-54550D03*
X73740Y-53550D03*
X74740Y-53550D03*
X73740Y-52550D03*
X74740Y-52550D03*
X73740Y-51550D03*
X74740Y-51550D03*
X73740Y-50550D03*
X74740Y-50550D03*
G54D14*
X74740Y-47750D03*
G54D15*
X73740Y-47750D03*
G54D16*
X71140Y-51000D03*
G54D17*
X71140Y-50000D03*
X71140Y-49000D03*
G54D16*
X77340Y-54100D03*
G54D17*
X77340Y-55100D03*
X77340Y-56100D03*
G54D18*
X76515Y-48500D03*
X77265Y-48500D03*
X71215Y-55750D03*
X70465Y-55750D03*
X71215Y-54950D03*
X70465Y-54950D03*
X71215Y-54150D03*
X70465Y-54150D03*
X77265Y-49350D03*
X78015Y-49350D03*
X77265Y-50150D03*
X78015Y-50150D03*
X77265Y-50950D03*
X78015Y-50950D03*
X77455Y-73760D03*
X78205Y-73760D03*
X77455Y-72960D03*
X78205Y-72960D03*
X77455Y-72160D03*
X78205Y-72160D03*
X71405Y-76960D03*
X70655Y-76960D03*
X71405Y-77760D03*
X70655Y-77760D03*
X71405Y-78560D03*
X70655Y-78560D03*
X76705Y-71310D03*
X77455Y-71310D03*
G54D16*
X77530Y-76910D03*
G54D17*
X77530Y-77910D03*
X77530Y-78910D03*
G54D16*
X71330Y-73810D03*
G54D17*
X71330Y-72810D03*
X71330Y-71810D03*
G54D14*
X74930Y-70560D03*
G54D15*
X73930Y-70560D03*
G54D12*
X73930Y-77360D03*
G54D13*
X74930Y-77360D03*
X73930Y-76360D03*
X74930Y-76360D03*
X73930Y-75360D03*
X74930Y-75360D03*
X73930Y-74360D03*
X74930Y-74360D03*
X73930Y-73360D03*
X74930Y-73360D03*
G54D11*
X77973Y-75360D03*
X70886Y-75360D03*
X84286Y-75360D03*
X91373Y-75360D03*
G54D12*
X87330Y-77360D03*
G54D13*
X88330Y-77360D03*
X87330Y-76360D03*
X88330Y-76360D03*
X87330Y-75360D03*
X88330Y-75360D03*
X87330Y-74360D03*
X88330Y-74360D03*
X87330Y-73360D03*
X88330Y-73360D03*
G54D14*
X88330Y-70560D03*
G54D15*
X87330Y-70560D03*
G54D16*
X84730Y-73810D03*
G54D17*
X84730Y-72810D03*
X84730Y-71810D03*
G54D16*
X90930Y-76910D03*
G54D17*
X90930Y-77910D03*
X90930Y-78910D03*
G54D18*
X90105Y-71310D03*
X90855Y-71310D03*
X84805Y-78560D03*
X84055Y-78560D03*
X84805Y-77760D03*
X84055Y-77760D03*
X84805Y-76960D03*
X84055Y-76960D03*
X90855Y-72160D03*
X91605Y-72160D03*
X90855Y-72960D03*
X91605Y-72960D03*
X90855Y-73760D03*
X91605Y-73760D03*
X90665Y-50950D03*
X91415Y-50950D03*
X90665Y-50150D03*
X91415Y-50150D03*
X90665Y-49350D03*
X91415Y-49350D03*
X84615Y-54150D03*
X83865Y-54150D03*
X84615Y-54950D03*
X83865Y-54950D03*
X84615Y-55750D03*
X83865Y-55750D03*
X89915Y-48500D03*
X90665Y-48500D03*
G54D16*
X90740Y-54100D03*
G54D17*
X90740Y-55100D03*
X90740Y-56100D03*
G54D16*
X84540Y-51000D03*
G54D17*
X84540Y-50000D03*
X84540Y-49000D03*
G54D14*
X88140Y-47750D03*
G54D15*
X87140Y-47750D03*
G54D12*
X87140Y-54550D03*
G54D13*
X88140Y-54550D03*
X87140Y-53550D03*
X88140Y-53550D03*
X87140Y-52550D03*
X88140Y-52550D03*
X87140Y-51550D03*
X88140Y-51550D03*
X87140Y-50550D03*
X88140Y-50550D03*
G54D11*
X91183Y-52550D03*
X84096Y-52550D03*
G54D13*
X87000Y-64350D03*
X88000Y-64350D03*
X88000Y-63563D03*
X87000Y-63563D03*
G54D19*
X85138Y-62500D03*
X89862Y-62500D03*
G54D12*
X89000Y-66200D03*
G54D13*
X88000Y-66200D03*
X87000Y-66200D03*
X86000Y-66200D03*
G54D11*
X83650Y-64200D03*
X91350Y-64200D03*
M02*
