G04 (created by PCBNEW (2013-may-18)-stable) date Пн 18 апр 2016 10:16:46*
%MOIN*%
G04 Gerber Fmt 3.4, Leading zero omitted, Abs format*
%FSLAX34Y34*%
G01*
G70*
G90*
G04 APERTURE LIST*
%ADD10C,0.00590551*%
%ADD11C,0.16*%
%ADD12R,0.06X0.06*%
%ADD13C,0.06*%
%ADD14R,0.0787402X0.0984252*%
%ADD15O,0.0787402X0.0984252*%
%ADD16R,0.0984252X0.0787402*%
%ADD17O,0.0984252X0.0787402*%
%ADD18R,0.035X0.055*%
%ADD19C,0.1063*%
%ADD20C,0.0275591*%
%ADD21C,0.023622*%
G04 APERTURE END LIST*
G54D10*
G54D11*
X57836Y-75310D03*
X64923Y-75310D03*
G54D12*
X60880Y-77310D03*
G54D13*
X61880Y-77310D03*
X60880Y-76310D03*
X61880Y-76310D03*
X60880Y-75310D03*
X61880Y-75310D03*
X60880Y-74310D03*
X61880Y-74310D03*
X60880Y-73310D03*
X61880Y-73310D03*
G54D14*
X61880Y-70510D03*
G54D15*
X60880Y-70510D03*
G54D16*
X58280Y-73760D03*
G54D17*
X58280Y-72760D03*
X58280Y-71760D03*
G54D16*
X64480Y-76860D03*
G54D17*
X64480Y-77860D03*
X64480Y-78860D03*
G54D18*
X63655Y-71260D03*
X64405Y-71260D03*
X58355Y-78510D03*
X57605Y-78510D03*
X58355Y-77710D03*
X57605Y-77710D03*
X58355Y-76910D03*
X57605Y-76910D03*
X64405Y-72110D03*
X65155Y-72110D03*
X64405Y-72910D03*
X65155Y-72910D03*
X64405Y-73710D03*
X65155Y-73710D03*
X64215Y-50900D03*
X64965Y-50900D03*
X64215Y-50100D03*
X64965Y-50100D03*
X64215Y-49300D03*
X64965Y-49300D03*
X58165Y-54100D03*
X57415Y-54100D03*
X58165Y-54900D03*
X57415Y-54900D03*
X58165Y-55700D03*
X57415Y-55700D03*
X63465Y-48450D03*
X64215Y-48450D03*
G54D16*
X64290Y-54050D03*
G54D17*
X64290Y-55050D03*
X64290Y-56050D03*
G54D16*
X58090Y-50950D03*
G54D17*
X58090Y-49950D03*
X58090Y-48950D03*
G54D14*
X61690Y-47700D03*
G54D15*
X60690Y-47700D03*
G54D12*
X60690Y-54500D03*
G54D13*
X61690Y-54500D03*
X60690Y-53500D03*
X61690Y-53500D03*
X60690Y-52500D03*
X61690Y-52500D03*
X60690Y-51500D03*
X61690Y-51500D03*
X60690Y-50500D03*
X61690Y-50500D03*
G54D11*
X64733Y-52500D03*
X57646Y-52500D03*
G54D13*
X60550Y-64300D03*
X61550Y-64300D03*
X61550Y-63513D03*
X60550Y-63513D03*
G54D19*
X58688Y-62450D03*
X63412Y-62450D03*
G54D12*
X62550Y-66150D03*
G54D13*
X61550Y-66150D03*
X60550Y-66150D03*
X59550Y-66150D03*
G54D11*
X57200Y-64150D03*
X64900Y-64150D03*
X77950Y-64200D03*
X70250Y-64200D03*
G54D12*
X75600Y-66200D03*
G54D13*
X74600Y-66200D03*
X73600Y-66200D03*
X72600Y-66200D03*
X73600Y-64350D03*
X74600Y-64350D03*
X74600Y-63563D03*
X73600Y-63563D03*
G54D19*
X71738Y-62500D03*
X76462Y-62500D03*
G54D11*
X70696Y-52550D03*
X77783Y-52550D03*
G54D12*
X73740Y-54550D03*
G54D13*
X74740Y-54550D03*
X73740Y-53550D03*
X74740Y-53550D03*
X73740Y-52550D03*
X74740Y-52550D03*
X73740Y-51550D03*
X74740Y-51550D03*
X73740Y-50550D03*
X74740Y-50550D03*
G54D14*
X74740Y-47750D03*
G54D15*
X73740Y-47750D03*
G54D16*
X71140Y-51000D03*
G54D17*
X71140Y-50000D03*
X71140Y-49000D03*
G54D16*
X77340Y-54100D03*
G54D17*
X77340Y-55100D03*
X77340Y-56100D03*
G54D18*
X76515Y-48500D03*
X77265Y-48500D03*
X71215Y-55750D03*
X70465Y-55750D03*
X71215Y-54950D03*
X70465Y-54950D03*
X71215Y-54150D03*
X70465Y-54150D03*
X77265Y-49350D03*
X78015Y-49350D03*
X77265Y-50150D03*
X78015Y-50150D03*
X77265Y-50950D03*
X78015Y-50950D03*
X77455Y-73760D03*
X78205Y-73760D03*
X77455Y-72960D03*
X78205Y-72960D03*
X77455Y-72160D03*
X78205Y-72160D03*
X71405Y-76960D03*
X70655Y-76960D03*
X71405Y-77760D03*
X70655Y-77760D03*
X71405Y-78560D03*
X70655Y-78560D03*
X76705Y-71310D03*
X77455Y-71310D03*
G54D16*
X77530Y-76910D03*
G54D17*
X77530Y-77910D03*
X77530Y-78910D03*
G54D16*
X71330Y-73810D03*
G54D17*
X71330Y-72810D03*
X71330Y-71810D03*
G54D14*
X74930Y-70560D03*
G54D15*
X73930Y-70560D03*
G54D12*
X73930Y-77360D03*
G54D13*
X74930Y-77360D03*
X73930Y-76360D03*
X74930Y-76360D03*
X73930Y-75360D03*
X74930Y-75360D03*
X73930Y-74360D03*
X74930Y-74360D03*
X73930Y-73360D03*
X74930Y-73360D03*
G54D11*
X77973Y-75360D03*
X70886Y-75360D03*
X84286Y-75360D03*
X91373Y-75360D03*
G54D12*
X87330Y-77360D03*
G54D13*
X88330Y-77360D03*
X87330Y-76360D03*
X88330Y-76360D03*
X87330Y-75360D03*
X88330Y-75360D03*
X87330Y-74360D03*
X88330Y-74360D03*
X87330Y-73360D03*
X88330Y-73360D03*
G54D14*
X88330Y-70560D03*
G54D15*
X87330Y-70560D03*
G54D16*
X84730Y-73810D03*
G54D17*
X84730Y-72810D03*
X84730Y-71810D03*
G54D16*
X90930Y-76910D03*
G54D17*
X90930Y-77910D03*
X90930Y-78910D03*
G54D18*
X90105Y-71310D03*
X90855Y-71310D03*
X84805Y-78560D03*
X84055Y-78560D03*
X84805Y-77760D03*
X84055Y-77760D03*
X84805Y-76960D03*
X84055Y-76960D03*
X90855Y-72160D03*
X91605Y-72160D03*
X90855Y-72960D03*
X91605Y-72960D03*
X90855Y-73760D03*
X91605Y-73760D03*
X90665Y-50950D03*
X91415Y-50950D03*
X90665Y-50150D03*
X91415Y-50150D03*
X90665Y-49350D03*
X91415Y-49350D03*
X84615Y-54150D03*
X83865Y-54150D03*
X84615Y-54950D03*
X83865Y-54950D03*
X84615Y-55750D03*
X83865Y-55750D03*
X89915Y-48500D03*
X90665Y-48500D03*
G54D16*
X90740Y-54100D03*
G54D17*
X90740Y-55100D03*
X90740Y-56100D03*
G54D16*
X84540Y-51000D03*
G54D17*
X84540Y-50000D03*
X84540Y-49000D03*
G54D14*
X88140Y-47750D03*
G54D15*
X87140Y-47750D03*
G54D12*
X87140Y-54550D03*
G54D13*
X88140Y-54550D03*
X87140Y-53550D03*
X88140Y-53550D03*
X87140Y-52550D03*
X88140Y-52550D03*
X87140Y-51550D03*
X88140Y-51550D03*
X87140Y-50550D03*
X88140Y-50550D03*
G54D11*
X91183Y-52550D03*
X84096Y-52550D03*
G54D13*
X87000Y-64350D03*
X88000Y-64350D03*
X88000Y-63563D03*
X87000Y-63563D03*
G54D19*
X85138Y-62500D03*
X89862Y-62500D03*
G54D12*
X89000Y-66200D03*
G54D13*
X88000Y-66200D03*
X87000Y-66200D03*
X86000Y-66200D03*
G54D11*
X83650Y-64200D03*
X91350Y-64200D03*
G54D20*
X58880Y-74710D03*
X58690Y-51900D03*
X71740Y-51950D03*
X71930Y-74760D03*
X85330Y-74760D03*
X85140Y-51950D03*
X60680Y-78510D03*
X60490Y-55700D03*
X73540Y-55750D03*
X73730Y-78560D03*
X87130Y-78560D03*
X86940Y-55750D03*
X59530Y-72760D03*
X59340Y-49950D03*
X72390Y-50000D03*
X72580Y-72810D03*
X85980Y-72810D03*
X85790Y-50000D03*
X59680Y-76060D03*
X59490Y-53250D03*
X72540Y-53300D03*
X72730Y-76110D03*
X86130Y-76110D03*
X85940Y-53300D03*
X60080Y-76510D03*
X59890Y-53700D03*
X72940Y-53750D03*
X73130Y-76560D03*
X86530Y-76560D03*
X86340Y-53750D03*
X59430Y-75760D03*
X59240Y-52950D03*
X72290Y-53000D03*
X72480Y-75810D03*
X85880Y-75810D03*
X85690Y-53000D03*
X66130Y-73510D03*
X65940Y-50700D03*
X78990Y-50750D03*
X79180Y-73560D03*
X92580Y-73560D03*
X92390Y-50750D03*
X66130Y-72460D03*
X65940Y-49650D03*
X78990Y-49700D03*
X79180Y-72510D03*
X92580Y-72510D03*
X92390Y-49700D03*
X66130Y-72910D03*
X65940Y-50100D03*
X78990Y-50150D03*
X79180Y-72960D03*
X92580Y-72960D03*
X92390Y-50150D03*
X56680Y-78160D03*
X56490Y-55350D03*
X69540Y-55400D03*
X69730Y-78210D03*
X83130Y-78210D03*
X82940Y-55400D03*
X56680Y-77710D03*
X56490Y-54900D03*
X69540Y-54950D03*
X69730Y-77760D03*
X83130Y-77760D03*
X82940Y-54950D03*
X56680Y-77110D03*
X56490Y-54300D03*
X69540Y-54350D03*
X69730Y-77160D03*
X83130Y-77160D03*
X82940Y-54350D03*
G54D21*
X58880Y-74710D02*
X59180Y-74410D01*
X59180Y-74410D02*
X59180Y-71910D01*
X59180Y-71910D02*
X59030Y-71760D01*
X59030Y-71760D02*
X58280Y-71760D01*
X58840Y-48950D02*
X58090Y-48950D01*
X58990Y-49100D02*
X58840Y-48950D01*
X58990Y-51600D02*
X58990Y-49100D01*
X58690Y-51900D02*
X58990Y-51600D01*
X71740Y-51950D02*
X72040Y-51650D01*
X72040Y-51650D02*
X72040Y-49150D01*
X72040Y-49150D02*
X71890Y-49000D01*
X71890Y-49000D02*
X71140Y-49000D01*
X72080Y-71810D02*
X71330Y-71810D01*
X72230Y-71960D02*
X72080Y-71810D01*
X72230Y-74460D02*
X72230Y-71960D01*
X71930Y-74760D02*
X72230Y-74460D01*
X85330Y-74760D02*
X85630Y-74460D01*
X85630Y-74460D02*
X85630Y-71960D01*
X85630Y-71960D02*
X85480Y-71810D01*
X85480Y-71810D02*
X84730Y-71810D01*
X85290Y-49000D02*
X84540Y-49000D01*
X85440Y-49150D02*
X85290Y-49000D01*
X85440Y-51650D02*
X85440Y-49150D01*
X85140Y-51950D02*
X85440Y-51650D01*
X58355Y-78510D02*
X58355Y-77710D01*
X58355Y-77710D02*
X58355Y-76910D01*
X64405Y-72110D02*
X64405Y-72910D01*
X64405Y-72910D02*
X64405Y-73710D01*
X64405Y-72110D02*
X64405Y-71260D01*
X62430Y-76760D02*
X62430Y-75110D01*
X62430Y-75110D02*
X63830Y-73710D01*
X63830Y-73710D02*
X64405Y-73710D01*
X61880Y-77310D02*
X62430Y-76760D01*
X60680Y-78510D02*
X58355Y-78510D01*
X60490Y-55700D02*
X58165Y-55700D01*
X61690Y-54500D02*
X62240Y-53950D01*
X63640Y-50900D02*
X64215Y-50900D01*
X62240Y-52300D02*
X63640Y-50900D01*
X62240Y-53950D02*
X62240Y-52300D01*
X64215Y-49300D02*
X64215Y-48450D01*
X64215Y-50100D02*
X64215Y-50900D01*
X64215Y-49300D02*
X64215Y-50100D01*
X58165Y-54900D02*
X58165Y-54100D01*
X58165Y-55700D02*
X58165Y-54900D01*
X71215Y-55750D02*
X71215Y-54950D01*
X71215Y-54950D02*
X71215Y-54150D01*
X77265Y-49350D02*
X77265Y-50150D01*
X77265Y-50150D02*
X77265Y-50950D01*
X77265Y-49350D02*
X77265Y-48500D01*
X75290Y-54000D02*
X75290Y-52350D01*
X75290Y-52350D02*
X76690Y-50950D01*
X76690Y-50950D02*
X77265Y-50950D01*
X74740Y-54550D02*
X75290Y-54000D01*
X73540Y-55750D02*
X71215Y-55750D01*
X73730Y-78560D02*
X71405Y-78560D01*
X74930Y-77360D02*
X75480Y-76810D01*
X76880Y-73760D02*
X77455Y-73760D01*
X75480Y-75160D02*
X76880Y-73760D01*
X75480Y-76810D02*
X75480Y-75160D01*
X77455Y-72160D02*
X77455Y-71310D01*
X77455Y-72960D02*
X77455Y-73760D01*
X77455Y-72160D02*
X77455Y-72960D01*
X71405Y-77760D02*
X71405Y-76960D01*
X71405Y-78560D02*
X71405Y-77760D01*
X84805Y-78560D02*
X84805Y-77760D01*
X84805Y-77760D02*
X84805Y-76960D01*
X90855Y-72160D02*
X90855Y-72960D01*
X90855Y-72960D02*
X90855Y-73760D01*
X90855Y-72160D02*
X90855Y-71310D01*
X88880Y-76810D02*
X88880Y-75160D01*
X88880Y-75160D02*
X90280Y-73760D01*
X90280Y-73760D02*
X90855Y-73760D01*
X88330Y-77360D02*
X88880Y-76810D01*
X87130Y-78560D02*
X84805Y-78560D01*
X86940Y-55750D02*
X84615Y-55750D01*
X88140Y-54550D02*
X88690Y-54000D01*
X90090Y-50950D02*
X90665Y-50950D01*
X88690Y-52350D02*
X90090Y-50950D01*
X88690Y-54000D02*
X88690Y-52350D01*
X90665Y-49350D02*
X90665Y-48500D01*
X90665Y-50150D02*
X90665Y-50950D01*
X90665Y-49350D02*
X90665Y-50150D01*
X84615Y-54950D02*
X84615Y-54150D01*
X84615Y-55750D02*
X84615Y-54950D01*
X60980Y-77860D02*
X60880Y-77760D01*
X60880Y-77760D02*
X60880Y-77310D01*
X64480Y-77860D02*
X60980Y-77860D01*
X59680Y-74860D02*
X59680Y-72910D01*
X59680Y-72910D02*
X59530Y-72760D01*
X60880Y-77310D02*
X60080Y-77310D01*
X59030Y-76260D02*
X60080Y-77310D01*
X59030Y-75510D02*
X59030Y-76260D01*
X59030Y-75510D02*
X59680Y-74860D01*
X58840Y-52700D02*
X59490Y-52050D01*
X58840Y-52700D02*
X58840Y-53450D01*
X58840Y-53450D02*
X59890Y-54500D01*
X60690Y-54500D02*
X59890Y-54500D01*
X59490Y-50100D02*
X59340Y-49950D01*
X59490Y-52050D02*
X59490Y-50100D01*
X64290Y-55050D02*
X60790Y-55050D01*
X60690Y-54950D02*
X60690Y-54500D01*
X60790Y-55050D02*
X60690Y-54950D01*
X73840Y-55100D02*
X73740Y-55000D01*
X73740Y-55000D02*
X73740Y-54550D01*
X77340Y-55100D02*
X73840Y-55100D01*
X72540Y-52100D02*
X72540Y-50150D01*
X72540Y-50150D02*
X72390Y-50000D01*
X73740Y-54550D02*
X72940Y-54550D01*
X71890Y-53500D02*
X72940Y-54550D01*
X71890Y-52750D02*
X71890Y-53500D01*
X71890Y-52750D02*
X72540Y-52100D01*
X72080Y-75560D02*
X72730Y-74910D01*
X72080Y-75560D02*
X72080Y-76310D01*
X72080Y-76310D02*
X73130Y-77360D01*
X73930Y-77360D02*
X73130Y-77360D01*
X72730Y-72960D02*
X72580Y-72810D01*
X72730Y-74910D02*
X72730Y-72960D01*
X77530Y-77910D02*
X74030Y-77910D01*
X73930Y-77810D02*
X73930Y-77360D01*
X74030Y-77910D02*
X73930Y-77810D01*
X87430Y-77910D02*
X87330Y-77810D01*
X87330Y-77810D02*
X87330Y-77360D01*
X90930Y-77910D02*
X87430Y-77910D01*
X86130Y-74910D02*
X86130Y-72960D01*
X86130Y-72960D02*
X85980Y-72810D01*
X87330Y-77360D02*
X86530Y-77360D01*
X85480Y-76310D02*
X86530Y-77360D01*
X85480Y-75560D02*
X85480Y-76310D01*
X85480Y-75560D02*
X86130Y-74910D01*
X85290Y-52750D02*
X85940Y-52100D01*
X85290Y-52750D02*
X85290Y-53500D01*
X85290Y-53500D02*
X86340Y-54550D01*
X87140Y-54550D02*
X86340Y-54550D01*
X85940Y-50150D02*
X85790Y-50000D01*
X85940Y-52100D02*
X85940Y-50150D01*
X90740Y-55100D02*
X87240Y-55100D01*
X87140Y-55000D02*
X87140Y-54550D01*
X87240Y-55100D02*
X87140Y-55000D01*
X59680Y-76060D02*
X60430Y-75310D01*
X60430Y-75310D02*
X60880Y-75310D01*
X60240Y-52500D02*
X60690Y-52500D01*
X59490Y-53250D02*
X60240Y-52500D01*
X72540Y-53300D02*
X73290Y-52550D01*
X73290Y-52550D02*
X73740Y-52550D01*
X73480Y-75360D02*
X73930Y-75360D01*
X72730Y-76110D02*
X73480Y-75360D01*
X86130Y-76110D02*
X86880Y-75360D01*
X86880Y-75360D02*
X87330Y-75360D01*
X86690Y-52550D02*
X87140Y-52550D01*
X85940Y-53300D02*
X86690Y-52550D01*
X60080Y-76510D02*
X60080Y-76260D01*
X60080Y-76260D02*
X60530Y-75810D01*
X60530Y-75810D02*
X61380Y-75810D01*
X61380Y-75810D02*
X61880Y-75310D01*
X61190Y-53000D02*
X61690Y-52500D01*
X60340Y-53000D02*
X61190Y-53000D01*
X59890Y-53450D02*
X60340Y-53000D01*
X59890Y-53700D02*
X59890Y-53450D01*
X72940Y-53750D02*
X72940Y-53500D01*
X72940Y-53500D02*
X73390Y-53050D01*
X73390Y-53050D02*
X74240Y-53050D01*
X74240Y-53050D02*
X74740Y-52550D01*
X74430Y-75860D02*
X74930Y-75360D01*
X73580Y-75860D02*
X74430Y-75860D01*
X73130Y-76310D02*
X73580Y-75860D01*
X73130Y-76560D02*
X73130Y-76310D01*
X86530Y-76560D02*
X86530Y-76310D01*
X86530Y-76310D02*
X86980Y-75860D01*
X86980Y-75860D02*
X87830Y-75860D01*
X87830Y-75860D02*
X88330Y-75360D01*
X87640Y-53050D02*
X88140Y-52550D01*
X86790Y-53050D02*
X87640Y-53050D01*
X86340Y-53500D02*
X86790Y-53050D01*
X86340Y-53750D02*
X86340Y-53500D01*
X59680Y-75510D02*
X59430Y-75760D01*
X60880Y-74310D02*
X59680Y-75510D01*
X60690Y-51500D02*
X59490Y-52700D01*
X59490Y-52700D02*
X59240Y-52950D01*
X72540Y-52750D02*
X72290Y-53000D01*
X73740Y-51550D02*
X72540Y-52750D01*
X73930Y-74360D02*
X72730Y-75560D01*
X72730Y-75560D02*
X72480Y-75810D01*
X86130Y-75560D02*
X85880Y-75810D01*
X87330Y-74360D02*
X86130Y-75560D01*
X87140Y-51550D02*
X85940Y-52750D01*
X85940Y-52750D02*
X85690Y-53000D01*
X66130Y-73510D02*
X65930Y-73710D01*
X65930Y-73710D02*
X65155Y-73710D01*
X65740Y-50900D02*
X64965Y-50900D01*
X65940Y-50700D02*
X65740Y-50900D01*
X78990Y-50750D02*
X78790Y-50950D01*
X78790Y-50950D02*
X78015Y-50950D01*
X78980Y-73760D02*
X78205Y-73760D01*
X79180Y-73560D02*
X78980Y-73760D01*
X92580Y-73560D02*
X92380Y-73760D01*
X92380Y-73760D02*
X91605Y-73760D01*
X92190Y-50950D02*
X91415Y-50950D01*
X92390Y-50750D02*
X92190Y-50950D01*
X66130Y-72460D02*
X65780Y-72110D01*
X65780Y-72110D02*
X65155Y-72110D01*
X65590Y-49300D02*
X64965Y-49300D01*
X65940Y-49650D02*
X65590Y-49300D01*
X78990Y-49700D02*
X78640Y-49350D01*
X78640Y-49350D02*
X78015Y-49350D01*
X78830Y-72160D02*
X78205Y-72160D01*
X79180Y-72510D02*
X78830Y-72160D01*
X92580Y-72510D02*
X92230Y-72160D01*
X92230Y-72160D02*
X91605Y-72160D01*
X92040Y-49350D02*
X91415Y-49350D01*
X92390Y-49700D02*
X92040Y-49350D01*
X66130Y-72910D02*
X65155Y-72910D01*
X65940Y-50100D02*
X64965Y-50100D01*
X78990Y-50150D02*
X78015Y-50150D01*
X79180Y-72960D02*
X78205Y-72960D01*
X92580Y-72960D02*
X91605Y-72960D01*
X92390Y-50150D02*
X91415Y-50150D01*
X60550Y-64300D02*
X60550Y-64750D01*
X59550Y-65750D02*
X59550Y-66150D01*
X60550Y-64750D02*
X59550Y-65750D01*
X73600Y-64800D02*
X72600Y-65800D01*
X72600Y-65800D02*
X72600Y-66200D01*
X73600Y-64350D02*
X73600Y-64800D01*
X87000Y-64350D02*
X87000Y-64800D01*
X86000Y-65800D02*
X86000Y-66200D01*
X87000Y-64800D02*
X86000Y-65800D01*
X56680Y-78160D02*
X57030Y-78510D01*
X57030Y-78510D02*
X57605Y-78510D01*
X56840Y-55700D02*
X57415Y-55700D01*
X56490Y-55350D02*
X56840Y-55700D01*
X61550Y-64300D02*
X61550Y-66150D01*
X74600Y-64350D02*
X74600Y-66200D01*
X69540Y-55400D02*
X69890Y-55750D01*
X69890Y-55750D02*
X70465Y-55750D01*
X70080Y-78560D02*
X70655Y-78560D01*
X69730Y-78210D02*
X70080Y-78560D01*
X83130Y-78210D02*
X83480Y-78560D01*
X83480Y-78560D02*
X84055Y-78560D01*
X83290Y-55750D02*
X83865Y-55750D01*
X82940Y-55400D02*
X83290Y-55750D01*
X88000Y-64350D02*
X88000Y-66200D01*
X56680Y-77710D02*
X57605Y-77710D01*
X56490Y-54900D02*
X57415Y-54900D01*
X69540Y-54950D02*
X70465Y-54950D01*
X69730Y-77760D02*
X70655Y-77760D01*
X83130Y-77760D02*
X84055Y-77760D01*
X82940Y-54950D02*
X83865Y-54950D01*
X56680Y-77110D02*
X56880Y-76910D01*
X56880Y-76910D02*
X57605Y-76910D01*
X56690Y-54100D02*
X57415Y-54100D01*
X56490Y-54300D02*
X56690Y-54100D01*
X69540Y-54350D02*
X69740Y-54150D01*
X69740Y-54150D02*
X70465Y-54150D01*
X69930Y-76960D02*
X70655Y-76960D01*
X69730Y-77160D02*
X69930Y-76960D01*
X83130Y-77160D02*
X83330Y-76960D01*
X83330Y-76960D02*
X84055Y-76960D01*
X83140Y-54150D02*
X83865Y-54150D01*
X82940Y-54350D02*
X83140Y-54150D01*
X62330Y-73860D02*
X62430Y-73760D01*
X62430Y-73760D02*
X62430Y-72860D01*
X62430Y-72860D02*
X60880Y-71310D01*
X60880Y-71310D02*
X60880Y-70510D01*
X61880Y-74310D02*
X62330Y-73860D01*
X61690Y-51500D02*
X62140Y-51050D01*
X60690Y-48500D02*
X60690Y-47700D01*
X62240Y-50050D02*
X60690Y-48500D01*
X62240Y-50950D02*
X62240Y-50050D01*
X62140Y-51050D02*
X62240Y-50950D01*
X75190Y-51100D02*
X75290Y-51000D01*
X75290Y-51000D02*
X75290Y-50100D01*
X75290Y-50100D02*
X73740Y-48550D01*
X73740Y-48550D02*
X73740Y-47750D01*
X74740Y-51550D02*
X75190Y-51100D01*
X74930Y-74360D02*
X75380Y-73910D01*
X73930Y-71360D02*
X73930Y-70560D01*
X75480Y-72910D02*
X73930Y-71360D01*
X75480Y-73810D02*
X75480Y-72910D01*
X75380Y-73910D02*
X75480Y-73810D01*
X88780Y-73910D02*
X88880Y-73810D01*
X88880Y-73810D02*
X88880Y-72910D01*
X88880Y-72910D02*
X87330Y-71360D01*
X87330Y-71360D02*
X87330Y-70560D01*
X88330Y-74360D02*
X88780Y-73910D01*
X88140Y-51550D02*
X88590Y-51100D01*
X87140Y-48550D02*
X87140Y-47750D01*
X88690Y-50100D02*
X87140Y-48550D01*
X88690Y-51000D02*
X88690Y-50100D01*
X88590Y-51100D02*
X88690Y-51000D01*
X62480Y-70510D02*
X63230Y-71260D01*
X63230Y-71260D02*
X63655Y-71260D01*
X61880Y-70510D02*
X62480Y-70510D01*
X61690Y-47700D02*
X62290Y-47700D01*
X63040Y-48450D02*
X63465Y-48450D01*
X62290Y-47700D02*
X63040Y-48450D01*
X75340Y-47750D02*
X76090Y-48500D01*
X76090Y-48500D02*
X76515Y-48500D01*
X74740Y-47750D02*
X75340Y-47750D01*
X74930Y-70560D02*
X75530Y-70560D01*
X76280Y-71310D02*
X76705Y-71310D01*
X75530Y-70560D02*
X76280Y-71310D01*
X88930Y-70560D02*
X89680Y-71310D01*
X89680Y-71310D02*
X90105Y-71310D01*
X88330Y-70560D02*
X88930Y-70560D01*
X88140Y-47750D02*
X88740Y-47750D01*
X89490Y-48500D02*
X89915Y-48500D01*
X88740Y-47750D02*
X89490Y-48500D01*
M02*
