G04 (created by PCBNEW (2013-may-18)-stable) date Сб 21 ноя 2015 22:02:29*
%MOIN*%
G04 Gerber Fmt 3.4, Leading zero omitted, Abs format*
%FSLAX34Y34*%
G01*
G70*
G90*
G04 APERTURE LIST*
%ADD10C,0.00590551*%
%ADD11C,0.16*%
%ADD12R,0.0787402X0.0984252*%
%ADD13O,0.0787402X0.0984252*%
%ADD14R,0.0984252X0.0787402*%
%ADD15O,0.0984252X0.0787402*%
%ADD16R,0.137795X0.0787402*%
%ADD17R,0.06X0.08*%
%ADD18C,0.0275591*%
%ADD19C,0.023622*%
G04 APERTURE END LIST*
G54D10*
G54D11*
X36761Y-24360D03*
X36761Y-30167D03*
G54D12*
X41931Y-30462D03*
G54D13*
X42931Y-30462D03*
G54D14*
X41604Y-24580D03*
G54D15*
X41604Y-25580D03*
X41604Y-26580D03*
G54D16*
X43415Y-25116D03*
X43415Y-26116D03*
X43415Y-27116D03*
X43415Y-28116D03*
X43415Y-29116D03*
G54D17*
X39970Y-29872D03*
X38670Y-29872D03*
X39970Y-28848D03*
X38670Y-28848D03*
X39970Y-27903D03*
X38670Y-27903D03*
X39970Y-18848D03*
X38670Y-18848D03*
X39970Y-19793D03*
X38670Y-19793D03*
X39970Y-20816D03*
X38670Y-20816D03*
G54D16*
X43415Y-16061D03*
X43415Y-17061D03*
X43415Y-18061D03*
X43415Y-19061D03*
X43415Y-20061D03*
G54D14*
X41604Y-15525D03*
G54D15*
X41604Y-16525D03*
X41604Y-17525D03*
G54D12*
X41931Y-21407D03*
G54D13*
X42931Y-21407D03*
G54D11*
X36761Y-21112D03*
X36761Y-15305D03*
X33661Y-30118D03*
X33661Y-24311D03*
G54D12*
X28492Y-24015D03*
G54D13*
X27492Y-24015D03*
G54D14*
X28818Y-29897D03*
G54D15*
X28818Y-28897D03*
X28818Y-27897D03*
G54D16*
X27007Y-29362D03*
X27007Y-28362D03*
X27007Y-27362D03*
X27007Y-26362D03*
X27007Y-25362D03*
G54D17*
X30452Y-24606D03*
X31752Y-24606D03*
X30452Y-25629D03*
X31752Y-25629D03*
X30452Y-26574D03*
X31752Y-26574D03*
X30452Y-17519D03*
X31752Y-17519D03*
X30452Y-16574D03*
X31752Y-16574D03*
X30452Y-15551D03*
X31752Y-15551D03*
G54D16*
X27007Y-20307D03*
X27007Y-19307D03*
X27007Y-18307D03*
X27007Y-17307D03*
X27007Y-16307D03*
G54D14*
X28818Y-20842D03*
G54D15*
X28818Y-19842D03*
X28818Y-18842D03*
G54D12*
X28492Y-14960D03*
G54D13*
X27492Y-14960D03*
G54D11*
X33661Y-15255D03*
X33661Y-21062D03*
G54D18*
X39950Y-30501D03*
X39950Y-21446D03*
X30472Y-23976D03*
X30472Y-14921D03*
X41840Y-28927D03*
X41840Y-19872D03*
X28582Y-25551D03*
X28582Y-16496D03*
X37982Y-29872D03*
X37982Y-20816D03*
X32440Y-24606D03*
X32440Y-15551D03*
X37982Y-28927D03*
X37982Y-19872D03*
X32440Y-25551D03*
X32440Y-16496D03*
X37982Y-27942D03*
X37982Y-18887D03*
X32440Y-26535D03*
X32440Y-17480D03*
G54D19*
X39950Y-30501D02*
X39970Y-30481D01*
X39970Y-30481D02*
X39970Y-29872D01*
X39970Y-29872D02*
X39970Y-28848D01*
X39970Y-28848D02*
X39970Y-27903D01*
X43415Y-24163D02*
X43061Y-23809D01*
X43061Y-23809D02*
X41013Y-23809D01*
X41013Y-23809D02*
X40777Y-24045D01*
X40777Y-24045D02*
X40777Y-27706D01*
X40777Y-27706D02*
X40580Y-27903D01*
X40580Y-27903D02*
X39970Y-27903D01*
X43415Y-25116D02*
X43415Y-24163D01*
X43415Y-16061D02*
X43415Y-15108D01*
X40580Y-18848D02*
X39970Y-18848D01*
X40777Y-18651D02*
X40580Y-18848D01*
X40777Y-14990D02*
X40777Y-18651D01*
X41013Y-14753D02*
X40777Y-14990D01*
X43061Y-14753D02*
X41013Y-14753D01*
X43415Y-15108D02*
X43061Y-14753D01*
X39970Y-19793D02*
X39970Y-18848D01*
X39970Y-20816D02*
X39970Y-19793D01*
X39970Y-21426D02*
X39970Y-20816D01*
X39950Y-21446D02*
X39970Y-21426D01*
X30472Y-23976D02*
X30452Y-23996D01*
X30452Y-23996D02*
X30452Y-24606D01*
X30452Y-24606D02*
X30452Y-25629D01*
X30452Y-25629D02*
X30452Y-26574D01*
X27007Y-30314D02*
X27362Y-30669D01*
X27362Y-30669D02*
X29409Y-30669D01*
X29409Y-30669D02*
X29645Y-30433D01*
X29645Y-30433D02*
X29645Y-26771D01*
X29645Y-26771D02*
X29842Y-26574D01*
X29842Y-26574D02*
X30452Y-26574D01*
X27007Y-29362D02*
X27007Y-30314D01*
X27007Y-20307D02*
X27007Y-21259D01*
X29842Y-17519D02*
X30452Y-17519D01*
X29645Y-17716D02*
X29842Y-17519D01*
X29645Y-21377D02*
X29645Y-17716D01*
X29409Y-21614D02*
X29645Y-21377D01*
X27362Y-21614D02*
X29409Y-21614D01*
X27007Y-21259D02*
X27362Y-21614D01*
X30452Y-16574D02*
X30452Y-17519D01*
X30452Y-15551D02*
X30452Y-16574D01*
X30452Y-14941D02*
X30452Y-15551D01*
X30472Y-14921D02*
X30452Y-14941D01*
X42549Y-27116D02*
X42094Y-27570D01*
X42094Y-27570D02*
X42094Y-28672D01*
X42094Y-28672D02*
X41840Y-28927D01*
X43415Y-27116D02*
X42549Y-27116D01*
X43415Y-18061D02*
X42549Y-18061D01*
X42094Y-19617D02*
X41840Y-19872D01*
X42094Y-18515D02*
X42094Y-19617D01*
X42549Y-18061D02*
X42094Y-18515D01*
X27874Y-27362D02*
X28328Y-26907D01*
X28328Y-26907D02*
X28328Y-25805D01*
X28328Y-25805D02*
X28582Y-25551D01*
X27007Y-27362D02*
X27874Y-27362D01*
X27007Y-18307D02*
X27874Y-18307D01*
X28328Y-16750D02*
X28582Y-16496D01*
X28328Y-17852D02*
X28328Y-16750D01*
X27874Y-18307D02*
X28328Y-17852D01*
X42690Y-26116D02*
X42431Y-25856D01*
X42431Y-25856D02*
X42431Y-24753D01*
X42431Y-24753D02*
X42257Y-24580D01*
X42257Y-24580D02*
X41604Y-24580D01*
X43415Y-26116D02*
X42690Y-26116D01*
X43415Y-17061D02*
X42690Y-17061D01*
X42257Y-15525D02*
X41604Y-15525D01*
X42431Y-15698D02*
X42257Y-15525D01*
X42431Y-16801D02*
X42431Y-15698D01*
X42690Y-17061D02*
X42431Y-16801D01*
X27732Y-28362D02*
X27992Y-28622D01*
X27992Y-28622D02*
X27992Y-29724D01*
X27992Y-29724D02*
X28165Y-29897D01*
X28165Y-29897D02*
X28818Y-29897D01*
X27007Y-28362D02*
X27732Y-28362D01*
X27007Y-19307D02*
X27732Y-19307D01*
X28165Y-20842D02*
X28818Y-20842D01*
X27992Y-20669D02*
X28165Y-20842D01*
X27992Y-19566D02*
X27992Y-20669D01*
X27732Y-19307D02*
X27992Y-19566D01*
X38670Y-29872D02*
X37982Y-29872D01*
X38670Y-20816D02*
X37982Y-20816D01*
X31752Y-24606D02*
X32440Y-24606D01*
X31752Y-15551D02*
X32440Y-15551D01*
X37982Y-28927D02*
X38061Y-28848D01*
X38061Y-28848D02*
X38670Y-28848D01*
X38061Y-19793D02*
X38670Y-19793D01*
X37982Y-19872D02*
X38061Y-19793D01*
X32440Y-25551D02*
X32362Y-25629D01*
X32362Y-25629D02*
X31752Y-25629D01*
X32362Y-16574D02*
X31752Y-16574D01*
X32440Y-16496D02*
X32362Y-16574D01*
X38021Y-27903D02*
X37982Y-27942D01*
X38670Y-27903D02*
X38021Y-27903D01*
X38670Y-18848D02*
X38021Y-18848D01*
X38021Y-18848D02*
X37982Y-18887D01*
X32401Y-26574D02*
X32440Y-26535D01*
X31752Y-26574D02*
X32401Y-26574D01*
X31752Y-17519D02*
X32401Y-17519D01*
X32401Y-17519D02*
X32440Y-17480D01*
X42612Y-28116D02*
X42431Y-28297D01*
X42431Y-28297D02*
X42431Y-29557D01*
X42431Y-29557D02*
X42931Y-30057D01*
X42931Y-30057D02*
X42931Y-30462D01*
X43415Y-28116D02*
X42612Y-28116D01*
X43415Y-19061D02*
X42612Y-19061D01*
X42931Y-21001D02*
X42931Y-21407D01*
X42431Y-20501D02*
X42931Y-21001D01*
X42431Y-19242D02*
X42431Y-20501D01*
X42612Y-19061D02*
X42431Y-19242D01*
X27811Y-26362D02*
X27992Y-26181D01*
X27992Y-26181D02*
X27992Y-24921D01*
X27992Y-24921D02*
X27492Y-24421D01*
X27492Y-24421D02*
X27492Y-24015D01*
X27007Y-26362D02*
X27811Y-26362D01*
X27007Y-17307D02*
X27811Y-17307D01*
X27492Y-15366D02*
X27492Y-14960D01*
X27992Y-15866D02*
X27492Y-15366D01*
X27992Y-17125D02*
X27992Y-15866D01*
X27811Y-17307D02*
X27992Y-17125D01*
M02*
