G04 (created by PCBNEW (2013-may-18)-stable) date Сб 21 ноя 2015 22:02:29*
%MOIN*%
G04 Gerber Fmt 3.4, Leading zero omitted, Abs format*
%FSLAX34Y34*%
G01*
G70*
G90*
G04 APERTURE LIST*
%ADD10C,0.00590551*%
%ADD11C,0.00787402*%
%ADD12C,0.005*%
G04 APERTURE END LIST*
G54D10*
G54D11*
X35236Y-14173D02*
X35236Y-31299D01*
X26181Y-22637D02*
X44291Y-22637D01*
G54D12*
X40320Y-29422D02*
X40320Y-30322D01*
X40320Y-30322D02*
X39670Y-30322D01*
X38970Y-29422D02*
X38320Y-29422D01*
X38320Y-29422D02*
X38320Y-30322D01*
X38320Y-30322D02*
X38970Y-30322D01*
X39670Y-29422D02*
X40320Y-29422D01*
X40320Y-28398D02*
X40320Y-29298D01*
X40320Y-29298D02*
X39670Y-29298D01*
X38970Y-28398D02*
X38320Y-28398D01*
X38320Y-28398D02*
X38320Y-29298D01*
X38320Y-29298D02*
X38970Y-29298D01*
X39670Y-28398D02*
X40320Y-28398D01*
X40320Y-27453D02*
X40320Y-28353D01*
X40320Y-28353D02*
X39670Y-28353D01*
X38970Y-27453D02*
X38320Y-27453D01*
X38320Y-27453D02*
X38320Y-28353D01*
X38320Y-28353D02*
X38970Y-28353D01*
X39670Y-27453D02*
X40320Y-27453D01*
X40320Y-18398D02*
X40320Y-19298D01*
X40320Y-19298D02*
X39670Y-19298D01*
X38970Y-18398D02*
X38320Y-18398D01*
X38320Y-18398D02*
X38320Y-19298D01*
X38320Y-19298D02*
X38970Y-19298D01*
X39670Y-18398D02*
X40320Y-18398D01*
X40320Y-19343D02*
X40320Y-20243D01*
X40320Y-20243D02*
X39670Y-20243D01*
X38970Y-19343D02*
X38320Y-19343D01*
X38320Y-19343D02*
X38320Y-20243D01*
X38320Y-20243D02*
X38970Y-20243D01*
X39670Y-19343D02*
X40320Y-19343D01*
X40320Y-20366D02*
X40320Y-21266D01*
X40320Y-21266D02*
X39670Y-21266D01*
X38970Y-20366D02*
X38320Y-20366D01*
X38320Y-20366D02*
X38320Y-21266D01*
X38320Y-21266D02*
X38970Y-21266D01*
X39670Y-20366D02*
X40320Y-20366D01*
X30102Y-25056D02*
X30102Y-24156D01*
X30102Y-24156D02*
X30752Y-24156D01*
X31452Y-25056D02*
X32102Y-25056D01*
X32102Y-25056D02*
X32102Y-24156D01*
X32102Y-24156D02*
X31452Y-24156D01*
X30752Y-25056D02*
X30102Y-25056D01*
X30102Y-26079D02*
X30102Y-25179D01*
X30102Y-25179D02*
X30752Y-25179D01*
X31452Y-26079D02*
X32102Y-26079D01*
X32102Y-26079D02*
X32102Y-25179D01*
X32102Y-25179D02*
X31452Y-25179D01*
X30752Y-26079D02*
X30102Y-26079D01*
X30102Y-27024D02*
X30102Y-26124D01*
X30102Y-26124D02*
X30752Y-26124D01*
X31452Y-27024D02*
X32102Y-27024D01*
X32102Y-27024D02*
X32102Y-26124D01*
X32102Y-26124D02*
X31452Y-26124D01*
X30752Y-27024D02*
X30102Y-27024D01*
X30102Y-17969D02*
X30102Y-17069D01*
X30102Y-17069D02*
X30752Y-17069D01*
X31452Y-17969D02*
X32102Y-17969D01*
X32102Y-17969D02*
X32102Y-17069D01*
X32102Y-17069D02*
X31452Y-17069D01*
X30752Y-17969D02*
X30102Y-17969D01*
X30102Y-17024D02*
X30102Y-16124D01*
X30102Y-16124D02*
X30752Y-16124D01*
X31452Y-17024D02*
X32102Y-17024D01*
X32102Y-17024D02*
X32102Y-16124D01*
X32102Y-16124D02*
X31452Y-16124D01*
X30752Y-17024D02*
X30102Y-17024D01*
X30102Y-16001D02*
X30102Y-15101D01*
X30102Y-15101D02*
X30752Y-15101D01*
X31452Y-16001D02*
X32102Y-16001D01*
X32102Y-16001D02*
X32102Y-15101D01*
X32102Y-15101D02*
X31452Y-15101D01*
X30752Y-16001D02*
X30102Y-16001D01*
X39370Y-29993D02*
X39470Y-29850D01*
X39542Y-29993D02*
X39542Y-29693D01*
X39428Y-29693D01*
X39399Y-29707D01*
X39385Y-29722D01*
X39370Y-29750D01*
X39370Y-29793D01*
X39385Y-29822D01*
X39399Y-29836D01*
X39428Y-29850D01*
X39542Y-29850D01*
X39113Y-29693D02*
X39170Y-29693D01*
X39199Y-29707D01*
X39213Y-29722D01*
X39242Y-29764D01*
X39256Y-29822D01*
X39256Y-29936D01*
X39242Y-29964D01*
X39228Y-29979D01*
X39199Y-29993D01*
X39142Y-29993D01*
X39113Y-29979D01*
X39099Y-29964D01*
X39085Y-29936D01*
X39085Y-29864D01*
X39099Y-29836D01*
X39113Y-29822D01*
X39142Y-29807D01*
X39199Y-29807D01*
X39228Y-29822D01*
X39242Y-29836D01*
X39256Y-29864D01*
X39370Y-28969D02*
X39470Y-28826D01*
X39542Y-28969D02*
X39542Y-28669D01*
X39428Y-28669D01*
X39399Y-28684D01*
X39385Y-28698D01*
X39370Y-28726D01*
X39370Y-28769D01*
X39385Y-28798D01*
X39399Y-28812D01*
X39428Y-28826D01*
X39542Y-28826D01*
X39099Y-28669D02*
X39242Y-28669D01*
X39256Y-28812D01*
X39242Y-28798D01*
X39213Y-28784D01*
X39142Y-28784D01*
X39113Y-28798D01*
X39099Y-28812D01*
X39085Y-28841D01*
X39085Y-28912D01*
X39099Y-28941D01*
X39113Y-28955D01*
X39142Y-28969D01*
X39213Y-28969D01*
X39242Y-28955D01*
X39256Y-28941D01*
X39370Y-28024D02*
X39470Y-27882D01*
X39542Y-28024D02*
X39542Y-27724D01*
X39428Y-27724D01*
X39399Y-27739D01*
X39385Y-27753D01*
X39370Y-27782D01*
X39370Y-27824D01*
X39385Y-27853D01*
X39399Y-27867D01*
X39428Y-27882D01*
X39542Y-27882D01*
X39113Y-27824D02*
X39113Y-28024D01*
X39185Y-27710D02*
X39256Y-27924D01*
X39070Y-27924D01*
X39370Y-18969D02*
X39470Y-18826D01*
X39542Y-18969D02*
X39542Y-18669D01*
X39428Y-18669D01*
X39399Y-18684D01*
X39385Y-18698D01*
X39370Y-18726D01*
X39370Y-18769D01*
X39385Y-18798D01*
X39399Y-18812D01*
X39428Y-18826D01*
X39542Y-18826D01*
X39113Y-18769D02*
X39113Y-18969D01*
X39185Y-18655D02*
X39256Y-18869D01*
X39070Y-18869D01*
X39370Y-19914D02*
X39470Y-19771D01*
X39542Y-19914D02*
X39542Y-19614D01*
X39428Y-19614D01*
X39399Y-19629D01*
X39385Y-19643D01*
X39370Y-19671D01*
X39370Y-19714D01*
X39385Y-19743D01*
X39399Y-19757D01*
X39428Y-19771D01*
X39542Y-19771D01*
X39099Y-19614D02*
X39242Y-19614D01*
X39256Y-19757D01*
X39242Y-19743D01*
X39213Y-19729D01*
X39142Y-19729D01*
X39113Y-19743D01*
X39099Y-19757D01*
X39085Y-19786D01*
X39085Y-19857D01*
X39099Y-19886D01*
X39113Y-19900D01*
X39142Y-19914D01*
X39213Y-19914D01*
X39242Y-19900D01*
X39256Y-19886D01*
X39370Y-20938D02*
X39470Y-20795D01*
X39542Y-20938D02*
X39542Y-20638D01*
X39428Y-20638D01*
X39399Y-20652D01*
X39385Y-20666D01*
X39370Y-20695D01*
X39370Y-20738D01*
X39385Y-20766D01*
X39399Y-20781D01*
X39428Y-20795D01*
X39542Y-20795D01*
X39113Y-20638D02*
X39170Y-20638D01*
X39199Y-20652D01*
X39213Y-20666D01*
X39242Y-20709D01*
X39256Y-20766D01*
X39256Y-20881D01*
X39242Y-20909D01*
X39228Y-20924D01*
X39199Y-20938D01*
X39142Y-20938D01*
X39113Y-20924D01*
X39099Y-20909D01*
X39085Y-20881D01*
X39085Y-20809D01*
X39099Y-20781D01*
X39113Y-20766D01*
X39142Y-20752D01*
X39199Y-20752D01*
X39228Y-20766D01*
X39242Y-20781D01*
X39256Y-20809D01*
X31152Y-24727D02*
X31252Y-24584D01*
X31323Y-24727D02*
X31323Y-24427D01*
X31209Y-24427D01*
X31180Y-24442D01*
X31166Y-24456D01*
X31152Y-24484D01*
X31152Y-24527D01*
X31166Y-24556D01*
X31180Y-24570D01*
X31209Y-24584D01*
X31323Y-24584D01*
X30895Y-24427D02*
X30952Y-24427D01*
X30980Y-24442D01*
X30995Y-24456D01*
X31023Y-24499D01*
X31038Y-24556D01*
X31038Y-24670D01*
X31023Y-24699D01*
X31009Y-24713D01*
X30980Y-24727D01*
X30923Y-24727D01*
X30895Y-24713D01*
X30880Y-24699D01*
X30866Y-24670D01*
X30866Y-24599D01*
X30880Y-24570D01*
X30895Y-24556D01*
X30923Y-24542D01*
X30980Y-24542D01*
X31009Y-24556D01*
X31023Y-24570D01*
X31038Y-24599D01*
X31152Y-25751D02*
X31252Y-25608D01*
X31323Y-25751D02*
X31323Y-25451D01*
X31209Y-25451D01*
X31180Y-25465D01*
X31166Y-25479D01*
X31152Y-25508D01*
X31152Y-25551D01*
X31166Y-25579D01*
X31180Y-25594D01*
X31209Y-25608D01*
X31323Y-25608D01*
X30880Y-25451D02*
X31023Y-25451D01*
X31038Y-25594D01*
X31023Y-25579D01*
X30995Y-25565D01*
X30923Y-25565D01*
X30895Y-25579D01*
X30880Y-25594D01*
X30866Y-25622D01*
X30866Y-25694D01*
X30880Y-25722D01*
X30895Y-25737D01*
X30923Y-25751D01*
X30995Y-25751D01*
X31023Y-25737D01*
X31038Y-25722D01*
X31152Y-26696D02*
X31252Y-26553D01*
X31323Y-26696D02*
X31323Y-26396D01*
X31209Y-26396D01*
X31180Y-26410D01*
X31166Y-26424D01*
X31152Y-26453D01*
X31152Y-26496D01*
X31166Y-26524D01*
X31180Y-26539D01*
X31209Y-26553D01*
X31323Y-26553D01*
X30895Y-26496D02*
X30895Y-26696D01*
X30966Y-26381D02*
X31038Y-26596D01*
X30852Y-26596D01*
X31152Y-17641D02*
X31252Y-17498D01*
X31323Y-17641D02*
X31323Y-17341D01*
X31209Y-17341D01*
X31180Y-17355D01*
X31166Y-17369D01*
X31152Y-17398D01*
X31152Y-17441D01*
X31166Y-17469D01*
X31180Y-17483D01*
X31209Y-17498D01*
X31323Y-17498D01*
X30895Y-17441D02*
X30895Y-17641D01*
X30966Y-17326D02*
X31038Y-17541D01*
X30852Y-17541D01*
X31152Y-16696D02*
X31252Y-16553D01*
X31323Y-16696D02*
X31323Y-16396D01*
X31209Y-16396D01*
X31180Y-16410D01*
X31166Y-16424D01*
X31152Y-16453D01*
X31152Y-16496D01*
X31166Y-16524D01*
X31180Y-16539D01*
X31209Y-16553D01*
X31323Y-16553D01*
X30880Y-16396D02*
X31023Y-16396D01*
X31038Y-16539D01*
X31023Y-16524D01*
X30995Y-16510D01*
X30923Y-16510D01*
X30895Y-16524D01*
X30880Y-16539D01*
X30866Y-16567D01*
X30866Y-16639D01*
X30880Y-16667D01*
X30895Y-16681D01*
X30923Y-16696D01*
X30995Y-16696D01*
X31023Y-16681D01*
X31038Y-16667D01*
X31152Y-15672D02*
X31252Y-15529D01*
X31323Y-15672D02*
X31323Y-15372D01*
X31209Y-15372D01*
X31180Y-15386D01*
X31166Y-15401D01*
X31152Y-15429D01*
X31152Y-15472D01*
X31166Y-15501D01*
X31180Y-15515D01*
X31209Y-15529D01*
X31323Y-15529D01*
X30895Y-15372D02*
X30952Y-15372D01*
X30980Y-15386D01*
X30995Y-15401D01*
X31023Y-15444D01*
X31038Y-15501D01*
X31038Y-15615D01*
X31023Y-15644D01*
X31009Y-15658D01*
X30980Y-15672D01*
X30923Y-15672D01*
X30895Y-15658D01*
X30880Y-15644D01*
X30866Y-15615D01*
X30866Y-15544D01*
X30880Y-15515D01*
X30895Y-15501D01*
X30923Y-15486D01*
X30980Y-15486D01*
X31009Y-15501D01*
X31023Y-15515D01*
X31038Y-15544D01*
M02*
