M48
;DRILL file {Pcbnew (2013-may-18)-stable} date Сб 21 ноя 2015 22:02:26
;FORMAT={-:-/ absolute / metric / decimal}
FMAT,2
METRIC,TZ
T1C0.300
T2C1.000
T3C3.000
%
G90
G05
M71
T1
X72.6Y-41.9
X72.6Y-64.9
X77.4Y-37.9
X77.4Y-60.9
X82.4Y-39.5
X82.4Y-41.9
X82.4Y-44.4
X82.4Y-62.5
X82.4Y-64.9
X82.4Y-67.4
X96.475Y-47.975
X96.475Y-50.475
X96.475Y-52.875
X96.475Y-70.975
X96.475Y-73.475
X96.475Y-75.875
X101.475Y-54.475
X101.475Y-77.475
X106.275Y-50.475
X106.275Y-73.475
T2
X69.83Y-38.
X69.83Y-61.
X72.37Y-38.
X72.37Y-61.
X73.2Y-47.86
X73.2Y-50.4
X73.2Y-52.94
X73.2Y-70.86
X73.2Y-73.4
X73.2Y-75.94
X105.675Y-39.435
X105.675Y-41.975
X105.675Y-44.515
X105.675Y-62.435
X105.675Y-64.975
X105.675Y-67.515
X106.505Y-54.375
X106.505Y-77.375
X109.045Y-54.375
X109.045Y-77.375
T3
X85.5Y-38.75
X85.5Y-53.5
X85.5Y-61.75
X85.5Y-76.5
X93.375Y-38.875
X93.375Y-53.625
X93.375Y-61.875
X93.375Y-76.625
T0
M30
