G04 (created by PCBNEW (2013-may-18)-stable) date Сб 21 ноя 2015 22:02:29*
%MOIN*%
G04 Gerber Fmt 3.4, Leading zero omitted, Abs format*
%FSLAX34Y34*%
G01*
G70*
G90*
G04 APERTURE LIST*
%ADD10C,0.00590551*%
%ADD11C,0.16*%
%ADD12R,0.0787402X0.0984252*%
%ADD13O,0.0787402X0.0984252*%
%ADD14R,0.0984252X0.0787402*%
%ADD15O,0.0984252X0.0787402*%
%ADD16R,0.06X0.08*%
G04 APERTURE END LIST*
G54D10*
G54D11*
X36761Y-24360D03*
X36761Y-30167D03*
G54D12*
X41931Y-30462D03*
G54D13*
X42931Y-30462D03*
G54D14*
X41604Y-24580D03*
G54D15*
X41604Y-25580D03*
X41604Y-26580D03*
G54D16*
X39970Y-29872D03*
X38670Y-29872D03*
X39970Y-28848D03*
X38670Y-28848D03*
X39970Y-27903D03*
X38670Y-27903D03*
X39970Y-18848D03*
X38670Y-18848D03*
X39970Y-19793D03*
X38670Y-19793D03*
X39970Y-20816D03*
X38670Y-20816D03*
G54D14*
X41604Y-15525D03*
G54D15*
X41604Y-16525D03*
X41604Y-17525D03*
G54D12*
X41931Y-21407D03*
G54D13*
X42931Y-21407D03*
G54D11*
X36761Y-21112D03*
X36761Y-15305D03*
X33661Y-30118D03*
X33661Y-24311D03*
G54D12*
X28492Y-24015D03*
G54D13*
X27492Y-24015D03*
G54D14*
X28818Y-29897D03*
G54D15*
X28818Y-28897D03*
X28818Y-27897D03*
G54D16*
X30452Y-24606D03*
X31752Y-24606D03*
X30452Y-25629D03*
X31752Y-25629D03*
X30452Y-26574D03*
X31752Y-26574D03*
X30452Y-17519D03*
X31752Y-17519D03*
X30452Y-16574D03*
X31752Y-16574D03*
X30452Y-15551D03*
X31752Y-15551D03*
G54D14*
X28818Y-20842D03*
G54D15*
X28818Y-19842D03*
X28818Y-18842D03*
G54D12*
X28492Y-14960D03*
G54D13*
X27492Y-14960D03*
G54D11*
X33661Y-15255D03*
X33661Y-21062D03*
M02*
