G04 (created by PCBNEW (2013-may-18)-stable) date Сб 21 ноя 2015 22:02:29*
%MOIN*%
G04 Gerber Fmt 3.4, Leading zero omitted, Abs format*
%FSLAX34Y34*%
G01*
G70*
G90*
G04 APERTURE LIST*
%ADD10C,0.00590551*%
%ADD11C,0.16*%
%ADD12R,0.0787402X0.0984252*%
%ADD13O,0.0787402X0.0984252*%
%ADD14R,0.0984252X0.0787402*%
%ADD15O,0.0984252X0.0787402*%
%ADD16R,0.0787402X0.0393701*%
%ADD17R,0.137795X0.0787402*%
%ADD18R,0.06X0.08*%
%ADD19C,0.0275591*%
%ADD20C,0.023622*%
G04 APERTURE END LIST*
G54D10*
G54D11*
X36761Y-24360D03*
X36761Y-30167D03*
G54D12*
X41931Y-30462D03*
G54D13*
X42931Y-30462D03*
G54D14*
X41604Y-24580D03*
G54D15*
X41604Y-25580D03*
X41604Y-26580D03*
G54D16*
X41013Y-29517D03*
X41013Y-28927D03*
X41013Y-28336D03*
X39045Y-28336D03*
X39045Y-28927D03*
X39045Y-29517D03*
G54D17*
X43415Y-27116D03*
X43415Y-28116D03*
X43415Y-29116D03*
X43415Y-26116D03*
X43415Y-25116D03*
G54D18*
X40679Y-30501D03*
X39379Y-30501D03*
X40679Y-21446D03*
X39379Y-21446D03*
G54D17*
X43415Y-18061D03*
X43415Y-19061D03*
X43415Y-20061D03*
X43415Y-17061D03*
X43415Y-16061D03*
G54D16*
X41013Y-20462D03*
X41013Y-19872D03*
X41013Y-19281D03*
X39045Y-19281D03*
X39045Y-19872D03*
X39045Y-20462D03*
G54D14*
X41604Y-15525D03*
G54D15*
X41604Y-16525D03*
X41604Y-17525D03*
G54D12*
X41931Y-21407D03*
G54D13*
X42931Y-21407D03*
G54D11*
X36761Y-21112D03*
X36761Y-15305D03*
X33661Y-30118D03*
X33661Y-24311D03*
G54D12*
X28492Y-24015D03*
G54D13*
X27492Y-24015D03*
G54D14*
X28818Y-29897D03*
G54D15*
X28818Y-28897D03*
X28818Y-27897D03*
G54D16*
X29409Y-24960D03*
X29409Y-25551D03*
X29409Y-26141D03*
X31377Y-26141D03*
X31377Y-25551D03*
X31377Y-24960D03*
G54D17*
X27007Y-27362D03*
X27007Y-26362D03*
X27007Y-25362D03*
X27007Y-28362D03*
X27007Y-29362D03*
G54D18*
X29743Y-23976D03*
X31043Y-23976D03*
X29743Y-14921D03*
X31043Y-14921D03*
G54D17*
X27007Y-18307D03*
X27007Y-17307D03*
X27007Y-16307D03*
X27007Y-19307D03*
X27007Y-20307D03*
G54D16*
X29409Y-15905D03*
X29409Y-16496D03*
X29409Y-17086D03*
X31377Y-17086D03*
X31377Y-16496D03*
X31377Y-15905D03*
G54D14*
X28818Y-20842D03*
G54D15*
X28818Y-19842D03*
X28818Y-18842D03*
G54D12*
X28492Y-14960D03*
G54D13*
X27492Y-14960D03*
G54D11*
X33661Y-15255D03*
X33661Y-21062D03*
G54D19*
X39950Y-30501D03*
X39950Y-21446D03*
X30472Y-23976D03*
X30472Y-14921D03*
X41840Y-28927D03*
X41840Y-19872D03*
X28582Y-25551D03*
X28582Y-16496D03*
X37982Y-29872D03*
X37982Y-20816D03*
X32440Y-24606D03*
X32440Y-15551D03*
X37982Y-28927D03*
X37982Y-19872D03*
X32440Y-25551D03*
X32440Y-16496D03*
X37982Y-27942D03*
X37982Y-18887D03*
X32440Y-26535D03*
X32440Y-17480D03*
G54D20*
X42683Y-26116D02*
X42218Y-26580D01*
X42218Y-26580D02*
X41604Y-26580D01*
X43415Y-26116D02*
X42683Y-26116D01*
X43415Y-17061D02*
X42683Y-17061D01*
X42218Y-17525D02*
X41604Y-17525D01*
X42683Y-17061D02*
X42218Y-17525D01*
X27740Y-28362D02*
X28204Y-27897D01*
X28204Y-27897D02*
X28818Y-27897D01*
X27007Y-28362D02*
X27740Y-28362D01*
X27007Y-19307D02*
X27740Y-19307D01*
X28204Y-18842D02*
X28818Y-18842D01*
X27740Y-19307D02*
X28204Y-18842D01*
X39379Y-30501D02*
X39950Y-30501D01*
X39379Y-21446D02*
X39950Y-21446D01*
X31043Y-23976D02*
X30472Y-23976D01*
X31043Y-14921D02*
X30472Y-14921D01*
X42738Y-25116D02*
X42273Y-25580D01*
X42273Y-25580D02*
X41604Y-25580D01*
X43415Y-25116D02*
X42738Y-25116D01*
X43415Y-16061D02*
X42738Y-16061D01*
X42273Y-16525D02*
X41604Y-16525D01*
X42738Y-16061D02*
X42273Y-16525D01*
X27685Y-29362D02*
X28149Y-28897D01*
X28149Y-28897D02*
X28818Y-28897D01*
X27007Y-29362D02*
X27685Y-29362D01*
X27007Y-20307D02*
X27685Y-20307D01*
X28149Y-19842D02*
X28818Y-19842D01*
X27685Y-20307D02*
X28149Y-19842D01*
X42549Y-27116D02*
X42076Y-27588D01*
X42076Y-27588D02*
X42076Y-28061D01*
X42076Y-28061D02*
X41801Y-28336D01*
X41801Y-28336D02*
X41013Y-28336D01*
X43415Y-27116D02*
X42549Y-27116D01*
X43415Y-18061D02*
X42549Y-18061D01*
X41801Y-19281D02*
X41013Y-19281D01*
X42076Y-19005D02*
X41801Y-19281D01*
X42076Y-18533D02*
X42076Y-19005D01*
X42549Y-18061D02*
X42076Y-18533D01*
X27874Y-27362D02*
X28346Y-26889D01*
X28346Y-26889D02*
X28346Y-26417D01*
X28346Y-26417D02*
X28622Y-26141D01*
X28622Y-26141D02*
X29409Y-26141D01*
X27007Y-27362D02*
X27874Y-27362D01*
X27007Y-18307D02*
X27874Y-18307D01*
X28622Y-17086D02*
X29409Y-17086D01*
X28346Y-17362D02*
X28622Y-17086D01*
X28346Y-17834D02*
X28346Y-17362D01*
X27874Y-18307D02*
X28346Y-17834D01*
X41840Y-28927D02*
X41013Y-28927D01*
X41840Y-19872D02*
X41013Y-19872D01*
X28582Y-25551D02*
X29409Y-25551D01*
X28582Y-16496D02*
X29409Y-16496D01*
X42612Y-28116D02*
X42431Y-28297D01*
X42431Y-28297D02*
X42431Y-29360D01*
X42431Y-29360D02*
X42273Y-29517D01*
X42273Y-29517D02*
X41013Y-29517D01*
X43415Y-28116D02*
X42612Y-28116D01*
X43415Y-19061D02*
X42612Y-19061D01*
X42273Y-20462D02*
X41013Y-20462D01*
X42431Y-20305D02*
X42273Y-20462D01*
X42431Y-19242D02*
X42431Y-20305D01*
X42612Y-19061D02*
X42431Y-19242D01*
X27811Y-26362D02*
X27992Y-26181D01*
X27992Y-26181D02*
X27992Y-25118D01*
X27992Y-25118D02*
X28149Y-24960D01*
X28149Y-24960D02*
X29409Y-24960D01*
X27007Y-26362D02*
X27811Y-26362D01*
X27007Y-17307D02*
X27811Y-17307D01*
X28149Y-15905D02*
X29409Y-15905D01*
X27992Y-16062D02*
X28149Y-15905D01*
X27992Y-17125D02*
X27992Y-16062D01*
X27811Y-17307D02*
X27992Y-17125D01*
X37982Y-29872D02*
X38336Y-29517D01*
X38336Y-29517D02*
X39045Y-29517D01*
X38336Y-20462D02*
X39045Y-20462D01*
X37982Y-20816D02*
X38336Y-20462D01*
X32440Y-24606D02*
X32086Y-24960D01*
X32086Y-24960D02*
X31377Y-24960D01*
X32086Y-15905D02*
X31377Y-15905D01*
X32440Y-15551D02*
X32086Y-15905D01*
X39045Y-28927D02*
X37982Y-28927D01*
X39045Y-19872D02*
X37982Y-19872D01*
X31377Y-25551D02*
X32440Y-25551D01*
X31377Y-16496D02*
X32440Y-16496D01*
X37982Y-27942D02*
X38375Y-28336D01*
X38375Y-28336D02*
X39045Y-28336D01*
X38375Y-19281D02*
X39045Y-19281D01*
X37982Y-18887D02*
X38375Y-19281D01*
X32440Y-26535D02*
X32047Y-26141D01*
X32047Y-26141D02*
X31377Y-26141D01*
X32047Y-17086D02*
X31377Y-17086D01*
X32440Y-17480D02*
X32047Y-17086D01*
X40718Y-30462D02*
X40679Y-30501D01*
X41931Y-30462D02*
X40718Y-30462D01*
X41931Y-21407D02*
X40718Y-21407D01*
X40718Y-21407D02*
X40679Y-21446D01*
X29704Y-24015D02*
X29743Y-23976D01*
X28492Y-24015D02*
X29704Y-24015D01*
X28492Y-14960D02*
X29704Y-14960D01*
X29704Y-14960D02*
X29743Y-14921D01*
M02*
