G04 (created by PCBNEW (2013-may-18)-stable) date Сб 21 ноя 2015 22:02:29*
%MOIN*%
G04 Gerber Fmt 3.4, Leading zero omitted, Abs format*
%FSLAX34Y34*%
G01*
G70*
G90*
G04 APERTURE LIST*
%ADD10C,0.00590551*%
%ADD11C,0.00787402*%
%ADD12C,0.015*%
%ADD13C,0.006*%
%ADD14C,0.005*%
%ADD15C,0.01*%
G04 APERTURE END LIST*
G54D10*
G54D11*
X39370Y-18602D02*
G75*
G03X39370Y-18602I-98J0D01*
G74*
G01*
X39370Y-27657D02*
G75*
G03X39370Y-27657I-98J0D01*
G74*
G01*
X31200Y-26771D02*
G75*
G03X31200Y-26771I-98J0D01*
G74*
G01*
X31200Y-17716D02*
G75*
G03X31200Y-17716I-98J0D01*
G74*
G01*
G54D12*
X37661Y-24360D02*
G75*
G03X37661Y-24360I-900J0D01*
G74*
G01*
X37661Y-30167D02*
G75*
G03X37661Y-30167I-900J0D01*
G74*
G01*
G54D13*
X41431Y-30962D02*
X41431Y-29962D01*
X41431Y-29962D02*
X43431Y-29962D01*
X43431Y-29962D02*
X43431Y-30962D01*
X43431Y-30962D02*
X41431Y-30962D01*
X41104Y-24080D02*
X42104Y-24080D01*
X42104Y-24080D02*
X42104Y-27080D01*
X42104Y-27080D02*
X41104Y-27080D01*
X41104Y-27080D02*
X41104Y-24080D01*
X42104Y-25080D02*
X41104Y-25080D01*
G54D10*
X41013Y-27942D02*
X39045Y-27942D01*
X39045Y-27942D02*
X39045Y-29911D01*
X39045Y-29911D02*
X41013Y-29911D01*
X41013Y-29911D02*
X41013Y-27942D01*
X47844Y-28100D02*
X45187Y-28100D01*
X45187Y-28100D02*
X45187Y-26131D01*
X45187Y-26131D02*
X47844Y-26131D01*
X44399Y-31053D02*
X44399Y-23179D01*
X44399Y-23179D02*
X47844Y-23179D01*
X47844Y-23179D02*
X47844Y-31053D01*
X47844Y-31053D02*
X44399Y-31053D01*
G54D14*
X41029Y-30951D02*
X41029Y-30051D01*
X41029Y-30051D02*
X40379Y-30051D01*
X39679Y-30951D02*
X39029Y-30951D01*
X39029Y-30951D02*
X39029Y-30051D01*
X39029Y-30051D02*
X39679Y-30051D01*
X40379Y-30951D02*
X41029Y-30951D01*
X41029Y-21896D02*
X41029Y-20996D01*
X41029Y-20996D02*
X40379Y-20996D01*
X39679Y-21896D02*
X39029Y-21896D01*
X39029Y-21896D02*
X39029Y-20996D01*
X39029Y-20996D02*
X39679Y-20996D01*
X40379Y-21896D02*
X41029Y-21896D01*
G54D10*
X47844Y-19045D02*
X45187Y-19045D01*
X45187Y-19045D02*
X45187Y-17076D01*
X45187Y-17076D02*
X47844Y-17076D01*
X44399Y-21998D02*
X44399Y-14124D01*
X44399Y-14124D02*
X47844Y-14124D01*
X47844Y-14124D02*
X47844Y-21998D01*
X47844Y-21998D02*
X44399Y-21998D01*
X41013Y-18887D02*
X39045Y-18887D01*
X39045Y-18887D02*
X39045Y-20856D01*
X39045Y-20856D02*
X41013Y-20856D01*
X41013Y-20856D02*
X41013Y-18887D01*
G54D13*
X41104Y-15025D02*
X42104Y-15025D01*
X42104Y-15025D02*
X42104Y-18025D01*
X42104Y-18025D02*
X41104Y-18025D01*
X41104Y-18025D02*
X41104Y-15025D01*
X42104Y-16025D02*
X41104Y-16025D01*
X41431Y-21907D02*
X41431Y-20907D01*
X41431Y-20907D02*
X43431Y-20907D01*
X43431Y-20907D02*
X43431Y-21907D01*
X43431Y-21907D02*
X41431Y-21907D01*
G54D12*
X37661Y-21112D02*
G75*
G03X37661Y-21112I-900J0D01*
G74*
G01*
X37661Y-15305D02*
G75*
G03X37661Y-15305I-900J0D01*
G74*
G01*
X34561Y-30118D02*
G75*
G03X34561Y-30118I-900J0D01*
G74*
G01*
X34561Y-24311D02*
G75*
G03X34561Y-24311I-900J0D01*
G74*
G01*
G54D13*
X28992Y-23515D02*
X28992Y-24515D01*
X28992Y-24515D02*
X26992Y-24515D01*
X26992Y-24515D02*
X26992Y-23515D01*
X26992Y-23515D02*
X28992Y-23515D01*
X29318Y-30397D02*
X28318Y-30397D01*
X28318Y-30397D02*
X28318Y-27397D01*
X28318Y-27397D02*
X29318Y-27397D01*
X29318Y-27397D02*
X29318Y-30397D01*
X28318Y-29397D02*
X29318Y-29397D01*
G54D10*
X29409Y-26535D02*
X31377Y-26535D01*
X31377Y-26535D02*
X31377Y-24566D01*
X31377Y-24566D02*
X29409Y-24566D01*
X29409Y-24566D02*
X29409Y-26535D01*
X22578Y-26377D02*
X25236Y-26377D01*
X25236Y-26377D02*
X25236Y-28346D01*
X25236Y-28346D02*
X22578Y-28346D01*
X26023Y-23425D02*
X26023Y-31299D01*
X26023Y-31299D02*
X22578Y-31299D01*
X22578Y-31299D02*
X22578Y-23425D01*
X22578Y-23425D02*
X26023Y-23425D01*
G54D14*
X29393Y-23526D02*
X29393Y-24426D01*
X29393Y-24426D02*
X30043Y-24426D01*
X30743Y-23526D02*
X31393Y-23526D01*
X31393Y-23526D02*
X31393Y-24426D01*
X31393Y-24426D02*
X30743Y-24426D01*
X30043Y-23526D02*
X29393Y-23526D01*
X29393Y-14471D02*
X29393Y-15371D01*
X29393Y-15371D02*
X30043Y-15371D01*
X30743Y-14471D02*
X31393Y-14471D01*
X31393Y-14471D02*
X31393Y-15371D01*
X31393Y-15371D02*
X30743Y-15371D01*
X30043Y-14471D02*
X29393Y-14471D01*
G54D10*
X22578Y-17322D02*
X25236Y-17322D01*
X25236Y-17322D02*
X25236Y-19291D01*
X25236Y-19291D02*
X22578Y-19291D01*
X26023Y-14370D02*
X26023Y-22244D01*
X26023Y-22244D02*
X22578Y-22244D01*
X22578Y-22244D02*
X22578Y-14370D01*
X22578Y-14370D02*
X26023Y-14370D01*
X29409Y-17480D02*
X31377Y-17480D01*
X31377Y-17480D02*
X31377Y-15511D01*
X31377Y-15511D02*
X29409Y-15511D01*
X29409Y-15511D02*
X29409Y-17480D01*
G54D13*
X29318Y-21342D02*
X28318Y-21342D01*
X28318Y-21342D02*
X28318Y-18342D01*
X28318Y-18342D02*
X29318Y-18342D01*
X29318Y-18342D02*
X29318Y-21342D01*
X28318Y-20342D02*
X29318Y-20342D01*
X28992Y-14460D02*
X28992Y-15460D01*
X28992Y-15460D02*
X26992Y-15460D01*
X26992Y-15460D02*
X26992Y-14460D01*
X26992Y-14460D02*
X28992Y-14460D01*
G54D12*
X34561Y-15255D02*
G75*
G03X34561Y-15255I-900J0D01*
G74*
G01*
X34561Y-21062D02*
G75*
G03X34561Y-21062I-900J0D01*
G74*
G01*
G54D15*
G54D13*
X42209Y-29834D02*
X42209Y-29534D01*
X42323Y-29534D01*
X42352Y-29548D01*
X42366Y-29562D01*
X42381Y-29591D01*
X42381Y-29634D01*
X42366Y-29662D01*
X42352Y-29676D01*
X42323Y-29691D01*
X42209Y-29691D01*
X42495Y-29562D02*
X42509Y-29548D01*
X42538Y-29534D01*
X42609Y-29534D01*
X42638Y-29548D01*
X42652Y-29562D01*
X42666Y-29591D01*
X42666Y-29619D01*
X42652Y-29662D01*
X42481Y-29834D01*
X42666Y-29834D01*
X42216Y-25985D02*
X42540Y-25985D01*
X42578Y-25966D01*
X42597Y-25947D01*
X42616Y-25909D01*
X42616Y-25833D01*
X42597Y-25794D01*
X42578Y-25775D01*
X42540Y-25756D01*
X42216Y-25756D01*
X42216Y-25604D02*
X42216Y-25356D01*
X42368Y-25490D01*
X42368Y-25433D01*
X42387Y-25394D01*
X42406Y-25375D01*
X42444Y-25356D01*
X42540Y-25356D01*
X42578Y-25375D01*
X42597Y-25394D01*
X42616Y-25433D01*
X42616Y-25547D01*
X42597Y-25585D01*
X42578Y-25604D01*
G54D10*
X39729Y-27314D02*
X39729Y-27633D01*
X39748Y-27671D01*
X39767Y-27689D01*
X39804Y-27708D01*
X39879Y-27708D01*
X39917Y-27689D01*
X39935Y-27671D01*
X39954Y-27633D01*
X39954Y-27314D01*
X40123Y-27352D02*
X40142Y-27333D01*
X40179Y-27314D01*
X40273Y-27314D01*
X40310Y-27333D01*
X40329Y-27352D01*
X40348Y-27389D01*
X40348Y-27427D01*
X40329Y-27483D01*
X40104Y-27708D01*
X40348Y-27708D01*
X38151Y-29986D02*
X37964Y-30118D01*
X38151Y-30211D02*
X37757Y-30211D01*
X37757Y-30061D01*
X37776Y-30024D01*
X37795Y-30005D01*
X37832Y-29986D01*
X37889Y-29986D01*
X37926Y-30005D01*
X37945Y-30024D01*
X37964Y-30061D01*
X37964Y-30211D01*
X37776Y-29611D02*
X37757Y-29649D01*
X37757Y-29705D01*
X37776Y-29761D01*
X37814Y-29799D01*
X37851Y-29818D01*
X37926Y-29836D01*
X37982Y-29836D01*
X38057Y-29818D01*
X38095Y-29799D01*
X38132Y-29761D01*
X38151Y-29705D01*
X38151Y-29668D01*
X38132Y-29611D01*
X38113Y-29593D01*
X37982Y-29593D01*
X37982Y-29668D01*
X37945Y-29293D02*
X37964Y-29236D01*
X37982Y-29218D01*
X38020Y-29199D01*
X38076Y-29199D01*
X38113Y-29218D01*
X38132Y-29236D01*
X38151Y-29274D01*
X38151Y-29424D01*
X37757Y-29424D01*
X37757Y-29293D01*
X37776Y-29255D01*
X37795Y-29236D01*
X37832Y-29218D01*
X37870Y-29218D01*
X37907Y-29236D01*
X37926Y-29255D01*
X37945Y-29293D01*
X37945Y-29424D01*
X38001Y-29030D02*
X38001Y-28730D01*
X38151Y-28355D02*
X38151Y-28543D01*
X37757Y-28543D01*
X37945Y-28224D02*
X37945Y-28093D01*
X38151Y-28037D02*
X38151Y-28224D01*
X37757Y-28224D01*
X37757Y-28037D01*
X38151Y-27868D02*
X37757Y-27868D01*
X37757Y-27774D01*
X37776Y-27718D01*
X37814Y-27680D01*
X37851Y-27662D01*
X37926Y-27643D01*
X37982Y-27643D01*
X38057Y-27662D01*
X38095Y-27680D01*
X38132Y-27718D01*
X38151Y-27774D01*
X38151Y-27868D01*
X44952Y-27406D02*
X44558Y-27406D01*
X44558Y-27256D01*
X44577Y-27219D01*
X44596Y-27200D01*
X44633Y-27181D01*
X44690Y-27181D01*
X44727Y-27200D01*
X44746Y-27219D01*
X44765Y-27256D01*
X44765Y-27406D01*
X44952Y-26806D02*
X44952Y-27031D01*
X44952Y-26919D02*
X44558Y-26919D01*
X44615Y-26956D01*
X44652Y-26994D01*
X44671Y-27031D01*
X45819Y-30097D02*
X45838Y-30040D01*
X45838Y-29947D01*
X45819Y-29909D01*
X45800Y-29890D01*
X45763Y-29872D01*
X45726Y-29872D01*
X45688Y-29890D01*
X45669Y-29909D01*
X45651Y-29947D01*
X45632Y-30022D01*
X45613Y-30059D01*
X45594Y-30078D01*
X45557Y-30097D01*
X45519Y-30097D01*
X45482Y-30078D01*
X45463Y-30059D01*
X45444Y-30022D01*
X45444Y-29928D01*
X45463Y-29872D01*
X45632Y-29703D02*
X45632Y-29572D01*
X45838Y-29515D02*
X45838Y-29703D01*
X45444Y-29703D01*
X45444Y-29515D01*
X45838Y-29347D02*
X45444Y-29347D01*
X45838Y-29122D01*
X45444Y-29122D01*
X45819Y-28953D02*
X45838Y-28897D01*
X45838Y-28803D01*
X45819Y-28765D01*
X45800Y-28747D01*
X45763Y-28728D01*
X45726Y-28728D01*
X45688Y-28747D01*
X45669Y-28765D01*
X45651Y-28803D01*
X45632Y-28878D01*
X45613Y-28915D01*
X45594Y-28934D01*
X45557Y-28953D01*
X45519Y-28953D01*
X45482Y-28934D01*
X45463Y-28915D01*
X45444Y-28878D01*
X45444Y-28784D01*
X45463Y-28728D01*
X45444Y-28484D02*
X45444Y-28409D01*
X45463Y-28372D01*
X45501Y-28334D01*
X45576Y-28315D01*
X45707Y-28315D01*
X45782Y-28334D01*
X45819Y-28372D01*
X45838Y-28409D01*
X45838Y-28484D01*
X45819Y-28522D01*
X45782Y-28559D01*
X45707Y-28578D01*
X45576Y-28578D01*
X45501Y-28559D01*
X45463Y-28522D01*
X45444Y-28484D01*
X45838Y-27922D02*
X45651Y-28053D01*
X45838Y-28147D02*
X45444Y-28147D01*
X45444Y-27997D01*
X45463Y-27959D01*
X45482Y-27941D01*
X45519Y-27922D01*
X45576Y-27922D01*
X45613Y-27941D01*
X45632Y-27959D01*
X45651Y-27997D01*
X45651Y-28147D01*
X45875Y-27847D02*
X45875Y-27547D01*
X45800Y-27228D02*
X45819Y-27247D01*
X45838Y-27303D01*
X45838Y-27341D01*
X45819Y-27397D01*
X45782Y-27434D01*
X45744Y-27453D01*
X45669Y-27472D01*
X45613Y-27472D01*
X45538Y-27453D01*
X45501Y-27434D01*
X45463Y-27397D01*
X45444Y-27341D01*
X45444Y-27303D01*
X45463Y-27247D01*
X45482Y-27228D01*
X45444Y-26984D02*
X45444Y-26909D01*
X45463Y-26872D01*
X45501Y-26834D01*
X45576Y-26816D01*
X45707Y-26816D01*
X45782Y-26834D01*
X45819Y-26872D01*
X45838Y-26909D01*
X45838Y-26984D01*
X45819Y-27022D01*
X45782Y-27059D01*
X45707Y-27078D01*
X45576Y-27078D01*
X45501Y-27059D01*
X45463Y-27022D01*
X45444Y-26984D01*
X45838Y-26647D02*
X45444Y-26647D01*
X45838Y-26422D01*
X45444Y-26422D01*
X45838Y-26235D02*
X45444Y-26235D01*
X45838Y-26010D01*
X45444Y-26010D01*
X45632Y-25822D02*
X45632Y-25691D01*
X45838Y-25635D02*
X45838Y-25822D01*
X45444Y-25822D01*
X45444Y-25635D01*
X45800Y-25241D02*
X45819Y-25260D01*
X45838Y-25316D01*
X45838Y-25353D01*
X45819Y-25410D01*
X45782Y-25447D01*
X45744Y-25466D01*
X45669Y-25485D01*
X45613Y-25485D01*
X45538Y-25466D01*
X45501Y-25447D01*
X45463Y-25410D01*
X45444Y-25353D01*
X45444Y-25316D01*
X45463Y-25260D01*
X45482Y-25241D01*
X45444Y-25128D02*
X45444Y-24903D01*
X45838Y-25016D02*
X45444Y-25016D01*
X45444Y-24697D02*
X45444Y-24622D01*
X45463Y-24585D01*
X45501Y-24547D01*
X45576Y-24528D01*
X45707Y-24528D01*
X45782Y-24547D01*
X45819Y-24585D01*
X45838Y-24622D01*
X45838Y-24697D01*
X45819Y-24735D01*
X45782Y-24772D01*
X45707Y-24791D01*
X45576Y-24791D01*
X45501Y-24772D01*
X45463Y-24735D01*
X45444Y-24697D01*
X45838Y-24135D02*
X45651Y-24266D01*
X45838Y-24360D02*
X45444Y-24360D01*
X45444Y-24210D01*
X45463Y-24172D01*
X45482Y-24154D01*
X45519Y-24135D01*
X45576Y-24135D01*
X45613Y-24154D01*
X45632Y-24172D01*
X45651Y-24210D01*
X45651Y-24360D01*
G54D14*
X39979Y-30623D02*
X39879Y-30480D01*
X39808Y-30623D02*
X39808Y-30323D01*
X39922Y-30323D01*
X39950Y-30337D01*
X39965Y-30351D01*
X39979Y-30380D01*
X39979Y-30423D01*
X39965Y-30451D01*
X39950Y-30466D01*
X39922Y-30480D01*
X39808Y-30480D01*
X40079Y-30323D02*
X40279Y-30323D01*
X40150Y-30623D01*
X39979Y-21568D02*
X39879Y-21425D01*
X39808Y-21568D02*
X39808Y-21268D01*
X39922Y-21268D01*
X39950Y-21282D01*
X39965Y-21296D01*
X39979Y-21325D01*
X39979Y-21368D01*
X39965Y-21396D01*
X39950Y-21411D01*
X39922Y-21425D01*
X39808Y-21425D01*
X40079Y-21268D02*
X40279Y-21268D01*
X40150Y-21568D01*
G54D10*
X44952Y-18351D02*
X44558Y-18351D01*
X44558Y-18201D01*
X44577Y-18164D01*
X44596Y-18145D01*
X44633Y-18126D01*
X44690Y-18126D01*
X44727Y-18145D01*
X44746Y-18164D01*
X44765Y-18201D01*
X44765Y-18351D01*
X44952Y-17751D02*
X44952Y-17976D01*
X44952Y-17864D02*
X44558Y-17864D01*
X44615Y-17901D01*
X44652Y-17939D01*
X44671Y-17976D01*
X45819Y-21041D02*
X45838Y-20985D01*
X45838Y-20891D01*
X45819Y-20854D01*
X45800Y-20835D01*
X45763Y-20816D01*
X45726Y-20816D01*
X45688Y-20835D01*
X45669Y-20854D01*
X45651Y-20891D01*
X45632Y-20966D01*
X45613Y-21004D01*
X45594Y-21023D01*
X45557Y-21041D01*
X45519Y-21041D01*
X45482Y-21023D01*
X45463Y-21004D01*
X45444Y-20966D01*
X45444Y-20873D01*
X45463Y-20816D01*
X45632Y-20648D02*
X45632Y-20516D01*
X45838Y-20460D02*
X45838Y-20648D01*
X45444Y-20648D01*
X45444Y-20460D01*
X45838Y-20291D02*
X45444Y-20291D01*
X45838Y-20067D01*
X45444Y-20067D01*
X45819Y-19898D02*
X45838Y-19842D01*
X45838Y-19748D01*
X45819Y-19710D01*
X45800Y-19692D01*
X45763Y-19673D01*
X45726Y-19673D01*
X45688Y-19692D01*
X45669Y-19710D01*
X45651Y-19748D01*
X45632Y-19823D01*
X45613Y-19860D01*
X45594Y-19879D01*
X45557Y-19898D01*
X45519Y-19898D01*
X45482Y-19879D01*
X45463Y-19860D01*
X45444Y-19823D01*
X45444Y-19729D01*
X45463Y-19673D01*
X45444Y-19429D02*
X45444Y-19354D01*
X45463Y-19317D01*
X45501Y-19279D01*
X45576Y-19260D01*
X45707Y-19260D01*
X45782Y-19279D01*
X45819Y-19317D01*
X45838Y-19354D01*
X45838Y-19429D01*
X45819Y-19467D01*
X45782Y-19504D01*
X45707Y-19523D01*
X45576Y-19523D01*
X45501Y-19504D01*
X45463Y-19467D01*
X45444Y-19429D01*
X45838Y-18867D02*
X45651Y-18998D01*
X45838Y-19092D02*
X45444Y-19092D01*
X45444Y-18942D01*
X45463Y-18904D01*
X45482Y-18885D01*
X45519Y-18867D01*
X45576Y-18867D01*
X45613Y-18885D01*
X45632Y-18904D01*
X45651Y-18942D01*
X45651Y-19092D01*
X45875Y-18792D02*
X45875Y-18492D01*
X45800Y-18173D02*
X45819Y-18192D01*
X45838Y-18248D01*
X45838Y-18285D01*
X45819Y-18342D01*
X45782Y-18379D01*
X45744Y-18398D01*
X45669Y-18417D01*
X45613Y-18417D01*
X45538Y-18398D01*
X45501Y-18379D01*
X45463Y-18342D01*
X45444Y-18285D01*
X45444Y-18248D01*
X45463Y-18192D01*
X45482Y-18173D01*
X45444Y-17929D02*
X45444Y-17854D01*
X45463Y-17817D01*
X45501Y-17779D01*
X45576Y-17761D01*
X45707Y-17761D01*
X45782Y-17779D01*
X45819Y-17817D01*
X45838Y-17854D01*
X45838Y-17929D01*
X45819Y-17967D01*
X45782Y-18004D01*
X45707Y-18023D01*
X45576Y-18023D01*
X45501Y-18004D01*
X45463Y-17967D01*
X45444Y-17929D01*
X45838Y-17592D02*
X45444Y-17592D01*
X45838Y-17367D01*
X45444Y-17367D01*
X45838Y-17179D02*
X45444Y-17179D01*
X45838Y-16954D01*
X45444Y-16954D01*
X45632Y-16767D02*
X45632Y-16636D01*
X45838Y-16579D02*
X45838Y-16767D01*
X45444Y-16767D01*
X45444Y-16579D01*
X45800Y-16186D02*
X45819Y-16205D01*
X45838Y-16261D01*
X45838Y-16298D01*
X45819Y-16354D01*
X45782Y-16392D01*
X45744Y-16411D01*
X45669Y-16429D01*
X45613Y-16429D01*
X45538Y-16411D01*
X45501Y-16392D01*
X45463Y-16354D01*
X45444Y-16298D01*
X45444Y-16261D01*
X45463Y-16205D01*
X45482Y-16186D01*
X45444Y-16073D02*
X45444Y-15848D01*
X45838Y-15961D02*
X45444Y-15961D01*
X45444Y-15642D02*
X45444Y-15567D01*
X45463Y-15530D01*
X45501Y-15492D01*
X45576Y-15473D01*
X45707Y-15473D01*
X45782Y-15492D01*
X45819Y-15530D01*
X45838Y-15567D01*
X45838Y-15642D01*
X45819Y-15680D01*
X45782Y-15717D01*
X45707Y-15736D01*
X45576Y-15736D01*
X45501Y-15717D01*
X45463Y-15680D01*
X45444Y-15642D01*
X45838Y-15080D02*
X45651Y-15211D01*
X45838Y-15305D02*
X45444Y-15305D01*
X45444Y-15155D01*
X45463Y-15117D01*
X45482Y-15098D01*
X45519Y-15080D01*
X45576Y-15080D01*
X45613Y-15098D01*
X45632Y-15117D01*
X45651Y-15155D01*
X45651Y-15305D01*
X39729Y-18259D02*
X39729Y-18578D01*
X39748Y-18615D01*
X39767Y-18634D01*
X39804Y-18653D01*
X39879Y-18653D01*
X39917Y-18634D01*
X39935Y-18615D01*
X39954Y-18578D01*
X39954Y-18259D01*
X40123Y-18297D02*
X40142Y-18278D01*
X40179Y-18259D01*
X40273Y-18259D01*
X40310Y-18278D01*
X40329Y-18297D01*
X40348Y-18334D01*
X40348Y-18372D01*
X40329Y-18428D01*
X40104Y-18653D01*
X40348Y-18653D01*
X38151Y-21030D02*
X37964Y-21161D01*
X38151Y-21255D02*
X37757Y-21255D01*
X37757Y-21105D01*
X37776Y-21067D01*
X37795Y-21048D01*
X37832Y-21030D01*
X37889Y-21030D01*
X37926Y-21048D01*
X37945Y-21067D01*
X37964Y-21105D01*
X37964Y-21255D01*
X37776Y-20655D02*
X37757Y-20692D01*
X37757Y-20748D01*
X37776Y-20805D01*
X37814Y-20842D01*
X37851Y-20861D01*
X37926Y-20880D01*
X37982Y-20880D01*
X38057Y-20861D01*
X38095Y-20842D01*
X38132Y-20805D01*
X38151Y-20748D01*
X38151Y-20711D01*
X38132Y-20655D01*
X38113Y-20636D01*
X37982Y-20636D01*
X37982Y-20711D01*
X37945Y-20336D02*
X37964Y-20280D01*
X37982Y-20261D01*
X38020Y-20242D01*
X38076Y-20242D01*
X38113Y-20261D01*
X38132Y-20280D01*
X38151Y-20317D01*
X38151Y-20467D01*
X37757Y-20467D01*
X37757Y-20336D01*
X37776Y-20299D01*
X37795Y-20280D01*
X37832Y-20261D01*
X37870Y-20261D01*
X37907Y-20280D01*
X37926Y-20299D01*
X37945Y-20336D01*
X37945Y-20467D01*
X38001Y-20074D02*
X38001Y-19774D01*
X38151Y-19399D02*
X38151Y-19586D01*
X37757Y-19586D01*
X37945Y-19267D02*
X37945Y-19136D01*
X38151Y-19080D02*
X38151Y-19267D01*
X37757Y-19267D01*
X37757Y-19080D01*
X38151Y-18911D02*
X37757Y-18911D01*
X37757Y-18817D01*
X37776Y-18761D01*
X37814Y-18724D01*
X37851Y-18705D01*
X37926Y-18686D01*
X37982Y-18686D01*
X38057Y-18705D01*
X38095Y-18724D01*
X38132Y-18761D01*
X38151Y-18817D01*
X38151Y-18911D01*
G54D13*
X42216Y-16930D02*
X42540Y-16930D01*
X42578Y-16911D01*
X42597Y-16892D01*
X42616Y-16854D01*
X42616Y-16777D01*
X42597Y-16739D01*
X42578Y-16720D01*
X42540Y-16701D01*
X42216Y-16701D01*
X42216Y-16549D02*
X42216Y-16301D01*
X42368Y-16435D01*
X42368Y-16377D01*
X42387Y-16339D01*
X42406Y-16320D01*
X42444Y-16301D01*
X42540Y-16301D01*
X42578Y-16320D01*
X42597Y-16339D01*
X42616Y-16377D01*
X42616Y-16492D01*
X42597Y-16530D01*
X42578Y-16549D01*
X42209Y-20778D02*
X42209Y-20478D01*
X42323Y-20478D01*
X42352Y-20493D01*
X42366Y-20507D01*
X42381Y-20536D01*
X42381Y-20578D01*
X42366Y-20607D01*
X42352Y-20621D01*
X42323Y-20636D01*
X42209Y-20636D01*
X42495Y-20507D02*
X42509Y-20493D01*
X42538Y-20478D01*
X42609Y-20478D01*
X42638Y-20493D01*
X42652Y-20507D01*
X42666Y-20536D01*
X42666Y-20564D01*
X42652Y-20607D01*
X42481Y-20778D01*
X42666Y-20778D01*
G54D15*
G54D13*
X27770Y-24887D02*
X27770Y-24587D01*
X27884Y-24587D01*
X27913Y-24601D01*
X27927Y-24615D01*
X27942Y-24644D01*
X27942Y-24687D01*
X27927Y-24715D01*
X27913Y-24730D01*
X27884Y-24744D01*
X27770Y-24744D01*
X28056Y-24615D02*
X28070Y-24601D01*
X28099Y-24587D01*
X28170Y-24587D01*
X28199Y-24601D01*
X28213Y-24615D01*
X28227Y-24644D01*
X28227Y-24672D01*
X28213Y-24715D01*
X28042Y-24887D01*
X28227Y-24887D01*
X27730Y-29102D02*
X28054Y-29102D01*
X28092Y-29083D01*
X28111Y-29064D01*
X28130Y-29026D01*
X28130Y-28950D01*
X28111Y-28911D01*
X28092Y-28892D01*
X28054Y-28873D01*
X27730Y-28873D01*
X27730Y-28721D02*
X27730Y-28473D01*
X27883Y-28607D01*
X27883Y-28550D01*
X27902Y-28511D01*
X27921Y-28492D01*
X27959Y-28473D01*
X28054Y-28473D01*
X28092Y-28492D01*
X28111Y-28511D01*
X28130Y-28550D01*
X28130Y-28664D01*
X28111Y-28702D01*
X28092Y-28721D01*
G54D10*
X30093Y-26694D02*
X30093Y-27013D01*
X30112Y-27050D01*
X30131Y-27069D01*
X30168Y-27088D01*
X30243Y-27088D01*
X30281Y-27069D01*
X30299Y-27050D01*
X30318Y-27013D01*
X30318Y-26694D01*
X30487Y-26732D02*
X30506Y-26713D01*
X30543Y-26694D01*
X30637Y-26694D01*
X30674Y-26713D01*
X30693Y-26732D01*
X30712Y-26769D01*
X30712Y-26807D01*
X30693Y-26863D01*
X30468Y-27088D01*
X30712Y-27088D01*
X32639Y-26541D02*
X32452Y-26673D01*
X32639Y-26766D02*
X32245Y-26766D01*
X32245Y-26616D01*
X32264Y-26579D01*
X32283Y-26560D01*
X32320Y-26541D01*
X32377Y-26541D01*
X32414Y-26560D01*
X32433Y-26579D01*
X32452Y-26616D01*
X32452Y-26766D01*
X32264Y-26167D02*
X32245Y-26204D01*
X32245Y-26260D01*
X32264Y-26317D01*
X32302Y-26354D01*
X32339Y-26373D01*
X32414Y-26392D01*
X32470Y-26392D01*
X32545Y-26373D01*
X32583Y-26354D01*
X32620Y-26317D01*
X32639Y-26260D01*
X32639Y-26223D01*
X32620Y-26167D01*
X32602Y-26148D01*
X32470Y-26148D01*
X32470Y-26223D01*
X32433Y-25848D02*
X32452Y-25792D01*
X32470Y-25773D01*
X32508Y-25754D01*
X32564Y-25754D01*
X32602Y-25773D01*
X32620Y-25792D01*
X32639Y-25829D01*
X32639Y-25979D01*
X32245Y-25979D01*
X32245Y-25848D01*
X32264Y-25810D01*
X32283Y-25792D01*
X32320Y-25773D01*
X32358Y-25773D01*
X32395Y-25792D01*
X32414Y-25810D01*
X32433Y-25848D01*
X32433Y-25979D01*
X32489Y-25585D02*
X32489Y-25285D01*
X32639Y-24910D02*
X32639Y-25098D01*
X32245Y-25098D01*
X32433Y-24779D02*
X32433Y-24648D01*
X32639Y-24592D02*
X32639Y-24779D01*
X32245Y-24779D01*
X32245Y-24592D01*
X32639Y-24423D02*
X32245Y-24423D01*
X32245Y-24329D01*
X32264Y-24273D01*
X32302Y-24236D01*
X32339Y-24217D01*
X32414Y-24198D01*
X32470Y-24198D01*
X32545Y-24217D01*
X32583Y-24236D01*
X32620Y-24273D01*
X32639Y-24329D01*
X32639Y-24423D01*
X25789Y-27652D02*
X25395Y-27652D01*
X25395Y-27502D01*
X25414Y-27465D01*
X25433Y-27446D01*
X25470Y-27427D01*
X25526Y-27427D01*
X25564Y-27446D01*
X25583Y-27465D01*
X25601Y-27502D01*
X25601Y-27652D01*
X25789Y-27052D02*
X25789Y-27277D01*
X25789Y-27165D02*
X25395Y-27165D01*
X25451Y-27202D01*
X25489Y-27240D01*
X25508Y-27277D01*
X24884Y-30343D02*
X24903Y-30286D01*
X24903Y-30193D01*
X24884Y-30155D01*
X24865Y-30136D01*
X24828Y-30118D01*
X24790Y-30118D01*
X24753Y-30136D01*
X24734Y-30155D01*
X24715Y-30193D01*
X24697Y-30268D01*
X24678Y-30305D01*
X24659Y-30324D01*
X24622Y-30343D01*
X24584Y-30343D01*
X24547Y-30324D01*
X24528Y-30305D01*
X24509Y-30268D01*
X24509Y-30174D01*
X24528Y-30118D01*
X24697Y-29949D02*
X24697Y-29818D01*
X24903Y-29761D02*
X24903Y-29949D01*
X24509Y-29949D01*
X24509Y-29761D01*
X24903Y-29593D02*
X24509Y-29593D01*
X24903Y-29368D01*
X24509Y-29368D01*
X24884Y-29199D02*
X24903Y-29143D01*
X24903Y-29049D01*
X24884Y-29011D01*
X24865Y-28993D01*
X24828Y-28974D01*
X24790Y-28974D01*
X24753Y-28993D01*
X24734Y-29011D01*
X24715Y-29049D01*
X24697Y-29124D01*
X24678Y-29161D01*
X24659Y-29180D01*
X24622Y-29199D01*
X24584Y-29199D01*
X24547Y-29180D01*
X24528Y-29161D01*
X24509Y-29124D01*
X24509Y-29030D01*
X24528Y-28974D01*
X24509Y-28730D02*
X24509Y-28655D01*
X24528Y-28618D01*
X24565Y-28580D01*
X24640Y-28562D01*
X24772Y-28562D01*
X24847Y-28580D01*
X24884Y-28618D01*
X24903Y-28655D01*
X24903Y-28730D01*
X24884Y-28768D01*
X24847Y-28805D01*
X24772Y-28824D01*
X24640Y-28824D01*
X24565Y-28805D01*
X24528Y-28768D01*
X24509Y-28730D01*
X24903Y-28168D02*
X24715Y-28299D01*
X24903Y-28393D02*
X24509Y-28393D01*
X24509Y-28243D01*
X24528Y-28205D01*
X24547Y-28187D01*
X24584Y-28168D01*
X24640Y-28168D01*
X24678Y-28187D01*
X24697Y-28205D01*
X24715Y-28243D01*
X24715Y-28393D01*
X24940Y-28093D02*
X24940Y-27793D01*
X24865Y-27474D02*
X24884Y-27493D01*
X24903Y-27549D01*
X24903Y-27587D01*
X24884Y-27643D01*
X24847Y-27680D01*
X24809Y-27699D01*
X24734Y-27718D01*
X24678Y-27718D01*
X24603Y-27699D01*
X24565Y-27680D01*
X24528Y-27643D01*
X24509Y-27587D01*
X24509Y-27549D01*
X24528Y-27493D01*
X24547Y-27474D01*
X24509Y-27230D02*
X24509Y-27155D01*
X24528Y-27118D01*
X24565Y-27080D01*
X24640Y-27062D01*
X24772Y-27062D01*
X24847Y-27080D01*
X24884Y-27118D01*
X24903Y-27155D01*
X24903Y-27230D01*
X24884Y-27268D01*
X24847Y-27305D01*
X24772Y-27324D01*
X24640Y-27324D01*
X24565Y-27305D01*
X24528Y-27268D01*
X24509Y-27230D01*
X24903Y-26893D02*
X24509Y-26893D01*
X24903Y-26668D01*
X24509Y-26668D01*
X24903Y-26481D02*
X24509Y-26481D01*
X24903Y-26256D01*
X24509Y-26256D01*
X24697Y-26068D02*
X24697Y-25937D01*
X24903Y-25881D02*
X24903Y-26068D01*
X24509Y-26068D01*
X24509Y-25881D01*
X24865Y-25487D02*
X24884Y-25506D01*
X24903Y-25562D01*
X24903Y-25599D01*
X24884Y-25656D01*
X24847Y-25693D01*
X24809Y-25712D01*
X24734Y-25731D01*
X24678Y-25731D01*
X24603Y-25712D01*
X24565Y-25693D01*
X24528Y-25656D01*
X24509Y-25599D01*
X24509Y-25562D01*
X24528Y-25506D01*
X24547Y-25487D01*
X24509Y-25374D02*
X24509Y-25149D01*
X24903Y-25262D02*
X24509Y-25262D01*
X24509Y-24943D02*
X24509Y-24868D01*
X24528Y-24831D01*
X24565Y-24793D01*
X24640Y-24775D01*
X24772Y-24775D01*
X24847Y-24793D01*
X24884Y-24831D01*
X24903Y-24868D01*
X24903Y-24943D01*
X24884Y-24981D01*
X24847Y-25018D01*
X24772Y-25037D01*
X24640Y-25037D01*
X24565Y-25018D01*
X24528Y-24981D01*
X24509Y-24943D01*
X24903Y-24381D02*
X24715Y-24512D01*
X24903Y-24606D02*
X24509Y-24606D01*
X24509Y-24456D01*
X24528Y-24418D01*
X24547Y-24400D01*
X24584Y-24381D01*
X24640Y-24381D01*
X24678Y-24400D01*
X24697Y-24418D01*
X24715Y-24456D01*
X24715Y-24606D01*
G54D14*
X30343Y-24097D02*
X30243Y-23954D01*
X30172Y-24097D02*
X30172Y-23797D01*
X30286Y-23797D01*
X30315Y-23812D01*
X30329Y-23826D01*
X30343Y-23854D01*
X30343Y-23897D01*
X30329Y-23926D01*
X30315Y-23940D01*
X30286Y-23954D01*
X30172Y-23954D01*
X30443Y-23797D02*
X30643Y-23797D01*
X30515Y-24097D01*
X30343Y-15042D02*
X30243Y-14899D01*
X30172Y-15042D02*
X30172Y-14742D01*
X30286Y-14742D01*
X30315Y-14756D01*
X30329Y-14771D01*
X30343Y-14799D01*
X30343Y-14842D01*
X30329Y-14871D01*
X30315Y-14885D01*
X30286Y-14899D01*
X30172Y-14899D01*
X30443Y-14742D02*
X30643Y-14742D01*
X30515Y-15042D01*
G54D10*
X25789Y-18597D02*
X25395Y-18597D01*
X25395Y-18447D01*
X25414Y-18410D01*
X25433Y-18391D01*
X25470Y-18372D01*
X25526Y-18372D01*
X25564Y-18391D01*
X25583Y-18410D01*
X25601Y-18447D01*
X25601Y-18597D01*
X25789Y-17997D02*
X25789Y-18222D01*
X25789Y-18110D02*
X25395Y-18110D01*
X25451Y-18147D01*
X25489Y-18185D01*
X25508Y-18222D01*
X24884Y-21287D02*
X24903Y-21231D01*
X24903Y-21137D01*
X24884Y-21100D01*
X24865Y-21081D01*
X24828Y-21062D01*
X24790Y-21062D01*
X24753Y-21081D01*
X24734Y-21100D01*
X24715Y-21137D01*
X24697Y-21212D01*
X24678Y-21250D01*
X24659Y-21269D01*
X24622Y-21287D01*
X24584Y-21287D01*
X24547Y-21269D01*
X24528Y-21250D01*
X24509Y-21212D01*
X24509Y-21119D01*
X24528Y-21062D01*
X24697Y-20894D02*
X24697Y-20763D01*
X24903Y-20706D02*
X24903Y-20894D01*
X24509Y-20894D01*
X24509Y-20706D01*
X24903Y-20538D02*
X24509Y-20538D01*
X24903Y-20313D01*
X24509Y-20313D01*
X24884Y-20144D02*
X24903Y-20088D01*
X24903Y-19994D01*
X24884Y-19956D01*
X24865Y-19938D01*
X24828Y-19919D01*
X24790Y-19919D01*
X24753Y-19938D01*
X24734Y-19956D01*
X24715Y-19994D01*
X24697Y-20069D01*
X24678Y-20106D01*
X24659Y-20125D01*
X24622Y-20144D01*
X24584Y-20144D01*
X24547Y-20125D01*
X24528Y-20106D01*
X24509Y-20069D01*
X24509Y-19975D01*
X24528Y-19919D01*
X24509Y-19675D02*
X24509Y-19600D01*
X24528Y-19563D01*
X24565Y-19525D01*
X24640Y-19506D01*
X24772Y-19506D01*
X24847Y-19525D01*
X24884Y-19563D01*
X24903Y-19600D01*
X24903Y-19675D01*
X24884Y-19713D01*
X24847Y-19750D01*
X24772Y-19769D01*
X24640Y-19769D01*
X24565Y-19750D01*
X24528Y-19713D01*
X24509Y-19675D01*
X24903Y-19113D02*
X24715Y-19244D01*
X24903Y-19338D02*
X24509Y-19338D01*
X24509Y-19188D01*
X24528Y-19150D01*
X24547Y-19131D01*
X24584Y-19113D01*
X24640Y-19113D01*
X24678Y-19131D01*
X24697Y-19150D01*
X24715Y-19188D01*
X24715Y-19338D01*
X24940Y-19038D02*
X24940Y-18738D01*
X24865Y-18419D02*
X24884Y-18438D01*
X24903Y-18494D01*
X24903Y-18532D01*
X24884Y-18588D01*
X24847Y-18625D01*
X24809Y-18644D01*
X24734Y-18663D01*
X24678Y-18663D01*
X24603Y-18644D01*
X24565Y-18625D01*
X24528Y-18588D01*
X24509Y-18532D01*
X24509Y-18494D01*
X24528Y-18438D01*
X24547Y-18419D01*
X24509Y-18175D02*
X24509Y-18100D01*
X24528Y-18063D01*
X24565Y-18025D01*
X24640Y-18007D01*
X24772Y-18007D01*
X24847Y-18025D01*
X24884Y-18063D01*
X24903Y-18100D01*
X24903Y-18175D01*
X24884Y-18213D01*
X24847Y-18250D01*
X24772Y-18269D01*
X24640Y-18269D01*
X24565Y-18250D01*
X24528Y-18213D01*
X24509Y-18175D01*
X24903Y-17838D02*
X24509Y-17838D01*
X24903Y-17613D01*
X24509Y-17613D01*
X24903Y-17425D02*
X24509Y-17425D01*
X24903Y-17200D01*
X24509Y-17200D01*
X24697Y-17013D02*
X24697Y-16882D01*
X24903Y-16826D02*
X24903Y-17013D01*
X24509Y-17013D01*
X24509Y-16826D01*
X24865Y-16432D02*
X24884Y-16451D01*
X24903Y-16507D01*
X24903Y-16544D01*
X24884Y-16601D01*
X24847Y-16638D01*
X24809Y-16657D01*
X24734Y-16676D01*
X24678Y-16676D01*
X24603Y-16657D01*
X24565Y-16638D01*
X24528Y-16601D01*
X24509Y-16544D01*
X24509Y-16507D01*
X24528Y-16451D01*
X24547Y-16432D01*
X24509Y-16319D02*
X24509Y-16094D01*
X24903Y-16207D02*
X24509Y-16207D01*
X24509Y-15888D02*
X24509Y-15813D01*
X24528Y-15776D01*
X24565Y-15738D01*
X24640Y-15719D01*
X24772Y-15719D01*
X24847Y-15738D01*
X24884Y-15776D01*
X24903Y-15813D01*
X24903Y-15888D01*
X24884Y-15926D01*
X24847Y-15963D01*
X24772Y-15982D01*
X24640Y-15982D01*
X24565Y-15963D01*
X24528Y-15926D01*
X24509Y-15888D01*
X24903Y-15326D02*
X24715Y-15457D01*
X24903Y-15551D02*
X24509Y-15551D01*
X24509Y-15401D01*
X24528Y-15363D01*
X24547Y-15344D01*
X24584Y-15326D01*
X24640Y-15326D01*
X24678Y-15344D01*
X24697Y-15363D01*
X24715Y-15401D01*
X24715Y-15551D01*
X30113Y-17580D02*
X30113Y-17899D01*
X30132Y-17936D01*
X30150Y-17955D01*
X30188Y-17974D01*
X30263Y-17974D01*
X30300Y-17955D01*
X30319Y-17936D01*
X30338Y-17899D01*
X30338Y-17580D01*
X30507Y-17618D02*
X30525Y-17599D01*
X30563Y-17580D01*
X30657Y-17580D01*
X30694Y-17599D01*
X30713Y-17618D01*
X30732Y-17655D01*
X30732Y-17693D01*
X30713Y-17749D01*
X30488Y-17974D01*
X30732Y-17974D01*
X32541Y-17683D02*
X32353Y-17814D01*
X32541Y-17908D02*
X32147Y-17908D01*
X32147Y-17758D01*
X32166Y-17721D01*
X32185Y-17702D01*
X32222Y-17683D01*
X32278Y-17683D01*
X32316Y-17702D01*
X32335Y-17721D01*
X32353Y-17758D01*
X32353Y-17908D01*
X32166Y-17308D02*
X32147Y-17346D01*
X32147Y-17402D01*
X32166Y-17458D01*
X32203Y-17496D01*
X32241Y-17514D01*
X32316Y-17533D01*
X32372Y-17533D01*
X32447Y-17514D01*
X32485Y-17496D01*
X32522Y-17458D01*
X32541Y-17402D01*
X32541Y-17365D01*
X32522Y-17308D01*
X32503Y-17290D01*
X32372Y-17290D01*
X32372Y-17365D01*
X32335Y-16990D02*
X32353Y-16933D01*
X32372Y-16915D01*
X32410Y-16896D01*
X32466Y-16896D01*
X32503Y-16915D01*
X32522Y-16933D01*
X32541Y-16971D01*
X32541Y-17121D01*
X32147Y-17121D01*
X32147Y-16990D01*
X32166Y-16952D01*
X32185Y-16933D01*
X32222Y-16915D01*
X32260Y-16915D01*
X32297Y-16933D01*
X32316Y-16952D01*
X32335Y-16990D01*
X32335Y-17121D01*
X32391Y-16727D02*
X32391Y-16427D01*
X32541Y-16052D02*
X32541Y-16240D01*
X32147Y-16240D01*
X32335Y-15921D02*
X32335Y-15790D01*
X32541Y-15733D02*
X32541Y-15921D01*
X32147Y-15921D01*
X32147Y-15733D01*
X32541Y-15565D02*
X32147Y-15565D01*
X32147Y-15471D01*
X32166Y-15415D01*
X32203Y-15377D01*
X32241Y-15359D01*
X32316Y-15340D01*
X32372Y-15340D01*
X32447Y-15359D01*
X32485Y-15377D01*
X32522Y-15415D01*
X32541Y-15471D01*
X32541Y-15565D01*
G54D13*
X27813Y-20186D02*
X28136Y-20186D01*
X28174Y-20167D01*
X28194Y-20148D01*
X28213Y-20110D01*
X28213Y-20034D01*
X28194Y-19996D01*
X28174Y-19977D01*
X28136Y-19958D01*
X27813Y-19958D01*
X27813Y-19805D02*
X27813Y-19558D01*
X27965Y-19691D01*
X27965Y-19634D01*
X27984Y-19596D01*
X28003Y-19577D01*
X28041Y-19558D01*
X28136Y-19558D01*
X28174Y-19577D01*
X28194Y-19596D01*
X28213Y-19634D01*
X28213Y-19748D01*
X28194Y-19786D01*
X28174Y-19805D01*
X27770Y-15832D02*
X27770Y-15532D01*
X27884Y-15532D01*
X27913Y-15546D01*
X27927Y-15560D01*
X27942Y-15589D01*
X27942Y-15632D01*
X27927Y-15660D01*
X27913Y-15674D01*
X27884Y-15689D01*
X27770Y-15689D01*
X28056Y-15560D02*
X28070Y-15546D01*
X28099Y-15532D01*
X28170Y-15532D01*
X28199Y-15546D01*
X28213Y-15560D01*
X28227Y-15589D01*
X28227Y-15617D01*
X28213Y-15660D01*
X28042Y-15832D01*
X28227Y-15832D01*
G54D15*
M02*
