M48
;DRILL file {Pcbnew (2013-may-18)-stable} date Вт 16 фев 2016 22:10:03
;FORMAT={-:-/ absolute / metric / decimal}
FMAT,2
METRIC,TZ
T1C0.300
T2C1.000
T3C3.000
%
G90
G05
M71
T1
X69.85Y-50.8
X69.85Y-61.214
X69.85Y-62.23
X70.612Y-56.007
X71.882Y-50.8
X73.025Y-51.435
X75.057Y-47.117
X75.946Y-49.657
X76.708Y-61.214
X76.708Y-62.23
X76.962Y-56.515
X79.375Y-44.831
X80.518Y-50.038
X80.645Y-46.99
X81.026Y-39.624
X83.058Y-45.974
X83.058Y-48.006
X84.328Y-56.515
X85.344Y-45.974
X87.122Y-42.418
X87.122Y-45.085
X87.566Y-50.228
X87.884Y-56.515
X88.392Y-77.47
X91.186Y-52.451
X92.075Y-45.085
X93.853Y-77.47
X94.742Y-52.324
X94.742Y-61.087
X99.822Y-61.722
X101.854Y-65.405
X105.41Y-59.055
X106.172Y-50.8
X106.172Y-57.15
X106.172Y-72.644
T2
X64.135Y-75.438
X64.23Y-47.67
X64.23Y-50.21
X64.23Y-52.75
X64.23Y-55.29
X64.23Y-57.83
X64.23Y-60.37
X64.23Y-62.91
X64.23Y-65.45
X64.23Y-67.99
X64.23Y-70.53
X66.675Y-75.438
X66.77Y-47.67
X66.77Y-50.21
X66.77Y-52.75
X66.77Y-55.29
X66.77Y-57.83
X66.77Y-60.37
X66.77Y-62.91
X66.77Y-65.45
X66.77Y-67.99
X66.77Y-70.53
X70.612Y-41.021
X73.152Y-41.021
X75.692Y-41.021
X80.185Y-43.815
X82.185Y-43.815
X84.185Y-43.815
X86.185Y-43.815
X93.599Y-40.513
X93.599Y-43.053
X93.726Y-68.072
X93.726Y-70.612
X96.139Y-40.513
X96.139Y-43.053
X96.266Y-68.072
X96.266Y-70.612
X98.679Y-40.513
X98.679Y-43.053
X98.806Y-68.072
X98.806Y-70.612
X101.219Y-40.513
X101.219Y-43.053
X101.346Y-68.072
X101.346Y-70.612
X103.759Y-40.513
X103.759Y-43.053
X104.87Y-47.67
X104.87Y-50.21
X104.87Y-52.75
X104.87Y-55.29
X104.87Y-57.83
X104.87Y-60.37
X104.87Y-62.91
X104.87Y-65.45
X104.87Y-67.99
X104.87Y-70.53
X107.41Y-47.67
X107.41Y-50.21
X107.41Y-52.75
X107.41Y-55.29
X107.41Y-57.83
X107.41Y-60.37
X107.41Y-62.91
X107.41Y-65.45
X107.41Y-67.99
X107.41Y-70.53
T3
X65.405Y-41.783
X106.41Y-76.783
T0
M30
