G04 (created by PCBNEW (2013-may-18)-stable) date Вт 16 фев 2016 22:09:58*
%MOIN*%
G04 Gerber Fmt 3.4, Leading zero omitted, Abs format*
%FSLAX34Y34*%
G01*
G70*
G90*
G04 APERTURE LIST*
%ADD10C,0.00590551*%
%ADD11C,0.0039*%
%ADD12C,0.006*%
%ADD13C,0.005*%
%ADD14C,0.0043*%
%ADD15C,0.008*%
%ADD16C,0.0047*%
G04 APERTURE END LIST*
G54D10*
G54D11*
X29600Y-22550D02*
G75*
G03X29600Y-22550I-50J0D01*
G74*
G01*
X29100Y-22550D02*
X29500Y-22550D01*
X29500Y-22550D02*
X29500Y-21950D01*
X29500Y-21950D02*
X29100Y-21950D01*
X28700Y-21950D02*
X28300Y-21950D01*
X28300Y-21950D02*
X28300Y-22550D01*
X28300Y-22550D02*
X28700Y-22550D01*
G54D12*
X27300Y-15650D02*
X27300Y-16650D01*
X27300Y-16650D02*
X30300Y-16650D01*
X30300Y-16650D02*
X30300Y-15650D01*
X30300Y-15650D02*
X27300Y-15650D01*
X28300Y-16650D02*
X28300Y-15650D01*
X24750Y-29200D02*
X24750Y-30200D01*
X24750Y-30200D02*
X26750Y-30200D01*
X26750Y-30200D02*
X26750Y-29200D01*
X26750Y-29200D02*
X24750Y-29200D01*
G54D10*
X42811Y-28307D02*
X42811Y-18228D01*
X42811Y-18228D02*
X40763Y-18228D01*
X40763Y-18228D02*
X40763Y-28307D01*
X40763Y-28307D02*
X42811Y-28307D01*
X24763Y-18228D02*
X24763Y-28307D01*
X24763Y-28307D02*
X26811Y-28307D01*
X26811Y-28307D02*
X26811Y-18228D01*
X26811Y-18228D02*
X24763Y-18228D01*
X34718Y-18037D02*
X30781Y-18037D01*
X30781Y-18037D02*
X30781Y-14887D01*
X30781Y-14887D02*
X34718Y-14887D01*
X34718Y-18037D02*
X34718Y-14887D01*
G54D13*
X39025Y-25625D02*
X39025Y-24375D01*
X37000Y-25625D02*
X37000Y-24375D01*
X37000Y-24375D02*
X39400Y-24375D01*
X39400Y-24375D02*
X39400Y-25625D01*
X39400Y-25625D02*
X37000Y-25625D01*
X34775Y-21325D02*
X36025Y-21325D01*
X34775Y-19300D02*
X36025Y-19300D01*
X36025Y-19300D02*
X36025Y-21700D01*
X36025Y-21700D02*
X34775Y-21700D01*
X34775Y-21700D02*
X34775Y-19300D01*
X33425Y-21725D02*
X33425Y-20475D01*
X31400Y-21725D02*
X31400Y-20475D01*
X31400Y-20475D02*
X33800Y-20475D01*
X33800Y-20475D02*
X33800Y-21725D01*
X33800Y-21725D02*
X31400Y-21725D01*
X29825Y-21725D02*
X29825Y-20475D01*
X27800Y-21725D02*
X27800Y-20475D01*
X27800Y-20475D02*
X30200Y-20475D01*
X30200Y-20475D02*
X30200Y-21725D01*
X30200Y-21725D02*
X27800Y-21725D01*
G54D10*
X34873Y-17749D02*
X42826Y-17749D01*
X42826Y-17749D02*
X42826Y-15150D01*
X42826Y-15150D02*
X34873Y-15150D01*
X34873Y-15150D02*
X34873Y-17749D01*
G54D14*
X28982Y-23160D02*
X28992Y-23170D01*
X29020Y-23179D01*
X29039Y-23179D01*
X29067Y-23170D01*
X29086Y-23151D01*
X29095Y-23132D01*
X29104Y-23095D01*
X29104Y-23067D01*
X29095Y-23029D01*
X29086Y-23010D01*
X29067Y-22992D01*
X29039Y-22982D01*
X29020Y-22982D01*
X28992Y-22992D01*
X28982Y-23001D01*
X28804Y-22982D02*
X28898Y-22982D01*
X28907Y-23076D01*
X28898Y-23067D01*
X28879Y-23057D01*
X28832Y-23057D01*
X28813Y-23067D01*
X28804Y-23076D01*
X28795Y-23095D01*
X28795Y-23142D01*
X28804Y-23160D01*
X28813Y-23170D01*
X28832Y-23179D01*
X28879Y-23179D01*
X28898Y-23170D01*
X28907Y-23160D01*
X29223Y-22632D02*
X29204Y-22632D01*
X29186Y-22642D01*
X29176Y-22651D01*
X29167Y-22670D01*
X29157Y-22707D01*
X29157Y-22754D01*
X29167Y-22792D01*
X29176Y-22810D01*
X29186Y-22820D01*
X29204Y-22829D01*
X29223Y-22829D01*
X29242Y-22820D01*
X29251Y-22810D01*
X29261Y-22792D01*
X29270Y-22754D01*
X29270Y-22707D01*
X29261Y-22670D01*
X29251Y-22651D01*
X29242Y-22642D01*
X29223Y-22632D01*
X29073Y-22810D02*
X29064Y-22820D01*
X29073Y-22829D01*
X29082Y-22820D01*
X29073Y-22810D01*
X29073Y-22829D01*
X28876Y-22829D02*
X28989Y-22829D01*
X28932Y-22829D02*
X28932Y-22632D01*
X28951Y-22660D01*
X28970Y-22679D01*
X28989Y-22689D01*
X28707Y-22698D02*
X28707Y-22829D01*
X28792Y-22698D02*
X28792Y-22801D01*
X28782Y-22820D01*
X28763Y-22829D01*
X28735Y-22829D01*
X28717Y-22820D01*
X28707Y-22810D01*
X28548Y-22726D02*
X28613Y-22726D01*
X28613Y-22829D02*
X28613Y-22632D01*
X28520Y-22632D01*
G54D12*
X29195Y-17161D02*
X29195Y-16761D01*
X28966Y-17161D02*
X29138Y-16933D01*
X28966Y-16761D02*
X29195Y-16990D01*
X28585Y-17161D02*
X28814Y-17161D01*
X28699Y-17161D02*
X28699Y-16761D01*
X28738Y-16819D01*
X28776Y-16857D01*
X28814Y-16876D01*
X26514Y-30421D02*
X26514Y-30664D01*
X26500Y-30692D01*
X26485Y-30707D01*
X26457Y-30721D01*
X26400Y-30721D01*
X26371Y-30707D01*
X26357Y-30692D01*
X26342Y-30664D01*
X26342Y-30421D01*
X26214Y-30707D02*
X26171Y-30721D01*
X26099Y-30721D01*
X26071Y-30707D01*
X26057Y-30692D01*
X26042Y-30664D01*
X26042Y-30635D01*
X26057Y-30607D01*
X26071Y-30592D01*
X26099Y-30578D01*
X26157Y-30564D01*
X26185Y-30550D01*
X26199Y-30535D01*
X26214Y-30507D01*
X26214Y-30478D01*
X26199Y-30450D01*
X26185Y-30435D01*
X26157Y-30421D01*
X26085Y-30421D01*
X26042Y-30435D01*
X25928Y-30635D02*
X25785Y-30635D01*
X25957Y-30721D02*
X25857Y-30421D01*
X25757Y-30721D01*
X25485Y-30721D02*
X25585Y-30578D01*
X25657Y-30721D02*
X25657Y-30421D01*
X25542Y-30421D01*
X25514Y-30435D01*
X25500Y-30450D01*
X25485Y-30478D01*
X25485Y-30521D01*
X25500Y-30550D01*
X25514Y-30564D01*
X25542Y-30578D01*
X25657Y-30578D01*
X25400Y-30421D02*
X25228Y-30421D01*
X25314Y-30721D02*
X25314Y-30421D01*
X24971Y-30721D02*
X25142Y-30721D01*
X25057Y-30721D02*
X25057Y-30421D01*
X25085Y-30464D01*
X25114Y-30492D01*
X25142Y-30507D01*
G54D15*
X40449Y-22534D02*
X40049Y-22534D01*
X40335Y-22667D01*
X40049Y-22801D01*
X40449Y-22801D01*
X40411Y-23220D02*
X40430Y-23201D01*
X40449Y-23143D01*
X40449Y-23105D01*
X40430Y-23048D01*
X40392Y-23010D01*
X40354Y-22991D01*
X40277Y-22972D01*
X40220Y-22972D01*
X40144Y-22991D01*
X40106Y-23010D01*
X40068Y-23048D01*
X40049Y-23105D01*
X40049Y-23143D01*
X40068Y-23201D01*
X40087Y-23220D01*
X40049Y-23391D02*
X40373Y-23391D01*
X40411Y-23410D01*
X40430Y-23429D01*
X40449Y-23467D01*
X40449Y-23543D01*
X40430Y-23582D01*
X40411Y-23601D01*
X40373Y-23620D01*
X40049Y-23620D01*
X40087Y-23791D02*
X40068Y-23810D01*
X40049Y-23848D01*
X40049Y-23943D01*
X40068Y-23982D01*
X40087Y-24001D01*
X40125Y-24020D01*
X40163Y-24020D01*
X40220Y-24001D01*
X40449Y-23772D01*
X40449Y-24020D01*
X27449Y-22534D02*
X27049Y-22534D01*
X27335Y-22667D01*
X27049Y-22801D01*
X27449Y-22801D01*
X27411Y-23220D02*
X27430Y-23201D01*
X27449Y-23143D01*
X27449Y-23105D01*
X27430Y-23048D01*
X27392Y-23010D01*
X27354Y-22991D01*
X27277Y-22972D01*
X27220Y-22972D01*
X27144Y-22991D01*
X27106Y-23010D01*
X27068Y-23048D01*
X27049Y-23105D01*
X27049Y-23143D01*
X27068Y-23201D01*
X27087Y-23220D01*
X27049Y-23391D02*
X27373Y-23391D01*
X27411Y-23410D01*
X27430Y-23429D01*
X27449Y-23467D01*
X27449Y-23543D01*
X27430Y-23582D01*
X27411Y-23601D01*
X27373Y-23620D01*
X27049Y-23620D01*
X27449Y-24020D02*
X27449Y-23791D01*
X27449Y-23905D02*
X27049Y-23905D01*
X27106Y-23867D01*
X27144Y-23829D01*
X27163Y-23791D01*
X33045Y-15640D02*
X33045Y-15240D01*
X32892Y-15240D01*
X32854Y-15259D01*
X32835Y-15278D01*
X32816Y-15316D01*
X32816Y-15373D01*
X32835Y-15411D01*
X32854Y-15430D01*
X32892Y-15449D01*
X33045Y-15449D01*
X32683Y-15240D02*
X32435Y-15240D01*
X32569Y-15392D01*
X32511Y-15392D01*
X32473Y-15411D01*
X32454Y-15430D01*
X32435Y-15468D01*
X32435Y-15564D01*
X32454Y-15602D01*
X32473Y-15621D01*
X32511Y-15640D01*
X32626Y-15640D01*
X32664Y-15621D01*
X32683Y-15602D01*
G54D16*
X38232Y-25910D02*
X38242Y-25920D01*
X38270Y-25929D01*
X38289Y-25929D01*
X38317Y-25920D01*
X38336Y-25901D01*
X38345Y-25882D01*
X38354Y-25845D01*
X38354Y-25817D01*
X38345Y-25779D01*
X38336Y-25760D01*
X38317Y-25742D01*
X38289Y-25732D01*
X38270Y-25732D01*
X38242Y-25742D01*
X38232Y-25751D01*
X38167Y-25732D02*
X38035Y-25732D01*
X38120Y-25929D01*
X34610Y-20467D02*
X34620Y-20457D01*
X34629Y-20429D01*
X34629Y-20410D01*
X34620Y-20382D01*
X34601Y-20363D01*
X34582Y-20354D01*
X34545Y-20345D01*
X34517Y-20345D01*
X34479Y-20354D01*
X34460Y-20363D01*
X34442Y-20382D01*
X34432Y-20410D01*
X34432Y-20429D01*
X34442Y-20457D01*
X34451Y-20467D01*
X34498Y-20636D02*
X34629Y-20636D01*
X34423Y-20589D02*
X34564Y-20542D01*
X34564Y-20664D01*
X32632Y-22010D02*
X32642Y-22020D01*
X32670Y-22029D01*
X32689Y-22029D01*
X32717Y-22020D01*
X32736Y-22001D01*
X32745Y-21982D01*
X32754Y-21945D01*
X32754Y-21917D01*
X32745Y-21879D01*
X32736Y-21860D01*
X32717Y-21842D01*
X32689Y-21832D01*
X32670Y-21832D01*
X32642Y-21842D01*
X32632Y-21851D01*
X32539Y-22029D02*
X32501Y-22029D01*
X32482Y-22020D01*
X32473Y-22010D01*
X32454Y-21982D01*
X32445Y-21945D01*
X32445Y-21870D01*
X32454Y-21851D01*
X32463Y-21842D01*
X32482Y-21832D01*
X32520Y-21832D01*
X32539Y-21842D01*
X32548Y-21851D01*
X32557Y-21870D01*
X32557Y-21917D01*
X32548Y-21935D01*
X32539Y-21945D01*
X32520Y-21954D01*
X32482Y-21954D01*
X32463Y-21945D01*
X32454Y-21935D01*
X32445Y-21917D01*
X29932Y-21960D02*
X29942Y-21970D01*
X29970Y-21979D01*
X29989Y-21979D01*
X30017Y-21970D01*
X30036Y-21951D01*
X30045Y-21932D01*
X30054Y-21895D01*
X30054Y-21867D01*
X30045Y-21829D01*
X30036Y-21810D01*
X30017Y-21792D01*
X29989Y-21782D01*
X29970Y-21782D01*
X29942Y-21792D01*
X29932Y-21801D01*
X29763Y-21782D02*
X29801Y-21782D01*
X29820Y-21792D01*
X29829Y-21801D01*
X29848Y-21829D01*
X29857Y-21867D01*
X29857Y-21942D01*
X29848Y-21960D01*
X29839Y-21970D01*
X29820Y-21979D01*
X29782Y-21979D01*
X29763Y-21970D01*
X29754Y-21960D01*
X29745Y-21942D01*
X29745Y-21895D01*
X29754Y-21876D01*
X29763Y-21867D01*
X29782Y-21857D01*
X29820Y-21857D01*
X29839Y-21867D01*
X29848Y-21876D01*
X29857Y-21895D01*
G54D15*
X42392Y-18095D02*
X42259Y-18095D01*
X42202Y-18304D02*
X42392Y-18304D01*
X42392Y-17904D01*
X42202Y-17904D01*
X42069Y-17904D02*
X41802Y-18304D01*
X41802Y-17904D02*
X42069Y-18304D01*
X41707Y-17904D02*
X41478Y-17904D01*
X41592Y-18304D02*
X41592Y-17904D01*
X41345Y-18095D02*
X41211Y-18095D01*
X41154Y-18304D02*
X41345Y-18304D01*
X41345Y-17904D01*
X41154Y-17904D01*
X40983Y-18304D02*
X40983Y-17904D01*
X40754Y-18304D01*
X40754Y-17904D01*
X40583Y-18285D02*
X40526Y-18304D01*
X40430Y-18304D01*
X40392Y-18285D01*
X40373Y-18266D01*
X40354Y-18228D01*
X40354Y-18190D01*
X40373Y-18152D01*
X40392Y-18133D01*
X40430Y-18114D01*
X40507Y-18095D01*
X40545Y-18076D01*
X40564Y-18057D01*
X40583Y-18019D01*
X40583Y-17981D01*
X40564Y-17942D01*
X40545Y-17923D01*
X40507Y-17904D01*
X40411Y-17904D01*
X40354Y-17923D01*
X40183Y-18304D02*
X40183Y-17904D01*
X39916Y-17904D02*
X39840Y-17904D01*
X39802Y-17923D01*
X39764Y-17961D01*
X39745Y-18038D01*
X39745Y-18171D01*
X39764Y-18247D01*
X39802Y-18285D01*
X39840Y-18304D01*
X39916Y-18304D01*
X39954Y-18285D01*
X39992Y-18247D01*
X40011Y-18171D01*
X40011Y-18038D01*
X39992Y-17961D01*
X39954Y-17923D01*
X39916Y-17904D01*
X39573Y-18304D02*
X39573Y-17904D01*
X39345Y-18304D01*
X39345Y-17904D01*
X39154Y-18152D02*
X38850Y-18152D01*
X38430Y-18266D02*
X38450Y-18285D01*
X38507Y-18304D01*
X38545Y-18304D01*
X38602Y-18285D01*
X38640Y-18247D01*
X38659Y-18209D01*
X38678Y-18133D01*
X38678Y-18076D01*
X38659Y-18000D01*
X38640Y-17961D01*
X38602Y-17923D01*
X38545Y-17904D01*
X38507Y-17904D01*
X38450Y-17923D01*
X38430Y-17942D01*
X38183Y-17904D02*
X38107Y-17904D01*
X38069Y-17923D01*
X38030Y-17961D01*
X38011Y-18038D01*
X38011Y-18171D01*
X38030Y-18247D01*
X38069Y-18285D01*
X38107Y-18304D01*
X38183Y-18304D01*
X38221Y-18285D01*
X38259Y-18247D01*
X38278Y-18171D01*
X38278Y-18038D01*
X38259Y-17961D01*
X38221Y-17923D01*
X38183Y-17904D01*
X37840Y-18304D02*
X37840Y-17904D01*
X37611Y-18304D01*
X37611Y-17904D01*
X37421Y-18304D02*
X37421Y-17904D01*
X37192Y-18304D01*
X37192Y-17904D01*
X37002Y-18095D02*
X36869Y-18095D01*
X36811Y-18304D02*
X37002Y-18304D01*
X37002Y-17904D01*
X36811Y-17904D01*
X36411Y-18266D02*
X36430Y-18285D01*
X36488Y-18304D01*
X36526Y-18304D01*
X36583Y-18285D01*
X36621Y-18247D01*
X36640Y-18209D01*
X36659Y-18133D01*
X36659Y-18076D01*
X36640Y-18000D01*
X36621Y-17961D01*
X36583Y-17923D01*
X36526Y-17904D01*
X36488Y-17904D01*
X36430Y-17923D01*
X36411Y-17942D01*
X36297Y-17904D02*
X36069Y-17904D01*
X36183Y-18304D02*
X36183Y-17904D01*
X35859Y-17904D02*
X35783Y-17904D01*
X35745Y-17923D01*
X35707Y-17961D01*
X35688Y-18038D01*
X35688Y-18171D01*
X35707Y-18247D01*
X35745Y-18285D01*
X35783Y-18304D01*
X35859Y-18304D01*
X35897Y-18285D01*
X35935Y-18247D01*
X35954Y-18171D01*
X35954Y-18038D01*
X35935Y-17961D01*
X35897Y-17923D01*
X35859Y-17904D01*
X35288Y-18304D02*
X35421Y-18114D01*
X35516Y-18304D02*
X35516Y-17904D01*
X35364Y-17904D01*
X35326Y-17923D01*
X35307Y-17942D01*
X35288Y-17981D01*
X35288Y-18038D01*
X35307Y-18076D01*
X35326Y-18095D01*
X35364Y-18114D01*
X35516Y-18114D01*
M02*
