G04 (created by PCBNEW (2013-may-18)-stable) date Вт 16 фев 2016 22:09:58*
%MOIN*%
G04 Gerber Fmt 3.4, Leading zero omitted, Abs format*
%FSLAX34Y34*%
G01*
G70*
G90*
G04 APERTURE LIST*
%ADD10C,0.00590551*%
%ADD11R,0.036X0.036*%
%ADD12R,0.0276X0.0394*%
%ADD13R,0.02X0.03*%
%ADD14R,0.03X0.02*%
%ADD15R,0.035X0.055*%
%ADD16R,0.055X0.035*%
%ADD17R,0.06X0.06*%
%ADD18C,0.06*%
%ADD19R,0.0472X0.0472*%
%ADD20R,0.0669X0.0472*%
%ADD21R,0.0472X0.0629*%
%ADD22R,0.0472X0.0669*%
%ADD23C,0.16*%
%ADD24C,0.0275591*%
%ADD25C,0.023622*%
%ADD26C,0.01*%
G04 APERTURE END LIST*
G54D10*
G54D11*
X29200Y-17750D03*
X29200Y-17050D03*
X30000Y-17400D03*
G54D12*
X33125Y-16450D03*
X32750Y-16450D03*
X32375Y-16450D03*
X32375Y-15450D03*
X32750Y-15450D03*
X33125Y-15450D03*
G54D13*
X29225Y-18550D03*
X28475Y-18550D03*
X29225Y-19550D03*
X28850Y-18550D03*
X28475Y-19550D03*
G54D14*
X33200Y-18875D03*
X33200Y-18125D03*
X32200Y-18875D03*
X33200Y-18500D03*
X32200Y-18125D03*
G54D15*
X39325Y-29650D03*
X40075Y-29650D03*
G54D16*
X39300Y-23925D03*
X39300Y-23175D03*
G54D15*
X38525Y-23950D03*
X37775Y-23950D03*
X35975Y-21500D03*
X35225Y-21500D03*
G54D16*
X27800Y-23275D03*
X27800Y-22525D03*
X35200Y-20875D03*
X35200Y-20125D03*
X30300Y-18875D03*
X30300Y-18125D03*
G54D15*
X37475Y-29650D03*
X38225Y-29650D03*
G54D16*
X31150Y-18125D03*
X31150Y-18875D03*
G54D15*
X35625Y-29650D03*
X36375Y-29650D03*
X27675Y-17150D03*
X28425Y-17150D03*
X27675Y-17900D03*
X28425Y-17900D03*
X27875Y-18650D03*
X27125Y-18650D03*
X27875Y-20000D03*
X27125Y-20000D03*
G54D17*
X36900Y-27800D03*
G54D18*
X36900Y-26800D03*
X37900Y-27800D03*
X37900Y-26800D03*
X38900Y-27800D03*
X38900Y-26800D03*
X39900Y-27800D03*
X39900Y-26800D03*
G54D17*
X27800Y-16150D03*
G54D18*
X28800Y-16150D03*
X29800Y-16150D03*
G54D17*
X25250Y-29700D03*
G54D18*
X26250Y-29700D03*
G54D17*
X41287Y-27767D03*
G54D18*
X42287Y-27767D03*
X41287Y-26767D03*
X42287Y-26767D03*
X41287Y-25767D03*
X42287Y-25767D03*
X41287Y-24767D03*
X42287Y-24767D03*
X41287Y-23767D03*
X42287Y-23767D03*
X41287Y-22767D03*
X42287Y-22767D03*
X41287Y-21767D03*
X42287Y-21767D03*
X41287Y-20767D03*
X42287Y-20767D03*
X41287Y-19767D03*
X42287Y-19767D03*
X41287Y-18767D03*
X42287Y-18767D03*
G54D17*
X26287Y-18767D03*
G54D18*
X25287Y-18767D03*
X26287Y-19767D03*
X25287Y-19767D03*
X26287Y-20767D03*
X25287Y-20767D03*
X26287Y-21767D03*
X25287Y-21767D03*
X26287Y-22767D03*
X25287Y-22767D03*
X26287Y-23767D03*
X25287Y-23767D03*
X26287Y-24767D03*
X25287Y-24767D03*
X26287Y-25767D03*
X25287Y-25767D03*
X26287Y-26767D03*
X25287Y-26767D03*
X26287Y-27767D03*
X25287Y-27767D03*
G54D17*
X33931Y-17250D03*
G54D18*
X33143Y-17250D03*
X32356Y-17250D03*
X31568Y-17250D03*
G54D19*
X38263Y-30500D03*
X37437Y-30500D03*
X36413Y-30500D03*
X35587Y-30500D03*
X39287Y-30500D03*
X40113Y-30500D03*
G54D20*
X33909Y-22107D03*
X33909Y-21516D03*
X33909Y-20926D03*
X33909Y-22697D03*
X33909Y-23288D03*
X33909Y-23878D03*
X33909Y-24469D03*
X33909Y-25059D03*
X33909Y-25650D03*
X33909Y-26241D03*
X33909Y-26831D03*
X33909Y-27422D03*
X33909Y-28012D03*
G54D21*
X33417Y-20258D03*
G54D22*
X32825Y-20276D03*
X32235Y-20276D03*
X31645Y-20276D03*
X31055Y-20276D03*
X30465Y-20276D03*
X29875Y-20276D03*
G54D21*
X29285Y-20257D03*
G54D20*
X28791Y-20926D03*
X28791Y-21516D03*
X28791Y-22108D03*
X28791Y-22697D03*
X28791Y-23288D03*
X28791Y-23878D03*
X28791Y-24469D03*
X28791Y-25059D03*
X28791Y-25650D03*
X28791Y-26241D03*
X28791Y-26831D03*
X28791Y-27422D03*
X28791Y-28012D03*
G54D17*
X36850Y-15950D03*
G54D18*
X36850Y-16950D03*
X37850Y-15950D03*
X37850Y-16950D03*
X38850Y-15950D03*
X38850Y-16950D03*
X39850Y-15950D03*
X39850Y-16950D03*
X40850Y-15950D03*
X40850Y-16950D03*
G54D23*
X25750Y-16450D03*
X41893Y-30229D03*
G54D24*
X36250Y-17750D03*
X37300Y-20600D03*
X33200Y-22250D03*
X30300Y-22250D03*
X34600Y-22250D03*
X29900Y-19550D03*
X36950Y-30500D03*
X34800Y-30500D03*
X27500Y-20000D03*
X31750Y-18500D03*
X34475Y-19775D03*
X28750Y-20250D03*
X27800Y-22050D03*
X37300Y-24050D03*
X41800Y-20000D03*
X41800Y-22500D03*
X40100Y-25750D03*
X41800Y-28600D03*
X34300Y-16700D03*
X41500Y-23250D03*
X34300Y-17750D03*
X31250Y-17650D03*
X27500Y-24500D03*
X30200Y-24500D03*
X27500Y-24100D03*
X30200Y-24100D03*
X39300Y-24300D03*
X35900Y-20650D03*
X31900Y-15600D03*
X33600Y-18100D03*
X31700Y-19700D03*
X32700Y-18100D03*
X32700Y-18900D03*
X29550Y-18550D03*
X28300Y-20000D03*
G54D25*
X35750Y-22250D02*
X38800Y-22250D01*
X39300Y-22750D02*
X39300Y-23175D01*
X38800Y-22250D02*
X39300Y-22750D01*
X39400Y-15500D02*
X39300Y-15400D01*
X39300Y-15400D02*
X36450Y-15400D01*
X36450Y-15400D02*
X36250Y-15600D01*
X36250Y-15600D02*
X36250Y-17750D01*
X39850Y-15950D02*
X39400Y-15500D01*
X36025Y-21450D02*
X35975Y-21500D01*
X36450Y-21450D02*
X36025Y-21450D01*
X37300Y-20600D02*
X36450Y-21450D01*
X33200Y-22250D02*
X31100Y-22250D01*
X31100Y-22250D02*
X30300Y-22250D01*
X35975Y-22025D02*
X35975Y-21500D01*
X35750Y-22250D02*
X35975Y-22025D01*
X34600Y-22250D02*
X35750Y-22250D01*
X29900Y-19550D02*
X29225Y-19550D01*
G54D26*
X30300Y-18875D02*
X29725Y-18875D01*
X29725Y-18875D02*
X29225Y-19375D01*
G54D25*
X29225Y-19550D02*
X29225Y-19375D01*
X25769Y-19250D02*
X25287Y-18767D01*
X26850Y-19250D02*
X25769Y-19250D01*
X26900Y-19200D02*
X26850Y-19250D01*
X29050Y-19200D02*
X26900Y-19200D01*
X29225Y-19375D02*
X29050Y-19200D01*
X35200Y-20125D02*
X34825Y-20125D01*
X34825Y-20125D02*
X34475Y-19775D01*
G54D26*
X37437Y-30500D02*
X36950Y-30500D01*
X35587Y-30500D02*
X34800Y-30500D01*
G54D25*
X27125Y-20000D02*
X27500Y-20000D01*
X27800Y-16150D02*
X27800Y-16500D01*
X28425Y-16775D02*
X28425Y-17200D01*
X28300Y-16650D02*
X28425Y-16775D01*
X27950Y-16650D02*
X28300Y-16650D01*
X27800Y-16500D02*
X27950Y-16650D01*
X29200Y-17050D02*
X28575Y-17050D01*
X28575Y-17050D02*
X28425Y-17200D01*
X28425Y-17900D02*
X28425Y-17200D01*
X28850Y-18550D02*
X28850Y-18150D01*
X28600Y-17900D02*
X28425Y-17900D01*
X28850Y-18150D02*
X28600Y-17900D01*
X33909Y-20926D02*
X33909Y-20341D01*
X33909Y-20341D02*
X34475Y-19775D01*
X28950Y-20257D02*
X28757Y-20257D01*
X28757Y-20257D02*
X28750Y-20250D01*
X28791Y-20926D02*
X28791Y-20409D01*
X28943Y-20257D02*
X28950Y-20257D01*
X28950Y-20257D02*
X29285Y-20257D01*
X28791Y-20409D02*
X28943Y-20257D01*
G54D26*
X27800Y-22525D02*
X27800Y-22050D01*
G54D25*
X37775Y-23950D02*
X37400Y-23950D01*
X37400Y-23950D02*
X37300Y-24050D01*
X31150Y-18125D02*
X31150Y-18400D01*
X31250Y-18500D02*
X31750Y-18500D01*
X31750Y-18500D02*
X33200Y-18500D01*
X31150Y-18400D02*
X31250Y-18500D01*
X33200Y-18500D02*
X33650Y-18500D01*
X33931Y-18218D02*
X33931Y-17250D01*
X33650Y-18500D02*
X33931Y-18218D01*
X32750Y-15450D02*
X32750Y-15700D01*
X33931Y-16331D02*
X33931Y-17250D01*
X33550Y-15950D02*
X33931Y-16331D01*
X33000Y-15950D02*
X33550Y-15950D01*
X32750Y-15700D02*
X33000Y-15950D01*
G54D26*
X41317Y-18767D02*
X41287Y-18767D01*
X41800Y-19250D02*
X41317Y-18767D01*
X41800Y-20000D02*
X41800Y-19250D01*
X41800Y-24050D02*
X41800Y-22500D01*
X41600Y-24250D02*
X41800Y-24050D01*
X41100Y-24250D02*
X41600Y-24250D01*
X40700Y-24650D02*
X41100Y-24250D01*
X40700Y-25150D02*
X40700Y-24650D01*
X40100Y-25750D02*
X40700Y-25150D01*
X37900Y-27800D02*
X37900Y-27750D01*
X42750Y-20230D02*
X42287Y-19767D01*
X42750Y-25000D02*
X42750Y-20230D01*
X42500Y-25250D02*
X42750Y-25000D01*
X41100Y-25250D02*
X42500Y-25250D01*
X40300Y-26050D02*
X41100Y-25250D01*
X37950Y-26050D02*
X40300Y-26050D01*
X37400Y-26600D02*
X37950Y-26050D01*
X37400Y-27250D02*
X37400Y-26600D01*
X37900Y-27750D02*
X37400Y-27250D01*
X37900Y-26800D02*
X38400Y-27300D01*
X40582Y-26767D02*
X41287Y-26767D01*
X40050Y-27300D02*
X40582Y-26767D01*
X38400Y-27300D02*
X40050Y-27300D01*
X38900Y-27800D02*
X39300Y-28200D01*
X41805Y-27250D02*
X42287Y-26767D01*
X40950Y-27250D02*
X41805Y-27250D01*
X40600Y-27600D02*
X40950Y-27250D01*
X40600Y-27850D02*
X40600Y-27600D01*
X40200Y-28250D02*
X40600Y-27850D01*
X39350Y-28250D02*
X40200Y-28250D01*
X39300Y-28200D02*
X39350Y-28250D01*
X38900Y-26800D02*
X39450Y-26250D01*
X41805Y-26250D02*
X42287Y-25767D01*
X39450Y-26250D02*
X41805Y-26250D01*
X26250Y-29700D02*
X31900Y-29700D01*
X41800Y-28650D02*
X41800Y-28600D01*
X40700Y-29750D02*
X41800Y-28650D01*
X40700Y-30750D02*
X40700Y-29750D01*
X40300Y-31150D02*
X40700Y-30750D01*
X33350Y-31150D02*
X40300Y-31150D01*
X31900Y-29700D02*
X33350Y-31150D01*
X39850Y-16950D02*
X40750Y-17850D01*
X41369Y-17850D02*
X42287Y-18767D01*
X40750Y-17850D02*
X41369Y-17850D01*
X41287Y-22767D02*
X40867Y-22767D01*
X34800Y-16700D02*
X34300Y-16700D01*
X40867Y-22767D02*
X34800Y-16700D01*
G54D25*
X33143Y-17250D02*
X33143Y-16468D01*
X33143Y-16468D02*
X33125Y-16450D01*
G54D26*
X40950Y-23250D02*
X41500Y-23250D01*
X35450Y-17750D02*
X40950Y-23250D01*
X34950Y-17750D02*
X35450Y-17750D01*
X34300Y-17750D02*
X34950Y-17750D01*
X30300Y-18125D02*
X30300Y-17850D01*
X30500Y-17650D02*
X31250Y-17650D01*
X30300Y-17850D02*
X30500Y-17650D01*
G54D25*
X32356Y-17250D02*
X32356Y-16468D01*
X32356Y-16468D02*
X32375Y-16450D01*
G54D26*
X38263Y-30500D02*
X38263Y-29688D01*
X38263Y-29688D02*
X38225Y-29650D01*
X37475Y-29650D02*
X37750Y-29650D01*
X29431Y-26831D02*
X28791Y-26831D01*
X33500Y-30900D02*
X29431Y-26831D01*
X37750Y-30900D02*
X33500Y-30900D01*
X37850Y-30800D02*
X37750Y-30900D01*
X37850Y-29750D02*
X37850Y-30800D01*
X37750Y-29650D02*
X37850Y-29750D01*
X36413Y-30500D02*
X36413Y-29688D01*
X36413Y-29688D02*
X36375Y-29650D01*
X35625Y-29650D02*
X32750Y-29650D01*
X29458Y-22108D02*
X28791Y-22108D01*
X29850Y-22500D02*
X29458Y-22108D01*
X29850Y-26750D02*
X29850Y-22500D01*
X32750Y-29650D02*
X29850Y-26750D01*
X33909Y-28012D02*
X33362Y-28012D01*
X26767Y-23767D02*
X26287Y-23767D01*
X27500Y-24500D02*
X26767Y-23767D01*
X30200Y-24850D02*
X30200Y-24500D01*
X33362Y-28012D02*
X30200Y-24850D01*
X33909Y-27422D02*
X33522Y-27422D01*
X25819Y-23300D02*
X25287Y-22767D01*
X26700Y-23300D02*
X25819Y-23300D01*
X27500Y-24100D02*
X26700Y-23300D01*
X33522Y-27422D02*
X30200Y-24100D01*
X28791Y-28012D02*
X28162Y-28012D01*
X27800Y-27650D02*
X27800Y-23275D01*
X28162Y-28012D02*
X27800Y-27650D01*
X28791Y-23288D02*
X27813Y-23288D01*
X27813Y-23288D02*
X27800Y-23275D01*
G54D25*
X39300Y-23925D02*
X39300Y-24300D01*
X38525Y-23950D02*
X39275Y-23950D01*
X39275Y-23950D02*
X39300Y-23925D01*
X35200Y-20875D02*
X35675Y-20875D01*
X35675Y-20875D02*
X35900Y-20650D01*
X35225Y-21500D02*
X35225Y-20900D01*
X35225Y-20900D02*
X35200Y-20875D01*
X33909Y-21516D02*
X35209Y-21516D01*
X35209Y-21516D02*
X35225Y-21500D01*
X28800Y-16150D02*
X29350Y-15600D01*
X29350Y-15600D02*
X31900Y-15600D01*
X33200Y-18125D02*
X33575Y-18125D01*
X33575Y-18125D02*
X33600Y-18100D01*
G54D26*
X36850Y-15950D02*
X37350Y-16450D01*
X37350Y-17830D02*
X41287Y-21767D01*
X37350Y-16450D02*
X37350Y-17830D01*
G54D25*
X29800Y-16150D02*
X29800Y-16650D01*
X30000Y-16850D02*
X30000Y-17400D01*
X29800Y-16650D02*
X30000Y-16850D01*
G54D26*
X33200Y-18875D02*
X36275Y-18875D01*
X39325Y-28825D02*
X39325Y-29650D01*
X39050Y-28550D02*
X39325Y-28825D01*
X36700Y-28550D02*
X39050Y-28550D01*
X36400Y-28250D02*
X36700Y-28550D01*
X36400Y-26650D02*
X36400Y-28250D01*
X37200Y-25850D02*
X36400Y-26650D01*
X39350Y-25850D02*
X37200Y-25850D01*
X40250Y-24950D02*
X39350Y-25850D01*
X40250Y-22850D02*
X40250Y-24950D01*
X36275Y-18875D02*
X40250Y-22850D01*
X36850Y-16950D02*
X36850Y-18100D01*
X41805Y-22250D02*
X42287Y-21767D01*
X41000Y-22250D02*
X41805Y-22250D01*
X36850Y-18100D02*
X41000Y-22250D01*
X37850Y-15950D02*
X37850Y-16000D01*
X41769Y-20250D02*
X42287Y-20767D01*
X41000Y-20250D02*
X41769Y-20250D01*
X38350Y-17600D02*
X41000Y-20250D01*
X38350Y-16500D02*
X38350Y-17600D01*
X37850Y-16000D02*
X38350Y-16500D01*
X37850Y-16950D02*
X37850Y-17400D01*
X41217Y-20767D02*
X41287Y-20767D01*
X37850Y-17400D02*
X41217Y-20767D01*
X38850Y-15950D02*
X39250Y-16350D01*
X39350Y-17830D02*
X41287Y-19767D01*
X39350Y-16450D02*
X39350Y-17830D01*
X39250Y-16350D02*
X39350Y-16450D01*
G54D25*
X31750Y-19650D02*
X31750Y-18875D01*
X31700Y-19700D02*
X31750Y-19650D01*
X31150Y-18875D02*
X31750Y-18875D01*
X31750Y-18875D02*
X32200Y-18875D01*
G54D26*
X40113Y-30500D02*
X40113Y-29688D01*
X40113Y-29688D02*
X40075Y-29650D01*
X33350Y-19300D02*
X32950Y-19300D01*
X38950Y-30500D02*
X38800Y-30350D01*
X38800Y-30350D02*
X38800Y-28950D01*
X38800Y-28950D02*
X38600Y-28750D01*
X38600Y-28750D02*
X36650Y-28750D01*
X36650Y-28750D02*
X36200Y-28300D01*
X36200Y-28300D02*
X36200Y-26600D01*
X36200Y-26600D02*
X37150Y-25650D01*
X37150Y-25650D02*
X39250Y-25650D01*
X39250Y-25650D02*
X40050Y-24850D01*
X40050Y-24850D02*
X40050Y-22900D01*
X40050Y-22900D02*
X36200Y-19050D01*
X36200Y-19050D02*
X33600Y-19050D01*
X33600Y-19050D02*
X33350Y-19300D01*
X39287Y-30500D02*
X38950Y-30500D01*
X32675Y-18125D02*
X32200Y-18125D01*
X32700Y-18100D02*
X32675Y-18125D01*
X32700Y-19050D02*
X32700Y-18900D01*
X32950Y-19300D02*
X32700Y-19050D01*
G54D25*
X31568Y-17250D02*
X31568Y-17718D01*
X31975Y-18125D02*
X32200Y-18125D01*
X31568Y-17718D02*
X31975Y-18125D01*
X32750Y-16450D02*
X32750Y-16200D01*
X31568Y-16431D02*
X31568Y-17250D01*
X31950Y-16050D02*
X31568Y-16431D01*
X32600Y-16050D02*
X31950Y-16050D01*
X32750Y-16200D02*
X32600Y-16050D01*
X27875Y-20000D02*
X28300Y-20000D01*
X29550Y-18550D02*
X29225Y-18550D01*
X27875Y-18650D02*
X28100Y-18650D01*
X28200Y-18550D02*
X28475Y-18550D01*
X28100Y-18650D02*
X28200Y-18550D01*
X29225Y-18550D02*
X29225Y-17775D01*
X29225Y-17775D02*
X29200Y-17750D01*
X28475Y-18550D02*
X28475Y-18725D01*
X29225Y-18725D02*
X29225Y-18550D01*
X29050Y-18900D02*
X29225Y-18725D01*
X28650Y-18900D02*
X29050Y-18900D01*
X28475Y-18725D02*
X28650Y-18900D01*
G54D26*
X25287Y-25767D02*
X25267Y-25767D01*
X25375Y-18025D02*
X27125Y-18025D01*
X24800Y-18600D02*
X25375Y-18025D01*
X24800Y-25300D02*
X24800Y-18600D01*
X25267Y-25767D02*
X24800Y-25300D01*
G54D25*
X27125Y-18650D02*
X27125Y-18025D01*
X27250Y-17900D02*
X27675Y-17900D01*
X27125Y-18025D02*
X27250Y-17900D01*
X27675Y-17900D02*
X27675Y-17150D01*
G54D26*
X41287Y-27767D02*
X41287Y-28137D01*
X41400Y-15950D02*
X40850Y-15950D01*
X43068Y-17618D02*
X41400Y-15950D01*
X43068Y-27631D02*
X43068Y-17618D01*
X42450Y-28250D02*
X43068Y-27631D01*
X41400Y-28250D02*
X42450Y-28250D01*
X41287Y-28137D02*
X41400Y-28250D01*
X42287Y-27767D02*
X42287Y-27762D01*
X41900Y-16950D02*
X40850Y-16950D01*
X42909Y-17959D02*
X41900Y-16950D01*
X42909Y-27140D02*
X42909Y-17959D01*
X42287Y-27762D02*
X42909Y-27140D01*
M02*
