G04 (created by PCBNEW (2013-may-18)-stable) date Вт 16 фев 2016 22:09:58*
%MOIN*%
G04 Gerber Fmt 3.4, Leading zero omitted, Abs format*
%FSLAX34Y34*%
G01*
G70*
G90*
G04 APERTURE LIST*
%ADD10C,0.00590551*%
%ADD11R,0.035X0.055*%
%ADD12R,0.06X0.06*%
%ADD13C,0.06*%
%ADD14R,0.1004X0.0984*%
%ADD15R,0.0984X0.1004*%
%ADD16C,0.16*%
G04 APERTURE END LIST*
G54D10*
G54D11*
X29275Y-22250D03*
X28525Y-22250D03*
G54D12*
X36900Y-27800D03*
G54D13*
X36900Y-26800D03*
X37900Y-27800D03*
X37900Y-26800D03*
X38900Y-27800D03*
X38900Y-26800D03*
X39900Y-27800D03*
X39900Y-26800D03*
G54D12*
X27800Y-16150D03*
G54D13*
X28800Y-16150D03*
X29800Y-16150D03*
G54D12*
X25250Y-29700D03*
G54D13*
X26250Y-29700D03*
G54D12*
X41287Y-27767D03*
G54D13*
X42287Y-27767D03*
X41287Y-26767D03*
X42287Y-26767D03*
X41287Y-25767D03*
X42287Y-25767D03*
X41287Y-24767D03*
X42287Y-24767D03*
X41287Y-23767D03*
X42287Y-23767D03*
X41287Y-22767D03*
X42287Y-22767D03*
X41287Y-21767D03*
X42287Y-21767D03*
X41287Y-20767D03*
X42287Y-20767D03*
X41287Y-19767D03*
X42287Y-19767D03*
X41287Y-18767D03*
X42287Y-18767D03*
G54D12*
X26287Y-18767D03*
G54D13*
X25287Y-18767D03*
X26287Y-19767D03*
X25287Y-19767D03*
X26287Y-20767D03*
X25287Y-20767D03*
X26287Y-21767D03*
X25287Y-21767D03*
X26287Y-22767D03*
X25287Y-22767D03*
X26287Y-23767D03*
X25287Y-23767D03*
X26287Y-24767D03*
X25287Y-24767D03*
X26287Y-25767D03*
X25287Y-25767D03*
X26287Y-26767D03*
X25287Y-26767D03*
X26287Y-27767D03*
X25287Y-27767D03*
G54D12*
X33931Y-17250D03*
G54D13*
X33143Y-17250D03*
X32356Y-17250D03*
X31568Y-17250D03*
G54D14*
X39194Y-25000D03*
X37206Y-25000D03*
G54D15*
X35400Y-21494D03*
X35400Y-19506D03*
G54D14*
X33594Y-21100D03*
X31606Y-21100D03*
X29994Y-21100D03*
X28006Y-21100D03*
G54D12*
X36850Y-15950D03*
G54D13*
X36850Y-16950D03*
X37850Y-15950D03*
X37850Y-16950D03*
X38850Y-15950D03*
X38850Y-16950D03*
X39850Y-15950D03*
X39850Y-16950D03*
X40850Y-15950D03*
X40850Y-16950D03*
G54D16*
X25750Y-16450D03*
X41893Y-30229D03*
M02*
