G04 #@! TF.FileFunction,Soldermask,Bot*
%FSLAX46Y46*%
G04 Gerber Fmt 4.6, Leading zero omitted, Abs format (unit mm)*
G04 Created by KiCad (PCBNEW 4.0.4-stable) date Sun Nov  6 18:52:19 2016*
%MOMM*%
%LPD*%
G01*
G04 APERTURE LIST*
%ADD10C,0.100000*%
%ADD11C,1.524000*%
%ADD12C,2.700020*%
%ADD13C,2.300000*%
%ADD14R,1.524000X1.524000*%
%ADD15R,1.000000X1.250000*%
%ADD16R,1.250000X1.000000*%
%ADD17R,1.727200X2.032000*%
%ADD18O,1.727200X2.032000*%
%ADD19R,2.032000X2.032000*%
%ADD20O,2.032000X2.032000*%
%ADD21R,2.235200X2.235200*%
%ADD22R,2.032000X1.727200*%
%ADD23O,2.032000X1.727200*%
%ADD24R,0.800100X0.800100*%
%ADD25R,1.300000X0.700000*%
%ADD26R,0.700000X1.300000*%
%ADD27R,1.000000X0.250000*%
%ADD28R,0.250000X1.000000*%
%ADD29R,0.650000X1.060000*%
%ADD30R,1.060000X0.650000*%
%ADD31R,0.508000X1.143000*%
%ADD32C,1.501140*%
%ADD33O,0.950000X1.250000*%
%ADD34O,1.550000X1.000000*%
%ADD35C,4.064000*%
G04 APERTURE END LIST*
D10*
D11*
X96520000Y-108458000D03*
X96520000Y-105918000D03*
X98518980Y-105918000D03*
X98518980Y-108458000D03*
D12*
X101219000Y-113187480D03*
X101219000Y-101188520D03*
D13*
X38265100Y-114878000D03*
X45961300Y-114878000D03*
D14*
X64770000Y-100838000D03*
D11*
X67310000Y-100838000D03*
X64770000Y-103378000D03*
X67310000Y-103378000D03*
X64770000Y-105918000D03*
X67310000Y-105918000D03*
X64770000Y-108458000D03*
X67310000Y-108458000D03*
D15*
X55292500Y-99695000D03*
X53292500Y-99695000D03*
X43672000Y-113474500D03*
X41672000Y-113474500D03*
X41894000Y-103124000D03*
X39894000Y-103124000D03*
D16*
X61214000Y-107839000D03*
X61214000Y-109839000D03*
X61214000Y-113649000D03*
X61214000Y-111649000D03*
X55562500Y-115490500D03*
X55562500Y-113490500D03*
D15*
X32655000Y-102044500D03*
X34655000Y-102044500D03*
D16*
X94869000Y-116983000D03*
X94869000Y-118983000D03*
D15*
X68818000Y-112331500D03*
X66818000Y-112331500D03*
X78787500Y-105092500D03*
X76787500Y-105092500D03*
X72787000Y-105092500D03*
X74787000Y-105092500D03*
D17*
X60833000Y-95758000D03*
D18*
X58293000Y-95758000D03*
X55753000Y-95758000D03*
X53213000Y-95758000D03*
D17*
X94869000Y-121412000D03*
D18*
X97409000Y-121412000D03*
X99949000Y-121412000D03*
D17*
X55372000Y-118110000D03*
D18*
X57912000Y-118110000D03*
X60452000Y-118110000D03*
X62992000Y-118110000D03*
D19*
X29845000Y-115760500D03*
D20*
X32385000Y-115760500D03*
D21*
X58928000Y-121412000D03*
X62611000Y-121412000D03*
D17*
X71120000Y-95758000D03*
D18*
X73660000Y-95758000D03*
X76200000Y-95758000D03*
X78740000Y-95758000D03*
X81280000Y-95758000D03*
X83820000Y-95758000D03*
X86360000Y-95758000D03*
X88900000Y-95758000D03*
D19*
X73596500Y-121412000D03*
D20*
X76136500Y-121412000D03*
D19*
X79819500Y-121412000D03*
D20*
X82359500Y-121412000D03*
D22*
X29845000Y-112268000D03*
D23*
X29845000Y-109728000D03*
X29845000Y-107188000D03*
X29845000Y-104648000D03*
D17*
X39370000Y-95758000D03*
D18*
X41910000Y-95758000D03*
X44450000Y-95758000D03*
X46990000Y-95758000D03*
D21*
X69977000Y-121412000D03*
X66294000Y-121412000D03*
D19*
X55245000Y-121412000D03*
D20*
X52705000Y-121412000D03*
D24*
X101615240Y-118044000D03*
X101615240Y-116144000D03*
X103614220Y-117094000D03*
X50358000Y-117236240D03*
X52258000Y-117236240D03*
X51308000Y-119235220D03*
X47056000Y-117236240D03*
X48956000Y-117236240D03*
X48006000Y-119235220D03*
X73517760Y-116969500D03*
X73517760Y-118869500D03*
X71518780Y-117919500D03*
X43754000Y-117236240D03*
X45654000Y-117236240D03*
X44704000Y-119235220D03*
X67675760Y-116969500D03*
X67675760Y-118869500D03*
X65676780Y-117919500D03*
X40452000Y-117236240D03*
X42352000Y-117236240D03*
X41402000Y-119235220D03*
D25*
X94615000Y-110937000D03*
X94615000Y-112837000D03*
X57277000Y-109921000D03*
X57277000Y-111821000D03*
D26*
X74737000Y-102870000D03*
X72837000Y-102870000D03*
D25*
X70675500Y-105852000D03*
X70675500Y-103952000D03*
D26*
X51374000Y-115570000D03*
X53274000Y-115570000D03*
D25*
X49466500Y-122425500D03*
X49466500Y-120525500D03*
D26*
X48326000Y-115570000D03*
X50226000Y-115570000D03*
D25*
X46291500Y-122425500D03*
X46291500Y-120525500D03*
X75374500Y-116969500D03*
X75374500Y-118869500D03*
D26*
X43749000Y-115570000D03*
X41849000Y-115570000D03*
D25*
X43116500Y-122425500D03*
X43116500Y-120525500D03*
X69532500Y-116969500D03*
X69532500Y-118869500D03*
X38481000Y-117287000D03*
X38481000Y-119187000D03*
X39941500Y-122425500D03*
X39941500Y-120525500D03*
D27*
X54976000Y-103438000D03*
X54976000Y-103938000D03*
X54976000Y-104438000D03*
X54976000Y-104938000D03*
X54976000Y-105438000D03*
X54976000Y-105938000D03*
X54976000Y-106438000D03*
X54976000Y-106938000D03*
X54976000Y-107438000D03*
X54976000Y-107938000D03*
X54976000Y-108438000D03*
X54976000Y-108938000D03*
X54976000Y-109438000D03*
X54976000Y-109938000D03*
X54976000Y-110438000D03*
X54976000Y-110938000D03*
D28*
X53026000Y-112888000D03*
X52526000Y-112888000D03*
X52026000Y-112888000D03*
X51526000Y-112888000D03*
X51026000Y-112888000D03*
X50526000Y-112888000D03*
X50026000Y-112888000D03*
X49526000Y-112888000D03*
X49026000Y-112888000D03*
X48526000Y-112888000D03*
X48026000Y-112888000D03*
X47526000Y-112888000D03*
X47026000Y-112888000D03*
X46526000Y-112888000D03*
X46026000Y-112888000D03*
X45526000Y-112888000D03*
D27*
X43576000Y-110938000D03*
X43576000Y-110438000D03*
X43576000Y-109938000D03*
X43576000Y-109438000D03*
X43576000Y-108938000D03*
X43576000Y-108438000D03*
X43576000Y-107938000D03*
X43576000Y-107438000D03*
X43576000Y-106938000D03*
X43576000Y-106438000D03*
X43576000Y-105938000D03*
X43576000Y-105438000D03*
X43576000Y-104938000D03*
X43576000Y-104438000D03*
X43576000Y-103938000D03*
X43576000Y-103438000D03*
D28*
X45526000Y-101488000D03*
X46026000Y-101488000D03*
X46526000Y-101488000D03*
X47026000Y-101488000D03*
X47526000Y-101488000D03*
X48026000Y-101488000D03*
X48526000Y-101488000D03*
X49026000Y-101488000D03*
X49526000Y-101488000D03*
X50026000Y-101488000D03*
X50526000Y-101488000D03*
X51026000Y-101488000D03*
X51526000Y-101488000D03*
X52026000Y-101488000D03*
X52526000Y-101488000D03*
X53026000Y-101488000D03*
D29*
X102428000Y-106088000D03*
X103378000Y-106088000D03*
X104328000Y-106088000D03*
X104328000Y-108288000D03*
X102428000Y-108288000D03*
X103378000Y-108288000D03*
X98359000Y-112987000D03*
X97409000Y-112987000D03*
X96459000Y-112987000D03*
X96459000Y-110787000D03*
X98359000Y-110787000D03*
D30*
X99779000Y-116144000D03*
X99779000Y-117094000D03*
X99779000Y-118044000D03*
X97579000Y-118044000D03*
X97579000Y-116144000D03*
D31*
X80137000Y-107569000D03*
X77597000Y-107569000D03*
X76327000Y-107569000D03*
X75057000Y-107569000D03*
X73787000Y-107569000D03*
X72517000Y-107569000D03*
X71247000Y-107569000D03*
X71247000Y-113919000D03*
X72517000Y-113919000D03*
X73787000Y-113919000D03*
X75057000Y-113919000D03*
X76327000Y-113919000D03*
X77597000Y-113919000D03*
X78867000Y-113919000D03*
X80137000Y-113919000D03*
X78867000Y-107569000D03*
D32*
X59182000Y-112930940D03*
X59182000Y-108049060D03*
D33*
X101307460Y-109688900D03*
X101307460Y-104688900D03*
D34*
X104007460Y-110688900D03*
X104007460Y-103688900D03*
D17*
X86106000Y-121412000D03*
D18*
X88646000Y-121412000D03*
X91186000Y-121412000D03*
D35*
X101670000Y-96012000D03*
X31675000Y-96218000D03*
X31675000Y-120218000D03*
X31675000Y-86944000D03*
X31675000Y-62944000D03*
X101670000Y-62738000D03*
D17*
X86106000Y-88138000D03*
D18*
X88646000Y-88138000D03*
X91186000Y-88138000D03*
D33*
X101307460Y-76414900D03*
X101307460Y-71414900D03*
D34*
X104007460Y-77414900D03*
X104007460Y-70414900D03*
D32*
X59182000Y-79656940D03*
X59182000Y-74775060D03*
D31*
X80137000Y-74295000D03*
X77597000Y-74295000D03*
X76327000Y-74295000D03*
X75057000Y-74295000D03*
X73787000Y-74295000D03*
X72517000Y-74295000D03*
X71247000Y-74295000D03*
X71247000Y-80645000D03*
X72517000Y-80645000D03*
X73787000Y-80645000D03*
X75057000Y-80645000D03*
X76327000Y-80645000D03*
X77597000Y-80645000D03*
X78867000Y-80645000D03*
X80137000Y-80645000D03*
X78867000Y-74295000D03*
D30*
X99779000Y-82870000D03*
X99779000Y-83820000D03*
X99779000Y-84770000D03*
X97579000Y-84770000D03*
X97579000Y-82870000D03*
D29*
X98359000Y-79713000D03*
X97409000Y-79713000D03*
X96459000Y-79713000D03*
X96459000Y-77513000D03*
X98359000Y-77513000D03*
X102428000Y-72814000D03*
X103378000Y-72814000D03*
X104328000Y-72814000D03*
X104328000Y-75014000D03*
X102428000Y-75014000D03*
X103378000Y-75014000D03*
D27*
X54976000Y-70164000D03*
X54976000Y-70664000D03*
X54976000Y-71164000D03*
X54976000Y-71664000D03*
X54976000Y-72164000D03*
X54976000Y-72664000D03*
X54976000Y-73164000D03*
X54976000Y-73664000D03*
X54976000Y-74164000D03*
X54976000Y-74664000D03*
X54976000Y-75164000D03*
X54976000Y-75664000D03*
X54976000Y-76164000D03*
X54976000Y-76664000D03*
X54976000Y-77164000D03*
X54976000Y-77664000D03*
D28*
X53026000Y-79614000D03*
X52526000Y-79614000D03*
X52026000Y-79614000D03*
X51526000Y-79614000D03*
X51026000Y-79614000D03*
X50526000Y-79614000D03*
X50026000Y-79614000D03*
X49526000Y-79614000D03*
X49026000Y-79614000D03*
X48526000Y-79614000D03*
X48026000Y-79614000D03*
X47526000Y-79614000D03*
X47026000Y-79614000D03*
X46526000Y-79614000D03*
X46026000Y-79614000D03*
X45526000Y-79614000D03*
D27*
X43576000Y-77664000D03*
X43576000Y-77164000D03*
X43576000Y-76664000D03*
X43576000Y-76164000D03*
X43576000Y-75664000D03*
X43576000Y-75164000D03*
X43576000Y-74664000D03*
X43576000Y-74164000D03*
X43576000Y-73664000D03*
X43576000Y-73164000D03*
X43576000Y-72664000D03*
X43576000Y-72164000D03*
X43576000Y-71664000D03*
X43576000Y-71164000D03*
X43576000Y-70664000D03*
X43576000Y-70164000D03*
D28*
X45526000Y-68214000D03*
X46026000Y-68214000D03*
X46526000Y-68214000D03*
X47026000Y-68214000D03*
X47526000Y-68214000D03*
X48026000Y-68214000D03*
X48526000Y-68214000D03*
X49026000Y-68214000D03*
X49526000Y-68214000D03*
X50026000Y-68214000D03*
X50526000Y-68214000D03*
X51026000Y-68214000D03*
X51526000Y-68214000D03*
X52026000Y-68214000D03*
X52526000Y-68214000D03*
X53026000Y-68214000D03*
D25*
X39941500Y-89151500D03*
X39941500Y-87251500D03*
X38481000Y-84013000D03*
X38481000Y-85913000D03*
X69532500Y-83695500D03*
X69532500Y-85595500D03*
X43116500Y-89151500D03*
X43116500Y-87251500D03*
D26*
X43749000Y-82296000D03*
X41849000Y-82296000D03*
D25*
X75374500Y-83695500D03*
X75374500Y-85595500D03*
X46291500Y-89151500D03*
X46291500Y-87251500D03*
D26*
X48326000Y-82296000D03*
X50226000Y-82296000D03*
D25*
X49466500Y-89151500D03*
X49466500Y-87251500D03*
D26*
X51374000Y-82296000D03*
X53274000Y-82296000D03*
D25*
X70675500Y-72578000D03*
X70675500Y-70678000D03*
D26*
X74737000Y-69596000D03*
X72837000Y-69596000D03*
D25*
X57277000Y-76647000D03*
X57277000Y-78547000D03*
X94615000Y-77663000D03*
X94615000Y-79563000D03*
D24*
X40452000Y-83962240D03*
X42352000Y-83962240D03*
X41402000Y-85961220D03*
X67675760Y-83695500D03*
X67675760Y-85595500D03*
X65676780Y-84645500D03*
X43754000Y-83962240D03*
X45654000Y-83962240D03*
X44704000Y-85961220D03*
X73517760Y-83695500D03*
X73517760Y-85595500D03*
X71518780Y-84645500D03*
X47056000Y-83962240D03*
X48956000Y-83962240D03*
X48006000Y-85961220D03*
X50358000Y-83962240D03*
X52258000Y-83962240D03*
X51308000Y-85961220D03*
X101615240Y-84770000D03*
X101615240Y-82870000D03*
X103614220Y-83820000D03*
D19*
X55245000Y-88138000D03*
D20*
X52705000Y-88138000D03*
D21*
X66294000Y-88138000D03*
X69977000Y-88138000D03*
D17*
X39370000Y-62484000D03*
D18*
X41910000Y-62484000D03*
X44450000Y-62484000D03*
X46990000Y-62484000D03*
D22*
X29845000Y-78994000D03*
D23*
X29845000Y-76454000D03*
X29845000Y-73914000D03*
X29845000Y-71374000D03*
D19*
X79819500Y-88138000D03*
D20*
X82359500Y-88138000D03*
D19*
X73596500Y-88138000D03*
D20*
X76136500Y-88138000D03*
D17*
X71120000Y-62484000D03*
D18*
X73660000Y-62484000D03*
X76200000Y-62484000D03*
X78740000Y-62484000D03*
X81280000Y-62484000D03*
X83820000Y-62484000D03*
X86360000Y-62484000D03*
X88900000Y-62484000D03*
D21*
X62611000Y-88138000D03*
X58928000Y-88138000D03*
D19*
X29845000Y-82486500D03*
D20*
X32385000Y-82486500D03*
D17*
X55372000Y-84836000D03*
D18*
X57912000Y-84836000D03*
X60452000Y-84836000D03*
X62992000Y-84836000D03*
D17*
X94869000Y-88138000D03*
D18*
X97409000Y-88138000D03*
X99949000Y-88138000D03*
D17*
X60833000Y-62484000D03*
D18*
X58293000Y-62484000D03*
X55753000Y-62484000D03*
X53213000Y-62484000D03*
D15*
X72787000Y-71818500D03*
X74787000Y-71818500D03*
X78787500Y-71818500D03*
X76787500Y-71818500D03*
X68818000Y-79057500D03*
X66818000Y-79057500D03*
D16*
X94869000Y-83709000D03*
X94869000Y-85709000D03*
D15*
X32655000Y-68770500D03*
X34655000Y-68770500D03*
D16*
X55562500Y-82216500D03*
X55562500Y-80216500D03*
X61214000Y-80375000D03*
X61214000Y-78375000D03*
X61214000Y-74565000D03*
X61214000Y-76565000D03*
D15*
X41894000Y-69850000D03*
X39894000Y-69850000D03*
X43672000Y-80200500D03*
X41672000Y-80200500D03*
X55292500Y-66421000D03*
X53292500Y-66421000D03*
D14*
X64770000Y-67564000D03*
D11*
X67310000Y-67564000D03*
X64770000Y-70104000D03*
X67310000Y-70104000D03*
X64770000Y-72644000D03*
X67310000Y-72644000D03*
X64770000Y-75184000D03*
X67310000Y-75184000D03*
D13*
X38265100Y-81604000D03*
X45961300Y-81604000D03*
D11*
X96520000Y-75184000D03*
X96520000Y-72644000D03*
X98518980Y-72644000D03*
X98518980Y-75184000D03*
D12*
X101219000Y-79913480D03*
X101219000Y-67914520D03*
D11*
X96520000Y-41402000D03*
X96520000Y-38862000D03*
X98518980Y-38862000D03*
X98518980Y-41402000D03*
D12*
X101219000Y-46131480D03*
X101219000Y-34132520D03*
D13*
X38265100Y-47822000D03*
X45961300Y-47822000D03*
D14*
X64770000Y-33782000D03*
D11*
X67310000Y-33782000D03*
X64770000Y-36322000D03*
X67310000Y-36322000D03*
X64770000Y-38862000D03*
X67310000Y-38862000D03*
X64770000Y-41402000D03*
X67310000Y-41402000D03*
D15*
X55292500Y-32639000D03*
X53292500Y-32639000D03*
X43672000Y-46418500D03*
X41672000Y-46418500D03*
X41894000Y-36068000D03*
X39894000Y-36068000D03*
D16*
X61214000Y-40783000D03*
X61214000Y-42783000D03*
X61214000Y-46593000D03*
X61214000Y-44593000D03*
X55562500Y-48434500D03*
X55562500Y-46434500D03*
D15*
X32655000Y-34988500D03*
X34655000Y-34988500D03*
D16*
X94869000Y-49927000D03*
X94869000Y-51927000D03*
D15*
X68818000Y-45275500D03*
X66818000Y-45275500D03*
X78787500Y-38036500D03*
X76787500Y-38036500D03*
X72787000Y-38036500D03*
X74787000Y-38036500D03*
D17*
X60833000Y-28702000D03*
D18*
X58293000Y-28702000D03*
X55753000Y-28702000D03*
X53213000Y-28702000D03*
D17*
X94869000Y-54356000D03*
D18*
X97409000Y-54356000D03*
X99949000Y-54356000D03*
D17*
X55372000Y-51054000D03*
D18*
X57912000Y-51054000D03*
X60452000Y-51054000D03*
X62992000Y-51054000D03*
D19*
X29845000Y-48704500D03*
D20*
X32385000Y-48704500D03*
D21*
X58928000Y-54356000D03*
X62611000Y-54356000D03*
D17*
X71120000Y-28702000D03*
D18*
X73660000Y-28702000D03*
X76200000Y-28702000D03*
X78740000Y-28702000D03*
X81280000Y-28702000D03*
X83820000Y-28702000D03*
X86360000Y-28702000D03*
X88900000Y-28702000D03*
D19*
X73596500Y-54356000D03*
D20*
X76136500Y-54356000D03*
D19*
X79819500Y-54356000D03*
D20*
X82359500Y-54356000D03*
D22*
X29845000Y-45212000D03*
D23*
X29845000Y-42672000D03*
X29845000Y-40132000D03*
X29845000Y-37592000D03*
D17*
X39370000Y-28702000D03*
D18*
X41910000Y-28702000D03*
X44450000Y-28702000D03*
X46990000Y-28702000D03*
D21*
X69977000Y-54356000D03*
X66294000Y-54356000D03*
D19*
X55245000Y-54356000D03*
D20*
X52705000Y-54356000D03*
D24*
X101615240Y-50988000D03*
X101615240Y-49088000D03*
X103614220Y-50038000D03*
X50358000Y-50180240D03*
X52258000Y-50180240D03*
X51308000Y-52179220D03*
X47056000Y-50180240D03*
X48956000Y-50180240D03*
X48006000Y-52179220D03*
X73517760Y-49913500D03*
X73517760Y-51813500D03*
X71518780Y-50863500D03*
X43754000Y-50180240D03*
X45654000Y-50180240D03*
X44704000Y-52179220D03*
X67675760Y-49913500D03*
X67675760Y-51813500D03*
X65676780Y-50863500D03*
X40452000Y-50180240D03*
X42352000Y-50180240D03*
X41402000Y-52179220D03*
D25*
X94615000Y-43881000D03*
X94615000Y-45781000D03*
X57277000Y-42865000D03*
X57277000Y-44765000D03*
D26*
X74737000Y-35814000D03*
X72837000Y-35814000D03*
D25*
X70675500Y-38796000D03*
X70675500Y-36896000D03*
D26*
X51374000Y-48514000D03*
X53274000Y-48514000D03*
D25*
X49466500Y-55369500D03*
X49466500Y-53469500D03*
D26*
X48326000Y-48514000D03*
X50226000Y-48514000D03*
D25*
X46291500Y-55369500D03*
X46291500Y-53469500D03*
X75374500Y-49913500D03*
X75374500Y-51813500D03*
D26*
X43749000Y-48514000D03*
X41849000Y-48514000D03*
D25*
X43116500Y-55369500D03*
X43116500Y-53469500D03*
X69532500Y-49913500D03*
X69532500Y-51813500D03*
X38481000Y-50231000D03*
X38481000Y-52131000D03*
X39941500Y-55369500D03*
X39941500Y-53469500D03*
D27*
X54976000Y-36382000D03*
X54976000Y-36882000D03*
X54976000Y-37382000D03*
X54976000Y-37882000D03*
X54976000Y-38382000D03*
X54976000Y-38882000D03*
X54976000Y-39382000D03*
X54976000Y-39882000D03*
X54976000Y-40382000D03*
X54976000Y-40882000D03*
X54976000Y-41382000D03*
X54976000Y-41882000D03*
X54976000Y-42382000D03*
X54976000Y-42882000D03*
X54976000Y-43382000D03*
X54976000Y-43882000D03*
D28*
X53026000Y-45832000D03*
X52526000Y-45832000D03*
X52026000Y-45832000D03*
X51526000Y-45832000D03*
X51026000Y-45832000D03*
X50526000Y-45832000D03*
X50026000Y-45832000D03*
X49526000Y-45832000D03*
X49026000Y-45832000D03*
X48526000Y-45832000D03*
X48026000Y-45832000D03*
X47526000Y-45832000D03*
X47026000Y-45832000D03*
X46526000Y-45832000D03*
X46026000Y-45832000D03*
X45526000Y-45832000D03*
D27*
X43576000Y-43882000D03*
X43576000Y-43382000D03*
X43576000Y-42882000D03*
X43576000Y-42382000D03*
X43576000Y-41882000D03*
X43576000Y-41382000D03*
X43576000Y-40882000D03*
X43576000Y-40382000D03*
X43576000Y-39882000D03*
X43576000Y-39382000D03*
X43576000Y-38882000D03*
X43576000Y-38382000D03*
X43576000Y-37882000D03*
X43576000Y-37382000D03*
X43576000Y-36882000D03*
X43576000Y-36382000D03*
D28*
X45526000Y-34432000D03*
X46026000Y-34432000D03*
X46526000Y-34432000D03*
X47026000Y-34432000D03*
X47526000Y-34432000D03*
X48026000Y-34432000D03*
X48526000Y-34432000D03*
X49026000Y-34432000D03*
X49526000Y-34432000D03*
X50026000Y-34432000D03*
X50526000Y-34432000D03*
X51026000Y-34432000D03*
X51526000Y-34432000D03*
X52026000Y-34432000D03*
X52526000Y-34432000D03*
X53026000Y-34432000D03*
D29*
X102428000Y-39032000D03*
X103378000Y-39032000D03*
X104328000Y-39032000D03*
X104328000Y-41232000D03*
X102428000Y-41232000D03*
X103378000Y-41232000D03*
X98359000Y-45931000D03*
X97409000Y-45931000D03*
X96459000Y-45931000D03*
X96459000Y-43731000D03*
X98359000Y-43731000D03*
D30*
X99779000Y-49088000D03*
X99779000Y-50038000D03*
X99779000Y-50988000D03*
X97579000Y-50988000D03*
X97579000Y-49088000D03*
D31*
X80137000Y-40513000D03*
X77597000Y-40513000D03*
X76327000Y-40513000D03*
X75057000Y-40513000D03*
X73787000Y-40513000D03*
X72517000Y-40513000D03*
X71247000Y-40513000D03*
X71247000Y-46863000D03*
X72517000Y-46863000D03*
X73787000Y-46863000D03*
X75057000Y-46863000D03*
X76327000Y-46863000D03*
X77597000Y-46863000D03*
X78867000Y-46863000D03*
X80137000Y-46863000D03*
X78867000Y-40513000D03*
D32*
X59182000Y-45874940D03*
X59182000Y-40993060D03*
D33*
X101307460Y-42632900D03*
X101307460Y-37632900D03*
D34*
X104007460Y-43632900D03*
X104007460Y-36632900D03*
D17*
X86106000Y-54356000D03*
D18*
X88646000Y-54356000D03*
X91186000Y-54356000D03*
D35*
X101670000Y-28956000D03*
X31675000Y-29162000D03*
X31675000Y-53162000D03*
M02*
