M48
;DRILL file {KiCad 4.0.4-stable} date Sun Nov  6 18:52:21 2016
;FORMAT={-:-/ absolute / metric / decimal}
FMAT,2
METRIC,TZ
T1C0.400
T2C0.500
T3C0.550
T4C0.762
T5C0.800
T6C0.813
T7C1.016
T8C2.000
T9C2.301
T10C3.048
%
G90
G05
M71
T1
X32.385Y-38.735
X32.385Y-72.517
X32.385Y-105.791
X33.909Y-36.83
X33.909Y-70.612
X33.909Y-103.886
X34.925Y-49.403
X34.925Y-83.185
X34.925Y-116.459
X34.989Y-39.497
X34.989Y-40.767
X34.989Y-42.227
X34.989Y-73.279
X34.989Y-74.549
X34.989Y-76.01
X34.989Y-106.553
X34.989Y-107.823
X34.989Y-109.283
X35.75Y-54.991
X35.75Y-88.773
X35.75Y-122.047
X36.703Y-39.624
X36.703Y-73.406
X36.703Y-106.68
X37.655Y-44.133
X37.655Y-77.914
X37.655Y-111.188
X38.227Y-42.037
X38.227Y-75.819
X38.227Y-109.093
X38.481Y-40.576
X38.481Y-74.358
X38.481Y-107.632
X39.243Y-40.132
X39.243Y-73.914
X39.243Y-107.188
X40.132Y-31.432
X40.132Y-65.215
X40.132Y-98.489
X40.322Y-38.544
X40.322Y-72.326
X40.322Y-105.6
X40.64Y-34.29
X40.64Y-68.072
X40.64Y-101.346
X40.894Y-40.894
X40.894Y-74.676
X40.894Y-107.95
X41.338Y-50.228
X41.338Y-84.01
X41.338Y-117.284
X41.91Y-41.974
X41.91Y-75.755
X41.91Y-109.029
X42.1Y-31.432
X42.1Y-65.215
X42.1Y-98.489
X42.672Y-46.355
X42.672Y-80.137
X42.672Y-113.411
X44.196Y-31.432
X44.196Y-65.215
X44.196Y-98.489
X45.212Y-41.084
X45.212Y-74.867
X45.212Y-108.14
X45.339Y-27.241
X45.339Y-61.023
X45.339Y-94.297
X46.482Y-33.274
X46.482Y-35.687
X46.482Y-67.056
X46.482Y-69.469
X46.482Y-100.33
X46.482Y-102.743
X47.371Y-37.846
X47.371Y-71.628
X47.371Y-104.902
X47.498Y-46.99
X47.498Y-80.772
X47.498Y-114.046
X47.879Y-36.322
X47.879Y-70.104
X47.879Y-103.378
X48.514Y-39.179
X48.514Y-72.962
X48.514Y-106.236
X48.578Y-39.941
X48.578Y-40.703
X48.578Y-73.724
X48.578Y-74.486
X48.578Y-106.997
X48.578Y-107.759
X48.641Y-35.496
X48.641Y-69.278
X48.641Y-102.552
X49.403Y-35.814
X49.403Y-69.596
X49.403Y-102.87
X49.847Y-40.64
X49.847Y-74.422
X49.847Y-107.696
X50.228Y-43.243
X50.228Y-77.025
X50.228Y-110.299
X50.419Y-36.195
X50.419Y-69.977
X50.419Y-103.251
X50.673Y-36.957
X50.673Y-70.739
X50.673Y-104.013
X50.8Y-40.576
X50.8Y-74.358
X50.8Y-107.632
X50.927Y-41.783
X50.927Y-43.878
X50.927Y-75.565
X50.927Y-77.66
X50.927Y-108.839
X50.927Y-110.934
X51.054Y-39.688
X51.054Y-73.469
X51.054Y-106.743
X51.498Y-33.147
X51.498Y-66.929
X51.498Y-100.203
X52.642Y-39.751
X52.642Y-73.533
X52.642Y-106.807
X52.705Y-40.513
X52.705Y-74.295
X52.705Y-107.569
X52.768Y-41.275
X52.768Y-75.057
X52.768Y-108.331
X53.086Y-41.974
X53.086Y-75.755
X53.086Y-109.029
X53.404Y-39.116
X53.404Y-72.898
X53.404Y-106.172
X53.467Y-42.672
X53.467Y-76.454
X53.467Y-109.728
X53.848Y-43.497
X53.848Y-77.279
X53.848Y-110.553
X53.911Y-42.037
X53.911Y-75.819
X53.911Y-109.093
X54.61Y-45.276
X54.61Y-79.057
X54.61Y-112.331
X55.816Y-34.734
X55.816Y-68.516
X55.816Y-101.79
X56.197Y-41.656
X56.197Y-75.438
X56.197Y-108.712
X56.388Y-33.084
X56.388Y-66.865
X56.388Y-100.139
X56.642Y-45.783
X56.642Y-79.566
X56.642Y-112.84
X57.213Y-32.067
X57.213Y-65.849
X57.213Y-99.123
X57.34Y-41.275
X57.34Y-75.057
X57.34Y-108.331
X57.594Y-42.037
X57.594Y-75.819
X57.594Y-109.093
X57.848Y-32.575
X57.848Y-66.358
X57.848Y-99.631
X57.975Y-45.783
X57.975Y-79.566
X57.975Y-112.84
X58.166Y-48.069
X58.166Y-81.852
X58.166Y-115.125
X58.42Y-35.56
X58.42Y-69.342
X58.42Y-102.616
X58.483Y-43.878
X58.483Y-77.66
X58.483Y-110.934
X59.055Y-37.211
X59.055Y-70.993
X59.055Y-104.267
X59.118Y-36.386
X59.118Y-70.167
X59.118Y-103.441
X59.372Y-37.973
X59.372Y-71.755
X59.372Y-105.029
X60.071Y-38.354
X60.071Y-72.136
X60.071Y-105.41
X60.134Y-40.132
X60.134Y-73.914
X60.134Y-107.188
X60.198Y-48.069
X60.198Y-81.852
X60.198Y-115.125
X61.112Y-36.373
X61.112Y-70.155
X61.112Y-103.429
X62.674Y-34.417
X62.674Y-68.199
X62.674Y-101.473
X63.627Y-42.481
X63.627Y-76.263
X63.627Y-109.537
X64.262Y-46.545
X64.262Y-80.328
X64.262Y-113.602
X64.834Y-44.514
X64.834Y-78.295
X64.834Y-111.569
X66.103Y-42.481
X66.103Y-76.263
X66.103Y-109.537
X68.008Y-46.672
X68.008Y-80.454
X68.008Y-113.728
X68.58Y-29.464
X68.58Y-63.246
X68.58Y-96.52
X68.834Y-27.622
X68.834Y-61.404
X68.834Y-94.678
X69.151Y-38.227
X69.151Y-72.009
X69.151Y-105.283
X69.393Y-34.747
X69.393Y-68.529
X69.393Y-101.803
X69.532Y-48.704
X69.532Y-82.486
X69.532Y-115.76
X69.977Y-41.465
X69.977Y-75.248
X69.977Y-108.521
X71.882Y-35.877
X71.882Y-69.659
X71.882Y-102.933
X73.787Y-42.227
X73.787Y-76.01
X73.787Y-109.283
X73.85Y-48.578
X73.85Y-82.359
X73.85Y-115.633
X76.327Y-48.069
X76.327Y-81.852
X76.327Y-115.125
X78.676Y-50.609
X78.676Y-84.391
X78.676Y-117.665
X78.803Y-35.369
X78.803Y-69.151
X78.803Y-102.425
X79.311Y-42.735
X79.311Y-44.831
X79.311Y-76.517
X79.311Y-78.613
X79.311Y-109.791
X79.311Y-111.887
X79.883Y-51.816
X79.883Y-85.598
X79.883Y-118.872
X79.947Y-30.162
X79.947Y-63.944
X79.947Y-97.218
X80.518Y-32.956
X80.518Y-66.739
X80.518Y-100.012
X80.772Y-37.973
X80.772Y-71.755
X80.772Y-105.029
X81.724Y-47.307
X81.724Y-81.09
X81.724Y-114.363
X81.991Y-41.605
X81.991Y-75.387
X81.991Y-108.661
X87.376Y-50.355
X87.376Y-84.138
X87.376Y-117.411
X89.154Y-49.593
X89.154Y-83.376
X89.154Y-116.649
X92.202Y-30.988
X92.202Y-64.77
X92.202Y-98.044
X93.281Y-51.625
X93.281Y-85.407
X93.281Y-118.681
X94.615Y-47.688
X94.615Y-81.471
X94.615Y-114.744
X95.758Y-42.672
X95.758Y-76.454
X95.758Y-109.728
X96.393Y-30.162
X96.393Y-63.944
X96.393Y-97.218
X96.456Y-36.005
X96.456Y-69.787
X96.456Y-103.06
X97.663Y-46.99
X97.663Y-80.772
X97.663Y-114.046
X98.298Y-27.749
X98.298Y-61.531
X98.298Y-94.805
X98.679Y-47.371
X98.679Y-81.153
X98.679Y-114.427
X99.06Y-32.004
X99.06Y-65.786
X99.06Y-99.06
X99.695Y-43.18
X99.695Y-76.962
X99.695Y-110.236
X101.155Y-52.705
X101.155Y-86.487
X101.155Y-119.761
X101.6Y-51.88
X101.6Y-85.661
X101.6Y-118.935
X102.298Y-37.973
X102.298Y-71.755
X102.298Y-105.029
X103.378Y-42.291
X103.378Y-76.073
X103.378Y-109.347
X104.267Y-40.132
X104.267Y-73.914
X104.267Y-107.188
X104.394Y-33.02
X104.394Y-66.802
X104.394Y-100.076
X104.457Y-37.846
X104.457Y-71.628
X104.457Y-104.902
T4
X64.77Y-33.782
X64.77Y-36.322
X64.77Y-38.862
X64.77Y-41.402
X64.77Y-67.564
X64.77Y-70.104
X64.77Y-72.644
X64.77Y-75.184
X64.77Y-100.838
X64.77Y-103.378
X64.77Y-105.918
X64.77Y-108.458
X67.31Y-33.782
X67.31Y-36.322
X67.31Y-38.862
X67.31Y-41.402
X67.31Y-67.564
X67.31Y-70.104
X67.31Y-72.644
X67.31Y-75.184
X67.31Y-100.838
X67.31Y-103.378
X67.31Y-105.918
X67.31Y-108.458
T5
X59.182Y-40.993
X59.182Y-45.875
X59.182Y-74.775
X59.182Y-79.657
X59.182Y-108.049
X59.182Y-112.931
T6
X96.52Y-38.862
X96.52Y-41.402
X96.52Y-72.644
X96.52Y-75.184
X96.52Y-105.918
X96.52Y-108.458
X98.519Y-38.862
X98.519Y-41.402
X98.519Y-72.644
X98.519Y-75.184
X98.519Y-105.918
X98.519Y-108.458
T7
X29.845Y-37.592
X29.845Y-40.132
X29.845Y-42.672
X29.845Y-45.212
X29.845Y-48.704
X29.845Y-71.374
X29.845Y-73.914
X29.845Y-76.454
X29.845Y-78.994
X29.845Y-82.486
X29.845Y-104.648
X29.845Y-107.188
X29.845Y-109.728
X29.845Y-112.268
X29.845Y-115.76
X32.385Y-48.704
X32.385Y-82.486
X32.385Y-115.76
X39.37Y-28.702
X39.37Y-62.484
X39.37Y-95.758
X41.91Y-28.702
X41.91Y-62.484
X41.91Y-95.758
X44.45Y-28.702
X44.45Y-62.484
X44.45Y-95.758
X46.99Y-28.702
X46.99Y-62.484
X46.99Y-95.758
X52.705Y-54.356
X52.705Y-88.138
X52.705Y-121.412
X53.213Y-28.702
X53.213Y-62.484
X53.213Y-95.758
X55.245Y-54.356
X55.245Y-88.138
X55.245Y-121.412
X55.372Y-51.054
X55.372Y-84.836
X55.372Y-118.11
X55.753Y-28.702
X55.753Y-62.484
X55.753Y-95.758
X57.912Y-51.054
X57.912Y-84.836
X57.912Y-118.11
X58.293Y-28.702
X58.293Y-62.484
X58.293Y-95.758
X58.928Y-54.356
X58.928Y-88.138
X58.928Y-121.412
X60.452Y-51.054
X60.452Y-84.836
X60.452Y-118.11
X60.833Y-28.702
X60.833Y-62.484
X60.833Y-95.758
X62.611Y-54.356
X62.611Y-88.138
X62.611Y-121.412
X62.992Y-51.054
X62.992Y-84.836
X62.992Y-118.11
X66.294Y-54.356
X66.294Y-88.138
X66.294Y-121.412
X69.977Y-54.356
X69.977Y-88.138
X69.977Y-121.412
X71.12Y-28.702
X71.12Y-62.484
X71.12Y-95.758
X73.596Y-54.356
X73.596Y-88.138
X73.596Y-121.412
X73.66Y-28.702
X73.66Y-62.484
X73.66Y-95.758
X76.136Y-54.356
X76.136Y-88.138
X76.136Y-121.412
X76.2Y-28.702
X76.2Y-62.484
X76.2Y-95.758
X78.74Y-28.702
X78.74Y-62.484
X78.74Y-95.758
X79.819Y-54.356
X79.819Y-88.138
X79.819Y-121.412
X81.28Y-28.702
X81.28Y-62.484
X81.28Y-95.758
X82.359Y-54.356
X82.359Y-88.138
X82.359Y-121.412
X83.82Y-28.702
X83.82Y-62.484
X83.82Y-95.758
X86.106Y-54.356
X86.106Y-88.138
X86.106Y-121.412
X86.36Y-28.702
X86.36Y-62.484
X86.36Y-95.758
X88.646Y-54.356
X88.646Y-88.138
X88.646Y-121.412
X88.9Y-28.702
X88.9Y-62.484
X88.9Y-95.758
X91.186Y-54.356
X91.186Y-88.138
X91.186Y-121.412
X94.869Y-54.356
X94.869Y-88.138
X94.869Y-121.412
X97.409Y-54.356
X97.409Y-88.138
X97.409Y-121.412
X99.949Y-54.356
X99.949Y-88.138
X99.949Y-121.412
T9
X101.219Y-34.133
X101.219Y-46.131
X101.219Y-67.915
X101.219Y-79.913
X101.219Y-101.189
X101.219Y-113.187
T10
X31.675Y-29.162
X31.675Y-53.162
X31.675Y-62.944
X31.675Y-86.944
X31.675Y-96.218
X31.675Y-120.218
X101.67Y-28.956
X101.67Y-62.738
X101.67Y-96.012
T2
X104.332Y-36.633G85X103.682Y-36.633
G05
X104.332Y-43.633G85X103.682Y-43.633
G05
X104.332Y-70.415G85X103.682Y-70.415
G05
X104.332Y-77.415G85X103.682Y-77.415
G05
X104.332Y-103.689G85X103.682Y-103.689
G05
X104.332Y-110.689G85X103.682Y-110.689
G05
T3
X101.307Y-37.783G85X101.307Y-37.483
G05
X101.307Y-42.783G85X101.307Y-42.483
G05
X101.307Y-71.565G85X101.307Y-71.265
G05
X101.307Y-76.565G85X101.307Y-76.265
G05
X101.307Y-104.839G85X101.307Y-104.539
G05
X101.307Y-109.839G85X101.307Y-109.539
G05
T8
X38.265Y-47.822G85X38.265Y-47.822
G05
X38.265Y-81.604G85X38.265Y-81.604
G05
X38.265Y-114.878G85X38.265Y-114.878
G05
X45.961Y-47.822G85X45.961Y-47.822
G05
X45.961Y-81.604G85X45.961Y-81.604
G05
X45.961Y-114.878G85X45.961Y-114.878
G05
T0
M30
