G04 #@! TF.FileFunction,Profile,NP*
%FSLAX46Y46*%
G04 Gerber Fmt 4.6, Leading zero omitted, Abs format (unit mm)*
G04 Created by KiCad (PCBNEW 4.0.4-stable) date Sun Nov  6 18:52:19 2016*
%MOMM*%
%LPD*%
G01*
G04 APERTURE LIST*
%ADD10C,0.100000*%
G04 APERTURE END LIST*
D10*
X68000000Y-89944000D02*
X68000000Y-93218000D01*
X64000000Y-89944000D02*
X64000000Y-93218000D01*
X68000000Y-93218000D02*
X105410000Y-93218000D01*
X68000000Y-56162000D02*
X68000000Y-59944000D01*
X64000000Y-56162000D02*
X64000000Y-59944000D01*
X68000000Y-59944000D02*
X105410000Y-59944000D01*
X105410000Y-93218000D02*
X105410000Y-123218000D01*
X27940000Y-123218000D02*
X105410000Y-123218000D01*
X27940000Y-93218000D02*
X27940000Y-123218000D01*
X27940000Y-93218000D02*
X64000000Y-93218000D01*
X27940000Y-59944000D02*
X64000000Y-59944000D01*
X27940000Y-59944000D02*
X27940000Y-89944000D01*
X27940000Y-89944000D02*
X64000000Y-89944000D01*
X105410000Y-59944000D02*
X105410000Y-89944000D01*
X68000000Y-89944000D02*
X105410000Y-89944000D01*
X68000000Y-56162000D02*
X105410000Y-56162000D01*
X105410000Y-26162000D02*
X105410000Y-56162000D01*
X27940000Y-56162000D02*
X64000000Y-56162000D01*
X27940000Y-26162000D02*
X27940000Y-56162000D01*
X27940000Y-26162000D02*
X105410000Y-26162000D01*
M02*
