M48
;DRILL file {KiCad 4.0.4-stable} date Tue Nov 29 23:57:47 2016
;FORMAT={-:-/ absolute / metric / decimal}
FMAT,2
METRIC,TZ
T1C0.300
T2C0.400
T3C0.599
T4C0.762
T5C0.800
T6C0.813
T7C1.016
T8C2.301
T9C2.500
T10C3.048
%
G90
G05
M71
T1
X52.642Y-56.578
X52.642Y-114.49
X52.768Y-38.291
X52.768Y-96.203
X54.038Y-50.101
X54.038Y-108.013
X54.483Y-45.466
X54.483Y-103.378
X56.515Y-59.563
X56.515Y-117.475
X57.15Y-38.417
X57.15Y-96.329
X57.467Y-35.115
X57.467Y-93.027
X58.229Y-38.417
X58.229Y-96.329
X58.801Y-59.563
X58.801Y-117.475
X59.372Y-54.102
X59.372Y-112.014
X59.69Y-49.53
X59.69Y-107.442
X59.753Y-44.767
X59.753Y-102.679
X61.023Y-46.609
X61.023Y-104.521
X62.039Y-38.417
X62.039Y-96.329
X62.293Y-28.448
X62.293Y-32.448
X62.293Y-86.36
X62.293Y-90.361
X63.817Y-46.609
X63.817Y-104.521
X65.024Y-47.561
X65.024Y-105.474
X65.532Y-45.847
X65.532Y-103.759
X66.739Y-38.989
X66.739Y-96.901
X68.263Y-38.227
X68.263Y-96.139
X68.389Y-43.815
X68.389Y-101.727
X68.58Y-28.258
X68.58Y-42.418
X68.58Y-86.169
X68.58Y-100.33
X68.644Y-50.419
X68.644Y-108.331
X70.548Y-30.607
X70.548Y-88.519
X71.31Y-31.623
X71.31Y-89.535
X71.691Y-58.547
X71.691Y-116.459
X71.945Y-32.194
X71.945Y-38.608
X71.945Y-90.106
X71.945Y-96.52
X72.009Y-32.893
X72.009Y-90.805
X73.66Y-35.623
X73.66Y-93.535
X73.787Y-60.134
X73.787Y-118.046
X73.914Y-29.083
X73.914Y-86.995
X74.358Y-28.258
X74.358Y-86.169
X75.629Y-34.989
X75.629Y-92.9
X76.136Y-34.48
X76.136Y-92.392
X76.644Y-29.464
X76.644Y-45.974
X76.644Y-87.376
X76.644Y-103.886
X77.153Y-41.275
X77.153Y-99.187
X77.216Y-38.608
X77.216Y-39.37
X77.216Y-96.52
X77.216Y-97.282
X77.66Y-33.846
X77.66Y-91.757
X77.851Y-60.325
X77.851Y-118.237
X78.041Y-45.974
X78.041Y-103.886
X78.359Y-58.166
X78.359Y-116.078
X78.867Y-39.941
X78.867Y-97.853
X78.93Y-29.4
X78.93Y-87.312
X79.057Y-45.974
X79.057Y-103.886
X79.248Y-37.91
X79.248Y-95.822
X79.311Y-45.339
X79.311Y-103.251
X79.629Y-39.941
X79.629Y-97.853
X79.756Y-45.91
X79.756Y-48.831
X79.756Y-103.822
X79.756Y-106.743
X79.883Y-38.481
X79.883Y-96.393
X79.947Y-35.052
X79.947Y-92.964
X80.264Y-45.339
X80.264Y-103.251
X80.391Y-63.691
X80.391Y-121.602
X80.835Y-38.417
X80.835Y-96.329
X81.28Y-30.607
X81.28Y-52.705
X81.28Y-88.519
X81.28Y-110.617
X82.359Y-33.337
X82.359Y-91.249
X82.55Y-64.135
X82.55Y-122.047
X83.629Y-53.213
X83.629Y-111.125
X84.391Y-28.829
X84.391Y-86.741
X85.407Y-43.752
X85.407Y-101.663
X85.534Y-41.656
X85.534Y-99.568
X86.042Y-36.195
X86.042Y-37.719
X86.042Y-94.107
X86.042Y-95.631
X86.804Y-59.753
X86.804Y-117.665
X86.931Y-51.308
X86.931Y-109.22
X87.058Y-49.276
X87.058Y-107.188
X87.312Y-40.894
X87.312Y-98.806
X87.82Y-55.118
X87.82Y-113.03
X89.852Y-61.912
X89.852Y-119.825
X91.376Y-49.212
X91.376Y-107.124
X91.44Y-32.956
X91.44Y-51.816
X91.44Y-90.868
X91.44Y-109.728
X92.011Y-55.562
X92.011Y-113.474
X92.202Y-32.956
X92.202Y-90.868
X92.964Y-32.956
X92.964Y-90.868
X93.281Y-64.135
X93.281Y-122.047
X93.345Y-58.229
X93.345Y-116.141
X94.17Y-28.956
X94.17Y-86.868
X94.615Y-36.131
X94.615Y-94.043
X94.996Y-32.893
X94.996Y-90.805
X95.123Y-37.401
X95.123Y-95.313
X95.694Y-36.131
X95.694Y-94.043
X96.139Y-51.308
X96.139Y-109.22
X96.647Y-40.005
X96.647Y-97.917
X97.409Y-40.767
X97.409Y-58.229
X97.409Y-98.679
X97.409Y-116.141
X98.552Y-63.436
X98.552Y-121.349
X99.822Y-46.418
X99.822Y-64.706
X99.822Y-104.331
X99.822Y-122.618
X101.219Y-51.625
X101.219Y-109.537
X101.79Y-28.892
X101.79Y-86.804
X102.044Y-39.116
X102.044Y-97.028
X102.235Y-34.861
X102.235Y-92.773
X103.251Y-63.182
X103.251Y-121.094
X103.441Y-34.798
X103.441Y-92.71
X103.759Y-56.896
X103.759Y-114.808
X106.045Y-34.671
X106.045Y-92.583
X106.997Y-28.702
X106.997Y-86.614
X107.061Y-34.671
X107.061Y-92.583
X108.966Y-36.639
X108.966Y-94.551
X109.41Y-28.702
X109.41Y-86.614
X109.855Y-34.608
X109.855Y-92.519
X112.204Y-28.194
X112.204Y-86.106
X113.665Y-35.814
X113.665Y-93.726
X115.316Y-36.512
X115.316Y-94.424
X119.062Y-31.432
X119.062Y-89.344
X119.189Y-35.115
X119.189Y-93.027
X124.841Y-37.084
X124.841Y-94.996
X127.889Y-35.306
X127.889Y-93.218
T2
X59.88Y-75.501
X60.896Y-77.025
X61.023Y-79.438
X62.039Y-78.422
X62.674Y-75.374
X63.817Y-74.358
X70.929Y-74.358
X71.945Y-76.898
X72.707Y-76.136
X73.596Y-72.2
X74.105Y-79.692
X75.882Y-75.248
X75.882Y-77.025
X76.136Y-76.263
X91.63Y-75.501
X92.646Y-77.025
X92.773Y-79.438
X93.789Y-78.422
X94.424Y-75.374
X95.567Y-74.358
X102.679Y-74.358
X103.695Y-76.898
X104.457Y-76.136
X105.346Y-72.2
X105.855Y-79.692
X107.632Y-75.248
X107.632Y-77.025
X107.886Y-76.263
X123.634Y-75.501
X124.65Y-77.025
X124.777Y-79.438
X125.793Y-78.422
X126.428Y-75.374
X127.572Y-74.358
X134.683Y-74.358
X134.81Y-40.322
X135.319Y-97.218
X135.7Y-76.898
X136.462Y-76.136
X136.969Y-42.989
X136.969Y-50.101
X137.35Y-72.2
X137.477Y-99.885
X137.477Y-106.997
X137.858Y-38.036
X137.858Y-79.692
X137.986Y-51.244
X138.112Y-54.038
X138.367Y-94.932
X138.493Y-108.14
X138.62Y-110.934
X138.748Y-41.212
X138.874Y-37.782
X139.255Y-98.108
X139.382Y-94.678
X139.51Y-41.974
X139.636Y-38.036
X139.636Y-53.023
X139.636Y-75.248
X139.636Y-77.025
X139.891Y-76.263
X140.017Y-98.87
X140.144Y-94.932
X140.144Y-109.918
X141.034Y-51.88
X141.541Y-108.775
X142.049Y-52.895
X142.303Y-39.814
X142.558Y-109.791
X142.811Y-96.71
T3
X80.594Y-53.721
X80.594Y-111.633
X82.093Y-53.721
X82.093Y-111.633
T4
X89.852Y-38.354
X89.852Y-40.894
X89.852Y-43.434
X89.852Y-45.974
X89.852Y-96.266
X89.852Y-98.806
X89.852Y-101.346
X89.852Y-103.886
X92.392Y-38.354
X92.392Y-40.894
X92.392Y-43.434
X92.392Y-45.974
X92.392Y-96.266
X92.392Y-98.806
X92.392Y-101.346
X92.392Y-103.886
T5
X64.96Y-36.167
X64.96Y-41.049
X64.96Y-94.079
X64.96Y-98.961
T6
X57.374Y-40.894
X57.374Y-43.434
X57.374Y-98.806
X57.374Y-101.346
X59.372Y-40.894
X59.372Y-43.434
X59.372Y-98.806
X59.372Y-101.346
T7
X58.229Y-73.469
X58.229Y-76.01
X58.229Y-78.549
X59.372Y-52.324
X59.372Y-56.896
X59.372Y-110.236
X59.372Y-114.808
X61.912Y-52.324
X61.912Y-56.896
X61.912Y-110.236
X61.912Y-114.808
X64.453Y-52.324
X64.453Y-110.236
X66.992Y-52.324
X66.992Y-110.236
X72.072Y-64.516
X72.072Y-122.428
X74.612Y-64.516
X74.612Y-122.428
X77.153Y-64.516
X77.153Y-122.428
X87.82Y-29.972
X87.82Y-87.884
X89.98Y-73.469
X89.98Y-76.01
X89.98Y-78.549
X90.361Y-29.972
X90.361Y-87.884
X92.9Y-29.972
X92.9Y-87.884
X95.441Y-29.972
X95.441Y-87.884
X97.98Y-29.972
X97.98Y-87.884
X100.52Y-29.972
X100.52Y-87.884
X103.06Y-29.972
X103.06Y-87.884
X105.6Y-29.972
X105.6Y-87.884
X108.14Y-29.972
X108.14Y-87.884
X110.68Y-29.972
X110.68Y-87.884
X121.983Y-73.469
X121.983Y-76.01
X121.983Y-78.549
X136.081Y-55.689
X136.588Y-112.585
X138.62Y-55.689
X139.129Y-112.585
X141.16Y-55.689
X141.668Y-112.585
T8
X54.673Y-36.165
X54.673Y-48.163
X54.673Y-94.077
X54.673Y-106.075
T9
X122.392Y-39.664
X122.392Y-44.664
X122.392Y-97.576
X122.392Y-102.576
X124.892Y-42.164
X124.892Y-100.076
X127.392Y-39.664
X127.392Y-44.664
X127.392Y-97.576
X127.392Y-102.576
T10
X65.642Y-29.924
X65.642Y-64.924
X65.642Y-87.836
X65.642Y-122.836
X115.642Y-29.924
X115.642Y-87.836
X115.887Y-64.389
X115.887Y-122.301
T0
M30
