G04 #@! TF.FileFunction,Soldermask,Top*
%FSLAX46Y46*%
G04 Gerber Fmt 4.6, Leading zero omitted, Abs format (unit mm)*
G04 Created by KiCad (PCBNEW 4.0.4-stable) date Wed Nov 30 00:07:26 2016*
%MOMM*%
%LPD*%
G01*
G04 APERTURE LIST*
%ADD10C,0.100000*%
%ADD11R,1.924000X3.400000*%
%ADD12R,1.700000X1.100000*%
%ADD13R,1.100000X1.700000*%
%ADD14R,1.400000X2.000000*%
%ADD15R,2.127200X2.432000*%
%ADD16O,2.127200X2.432000*%
%ADD17R,3.400000X1.924000*%
%ADD18R,2.000000X1.400000*%
%ADD19R,2.432000X2.127200*%
%ADD20O,2.432000X2.127200*%
%ADD21R,1.598880X2.099260*%
%ADD22R,1.997660X1.598880*%
%ADD23R,2.099260X1.598880*%
%ADD24R,1.598880X1.598880*%
%ADD25R,2.432000X2.432000*%
%ADD26O,2.432000X2.432000*%
%ADD27C,4.464000*%
%ADD28C,1.400760*%
%ADD29C,1.901140*%
%ADD30R,1.460000X1.050000*%
%ADD31R,1.200100X1.200100*%
%ADD32C,1.924000*%
%ADD33C,3.100020*%
%ADD34R,1.924000X1.924000*%
%ADD35C,3.400000*%
%ADD36R,1.060400X1.974800*%
%ADD37R,1.568400X2.584400*%
%ADD38R,2.630000X2.200000*%
%ADD39R,2.200000X2.630000*%
%ADD40R,1.400000X1.650000*%
G04 APERTURE END LIST*
D10*
D11*
X142176500Y-92265500D03*
X140144500Y-92265500D03*
X138112500Y-92265500D03*
X136080500Y-92265500D03*
X136080500Y-116395500D03*
X138112500Y-116395500D03*
X140144500Y-116395500D03*
X142176500Y-116395500D03*
D12*
X140906500Y-105280500D03*
X140906500Y-103380500D03*
X139128500Y-105280500D03*
X139128500Y-103380500D03*
D13*
X140840500Y-106870500D03*
X138940500Y-106870500D03*
D14*
X137592000Y-101433000D03*
X139192000Y-101433000D03*
X140792000Y-101433000D03*
X137592000Y-96433000D03*
X139192000Y-96433000D03*
X140792000Y-96433000D03*
D15*
X136588500Y-112585500D03*
D16*
X139128500Y-112585500D03*
X141668500Y-112585500D03*
D15*
X136080500Y-55689500D03*
D16*
X138620500Y-55689500D03*
X141160500Y-55689500D03*
D14*
X137084000Y-44537000D03*
X138684000Y-44537000D03*
X140284000Y-44537000D03*
X137084000Y-39537000D03*
X138684000Y-39537000D03*
X140284000Y-39537000D03*
D13*
X140332500Y-49974500D03*
X138432500Y-49974500D03*
D12*
X138620500Y-48384500D03*
X138620500Y-46484500D03*
X140398500Y-48384500D03*
X140398500Y-46484500D03*
D11*
X135572500Y-59499500D03*
X137604500Y-59499500D03*
X139636500Y-59499500D03*
X141668500Y-59499500D03*
X141668500Y-35369500D03*
X139636500Y-35369500D03*
X137604500Y-35369500D03*
X135572500Y-35369500D03*
D17*
X142303500Y-79057500D03*
X142303500Y-77025500D03*
X142303500Y-74993500D03*
X142303500Y-72961500D03*
X118173500Y-72961500D03*
X118173500Y-74993500D03*
X118173500Y-77025500D03*
X118173500Y-79057500D03*
D13*
X129288500Y-77787500D03*
X131188500Y-77787500D03*
X129288500Y-76009500D03*
X131188500Y-76009500D03*
D12*
X127698500Y-77721500D03*
X127698500Y-75821500D03*
D18*
X133136000Y-74473000D03*
X133136000Y-76073000D03*
X133136000Y-77673000D03*
X138136000Y-74473000D03*
X138136000Y-76073000D03*
X138136000Y-77673000D03*
D19*
X121983500Y-73469500D03*
D20*
X121983500Y-76009500D03*
X121983500Y-78549500D03*
D19*
X89979500Y-73469500D03*
D20*
X89979500Y-76009500D03*
X89979500Y-78549500D03*
D18*
X101132000Y-74473000D03*
X101132000Y-76073000D03*
X101132000Y-77673000D03*
X106132000Y-74473000D03*
X106132000Y-76073000D03*
X106132000Y-77673000D03*
D12*
X95694500Y-77721500D03*
X95694500Y-75821500D03*
D13*
X97284500Y-76009500D03*
X99184500Y-76009500D03*
X97284500Y-77787500D03*
X99184500Y-77787500D03*
D17*
X86169500Y-72961500D03*
X86169500Y-74993500D03*
X86169500Y-77025500D03*
X86169500Y-79057500D03*
X110299500Y-79057500D03*
X110299500Y-77025500D03*
X110299500Y-74993500D03*
X110299500Y-72961500D03*
D21*
X89679780Y-111419640D03*
X88178640Y-111419640D03*
X86680040Y-111419640D03*
X91178380Y-111419640D03*
X92679520Y-111419640D03*
X94178120Y-111419640D03*
X95679260Y-111419640D03*
X97177860Y-111419640D03*
X98679000Y-111419640D03*
X100180140Y-111419640D03*
X101678740Y-111419640D03*
X103179880Y-111419640D03*
X104678480Y-111419640D03*
D22*
X84983320Y-112669320D03*
D23*
X85029040Y-114173000D03*
X85029040Y-115671600D03*
X85029040Y-117170200D03*
X85029040Y-118668800D03*
X85029040Y-120167400D03*
X85029040Y-121666000D03*
D22*
X84980780Y-123164600D03*
D21*
X86680040Y-124419360D03*
X88178640Y-124419360D03*
X89682320Y-124419360D03*
X91178380Y-124419360D03*
X92679520Y-124419360D03*
X94178120Y-124419360D03*
X95679260Y-124419360D03*
X97177860Y-124419360D03*
X98679000Y-124419360D03*
X100180140Y-124419360D03*
X101678740Y-124419360D03*
X103179880Y-124419360D03*
X104678480Y-124419360D03*
D24*
X85852000Y-109189520D03*
X85852000Y-107091480D03*
X82583020Y-123380500D03*
X80484980Y-123380500D03*
D25*
X59372500Y-114808000D03*
D26*
X61912500Y-114808000D03*
D12*
X56324500Y-115758000D03*
X56324500Y-113858000D03*
D24*
X54038500Y-113758980D03*
X54038500Y-115857020D03*
D27*
X115887500Y-122301000D03*
X65642500Y-122836000D03*
X115642500Y-87836000D03*
X65642500Y-87836000D03*
D28*
X82092800Y-111633000D03*
X80594200Y-111633000D03*
D29*
X64960500Y-94079060D03*
X64960500Y-98960940D03*
D30*
X72791500Y-117409000D03*
X72791500Y-116459000D03*
X72791500Y-115509000D03*
X70591500Y-115509000D03*
X70591500Y-117409000D03*
D12*
X56324500Y-109286000D03*
X56324500Y-111186000D03*
X70167500Y-109662000D03*
X70167500Y-107762000D03*
X72453500Y-109662000D03*
X72453500Y-107762000D03*
X74739500Y-109662000D03*
X74739500Y-107762000D03*
X80835500Y-109662000D03*
X80835500Y-107762000D03*
X83121500Y-109662000D03*
X83121500Y-107762000D03*
D31*
X74691240Y-115509000D03*
X74691240Y-117409000D03*
X76690220Y-116459000D03*
D32*
X59372500Y-98806000D03*
X59372500Y-101346000D03*
X57373520Y-101346000D03*
X57373520Y-98806000D03*
D33*
X54673500Y-94076520D03*
X54673500Y-106075480D03*
D34*
X89852500Y-96266000D03*
D32*
X92392500Y-96266000D03*
X89852500Y-98806000D03*
X92392500Y-98806000D03*
X89852500Y-101346000D03*
X92392500Y-101346000D03*
X89852500Y-103886000D03*
X92392500Y-103886000D03*
D35*
X122392500Y-102576000D03*
X122392500Y-97576000D03*
X124892500Y-100076000D03*
X127392500Y-97576000D03*
X127392500Y-102576000D03*
D15*
X72072500Y-122428000D03*
D16*
X74612500Y-122428000D03*
X77152500Y-122428000D03*
D15*
X59372500Y-110236000D03*
D16*
X61912500Y-110236000D03*
X64452500Y-110236000D03*
X66992500Y-110236000D03*
D36*
X71437500Y-105156000D03*
X73647300Y-105156000D03*
X74739500Y-105156000D03*
X75831700Y-105156000D03*
X76949300Y-105156000D03*
X78041500Y-105156000D03*
X79133700Y-105156000D03*
X80251300Y-105156000D03*
X81343500Y-105156000D03*
X72565260Y-105156000D03*
D37*
X70040500Y-97282000D03*
X83502500Y-97282000D03*
D36*
X82435700Y-105156000D03*
D37*
X83682500Y-94256000D03*
X68332500Y-94256000D03*
X83682500Y-104056000D03*
X68332500Y-104056000D03*
D24*
X54038500Y-109313980D03*
X54038500Y-111412020D03*
D38*
X77787500Y-110934000D03*
X77787500Y-108014000D03*
D39*
X73977000Y-112458500D03*
X71057000Y-112458500D03*
D40*
X78787500Y-113411000D03*
X76787500Y-113411000D03*
D38*
X67373500Y-117728500D03*
X67373500Y-114808500D03*
D15*
X87820500Y-87884000D03*
D16*
X90360500Y-87884000D03*
X92900500Y-87884000D03*
X95440500Y-87884000D03*
X97980500Y-87884000D03*
X100520500Y-87884000D03*
X103060500Y-87884000D03*
X105600500Y-87884000D03*
X108140500Y-87884000D03*
X110680500Y-87884000D03*
D15*
X87820500Y-29972000D03*
D16*
X90360500Y-29972000D03*
X92900500Y-29972000D03*
X95440500Y-29972000D03*
X97980500Y-29972000D03*
X100520500Y-29972000D03*
X103060500Y-29972000D03*
X105600500Y-29972000D03*
X108140500Y-29972000D03*
X110680500Y-29972000D03*
D38*
X67373500Y-59816500D03*
X67373500Y-56896500D03*
D40*
X78787500Y-55499000D03*
X76787500Y-55499000D03*
D39*
X73977000Y-54546500D03*
X71057000Y-54546500D03*
D38*
X77787500Y-53022000D03*
X77787500Y-50102000D03*
D24*
X54038500Y-51401980D03*
X54038500Y-53500020D03*
D36*
X71437500Y-47244000D03*
X73647300Y-47244000D03*
X74739500Y-47244000D03*
X75831700Y-47244000D03*
X76949300Y-47244000D03*
X78041500Y-47244000D03*
X79133700Y-47244000D03*
X80251300Y-47244000D03*
X81343500Y-47244000D03*
X72565260Y-47244000D03*
D37*
X70040500Y-39370000D03*
X83502500Y-39370000D03*
D36*
X82435700Y-47244000D03*
D37*
X83682500Y-36344000D03*
X68332500Y-36344000D03*
X83682500Y-46144000D03*
X68332500Y-46144000D03*
D15*
X59372500Y-52324000D03*
D16*
X61912500Y-52324000D03*
X64452500Y-52324000D03*
X66992500Y-52324000D03*
D15*
X72072500Y-64516000D03*
D16*
X74612500Y-64516000D03*
X77152500Y-64516000D03*
D34*
X89852500Y-38354000D03*
D32*
X92392500Y-38354000D03*
X89852500Y-40894000D03*
X92392500Y-40894000D03*
X89852500Y-43434000D03*
X92392500Y-43434000D03*
X89852500Y-45974000D03*
X92392500Y-45974000D03*
D35*
X122392500Y-44664000D03*
X122392500Y-39664000D03*
X124892500Y-42164000D03*
X127392500Y-39664000D03*
X127392500Y-44664000D03*
D32*
X59372500Y-40894000D03*
X59372500Y-43434000D03*
X57373520Y-43434000D03*
X57373520Y-40894000D03*
D33*
X54673500Y-36164520D03*
X54673500Y-48163480D03*
D31*
X74691240Y-57597000D03*
X74691240Y-59497000D03*
X76690220Y-58547000D03*
D12*
X83121500Y-51750000D03*
X83121500Y-49850000D03*
X80835500Y-51750000D03*
X80835500Y-49850000D03*
X74739500Y-51750000D03*
X74739500Y-49850000D03*
X72453500Y-51750000D03*
X72453500Y-49850000D03*
X70167500Y-51750000D03*
X70167500Y-49850000D03*
X56324500Y-51374000D03*
X56324500Y-53274000D03*
D30*
X72791500Y-59497000D03*
X72791500Y-58547000D03*
X72791500Y-57597000D03*
X70591500Y-57597000D03*
X70591500Y-59497000D03*
D29*
X64960500Y-36167060D03*
X64960500Y-41048940D03*
D28*
X82092800Y-53721000D03*
X80594200Y-53721000D03*
D27*
X65642500Y-29924000D03*
X115642500Y-29924000D03*
X65642500Y-64924000D03*
X115887500Y-64389000D03*
D24*
X54038500Y-55846980D03*
X54038500Y-57945020D03*
D12*
X56324500Y-57846000D03*
X56324500Y-55946000D03*
D25*
X59372500Y-56896000D03*
D26*
X61912500Y-56896000D03*
D24*
X82583020Y-65468500D03*
X80484980Y-65468500D03*
X85852000Y-51277520D03*
X85852000Y-49179480D03*
D21*
X89679780Y-53507640D03*
X88178640Y-53507640D03*
X86680040Y-53507640D03*
X91178380Y-53507640D03*
X92679520Y-53507640D03*
X94178120Y-53507640D03*
X95679260Y-53507640D03*
X97177860Y-53507640D03*
X98679000Y-53507640D03*
X100180140Y-53507640D03*
X101678740Y-53507640D03*
X103179880Y-53507640D03*
X104678480Y-53507640D03*
D22*
X84983320Y-54757320D03*
D23*
X85029040Y-56261000D03*
X85029040Y-57759600D03*
X85029040Y-59258200D03*
X85029040Y-60756800D03*
X85029040Y-62255400D03*
X85029040Y-63754000D03*
D22*
X84980780Y-65252600D03*
D21*
X86680040Y-66507360D03*
X88178640Y-66507360D03*
X89682320Y-66507360D03*
X91178380Y-66507360D03*
X92679520Y-66507360D03*
X94178120Y-66507360D03*
X95679260Y-66507360D03*
X97177860Y-66507360D03*
X98679000Y-66507360D03*
X100180140Y-66507360D03*
X101678740Y-66507360D03*
X103179880Y-66507360D03*
X104678480Y-66507360D03*
D17*
X78549500Y-79057500D03*
X78549500Y-77025500D03*
X78549500Y-74993500D03*
X78549500Y-72961500D03*
X54419500Y-72961500D03*
X54419500Y-74993500D03*
X54419500Y-77025500D03*
X54419500Y-79057500D03*
D13*
X65534500Y-77787500D03*
X67434500Y-77787500D03*
X65534500Y-76009500D03*
X67434500Y-76009500D03*
D12*
X63944500Y-77721500D03*
X63944500Y-75821500D03*
D18*
X69382000Y-74473000D03*
X69382000Y-76073000D03*
X69382000Y-77673000D03*
X74382000Y-74473000D03*
X74382000Y-76073000D03*
X74382000Y-77673000D03*
D19*
X58229500Y-73469500D03*
D20*
X58229500Y-76009500D03*
X58229500Y-78549500D03*
M02*
