G04 (created by PCBNEW (2013-may-18)-stable) date Ср 27 май 2015 10:34:21*
%MOIN*%
G04 Gerber Fmt 3.4, Leading zero omitted, Abs format*
%FSLAX34Y34*%
G01*
G70*
G90*
G04 APERTURE LIST*
%ADD10C,0.00590551*%
%ADD11R,0.055X0.035*%
%ADD12R,0.035X0.055*%
%ADD13R,0.06X0.06*%
%ADD14C,0.06*%
%ADD15C,0.056*%
%ADD16C,0.052*%
%ADD17R,0.026X0.062*%
%ADD18R,0.046X0.086*%
G04 APERTURE END LIST*
G54D10*
G54D11*
X34921Y-19272D03*
X34921Y-18522D03*
X37165Y-19272D03*
X37165Y-18522D03*
X38031Y-19272D03*
X38031Y-18522D03*
X33031Y-19272D03*
X33031Y-18522D03*
X33976Y-19272D03*
X33976Y-18522D03*
G54D12*
X36437Y-19133D03*
X35687Y-19133D03*
G54D13*
X26287Y-18751D03*
G54D14*
X25287Y-18751D03*
X26287Y-19751D03*
X25287Y-19751D03*
X26287Y-20751D03*
X25287Y-20751D03*
X26287Y-21751D03*
X25287Y-21751D03*
X26287Y-22751D03*
X25287Y-22751D03*
X26287Y-23751D03*
X25287Y-23751D03*
X26287Y-24751D03*
X25287Y-24751D03*
X26287Y-25751D03*
X25287Y-25751D03*
X26287Y-26751D03*
X25287Y-26751D03*
X26287Y-27751D03*
X25287Y-27751D03*
G54D13*
X40759Y-27783D03*
G54D14*
X41759Y-27783D03*
X40759Y-26783D03*
X41759Y-26783D03*
X40759Y-25783D03*
X41759Y-25783D03*
X40759Y-24783D03*
X41759Y-24783D03*
X40759Y-23783D03*
X41759Y-23783D03*
X40759Y-22783D03*
X41759Y-22783D03*
X40759Y-21783D03*
X41759Y-21783D03*
X40759Y-20783D03*
X41759Y-20783D03*
X40759Y-19783D03*
X41759Y-19783D03*
X40759Y-18783D03*
X41759Y-18783D03*
G54D13*
X28188Y-25905D03*
G54D14*
X28976Y-25905D03*
X29763Y-25905D03*
X30551Y-25905D03*
G54D15*
X28763Y-22047D03*
X30763Y-22047D03*
G54D16*
X31220Y-19539D03*
X31220Y-20539D03*
G54D17*
X33289Y-20196D03*
X34159Y-20196D03*
X34589Y-20196D03*
X35019Y-20196D03*
X35459Y-20196D03*
X35889Y-20196D03*
X36319Y-20196D03*
X36759Y-20196D03*
X37189Y-20196D03*
X33733Y-20196D03*
G54D18*
X32739Y-23296D03*
X38039Y-23296D03*
M02*
