G04 (created by PCBNEW (2013-may-18)-stable) date Вс 15 ноя 2015 18:53:40*
%MOIN*%
G04 Gerber Fmt 3.4, Leading zero omitted, Abs format*
%FSLAX34Y34*%
G01*
G70*
G90*
G04 APERTURE LIST*
%ADD10C,0.00590551*%
%ADD11R,0.035X0.055*%
%ADD12R,0.055X0.035*%
%ADD13R,0.06X0.06*%
%ADD14C,0.06*%
%ADD15C,0.056*%
%ADD16R,0.0472X0.01*%
%ADD17R,0.01X0.0472*%
%ADD18C,0.0590551*%
G04 APERTURE END LIST*
G54D10*
G54D11*
X27934Y-18622D03*
X27184Y-18622D03*
X29506Y-20433D03*
X30256Y-20433D03*
X29506Y-19527D03*
X30256Y-19527D03*
G54D12*
X28740Y-20491D03*
X28740Y-21241D03*
G54D11*
X29506Y-21220D03*
X30256Y-21220D03*
G54D12*
X33031Y-20020D03*
X33031Y-19270D03*
G54D11*
X37656Y-24921D03*
X38406Y-24921D03*
X32184Y-24881D03*
X32934Y-24881D03*
G54D12*
X38582Y-20530D03*
X38582Y-21280D03*
G54D13*
X28188Y-25905D03*
G54D14*
X28976Y-25905D03*
X29763Y-25905D03*
X30551Y-25905D03*
G54D15*
X28763Y-22047D03*
X30763Y-22047D03*
G54D13*
X26287Y-18767D03*
G54D14*
X25287Y-18767D03*
X26287Y-19767D03*
X25287Y-19767D03*
X26287Y-20767D03*
X25287Y-20767D03*
X26287Y-21767D03*
X25287Y-21767D03*
X26287Y-22767D03*
X25287Y-22767D03*
X26287Y-23767D03*
X25287Y-23767D03*
X26287Y-24767D03*
X25287Y-24767D03*
X26287Y-25767D03*
X25287Y-25767D03*
X26287Y-26767D03*
X25287Y-26767D03*
X26287Y-27767D03*
X25287Y-27767D03*
G54D13*
X41287Y-27767D03*
G54D14*
X42287Y-27767D03*
X41287Y-26767D03*
X42287Y-26767D03*
X41287Y-25767D03*
X42287Y-25767D03*
X41287Y-24767D03*
X42287Y-24767D03*
X41287Y-23767D03*
X42287Y-23767D03*
X41287Y-22767D03*
X42287Y-22767D03*
X41287Y-21767D03*
X42287Y-21767D03*
X41287Y-20767D03*
X42287Y-20767D03*
X41287Y-19767D03*
X42287Y-19767D03*
X41287Y-18767D03*
X42287Y-18767D03*
G54D16*
X33031Y-21083D03*
X33031Y-21280D03*
X33031Y-21477D03*
X33031Y-21674D03*
X33031Y-21871D03*
X33031Y-22067D03*
X33031Y-22264D03*
X33031Y-22461D03*
X33031Y-22657D03*
X33031Y-22854D03*
X33031Y-23051D03*
X33031Y-23247D03*
X33031Y-23444D03*
X33031Y-23641D03*
X33031Y-23838D03*
X33031Y-24035D03*
G54D17*
X33799Y-24803D03*
X33996Y-24803D03*
X34193Y-24803D03*
X34390Y-24803D03*
X34587Y-24803D03*
X34783Y-24803D03*
X34980Y-24803D03*
X35177Y-24803D03*
X35373Y-24803D03*
X35570Y-24803D03*
X35767Y-24803D03*
X35963Y-24803D03*
X36160Y-24803D03*
X36357Y-24803D03*
X36554Y-24803D03*
X36751Y-24803D03*
G54D16*
X37519Y-24035D03*
X37519Y-23838D03*
X37519Y-23641D03*
X37519Y-23444D03*
X37519Y-23247D03*
X37519Y-23051D03*
X37519Y-22854D03*
X37519Y-22657D03*
X37519Y-22461D03*
X37519Y-22264D03*
X37519Y-22067D03*
X37519Y-21871D03*
X37519Y-21674D03*
X37519Y-21477D03*
X37519Y-21280D03*
X37519Y-21083D03*
G54D17*
X36751Y-20315D03*
X36554Y-20315D03*
X36357Y-20315D03*
X36160Y-20315D03*
X35963Y-20315D03*
X35767Y-20315D03*
X35570Y-20315D03*
X35373Y-20315D03*
X35177Y-20315D03*
X34980Y-20315D03*
X34783Y-20315D03*
X34587Y-20315D03*
X34390Y-20315D03*
X34193Y-20315D03*
X33996Y-20315D03*
X33799Y-20315D03*
G54D11*
X27184Y-19330D03*
X27934Y-19330D03*
G54D18*
X31181Y-19500D03*
M02*
