G04 (created by PCBNEW (2013-may-18)-stable) date Вс 15 ноя 2015 18:53:40*
%MOIN*%
G04 Gerber Fmt 3.4, Leading zero omitted, Abs format*
%FSLAX34Y34*%
G01*
G70*
G90*
G04 APERTURE LIST*
%ADD10C,0.00590551*%
%ADD11R,0.055X0.035*%
%ADD12R,0.035X0.055*%
%ADD13R,0.06X0.06*%
%ADD14C,0.06*%
%ADD15C,0.056*%
%ADD16R,0.026X0.062*%
%ADD17R,0.046X0.086*%
%ADD18C,0.0590551*%
G04 APERTURE END LIST*
G54D10*
G54D11*
X34921Y-19272D03*
X34921Y-18522D03*
X37165Y-19272D03*
X37165Y-18522D03*
X38031Y-19272D03*
X38031Y-18522D03*
X33031Y-19272D03*
X33031Y-18522D03*
X33976Y-19272D03*
X33976Y-18522D03*
G54D12*
X36437Y-19133D03*
X35687Y-19133D03*
G54D13*
X28188Y-25905D03*
G54D14*
X28976Y-25905D03*
X29763Y-25905D03*
X30551Y-25905D03*
G54D15*
X28763Y-22047D03*
X30763Y-22047D03*
G54D13*
X26287Y-18767D03*
G54D14*
X25287Y-18767D03*
X26287Y-19767D03*
X25287Y-19767D03*
X26287Y-20767D03*
X25287Y-20767D03*
X26287Y-21767D03*
X25287Y-21767D03*
X26287Y-22767D03*
X25287Y-22767D03*
X26287Y-23767D03*
X25287Y-23767D03*
X26287Y-24767D03*
X25287Y-24767D03*
X26287Y-25767D03*
X25287Y-25767D03*
X26287Y-26767D03*
X25287Y-26767D03*
X26287Y-27767D03*
X25287Y-27767D03*
G54D13*
X41287Y-27767D03*
G54D14*
X42287Y-27767D03*
X41287Y-26767D03*
X42287Y-26767D03*
X41287Y-25767D03*
X42287Y-25767D03*
X41287Y-24767D03*
X42287Y-24767D03*
X41287Y-23767D03*
X42287Y-23767D03*
X41287Y-22767D03*
X42287Y-22767D03*
X41287Y-21767D03*
X42287Y-21767D03*
X41287Y-20767D03*
X42287Y-20767D03*
X41287Y-19767D03*
X42287Y-19767D03*
X41287Y-18767D03*
X42287Y-18767D03*
G54D16*
X33289Y-20196D03*
X34159Y-20196D03*
X34589Y-20196D03*
X35019Y-20196D03*
X35459Y-20196D03*
X35889Y-20196D03*
X36319Y-20196D03*
X36759Y-20196D03*
X37189Y-20196D03*
X33733Y-20196D03*
G54D17*
X32739Y-23296D03*
X38039Y-23296D03*
G54D16*
X37619Y-20196D03*
G54D17*
X38110Y-24488D03*
X32066Y-24488D03*
X38110Y-20629D03*
X32066Y-20629D03*
G54D18*
X31181Y-19500D03*
X31181Y-20500D03*
M02*
