G04 (created by PCBNEW (2013-may-18)-stable) date Вс 15 ноя 2015 18:53:40*
%MOIN*%
G04 Gerber Fmt 3.4, Leading zero omitted, Abs format*
%FSLAX34Y34*%
G01*
G70*
G90*
G04 APERTURE LIST*
%ADD10C,0.00590551*%
%ADD11C,0.00984252*%
%ADD12C,0.0039*%
%ADD13C,0.0125*%
%ADD14C,0.0026*%
%ADD15C,0.006*%
%ADD16C,0.0043*%
%ADD17C,0.008*%
%ADD18C,0.012*%
%ADD19C,0.01*%
%ADD20C,0.0035*%
%ADD21C,0.002*%
G04 APERTURE END LIST*
G54D10*
G54D11*
X36469Y-22127D02*
X36469Y-21865D01*
X36469Y-21902D02*
X36451Y-21884D01*
X36413Y-21865D01*
X36357Y-21865D01*
X36319Y-21884D01*
X36301Y-21921D01*
X36301Y-22127D01*
X36301Y-21921D02*
X36282Y-21884D01*
X36244Y-21865D01*
X36188Y-21865D01*
X36151Y-21884D01*
X36132Y-21921D01*
X36132Y-22127D01*
X35944Y-22127D02*
X35944Y-21865D01*
X35944Y-21734D02*
X35963Y-21752D01*
X35944Y-21771D01*
X35926Y-21752D01*
X35944Y-21734D01*
X35944Y-21771D01*
X35588Y-22109D02*
X35626Y-22127D01*
X35701Y-22127D01*
X35738Y-22109D01*
X35757Y-22090D01*
X35776Y-22052D01*
X35776Y-21940D01*
X35757Y-21902D01*
X35738Y-21884D01*
X35701Y-21865D01*
X35626Y-21865D01*
X35588Y-21884D01*
X35419Y-22127D02*
X35419Y-21865D01*
X35419Y-21940D02*
X35401Y-21902D01*
X35382Y-21884D01*
X35344Y-21865D01*
X35307Y-21865D01*
X35119Y-22127D02*
X35157Y-22109D01*
X35176Y-22090D01*
X35194Y-22052D01*
X35194Y-21940D01*
X35176Y-21902D01*
X35157Y-21884D01*
X35119Y-21865D01*
X35063Y-21865D01*
X35026Y-21884D01*
X35007Y-21902D01*
X34988Y-21940D01*
X34988Y-22052D01*
X35007Y-22090D01*
X35026Y-22109D01*
X35063Y-22127D01*
X35119Y-22127D01*
X34838Y-22109D02*
X34782Y-22127D01*
X34688Y-22127D01*
X34651Y-22109D01*
X34632Y-22090D01*
X34613Y-22052D01*
X34613Y-22015D01*
X34632Y-21977D01*
X34651Y-21959D01*
X34688Y-21940D01*
X34763Y-21921D01*
X34801Y-21902D01*
X34820Y-21884D01*
X34838Y-21846D01*
X34838Y-21809D01*
X34820Y-21771D01*
X34801Y-21752D01*
X34763Y-21734D01*
X34670Y-21734D01*
X34613Y-21752D01*
X34445Y-22127D02*
X34445Y-21734D01*
X34351Y-21734D01*
X34295Y-21752D01*
X34257Y-21790D01*
X34238Y-21827D01*
X34220Y-21902D01*
X34220Y-21959D01*
X34238Y-22034D01*
X34257Y-22071D01*
X34295Y-22109D01*
X34351Y-22127D01*
X34445Y-22127D01*
X36310Y-22777D02*
X36535Y-22777D01*
X36422Y-22777D02*
X36422Y-22383D01*
X36460Y-22440D01*
X36497Y-22477D01*
X36535Y-22496D01*
X35935Y-22777D02*
X36160Y-22777D01*
X36047Y-22777D02*
X36047Y-22383D01*
X36085Y-22440D01*
X36122Y-22477D01*
X36160Y-22496D01*
X35785Y-22421D02*
X35766Y-22402D01*
X35729Y-22383D01*
X35635Y-22383D01*
X35598Y-22402D01*
X35579Y-22421D01*
X35560Y-22458D01*
X35560Y-22496D01*
X35579Y-22552D01*
X35804Y-22777D01*
X35560Y-22777D01*
X35391Y-22777D02*
X35391Y-22383D01*
X34923Y-22365D02*
X35260Y-22871D01*
X34679Y-22383D02*
X34679Y-22664D01*
X34698Y-22721D01*
X34735Y-22758D01*
X34791Y-22777D01*
X34829Y-22777D01*
X34491Y-22627D02*
X34191Y-22627D01*
X36469Y-23033D02*
X36244Y-23033D01*
X36357Y-23427D02*
X36357Y-23033D01*
X36113Y-23427D02*
X36113Y-23033D01*
X36019Y-23033D01*
X35963Y-23052D01*
X35926Y-23089D01*
X35907Y-23127D01*
X35888Y-23202D01*
X35888Y-23258D01*
X35907Y-23333D01*
X35926Y-23370D01*
X35963Y-23408D01*
X36019Y-23427D01*
X36113Y-23427D01*
X35738Y-23314D02*
X35551Y-23314D01*
X35776Y-23427D02*
X35644Y-23033D01*
X35513Y-23427D01*
X35157Y-23427D02*
X35288Y-23239D01*
X35382Y-23427D02*
X35382Y-23033D01*
X35232Y-23033D01*
X35194Y-23052D01*
X35176Y-23070D01*
X35157Y-23108D01*
X35157Y-23164D01*
X35176Y-23202D01*
X35194Y-23220D01*
X35232Y-23239D01*
X35382Y-23239D01*
X34988Y-23277D02*
X34688Y-23277D01*
X34276Y-23427D02*
X34407Y-23239D01*
X34501Y-23427D02*
X34501Y-23033D01*
X34351Y-23033D01*
X34313Y-23052D01*
X34295Y-23070D01*
X34276Y-23108D01*
X34276Y-23164D01*
X34295Y-23202D01*
X34313Y-23220D01*
X34351Y-23239D01*
X34501Y-23239D01*
X40513Y-20871D02*
X40119Y-20871D01*
X40401Y-21002D01*
X40119Y-21134D01*
X40513Y-21134D01*
X40476Y-21546D02*
X40494Y-21527D01*
X40513Y-21471D01*
X40513Y-21434D01*
X40494Y-21377D01*
X40457Y-21340D01*
X40419Y-21321D01*
X40344Y-21302D01*
X40288Y-21302D01*
X40213Y-21321D01*
X40176Y-21340D01*
X40138Y-21377D01*
X40119Y-21434D01*
X40119Y-21471D01*
X40138Y-21527D01*
X40157Y-21546D01*
X40119Y-21715D02*
X40438Y-21715D01*
X40476Y-21734D01*
X40494Y-21752D01*
X40513Y-21790D01*
X40513Y-21865D01*
X40494Y-21902D01*
X40476Y-21921D01*
X40438Y-21940D01*
X40119Y-21940D01*
X40494Y-22596D02*
X40513Y-22559D01*
X40513Y-22484D01*
X40494Y-22446D01*
X40476Y-22427D01*
X40438Y-22409D01*
X40326Y-22409D01*
X40288Y-22427D01*
X40269Y-22446D01*
X40251Y-22484D01*
X40251Y-22559D01*
X40269Y-22596D01*
X40513Y-22821D02*
X40494Y-22784D01*
X40476Y-22765D01*
X40438Y-22746D01*
X40326Y-22746D01*
X40288Y-22765D01*
X40269Y-22784D01*
X40251Y-22821D01*
X40251Y-22877D01*
X40269Y-22915D01*
X40288Y-22934D01*
X40326Y-22952D01*
X40438Y-22952D01*
X40476Y-22934D01*
X40494Y-22915D01*
X40513Y-22877D01*
X40513Y-22821D01*
X40251Y-23121D02*
X40513Y-23121D01*
X40288Y-23121D02*
X40269Y-23140D01*
X40251Y-23177D01*
X40251Y-23233D01*
X40269Y-23271D01*
X40307Y-23290D01*
X40513Y-23290D01*
X40251Y-23477D02*
X40513Y-23477D01*
X40288Y-23477D02*
X40269Y-23496D01*
X40251Y-23533D01*
X40251Y-23590D01*
X40269Y-23627D01*
X40307Y-23646D01*
X40513Y-23646D01*
X40494Y-23983D02*
X40513Y-23946D01*
X40513Y-23871D01*
X40494Y-23833D01*
X40457Y-23815D01*
X40307Y-23815D01*
X40269Y-23833D01*
X40251Y-23871D01*
X40251Y-23946D01*
X40269Y-23983D01*
X40307Y-24002D01*
X40344Y-24002D01*
X40382Y-23815D01*
X40494Y-24340D02*
X40513Y-24302D01*
X40513Y-24227D01*
X40494Y-24190D01*
X40476Y-24171D01*
X40438Y-24152D01*
X40326Y-24152D01*
X40288Y-24171D01*
X40269Y-24190D01*
X40251Y-24227D01*
X40251Y-24302D01*
X40269Y-24340D01*
X40251Y-24452D02*
X40251Y-24602D01*
X40119Y-24508D02*
X40457Y-24508D01*
X40494Y-24527D01*
X40513Y-24565D01*
X40513Y-24602D01*
X40513Y-24790D02*
X40494Y-24752D01*
X40476Y-24733D01*
X40438Y-24715D01*
X40326Y-24715D01*
X40288Y-24733D01*
X40269Y-24752D01*
X40251Y-24790D01*
X40251Y-24846D01*
X40269Y-24883D01*
X40288Y-24902D01*
X40326Y-24921D01*
X40438Y-24921D01*
X40476Y-24902D01*
X40494Y-24883D01*
X40513Y-24846D01*
X40513Y-24790D01*
X40513Y-25089D02*
X40251Y-25089D01*
X40326Y-25089D02*
X40288Y-25108D01*
X40269Y-25127D01*
X40251Y-25164D01*
X40251Y-25202D01*
X40157Y-25614D02*
X40138Y-25633D01*
X40119Y-25671D01*
X40119Y-25764D01*
X40138Y-25802D01*
X40157Y-25821D01*
X40194Y-25839D01*
X40232Y-25839D01*
X40288Y-25821D01*
X40513Y-25596D01*
X40513Y-25839D01*
X26927Y-25584D02*
X27320Y-25584D01*
X27039Y-25453D01*
X27320Y-25322D01*
X26927Y-25322D01*
X26964Y-24910D02*
X26946Y-24928D01*
X26927Y-24985D01*
X26927Y-25022D01*
X26946Y-25078D01*
X26983Y-25116D01*
X27020Y-25134D01*
X27095Y-25153D01*
X27152Y-25153D01*
X27227Y-25134D01*
X27264Y-25116D01*
X27302Y-25078D01*
X27320Y-25022D01*
X27320Y-24985D01*
X27302Y-24928D01*
X27283Y-24910D01*
X27320Y-24741D02*
X27002Y-24741D01*
X26964Y-24722D01*
X26946Y-24703D01*
X26927Y-24666D01*
X26927Y-24591D01*
X26946Y-24553D01*
X26964Y-24535D01*
X27002Y-24516D01*
X27320Y-24516D01*
X26946Y-23860D02*
X26927Y-23897D01*
X26927Y-23972D01*
X26946Y-24010D01*
X26964Y-24028D01*
X27002Y-24047D01*
X27114Y-24047D01*
X27152Y-24028D01*
X27170Y-24010D01*
X27189Y-23972D01*
X27189Y-23897D01*
X27170Y-23860D01*
X26927Y-23635D02*
X26946Y-23672D01*
X26964Y-23691D01*
X27002Y-23710D01*
X27114Y-23710D01*
X27152Y-23691D01*
X27170Y-23672D01*
X27189Y-23635D01*
X27189Y-23578D01*
X27170Y-23541D01*
X27152Y-23522D01*
X27114Y-23503D01*
X27002Y-23503D01*
X26964Y-23522D01*
X26946Y-23541D01*
X26927Y-23578D01*
X26927Y-23635D01*
X27189Y-23335D02*
X26927Y-23335D01*
X27152Y-23335D02*
X27170Y-23316D01*
X27189Y-23278D01*
X27189Y-23222D01*
X27170Y-23185D01*
X27133Y-23166D01*
X26927Y-23166D01*
X27189Y-22979D02*
X26927Y-22979D01*
X27152Y-22979D02*
X27170Y-22960D01*
X27189Y-22922D01*
X27189Y-22866D01*
X27170Y-22829D01*
X27133Y-22810D01*
X26927Y-22810D01*
X26946Y-22472D02*
X26927Y-22510D01*
X26927Y-22585D01*
X26946Y-22622D01*
X26983Y-22641D01*
X27133Y-22641D01*
X27170Y-22622D01*
X27189Y-22585D01*
X27189Y-22510D01*
X27170Y-22472D01*
X27133Y-22454D01*
X27095Y-22454D01*
X27058Y-22641D01*
X26946Y-22116D02*
X26927Y-22154D01*
X26927Y-22229D01*
X26946Y-22266D01*
X26964Y-22285D01*
X27002Y-22304D01*
X27114Y-22304D01*
X27152Y-22285D01*
X27170Y-22266D01*
X27189Y-22229D01*
X27189Y-22154D01*
X27170Y-22116D01*
X27189Y-22004D02*
X27189Y-21854D01*
X27320Y-21947D02*
X26983Y-21947D01*
X26946Y-21929D01*
X26927Y-21891D01*
X26927Y-21854D01*
X26927Y-21666D02*
X26946Y-21704D01*
X26964Y-21722D01*
X27002Y-21741D01*
X27114Y-21741D01*
X27152Y-21722D01*
X27170Y-21704D01*
X27189Y-21666D01*
X27189Y-21610D01*
X27170Y-21572D01*
X27152Y-21554D01*
X27114Y-21535D01*
X27002Y-21535D01*
X26964Y-21554D01*
X26946Y-21572D01*
X26927Y-21610D01*
X26927Y-21666D01*
X26927Y-21366D02*
X27189Y-21366D01*
X27114Y-21366D02*
X27152Y-21347D01*
X27170Y-21329D01*
X27189Y-21291D01*
X27189Y-21254D01*
X26927Y-20616D02*
X26927Y-20841D01*
X26927Y-20729D02*
X27320Y-20729D01*
X27264Y-20766D01*
X27227Y-20804D01*
X27208Y-20841D01*
X40513Y-18704D02*
X40513Y-18479D01*
X40513Y-18592D02*
X40119Y-18592D01*
X40176Y-18554D01*
X40213Y-18517D01*
X40232Y-18479D01*
X40513Y-18892D02*
X40513Y-18967D01*
X40494Y-19004D01*
X40476Y-19023D01*
X40419Y-19060D01*
X40344Y-19079D01*
X40194Y-19079D01*
X40157Y-19060D01*
X40138Y-19041D01*
X40119Y-19004D01*
X40119Y-18929D01*
X40138Y-18892D01*
X40157Y-18873D01*
X40194Y-18854D01*
X40288Y-18854D01*
X40326Y-18873D01*
X40344Y-18892D01*
X40363Y-18929D01*
X40363Y-19004D01*
X40344Y-19041D01*
X40326Y-19060D01*
X40288Y-19079D01*
X40513Y-27947D02*
X40513Y-27722D01*
X40513Y-27834D02*
X40119Y-27834D01*
X40176Y-27797D01*
X40213Y-27759D01*
X40232Y-27722D01*
X26927Y-27830D02*
X26927Y-28055D01*
X26927Y-27943D02*
X27320Y-27943D01*
X27264Y-27980D01*
X27227Y-28018D01*
X27208Y-28055D01*
X26927Y-27643D02*
X26927Y-27568D01*
X26946Y-27530D01*
X26964Y-27512D01*
X27020Y-27474D01*
X27095Y-27455D01*
X27245Y-27455D01*
X27283Y-27474D01*
X27302Y-27493D01*
X27320Y-27530D01*
X27320Y-27605D01*
X27302Y-27643D01*
X27283Y-27662D01*
X27245Y-27680D01*
X27152Y-27680D01*
X27114Y-27662D01*
X27095Y-27643D01*
X27077Y-27605D01*
X27077Y-27530D01*
X27095Y-27493D01*
X27114Y-27474D01*
X27152Y-27455D01*
X26927Y-18627D02*
X26927Y-18852D01*
X26927Y-18740D02*
X27320Y-18740D01*
X27264Y-18777D01*
X27227Y-18815D01*
X27208Y-18852D01*
X37862Y-27484D02*
X37881Y-27502D01*
X37937Y-27521D01*
X37975Y-27521D01*
X38031Y-27502D01*
X38068Y-27465D01*
X38087Y-27427D01*
X38106Y-27352D01*
X38106Y-27296D01*
X38087Y-27221D01*
X38068Y-27184D01*
X38031Y-27146D01*
X37975Y-27127D01*
X37937Y-27127D01*
X37881Y-27146D01*
X37862Y-27165D01*
X37525Y-27521D02*
X37525Y-27315D01*
X37544Y-27277D01*
X37581Y-27259D01*
X37656Y-27259D01*
X37694Y-27277D01*
X37525Y-27502D02*
X37562Y-27521D01*
X37656Y-27521D01*
X37694Y-27502D01*
X37712Y-27465D01*
X37712Y-27427D01*
X37694Y-27390D01*
X37656Y-27371D01*
X37562Y-27371D01*
X37525Y-27352D01*
X37169Y-27259D02*
X37169Y-27521D01*
X37337Y-27259D02*
X37337Y-27465D01*
X37319Y-27502D01*
X37281Y-27521D01*
X37225Y-27521D01*
X37187Y-27502D01*
X37169Y-27484D01*
X37000Y-27502D02*
X36962Y-27521D01*
X36887Y-27521D01*
X36850Y-27502D01*
X36831Y-27465D01*
X36831Y-27446D01*
X36850Y-27409D01*
X36887Y-27390D01*
X36944Y-27390D01*
X36981Y-27371D01*
X37000Y-27334D01*
X37000Y-27315D01*
X36981Y-27277D01*
X36944Y-27259D01*
X36887Y-27259D01*
X36850Y-27277D01*
X36719Y-27259D02*
X36569Y-27259D01*
X36662Y-27127D02*
X36662Y-27465D01*
X36644Y-27502D01*
X36606Y-27521D01*
X36569Y-27521D01*
X36437Y-27521D02*
X36437Y-27259D01*
X36437Y-27127D02*
X36456Y-27146D01*
X36437Y-27165D01*
X36419Y-27146D01*
X36437Y-27127D01*
X36437Y-27165D01*
X36081Y-27502D02*
X36119Y-27521D01*
X36194Y-27521D01*
X36231Y-27502D01*
X36250Y-27484D01*
X36269Y-27446D01*
X36269Y-27334D01*
X36250Y-27296D01*
X36231Y-27277D01*
X36194Y-27259D01*
X36119Y-27259D01*
X36081Y-27277D01*
X35425Y-27521D02*
X35613Y-27521D01*
X35613Y-27127D01*
X35350Y-27127D02*
X35125Y-27127D01*
X35238Y-27521D02*
X35238Y-27127D01*
X34713Y-27502D02*
X34675Y-27521D01*
X34600Y-27521D01*
X34563Y-27502D01*
X34544Y-27465D01*
X34544Y-27446D01*
X34563Y-27409D01*
X34600Y-27390D01*
X34656Y-27390D01*
X34694Y-27371D01*
X34713Y-27334D01*
X34713Y-27315D01*
X34694Y-27277D01*
X34656Y-27259D01*
X34600Y-27259D01*
X34563Y-27277D01*
X34413Y-27259D02*
X34319Y-27521D01*
X34225Y-27259D02*
X34319Y-27521D01*
X34356Y-27615D01*
X34375Y-27634D01*
X34413Y-27652D01*
X34094Y-27502D02*
X34056Y-27521D01*
X33982Y-27521D01*
X33944Y-27502D01*
X33925Y-27465D01*
X33925Y-27446D01*
X33944Y-27409D01*
X33982Y-27390D01*
X34038Y-27390D01*
X34075Y-27371D01*
X34094Y-27334D01*
X34094Y-27315D01*
X34075Y-27277D01*
X34038Y-27259D01*
X33982Y-27259D01*
X33944Y-27277D01*
X33813Y-27259D02*
X33663Y-27259D01*
X33757Y-27127D02*
X33757Y-27465D01*
X33738Y-27502D01*
X33700Y-27521D01*
X33663Y-27521D01*
X33382Y-27502D02*
X33419Y-27521D01*
X33494Y-27521D01*
X33532Y-27502D01*
X33550Y-27465D01*
X33550Y-27315D01*
X33532Y-27277D01*
X33494Y-27259D01*
X33419Y-27259D01*
X33382Y-27277D01*
X33363Y-27315D01*
X33363Y-27352D01*
X33550Y-27390D01*
X33194Y-27521D02*
X33194Y-27259D01*
X33194Y-27296D02*
X33175Y-27277D01*
X33138Y-27259D01*
X33082Y-27259D01*
X33044Y-27277D01*
X33025Y-27315D01*
X33025Y-27521D01*
X33025Y-27315D02*
X33007Y-27277D01*
X32969Y-27259D01*
X32913Y-27259D01*
X32875Y-27277D01*
X32857Y-27315D01*
X32857Y-27521D01*
X37769Y-28171D02*
X37769Y-27777D01*
X37637Y-28058D01*
X37506Y-27777D01*
X37506Y-28171D01*
X37094Y-28133D02*
X37112Y-28152D01*
X37169Y-28171D01*
X37206Y-28171D01*
X37262Y-28152D01*
X37300Y-28114D01*
X37319Y-28077D01*
X37337Y-28002D01*
X37337Y-27946D01*
X37319Y-27871D01*
X37300Y-27833D01*
X37262Y-27796D01*
X37206Y-27777D01*
X37169Y-27777D01*
X37112Y-27796D01*
X37094Y-27814D01*
X36925Y-27777D02*
X36925Y-28096D01*
X36906Y-28133D01*
X36887Y-28152D01*
X36850Y-28171D01*
X36775Y-28171D01*
X36737Y-28152D01*
X36719Y-28133D01*
X36700Y-28096D01*
X36700Y-27777D01*
X36212Y-28171D02*
X36212Y-27777D01*
X36212Y-27927D02*
X36175Y-27908D01*
X36100Y-27908D01*
X36062Y-27927D01*
X36044Y-27946D01*
X36025Y-27983D01*
X36025Y-28096D01*
X36044Y-28133D01*
X36062Y-28152D01*
X36100Y-28171D01*
X36175Y-28171D01*
X36212Y-28152D01*
X35800Y-28171D02*
X35838Y-28152D01*
X35856Y-28133D01*
X35875Y-28096D01*
X35875Y-27983D01*
X35856Y-27946D01*
X35838Y-27927D01*
X35800Y-27908D01*
X35744Y-27908D01*
X35706Y-27927D01*
X35688Y-27946D01*
X35669Y-27983D01*
X35669Y-28096D01*
X35688Y-28133D01*
X35706Y-28152D01*
X35744Y-28171D01*
X35800Y-28171D01*
X35331Y-28171D02*
X35331Y-27964D01*
X35350Y-27927D01*
X35388Y-27908D01*
X35463Y-27908D01*
X35500Y-27927D01*
X35331Y-28152D02*
X35369Y-28171D01*
X35463Y-28171D01*
X35500Y-28152D01*
X35519Y-28114D01*
X35519Y-28077D01*
X35500Y-28039D01*
X35463Y-28021D01*
X35369Y-28021D01*
X35331Y-28002D01*
X35144Y-28171D02*
X35144Y-27908D01*
X35144Y-27983D02*
X35125Y-27946D01*
X35106Y-27927D01*
X35069Y-27908D01*
X35031Y-27908D01*
X34731Y-28171D02*
X34731Y-27777D01*
X34731Y-28152D02*
X34769Y-28171D01*
X34844Y-28171D01*
X34881Y-28152D01*
X34900Y-28133D01*
X34919Y-28096D01*
X34919Y-27983D01*
X34900Y-27946D01*
X34881Y-27927D01*
X34844Y-27908D01*
X34769Y-27908D01*
X34731Y-27927D01*
X34244Y-28171D02*
X34244Y-27908D01*
X34244Y-27983D02*
X34225Y-27946D01*
X34206Y-27927D01*
X34169Y-27908D01*
X34131Y-27908D01*
X33850Y-28152D02*
X33888Y-28171D01*
X33963Y-28171D01*
X34000Y-28152D01*
X34019Y-28114D01*
X34019Y-27964D01*
X34000Y-27927D01*
X33963Y-27908D01*
X33888Y-27908D01*
X33850Y-27927D01*
X33832Y-27964D01*
X33832Y-28002D01*
X34019Y-28039D01*
X33700Y-27908D02*
X33607Y-28171D01*
X33513Y-27908D01*
X33400Y-27777D02*
X33157Y-27777D01*
X33288Y-27927D01*
X33232Y-27927D01*
X33194Y-27946D01*
X33175Y-27964D01*
X33157Y-28002D01*
X33157Y-28096D01*
X33175Y-28133D01*
X33194Y-28152D01*
X33232Y-28171D01*
X33344Y-28171D01*
X33382Y-28152D01*
X33400Y-28133D01*
G54D12*
X34671Y-19547D02*
G75*
G03X34671Y-19547I-50J0D01*
G74*
G01*
X34621Y-19097D02*
X34621Y-19497D01*
X34621Y-19497D02*
X35221Y-19497D01*
X35221Y-19497D02*
X35221Y-19097D01*
X35221Y-18697D02*
X35221Y-18297D01*
X35221Y-18297D02*
X34621Y-18297D01*
X34621Y-18297D02*
X34621Y-18697D01*
X36915Y-19547D02*
G75*
G03X36915Y-19547I-50J0D01*
G74*
G01*
X36865Y-19097D02*
X36865Y-19497D01*
X36865Y-19497D02*
X37465Y-19497D01*
X37465Y-19497D02*
X37465Y-19097D01*
X37465Y-18697D02*
X37465Y-18297D01*
X37465Y-18297D02*
X36865Y-18297D01*
X36865Y-18297D02*
X36865Y-18697D01*
X37781Y-19547D02*
G75*
G03X37781Y-19547I-50J0D01*
G74*
G01*
X37731Y-19097D02*
X37731Y-19497D01*
X37731Y-19497D02*
X38331Y-19497D01*
X38331Y-19497D02*
X38331Y-19097D01*
X38331Y-18697D02*
X38331Y-18297D01*
X38331Y-18297D02*
X37731Y-18297D01*
X37731Y-18297D02*
X37731Y-18697D01*
X32781Y-19547D02*
G75*
G03X32781Y-19547I-50J0D01*
G74*
G01*
X32731Y-19097D02*
X32731Y-19497D01*
X32731Y-19497D02*
X33331Y-19497D01*
X33331Y-19497D02*
X33331Y-19097D01*
X33331Y-18697D02*
X33331Y-18297D01*
X33331Y-18297D02*
X32731Y-18297D01*
X32731Y-18297D02*
X32731Y-18697D01*
X33726Y-19547D02*
G75*
G03X33726Y-19547I-50J0D01*
G74*
G01*
X33676Y-19097D02*
X33676Y-19497D01*
X33676Y-19497D02*
X34276Y-19497D01*
X34276Y-19497D02*
X34276Y-19097D01*
X34276Y-18697D02*
X34276Y-18297D01*
X34276Y-18297D02*
X33676Y-18297D01*
X33676Y-18297D02*
X33676Y-18697D01*
X36762Y-19433D02*
G75*
G03X36762Y-19433I-50J0D01*
G74*
G01*
X36262Y-19433D02*
X36662Y-19433D01*
X36662Y-19433D02*
X36662Y-18833D01*
X36662Y-18833D02*
X36262Y-18833D01*
X35862Y-18833D02*
X35462Y-18833D01*
X35462Y-18833D02*
X35462Y-19433D01*
X35462Y-19433D02*
X35862Y-19433D01*
G54D10*
X27401Y-25118D02*
X31338Y-25118D01*
X31338Y-25118D02*
X31338Y-28267D01*
X31338Y-28267D02*
X27401Y-28267D01*
X27401Y-25118D02*
X27401Y-28267D01*
G54D13*
X28513Y-21047D02*
X31013Y-21047D01*
X28513Y-23047D02*
X31013Y-23047D01*
X32013Y-22047D02*
G75*
G02X31013Y-23047I-1000J0D01*
G74*
G01*
X31013Y-21047D02*
G75*
G02X32013Y-22047I0J-1000D01*
G74*
G01*
X28513Y-23047D02*
G75*
G02X27513Y-22047I0J1000D01*
G74*
G01*
X27513Y-22047D02*
G75*
G02X28513Y-21047I1000J0D01*
G74*
G01*
G54D10*
X24763Y-18228D02*
X24763Y-28307D01*
X24763Y-28307D02*
X26811Y-28307D01*
X26811Y-28307D02*
X26811Y-18228D01*
X26811Y-18228D02*
X24763Y-18228D01*
X42811Y-28307D02*
X42811Y-18228D01*
X42811Y-18228D02*
X40763Y-18228D01*
X40763Y-18228D02*
X40763Y-28307D01*
X40763Y-28307D02*
X42811Y-28307D01*
X37834Y-23956D02*
X37834Y-23818D01*
X37834Y-26633D02*
X37834Y-25019D01*
X37834Y-21161D02*
X37834Y-22775D01*
X37834Y-19901D02*
X37834Y-20098D01*
X32362Y-19744D02*
X32362Y-26653D01*
X37834Y-26633D02*
X37834Y-26653D01*
X37834Y-26653D02*
X32381Y-26653D01*
X33956Y-19744D02*
X32362Y-19744D01*
X33051Y-26161D02*
X37716Y-26161D01*
X37716Y-26161D02*
X37716Y-22933D01*
X33051Y-20649D02*
X33051Y-26161D01*
X37716Y-22933D02*
X37716Y-20649D01*
X37716Y-20649D02*
X37401Y-20649D01*
X37401Y-20452D02*
X37401Y-20649D01*
X37401Y-20649D02*
X33051Y-20649D01*
X33051Y-20649D02*
X33051Y-20452D01*
X33956Y-19901D02*
X33956Y-19744D01*
X33956Y-19744D02*
X37834Y-19744D01*
X37834Y-19744D02*
X37834Y-19901D01*
G54D14*
X30781Y-20120D02*
X30781Y-20280D01*
X30781Y-20280D02*
X30551Y-20280D01*
X30551Y-20120D02*
X30551Y-20280D01*
X30781Y-20120D02*
X30551Y-20120D01*
X30781Y-19720D02*
X30781Y-19880D01*
X30781Y-19880D02*
X30551Y-19880D01*
X30551Y-19720D02*
X30551Y-19880D01*
X30781Y-19720D02*
X30551Y-19720D01*
G54D15*
X30531Y-19650D02*
X30531Y-20350D01*
X28131Y-19700D02*
X28131Y-20300D01*
X30531Y-20350D02*
X30381Y-20350D01*
X30381Y-20400D02*
X28231Y-20400D01*
X30531Y-19650D02*
X30381Y-19650D01*
X30381Y-19600D02*
X30381Y-19650D01*
X30381Y-19600D02*
X28231Y-19600D01*
X29231Y-19800D02*
X29381Y-19800D01*
X29381Y-20200D02*
X29381Y-19800D01*
X29381Y-20200D02*
X29231Y-20200D01*
X29231Y-19800D02*
X29231Y-20200D01*
X29081Y-19800D02*
X29081Y-20000D01*
X29531Y-19800D02*
X29531Y-20000D01*
X29531Y-20000D02*
X29731Y-20000D01*
X29531Y-20000D02*
X29531Y-20200D01*
X29081Y-20000D02*
X28881Y-20000D01*
X29081Y-20000D02*
X29081Y-20200D01*
X30381Y-20400D02*
X30381Y-20350D01*
X30381Y-20350D02*
X30381Y-19650D01*
X28231Y-20400D02*
G75*
G02X28131Y-20300I0J100D01*
G74*
G01*
X28131Y-19700D02*
G75*
G02X28231Y-19600I100J0D01*
G74*
G01*
G54D16*
X34567Y-18864D02*
X34474Y-18799D01*
X34567Y-18752D02*
X34370Y-18752D01*
X34370Y-18827D01*
X34380Y-18846D01*
X34389Y-18855D01*
X34408Y-18864D01*
X34436Y-18864D01*
X34455Y-18855D01*
X34464Y-18846D01*
X34474Y-18827D01*
X34474Y-18752D01*
X34370Y-19043D02*
X34370Y-18949D01*
X34464Y-18939D01*
X34455Y-18949D01*
X34445Y-18967D01*
X34445Y-19014D01*
X34455Y-19033D01*
X34464Y-19043D01*
X34483Y-19052D01*
X34530Y-19052D01*
X34549Y-19043D01*
X34558Y-19033D01*
X34567Y-19014D01*
X34567Y-18967D01*
X34558Y-18949D01*
X34549Y-18939D01*
X35057Y-18846D02*
X35057Y-18977D01*
X35104Y-18770D02*
X35151Y-18911D01*
X35029Y-18911D01*
X34972Y-18780D02*
X34841Y-18780D01*
X34925Y-18977D01*
X34766Y-18977D02*
X34766Y-18780D01*
X34747Y-18902D02*
X34691Y-18977D01*
X34691Y-18846D02*
X34766Y-18921D01*
X36772Y-18471D02*
X36678Y-18405D01*
X36772Y-18358D02*
X36575Y-18358D01*
X36575Y-18433D01*
X36585Y-18452D01*
X36594Y-18461D01*
X36613Y-18471D01*
X36641Y-18471D01*
X36660Y-18461D01*
X36669Y-18452D01*
X36678Y-18433D01*
X36678Y-18358D01*
X36641Y-18639D02*
X36772Y-18639D01*
X36566Y-18593D02*
X36706Y-18546D01*
X36706Y-18668D01*
X37262Y-18846D02*
X37262Y-18977D01*
X37308Y-18770D02*
X37355Y-18911D01*
X37233Y-18911D01*
X37177Y-18780D02*
X37046Y-18780D01*
X37130Y-18977D01*
X36971Y-18977D02*
X36971Y-18780D01*
X36952Y-18902D02*
X36896Y-18977D01*
X36896Y-18846D02*
X36971Y-18921D01*
X37717Y-18864D02*
X37623Y-18799D01*
X37717Y-18752D02*
X37520Y-18752D01*
X37520Y-18827D01*
X37529Y-18846D01*
X37539Y-18855D01*
X37558Y-18864D01*
X37586Y-18864D01*
X37604Y-18855D01*
X37614Y-18846D01*
X37623Y-18827D01*
X37623Y-18752D01*
X37520Y-18930D02*
X37520Y-19052D01*
X37595Y-18986D01*
X37595Y-19014D01*
X37604Y-19033D01*
X37614Y-19043D01*
X37633Y-19052D01*
X37680Y-19052D01*
X37698Y-19043D01*
X37708Y-19033D01*
X37717Y-19014D01*
X37717Y-18958D01*
X37708Y-18939D01*
X37698Y-18930D01*
X38206Y-18846D02*
X38206Y-18977D01*
X38253Y-18770D02*
X38300Y-18911D01*
X38178Y-18911D01*
X38122Y-18780D02*
X37991Y-18780D01*
X38075Y-18977D01*
X37916Y-18977D02*
X37916Y-18780D01*
X37897Y-18902D02*
X37841Y-18977D01*
X37841Y-18846D02*
X37916Y-18921D01*
X32245Y-18864D02*
X32151Y-18799D01*
X32245Y-18752D02*
X32048Y-18752D01*
X32048Y-18827D01*
X32057Y-18846D01*
X32066Y-18855D01*
X32085Y-18864D01*
X32113Y-18864D01*
X32132Y-18855D01*
X32141Y-18846D01*
X32151Y-18827D01*
X32151Y-18752D01*
X32066Y-18939D02*
X32057Y-18949D01*
X32048Y-18967D01*
X32048Y-19014D01*
X32057Y-19033D01*
X32066Y-19043D01*
X32085Y-19052D01*
X32104Y-19052D01*
X32132Y-19043D01*
X32245Y-18930D01*
X32245Y-19052D01*
X32468Y-18761D02*
X32599Y-18761D01*
X32393Y-18714D02*
X32533Y-18667D01*
X32533Y-18789D01*
X32402Y-18846D02*
X32402Y-18977D01*
X32599Y-18892D01*
X32599Y-19052D02*
X32402Y-19052D01*
X32524Y-19071D02*
X32599Y-19127D01*
X32468Y-19127D02*
X32543Y-19052D01*
X33583Y-18864D02*
X33489Y-18799D01*
X33583Y-18752D02*
X33386Y-18752D01*
X33386Y-18827D01*
X33396Y-18846D01*
X33405Y-18855D01*
X33424Y-18864D01*
X33452Y-18864D01*
X33471Y-18855D01*
X33480Y-18846D01*
X33489Y-18827D01*
X33489Y-18752D01*
X33583Y-19052D02*
X33583Y-18939D01*
X33583Y-18996D02*
X33386Y-18996D01*
X33414Y-18977D01*
X33433Y-18958D01*
X33442Y-18939D01*
X34112Y-18846D02*
X34112Y-18977D01*
X34159Y-18770D02*
X34206Y-18911D01*
X34084Y-18911D01*
X34027Y-18780D02*
X33896Y-18780D01*
X33981Y-18977D01*
X33821Y-18977D02*
X33821Y-18780D01*
X33802Y-18902D02*
X33746Y-18977D01*
X33746Y-18846D02*
X33821Y-18921D01*
X36095Y-18446D02*
X36105Y-18456D01*
X36133Y-18465D01*
X36152Y-18465D01*
X36180Y-18456D01*
X36199Y-18437D01*
X36208Y-18418D01*
X36217Y-18381D01*
X36217Y-18352D01*
X36208Y-18315D01*
X36199Y-18296D01*
X36180Y-18277D01*
X36152Y-18268D01*
X36133Y-18268D01*
X36105Y-18277D01*
X36095Y-18287D01*
X35908Y-18465D02*
X36020Y-18465D01*
X35964Y-18465D02*
X35964Y-18268D01*
X35983Y-18296D01*
X36002Y-18315D01*
X36020Y-18324D01*
X36386Y-18544D02*
X36367Y-18544D01*
X36349Y-18553D01*
X36339Y-18562D01*
X36330Y-18581D01*
X36320Y-18619D01*
X36320Y-18666D01*
X36330Y-18703D01*
X36339Y-18722D01*
X36349Y-18731D01*
X36367Y-18741D01*
X36386Y-18741D01*
X36405Y-18731D01*
X36414Y-18722D01*
X36424Y-18703D01*
X36433Y-18666D01*
X36433Y-18619D01*
X36424Y-18581D01*
X36414Y-18562D01*
X36405Y-18553D01*
X36386Y-18544D01*
X36236Y-18722D02*
X36227Y-18731D01*
X36236Y-18741D01*
X36245Y-18731D01*
X36236Y-18722D01*
X36236Y-18741D01*
X36039Y-18741D02*
X36152Y-18741D01*
X36095Y-18741D02*
X36095Y-18544D01*
X36114Y-18572D01*
X36133Y-18591D01*
X36152Y-18600D01*
X35870Y-18609D02*
X35870Y-18741D01*
X35955Y-18609D02*
X35955Y-18713D01*
X35945Y-18731D01*
X35926Y-18741D01*
X35898Y-18741D01*
X35880Y-18731D01*
X35870Y-18722D01*
X35711Y-18637D02*
X35776Y-18637D01*
X35776Y-18741D02*
X35776Y-18544D01*
X35683Y-18544D01*
G54D17*
X29665Y-27839D02*
X29665Y-27439D01*
X29512Y-27439D01*
X29474Y-27458D01*
X29455Y-27477D01*
X29436Y-27515D01*
X29436Y-27572D01*
X29455Y-27610D01*
X29474Y-27629D01*
X29512Y-27648D01*
X29665Y-27648D01*
X29303Y-27439D02*
X29055Y-27439D01*
X29189Y-27591D01*
X29131Y-27591D01*
X29093Y-27610D01*
X29074Y-27629D01*
X29055Y-27667D01*
X29055Y-27762D01*
X29074Y-27800D01*
X29093Y-27820D01*
X29131Y-27839D01*
X29246Y-27839D01*
X29284Y-27820D01*
X29303Y-27800D01*
X29845Y-24946D02*
X29795Y-24965D01*
X29711Y-24965D01*
X29678Y-24946D01*
X29661Y-24926D01*
X29645Y-24888D01*
X29645Y-24850D01*
X29661Y-24812D01*
X29678Y-24793D01*
X29711Y-24774D01*
X29778Y-24755D01*
X29811Y-24736D01*
X29828Y-24717D01*
X29845Y-24679D01*
X29845Y-24641D01*
X29828Y-24603D01*
X29811Y-24584D01*
X29778Y-24565D01*
X29695Y-24565D01*
X29645Y-24584D01*
X29528Y-24565D02*
X29445Y-24965D01*
X29378Y-24679D01*
X29311Y-24965D01*
X29228Y-24565D01*
X29095Y-24965D02*
X29095Y-24565D01*
X29011Y-24565D01*
X28961Y-24584D01*
X28928Y-24622D01*
X28911Y-24660D01*
X28895Y-24736D01*
X28895Y-24793D01*
X28911Y-24869D01*
X28928Y-24907D01*
X28961Y-24946D01*
X29011Y-24965D01*
X29095Y-24965D01*
G54D18*
X31509Y-23225D02*
X31109Y-23825D01*
X31109Y-23225D02*
X31509Y-23825D01*
X30909Y-23282D02*
X30880Y-23254D01*
X30823Y-23225D01*
X30680Y-23225D01*
X30623Y-23254D01*
X30595Y-23282D01*
X30566Y-23339D01*
X30566Y-23396D01*
X30595Y-23482D01*
X30937Y-23825D01*
X30566Y-23825D01*
X30012Y-23522D02*
X30069Y-23493D01*
X30097Y-23464D01*
X30126Y-23407D01*
X30126Y-23379D01*
X30097Y-23322D01*
X30069Y-23293D01*
X30012Y-23264D01*
X29897Y-23264D01*
X29840Y-23293D01*
X29812Y-23322D01*
X29783Y-23379D01*
X29783Y-23407D01*
X29812Y-23464D01*
X29840Y-23493D01*
X29897Y-23522D01*
X30012Y-23522D01*
X30069Y-23550D01*
X30097Y-23579D01*
X30126Y-23636D01*
X30126Y-23750D01*
X30097Y-23807D01*
X30069Y-23836D01*
X30012Y-23864D01*
X29897Y-23864D01*
X29840Y-23836D01*
X29812Y-23807D01*
X29783Y-23750D01*
X29783Y-23636D01*
X29812Y-23579D01*
X29840Y-23550D01*
X29897Y-23522D01*
X29526Y-23864D02*
X29526Y-23264D01*
X29326Y-23693D01*
X29126Y-23264D01*
X29126Y-23864D01*
X28840Y-23864D02*
X28840Y-23264D01*
X28840Y-23550D02*
X28497Y-23550D01*
X28497Y-23864D02*
X28497Y-23264D01*
X28269Y-23464D02*
X27955Y-23464D01*
X28269Y-23864D01*
X27955Y-23864D01*
G54D19*
X24449Y-22972D02*
X24049Y-22972D01*
X24049Y-23124D01*
X24068Y-23162D01*
X24087Y-23182D01*
X24125Y-23201D01*
X24182Y-23201D01*
X24220Y-23182D01*
X24239Y-23162D01*
X24258Y-23124D01*
X24258Y-22972D01*
X24449Y-23582D02*
X24449Y-23353D01*
X24449Y-23467D02*
X24049Y-23467D01*
X24106Y-23429D01*
X24144Y-23391D01*
X24163Y-23353D01*
G54D17*
X24453Y-23951D02*
X24053Y-23951D01*
X24338Y-24085D01*
X24053Y-24218D01*
X24453Y-24218D01*
X24415Y-24637D02*
X24434Y-24618D01*
X24453Y-24561D01*
X24453Y-24523D01*
X24434Y-24465D01*
X24396Y-24427D01*
X24358Y-24408D01*
X24281Y-24389D01*
X24224Y-24389D01*
X24148Y-24408D01*
X24110Y-24427D01*
X24072Y-24465D01*
X24053Y-24523D01*
X24053Y-24561D01*
X24072Y-24618D01*
X24091Y-24637D01*
X24053Y-24808D02*
X24377Y-24808D01*
X24415Y-24827D01*
X24434Y-24846D01*
X24453Y-24885D01*
X24453Y-24961D01*
X24434Y-24999D01*
X24415Y-25018D01*
X24377Y-25037D01*
X24053Y-25037D01*
X24453Y-25437D02*
X24453Y-25208D01*
X24453Y-25323D02*
X24053Y-25323D01*
X24110Y-25285D01*
X24148Y-25246D01*
X24167Y-25208D01*
G54D19*
X43449Y-22972D02*
X43049Y-22972D01*
X43049Y-23124D01*
X43068Y-23162D01*
X43087Y-23182D01*
X43125Y-23201D01*
X43182Y-23201D01*
X43220Y-23182D01*
X43239Y-23162D01*
X43258Y-23124D01*
X43258Y-22972D01*
X43182Y-23543D02*
X43449Y-23543D01*
X43030Y-23448D02*
X43315Y-23353D01*
X43315Y-23601D01*
G54D17*
X43429Y-23991D02*
X43029Y-23991D01*
X43315Y-24124D01*
X43029Y-24257D01*
X43429Y-24257D01*
X43391Y-24676D02*
X43410Y-24657D01*
X43429Y-24600D01*
X43429Y-24562D01*
X43410Y-24505D01*
X43372Y-24467D01*
X43334Y-24448D01*
X43258Y-24429D01*
X43201Y-24429D01*
X43124Y-24448D01*
X43086Y-24467D01*
X43048Y-24505D01*
X43029Y-24562D01*
X43029Y-24600D01*
X43048Y-24657D01*
X43067Y-24676D01*
X43029Y-24848D02*
X43353Y-24848D01*
X43391Y-24867D01*
X43410Y-24886D01*
X43429Y-24924D01*
X43429Y-25000D01*
X43410Y-25038D01*
X43391Y-25057D01*
X43353Y-25076D01*
X43029Y-25076D01*
X43067Y-25248D02*
X43048Y-25267D01*
X43029Y-25305D01*
X43029Y-25400D01*
X43048Y-25438D01*
X43067Y-25457D01*
X43105Y-25476D01*
X43143Y-25476D01*
X43201Y-25457D01*
X43429Y-25229D01*
X43429Y-25476D01*
G54D20*
G54D21*
G54D10*
X33341Y-26564D02*
X33521Y-26564D01*
X33431Y-26564D02*
X33431Y-26249D01*
X33461Y-26294D01*
X33491Y-26324D01*
X33521Y-26339D01*
X33041Y-26564D02*
X33221Y-26564D01*
X33131Y-26564D02*
X33131Y-26249D01*
X33161Y-26294D01*
X33191Y-26324D01*
X33221Y-26339D01*
X32921Y-26279D02*
X32906Y-26264D01*
X32876Y-26249D01*
X32801Y-26249D01*
X32771Y-26264D01*
X32756Y-26279D01*
X32741Y-26309D01*
X32741Y-26339D01*
X32756Y-26384D01*
X32936Y-26564D01*
X32741Y-26564D01*
X32516Y-26249D02*
X32516Y-26474D01*
X32531Y-26519D01*
X32561Y-26549D01*
X32606Y-26564D01*
X32636Y-26564D01*
X33946Y-26072D02*
X34126Y-26072D01*
X34036Y-26072D02*
X34036Y-25757D01*
X34066Y-25802D01*
X34096Y-25832D01*
X34126Y-25847D01*
X33646Y-26072D02*
X33826Y-26072D01*
X33736Y-26072D02*
X33736Y-25757D01*
X33766Y-25802D01*
X33796Y-25832D01*
X33826Y-25847D01*
X33526Y-25787D02*
X33511Y-25772D01*
X33481Y-25757D01*
X33406Y-25757D01*
X33376Y-25772D01*
X33361Y-25787D01*
X33346Y-25817D01*
X33346Y-25847D01*
X33361Y-25892D01*
X33541Y-26072D01*
X33346Y-26072D01*
X33211Y-26072D02*
X33211Y-25757D01*
G54D20*
X29774Y-18285D02*
X29441Y-18785D01*
X29441Y-18285D02*
X29774Y-18785D01*
X28989Y-18785D02*
X29274Y-18785D01*
X29131Y-18785D02*
X29131Y-18285D01*
X29179Y-18356D01*
X29227Y-18404D01*
X29274Y-18427D01*
X30677Y-18914D02*
X30368Y-18914D01*
X30534Y-19105D01*
X30463Y-19105D01*
X30415Y-19129D01*
X30392Y-19153D01*
X30368Y-19200D01*
X30368Y-19319D01*
X30392Y-19367D01*
X30415Y-19391D01*
X30463Y-19414D01*
X30606Y-19414D01*
X30654Y-19391D01*
X30677Y-19367D01*
X30177Y-18962D02*
X30154Y-18938D01*
X30106Y-18914D01*
X29987Y-18914D01*
X29939Y-18938D01*
X29915Y-18962D01*
X29892Y-19010D01*
X29892Y-19057D01*
X29915Y-19129D01*
X30201Y-19414D01*
X29892Y-19414D01*
X29725Y-18914D02*
X29392Y-18914D01*
X29606Y-19414D01*
X28987Y-18914D02*
X29082Y-18914D01*
X29130Y-18938D01*
X29154Y-18962D01*
X29201Y-19034D01*
X29225Y-19129D01*
X29225Y-19319D01*
X29201Y-19367D01*
X29177Y-19391D01*
X29130Y-19414D01*
X29034Y-19414D01*
X28987Y-19391D01*
X28963Y-19367D01*
X28939Y-19319D01*
X28939Y-19200D01*
X28963Y-19153D01*
X28987Y-19129D01*
X29034Y-19105D01*
X29130Y-19105D01*
X29177Y-19129D01*
X29201Y-19153D01*
X29225Y-19200D01*
X28654Y-19129D02*
X28701Y-19105D01*
X28725Y-19081D01*
X28749Y-19034D01*
X28749Y-19010D01*
X28725Y-18962D01*
X28701Y-18938D01*
X28654Y-18914D01*
X28558Y-18914D01*
X28511Y-18938D01*
X28487Y-18962D01*
X28463Y-19010D01*
X28463Y-19034D01*
X28487Y-19081D01*
X28511Y-19105D01*
X28558Y-19129D01*
X28654Y-19129D01*
X28701Y-19153D01*
X28725Y-19176D01*
X28749Y-19224D01*
X28749Y-19319D01*
X28725Y-19367D01*
X28701Y-19391D01*
X28654Y-19414D01*
X28558Y-19414D01*
X28511Y-19391D01*
X28487Y-19367D01*
X28463Y-19319D01*
X28463Y-19224D01*
X28487Y-19176D01*
X28511Y-19153D01*
X28558Y-19129D01*
X28249Y-19414D02*
X28249Y-18914D01*
X28249Y-19153D02*
X27963Y-19153D01*
X27963Y-19414D02*
X27963Y-18914D01*
X27773Y-19081D02*
X27511Y-19081D01*
X27773Y-19414D01*
X27511Y-19414D01*
M02*
