G04 (created by PCBNEW (2013-may-18)-stable) date Ср 27 май 2015 10:34:21*
%MOIN*%
G04 Gerber Fmt 3.4, Leading zero omitted, Abs format*
%FSLAX34Y34*%
G01*
G70*
G90*
G04 APERTURE LIST*
%ADD10C,0.00590551*%
%ADD11R,0.035X0.055*%
%ADD12R,0.055X0.035*%
%ADD13R,0.06X0.06*%
%ADD14C,0.06*%
%ADD15R,0.0472X0.01*%
%ADD16R,0.01X0.0472*%
%ADD17C,0.056*%
%ADD18C,0.052*%
%ADD19C,0.0275591*%
%ADD20C,0.015748*%
%ADD21C,0.01*%
%ADD22C,0.011811*%
G04 APERTURE END LIST*
G54D10*
G54D11*
X28012Y-18700D03*
X27262Y-18700D03*
X29506Y-20433D03*
X30256Y-20433D03*
X29506Y-19527D03*
X30256Y-19527D03*
G54D12*
X28740Y-20491D03*
X28740Y-21241D03*
G54D11*
X29506Y-21220D03*
X30256Y-21220D03*
G54D12*
X33031Y-20020D03*
X33031Y-19270D03*
G54D11*
X37656Y-24921D03*
X38406Y-24921D03*
X32184Y-24881D03*
X32934Y-24881D03*
G54D12*
X38582Y-20530D03*
X38582Y-21280D03*
G54D13*
X26287Y-18751D03*
G54D14*
X25287Y-18751D03*
X26287Y-19751D03*
X25287Y-19751D03*
X26287Y-20751D03*
X25287Y-20751D03*
X26287Y-21751D03*
X25287Y-21751D03*
X26287Y-22751D03*
X25287Y-22751D03*
X26287Y-23751D03*
X25287Y-23751D03*
X26287Y-24751D03*
X25287Y-24751D03*
X26287Y-25751D03*
X25287Y-25751D03*
X26287Y-26751D03*
X25287Y-26751D03*
X26287Y-27751D03*
X25287Y-27751D03*
G54D13*
X40759Y-27783D03*
G54D14*
X41759Y-27783D03*
X40759Y-26783D03*
X41759Y-26783D03*
X40759Y-25783D03*
X41759Y-25783D03*
X40759Y-24783D03*
X41759Y-24783D03*
X40759Y-23783D03*
X41759Y-23783D03*
X40759Y-22783D03*
X41759Y-22783D03*
X40759Y-21783D03*
X41759Y-21783D03*
X40759Y-20783D03*
X41759Y-20783D03*
X40759Y-19783D03*
X41759Y-19783D03*
X40759Y-18783D03*
X41759Y-18783D03*
G54D13*
X28188Y-25905D03*
G54D14*
X28976Y-25905D03*
X29763Y-25905D03*
X30551Y-25905D03*
G54D15*
X33031Y-21083D03*
X33031Y-21280D03*
X33031Y-21477D03*
X33031Y-21674D03*
X33031Y-21871D03*
X33031Y-22067D03*
X33031Y-22264D03*
X33031Y-22461D03*
X33031Y-22657D03*
X33031Y-22854D03*
X33031Y-23051D03*
X33031Y-23247D03*
X33031Y-23444D03*
X33031Y-23641D03*
X33031Y-23838D03*
X33031Y-24035D03*
G54D16*
X33799Y-24803D03*
X33996Y-24803D03*
X34193Y-24803D03*
X34390Y-24803D03*
X34587Y-24803D03*
X34783Y-24803D03*
X34980Y-24803D03*
X35177Y-24803D03*
X35373Y-24803D03*
X35570Y-24803D03*
X35767Y-24803D03*
X35963Y-24803D03*
X36160Y-24803D03*
X36357Y-24803D03*
X36554Y-24803D03*
X36751Y-24803D03*
G54D15*
X37519Y-24035D03*
X37519Y-23838D03*
X37519Y-23641D03*
X37519Y-23444D03*
X37519Y-23247D03*
X37519Y-23051D03*
X37519Y-22854D03*
X37519Y-22657D03*
X37519Y-22461D03*
X37519Y-22264D03*
X37519Y-22067D03*
X37519Y-21871D03*
X37519Y-21674D03*
X37519Y-21477D03*
X37519Y-21280D03*
X37519Y-21083D03*
G54D16*
X36751Y-20315D03*
X36554Y-20315D03*
X36357Y-20315D03*
X36160Y-20315D03*
X35963Y-20315D03*
X35767Y-20315D03*
X35570Y-20315D03*
X35373Y-20315D03*
X35177Y-20315D03*
X34980Y-20315D03*
X34783Y-20315D03*
X34587Y-20315D03*
X34390Y-20315D03*
X34193Y-20315D03*
X33996Y-20315D03*
X33799Y-20315D03*
G54D17*
X28763Y-22047D03*
X30763Y-22047D03*
G54D18*
X31220Y-19539D03*
X31220Y-20539D03*
G54D19*
X38740Y-19842D03*
X32401Y-18503D03*
X38897Y-24921D03*
X39212Y-21259D03*
X31968Y-23346D03*
X33425Y-24803D03*
X28818Y-20000D03*
X29015Y-19685D03*
X34370Y-21535D03*
X34015Y-20826D03*
X35590Y-21141D03*
X36456Y-21535D03*
X36377Y-21141D03*
X36614Y-23110D03*
X30551Y-25275D03*
X34921Y-22559D03*
X28976Y-25314D03*
X33622Y-22244D03*
X35511Y-23346D03*
X31574Y-24960D03*
X36732Y-22755D03*
X36929Y-22401D03*
X35984Y-21141D03*
G54D20*
X38582Y-20530D02*
X38582Y-20000D01*
X38582Y-20000D02*
X38740Y-19842D01*
G54D21*
X36751Y-24803D02*
X36751Y-24271D01*
X36751Y-24271D02*
X36732Y-24251D01*
X34193Y-24803D02*
X34193Y-24232D01*
X34193Y-24232D02*
X34173Y-24212D01*
X33031Y-23444D02*
X33603Y-23444D01*
X33603Y-23444D02*
X33622Y-23425D01*
G54D20*
X32401Y-18503D02*
X28976Y-18503D01*
X28779Y-18700D02*
X28012Y-18700D01*
X28976Y-18503D02*
X28779Y-18700D01*
X25287Y-18751D02*
X25287Y-18791D01*
X25287Y-18791D02*
X25787Y-19291D01*
X25787Y-19291D02*
X27874Y-19291D01*
X27874Y-19291D02*
X28012Y-19152D01*
X28012Y-19152D02*
X28012Y-18700D01*
G54D21*
X33031Y-20020D02*
X32776Y-20020D01*
X32401Y-19645D02*
X32401Y-18503D01*
X32776Y-20020D02*
X32401Y-19645D01*
X33799Y-20315D02*
X33799Y-20020D01*
X33149Y-19903D02*
X33031Y-20020D01*
X33682Y-19903D02*
X33149Y-19903D01*
X33799Y-20020D02*
X33682Y-19903D01*
X34193Y-24803D02*
X34193Y-25153D01*
X32677Y-25375D02*
X32184Y-24881D01*
X33971Y-25375D02*
X32677Y-25375D01*
X34193Y-25153D02*
X33971Y-25375D01*
X36751Y-24803D02*
X37538Y-24803D01*
X37538Y-24803D02*
X37656Y-24921D01*
X37519Y-21083D02*
X37893Y-21083D01*
X38445Y-20530D02*
X38582Y-20530D01*
X37893Y-21083D02*
X38445Y-20530D01*
X38406Y-24921D02*
X38897Y-24921D01*
X38582Y-21280D02*
X39191Y-21280D01*
X39191Y-21280D02*
X39212Y-21259D01*
X33031Y-23247D02*
X32067Y-23247D01*
X32067Y-23247D02*
X31968Y-23346D01*
X33464Y-25196D02*
X33464Y-24842D01*
X33464Y-24842D02*
X33425Y-24803D01*
G54D20*
X26287Y-18751D02*
X27211Y-18751D01*
X27211Y-18751D02*
X27262Y-18700D01*
G54D21*
X33996Y-20315D02*
X33996Y-19941D01*
X33031Y-19370D02*
X33031Y-19270D01*
X33385Y-19724D02*
X33031Y-19370D01*
X33779Y-19724D02*
X33385Y-19724D01*
X33996Y-19941D02*
X33779Y-19724D01*
X28740Y-20491D02*
X28740Y-20078D01*
X28740Y-20078D02*
X28818Y-20000D01*
X29506Y-19527D02*
X29173Y-19527D01*
X29173Y-19527D02*
X29015Y-19685D01*
X34015Y-20826D02*
X34015Y-21181D01*
X34015Y-21181D02*
X34370Y-21535D01*
X33996Y-24803D02*
X33996Y-25097D01*
X33249Y-25196D02*
X32934Y-24881D01*
X33897Y-25196D02*
X33464Y-25196D01*
X33464Y-25196D02*
X33249Y-25196D01*
X33996Y-25097D02*
X33897Y-25196D01*
X36554Y-24803D02*
X36554Y-25137D01*
X38406Y-25254D02*
X38406Y-24921D01*
X38228Y-25433D02*
X38406Y-25254D01*
X36850Y-25433D02*
X38228Y-25433D01*
X36554Y-25137D02*
X36850Y-25433D01*
X37519Y-21280D02*
X38582Y-21280D01*
X38582Y-21280D02*
X38582Y-21280D01*
X33996Y-20807D02*
X33996Y-20315D01*
X34015Y-20826D02*
X33996Y-20807D01*
X29506Y-20433D02*
X29506Y-19527D01*
X29506Y-21220D02*
X29506Y-20433D01*
X28740Y-20491D02*
X29448Y-20491D01*
X29448Y-20491D02*
X29506Y-20433D01*
X25287Y-24751D02*
X25287Y-24775D01*
X34783Y-25367D02*
X34783Y-24803D01*
X33415Y-26735D02*
X34783Y-25367D01*
X27686Y-26735D02*
X33415Y-26735D01*
X27359Y-26407D02*
X27686Y-26735D01*
X27359Y-25314D02*
X27359Y-26407D01*
X27280Y-25236D02*
X27359Y-25314D01*
X25748Y-25236D02*
X27280Y-25236D01*
X25287Y-24775D02*
X25748Y-25236D01*
X35177Y-24803D02*
X35177Y-25479D01*
X25795Y-26259D02*
X25287Y-25751D01*
X26692Y-26259D02*
X25795Y-26259D01*
X27525Y-27092D02*
X26692Y-26259D01*
X33563Y-27092D02*
X27525Y-27092D01*
X35177Y-25479D02*
X33563Y-27092D01*
X34980Y-24803D02*
X34980Y-25423D01*
X26933Y-25751D02*
X26287Y-25751D01*
X27180Y-25999D02*
X26933Y-25751D01*
X27180Y-26481D02*
X27180Y-25999D01*
X27612Y-26914D02*
X27180Y-26481D01*
X33489Y-26914D02*
X27612Y-26914D01*
X34980Y-25423D02*
X33489Y-26914D01*
X33031Y-22854D02*
X31712Y-22854D01*
X25755Y-21220D02*
X25287Y-20751D01*
X27401Y-21220D02*
X25755Y-21220D01*
X27792Y-21611D02*
X27401Y-21220D01*
X27792Y-22240D02*
X27792Y-21611D01*
X28746Y-23195D02*
X27792Y-22240D01*
X31371Y-23195D02*
X28746Y-23195D01*
X31712Y-22854D02*
X31371Y-23195D01*
X33031Y-22657D02*
X31634Y-22657D01*
X27602Y-20751D02*
X26287Y-20751D01*
X27970Y-21120D02*
X27602Y-20751D01*
X27970Y-22160D02*
X27970Y-21120D01*
X28826Y-23016D02*
X27970Y-22160D01*
X31274Y-23016D02*
X28826Y-23016D01*
X31634Y-22657D02*
X31274Y-23016D01*
X33031Y-22461D02*
X31548Y-22461D01*
X25811Y-20275D02*
X25287Y-19751D01*
X27834Y-20275D02*
X25811Y-20275D01*
X28149Y-20590D02*
X27834Y-20275D01*
X28149Y-22086D02*
X28149Y-20590D01*
X28900Y-22837D02*
X28149Y-22086D01*
X31171Y-22837D02*
X28900Y-22837D01*
X31548Y-22461D02*
X31171Y-22837D01*
X26287Y-19751D02*
X28437Y-19751D01*
X32342Y-21083D02*
X33031Y-21083D01*
X31968Y-20708D02*
X32342Y-21083D01*
X31968Y-19685D02*
X31968Y-20708D01*
X31338Y-19055D02*
X31968Y-19685D01*
X29133Y-19055D02*
X31338Y-19055D01*
X28437Y-19751D02*
X29133Y-19055D01*
X35767Y-20964D02*
X35767Y-20315D01*
X35590Y-21141D02*
X35767Y-20964D01*
X36357Y-20727D02*
X36357Y-20315D01*
X36653Y-21023D02*
X36357Y-20727D01*
X36653Y-21338D02*
X36653Y-21023D01*
X36456Y-21535D02*
X36653Y-21338D01*
X36160Y-20924D02*
X36160Y-20315D01*
X36377Y-21141D02*
X36160Y-20924D01*
X36673Y-23051D02*
X37519Y-23051D01*
X36614Y-23110D02*
X36673Y-23051D01*
X26287Y-24751D02*
X27232Y-24751D01*
X34587Y-25310D02*
X34587Y-24803D01*
X33341Y-26556D02*
X34587Y-25310D01*
X27760Y-26556D02*
X33341Y-26556D01*
X27537Y-26333D02*
X27760Y-26556D01*
X27537Y-25057D02*
X27537Y-26333D01*
X27232Y-24751D02*
X27537Y-25057D01*
X34193Y-20315D02*
X34193Y-18759D01*
X41283Y-18307D02*
X41759Y-18783D01*
X34645Y-18307D02*
X41283Y-18307D01*
X34193Y-18759D02*
X34645Y-18307D01*
X40759Y-18783D02*
X40476Y-18783D01*
X34390Y-18814D02*
X34390Y-20315D01*
X34719Y-18485D02*
X34390Y-18814D01*
X40178Y-18485D02*
X34719Y-18485D01*
X40476Y-18783D02*
X40178Y-18485D01*
X34783Y-20315D02*
X34783Y-19077D01*
X41267Y-19291D02*
X41759Y-19783D01*
X40433Y-19291D02*
X41267Y-19291D01*
X39806Y-18664D02*
X40433Y-19291D01*
X35196Y-18664D02*
X39806Y-18664D01*
X34783Y-19077D02*
X35196Y-18664D01*
X34980Y-20315D02*
X34980Y-19133D01*
X40492Y-19783D02*
X40759Y-19783D01*
X39551Y-18843D02*
X40492Y-19783D01*
X35270Y-18843D02*
X39551Y-18843D01*
X34980Y-19133D02*
X35270Y-18843D01*
X35177Y-20315D02*
X35177Y-19238D01*
X41251Y-20275D02*
X41759Y-20783D01*
X40590Y-20275D02*
X41251Y-20275D01*
X39337Y-19022D02*
X40590Y-20275D01*
X35393Y-19022D02*
X39337Y-19022D01*
X35177Y-19238D02*
X35393Y-19022D01*
X35373Y-20315D02*
X35373Y-19378D01*
X39177Y-19200D02*
X40759Y-20783D01*
X35551Y-19200D02*
X39177Y-19200D01*
X35373Y-19378D02*
X35551Y-19200D01*
X35570Y-20315D02*
X35570Y-19478D01*
X41275Y-21299D02*
X41759Y-21783D01*
X40551Y-21299D02*
X41275Y-21299D01*
X40314Y-21062D02*
X40551Y-21299D01*
X40314Y-20669D02*
X40314Y-21062D01*
X39025Y-19379D02*
X40314Y-20669D01*
X35669Y-19379D02*
X39025Y-19379D01*
X35570Y-19478D02*
X35669Y-19379D01*
X36554Y-20315D02*
X36554Y-19744D01*
X40118Y-21141D02*
X40759Y-21783D01*
X40118Y-20748D02*
X40118Y-21141D01*
X38928Y-19558D02*
X40118Y-20748D01*
X36740Y-19558D02*
X38928Y-19558D01*
X36554Y-19744D02*
X36740Y-19558D01*
X36751Y-20315D02*
X36751Y-20846D01*
X30551Y-25275D02*
X30551Y-25905D01*
X35826Y-22559D02*
X34921Y-22559D01*
X36850Y-21535D02*
X35826Y-22559D01*
X36850Y-20944D02*
X36850Y-21535D01*
X36751Y-20846D02*
X36850Y-20944D01*
X28976Y-25314D02*
X28976Y-25905D01*
X33602Y-22264D02*
X33622Y-22244D01*
X33031Y-22264D02*
X33602Y-22264D01*
X25287Y-23751D02*
X25287Y-23791D01*
X34390Y-25255D02*
X34390Y-24803D01*
X33267Y-26377D02*
X34390Y-25255D01*
X27834Y-26377D02*
X33267Y-26377D01*
X27716Y-26259D02*
X27834Y-26377D01*
X27716Y-24960D02*
X27716Y-26259D01*
X27007Y-24251D02*
X27716Y-24960D01*
X25748Y-24251D02*
X27007Y-24251D01*
X25287Y-23791D02*
X25748Y-24251D01*
X29763Y-25905D02*
X29763Y-25354D01*
X37144Y-21477D02*
X37519Y-21477D01*
X37029Y-21592D02*
X37144Y-21477D01*
X37029Y-21829D02*
X37029Y-21592D01*
X35511Y-23346D02*
X37029Y-21829D01*
X30157Y-24960D02*
X31574Y-24960D01*
X29763Y-25354D02*
X30157Y-24960D01*
X32598Y-21674D02*
X33031Y-21674D01*
X31220Y-20539D02*
X31220Y-21259D01*
X31634Y-21674D02*
X32598Y-21674D01*
X32598Y-21674D02*
X32598Y-21674D01*
X31220Y-21259D02*
X31634Y-21674D01*
X30256Y-20433D02*
X31114Y-20433D01*
X31114Y-20433D02*
X31220Y-20539D01*
X32224Y-21476D02*
X32657Y-21476D01*
X32658Y-21477D02*
X33031Y-21477D01*
X32657Y-21476D02*
X32658Y-21477D01*
X31732Y-20051D02*
X31220Y-19539D01*
X31732Y-20984D02*
X31732Y-20051D01*
X32225Y-21477D02*
X32224Y-21476D01*
X32224Y-21476D02*
X31732Y-20984D01*
X30256Y-19527D02*
X31208Y-19527D01*
X31208Y-19527D02*
X31220Y-19539D01*
X37519Y-24035D02*
X38759Y-24035D01*
X39685Y-25708D02*
X40759Y-26783D01*
X39685Y-24960D02*
X39685Y-25708D01*
X38759Y-24035D02*
X39685Y-24960D01*
X36357Y-24803D02*
X36357Y-25215D01*
X41220Y-27244D02*
X41759Y-27783D01*
X38385Y-27244D02*
X41220Y-27244D01*
X36357Y-25215D02*
X38385Y-27244D01*
X36160Y-24803D02*
X36160Y-25294D01*
X38649Y-27783D02*
X40759Y-27783D01*
X36160Y-25294D02*
X38649Y-27783D01*
X25287Y-27751D02*
X25547Y-27751D01*
X35981Y-24803D02*
X35963Y-24803D01*
X35981Y-25686D02*
X35981Y-24803D01*
X33860Y-27807D02*
X35981Y-25686D01*
X27388Y-27807D02*
X33860Y-27807D01*
X27007Y-28188D02*
X27388Y-27807D01*
X25984Y-28188D02*
X27007Y-28188D01*
X25547Y-27751D02*
X25984Y-28188D01*
X35767Y-24803D02*
X35767Y-25647D01*
X26410Y-27629D02*
X26287Y-27751D01*
X33785Y-27629D02*
X26410Y-27629D01*
X35767Y-25647D02*
X33785Y-27629D01*
X35570Y-24803D02*
X35570Y-25591D01*
X25779Y-27244D02*
X25287Y-26751D01*
X26614Y-27244D02*
X25779Y-27244D01*
X26820Y-27450D02*
X26614Y-27244D01*
X33711Y-27450D02*
X26820Y-27450D01*
X35570Y-25591D02*
X33711Y-27450D01*
X33799Y-24803D02*
X33799Y-24508D01*
X27925Y-23751D02*
X26287Y-23751D01*
X28425Y-24251D02*
X27925Y-23751D01*
X33543Y-24251D02*
X28425Y-24251D01*
X33799Y-24508D02*
X33543Y-24251D01*
X37519Y-21674D02*
X39863Y-21674D01*
X41259Y-22283D02*
X41759Y-22783D01*
X40472Y-22283D02*
X41259Y-22283D01*
X39863Y-21674D02*
X40472Y-22283D01*
X37519Y-21871D02*
X39745Y-21871D01*
X40657Y-22783D02*
X40759Y-22783D01*
X39745Y-21871D02*
X40657Y-22783D01*
X37519Y-22067D02*
X39547Y-22067D01*
X41244Y-23267D02*
X41759Y-23783D01*
X40511Y-23267D02*
X41244Y-23267D01*
X40275Y-23031D02*
X40511Y-23267D01*
X40275Y-22795D02*
X40275Y-23031D01*
X39547Y-22067D02*
X40275Y-22795D01*
X37519Y-22264D02*
X39311Y-22264D01*
X40515Y-23783D02*
X40759Y-23783D01*
X40039Y-23307D02*
X40515Y-23783D01*
X40039Y-22992D02*
X40039Y-23307D01*
X39311Y-22264D02*
X40039Y-22992D01*
X37519Y-22461D02*
X39232Y-22461D01*
X41267Y-24291D02*
X41759Y-24783D01*
X40511Y-24291D02*
X41267Y-24291D01*
X39842Y-23622D02*
X40511Y-24291D01*
X39842Y-23070D02*
X39842Y-23622D01*
X39232Y-22461D02*
X39842Y-23070D01*
X37519Y-23247D02*
X39214Y-23247D01*
X40751Y-24783D02*
X40759Y-24783D01*
X39214Y-23247D02*
X40751Y-24783D01*
X37519Y-23444D02*
X39113Y-23444D01*
X41251Y-25275D02*
X41759Y-25783D01*
X40511Y-25275D02*
X41251Y-25275D01*
X40314Y-25078D02*
X40511Y-25275D01*
X40314Y-24645D02*
X40314Y-25078D01*
X39113Y-23444D02*
X40314Y-24645D01*
X37519Y-23641D02*
X38995Y-23641D01*
X40625Y-25783D02*
X40759Y-25783D01*
X40078Y-25236D02*
X40625Y-25783D01*
X40078Y-24724D02*
X40078Y-25236D01*
X38995Y-23641D02*
X40078Y-24724D01*
X37519Y-23838D02*
X38877Y-23838D01*
X41759Y-26641D02*
X41759Y-26783D01*
X41417Y-26299D02*
X41759Y-26641D01*
X40551Y-26299D02*
X41417Y-26299D01*
X39881Y-25629D02*
X40551Y-26299D01*
X39881Y-24842D02*
X39881Y-25629D01*
X38877Y-23838D02*
X39881Y-24842D01*
X32598Y-22067D02*
X33031Y-22067D01*
X28763Y-22047D02*
X28763Y-21264D01*
X28763Y-21264D02*
X28740Y-21241D01*
X32598Y-22067D02*
X32598Y-22067D01*
X32598Y-22067D02*
X31689Y-22067D01*
X29566Y-22047D02*
X28763Y-22047D01*
X29703Y-22183D02*
X29566Y-22047D01*
X29703Y-22436D02*
X29703Y-22183D01*
X29925Y-22659D02*
X29703Y-22436D01*
X31097Y-22659D02*
X29925Y-22659D01*
X31689Y-22067D02*
X31097Y-22659D01*
X33031Y-24035D02*
X28575Y-24035D01*
X25803Y-23267D02*
X25287Y-22751D01*
X27807Y-23267D02*
X25803Y-23267D01*
X28575Y-24035D02*
X27807Y-23267D01*
X36830Y-22854D02*
X37519Y-22854D01*
X36732Y-22755D02*
X36830Y-22854D01*
X37027Y-22657D02*
X37519Y-22657D01*
X36929Y-22559D02*
X37027Y-22657D01*
X36929Y-22401D02*
X36929Y-22559D01*
X35963Y-21121D02*
X35963Y-20315D01*
X35984Y-21141D02*
X35963Y-21121D01*
X32598Y-21871D02*
X33031Y-21871D01*
X30763Y-22047D02*
X30763Y-21727D01*
X30763Y-21727D02*
X30256Y-21220D01*
X32598Y-21871D02*
X32598Y-21871D01*
X32598Y-21871D02*
X31632Y-21871D01*
X30000Y-22047D02*
X30763Y-22047D01*
X29881Y-22165D02*
X30000Y-22047D01*
X29881Y-22362D02*
X29881Y-22165D01*
X30000Y-22480D02*
X29881Y-22362D01*
X31023Y-22480D02*
X30000Y-22480D01*
X31632Y-21871D02*
X31023Y-22480D01*
X33031Y-23838D02*
X28630Y-23838D01*
X27544Y-22751D02*
X26287Y-22751D01*
X28630Y-23838D02*
X27544Y-22751D01*
X33031Y-23641D02*
X28686Y-23641D01*
X25779Y-22244D02*
X25287Y-21751D01*
X27289Y-22244D02*
X25779Y-22244D01*
X28686Y-23641D02*
X27289Y-22244D01*
X33031Y-23051D02*
X31768Y-23051D01*
X27050Y-21751D02*
X26287Y-21751D01*
X28672Y-23374D02*
X27050Y-21751D01*
X31445Y-23374D02*
X28672Y-23374D01*
X31768Y-23051D02*
X31445Y-23374D01*
X35373Y-24803D02*
X35373Y-25535D01*
X26909Y-26751D02*
X26287Y-26751D01*
X27429Y-27271D02*
X26909Y-26751D01*
X33637Y-27271D02*
X27429Y-27271D01*
X35373Y-25535D02*
X33637Y-27271D01*
G54D10*
G36*
X33808Y-20363D02*
X33774Y-20363D01*
X33774Y-20356D01*
X33750Y-20356D01*
X33750Y-20274D01*
X33774Y-20274D01*
X33774Y-20266D01*
X33808Y-20266D01*
X33808Y-20363D01*
X33808Y-20363D01*
G37*
G54D22*
X33808Y-20363D02*
X33774Y-20363D01*
X33774Y-20356D01*
X33750Y-20356D01*
X33750Y-20274D01*
X33774Y-20274D01*
X33774Y-20266D01*
X33808Y-20266D01*
X33808Y-20363D01*
G54D10*
G36*
X37066Y-24350D02*
X36951Y-24350D01*
X36948Y-24347D01*
X36852Y-24307D01*
X36841Y-24308D01*
X36798Y-24350D01*
X36704Y-24350D01*
X36661Y-24308D01*
X36650Y-24307D01*
X36555Y-24347D01*
X36551Y-24350D01*
X34393Y-24350D01*
X34390Y-24347D01*
X34294Y-24307D01*
X34283Y-24308D01*
X34240Y-24350D01*
X34146Y-24350D01*
X34103Y-24308D01*
X34092Y-24307D01*
X33997Y-24347D01*
X33993Y-24350D01*
X33907Y-24350D01*
X33676Y-24119D01*
X33615Y-24078D01*
X33543Y-24064D01*
X33484Y-24064D01*
X33484Y-23643D01*
X33487Y-23640D01*
X33526Y-23545D01*
X33526Y-23533D01*
X33484Y-23491D01*
X33484Y-23396D01*
X33526Y-23354D01*
X33526Y-23342D01*
X33487Y-23247D01*
X33484Y-23244D01*
X33484Y-22485D01*
X33566Y-22519D01*
X33676Y-22519D01*
X33777Y-22477D01*
X33855Y-22400D01*
X33897Y-22299D01*
X33897Y-22189D01*
X33855Y-22088D01*
X33778Y-22010D01*
X33677Y-21968D01*
X33567Y-21968D01*
X33484Y-22002D01*
X33484Y-20964D01*
X33388Y-20964D01*
X33384Y-20955D01*
X33345Y-20916D01*
X33295Y-20895D01*
X33240Y-20895D01*
X32990Y-20895D01*
X32990Y-20389D01*
X32990Y-20061D01*
X32562Y-20061D01*
X32497Y-20126D01*
X32497Y-20246D01*
X32536Y-20342D01*
X32609Y-20415D01*
X32704Y-20454D01*
X32807Y-20454D01*
X32925Y-20454D01*
X32990Y-20389D01*
X32990Y-20895D01*
X32768Y-20895D01*
X32768Y-20895D01*
X32420Y-20895D01*
X32156Y-20630D01*
X32156Y-19685D01*
X32142Y-19613D01*
X32142Y-19613D01*
X32101Y-19552D01*
X32101Y-19552D01*
X31471Y-18922D01*
X31410Y-18881D01*
X31338Y-18867D01*
X29133Y-18867D01*
X29061Y-18881D01*
X29001Y-18922D01*
X28446Y-19476D01*
X28446Y-18924D01*
X28446Y-18806D01*
X28382Y-18741D01*
X28053Y-18741D01*
X28053Y-19170D01*
X28118Y-19234D01*
X28239Y-19234D01*
X28334Y-19195D01*
X28407Y-19122D01*
X28446Y-19027D01*
X28446Y-18924D01*
X28446Y-19476D01*
X28359Y-19564D01*
X27971Y-19564D01*
X27971Y-19170D01*
X27971Y-18741D01*
X27643Y-18741D01*
X27578Y-18806D01*
X27578Y-18924D01*
X27578Y-19027D01*
X27618Y-19122D01*
X27691Y-19195D01*
X27786Y-19234D01*
X27907Y-19234D01*
X27971Y-19170D01*
X27971Y-19564D01*
X26683Y-19564D01*
X26658Y-19504D01*
X26535Y-19381D01*
X26374Y-19314D01*
X26200Y-19314D01*
X26039Y-19380D01*
X25916Y-19503D01*
X25849Y-19664D01*
X25849Y-19838D01*
X25916Y-19999D01*
X26004Y-20087D01*
X25888Y-20087D01*
X25700Y-19899D01*
X25725Y-19839D01*
X25725Y-19665D01*
X25658Y-19504D01*
X25535Y-19381D01*
X25374Y-19314D01*
X25202Y-19314D01*
X25416Y-19307D01*
X25588Y-19235D01*
X25614Y-19137D01*
X25287Y-18809D01*
X25281Y-18815D01*
X25223Y-18757D01*
X25229Y-18751D01*
X25223Y-18746D01*
X25281Y-18688D01*
X25287Y-18694D01*
X25614Y-18366D01*
X25601Y-18316D01*
X25953Y-18316D01*
X25909Y-18335D01*
X25870Y-18373D01*
X25849Y-18424D01*
X25849Y-18479D01*
X25849Y-18838D01*
X25842Y-18622D01*
X25771Y-18450D01*
X25672Y-18424D01*
X25345Y-18751D01*
X25672Y-19079D01*
X25771Y-19053D01*
X25849Y-18845D01*
X25849Y-19079D01*
X25870Y-19129D01*
X25909Y-19168D01*
X25959Y-19189D01*
X26014Y-19189D01*
X26614Y-19189D01*
X26665Y-19168D01*
X26704Y-19130D01*
X26725Y-19079D01*
X26725Y-19024D01*
X26725Y-18968D01*
X26949Y-18968D01*
X26949Y-19003D01*
X26970Y-19053D01*
X27009Y-19092D01*
X27060Y-19113D01*
X27115Y-19113D01*
X27465Y-19113D01*
X27515Y-19092D01*
X27554Y-19053D01*
X27575Y-19003D01*
X27575Y-18948D01*
X27575Y-18398D01*
X27554Y-18347D01*
X27523Y-18316D01*
X27602Y-18316D01*
X27578Y-18374D01*
X27578Y-18477D01*
X27578Y-18595D01*
X27643Y-18659D01*
X27971Y-18659D01*
X27971Y-18651D01*
X28053Y-18651D01*
X28053Y-18659D01*
X28382Y-18659D01*
X28446Y-18595D01*
X28446Y-18477D01*
X28446Y-18374D01*
X28423Y-18316D01*
X34370Y-18316D01*
X34060Y-18626D01*
X34020Y-18687D01*
X34005Y-18759D01*
X34005Y-19685D01*
X33912Y-19591D01*
X33851Y-19550D01*
X33779Y-19536D01*
X33463Y-19536D01*
X33431Y-19504D01*
X33444Y-19473D01*
X33444Y-19418D01*
X33444Y-19068D01*
X33423Y-19017D01*
X33384Y-18978D01*
X33334Y-18957D01*
X33279Y-18957D01*
X32729Y-18957D01*
X32678Y-18978D01*
X32639Y-19017D01*
X32618Y-19068D01*
X32618Y-19122D01*
X32618Y-19472D01*
X32639Y-19523D01*
X32678Y-19562D01*
X32728Y-19583D01*
X32783Y-19583D01*
X32979Y-19583D01*
X32990Y-19594D01*
X32990Y-19651D01*
X32925Y-19586D01*
X32807Y-19586D01*
X32704Y-19586D01*
X32609Y-19626D01*
X32536Y-19699D01*
X32497Y-19794D01*
X32497Y-19914D01*
X32562Y-19979D01*
X32990Y-19979D01*
X32990Y-19971D01*
X33072Y-19971D01*
X33072Y-19979D01*
X33080Y-19979D01*
X33080Y-20061D01*
X33072Y-20061D01*
X33072Y-20389D01*
X33137Y-20454D01*
X33255Y-20454D01*
X33358Y-20454D01*
X33453Y-20415D01*
X33512Y-20356D01*
X33555Y-20356D01*
X33490Y-20420D01*
X33490Y-20499D01*
X33490Y-20602D01*
X33530Y-20697D01*
X33603Y-20770D01*
X33698Y-20810D01*
X33709Y-20810D01*
X33740Y-20779D01*
X33740Y-20881D01*
X33781Y-20982D01*
X33827Y-21028D01*
X33827Y-21181D01*
X33842Y-21252D01*
X33882Y-21313D01*
X34094Y-21525D01*
X34094Y-21590D01*
X34136Y-21691D01*
X34213Y-21768D01*
X34315Y-21810D01*
X34424Y-21811D01*
X34525Y-21769D01*
X34603Y-21691D01*
X34645Y-21590D01*
X34645Y-21480D01*
X34603Y-21379D01*
X34526Y-21301D01*
X34425Y-21259D01*
X34360Y-21259D01*
X34203Y-21103D01*
X34203Y-21028D01*
X34249Y-20983D01*
X34291Y-20881D01*
X34291Y-20772D01*
X34256Y-20688D01*
X34270Y-20688D01*
X34292Y-20680D01*
X34313Y-20688D01*
X34367Y-20688D01*
X34467Y-20688D01*
X34489Y-20680D01*
X34510Y-20688D01*
X34564Y-20688D01*
X34664Y-20688D01*
X34685Y-20680D01*
X34706Y-20688D01*
X34760Y-20688D01*
X34860Y-20688D01*
X34882Y-20680D01*
X34903Y-20688D01*
X34957Y-20688D01*
X35057Y-20688D01*
X35079Y-20680D01*
X35100Y-20688D01*
X35154Y-20688D01*
X35177Y-20688D01*
X35177Y-20767D01*
X35579Y-20767D01*
X35579Y-20866D01*
X35535Y-20866D01*
X35434Y-20907D01*
X35357Y-20985D01*
X35315Y-21086D01*
X35314Y-21196D01*
X35356Y-21297D01*
X35434Y-21375D01*
X35535Y-21417D01*
X35645Y-21417D01*
X35746Y-21375D01*
X35787Y-21334D01*
X35827Y-21375D01*
X35929Y-21417D01*
X36038Y-21417D01*
X36140Y-21375D01*
X36181Y-21334D01*
X36221Y-21375D01*
X36225Y-21376D01*
X36223Y-21379D01*
X36181Y-21480D01*
X36181Y-21590D01*
X36222Y-21691D01*
X36300Y-21768D01*
X36336Y-21783D01*
X35748Y-22371D01*
X35123Y-22371D01*
X35077Y-22325D01*
X34976Y-22283D01*
X34866Y-22283D01*
X34765Y-22325D01*
X34687Y-22402D01*
X34645Y-22503D01*
X34645Y-22613D01*
X34687Y-22714D01*
X34764Y-22792D01*
X34866Y-22834D01*
X34975Y-22834D01*
X35077Y-22792D01*
X35123Y-22746D01*
X35826Y-22746D01*
X35850Y-22742D01*
X35521Y-23070D01*
X35457Y-23070D01*
X35355Y-23112D01*
X35278Y-23190D01*
X35236Y-23291D01*
X35236Y-23401D01*
X35278Y-23502D01*
X35355Y-23579D01*
X35456Y-23621D01*
X35566Y-23622D01*
X35667Y-23580D01*
X35745Y-23502D01*
X35787Y-23401D01*
X35787Y-23336D01*
X36480Y-22643D01*
X36456Y-22700D01*
X36456Y-22810D01*
X36480Y-22867D01*
X36458Y-22876D01*
X36380Y-22953D01*
X36338Y-23055D01*
X36338Y-23164D01*
X36380Y-23266D01*
X36457Y-23343D01*
X36559Y-23385D01*
X36668Y-23385D01*
X36770Y-23344D01*
X36847Y-23266D01*
X36859Y-23238D01*
X37066Y-23238D01*
X37066Y-24350D01*
X37066Y-24350D01*
G37*
G54D22*
X37066Y-24350D02*
X36951Y-24350D01*
X36948Y-24347D01*
X36852Y-24307D01*
X36841Y-24308D01*
X36798Y-24350D01*
X36704Y-24350D01*
X36661Y-24308D01*
X36650Y-24307D01*
X36555Y-24347D01*
X36551Y-24350D01*
X34393Y-24350D01*
X34390Y-24347D01*
X34294Y-24307D01*
X34283Y-24308D01*
X34240Y-24350D01*
X34146Y-24350D01*
X34103Y-24308D01*
X34092Y-24307D01*
X33997Y-24347D01*
X33993Y-24350D01*
X33907Y-24350D01*
X33676Y-24119D01*
X33615Y-24078D01*
X33543Y-24064D01*
X33484Y-24064D01*
X33484Y-23643D01*
X33487Y-23640D01*
X33526Y-23545D01*
X33526Y-23533D01*
X33484Y-23491D01*
X33484Y-23396D01*
X33526Y-23354D01*
X33526Y-23342D01*
X33487Y-23247D01*
X33484Y-23244D01*
X33484Y-22485D01*
X33566Y-22519D01*
X33676Y-22519D01*
X33777Y-22477D01*
X33855Y-22400D01*
X33897Y-22299D01*
X33897Y-22189D01*
X33855Y-22088D01*
X33778Y-22010D01*
X33677Y-21968D01*
X33567Y-21968D01*
X33484Y-22002D01*
X33484Y-20964D01*
X33388Y-20964D01*
X33384Y-20955D01*
X33345Y-20916D01*
X33295Y-20895D01*
X33240Y-20895D01*
X32990Y-20895D01*
X32990Y-20389D01*
X32990Y-20061D01*
X32562Y-20061D01*
X32497Y-20126D01*
X32497Y-20246D01*
X32536Y-20342D01*
X32609Y-20415D01*
X32704Y-20454D01*
X32807Y-20454D01*
X32925Y-20454D01*
X32990Y-20389D01*
X32990Y-20895D01*
X32768Y-20895D01*
X32768Y-20895D01*
X32420Y-20895D01*
X32156Y-20630D01*
X32156Y-19685D01*
X32142Y-19613D01*
X32142Y-19613D01*
X32101Y-19552D01*
X32101Y-19552D01*
X31471Y-18922D01*
X31410Y-18881D01*
X31338Y-18867D01*
X29133Y-18867D01*
X29061Y-18881D01*
X29001Y-18922D01*
X28446Y-19476D01*
X28446Y-18924D01*
X28446Y-18806D01*
X28382Y-18741D01*
X28053Y-18741D01*
X28053Y-19170D01*
X28118Y-19234D01*
X28239Y-19234D01*
X28334Y-19195D01*
X28407Y-19122D01*
X28446Y-19027D01*
X28446Y-18924D01*
X28446Y-19476D01*
X28359Y-19564D01*
X27971Y-19564D01*
X27971Y-19170D01*
X27971Y-18741D01*
X27643Y-18741D01*
X27578Y-18806D01*
X27578Y-18924D01*
X27578Y-19027D01*
X27618Y-19122D01*
X27691Y-19195D01*
X27786Y-19234D01*
X27907Y-19234D01*
X27971Y-19170D01*
X27971Y-19564D01*
X26683Y-19564D01*
X26658Y-19504D01*
X26535Y-19381D01*
X26374Y-19314D01*
X26200Y-19314D01*
X26039Y-19380D01*
X25916Y-19503D01*
X25849Y-19664D01*
X25849Y-19838D01*
X25916Y-19999D01*
X26004Y-20087D01*
X25888Y-20087D01*
X25700Y-19899D01*
X25725Y-19839D01*
X25725Y-19665D01*
X25658Y-19504D01*
X25535Y-19381D01*
X25374Y-19314D01*
X25202Y-19314D01*
X25416Y-19307D01*
X25588Y-19235D01*
X25614Y-19137D01*
X25287Y-18809D01*
X25281Y-18815D01*
X25223Y-18757D01*
X25229Y-18751D01*
X25223Y-18746D01*
X25281Y-18688D01*
X25287Y-18694D01*
X25614Y-18366D01*
X25601Y-18316D01*
X25953Y-18316D01*
X25909Y-18335D01*
X25870Y-18373D01*
X25849Y-18424D01*
X25849Y-18479D01*
X25849Y-18838D01*
X25842Y-18622D01*
X25771Y-18450D01*
X25672Y-18424D01*
X25345Y-18751D01*
X25672Y-19079D01*
X25771Y-19053D01*
X25849Y-18845D01*
X25849Y-19079D01*
X25870Y-19129D01*
X25909Y-19168D01*
X25959Y-19189D01*
X26014Y-19189D01*
X26614Y-19189D01*
X26665Y-19168D01*
X26704Y-19130D01*
X26725Y-19079D01*
X26725Y-19024D01*
X26725Y-18968D01*
X26949Y-18968D01*
X26949Y-19003D01*
X26970Y-19053D01*
X27009Y-19092D01*
X27060Y-19113D01*
X27115Y-19113D01*
X27465Y-19113D01*
X27515Y-19092D01*
X27554Y-19053D01*
X27575Y-19003D01*
X27575Y-18948D01*
X27575Y-18398D01*
X27554Y-18347D01*
X27523Y-18316D01*
X27602Y-18316D01*
X27578Y-18374D01*
X27578Y-18477D01*
X27578Y-18595D01*
X27643Y-18659D01*
X27971Y-18659D01*
X27971Y-18651D01*
X28053Y-18651D01*
X28053Y-18659D01*
X28382Y-18659D01*
X28446Y-18595D01*
X28446Y-18477D01*
X28446Y-18374D01*
X28423Y-18316D01*
X34370Y-18316D01*
X34060Y-18626D01*
X34020Y-18687D01*
X34005Y-18759D01*
X34005Y-19685D01*
X33912Y-19591D01*
X33851Y-19550D01*
X33779Y-19536D01*
X33463Y-19536D01*
X33431Y-19504D01*
X33444Y-19473D01*
X33444Y-19418D01*
X33444Y-19068D01*
X33423Y-19017D01*
X33384Y-18978D01*
X33334Y-18957D01*
X33279Y-18957D01*
X32729Y-18957D01*
X32678Y-18978D01*
X32639Y-19017D01*
X32618Y-19068D01*
X32618Y-19122D01*
X32618Y-19472D01*
X32639Y-19523D01*
X32678Y-19562D01*
X32728Y-19583D01*
X32783Y-19583D01*
X32979Y-19583D01*
X32990Y-19594D01*
X32990Y-19651D01*
X32925Y-19586D01*
X32807Y-19586D01*
X32704Y-19586D01*
X32609Y-19626D01*
X32536Y-19699D01*
X32497Y-19794D01*
X32497Y-19914D01*
X32562Y-19979D01*
X32990Y-19979D01*
X32990Y-19971D01*
X33072Y-19971D01*
X33072Y-19979D01*
X33080Y-19979D01*
X33080Y-20061D01*
X33072Y-20061D01*
X33072Y-20389D01*
X33137Y-20454D01*
X33255Y-20454D01*
X33358Y-20454D01*
X33453Y-20415D01*
X33512Y-20356D01*
X33555Y-20356D01*
X33490Y-20420D01*
X33490Y-20499D01*
X33490Y-20602D01*
X33530Y-20697D01*
X33603Y-20770D01*
X33698Y-20810D01*
X33709Y-20810D01*
X33740Y-20779D01*
X33740Y-20881D01*
X33781Y-20982D01*
X33827Y-21028D01*
X33827Y-21181D01*
X33842Y-21252D01*
X33882Y-21313D01*
X34094Y-21525D01*
X34094Y-21590D01*
X34136Y-21691D01*
X34213Y-21768D01*
X34315Y-21810D01*
X34424Y-21811D01*
X34525Y-21769D01*
X34603Y-21691D01*
X34645Y-21590D01*
X34645Y-21480D01*
X34603Y-21379D01*
X34526Y-21301D01*
X34425Y-21259D01*
X34360Y-21259D01*
X34203Y-21103D01*
X34203Y-21028D01*
X34249Y-20983D01*
X34291Y-20881D01*
X34291Y-20772D01*
X34256Y-20688D01*
X34270Y-20688D01*
X34292Y-20680D01*
X34313Y-20688D01*
X34367Y-20688D01*
X34467Y-20688D01*
X34489Y-20680D01*
X34510Y-20688D01*
X34564Y-20688D01*
X34664Y-20688D01*
X34685Y-20680D01*
X34706Y-20688D01*
X34760Y-20688D01*
X34860Y-20688D01*
X34882Y-20680D01*
X34903Y-20688D01*
X34957Y-20688D01*
X35057Y-20688D01*
X35079Y-20680D01*
X35100Y-20688D01*
X35154Y-20688D01*
X35177Y-20688D01*
X35177Y-20767D01*
X35579Y-20767D01*
X35579Y-20866D01*
X35535Y-20866D01*
X35434Y-20907D01*
X35357Y-20985D01*
X35315Y-21086D01*
X35314Y-21196D01*
X35356Y-21297D01*
X35434Y-21375D01*
X35535Y-21417D01*
X35645Y-21417D01*
X35746Y-21375D01*
X35787Y-21334D01*
X35827Y-21375D01*
X35929Y-21417D01*
X36038Y-21417D01*
X36140Y-21375D01*
X36181Y-21334D01*
X36221Y-21375D01*
X36225Y-21376D01*
X36223Y-21379D01*
X36181Y-21480D01*
X36181Y-21590D01*
X36222Y-21691D01*
X36300Y-21768D01*
X36336Y-21783D01*
X35748Y-22371D01*
X35123Y-22371D01*
X35077Y-22325D01*
X34976Y-22283D01*
X34866Y-22283D01*
X34765Y-22325D01*
X34687Y-22402D01*
X34645Y-22503D01*
X34645Y-22613D01*
X34687Y-22714D01*
X34764Y-22792D01*
X34866Y-22834D01*
X34975Y-22834D01*
X35077Y-22792D01*
X35123Y-22746D01*
X35826Y-22746D01*
X35850Y-22742D01*
X35521Y-23070D01*
X35457Y-23070D01*
X35355Y-23112D01*
X35278Y-23190D01*
X35236Y-23291D01*
X35236Y-23401D01*
X35278Y-23502D01*
X35355Y-23579D01*
X35456Y-23621D01*
X35566Y-23622D01*
X35667Y-23580D01*
X35745Y-23502D01*
X35787Y-23401D01*
X35787Y-23336D01*
X36480Y-22643D01*
X36456Y-22700D01*
X36456Y-22810D01*
X36480Y-22867D01*
X36458Y-22876D01*
X36380Y-22953D01*
X36338Y-23055D01*
X36338Y-23164D01*
X36380Y-23266D01*
X36457Y-23343D01*
X36559Y-23385D01*
X36668Y-23385D01*
X36770Y-23344D01*
X36847Y-23266D01*
X36859Y-23238D01*
X37066Y-23238D01*
X37066Y-24350D01*
M02*
