G04 (created by PCBNEW (2013-may-18)-stable) date Вс 15 ноя 2015 18:53:40*
%MOIN*%
G04 Gerber Fmt 3.4, Leading zero omitted, Abs format*
%FSLAX34Y34*%
G01*
G70*
G90*
G04 APERTURE LIST*
%ADD10C,0.00590551*%
%ADD11C,0.00984252*%
%ADD12C,0.0039*%
%ADD13C,0.0026*%
%ADD14C,0.008*%
%ADD15C,0.005*%
%ADD16C,0.0043*%
G04 APERTURE END LIST*
G54D10*
G54D11*
X34401Y-22384D02*
X34439Y-22403D01*
X34514Y-22403D01*
X34551Y-22384D01*
X34570Y-22347D01*
X34570Y-22328D01*
X34551Y-22290D01*
X34514Y-22272D01*
X34458Y-22272D01*
X34420Y-22253D01*
X34401Y-22215D01*
X34401Y-22197D01*
X34420Y-22159D01*
X34458Y-22140D01*
X34514Y-22140D01*
X34551Y-22159D01*
X34683Y-22140D02*
X34833Y-22140D01*
X34739Y-22009D02*
X34739Y-22347D01*
X34758Y-22384D01*
X34795Y-22403D01*
X34833Y-22403D01*
X34964Y-22403D02*
X34964Y-22140D01*
X34964Y-22178D02*
X34983Y-22159D01*
X35020Y-22140D01*
X35076Y-22140D01*
X35114Y-22159D01*
X35133Y-22197D01*
X35133Y-22403D01*
X35133Y-22197D02*
X35151Y-22159D01*
X35189Y-22140D01*
X35245Y-22140D01*
X35283Y-22159D01*
X35301Y-22197D01*
X35301Y-22403D01*
X35451Y-22009D02*
X35695Y-22009D01*
X35564Y-22159D01*
X35620Y-22159D01*
X35658Y-22178D01*
X35676Y-22197D01*
X35695Y-22234D01*
X35695Y-22328D01*
X35676Y-22365D01*
X35658Y-22384D01*
X35620Y-22403D01*
X35508Y-22403D01*
X35470Y-22384D01*
X35451Y-22365D01*
X35845Y-22047D02*
X35864Y-22028D01*
X35901Y-22009D01*
X35995Y-22009D01*
X36032Y-22028D01*
X36051Y-22047D01*
X36070Y-22084D01*
X36070Y-22122D01*
X36051Y-22178D01*
X35826Y-22403D01*
X36070Y-22403D01*
X34008Y-22790D02*
X34158Y-22790D01*
X34064Y-23053D02*
X34064Y-22715D01*
X34083Y-22678D01*
X34120Y-22659D01*
X34158Y-22659D01*
X34495Y-23053D02*
X34270Y-23053D01*
X34383Y-23053D02*
X34383Y-22659D01*
X34345Y-22715D01*
X34308Y-22753D01*
X34270Y-22771D01*
X34739Y-22659D02*
X34776Y-22659D01*
X34814Y-22678D01*
X34833Y-22696D01*
X34851Y-22734D01*
X34870Y-22809D01*
X34870Y-22903D01*
X34851Y-22978D01*
X34833Y-23015D01*
X34814Y-23034D01*
X34776Y-23053D01*
X34739Y-23053D01*
X34701Y-23034D01*
X34683Y-23015D01*
X34664Y-22978D01*
X34645Y-22903D01*
X34645Y-22809D01*
X34664Y-22734D01*
X34683Y-22696D01*
X34701Y-22678D01*
X34739Y-22659D01*
X35001Y-22659D02*
X35245Y-22659D01*
X35114Y-22809D01*
X35170Y-22809D01*
X35208Y-22828D01*
X35226Y-22846D01*
X35245Y-22884D01*
X35245Y-22978D01*
X35226Y-23015D01*
X35208Y-23034D01*
X35170Y-23053D01*
X35058Y-23053D01*
X35020Y-23034D01*
X35001Y-23015D01*
X35414Y-23053D02*
X35414Y-22790D01*
X35414Y-22865D02*
X35433Y-22828D01*
X35451Y-22809D01*
X35489Y-22790D01*
X35526Y-22790D01*
X35808Y-23034D02*
X35770Y-23053D01*
X35695Y-23053D01*
X35658Y-23034D01*
X35639Y-22996D01*
X35639Y-22846D01*
X35658Y-22809D01*
X35695Y-22790D01*
X35770Y-22790D01*
X35808Y-22809D01*
X35826Y-22846D01*
X35826Y-22884D01*
X35639Y-22921D01*
X35939Y-22790D02*
X36089Y-22790D01*
X35995Y-22659D02*
X35995Y-22996D01*
X36014Y-23034D01*
X36051Y-23053D01*
X36089Y-23053D01*
X36389Y-22659D02*
X36314Y-22659D01*
X36276Y-22678D01*
X36257Y-22696D01*
X36220Y-22753D01*
X36201Y-22828D01*
X36201Y-22978D01*
X36220Y-23015D01*
X36239Y-23034D01*
X36276Y-23053D01*
X36351Y-23053D01*
X36389Y-23034D01*
X36407Y-23015D01*
X36426Y-22978D01*
X36426Y-22884D01*
X36407Y-22846D01*
X36389Y-22828D01*
X36351Y-22809D01*
X36276Y-22809D01*
X36239Y-22828D01*
X36220Y-22846D01*
X36201Y-22884D01*
G54D12*
X28259Y-18322D02*
G75*
G03X28259Y-18322I-50J0D01*
G74*
G01*
X27759Y-18322D02*
X28159Y-18322D01*
X28159Y-18322D02*
X28159Y-18922D01*
X28159Y-18922D02*
X27759Y-18922D01*
X27359Y-18922D02*
X26959Y-18922D01*
X26959Y-18922D02*
X26959Y-18322D01*
X26959Y-18322D02*
X27359Y-18322D01*
X29281Y-20733D02*
G75*
G03X29281Y-20733I-50J0D01*
G74*
G01*
X29681Y-20733D02*
X29281Y-20733D01*
X29281Y-20733D02*
X29281Y-20133D01*
X29281Y-20133D02*
X29681Y-20133D01*
X30081Y-20133D02*
X30481Y-20133D01*
X30481Y-20133D02*
X30481Y-20733D01*
X30481Y-20733D02*
X30081Y-20733D01*
X29281Y-19827D02*
G75*
G03X29281Y-19827I-50J0D01*
G74*
G01*
X29681Y-19827D02*
X29281Y-19827D01*
X29281Y-19827D02*
X29281Y-19227D01*
X29281Y-19227D02*
X29681Y-19227D01*
X30081Y-19227D02*
X30481Y-19227D01*
X30481Y-19227D02*
X30481Y-19827D01*
X30481Y-19827D02*
X30081Y-19827D01*
X28490Y-20216D02*
G75*
G03X28490Y-20216I-50J0D01*
G74*
G01*
X28440Y-20666D02*
X28440Y-20266D01*
X28440Y-20266D02*
X29040Y-20266D01*
X29040Y-20266D02*
X29040Y-20666D01*
X29040Y-21066D02*
X29040Y-21466D01*
X29040Y-21466D02*
X28440Y-21466D01*
X28440Y-21466D02*
X28440Y-21066D01*
X29281Y-21520D02*
G75*
G03X29281Y-21520I-50J0D01*
G74*
G01*
X29681Y-21520D02*
X29281Y-21520D01*
X29281Y-21520D02*
X29281Y-20920D01*
X29281Y-20920D02*
X29681Y-20920D01*
X30081Y-20920D02*
X30481Y-20920D01*
X30481Y-20920D02*
X30481Y-21520D01*
X30481Y-21520D02*
X30081Y-21520D01*
X33381Y-20295D02*
G75*
G03X33381Y-20295I-50J0D01*
G74*
G01*
X33331Y-19845D02*
X33331Y-20245D01*
X33331Y-20245D02*
X32731Y-20245D01*
X32731Y-20245D02*
X32731Y-19845D01*
X32731Y-19445D02*
X32731Y-19045D01*
X32731Y-19045D02*
X33331Y-19045D01*
X33331Y-19045D02*
X33331Y-19445D01*
X37431Y-25221D02*
G75*
G03X37431Y-25221I-50J0D01*
G74*
G01*
X37831Y-25221D02*
X37431Y-25221D01*
X37431Y-25221D02*
X37431Y-24621D01*
X37431Y-24621D02*
X37831Y-24621D01*
X38231Y-24621D02*
X38631Y-24621D01*
X38631Y-24621D02*
X38631Y-25221D01*
X38631Y-25221D02*
X38231Y-25221D01*
X31959Y-25181D02*
G75*
G03X31959Y-25181I-50J0D01*
G74*
G01*
X32359Y-25181D02*
X31959Y-25181D01*
X31959Y-25181D02*
X31959Y-24581D01*
X31959Y-24581D02*
X32359Y-24581D01*
X32759Y-24581D02*
X33159Y-24581D01*
X33159Y-24581D02*
X33159Y-25181D01*
X33159Y-25181D02*
X32759Y-25181D01*
X38332Y-20255D02*
G75*
G03X38332Y-20255I-50J0D01*
G74*
G01*
X38282Y-20705D02*
X38282Y-20305D01*
X38282Y-20305D02*
X38882Y-20305D01*
X38882Y-20305D02*
X38882Y-20705D01*
X38882Y-21105D02*
X38882Y-21505D01*
X38882Y-21505D02*
X38282Y-21505D01*
X38282Y-21505D02*
X38282Y-21105D01*
G54D13*
X33386Y-21122D02*
X33386Y-21044D01*
X33386Y-21319D02*
X33386Y-21241D01*
X33386Y-21516D02*
X33386Y-21437D01*
X33386Y-21713D02*
X33386Y-21634D01*
X33386Y-21910D02*
X33386Y-21831D01*
X33386Y-22107D02*
X33386Y-22028D01*
X33386Y-22304D02*
X33386Y-22225D01*
X33386Y-22500D02*
X33386Y-22422D01*
X33386Y-22696D02*
X33386Y-22618D01*
X33386Y-22893D02*
X33386Y-22814D01*
X33386Y-23090D02*
X33386Y-23011D01*
X33386Y-23287D02*
X33386Y-23208D01*
X33386Y-23484D02*
X33386Y-23405D01*
X33386Y-23681D02*
X33386Y-23602D01*
X33386Y-23877D02*
X33386Y-23799D01*
X33386Y-24074D02*
X33386Y-23996D01*
X33760Y-24448D02*
X33838Y-24448D01*
X33957Y-24448D02*
X34035Y-24448D01*
X34153Y-24448D02*
X34232Y-24448D01*
X34350Y-24448D02*
X34429Y-24448D01*
X34547Y-24448D02*
X34626Y-24448D01*
X34744Y-24448D02*
X34823Y-24448D01*
X34941Y-24448D02*
X35020Y-24448D01*
X35138Y-24448D02*
X35216Y-24448D01*
X35334Y-24448D02*
X35412Y-24448D01*
X35530Y-24448D02*
X35609Y-24448D01*
X35727Y-24448D02*
X35806Y-24448D01*
X35924Y-24448D02*
X36003Y-24448D01*
X36121Y-24448D02*
X36200Y-24448D01*
X36318Y-24448D02*
X36397Y-24448D01*
X36515Y-24448D02*
X36593Y-24448D01*
X36712Y-24448D02*
X36790Y-24448D01*
X37164Y-24074D02*
X37164Y-23996D01*
X37164Y-23877D02*
X37164Y-23799D01*
X37164Y-23681D02*
X37164Y-23602D01*
X37164Y-23484D02*
X37164Y-23405D01*
X37164Y-23287D02*
X37164Y-23208D01*
X37164Y-23090D02*
X37164Y-23011D01*
X37164Y-22893D02*
X37164Y-22814D01*
X37164Y-22696D02*
X37164Y-22618D01*
X37164Y-22500D02*
X37164Y-22422D01*
X37164Y-22304D02*
X37164Y-22225D01*
X37164Y-22107D02*
X37164Y-22028D01*
X37164Y-21910D02*
X37164Y-21831D01*
X37164Y-21713D02*
X37164Y-21634D01*
X37164Y-21516D02*
X37164Y-21437D01*
X37164Y-21319D02*
X37164Y-21241D01*
X37164Y-21122D02*
X37164Y-21044D01*
X36712Y-20670D02*
X36790Y-20670D01*
X36515Y-20670D02*
X36593Y-20670D01*
X36318Y-20670D02*
X36397Y-20670D01*
X36121Y-20670D02*
X36200Y-20670D01*
X35924Y-20670D02*
X36003Y-20670D01*
X35727Y-20670D02*
X35806Y-20670D01*
X35530Y-20670D02*
X35609Y-20670D01*
X35334Y-20670D02*
X35412Y-20670D01*
X35138Y-20670D02*
X35216Y-20670D01*
X34941Y-20670D02*
X35020Y-20670D01*
X34744Y-20670D02*
X34823Y-20670D01*
X34547Y-20670D02*
X34626Y-20670D01*
X34350Y-20670D02*
X34429Y-20670D01*
X34153Y-20670D02*
X34232Y-20670D01*
X33957Y-20670D02*
X34035Y-20670D01*
X33760Y-20670D02*
X33838Y-20670D01*
G54D14*
X33386Y-20827D02*
X33543Y-20670D01*
X33543Y-20670D02*
X37007Y-20670D01*
X37007Y-20670D02*
X37164Y-20827D01*
X37164Y-20827D02*
X37164Y-24291D01*
X37164Y-24291D02*
X37007Y-24448D01*
X37007Y-24448D02*
X33543Y-24448D01*
X33543Y-24448D02*
X33386Y-24291D01*
X33386Y-24291D02*
X33386Y-20827D01*
G54D15*
X33779Y-20985D02*
G75*
G03X33779Y-20985I-77J0D01*
G74*
G01*
G54D12*
X26959Y-19630D02*
G75*
G03X26959Y-19630I-50J0D01*
G74*
G01*
X27359Y-19630D02*
X26959Y-19630D01*
X26959Y-19630D02*
X26959Y-19030D01*
X26959Y-19030D02*
X27359Y-19030D01*
X27759Y-19030D02*
X28159Y-19030D01*
X28159Y-19030D02*
X28159Y-19630D01*
X28159Y-19630D02*
X27759Y-19630D01*
G54D16*
X28431Y-18486D02*
X28422Y-18495D01*
X28394Y-18504D01*
X28375Y-18504D01*
X28347Y-18495D01*
X28328Y-18476D01*
X28319Y-18458D01*
X28309Y-18420D01*
X28309Y-18392D01*
X28319Y-18354D01*
X28328Y-18336D01*
X28347Y-18317D01*
X28375Y-18307D01*
X28394Y-18307D01*
X28422Y-18317D01*
X28431Y-18326D01*
X28600Y-18307D02*
X28563Y-18307D01*
X28544Y-18317D01*
X28534Y-18326D01*
X28516Y-18354D01*
X28506Y-18392D01*
X28506Y-18467D01*
X28516Y-18486D01*
X28525Y-18495D01*
X28544Y-18504D01*
X28581Y-18504D01*
X28600Y-18495D01*
X28609Y-18486D01*
X28619Y-18467D01*
X28619Y-18420D01*
X28609Y-18401D01*
X28600Y-18392D01*
X28581Y-18382D01*
X28544Y-18382D01*
X28525Y-18392D01*
X28516Y-18401D01*
X28506Y-18420D01*
X28377Y-18583D02*
X28395Y-18583D01*
X28414Y-18592D01*
X28424Y-18602D01*
X28433Y-18621D01*
X28442Y-18658D01*
X28442Y-18705D01*
X28433Y-18743D01*
X28424Y-18761D01*
X28414Y-18771D01*
X28395Y-18780D01*
X28377Y-18780D01*
X28358Y-18771D01*
X28349Y-18761D01*
X28339Y-18743D01*
X28330Y-18705D01*
X28330Y-18658D01*
X28339Y-18621D01*
X28349Y-18602D01*
X28358Y-18592D01*
X28377Y-18583D01*
X28527Y-18761D02*
X28536Y-18771D01*
X28527Y-18780D01*
X28517Y-18771D01*
X28527Y-18761D01*
X28527Y-18780D01*
X28724Y-18780D02*
X28611Y-18780D01*
X28667Y-18780D02*
X28667Y-18583D01*
X28649Y-18611D01*
X28630Y-18630D01*
X28611Y-18639D01*
X28893Y-18649D02*
X28893Y-18780D01*
X28808Y-18649D02*
X28808Y-18752D01*
X28818Y-18771D01*
X28836Y-18780D01*
X28864Y-18780D01*
X28883Y-18771D01*
X28893Y-18761D01*
X29052Y-18677D02*
X28986Y-18677D01*
X28986Y-18780D02*
X28986Y-18583D01*
X29080Y-18583D01*
X30636Y-20651D02*
X30627Y-20660D01*
X30598Y-20670D01*
X30580Y-20670D01*
X30552Y-20660D01*
X30533Y-20642D01*
X30523Y-20623D01*
X30514Y-20585D01*
X30514Y-20557D01*
X30523Y-20520D01*
X30533Y-20501D01*
X30552Y-20482D01*
X30580Y-20473D01*
X30598Y-20473D01*
X30627Y-20482D01*
X30636Y-20492D01*
X30702Y-20473D02*
X30824Y-20473D01*
X30758Y-20548D01*
X30786Y-20548D01*
X30805Y-20557D01*
X30814Y-20567D01*
X30824Y-20585D01*
X30824Y-20632D01*
X30814Y-20651D01*
X30805Y-20660D01*
X30786Y-20670D01*
X30730Y-20670D01*
X30711Y-20660D01*
X30702Y-20651D01*
X30660Y-20925D02*
X30669Y-20915D01*
X30688Y-20906D01*
X30735Y-20906D01*
X30754Y-20915D01*
X30763Y-20925D01*
X30773Y-20943D01*
X30773Y-20962D01*
X30763Y-20990D01*
X30651Y-21103D01*
X30773Y-21103D01*
X30895Y-20906D02*
X30913Y-20906D01*
X30932Y-20915D01*
X30942Y-20925D01*
X30951Y-20943D01*
X30960Y-20981D01*
X30960Y-21028D01*
X30951Y-21065D01*
X30942Y-21084D01*
X30932Y-21093D01*
X30913Y-21103D01*
X30895Y-21103D01*
X30876Y-21093D01*
X30866Y-21084D01*
X30857Y-21065D01*
X30848Y-21028D01*
X30848Y-20981D01*
X30857Y-20943D01*
X30866Y-20925D01*
X30876Y-20915D01*
X30895Y-20906D01*
X31045Y-20972D02*
X31045Y-21169D01*
X31045Y-20981D02*
X31063Y-20972D01*
X31101Y-20972D01*
X31120Y-20981D01*
X31129Y-20990D01*
X31139Y-21009D01*
X31139Y-21065D01*
X31129Y-21084D01*
X31120Y-21093D01*
X31101Y-21103D01*
X31063Y-21103D01*
X31045Y-21093D01*
X31289Y-21000D02*
X31223Y-21000D01*
X31223Y-21103D02*
X31223Y-20906D01*
X31317Y-20906D01*
X29849Y-18761D02*
X29839Y-18771D01*
X29811Y-18780D01*
X29792Y-18780D01*
X29764Y-18771D01*
X29745Y-18752D01*
X29736Y-18733D01*
X29727Y-18696D01*
X29727Y-18667D01*
X29736Y-18630D01*
X29745Y-18611D01*
X29764Y-18592D01*
X29792Y-18583D01*
X29811Y-18583D01*
X29839Y-18592D01*
X29849Y-18602D01*
X29924Y-18602D02*
X29933Y-18592D01*
X29952Y-18583D01*
X29999Y-18583D01*
X30017Y-18592D01*
X30027Y-18602D01*
X30036Y-18621D01*
X30036Y-18639D01*
X30027Y-18667D01*
X29914Y-18780D01*
X30036Y-18780D01*
X29558Y-18917D02*
X29567Y-18907D01*
X29586Y-18898D01*
X29633Y-18898D01*
X29652Y-18907D01*
X29661Y-18917D01*
X29670Y-18936D01*
X29670Y-18954D01*
X29661Y-18982D01*
X29548Y-19095D01*
X29670Y-19095D01*
X29792Y-18898D02*
X29811Y-18898D01*
X29830Y-18907D01*
X29839Y-18917D01*
X29849Y-18936D01*
X29858Y-18973D01*
X29858Y-19020D01*
X29849Y-19057D01*
X29839Y-19076D01*
X29830Y-19086D01*
X29811Y-19095D01*
X29792Y-19095D01*
X29774Y-19086D01*
X29764Y-19076D01*
X29755Y-19057D01*
X29745Y-19020D01*
X29745Y-18973D01*
X29755Y-18936D01*
X29764Y-18917D01*
X29774Y-18907D01*
X29792Y-18898D01*
X29942Y-18964D02*
X29942Y-19161D01*
X29942Y-18973D02*
X29961Y-18964D01*
X29999Y-18964D01*
X30017Y-18973D01*
X30027Y-18982D01*
X30036Y-19001D01*
X30036Y-19057D01*
X30027Y-19076D01*
X30017Y-19086D01*
X29999Y-19095D01*
X29961Y-19095D01*
X29942Y-19086D01*
X30186Y-18992D02*
X30121Y-18992D01*
X30121Y-19095D02*
X30121Y-18898D01*
X30214Y-18898D01*
X27934Y-20898D02*
X27944Y-20908D01*
X27953Y-20936D01*
X27953Y-20955D01*
X27944Y-20983D01*
X27925Y-21002D01*
X27906Y-21011D01*
X27869Y-21020D01*
X27841Y-21020D01*
X27803Y-21011D01*
X27784Y-21002D01*
X27766Y-20983D01*
X27756Y-20955D01*
X27756Y-20936D01*
X27766Y-20908D01*
X27775Y-20898D01*
X27756Y-20720D02*
X27756Y-20814D01*
X27850Y-20823D01*
X27841Y-20814D01*
X27831Y-20795D01*
X27831Y-20748D01*
X27841Y-20730D01*
X27850Y-20720D01*
X27869Y-20711D01*
X27916Y-20711D01*
X27934Y-20720D01*
X27944Y-20730D01*
X27953Y-20748D01*
X27953Y-20795D01*
X27944Y-20814D01*
X27934Y-20823D01*
X28129Y-21189D02*
X28120Y-21180D01*
X28111Y-21161D01*
X28111Y-21114D01*
X28120Y-21095D01*
X28129Y-21086D01*
X28148Y-21077D01*
X28167Y-21077D01*
X28195Y-21086D01*
X28308Y-21199D01*
X28308Y-21077D01*
X28111Y-20955D02*
X28111Y-20936D01*
X28120Y-20917D01*
X28129Y-20908D01*
X28148Y-20898D01*
X28186Y-20889D01*
X28233Y-20889D01*
X28270Y-20898D01*
X28289Y-20908D01*
X28298Y-20917D01*
X28308Y-20936D01*
X28308Y-20955D01*
X28298Y-20974D01*
X28289Y-20983D01*
X28270Y-20992D01*
X28233Y-21002D01*
X28186Y-21002D01*
X28148Y-20992D01*
X28129Y-20983D01*
X28120Y-20974D01*
X28111Y-20955D01*
X28176Y-20805D02*
X28373Y-20805D01*
X28186Y-20805D02*
X28176Y-20786D01*
X28176Y-20748D01*
X28186Y-20730D01*
X28195Y-20720D01*
X28214Y-20711D01*
X28270Y-20711D01*
X28289Y-20720D01*
X28298Y-20730D01*
X28308Y-20748D01*
X28308Y-20786D01*
X28298Y-20805D01*
X28204Y-20561D02*
X28204Y-20626D01*
X28308Y-20626D02*
X28111Y-20626D01*
X28111Y-20533D01*
X29849Y-21793D02*
X29839Y-21802D01*
X29811Y-21812D01*
X29792Y-21812D01*
X29764Y-21802D01*
X29745Y-21783D01*
X29736Y-21765D01*
X29727Y-21727D01*
X29727Y-21699D01*
X29736Y-21661D01*
X29745Y-21643D01*
X29764Y-21624D01*
X29792Y-21615D01*
X29811Y-21615D01*
X29839Y-21624D01*
X29849Y-21633D01*
X30017Y-21680D02*
X30017Y-21812D01*
X29971Y-21605D02*
X29924Y-21746D01*
X30046Y-21746D01*
X29558Y-21948D02*
X29567Y-21939D01*
X29586Y-21929D01*
X29633Y-21929D01*
X29652Y-21939D01*
X29661Y-21948D01*
X29670Y-21967D01*
X29670Y-21986D01*
X29661Y-22014D01*
X29548Y-22126D01*
X29670Y-22126D01*
X29792Y-21929D02*
X29811Y-21929D01*
X29830Y-21939D01*
X29839Y-21948D01*
X29849Y-21967D01*
X29858Y-22005D01*
X29858Y-22051D01*
X29849Y-22089D01*
X29839Y-22108D01*
X29830Y-22117D01*
X29811Y-22126D01*
X29792Y-22126D01*
X29774Y-22117D01*
X29764Y-22108D01*
X29755Y-22089D01*
X29745Y-22051D01*
X29745Y-22005D01*
X29755Y-21967D01*
X29764Y-21948D01*
X29774Y-21939D01*
X29792Y-21929D01*
X29942Y-21995D02*
X29942Y-22192D01*
X29942Y-22005D02*
X29961Y-21995D01*
X29999Y-21995D01*
X30017Y-22005D01*
X30027Y-22014D01*
X30036Y-22033D01*
X30036Y-22089D01*
X30027Y-22108D01*
X30017Y-22117D01*
X29999Y-22126D01*
X29961Y-22126D01*
X29942Y-22117D01*
X30186Y-22023D02*
X30121Y-22023D01*
X30121Y-22126D02*
X30121Y-21929D01*
X30214Y-21929D01*
X32186Y-19772D02*
X32196Y-19781D01*
X32205Y-19809D01*
X32205Y-19828D01*
X32196Y-19856D01*
X32177Y-19875D01*
X32158Y-19884D01*
X32121Y-19894D01*
X32093Y-19894D01*
X32055Y-19884D01*
X32036Y-19875D01*
X32018Y-19856D01*
X32008Y-19828D01*
X32008Y-19809D01*
X32018Y-19781D01*
X32027Y-19772D01*
X32205Y-19584D02*
X32205Y-19697D01*
X32205Y-19640D02*
X32008Y-19640D01*
X32036Y-19659D01*
X32055Y-19678D01*
X32065Y-19697D01*
X32008Y-19462D02*
X32008Y-19443D01*
X32018Y-19425D01*
X32027Y-19415D01*
X32046Y-19406D01*
X32083Y-19397D01*
X32130Y-19397D01*
X32168Y-19406D01*
X32186Y-19415D01*
X32196Y-19425D01*
X32205Y-19443D01*
X32205Y-19462D01*
X32196Y-19481D01*
X32186Y-19490D01*
X32168Y-19500D01*
X32130Y-19509D01*
X32083Y-19509D01*
X32046Y-19500D01*
X32027Y-19490D01*
X32018Y-19481D01*
X32008Y-19462D01*
X32363Y-19969D02*
X32363Y-19950D01*
X32372Y-19931D01*
X32381Y-19922D01*
X32400Y-19913D01*
X32438Y-19903D01*
X32485Y-19903D01*
X32522Y-19913D01*
X32541Y-19922D01*
X32550Y-19931D01*
X32560Y-19950D01*
X32560Y-19969D01*
X32550Y-19988D01*
X32541Y-19997D01*
X32522Y-20006D01*
X32485Y-20016D01*
X32438Y-20016D01*
X32400Y-20006D01*
X32381Y-19997D01*
X32372Y-19988D01*
X32363Y-19969D01*
X32541Y-19819D02*
X32550Y-19809D01*
X32560Y-19819D01*
X32550Y-19828D01*
X32541Y-19819D01*
X32560Y-19819D01*
X32560Y-19622D02*
X32560Y-19734D01*
X32560Y-19678D02*
X32363Y-19678D01*
X32391Y-19697D01*
X32409Y-19716D01*
X32419Y-19734D01*
X32428Y-19453D02*
X32560Y-19453D01*
X32428Y-19537D02*
X32531Y-19537D01*
X32550Y-19528D01*
X32560Y-19509D01*
X32560Y-19481D01*
X32550Y-19462D01*
X32541Y-19453D01*
X32456Y-19293D02*
X32456Y-19359D01*
X32560Y-19359D02*
X32363Y-19359D01*
X32363Y-19265D01*
X37998Y-25494D02*
X37989Y-25503D01*
X37961Y-25512D01*
X37942Y-25512D01*
X37914Y-25503D01*
X37895Y-25484D01*
X37886Y-25465D01*
X37876Y-25428D01*
X37876Y-25400D01*
X37886Y-25362D01*
X37895Y-25343D01*
X37914Y-25325D01*
X37942Y-25315D01*
X37961Y-25315D01*
X37989Y-25325D01*
X37998Y-25334D01*
X38092Y-25512D02*
X38129Y-25512D01*
X38148Y-25503D01*
X38158Y-25494D01*
X38176Y-25465D01*
X38186Y-25428D01*
X38186Y-25353D01*
X38176Y-25334D01*
X38167Y-25325D01*
X38148Y-25315D01*
X38111Y-25315D01*
X38092Y-25325D01*
X38083Y-25334D01*
X38073Y-25353D01*
X38073Y-25400D01*
X38083Y-25418D01*
X38092Y-25428D01*
X38111Y-25437D01*
X38148Y-25437D01*
X38167Y-25428D01*
X38176Y-25418D01*
X38186Y-25400D01*
X37707Y-25630D02*
X37726Y-25630D01*
X37745Y-25640D01*
X37754Y-25649D01*
X37764Y-25668D01*
X37773Y-25705D01*
X37773Y-25752D01*
X37764Y-25790D01*
X37754Y-25809D01*
X37745Y-25818D01*
X37726Y-25827D01*
X37707Y-25827D01*
X37689Y-25818D01*
X37679Y-25809D01*
X37670Y-25790D01*
X37660Y-25752D01*
X37660Y-25705D01*
X37670Y-25668D01*
X37679Y-25649D01*
X37689Y-25640D01*
X37707Y-25630D01*
X37857Y-25809D02*
X37867Y-25818D01*
X37857Y-25827D01*
X37848Y-25818D01*
X37857Y-25809D01*
X37857Y-25827D01*
X38054Y-25827D02*
X37942Y-25827D01*
X37998Y-25827D02*
X37998Y-25630D01*
X37979Y-25658D01*
X37961Y-25677D01*
X37942Y-25687D01*
X38223Y-25696D02*
X38223Y-25827D01*
X38139Y-25696D02*
X38139Y-25799D01*
X38148Y-25818D01*
X38167Y-25827D01*
X38195Y-25827D01*
X38214Y-25818D01*
X38223Y-25809D01*
X38383Y-25724D02*
X38317Y-25724D01*
X38317Y-25827D02*
X38317Y-25630D01*
X38411Y-25630D01*
X32526Y-25454D02*
X32516Y-25464D01*
X32488Y-25473D01*
X32469Y-25473D01*
X32441Y-25464D01*
X32423Y-25445D01*
X32413Y-25426D01*
X32404Y-25389D01*
X32404Y-25360D01*
X32413Y-25323D01*
X32423Y-25304D01*
X32441Y-25285D01*
X32469Y-25276D01*
X32488Y-25276D01*
X32516Y-25285D01*
X32526Y-25295D01*
X32638Y-25360D02*
X32620Y-25351D01*
X32610Y-25342D01*
X32601Y-25323D01*
X32601Y-25313D01*
X32610Y-25295D01*
X32620Y-25285D01*
X32638Y-25276D01*
X32676Y-25276D01*
X32695Y-25285D01*
X32704Y-25295D01*
X32713Y-25313D01*
X32713Y-25323D01*
X32704Y-25342D01*
X32695Y-25351D01*
X32676Y-25360D01*
X32638Y-25360D01*
X32620Y-25370D01*
X32610Y-25379D01*
X32601Y-25398D01*
X32601Y-25435D01*
X32610Y-25454D01*
X32620Y-25464D01*
X32638Y-25473D01*
X32676Y-25473D01*
X32695Y-25464D01*
X32704Y-25454D01*
X32713Y-25435D01*
X32713Y-25398D01*
X32704Y-25379D01*
X32695Y-25370D01*
X32676Y-25360D01*
X32235Y-25591D02*
X32254Y-25591D01*
X32272Y-25600D01*
X32282Y-25610D01*
X32291Y-25628D01*
X32301Y-25666D01*
X32301Y-25713D01*
X32291Y-25750D01*
X32282Y-25769D01*
X32272Y-25779D01*
X32254Y-25788D01*
X32235Y-25788D01*
X32216Y-25779D01*
X32207Y-25769D01*
X32197Y-25750D01*
X32188Y-25713D01*
X32188Y-25666D01*
X32197Y-25628D01*
X32207Y-25610D01*
X32216Y-25600D01*
X32235Y-25591D01*
X32385Y-25769D02*
X32394Y-25779D01*
X32385Y-25788D01*
X32376Y-25779D01*
X32385Y-25769D01*
X32385Y-25788D01*
X32582Y-25788D02*
X32469Y-25788D01*
X32526Y-25788D02*
X32526Y-25591D01*
X32507Y-25619D01*
X32488Y-25638D01*
X32469Y-25647D01*
X32751Y-25657D02*
X32751Y-25788D01*
X32666Y-25657D02*
X32666Y-25760D01*
X32676Y-25779D01*
X32695Y-25788D01*
X32723Y-25788D01*
X32741Y-25779D01*
X32751Y-25769D01*
X32910Y-25685D02*
X32845Y-25685D01*
X32845Y-25788D02*
X32845Y-25591D01*
X32938Y-25591D01*
X39194Y-20938D02*
X39204Y-20947D01*
X39213Y-20975D01*
X39213Y-20994D01*
X39204Y-21022D01*
X39185Y-21041D01*
X39166Y-21050D01*
X39129Y-21060D01*
X39101Y-21060D01*
X39063Y-21050D01*
X39044Y-21041D01*
X39025Y-21022D01*
X39016Y-20994D01*
X39016Y-20975D01*
X39025Y-20947D01*
X39035Y-20938D01*
X39016Y-20872D02*
X39016Y-20741D01*
X39213Y-20825D01*
X39331Y-21229D02*
X39331Y-21210D01*
X39340Y-21191D01*
X39350Y-21182D01*
X39369Y-21172D01*
X39406Y-21163D01*
X39453Y-21163D01*
X39491Y-21172D01*
X39509Y-21182D01*
X39519Y-21191D01*
X39528Y-21210D01*
X39528Y-21229D01*
X39519Y-21247D01*
X39509Y-21257D01*
X39491Y-21266D01*
X39453Y-21276D01*
X39406Y-21276D01*
X39369Y-21266D01*
X39350Y-21257D01*
X39340Y-21247D01*
X39331Y-21229D01*
X39509Y-21079D02*
X39519Y-21069D01*
X39528Y-21079D01*
X39519Y-21088D01*
X39509Y-21079D01*
X39528Y-21079D01*
X39528Y-20882D02*
X39528Y-20994D01*
X39528Y-20938D02*
X39331Y-20938D01*
X39359Y-20957D01*
X39378Y-20975D01*
X39387Y-20994D01*
X39397Y-20713D02*
X39528Y-20713D01*
X39397Y-20797D02*
X39500Y-20797D01*
X39519Y-20788D01*
X39528Y-20769D01*
X39528Y-20741D01*
X39519Y-20722D01*
X39509Y-20713D01*
X39425Y-20553D02*
X39425Y-20619D01*
X39528Y-20619D02*
X39331Y-20619D01*
X39331Y-20525D01*
X27394Y-19819D02*
X27329Y-19819D01*
X27329Y-19922D02*
X27329Y-19725D01*
X27423Y-19725D01*
X27563Y-19819D02*
X27591Y-19828D01*
X27601Y-19837D01*
X27610Y-19856D01*
X27610Y-19884D01*
X27601Y-19903D01*
X27591Y-19912D01*
X27573Y-19922D01*
X27498Y-19922D01*
X27498Y-19725D01*
X27563Y-19725D01*
X27582Y-19734D01*
X27591Y-19744D01*
X27601Y-19762D01*
X27601Y-19781D01*
X27591Y-19800D01*
X27582Y-19809D01*
X27563Y-19819D01*
X27498Y-19819D01*
X27798Y-19922D02*
X27685Y-19922D01*
X27741Y-19922D02*
X27741Y-19725D01*
X27723Y-19753D01*
X27704Y-19772D01*
X27685Y-19781D01*
M02*
