M48
;DRILL file {Pcbnew (2013-may-18)-stable} date Ср 27 май 2015 10:34:24
;FORMAT={-:-/ absolute / metric / decimal}
FMAT,2
METRIC,TZ
T1C0.300
T2C0.800
T3C0.813
T4C1.000
%
G90
G05
M71
T1
X73.2Y-50.8
X73.6Y-64.3
X73.7Y-50.
X77.6Y-64.2
X80.2Y-63.4
X81.2Y-59.3
X82.3Y-47.
X84.9Y-63.
X85.4Y-56.5
X86.4Y-52.9
X87.3Y-54.7
X88.7Y-57.3
X90.2Y-59.3
X90.4Y-53.7
X91.4Y-53.7
X92.4Y-53.7
X92.6Y-54.7
X93.Y-58.7
X93.3Y-57.8
X93.8Y-56.9
X98.4Y-50.4
X98.8Y-63.3
X99.6Y-54.
T2
X73.06Y-56.
X78.14Y-56.
T3
X79.3Y-49.63
X79.3Y-52.17
T4
X64.23Y-47.63
X64.23Y-50.17
X64.23Y-52.71
X64.23Y-55.25
X64.23Y-57.79
X64.23Y-60.33
X64.23Y-62.87
X64.23Y-65.41
X64.23Y-67.95
X64.23Y-70.49
X66.77Y-47.63
X66.77Y-50.17
X66.77Y-52.71
X66.77Y-55.25
X66.77Y-57.79
X66.77Y-60.33
X66.77Y-62.87
X66.77Y-65.41
X66.77Y-67.95
X66.77Y-70.49
X71.6Y-65.8
X73.6Y-65.8
X75.6Y-65.8
X77.6Y-65.8
X103.53Y-47.71
X103.53Y-50.25
X103.53Y-52.79
X103.53Y-55.33
X103.53Y-57.87
X103.53Y-60.41
X103.53Y-62.95
X103.53Y-65.49
X103.53Y-68.03
X103.53Y-70.57
X106.07Y-47.71
X106.07Y-50.25
X106.07Y-52.79
X106.07Y-55.33
X106.07Y-57.87
X106.07Y-60.41
X106.07Y-62.95
X106.07Y-65.49
X106.07Y-68.03
X106.07Y-70.57
T0
M30
