M48
;DRILL file {Pcbnew (2013-may-18)-stable} date Вс 15 ноя 2015 18:50:20
;FORMAT={-:-/ absolute / metric / decimal}
FMAT,2
METRIC,TZ
T1C0.300
T2C0.800
T3C1.000
%
G90
G05
M71
T1
X73.2Y-50.8
X73.6Y-64.3
X73.7Y-50.
X77.6Y-64.2
X81.2Y-59.3
X82.3Y-47.
X84.3Y-65.2
X84.9Y-63.
X85.4Y-56.5
X86.4Y-52.9
X87.3Y-54.7
X88.7Y-57.3
X90.2Y-59.3
X90.4Y-53.7
X91.4Y-53.7
X92.4Y-53.7
X92.6Y-54.7
X93.Y-58.7
X93.3Y-57.8
X93.8Y-56.9
X98.4Y-50.4
X98.8Y-63.3
X99.6Y-54.
T2
X73.06Y-56.
X78.14Y-56.
T3
X64.23Y-47.67
X64.23Y-50.21
X64.23Y-52.75
X64.23Y-55.29
X64.23Y-57.83
X64.23Y-60.37
X64.23Y-62.91
X64.23Y-65.45
X64.23Y-67.99
X64.23Y-70.53
X66.77Y-47.67
X66.77Y-50.21
X66.77Y-52.75
X66.77Y-55.29
X66.77Y-57.83
X66.77Y-60.37
X66.77Y-62.91
X66.77Y-65.45
X66.77Y-67.99
X66.77Y-70.53
X71.6Y-65.8
X73.6Y-65.8
X75.6Y-65.8
X77.6Y-65.8
X79.2Y-49.53
X79.2Y-52.07
X104.87Y-47.67
X104.87Y-50.21
X104.87Y-52.75
X104.87Y-55.29
X104.87Y-57.83
X104.87Y-60.37
X104.87Y-62.91
X104.87Y-65.45
X104.87Y-67.99
X104.87Y-70.53
X107.41Y-47.67
X107.41Y-50.21
X107.41Y-52.75
X107.41Y-55.29
X107.41Y-57.83
X107.41Y-60.37
X107.41Y-62.91
X107.41Y-65.45
X107.41Y-67.99
X107.41Y-70.53
T0
M30
