G04 (created by PCBNEW (2013-may-18)-stable) date Ср 27 май 2015 10:34:21*
%MOIN*%
G04 Gerber Fmt 3.4, Leading zero omitted, Abs format*
%FSLAX34Y34*%
G01*
G70*
G90*
G04 APERTURE LIST*
%ADD10C,0.00590551*%
%ADD11C,0.00984252*%
%ADD12C,0.0039*%
%ADD13C,0.0125*%
%ADD14C,0.0026*%
%ADD15C,0.006*%
%ADD16C,0.016*%
%ADD17C,0.007*%
%ADD18C,0.0043*%
%ADD19C,0.01*%
%ADD20C,0.008*%
%ADD21C,0.0035*%
%ADD22C,0.012*%
%ADD23C,0.002*%
G04 APERTURE END LIST*
G54D10*
G54D11*
X40119Y-20832D02*
X39726Y-20832D01*
X40007Y-20963D01*
X39726Y-21094D01*
X40119Y-21094D01*
X40082Y-21507D02*
X40101Y-21488D01*
X40119Y-21432D01*
X40119Y-21394D01*
X40101Y-21338D01*
X40063Y-21301D01*
X40026Y-21282D01*
X39951Y-21263D01*
X39895Y-21263D01*
X39820Y-21282D01*
X39782Y-21301D01*
X39745Y-21338D01*
X39726Y-21394D01*
X39726Y-21432D01*
X39745Y-21488D01*
X39763Y-21507D01*
X39726Y-21676D02*
X40044Y-21676D01*
X40082Y-21694D01*
X40101Y-21713D01*
X40119Y-21751D01*
X40119Y-21826D01*
X40101Y-21863D01*
X40082Y-21882D01*
X40044Y-21901D01*
X39726Y-21901D01*
X40101Y-22557D02*
X40119Y-22519D01*
X40119Y-22444D01*
X40101Y-22407D01*
X40082Y-22388D01*
X40044Y-22369D01*
X39932Y-22369D01*
X39895Y-22388D01*
X39876Y-22407D01*
X39857Y-22444D01*
X39857Y-22519D01*
X39876Y-22557D01*
X40119Y-22782D02*
X40101Y-22744D01*
X40082Y-22725D01*
X40044Y-22707D01*
X39932Y-22707D01*
X39895Y-22725D01*
X39876Y-22744D01*
X39857Y-22782D01*
X39857Y-22838D01*
X39876Y-22875D01*
X39895Y-22894D01*
X39932Y-22913D01*
X40044Y-22913D01*
X40082Y-22894D01*
X40101Y-22875D01*
X40119Y-22838D01*
X40119Y-22782D01*
X39857Y-23082D02*
X40119Y-23082D01*
X39895Y-23082D02*
X39876Y-23100D01*
X39857Y-23138D01*
X39857Y-23194D01*
X39876Y-23232D01*
X39913Y-23250D01*
X40119Y-23250D01*
X39857Y-23438D02*
X40119Y-23438D01*
X39895Y-23438D02*
X39876Y-23457D01*
X39857Y-23494D01*
X39857Y-23550D01*
X39876Y-23588D01*
X39913Y-23607D01*
X40119Y-23607D01*
X40101Y-23944D02*
X40119Y-23907D01*
X40119Y-23832D01*
X40101Y-23794D01*
X40063Y-23775D01*
X39913Y-23775D01*
X39876Y-23794D01*
X39857Y-23832D01*
X39857Y-23907D01*
X39876Y-23944D01*
X39913Y-23963D01*
X39951Y-23963D01*
X39988Y-23775D01*
X40101Y-24300D02*
X40119Y-24263D01*
X40119Y-24188D01*
X40101Y-24150D01*
X40082Y-24131D01*
X40044Y-24113D01*
X39932Y-24113D01*
X39895Y-24131D01*
X39876Y-24150D01*
X39857Y-24188D01*
X39857Y-24263D01*
X39876Y-24300D01*
X39857Y-24413D02*
X39857Y-24563D01*
X39726Y-24469D02*
X40063Y-24469D01*
X40101Y-24488D01*
X40119Y-24525D01*
X40119Y-24563D01*
X40119Y-24750D02*
X40101Y-24713D01*
X40082Y-24694D01*
X40044Y-24675D01*
X39932Y-24675D01*
X39895Y-24694D01*
X39876Y-24713D01*
X39857Y-24750D01*
X39857Y-24806D01*
X39876Y-24844D01*
X39895Y-24863D01*
X39932Y-24881D01*
X40044Y-24881D01*
X40082Y-24863D01*
X40101Y-24844D01*
X40119Y-24806D01*
X40119Y-24750D01*
X40119Y-25050D02*
X39857Y-25050D01*
X39932Y-25050D02*
X39895Y-25069D01*
X39876Y-25088D01*
X39857Y-25125D01*
X39857Y-25163D01*
X39763Y-25575D02*
X39745Y-25594D01*
X39726Y-25631D01*
X39726Y-25725D01*
X39745Y-25763D01*
X39763Y-25781D01*
X39801Y-25800D01*
X39838Y-25800D01*
X39895Y-25781D01*
X40119Y-25556D01*
X40119Y-25800D01*
X26927Y-25584D02*
X27320Y-25584D01*
X27039Y-25453D01*
X27320Y-25322D01*
X26927Y-25322D01*
X26964Y-24910D02*
X26946Y-24928D01*
X26927Y-24985D01*
X26927Y-25022D01*
X26946Y-25078D01*
X26983Y-25116D01*
X27020Y-25134D01*
X27095Y-25153D01*
X27152Y-25153D01*
X27227Y-25134D01*
X27264Y-25116D01*
X27302Y-25078D01*
X27320Y-25022D01*
X27320Y-24985D01*
X27302Y-24928D01*
X27283Y-24910D01*
X27320Y-24741D02*
X27002Y-24741D01*
X26964Y-24722D01*
X26946Y-24703D01*
X26927Y-24666D01*
X26927Y-24591D01*
X26946Y-24553D01*
X26964Y-24535D01*
X27002Y-24516D01*
X27320Y-24516D01*
X26946Y-23860D02*
X26927Y-23897D01*
X26927Y-23972D01*
X26946Y-24010D01*
X26964Y-24028D01*
X27002Y-24047D01*
X27114Y-24047D01*
X27152Y-24028D01*
X27170Y-24010D01*
X27189Y-23972D01*
X27189Y-23897D01*
X27170Y-23860D01*
X26927Y-23635D02*
X26946Y-23672D01*
X26964Y-23691D01*
X27002Y-23710D01*
X27114Y-23710D01*
X27152Y-23691D01*
X27170Y-23672D01*
X27189Y-23635D01*
X27189Y-23578D01*
X27170Y-23541D01*
X27152Y-23522D01*
X27114Y-23503D01*
X27002Y-23503D01*
X26964Y-23522D01*
X26946Y-23541D01*
X26927Y-23578D01*
X26927Y-23635D01*
X27189Y-23335D02*
X26927Y-23335D01*
X27152Y-23335D02*
X27170Y-23316D01*
X27189Y-23278D01*
X27189Y-23222D01*
X27170Y-23185D01*
X27133Y-23166D01*
X26927Y-23166D01*
X27189Y-22979D02*
X26927Y-22979D01*
X27152Y-22979D02*
X27170Y-22960D01*
X27189Y-22922D01*
X27189Y-22866D01*
X27170Y-22829D01*
X27133Y-22810D01*
X26927Y-22810D01*
X26946Y-22472D02*
X26927Y-22510D01*
X26927Y-22585D01*
X26946Y-22622D01*
X26983Y-22641D01*
X27133Y-22641D01*
X27170Y-22622D01*
X27189Y-22585D01*
X27189Y-22510D01*
X27170Y-22472D01*
X27133Y-22454D01*
X27095Y-22454D01*
X27058Y-22641D01*
X26946Y-22116D02*
X26927Y-22154D01*
X26927Y-22229D01*
X26946Y-22266D01*
X26964Y-22285D01*
X27002Y-22304D01*
X27114Y-22304D01*
X27152Y-22285D01*
X27170Y-22266D01*
X27189Y-22229D01*
X27189Y-22154D01*
X27170Y-22116D01*
X27189Y-22004D02*
X27189Y-21854D01*
X27320Y-21947D02*
X26983Y-21947D01*
X26946Y-21929D01*
X26927Y-21891D01*
X26927Y-21854D01*
X26927Y-21666D02*
X26946Y-21704D01*
X26964Y-21722D01*
X27002Y-21741D01*
X27114Y-21741D01*
X27152Y-21722D01*
X27170Y-21704D01*
X27189Y-21666D01*
X27189Y-21610D01*
X27170Y-21572D01*
X27152Y-21554D01*
X27114Y-21535D01*
X27002Y-21535D01*
X26964Y-21554D01*
X26946Y-21572D01*
X26927Y-21610D01*
X26927Y-21666D01*
X26927Y-21366D02*
X27189Y-21366D01*
X27114Y-21366D02*
X27152Y-21347D01*
X27170Y-21329D01*
X27189Y-21291D01*
X27189Y-21254D01*
X26927Y-20616D02*
X26927Y-20841D01*
X26927Y-20729D02*
X27320Y-20729D01*
X27264Y-20766D01*
X27227Y-20804D01*
X27208Y-20841D01*
X40080Y-18743D02*
X40080Y-18518D01*
X40080Y-18631D02*
X39686Y-18631D01*
X39743Y-18593D01*
X39780Y-18556D01*
X39799Y-18518D01*
X40080Y-18931D02*
X40080Y-19006D01*
X40061Y-19043D01*
X40043Y-19062D01*
X39986Y-19100D01*
X39911Y-19118D01*
X39761Y-19118D01*
X39724Y-19100D01*
X39705Y-19081D01*
X39686Y-19043D01*
X39686Y-18968D01*
X39705Y-18931D01*
X39724Y-18912D01*
X39761Y-18893D01*
X39855Y-18893D01*
X39893Y-18912D01*
X39911Y-18931D01*
X39930Y-18968D01*
X39930Y-19043D01*
X39911Y-19081D01*
X39893Y-19100D01*
X39855Y-19118D01*
X40080Y-27907D02*
X40080Y-27682D01*
X40080Y-27795D02*
X39686Y-27795D01*
X39743Y-27757D01*
X39780Y-27720D01*
X39799Y-27682D01*
X26927Y-27830D02*
X26927Y-28055D01*
X26927Y-27943D02*
X27320Y-27943D01*
X27264Y-27980D01*
X27227Y-28018D01*
X27208Y-28055D01*
X26927Y-27643D02*
X26927Y-27568D01*
X26946Y-27530D01*
X26964Y-27512D01*
X27020Y-27474D01*
X27095Y-27455D01*
X27245Y-27455D01*
X27283Y-27474D01*
X27302Y-27493D01*
X27320Y-27530D01*
X27320Y-27605D01*
X27302Y-27643D01*
X27283Y-27662D01*
X27245Y-27680D01*
X27152Y-27680D01*
X27114Y-27662D01*
X27095Y-27643D01*
X27077Y-27605D01*
X27077Y-27530D01*
X27095Y-27493D01*
X27114Y-27474D01*
X27152Y-27455D01*
X26927Y-18627D02*
X26927Y-18852D01*
X26927Y-18740D02*
X27320Y-18740D01*
X27264Y-18777D01*
X27227Y-18815D01*
X27208Y-18852D01*
X29943Y-24943D02*
X29887Y-24962D01*
X29793Y-24962D01*
X29756Y-24943D01*
X29737Y-24925D01*
X29718Y-24887D01*
X29718Y-24850D01*
X29737Y-24812D01*
X29756Y-24793D01*
X29793Y-24775D01*
X29868Y-24756D01*
X29906Y-24737D01*
X29925Y-24718D01*
X29943Y-24681D01*
X29943Y-24643D01*
X29925Y-24606D01*
X29906Y-24587D01*
X29868Y-24568D01*
X29775Y-24568D01*
X29718Y-24587D01*
X29587Y-24568D02*
X29493Y-24962D01*
X29418Y-24681D01*
X29343Y-24962D01*
X29250Y-24568D01*
X29100Y-24962D02*
X29100Y-24568D01*
X29006Y-24568D01*
X28950Y-24587D01*
X28912Y-24625D01*
X28893Y-24662D01*
X28875Y-24737D01*
X28875Y-24793D01*
X28893Y-24868D01*
X28912Y-24906D01*
X28950Y-24943D01*
X29006Y-24962D01*
X29100Y-24962D01*
X37862Y-27484D02*
X37881Y-27502D01*
X37937Y-27521D01*
X37975Y-27521D01*
X38031Y-27502D01*
X38068Y-27465D01*
X38087Y-27427D01*
X38106Y-27352D01*
X38106Y-27296D01*
X38087Y-27221D01*
X38068Y-27184D01*
X38031Y-27146D01*
X37975Y-27127D01*
X37937Y-27127D01*
X37881Y-27146D01*
X37862Y-27165D01*
X37525Y-27521D02*
X37525Y-27315D01*
X37544Y-27277D01*
X37581Y-27259D01*
X37656Y-27259D01*
X37694Y-27277D01*
X37525Y-27502D02*
X37562Y-27521D01*
X37656Y-27521D01*
X37694Y-27502D01*
X37712Y-27465D01*
X37712Y-27427D01*
X37694Y-27390D01*
X37656Y-27371D01*
X37562Y-27371D01*
X37525Y-27352D01*
X37169Y-27259D02*
X37169Y-27521D01*
X37337Y-27259D02*
X37337Y-27465D01*
X37319Y-27502D01*
X37281Y-27521D01*
X37225Y-27521D01*
X37187Y-27502D01*
X37169Y-27484D01*
X37000Y-27502D02*
X36962Y-27521D01*
X36887Y-27521D01*
X36850Y-27502D01*
X36831Y-27465D01*
X36831Y-27446D01*
X36850Y-27409D01*
X36887Y-27390D01*
X36944Y-27390D01*
X36981Y-27371D01*
X37000Y-27334D01*
X37000Y-27315D01*
X36981Y-27277D01*
X36944Y-27259D01*
X36887Y-27259D01*
X36850Y-27277D01*
X36719Y-27259D02*
X36569Y-27259D01*
X36662Y-27127D02*
X36662Y-27465D01*
X36644Y-27502D01*
X36606Y-27521D01*
X36569Y-27521D01*
X36437Y-27521D02*
X36437Y-27259D01*
X36437Y-27127D02*
X36456Y-27146D01*
X36437Y-27165D01*
X36419Y-27146D01*
X36437Y-27127D01*
X36437Y-27165D01*
X36081Y-27502D02*
X36119Y-27521D01*
X36194Y-27521D01*
X36231Y-27502D01*
X36250Y-27484D01*
X36269Y-27446D01*
X36269Y-27334D01*
X36250Y-27296D01*
X36231Y-27277D01*
X36194Y-27259D01*
X36119Y-27259D01*
X36081Y-27277D01*
X35425Y-27521D02*
X35613Y-27521D01*
X35613Y-27127D01*
X35350Y-27127D02*
X35125Y-27127D01*
X35238Y-27521D02*
X35238Y-27127D01*
X34713Y-27502D02*
X34675Y-27521D01*
X34600Y-27521D01*
X34563Y-27502D01*
X34544Y-27465D01*
X34544Y-27446D01*
X34563Y-27409D01*
X34600Y-27390D01*
X34656Y-27390D01*
X34694Y-27371D01*
X34713Y-27334D01*
X34713Y-27315D01*
X34694Y-27277D01*
X34656Y-27259D01*
X34600Y-27259D01*
X34563Y-27277D01*
X34413Y-27259D02*
X34319Y-27521D01*
X34225Y-27259D02*
X34319Y-27521D01*
X34356Y-27615D01*
X34375Y-27634D01*
X34413Y-27652D01*
X34094Y-27502D02*
X34056Y-27521D01*
X33982Y-27521D01*
X33944Y-27502D01*
X33925Y-27465D01*
X33925Y-27446D01*
X33944Y-27409D01*
X33982Y-27390D01*
X34038Y-27390D01*
X34075Y-27371D01*
X34094Y-27334D01*
X34094Y-27315D01*
X34075Y-27277D01*
X34038Y-27259D01*
X33982Y-27259D01*
X33944Y-27277D01*
X33813Y-27259D02*
X33663Y-27259D01*
X33757Y-27127D02*
X33757Y-27465D01*
X33738Y-27502D01*
X33700Y-27521D01*
X33663Y-27521D01*
X33382Y-27502D02*
X33419Y-27521D01*
X33494Y-27521D01*
X33532Y-27502D01*
X33550Y-27465D01*
X33550Y-27315D01*
X33532Y-27277D01*
X33494Y-27259D01*
X33419Y-27259D01*
X33382Y-27277D01*
X33363Y-27315D01*
X33363Y-27352D01*
X33550Y-27390D01*
X33194Y-27521D02*
X33194Y-27259D01*
X33194Y-27296D02*
X33175Y-27277D01*
X33138Y-27259D01*
X33082Y-27259D01*
X33044Y-27277D01*
X33025Y-27315D01*
X33025Y-27521D01*
X33025Y-27315D02*
X33007Y-27277D01*
X32969Y-27259D01*
X32913Y-27259D01*
X32875Y-27277D01*
X32857Y-27315D01*
X32857Y-27521D01*
X38050Y-28171D02*
X38050Y-27777D01*
X37919Y-28058D01*
X37787Y-27777D01*
X37787Y-28171D01*
X37375Y-28133D02*
X37394Y-28152D01*
X37450Y-28171D01*
X37487Y-28171D01*
X37544Y-28152D01*
X37581Y-28114D01*
X37600Y-28077D01*
X37619Y-28002D01*
X37619Y-27946D01*
X37600Y-27871D01*
X37581Y-27833D01*
X37544Y-27796D01*
X37487Y-27777D01*
X37450Y-27777D01*
X37394Y-27796D01*
X37375Y-27814D01*
X37206Y-27777D02*
X37206Y-28096D01*
X37187Y-28133D01*
X37169Y-28152D01*
X37131Y-28171D01*
X37056Y-28171D01*
X37019Y-28152D01*
X37000Y-28133D01*
X36981Y-28096D01*
X36981Y-27777D01*
X36494Y-28171D02*
X36494Y-27777D01*
X36494Y-27927D02*
X36456Y-27908D01*
X36381Y-27908D01*
X36344Y-27927D01*
X36325Y-27946D01*
X36306Y-27983D01*
X36306Y-28096D01*
X36325Y-28133D01*
X36344Y-28152D01*
X36381Y-28171D01*
X36456Y-28171D01*
X36494Y-28152D01*
X36081Y-28171D02*
X36119Y-28152D01*
X36137Y-28133D01*
X36156Y-28096D01*
X36156Y-27983D01*
X36137Y-27946D01*
X36119Y-27927D01*
X36081Y-27908D01*
X36025Y-27908D01*
X35988Y-27927D01*
X35969Y-27946D01*
X35950Y-27983D01*
X35950Y-28096D01*
X35969Y-28133D01*
X35988Y-28152D01*
X36025Y-28171D01*
X36081Y-28171D01*
X35613Y-28171D02*
X35613Y-27964D01*
X35631Y-27927D01*
X35669Y-27908D01*
X35744Y-27908D01*
X35781Y-27927D01*
X35613Y-28152D02*
X35650Y-28171D01*
X35744Y-28171D01*
X35781Y-28152D01*
X35800Y-28114D01*
X35800Y-28077D01*
X35781Y-28039D01*
X35744Y-28021D01*
X35650Y-28021D01*
X35613Y-28002D01*
X35425Y-28171D02*
X35425Y-27908D01*
X35425Y-27983D02*
X35406Y-27946D01*
X35388Y-27927D01*
X35350Y-27908D01*
X35313Y-27908D01*
X35013Y-28171D02*
X35013Y-27777D01*
X35013Y-28152D02*
X35050Y-28171D01*
X35125Y-28171D01*
X35163Y-28152D01*
X35181Y-28133D01*
X35200Y-28096D01*
X35200Y-27983D01*
X35181Y-27946D01*
X35163Y-27927D01*
X35125Y-27908D01*
X35050Y-27908D01*
X35013Y-27927D01*
X34525Y-28171D02*
X34525Y-27908D01*
X34525Y-27983D02*
X34506Y-27946D01*
X34488Y-27927D01*
X34450Y-27908D01*
X34413Y-27908D01*
X34131Y-28152D02*
X34169Y-28171D01*
X34244Y-28171D01*
X34281Y-28152D01*
X34300Y-28114D01*
X34300Y-27964D01*
X34281Y-27927D01*
X34244Y-27908D01*
X34169Y-27908D01*
X34131Y-27927D01*
X34113Y-27964D01*
X34113Y-28002D01*
X34300Y-28039D01*
X33982Y-27908D02*
X33888Y-28171D01*
X33794Y-27908D01*
X33438Y-28171D02*
X33663Y-28171D01*
X33550Y-28171D02*
X33550Y-27777D01*
X33588Y-27833D01*
X33625Y-27871D01*
X33663Y-27889D01*
X33269Y-28133D02*
X33250Y-28152D01*
X33269Y-28171D01*
X33288Y-28152D01*
X33269Y-28133D01*
X33269Y-28171D01*
X33007Y-27777D02*
X32969Y-27777D01*
X32932Y-27796D01*
X32913Y-27814D01*
X32894Y-27852D01*
X32875Y-27927D01*
X32875Y-28021D01*
X32894Y-28096D01*
X32913Y-28133D01*
X32932Y-28152D01*
X32969Y-28171D01*
X33007Y-28171D01*
X33044Y-28152D01*
X33063Y-28133D01*
X33082Y-28096D01*
X33100Y-28021D01*
X33100Y-27927D01*
X33082Y-27852D01*
X33063Y-27814D01*
X33044Y-27796D01*
X33007Y-27777D01*
G54D12*
X34671Y-19547D02*
G75*
G03X34671Y-19547I-50J0D01*
G74*
G01*
X34621Y-19097D02*
X34621Y-19497D01*
X34621Y-19497D02*
X35221Y-19497D01*
X35221Y-19497D02*
X35221Y-19097D01*
X35221Y-18697D02*
X35221Y-18297D01*
X35221Y-18297D02*
X34621Y-18297D01*
X34621Y-18297D02*
X34621Y-18697D01*
X36915Y-19547D02*
G75*
G03X36915Y-19547I-50J0D01*
G74*
G01*
X36865Y-19097D02*
X36865Y-19497D01*
X36865Y-19497D02*
X37465Y-19497D01*
X37465Y-19497D02*
X37465Y-19097D01*
X37465Y-18697D02*
X37465Y-18297D01*
X37465Y-18297D02*
X36865Y-18297D01*
X36865Y-18297D02*
X36865Y-18697D01*
X37781Y-19547D02*
G75*
G03X37781Y-19547I-50J0D01*
G74*
G01*
X37731Y-19097D02*
X37731Y-19497D01*
X37731Y-19497D02*
X38331Y-19497D01*
X38331Y-19497D02*
X38331Y-19097D01*
X38331Y-18697D02*
X38331Y-18297D01*
X38331Y-18297D02*
X37731Y-18297D01*
X37731Y-18297D02*
X37731Y-18697D01*
X32781Y-19547D02*
G75*
G03X32781Y-19547I-50J0D01*
G74*
G01*
X32731Y-19097D02*
X32731Y-19497D01*
X32731Y-19497D02*
X33331Y-19497D01*
X33331Y-19497D02*
X33331Y-19097D01*
X33331Y-18697D02*
X33331Y-18297D01*
X33331Y-18297D02*
X32731Y-18297D01*
X32731Y-18297D02*
X32731Y-18697D01*
X33726Y-19547D02*
G75*
G03X33726Y-19547I-50J0D01*
G74*
G01*
X33676Y-19097D02*
X33676Y-19497D01*
X33676Y-19497D02*
X34276Y-19497D01*
X34276Y-19497D02*
X34276Y-19097D01*
X34276Y-18697D02*
X34276Y-18297D01*
X34276Y-18297D02*
X33676Y-18297D01*
X33676Y-18297D02*
X33676Y-18697D01*
X36762Y-19433D02*
G75*
G03X36762Y-19433I-50J0D01*
G74*
G01*
X36262Y-19433D02*
X36662Y-19433D01*
X36662Y-19433D02*
X36662Y-18833D01*
X36662Y-18833D02*
X36262Y-18833D01*
X35862Y-18833D02*
X35462Y-18833D01*
X35462Y-18833D02*
X35462Y-19433D01*
X35462Y-19433D02*
X35862Y-19433D01*
G54D10*
X24763Y-18228D02*
X24763Y-28307D01*
X24763Y-28307D02*
X26811Y-28307D01*
X26811Y-28307D02*
X26811Y-18228D01*
X26811Y-18228D02*
X24763Y-18228D01*
X42283Y-28307D02*
X42283Y-18228D01*
X42283Y-18228D02*
X40236Y-18228D01*
X40236Y-18228D02*
X40236Y-28307D01*
X40236Y-28307D02*
X42283Y-28307D01*
X27401Y-25118D02*
X31338Y-25118D01*
X31338Y-25118D02*
X31338Y-28267D01*
X31338Y-28267D02*
X27401Y-28267D01*
X27401Y-25118D02*
X27401Y-28267D01*
G54D13*
X28513Y-21047D02*
X31013Y-21047D01*
X28513Y-23047D02*
X31013Y-23047D01*
X32013Y-22047D02*
G75*
G02X31013Y-23047I-1000J0D01*
G74*
G01*
X31013Y-21047D02*
G75*
G02X32013Y-22047I0J-1000D01*
G74*
G01*
X28513Y-23047D02*
G75*
G02X27513Y-22047I0J1000D01*
G74*
G01*
X27513Y-22047D02*
G75*
G02X28513Y-21047I1000J0D01*
G74*
G01*
G54D14*
X30820Y-20159D02*
X30820Y-20319D01*
X30820Y-20319D02*
X30590Y-20319D01*
X30590Y-20159D02*
X30590Y-20319D01*
X30820Y-20159D02*
X30590Y-20159D01*
X30820Y-19759D02*
X30820Y-19919D01*
X30820Y-19919D02*
X30590Y-19919D01*
X30590Y-19759D02*
X30590Y-19919D01*
X30820Y-19759D02*
X30590Y-19759D01*
X30920Y-19339D02*
X30920Y-20739D01*
X30920Y-20739D02*
X27920Y-20739D01*
X27920Y-19339D02*
X27920Y-20739D01*
X30920Y-19339D02*
X27920Y-19339D01*
G54D15*
X30570Y-19689D02*
X30570Y-20389D01*
X28170Y-19739D02*
X28170Y-20339D01*
X30570Y-20389D02*
X30420Y-20389D01*
X30420Y-20439D02*
X28270Y-20439D01*
X30570Y-19689D02*
X30420Y-19689D01*
X30420Y-19639D02*
X30420Y-19689D01*
X30420Y-19639D02*
X28270Y-19639D01*
G54D16*
X30920Y-20239D02*
X30770Y-20239D01*
X30920Y-19839D02*
X30720Y-19839D01*
X30970Y-20289D02*
X31220Y-20539D01*
X30970Y-19789D02*
X31220Y-19539D01*
G54D15*
X29270Y-19839D02*
X29420Y-19839D01*
X29420Y-20239D02*
X29420Y-19839D01*
X29420Y-20239D02*
X29270Y-20239D01*
X29270Y-19839D02*
X29270Y-20239D01*
X29120Y-19839D02*
X29120Y-20039D01*
X29570Y-19839D02*
X29570Y-20039D01*
X29570Y-20039D02*
X29770Y-20039D01*
X29570Y-20039D02*
X29570Y-20239D01*
X29120Y-20039D02*
X28920Y-20039D01*
X29120Y-20039D02*
X29120Y-20239D01*
X30420Y-20439D02*
X30420Y-20389D01*
X30420Y-20389D02*
X30420Y-19689D01*
X28270Y-20439D02*
G75*
G02X28170Y-20339I0J100D01*
G74*
G01*
X28170Y-19739D02*
G75*
G02X28270Y-19639I100J0D01*
G74*
G01*
G54D10*
X38439Y-25696D02*
X32339Y-25696D01*
X32739Y-19996D02*
X32339Y-19996D01*
G54D17*
X38489Y-20756D02*
X38489Y-25616D01*
X38489Y-25616D02*
X38439Y-25666D01*
X32299Y-25666D02*
X32299Y-19956D01*
X32709Y-19956D02*
X32709Y-19726D01*
X32709Y-19726D02*
X37939Y-19726D01*
X37939Y-19726D02*
X37939Y-19936D01*
X37939Y-19936D02*
X38499Y-19936D01*
X38499Y-19936D02*
X38499Y-20786D01*
G54D18*
X34567Y-18864D02*
X34474Y-18799D01*
X34567Y-18752D02*
X34370Y-18752D01*
X34370Y-18827D01*
X34380Y-18846D01*
X34389Y-18855D01*
X34408Y-18864D01*
X34436Y-18864D01*
X34455Y-18855D01*
X34464Y-18846D01*
X34474Y-18827D01*
X34474Y-18752D01*
X34370Y-19043D02*
X34370Y-18949D01*
X34464Y-18939D01*
X34455Y-18949D01*
X34445Y-18967D01*
X34445Y-19014D01*
X34455Y-19033D01*
X34464Y-19043D01*
X34483Y-19052D01*
X34530Y-19052D01*
X34549Y-19043D01*
X34558Y-19033D01*
X34567Y-19014D01*
X34567Y-18967D01*
X34558Y-18949D01*
X34549Y-18939D01*
X37678Y-18864D02*
X37584Y-18799D01*
X37678Y-18752D02*
X37481Y-18752D01*
X37481Y-18827D01*
X37490Y-18846D01*
X37499Y-18855D01*
X37518Y-18864D01*
X37546Y-18864D01*
X37565Y-18855D01*
X37574Y-18846D01*
X37584Y-18827D01*
X37584Y-18752D01*
X37546Y-19033D02*
X37678Y-19033D01*
X37471Y-18986D02*
X37612Y-18939D01*
X37612Y-19061D01*
X38662Y-18864D02*
X38568Y-18799D01*
X38662Y-18752D02*
X38465Y-18752D01*
X38465Y-18827D01*
X38474Y-18846D01*
X38484Y-18855D01*
X38502Y-18864D01*
X38531Y-18864D01*
X38549Y-18855D01*
X38559Y-18846D01*
X38568Y-18827D01*
X38568Y-18752D01*
X38465Y-18930D02*
X38465Y-19052D01*
X38540Y-18986D01*
X38540Y-19014D01*
X38549Y-19033D01*
X38559Y-19043D01*
X38577Y-19052D01*
X38624Y-19052D01*
X38643Y-19043D01*
X38653Y-19033D01*
X38662Y-19014D01*
X38662Y-18958D01*
X38653Y-18939D01*
X38643Y-18930D01*
X32599Y-18864D02*
X32505Y-18799D01*
X32599Y-18752D02*
X32402Y-18752D01*
X32402Y-18827D01*
X32411Y-18846D01*
X32421Y-18855D01*
X32439Y-18864D01*
X32468Y-18864D01*
X32486Y-18855D01*
X32496Y-18846D01*
X32505Y-18827D01*
X32505Y-18752D01*
X32421Y-18939D02*
X32411Y-18949D01*
X32402Y-18967D01*
X32402Y-19014D01*
X32411Y-19033D01*
X32421Y-19043D01*
X32439Y-19052D01*
X32458Y-19052D01*
X32486Y-19043D01*
X32599Y-18930D01*
X32599Y-19052D01*
X33583Y-18864D02*
X33489Y-18799D01*
X33583Y-18752D02*
X33386Y-18752D01*
X33386Y-18827D01*
X33396Y-18846D01*
X33405Y-18855D01*
X33424Y-18864D01*
X33452Y-18864D01*
X33471Y-18855D01*
X33480Y-18846D01*
X33489Y-18827D01*
X33489Y-18752D01*
X33583Y-19052D02*
X33583Y-18939D01*
X33583Y-18996D02*
X33386Y-18996D01*
X33414Y-18977D01*
X33433Y-18958D01*
X33442Y-18939D01*
X36095Y-18683D02*
X36105Y-18692D01*
X36133Y-18701D01*
X36152Y-18701D01*
X36180Y-18692D01*
X36199Y-18673D01*
X36208Y-18654D01*
X36217Y-18617D01*
X36217Y-18589D01*
X36208Y-18551D01*
X36199Y-18532D01*
X36180Y-18514D01*
X36152Y-18504D01*
X36133Y-18504D01*
X36105Y-18514D01*
X36095Y-18523D01*
X35908Y-18701D02*
X36020Y-18701D01*
X35964Y-18701D02*
X35964Y-18504D01*
X35983Y-18532D01*
X36002Y-18551D01*
X36020Y-18561D01*
G54D19*
X24449Y-22972D02*
X24049Y-22972D01*
X24049Y-23124D01*
X24068Y-23162D01*
X24087Y-23182D01*
X24125Y-23201D01*
X24182Y-23201D01*
X24220Y-23182D01*
X24239Y-23162D01*
X24258Y-23124D01*
X24258Y-22972D01*
X24449Y-23582D02*
X24449Y-23353D01*
X24449Y-23467D02*
X24049Y-23467D01*
X24106Y-23429D01*
X24144Y-23391D01*
X24163Y-23353D01*
X42921Y-22972D02*
X42521Y-22972D01*
X42521Y-23124D01*
X42540Y-23162D01*
X42559Y-23182D01*
X42597Y-23201D01*
X42655Y-23201D01*
X42693Y-23182D01*
X42712Y-23162D01*
X42731Y-23124D01*
X42731Y-22972D01*
X42655Y-23543D02*
X42921Y-23543D01*
X42502Y-23448D02*
X42788Y-23353D01*
X42788Y-23601D01*
G54D20*
X29665Y-27839D02*
X29665Y-27439D01*
X29512Y-27439D01*
X29474Y-27458D01*
X29455Y-27477D01*
X29436Y-27515D01*
X29436Y-27572D01*
X29455Y-27610D01*
X29474Y-27629D01*
X29512Y-27648D01*
X29665Y-27648D01*
X29303Y-27439D02*
X29055Y-27439D01*
X29189Y-27591D01*
X29131Y-27591D01*
X29093Y-27610D01*
X29074Y-27629D01*
X29055Y-27667D01*
X29055Y-27762D01*
X29074Y-27800D01*
X29093Y-27820D01*
X29131Y-27839D01*
X29246Y-27839D01*
X29284Y-27820D01*
X29303Y-27800D01*
G54D21*
X34742Y-21442D02*
X34742Y-22009D01*
X34775Y-22075D01*
X34808Y-22109D01*
X34875Y-22142D01*
X35008Y-22142D01*
X35075Y-22109D01*
X35108Y-22075D01*
X35142Y-22009D01*
X35142Y-21442D01*
X35842Y-22142D02*
X35442Y-22142D01*
X35642Y-22142D02*
X35642Y-21442D01*
X35575Y-21542D01*
X35508Y-21609D01*
X35442Y-21642D01*
G54D22*
X30249Y-23190D02*
X29849Y-23790D01*
X29849Y-23190D02*
X30249Y-23790D01*
X29649Y-23247D02*
X29620Y-23218D01*
X29563Y-23190D01*
X29420Y-23190D01*
X29363Y-23218D01*
X29335Y-23247D01*
X29306Y-23304D01*
X29306Y-23361D01*
X29335Y-23447D01*
X29678Y-23790D01*
X29306Y-23790D01*
G54D21*
X29575Y-18941D02*
X29241Y-19441D01*
X29241Y-18941D02*
X29575Y-19441D01*
X28789Y-19441D02*
X29075Y-19441D01*
X28932Y-19441D02*
X28932Y-18941D01*
X28979Y-19013D01*
X29027Y-19060D01*
X29075Y-19084D01*
G54D23*
X33945Y-19620D02*
X33945Y-19463D01*
X33885Y-19463D01*
X33870Y-19470D01*
X33863Y-19478D01*
X33855Y-19493D01*
X33855Y-19515D01*
X33863Y-19530D01*
X33870Y-19538D01*
X33885Y-19545D01*
X33945Y-19545D01*
X33795Y-19478D02*
X33788Y-19470D01*
X33773Y-19463D01*
X33735Y-19463D01*
X33720Y-19470D01*
X33713Y-19478D01*
X33706Y-19493D01*
X33706Y-19508D01*
X33713Y-19530D01*
X33803Y-19620D01*
X33706Y-19620D01*
M02*
