G04 (created by PCBNEW (2013-may-18)-stable) date Вт 14 июн 2016 11:11:36*
%MOIN*%
G04 Gerber Fmt 3.4, Leading zero omitted, Abs format*
%FSLAX34Y34*%
G01*
G70*
G90*
G04 APERTURE LIST*
%ADD10C,0.00590551*%
%ADD11R,0.06X0.06*%
%ADD12C,0.06*%
%ADD13R,0.036X0.036*%
%ADD14R,0.0394X0.0276*%
%ADD15R,0.02X0.03*%
%ADD16R,0.03X0.02*%
%ADD17R,0.035X0.055*%
%ADD18R,0.055X0.035*%
%ADD19C,0.16*%
%ADD20R,0.0709X0.0629*%
%ADD21C,0.1063*%
G04 APERTURE END LIST*
G54D10*
G54D11*
X41287Y-27767D03*
G54D12*
X42287Y-27767D03*
X41287Y-26767D03*
X42287Y-26767D03*
X41287Y-25767D03*
X42287Y-25767D03*
X41287Y-24767D03*
X42287Y-24767D03*
X41287Y-23767D03*
X42287Y-23767D03*
X41287Y-22767D03*
X42287Y-22767D03*
X41287Y-21767D03*
X42287Y-21767D03*
X41287Y-20767D03*
X42287Y-20767D03*
X41287Y-19767D03*
X42287Y-19767D03*
X41287Y-18767D03*
X42287Y-18767D03*
G54D11*
X26287Y-18767D03*
G54D12*
X25287Y-18767D03*
X26287Y-19767D03*
X25287Y-19767D03*
X26287Y-20767D03*
X25287Y-20767D03*
X26287Y-21767D03*
X25287Y-21767D03*
X26287Y-22767D03*
X25287Y-22767D03*
X26287Y-23767D03*
X25287Y-23767D03*
X26287Y-24767D03*
X25287Y-24767D03*
X26287Y-25767D03*
X25287Y-25767D03*
X26287Y-26767D03*
X25287Y-26767D03*
X26287Y-27767D03*
X25287Y-27767D03*
G54D13*
X28050Y-21500D03*
X27350Y-21500D03*
X27700Y-20700D03*
X30375Y-23175D03*
X29675Y-23175D03*
X30025Y-22375D03*
X29500Y-21500D03*
X28800Y-21500D03*
X29150Y-20700D03*
X32400Y-25250D03*
X33100Y-25250D03*
X32750Y-26050D03*
X30950Y-21500D03*
X30250Y-21500D03*
X30600Y-20700D03*
G54D14*
X30225Y-27300D03*
X30225Y-27675D03*
X30225Y-28050D03*
X29225Y-28050D03*
X29225Y-27675D03*
X29225Y-27300D03*
G54D15*
X32700Y-24025D03*
X33450Y-24025D03*
X32700Y-23025D03*
X33075Y-24025D03*
X33450Y-23025D03*
G54D16*
X29750Y-24425D03*
X29750Y-25175D03*
X30750Y-24425D03*
X29750Y-24800D03*
X30750Y-25175D03*
G54D17*
X31975Y-23750D03*
X31225Y-23750D03*
X38875Y-23600D03*
X38125Y-23600D03*
G54D18*
X31600Y-25225D03*
X31600Y-24475D03*
X29000Y-25125D03*
X29000Y-24375D03*
X28200Y-25975D03*
X28200Y-25225D03*
G54D17*
X31975Y-22350D03*
X31225Y-22350D03*
X31975Y-23050D03*
X31225Y-23050D03*
X32425Y-24600D03*
X33175Y-24600D03*
G54D11*
X36850Y-27750D03*
G54D12*
X36850Y-26750D03*
X37850Y-27750D03*
X37850Y-26750D03*
X38850Y-27750D03*
X38850Y-26750D03*
X39850Y-27750D03*
X39850Y-26750D03*
G54D11*
X35325Y-27100D03*
G54D12*
X34325Y-27100D03*
X33325Y-27100D03*
G54D11*
X38800Y-18750D03*
G54D12*
X39800Y-18750D03*
G54D19*
X28075Y-23075D03*
G54D20*
X28425Y-27784D03*
X28425Y-26666D03*
G54D11*
X30650Y-19750D03*
G54D12*
X30650Y-18750D03*
X29650Y-19750D03*
X29650Y-18750D03*
X28650Y-19750D03*
X28650Y-18750D03*
X27650Y-19750D03*
X27650Y-18750D03*
X29250Y-25900D03*
X30250Y-25900D03*
X30250Y-26687D03*
X29250Y-26687D03*
G54D21*
X27388Y-27750D03*
X32112Y-27750D03*
M02*
