G04 (created by PCBNEW (2013-may-18)-stable) date Вт 14 июн 2016 11:11:36*
%MOIN*%
G04 Gerber Fmt 3.4, Leading zero omitted, Abs format*
%FSLAX34Y34*%
G01*
G70*
G90*
G04 APERTURE LIST*
%ADD10C,0.00590551*%
%ADD11C,0.00984252*%
%ADD12C,0.006*%
%ADD13C,0.005*%
%ADD14C,0.012*%
%ADD15C,0.008*%
%ADD16C,0.0047*%
G04 APERTURE END LIST*
G54D10*
G54D11*
X35190Y-27746D02*
X35490Y-27746D01*
X35340Y-27746D02*
X35340Y-28271D01*
X34271Y-27953D02*
X34215Y-27971D01*
X34196Y-27990D01*
X34178Y-28028D01*
X34178Y-28084D01*
X34196Y-28121D01*
X34215Y-28140D01*
X34253Y-28159D01*
X34403Y-28159D01*
X34403Y-27765D01*
X34271Y-27765D01*
X34234Y-27784D01*
X34215Y-27803D01*
X34196Y-27840D01*
X34196Y-27878D01*
X34215Y-27915D01*
X34234Y-27934D01*
X34271Y-27953D01*
X34403Y-27953D01*
X33409Y-28009D02*
X33109Y-28009D01*
X33259Y-28159D02*
X33259Y-27859D01*
X40193Y-19415D02*
X39968Y-19415D01*
X40081Y-19809D02*
X40081Y-19415D01*
X39874Y-19415D02*
X39612Y-19809D01*
X39612Y-19415D02*
X39874Y-19809D01*
X38562Y-19396D02*
X38862Y-19396D01*
X38712Y-19396D02*
X38712Y-19921D01*
G54D10*
X42811Y-28307D02*
X42811Y-18228D01*
X42811Y-18228D02*
X40763Y-18228D01*
X40763Y-18228D02*
X40763Y-28307D01*
X40763Y-28307D02*
X42811Y-28307D01*
X24763Y-18228D02*
X24763Y-28307D01*
X24763Y-28307D02*
X26811Y-28307D01*
X26811Y-28307D02*
X26811Y-18228D01*
X26811Y-18228D02*
X24763Y-18228D01*
G54D12*
X35825Y-27600D02*
X35825Y-26600D01*
X35825Y-26600D02*
X32825Y-26600D01*
X32825Y-26600D02*
X32825Y-27600D01*
X32825Y-27600D02*
X35825Y-27600D01*
X34825Y-26600D02*
X34825Y-27600D01*
X38300Y-18250D02*
X38300Y-19250D01*
X38300Y-19250D02*
X40300Y-19250D01*
X40300Y-19250D02*
X40300Y-18250D01*
X40300Y-18250D02*
X38300Y-18250D01*
G54D10*
X32868Y-21100D02*
X32868Y-18265D01*
X32868Y-18265D02*
X33734Y-18265D01*
X33734Y-18265D02*
X33734Y-19249D01*
X32868Y-21100D02*
X32868Y-23934D01*
X32868Y-23934D02*
X33380Y-23934D01*
X33380Y-23934D02*
X33734Y-23934D01*
X33734Y-23934D02*
X33734Y-22950D01*
X38734Y-21100D02*
G75*
G03X38734Y-21100I-2834J0D01*
G74*
G01*
X38380Y-21100D02*
G75*
G03X38380Y-21100I-2480J0D01*
G74*
G01*
G54D13*
X35500Y-25700D02*
X35500Y-24450D01*
X33475Y-25700D02*
X33475Y-24450D01*
X33475Y-24450D02*
X35875Y-24450D01*
X35875Y-24450D02*
X35875Y-25700D01*
X35875Y-25700D02*
X33475Y-25700D01*
X39075Y-25700D02*
X39075Y-24450D01*
X37050Y-25700D02*
X37050Y-24450D01*
X37050Y-24450D02*
X39450Y-24450D01*
X39450Y-24450D02*
X39450Y-25700D01*
X39450Y-25700D02*
X37050Y-25700D01*
G54D14*
X31150Y-18250D02*
X27150Y-18250D01*
X27150Y-18250D02*
X27150Y-20250D01*
X27150Y-20250D02*
X31150Y-20250D01*
X31150Y-20250D02*
X31150Y-18250D01*
G54D13*
X32150Y-31800D02*
X27350Y-31800D01*
X27350Y-31800D02*
X27350Y-25100D01*
X27350Y-25100D02*
X32150Y-25100D01*
X32150Y-25100D02*
X32150Y-31800D01*
G54D15*
X40561Y-22546D02*
X40161Y-22546D01*
X40447Y-22680D01*
X40161Y-22813D01*
X40561Y-22813D01*
X40523Y-23232D02*
X40542Y-23213D01*
X40561Y-23156D01*
X40561Y-23118D01*
X40542Y-23060D01*
X40504Y-23022D01*
X40466Y-23003D01*
X40390Y-22984D01*
X40333Y-22984D01*
X40257Y-23003D01*
X40219Y-23022D01*
X40180Y-23060D01*
X40161Y-23118D01*
X40161Y-23156D01*
X40180Y-23213D01*
X40200Y-23232D01*
X40161Y-23403D02*
X40485Y-23403D01*
X40523Y-23422D01*
X40542Y-23441D01*
X40561Y-23480D01*
X40561Y-23556D01*
X40542Y-23594D01*
X40523Y-23613D01*
X40485Y-23632D01*
X40161Y-23632D01*
X40200Y-23803D02*
X40180Y-23822D01*
X40161Y-23860D01*
X40161Y-23956D01*
X40180Y-23994D01*
X40200Y-24013D01*
X40238Y-24032D01*
X40276Y-24032D01*
X40333Y-24013D01*
X40561Y-23784D01*
X40561Y-24032D01*
X27449Y-22534D02*
X27049Y-22534D01*
X27335Y-22667D01*
X27049Y-22801D01*
X27449Y-22801D01*
X27411Y-23220D02*
X27430Y-23201D01*
X27449Y-23143D01*
X27449Y-23105D01*
X27430Y-23048D01*
X27392Y-23010D01*
X27354Y-22991D01*
X27277Y-22972D01*
X27220Y-22972D01*
X27144Y-22991D01*
X27106Y-23010D01*
X27068Y-23048D01*
X27049Y-23105D01*
X27049Y-23143D01*
X27068Y-23201D01*
X27087Y-23220D01*
X27049Y-23391D02*
X27373Y-23391D01*
X27411Y-23410D01*
X27430Y-23429D01*
X27449Y-23467D01*
X27449Y-23543D01*
X27430Y-23582D01*
X27411Y-23601D01*
X27373Y-23620D01*
X27049Y-23620D01*
X27449Y-24020D02*
X27449Y-23791D01*
X27449Y-23905D02*
X27049Y-23905D01*
X27106Y-23867D01*
X27144Y-23829D01*
X27163Y-23791D01*
G54D12*
X35115Y-26411D02*
X35115Y-26011D01*
X34963Y-26011D01*
X34925Y-26030D01*
X34905Y-26050D01*
X34886Y-26088D01*
X34886Y-26145D01*
X34905Y-26183D01*
X34925Y-26202D01*
X34963Y-26221D01*
X35115Y-26221D01*
X34658Y-26411D02*
X34696Y-26392D01*
X34715Y-26373D01*
X34734Y-26335D01*
X34734Y-26221D01*
X34715Y-26183D01*
X34696Y-26164D01*
X34658Y-26145D01*
X34601Y-26145D01*
X34563Y-26164D01*
X34544Y-26183D01*
X34525Y-26221D01*
X34525Y-26335D01*
X34544Y-26373D01*
X34563Y-26392D01*
X34601Y-26411D01*
X34658Y-26411D01*
X34391Y-26145D02*
X34315Y-26411D01*
X34239Y-26221D01*
X34163Y-26411D01*
X34086Y-26145D01*
X33782Y-26392D02*
X33820Y-26411D01*
X33896Y-26411D01*
X33934Y-26392D01*
X33953Y-26354D01*
X33953Y-26202D01*
X33934Y-26164D01*
X33896Y-26145D01*
X33820Y-26145D01*
X33782Y-26164D01*
X33763Y-26202D01*
X33763Y-26240D01*
X33953Y-26278D01*
X33591Y-26411D02*
X33591Y-26145D01*
X33591Y-26221D02*
X33572Y-26183D01*
X33553Y-26164D01*
X33515Y-26145D01*
X33477Y-26145D01*
X40069Y-17491D02*
X40069Y-17734D01*
X40055Y-17762D01*
X40040Y-17777D01*
X40012Y-17791D01*
X39955Y-17791D01*
X39926Y-17777D01*
X39912Y-17762D01*
X39897Y-17734D01*
X39897Y-17491D01*
X39769Y-17777D02*
X39726Y-17791D01*
X39654Y-17791D01*
X39626Y-17777D01*
X39612Y-17762D01*
X39597Y-17734D01*
X39597Y-17705D01*
X39612Y-17677D01*
X39626Y-17662D01*
X39654Y-17648D01*
X39712Y-17634D01*
X39740Y-17620D01*
X39754Y-17605D01*
X39769Y-17577D01*
X39769Y-17548D01*
X39754Y-17520D01*
X39740Y-17505D01*
X39712Y-17491D01*
X39640Y-17491D01*
X39597Y-17505D01*
X39483Y-17705D02*
X39340Y-17705D01*
X39512Y-17791D02*
X39412Y-17491D01*
X39312Y-17791D01*
X39040Y-17791D02*
X39140Y-17648D01*
X39212Y-17791D02*
X39212Y-17491D01*
X39097Y-17491D01*
X39069Y-17505D01*
X39055Y-17520D01*
X39040Y-17548D01*
X39040Y-17591D01*
X39055Y-17620D01*
X39069Y-17634D01*
X39097Y-17648D01*
X39212Y-17648D01*
X38955Y-17491D02*
X38783Y-17491D01*
X38869Y-17791D02*
X38869Y-17491D01*
X38526Y-17791D02*
X38697Y-17791D01*
X38612Y-17791D02*
X38612Y-17491D01*
X38640Y-17534D01*
X38669Y-17562D01*
X38697Y-17577D01*
G54D10*
X36209Y-21913D02*
X36153Y-21931D01*
X36134Y-21950D01*
X36115Y-21988D01*
X36115Y-22044D01*
X36134Y-22081D01*
X36153Y-22100D01*
X36190Y-22119D01*
X36340Y-22119D01*
X36340Y-21725D01*
X36209Y-21725D01*
X36171Y-21744D01*
X36153Y-21763D01*
X36134Y-21800D01*
X36134Y-21838D01*
X36153Y-21875D01*
X36171Y-21894D01*
X36209Y-21913D01*
X36340Y-21913D01*
X36003Y-21725D02*
X35778Y-21725D01*
X35890Y-22119D02*
X35890Y-21725D01*
X35440Y-22119D02*
X35665Y-22119D01*
X35553Y-22119D02*
X35553Y-21725D01*
X35590Y-21781D01*
X35628Y-21819D01*
X35665Y-21838D01*
X36834Y-21003D02*
X36778Y-21021D01*
X36759Y-21040D01*
X36740Y-21078D01*
X36740Y-21134D01*
X36759Y-21171D01*
X36778Y-21190D01*
X36815Y-21209D01*
X36965Y-21209D01*
X36965Y-20815D01*
X36834Y-20815D01*
X36796Y-20834D01*
X36778Y-20853D01*
X36759Y-20890D01*
X36759Y-20928D01*
X36778Y-20965D01*
X36796Y-20984D01*
X36834Y-21003D01*
X36965Y-21003D01*
X36590Y-21096D02*
X36403Y-21096D01*
X36628Y-21209D02*
X36496Y-20815D01*
X36365Y-21209D01*
X36290Y-20815D02*
X36065Y-20815D01*
X36178Y-21209D02*
X36178Y-20815D01*
X35990Y-20815D02*
X35765Y-20815D01*
X35878Y-21209D02*
X35878Y-20815D01*
X35634Y-21003D02*
X35503Y-21003D01*
X35446Y-21209D02*
X35634Y-21209D01*
X35634Y-20815D01*
X35446Y-20815D01*
X35053Y-21209D02*
X35184Y-21021D01*
X35278Y-21209D02*
X35278Y-20815D01*
X35128Y-20815D01*
X35090Y-20834D01*
X35071Y-20853D01*
X35053Y-20890D01*
X35053Y-20946D01*
X35071Y-20984D01*
X35090Y-21003D01*
X35128Y-21021D01*
X35278Y-21021D01*
X34809Y-21021D02*
X34809Y-21209D01*
X34940Y-20815D02*
X34809Y-21021D01*
X34678Y-20815D01*
G54D16*
X34707Y-25985D02*
X34717Y-25995D01*
X34745Y-26004D01*
X34764Y-26004D01*
X34792Y-25995D01*
X34811Y-25976D01*
X34820Y-25957D01*
X34829Y-25920D01*
X34829Y-25892D01*
X34820Y-25854D01*
X34811Y-25835D01*
X34792Y-25817D01*
X34764Y-25807D01*
X34745Y-25807D01*
X34717Y-25817D01*
X34707Y-25826D01*
X34632Y-25826D02*
X34623Y-25817D01*
X34604Y-25807D01*
X34557Y-25807D01*
X34538Y-25817D01*
X34529Y-25826D01*
X34520Y-25845D01*
X34520Y-25864D01*
X34529Y-25892D01*
X34642Y-26004D01*
X34520Y-26004D01*
X34979Y-24329D02*
X35092Y-24329D01*
X35036Y-24329D02*
X35036Y-24132D01*
X35054Y-24160D01*
X35073Y-24179D01*
X35092Y-24189D01*
X34857Y-24132D02*
X34839Y-24132D01*
X34820Y-24142D01*
X34811Y-24151D01*
X34801Y-24170D01*
X34792Y-24207D01*
X34792Y-24254D01*
X34801Y-24292D01*
X34811Y-24310D01*
X34820Y-24320D01*
X34839Y-24329D01*
X34857Y-24329D01*
X34876Y-24320D01*
X34886Y-24310D01*
X34895Y-24292D01*
X34904Y-24254D01*
X34904Y-24207D01*
X34895Y-24170D01*
X34886Y-24151D01*
X34876Y-24142D01*
X34857Y-24132D01*
X34670Y-24132D02*
X34651Y-24132D01*
X34632Y-24142D01*
X34623Y-24151D01*
X34614Y-24170D01*
X34604Y-24207D01*
X34604Y-24254D01*
X34614Y-24292D01*
X34623Y-24310D01*
X34632Y-24320D01*
X34651Y-24329D01*
X34670Y-24329D01*
X34689Y-24320D01*
X34698Y-24310D01*
X34707Y-24292D01*
X34717Y-24254D01*
X34717Y-24207D01*
X34707Y-24170D01*
X34698Y-24151D01*
X34689Y-24142D01*
X34670Y-24132D01*
X34435Y-24198D02*
X34435Y-24329D01*
X34520Y-24198D02*
X34520Y-24301D01*
X34510Y-24320D01*
X34492Y-24329D01*
X34463Y-24329D01*
X34445Y-24320D01*
X34435Y-24310D01*
X34276Y-24226D02*
X34341Y-24226D01*
X34341Y-24329D02*
X34341Y-24132D01*
X34248Y-24132D01*
X38282Y-25985D02*
X38292Y-25995D01*
X38320Y-26004D01*
X38339Y-26004D01*
X38367Y-25995D01*
X38386Y-25976D01*
X38395Y-25957D01*
X38404Y-25920D01*
X38404Y-25892D01*
X38395Y-25854D01*
X38386Y-25835D01*
X38367Y-25817D01*
X38339Y-25807D01*
X38320Y-25807D01*
X38292Y-25817D01*
X38282Y-25826D01*
X38217Y-25807D02*
X38095Y-25807D01*
X38160Y-25882D01*
X38132Y-25882D01*
X38113Y-25892D01*
X38104Y-25901D01*
X38095Y-25920D01*
X38095Y-25967D01*
X38104Y-25985D01*
X38113Y-25995D01*
X38132Y-26004D01*
X38189Y-26004D01*
X38207Y-25995D01*
X38217Y-25985D01*
X38554Y-24329D02*
X38667Y-24329D01*
X38611Y-24329D02*
X38611Y-24132D01*
X38629Y-24160D01*
X38648Y-24179D01*
X38667Y-24189D01*
X38432Y-24132D02*
X38414Y-24132D01*
X38395Y-24142D01*
X38386Y-24151D01*
X38376Y-24170D01*
X38367Y-24207D01*
X38367Y-24254D01*
X38376Y-24292D01*
X38386Y-24310D01*
X38395Y-24320D01*
X38414Y-24329D01*
X38432Y-24329D01*
X38451Y-24320D01*
X38461Y-24310D01*
X38470Y-24292D01*
X38479Y-24254D01*
X38479Y-24207D01*
X38470Y-24170D01*
X38461Y-24151D01*
X38451Y-24142D01*
X38432Y-24132D01*
X38245Y-24132D02*
X38226Y-24132D01*
X38207Y-24142D01*
X38198Y-24151D01*
X38189Y-24170D01*
X38179Y-24207D01*
X38179Y-24254D01*
X38189Y-24292D01*
X38198Y-24310D01*
X38207Y-24320D01*
X38226Y-24329D01*
X38245Y-24329D01*
X38264Y-24320D01*
X38273Y-24310D01*
X38282Y-24292D01*
X38292Y-24254D01*
X38292Y-24207D01*
X38282Y-24170D01*
X38273Y-24151D01*
X38264Y-24142D01*
X38245Y-24132D01*
X38010Y-24198D02*
X38010Y-24329D01*
X38095Y-24198D02*
X38095Y-24301D01*
X38085Y-24320D01*
X38067Y-24329D01*
X38038Y-24329D01*
X38020Y-24320D01*
X38010Y-24310D01*
X37851Y-24226D02*
X37916Y-24226D01*
X37916Y-24329D02*
X37916Y-24132D01*
X37823Y-24132D01*
G54D15*
X29445Y-17911D02*
X29445Y-17511D01*
X29292Y-17511D01*
X29254Y-17530D01*
X29235Y-17550D01*
X29216Y-17588D01*
X29216Y-17645D01*
X29235Y-17683D01*
X29254Y-17702D01*
X29292Y-17721D01*
X29445Y-17721D01*
X29026Y-17911D02*
X28949Y-17911D01*
X28911Y-17892D01*
X28892Y-17873D01*
X28854Y-17816D01*
X28835Y-17740D01*
X28835Y-17588D01*
X28854Y-17550D01*
X28873Y-17530D01*
X28911Y-17511D01*
X28988Y-17511D01*
X29026Y-17530D01*
X29045Y-17550D01*
X29064Y-17588D01*
X29064Y-17683D01*
X29045Y-17721D01*
X29026Y-17740D01*
X28988Y-17759D01*
X28911Y-17759D01*
X28873Y-17740D01*
X28854Y-17721D01*
X28835Y-17683D01*
G54D14*
X29950Y-29892D02*
X29950Y-30321D01*
X29978Y-30407D01*
X30035Y-30464D01*
X30121Y-30492D01*
X30178Y-30492D01*
X29350Y-30492D02*
X29692Y-30492D01*
X29521Y-30492D02*
X29521Y-29892D01*
X29578Y-29978D01*
X29635Y-30035D01*
X29692Y-30064D01*
X30507Y-27392D02*
X30507Y-27878D01*
X30478Y-27935D01*
X30450Y-27964D01*
X30392Y-27992D01*
X30278Y-27992D01*
X30221Y-27964D01*
X30192Y-27935D01*
X30164Y-27878D01*
X30164Y-27392D01*
X29907Y-27964D02*
X29821Y-27992D01*
X29678Y-27992D01*
X29621Y-27964D01*
X29592Y-27935D01*
X29564Y-27878D01*
X29564Y-27821D01*
X29592Y-27764D01*
X29621Y-27735D01*
X29678Y-27707D01*
X29792Y-27678D01*
X29850Y-27650D01*
X29878Y-27621D01*
X29907Y-27564D01*
X29907Y-27507D01*
X29878Y-27450D01*
X29850Y-27421D01*
X29792Y-27392D01*
X29650Y-27392D01*
X29564Y-27421D01*
X29107Y-27678D02*
X29021Y-27707D01*
X28992Y-27735D01*
X28964Y-27792D01*
X28964Y-27878D01*
X28992Y-27935D01*
X29021Y-27964D01*
X29078Y-27992D01*
X29307Y-27992D01*
X29307Y-27392D01*
X29107Y-27392D01*
X29050Y-27421D01*
X29021Y-27450D01*
X28992Y-27507D01*
X28992Y-27564D01*
X29021Y-27621D01*
X29050Y-27650D01*
X29107Y-27678D01*
X29307Y-27678D01*
M02*
