G04 (created by PCBNEW (2013-may-18)-stable) date Вт 14 июн 2016 11:11:36*
%MOIN*%
G04 Gerber Fmt 3.4, Leading zero omitted, Abs format*
%FSLAX34Y34*%
G01*
G70*
G90*
G04 APERTURE LIST*
%ADD10C,0.00590551*%
%ADD11R,0.06X0.06*%
%ADD12C,0.06*%
%ADD13R,0.036X0.036*%
%ADD14R,0.0394X0.0276*%
%ADD15R,0.02X0.03*%
%ADD16R,0.03X0.02*%
%ADD17R,0.035X0.055*%
%ADD18R,0.055X0.035*%
%ADD19C,0.16*%
%ADD20R,0.0709X0.0629*%
%ADD21C,0.1063*%
%ADD22C,0.0275591*%
%ADD23C,0.015748*%
%ADD24C,0.023622*%
%ADD25C,0.01*%
%ADD26C,0.00787402*%
G04 APERTURE END LIST*
G54D10*
G54D11*
X41287Y-27767D03*
G54D12*
X42287Y-27767D03*
X41287Y-26767D03*
X42287Y-26767D03*
X41287Y-25767D03*
X42287Y-25767D03*
X41287Y-24767D03*
X42287Y-24767D03*
X41287Y-23767D03*
X42287Y-23767D03*
X41287Y-22767D03*
X42287Y-22767D03*
X41287Y-21767D03*
X42287Y-21767D03*
X41287Y-20767D03*
X42287Y-20767D03*
X41287Y-19767D03*
X42287Y-19767D03*
X41287Y-18767D03*
X42287Y-18767D03*
G54D11*
X26287Y-18767D03*
G54D12*
X25287Y-18767D03*
X26287Y-19767D03*
X25287Y-19767D03*
X26287Y-20767D03*
X25287Y-20767D03*
X26287Y-21767D03*
X25287Y-21767D03*
X26287Y-22767D03*
X25287Y-22767D03*
X26287Y-23767D03*
X25287Y-23767D03*
X26287Y-24767D03*
X25287Y-24767D03*
X26287Y-25767D03*
X25287Y-25767D03*
X26287Y-26767D03*
X25287Y-26767D03*
X26287Y-27767D03*
X25287Y-27767D03*
G54D13*
X28050Y-21500D03*
X27350Y-21500D03*
X27700Y-20700D03*
X30375Y-23175D03*
X29675Y-23175D03*
X30025Y-22375D03*
X29500Y-21500D03*
X28800Y-21500D03*
X29150Y-20700D03*
X32400Y-25250D03*
X33100Y-25250D03*
X32750Y-26050D03*
X30950Y-21500D03*
X30250Y-21500D03*
X30600Y-20700D03*
G54D14*
X30225Y-27300D03*
X30225Y-27675D03*
X30225Y-28050D03*
X29225Y-28050D03*
X29225Y-27675D03*
X29225Y-27300D03*
G54D15*
X32700Y-24025D03*
X33450Y-24025D03*
X32700Y-23025D03*
X33075Y-24025D03*
X33450Y-23025D03*
G54D16*
X29750Y-24425D03*
X29750Y-25175D03*
X30750Y-24425D03*
X29750Y-24800D03*
X30750Y-25175D03*
G54D17*
X31975Y-23750D03*
X31225Y-23750D03*
X38875Y-23600D03*
X38125Y-23600D03*
G54D18*
X31600Y-25225D03*
X31600Y-24475D03*
X29000Y-25125D03*
X29000Y-24375D03*
X28200Y-25975D03*
X28200Y-25225D03*
G54D17*
X31975Y-22350D03*
X31225Y-22350D03*
X31975Y-23050D03*
X31225Y-23050D03*
X32425Y-24600D03*
X33175Y-24600D03*
G54D11*
X36850Y-27750D03*
G54D12*
X36850Y-26750D03*
X37850Y-27750D03*
X37850Y-26750D03*
X38850Y-27750D03*
X38850Y-26750D03*
X39850Y-27750D03*
X39850Y-26750D03*
G54D11*
X35325Y-27100D03*
G54D12*
X34325Y-27100D03*
X33325Y-27100D03*
G54D11*
X38800Y-18750D03*
G54D12*
X39800Y-18750D03*
G54D19*
X28075Y-23075D03*
G54D20*
X28425Y-27784D03*
X28425Y-26666D03*
G54D11*
X30650Y-19750D03*
G54D12*
X30650Y-18750D03*
X29650Y-19750D03*
X29650Y-18750D03*
X28650Y-19750D03*
X28650Y-18750D03*
X27650Y-19750D03*
X27650Y-18750D03*
X29250Y-25900D03*
X30250Y-25900D03*
X30250Y-26687D03*
X29250Y-26687D03*
G54D21*
X27388Y-27750D03*
X32112Y-27750D03*
G54D22*
X37875Y-24200D03*
X26975Y-18575D03*
X35225Y-18600D03*
X37025Y-19275D03*
X34400Y-19625D03*
X35450Y-21050D03*
X37575Y-21800D03*
X28450Y-21850D03*
X30700Y-22750D03*
X28775Y-25575D03*
X29725Y-28025D03*
X30775Y-21925D03*
X29625Y-21925D03*
X32375Y-23050D03*
X40500Y-26000D03*
X39875Y-22775D03*
X31000Y-27025D03*
X40950Y-22250D03*
X40150Y-22250D03*
X30125Y-24425D03*
X28425Y-24725D03*
X30700Y-27675D03*
X28425Y-27275D03*
X30350Y-25325D03*
X29925Y-23650D03*
X26725Y-24275D03*
X28800Y-19250D03*
X27800Y-19250D03*
X29550Y-22375D03*
X35650Y-24200D03*
G54D23*
X41287Y-21767D02*
X41255Y-21767D01*
X26287Y-20767D02*
X26289Y-20767D01*
G54D24*
X37575Y-23600D02*
X37575Y-23900D01*
X37575Y-23900D02*
X37875Y-24200D01*
X28850Y-18250D02*
X31700Y-18250D01*
X34175Y-20725D02*
X34175Y-22500D01*
X31700Y-18250D02*
X34175Y-20725D01*
X25287Y-18767D02*
X25287Y-18762D01*
X29150Y-19250D02*
X29650Y-19750D01*
X29150Y-18550D02*
X29150Y-19250D01*
X28850Y-18250D02*
X29150Y-18550D01*
X25800Y-18250D02*
X28850Y-18250D01*
X25287Y-18762D02*
X25800Y-18250D01*
G54D25*
X37575Y-23600D02*
X38125Y-23600D01*
G54D24*
X34175Y-22500D02*
X34175Y-22600D01*
X34175Y-22600D02*
X34175Y-22500D01*
X34175Y-22600D02*
X36575Y-22600D01*
X32700Y-23025D02*
X32700Y-22725D01*
X32700Y-22725D02*
X32825Y-22600D01*
X32825Y-22600D02*
X34175Y-22600D01*
X36575Y-22600D02*
X37575Y-23600D01*
X26287Y-19362D02*
X26350Y-19300D01*
X26350Y-19300D02*
X26625Y-19300D01*
X26625Y-19300D02*
X26975Y-18950D01*
X26975Y-18950D02*
X26975Y-18575D01*
X26287Y-19767D02*
X26287Y-19362D01*
X28050Y-21500D02*
X28050Y-21775D01*
X28125Y-21850D02*
X28450Y-21850D01*
X28050Y-21775D02*
X28125Y-21850D01*
X30375Y-23175D02*
X30375Y-23075D01*
X30375Y-23075D02*
X30700Y-22750D01*
X29000Y-25125D02*
X29000Y-25350D01*
X29000Y-25350D02*
X28775Y-25575D01*
X29225Y-27675D02*
X29450Y-27675D01*
X29725Y-27950D02*
X29725Y-28025D01*
X29450Y-27675D02*
X29725Y-27950D01*
X30950Y-21500D02*
X30950Y-21750D01*
X30950Y-21750D02*
X30775Y-21925D01*
X29500Y-21500D02*
X29500Y-21800D01*
X29500Y-21800D02*
X29625Y-21925D01*
G54D25*
X31975Y-23050D02*
X32375Y-23050D01*
G54D24*
X33075Y-24025D02*
X33075Y-24500D01*
X33075Y-24500D02*
X33175Y-24600D01*
G54D25*
X31975Y-22350D02*
X31975Y-23050D01*
G54D24*
X33175Y-24600D02*
X33175Y-25175D01*
X33175Y-25175D02*
X33100Y-25250D01*
X29750Y-24800D02*
X29150Y-24800D01*
X29000Y-24950D02*
X29000Y-25125D01*
X29150Y-24800D02*
X29000Y-24950D01*
X32750Y-26050D02*
X32750Y-26525D01*
X32750Y-26525D02*
X33325Y-27100D01*
G54D25*
X41287Y-26767D02*
X40517Y-26767D01*
X38350Y-27250D02*
X37850Y-26750D01*
X40035Y-27250D02*
X38350Y-27250D01*
X40517Y-26767D02*
X40035Y-27250D01*
X38850Y-27750D02*
X39100Y-28000D01*
X41805Y-27250D02*
X42287Y-26767D01*
X40800Y-27250D02*
X41805Y-27250D01*
X40550Y-27500D02*
X40800Y-27250D01*
X40550Y-27700D02*
X40550Y-27500D01*
X40050Y-28200D02*
X40550Y-27700D01*
X39300Y-28200D02*
X40050Y-28200D01*
X39250Y-28150D02*
X39300Y-28200D01*
X39200Y-28100D02*
X39250Y-28150D01*
X39100Y-28000D02*
X39200Y-28100D01*
X38850Y-26750D02*
X39350Y-26250D01*
X41805Y-26250D02*
X42287Y-25767D01*
X39350Y-26250D02*
X41805Y-26250D01*
X40650Y-19405D02*
X41287Y-18767D01*
X40650Y-25850D02*
X40650Y-19405D01*
X40500Y-26000D02*
X40650Y-25850D01*
X37850Y-27750D02*
X37350Y-27250D01*
X41800Y-19280D02*
X42287Y-19767D01*
X41800Y-18600D02*
X41800Y-19280D01*
X41500Y-18300D02*
X41800Y-18600D01*
X41050Y-18300D02*
X41500Y-18300D01*
X40450Y-18900D02*
X41050Y-18300D01*
X40450Y-25650D02*
X40450Y-18900D01*
X40050Y-26050D02*
X40450Y-25650D01*
X37850Y-26050D02*
X40050Y-26050D01*
X37350Y-26550D02*
X37850Y-26050D01*
X37350Y-27250D02*
X37350Y-26550D01*
X30725Y-26750D02*
X32375Y-26750D01*
X39875Y-22950D02*
X39875Y-22775D01*
X39700Y-23125D02*
X39875Y-22950D01*
X38600Y-23125D02*
X39700Y-23125D01*
X38500Y-23225D02*
X38600Y-23125D01*
X38500Y-24025D02*
X38500Y-23225D01*
X35750Y-26775D02*
X38500Y-24025D01*
X35750Y-27475D02*
X35750Y-26775D01*
X35700Y-27525D02*
X35750Y-27475D01*
X33150Y-27525D02*
X35700Y-27525D01*
X32375Y-26750D02*
X33150Y-27525D01*
X30225Y-27300D02*
X30500Y-27300D01*
X30725Y-26375D02*
X30250Y-25900D01*
X30725Y-27075D02*
X30725Y-26750D01*
X30725Y-26750D02*
X30725Y-26375D01*
X30500Y-27300D02*
X30725Y-27075D01*
X31000Y-27025D02*
X31750Y-27025D01*
X38875Y-23874D02*
X35909Y-26840D01*
X35909Y-26840D02*
X35909Y-27540D01*
X35909Y-27540D02*
X35750Y-27700D01*
X35750Y-27700D02*
X33100Y-27700D01*
X33100Y-27700D02*
X32425Y-27025D01*
X32425Y-27025D02*
X31750Y-27025D01*
X38875Y-23874D02*
X38875Y-23600D01*
X30725Y-28050D02*
X30225Y-28050D01*
X31000Y-27775D02*
X30725Y-28050D01*
X31000Y-27025D02*
X31000Y-27775D01*
X40150Y-22250D02*
X40150Y-23275D01*
X40150Y-23275D02*
X39825Y-23600D01*
X39825Y-23600D02*
X38875Y-23600D01*
X42287Y-22767D02*
X41917Y-22767D01*
X41917Y-22767D02*
X41400Y-22250D01*
X41400Y-22250D02*
X40950Y-22250D01*
X38875Y-23525D02*
X38875Y-23600D01*
G54D24*
X33750Y-26075D02*
X33750Y-26525D01*
X33325Y-25650D02*
X33750Y-26075D01*
X31750Y-25650D02*
X33325Y-25650D01*
X31600Y-25500D02*
X31750Y-25650D01*
X31600Y-25225D02*
X31600Y-25500D01*
X33750Y-26525D02*
X34325Y-27100D01*
X29750Y-25175D02*
X30025Y-25175D01*
X31600Y-24950D02*
X31600Y-25225D01*
X31500Y-24850D02*
X31600Y-24950D01*
X30350Y-24850D02*
X31500Y-24850D01*
X30025Y-25175D02*
X30350Y-24850D01*
X30750Y-24425D02*
X31075Y-24425D01*
X31125Y-24475D02*
X31600Y-24475D01*
X31075Y-24425D02*
X31125Y-24475D01*
X29000Y-24375D02*
X29000Y-24100D01*
X30750Y-24150D02*
X30750Y-24425D01*
X30600Y-24000D02*
X30750Y-24150D01*
X29100Y-24000D02*
X30600Y-24000D01*
X29000Y-24100D02*
X29100Y-24000D01*
G54D25*
X25287Y-19767D02*
X25292Y-19767D01*
X27350Y-20975D02*
X27350Y-21500D01*
X26650Y-20275D02*
X27350Y-20975D01*
X25800Y-20275D02*
X26650Y-20275D01*
X25292Y-19767D02*
X25800Y-20275D01*
G54D24*
X27700Y-20700D02*
X27700Y-20450D01*
X27100Y-19300D02*
X27650Y-18750D01*
X27100Y-20100D02*
X27100Y-19300D01*
X27325Y-20325D02*
X27100Y-20100D01*
X27575Y-20325D02*
X27325Y-20325D01*
X27700Y-20450D02*
X27575Y-20325D01*
G54D25*
X28425Y-24725D02*
X28425Y-24775D01*
X29750Y-24425D02*
X30125Y-24425D01*
X28200Y-25000D02*
X28200Y-25225D01*
X28425Y-24775D02*
X28200Y-25000D01*
X28200Y-25975D02*
X28200Y-26441D01*
X28200Y-26441D02*
X28425Y-26666D01*
G54D24*
X29150Y-20700D02*
X28600Y-20700D01*
X28600Y-20700D02*
X27650Y-19750D01*
G54D25*
X28425Y-27784D02*
X28425Y-27275D01*
X30700Y-27675D02*
X30225Y-27675D01*
G54D24*
X29250Y-25900D02*
X29750Y-26400D01*
X29875Y-27675D02*
X30225Y-27675D01*
X29750Y-27550D02*
X29875Y-27675D01*
X29750Y-26400D02*
X29750Y-27550D01*
X30500Y-25175D02*
X30750Y-25175D01*
X30350Y-25325D02*
X30500Y-25175D01*
G54D25*
X25287Y-25767D02*
X25287Y-25337D01*
X30875Y-23750D02*
X31225Y-23750D01*
X30775Y-23650D02*
X30875Y-23750D01*
X29925Y-23650D02*
X30775Y-23650D01*
X26100Y-24275D02*
X26725Y-24275D01*
X25800Y-24575D02*
X26100Y-24275D01*
X25800Y-25025D02*
X25800Y-24575D01*
X25575Y-25250D02*
X25800Y-25025D01*
X25375Y-25250D02*
X25575Y-25250D01*
X25287Y-25337D02*
X25375Y-25250D01*
X31225Y-23050D02*
X31225Y-22350D01*
X31225Y-23750D02*
X31225Y-23050D01*
X27800Y-19250D02*
X28800Y-19250D01*
G54D24*
X30600Y-20700D02*
X29925Y-20700D01*
X29175Y-20275D02*
X28650Y-19750D01*
X29500Y-20275D02*
X29175Y-20275D01*
X29925Y-20700D02*
X29500Y-20275D01*
X29550Y-22375D02*
X30025Y-22375D01*
G54D25*
X27025Y-22600D02*
X27025Y-22575D01*
X25800Y-25525D02*
X25800Y-26255D01*
X26075Y-25250D02*
X25800Y-25525D01*
X26725Y-25250D02*
X26075Y-25250D01*
X27025Y-24950D02*
X26725Y-25250D01*
X27025Y-22600D02*
X27025Y-24950D01*
X25287Y-26767D02*
X25800Y-26255D01*
X28800Y-21950D02*
X28800Y-21500D01*
X28650Y-22100D02*
X28800Y-21950D01*
X27500Y-22100D02*
X28650Y-22100D01*
X27025Y-22575D02*
X27500Y-22100D01*
X26287Y-25767D02*
X26982Y-25767D01*
X29675Y-23475D02*
X29675Y-23175D01*
X29500Y-23650D02*
X29675Y-23475D01*
X29100Y-23650D02*
X29500Y-23650D01*
X26982Y-25767D02*
X29100Y-23650D01*
X25287Y-24767D02*
X25287Y-24762D01*
X30250Y-21200D02*
X30250Y-21500D01*
X30125Y-21075D02*
X30250Y-21200D01*
X27900Y-21075D02*
X30125Y-21075D01*
X27700Y-21275D02*
X27900Y-21075D01*
X27700Y-21675D02*
X27700Y-21275D01*
X27550Y-21825D02*
X27700Y-21675D01*
X26975Y-21825D02*
X27550Y-21825D01*
X26850Y-21700D02*
X26975Y-21825D01*
X26850Y-21500D02*
X26850Y-21700D01*
X26600Y-21250D02*
X26850Y-21500D01*
X26075Y-21250D02*
X26600Y-21250D01*
X25800Y-21525D02*
X26075Y-21250D01*
X25800Y-24250D02*
X25800Y-21525D01*
X25287Y-24762D02*
X25800Y-24250D01*
G54D24*
X33450Y-23675D02*
X35125Y-23675D01*
X35125Y-23675D02*
X35650Y-24200D01*
X31975Y-23750D02*
X31725Y-23750D01*
X31600Y-19700D02*
X30650Y-18750D01*
X31600Y-23625D02*
X31600Y-19700D01*
X31725Y-23750D02*
X31600Y-23625D01*
X32425Y-24600D02*
X32425Y-24075D01*
X32475Y-24025D02*
X32700Y-24025D01*
X32425Y-24075D02*
X32475Y-24025D01*
X32400Y-25250D02*
X32400Y-24625D01*
X32400Y-24625D02*
X32425Y-24600D01*
X31975Y-23750D02*
X32625Y-23750D01*
X32625Y-23750D02*
X32700Y-23675D01*
X32700Y-24025D02*
X32700Y-23675D01*
X33450Y-23675D02*
X33450Y-24025D01*
X33300Y-23525D02*
X33450Y-23675D01*
X32850Y-23525D02*
X33300Y-23525D01*
X32700Y-23675D02*
X32850Y-23525D01*
G54D10*
G36*
X28631Y-21880D02*
X28580Y-21931D01*
X28466Y-21931D01*
X28466Y-21633D01*
X28466Y-21598D01*
X28407Y-21539D01*
X28089Y-21539D01*
X28089Y-21857D01*
X28148Y-21916D01*
X28276Y-21916D01*
X28363Y-21880D01*
X28430Y-21813D01*
X28466Y-21727D01*
X28466Y-21633D01*
X28466Y-21931D01*
X27680Y-21931D01*
X27734Y-21878D01*
X27736Y-21880D01*
X27823Y-21916D01*
X27951Y-21916D01*
X28010Y-21857D01*
X28010Y-21539D01*
X28002Y-21539D01*
X28002Y-21460D01*
X28010Y-21460D01*
X28010Y-21452D01*
X28089Y-21452D01*
X28089Y-21460D01*
X28407Y-21460D01*
X28466Y-21401D01*
X28466Y-21366D01*
X28466Y-21272D01*
X28453Y-21243D01*
X28529Y-21243D01*
X28519Y-21253D01*
X28501Y-21296D01*
X28501Y-21343D01*
X28501Y-21703D01*
X28519Y-21746D01*
X28553Y-21780D01*
X28596Y-21798D01*
X28631Y-21798D01*
X28631Y-21880D01*
X28631Y-21880D01*
G37*
G54D26*
X28631Y-21880D02*
X28580Y-21931D01*
X28466Y-21931D01*
X28466Y-21633D01*
X28466Y-21598D01*
X28407Y-21539D01*
X28089Y-21539D01*
X28089Y-21857D01*
X28148Y-21916D01*
X28276Y-21916D01*
X28363Y-21880D01*
X28430Y-21813D01*
X28466Y-21727D01*
X28466Y-21633D01*
X28466Y-21931D01*
X27680Y-21931D01*
X27734Y-21878D01*
X27736Y-21880D01*
X27823Y-21916D01*
X27951Y-21916D01*
X28010Y-21857D01*
X28010Y-21539D01*
X28002Y-21539D01*
X28002Y-21460D01*
X28010Y-21460D01*
X28010Y-21452D01*
X28089Y-21452D01*
X28089Y-21460D01*
X28407Y-21460D01*
X28466Y-21401D01*
X28466Y-21366D01*
X28466Y-21272D01*
X28453Y-21243D01*
X28529Y-21243D01*
X28519Y-21253D01*
X28501Y-21296D01*
X28501Y-21343D01*
X28501Y-21703D01*
X28519Y-21746D01*
X28553Y-21780D01*
X28596Y-21798D01*
X28631Y-21798D01*
X28631Y-21880D01*
G54D10*
G36*
X29272Y-27714D02*
X29264Y-27714D01*
X29264Y-27722D01*
X29185Y-27722D01*
X29185Y-27714D01*
X29177Y-27714D01*
X29177Y-27635D01*
X29185Y-27635D01*
X29185Y-27627D01*
X29264Y-27627D01*
X29264Y-27635D01*
X29272Y-27635D01*
X29272Y-27714D01*
X29272Y-27714D01*
G37*
G54D26*
X29272Y-27714D02*
X29264Y-27714D01*
X29264Y-27722D01*
X29185Y-27722D01*
X29185Y-27714D01*
X29177Y-27714D01*
X29177Y-27635D01*
X29185Y-27635D01*
X29185Y-27627D01*
X29264Y-27627D01*
X29264Y-27635D01*
X29272Y-27635D01*
X29272Y-27714D01*
G54D10*
G36*
X29311Y-26692D02*
X29255Y-26748D01*
X29250Y-26742D01*
X28934Y-27058D01*
X28940Y-27081D01*
X28927Y-27095D01*
X28909Y-27138D01*
X28909Y-27185D01*
X28909Y-27330D01*
X28894Y-27336D01*
X28853Y-27376D01*
X28846Y-27369D01*
X28803Y-27351D01*
X28756Y-27351D01*
X28670Y-27351D01*
X28680Y-27326D01*
X28680Y-27224D01*
X28642Y-27130D01*
X28610Y-27098D01*
X28802Y-27098D01*
X28846Y-27080D01*
X28879Y-27047D01*
X28897Y-27004D01*
X28897Y-26983D01*
X29194Y-26687D01*
X29188Y-26681D01*
X29244Y-26625D01*
X29250Y-26631D01*
X29255Y-26625D01*
X29311Y-26681D01*
X29305Y-26687D01*
X29311Y-26692D01*
X29311Y-26692D01*
G37*
G54D26*
X29311Y-26692D02*
X29255Y-26748D01*
X29250Y-26742D01*
X28934Y-27058D01*
X28940Y-27081D01*
X28927Y-27095D01*
X28909Y-27138D01*
X28909Y-27185D01*
X28909Y-27330D01*
X28894Y-27336D01*
X28853Y-27376D01*
X28846Y-27369D01*
X28803Y-27351D01*
X28756Y-27351D01*
X28670Y-27351D01*
X28680Y-27326D01*
X28680Y-27224D01*
X28642Y-27130D01*
X28610Y-27098D01*
X28802Y-27098D01*
X28846Y-27080D01*
X28879Y-27047D01*
X28897Y-27004D01*
X28897Y-26983D01*
X29194Y-26687D01*
X29188Y-26681D01*
X29244Y-26625D01*
X29250Y-26631D01*
X29255Y-26625D01*
X29311Y-26681D01*
X29305Y-26687D01*
X29311Y-26692D01*
G54D10*
G36*
X29521Y-24236D02*
X29499Y-24258D01*
X29481Y-24301D01*
X29481Y-24348D01*
X29481Y-24493D01*
X29466Y-24499D01*
X29399Y-24566D01*
X29363Y-24653D01*
X29363Y-24701D01*
X29422Y-24760D01*
X29419Y-24760D01*
X29408Y-24749D01*
X29322Y-24713D01*
X29228Y-24713D01*
X29098Y-24713D01*
X29039Y-24772D01*
X29039Y-25085D01*
X29047Y-25085D01*
X29047Y-25164D01*
X29039Y-25164D01*
X29039Y-25477D01*
X29080Y-25517D01*
X29013Y-25545D01*
X28895Y-25662D01*
X28831Y-25816D01*
X28831Y-25982D01*
X28895Y-26136D01*
X28975Y-26216D01*
X28961Y-26222D01*
X28934Y-26315D01*
X28891Y-26273D01*
X28879Y-26285D01*
X28879Y-26284D01*
X28846Y-26251D01*
X28803Y-26233D01*
X28756Y-26233D01*
X28558Y-26233D01*
X28575Y-26216D01*
X28593Y-26173D01*
X28593Y-26126D01*
X28593Y-25776D01*
X28575Y-25733D01*
X28541Y-25699D01*
X28498Y-25681D01*
X28451Y-25681D01*
X27901Y-25681D01*
X27858Y-25699D01*
X27824Y-25733D01*
X27806Y-25776D01*
X27806Y-25823D01*
X27806Y-26173D01*
X27824Y-26216D01*
X27858Y-26250D01*
X27901Y-26268D01*
X27948Y-26268D01*
X27986Y-26268D01*
X27970Y-26284D01*
X27952Y-26327D01*
X27952Y-26374D01*
X27952Y-27003D01*
X27970Y-27047D01*
X28003Y-27080D01*
X28046Y-27098D01*
X28093Y-27098D01*
X28239Y-27098D01*
X28208Y-27129D01*
X28169Y-27223D01*
X28169Y-27325D01*
X28179Y-27351D01*
X28047Y-27351D01*
X28003Y-27369D01*
X27970Y-27402D01*
X27958Y-27430D01*
X27939Y-27382D01*
X27756Y-27199D01*
X27517Y-27100D01*
X27259Y-27100D01*
X27020Y-27198D01*
X26837Y-27381D01*
X26738Y-27620D01*
X26738Y-27878D01*
X26836Y-28117D01*
X26921Y-28202D01*
X26705Y-28202D01*
X26705Y-27684D01*
X26705Y-26684D01*
X26642Y-26531D01*
X26524Y-26413D01*
X26370Y-26349D01*
X26204Y-26349D01*
X26050Y-26413D01*
X25933Y-26530D01*
X25869Y-26684D01*
X25869Y-26850D01*
X25932Y-27004D01*
X26050Y-27121D01*
X26203Y-27185D01*
X26370Y-27185D01*
X26523Y-27122D01*
X26641Y-27004D01*
X26705Y-26851D01*
X26705Y-26684D01*
X26705Y-27684D01*
X26642Y-27531D01*
X26524Y-27413D01*
X26370Y-27349D01*
X26204Y-27349D01*
X26050Y-27413D01*
X25933Y-27530D01*
X25869Y-27684D01*
X25869Y-27850D01*
X25932Y-28004D01*
X26050Y-28121D01*
X26203Y-28185D01*
X26370Y-28185D01*
X26523Y-28122D01*
X26641Y-28004D01*
X26705Y-27851D01*
X26705Y-27684D01*
X26705Y-28202D01*
X25705Y-28202D01*
X25705Y-27684D01*
X25642Y-27531D01*
X25524Y-27413D01*
X25370Y-27349D01*
X25204Y-27349D01*
X25050Y-27413D01*
X24933Y-27530D01*
X24869Y-27684D01*
X24869Y-27850D01*
X24932Y-28004D01*
X25050Y-28121D01*
X25203Y-28185D01*
X25370Y-28185D01*
X25523Y-28122D01*
X25641Y-28004D01*
X25705Y-27851D01*
X25705Y-27684D01*
X25705Y-28202D01*
X24847Y-28202D01*
X24847Y-18247D01*
X25468Y-18247D01*
X25366Y-18349D01*
X25204Y-18349D01*
X25050Y-18413D01*
X24933Y-18530D01*
X24869Y-18684D01*
X24869Y-18850D01*
X24932Y-19004D01*
X25050Y-19121D01*
X25203Y-19185D01*
X25370Y-19185D01*
X25523Y-19122D01*
X25641Y-19004D01*
X25705Y-18851D01*
X25705Y-18684D01*
X25703Y-18680D01*
X25751Y-18632D01*
X25751Y-18669D01*
X25810Y-18728D01*
X26248Y-18728D01*
X26248Y-18720D01*
X26326Y-18720D01*
X26326Y-18728D01*
X26334Y-18728D01*
X26334Y-18807D01*
X26326Y-18807D01*
X26326Y-18814D01*
X26248Y-18814D01*
X26248Y-18807D01*
X25810Y-18807D01*
X25751Y-18866D01*
X25751Y-19114D01*
X25787Y-19201D01*
X25853Y-19267D01*
X25940Y-19303D01*
X26034Y-19303D01*
X26062Y-19303D01*
X26051Y-19362D01*
X26051Y-19412D01*
X26050Y-19413D01*
X25933Y-19530D01*
X25869Y-19684D01*
X25869Y-19850D01*
X25932Y-20004D01*
X26035Y-20106D01*
X25869Y-20106D01*
X25678Y-19915D01*
X25705Y-19851D01*
X25705Y-19684D01*
X25642Y-19531D01*
X25524Y-19413D01*
X25370Y-19349D01*
X25204Y-19349D01*
X25050Y-19413D01*
X24933Y-19530D01*
X24869Y-19684D01*
X24869Y-19850D01*
X24932Y-20004D01*
X25050Y-20121D01*
X25203Y-20185D01*
X25370Y-20185D01*
X25443Y-20155D01*
X25681Y-20393D01*
X25681Y-20393D01*
X25735Y-20430D01*
X25800Y-20443D01*
X26020Y-20443D01*
X25933Y-20530D01*
X25869Y-20684D01*
X25869Y-20850D01*
X25932Y-21004D01*
X26020Y-21092D01*
X26010Y-21094D01*
X25956Y-21131D01*
X25956Y-21131D01*
X25705Y-21381D01*
X25705Y-20684D01*
X25642Y-20531D01*
X25524Y-20413D01*
X25370Y-20349D01*
X25204Y-20349D01*
X25050Y-20413D01*
X24933Y-20530D01*
X24869Y-20684D01*
X24869Y-20850D01*
X24932Y-21004D01*
X25050Y-21121D01*
X25203Y-21185D01*
X25370Y-21185D01*
X25523Y-21122D01*
X25641Y-21004D01*
X25705Y-20851D01*
X25705Y-20684D01*
X25705Y-21381D01*
X25681Y-21406D01*
X25644Y-21460D01*
X25632Y-21521D01*
X25524Y-21413D01*
X25370Y-21349D01*
X25204Y-21349D01*
X25050Y-21413D01*
X24933Y-21530D01*
X24869Y-21684D01*
X24869Y-21850D01*
X24932Y-22004D01*
X25050Y-22121D01*
X25203Y-22185D01*
X25370Y-22185D01*
X25523Y-22122D01*
X25631Y-22014D01*
X25631Y-22520D01*
X25524Y-22413D01*
X25370Y-22349D01*
X25204Y-22349D01*
X25050Y-22413D01*
X24933Y-22530D01*
X24869Y-22684D01*
X24869Y-22850D01*
X24932Y-23004D01*
X25050Y-23121D01*
X25203Y-23185D01*
X25370Y-23185D01*
X25523Y-23122D01*
X25631Y-23014D01*
X25631Y-23520D01*
X25524Y-23413D01*
X25370Y-23349D01*
X25204Y-23349D01*
X25050Y-23413D01*
X24933Y-23530D01*
X24869Y-23684D01*
X24869Y-23850D01*
X24932Y-24004D01*
X25050Y-24121D01*
X25203Y-24185D01*
X25370Y-24185D01*
X25523Y-24122D01*
X25631Y-24014D01*
X25631Y-24180D01*
X25435Y-24376D01*
X25370Y-24349D01*
X25204Y-24349D01*
X25050Y-24413D01*
X24933Y-24530D01*
X24869Y-24684D01*
X24869Y-24850D01*
X24932Y-25004D01*
X25050Y-25121D01*
X25202Y-25185D01*
X25168Y-25218D01*
X25132Y-25273D01*
X25119Y-25337D01*
X25119Y-25337D01*
X25119Y-25384D01*
X25050Y-25413D01*
X24933Y-25530D01*
X24869Y-25684D01*
X24869Y-25850D01*
X24932Y-26004D01*
X25050Y-26121D01*
X25203Y-26185D01*
X25370Y-26185D01*
X25523Y-26122D01*
X25631Y-26014D01*
X25631Y-26185D01*
X25439Y-26378D01*
X25370Y-26349D01*
X25204Y-26349D01*
X25050Y-26413D01*
X24933Y-26530D01*
X24869Y-26684D01*
X24869Y-26850D01*
X24932Y-27004D01*
X25050Y-27121D01*
X25203Y-27185D01*
X25370Y-27185D01*
X25523Y-27122D01*
X25641Y-27004D01*
X25705Y-26851D01*
X25705Y-26684D01*
X25677Y-26615D01*
X25918Y-26373D01*
X25955Y-26319D01*
X25968Y-26255D01*
X25968Y-26255D01*
X25968Y-26255D01*
X25968Y-26039D01*
X26050Y-26121D01*
X26203Y-26185D01*
X26370Y-26185D01*
X26523Y-26122D01*
X26641Y-26004D01*
X26670Y-25935D01*
X26982Y-25935D01*
X26982Y-25935D01*
X26982Y-25935D01*
X27046Y-25923D01*
X27101Y-25886D01*
X27806Y-25180D01*
X27806Y-25423D01*
X27824Y-25466D01*
X27858Y-25500D01*
X27901Y-25518D01*
X27948Y-25518D01*
X28498Y-25518D01*
X28541Y-25500D01*
X28566Y-25475D01*
X28591Y-25500D01*
X28677Y-25536D01*
X28771Y-25536D01*
X28901Y-25536D01*
X28960Y-25477D01*
X28960Y-25164D01*
X28952Y-25164D01*
X28952Y-25085D01*
X28960Y-25085D01*
X28960Y-24772D01*
X28901Y-24713D01*
X28771Y-24713D01*
X28680Y-24713D01*
X28680Y-24674D01*
X28673Y-24656D01*
X28701Y-24668D01*
X28748Y-24668D01*
X29298Y-24668D01*
X29341Y-24650D01*
X29375Y-24616D01*
X29393Y-24573D01*
X29393Y-24526D01*
X29393Y-24236D01*
X29521Y-24236D01*
X29521Y-24236D01*
G37*
G54D26*
X29521Y-24236D02*
X29499Y-24258D01*
X29481Y-24301D01*
X29481Y-24348D01*
X29481Y-24493D01*
X29466Y-24499D01*
X29399Y-24566D01*
X29363Y-24653D01*
X29363Y-24701D01*
X29422Y-24760D01*
X29419Y-24760D01*
X29408Y-24749D01*
X29322Y-24713D01*
X29228Y-24713D01*
X29098Y-24713D01*
X29039Y-24772D01*
X29039Y-25085D01*
X29047Y-25085D01*
X29047Y-25164D01*
X29039Y-25164D01*
X29039Y-25477D01*
X29080Y-25517D01*
X29013Y-25545D01*
X28895Y-25662D01*
X28831Y-25816D01*
X28831Y-25982D01*
X28895Y-26136D01*
X28975Y-26216D01*
X28961Y-26222D01*
X28934Y-26315D01*
X28891Y-26273D01*
X28879Y-26285D01*
X28879Y-26284D01*
X28846Y-26251D01*
X28803Y-26233D01*
X28756Y-26233D01*
X28558Y-26233D01*
X28575Y-26216D01*
X28593Y-26173D01*
X28593Y-26126D01*
X28593Y-25776D01*
X28575Y-25733D01*
X28541Y-25699D01*
X28498Y-25681D01*
X28451Y-25681D01*
X27901Y-25681D01*
X27858Y-25699D01*
X27824Y-25733D01*
X27806Y-25776D01*
X27806Y-25823D01*
X27806Y-26173D01*
X27824Y-26216D01*
X27858Y-26250D01*
X27901Y-26268D01*
X27948Y-26268D01*
X27986Y-26268D01*
X27970Y-26284D01*
X27952Y-26327D01*
X27952Y-26374D01*
X27952Y-27003D01*
X27970Y-27047D01*
X28003Y-27080D01*
X28046Y-27098D01*
X28093Y-27098D01*
X28239Y-27098D01*
X28208Y-27129D01*
X28169Y-27223D01*
X28169Y-27325D01*
X28179Y-27351D01*
X28047Y-27351D01*
X28003Y-27369D01*
X27970Y-27402D01*
X27958Y-27430D01*
X27939Y-27382D01*
X27756Y-27199D01*
X27517Y-27100D01*
X27259Y-27100D01*
X27020Y-27198D01*
X26837Y-27381D01*
X26738Y-27620D01*
X26738Y-27878D01*
X26836Y-28117D01*
X26921Y-28202D01*
X26705Y-28202D01*
X26705Y-27684D01*
X26705Y-26684D01*
X26642Y-26531D01*
X26524Y-26413D01*
X26370Y-26349D01*
X26204Y-26349D01*
X26050Y-26413D01*
X25933Y-26530D01*
X25869Y-26684D01*
X25869Y-26850D01*
X25932Y-27004D01*
X26050Y-27121D01*
X26203Y-27185D01*
X26370Y-27185D01*
X26523Y-27122D01*
X26641Y-27004D01*
X26705Y-26851D01*
X26705Y-26684D01*
X26705Y-27684D01*
X26642Y-27531D01*
X26524Y-27413D01*
X26370Y-27349D01*
X26204Y-27349D01*
X26050Y-27413D01*
X25933Y-27530D01*
X25869Y-27684D01*
X25869Y-27850D01*
X25932Y-28004D01*
X26050Y-28121D01*
X26203Y-28185D01*
X26370Y-28185D01*
X26523Y-28122D01*
X26641Y-28004D01*
X26705Y-27851D01*
X26705Y-27684D01*
X26705Y-28202D01*
X25705Y-28202D01*
X25705Y-27684D01*
X25642Y-27531D01*
X25524Y-27413D01*
X25370Y-27349D01*
X25204Y-27349D01*
X25050Y-27413D01*
X24933Y-27530D01*
X24869Y-27684D01*
X24869Y-27850D01*
X24932Y-28004D01*
X25050Y-28121D01*
X25203Y-28185D01*
X25370Y-28185D01*
X25523Y-28122D01*
X25641Y-28004D01*
X25705Y-27851D01*
X25705Y-27684D01*
X25705Y-28202D01*
X24847Y-28202D01*
X24847Y-18247D01*
X25468Y-18247D01*
X25366Y-18349D01*
X25204Y-18349D01*
X25050Y-18413D01*
X24933Y-18530D01*
X24869Y-18684D01*
X24869Y-18850D01*
X24932Y-19004D01*
X25050Y-19121D01*
X25203Y-19185D01*
X25370Y-19185D01*
X25523Y-19122D01*
X25641Y-19004D01*
X25705Y-18851D01*
X25705Y-18684D01*
X25703Y-18680D01*
X25751Y-18632D01*
X25751Y-18669D01*
X25810Y-18728D01*
X26248Y-18728D01*
X26248Y-18720D01*
X26326Y-18720D01*
X26326Y-18728D01*
X26334Y-18728D01*
X26334Y-18807D01*
X26326Y-18807D01*
X26326Y-18814D01*
X26248Y-18814D01*
X26248Y-18807D01*
X25810Y-18807D01*
X25751Y-18866D01*
X25751Y-19114D01*
X25787Y-19201D01*
X25853Y-19267D01*
X25940Y-19303D01*
X26034Y-19303D01*
X26062Y-19303D01*
X26051Y-19362D01*
X26051Y-19412D01*
X26050Y-19413D01*
X25933Y-19530D01*
X25869Y-19684D01*
X25869Y-19850D01*
X25932Y-20004D01*
X26035Y-20106D01*
X25869Y-20106D01*
X25678Y-19915D01*
X25705Y-19851D01*
X25705Y-19684D01*
X25642Y-19531D01*
X25524Y-19413D01*
X25370Y-19349D01*
X25204Y-19349D01*
X25050Y-19413D01*
X24933Y-19530D01*
X24869Y-19684D01*
X24869Y-19850D01*
X24932Y-20004D01*
X25050Y-20121D01*
X25203Y-20185D01*
X25370Y-20185D01*
X25443Y-20155D01*
X25681Y-20393D01*
X25681Y-20393D01*
X25735Y-20430D01*
X25800Y-20443D01*
X26020Y-20443D01*
X25933Y-20530D01*
X25869Y-20684D01*
X25869Y-20850D01*
X25932Y-21004D01*
X26020Y-21092D01*
X26010Y-21094D01*
X25956Y-21131D01*
X25956Y-21131D01*
X25705Y-21381D01*
X25705Y-20684D01*
X25642Y-20531D01*
X25524Y-20413D01*
X25370Y-20349D01*
X25204Y-20349D01*
X25050Y-20413D01*
X24933Y-20530D01*
X24869Y-20684D01*
X24869Y-20850D01*
X24932Y-21004D01*
X25050Y-21121D01*
X25203Y-21185D01*
X25370Y-21185D01*
X25523Y-21122D01*
X25641Y-21004D01*
X25705Y-20851D01*
X25705Y-20684D01*
X25705Y-21381D01*
X25681Y-21406D01*
X25644Y-21460D01*
X25632Y-21521D01*
X25524Y-21413D01*
X25370Y-21349D01*
X25204Y-21349D01*
X25050Y-21413D01*
X24933Y-21530D01*
X24869Y-21684D01*
X24869Y-21850D01*
X24932Y-22004D01*
X25050Y-22121D01*
X25203Y-22185D01*
X25370Y-22185D01*
X25523Y-22122D01*
X25631Y-22014D01*
X25631Y-22520D01*
X25524Y-22413D01*
X25370Y-22349D01*
X25204Y-22349D01*
X25050Y-22413D01*
X24933Y-22530D01*
X24869Y-22684D01*
X24869Y-22850D01*
X24932Y-23004D01*
X25050Y-23121D01*
X25203Y-23185D01*
X25370Y-23185D01*
X25523Y-23122D01*
X25631Y-23014D01*
X25631Y-23520D01*
X25524Y-23413D01*
X25370Y-23349D01*
X25204Y-23349D01*
X25050Y-23413D01*
X24933Y-23530D01*
X24869Y-23684D01*
X24869Y-23850D01*
X24932Y-24004D01*
X25050Y-24121D01*
X25203Y-24185D01*
X25370Y-24185D01*
X25523Y-24122D01*
X25631Y-24014D01*
X25631Y-24180D01*
X25435Y-24376D01*
X25370Y-24349D01*
X25204Y-24349D01*
X25050Y-24413D01*
X24933Y-24530D01*
X24869Y-24684D01*
X24869Y-24850D01*
X24932Y-25004D01*
X25050Y-25121D01*
X25202Y-25185D01*
X25168Y-25218D01*
X25132Y-25273D01*
X25119Y-25337D01*
X25119Y-25337D01*
X25119Y-25384D01*
X25050Y-25413D01*
X24933Y-25530D01*
X24869Y-25684D01*
X24869Y-25850D01*
X24932Y-26004D01*
X25050Y-26121D01*
X25203Y-26185D01*
X25370Y-26185D01*
X25523Y-26122D01*
X25631Y-26014D01*
X25631Y-26185D01*
X25439Y-26378D01*
X25370Y-26349D01*
X25204Y-26349D01*
X25050Y-26413D01*
X24933Y-26530D01*
X24869Y-26684D01*
X24869Y-26850D01*
X24932Y-27004D01*
X25050Y-27121D01*
X25203Y-27185D01*
X25370Y-27185D01*
X25523Y-27122D01*
X25641Y-27004D01*
X25705Y-26851D01*
X25705Y-26684D01*
X25677Y-26615D01*
X25918Y-26373D01*
X25955Y-26319D01*
X25968Y-26255D01*
X25968Y-26255D01*
X25968Y-26255D01*
X25968Y-26039D01*
X26050Y-26121D01*
X26203Y-26185D01*
X26370Y-26185D01*
X26523Y-26122D01*
X26641Y-26004D01*
X26670Y-25935D01*
X26982Y-25935D01*
X26982Y-25935D01*
X26982Y-25935D01*
X27046Y-25923D01*
X27101Y-25886D01*
X27806Y-25180D01*
X27806Y-25423D01*
X27824Y-25466D01*
X27858Y-25500D01*
X27901Y-25518D01*
X27948Y-25518D01*
X28498Y-25518D01*
X28541Y-25500D01*
X28566Y-25475D01*
X28591Y-25500D01*
X28677Y-25536D01*
X28771Y-25536D01*
X28901Y-25536D01*
X28960Y-25477D01*
X28960Y-25164D01*
X28952Y-25164D01*
X28952Y-25085D01*
X28960Y-25085D01*
X28960Y-24772D01*
X28901Y-24713D01*
X28771Y-24713D01*
X28680Y-24713D01*
X28680Y-24674D01*
X28673Y-24656D01*
X28701Y-24668D01*
X28748Y-24668D01*
X29298Y-24668D01*
X29341Y-24650D01*
X29375Y-24616D01*
X29393Y-24573D01*
X29393Y-24526D01*
X29393Y-24236D01*
X29521Y-24236D01*
G54D10*
G36*
X29797Y-24839D02*
X29789Y-24839D01*
X29789Y-24847D01*
X29710Y-24847D01*
X29710Y-24839D01*
X29702Y-24839D01*
X29702Y-24760D01*
X29710Y-24760D01*
X29710Y-24752D01*
X29789Y-24752D01*
X29789Y-24760D01*
X29797Y-24760D01*
X29797Y-24839D01*
X29797Y-24839D01*
G37*
G54D26*
X29797Y-24839D02*
X29789Y-24839D01*
X29789Y-24847D01*
X29710Y-24847D01*
X29710Y-24839D01*
X29702Y-24839D01*
X29702Y-24760D01*
X29710Y-24760D01*
X29710Y-24752D01*
X29789Y-24752D01*
X29789Y-24760D01*
X29797Y-24760D01*
X29797Y-24839D01*
G54D10*
G36*
X29909Y-27911D02*
X29909Y-27935D01*
X29909Y-28202D01*
X29540Y-28202D01*
X29540Y-28164D01*
X29540Y-28019D01*
X29555Y-28013D01*
X29622Y-27946D01*
X29658Y-27859D01*
X29658Y-27792D01*
X29707Y-27842D01*
X29707Y-27842D01*
X29784Y-27893D01*
X29784Y-27893D01*
X29874Y-27911D01*
X29875Y-27911D01*
X29909Y-27911D01*
X29909Y-27911D01*
G37*
G54D26*
X29909Y-27911D02*
X29909Y-27935D01*
X29909Y-28202D01*
X29540Y-28202D01*
X29540Y-28164D01*
X29540Y-28019D01*
X29555Y-28013D01*
X29622Y-27946D01*
X29658Y-27859D01*
X29658Y-27792D01*
X29707Y-27842D01*
X29707Y-27842D01*
X29784Y-27893D01*
X29784Y-27893D01*
X29874Y-27911D01*
X29875Y-27911D01*
X29909Y-27911D01*
G54D10*
G36*
X31363Y-21956D02*
X31026Y-21956D01*
X30983Y-21974D01*
X30949Y-22008D01*
X30931Y-22051D01*
X30931Y-22098D01*
X30931Y-22648D01*
X30949Y-22691D01*
X30957Y-22699D01*
X30949Y-22708D01*
X30931Y-22751D01*
X30931Y-22798D01*
X30931Y-23348D01*
X30949Y-23391D01*
X30957Y-23399D01*
X30949Y-23408D01*
X30931Y-23451D01*
X30931Y-23498D01*
X30931Y-23569D01*
X30893Y-23531D01*
X30839Y-23494D01*
X30775Y-23481D01*
X30774Y-23481D01*
X30758Y-23481D01*
X30791Y-23402D01*
X30791Y-23308D01*
X30791Y-23041D01*
X30791Y-22947D01*
X30755Y-22861D01*
X30688Y-22794D01*
X30601Y-22758D01*
X30473Y-22758D01*
X30414Y-22817D01*
X30414Y-23135D01*
X30732Y-23135D01*
X30791Y-23076D01*
X30791Y-23041D01*
X30791Y-23308D01*
X30791Y-23273D01*
X30732Y-23214D01*
X30414Y-23214D01*
X30414Y-23222D01*
X30335Y-23222D01*
X30335Y-23214D01*
X30327Y-23214D01*
X30327Y-23135D01*
X30335Y-23135D01*
X30335Y-22817D01*
X30323Y-22805D01*
X30323Y-22531D01*
X30323Y-22171D01*
X30305Y-22128D01*
X30271Y-22094D01*
X30228Y-22076D01*
X30181Y-22076D01*
X29916Y-22076D01*
X29916Y-21633D01*
X29916Y-21598D01*
X29857Y-21539D01*
X29539Y-21539D01*
X29539Y-21857D01*
X29598Y-21916D01*
X29726Y-21916D01*
X29813Y-21880D01*
X29880Y-21813D01*
X29916Y-21727D01*
X29916Y-21633D01*
X29916Y-22076D01*
X29821Y-22076D01*
X29778Y-22094D01*
X29744Y-22128D01*
X29740Y-22138D01*
X29648Y-22138D01*
X29601Y-22119D01*
X29499Y-22119D01*
X29405Y-22157D01*
X29333Y-22229D01*
X29294Y-22323D01*
X29294Y-22425D01*
X29332Y-22519D01*
X29404Y-22591D01*
X29498Y-22630D01*
X29600Y-22630D01*
X29648Y-22611D01*
X29740Y-22611D01*
X29744Y-22621D01*
X29778Y-22655D01*
X29821Y-22673D01*
X29868Y-22673D01*
X30228Y-22673D01*
X30271Y-22655D01*
X30305Y-22621D01*
X30323Y-22578D01*
X30323Y-22531D01*
X30323Y-22805D01*
X30276Y-22758D01*
X30148Y-22758D01*
X30061Y-22794D01*
X29994Y-22861D01*
X29961Y-22942D01*
X29955Y-22928D01*
X29921Y-22894D01*
X29878Y-22876D01*
X29831Y-22876D01*
X29471Y-22876D01*
X29428Y-22894D01*
X29394Y-22928D01*
X29376Y-22971D01*
X29376Y-23018D01*
X29376Y-23378D01*
X29394Y-23421D01*
X29428Y-23455D01*
X29448Y-23463D01*
X29430Y-23481D01*
X29100Y-23481D01*
X29099Y-23481D01*
X29087Y-23484D01*
X29035Y-23494D01*
X28981Y-23531D01*
X28981Y-23531D01*
X26912Y-25599D01*
X26670Y-25599D01*
X26642Y-25531D01*
X26529Y-25418D01*
X26724Y-25418D01*
X26725Y-25418D01*
X26725Y-25418D01*
X26789Y-25405D01*
X26843Y-25368D01*
X27143Y-25068D01*
X27143Y-25068D01*
X27143Y-25068D01*
X27180Y-25014D01*
X27180Y-25014D01*
X27190Y-24962D01*
X27193Y-24950D01*
X27193Y-24950D01*
X27193Y-24950D01*
X27193Y-23344D01*
X27296Y-23594D01*
X27554Y-23852D01*
X27891Y-23992D01*
X28256Y-23993D01*
X28594Y-23853D01*
X28852Y-23595D01*
X28992Y-23258D01*
X28993Y-22893D01*
X28853Y-22555D01*
X28595Y-22297D01*
X28525Y-22268D01*
X28649Y-22268D01*
X28650Y-22268D01*
X28650Y-22268D01*
X28714Y-22255D01*
X28768Y-22218D01*
X28918Y-22068D01*
X28918Y-22068D01*
X28918Y-22068D01*
X28955Y-22014D01*
X28968Y-21950D01*
X28968Y-21798D01*
X29003Y-21798D01*
X29046Y-21780D01*
X29080Y-21746D01*
X29086Y-21732D01*
X29119Y-21813D01*
X29186Y-21880D01*
X29273Y-21916D01*
X29401Y-21916D01*
X29460Y-21857D01*
X29460Y-21539D01*
X29452Y-21539D01*
X29452Y-21460D01*
X29460Y-21460D01*
X29460Y-21452D01*
X29539Y-21452D01*
X29539Y-21460D01*
X29857Y-21460D01*
X29916Y-21401D01*
X29916Y-21366D01*
X29916Y-21272D01*
X29903Y-21243D01*
X29979Y-21243D01*
X29969Y-21253D01*
X29951Y-21296D01*
X29951Y-21343D01*
X29951Y-21703D01*
X29969Y-21746D01*
X30003Y-21780D01*
X30046Y-21798D01*
X30093Y-21798D01*
X30453Y-21798D01*
X30496Y-21780D01*
X30530Y-21746D01*
X30536Y-21732D01*
X30569Y-21813D01*
X30636Y-21880D01*
X30723Y-21916D01*
X30851Y-21916D01*
X30910Y-21857D01*
X30910Y-21539D01*
X30902Y-21539D01*
X30902Y-21460D01*
X30910Y-21460D01*
X30910Y-21142D01*
X30851Y-21083D01*
X30723Y-21083D01*
X30636Y-21119D01*
X30569Y-21186D01*
X30536Y-21267D01*
X30530Y-21253D01*
X30496Y-21219D01*
X30453Y-21201D01*
X30418Y-21201D01*
X30418Y-21200D01*
X30418Y-21199D01*
X30418Y-21199D01*
X30415Y-21187D01*
X30405Y-21135D01*
X30405Y-21135D01*
X30368Y-21081D01*
X30368Y-21081D01*
X30243Y-20956D01*
X30214Y-20936D01*
X30315Y-20936D01*
X30319Y-20946D01*
X30353Y-20980D01*
X30396Y-20998D01*
X30443Y-20998D01*
X30803Y-20998D01*
X30846Y-20980D01*
X30880Y-20946D01*
X30898Y-20903D01*
X30898Y-20856D01*
X30898Y-20496D01*
X30880Y-20453D01*
X30846Y-20419D01*
X30803Y-20401D01*
X30756Y-20401D01*
X30610Y-20401D01*
X30610Y-20227D01*
X30610Y-19789D01*
X30610Y-19710D01*
X30610Y-19272D01*
X30551Y-19213D01*
X30303Y-19213D01*
X30216Y-19249D01*
X30149Y-19316D01*
X30113Y-19402D01*
X30113Y-19496D01*
X30113Y-19651D01*
X30172Y-19710D01*
X30610Y-19710D01*
X30610Y-19789D01*
X30172Y-19789D01*
X30113Y-19848D01*
X30113Y-20003D01*
X30113Y-20097D01*
X30149Y-20183D01*
X30216Y-20250D01*
X30303Y-20286D01*
X30551Y-20286D01*
X30610Y-20227D01*
X30610Y-20401D01*
X30396Y-20401D01*
X30353Y-20419D01*
X30319Y-20453D01*
X30315Y-20463D01*
X30022Y-20463D01*
X29727Y-20168D01*
X29732Y-20168D01*
X29886Y-20104D01*
X30004Y-19987D01*
X30068Y-19833D01*
X30068Y-19667D01*
X30004Y-19513D01*
X29887Y-19395D01*
X29733Y-19331D01*
X29567Y-19331D01*
X29566Y-19332D01*
X29386Y-19152D01*
X29386Y-19077D01*
X29412Y-19104D01*
X29566Y-19168D01*
X29732Y-19168D01*
X29886Y-19104D01*
X30004Y-18987D01*
X30068Y-18833D01*
X30068Y-18667D01*
X30004Y-18513D01*
X29977Y-18486D01*
X30322Y-18486D01*
X30295Y-18512D01*
X30231Y-18666D01*
X30231Y-18832D01*
X30295Y-18986D01*
X30412Y-19104D01*
X30566Y-19168D01*
X30732Y-19168D01*
X30733Y-19167D01*
X30779Y-19213D01*
X30748Y-19213D01*
X30689Y-19272D01*
X30689Y-19710D01*
X31127Y-19710D01*
X31186Y-19651D01*
X31186Y-19620D01*
X31363Y-19797D01*
X31363Y-21267D01*
X31330Y-21186D01*
X31263Y-21119D01*
X31186Y-21087D01*
X31186Y-20003D01*
X31186Y-19848D01*
X31127Y-19789D01*
X30689Y-19789D01*
X30689Y-20227D01*
X30748Y-20286D01*
X30996Y-20286D01*
X31083Y-20250D01*
X31150Y-20183D01*
X31186Y-20097D01*
X31186Y-20003D01*
X31186Y-21087D01*
X31176Y-21083D01*
X31048Y-21083D01*
X30989Y-21142D01*
X30989Y-21460D01*
X30997Y-21460D01*
X30997Y-21539D01*
X30989Y-21539D01*
X30989Y-21857D01*
X31048Y-21916D01*
X31176Y-21916D01*
X31263Y-21880D01*
X31330Y-21813D01*
X31363Y-21732D01*
X31363Y-21956D01*
X31363Y-21956D01*
G37*
G54D26*
X31363Y-21956D02*
X31026Y-21956D01*
X30983Y-21974D01*
X30949Y-22008D01*
X30931Y-22051D01*
X30931Y-22098D01*
X30931Y-22648D01*
X30949Y-22691D01*
X30957Y-22699D01*
X30949Y-22708D01*
X30931Y-22751D01*
X30931Y-22798D01*
X30931Y-23348D01*
X30949Y-23391D01*
X30957Y-23399D01*
X30949Y-23408D01*
X30931Y-23451D01*
X30931Y-23498D01*
X30931Y-23569D01*
X30893Y-23531D01*
X30839Y-23494D01*
X30775Y-23481D01*
X30774Y-23481D01*
X30758Y-23481D01*
X30791Y-23402D01*
X30791Y-23308D01*
X30791Y-23041D01*
X30791Y-22947D01*
X30755Y-22861D01*
X30688Y-22794D01*
X30601Y-22758D01*
X30473Y-22758D01*
X30414Y-22817D01*
X30414Y-23135D01*
X30732Y-23135D01*
X30791Y-23076D01*
X30791Y-23041D01*
X30791Y-23308D01*
X30791Y-23273D01*
X30732Y-23214D01*
X30414Y-23214D01*
X30414Y-23222D01*
X30335Y-23222D01*
X30335Y-23214D01*
X30327Y-23214D01*
X30327Y-23135D01*
X30335Y-23135D01*
X30335Y-22817D01*
X30323Y-22805D01*
X30323Y-22531D01*
X30323Y-22171D01*
X30305Y-22128D01*
X30271Y-22094D01*
X30228Y-22076D01*
X30181Y-22076D01*
X29916Y-22076D01*
X29916Y-21633D01*
X29916Y-21598D01*
X29857Y-21539D01*
X29539Y-21539D01*
X29539Y-21857D01*
X29598Y-21916D01*
X29726Y-21916D01*
X29813Y-21880D01*
X29880Y-21813D01*
X29916Y-21727D01*
X29916Y-21633D01*
X29916Y-22076D01*
X29821Y-22076D01*
X29778Y-22094D01*
X29744Y-22128D01*
X29740Y-22138D01*
X29648Y-22138D01*
X29601Y-22119D01*
X29499Y-22119D01*
X29405Y-22157D01*
X29333Y-22229D01*
X29294Y-22323D01*
X29294Y-22425D01*
X29332Y-22519D01*
X29404Y-22591D01*
X29498Y-22630D01*
X29600Y-22630D01*
X29648Y-22611D01*
X29740Y-22611D01*
X29744Y-22621D01*
X29778Y-22655D01*
X29821Y-22673D01*
X29868Y-22673D01*
X30228Y-22673D01*
X30271Y-22655D01*
X30305Y-22621D01*
X30323Y-22578D01*
X30323Y-22531D01*
X30323Y-22805D01*
X30276Y-22758D01*
X30148Y-22758D01*
X30061Y-22794D01*
X29994Y-22861D01*
X29961Y-22942D01*
X29955Y-22928D01*
X29921Y-22894D01*
X29878Y-22876D01*
X29831Y-22876D01*
X29471Y-22876D01*
X29428Y-22894D01*
X29394Y-22928D01*
X29376Y-22971D01*
X29376Y-23018D01*
X29376Y-23378D01*
X29394Y-23421D01*
X29428Y-23455D01*
X29448Y-23463D01*
X29430Y-23481D01*
X29100Y-23481D01*
X29099Y-23481D01*
X29087Y-23484D01*
X29035Y-23494D01*
X28981Y-23531D01*
X28981Y-23531D01*
X26912Y-25599D01*
X26670Y-25599D01*
X26642Y-25531D01*
X26529Y-25418D01*
X26724Y-25418D01*
X26725Y-25418D01*
X26725Y-25418D01*
X26789Y-25405D01*
X26843Y-25368D01*
X27143Y-25068D01*
X27143Y-25068D01*
X27143Y-25068D01*
X27180Y-25014D01*
X27180Y-25014D01*
X27190Y-24962D01*
X27193Y-24950D01*
X27193Y-24950D01*
X27193Y-24950D01*
X27193Y-23344D01*
X27296Y-23594D01*
X27554Y-23852D01*
X27891Y-23992D01*
X28256Y-23993D01*
X28594Y-23853D01*
X28852Y-23595D01*
X28992Y-23258D01*
X28993Y-22893D01*
X28853Y-22555D01*
X28595Y-22297D01*
X28525Y-22268D01*
X28649Y-22268D01*
X28650Y-22268D01*
X28650Y-22268D01*
X28714Y-22255D01*
X28768Y-22218D01*
X28918Y-22068D01*
X28918Y-22068D01*
X28918Y-22068D01*
X28955Y-22014D01*
X28968Y-21950D01*
X28968Y-21798D01*
X29003Y-21798D01*
X29046Y-21780D01*
X29080Y-21746D01*
X29086Y-21732D01*
X29119Y-21813D01*
X29186Y-21880D01*
X29273Y-21916D01*
X29401Y-21916D01*
X29460Y-21857D01*
X29460Y-21539D01*
X29452Y-21539D01*
X29452Y-21460D01*
X29460Y-21460D01*
X29460Y-21452D01*
X29539Y-21452D01*
X29539Y-21460D01*
X29857Y-21460D01*
X29916Y-21401D01*
X29916Y-21366D01*
X29916Y-21272D01*
X29903Y-21243D01*
X29979Y-21243D01*
X29969Y-21253D01*
X29951Y-21296D01*
X29951Y-21343D01*
X29951Y-21703D01*
X29969Y-21746D01*
X30003Y-21780D01*
X30046Y-21798D01*
X30093Y-21798D01*
X30453Y-21798D01*
X30496Y-21780D01*
X30530Y-21746D01*
X30536Y-21732D01*
X30569Y-21813D01*
X30636Y-21880D01*
X30723Y-21916D01*
X30851Y-21916D01*
X30910Y-21857D01*
X30910Y-21539D01*
X30902Y-21539D01*
X30902Y-21460D01*
X30910Y-21460D01*
X30910Y-21142D01*
X30851Y-21083D01*
X30723Y-21083D01*
X30636Y-21119D01*
X30569Y-21186D01*
X30536Y-21267D01*
X30530Y-21253D01*
X30496Y-21219D01*
X30453Y-21201D01*
X30418Y-21201D01*
X30418Y-21200D01*
X30418Y-21199D01*
X30418Y-21199D01*
X30415Y-21187D01*
X30405Y-21135D01*
X30405Y-21135D01*
X30368Y-21081D01*
X30368Y-21081D01*
X30243Y-20956D01*
X30214Y-20936D01*
X30315Y-20936D01*
X30319Y-20946D01*
X30353Y-20980D01*
X30396Y-20998D01*
X30443Y-20998D01*
X30803Y-20998D01*
X30846Y-20980D01*
X30880Y-20946D01*
X30898Y-20903D01*
X30898Y-20856D01*
X30898Y-20496D01*
X30880Y-20453D01*
X30846Y-20419D01*
X30803Y-20401D01*
X30756Y-20401D01*
X30610Y-20401D01*
X30610Y-20227D01*
X30610Y-19789D01*
X30610Y-19710D01*
X30610Y-19272D01*
X30551Y-19213D01*
X30303Y-19213D01*
X30216Y-19249D01*
X30149Y-19316D01*
X30113Y-19402D01*
X30113Y-19496D01*
X30113Y-19651D01*
X30172Y-19710D01*
X30610Y-19710D01*
X30610Y-19789D01*
X30172Y-19789D01*
X30113Y-19848D01*
X30113Y-20003D01*
X30113Y-20097D01*
X30149Y-20183D01*
X30216Y-20250D01*
X30303Y-20286D01*
X30551Y-20286D01*
X30610Y-20227D01*
X30610Y-20401D01*
X30396Y-20401D01*
X30353Y-20419D01*
X30319Y-20453D01*
X30315Y-20463D01*
X30022Y-20463D01*
X29727Y-20168D01*
X29732Y-20168D01*
X29886Y-20104D01*
X30004Y-19987D01*
X30068Y-19833D01*
X30068Y-19667D01*
X30004Y-19513D01*
X29887Y-19395D01*
X29733Y-19331D01*
X29567Y-19331D01*
X29566Y-19332D01*
X29386Y-19152D01*
X29386Y-19077D01*
X29412Y-19104D01*
X29566Y-19168D01*
X29732Y-19168D01*
X29886Y-19104D01*
X30004Y-18987D01*
X30068Y-18833D01*
X30068Y-18667D01*
X30004Y-18513D01*
X29977Y-18486D01*
X30322Y-18486D01*
X30295Y-18512D01*
X30231Y-18666D01*
X30231Y-18832D01*
X30295Y-18986D01*
X30412Y-19104D01*
X30566Y-19168D01*
X30732Y-19168D01*
X30733Y-19167D01*
X30779Y-19213D01*
X30748Y-19213D01*
X30689Y-19272D01*
X30689Y-19710D01*
X31127Y-19710D01*
X31186Y-19651D01*
X31186Y-19620D01*
X31363Y-19797D01*
X31363Y-21267D01*
X31330Y-21186D01*
X31263Y-21119D01*
X31186Y-21087D01*
X31186Y-20003D01*
X31186Y-19848D01*
X31127Y-19789D01*
X30689Y-19789D01*
X30689Y-20227D01*
X30748Y-20286D01*
X30996Y-20286D01*
X31083Y-20250D01*
X31150Y-20183D01*
X31186Y-20097D01*
X31186Y-20003D01*
X31186Y-21087D01*
X31176Y-21083D01*
X31048Y-21083D01*
X30989Y-21142D01*
X30989Y-21460D01*
X30997Y-21460D01*
X30997Y-21539D01*
X30989Y-21539D01*
X30989Y-21857D01*
X31048Y-21916D01*
X31176Y-21916D01*
X31263Y-21880D01*
X31330Y-21813D01*
X31363Y-21732D01*
X31363Y-21956D01*
G54D10*
G36*
X33122Y-24064D02*
X33114Y-24064D01*
X33114Y-24072D01*
X33035Y-24072D01*
X33035Y-24064D01*
X33027Y-24064D01*
X33027Y-23985D01*
X33035Y-23985D01*
X33035Y-23977D01*
X33114Y-23977D01*
X33114Y-23985D01*
X33122Y-23985D01*
X33122Y-24064D01*
X33122Y-24064D01*
G37*
G54D26*
X33122Y-24064D02*
X33114Y-24064D01*
X33114Y-24072D01*
X33035Y-24072D01*
X33035Y-24064D01*
X33027Y-24064D01*
X33027Y-23985D01*
X33035Y-23985D01*
X33035Y-23977D01*
X33114Y-23977D01*
X33114Y-23985D01*
X33122Y-23985D01*
X33122Y-24064D01*
G54D10*
G36*
X37831Y-24455D02*
X35708Y-26578D01*
X35671Y-26563D01*
X35423Y-26563D01*
X35364Y-26622D01*
X35364Y-27060D01*
X35372Y-27060D01*
X35372Y-27139D01*
X35364Y-27139D01*
X35364Y-27147D01*
X35285Y-27147D01*
X35285Y-27139D01*
X35285Y-27060D01*
X35285Y-26622D01*
X35226Y-26563D01*
X34978Y-26563D01*
X34891Y-26599D01*
X34824Y-26666D01*
X34788Y-26752D01*
X34788Y-26846D01*
X34788Y-27001D01*
X34847Y-27060D01*
X35285Y-27060D01*
X35285Y-27139D01*
X34847Y-27139D01*
X34788Y-27198D01*
X34788Y-27353D01*
X34788Y-27356D01*
X34659Y-27356D01*
X34679Y-27337D01*
X34743Y-27183D01*
X34743Y-27017D01*
X34679Y-26863D01*
X34562Y-26745D01*
X34408Y-26681D01*
X34242Y-26681D01*
X34241Y-26682D01*
X33986Y-26427D01*
X33986Y-26075D01*
X33968Y-25984D01*
X33968Y-25984D01*
X33917Y-25907D01*
X33586Y-25577D01*
X33507Y-25498D01*
X33516Y-25477D01*
X33516Y-25383D01*
X33516Y-25348D01*
X33457Y-25289D01*
X33139Y-25289D01*
X33139Y-25297D01*
X33060Y-25297D01*
X33060Y-25289D01*
X33052Y-25289D01*
X33052Y-25210D01*
X33060Y-25210D01*
X33060Y-25202D01*
X33139Y-25202D01*
X33139Y-25210D01*
X33457Y-25210D01*
X33516Y-25151D01*
X33516Y-25116D01*
X33516Y-25042D01*
X33550Y-25008D01*
X33586Y-24922D01*
X33586Y-24828D01*
X33586Y-24698D01*
X33527Y-24639D01*
X33214Y-24639D01*
X33214Y-24647D01*
X33135Y-24647D01*
X33135Y-24639D01*
X32822Y-24639D01*
X32763Y-24698D01*
X32763Y-24828D01*
X32763Y-24892D01*
X32719Y-24936D01*
X32686Y-25017D01*
X32680Y-25003D01*
X32656Y-24979D01*
X32666Y-24975D01*
X32700Y-24941D01*
X32718Y-24898D01*
X32718Y-24851D01*
X32718Y-24301D01*
X32714Y-24293D01*
X32763Y-24293D01*
X32763Y-24371D01*
X32763Y-24501D01*
X32822Y-24560D01*
X33135Y-24560D01*
X33135Y-24552D01*
X33214Y-24552D01*
X33214Y-24560D01*
X33527Y-24560D01*
X33586Y-24501D01*
X33586Y-24371D01*
X33586Y-24287D01*
X33616Y-24275D01*
X33650Y-24241D01*
X33668Y-24198D01*
X33668Y-24151D01*
X33668Y-24115D01*
X33668Y-24115D01*
X33686Y-24025D01*
X33686Y-23911D01*
X35027Y-23911D01*
X35413Y-24297D01*
X35432Y-24344D01*
X35504Y-24416D01*
X35598Y-24455D01*
X35700Y-24455D01*
X35794Y-24417D01*
X35866Y-24345D01*
X35905Y-24251D01*
X35905Y-24149D01*
X35867Y-24055D01*
X35795Y-23983D01*
X35747Y-23963D01*
X35292Y-23507D01*
X35215Y-23456D01*
X35125Y-23438D01*
X33547Y-23438D01*
X33467Y-23357D01*
X33390Y-23306D01*
X33300Y-23288D01*
X32850Y-23288D01*
X32759Y-23306D01*
X32682Y-23357D01*
X32532Y-23507D01*
X32532Y-23507D01*
X32527Y-23513D01*
X32295Y-23513D01*
X32350Y-23458D01*
X32386Y-23372D01*
X32386Y-23278D01*
X32386Y-22821D01*
X32386Y-22727D01*
X32374Y-22700D01*
X32386Y-22672D01*
X32386Y-22578D01*
X32386Y-22121D01*
X32386Y-22027D01*
X32350Y-21941D01*
X32283Y-21874D01*
X32196Y-21838D01*
X32073Y-21838D01*
X32014Y-21897D01*
X32014Y-22310D01*
X32327Y-22310D01*
X32386Y-22251D01*
X32386Y-22121D01*
X32386Y-22578D01*
X32386Y-22448D01*
X32327Y-22389D01*
X32014Y-22389D01*
X32014Y-22597D01*
X32014Y-22802D01*
X32014Y-23010D01*
X32327Y-23010D01*
X32386Y-22951D01*
X32386Y-22821D01*
X32386Y-23278D01*
X32386Y-23148D01*
X32327Y-23089D01*
X32014Y-23089D01*
X32014Y-23097D01*
X31935Y-23097D01*
X31935Y-23089D01*
X31927Y-23089D01*
X31927Y-23010D01*
X31935Y-23010D01*
X31935Y-22802D01*
X31935Y-22597D01*
X31935Y-22389D01*
X31927Y-22389D01*
X31927Y-22310D01*
X31935Y-22310D01*
X31935Y-21897D01*
X31876Y-21838D01*
X31836Y-21838D01*
X31836Y-19700D01*
X31818Y-19609D01*
X31818Y-19609D01*
X31767Y-19532D01*
X31067Y-18833D01*
X31068Y-18833D01*
X31068Y-18667D01*
X31004Y-18513D01*
X30977Y-18486D01*
X31602Y-18486D01*
X33938Y-20822D01*
X33938Y-22363D01*
X32825Y-22363D01*
X32734Y-22381D01*
X32657Y-22432D01*
X32657Y-22432D01*
X32657Y-22432D01*
X32532Y-22557D01*
X32481Y-22634D01*
X32463Y-22725D01*
X32463Y-23025D01*
X32481Y-23115D01*
X32481Y-23115D01*
X32481Y-23198D01*
X32499Y-23241D01*
X32533Y-23275D01*
X32576Y-23293D01*
X32623Y-23293D01*
X32823Y-23293D01*
X32866Y-23275D01*
X32900Y-23241D01*
X32918Y-23198D01*
X32918Y-23151D01*
X32918Y-23115D01*
X32918Y-23115D01*
X32936Y-23025D01*
X32936Y-22836D01*
X33238Y-22836D01*
X33231Y-22851D01*
X33231Y-22898D01*
X33231Y-23198D01*
X33249Y-23241D01*
X33283Y-23275D01*
X33326Y-23293D01*
X33373Y-23293D01*
X33573Y-23293D01*
X33616Y-23275D01*
X33650Y-23241D01*
X33668Y-23198D01*
X33668Y-23151D01*
X33668Y-22851D01*
X33661Y-22836D01*
X34175Y-22836D01*
X36477Y-22836D01*
X37338Y-23697D01*
X37338Y-23900D01*
X37356Y-23990D01*
X37407Y-24067D01*
X37638Y-24297D01*
X37657Y-24344D01*
X37729Y-24416D01*
X37823Y-24455D01*
X37831Y-24455D01*
X37831Y-24455D01*
G37*
G54D26*
X37831Y-24455D02*
X35708Y-26578D01*
X35671Y-26563D01*
X35423Y-26563D01*
X35364Y-26622D01*
X35364Y-27060D01*
X35372Y-27060D01*
X35372Y-27139D01*
X35364Y-27139D01*
X35364Y-27147D01*
X35285Y-27147D01*
X35285Y-27139D01*
X35285Y-27060D01*
X35285Y-26622D01*
X35226Y-26563D01*
X34978Y-26563D01*
X34891Y-26599D01*
X34824Y-26666D01*
X34788Y-26752D01*
X34788Y-26846D01*
X34788Y-27001D01*
X34847Y-27060D01*
X35285Y-27060D01*
X35285Y-27139D01*
X34847Y-27139D01*
X34788Y-27198D01*
X34788Y-27353D01*
X34788Y-27356D01*
X34659Y-27356D01*
X34679Y-27337D01*
X34743Y-27183D01*
X34743Y-27017D01*
X34679Y-26863D01*
X34562Y-26745D01*
X34408Y-26681D01*
X34242Y-26681D01*
X34241Y-26682D01*
X33986Y-26427D01*
X33986Y-26075D01*
X33968Y-25984D01*
X33968Y-25984D01*
X33917Y-25907D01*
X33586Y-25577D01*
X33507Y-25498D01*
X33516Y-25477D01*
X33516Y-25383D01*
X33516Y-25348D01*
X33457Y-25289D01*
X33139Y-25289D01*
X33139Y-25297D01*
X33060Y-25297D01*
X33060Y-25289D01*
X33052Y-25289D01*
X33052Y-25210D01*
X33060Y-25210D01*
X33060Y-25202D01*
X33139Y-25202D01*
X33139Y-25210D01*
X33457Y-25210D01*
X33516Y-25151D01*
X33516Y-25116D01*
X33516Y-25042D01*
X33550Y-25008D01*
X33586Y-24922D01*
X33586Y-24828D01*
X33586Y-24698D01*
X33527Y-24639D01*
X33214Y-24639D01*
X33214Y-24647D01*
X33135Y-24647D01*
X33135Y-24639D01*
X32822Y-24639D01*
X32763Y-24698D01*
X32763Y-24828D01*
X32763Y-24892D01*
X32719Y-24936D01*
X32686Y-25017D01*
X32680Y-25003D01*
X32656Y-24979D01*
X32666Y-24975D01*
X32700Y-24941D01*
X32718Y-24898D01*
X32718Y-24851D01*
X32718Y-24301D01*
X32714Y-24293D01*
X32763Y-24293D01*
X32763Y-24371D01*
X32763Y-24501D01*
X32822Y-24560D01*
X33135Y-24560D01*
X33135Y-24552D01*
X33214Y-24552D01*
X33214Y-24560D01*
X33527Y-24560D01*
X33586Y-24501D01*
X33586Y-24371D01*
X33586Y-24287D01*
X33616Y-24275D01*
X33650Y-24241D01*
X33668Y-24198D01*
X33668Y-24151D01*
X33668Y-24115D01*
X33668Y-24115D01*
X33686Y-24025D01*
X33686Y-23911D01*
X35027Y-23911D01*
X35413Y-24297D01*
X35432Y-24344D01*
X35504Y-24416D01*
X35598Y-24455D01*
X35700Y-24455D01*
X35794Y-24417D01*
X35866Y-24345D01*
X35905Y-24251D01*
X35905Y-24149D01*
X35867Y-24055D01*
X35795Y-23983D01*
X35747Y-23963D01*
X35292Y-23507D01*
X35215Y-23456D01*
X35125Y-23438D01*
X33547Y-23438D01*
X33467Y-23357D01*
X33390Y-23306D01*
X33300Y-23288D01*
X32850Y-23288D01*
X32759Y-23306D01*
X32682Y-23357D01*
X32532Y-23507D01*
X32532Y-23507D01*
X32527Y-23513D01*
X32295Y-23513D01*
X32350Y-23458D01*
X32386Y-23372D01*
X32386Y-23278D01*
X32386Y-22821D01*
X32386Y-22727D01*
X32374Y-22700D01*
X32386Y-22672D01*
X32386Y-22578D01*
X32386Y-22121D01*
X32386Y-22027D01*
X32350Y-21941D01*
X32283Y-21874D01*
X32196Y-21838D01*
X32073Y-21838D01*
X32014Y-21897D01*
X32014Y-22310D01*
X32327Y-22310D01*
X32386Y-22251D01*
X32386Y-22121D01*
X32386Y-22578D01*
X32386Y-22448D01*
X32327Y-22389D01*
X32014Y-22389D01*
X32014Y-22597D01*
X32014Y-22802D01*
X32014Y-23010D01*
X32327Y-23010D01*
X32386Y-22951D01*
X32386Y-22821D01*
X32386Y-23278D01*
X32386Y-23148D01*
X32327Y-23089D01*
X32014Y-23089D01*
X32014Y-23097D01*
X31935Y-23097D01*
X31935Y-23089D01*
X31927Y-23089D01*
X31927Y-23010D01*
X31935Y-23010D01*
X31935Y-22802D01*
X31935Y-22597D01*
X31935Y-22389D01*
X31927Y-22389D01*
X31927Y-22310D01*
X31935Y-22310D01*
X31935Y-21897D01*
X31876Y-21838D01*
X31836Y-21838D01*
X31836Y-19700D01*
X31818Y-19609D01*
X31818Y-19609D01*
X31767Y-19532D01*
X31067Y-18833D01*
X31068Y-18833D01*
X31068Y-18667D01*
X31004Y-18513D01*
X30977Y-18486D01*
X31602Y-18486D01*
X33938Y-20822D01*
X33938Y-22363D01*
X32825Y-22363D01*
X32734Y-22381D01*
X32657Y-22432D01*
X32657Y-22432D01*
X32657Y-22432D01*
X32532Y-22557D01*
X32481Y-22634D01*
X32463Y-22725D01*
X32463Y-23025D01*
X32481Y-23115D01*
X32481Y-23115D01*
X32481Y-23198D01*
X32499Y-23241D01*
X32533Y-23275D01*
X32576Y-23293D01*
X32623Y-23293D01*
X32823Y-23293D01*
X32866Y-23275D01*
X32900Y-23241D01*
X32918Y-23198D01*
X32918Y-23151D01*
X32918Y-23115D01*
X32918Y-23115D01*
X32936Y-23025D01*
X32936Y-22836D01*
X33238Y-22836D01*
X33231Y-22851D01*
X33231Y-22898D01*
X33231Y-23198D01*
X33249Y-23241D01*
X33283Y-23275D01*
X33326Y-23293D01*
X33373Y-23293D01*
X33573Y-23293D01*
X33616Y-23275D01*
X33650Y-23241D01*
X33668Y-23198D01*
X33668Y-23151D01*
X33668Y-22851D01*
X33661Y-22836D01*
X34175Y-22836D01*
X36477Y-22836D01*
X37338Y-23697D01*
X37338Y-23900D01*
X37356Y-23990D01*
X37407Y-24067D01*
X37638Y-24297D01*
X37657Y-24344D01*
X37729Y-24416D01*
X37823Y-24455D01*
X37831Y-24455D01*
G54D10*
G36*
X40281Y-25580D02*
X39980Y-25881D01*
X37850Y-25881D01*
X37785Y-25894D01*
X37731Y-25931D01*
X37731Y-25931D01*
X37231Y-26431D01*
X37194Y-26485D01*
X37191Y-26500D01*
X37087Y-26395D01*
X36933Y-26331D01*
X36767Y-26331D01*
X36613Y-26395D01*
X36495Y-26512D01*
X36431Y-26666D01*
X36431Y-26832D01*
X36495Y-26986D01*
X36612Y-27104D01*
X36766Y-27168D01*
X36932Y-27168D01*
X37086Y-27104D01*
X37181Y-27009D01*
X37181Y-27213D01*
X36948Y-27213D01*
X36889Y-27272D01*
X36889Y-27710D01*
X37327Y-27710D01*
X37386Y-27651D01*
X37386Y-27523D01*
X37460Y-27598D01*
X37431Y-27666D01*
X37431Y-27832D01*
X37495Y-27986D01*
X37612Y-28104D01*
X37766Y-28168D01*
X37932Y-28168D01*
X38086Y-28104D01*
X38204Y-27987D01*
X38268Y-27833D01*
X38268Y-27667D01*
X38204Y-27513D01*
X38087Y-27395D01*
X37933Y-27331D01*
X37767Y-27331D01*
X37698Y-27360D01*
X37518Y-27180D01*
X37518Y-27009D01*
X37612Y-27104D01*
X37766Y-27168D01*
X37932Y-27168D01*
X38001Y-27139D01*
X38231Y-27368D01*
X38231Y-27368D01*
X38285Y-27405D01*
X38350Y-27418D01*
X38590Y-27418D01*
X38495Y-27512D01*
X38431Y-27666D01*
X38431Y-27832D01*
X38495Y-27986D01*
X38612Y-28104D01*
X38766Y-28168D01*
X38932Y-28168D01*
X39001Y-28139D01*
X39064Y-28202D01*
X37331Y-28202D01*
X37350Y-28183D01*
X37386Y-28097D01*
X37386Y-28003D01*
X37386Y-27848D01*
X37327Y-27789D01*
X36889Y-27789D01*
X36889Y-27797D01*
X36810Y-27797D01*
X36810Y-27789D01*
X36810Y-27710D01*
X36810Y-27272D01*
X36751Y-27213D01*
X36503Y-27213D01*
X36416Y-27249D01*
X36349Y-27316D01*
X36313Y-27402D01*
X36313Y-27496D01*
X36313Y-27651D01*
X36372Y-27710D01*
X36810Y-27710D01*
X36810Y-27789D01*
X36372Y-27789D01*
X36313Y-27848D01*
X36313Y-28003D01*
X36313Y-28097D01*
X36349Y-28183D01*
X36368Y-28202D01*
X32578Y-28202D01*
X32662Y-28118D01*
X32761Y-27879D01*
X32761Y-27621D01*
X32746Y-27583D01*
X32981Y-27818D01*
X32981Y-27818D01*
X33035Y-27855D01*
X33100Y-27868D01*
X35749Y-27868D01*
X35750Y-27868D01*
X35750Y-27868D01*
X35814Y-27855D01*
X35868Y-27818D01*
X36027Y-27659D01*
X36064Y-27605D01*
X36077Y-27540D01*
X36077Y-26910D01*
X38993Y-23993D01*
X38994Y-23993D01*
X39073Y-23993D01*
X39116Y-23975D01*
X39150Y-23941D01*
X39168Y-23898D01*
X39168Y-23851D01*
X39168Y-23768D01*
X39824Y-23768D01*
X39825Y-23768D01*
X39825Y-23768D01*
X39889Y-23755D01*
X39943Y-23718D01*
X40268Y-23393D01*
X40268Y-23393D01*
X40268Y-23393D01*
X40281Y-23374D01*
X40281Y-25580D01*
X40281Y-25580D01*
G37*
G54D26*
X40281Y-25580D02*
X39980Y-25881D01*
X37850Y-25881D01*
X37785Y-25894D01*
X37731Y-25931D01*
X37731Y-25931D01*
X37231Y-26431D01*
X37194Y-26485D01*
X37191Y-26500D01*
X37087Y-26395D01*
X36933Y-26331D01*
X36767Y-26331D01*
X36613Y-26395D01*
X36495Y-26512D01*
X36431Y-26666D01*
X36431Y-26832D01*
X36495Y-26986D01*
X36612Y-27104D01*
X36766Y-27168D01*
X36932Y-27168D01*
X37086Y-27104D01*
X37181Y-27009D01*
X37181Y-27213D01*
X36948Y-27213D01*
X36889Y-27272D01*
X36889Y-27710D01*
X37327Y-27710D01*
X37386Y-27651D01*
X37386Y-27523D01*
X37460Y-27598D01*
X37431Y-27666D01*
X37431Y-27832D01*
X37495Y-27986D01*
X37612Y-28104D01*
X37766Y-28168D01*
X37932Y-28168D01*
X38086Y-28104D01*
X38204Y-27987D01*
X38268Y-27833D01*
X38268Y-27667D01*
X38204Y-27513D01*
X38087Y-27395D01*
X37933Y-27331D01*
X37767Y-27331D01*
X37698Y-27360D01*
X37518Y-27180D01*
X37518Y-27009D01*
X37612Y-27104D01*
X37766Y-27168D01*
X37932Y-27168D01*
X38001Y-27139D01*
X38231Y-27368D01*
X38231Y-27368D01*
X38285Y-27405D01*
X38350Y-27418D01*
X38590Y-27418D01*
X38495Y-27512D01*
X38431Y-27666D01*
X38431Y-27832D01*
X38495Y-27986D01*
X38612Y-28104D01*
X38766Y-28168D01*
X38932Y-28168D01*
X39001Y-28139D01*
X39064Y-28202D01*
X37331Y-28202D01*
X37350Y-28183D01*
X37386Y-28097D01*
X37386Y-28003D01*
X37386Y-27848D01*
X37327Y-27789D01*
X36889Y-27789D01*
X36889Y-27797D01*
X36810Y-27797D01*
X36810Y-27789D01*
X36810Y-27710D01*
X36810Y-27272D01*
X36751Y-27213D01*
X36503Y-27213D01*
X36416Y-27249D01*
X36349Y-27316D01*
X36313Y-27402D01*
X36313Y-27496D01*
X36313Y-27651D01*
X36372Y-27710D01*
X36810Y-27710D01*
X36810Y-27789D01*
X36372Y-27789D01*
X36313Y-27848D01*
X36313Y-28003D01*
X36313Y-28097D01*
X36349Y-28183D01*
X36368Y-28202D01*
X32578Y-28202D01*
X32662Y-28118D01*
X32761Y-27879D01*
X32761Y-27621D01*
X32746Y-27583D01*
X32981Y-27818D01*
X32981Y-27818D01*
X33035Y-27855D01*
X33100Y-27868D01*
X35749Y-27868D01*
X35750Y-27868D01*
X35750Y-27868D01*
X35814Y-27855D01*
X35868Y-27818D01*
X36027Y-27659D01*
X36064Y-27605D01*
X36077Y-27540D01*
X36077Y-26910D01*
X38993Y-23993D01*
X38994Y-23993D01*
X39073Y-23993D01*
X39116Y-23975D01*
X39150Y-23941D01*
X39168Y-23898D01*
X39168Y-23851D01*
X39168Y-23768D01*
X39824Y-23768D01*
X39825Y-23768D01*
X39825Y-23768D01*
X39889Y-23755D01*
X39943Y-23718D01*
X40268Y-23393D01*
X40268Y-23393D01*
X40268Y-23393D01*
X40281Y-23374D01*
X40281Y-25580D01*
G54D10*
G36*
X40864Y-18247D02*
X40331Y-18781D01*
X40294Y-18835D01*
X40281Y-18900D01*
X40281Y-18900D01*
X40281Y-22027D01*
X40218Y-22001D01*
X40218Y-18667D01*
X40154Y-18513D01*
X40037Y-18395D01*
X39883Y-18331D01*
X39717Y-18331D01*
X39563Y-18395D01*
X39445Y-18512D01*
X39381Y-18666D01*
X39381Y-18832D01*
X39445Y-18986D01*
X39562Y-19104D01*
X39716Y-19168D01*
X39882Y-19168D01*
X40036Y-19104D01*
X40154Y-18987D01*
X40218Y-18833D01*
X40218Y-18667D01*
X40218Y-22001D01*
X40201Y-21994D01*
X40099Y-21994D01*
X40005Y-22032D01*
X39933Y-22104D01*
X39894Y-22198D01*
X39894Y-22300D01*
X39932Y-22394D01*
X39981Y-22443D01*
X39981Y-22542D01*
X39926Y-22519D01*
X39824Y-22519D01*
X39730Y-22557D01*
X39658Y-22629D01*
X39619Y-22723D01*
X39619Y-22825D01*
X39657Y-22919D01*
X39662Y-22924D01*
X39630Y-22956D01*
X39336Y-22956D01*
X39336Y-19003D01*
X39336Y-18848D01*
X39277Y-18789D01*
X38839Y-18789D01*
X38839Y-19227D01*
X38898Y-19286D01*
X39146Y-19286D01*
X39233Y-19250D01*
X39300Y-19183D01*
X39336Y-19097D01*
X39336Y-19003D01*
X39336Y-22956D01*
X38760Y-22956D01*
X38760Y-19227D01*
X38760Y-18789D01*
X38322Y-18789D01*
X38263Y-18848D01*
X38263Y-19003D01*
X38263Y-19097D01*
X38299Y-19183D01*
X38366Y-19250D01*
X38453Y-19286D01*
X38701Y-19286D01*
X38760Y-19227D01*
X38760Y-22956D01*
X38600Y-22956D01*
X38535Y-22969D01*
X38481Y-23006D01*
X38481Y-23006D01*
X38381Y-23106D01*
X38344Y-23160D01*
X38334Y-23211D01*
X38323Y-23206D01*
X38276Y-23206D01*
X37926Y-23206D01*
X37883Y-23224D01*
X37849Y-23258D01*
X37831Y-23301D01*
X37831Y-23348D01*
X37831Y-23431D01*
X37740Y-23431D01*
X36742Y-22432D01*
X36665Y-22381D01*
X36575Y-22363D01*
X34411Y-22363D01*
X34411Y-20725D01*
X34393Y-20634D01*
X34393Y-20634D01*
X34342Y-20557D01*
X32031Y-18247D01*
X38371Y-18247D01*
X38366Y-18249D01*
X38299Y-18316D01*
X38263Y-18402D01*
X38263Y-18496D01*
X38263Y-18651D01*
X38322Y-18710D01*
X38760Y-18710D01*
X38760Y-18702D01*
X38839Y-18702D01*
X38839Y-18710D01*
X39277Y-18710D01*
X39336Y-18651D01*
X39336Y-18496D01*
X39336Y-18402D01*
X39300Y-18316D01*
X39233Y-18249D01*
X39228Y-18247D01*
X40864Y-18247D01*
X40864Y-18247D01*
G37*
G54D26*
X40864Y-18247D02*
X40331Y-18781D01*
X40294Y-18835D01*
X40281Y-18900D01*
X40281Y-18900D01*
X40281Y-22027D01*
X40218Y-22001D01*
X40218Y-18667D01*
X40154Y-18513D01*
X40037Y-18395D01*
X39883Y-18331D01*
X39717Y-18331D01*
X39563Y-18395D01*
X39445Y-18512D01*
X39381Y-18666D01*
X39381Y-18832D01*
X39445Y-18986D01*
X39562Y-19104D01*
X39716Y-19168D01*
X39882Y-19168D01*
X40036Y-19104D01*
X40154Y-18987D01*
X40218Y-18833D01*
X40218Y-18667D01*
X40218Y-22001D01*
X40201Y-21994D01*
X40099Y-21994D01*
X40005Y-22032D01*
X39933Y-22104D01*
X39894Y-22198D01*
X39894Y-22300D01*
X39932Y-22394D01*
X39981Y-22443D01*
X39981Y-22542D01*
X39926Y-22519D01*
X39824Y-22519D01*
X39730Y-22557D01*
X39658Y-22629D01*
X39619Y-22723D01*
X39619Y-22825D01*
X39657Y-22919D01*
X39662Y-22924D01*
X39630Y-22956D01*
X39336Y-22956D01*
X39336Y-19003D01*
X39336Y-18848D01*
X39277Y-18789D01*
X38839Y-18789D01*
X38839Y-19227D01*
X38898Y-19286D01*
X39146Y-19286D01*
X39233Y-19250D01*
X39300Y-19183D01*
X39336Y-19097D01*
X39336Y-19003D01*
X39336Y-22956D01*
X38760Y-22956D01*
X38760Y-19227D01*
X38760Y-18789D01*
X38322Y-18789D01*
X38263Y-18848D01*
X38263Y-19003D01*
X38263Y-19097D01*
X38299Y-19183D01*
X38366Y-19250D01*
X38453Y-19286D01*
X38701Y-19286D01*
X38760Y-19227D01*
X38760Y-22956D01*
X38600Y-22956D01*
X38535Y-22969D01*
X38481Y-23006D01*
X38481Y-23006D01*
X38381Y-23106D01*
X38344Y-23160D01*
X38334Y-23211D01*
X38323Y-23206D01*
X38276Y-23206D01*
X37926Y-23206D01*
X37883Y-23224D01*
X37849Y-23258D01*
X37831Y-23301D01*
X37831Y-23348D01*
X37831Y-23431D01*
X37740Y-23431D01*
X36742Y-22432D01*
X36665Y-22381D01*
X36575Y-22363D01*
X34411Y-22363D01*
X34411Y-20725D01*
X34393Y-20634D01*
X34393Y-20634D01*
X34342Y-20557D01*
X32031Y-18247D01*
X38371Y-18247D01*
X38366Y-18249D01*
X38299Y-18316D01*
X38263Y-18402D01*
X38263Y-18496D01*
X38263Y-18651D01*
X38322Y-18710D01*
X38760Y-18710D01*
X38760Y-18702D01*
X38839Y-18702D01*
X38839Y-18710D01*
X39277Y-18710D01*
X39336Y-18651D01*
X39336Y-18496D01*
X39336Y-18402D01*
X39300Y-18316D01*
X39233Y-18249D01*
X39228Y-18247D01*
X40864Y-18247D01*
M02*
