M48
;DRILL file {Pcbnew (2013-may-18)-stable} date Вт 14 июн 2016 11:11:34
;FORMAT={-:-/ absolute / metric / decimal}
FMAT,2
METRIC,TZ
T1C0.300
T2C0.813
T3C1.000
T4C1.016
T5C2.301
T6C3.048
%
G90
G05
M71
T1
X67.882Y-61.658
X68.516Y-47.18
X70.612Y-48.895
X72.2Y-62.801
X72.2Y-69.278
X72.263Y-55.499
X73.088Y-64.96
X73.152Y-48.895
X75.057Y-56.832
X75.248Y-55.689
X75.501Y-71.183
X76.01Y-60.071
X76.517Y-62.039
X77.089Y-64.325
X77.978Y-57.785
X77.978Y-70.294
X78.168Y-55.689
X78.74Y-68.644
X82.233Y-58.547
X87.376Y-49.847
X89.471Y-47.244
X90.043Y-53.467
X90.551Y-61.468
X94.043Y-48.959
X95.441Y-55.372
X96.203Y-61.468
X101.282Y-57.848
X101.981Y-56.515
X102.87Y-66.04
X104.013Y-56.515
T2
X74.295Y-65.786
X74.295Y-67.785
X76.835Y-65.786
X76.835Y-67.785
T3
X64.23Y-47.67
X64.23Y-50.21
X64.23Y-52.75
X64.23Y-55.29
X64.23Y-57.83
X64.23Y-60.37
X64.23Y-62.91
X64.23Y-65.45
X64.23Y-67.99
X64.23Y-70.53
X66.77Y-47.67
X66.77Y-50.21
X66.77Y-52.75
X66.77Y-55.29
X66.77Y-57.83
X66.77Y-60.37
X66.77Y-62.91
X66.77Y-65.45
X66.77Y-67.99
X66.77Y-70.53
X104.87Y-47.67
X104.87Y-50.21
X104.87Y-52.75
X104.87Y-55.29
X104.87Y-57.83
X104.87Y-60.37
X104.87Y-62.91
X104.87Y-65.45
X104.87Y-67.99
X104.87Y-70.53
X107.41Y-47.67
X107.41Y-50.21
X107.41Y-52.75
X107.41Y-55.29
X107.41Y-57.83
X107.41Y-60.37
X107.41Y-62.91
X107.41Y-65.45
X107.41Y-67.99
X107.41Y-70.53
T4
X70.231Y-47.625
X70.231Y-50.165
X72.771Y-47.625
X72.771Y-50.165
X75.311Y-47.625
X75.311Y-50.165
X77.851Y-47.625
X77.851Y-50.165
X84.645Y-68.834
X87.185Y-68.834
X89.725Y-68.834
X93.599Y-67.945
X93.599Y-70.485
X96.139Y-67.945
X96.139Y-70.485
X98.552Y-47.625
X98.679Y-67.945
X98.679Y-70.485
X101.092Y-47.625
X101.219Y-67.945
X101.219Y-70.485
T5
X69.566Y-70.485
X81.564Y-70.485
T6
X71.31Y-58.61
T0
M30
