G04 (created by PCBNEW (2013-may-18)-stable) date Вт 14 июн 2016 11:11:36*
%MOIN*%
G04 Gerber Fmt 3.4, Leading zero omitted, Abs format*
%FSLAX34Y34*%
G01*
G70*
G90*
G04 APERTURE LIST*
%ADD10C,0.00590551*%
%ADD11C,0.00984252*%
%ADD12C,0.00787402*%
%ADD13C,0.0047*%
%ADD14C,0.005*%
%ADD15C,0.0039*%
%ADD16C,0.012*%
%ADD17C,0.015*%
%ADD18C,0.0026*%
%ADD19C,0.004*%
%ADD20C,0.0051*%
%ADD21C,0.003*%
%ADD22C,0.00393701*%
%ADD23C,0.0043*%
%ADD24C,0.008*%
%ADD25C,0.0035*%
G04 APERTURE END LIST*
G54D10*
G54D11*
X38862Y-19396D02*
X38562Y-19396D01*
X38712Y-19396D02*
X38712Y-19921D01*
X39593Y-19415D02*
X39818Y-19415D01*
X39706Y-19809D02*
X39706Y-19415D01*
X39912Y-19415D02*
X40174Y-19809D01*
X40174Y-19415D02*
X39912Y-19809D01*
X33109Y-28009D02*
X33409Y-28009D01*
X33259Y-28159D02*
X33259Y-27859D01*
X34328Y-27953D02*
X34384Y-27971D01*
X34403Y-27990D01*
X34421Y-28028D01*
X34421Y-28084D01*
X34403Y-28121D01*
X34384Y-28140D01*
X34346Y-28159D01*
X34196Y-28159D01*
X34196Y-27765D01*
X34328Y-27765D01*
X34365Y-27784D01*
X34384Y-27803D01*
X34403Y-27840D01*
X34403Y-27878D01*
X34384Y-27915D01*
X34365Y-27934D01*
X34328Y-27953D01*
X34196Y-27953D01*
X35490Y-27746D02*
X35190Y-27746D01*
X35340Y-27746D02*
X35340Y-28271D01*
X33509Y-21021D02*
X33490Y-21040D01*
X33434Y-21059D01*
X33397Y-21059D01*
X33340Y-21040D01*
X33303Y-21003D01*
X33284Y-20965D01*
X33265Y-20890D01*
X33265Y-20834D01*
X33284Y-20759D01*
X33303Y-20721D01*
X33340Y-20684D01*
X33397Y-20665D01*
X33434Y-20665D01*
X33490Y-20684D01*
X33509Y-20703D01*
X33847Y-21059D02*
X33847Y-20853D01*
X33828Y-20815D01*
X33790Y-20796D01*
X33715Y-20796D01*
X33678Y-20815D01*
X33847Y-21040D02*
X33809Y-21059D01*
X33715Y-21059D01*
X33678Y-21040D01*
X33659Y-21003D01*
X33659Y-20965D01*
X33678Y-20928D01*
X33715Y-20909D01*
X33809Y-20909D01*
X33847Y-20890D01*
X34203Y-20796D02*
X34203Y-21059D01*
X34034Y-20796D02*
X34034Y-21003D01*
X34053Y-21040D01*
X34090Y-21059D01*
X34147Y-21059D01*
X34184Y-21040D01*
X34203Y-21021D01*
X34372Y-21040D02*
X34409Y-21059D01*
X34484Y-21059D01*
X34522Y-21040D01*
X34540Y-21003D01*
X34540Y-20984D01*
X34522Y-20946D01*
X34484Y-20928D01*
X34428Y-20928D01*
X34390Y-20909D01*
X34372Y-20871D01*
X34372Y-20853D01*
X34390Y-20815D01*
X34428Y-20796D01*
X34484Y-20796D01*
X34522Y-20815D01*
X34653Y-20796D02*
X34803Y-20796D01*
X34709Y-20665D02*
X34709Y-21003D01*
X34728Y-21040D01*
X34765Y-21059D01*
X34803Y-21059D01*
X34934Y-21059D02*
X34934Y-20796D01*
X34934Y-20665D02*
X34915Y-20684D01*
X34934Y-20703D01*
X34953Y-20684D01*
X34934Y-20665D01*
X34934Y-20703D01*
X35290Y-21040D02*
X35253Y-21059D01*
X35178Y-21059D01*
X35140Y-21040D01*
X35121Y-21021D01*
X35103Y-20984D01*
X35103Y-20871D01*
X35121Y-20834D01*
X35140Y-20815D01*
X35178Y-20796D01*
X35253Y-20796D01*
X35290Y-20815D01*
X35946Y-21059D02*
X35759Y-21059D01*
X35759Y-20665D01*
X36021Y-20665D02*
X36246Y-20665D01*
X36134Y-21059D02*
X36134Y-20665D01*
X36659Y-21040D02*
X36696Y-21059D01*
X36771Y-21059D01*
X36809Y-21040D01*
X36828Y-21003D01*
X36828Y-20984D01*
X36809Y-20946D01*
X36771Y-20928D01*
X36715Y-20928D01*
X36678Y-20909D01*
X36659Y-20871D01*
X36659Y-20853D01*
X36678Y-20815D01*
X36715Y-20796D01*
X36771Y-20796D01*
X36809Y-20815D01*
X36959Y-20796D02*
X37052Y-21059D01*
X37146Y-20796D02*
X37052Y-21059D01*
X37015Y-21153D01*
X36996Y-21171D01*
X36959Y-21190D01*
X37277Y-21040D02*
X37315Y-21059D01*
X37390Y-21059D01*
X37427Y-21040D01*
X37446Y-21003D01*
X37446Y-20984D01*
X37427Y-20946D01*
X37390Y-20928D01*
X37334Y-20928D01*
X37296Y-20909D01*
X37277Y-20871D01*
X37277Y-20853D01*
X37296Y-20815D01*
X37334Y-20796D01*
X37390Y-20796D01*
X37427Y-20815D01*
X37559Y-20796D02*
X37709Y-20796D01*
X37615Y-20665D02*
X37615Y-21003D01*
X37634Y-21040D01*
X37671Y-21059D01*
X37709Y-21059D01*
X37990Y-21040D02*
X37952Y-21059D01*
X37877Y-21059D01*
X37840Y-21040D01*
X37821Y-21003D01*
X37821Y-20853D01*
X37840Y-20815D01*
X37877Y-20796D01*
X37952Y-20796D01*
X37990Y-20815D01*
X38009Y-20853D01*
X38009Y-20890D01*
X37821Y-20928D01*
X38177Y-21059D02*
X38177Y-20796D01*
X38177Y-20834D02*
X38196Y-20815D01*
X38234Y-20796D01*
X38290Y-20796D01*
X38327Y-20815D01*
X38346Y-20853D01*
X38346Y-21059D01*
X38346Y-20853D02*
X38365Y-20815D01*
X38402Y-20796D01*
X38459Y-20796D01*
X38496Y-20815D01*
X38515Y-20853D01*
X38515Y-21059D01*
X33547Y-21708D02*
X33547Y-21315D01*
X33715Y-21708D02*
X33715Y-21502D01*
X33697Y-21465D01*
X33659Y-21446D01*
X33603Y-21446D01*
X33565Y-21465D01*
X33547Y-21483D01*
X34053Y-21690D02*
X34015Y-21708D01*
X33940Y-21708D01*
X33903Y-21690D01*
X33884Y-21652D01*
X33884Y-21502D01*
X33903Y-21465D01*
X33940Y-21446D01*
X34015Y-21446D01*
X34053Y-21465D01*
X34072Y-21502D01*
X34072Y-21540D01*
X33884Y-21577D01*
X34409Y-21708D02*
X34409Y-21502D01*
X34390Y-21465D01*
X34353Y-21446D01*
X34278Y-21446D01*
X34240Y-21465D01*
X34409Y-21690D02*
X34372Y-21708D01*
X34278Y-21708D01*
X34240Y-21690D01*
X34222Y-21652D01*
X34222Y-21615D01*
X34240Y-21577D01*
X34278Y-21558D01*
X34372Y-21558D01*
X34409Y-21540D01*
X34765Y-21708D02*
X34765Y-21315D01*
X34765Y-21690D02*
X34728Y-21708D01*
X34653Y-21708D01*
X34615Y-21690D01*
X34597Y-21671D01*
X34578Y-21633D01*
X34578Y-21521D01*
X34597Y-21483D01*
X34615Y-21465D01*
X34653Y-21446D01*
X34728Y-21446D01*
X34765Y-21465D01*
X35234Y-21690D02*
X35271Y-21708D01*
X35346Y-21708D01*
X35384Y-21690D01*
X35403Y-21652D01*
X35403Y-21633D01*
X35384Y-21596D01*
X35346Y-21577D01*
X35290Y-21577D01*
X35253Y-21558D01*
X35234Y-21521D01*
X35234Y-21502D01*
X35253Y-21465D01*
X35290Y-21446D01*
X35346Y-21446D01*
X35384Y-21465D01*
X35721Y-21690D02*
X35684Y-21708D01*
X35609Y-21708D01*
X35571Y-21690D01*
X35553Y-21652D01*
X35553Y-21502D01*
X35571Y-21465D01*
X35609Y-21446D01*
X35684Y-21446D01*
X35721Y-21465D01*
X35740Y-21502D01*
X35740Y-21540D01*
X35553Y-21577D01*
X35909Y-21446D02*
X35909Y-21708D01*
X35909Y-21483D02*
X35928Y-21465D01*
X35965Y-21446D01*
X36021Y-21446D01*
X36059Y-21465D01*
X36078Y-21502D01*
X36078Y-21708D01*
X36246Y-21690D02*
X36284Y-21708D01*
X36359Y-21708D01*
X36396Y-21690D01*
X36415Y-21652D01*
X36415Y-21633D01*
X36396Y-21596D01*
X36359Y-21577D01*
X36303Y-21577D01*
X36265Y-21558D01*
X36246Y-21521D01*
X36246Y-21502D01*
X36265Y-21465D01*
X36303Y-21446D01*
X36359Y-21446D01*
X36396Y-21465D01*
X36640Y-21708D02*
X36603Y-21690D01*
X36584Y-21671D01*
X36565Y-21633D01*
X36565Y-21521D01*
X36584Y-21483D01*
X36603Y-21465D01*
X36640Y-21446D01*
X36696Y-21446D01*
X36734Y-21465D01*
X36753Y-21483D01*
X36771Y-21521D01*
X36771Y-21633D01*
X36753Y-21671D01*
X36734Y-21690D01*
X36696Y-21708D01*
X36640Y-21708D01*
X36940Y-21708D02*
X36940Y-21446D01*
X36940Y-21521D02*
X36959Y-21483D01*
X36977Y-21465D01*
X37015Y-21446D01*
X37052Y-21446D01*
X37540Y-21708D02*
X37502Y-21690D01*
X37484Y-21652D01*
X37484Y-21315D01*
X37690Y-21708D02*
X37690Y-21446D01*
X37690Y-21315D02*
X37671Y-21334D01*
X37690Y-21352D01*
X37709Y-21334D01*
X37690Y-21315D01*
X37690Y-21352D01*
X37821Y-21446D02*
X37971Y-21446D01*
X37877Y-21315D02*
X37877Y-21652D01*
X37896Y-21690D01*
X37934Y-21708D01*
X37971Y-21708D01*
X38252Y-21690D02*
X38215Y-21708D01*
X38140Y-21708D01*
X38102Y-21690D01*
X38084Y-21652D01*
X38084Y-21502D01*
X38102Y-21465D01*
X38140Y-21446D01*
X38215Y-21446D01*
X38252Y-21465D01*
X38271Y-21502D01*
X38271Y-21540D01*
X38084Y-21577D01*
X35271Y-22358D02*
X35271Y-22096D01*
X35271Y-22171D02*
X35290Y-22133D01*
X35309Y-22114D01*
X35346Y-22096D01*
X35384Y-22096D01*
X35665Y-22339D02*
X35628Y-22358D01*
X35553Y-22358D01*
X35515Y-22339D01*
X35496Y-22302D01*
X35496Y-22152D01*
X35515Y-22114D01*
X35553Y-22096D01*
X35628Y-22096D01*
X35665Y-22114D01*
X35684Y-22152D01*
X35684Y-22189D01*
X35496Y-22227D01*
X35815Y-22096D02*
X35909Y-22358D01*
X36003Y-22096D01*
X36153Y-22321D02*
X36171Y-22339D01*
X36153Y-22358D01*
X36134Y-22339D01*
X36153Y-22321D01*
X36153Y-22358D01*
X36546Y-22358D02*
X36321Y-22358D01*
X36434Y-22358D02*
X36434Y-21964D01*
X36396Y-22021D01*
X36359Y-22058D01*
X36321Y-22077D01*
X31884Y-18306D02*
X31884Y-18568D01*
X31490Y-18306D01*
X31490Y-18568D01*
X31490Y-18775D02*
X31509Y-18737D01*
X31528Y-18718D01*
X31565Y-18700D01*
X31678Y-18700D01*
X31715Y-18718D01*
X31734Y-18737D01*
X31753Y-18775D01*
X31753Y-18831D01*
X31734Y-18868D01*
X31715Y-18887D01*
X31678Y-18906D01*
X31565Y-18906D01*
X31528Y-18887D01*
X31509Y-18868D01*
X31490Y-18831D01*
X31490Y-18775D01*
X31753Y-19075D02*
X31490Y-19075D01*
X31715Y-19075D02*
X31734Y-19093D01*
X31753Y-19131D01*
X31753Y-19187D01*
X31734Y-19225D01*
X31696Y-19243D01*
X31490Y-19243D01*
X31509Y-19581D02*
X31490Y-19543D01*
X31490Y-19468D01*
X31509Y-19431D01*
X31546Y-19412D01*
X31696Y-19412D01*
X31734Y-19431D01*
X31753Y-19468D01*
X31753Y-19543D01*
X31734Y-19581D01*
X31696Y-19599D01*
X31659Y-19599D01*
X31621Y-19412D01*
X31490Y-20274D02*
X31490Y-20049D01*
X31490Y-20162D02*
X31884Y-20162D01*
X31828Y-20124D01*
X31790Y-20087D01*
X31771Y-20049D01*
G54D12*
X27700Y-26400D02*
X27700Y-27000D01*
X27900Y-26800D02*
X27700Y-26600D01*
X27500Y-26800D02*
X27900Y-26800D01*
X27700Y-26600D02*
X27500Y-26800D01*
X27500Y-26600D02*
X27900Y-26600D01*
X27700Y-27100D02*
X27700Y-26600D01*
G54D13*
X28300Y-21250D02*
X27100Y-21250D01*
X27100Y-21250D02*
X27100Y-20950D01*
X27100Y-20950D02*
X28300Y-20950D01*
X28300Y-20950D02*
X28300Y-21250D01*
X30625Y-22925D02*
X29425Y-22925D01*
X29425Y-22925D02*
X29425Y-22625D01*
X29425Y-22625D02*
X30625Y-22625D01*
X30625Y-22625D02*
X30625Y-22925D01*
X29750Y-21250D02*
X28550Y-21250D01*
X28550Y-21250D02*
X28550Y-20950D01*
X28550Y-20950D02*
X29750Y-20950D01*
X29750Y-20950D02*
X29750Y-21250D01*
X32150Y-25500D02*
X33350Y-25500D01*
X33350Y-25500D02*
X33350Y-25800D01*
X33350Y-25800D02*
X32150Y-25800D01*
X32150Y-25800D02*
X32150Y-25500D01*
X31200Y-21250D02*
X30000Y-21250D01*
X30000Y-21250D02*
X30000Y-20950D01*
X30000Y-20950D02*
X31200Y-20950D01*
X31200Y-20950D02*
X31200Y-21250D01*
G54D14*
X29425Y-27475D02*
X29625Y-27175D01*
X29425Y-28175D02*
X29425Y-27150D01*
X29425Y-27150D02*
X30025Y-27150D01*
X30025Y-27150D02*
X30025Y-28175D01*
X30025Y-28175D02*
X29425Y-28175D01*
X33675Y-23175D02*
X33675Y-23875D01*
X33675Y-23875D02*
X32475Y-23875D01*
X32475Y-23875D02*
X32475Y-23175D01*
X32475Y-23175D02*
X33675Y-23175D01*
X30600Y-25400D02*
X29900Y-25400D01*
X29900Y-25400D02*
X29900Y-24200D01*
X29900Y-24200D02*
X30600Y-24200D01*
X30600Y-24200D02*
X30600Y-25400D01*
G54D15*
X32300Y-23450D02*
G75*
G03X32300Y-23450I-50J0D01*
G74*
G01*
X31800Y-23450D02*
X32200Y-23450D01*
X32200Y-23450D02*
X32200Y-24050D01*
X32200Y-24050D02*
X31800Y-24050D01*
X31400Y-24050D02*
X31000Y-24050D01*
X31000Y-24050D02*
X31000Y-23450D01*
X31000Y-23450D02*
X31400Y-23450D01*
X39200Y-23300D02*
G75*
G03X39200Y-23300I-50J0D01*
G74*
G01*
X38700Y-23300D02*
X39100Y-23300D01*
X39100Y-23300D02*
X39100Y-23900D01*
X39100Y-23900D02*
X38700Y-23900D01*
X38300Y-23900D02*
X37900Y-23900D01*
X37900Y-23900D02*
X37900Y-23300D01*
X37900Y-23300D02*
X38300Y-23300D01*
X31950Y-25500D02*
G75*
G03X31950Y-25500I-50J0D01*
G74*
G01*
X31900Y-25050D02*
X31900Y-25450D01*
X31900Y-25450D02*
X31300Y-25450D01*
X31300Y-25450D02*
X31300Y-25050D01*
X31300Y-24650D02*
X31300Y-24250D01*
X31300Y-24250D02*
X31900Y-24250D01*
X31900Y-24250D02*
X31900Y-24650D01*
X29350Y-25400D02*
G75*
G03X29350Y-25400I-50J0D01*
G74*
G01*
X29300Y-24950D02*
X29300Y-25350D01*
X29300Y-25350D02*
X28700Y-25350D01*
X28700Y-25350D02*
X28700Y-24950D01*
X28700Y-24550D02*
X28700Y-24150D01*
X28700Y-24150D02*
X29300Y-24150D01*
X29300Y-24150D02*
X29300Y-24550D01*
X28550Y-26250D02*
G75*
G03X28550Y-26250I-50J0D01*
G74*
G01*
X28500Y-25800D02*
X28500Y-26200D01*
X28500Y-26200D02*
X27900Y-26200D01*
X27900Y-26200D02*
X27900Y-25800D01*
X27900Y-25400D02*
X27900Y-25000D01*
X27900Y-25000D02*
X28500Y-25000D01*
X28500Y-25000D02*
X28500Y-25400D01*
X32300Y-22050D02*
G75*
G03X32300Y-22050I-50J0D01*
G74*
G01*
X31800Y-22050D02*
X32200Y-22050D01*
X32200Y-22050D02*
X32200Y-22650D01*
X32200Y-22650D02*
X31800Y-22650D01*
X31400Y-22650D02*
X31000Y-22650D01*
X31000Y-22650D02*
X31000Y-22050D01*
X31000Y-22050D02*
X31400Y-22050D01*
X32300Y-22750D02*
G75*
G03X32300Y-22750I-50J0D01*
G74*
G01*
X31800Y-22750D02*
X32200Y-22750D01*
X32200Y-22750D02*
X32200Y-23350D01*
X32200Y-23350D02*
X31800Y-23350D01*
X31400Y-23350D02*
X31000Y-23350D01*
X31000Y-23350D02*
X31000Y-22750D01*
X31000Y-22750D02*
X31400Y-22750D01*
X32200Y-24900D02*
G75*
G03X32200Y-24900I-50J0D01*
G74*
G01*
X32600Y-24900D02*
X32200Y-24900D01*
X32200Y-24900D02*
X32200Y-24300D01*
X32200Y-24300D02*
X32600Y-24300D01*
X33000Y-24300D02*
X33400Y-24300D01*
X33400Y-24300D02*
X33400Y-24900D01*
X33400Y-24900D02*
X33000Y-24900D01*
G54D16*
X36350Y-26250D02*
X40350Y-26250D01*
X40350Y-26250D02*
X40350Y-28250D01*
X40350Y-28250D02*
X36350Y-28250D01*
X36350Y-28250D02*
X36350Y-26250D01*
G54D17*
X28975Y-23075D02*
G75*
G03X28975Y-23075I-900J0D01*
G74*
G01*
G54D18*
X28464Y-27264D02*
X28464Y-27186D01*
X28464Y-27186D02*
X28386Y-27186D01*
X28386Y-27264D02*
X28386Y-27186D01*
X28464Y-27264D02*
X28386Y-27264D01*
X28700Y-27048D02*
X28700Y-26911D01*
X28700Y-26911D02*
X28602Y-26911D01*
X28602Y-27048D02*
X28602Y-26911D01*
X28700Y-27048D02*
X28602Y-27048D01*
X28700Y-26911D02*
X28700Y-26871D01*
X28700Y-26871D02*
X28229Y-26871D01*
X28229Y-26911D02*
X28229Y-26871D01*
X28700Y-26911D02*
X28229Y-26911D01*
X28209Y-26911D02*
X28209Y-26871D01*
X28209Y-26871D02*
X28150Y-26871D01*
X28150Y-26911D02*
X28150Y-26871D01*
X28209Y-26911D02*
X28150Y-26911D01*
X28700Y-27579D02*
X28700Y-27539D01*
X28700Y-27539D02*
X28229Y-27539D01*
X28229Y-27579D02*
X28229Y-27539D01*
X28700Y-27579D02*
X28229Y-27579D01*
X28209Y-27579D02*
X28209Y-27539D01*
X28209Y-27539D02*
X28150Y-27539D01*
X28150Y-27579D02*
X28150Y-27539D01*
X28209Y-27579D02*
X28150Y-27579D01*
X28700Y-27048D02*
X28700Y-26989D01*
X28700Y-26989D02*
X28602Y-26989D01*
X28602Y-27048D02*
X28602Y-26989D01*
X28700Y-27048D02*
X28602Y-27048D01*
G54D19*
X28720Y-26615D02*
X28720Y-27835D01*
X28720Y-27835D02*
X28130Y-27835D01*
X28130Y-27835D02*
X28130Y-26615D01*
X28130Y-26615D02*
X28720Y-26615D01*
X28621Y-27440D02*
G75*
G03X28620Y-27008I-196J215D01*
G74*
G01*
X28228Y-27440D02*
G75*
G03X28620Y-27441I196J215D01*
G74*
G01*
X28228Y-27009D02*
G75*
G03X28229Y-27441I196J-215D01*
G74*
G01*
X28621Y-27009D02*
G75*
G03X28229Y-27008I-196J-215D01*
G74*
G01*
G54D20*
X27071Y-20850D02*
X27042Y-20835D01*
X27014Y-20807D01*
X26971Y-20764D01*
X26942Y-20750D01*
X26914Y-20750D01*
X26928Y-20821D02*
X26900Y-20807D01*
X26871Y-20778D01*
X26857Y-20721D01*
X26857Y-20621D01*
X26871Y-20564D01*
X26900Y-20535D01*
X26928Y-20521D01*
X26985Y-20521D01*
X27014Y-20535D01*
X27042Y-20564D01*
X27057Y-20621D01*
X27057Y-20721D01*
X27042Y-20778D01*
X27014Y-20807D01*
X26985Y-20821D01*
X26928Y-20821D01*
X27328Y-20521D02*
X27185Y-20521D01*
X27171Y-20664D01*
X27185Y-20650D01*
X27214Y-20635D01*
X27285Y-20635D01*
X27314Y-20650D01*
X27328Y-20664D01*
X27342Y-20692D01*
X27342Y-20764D01*
X27328Y-20792D01*
X27314Y-20807D01*
X27285Y-20821D01*
X27214Y-20821D01*
X27185Y-20807D01*
X27171Y-20792D01*
X29421Y-22525D02*
X29392Y-22510D01*
X29364Y-22482D01*
X29321Y-22439D01*
X29292Y-22425D01*
X29264Y-22425D01*
X29278Y-22496D02*
X29250Y-22482D01*
X29221Y-22453D01*
X29207Y-22396D01*
X29207Y-22296D01*
X29221Y-22239D01*
X29250Y-22210D01*
X29278Y-22196D01*
X29335Y-22196D01*
X29364Y-22210D01*
X29392Y-22239D01*
X29407Y-22296D01*
X29407Y-22396D01*
X29392Y-22453D01*
X29364Y-22482D01*
X29335Y-22496D01*
X29278Y-22496D01*
X29507Y-22196D02*
X29692Y-22196D01*
X29592Y-22310D01*
X29635Y-22310D01*
X29664Y-22325D01*
X29678Y-22339D01*
X29692Y-22367D01*
X29692Y-22439D01*
X29678Y-22467D01*
X29664Y-22482D01*
X29635Y-22496D01*
X29550Y-22496D01*
X29521Y-22482D01*
X29507Y-22467D01*
X28521Y-20850D02*
X28492Y-20835D01*
X28464Y-20807D01*
X28421Y-20764D01*
X28392Y-20750D01*
X28364Y-20750D01*
X28378Y-20821D02*
X28350Y-20807D01*
X28321Y-20778D01*
X28307Y-20721D01*
X28307Y-20621D01*
X28321Y-20564D01*
X28350Y-20535D01*
X28378Y-20521D01*
X28435Y-20521D01*
X28464Y-20535D01*
X28492Y-20564D01*
X28507Y-20621D01*
X28507Y-20721D01*
X28492Y-20778D01*
X28464Y-20807D01*
X28435Y-20821D01*
X28378Y-20821D01*
X28764Y-20621D02*
X28764Y-20821D01*
X28692Y-20507D02*
X28621Y-20721D01*
X28807Y-20721D01*
X33371Y-26250D02*
X33342Y-26235D01*
X33314Y-26207D01*
X33271Y-26164D01*
X33242Y-26150D01*
X33214Y-26150D01*
X33228Y-26221D02*
X33200Y-26207D01*
X33171Y-26178D01*
X33157Y-26121D01*
X33157Y-26021D01*
X33171Y-25964D01*
X33200Y-25935D01*
X33228Y-25921D01*
X33285Y-25921D01*
X33314Y-25935D01*
X33342Y-25964D01*
X33357Y-26021D01*
X33357Y-26121D01*
X33342Y-26178D01*
X33314Y-26207D01*
X33285Y-26221D01*
X33228Y-26221D01*
X33642Y-26221D02*
X33471Y-26221D01*
X33557Y-26221D02*
X33557Y-25921D01*
X33528Y-25964D01*
X33500Y-25992D01*
X33471Y-26007D01*
X29996Y-20850D02*
X29967Y-20835D01*
X29939Y-20807D01*
X29896Y-20764D01*
X29867Y-20750D01*
X29839Y-20750D01*
X29853Y-20821D02*
X29825Y-20807D01*
X29796Y-20778D01*
X29782Y-20721D01*
X29782Y-20621D01*
X29796Y-20564D01*
X29825Y-20535D01*
X29853Y-20521D01*
X29910Y-20521D01*
X29939Y-20535D01*
X29967Y-20564D01*
X29982Y-20621D01*
X29982Y-20721D01*
X29967Y-20778D01*
X29939Y-20807D01*
X29910Y-20821D01*
X29853Y-20821D01*
X30096Y-20550D02*
X30110Y-20535D01*
X30139Y-20521D01*
X30210Y-20521D01*
X30239Y-20535D01*
X30253Y-20550D01*
X30267Y-20578D01*
X30267Y-20607D01*
X30253Y-20650D01*
X30082Y-20821D01*
X30267Y-20821D01*
G54D21*
X29046Y-26953D02*
X29289Y-26953D01*
X29317Y-26939D01*
X29332Y-26925D01*
X29346Y-26896D01*
X29346Y-26839D01*
X29332Y-26810D01*
X29317Y-26796D01*
X29289Y-26782D01*
X29046Y-26782D01*
X29075Y-26653D02*
X29060Y-26639D01*
X29046Y-26610D01*
X29046Y-26539D01*
X29060Y-26510D01*
X29075Y-26496D01*
X29103Y-26482D01*
X29132Y-26482D01*
X29175Y-26496D01*
X29346Y-26667D01*
X29346Y-26482D01*
G54D22*
X29560Y-27955D02*
X29784Y-27955D01*
X29810Y-27942D01*
X29823Y-27928D01*
X29836Y-27902D01*
X29836Y-27850D01*
X29823Y-27823D01*
X29810Y-27810D01*
X29784Y-27797D01*
X29560Y-27797D01*
X29823Y-27679D02*
X29836Y-27640D01*
X29836Y-27574D01*
X29823Y-27548D01*
X29810Y-27535D01*
X29784Y-27522D01*
X29757Y-27522D01*
X29731Y-27535D01*
X29718Y-27548D01*
X29705Y-27574D01*
X29692Y-27627D01*
X29679Y-27653D01*
X29665Y-27666D01*
X29639Y-27679D01*
X29613Y-27679D01*
X29587Y-27666D01*
X29574Y-27653D01*
X29560Y-27627D01*
X29560Y-27561D01*
X29574Y-27522D01*
X29692Y-27312D02*
X29705Y-27272D01*
X29718Y-27259D01*
X29744Y-27246D01*
X29784Y-27246D01*
X29810Y-27259D01*
X29823Y-27272D01*
X29836Y-27299D01*
X29836Y-27404D01*
X29560Y-27404D01*
X29560Y-27312D01*
X29574Y-27285D01*
X29587Y-27272D01*
X29613Y-27259D01*
X29639Y-27259D01*
X29665Y-27272D01*
X29679Y-27285D01*
X29692Y-27312D01*
X29692Y-27404D01*
X29836Y-26997D02*
X29836Y-27128D01*
X29560Y-27128D01*
X29810Y-26747D02*
X29823Y-26760D01*
X29836Y-26800D01*
X29836Y-26826D01*
X29823Y-26865D01*
X29797Y-26892D01*
X29770Y-26905D01*
X29718Y-26918D01*
X29679Y-26918D01*
X29626Y-26905D01*
X29600Y-26892D01*
X29574Y-26865D01*
X29560Y-26826D01*
X29560Y-26800D01*
X29574Y-26760D01*
X29587Y-26747D01*
X29560Y-26511D02*
X29560Y-26564D01*
X29574Y-26590D01*
X29587Y-26603D01*
X29626Y-26629D01*
X29679Y-26642D01*
X29784Y-26642D01*
X29810Y-26629D01*
X29823Y-26616D01*
X29836Y-26590D01*
X29836Y-26537D01*
X29823Y-26511D01*
X29810Y-26498D01*
X29784Y-26485D01*
X29718Y-26485D01*
X29692Y-26498D01*
X29679Y-26511D01*
X29665Y-26537D01*
X29665Y-26590D01*
X29679Y-26616D01*
X29692Y-26629D01*
X29718Y-26642D01*
X29731Y-26367D02*
X29731Y-26157D01*
X29652Y-25907D02*
X29836Y-25907D01*
X29547Y-25973D02*
X29744Y-26039D01*
X29744Y-25868D01*
G54D14*
X33809Y-23151D02*
X33809Y-23353D01*
X33821Y-23377D01*
X33833Y-23389D01*
X33857Y-23401D01*
X33904Y-23401D01*
X33928Y-23389D01*
X33940Y-23377D01*
X33952Y-23353D01*
X33952Y-23151D01*
X34202Y-23401D02*
X34059Y-23401D01*
X34130Y-23401D02*
X34130Y-23151D01*
X34107Y-23186D01*
X34083Y-23210D01*
X34059Y-23222D01*
X33821Y-23801D02*
X33821Y-23551D01*
X33964Y-23801D01*
X33964Y-23551D01*
X34226Y-23777D02*
X34214Y-23789D01*
X34178Y-23801D01*
X34154Y-23801D01*
X34119Y-23789D01*
X34095Y-23765D01*
X34083Y-23741D01*
X34071Y-23694D01*
X34071Y-23658D01*
X34083Y-23610D01*
X34095Y-23586D01*
X34119Y-23563D01*
X34154Y-23551D01*
X34178Y-23551D01*
X34214Y-23563D01*
X34226Y-23575D01*
X34333Y-23801D02*
X34333Y-23551D01*
X34428Y-23551D01*
X34452Y-23563D01*
X34464Y-23575D01*
X34476Y-23598D01*
X34476Y-23634D01*
X34464Y-23658D01*
X34452Y-23670D01*
X34428Y-23682D01*
X34333Y-23682D01*
X34702Y-23551D02*
X34583Y-23551D01*
X34571Y-23670D01*
X34583Y-23658D01*
X34607Y-23646D01*
X34666Y-23646D01*
X34690Y-23658D01*
X34702Y-23670D01*
X34714Y-23694D01*
X34714Y-23753D01*
X34702Y-23777D01*
X34690Y-23789D01*
X34666Y-23801D01*
X34607Y-23801D01*
X34583Y-23789D01*
X34571Y-23777D01*
X34940Y-23551D02*
X34821Y-23551D01*
X34809Y-23670D01*
X34821Y-23658D01*
X34845Y-23646D01*
X34904Y-23646D01*
X34928Y-23658D01*
X34940Y-23670D01*
X34952Y-23694D01*
X34952Y-23753D01*
X34940Y-23777D01*
X34928Y-23789D01*
X34904Y-23801D01*
X34845Y-23801D01*
X34821Y-23789D01*
X34809Y-23777D01*
X35190Y-23801D02*
X35047Y-23801D01*
X35119Y-23801D02*
X35119Y-23551D01*
X35095Y-23586D01*
X35071Y-23610D01*
X35047Y-23622D01*
X29859Y-23851D02*
X29859Y-24053D01*
X29871Y-24077D01*
X29883Y-24089D01*
X29907Y-24101D01*
X29954Y-24101D01*
X29978Y-24089D01*
X29990Y-24077D01*
X30002Y-24053D01*
X30002Y-23851D01*
X30097Y-23851D02*
X30252Y-23851D01*
X30169Y-23946D01*
X30204Y-23946D01*
X30228Y-23958D01*
X30240Y-23970D01*
X30252Y-23994D01*
X30252Y-24053D01*
X30240Y-24077D01*
X30228Y-24089D01*
X30204Y-24101D01*
X30133Y-24101D01*
X30109Y-24089D01*
X30097Y-24077D01*
X28421Y-23751D02*
X28421Y-23501D01*
X28504Y-23679D01*
X28588Y-23501D01*
X28588Y-23751D01*
X28850Y-23727D02*
X28838Y-23739D01*
X28802Y-23751D01*
X28778Y-23751D01*
X28742Y-23739D01*
X28719Y-23715D01*
X28707Y-23691D01*
X28695Y-23644D01*
X28695Y-23608D01*
X28707Y-23560D01*
X28719Y-23536D01*
X28742Y-23513D01*
X28778Y-23501D01*
X28802Y-23501D01*
X28838Y-23513D01*
X28850Y-23525D01*
X28957Y-23751D02*
X28957Y-23501D01*
X29052Y-23501D01*
X29076Y-23513D01*
X29088Y-23525D01*
X29100Y-23548D01*
X29100Y-23584D01*
X29088Y-23608D01*
X29076Y-23620D01*
X29052Y-23632D01*
X28957Y-23632D01*
X29183Y-23501D02*
X29350Y-23501D01*
X29242Y-23751D01*
X29421Y-23501D02*
X29576Y-23501D01*
X29492Y-23596D01*
X29528Y-23596D01*
X29552Y-23608D01*
X29564Y-23620D01*
X29576Y-23644D01*
X29576Y-23703D01*
X29564Y-23727D01*
X29552Y-23739D01*
X29528Y-23751D01*
X29457Y-23751D01*
X29433Y-23739D01*
X29421Y-23727D01*
X29719Y-23608D02*
X29695Y-23596D01*
X29683Y-23584D01*
X29671Y-23560D01*
X29671Y-23548D01*
X29683Y-23525D01*
X29695Y-23513D01*
X29719Y-23501D01*
X29766Y-23501D01*
X29790Y-23513D01*
X29802Y-23525D01*
X29814Y-23548D01*
X29814Y-23560D01*
X29802Y-23584D01*
X29790Y-23596D01*
X29766Y-23608D01*
X29719Y-23608D01*
X29695Y-23620D01*
X29683Y-23632D01*
X29671Y-23655D01*
X29671Y-23703D01*
X29683Y-23727D01*
X29695Y-23739D01*
X29719Y-23751D01*
X29766Y-23751D01*
X29790Y-23739D01*
X29802Y-23727D01*
X29814Y-23703D01*
X29814Y-23655D01*
X29802Y-23632D01*
X29790Y-23620D01*
X29766Y-23608D01*
X29897Y-23501D02*
X30052Y-23501D01*
X29969Y-23596D01*
X30004Y-23596D01*
X30028Y-23608D01*
X30040Y-23620D01*
X30052Y-23644D01*
X30052Y-23703D01*
X30040Y-23727D01*
X30028Y-23739D01*
X30004Y-23751D01*
X29933Y-23751D01*
X29909Y-23739D01*
X29897Y-23727D01*
X30290Y-23751D02*
X30147Y-23751D01*
X30219Y-23751D02*
X30219Y-23501D01*
X30195Y-23536D01*
X30171Y-23560D01*
X30147Y-23572D01*
G54D23*
X30717Y-23679D02*
X30651Y-23585D01*
X30604Y-23679D02*
X30604Y-23482D01*
X30679Y-23482D01*
X30698Y-23492D01*
X30707Y-23501D01*
X30717Y-23520D01*
X30717Y-23548D01*
X30707Y-23567D01*
X30698Y-23576D01*
X30679Y-23585D01*
X30604Y-23585D01*
X30792Y-23501D02*
X30801Y-23492D01*
X30820Y-23482D01*
X30867Y-23482D01*
X30886Y-23492D01*
X30895Y-23501D01*
X30904Y-23520D01*
X30904Y-23539D01*
X30895Y-23567D01*
X30782Y-23679D01*
X30904Y-23679D01*
X30582Y-24029D02*
X30470Y-24029D01*
X30526Y-24029D02*
X30526Y-23832D01*
X30507Y-23860D01*
X30488Y-23879D01*
X30470Y-23889D01*
X30704Y-23832D02*
X30723Y-23832D01*
X30742Y-23842D01*
X30751Y-23851D01*
X30760Y-23870D01*
X30770Y-23907D01*
X30770Y-23954D01*
X30760Y-23992D01*
X30751Y-24010D01*
X30742Y-24020D01*
X30723Y-24029D01*
X30704Y-24029D01*
X30685Y-24020D01*
X30676Y-24010D01*
X30667Y-23992D01*
X30657Y-23954D01*
X30657Y-23907D01*
X30667Y-23870D01*
X30676Y-23851D01*
X30685Y-23842D01*
X30704Y-23832D01*
X30854Y-24029D02*
X30854Y-23832D01*
X30873Y-23954D02*
X30929Y-24029D01*
X30929Y-23898D02*
X30854Y-23973D01*
X38917Y-23179D02*
X38851Y-23085D01*
X38804Y-23179D02*
X38804Y-22982D01*
X38879Y-22982D01*
X38898Y-22992D01*
X38907Y-23001D01*
X38917Y-23020D01*
X38917Y-23048D01*
X38907Y-23067D01*
X38898Y-23076D01*
X38879Y-23085D01*
X38804Y-23085D01*
X39086Y-23048D02*
X39086Y-23179D01*
X39039Y-22973D02*
X38992Y-23114D01*
X39114Y-23114D01*
X38035Y-23179D02*
X37923Y-23179D01*
X37979Y-23179D02*
X37979Y-22982D01*
X37960Y-23010D01*
X37942Y-23029D01*
X37923Y-23039D01*
X38120Y-23160D02*
X38129Y-23170D01*
X38120Y-23179D01*
X38110Y-23170D01*
X38120Y-23160D01*
X38120Y-23179D01*
X38307Y-22982D02*
X38214Y-22982D01*
X38204Y-23076D01*
X38214Y-23067D01*
X38232Y-23057D01*
X38279Y-23057D01*
X38298Y-23067D01*
X38307Y-23076D01*
X38317Y-23095D01*
X38317Y-23142D01*
X38307Y-23160D01*
X38298Y-23170D01*
X38279Y-23179D01*
X38232Y-23179D01*
X38214Y-23170D01*
X38204Y-23160D01*
X38401Y-23179D02*
X38401Y-22982D01*
X38420Y-23104D02*
X38476Y-23179D01*
X38476Y-23048D02*
X38401Y-23123D01*
X31210Y-24482D02*
X31220Y-24492D01*
X31229Y-24520D01*
X31229Y-24539D01*
X31220Y-24567D01*
X31201Y-24586D01*
X31182Y-24595D01*
X31145Y-24604D01*
X31117Y-24604D01*
X31079Y-24595D01*
X31060Y-24586D01*
X31042Y-24567D01*
X31032Y-24539D01*
X31032Y-24520D01*
X31042Y-24492D01*
X31051Y-24482D01*
X31032Y-24304D02*
X31032Y-24398D01*
X31126Y-24407D01*
X31117Y-24398D01*
X31107Y-24379D01*
X31107Y-24332D01*
X31117Y-24313D01*
X31126Y-24304D01*
X31145Y-24295D01*
X31192Y-24295D01*
X31210Y-24304D01*
X31220Y-24313D01*
X31229Y-24332D01*
X31229Y-24379D01*
X31220Y-24398D01*
X31210Y-24407D01*
X31098Y-25376D02*
X31229Y-25376D01*
X31023Y-25423D02*
X31164Y-25470D01*
X31164Y-25348D01*
X31210Y-25273D02*
X31220Y-25264D01*
X31229Y-25273D01*
X31220Y-25282D01*
X31210Y-25273D01*
X31229Y-25273D01*
X31032Y-25198D02*
X31032Y-25067D01*
X31229Y-25151D01*
X31098Y-24907D02*
X31229Y-24907D01*
X31098Y-24992D02*
X31201Y-24992D01*
X31220Y-24982D01*
X31229Y-24963D01*
X31229Y-24935D01*
X31220Y-24917D01*
X31210Y-24907D01*
X31126Y-24748D02*
X31126Y-24813D01*
X31229Y-24813D02*
X31032Y-24813D01*
X31032Y-24720D01*
X28579Y-24432D02*
X28485Y-24498D01*
X28579Y-24545D02*
X28382Y-24545D01*
X28382Y-24470D01*
X28392Y-24451D01*
X28401Y-24442D01*
X28420Y-24432D01*
X28448Y-24432D01*
X28467Y-24442D01*
X28476Y-24451D01*
X28485Y-24470D01*
X28485Y-24545D01*
X28382Y-24263D02*
X28382Y-24301D01*
X28392Y-24320D01*
X28401Y-24329D01*
X28429Y-24348D01*
X28467Y-24357D01*
X28542Y-24357D01*
X28560Y-24348D01*
X28570Y-24339D01*
X28579Y-24320D01*
X28579Y-24282D01*
X28570Y-24263D01*
X28560Y-24254D01*
X28542Y-24245D01*
X28495Y-24245D01*
X28476Y-24254D01*
X28467Y-24263D01*
X28457Y-24282D01*
X28457Y-24320D01*
X28467Y-24339D01*
X28476Y-24348D01*
X28495Y-24357D01*
X28401Y-25236D02*
X28392Y-25226D01*
X28382Y-25207D01*
X28382Y-25160D01*
X28392Y-25142D01*
X28401Y-25132D01*
X28420Y-25123D01*
X28439Y-25123D01*
X28467Y-25132D01*
X28579Y-25245D01*
X28579Y-25123D01*
X28579Y-25039D02*
X28382Y-25039D01*
X28504Y-25020D02*
X28579Y-24963D01*
X28448Y-24963D02*
X28523Y-25039D01*
X27779Y-25232D02*
X27685Y-25298D01*
X27779Y-25345D02*
X27582Y-25345D01*
X27582Y-25270D01*
X27592Y-25251D01*
X27601Y-25242D01*
X27620Y-25232D01*
X27648Y-25232D01*
X27667Y-25242D01*
X27676Y-25251D01*
X27685Y-25270D01*
X27685Y-25345D01*
X27582Y-25167D02*
X27582Y-25045D01*
X27657Y-25110D01*
X27657Y-25082D01*
X27667Y-25063D01*
X27676Y-25054D01*
X27695Y-25045D01*
X27742Y-25045D01*
X27760Y-25054D01*
X27770Y-25063D01*
X27779Y-25082D01*
X27779Y-25139D01*
X27770Y-25157D01*
X27760Y-25167D01*
X27648Y-26100D02*
X27779Y-26100D01*
X27573Y-26146D02*
X27714Y-26193D01*
X27714Y-26071D01*
X27582Y-26015D02*
X27582Y-25884D01*
X27779Y-25968D01*
X27582Y-25771D02*
X27582Y-25753D01*
X27592Y-25734D01*
X27601Y-25724D01*
X27620Y-25715D01*
X27657Y-25706D01*
X27704Y-25706D01*
X27742Y-25715D01*
X27760Y-25724D01*
X27770Y-25734D01*
X27779Y-25753D01*
X27779Y-25771D01*
X27770Y-25790D01*
X27760Y-25799D01*
X27742Y-25809D01*
X27704Y-25818D01*
X27657Y-25818D01*
X27620Y-25809D01*
X27601Y-25799D01*
X27592Y-25790D01*
X27582Y-25771D01*
X30717Y-22260D02*
X30707Y-22270D01*
X30679Y-22279D01*
X30660Y-22279D01*
X30632Y-22270D01*
X30613Y-22251D01*
X30604Y-22232D01*
X30595Y-22195D01*
X30595Y-22167D01*
X30604Y-22129D01*
X30613Y-22110D01*
X30632Y-22092D01*
X30660Y-22082D01*
X30679Y-22082D01*
X30707Y-22092D01*
X30717Y-22101D01*
X30886Y-22148D02*
X30886Y-22279D01*
X30839Y-22073D02*
X30792Y-22214D01*
X30914Y-22214D01*
X30226Y-22432D02*
X30245Y-22432D01*
X30263Y-22442D01*
X30273Y-22451D01*
X30282Y-22470D01*
X30292Y-22507D01*
X30292Y-22554D01*
X30282Y-22592D01*
X30273Y-22610D01*
X30263Y-22620D01*
X30245Y-22629D01*
X30226Y-22629D01*
X30207Y-22620D01*
X30198Y-22610D01*
X30188Y-22592D01*
X30179Y-22554D01*
X30179Y-22507D01*
X30188Y-22470D01*
X30198Y-22451D01*
X30207Y-22442D01*
X30226Y-22432D01*
X30376Y-22610D02*
X30385Y-22620D01*
X30376Y-22629D01*
X30367Y-22620D01*
X30376Y-22610D01*
X30376Y-22629D01*
X30573Y-22629D02*
X30460Y-22629D01*
X30517Y-22629D02*
X30517Y-22432D01*
X30498Y-22460D01*
X30479Y-22479D01*
X30460Y-22489D01*
X30742Y-22498D02*
X30742Y-22629D01*
X30657Y-22498D02*
X30657Y-22601D01*
X30667Y-22620D01*
X30686Y-22629D01*
X30714Y-22629D01*
X30732Y-22620D01*
X30742Y-22610D01*
X30901Y-22526D02*
X30836Y-22526D01*
X30836Y-22629D02*
X30836Y-22432D01*
X30929Y-22432D01*
X30717Y-22979D02*
X30651Y-22885D01*
X30604Y-22979D02*
X30604Y-22782D01*
X30679Y-22782D01*
X30698Y-22792D01*
X30707Y-22801D01*
X30717Y-22820D01*
X30717Y-22848D01*
X30707Y-22867D01*
X30698Y-22876D01*
X30679Y-22885D01*
X30604Y-22885D01*
X30904Y-22979D02*
X30792Y-22979D01*
X30848Y-22979D02*
X30848Y-22782D01*
X30829Y-22810D01*
X30810Y-22829D01*
X30792Y-22839D01*
X30582Y-23329D02*
X30470Y-23329D01*
X30526Y-23329D02*
X30526Y-23132D01*
X30507Y-23160D01*
X30488Y-23179D01*
X30470Y-23189D01*
X30704Y-23132D02*
X30723Y-23132D01*
X30742Y-23142D01*
X30751Y-23151D01*
X30760Y-23170D01*
X30770Y-23207D01*
X30770Y-23254D01*
X30760Y-23292D01*
X30751Y-23310D01*
X30742Y-23320D01*
X30723Y-23329D01*
X30704Y-23329D01*
X30685Y-23320D01*
X30676Y-23310D01*
X30667Y-23292D01*
X30657Y-23254D01*
X30657Y-23207D01*
X30667Y-23170D01*
X30676Y-23151D01*
X30685Y-23142D01*
X30704Y-23132D01*
X30854Y-23329D02*
X30854Y-23132D01*
X30873Y-23254D02*
X30929Y-23329D01*
X30929Y-23198D02*
X30854Y-23273D01*
X33667Y-24510D02*
X33657Y-24520D01*
X33629Y-24529D01*
X33610Y-24529D01*
X33582Y-24520D01*
X33563Y-24501D01*
X33554Y-24482D01*
X33545Y-24445D01*
X33545Y-24417D01*
X33554Y-24379D01*
X33563Y-24360D01*
X33582Y-24342D01*
X33610Y-24332D01*
X33629Y-24332D01*
X33657Y-24342D01*
X33667Y-24351D01*
X33854Y-24529D02*
X33742Y-24529D01*
X33798Y-24529D02*
X33798Y-24332D01*
X33779Y-24360D01*
X33760Y-24379D01*
X33742Y-24389D01*
X33682Y-24879D02*
X33570Y-24879D01*
X33626Y-24879D02*
X33626Y-24682D01*
X33607Y-24710D01*
X33588Y-24729D01*
X33570Y-24739D01*
X33851Y-24748D02*
X33851Y-24879D01*
X33767Y-24748D02*
X33767Y-24851D01*
X33776Y-24870D01*
X33795Y-24879D01*
X33823Y-24879D01*
X33842Y-24870D01*
X33851Y-24860D01*
X34011Y-24776D02*
X33945Y-24776D01*
X33945Y-24879D02*
X33945Y-24682D01*
X34039Y-24682D01*
G54D24*
X36940Y-26011D02*
X36940Y-25611D01*
X37169Y-26011D01*
X37169Y-25611D01*
X37588Y-26011D02*
X37454Y-25821D01*
X37359Y-26011D02*
X37359Y-25611D01*
X37511Y-25611D01*
X37550Y-25630D01*
X37569Y-25650D01*
X37588Y-25688D01*
X37588Y-25745D01*
X37569Y-25783D01*
X37550Y-25802D01*
X37511Y-25821D01*
X37359Y-25821D01*
X37892Y-25802D02*
X37759Y-25802D01*
X37759Y-26011D02*
X37759Y-25611D01*
X37950Y-25611D01*
X38083Y-25650D02*
X38102Y-25630D01*
X38140Y-25611D01*
X38235Y-25611D01*
X38273Y-25630D01*
X38292Y-25650D01*
X38311Y-25688D01*
X38311Y-25726D01*
X38292Y-25783D01*
X38064Y-26011D01*
X38311Y-26011D01*
X38654Y-25745D02*
X38654Y-26011D01*
X38559Y-25592D02*
X38464Y-25878D01*
X38711Y-25878D01*
X39054Y-26011D02*
X38864Y-26011D01*
X38864Y-25611D01*
X39264Y-25611D02*
X39302Y-25611D01*
X39340Y-25630D01*
X39359Y-25650D01*
X39378Y-25688D01*
X39397Y-25764D01*
X39397Y-25859D01*
X39378Y-25935D01*
X39359Y-25973D01*
X39340Y-25992D01*
X39302Y-26011D01*
X39264Y-26011D01*
X39226Y-25992D01*
X39207Y-25973D01*
X39188Y-25935D01*
X39169Y-25859D01*
X39169Y-25764D01*
X39188Y-25688D01*
X39207Y-25650D01*
X39226Y-25630D01*
X39264Y-25611D01*
X39778Y-26011D02*
X39550Y-26011D01*
X39664Y-26011D02*
X39664Y-25611D01*
X39626Y-25669D01*
X39588Y-25707D01*
X39550Y-25726D01*
G54D25*
X27321Y-26921D02*
X27021Y-26921D01*
X27021Y-26850D01*
X27035Y-26807D01*
X27064Y-26778D01*
X27092Y-26764D01*
X27150Y-26750D01*
X27192Y-26750D01*
X27250Y-26764D01*
X27278Y-26778D01*
X27307Y-26807D01*
X27321Y-26850D01*
X27321Y-26921D01*
X27321Y-26464D02*
X27321Y-26635D01*
X27321Y-26550D02*
X27021Y-26550D01*
X27064Y-26578D01*
X27092Y-26607D01*
X27107Y-26635D01*
X29146Y-27417D02*
X29146Y-27560D01*
X28846Y-27560D01*
X28989Y-27317D02*
X28989Y-27217D01*
X29146Y-27175D02*
X29146Y-27317D01*
X28846Y-27317D01*
X28846Y-27175D01*
X29146Y-27046D02*
X28846Y-27046D01*
X28846Y-26975D01*
X28860Y-26932D01*
X28889Y-26903D01*
X28917Y-26889D01*
X28975Y-26875D01*
X29017Y-26875D01*
X29075Y-26889D01*
X29103Y-26903D01*
X29132Y-26932D01*
X29146Y-26975D01*
X29146Y-27046D01*
M02*
