G04 (created by PCBNEW (2013-may-18)-stable) date Вт 24 ноя 2015 00:04:13*
%MOIN*%
G04 Gerber Fmt 3.4, Leading zero omitted, Abs format*
%FSLAX34Y34*%
G01*
G70*
G90*
G04 APERTURE LIST*
%ADD10C,0.00590551*%
%ADD11R,0.06X0.06*%
%ADD12C,0.06*%
%ADD13R,0.035X0.055*%
%ADD14R,0.055X0.035*%
%ADD15C,0.16*%
%ADD16R,0.03X0.02*%
G04 APERTURE END LIST*
G54D10*
G54D11*
X29814Y-27322D03*
G54D12*
X30814Y-27322D03*
G54D13*
X38286Y-23503D03*
X39036Y-23503D03*
X37579Y-24251D03*
X36829Y-24251D03*
X37579Y-23503D03*
X36829Y-23503D03*
X38286Y-24251D03*
X39036Y-24251D03*
G54D14*
X35885Y-24193D03*
X35885Y-23443D03*
X39783Y-23463D03*
X39783Y-24213D03*
G54D11*
X36984Y-26665D03*
G54D12*
X36984Y-27665D03*
X37984Y-26665D03*
X37984Y-27665D03*
X38984Y-26665D03*
X38984Y-27665D03*
X39984Y-26665D03*
X39984Y-27665D03*
G54D11*
X39984Y-19791D03*
G54D12*
X39984Y-18791D03*
X38984Y-19791D03*
X38984Y-18791D03*
X37984Y-19791D03*
X37984Y-18791D03*
X36984Y-19791D03*
X36984Y-18791D03*
G54D11*
X27633Y-19133D03*
G54D12*
X28633Y-19133D03*
X29633Y-19133D03*
X30633Y-19133D03*
G54D11*
X43897Y-18775D03*
G54D12*
X43897Y-19775D03*
X43897Y-20775D03*
X43897Y-21775D03*
G54D11*
X43897Y-25673D03*
G54D12*
X43897Y-26673D03*
X43897Y-27673D03*
G54D11*
X27570Y-27322D03*
G54D12*
X28570Y-27322D03*
G54D11*
X35224Y-19133D03*
G54D12*
X34224Y-19133D03*
G54D11*
X32940Y-19133D03*
G54D12*
X31940Y-19133D03*
G54D11*
X32059Y-27322D03*
G54D12*
X33059Y-27322D03*
G54D11*
X34303Y-27322D03*
G54D12*
X35303Y-27322D03*
G54D15*
X32795Y-23897D03*
G54D11*
X26287Y-18767D03*
G54D12*
X25287Y-18767D03*
X26287Y-19767D03*
X25287Y-19767D03*
X26287Y-20767D03*
X25287Y-20767D03*
X26287Y-21767D03*
X25287Y-21767D03*
X26287Y-22767D03*
X25287Y-22767D03*
X26287Y-23767D03*
X25287Y-23767D03*
X26287Y-24767D03*
X25287Y-24767D03*
X26287Y-25767D03*
X25287Y-25767D03*
X26287Y-26767D03*
X25287Y-26767D03*
X26287Y-27767D03*
X25287Y-27767D03*
G54D11*
X41287Y-27767D03*
G54D12*
X42287Y-27767D03*
X41287Y-26767D03*
X42287Y-26767D03*
X41287Y-25767D03*
X42287Y-25767D03*
X41287Y-24767D03*
X42287Y-24767D03*
X41287Y-23767D03*
X42287Y-23767D03*
X41287Y-22767D03*
X42287Y-22767D03*
X41287Y-21767D03*
X42287Y-21767D03*
X41287Y-20767D03*
X42287Y-20767D03*
X41287Y-19767D03*
X42287Y-19767D03*
X41287Y-18767D03*
X42287Y-18767D03*
G54D16*
X30352Y-21357D03*
X30352Y-22107D03*
X29352Y-21357D03*
X30352Y-21732D03*
X29352Y-22107D03*
M02*
