M48
;DRILL file {Pcbnew (2013-may-18)-stable} date Вт 24 ноя 2015 00:04:16
;FORMAT={-:-/ absolute / metric / decimal}
FMAT,2
METRIC,TZ
T1C0.300
T2C1.000
T3C3.000
%
G90
G05
M71
T1
X65.4Y-69.2
X68.45Y-59.1
X68.75Y-62.95
X68.75Y-66.8
X70.Y-57.85
X70.35Y-55.15
X70.6Y-57.2
X70.75Y-58.4
X70.9Y-52.7
X73.2Y-62.9
X74.05Y-71.
X74.575Y-52.95
X76.175Y-55.2
X79.5Y-62.85
X79.575Y-53.15
X83.15Y-66.85
X84.1Y-63.9
X88.65Y-57.7
X89.6Y-61.45
X91.65Y-53.35
X94.1Y-55.8
X96.65Y-64.65
X99.2Y-58.4
X101.Y-54.6
X101.4Y-63.05
T2
X64.23Y-47.67
X64.23Y-50.21
X64.23Y-52.75
X64.23Y-55.29
X64.23Y-57.83
X64.23Y-60.37
X64.23Y-62.91
X64.23Y-65.45
X64.23Y-67.99
X64.23Y-70.53
X66.77Y-47.67
X66.77Y-50.21
X66.77Y-52.75
X66.77Y-55.29
X66.77Y-57.83
X66.77Y-60.37
X66.77Y-62.91
X66.77Y-65.45
X66.77Y-67.99
X66.77Y-70.53
X70.03Y-69.4
X70.19Y-48.6
X72.57Y-69.4
X72.73Y-48.6
X75.27Y-48.6
X75.73Y-69.4
X77.81Y-48.6
X78.27Y-69.4
X81.13Y-48.6
X81.43Y-69.4
X83.67Y-48.6
X83.97Y-69.4
X86.93Y-48.6
X87.13Y-69.4
X89.47Y-48.6
X89.67Y-69.4
X93.94Y-47.73
X93.94Y-50.27
X93.94Y-67.73
X93.94Y-70.27
X96.48Y-47.73
X96.48Y-50.27
X96.48Y-67.73
X96.48Y-70.27
X99.02Y-47.73
X99.02Y-50.27
X99.02Y-67.73
X99.02Y-70.27
X101.56Y-47.73
X101.56Y-50.27
X101.56Y-67.73
X101.56Y-70.27
X104.87Y-47.67
X104.87Y-50.21
X104.87Y-52.75
X104.87Y-55.29
X104.87Y-57.83
X104.87Y-60.37
X104.87Y-62.91
X104.87Y-65.45
X104.87Y-67.99
X104.87Y-70.53
X107.41Y-47.67
X107.41Y-50.21
X107.41Y-52.75
X107.41Y-55.29
X107.41Y-57.83
X107.41Y-60.37
X107.41Y-62.91
X107.41Y-65.45
X107.41Y-67.99
X107.41Y-70.53
X111.5Y-47.69
X111.5Y-50.23
X111.5Y-52.77
X111.5Y-55.31
X111.5Y-65.21
X111.5Y-67.75
X111.5Y-70.29
T3
X83.3Y-60.7
T0
M30
