G04 (created by PCBNEW (2013-may-18)-stable) date Вт 24 ноя 2015 00:04:13*
%MOIN*%
G04 Gerber Fmt 3.4, Leading zero omitted, Abs format*
%FSLAX34Y34*%
G01*
G70*
G90*
G04 APERTURE LIST*
%ADD10C,0.00590551*%
%ADD11R,0.06X0.06*%
%ADD12C,0.06*%
%ADD13R,0.036X0.036*%
%ADD14R,0.02X0.045*%
%ADD15R,0.055X0.035*%
%ADD16R,0.1004X0.0984*%
%ADD17R,0.0984X0.1004*%
%ADD18C,0.16*%
G04 APERTURE END LIST*
G54D10*
G54D11*
X29814Y-27322D03*
G54D12*
X30814Y-27322D03*
G54D13*
X31697Y-25584D03*
X32397Y-25584D03*
X32047Y-26384D03*
X27592Y-26294D03*
X27592Y-25594D03*
X28392Y-25944D03*
X33114Y-25584D03*
X33814Y-25584D03*
X33464Y-26384D03*
X29285Y-24798D03*
X29285Y-24098D03*
X30085Y-24448D03*
X27592Y-24798D03*
X27592Y-24098D03*
X28392Y-24448D03*
X32515Y-20636D03*
X31815Y-20636D03*
X32165Y-19836D03*
G54D14*
X36045Y-22490D03*
X37045Y-22490D03*
X37545Y-22490D03*
X38045Y-22490D03*
X38545Y-22490D03*
X39045Y-22490D03*
X39545Y-22490D03*
X39545Y-24990D03*
X39045Y-24990D03*
X38545Y-24990D03*
X38045Y-24990D03*
X37545Y-24990D03*
X37045Y-24990D03*
X36545Y-24990D03*
X36045Y-24990D03*
X36545Y-22490D03*
G54D15*
X29212Y-25648D03*
X29212Y-26398D03*
X30629Y-25648D03*
X30629Y-26398D03*
X29921Y-25648D03*
X29921Y-26398D03*
X35039Y-21376D03*
X35039Y-22126D03*
X32834Y-21357D03*
X32834Y-22107D03*
X31988Y-22441D03*
X31988Y-21691D03*
G54D11*
X36984Y-26665D03*
G54D12*
X36984Y-27665D03*
X37984Y-26665D03*
X37984Y-27665D03*
X38984Y-26665D03*
X38984Y-27665D03*
X39984Y-26665D03*
X39984Y-27665D03*
G54D11*
X39984Y-19791D03*
G54D12*
X39984Y-18791D03*
X38984Y-19791D03*
X38984Y-18791D03*
X37984Y-19791D03*
X37984Y-18791D03*
X36984Y-19791D03*
X36984Y-18791D03*
G54D11*
X27633Y-19133D03*
G54D12*
X28633Y-19133D03*
X29633Y-19133D03*
X30633Y-19133D03*
G54D11*
X43897Y-18775D03*
G54D12*
X43897Y-19775D03*
X43897Y-20775D03*
X43897Y-21775D03*
G54D11*
X43897Y-25673D03*
G54D12*
X43897Y-26673D03*
X43897Y-27673D03*
G54D11*
X27570Y-27322D03*
G54D12*
X28570Y-27322D03*
G54D11*
X35224Y-19133D03*
G54D12*
X34224Y-19133D03*
G54D11*
X32940Y-19133D03*
G54D12*
X31940Y-19133D03*
G54D11*
X32059Y-27322D03*
G54D12*
X33059Y-27322D03*
G54D11*
X34303Y-27322D03*
G54D12*
X35303Y-27322D03*
G54D16*
X30954Y-21732D03*
X28966Y-21732D03*
G54D17*
X33976Y-20462D03*
X33976Y-22450D03*
G54D16*
X36801Y-21181D03*
X38789Y-21181D03*
G54D18*
X32795Y-23897D03*
G54D11*
X26287Y-18767D03*
G54D12*
X25287Y-18767D03*
X26287Y-19767D03*
X25287Y-19767D03*
X26287Y-20767D03*
X25287Y-20767D03*
X26287Y-21767D03*
X25287Y-21767D03*
X26287Y-22767D03*
X25287Y-22767D03*
X26287Y-23767D03*
X25287Y-23767D03*
X26287Y-24767D03*
X25287Y-24767D03*
X26287Y-25767D03*
X25287Y-25767D03*
X26287Y-26767D03*
X25287Y-26767D03*
X26287Y-27767D03*
X25287Y-27767D03*
G54D11*
X41287Y-27767D03*
G54D12*
X42287Y-27767D03*
X41287Y-26767D03*
X42287Y-26767D03*
X41287Y-25767D03*
X42287Y-25767D03*
X41287Y-24767D03*
X42287Y-24767D03*
X41287Y-23767D03*
X42287Y-23767D03*
X41287Y-22767D03*
X42287Y-22767D03*
X41287Y-21767D03*
X42287Y-21767D03*
X41287Y-20767D03*
X42287Y-20767D03*
X41287Y-19767D03*
X42287Y-19767D03*
X41287Y-18767D03*
X42287Y-18767D03*
M02*
