G04 #@! TF.FileFunction,Soldermask,Bot*
%FSLAX46Y46*%
G04 Gerber Fmt 4.6, Leading zero omitted, Abs format (unit mm)*
G04 Created by KiCad (PCBNEW 4.0.5) date Thu Mar  9 22:32:22 2017*
%MOMM*%
%LPD*%
G01*
G04 APERTURE LIST*
%ADD10C,0.100000*%
%ADD11R,1.300000X0.700000*%
%ADD12R,0.700000X1.300000*%
%ADD13R,0.800000X0.900000*%
%ADD14C,4.064000*%
%ADD15R,0.450000X1.450000*%
%ADD16R,0.650000X1.060000*%
%ADD17R,1.700000X1.700000*%
%ADD18O,1.700000X1.700000*%
%ADD19R,0.900000X0.800000*%
%ADD20C,1.700000*%
%ADD21R,1.800000X1.800000*%
%ADD22C,1.800000*%
%ADD23R,1.250000X1.000000*%
%ADD24R,1.000000X1.250000*%
%ADD25C,0.500000*%
%ADD26R,1.060000X0.650000*%
%ADD27R,1.450000X0.450000*%
%ADD28R,1.524000X1.524000*%
%ADD29C,1.524000*%
%ADD30C,2.700020*%
%ADD31C,2.300000*%
%ADD32R,1.727200X2.032000*%
%ADD33O,1.727200X2.032000*%
%ADD34R,2.032000X2.032000*%
%ADD35O,2.032000X2.032000*%
%ADD36R,2.235200X2.235200*%
%ADD37R,2.032000X1.727200*%
%ADD38O,2.032000X1.727200*%
%ADD39R,0.800100X0.800100*%
%ADD40R,1.000000X0.250000*%
%ADD41R,0.250000X1.000000*%
%ADD42R,0.508000X1.143000*%
%ADD43C,1.501140*%
%ADD44O,0.950000X1.250000*%
%ADD45O,1.550000X1.000000*%
%ADD46R,1.350000X1.350000*%
G04 APERTURE END LIST*
D10*
D11*
X82296000Y-96962000D03*
X82296000Y-95062000D03*
D12*
X79009280Y-93853000D03*
X77109280Y-93853000D03*
D13*
X79613800Y-98142300D03*
X77713800Y-98142300D03*
X78663800Y-96142300D03*
D14*
X63390000Y-103759000D03*
X81390000Y-103759000D03*
D15*
X68576000Y-100783600D03*
X69226000Y-100783600D03*
X69876000Y-100783600D03*
X70526000Y-100783600D03*
X71176000Y-100783600D03*
X71826000Y-100783600D03*
X72476000Y-100783600D03*
X73126000Y-100783600D03*
X73776000Y-100783600D03*
X74426000Y-100783600D03*
X74426000Y-106683600D03*
X73776000Y-106683600D03*
X73126000Y-106683600D03*
X72476000Y-106683600D03*
X71826000Y-106683600D03*
X71176000Y-106683600D03*
X70526000Y-106683600D03*
X69876000Y-106683600D03*
X69226000Y-106683600D03*
X68576000Y-106683600D03*
D16*
X66296500Y-96245500D03*
X67246500Y-96245500D03*
X68196500Y-96245500D03*
X68196500Y-98445500D03*
X66296500Y-98445500D03*
D17*
X77190600Y-106299000D03*
D18*
X77190600Y-103759000D03*
X77190600Y-101219000D03*
D11*
X74891900Y-109374900D03*
X74891900Y-111274900D03*
D19*
X77613000Y-111211400D03*
X77613000Y-109311400D03*
X79613000Y-110261400D03*
D10*
G36*
X79654400Y-114778182D02*
X78452318Y-113576100D01*
X79654400Y-112374018D01*
X80856482Y-113576100D01*
X79654400Y-114778182D01*
X79654400Y-114778182D01*
G37*
G36*
X82423000Y-111971482D02*
X81220918Y-110769400D01*
X82423000Y-109567318D01*
X83625082Y-110769400D01*
X82423000Y-111971482D01*
X82423000Y-111971482D01*
G37*
D17*
X82283300Y-99479100D03*
X82283300Y-107594400D03*
X60909200Y-107200700D03*
X60909200Y-99479100D03*
D10*
G36*
X65430400Y-113199518D02*
X66632482Y-114401600D01*
X65430400Y-115603682D01*
X64228318Y-114401600D01*
X65430400Y-113199518D01*
X65430400Y-113199518D01*
G37*
D20*
X63634349Y-112605549D02*
X63634349Y-112605549D01*
X61838298Y-110809498D02*
X61838298Y-110809498D01*
D17*
X69850000Y-115759000D03*
D18*
X72390000Y-115759000D03*
X74930000Y-115759000D03*
D17*
X69850000Y-91759000D03*
D18*
X72390000Y-91759000D03*
X74930000Y-91759000D03*
D21*
X73660000Y-96545400D03*
D22*
X71120000Y-96545400D03*
D23*
X63665100Y-97697800D03*
X63665100Y-95697800D03*
D24*
X65776600Y-93738700D03*
X67776600Y-93738700D03*
D25*
X104140000Y-61087000D03*
X104140000Y-62357000D03*
X104140000Y-59817000D03*
X104140000Y-64897000D03*
X104140000Y-66167000D03*
X104140000Y-63627000D03*
X100203000Y-63627000D03*
X100203000Y-64897000D03*
X100203000Y-62357000D03*
X100203000Y-59817000D03*
X100203000Y-61087000D03*
X100203000Y-58547000D03*
X85534500Y-67754500D03*
X84264500Y-67754500D03*
X86804500Y-67754500D03*
X81724500Y-67754500D03*
X80454500Y-67754500D03*
X82994500Y-67754500D03*
X81978500Y-71945500D03*
X80708500Y-71945500D03*
X83248500Y-71945500D03*
X85788500Y-71945500D03*
X84518500Y-71945500D03*
X87058500Y-71945500D03*
X71056500Y-84010500D03*
X69786500Y-84010500D03*
X72326500Y-84010500D03*
X74866500Y-84010500D03*
X73596500Y-84010500D03*
X76136500Y-84010500D03*
X39687500Y-88582500D03*
X38417500Y-88582500D03*
X40957500Y-88582500D03*
X35877500Y-88582500D03*
X34607500Y-88582500D03*
X37147500Y-88582500D03*
X38417500Y-83883500D03*
X37147500Y-83883500D03*
X39687500Y-83883500D03*
X34607500Y-83883500D03*
X33337500Y-83883500D03*
X35877500Y-83883500D03*
X69913500Y-88582500D03*
X68643500Y-88582500D03*
X71183500Y-88582500D03*
X73723500Y-88582500D03*
X72453500Y-88582500D03*
X74993500Y-88582500D03*
X45402500Y-71691500D03*
X44132500Y-71691500D03*
X46672500Y-71691500D03*
X41592500Y-71691500D03*
X40322500Y-71691500D03*
X42862500Y-71691500D03*
X85534500Y-55689500D03*
X84264500Y-55689500D03*
X86804500Y-55689500D03*
X81724500Y-55689500D03*
X80454500Y-55689500D03*
X82994500Y-55689500D03*
X41465500Y-67500500D03*
X40195500Y-67500500D03*
X42735500Y-67500500D03*
X45275500Y-67500500D03*
X44005500Y-67500500D03*
X46545500Y-67500500D03*
X85661500Y-51371500D03*
X84391500Y-51371500D03*
X86931500Y-51371500D03*
X81851500Y-51371500D03*
X80581500Y-51371500D03*
X83121500Y-51371500D03*
X41338500Y-51244500D03*
X40068500Y-51244500D03*
X42608500Y-51244500D03*
X45148500Y-51244500D03*
X43878500Y-51244500D03*
X46418500Y-51244500D03*
X45148500Y-55435500D03*
X43878500Y-55435500D03*
X46418500Y-55435500D03*
X41338500Y-55435500D03*
X40068500Y-55435500D03*
X42608500Y-55435500D03*
D24*
X28718000Y-78613000D03*
X30718000Y-78613000D03*
X30718000Y-76581000D03*
X28718000Y-76581000D03*
D17*
X25400000Y-75057000D03*
D18*
X25400000Y-77597000D03*
X25400000Y-80137000D03*
D17*
X56896000Y-75057000D03*
D18*
X56896000Y-77597000D03*
X56896000Y-80137000D03*
D17*
X32004000Y-73787000D03*
D18*
X34544000Y-73787000D03*
X37084000Y-73787000D03*
D17*
X40386000Y-73787000D03*
X42926000Y-73787000D03*
X34036000Y-76835000D03*
D18*
X34036000Y-79375000D03*
X34036000Y-81915000D03*
D26*
X28618000Y-82357000D03*
X28618000Y-81407000D03*
X28618000Y-80457000D03*
X30818000Y-80457000D03*
X30818000Y-82357000D03*
D27*
X37436000Y-82300000D03*
X37436000Y-81650000D03*
X37436000Y-81000000D03*
X37436000Y-80350000D03*
X37436000Y-79700000D03*
X37436000Y-79050000D03*
X37436000Y-78400000D03*
X37436000Y-77750000D03*
X37436000Y-77100000D03*
X37436000Y-76450000D03*
X43336000Y-76450000D03*
X43336000Y-77100000D03*
X43336000Y-77750000D03*
X43336000Y-78400000D03*
X43336000Y-79050000D03*
X43336000Y-79700000D03*
X43336000Y-80350000D03*
X43336000Y-81000000D03*
X43336000Y-81650000D03*
X43336000Y-82300000D03*
X78076000Y-82554000D03*
X78076000Y-81904000D03*
X78076000Y-81254000D03*
X78076000Y-80604000D03*
X78076000Y-79954000D03*
X78076000Y-79304000D03*
X78076000Y-78654000D03*
X78076000Y-78004000D03*
X78076000Y-77354000D03*
X78076000Y-76704000D03*
X83976000Y-76704000D03*
X83976000Y-77354000D03*
X83976000Y-78004000D03*
X83976000Y-78654000D03*
X83976000Y-79304000D03*
X83976000Y-79954000D03*
X83976000Y-80604000D03*
X83976000Y-81254000D03*
X83976000Y-81904000D03*
X83976000Y-82554000D03*
D26*
X69258000Y-82611000D03*
X69258000Y-81661000D03*
X69258000Y-80711000D03*
X71458000Y-80711000D03*
X71458000Y-82611000D03*
D17*
X74676000Y-77089000D03*
D18*
X74676000Y-79629000D03*
X74676000Y-82169000D03*
D17*
X83566000Y-74041000D03*
X81026000Y-74041000D03*
X72644000Y-74041000D03*
D18*
X75184000Y-74041000D03*
X77724000Y-74041000D03*
D17*
X97536000Y-75311000D03*
D18*
X97536000Y-77851000D03*
X97536000Y-80391000D03*
D17*
X66040000Y-75311000D03*
D18*
X66040000Y-77851000D03*
X66040000Y-80391000D03*
D24*
X71358000Y-76835000D03*
X69358000Y-76835000D03*
X69358000Y-78867000D03*
X71358000Y-78867000D03*
D23*
X111125000Y-86344000D03*
X111125000Y-84344000D03*
X109093000Y-84344000D03*
X109093000Y-86344000D03*
D17*
X107569000Y-89662000D03*
D18*
X110109000Y-89662000D03*
X112649000Y-89662000D03*
D17*
X107569000Y-58166000D03*
D18*
X110109000Y-58166000D03*
X112649000Y-58166000D03*
D17*
X106299000Y-83058000D03*
D18*
X106299000Y-80518000D03*
X106299000Y-77978000D03*
D17*
X106299000Y-74676000D03*
X106299000Y-72136000D03*
X109347000Y-81026000D03*
D18*
X111887000Y-81026000D03*
X114427000Y-81026000D03*
D16*
X114869000Y-86444000D03*
X113919000Y-86444000D03*
X112969000Y-86444000D03*
X112969000Y-84244000D03*
X114869000Y-84244000D03*
D15*
X114812000Y-77626000D03*
X114162000Y-77626000D03*
X113512000Y-77626000D03*
X112862000Y-77626000D03*
X112212000Y-77626000D03*
X111562000Y-77626000D03*
X110912000Y-77626000D03*
X110262000Y-77626000D03*
X109612000Y-77626000D03*
X108962000Y-77626000D03*
X108962000Y-71726000D03*
X109612000Y-71726000D03*
X110262000Y-71726000D03*
X110912000Y-71726000D03*
X111562000Y-71726000D03*
X112212000Y-71726000D03*
X112862000Y-71726000D03*
X113512000Y-71726000D03*
X114162000Y-71726000D03*
X114812000Y-71726000D03*
D27*
X78076000Y-66298000D03*
X78076000Y-65648000D03*
X78076000Y-64998000D03*
X78076000Y-64348000D03*
X78076000Y-63698000D03*
X78076000Y-63048000D03*
X78076000Y-62398000D03*
X78076000Y-61748000D03*
X78076000Y-61098000D03*
X78076000Y-60448000D03*
X83976000Y-60448000D03*
X83976000Y-61098000D03*
X83976000Y-61748000D03*
X83976000Y-62398000D03*
X83976000Y-63048000D03*
X83976000Y-63698000D03*
X83976000Y-64348000D03*
X83976000Y-64998000D03*
X83976000Y-65648000D03*
X83976000Y-66298000D03*
D26*
X69258000Y-66355000D03*
X69258000Y-65405000D03*
X69258000Y-64455000D03*
X71458000Y-64455000D03*
X71458000Y-66355000D03*
D17*
X74676000Y-60833000D03*
D18*
X74676000Y-63373000D03*
X74676000Y-65913000D03*
D17*
X83566000Y-57785000D03*
X81026000Y-57785000D03*
X72644000Y-57785000D03*
D18*
X75184000Y-57785000D03*
X77724000Y-57785000D03*
D17*
X97536000Y-59055000D03*
D18*
X97536000Y-61595000D03*
X97536000Y-64135000D03*
D17*
X66040000Y-59055000D03*
D18*
X66040000Y-61595000D03*
X66040000Y-64135000D03*
D24*
X71358000Y-60579000D03*
X69358000Y-60579000D03*
X69358000Y-62611000D03*
X71358000Y-62611000D03*
D28*
X71628000Y-28575000D03*
D29*
X74168000Y-28575000D03*
X71628000Y-31115000D03*
X74168000Y-31115000D03*
X71628000Y-33655000D03*
X74168000Y-33655000D03*
X71628000Y-36195000D03*
X74168000Y-36195000D03*
X103378000Y-36195000D03*
X103378000Y-33655000D03*
X105376980Y-33655000D03*
X105376980Y-36195000D03*
D30*
X108077000Y-40924480D03*
X108077000Y-28925520D03*
D31*
X45123100Y-42615000D03*
X52819300Y-42615000D03*
D24*
X62150500Y-27432000D03*
X60150500Y-27432000D03*
X50530000Y-41211500D03*
X48530000Y-41211500D03*
X48752000Y-30861000D03*
X46752000Y-30861000D03*
D23*
X68072000Y-35576000D03*
X68072000Y-37576000D03*
X68072000Y-41386000D03*
X68072000Y-39386000D03*
X62420500Y-43227500D03*
X62420500Y-41227500D03*
D24*
X43551600Y-26289000D03*
X45551600Y-26289000D03*
D23*
X101727000Y-44720000D03*
X101727000Y-46720000D03*
D24*
X75676000Y-40068500D03*
X73676000Y-40068500D03*
X85632800Y-31318200D03*
X83632800Y-31318200D03*
X80026000Y-31318200D03*
X82026000Y-31318200D03*
D32*
X67691000Y-23495000D03*
D33*
X65151000Y-23495000D03*
X62611000Y-23495000D03*
X60071000Y-23495000D03*
D32*
X101727000Y-49149000D03*
D33*
X104267000Y-49149000D03*
X106807000Y-49149000D03*
D32*
X62230000Y-45847000D03*
D33*
X64770000Y-45847000D03*
X67310000Y-45847000D03*
X69850000Y-45847000D03*
D34*
X36703000Y-43497500D03*
D35*
X39243000Y-43497500D03*
D36*
X65786000Y-49149000D03*
X69469000Y-49149000D03*
D32*
X77978000Y-23495000D03*
D33*
X80518000Y-23495000D03*
X83058000Y-23495000D03*
X85598000Y-23495000D03*
X88138000Y-23495000D03*
X90678000Y-23495000D03*
X93218000Y-23495000D03*
X95758000Y-23495000D03*
D34*
X80454500Y-49149000D03*
D35*
X82994500Y-49149000D03*
D34*
X86677500Y-49149000D03*
D35*
X89217500Y-49149000D03*
D37*
X36703000Y-40005000D03*
D38*
X36703000Y-37465000D03*
X36703000Y-34925000D03*
X36703000Y-32385000D03*
D32*
X46228000Y-23495000D03*
D33*
X48768000Y-23495000D03*
X51308000Y-23495000D03*
X53848000Y-23495000D03*
D36*
X76835000Y-49149000D03*
X73152000Y-49149000D03*
D34*
X62103000Y-49149000D03*
D35*
X59563000Y-49149000D03*
D39*
X108473240Y-45781000D03*
X108473240Y-43881000D03*
X110472220Y-44831000D03*
X57216000Y-44973240D03*
X59116000Y-44973240D03*
X58166000Y-46972220D03*
X53914000Y-44973240D03*
X55814000Y-44973240D03*
X54864000Y-46972220D03*
X80375760Y-44706500D03*
X80375760Y-46606500D03*
X78376780Y-45656500D03*
X50612000Y-44973240D03*
X52512000Y-44973240D03*
X51562000Y-46972220D03*
X74533760Y-44706500D03*
X74533760Y-46606500D03*
X72534780Y-45656500D03*
X47310000Y-44973240D03*
X49210000Y-44973240D03*
X48260000Y-46972220D03*
D11*
X101473000Y-38674000D03*
X101473000Y-40574000D03*
X64135000Y-37658000D03*
X64135000Y-39558000D03*
D12*
X81976000Y-29133800D03*
X80076000Y-29133800D03*
D11*
X77673200Y-33639800D03*
X77673200Y-31739800D03*
D12*
X58232000Y-43307000D03*
X60132000Y-43307000D03*
D11*
X56324500Y-50162500D03*
X56324500Y-48262500D03*
D12*
X55184000Y-43307000D03*
X57084000Y-43307000D03*
D11*
X53149500Y-50162500D03*
X53149500Y-48262500D03*
X82232500Y-44706500D03*
X82232500Y-46606500D03*
D12*
X50607000Y-43307000D03*
X48707000Y-43307000D03*
D11*
X49974500Y-50162500D03*
X49974500Y-48262500D03*
X76390500Y-44706500D03*
X76390500Y-46606500D03*
X45339000Y-45024000D03*
X45339000Y-46924000D03*
X46799500Y-50162500D03*
X46799500Y-48262500D03*
D40*
X61834000Y-31175000D03*
X61834000Y-31675000D03*
X61834000Y-32175000D03*
X61834000Y-32675000D03*
X61834000Y-33175000D03*
X61834000Y-33675000D03*
X61834000Y-34175000D03*
X61834000Y-34675000D03*
X61834000Y-35175000D03*
X61834000Y-35675000D03*
X61834000Y-36175000D03*
X61834000Y-36675000D03*
X61834000Y-37175000D03*
X61834000Y-37675000D03*
X61834000Y-38175000D03*
X61834000Y-38675000D03*
D41*
X59884000Y-40625000D03*
X59384000Y-40625000D03*
X58884000Y-40625000D03*
X58384000Y-40625000D03*
X57884000Y-40625000D03*
X57384000Y-40625000D03*
X56884000Y-40625000D03*
X56384000Y-40625000D03*
X55884000Y-40625000D03*
X55384000Y-40625000D03*
X54884000Y-40625000D03*
X54384000Y-40625000D03*
X53884000Y-40625000D03*
X53384000Y-40625000D03*
X52884000Y-40625000D03*
X52384000Y-40625000D03*
D40*
X50434000Y-38675000D03*
X50434000Y-38175000D03*
X50434000Y-37675000D03*
X50434000Y-37175000D03*
X50434000Y-36675000D03*
X50434000Y-36175000D03*
X50434000Y-35675000D03*
X50434000Y-35175000D03*
X50434000Y-34675000D03*
X50434000Y-34175000D03*
X50434000Y-33675000D03*
X50434000Y-33175000D03*
X50434000Y-32675000D03*
X50434000Y-32175000D03*
X50434000Y-31675000D03*
X50434000Y-31175000D03*
D41*
X52384000Y-29225000D03*
X52884000Y-29225000D03*
X53384000Y-29225000D03*
X53884000Y-29225000D03*
X54384000Y-29225000D03*
X54884000Y-29225000D03*
X55384000Y-29225000D03*
X55884000Y-29225000D03*
X56384000Y-29225000D03*
X56884000Y-29225000D03*
X57384000Y-29225000D03*
X57884000Y-29225000D03*
X58384000Y-29225000D03*
X58884000Y-29225000D03*
X59384000Y-29225000D03*
X59884000Y-29225000D03*
D16*
X109286000Y-33825000D03*
X110236000Y-33825000D03*
X111186000Y-33825000D03*
X111186000Y-36025000D03*
X109286000Y-36025000D03*
X110236000Y-36025000D03*
X105217000Y-40724000D03*
X104267000Y-40724000D03*
X103317000Y-40724000D03*
X103317000Y-38524000D03*
X105217000Y-38524000D03*
D26*
X106637000Y-43881000D03*
X106637000Y-44831000D03*
X106637000Y-45781000D03*
X104437000Y-45781000D03*
X104437000Y-43881000D03*
D42*
X86995000Y-35306000D03*
X84455000Y-35306000D03*
X83185000Y-35306000D03*
X81915000Y-35306000D03*
X80645000Y-35306000D03*
X79375000Y-35306000D03*
X78105000Y-35306000D03*
X78105000Y-41656000D03*
X79375000Y-41656000D03*
X80645000Y-41656000D03*
X81915000Y-41656000D03*
X83185000Y-41656000D03*
X84455000Y-41656000D03*
X85725000Y-41656000D03*
X86995000Y-41656000D03*
X85725000Y-35306000D03*
D43*
X66040000Y-40667940D03*
X66040000Y-35786060D03*
D44*
X108165460Y-37425900D03*
X108165460Y-32425900D03*
D45*
X110865460Y-38425900D03*
X110865460Y-31425900D03*
D32*
X92964000Y-49149000D03*
D33*
X95504000Y-49149000D03*
X98044000Y-49149000D03*
D14*
X108528000Y-23749000D03*
X38533000Y-23955000D03*
X38533000Y-47955000D03*
D24*
X80026000Y-33401000D03*
X82026000Y-33401000D03*
D46*
X36728400Y-29133800D03*
D11*
X41605200Y-35875000D03*
X41605200Y-33975000D03*
X39420800Y-36840200D03*
X39420800Y-34940200D03*
D14*
X26533000Y-23955000D03*
X26533000Y-47955000D03*
D25*
X34798000Y-21463000D03*
X34798000Y-20193000D03*
X34798000Y-22733000D03*
X34798000Y-25273000D03*
X34798000Y-24003000D03*
X34798000Y-26543000D03*
X34798000Y-46609000D03*
X34798000Y-45339000D03*
X34798000Y-47879000D03*
X34798000Y-50419000D03*
X34798000Y-49149000D03*
X34798000Y-51689000D03*
D24*
X28718000Y-62357000D03*
X30718000Y-62357000D03*
X30718000Y-60325000D03*
X28718000Y-60325000D03*
D17*
X25400000Y-58801000D03*
D18*
X25400000Y-61341000D03*
X25400000Y-63881000D03*
D17*
X56896000Y-58801000D03*
D18*
X56896000Y-61341000D03*
X56896000Y-63881000D03*
D17*
X32004000Y-57531000D03*
D18*
X34544000Y-57531000D03*
X37084000Y-57531000D03*
D17*
X40386000Y-57531000D03*
X42926000Y-57531000D03*
X34036000Y-60579000D03*
D18*
X34036000Y-63119000D03*
X34036000Y-65659000D03*
D26*
X28618000Y-66101000D03*
X28618000Y-65151000D03*
X28618000Y-64201000D03*
X30818000Y-64201000D03*
X30818000Y-66101000D03*
D27*
X37436000Y-66044000D03*
X37436000Y-65394000D03*
X37436000Y-64744000D03*
X37436000Y-64094000D03*
X37436000Y-63444000D03*
X37436000Y-62794000D03*
X37436000Y-62144000D03*
X37436000Y-61494000D03*
X37436000Y-60844000D03*
X37436000Y-60194000D03*
X43336000Y-60194000D03*
X43336000Y-60844000D03*
X43336000Y-61494000D03*
X43336000Y-62144000D03*
X43336000Y-62794000D03*
X43336000Y-63444000D03*
X43336000Y-64094000D03*
X43336000Y-64744000D03*
X43336000Y-65394000D03*
X43336000Y-66044000D03*
D24*
X30597600Y-93738700D03*
X32597600Y-93738700D03*
D23*
X28486100Y-97697800D03*
X28486100Y-95697800D03*
D21*
X38481000Y-96545400D03*
D22*
X35941000Y-96545400D03*
D17*
X34671000Y-91759000D03*
D18*
X37211000Y-91759000D03*
X39751000Y-91759000D03*
D17*
X34671000Y-115759000D03*
D18*
X37211000Y-115759000D03*
X39751000Y-115759000D03*
D10*
G36*
X30251400Y-113199518D02*
X31453482Y-114401600D01*
X30251400Y-115603682D01*
X29049318Y-114401600D01*
X30251400Y-113199518D01*
X30251400Y-113199518D01*
G37*
D20*
X28455349Y-112605549D02*
X28455349Y-112605549D01*
X26659298Y-110809498D02*
X26659298Y-110809498D01*
D17*
X25730200Y-99479100D03*
X25730200Y-107200700D03*
X47104300Y-107594400D03*
X47104300Y-99479100D03*
D10*
G36*
X47244000Y-111971482D02*
X46041918Y-110769400D01*
X47244000Y-109567318D01*
X48446082Y-110769400D01*
X47244000Y-111971482D01*
X47244000Y-111971482D01*
G37*
G36*
X44475400Y-114778182D02*
X43273318Y-113576100D01*
X44475400Y-112374018D01*
X45677482Y-113576100D01*
X44475400Y-114778182D01*
X44475400Y-114778182D01*
G37*
D19*
X42434000Y-111211400D03*
X42434000Y-109311400D03*
X44434000Y-110261400D03*
D11*
X39712900Y-109374900D03*
X39712900Y-111274900D03*
D17*
X42011600Y-106299000D03*
D18*
X42011600Y-103759000D03*
X42011600Y-101219000D03*
D16*
X31117500Y-96245500D03*
X32067500Y-96245500D03*
X33017500Y-96245500D03*
X33017500Y-98445500D03*
X31117500Y-98445500D03*
D15*
X33397000Y-100783600D03*
X34047000Y-100783600D03*
X34697000Y-100783600D03*
X35347000Y-100783600D03*
X35997000Y-100783600D03*
X36647000Y-100783600D03*
X37297000Y-100783600D03*
X37947000Y-100783600D03*
X38597000Y-100783600D03*
X39247000Y-100783600D03*
X39247000Y-106683600D03*
X38597000Y-106683600D03*
X37947000Y-106683600D03*
X37297000Y-106683600D03*
X36647000Y-106683600D03*
X35997000Y-106683600D03*
X35347000Y-106683600D03*
X34697000Y-106683600D03*
X34047000Y-106683600D03*
X33397000Y-106683600D03*
D14*
X46211000Y-103759000D03*
X28211000Y-103759000D03*
D13*
X44434800Y-98142300D03*
X42534800Y-98142300D03*
X43484800Y-96142300D03*
D12*
X43830280Y-93853000D03*
X41930280Y-93853000D03*
D11*
X47117000Y-96962000D03*
X47117000Y-95062000D03*
M02*
