M48
;DRILL file {KiCad 4.0.5} date Thu Mar  9 22:32:25 2017
;FORMAT={-:-/ absolute / metric / decimal}
FMAT,2
METRIC,TZ
T1C0.400
T2C0.500
T3C0.550
T4C0.762
T5C0.800
T6C0.800
T7C0.813
T8C0.900
T9C1.000
T10C1.016
T11C2.000
T12C2.301
T13C3.048
T14C0.500
%
G90
G05
M71
T1
X24.638Y-66.167
X24.638Y-82.423
X27.178Y-66.167
X27.178Y-82.423
X28.232Y-108.153
X28.702Y-58.801
X28.702Y-75.057
X29.019Y-109.652
X31.1Y-99.771
X31.128Y-109.677
X31.242Y-111.62
X31.491Y-101.752
X31.491Y-103.566
X32.004Y-64.135
X32.004Y-80.391
X32.228Y-92.131
X34.498Y-102.042
X35.052Y-59.055
X35.052Y-75.311
X35.065Y-104.648
X35.509Y-102.032
X35.814Y-61.595
X35.814Y-77.851
X35.916Y-102.73
X35.979Y-108.026
X36.081Y-108.991
X36.081Y-110.414
X36.157Y-103.543
X36.543Y-98.816
X36.83Y-104.643
X37.297Y-99.162
X37.871Y-102.276
X38.811Y-102.387
X38.862Y-61.341
X38.862Y-63.373
X38.862Y-77.597
X38.862Y-79.629
X39.594Y-99.228
X40.081Y-102.362
X40.081Y-104.115
X40.386Y-63.881
X40.386Y-65.913
X40.386Y-80.137
X40.386Y-82.169
X41.491Y-108.28
X41.656Y-63.373
X41.656Y-79.629
X41.783Y-44.196
X41.846Y-37.02
X42.608Y-49.784
X42.735Y-99.568
X42.824Y-34.011
X43.18Y-36.652
X43.485Y-32.69
X44.196Y-34.722
X44.514Y-38.925
X44.958Y-100.33
X45.085Y-36.83
X45.339Y-35.369
X45.72Y-61.341
X45.72Y-63.373
X45.72Y-65.405
X45.72Y-77.597
X45.72Y-79.629
X45.72Y-81.661
X45.974Y-66.675
X45.974Y-82.931
X46.101Y-34.925
X46.99Y-26.226
X47.18Y-33.337
X47.498Y-29.083
X47.65Y-38.532
X47.752Y-35.687
X48.197Y-45.021
X48.26Y-57.531
X48.26Y-73.787
X48.768Y-36.767
X48.959Y-26.226
X49.53Y-41.148
X50.8Y-59.309
X50.8Y-75.565
X51.054Y-26.226
X51.054Y-62.611
X51.054Y-65.659
X51.054Y-78.867
X51.054Y-81.915
X52.07Y-35.877
X52.197Y-22.034
X53.34Y-28.067
X53.34Y-30.48
X53.848Y-58.293
X53.848Y-74.549
X54.229Y-32.639
X54.356Y-41.783
X54.737Y-31.115
X55.372Y-33.972
X55.435Y-34.734
X55.435Y-35.496
X55.499Y-30.29
X56.261Y-30.607
X56.706Y-35.433
X56.998Y-38.887
X57.087Y-38.036
X57.15Y-66.421
X57.15Y-82.677
X57.277Y-30.988
X57.531Y-31.75
X57.658Y-35.369
X57.785Y-36.576
X57.785Y-38.672
X57.912Y-34.48
X58.356Y-27.94
X59.499Y-34.544
X59.563Y-35.306
X59.627Y-36.068
X59.944Y-36.767
X60.261Y-33.909
X60.325Y-37.465
X60.706Y-38.291
X60.77Y-36.83
X61.468Y-40.069
X62.674Y-29.527
X63.055Y-36.449
X63.246Y-27.877
X63.411Y-108.153
X63.5Y-40.576
X64.072Y-26.86
X64.198Y-36.068
X64.198Y-109.652
X64.453Y-36.83
X64.706Y-27.368
X64.834Y-40.576
X65.024Y-42.862
X65.278Y-30.353
X65.278Y-66.421
X65.278Y-82.677
X65.341Y-38.672
X65.913Y-32.004
X65.977Y-31.178
X66.23Y-32.766
X66.279Y-99.771
X66.307Y-109.677
X66.421Y-111.62
X66.67Y-101.752
X66.67Y-103.566
X66.929Y-33.147
X66.992Y-34.925
X67.056Y-42.862
X67.407Y-92.131
X67.818Y-66.421
X67.818Y-82.677
X67.97Y-31.166
X69.342Y-59.055
X69.342Y-75.311
X69.532Y-29.21
X69.677Y-102.042
X70.244Y-104.648
X70.485Y-37.274
X70.688Y-102.032
X71.095Y-102.73
X71.12Y-41.338
X71.158Y-108.026
X71.26Y-108.991
X71.26Y-110.414
X71.336Y-103.543
X71.691Y-39.306
X71.722Y-98.816
X72.009Y-104.643
X72.476Y-99.162
X72.644Y-64.389
X72.644Y-80.645
X72.962Y-37.274
X73.05Y-102.276
X73.99Y-102.387
X74.773Y-99.228
X74.867Y-41.465
X75.26Y-102.362
X75.26Y-104.115
X75.438Y-24.257
X75.692Y-22.415
X75.692Y-59.309
X75.692Y-75.565
X76.01Y-33.02
X76.048Y-29.489
X76.391Y-43.497
X76.454Y-61.849
X76.454Y-78.105
X76.67Y-108.28
X76.835Y-36.258
X77.914Y-99.568
X78.74Y-30.67
X79.502Y-61.595
X79.502Y-63.627
X79.502Y-77.851
X79.502Y-79.883
X80.137Y-100.33
X80.645Y-37.02
X80.709Y-43.37
X81.026Y-64.135
X81.026Y-66.167
X81.026Y-80.391
X81.026Y-82.423
X82.296Y-63.627
X82.296Y-79.883
X83.185Y-42.862
X83.617Y-33.553
X85.09Y-29.489
X85.534Y-45.402
X85.649Y-33.553
X86.169Y-37.529
X86.169Y-39.624
X86.36Y-61.595
X86.36Y-63.627
X86.36Y-65.659
X86.36Y-77.851
X86.36Y-79.883
X86.36Y-81.915
X86.614Y-66.929
X86.614Y-83.185
X86.741Y-46.609
X86.804Y-24.955
X87.376Y-27.749
X88.189Y-38.379
X88.582Y-42.1
X88.9Y-57.785
X88.9Y-74.041
X91.44Y-59.563
X91.44Y-75.819
X91.694Y-62.865
X91.694Y-65.913
X91.694Y-79.121
X91.694Y-82.169
X94.234Y-45.148
X94.488Y-58.547
X94.488Y-74.803
X96.012Y-44.386
X97.79Y-66.675
X97.79Y-82.931
X99.06Y-25.781
X100.139Y-46.418
X101.473Y-42.481
X102.616Y-37.465
X103.251Y-24.955
X103.314Y-30.797
X104.521Y-41.783
X105.156Y-22.543
X105.537Y-42.164
X105.918Y-26.797
X106.299Y-66.802
X106.553Y-37.973
X107.061Y-61.214
X107.569Y-86.36
X107.823Y-80.01
X108.013Y-47.498
X108.077Y-64.262
X108.458Y-46.672
X109.156Y-32.766
X110.109Y-69.342
X110.109Y-76.2
X110.236Y-37.084
X110.363Y-79.248
X111.125Y-34.925
X111.252Y-27.813
X111.316Y-32.639
X111.379Y-64.008
X112.141Y-69.342
X112.141Y-73.406
X112.141Y-76.2
X112.649Y-74.676
X112.903Y-83.058
X114.173Y-69.342
X114.427Y-64.008
X114.681Y-74.676
X114.935Y-87.884
X114.935Y-90.424
X115.189Y-57.912
X115.443Y-69.088
T4
X71.628Y-28.575
X71.628Y-31.115
X71.628Y-33.655
X71.628Y-36.195
X74.168Y-28.575
X74.168Y-31.115
X74.168Y-33.655
X74.168Y-36.195
T5
X36.728Y-29.134
T6
X66.04Y-35.786
X66.04Y-40.668
T7
X103.378Y-33.655
X103.378Y-36.195
X105.377Y-33.655
X105.377Y-36.195
T8
X35.941Y-96.545
X38.481Y-96.545
X71.12Y-96.545
X73.66Y-96.545
T9
X25.4Y-58.801
X25.4Y-61.341
X25.4Y-63.881
X25.4Y-75.057
X25.4Y-77.597
X25.4Y-80.137
X25.73Y-99.479
X25.73Y-107.201
X26.659Y-110.809
X28.455Y-112.606
X30.251Y-114.402
X32.004Y-57.531
X32.004Y-73.787
X34.036Y-60.579
X34.036Y-63.119
X34.036Y-65.659
X34.036Y-76.835
X34.036Y-79.375
X34.036Y-81.915
X34.544Y-57.531
X34.544Y-73.787
X34.671Y-91.759
X34.671Y-115.759
X37.084Y-57.531
X37.084Y-73.787
X37.211Y-91.759
X37.211Y-115.759
X39.751Y-91.759
X39.751Y-115.759
X40.386Y-57.531
X40.386Y-73.787
X42.012Y-101.219
X42.012Y-103.759
X42.012Y-106.299
X42.926Y-57.531
X42.926Y-73.787
X44.475Y-113.576
X47.104Y-99.479
X47.104Y-107.594
X47.244Y-110.769
X56.896Y-58.801
X56.896Y-61.341
X56.896Y-63.881
X56.896Y-75.057
X56.896Y-77.597
X56.896Y-80.137
X60.909Y-99.479
X60.909Y-107.201
X61.838Y-110.809
X63.634Y-112.606
X65.43Y-114.402
X66.04Y-59.055
X66.04Y-61.595
X66.04Y-64.135
X66.04Y-75.311
X66.04Y-77.851
X66.04Y-80.391
X69.85Y-91.759
X69.85Y-115.759
X72.39Y-91.759
X72.39Y-115.759
X72.644Y-57.785
X72.644Y-74.041
X74.676Y-60.833
X74.676Y-63.373
X74.676Y-65.913
X74.676Y-77.089
X74.676Y-79.629
X74.676Y-82.169
X74.93Y-91.759
X74.93Y-115.759
X75.184Y-57.785
X75.184Y-74.041
X77.191Y-101.219
X77.191Y-103.759
X77.191Y-106.299
X77.724Y-57.785
X77.724Y-74.041
X79.654Y-113.576
X81.026Y-57.785
X81.026Y-74.041
X82.283Y-99.479
X82.283Y-107.594
X82.423Y-110.769
X83.566Y-57.785
X83.566Y-74.041
X97.536Y-59.055
X97.536Y-61.595
X97.536Y-64.135
X97.536Y-75.311
X97.536Y-77.851
X97.536Y-80.391
X106.299Y-72.136
X106.299Y-74.676
X106.299Y-77.978
X106.299Y-80.518
X106.299Y-83.058
X107.569Y-58.166
X107.569Y-89.662
X109.347Y-81.026
X110.109Y-58.166
X110.109Y-89.662
X111.887Y-81.026
X112.649Y-58.166
X112.649Y-89.662
X114.427Y-81.026
T10
X36.703Y-32.385
X36.703Y-34.925
X36.703Y-37.465
X36.703Y-40.005
X36.703Y-43.497
X39.243Y-43.497
X46.228Y-23.495
X48.768Y-23.495
X51.308Y-23.495
X53.848Y-23.495
X59.563Y-49.149
X60.071Y-23.495
X62.103Y-49.149
X62.23Y-45.847
X62.611Y-23.495
X64.77Y-45.847
X65.151Y-23.495
X65.786Y-49.149
X67.31Y-45.847
X67.691Y-23.495
X69.469Y-49.149
X69.85Y-45.847
X73.152Y-49.149
X76.835Y-49.149
X77.978Y-23.495
X80.454Y-49.149
X80.518Y-23.495
X82.995Y-49.149
X83.058Y-23.495
X85.598Y-23.495
X86.677Y-49.149
X88.138Y-23.495
X89.218Y-49.149
X90.678Y-23.495
X92.964Y-49.149
X93.218Y-23.495
X95.504Y-49.149
X95.758Y-23.495
X98.044Y-49.149
X101.727Y-49.149
X104.267Y-49.149
X106.807Y-49.149
T12
X108.077Y-28.926
X108.077Y-40.924
T13
X26.533Y-23.955
X26.533Y-47.955
X28.211Y-103.759
X38.533Y-23.955
X38.533Y-47.955
X46.211Y-103.759
X63.39Y-103.759
X81.39Y-103.759
X108.528Y-23.749
T14
X33.337Y-83.883
X34.608Y-83.883
X34.608Y-88.582
X34.798Y-20.193
X34.798Y-21.463
X34.798Y-22.733
X34.798Y-24.003
X34.798Y-25.273
X34.798Y-26.543
X34.798Y-45.339
X34.798Y-46.609
X34.798Y-47.879
X34.798Y-49.149
X34.798Y-50.419
X34.798Y-51.689
X35.877Y-83.883
X35.877Y-88.582
X37.148Y-83.883
X37.148Y-88.582
X38.417Y-83.883
X38.417Y-88.582
X39.688Y-83.883
X39.688Y-88.582
X40.069Y-51.244
X40.069Y-55.435
X40.195Y-67.501
X40.322Y-71.691
X40.957Y-88.582
X41.338Y-51.244
X41.338Y-55.435
X41.465Y-67.501
X41.593Y-71.691
X42.608Y-51.244
X42.608Y-55.435
X42.735Y-67.501
X42.862Y-71.691
X43.878Y-51.244
X43.878Y-55.435
X44.005Y-67.501
X44.133Y-71.691
X45.148Y-51.244
X45.148Y-55.435
X45.276Y-67.501
X45.402Y-71.691
X46.418Y-51.244
X46.418Y-55.435
X46.545Y-67.501
X46.672Y-71.691
X68.644Y-88.582
X69.787Y-84.01
X69.913Y-88.582
X71.056Y-84.01
X71.183Y-88.582
X72.326Y-84.01
X72.453Y-88.582
X73.596Y-84.01
X73.724Y-88.582
X74.867Y-84.01
X74.993Y-88.582
X76.136Y-84.01
X80.454Y-55.689
X80.454Y-67.754
X80.581Y-51.371
X80.709Y-71.945
X81.724Y-55.689
X81.724Y-67.754
X81.852Y-51.371
X81.978Y-71.945
X82.995Y-55.689
X82.995Y-67.754
X83.121Y-51.371
X83.248Y-71.945
X84.264Y-55.689
X84.264Y-67.754
X84.391Y-51.371
X84.519Y-71.945
X85.534Y-55.689
X85.534Y-67.754
X85.661Y-51.371
X85.788Y-71.945
X86.804Y-55.689
X86.804Y-67.754
X86.931Y-51.371
X87.058Y-71.945
X100.203Y-58.547
X100.203Y-59.817
X100.203Y-61.087
X100.203Y-62.357
X100.203Y-63.627
X100.203Y-64.897
X104.14Y-59.817
X104.14Y-61.087
X104.14Y-62.357
X104.14Y-63.627
X104.14Y-64.897
X104.14Y-66.167
T2
X111.19Y-31.426G85X110.54Y-31.426
G05
X111.19Y-38.426G85X110.54Y-38.426
G05
T3
X108.165Y-32.576G85X108.165Y-32.276
G05
X108.165Y-37.576G85X108.165Y-37.276
G05
T11
X45.123Y-42.615G85X45.123Y-42.615
G05
X52.819Y-42.615G85X52.819Y-42.615
G05
T0
M30
