G04 #@! TF.FileFunction,Legend,Bot*
%FSLAX46Y46*%
G04 Gerber Fmt 4.6, Leading zero omitted, Abs format (unit mm)*
G04 Created by KiCad (PCBNEW 4.0.5) date Wed Mar  8 12:44:23 2017*
%MOMM*%
%LPD*%
G01*
G04 APERTURE LIST*
%ADD10C,0.100000*%
%ADD11C,0.200000*%
%ADD12C,0.300000*%
%ADD13C,0.120000*%
%ADD14C,0.150000*%
G04 APERTURE END LIST*
D10*
D11*
X73146634Y-108990662D02*
X73003777Y-109038281D01*
X72765681Y-109038281D01*
X72670443Y-108990662D01*
X72622824Y-108943043D01*
X72575205Y-108847805D01*
X72575205Y-108752567D01*
X72622824Y-108657329D01*
X72670443Y-108609710D01*
X72765681Y-108562090D01*
X72956158Y-108514471D01*
X73051396Y-108466852D01*
X73099015Y-108419233D01*
X73146634Y-108323995D01*
X73146634Y-108228757D01*
X73099015Y-108133519D01*
X73051396Y-108085900D01*
X72956158Y-108038281D01*
X72718062Y-108038281D01*
X72575205Y-108085900D01*
X72146634Y-109038281D02*
X72146634Y-108371614D01*
X72146634Y-108466852D02*
X72099015Y-108419233D01*
X72003777Y-108371614D01*
X71860919Y-108371614D01*
X71765681Y-108419233D01*
X71718062Y-108514471D01*
X71718062Y-109038281D01*
X71718062Y-108514471D02*
X71670443Y-108419233D01*
X71575205Y-108371614D01*
X71432348Y-108371614D01*
X71337110Y-108419233D01*
X71289491Y-108514471D01*
X71289491Y-109038281D01*
X70384729Y-109038281D02*
X70384729Y-108514471D01*
X70432348Y-108419233D01*
X70527586Y-108371614D01*
X70718063Y-108371614D01*
X70813301Y-108419233D01*
X70384729Y-108990662D02*
X70479967Y-109038281D01*
X70718063Y-109038281D01*
X70813301Y-108990662D01*
X70860920Y-108895424D01*
X70860920Y-108800186D01*
X70813301Y-108704948D01*
X70718063Y-108657329D01*
X70479967Y-108657329D01*
X70384729Y-108609710D01*
X69908539Y-109038281D02*
X69908539Y-108371614D01*
X69908539Y-108562090D02*
X69860920Y-108466852D01*
X69813301Y-108419233D01*
X69718063Y-108371614D01*
X69622824Y-108371614D01*
X69432348Y-108371614D02*
X69051396Y-108371614D01*
X69289491Y-108038281D02*
X69289491Y-108895424D01*
X69241872Y-108990662D01*
X69146634Y-109038281D01*
X69051396Y-109038281D01*
X68003776Y-108990662D02*
X67908538Y-109038281D01*
X67718062Y-109038281D01*
X67622823Y-108990662D01*
X67575204Y-108895424D01*
X67575204Y-108847805D01*
X67622823Y-108752567D01*
X67718062Y-108704948D01*
X67860919Y-108704948D01*
X67956157Y-108657329D01*
X68003776Y-108562090D01*
X68003776Y-108514471D01*
X67956157Y-108419233D01*
X67860919Y-108371614D01*
X67718062Y-108371614D01*
X67622823Y-108419233D01*
X66765680Y-108990662D02*
X66860918Y-109038281D01*
X67051395Y-109038281D01*
X67146633Y-108990662D01*
X67194252Y-108895424D01*
X67194252Y-108514471D01*
X67146633Y-108419233D01*
X67051395Y-108371614D01*
X66860918Y-108371614D01*
X66765680Y-108419233D01*
X66718061Y-108514471D01*
X66718061Y-108609710D01*
X67194252Y-108704948D01*
X66289490Y-108371614D02*
X66289490Y-109038281D01*
X66289490Y-108466852D02*
X66241871Y-108419233D01*
X66146633Y-108371614D01*
X66003775Y-108371614D01*
X65908537Y-108419233D01*
X65860918Y-108514471D01*
X65860918Y-109038281D01*
X65432347Y-108990662D02*
X65337109Y-109038281D01*
X65146633Y-109038281D01*
X65051394Y-108990662D01*
X65003775Y-108895424D01*
X65003775Y-108847805D01*
X65051394Y-108752567D01*
X65146633Y-108704948D01*
X65289490Y-108704948D01*
X65384728Y-108657329D01*
X65432347Y-108562090D01*
X65432347Y-108514471D01*
X65384728Y-108419233D01*
X65289490Y-108371614D01*
X65146633Y-108371614D01*
X65051394Y-108419233D01*
X64432347Y-109038281D02*
X64527585Y-108990662D01*
X64575204Y-108943043D01*
X64622823Y-108847805D01*
X64622823Y-108562090D01*
X64575204Y-108466852D01*
X64527585Y-108419233D01*
X64432347Y-108371614D01*
X64289489Y-108371614D01*
X64194251Y-108419233D01*
X64146632Y-108466852D01*
X64099013Y-108562090D01*
X64099013Y-108847805D01*
X64146632Y-108943043D01*
X64194251Y-108990662D01*
X64289489Y-109038281D01*
X64432347Y-109038281D01*
X63670442Y-109038281D02*
X63670442Y-108371614D01*
X63670442Y-108562090D02*
X63622823Y-108466852D01*
X63575204Y-108419233D01*
X63479966Y-108371614D01*
X63384727Y-108371614D01*
X71884729Y-110738281D02*
X71884729Y-110071614D01*
X71884729Y-110262090D02*
X71837110Y-110166852D01*
X71789491Y-110119233D01*
X71694253Y-110071614D01*
X71599014Y-110071614D01*
X70884728Y-110690662D02*
X70979966Y-110738281D01*
X71170443Y-110738281D01*
X71265681Y-110690662D01*
X71313300Y-110595424D01*
X71313300Y-110214471D01*
X71265681Y-110119233D01*
X71170443Y-110071614D01*
X70979966Y-110071614D01*
X70884728Y-110119233D01*
X70837109Y-110214471D01*
X70837109Y-110309710D01*
X71313300Y-110404948D01*
X70503776Y-110071614D02*
X70265681Y-110738281D01*
X70027585Y-110071614D01*
X69646633Y-110643043D02*
X69599014Y-110690662D01*
X69646633Y-110738281D01*
X69694252Y-110690662D01*
X69646633Y-110643043D01*
X69646633Y-110738281D01*
X67837109Y-110738281D02*
X68170443Y-110262090D01*
X68408538Y-110738281D02*
X68408538Y-109738281D01*
X68027585Y-109738281D01*
X67932347Y-109785900D01*
X67884728Y-109833519D01*
X67837109Y-109928757D01*
X67837109Y-110071614D01*
X67884728Y-110166852D01*
X67932347Y-110214471D01*
X68027585Y-110262090D01*
X68408538Y-110262090D01*
X66884728Y-110738281D02*
X67456157Y-110738281D01*
X67170443Y-110738281D02*
X67170443Y-109738281D01*
X67265681Y-109881138D01*
X67360919Y-109976376D01*
X67456157Y-110023995D01*
X66456157Y-110643043D02*
X66408538Y-110690662D01*
X66456157Y-110738281D01*
X66503776Y-110690662D01*
X66456157Y-110643043D01*
X66456157Y-110738281D01*
X65789491Y-109738281D02*
X65694252Y-109738281D01*
X65599014Y-109785900D01*
X65551395Y-109833519D01*
X65503776Y-109928757D01*
X65456157Y-110119233D01*
X65456157Y-110357329D01*
X65503776Y-110547805D01*
X65551395Y-110643043D01*
X65599014Y-110690662D01*
X65694252Y-110738281D01*
X65789491Y-110738281D01*
X65884729Y-110690662D01*
X65932348Y-110643043D01*
X65979967Y-110547805D01*
X66027586Y-110357329D01*
X66027586Y-110119233D01*
X65979967Y-109928757D01*
X65932348Y-109833519D01*
X65884729Y-109785900D01*
X65789491Y-109738281D01*
X37840634Y-108990662D02*
X37697777Y-109038281D01*
X37459681Y-109038281D01*
X37364443Y-108990662D01*
X37316824Y-108943043D01*
X37269205Y-108847805D01*
X37269205Y-108752567D01*
X37316824Y-108657329D01*
X37364443Y-108609710D01*
X37459681Y-108562090D01*
X37650158Y-108514471D01*
X37745396Y-108466852D01*
X37793015Y-108419233D01*
X37840634Y-108323995D01*
X37840634Y-108228757D01*
X37793015Y-108133519D01*
X37745396Y-108085900D01*
X37650158Y-108038281D01*
X37412062Y-108038281D01*
X37269205Y-108085900D01*
X36840634Y-109038281D02*
X36840634Y-108371614D01*
X36840634Y-108466852D02*
X36793015Y-108419233D01*
X36697777Y-108371614D01*
X36554919Y-108371614D01*
X36459681Y-108419233D01*
X36412062Y-108514471D01*
X36412062Y-109038281D01*
X36412062Y-108514471D02*
X36364443Y-108419233D01*
X36269205Y-108371614D01*
X36126348Y-108371614D01*
X36031110Y-108419233D01*
X35983491Y-108514471D01*
X35983491Y-109038281D01*
X35078729Y-109038281D02*
X35078729Y-108514471D01*
X35126348Y-108419233D01*
X35221586Y-108371614D01*
X35412063Y-108371614D01*
X35507301Y-108419233D01*
X35078729Y-108990662D02*
X35173967Y-109038281D01*
X35412063Y-109038281D01*
X35507301Y-108990662D01*
X35554920Y-108895424D01*
X35554920Y-108800186D01*
X35507301Y-108704948D01*
X35412063Y-108657329D01*
X35173967Y-108657329D01*
X35078729Y-108609710D01*
X34602539Y-109038281D02*
X34602539Y-108371614D01*
X34602539Y-108562090D02*
X34554920Y-108466852D01*
X34507301Y-108419233D01*
X34412063Y-108371614D01*
X34316824Y-108371614D01*
X34126348Y-108371614D02*
X33745396Y-108371614D01*
X33983491Y-108038281D02*
X33983491Y-108895424D01*
X33935872Y-108990662D01*
X33840634Y-109038281D01*
X33745396Y-109038281D01*
X32697776Y-108990662D02*
X32602538Y-109038281D01*
X32412062Y-109038281D01*
X32316823Y-108990662D01*
X32269204Y-108895424D01*
X32269204Y-108847805D01*
X32316823Y-108752567D01*
X32412062Y-108704948D01*
X32554919Y-108704948D01*
X32650157Y-108657329D01*
X32697776Y-108562090D01*
X32697776Y-108514471D01*
X32650157Y-108419233D01*
X32554919Y-108371614D01*
X32412062Y-108371614D01*
X32316823Y-108419233D01*
X31459680Y-108990662D02*
X31554918Y-109038281D01*
X31745395Y-109038281D01*
X31840633Y-108990662D01*
X31888252Y-108895424D01*
X31888252Y-108514471D01*
X31840633Y-108419233D01*
X31745395Y-108371614D01*
X31554918Y-108371614D01*
X31459680Y-108419233D01*
X31412061Y-108514471D01*
X31412061Y-108609710D01*
X31888252Y-108704948D01*
X30983490Y-108371614D02*
X30983490Y-109038281D01*
X30983490Y-108466852D02*
X30935871Y-108419233D01*
X30840633Y-108371614D01*
X30697775Y-108371614D01*
X30602537Y-108419233D01*
X30554918Y-108514471D01*
X30554918Y-109038281D01*
X30126347Y-108990662D02*
X30031109Y-109038281D01*
X29840633Y-109038281D01*
X29745394Y-108990662D01*
X29697775Y-108895424D01*
X29697775Y-108847805D01*
X29745394Y-108752567D01*
X29840633Y-108704948D01*
X29983490Y-108704948D01*
X30078728Y-108657329D01*
X30126347Y-108562090D01*
X30126347Y-108514471D01*
X30078728Y-108419233D01*
X29983490Y-108371614D01*
X29840633Y-108371614D01*
X29745394Y-108419233D01*
X29126347Y-109038281D02*
X29221585Y-108990662D01*
X29269204Y-108943043D01*
X29316823Y-108847805D01*
X29316823Y-108562090D01*
X29269204Y-108466852D01*
X29221585Y-108419233D01*
X29126347Y-108371614D01*
X28983489Y-108371614D01*
X28888251Y-108419233D01*
X28840632Y-108466852D01*
X28793013Y-108562090D01*
X28793013Y-108847805D01*
X28840632Y-108943043D01*
X28888251Y-108990662D01*
X28983489Y-109038281D01*
X29126347Y-109038281D01*
X28364442Y-109038281D02*
X28364442Y-108371614D01*
X28364442Y-108562090D02*
X28316823Y-108466852D01*
X28269204Y-108419233D01*
X28173966Y-108371614D01*
X28078727Y-108371614D01*
X36578729Y-110738281D02*
X36578729Y-110071614D01*
X36578729Y-110262090D02*
X36531110Y-110166852D01*
X36483491Y-110119233D01*
X36388253Y-110071614D01*
X36293014Y-110071614D01*
X35578728Y-110690662D02*
X35673966Y-110738281D01*
X35864443Y-110738281D01*
X35959681Y-110690662D01*
X36007300Y-110595424D01*
X36007300Y-110214471D01*
X35959681Y-110119233D01*
X35864443Y-110071614D01*
X35673966Y-110071614D01*
X35578728Y-110119233D01*
X35531109Y-110214471D01*
X35531109Y-110309710D01*
X36007300Y-110404948D01*
X35197776Y-110071614D02*
X34959681Y-110738281D01*
X34721585Y-110071614D01*
X34340633Y-110643043D02*
X34293014Y-110690662D01*
X34340633Y-110738281D01*
X34388252Y-110690662D01*
X34340633Y-110643043D01*
X34340633Y-110738281D01*
X32531109Y-110738281D02*
X32864443Y-110262090D01*
X33102538Y-110738281D02*
X33102538Y-109738281D01*
X32721585Y-109738281D01*
X32626347Y-109785900D01*
X32578728Y-109833519D01*
X32531109Y-109928757D01*
X32531109Y-110071614D01*
X32578728Y-110166852D01*
X32626347Y-110214471D01*
X32721585Y-110262090D01*
X33102538Y-110262090D01*
X31578728Y-110738281D02*
X32150157Y-110738281D01*
X31864443Y-110738281D02*
X31864443Y-109738281D01*
X31959681Y-109881138D01*
X32054919Y-109976376D01*
X32150157Y-110023995D01*
X31150157Y-110643043D02*
X31102538Y-110690662D01*
X31150157Y-110738281D01*
X31197776Y-110690662D01*
X31150157Y-110643043D01*
X31150157Y-110738281D01*
X30483491Y-109738281D02*
X30388252Y-109738281D01*
X30293014Y-109785900D01*
X30245395Y-109833519D01*
X30197776Y-109928757D01*
X30150157Y-110119233D01*
X30150157Y-110357329D01*
X30197776Y-110547805D01*
X30245395Y-110643043D01*
X30293014Y-110690662D01*
X30388252Y-110738281D01*
X30483491Y-110738281D01*
X30578729Y-110690662D01*
X30626348Y-110643043D01*
X30673967Y-110547805D01*
X30721586Y-110357329D01*
X30721586Y-110119233D01*
X30673967Y-109928757D01*
X30626348Y-109833519D01*
X30578729Y-109785900D01*
X30483491Y-109738281D01*
X53664820Y-77851000D02*
G75*
G03X53664820Y-77851000I-4134820J0D01*
G01*
D12*
X52208571Y-75754571D02*
X51708571Y-77254571D01*
X51208571Y-75754571D01*
X50708571Y-77254571D02*
X50708571Y-76254571D01*
X50708571Y-75754571D02*
X50780000Y-75826000D01*
X50708571Y-75897429D01*
X50637143Y-75826000D01*
X50708571Y-75754571D01*
X50708571Y-75897429D01*
X49994285Y-77254571D02*
X49994285Y-75754571D01*
X49994285Y-76326000D02*
X49851428Y-76254571D01*
X49565714Y-76254571D01*
X49422857Y-76326000D01*
X49351428Y-76397429D01*
X49279999Y-76540286D01*
X49279999Y-76968857D01*
X49351428Y-77111714D01*
X49422857Y-77183143D01*
X49565714Y-77254571D01*
X49851428Y-77254571D01*
X49994285Y-77183143D01*
X48637142Y-77254571D02*
X48637142Y-76254571D01*
X48637142Y-76540286D02*
X48565714Y-76397429D01*
X48494285Y-76326000D01*
X48351428Y-76254571D01*
X48208571Y-76254571D01*
X47494285Y-77254571D02*
X47637143Y-77183143D01*
X47708571Y-77111714D01*
X47780000Y-76968857D01*
X47780000Y-76540286D01*
X47708571Y-76397429D01*
X47637143Y-76326000D01*
X47494285Y-76254571D01*
X47280000Y-76254571D01*
X47137143Y-76326000D01*
X47065714Y-76397429D01*
X46994285Y-76540286D01*
X46994285Y-76968857D01*
X47065714Y-77111714D01*
X47137143Y-77183143D01*
X47280000Y-77254571D01*
X47494285Y-77254571D01*
X51601428Y-79804571D02*
X51601428Y-78304571D01*
X50958571Y-79804571D02*
X50958571Y-79018857D01*
X51030000Y-78876000D01*
X51172857Y-78804571D01*
X51387142Y-78804571D01*
X51530000Y-78876000D01*
X51601428Y-78947429D01*
X49672857Y-79733143D02*
X49815714Y-79804571D01*
X50101428Y-79804571D01*
X50244285Y-79733143D01*
X50315714Y-79590286D01*
X50315714Y-79018857D01*
X50244285Y-78876000D01*
X50101428Y-78804571D01*
X49815714Y-78804571D01*
X49672857Y-78876000D01*
X49601428Y-79018857D01*
X49601428Y-79161714D01*
X50315714Y-79304571D01*
X48958571Y-79804571D02*
X48958571Y-78804571D01*
X48958571Y-79090286D02*
X48887143Y-78947429D01*
X48815714Y-78876000D01*
X48672857Y-78804571D01*
X48530000Y-78804571D01*
X47458572Y-79733143D02*
X47601429Y-79804571D01*
X47887143Y-79804571D01*
X48030000Y-79733143D01*
X48101429Y-79590286D01*
X48101429Y-79018857D01*
X48030000Y-78876000D01*
X47887143Y-78804571D01*
X47601429Y-78804571D01*
X47458572Y-78876000D01*
X47387143Y-79018857D01*
X47387143Y-79161714D01*
X48101429Y-79304571D01*
X92848571Y-76008571D02*
X92348571Y-77508571D01*
X91848571Y-76008571D01*
X91348571Y-77508571D02*
X91348571Y-76508571D01*
X91348571Y-76008571D02*
X91420000Y-76080000D01*
X91348571Y-76151429D01*
X91277143Y-76080000D01*
X91348571Y-76008571D01*
X91348571Y-76151429D01*
X90634285Y-77508571D02*
X90634285Y-76008571D01*
X90634285Y-76580000D02*
X90491428Y-76508571D01*
X90205714Y-76508571D01*
X90062857Y-76580000D01*
X89991428Y-76651429D01*
X89919999Y-76794286D01*
X89919999Y-77222857D01*
X89991428Y-77365714D01*
X90062857Y-77437143D01*
X90205714Y-77508571D01*
X90491428Y-77508571D01*
X90634285Y-77437143D01*
X89277142Y-77508571D02*
X89277142Y-76508571D01*
X89277142Y-76794286D02*
X89205714Y-76651429D01*
X89134285Y-76580000D01*
X88991428Y-76508571D01*
X88848571Y-76508571D01*
X88134285Y-77508571D02*
X88277143Y-77437143D01*
X88348571Y-77365714D01*
X88420000Y-77222857D01*
X88420000Y-76794286D01*
X88348571Y-76651429D01*
X88277143Y-76580000D01*
X88134285Y-76508571D01*
X87920000Y-76508571D01*
X87777143Y-76580000D01*
X87705714Y-76651429D01*
X87634285Y-76794286D01*
X87634285Y-77222857D01*
X87705714Y-77365714D01*
X87777143Y-77437143D01*
X87920000Y-77508571D01*
X88134285Y-77508571D01*
X92241428Y-80058571D02*
X92241428Y-78558571D01*
X91598571Y-80058571D02*
X91598571Y-79272857D01*
X91670000Y-79130000D01*
X91812857Y-79058571D01*
X92027142Y-79058571D01*
X92170000Y-79130000D01*
X92241428Y-79201429D01*
X90312857Y-79987143D02*
X90455714Y-80058571D01*
X90741428Y-80058571D01*
X90884285Y-79987143D01*
X90955714Y-79844286D01*
X90955714Y-79272857D01*
X90884285Y-79130000D01*
X90741428Y-79058571D01*
X90455714Y-79058571D01*
X90312857Y-79130000D01*
X90241428Y-79272857D01*
X90241428Y-79415714D01*
X90955714Y-79558571D01*
X89598571Y-80058571D02*
X89598571Y-79058571D01*
X89598571Y-79344286D02*
X89527143Y-79201429D01*
X89455714Y-79130000D01*
X89312857Y-79058571D01*
X89170000Y-79058571D01*
X88098572Y-79987143D02*
X88241429Y-80058571D01*
X88527143Y-80058571D01*
X88670000Y-79987143D01*
X88741429Y-79844286D01*
X88741429Y-79272857D01*
X88670000Y-79130000D01*
X88527143Y-79058571D01*
X88241429Y-79058571D01*
X88098572Y-79130000D01*
X88027143Y-79272857D01*
X88027143Y-79415714D01*
X88741429Y-79558571D01*
D11*
X94304820Y-78105000D02*
G75*
G03X94304820Y-78105000I-4134820J0D01*
G01*
X114497820Y-65532000D02*
G75*
G03X114497820Y-65532000I-4134820J0D01*
G01*
D12*
X108266571Y-62853429D02*
X109766571Y-63353429D01*
X108266571Y-63853429D01*
X109766571Y-64353429D02*
X108766571Y-64353429D01*
X108266571Y-64353429D02*
X108338000Y-64282000D01*
X108409429Y-64353429D01*
X108338000Y-64424857D01*
X108266571Y-64353429D01*
X108409429Y-64353429D01*
X109766571Y-65067715D02*
X108266571Y-65067715D01*
X108838000Y-65067715D02*
X108766571Y-65210572D01*
X108766571Y-65496286D01*
X108838000Y-65639143D01*
X108909429Y-65710572D01*
X109052286Y-65782001D01*
X109480857Y-65782001D01*
X109623714Y-65710572D01*
X109695143Y-65639143D01*
X109766571Y-65496286D01*
X109766571Y-65210572D01*
X109695143Y-65067715D01*
X109766571Y-66424858D02*
X108766571Y-66424858D01*
X109052286Y-66424858D02*
X108909429Y-66496286D01*
X108838000Y-66567715D01*
X108766571Y-66710572D01*
X108766571Y-66853429D01*
X109766571Y-67567715D02*
X109695143Y-67424857D01*
X109623714Y-67353429D01*
X109480857Y-67282000D01*
X109052286Y-67282000D01*
X108909429Y-67353429D01*
X108838000Y-67424857D01*
X108766571Y-67567715D01*
X108766571Y-67782000D01*
X108838000Y-67924857D01*
X108909429Y-67996286D01*
X109052286Y-68067715D01*
X109480857Y-68067715D01*
X109623714Y-67996286D01*
X109695143Y-67924857D01*
X109766571Y-67782000D01*
X109766571Y-67567715D01*
X112316571Y-63460572D02*
X110816571Y-63460572D01*
X112316571Y-64103429D02*
X111530857Y-64103429D01*
X111388000Y-64032000D01*
X111316571Y-63889143D01*
X111316571Y-63674858D01*
X111388000Y-63532000D01*
X111459429Y-63460572D01*
X112245143Y-65389143D02*
X112316571Y-65246286D01*
X112316571Y-64960572D01*
X112245143Y-64817715D01*
X112102286Y-64746286D01*
X111530857Y-64746286D01*
X111388000Y-64817715D01*
X111316571Y-64960572D01*
X111316571Y-65246286D01*
X111388000Y-65389143D01*
X111530857Y-65460572D01*
X111673714Y-65460572D01*
X111816571Y-64746286D01*
X112316571Y-66103429D02*
X111316571Y-66103429D01*
X111602286Y-66103429D02*
X111459429Y-66174857D01*
X111388000Y-66246286D01*
X111316571Y-66389143D01*
X111316571Y-66532000D01*
X112245143Y-67603428D02*
X112316571Y-67460571D01*
X112316571Y-67174857D01*
X112245143Y-67032000D01*
X112102286Y-66960571D01*
X111530857Y-66960571D01*
X111388000Y-67032000D01*
X111316571Y-67174857D01*
X111316571Y-67460571D01*
X111388000Y-67603428D01*
X111530857Y-67674857D01*
X111673714Y-67674857D01*
X111816571Y-66960571D01*
X92848571Y-59752571D02*
X92348571Y-61252571D01*
X91848571Y-59752571D01*
X91348571Y-61252571D02*
X91348571Y-60252571D01*
X91348571Y-59752571D02*
X91420000Y-59824000D01*
X91348571Y-59895429D01*
X91277143Y-59824000D01*
X91348571Y-59752571D01*
X91348571Y-59895429D01*
X90634285Y-61252571D02*
X90634285Y-59752571D01*
X90634285Y-60324000D02*
X90491428Y-60252571D01*
X90205714Y-60252571D01*
X90062857Y-60324000D01*
X89991428Y-60395429D01*
X89919999Y-60538286D01*
X89919999Y-60966857D01*
X89991428Y-61109714D01*
X90062857Y-61181143D01*
X90205714Y-61252571D01*
X90491428Y-61252571D01*
X90634285Y-61181143D01*
X89277142Y-61252571D02*
X89277142Y-60252571D01*
X89277142Y-60538286D02*
X89205714Y-60395429D01*
X89134285Y-60324000D01*
X88991428Y-60252571D01*
X88848571Y-60252571D01*
X88134285Y-61252571D02*
X88277143Y-61181143D01*
X88348571Y-61109714D01*
X88420000Y-60966857D01*
X88420000Y-60538286D01*
X88348571Y-60395429D01*
X88277143Y-60324000D01*
X88134285Y-60252571D01*
X87920000Y-60252571D01*
X87777143Y-60324000D01*
X87705714Y-60395429D01*
X87634285Y-60538286D01*
X87634285Y-60966857D01*
X87705714Y-61109714D01*
X87777143Y-61181143D01*
X87920000Y-61252571D01*
X88134285Y-61252571D01*
X92241428Y-63802571D02*
X92241428Y-62302571D01*
X91598571Y-63802571D02*
X91598571Y-63016857D01*
X91670000Y-62874000D01*
X91812857Y-62802571D01*
X92027142Y-62802571D01*
X92170000Y-62874000D01*
X92241428Y-62945429D01*
X90312857Y-63731143D02*
X90455714Y-63802571D01*
X90741428Y-63802571D01*
X90884285Y-63731143D01*
X90955714Y-63588286D01*
X90955714Y-63016857D01*
X90884285Y-62874000D01*
X90741428Y-62802571D01*
X90455714Y-62802571D01*
X90312857Y-62874000D01*
X90241428Y-63016857D01*
X90241428Y-63159714D01*
X90955714Y-63302571D01*
X89598571Y-63802571D02*
X89598571Y-62802571D01*
X89598571Y-63088286D02*
X89527143Y-62945429D01*
X89455714Y-62874000D01*
X89312857Y-62802571D01*
X89170000Y-62802571D01*
X88098572Y-63731143D02*
X88241429Y-63802571D01*
X88527143Y-63802571D01*
X88670000Y-63731143D01*
X88741429Y-63588286D01*
X88741429Y-63016857D01*
X88670000Y-62874000D01*
X88527143Y-62802571D01*
X88241429Y-62802571D01*
X88098572Y-62874000D01*
X88027143Y-63016857D01*
X88027143Y-63159714D01*
X88741429Y-63302571D01*
D11*
X94304820Y-61849000D02*
G75*
G03X94304820Y-61849000I-4134820J0D01*
G01*
X102406571Y-26241571D02*
X102463714Y-26298714D01*
X102635143Y-26355857D01*
X102749429Y-26355857D01*
X102920857Y-26298714D01*
X103035143Y-26184429D01*
X103092286Y-26070143D01*
X103149429Y-25841571D01*
X103149429Y-25670143D01*
X103092286Y-25441571D01*
X103035143Y-25327286D01*
X102920857Y-25213000D01*
X102749429Y-25155857D01*
X102635143Y-25155857D01*
X102463714Y-25213000D01*
X102406571Y-25270143D01*
X101378000Y-26355857D02*
X101378000Y-25727286D01*
X101435143Y-25613000D01*
X101549429Y-25555857D01*
X101778000Y-25555857D01*
X101892286Y-25613000D01*
X101378000Y-26298714D02*
X101492286Y-26355857D01*
X101778000Y-26355857D01*
X101892286Y-26298714D01*
X101949429Y-26184429D01*
X101949429Y-26070143D01*
X101892286Y-25955857D01*
X101778000Y-25898714D01*
X101492286Y-25898714D01*
X101378000Y-25841571D01*
X100292286Y-25555857D02*
X100292286Y-26355857D01*
X100806572Y-25555857D02*
X100806572Y-26184429D01*
X100749429Y-26298714D01*
X100635143Y-26355857D01*
X100463715Y-26355857D01*
X100349429Y-26298714D01*
X100292286Y-26241571D01*
X99778001Y-26298714D02*
X99663715Y-26355857D01*
X99435143Y-26355857D01*
X99320858Y-26298714D01*
X99263715Y-26184429D01*
X99263715Y-26127286D01*
X99320858Y-26013000D01*
X99435143Y-25955857D01*
X99606572Y-25955857D01*
X99720858Y-25898714D01*
X99778001Y-25784429D01*
X99778001Y-25727286D01*
X99720858Y-25613000D01*
X99606572Y-25555857D01*
X99435143Y-25555857D01*
X99320858Y-25613000D01*
X98920857Y-25555857D02*
X98463714Y-25555857D01*
X98749429Y-25155857D02*
X98749429Y-26184429D01*
X98692286Y-26298714D01*
X98578000Y-26355857D01*
X98463714Y-26355857D01*
X98063715Y-26355857D02*
X98063715Y-25555857D01*
X98063715Y-25155857D02*
X98120858Y-25213000D01*
X98063715Y-25270143D01*
X98006572Y-25213000D01*
X98063715Y-25155857D01*
X98063715Y-25270143D01*
X96978000Y-26298714D02*
X97092286Y-26355857D01*
X97320857Y-26355857D01*
X97435143Y-26298714D01*
X97492286Y-26241571D01*
X97549429Y-26127286D01*
X97549429Y-25784429D01*
X97492286Y-25670143D01*
X97435143Y-25613000D01*
X97320857Y-25555857D01*
X97092286Y-25555857D01*
X96978000Y-25613000D01*
X94978000Y-26355857D02*
X95549429Y-26355857D01*
X95549429Y-25155857D01*
X94063714Y-26355857D02*
X94063714Y-25727286D01*
X94120857Y-25613000D01*
X94235143Y-25555857D01*
X94463714Y-25555857D01*
X94578000Y-25613000D01*
X94063714Y-26298714D02*
X94178000Y-26355857D01*
X94463714Y-26355857D01*
X94578000Y-26298714D01*
X94635143Y-26184429D01*
X94635143Y-26070143D01*
X94578000Y-25955857D01*
X94463714Y-25898714D01*
X94178000Y-25898714D01*
X94063714Y-25841571D01*
X93549429Y-26298714D02*
X93435143Y-26355857D01*
X93206571Y-26355857D01*
X93092286Y-26298714D01*
X93035143Y-26184429D01*
X93035143Y-26127286D01*
X93092286Y-26013000D01*
X93206571Y-25955857D01*
X93378000Y-25955857D01*
X93492286Y-25898714D01*
X93549429Y-25784429D01*
X93549429Y-25727286D01*
X93492286Y-25613000D01*
X93378000Y-25555857D01*
X93206571Y-25555857D01*
X93092286Y-25613000D01*
X92063714Y-26298714D02*
X92178000Y-26355857D01*
X92406571Y-26355857D01*
X92520857Y-26298714D01*
X92578000Y-26184429D01*
X92578000Y-25727286D01*
X92520857Y-25613000D01*
X92406571Y-25555857D01*
X92178000Y-25555857D01*
X92063714Y-25613000D01*
X92006571Y-25727286D01*
X92006571Y-25841571D01*
X92578000Y-25955857D01*
X91492286Y-26355857D02*
X91492286Y-25555857D01*
X91492286Y-25784429D02*
X91435143Y-25670143D01*
X91378000Y-25613000D01*
X91263714Y-25555857D01*
X91149429Y-25555857D01*
X90920857Y-25555857D02*
X90463714Y-25555857D01*
X90749429Y-25155857D02*
X90749429Y-26184429D01*
X90692286Y-26298714D01*
X90578000Y-26355857D01*
X90463714Y-26355857D01*
X89549429Y-26355857D02*
X89549429Y-25727286D01*
X89606572Y-25613000D01*
X89720858Y-25555857D01*
X89949429Y-25555857D01*
X90063715Y-25613000D01*
X89549429Y-26298714D02*
X89663715Y-26355857D01*
X89949429Y-26355857D01*
X90063715Y-26298714D01*
X90120858Y-26184429D01*
X90120858Y-26070143D01*
X90063715Y-25955857D01*
X89949429Y-25898714D01*
X89663715Y-25898714D01*
X89549429Y-25841571D01*
X88463715Y-25555857D02*
X88463715Y-26527286D01*
X88520858Y-26641571D01*
X88578001Y-26698714D01*
X88692286Y-26755857D01*
X88863715Y-26755857D01*
X88978001Y-26698714D01*
X88463715Y-26298714D02*
X88578001Y-26355857D01*
X88806572Y-26355857D01*
X88920858Y-26298714D01*
X88978001Y-26241571D01*
X89035144Y-26127286D01*
X89035144Y-25784429D01*
X88978001Y-25670143D01*
X88920858Y-25613000D01*
X88806572Y-25555857D01*
X88578001Y-25555857D01*
X88463715Y-25613000D01*
X87035144Y-26298714D02*
X86863715Y-26355857D01*
X86578001Y-26355857D01*
X86463715Y-26298714D01*
X86406572Y-26241571D01*
X86349429Y-26127286D01*
X86349429Y-26013000D01*
X86406572Y-25898714D01*
X86463715Y-25841571D01*
X86578001Y-25784429D01*
X86806572Y-25727286D01*
X86920858Y-25670143D01*
X86978001Y-25613000D01*
X87035144Y-25498714D01*
X87035144Y-25384429D01*
X86978001Y-25270143D01*
X86920858Y-25213000D01*
X86806572Y-25155857D01*
X86520858Y-25155857D01*
X86349429Y-25213000D01*
X85949429Y-25555857D02*
X85663715Y-26355857D01*
X85378001Y-25555857D02*
X85663715Y-26355857D01*
X85778001Y-26641571D01*
X85835144Y-26698714D01*
X85949429Y-26755857D01*
X84978001Y-26298714D02*
X84863715Y-26355857D01*
X84635143Y-26355857D01*
X84520858Y-26298714D01*
X84463715Y-26184429D01*
X84463715Y-26127286D01*
X84520858Y-26013000D01*
X84635143Y-25955857D01*
X84806572Y-25955857D01*
X84920858Y-25898714D01*
X84978001Y-25784429D01*
X84978001Y-25727286D01*
X84920858Y-25613000D01*
X84806572Y-25555857D01*
X84635143Y-25555857D01*
X84520858Y-25613000D01*
X84120857Y-25555857D02*
X83663714Y-25555857D01*
X83949429Y-25155857D02*
X83949429Y-26184429D01*
X83892286Y-26298714D01*
X83778000Y-26355857D01*
X83663714Y-26355857D01*
X82806572Y-26298714D02*
X82920858Y-26355857D01*
X83149429Y-26355857D01*
X83263715Y-26298714D01*
X83320858Y-26184429D01*
X83320858Y-25727286D01*
X83263715Y-25613000D01*
X83149429Y-25555857D01*
X82920858Y-25555857D01*
X82806572Y-25613000D01*
X82749429Y-25727286D01*
X82749429Y-25841571D01*
X83320858Y-25955857D01*
X82235144Y-26355857D02*
X82235144Y-25555857D01*
X82235144Y-25670143D02*
X82178001Y-25613000D01*
X82063715Y-25555857D01*
X81892287Y-25555857D01*
X81778001Y-25613000D01*
X81720858Y-25727286D01*
X81720858Y-26355857D01*
X81720858Y-25727286D02*
X81663715Y-25613000D01*
X81549429Y-25555857D01*
X81378001Y-25555857D01*
X81263715Y-25613000D01*
X81206572Y-25727286D01*
X81206572Y-26355857D01*
X102406571Y-28355857D02*
X102806571Y-27784429D01*
X103092286Y-28355857D02*
X103092286Y-27155857D01*
X102635143Y-27155857D01*
X102520857Y-27213000D01*
X102463714Y-27270143D01*
X102406571Y-27384429D01*
X102406571Y-27555857D01*
X102463714Y-27670143D01*
X102520857Y-27727286D01*
X102635143Y-27784429D01*
X103092286Y-27784429D01*
X101892286Y-28355857D02*
X101892286Y-27555857D01*
X101892286Y-27155857D02*
X101949429Y-27213000D01*
X101892286Y-27270143D01*
X101835143Y-27213000D01*
X101892286Y-27155857D01*
X101892286Y-27270143D01*
X101492285Y-27555857D02*
X101035142Y-27555857D01*
X101320857Y-28355857D02*
X101320857Y-27327286D01*
X101263714Y-27213000D01*
X101149428Y-27155857D01*
X101035142Y-27155857D01*
X100463714Y-28355857D02*
X100578000Y-28298714D01*
X100635143Y-28184429D01*
X100635143Y-27155857D01*
X99549429Y-28298714D02*
X99663715Y-28355857D01*
X99892286Y-28355857D01*
X100006572Y-28298714D01*
X100063715Y-28184429D01*
X100063715Y-27727286D01*
X100006572Y-27613000D01*
X99892286Y-27555857D01*
X99663715Y-27555857D01*
X99549429Y-27613000D01*
X99492286Y-27727286D01*
X99492286Y-27841571D01*
X100063715Y-27955857D01*
X98063715Y-28355857D02*
X98063715Y-27155857D01*
X98063715Y-27613000D02*
X97949429Y-27555857D01*
X97720858Y-27555857D01*
X97606572Y-27613000D01*
X97549429Y-27670143D01*
X97492286Y-27784429D01*
X97492286Y-28127286D01*
X97549429Y-28241571D01*
X97606572Y-28298714D01*
X97720858Y-28355857D01*
X97949429Y-28355857D01*
X98063715Y-28298714D01*
X96806572Y-28355857D02*
X96920858Y-28298714D01*
X96978001Y-28241571D01*
X97035144Y-28127286D01*
X97035144Y-27784429D01*
X96978001Y-27670143D01*
X96920858Y-27613000D01*
X96806572Y-27555857D01*
X96635144Y-27555857D01*
X96520858Y-27613000D01*
X96463715Y-27670143D01*
X96406572Y-27784429D01*
X96406572Y-28127286D01*
X96463715Y-28241571D01*
X96520858Y-28298714D01*
X96635144Y-28355857D01*
X96806572Y-28355857D01*
X95378001Y-28355857D02*
X95378001Y-27727286D01*
X95435144Y-27613000D01*
X95549430Y-27555857D01*
X95778001Y-27555857D01*
X95892287Y-27613000D01*
X95378001Y-28298714D02*
X95492287Y-28355857D01*
X95778001Y-28355857D01*
X95892287Y-28298714D01*
X95949430Y-28184429D01*
X95949430Y-28070143D01*
X95892287Y-27955857D01*
X95778001Y-27898714D01*
X95492287Y-27898714D01*
X95378001Y-27841571D01*
X94806573Y-28355857D02*
X94806573Y-27555857D01*
X94806573Y-27784429D02*
X94749430Y-27670143D01*
X94692287Y-27613000D01*
X94578001Y-27555857D01*
X94463716Y-27555857D01*
X93549430Y-28355857D02*
X93549430Y-27155857D01*
X93549430Y-28298714D02*
X93663716Y-28355857D01*
X93892287Y-28355857D01*
X94006573Y-28298714D01*
X94063716Y-28241571D01*
X94120859Y-28127286D01*
X94120859Y-27784429D01*
X94063716Y-27670143D01*
X94006573Y-27613000D01*
X93892287Y-27555857D01*
X93663716Y-27555857D01*
X93549430Y-27613000D01*
X103092286Y-30355857D02*
X103092286Y-29555857D01*
X103092286Y-29670143D02*
X103035143Y-29613000D01*
X102920857Y-29555857D01*
X102749429Y-29555857D01*
X102635143Y-29613000D01*
X102578000Y-29727286D01*
X102578000Y-30355857D01*
X102578000Y-29727286D02*
X102520857Y-29613000D01*
X102406571Y-29555857D01*
X102235143Y-29555857D01*
X102120857Y-29613000D01*
X102063714Y-29727286D01*
X102063714Y-30355857D01*
X100578000Y-30355857D02*
X100578000Y-29555857D01*
X100578000Y-29784429D02*
X100520857Y-29670143D01*
X100463714Y-29613000D01*
X100349428Y-29555857D01*
X100235143Y-29555857D01*
X99378000Y-30298714D02*
X99492286Y-30355857D01*
X99720857Y-30355857D01*
X99835143Y-30298714D01*
X99892286Y-30184429D01*
X99892286Y-29727286D01*
X99835143Y-29613000D01*
X99720857Y-29555857D01*
X99492286Y-29555857D01*
X99378000Y-29613000D01*
X99320857Y-29727286D01*
X99320857Y-29841571D01*
X99892286Y-29955857D01*
X98920857Y-29555857D02*
X98635143Y-30355857D01*
X98349429Y-29555857D01*
X97892286Y-30241571D02*
X97835143Y-30298714D01*
X97892286Y-30355857D01*
X97949429Y-30298714D01*
X97892286Y-30241571D01*
X97892286Y-30355857D01*
X95777999Y-30355857D02*
X96463714Y-30355857D01*
X96120856Y-30355857D02*
X96120856Y-29155857D01*
X96235142Y-29327286D01*
X96349428Y-29441571D01*
X96463714Y-29498714D01*
X95263714Y-30241571D02*
X95206571Y-30298714D01*
X95263714Y-30355857D01*
X95320857Y-30298714D01*
X95263714Y-30241571D01*
X95263714Y-30355857D01*
X94063713Y-30355857D02*
X94749428Y-30355857D01*
X94406570Y-30355857D02*
X94406570Y-29155857D01*
X94520856Y-29327286D01*
X94635142Y-29441571D01*
X94749428Y-29498714D01*
X53664820Y-61595000D02*
G75*
G03X53664820Y-61595000I-4134820J0D01*
G01*
D12*
X52208571Y-59498571D02*
X51708571Y-60998571D01*
X51208571Y-59498571D01*
X50708571Y-60998571D02*
X50708571Y-59998571D01*
X50708571Y-59498571D02*
X50780000Y-59570000D01*
X50708571Y-59641429D01*
X50637143Y-59570000D01*
X50708571Y-59498571D01*
X50708571Y-59641429D01*
X49994285Y-60998571D02*
X49994285Y-59498571D01*
X49994285Y-60070000D02*
X49851428Y-59998571D01*
X49565714Y-59998571D01*
X49422857Y-60070000D01*
X49351428Y-60141429D01*
X49279999Y-60284286D01*
X49279999Y-60712857D01*
X49351428Y-60855714D01*
X49422857Y-60927143D01*
X49565714Y-60998571D01*
X49851428Y-60998571D01*
X49994285Y-60927143D01*
X48637142Y-60998571D02*
X48637142Y-59998571D01*
X48637142Y-60284286D02*
X48565714Y-60141429D01*
X48494285Y-60070000D01*
X48351428Y-59998571D01*
X48208571Y-59998571D01*
X47494285Y-60998571D02*
X47637143Y-60927143D01*
X47708571Y-60855714D01*
X47780000Y-60712857D01*
X47780000Y-60284286D01*
X47708571Y-60141429D01*
X47637143Y-60070000D01*
X47494285Y-59998571D01*
X47280000Y-59998571D01*
X47137143Y-60070000D01*
X47065714Y-60141429D01*
X46994285Y-60284286D01*
X46994285Y-60712857D01*
X47065714Y-60855714D01*
X47137143Y-60927143D01*
X47280000Y-60998571D01*
X47494285Y-60998571D01*
X51601428Y-63548571D02*
X51601428Y-62048571D01*
X50958571Y-63548571D02*
X50958571Y-62762857D01*
X51030000Y-62620000D01*
X51172857Y-62548571D01*
X51387142Y-62548571D01*
X51530000Y-62620000D01*
X51601428Y-62691429D01*
X49672857Y-63477143D02*
X49815714Y-63548571D01*
X50101428Y-63548571D01*
X50244285Y-63477143D01*
X50315714Y-63334286D01*
X50315714Y-62762857D01*
X50244285Y-62620000D01*
X50101428Y-62548571D01*
X49815714Y-62548571D01*
X49672857Y-62620000D01*
X49601428Y-62762857D01*
X49601428Y-62905714D01*
X50315714Y-63048571D01*
X48958571Y-63548571D02*
X48958571Y-62548571D01*
X48958571Y-62834286D02*
X48887143Y-62691429D01*
X48815714Y-62620000D01*
X48672857Y-62548571D01*
X48530000Y-62548571D01*
X47458572Y-63477143D02*
X47601429Y-63548571D01*
X47887143Y-63548571D01*
X48030000Y-63477143D01*
X48101429Y-63334286D01*
X48101429Y-62762857D01*
X48030000Y-62620000D01*
X47887143Y-62548571D01*
X47601429Y-62548571D01*
X47458572Y-62620000D01*
X47387143Y-62762857D01*
X47387143Y-62905714D01*
X48101429Y-63048571D01*
D13*
X67276600Y-94588700D02*
X66276600Y-94588700D01*
X66276600Y-92888700D02*
X67276600Y-92888700D01*
X64515100Y-96197800D02*
X64515100Y-97197800D01*
X62815100Y-97197800D02*
X62815100Y-96197800D01*
X79373000Y-108681400D02*
X79373000Y-109611400D01*
X79373000Y-111841400D02*
X79373000Y-110911400D01*
X79373000Y-111841400D02*
X77213000Y-111841400D01*
X79373000Y-108681400D02*
X77913000Y-108681400D01*
X75771900Y-110924900D02*
X75771900Y-109724900D01*
X74011900Y-109724900D02*
X74011900Y-110924900D01*
X68856500Y-96445500D02*
X68856500Y-98245500D01*
X65636500Y-98245500D02*
X65636500Y-95795500D01*
D14*
X74951000Y-101508600D02*
X74951000Y-105958600D01*
X68051000Y-99983600D02*
X68051000Y-105958600D01*
D13*
X77083800Y-96382300D02*
X78013800Y-96382300D01*
X80243800Y-96382300D02*
X79313800Y-96382300D01*
X80243800Y-96382300D02*
X80243800Y-98542300D01*
X77083800Y-96382300D02*
X77083800Y-97842300D01*
X77459280Y-94733000D02*
X78659280Y-94733000D01*
X78659280Y-92973000D02*
X77459280Y-92973000D01*
X81873800Y-100966160D02*
X83073800Y-100966160D01*
X83073800Y-99206160D02*
X81873800Y-99206160D01*
X46567800Y-100966160D02*
X47767800Y-100966160D01*
X47767800Y-99206160D02*
X46567800Y-99206160D01*
X42153280Y-94733000D02*
X43353280Y-94733000D01*
X43353280Y-92973000D02*
X42153280Y-92973000D01*
X41777800Y-96382300D02*
X42707800Y-96382300D01*
X44937800Y-96382300D02*
X44007800Y-96382300D01*
X44937800Y-96382300D02*
X44937800Y-98542300D01*
X41777800Y-96382300D02*
X41777800Y-97842300D01*
D14*
X39645000Y-101508600D02*
X39645000Y-105958600D01*
X32745000Y-99983600D02*
X32745000Y-105958600D01*
D13*
X33550500Y-96445500D02*
X33550500Y-98245500D01*
X30330500Y-98245500D02*
X30330500Y-95795500D01*
X40465900Y-110924900D02*
X40465900Y-109724900D01*
X38705900Y-109724900D02*
X38705900Y-110924900D01*
X44067000Y-108681400D02*
X44067000Y-109611400D01*
X44067000Y-111841400D02*
X44067000Y-110911400D01*
X44067000Y-111841400D02*
X41907000Y-111841400D01*
X44067000Y-108681400D02*
X42607000Y-108681400D01*
X29209100Y-96197800D02*
X29209100Y-97197800D01*
X27509100Y-97197800D02*
X27509100Y-96197800D01*
X31970600Y-94588700D02*
X30970600Y-94588700D01*
X30970600Y-92888700D02*
X31970600Y-92888700D01*
X30218000Y-79463000D02*
X29218000Y-79463000D01*
X29218000Y-77763000D02*
X30218000Y-77763000D01*
X29218000Y-75731000D02*
X30218000Y-75731000D01*
X30218000Y-77431000D02*
X29218000Y-77431000D01*
X28818000Y-79797000D02*
X30618000Y-79797000D01*
X30618000Y-83017000D02*
X28168000Y-83017000D01*
D14*
X38161000Y-75925000D02*
X42611000Y-75925000D01*
X36636000Y-82825000D02*
X42611000Y-82825000D01*
X78801000Y-76179000D02*
X83251000Y-76179000D01*
X77276000Y-83079000D02*
X83251000Y-83079000D01*
D13*
X69458000Y-80051000D02*
X71258000Y-80051000D01*
X71258000Y-83271000D02*
X68808000Y-83271000D01*
X69858000Y-75985000D02*
X70858000Y-75985000D01*
X70858000Y-77685000D02*
X69858000Y-77685000D01*
X70858000Y-79717000D02*
X69858000Y-79717000D01*
X69858000Y-78017000D02*
X70858000Y-78017000D01*
X111975000Y-84844000D02*
X111975000Y-85844000D01*
X110275000Y-85844000D02*
X110275000Y-84844000D01*
X108243000Y-85844000D02*
X108243000Y-84844000D01*
X109943000Y-84844000D02*
X109943000Y-85844000D01*
X112309000Y-86244000D02*
X112309000Y-84444000D01*
X115529000Y-84444000D02*
X115529000Y-86894000D01*
D14*
X108437000Y-76901000D02*
X108437000Y-72451000D01*
X115337000Y-78426000D02*
X115337000Y-72451000D01*
X78801000Y-59923000D02*
X83251000Y-59923000D01*
X77276000Y-66823000D02*
X83251000Y-66823000D01*
D13*
X69458000Y-63795000D02*
X71258000Y-63795000D01*
X71258000Y-67015000D02*
X68808000Y-67015000D01*
X69858000Y-59729000D02*
X70858000Y-59729000D01*
X70858000Y-61429000D02*
X69858000Y-61429000D01*
X70858000Y-63461000D02*
X69858000Y-63461000D01*
X69858000Y-61761000D02*
X70858000Y-61761000D01*
D14*
X60650500Y-26582000D02*
X61650500Y-26582000D01*
X61650500Y-28282000D02*
X60650500Y-28282000D01*
X49030000Y-40361500D02*
X50030000Y-40361500D01*
X50030000Y-42061500D02*
X49030000Y-42061500D01*
X47252000Y-30011000D02*
X48252000Y-30011000D01*
X48252000Y-31711000D02*
X47252000Y-31711000D01*
X67222000Y-37076000D02*
X67222000Y-36076000D01*
X68922000Y-36076000D02*
X68922000Y-37076000D01*
X68922000Y-39886000D02*
X68922000Y-40886000D01*
X67222000Y-40886000D02*
X67222000Y-39886000D01*
X63270500Y-41727500D02*
X63270500Y-42727500D01*
X61570500Y-42727500D02*
X61570500Y-41727500D01*
X45051600Y-27139000D02*
X44051600Y-27139000D01*
X44051600Y-25439000D02*
X45051600Y-25439000D01*
X100877000Y-46220000D02*
X100877000Y-45220000D01*
X102577000Y-45220000D02*
X102577000Y-46220000D01*
X74176000Y-39218500D02*
X75176000Y-39218500D01*
X75176000Y-40918500D02*
X74176000Y-40918500D01*
X84132800Y-30468200D02*
X85132800Y-30468200D01*
X85132800Y-32168200D02*
X84132800Y-32168200D01*
X81526000Y-32168200D02*
X80526000Y-32168200D01*
X80526000Y-30468200D02*
X81526000Y-30468200D01*
X110124240Y-43531840D02*
X110124240Y-43580100D01*
X109423200Y-46330820D02*
X110124240Y-46330820D01*
X110124240Y-46330820D02*
X110124240Y-46081900D01*
X110124240Y-43531840D02*
X110124240Y-43331180D01*
X110124240Y-43331180D02*
X109423200Y-43331180D01*
X59465160Y-46624240D02*
X59416900Y-46624240D01*
X56666180Y-45923200D02*
X56666180Y-46624240D01*
X56666180Y-46624240D02*
X56915100Y-46624240D01*
X59465160Y-46624240D02*
X59665820Y-46624240D01*
X59665820Y-46624240D02*
X59665820Y-45923200D01*
X56163160Y-46624240D02*
X56114900Y-46624240D01*
X53364180Y-45923200D02*
X53364180Y-46624240D01*
X53364180Y-46624240D02*
X53613100Y-46624240D01*
X56163160Y-46624240D02*
X56363820Y-46624240D01*
X56363820Y-46624240D02*
X56363820Y-45923200D01*
X78724760Y-46955660D02*
X78724760Y-46907400D01*
X79425800Y-44156680D02*
X78724760Y-44156680D01*
X78724760Y-44156680D02*
X78724760Y-44405600D01*
X78724760Y-46955660D02*
X78724760Y-47156320D01*
X78724760Y-47156320D02*
X79425800Y-47156320D01*
X52861160Y-46624240D02*
X52812900Y-46624240D01*
X50062180Y-45923200D02*
X50062180Y-46624240D01*
X50062180Y-46624240D02*
X50311100Y-46624240D01*
X52861160Y-46624240D02*
X53061820Y-46624240D01*
X53061820Y-46624240D02*
X53061820Y-45923200D01*
X72882760Y-46955660D02*
X72882760Y-46907400D01*
X73583800Y-44156680D02*
X72882760Y-44156680D01*
X72882760Y-44156680D02*
X72882760Y-44405600D01*
X72882760Y-46955660D02*
X72882760Y-47156320D01*
X72882760Y-47156320D02*
X73583800Y-47156320D01*
X49559160Y-46624240D02*
X49510900Y-46624240D01*
X46760180Y-45923200D02*
X46760180Y-46624240D01*
X46760180Y-46624240D02*
X47009100Y-46624240D01*
X49559160Y-46624240D02*
X49759820Y-46624240D01*
X49759820Y-46624240D02*
X49759820Y-45923200D01*
X102348000Y-40224000D02*
X102348000Y-39024000D01*
X100598000Y-39024000D02*
X100598000Y-40224000D01*
X65010000Y-39208000D02*
X65010000Y-38008000D01*
X63260000Y-38008000D02*
X63260000Y-39208000D01*
X80426000Y-30008800D02*
X81626000Y-30008800D01*
X81626000Y-28258800D02*
X80426000Y-28258800D01*
X76798200Y-32089800D02*
X76798200Y-33289800D01*
X78548200Y-33289800D02*
X78548200Y-32089800D01*
X59782000Y-42432000D02*
X58582000Y-42432000D01*
X58582000Y-44182000D02*
X59782000Y-44182000D01*
X55449500Y-48612500D02*
X55449500Y-49812500D01*
X57199500Y-49812500D02*
X57199500Y-48612500D01*
X56734000Y-42432000D02*
X55534000Y-42432000D01*
X55534000Y-44182000D02*
X56734000Y-44182000D01*
X52274500Y-48612500D02*
X52274500Y-49812500D01*
X54024500Y-49812500D02*
X54024500Y-48612500D01*
X83107500Y-46256500D02*
X83107500Y-45056500D01*
X81357500Y-45056500D02*
X81357500Y-46256500D01*
X49057000Y-44182000D02*
X50257000Y-44182000D01*
X50257000Y-42432000D02*
X49057000Y-42432000D01*
X49099500Y-48612500D02*
X49099500Y-49812500D01*
X50849500Y-49812500D02*
X50849500Y-48612500D01*
X77265500Y-46256500D02*
X77265500Y-45056500D01*
X75515500Y-45056500D02*
X75515500Y-46256500D01*
X46214000Y-46574000D02*
X46214000Y-45374000D01*
X44464000Y-45374000D02*
X44464000Y-46574000D01*
X45924500Y-48612500D02*
X45924500Y-49812500D01*
X47674500Y-49812500D02*
X47674500Y-48612500D01*
X61309000Y-29750000D02*
X61309000Y-30750000D01*
X50959000Y-29750000D02*
X50959000Y-30825000D01*
X50959000Y-40100000D02*
X50959000Y-39025000D01*
X61309000Y-40100000D02*
X61309000Y-39025000D01*
X61309000Y-29750000D02*
X60234000Y-29750000D01*
X61309000Y-40100000D02*
X60234000Y-40100000D01*
X50959000Y-40100000D02*
X52034000Y-40100000D01*
X50959000Y-29750000D02*
X52034000Y-29750000D01*
X61309000Y-30750000D02*
X62334000Y-30750000D01*
X108636000Y-34525000D02*
G75*
G03X108636000Y-34525000I-100000J0D01*
G01*
X108786000Y-35175000D02*
X108786000Y-34675000D01*
X111686000Y-35175000D02*
X108786000Y-35175000D01*
X111686000Y-34675000D02*
X111686000Y-35175000D01*
X108786000Y-34675000D02*
X111686000Y-34675000D01*
X106067000Y-39924000D02*
G75*
G03X106067000Y-39924000I-100000J0D01*
G01*
X105717000Y-39374000D02*
X105717000Y-39874000D01*
X102817000Y-39374000D02*
X105717000Y-39374000D01*
X102817000Y-39874000D02*
X102817000Y-39374000D01*
X105717000Y-39874000D02*
X102817000Y-39874000D01*
X105937000Y-43131000D02*
G75*
G03X105937000Y-43131000I-100000J0D01*
G01*
X105287000Y-43381000D02*
X105787000Y-43381000D01*
X105287000Y-46281000D02*
X105287000Y-43381000D01*
X105787000Y-46281000D02*
X105287000Y-46281000D01*
X105787000Y-43381000D02*
X105787000Y-46281000D01*
X88138000Y-37719000D02*
X87376000Y-37719000D01*
X87376000Y-37719000D02*
X87376000Y-39243000D01*
X87376000Y-39243000D02*
X88138000Y-39243000D01*
X76962000Y-36195000D02*
X76962000Y-40767000D01*
X76962000Y-40767000D02*
X88138000Y-40767000D01*
X88138000Y-40767000D02*
X88138000Y-36195000D01*
X88138000Y-36195000D02*
X76962000Y-36195000D01*
D13*
X81526000Y-34251000D02*
X80526000Y-34251000D01*
X80526000Y-32551000D02*
X81526000Y-32551000D01*
X40725200Y-34325000D02*
X40725200Y-35525000D01*
X42485200Y-35525000D02*
X42485200Y-34325000D01*
X38540800Y-35290200D02*
X38540800Y-36490200D01*
X40300800Y-36490200D02*
X40300800Y-35290200D01*
X30218000Y-63207000D02*
X29218000Y-63207000D01*
X29218000Y-61507000D02*
X30218000Y-61507000D01*
X29218000Y-59475000D02*
X30218000Y-59475000D01*
X30218000Y-61175000D02*
X29218000Y-61175000D01*
X28818000Y-63541000D02*
X30618000Y-63541000D01*
X30618000Y-66761000D02*
X28168000Y-66761000D01*
D14*
X38161000Y-59669000D02*
X42611000Y-59669000D01*
X36636000Y-66569000D02*
X42611000Y-66569000D01*
X66922946Y-92470243D02*
X66970565Y-92517862D01*
X67113422Y-92565481D01*
X67208660Y-92565481D01*
X67351518Y-92517862D01*
X67446756Y-92422624D01*
X67494375Y-92327386D01*
X67541994Y-92136910D01*
X67541994Y-91994052D01*
X67494375Y-91803576D01*
X67446756Y-91708338D01*
X67351518Y-91613100D01*
X67208660Y-91565481D01*
X67113422Y-91565481D01*
X66970565Y-91613100D01*
X66922946Y-91660719D01*
X65970565Y-92565481D02*
X66541994Y-92565481D01*
X66256280Y-92565481D02*
X66256280Y-91565481D01*
X66351518Y-91708338D01*
X66446756Y-91803576D01*
X66541994Y-91851195D01*
X61863266Y-96798403D02*
X61910885Y-96846022D01*
X62053742Y-96893641D01*
X62148980Y-96893641D01*
X62291838Y-96846022D01*
X62387076Y-96750784D01*
X62434695Y-96655546D01*
X62482314Y-96465070D01*
X62482314Y-96322212D01*
X62434695Y-96131736D01*
X62387076Y-96036498D01*
X62291838Y-95941260D01*
X62148980Y-95893641D01*
X62053742Y-95893641D01*
X61910885Y-95941260D01*
X61863266Y-95988879D01*
X61482314Y-95988879D02*
X61434695Y-95941260D01*
X61339457Y-95893641D01*
X61101361Y-95893641D01*
X61006123Y-95941260D01*
X60958504Y-95988879D01*
X60910885Y-96084117D01*
X60910885Y-96179355D01*
X60958504Y-96322212D01*
X61529933Y-96893641D01*
X60910885Y-96893641D01*
X77636619Y-112795062D02*
X77589000Y-112699824D01*
X77493762Y-112604586D01*
X77350905Y-112461729D01*
X77303286Y-112366490D01*
X77303286Y-112271252D01*
X77541381Y-112318871D02*
X77493762Y-112223633D01*
X77398524Y-112128395D01*
X77208048Y-112080776D01*
X76874714Y-112080776D01*
X76684238Y-112128395D01*
X76589000Y-112223633D01*
X76541381Y-112318871D01*
X76541381Y-112509348D01*
X76589000Y-112604586D01*
X76684238Y-112699824D01*
X76874714Y-112747443D01*
X77208048Y-112747443D01*
X77398524Y-112699824D01*
X77493762Y-112604586D01*
X77541381Y-112509348D01*
X77541381Y-112318871D01*
X77541381Y-113699824D02*
X77541381Y-113128395D01*
X77541381Y-113414109D02*
X76541381Y-113414109D01*
X76684238Y-113318871D01*
X76779476Y-113223633D01*
X76827095Y-113128395D01*
X75994521Y-107679194D02*
X75518330Y-107345860D01*
X75994521Y-107107765D02*
X74994521Y-107107765D01*
X74994521Y-107488718D01*
X75042140Y-107583956D01*
X75089759Y-107631575D01*
X75184997Y-107679194D01*
X75327854Y-107679194D01*
X75423092Y-107631575D01*
X75470711Y-107583956D01*
X75518330Y-107488718D01*
X75518330Y-107107765D01*
X75327854Y-108536337D02*
X75994521Y-108536337D01*
X74946902Y-108298241D02*
X75661188Y-108060146D01*
X75661188Y-108679194D01*
X65516665Y-99475041D02*
X65516665Y-100284565D01*
X65469046Y-100379803D01*
X65421427Y-100427422D01*
X65326189Y-100475041D01*
X65135712Y-100475041D01*
X65040474Y-100427422D01*
X64992855Y-100379803D01*
X64945236Y-100284565D01*
X64945236Y-99475041D01*
X63945236Y-100475041D02*
X64516665Y-100475041D01*
X64230951Y-100475041D02*
X64230951Y-99475041D01*
X64326189Y-99617898D01*
X64421427Y-99713136D01*
X64516665Y-99760755D01*
X66653381Y-102971695D02*
X67462905Y-102971695D01*
X67558143Y-103019314D01*
X67605762Y-103066933D01*
X67653381Y-103162171D01*
X67653381Y-103352648D01*
X67605762Y-103447886D01*
X67558143Y-103495505D01*
X67462905Y-103543124D01*
X66653381Y-103543124D01*
X66748619Y-103971695D02*
X66701000Y-104019314D01*
X66653381Y-104114552D01*
X66653381Y-104352648D01*
X66701000Y-104447886D01*
X66748619Y-104495505D01*
X66843857Y-104543124D01*
X66939095Y-104543124D01*
X67081952Y-104495505D01*
X67653381Y-103924076D01*
X67653381Y-104543124D01*
X81057738Y-96046539D02*
X81152976Y-95998920D01*
X81248214Y-95903682D01*
X81391071Y-95760825D01*
X81486310Y-95713206D01*
X81581548Y-95713206D01*
X81533929Y-95951301D02*
X81629167Y-95903682D01*
X81724405Y-95808444D01*
X81772024Y-95617968D01*
X81772024Y-95284634D01*
X81724405Y-95094158D01*
X81629167Y-94998920D01*
X81533929Y-94951301D01*
X81343452Y-94951301D01*
X81248214Y-94998920D01*
X81152976Y-95094158D01*
X81105357Y-95284634D01*
X81105357Y-95617968D01*
X81152976Y-95808444D01*
X81248214Y-95903682D01*
X81343452Y-95951301D01*
X81533929Y-95951301D01*
X80772024Y-94951301D02*
X80152976Y-94951301D01*
X80486310Y-95332253D01*
X80343452Y-95332253D01*
X80248214Y-95379872D01*
X80200595Y-95427491D01*
X80152976Y-95522730D01*
X80152976Y-95760825D01*
X80200595Y-95856063D01*
X80248214Y-95903682D01*
X80343452Y-95951301D01*
X80629167Y-95951301D01*
X80724405Y-95903682D01*
X80772024Y-95856063D01*
X78225946Y-92655381D02*
X78559280Y-92179190D01*
X78797375Y-92655381D02*
X78797375Y-91655381D01*
X78416422Y-91655381D01*
X78321184Y-91703000D01*
X78273565Y-91750619D01*
X78225946Y-91845857D01*
X78225946Y-91988714D01*
X78273565Y-92083952D01*
X78321184Y-92131571D01*
X78416422Y-92179190D01*
X78797375Y-92179190D01*
X77892613Y-91655381D02*
X77225946Y-91655381D01*
X77654518Y-92655381D01*
X82640466Y-98888541D02*
X82973800Y-98412350D01*
X83211895Y-98888541D02*
X83211895Y-97888541D01*
X82830942Y-97888541D01*
X82735704Y-97936160D01*
X82688085Y-97983779D01*
X82640466Y-98079017D01*
X82640466Y-98221874D01*
X82688085Y-98317112D01*
X82735704Y-98364731D01*
X82830942Y-98412350D01*
X83211895Y-98412350D01*
X82069038Y-98317112D02*
X82164276Y-98269493D01*
X82211895Y-98221874D01*
X82259514Y-98126636D01*
X82259514Y-98079017D01*
X82211895Y-97983779D01*
X82164276Y-97936160D01*
X82069038Y-97888541D01*
X81878561Y-97888541D01*
X81783323Y-97936160D01*
X81735704Y-97983779D01*
X81688085Y-98079017D01*
X81688085Y-98126636D01*
X81735704Y-98221874D01*
X81783323Y-98269493D01*
X81878561Y-98317112D01*
X82069038Y-98317112D01*
X82164276Y-98364731D01*
X82211895Y-98412350D01*
X82259514Y-98507589D01*
X82259514Y-98698065D01*
X82211895Y-98793303D01*
X82164276Y-98840922D01*
X82069038Y-98888541D01*
X81878561Y-98888541D01*
X81783323Y-98840922D01*
X81735704Y-98793303D01*
X81688085Y-98698065D01*
X81688085Y-98507589D01*
X81735704Y-98412350D01*
X81783323Y-98364731D01*
X81878561Y-98317112D01*
X47334466Y-98888541D02*
X47667800Y-98412350D01*
X47905895Y-98888541D02*
X47905895Y-97888541D01*
X47524942Y-97888541D01*
X47429704Y-97936160D01*
X47382085Y-97983779D01*
X47334466Y-98079017D01*
X47334466Y-98221874D01*
X47382085Y-98317112D01*
X47429704Y-98364731D01*
X47524942Y-98412350D01*
X47905895Y-98412350D01*
X46763038Y-98317112D02*
X46858276Y-98269493D01*
X46905895Y-98221874D01*
X46953514Y-98126636D01*
X46953514Y-98079017D01*
X46905895Y-97983779D01*
X46858276Y-97936160D01*
X46763038Y-97888541D01*
X46572561Y-97888541D01*
X46477323Y-97936160D01*
X46429704Y-97983779D01*
X46382085Y-98079017D01*
X46382085Y-98126636D01*
X46429704Y-98221874D01*
X46477323Y-98269493D01*
X46572561Y-98317112D01*
X46763038Y-98317112D01*
X46858276Y-98364731D01*
X46905895Y-98412350D01*
X46953514Y-98507589D01*
X46953514Y-98698065D01*
X46905895Y-98793303D01*
X46858276Y-98840922D01*
X46763038Y-98888541D01*
X46572561Y-98888541D01*
X46477323Y-98840922D01*
X46429704Y-98793303D01*
X46382085Y-98698065D01*
X46382085Y-98507589D01*
X46429704Y-98412350D01*
X46477323Y-98364731D01*
X46572561Y-98317112D01*
X42919946Y-92655381D02*
X43253280Y-92179190D01*
X43491375Y-92655381D02*
X43491375Y-91655381D01*
X43110422Y-91655381D01*
X43015184Y-91703000D01*
X42967565Y-91750619D01*
X42919946Y-91845857D01*
X42919946Y-91988714D01*
X42967565Y-92083952D01*
X43015184Y-92131571D01*
X43110422Y-92179190D01*
X43491375Y-92179190D01*
X42586613Y-91655381D02*
X41919946Y-91655381D01*
X42348518Y-92655381D01*
X45751738Y-96046539D02*
X45846976Y-95998920D01*
X45942214Y-95903682D01*
X46085071Y-95760825D01*
X46180310Y-95713206D01*
X46275548Y-95713206D01*
X46227929Y-95951301D02*
X46323167Y-95903682D01*
X46418405Y-95808444D01*
X46466024Y-95617968D01*
X46466024Y-95284634D01*
X46418405Y-95094158D01*
X46323167Y-94998920D01*
X46227929Y-94951301D01*
X46037452Y-94951301D01*
X45942214Y-94998920D01*
X45846976Y-95094158D01*
X45799357Y-95284634D01*
X45799357Y-95617968D01*
X45846976Y-95808444D01*
X45942214Y-95903682D01*
X46037452Y-95951301D01*
X46227929Y-95951301D01*
X45466024Y-94951301D02*
X44846976Y-94951301D01*
X45180310Y-95332253D01*
X45037452Y-95332253D01*
X44942214Y-95379872D01*
X44894595Y-95427491D01*
X44846976Y-95522730D01*
X44846976Y-95760825D01*
X44894595Y-95856063D01*
X44942214Y-95903682D01*
X45037452Y-95951301D01*
X45323167Y-95951301D01*
X45418405Y-95903682D01*
X45466024Y-95856063D01*
X31347381Y-102971695D02*
X32156905Y-102971695D01*
X32252143Y-103019314D01*
X32299762Y-103066933D01*
X32347381Y-103162171D01*
X32347381Y-103352648D01*
X32299762Y-103447886D01*
X32252143Y-103495505D01*
X32156905Y-103543124D01*
X31347381Y-103543124D01*
X31442619Y-103971695D02*
X31395000Y-104019314D01*
X31347381Y-104114552D01*
X31347381Y-104352648D01*
X31395000Y-104447886D01*
X31442619Y-104495505D01*
X31537857Y-104543124D01*
X31633095Y-104543124D01*
X31775952Y-104495505D01*
X32347381Y-103924076D01*
X32347381Y-104543124D01*
X30210665Y-99475041D02*
X30210665Y-100284565D01*
X30163046Y-100379803D01*
X30115427Y-100427422D01*
X30020189Y-100475041D01*
X29829712Y-100475041D01*
X29734474Y-100427422D01*
X29686855Y-100379803D01*
X29639236Y-100284565D01*
X29639236Y-99475041D01*
X28639236Y-100475041D02*
X29210665Y-100475041D01*
X28924951Y-100475041D02*
X28924951Y-99475041D01*
X29020189Y-99617898D01*
X29115427Y-99713136D01*
X29210665Y-99760755D01*
X40688521Y-107679194D02*
X40212330Y-107345860D01*
X40688521Y-107107765D02*
X39688521Y-107107765D01*
X39688521Y-107488718D01*
X39736140Y-107583956D01*
X39783759Y-107631575D01*
X39878997Y-107679194D01*
X40021854Y-107679194D01*
X40117092Y-107631575D01*
X40164711Y-107583956D01*
X40212330Y-107488718D01*
X40212330Y-107107765D01*
X40021854Y-108536337D02*
X40688521Y-108536337D01*
X39640902Y-108298241D02*
X40355188Y-108060146D01*
X40355188Y-108679194D01*
X42330619Y-112795062D02*
X42283000Y-112699824D01*
X42187762Y-112604586D01*
X42044905Y-112461729D01*
X41997286Y-112366490D01*
X41997286Y-112271252D01*
X42235381Y-112318871D02*
X42187762Y-112223633D01*
X42092524Y-112128395D01*
X41902048Y-112080776D01*
X41568714Y-112080776D01*
X41378238Y-112128395D01*
X41283000Y-112223633D01*
X41235381Y-112318871D01*
X41235381Y-112509348D01*
X41283000Y-112604586D01*
X41378238Y-112699824D01*
X41568714Y-112747443D01*
X41902048Y-112747443D01*
X42092524Y-112699824D01*
X42187762Y-112604586D01*
X42235381Y-112509348D01*
X42235381Y-112318871D01*
X42235381Y-113699824D02*
X42235381Y-113128395D01*
X42235381Y-113414109D02*
X41235381Y-113414109D01*
X41378238Y-113318871D01*
X41473476Y-113223633D01*
X41521095Y-113128395D01*
X26557266Y-96798403D02*
X26604885Y-96846022D01*
X26747742Y-96893641D01*
X26842980Y-96893641D01*
X26985838Y-96846022D01*
X27081076Y-96750784D01*
X27128695Y-96655546D01*
X27176314Y-96465070D01*
X27176314Y-96322212D01*
X27128695Y-96131736D01*
X27081076Y-96036498D01*
X26985838Y-95941260D01*
X26842980Y-95893641D01*
X26747742Y-95893641D01*
X26604885Y-95941260D01*
X26557266Y-95988879D01*
X26176314Y-95988879D02*
X26128695Y-95941260D01*
X26033457Y-95893641D01*
X25795361Y-95893641D01*
X25700123Y-95941260D01*
X25652504Y-95988879D01*
X25604885Y-96084117D01*
X25604885Y-96179355D01*
X25652504Y-96322212D01*
X26223933Y-96893641D01*
X25604885Y-96893641D01*
X31616946Y-92470243D02*
X31664565Y-92517862D01*
X31807422Y-92565481D01*
X31902660Y-92565481D01*
X32045518Y-92517862D01*
X32140756Y-92422624D01*
X32188375Y-92327386D01*
X32235994Y-92136910D01*
X32235994Y-91994052D01*
X32188375Y-91803576D01*
X32140756Y-91708338D01*
X32045518Y-91613100D01*
X31902660Y-91565481D01*
X31807422Y-91565481D01*
X31664565Y-91613100D01*
X31616946Y-91660719D01*
X30664565Y-92565481D02*
X31235994Y-92565481D01*
X30950280Y-92565481D02*
X30950280Y-91565481D01*
X31045518Y-91708338D01*
X31140756Y-91803576D01*
X31235994Y-91851195D01*
X27090666Y-79224143D02*
X27138285Y-79271762D01*
X27281142Y-79319381D01*
X27376380Y-79319381D01*
X27519238Y-79271762D01*
X27614476Y-79176524D01*
X27662095Y-79081286D01*
X27709714Y-78890810D01*
X27709714Y-78747952D01*
X27662095Y-78557476D01*
X27614476Y-78462238D01*
X27519238Y-78367000D01*
X27376380Y-78319381D01*
X27281142Y-78319381D01*
X27138285Y-78367000D01*
X27090666Y-78414619D01*
X26138285Y-79319381D02*
X26709714Y-79319381D01*
X26424000Y-79319381D02*
X26424000Y-78319381D01*
X26519238Y-78462238D01*
X26614476Y-78557476D01*
X26709714Y-78605095D01*
X29884666Y-75438143D02*
X29932285Y-75485762D01*
X30075142Y-75533381D01*
X30170380Y-75533381D01*
X30313238Y-75485762D01*
X30408476Y-75390524D01*
X30456095Y-75295286D01*
X30503714Y-75104810D01*
X30503714Y-74961952D01*
X30456095Y-74771476D01*
X30408476Y-74676238D01*
X30313238Y-74581000D01*
X30170380Y-74533381D01*
X30075142Y-74533381D01*
X29932285Y-74581000D01*
X29884666Y-74628619D01*
X29503714Y-74628619D02*
X29456095Y-74581000D01*
X29360857Y-74533381D01*
X29122761Y-74533381D01*
X29027523Y-74581000D01*
X28979904Y-74628619D01*
X28932285Y-74723857D01*
X28932285Y-74819095D01*
X28979904Y-74961952D01*
X29551333Y-75533381D01*
X28932285Y-75533381D01*
X27431905Y-81875381D02*
X27431905Y-82684905D01*
X27384286Y-82780143D01*
X27336667Y-82827762D01*
X27241429Y-82875381D01*
X27050952Y-82875381D01*
X26955714Y-82827762D01*
X26908095Y-82780143D01*
X26860476Y-82684905D01*
X26860476Y-81875381D01*
X25860476Y-82875381D02*
X26431905Y-82875381D01*
X26146191Y-82875381D02*
X26146191Y-81875381D01*
X26241429Y-82018238D01*
X26336667Y-82113476D01*
X26431905Y-82161095D01*
X41147905Y-80605381D02*
X41147905Y-81414905D01*
X41100286Y-81510143D01*
X41052667Y-81557762D01*
X40957429Y-81605381D01*
X40766952Y-81605381D01*
X40671714Y-81557762D01*
X40624095Y-81510143D01*
X40576476Y-81414905D01*
X40576476Y-80605381D01*
X40147905Y-80700619D02*
X40100286Y-80653000D01*
X40005048Y-80605381D01*
X39766952Y-80605381D01*
X39671714Y-80653000D01*
X39624095Y-80700619D01*
X39576476Y-80795857D01*
X39576476Y-80891095D01*
X39624095Y-81033952D01*
X40195524Y-81605381D01*
X39576476Y-81605381D01*
X81787905Y-80859381D02*
X81787905Y-81668905D01*
X81740286Y-81764143D01*
X81692667Y-81811762D01*
X81597429Y-81859381D01*
X81406952Y-81859381D01*
X81311714Y-81811762D01*
X81264095Y-81764143D01*
X81216476Y-81668905D01*
X81216476Y-80859381D01*
X80787905Y-80954619D02*
X80740286Y-80907000D01*
X80645048Y-80859381D01*
X80406952Y-80859381D01*
X80311714Y-80907000D01*
X80264095Y-80954619D01*
X80216476Y-81049857D01*
X80216476Y-81145095D01*
X80264095Y-81287952D01*
X80835524Y-81859381D01*
X80216476Y-81859381D01*
X68071905Y-82129381D02*
X68071905Y-82938905D01*
X68024286Y-83034143D01*
X67976667Y-83081762D01*
X67881429Y-83129381D01*
X67690952Y-83129381D01*
X67595714Y-83081762D01*
X67548095Y-83034143D01*
X67500476Y-82938905D01*
X67500476Y-82129381D01*
X66500476Y-83129381D02*
X67071905Y-83129381D01*
X66786191Y-83129381D02*
X66786191Y-82129381D01*
X66881429Y-82272238D01*
X66976667Y-82367476D01*
X67071905Y-82415095D01*
X70524666Y-75692143D02*
X70572285Y-75739762D01*
X70715142Y-75787381D01*
X70810380Y-75787381D01*
X70953238Y-75739762D01*
X71048476Y-75644524D01*
X71096095Y-75549286D01*
X71143714Y-75358810D01*
X71143714Y-75215952D01*
X71096095Y-75025476D01*
X71048476Y-74930238D01*
X70953238Y-74835000D01*
X70810380Y-74787381D01*
X70715142Y-74787381D01*
X70572285Y-74835000D01*
X70524666Y-74882619D01*
X70143714Y-74882619D02*
X70096095Y-74835000D01*
X70000857Y-74787381D01*
X69762761Y-74787381D01*
X69667523Y-74835000D01*
X69619904Y-74882619D01*
X69572285Y-74977857D01*
X69572285Y-75073095D01*
X69619904Y-75215952D01*
X70191333Y-75787381D01*
X69572285Y-75787381D01*
X67730666Y-79478143D02*
X67778285Y-79525762D01*
X67921142Y-79573381D01*
X68016380Y-79573381D01*
X68159238Y-79525762D01*
X68254476Y-79430524D01*
X68302095Y-79335286D01*
X68349714Y-79144810D01*
X68349714Y-79001952D01*
X68302095Y-78811476D01*
X68254476Y-78716238D01*
X68159238Y-78621000D01*
X68016380Y-78573381D01*
X67921142Y-78573381D01*
X67778285Y-78621000D01*
X67730666Y-78668619D01*
X66778285Y-79573381D02*
X67349714Y-79573381D01*
X67064000Y-79573381D02*
X67064000Y-78573381D01*
X67159238Y-78716238D01*
X67254476Y-78811476D01*
X67349714Y-78859095D01*
X111736143Y-87971334D02*
X111783762Y-87923715D01*
X111831381Y-87780858D01*
X111831381Y-87685620D01*
X111783762Y-87542762D01*
X111688524Y-87447524D01*
X111593286Y-87399905D01*
X111402810Y-87352286D01*
X111259952Y-87352286D01*
X111069476Y-87399905D01*
X110974238Y-87447524D01*
X110879000Y-87542762D01*
X110831381Y-87685620D01*
X110831381Y-87780858D01*
X110879000Y-87923715D01*
X110926619Y-87971334D01*
X111831381Y-88923715D02*
X111831381Y-88352286D01*
X111831381Y-88638000D02*
X110831381Y-88638000D01*
X110974238Y-88542762D01*
X111069476Y-88447524D01*
X111117095Y-88352286D01*
X107950143Y-85177334D02*
X107997762Y-85129715D01*
X108045381Y-84986858D01*
X108045381Y-84891620D01*
X107997762Y-84748762D01*
X107902524Y-84653524D01*
X107807286Y-84605905D01*
X107616810Y-84558286D01*
X107473952Y-84558286D01*
X107283476Y-84605905D01*
X107188238Y-84653524D01*
X107093000Y-84748762D01*
X107045381Y-84891620D01*
X107045381Y-84986858D01*
X107093000Y-85129715D01*
X107140619Y-85177334D01*
X107140619Y-85558286D02*
X107093000Y-85605905D01*
X107045381Y-85701143D01*
X107045381Y-85939239D01*
X107093000Y-86034477D01*
X107140619Y-86082096D01*
X107235857Y-86129715D01*
X107331095Y-86129715D01*
X107473952Y-86082096D01*
X108045381Y-85510667D01*
X108045381Y-86129715D01*
X114387381Y-87630095D02*
X115196905Y-87630095D01*
X115292143Y-87677714D01*
X115339762Y-87725333D01*
X115387381Y-87820571D01*
X115387381Y-88011048D01*
X115339762Y-88106286D01*
X115292143Y-88153905D01*
X115196905Y-88201524D01*
X114387381Y-88201524D01*
X115387381Y-89201524D02*
X115387381Y-88630095D01*
X115387381Y-88915809D02*
X114387381Y-88915809D01*
X114530238Y-88820571D01*
X114625476Y-88725333D01*
X114673095Y-88630095D01*
X113117381Y-73914095D02*
X113926905Y-73914095D01*
X114022143Y-73961714D01*
X114069762Y-74009333D01*
X114117381Y-74104571D01*
X114117381Y-74295048D01*
X114069762Y-74390286D01*
X114022143Y-74437905D01*
X113926905Y-74485524D01*
X113117381Y-74485524D01*
X113212619Y-74914095D02*
X113165000Y-74961714D01*
X113117381Y-75056952D01*
X113117381Y-75295048D01*
X113165000Y-75390286D01*
X113212619Y-75437905D01*
X113307857Y-75485524D01*
X113403095Y-75485524D01*
X113545952Y-75437905D01*
X114117381Y-74866476D01*
X114117381Y-75485524D01*
X81787905Y-64603381D02*
X81787905Y-65412905D01*
X81740286Y-65508143D01*
X81692667Y-65555762D01*
X81597429Y-65603381D01*
X81406952Y-65603381D01*
X81311714Y-65555762D01*
X81264095Y-65508143D01*
X81216476Y-65412905D01*
X81216476Y-64603381D01*
X80787905Y-64698619D02*
X80740286Y-64651000D01*
X80645048Y-64603381D01*
X80406952Y-64603381D01*
X80311714Y-64651000D01*
X80264095Y-64698619D01*
X80216476Y-64793857D01*
X80216476Y-64889095D01*
X80264095Y-65031952D01*
X80835524Y-65603381D01*
X80216476Y-65603381D01*
X68071905Y-65873381D02*
X68071905Y-66682905D01*
X68024286Y-66778143D01*
X67976667Y-66825762D01*
X67881429Y-66873381D01*
X67690952Y-66873381D01*
X67595714Y-66825762D01*
X67548095Y-66778143D01*
X67500476Y-66682905D01*
X67500476Y-65873381D01*
X66500476Y-66873381D02*
X67071905Y-66873381D01*
X66786191Y-66873381D02*
X66786191Y-65873381D01*
X66881429Y-66016238D01*
X66976667Y-66111476D01*
X67071905Y-66159095D01*
X70524666Y-59436143D02*
X70572285Y-59483762D01*
X70715142Y-59531381D01*
X70810380Y-59531381D01*
X70953238Y-59483762D01*
X71048476Y-59388524D01*
X71096095Y-59293286D01*
X71143714Y-59102810D01*
X71143714Y-58959952D01*
X71096095Y-58769476D01*
X71048476Y-58674238D01*
X70953238Y-58579000D01*
X70810380Y-58531381D01*
X70715142Y-58531381D01*
X70572285Y-58579000D01*
X70524666Y-58626619D01*
X70143714Y-58626619D02*
X70096095Y-58579000D01*
X70000857Y-58531381D01*
X69762761Y-58531381D01*
X69667523Y-58579000D01*
X69619904Y-58626619D01*
X69572285Y-58721857D01*
X69572285Y-58817095D01*
X69619904Y-58959952D01*
X70191333Y-59531381D01*
X69572285Y-59531381D01*
X67730666Y-63222143D02*
X67778285Y-63269762D01*
X67921142Y-63317381D01*
X68016380Y-63317381D01*
X68159238Y-63269762D01*
X68254476Y-63174524D01*
X68302095Y-63079286D01*
X68349714Y-62888810D01*
X68349714Y-62745952D01*
X68302095Y-62555476D01*
X68254476Y-62460238D01*
X68159238Y-62365000D01*
X68016380Y-62317381D01*
X67921142Y-62317381D01*
X67778285Y-62365000D01*
X67730666Y-62412619D01*
X66778285Y-63317381D02*
X67349714Y-63317381D01*
X67064000Y-63317381D02*
X67064000Y-62317381D01*
X67159238Y-62460238D01*
X67254476Y-62555476D01*
X67349714Y-62603095D01*
X61317166Y-25689143D02*
X61364785Y-25736762D01*
X61507642Y-25784381D01*
X61602880Y-25784381D01*
X61745738Y-25736762D01*
X61840976Y-25641524D01*
X61888595Y-25546286D01*
X61936214Y-25355810D01*
X61936214Y-25212952D01*
X61888595Y-25022476D01*
X61840976Y-24927238D01*
X61745738Y-24832000D01*
X61602880Y-24784381D01*
X61507642Y-24784381D01*
X61364785Y-24832000D01*
X61317166Y-24879619D01*
X60936214Y-24879619D02*
X60888595Y-24832000D01*
X60793357Y-24784381D01*
X60555261Y-24784381D01*
X60460023Y-24832000D01*
X60412404Y-24879619D01*
X60364785Y-24974857D01*
X60364785Y-25070095D01*
X60412404Y-25212952D01*
X60983833Y-25784381D01*
X60364785Y-25784381D01*
X49696666Y-40044643D02*
X49744285Y-40092262D01*
X49887142Y-40139881D01*
X49982380Y-40139881D01*
X50125238Y-40092262D01*
X50220476Y-39997024D01*
X50268095Y-39901786D01*
X50315714Y-39711310D01*
X50315714Y-39568452D01*
X50268095Y-39377976D01*
X50220476Y-39282738D01*
X50125238Y-39187500D01*
X49982380Y-39139881D01*
X49887142Y-39139881D01*
X49744285Y-39187500D01*
X49696666Y-39235119D01*
X48839523Y-39473214D02*
X48839523Y-40139881D01*
X49077619Y-39092262D02*
X49315714Y-39806548D01*
X48696666Y-39806548D01*
X47918666Y-29694143D02*
X47966285Y-29741762D01*
X48109142Y-29789381D01*
X48204380Y-29789381D01*
X48347238Y-29741762D01*
X48442476Y-29646524D01*
X48490095Y-29551286D01*
X48537714Y-29360810D01*
X48537714Y-29217952D01*
X48490095Y-29027476D01*
X48442476Y-28932238D01*
X48347238Y-28837000D01*
X48204380Y-28789381D01*
X48109142Y-28789381D01*
X47966285Y-28837000D01*
X47918666Y-28884619D01*
X47013904Y-28789381D02*
X47490095Y-28789381D01*
X47537714Y-29265571D01*
X47490095Y-29217952D01*
X47394857Y-29170333D01*
X47156761Y-29170333D01*
X47061523Y-29217952D01*
X47013904Y-29265571D01*
X46966285Y-29360810D01*
X46966285Y-29598905D01*
X47013904Y-29694143D01*
X47061523Y-29741762D01*
X47156761Y-29789381D01*
X47394857Y-29789381D01*
X47490095Y-29741762D01*
X47537714Y-29694143D01*
X70334143Y-36282334D02*
X70381762Y-36234715D01*
X70429381Y-36091858D01*
X70429381Y-35996620D01*
X70381762Y-35853762D01*
X70286524Y-35758524D01*
X70191286Y-35710905D01*
X70000810Y-35663286D01*
X69857952Y-35663286D01*
X69667476Y-35710905D01*
X69572238Y-35758524D01*
X69477000Y-35853762D01*
X69429381Y-35996620D01*
X69429381Y-36091858D01*
X69477000Y-36234715D01*
X69524619Y-36282334D01*
X69429381Y-37139477D02*
X69429381Y-36949000D01*
X69477000Y-36853762D01*
X69524619Y-36806143D01*
X69667476Y-36710905D01*
X69857952Y-36663286D01*
X70238905Y-36663286D01*
X70334143Y-36710905D01*
X70381762Y-36758524D01*
X70429381Y-36853762D01*
X70429381Y-37044239D01*
X70381762Y-37139477D01*
X70334143Y-37187096D01*
X70238905Y-37234715D01*
X70000810Y-37234715D01*
X69905571Y-37187096D01*
X69857952Y-37139477D01*
X69810333Y-37044239D01*
X69810333Y-36853762D01*
X69857952Y-36758524D01*
X69905571Y-36710905D01*
X70000810Y-36663286D01*
X70334143Y-40219334D02*
X70381762Y-40171715D01*
X70429381Y-40028858D01*
X70429381Y-39933620D01*
X70381762Y-39790762D01*
X70286524Y-39695524D01*
X70191286Y-39647905D01*
X70000810Y-39600286D01*
X69857952Y-39600286D01*
X69667476Y-39647905D01*
X69572238Y-39695524D01*
X69477000Y-39790762D01*
X69429381Y-39933620D01*
X69429381Y-40028858D01*
X69477000Y-40171715D01*
X69524619Y-40219334D01*
X69429381Y-40552667D02*
X69429381Y-41219334D01*
X70429381Y-40790762D01*
X64619143Y-42695834D02*
X64666762Y-42648215D01*
X64714381Y-42505358D01*
X64714381Y-42410120D01*
X64666762Y-42267262D01*
X64571524Y-42172024D01*
X64476286Y-42124405D01*
X64285810Y-42076786D01*
X64142952Y-42076786D01*
X63952476Y-42124405D01*
X63857238Y-42172024D01*
X63762000Y-42267262D01*
X63714381Y-42410120D01*
X63714381Y-42505358D01*
X63762000Y-42648215D01*
X63809619Y-42695834D01*
X64714381Y-43172024D02*
X64714381Y-43362500D01*
X64666762Y-43457739D01*
X64619143Y-43505358D01*
X64476286Y-43600596D01*
X64285810Y-43648215D01*
X63904857Y-43648215D01*
X63809619Y-43600596D01*
X63762000Y-43552977D01*
X63714381Y-43457739D01*
X63714381Y-43267262D01*
X63762000Y-43172024D01*
X63809619Y-43124405D01*
X63904857Y-43076786D01*
X64142952Y-43076786D01*
X64238190Y-43124405D01*
X64285810Y-43172024D01*
X64333429Y-43267262D01*
X64333429Y-43457739D01*
X64285810Y-43552977D01*
X64238190Y-43600596D01*
X64142952Y-43648215D01*
X45194457Y-24995143D02*
X45242076Y-25042762D01*
X45384933Y-25090381D01*
X45480171Y-25090381D01*
X45623029Y-25042762D01*
X45718267Y-24947524D01*
X45765886Y-24852286D01*
X45813505Y-24661810D01*
X45813505Y-24518952D01*
X45765886Y-24328476D01*
X45718267Y-24233238D01*
X45623029Y-24138000D01*
X45480171Y-24090381D01*
X45384933Y-24090381D01*
X45242076Y-24138000D01*
X45194457Y-24185619D01*
X44242076Y-25090381D02*
X44813505Y-25090381D01*
X44527791Y-25090381D02*
X44527791Y-24090381D01*
X44623029Y-24233238D01*
X44718267Y-24328476D01*
X44813505Y-24376095D01*
X43289695Y-25090381D02*
X43861124Y-25090381D01*
X43575410Y-25090381D02*
X43575410Y-24090381D01*
X43670648Y-24233238D01*
X43765886Y-24328476D01*
X43861124Y-24376095D01*
X100306143Y-45077143D02*
X100353762Y-45029524D01*
X100401381Y-44886667D01*
X100401381Y-44791429D01*
X100353762Y-44648571D01*
X100258524Y-44553333D01*
X100163286Y-44505714D01*
X99972810Y-44458095D01*
X99829952Y-44458095D01*
X99639476Y-44505714D01*
X99544238Y-44553333D01*
X99449000Y-44648571D01*
X99401381Y-44791429D01*
X99401381Y-44886667D01*
X99449000Y-45029524D01*
X99496619Y-45077143D01*
X100401381Y-46029524D02*
X100401381Y-45458095D01*
X100401381Y-45743809D02*
X99401381Y-45743809D01*
X99544238Y-45648571D01*
X99639476Y-45553333D01*
X99687095Y-45458095D01*
X99734714Y-46886667D02*
X100401381Y-46886667D01*
X99353762Y-46648571D02*
X100068048Y-46410476D01*
X100068048Y-47029524D01*
X75318857Y-38325643D02*
X75366476Y-38373262D01*
X75509333Y-38420881D01*
X75604571Y-38420881D01*
X75747429Y-38373262D01*
X75842667Y-38278024D01*
X75890286Y-38182786D01*
X75937905Y-37992310D01*
X75937905Y-37849452D01*
X75890286Y-37658976D01*
X75842667Y-37563738D01*
X75747429Y-37468500D01*
X75604571Y-37420881D01*
X75509333Y-37420881D01*
X75366476Y-37468500D01*
X75318857Y-37516119D01*
X74366476Y-38420881D02*
X74937905Y-38420881D01*
X74652191Y-38420881D02*
X74652191Y-37420881D01*
X74747429Y-37563738D01*
X74842667Y-37658976D01*
X74937905Y-37706595D01*
X74033143Y-37420881D02*
X73366476Y-37420881D01*
X73795048Y-38420881D01*
X87752157Y-29910043D02*
X87799776Y-29957662D01*
X87942633Y-30005281D01*
X88037871Y-30005281D01*
X88180729Y-29957662D01*
X88275967Y-29862424D01*
X88323586Y-29767186D01*
X88371205Y-29576710D01*
X88371205Y-29433852D01*
X88323586Y-29243376D01*
X88275967Y-29148138D01*
X88180729Y-29052900D01*
X88037871Y-29005281D01*
X87942633Y-29005281D01*
X87799776Y-29052900D01*
X87752157Y-29100519D01*
X86799776Y-30005281D02*
X87371205Y-30005281D01*
X87085491Y-30005281D02*
X87085491Y-29005281D01*
X87180729Y-29148138D01*
X87275967Y-29243376D01*
X87371205Y-29290995D01*
X86228348Y-29433852D02*
X86323586Y-29386233D01*
X86371205Y-29338614D01*
X86418824Y-29243376D01*
X86418824Y-29195757D01*
X86371205Y-29100519D01*
X86323586Y-29052900D01*
X86228348Y-29005281D01*
X86037871Y-29005281D01*
X85942633Y-29052900D01*
X85895014Y-29100519D01*
X85847395Y-29195757D01*
X85847395Y-29243376D01*
X85895014Y-29338614D01*
X85942633Y-29386233D01*
X86037871Y-29433852D01*
X86228348Y-29433852D01*
X86323586Y-29481471D01*
X86371205Y-29529090D01*
X86418824Y-29624329D01*
X86418824Y-29814805D01*
X86371205Y-29910043D01*
X86323586Y-29957662D01*
X86228348Y-30005281D01*
X86037871Y-30005281D01*
X85942633Y-29957662D01*
X85895014Y-29910043D01*
X85847395Y-29814805D01*
X85847395Y-29624329D01*
X85895014Y-29529090D01*
X85942633Y-29481471D01*
X86037871Y-29433852D01*
X84793057Y-29910043D02*
X84840676Y-29957662D01*
X84983533Y-30005281D01*
X85078771Y-30005281D01*
X85221629Y-29957662D01*
X85316867Y-29862424D01*
X85364486Y-29767186D01*
X85412105Y-29576710D01*
X85412105Y-29433852D01*
X85364486Y-29243376D01*
X85316867Y-29148138D01*
X85221629Y-29052900D01*
X85078771Y-29005281D01*
X84983533Y-29005281D01*
X84840676Y-29052900D01*
X84793057Y-29100519D01*
X83840676Y-30005281D02*
X84412105Y-30005281D01*
X84126391Y-30005281D02*
X84126391Y-29005281D01*
X84221629Y-29148138D01*
X84316867Y-29243376D01*
X84412105Y-29290995D01*
X83364486Y-30005281D02*
X83174010Y-30005281D01*
X83078771Y-29957662D01*
X83031152Y-29910043D01*
X82935914Y-29767186D01*
X82888295Y-29576710D01*
X82888295Y-29195757D01*
X82935914Y-29100519D01*
X82983533Y-29052900D01*
X83078771Y-29005281D01*
X83269248Y-29005281D01*
X83364486Y-29052900D01*
X83412105Y-29100519D01*
X83459724Y-29195757D01*
X83459724Y-29433852D01*
X83412105Y-29529090D01*
X83364486Y-29576710D01*
X83269248Y-29624329D01*
X83078771Y-29624329D01*
X82983533Y-29576710D01*
X82935914Y-29529090D01*
X82888295Y-29433852D01*
X111494819Y-46412162D02*
X111447200Y-46316924D01*
X111351962Y-46221686D01*
X111209105Y-46078829D01*
X111161486Y-45983590D01*
X111161486Y-45888352D01*
X111399581Y-45935971D02*
X111351962Y-45840733D01*
X111256724Y-45745495D01*
X111066248Y-45697876D01*
X110732914Y-45697876D01*
X110542438Y-45745495D01*
X110447200Y-45840733D01*
X110399581Y-45935971D01*
X110399581Y-46126448D01*
X110447200Y-46221686D01*
X110542438Y-46316924D01*
X110732914Y-46364543D01*
X111066248Y-46364543D01*
X111256724Y-46316924D01*
X111351962Y-46221686D01*
X111399581Y-46126448D01*
X111399581Y-45935971D01*
X111399581Y-47316924D02*
X111399581Y-46745495D01*
X111399581Y-47031209D02*
X110399581Y-47031209D01*
X110542438Y-46935971D01*
X110637676Y-46840733D01*
X110685295Y-46745495D01*
X59734438Y-47817019D02*
X59829676Y-47769400D01*
X59924914Y-47674162D01*
X60067771Y-47531305D01*
X60163010Y-47483686D01*
X60258248Y-47483686D01*
X60210629Y-47721781D02*
X60305867Y-47674162D01*
X60401105Y-47578924D01*
X60448724Y-47388448D01*
X60448724Y-47055114D01*
X60401105Y-46864638D01*
X60305867Y-46769400D01*
X60210629Y-46721781D01*
X60020152Y-46721781D01*
X59924914Y-46769400D01*
X59829676Y-46864638D01*
X59782057Y-47055114D01*
X59782057Y-47388448D01*
X59829676Y-47578924D01*
X59924914Y-47674162D01*
X60020152Y-47721781D01*
X60210629Y-47721781D01*
X59401105Y-46817019D02*
X59353486Y-46769400D01*
X59258248Y-46721781D01*
X59020152Y-46721781D01*
X58924914Y-46769400D01*
X58877295Y-46817019D01*
X58829676Y-46912257D01*
X58829676Y-47007495D01*
X58877295Y-47150352D01*
X59448724Y-47721781D01*
X58829676Y-47721781D01*
X56381638Y-47918619D02*
X56476876Y-47871000D01*
X56572114Y-47775762D01*
X56714971Y-47632905D01*
X56810210Y-47585286D01*
X56905448Y-47585286D01*
X56857829Y-47823381D02*
X56953067Y-47775762D01*
X57048305Y-47680524D01*
X57095924Y-47490048D01*
X57095924Y-47156714D01*
X57048305Y-46966238D01*
X56953067Y-46871000D01*
X56857829Y-46823381D01*
X56667352Y-46823381D01*
X56572114Y-46871000D01*
X56476876Y-46966238D01*
X56429257Y-47156714D01*
X56429257Y-47490048D01*
X56476876Y-47680524D01*
X56572114Y-47775762D01*
X56667352Y-47823381D01*
X56857829Y-47823381D01*
X56095924Y-46823381D02*
X55476876Y-46823381D01*
X55810210Y-47204333D01*
X55667352Y-47204333D01*
X55572114Y-47251952D01*
X55524495Y-47299571D01*
X55476876Y-47394810D01*
X55476876Y-47632905D01*
X55524495Y-47728143D01*
X55572114Y-47775762D01*
X55667352Y-47823381D01*
X55953067Y-47823381D01*
X56048305Y-47775762D01*
X56095924Y-47728143D01*
X80202019Y-43160962D02*
X80154400Y-43065724D01*
X80059162Y-42970486D01*
X79916305Y-42827629D01*
X79868686Y-42732390D01*
X79868686Y-42637152D01*
X80106781Y-42684771D02*
X80059162Y-42589533D01*
X79963924Y-42494295D01*
X79773448Y-42446676D01*
X79440114Y-42446676D01*
X79249638Y-42494295D01*
X79154400Y-42589533D01*
X79106781Y-42684771D01*
X79106781Y-42875248D01*
X79154400Y-42970486D01*
X79249638Y-43065724D01*
X79440114Y-43113343D01*
X79773448Y-43113343D01*
X79963924Y-43065724D01*
X80059162Y-42970486D01*
X80106781Y-42875248D01*
X80106781Y-42684771D01*
X79440114Y-43970486D02*
X80106781Y-43970486D01*
X79059162Y-43732390D02*
X79773448Y-43494295D01*
X79773448Y-44113343D01*
X53130438Y-47867819D02*
X53225676Y-47820200D01*
X53320914Y-47724962D01*
X53463771Y-47582105D01*
X53559010Y-47534486D01*
X53654248Y-47534486D01*
X53606629Y-47772581D02*
X53701867Y-47724962D01*
X53797105Y-47629724D01*
X53844724Y-47439248D01*
X53844724Y-47105914D01*
X53797105Y-46915438D01*
X53701867Y-46820200D01*
X53606629Y-46772581D01*
X53416152Y-46772581D01*
X53320914Y-46820200D01*
X53225676Y-46915438D01*
X53178057Y-47105914D01*
X53178057Y-47439248D01*
X53225676Y-47629724D01*
X53320914Y-47724962D01*
X53416152Y-47772581D01*
X53606629Y-47772581D01*
X52273295Y-46772581D02*
X52749486Y-46772581D01*
X52797105Y-47248771D01*
X52749486Y-47201152D01*
X52654248Y-47153533D01*
X52416152Y-47153533D01*
X52320914Y-47201152D01*
X52273295Y-47248771D01*
X52225676Y-47344010D01*
X52225676Y-47582105D01*
X52273295Y-47677343D01*
X52320914Y-47724962D01*
X52416152Y-47772581D01*
X52654248Y-47772581D01*
X52749486Y-47724962D01*
X52797105Y-47677343D01*
X72378819Y-43719762D02*
X72331200Y-43624524D01*
X72235962Y-43529286D01*
X72093105Y-43386429D01*
X72045486Y-43291190D01*
X72045486Y-43195952D01*
X72283581Y-43243571D02*
X72235962Y-43148333D01*
X72140724Y-43053095D01*
X71950248Y-43005476D01*
X71616914Y-43005476D01*
X71426438Y-43053095D01*
X71331200Y-43148333D01*
X71283581Y-43243571D01*
X71283581Y-43434048D01*
X71331200Y-43529286D01*
X71426438Y-43624524D01*
X71616914Y-43672143D01*
X71950248Y-43672143D01*
X72140724Y-43624524D01*
X72235962Y-43529286D01*
X72283581Y-43434048D01*
X72283581Y-43243571D01*
X71283581Y-44529286D02*
X71283581Y-44338809D01*
X71331200Y-44243571D01*
X71378819Y-44195952D01*
X71521676Y-44100714D01*
X71712152Y-44053095D01*
X72093105Y-44053095D01*
X72188343Y-44100714D01*
X72235962Y-44148333D01*
X72283581Y-44243571D01*
X72283581Y-44434048D01*
X72235962Y-44529286D01*
X72188343Y-44576905D01*
X72093105Y-44624524D01*
X71855010Y-44624524D01*
X71759771Y-44576905D01*
X71712152Y-44529286D01*
X71664533Y-44434048D01*
X71664533Y-44243571D01*
X71712152Y-44148333D01*
X71759771Y-44100714D01*
X71855010Y-44053095D01*
X49777638Y-47867819D02*
X49872876Y-47820200D01*
X49968114Y-47724962D01*
X50110971Y-47582105D01*
X50206210Y-47534486D01*
X50301448Y-47534486D01*
X50253829Y-47772581D02*
X50349067Y-47724962D01*
X50444305Y-47629724D01*
X50491924Y-47439248D01*
X50491924Y-47105914D01*
X50444305Y-46915438D01*
X50349067Y-46820200D01*
X50253829Y-46772581D01*
X50063352Y-46772581D01*
X49968114Y-46820200D01*
X49872876Y-46915438D01*
X49825257Y-47105914D01*
X49825257Y-47439248D01*
X49872876Y-47629724D01*
X49968114Y-47724962D01*
X50063352Y-47772581D01*
X50253829Y-47772581D01*
X49491924Y-46772581D02*
X48825257Y-46772581D01*
X49253829Y-47772581D01*
X100337881Y-38981143D02*
X99861690Y-38647809D01*
X100337881Y-38409714D02*
X99337881Y-38409714D01*
X99337881Y-38790667D01*
X99385500Y-38885905D01*
X99433119Y-38933524D01*
X99528357Y-38981143D01*
X99671214Y-38981143D01*
X99766452Y-38933524D01*
X99814071Y-38885905D01*
X99861690Y-38790667D01*
X99861690Y-38409714D01*
X100337881Y-39933524D02*
X100337881Y-39362095D01*
X100337881Y-39647809D02*
X99337881Y-39647809D01*
X99480738Y-39552571D01*
X99575976Y-39457333D01*
X99623595Y-39362095D01*
X99337881Y-40552571D02*
X99337881Y-40647810D01*
X99385500Y-40743048D01*
X99433119Y-40790667D01*
X99528357Y-40838286D01*
X99718833Y-40885905D01*
X99956929Y-40885905D01*
X100147405Y-40838286D01*
X100242643Y-40790667D01*
X100290262Y-40743048D01*
X100337881Y-40647810D01*
X100337881Y-40552571D01*
X100290262Y-40457333D01*
X100242643Y-40409714D01*
X100147405Y-40362095D01*
X99956929Y-40314476D01*
X99718833Y-40314476D01*
X99528357Y-40362095D01*
X99433119Y-40409714D01*
X99385500Y-40457333D01*
X99337881Y-40552571D01*
X64523881Y-34980643D02*
X64047690Y-34647309D01*
X64523881Y-34409214D02*
X63523881Y-34409214D01*
X63523881Y-34790167D01*
X63571500Y-34885405D01*
X63619119Y-34933024D01*
X63714357Y-34980643D01*
X63857214Y-34980643D01*
X63952452Y-34933024D01*
X64000071Y-34885405D01*
X64047690Y-34790167D01*
X64047690Y-34409214D01*
X64523881Y-35933024D02*
X64523881Y-35361595D01*
X64523881Y-35647309D02*
X63523881Y-35647309D01*
X63666738Y-35552071D01*
X63761976Y-35456833D01*
X63809595Y-35361595D01*
X63619119Y-36313976D02*
X63571500Y-36361595D01*
X63523881Y-36456833D01*
X63523881Y-36694929D01*
X63571500Y-36790167D01*
X63619119Y-36837786D01*
X63714357Y-36885405D01*
X63809595Y-36885405D01*
X63952452Y-36837786D01*
X64523881Y-36266357D01*
X64523881Y-36885405D01*
X81694257Y-27960581D02*
X82027591Y-27484390D01*
X82265686Y-27960581D02*
X82265686Y-26960581D01*
X81884733Y-26960581D01*
X81789495Y-27008200D01*
X81741876Y-27055819D01*
X81694257Y-27151057D01*
X81694257Y-27293914D01*
X81741876Y-27389152D01*
X81789495Y-27436771D01*
X81884733Y-27484390D01*
X82265686Y-27484390D01*
X80741876Y-27960581D02*
X81313305Y-27960581D01*
X81027591Y-27960581D02*
X81027591Y-26960581D01*
X81122829Y-27103438D01*
X81218067Y-27198676D01*
X81313305Y-27246295D01*
X80408543Y-26960581D02*
X79789495Y-26960581D01*
X80122829Y-27341533D01*
X79979971Y-27341533D01*
X79884733Y-27389152D01*
X79837114Y-27436771D01*
X79789495Y-27532010D01*
X79789495Y-27770105D01*
X79837114Y-27865343D01*
X79884733Y-27912962D01*
X79979971Y-27960581D01*
X80265686Y-27960581D01*
X80360924Y-27912962D01*
X80408543Y-27865343D01*
X76538081Y-32110443D02*
X76061890Y-31777109D01*
X76538081Y-31539014D02*
X75538081Y-31539014D01*
X75538081Y-31919967D01*
X75585700Y-32015205D01*
X75633319Y-32062824D01*
X75728557Y-32110443D01*
X75871414Y-32110443D01*
X75966652Y-32062824D01*
X76014271Y-32015205D01*
X76061890Y-31919967D01*
X76061890Y-31539014D01*
X76538081Y-33062824D02*
X76538081Y-32491395D01*
X76538081Y-32777109D02*
X75538081Y-32777109D01*
X75680938Y-32681871D01*
X75776176Y-32586633D01*
X75823795Y-32491395D01*
X75871414Y-33919967D02*
X76538081Y-33919967D01*
X75490462Y-33681871D02*
X76204748Y-33443776D01*
X76204748Y-34062824D01*
X60142357Y-42298881D02*
X60475691Y-41822690D01*
X60713786Y-42298881D02*
X60713786Y-41298881D01*
X60332833Y-41298881D01*
X60237595Y-41346500D01*
X60189976Y-41394119D01*
X60142357Y-41489357D01*
X60142357Y-41632214D01*
X60189976Y-41727452D01*
X60237595Y-41775071D01*
X60332833Y-41822690D01*
X60713786Y-41822690D01*
X59189976Y-42298881D02*
X59761405Y-42298881D01*
X59475691Y-42298881D02*
X59475691Y-41298881D01*
X59570929Y-41441738D01*
X59666167Y-41536976D01*
X59761405Y-41584595D01*
X58285214Y-41298881D02*
X58761405Y-41298881D01*
X58809024Y-41775071D01*
X58761405Y-41727452D01*
X58666167Y-41679833D01*
X58428071Y-41679833D01*
X58332833Y-41727452D01*
X58285214Y-41775071D01*
X58237595Y-41870310D01*
X58237595Y-42108405D01*
X58285214Y-42203643D01*
X58332833Y-42251262D01*
X58428071Y-42298881D01*
X58666167Y-42298881D01*
X58761405Y-42251262D01*
X58809024Y-42203643D01*
X55316381Y-48569643D02*
X54840190Y-48236309D01*
X55316381Y-47998214D02*
X54316381Y-47998214D01*
X54316381Y-48379167D01*
X54364000Y-48474405D01*
X54411619Y-48522024D01*
X54506857Y-48569643D01*
X54649714Y-48569643D01*
X54744952Y-48522024D01*
X54792571Y-48474405D01*
X54840190Y-48379167D01*
X54840190Y-47998214D01*
X55316381Y-49522024D02*
X55316381Y-48950595D01*
X55316381Y-49236309D02*
X54316381Y-49236309D01*
X54459238Y-49141071D01*
X54554476Y-49045833D01*
X54602095Y-48950595D01*
X54316381Y-50379167D02*
X54316381Y-50188690D01*
X54364000Y-50093452D01*
X54411619Y-50045833D01*
X54554476Y-49950595D01*
X54744952Y-49902976D01*
X55125905Y-49902976D01*
X55221143Y-49950595D01*
X55268762Y-49998214D01*
X55316381Y-50093452D01*
X55316381Y-50283929D01*
X55268762Y-50379167D01*
X55221143Y-50426786D01*
X55125905Y-50474405D01*
X54887810Y-50474405D01*
X54792571Y-50426786D01*
X54744952Y-50379167D01*
X54697333Y-50283929D01*
X54697333Y-50093452D01*
X54744952Y-49998214D01*
X54792571Y-49950595D01*
X54887810Y-49902976D01*
X56776857Y-42298881D02*
X57110191Y-41822690D01*
X57348286Y-42298881D02*
X57348286Y-41298881D01*
X56967333Y-41298881D01*
X56872095Y-41346500D01*
X56824476Y-41394119D01*
X56776857Y-41489357D01*
X56776857Y-41632214D01*
X56824476Y-41727452D01*
X56872095Y-41775071D01*
X56967333Y-41822690D01*
X57348286Y-41822690D01*
X55824476Y-42298881D02*
X56395905Y-42298881D01*
X56110191Y-42298881D02*
X56110191Y-41298881D01*
X56205429Y-41441738D01*
X56300667Y-41536976D01*
X56395905Y-41584595D01*
X55491143Y-41298881D02*
X54824476Y-41298881D01*
X55253048Y-42298881D01*
X52141381Y-48569643D02*
X51665190Y-48236309D01*
X52141381Y-47998214D02*
X51141381Y-47998214D01*
X51141381Y-48379167D01*
X51189000Y-48474405D01*
X51236619Y-48522024D01*
X51331857Y-48569643D01*
X51474714Y-48569643D01*
X51569952Y-48522024D01*
X51617571Y-48474405D01*
X51665190Y-48379167D01*
X51665190Y-47998214D01*
X52141381Y-49522024D02*
X52141381Y-48950595D01*
X52141381Y-49236309D02*
X51141381Y-49236309D01*
X51284238Y-49141071D01*
X51379476Y-49045833D01*
X51427095Y-48950595D01*
X51569952Y-50093452D02*
X51522333Y-49998214D01*
X51474714Y-49950595D01*
X51379476Y-49902976D01*
X51331857Y-49902976D01*
X51236619Y-49950595D01*
X51189000Y-49998214D01*
X51141381Y-50093452D01*
X51141381Y-50283929D01*
X51189000Y-50379167D01*
X51236619Y-50426786D01*
X51331857Y-50474405D01*
X51379476Y-50474405D01*
X51474714Y-50426786D01*
X51522333Y-50379167D01*
X51569952Y-50283929D01*
X51569952Y-50093452D01*
X51617571Y-49998214D01*
X51665190Y-49950595D01*
X51760429Y-49902976D01*
X51950905Y-49902976D01*
X52046143Y-49950595D01*
X52093762Y-49998214D01*
X52141381Y-50093452D01*
X52141381Y-50283929D01*
X52093762Y-50379167D01*
X52046143Y-50426786D01*
X51950905Y-50474405D01*
X51760429Y-50474405D01*
X51665190Y-50426786D01*
X51617571Y-50379167D01*
X51569952Y-50283929D01*
X84678781Y-45051743D02*
X84202590Y-44718409D01*
X84678781Y-44480314D02*
X83678781Y-44480314D01*
X83678781Y-44861267D01*
X83726400Y-44956505D01*
X83774019Y-45004124D01*
X83869257Y-45051743D01*
X84012114Y-45051743D01*
X84107352Y-45004124D01*
X84154971Y-44956505D01*
X84202590Y-44861267D01*
X84202590Y-44480314D01*
X84678781Y-46004124D02*
X84678781Y-45432695D01*
X84678781Y-45718409D02*
X83678781Y-45718409D01*
X83821638Y-45623171D01*
X83916876Y-45527933D01*
X83964495Y-45432695D01*
X84678781Y-46480314D02*
X84678781Y-46670790D01*
X84631162Y-46766029D01*
X84583543Y-46813648D01*
X84440686Y-46908886D01*
X84250210Y-46956505D01*
X83869257Y-46956505D01*
X83774019Y-46908886D01*
X83726400Y-46861267D01*
X83678781Y-46766029D01*
X83678781Y-46575552D01*
X83726400Y-46480314D01*
X83774019Y-46432695D01*
X83869257Y-46385076D01*
X84107352Y-46385076D01*
X84202590Y-46432695D01*
X84250210Y-46480314D01*
X84297829Y-46575552D01*
X84297829Y-46766029D01*
X84250210Y-46861267D01*
X84202590Y-46908886D01*
X84107352Y-46956505D01*
X47696381Y-42346643D02*
X47220190Y-42013309D01*
X47696381Y-41775214D02*
X46696381Y-41775214D01*
X46696381Y-42156167D01*
X46744000Y-42251405D01*
X46791619Y-42299024D01*
X46886857Y-42346643D01*
X47029714Y-42346643D01*
X47124952Y-42299024D01*
X47172571Y-42251405D01*
X47220190Y-42156167D01*
X47220190Y-41775214D01*
X46791619Y-42727595D02*
X46744000Y-42775214D01*
X46696381Y-42870452D01*
X46696381Y-43108548D01*
X46744000Y-43203786D01*
X46791619Y-43251405D01*
X46886857Y-43299024D01*
X46982095Y-43299024D01*
X47124952Y-43251405D01*
X47696381Y-42679976D01*
X47696381Y-43299024D01*
X46696381Y-43918071D02*
X46696381Y-44013310D01*
X46744000Y-44108548D01*
X46791619Y-44156167D01*
X46886857Y-44203786D01*
X47077333Y-44251405D01*
X47315429Y-44251405D01*
X47505905Y-44203786D01*
X47601143Y-44156167D01*
X47648762Y-44108548D01*
X47696381Y-44013310D01*
X47696381Y-43918071D01*
X47648762Y-43822833D01*
X47601143Y-43775214D01*
X47505905Y-43727595D01*
X47315429Y-43679976D01*
X47077333Y-43679976D01*
X46886857Y-43727595D01*
X46791619Y-43775214D01*
X46744000Y-43822833D01*
X46696381Y-43918071D01*
X48966381Y-48506143D02*
X48490190Y-48172809D01*
X48966381Y-47934714D02*
X47966381Y-47934714D01*
X47966381Y-48315667D01*
X48014000Y-48410905D01*
X48061619Y-48458524D01*
X48156857Y-48506143D01*
X48299714Y-48506143D01*
X48394952Y-48458524D01*
X48442571Y-48410905D01*
X48490190Y-48315667D01*
X48490190Y-47934714D01*
X48061619Y-48887095D02*
X48014000Y-48934714D01*
X47966381Y-49029952D01*
X47966381Y-49268048D01*
X48014000Y-49363286D01*
X48061619Y-49410905D01*
X48156857Y-49458524D01*
X48252095Y-49458524D01*
X48394952Y-49410905D01*
X48966381Y-48839476D01*
X48966381Y-49458524D01*
X48966381Y-50410905D02*
X48966381Y-49839476D01*
X48966381Y-50125190D02*
X47966381Y-50125190D01*
X48109238Y-50029952D01*
X48204476Y-49934714D01*
X48252095Y-49839476D01*
X76906381Y-42003743D02*
X76430190Y-41670409D01*
X76906381Y-41432314D02*
X75906381Y-41432314D01*
X75906381Y-41813267D01*
X75954000Y-41908505D01*
X76001619Y-41956124D01*
X76096857Y-42003743D01*
X76239714Y-42003743D01*
X76334952Y-41956124D01*
X76382571Y-41908505D01*
X76430190Y-41813267D01*
X76430190Y-41432314D01*
X76001619Y-42384695D02*
X75954000Y-42432314D01*
X75906381Y-42527552D01*
X75906381Y-42765648D01*
X75954000Y-42860886D01*
X76001619Y-42908505D01*
X76096857Y-42956124D01*
X76192095Y-42956124D01*
X76334952Y-42908505D01*
X76906381Y-42337076D01*
X76906381Y-42956124D01*
X76001619Y-43337076D02*
X75954000Y-43384695D01*
X75906381Y-43479933D01*
X75906381Y-43718029D01*
X75954000Y-43813267D01*
X76001619Y-43860886D01*
X76096857Y-43908505D01*
X76192095Y-43908505D01*
X76334952Y-43860886D01*
X76906381Y-43289457D01*
X76906381Y-43908505D01*
X44203881Y-45331143D02*
X43727690Y-44997809D01*
X44203881Y-44759714D02*
X43203881Y-44759714D01*
X43203881Y-45140667D01*
X43251500Y-45235905D01*
X43299119Y-45283524D01*
X43394357Y-45331143D01*
X43537214Y-45331143D01*
X43632452Y-45283524D01*
X43680071Y-45235905D01*
X43727690Y-45140667D01*
X43727690Y-44759714D01*
X43299119Y-45712095D02*
X43251500Y-45759714D01*
X43203881Y-45854952D01*
X43203881Y-46093048D01*
X43251500Y-46188286D01*
X43299119Y-46235905D01*
X43394357Y-46283524D01*
X43489595Y-46283524D01*
X43632452Y-46235905D01*
X44203881Y-45664476D01*
X44203881Y-46283524D01*
X43203881Y-46616857D02*
X43203881Y-47235905D01*
X43584833Y-46902571D01*
X43584833Y-47045429D01*
X43632452Y-47140667D01*
X43680071Y-47188286D01*
X43775310Y-47235905D01*
X44013405Y-47235905D01*
X44108643Y-47188286D01*
X44156262Y-47140667D01*
X44203881Y-47045429D01*
X44203881Y-46759714D01*
X44156262Y-46664476D01*
X44108643Y-46616857D01*
X45664381Y-48569643D02*
X45188190Y-48236309D01*
X45664381Y-47998214D02*
X44664381Y-47998214D01*
X44664381Y-48379167D01*
X44712000Y-48474405D01*
X44759619Y-48522024D01*
X44854857Y-48569643D01*
X44997714Y-48569643D01*
X45092952Y-48522024D01*
X45140571Y-48474405D01*
X45188190Y-48379167D01*
X45188190Y-47998214D01*
X44759619Y-48950595D02*
X44712000Y-48998214D01*
X44664381Y-49093452D01*
X44664381Y-49331548D01*
X44712000Y-49426786D01*
X44759619Y-49474405D01*
X44854857Y-49522024D01*
X44950095Y-49522024D01*
X45092952Y-49474405D01*
X45664381Y-48902976D01*
X45664381Y-49522024D01*
X44997714Y-50379167D02*
X45664381Y-50379167D01*
X44616762Y-50141071D02*
X45331048Y-49902976D01*
X45331048Y-50522024D01*
X56895905Y-27177381D02*
X56895905Y-27986905D01*
X56848286Y-28082143D01*
X56800667Y-28129762D01*
X56705429Y-28177381D01*
X56514952Y-28177381D01*
X56419714Y-28129762D01*
X56372095Y-28082143D01*
X56324476Y-27986905D01*
X56324476Y-27177381D01*
X55324476Y-28177381D02*
X55895905Y-28177381D01*
X55610191Y-28177381D02*
X55610191Y-27177381D01*
X55705429Y-27320238D01*
X55800667Y-27415476D01*
X55895905Y-27463095D01*
X108610305Y-33310581D02*
X108610305Y-34120105D01*
X108562686Y-34215343D01*
X108515067Y-34262962D01*
X108419829Y-34310581D01*
X108229352Y-34310581D01*
X108134114Y-34262962D01*
X108086495Y-34215343D01*
X108038876Y-34120105D01*
X108038876Y-33310581D01*
X107610305Y-33405819D02*
X107562686Y-33358200D01*
X107467448Y-33310581D01*
X107229352Y-33310581D01*
X107134114Y-33358200D01*
X107086495Y-33405819D01*
X107038876Y-33501057D01*
X107038876Y-33596295D01*
X107086495Y-33739152D01*
X107657924Y-34310581D01*
X107038876Y-34310581D01*
X109529095Y-30694381D02*
X109529095Y-31503905D01*
X109481476Y-31599143D01*
X109433857Y-31646762D01*
X109338619Y-31694381D01*
X109148142Y-31694381D01*
X109052904Y-31646762D01*
X109005285Y-31599143D01*
X108957666Y-31503905D01*
X108957666Y-30694381D01*
X108529095Y-31646762D02*
X108386238Y-31694381D01*
X108148142Y-31694381D01*
X108052904Y-31646762D01*
X108005285Y-31599143D01*
X107957666Y-31503905D01*
X107957666Y-31408667D01*
X108005285Y-31313429D01*
X108052904Y-31265810D01*
X108148142Y-31218190D01*
X108338619Y-31170571D01*
X108433857Y-31122952D01*
X108481476Y-31075333D01*
X108529095Y-30980095D01*
X108529095Y-30884857D01*
X108481476Y-30789619D01*
X108433857Y-30742000D01*
X108338619Y-30694381D01*
X108100523Y-30694381D01*
X107957666Y-30742000D01*
X107195761Y-31170571D02*
X107052904Y-31218190D01*
X107005285Y-31265810D01*
X106957666Y-31361048D01*
X106957666Y-31503905D01*
X107005285Y-31599143D01*
X107052904Y-31646762D01*
X107148142Y-31694381D01*
X107529095Y-31694381D01*
X107529095Y-30694381D01*
X107195761Y-30694381D01*
X107100523Y-30742000D01*
X107052904Y-30789619D01*
X107005285Y-30884857D01*
X107005285Y-30980095D01*
X107052904Y-31075333D01*
X107100523Y-31122952D01*
X107195761Y-31170571D01*
X107529095Y-31170571D01*
X106052904Y-31694381D02*
X106529095Y-31694381D01*
X106529095Y-30694381D01*
X105148142Y-31599143D02*
X105195761Y-31646762D01*
X105338618Y-31694381D01*
X105433856Y-31694381D01*
X105576714Y-31646762D01*
X105671952Y-31551524D01*
X105719571Y-31456286D01*
X105767190Y-31265810D01*
X105767190Y-31122952D01*
X105719571Y-30932476D01*
X105671952Y-30837238D01*
X105576714Y-30742000D01*
X105433856Y-30694381D01*
X105338618Y-30694381D01*
X105195761Y-30742000D01*
X105148142Y-30789619D01*
X104290999Y-30694381D02*
X104481476Y-30694381D01*
X104576714Y-30742000D01*
X104624333Y-30789619D01*
X104719571Y-30932476D01*
X104767190Y-31122952D01*
X104767190Y-31503905D01*
X104719571Y-31599143D01*
X104671952Y-31646762D01*
X104576714Y-31694381D01*
X104386237Y-31694381D01*
X104290999Y-31646762D01*
X104243380Y-31599143D01*
X104195761Y-31503905D01*
X104195761Y-31265810D01*
X104243380Y-31170571D01*
X104290999Y-31122952D01*
X104386237Y-31075333D01*
X104576714Y-31075333D01*
X104671952Y-31122952D01*
X104719571Y-31170571D01*
X104767190Y-31265810D01*
X103767190Y-31313429D02*
X103005285Y-31313429D01*
X102100523Y-31027714D02*
X102100523Y-31694381D01*
X102338619Y-30646762D02*
X102576714Y-31361048D01*
X101957666Y-31361048D01*
X101650705Y-35342581D02*
X101650705Y-36152105D01*
X101603086Y-36247343D01*
X101555467Y-36294962D01*
X101460229Y-36342581D01*
X101269752Y-36342581D01*
X101174514Y-36294962D01*
X101126895Y-36247343D01*
X101079276Y-36152105D01*
X101079276Y-35342581D01*
X100698324Y-35342581D02*
X100079276Y-35342581D01*
X100412610Y-35723533D01*
X100269752Y-35723533D01*
X100174514Y-35771152D01*
X100126895Y-35818771D01*
X100079276Y-35914010D01*
X100079276Y-36152105D01*
X100126895Y-36247343D01*
X100174514Y-36294962D01*
X100269752Y-36342581D01*
X100555467Y-36342581D01*
X100650705Y-36294962D01*
X100698324Y-36247343D01*
X101656686Y-37714181D02*
X101656686Y-36714181D01*
X101323352Y-37428467D01*
X100990019Y-36714181D01*
X100990019Y-37714181D01*
X99942400Y-37618943D02*
X99990019Y-37666562D01*
X100132876Y-37714181D01*
X100228114Y-37714181D01*
X100370972Y-37666562D01*
X100466210Y-37571324D01*
X100513829Y-37476086D01*
X100561448Y-37285610D01*
X100561448Y-37142752D01*
X100513829Y-36952276D01*
X100466210Y-36857038D01*
X100370972Y-36761800D01*
X100228114Y-36714181D01*
X100132876Y-36714181D01*
X99990019Y-36761800D01*
X99942400Y-36809419D01*
X99513829Y-37714181D02*
X99513829Y-36714181D01*
X99132876Y-36714181D01*
X99037638Y-36761800D01*
X98990019Y-36809419D01*
X98942400Y-36904657D01*
X98942400Y-37047514D01*
X98990019Y-37142752D01*
X99037638Y-37190371D01*
X99132876Y-37237990D01*
X99513829Y-37237990D01*
X98609067Y-36714181D02*
X97942400Y-36714181D01*
X98370972Y-37714181D01*
X97656686Y-36714181D02*
X97037638Y-36714181D01*
X97370972Y-37095133D01*
X97228114Y-37095133D01*
X97132876Y-37142752D01*
X97085257Y-37190371D01*
X97037638Y-37285610D01*
X97037638Y-37523705D01*
X97085257Y-37618943D01*
X97132876Y-37666562D01*
X97228114Y-37714181D01*
X97513829Y-37714181D01*
X97609067Y-37666562D01*
X97656686Y-37618943D01*
X96466210Y-37142752D02*
X96561448Y-37095133D01*
X96609067Y-37047514D01*
X96656686Y-36952276D01*
X96656686Y-36904657D01*
X96609067Y-36809419D01*
X96561448Y-36761800D01*
X96466210Y-36714181D01*
X96275733Y-36714181D01*
X96180495Y-36761800D01*
X96132876Y-36809419D01*
X96085257Y-36904657D01*
X96085257Y-36952276D01*
X96132876Y-37047514D01*
X96180495Y-37095133D01*
X96275733Y-37142752D01*
X96466210Y-37142752D01*
X96561448Y-37190371D01*
X96609067Y-37237990D01*
X96656686Y-37333229D01*
X96656686Y-37523705D01*
X96609067Y-37618943D01*
X96561448Y-37666562D01*
X96466210Y-37714181D01*
X96275733Y-37714181D01*
X96180495Y-37666562D01*
X96132876Y-37618943D01*
X96085257Y-37523705D01*
X96085257Y-37333229D01*
X96132876Y-37237990D01*
X96180495Y-37190371D01*
X96275733Y-37142752D01*
X95751924Y-36714181D02*
X95132876Y-36714181D01*
X95466210Y-37095133D01*
X95323352Y-37095133D01*
X95228114Y-37142752D01*
X95180495Y-37190371D01*
X95132876Y-37285610D01*
X95132876Y-37523705D01*
X95180495Y-37618943D01*
X95228114Y-37666562D01*
X95323352Y-37714181D01*
X95609067Y-37714181D01*
X95704305Y-37666562D01*
X95751924Y-37618943D01*
X94180495Y-37714181D02*
X94751924Y-37714181D01*
X94466210Y-37714181D02*
X94466210Y-36714181D01*
X94561448Y-36857038D01*
X94656686Y-36952276D01*
X94751924Y-36999895D01*
X106362405Y-42124381D02*
X106362405Y-42933905D01*
X106314786Y-43029143D01*
X106267167Y-43076762D01*
X106171929Y-43124381D01*
X105981452Y-43124381D01*
X105886214Y-43076762D01*
X105838595Y-43029143D01*
X105790976Y-42933905D01*
X105790976Y-42124381D01*
X104886214Y-42457714D02*
X104886214Y-43124381D01*
X105124310Y-42076762D02*
X105362405Y-42791048D01*
X104743357Y-42791048D01*
X108301286Y-47633381D02*
X108301286Y-46633381D01*
X107729857Y-47633381D01*
X107729857Y-46633381D01*
X106682238Y-47538143D02*
X106729857Y-47585762D01*
X106872714Y-47633381D01*
X106967952Y-47633381D01*
X107110810Y-47585762D01*
X107206048Y-47490524D01*
X107253667Y-47395286D01*
X107301286Y-47204810D01*
X107301286Y-47061952D01*
X107253667Y-46871476D01*
X107206048Y-46776238D01*
X107110810Y-46681000D01*
X106967952Y-46633381D01*
X106872714Y-46633381D01*
X106729857Y-46681000D01*
X106682238Y-46728619D01*
X106253667Y-47633381D02*
X106253667Y-46633381D01*
X105872714Y-46633381D01*
X105777476Y-46681000D01*
X105729857Y-46728619D01*
X105682238Y-46823857D01*
X105682238Y-46966714D01*
X105729857Y-47061952D01*
X105777476Y-47109571D01*
X105872714Y-47157190D01*
X106253667Y-47157190D01*
X104777476Y-46633381D02*
X105253667Y-46633381D01*
X105301286Y-47109571D01*
X105253667Y-47061952D01*
X105158429Y-47014333D01*
X104920333Y-47014333D01*
X104825095Y-47061952D01*
X104777476Y-47109571D01*
X104729857Y-47204810D01*
X104729857Y-47442905D01*
X104777476Y-47538143D01*
X104825095Y-47585762D01*
X104920333Y-47633381D01*
X105158429Y-47633381D01*
X105253667Y-47585762D01*
X105301286Y-47538143D01*
X103825095Y-46633381D02*
X104301286Y-46633381D01*
X104348905Y-47109571D01*
X104301286Y-47061952D01*
X104206048Y-47014333D01*
X103967952Y-47014333D01*
X103872714Y-47061952D01*
X103825095Y-47109571D01*
X103777476Y-47204810D01*
X103777476Y-47442905D01*
X103825095Y-47538143D01*
X103872714Y-47585762D01*
X103967952Y-47633381D01*
X104206048Y-47633381D01*
X104301286Y-47585762D01*
X104348905Y-47538143D01*
X102825095Y-47633381D02*
X103396524Y-47633381D01*
X103110810Y-47633381D02*
X103110810Y-46633381D01*
X103206048Y-46776238D01*
X103301286Y-46871476D01*
X103396524Y-46919095D01*
X88453981Y-37744495D02*
X89263505Y-37744495D01*
X89358743Y-37792114D01*
X89406362Y-37839733D01*
X89453981Y-37934971D01*
X89453981Y-38125448D01*
X89406362Y-38220686D01*
X89358743Y-38268305D01*
X89263505Y-38315924D01*
X88453981Y-38315924D01*
X88453981Y-39268305D02*
X88453981Y-38792114D01*
X88930171Y-38744495D01*
X88882552Y-38792114D01*
X88834933Y-38887352D01*
X88834933Y-39125448D01*
X88882552Y-39220686D01*
X88930171Y-39268305D01*
X89025410Y-39315924D01*
X89263505Y-39315924D01*
X89358743Y-39268305D01*
X89406362Y-39220686D01*
X89453981Y-39125448D01*
X89453981Y-38887352D01*
X89406362Y-38792114D01*
X89358743Y-38744495D01*
X81192666Y-35258143D02*
X81240285Y-35305762D01*
X81383142Y-35353381D01*
X81478380Y-35353381D01*
X81621238Y-35305762D01*
X81716476Y-35210524D01*
X81764095Y-35115286D01*
X81811714Y-34924810D01*
X81811714Y-34781952D01*
X81764095Y-34591476D01*
X81716476Y-34496238D01*
X81621238Y-34401000D01*
X81478380Y-34353381D01*
X81383142Y-34353381D01*
X81240285Y-34401000D01*
X81192666Y-34448619D01*
X80621238Y-34781952D02*
X80716476Y-34734333D01*
X80764095Y-34686714D01*
X80811714Y-34591476D01*
X80811714Y-34543857D01*
X80764095Y-34448619D01*
X80716476Y-34401000D01*
X80621238Y-34353381D01*
X80430761Y-34353381D01*
X80335523Y-34401000D01*
X80287904Y-34448619D01*
X80240285Y-34543857D01*
X80240285Y-34591476D01*
X80287904Y-34686714D01*
X80335523Y-34734333D01*
X80430761Y-34781952D01*
X80621238Y-34781952D01*
X80716476Y-34829571D01*
X80764095Y-34877190D01*
X80811714Y-34972429D01*
X80811714Y-35162905D01*
X80764095Y-35258143D01*
X80716476Y-35305762D01*
X80621238Y-35353381D01*
X80430761Y-35353381D01*
X80335523Y-35305762D01*
X80287904Y-35258143D01*
X80240285Y-35162905D01*
X80240285Y-34972429D01*
X80287904Y-34877190D01*
X80335523Y-34829571D01*
X80430761Y-34781952D01*
X41981381Y-31208743D02*
X41505190Y-30875409D01*
X41981381Y-30637314D02*
X40981381Y-30637314D01*
X40981381Y-31018267D01*
X41029000Y-31113505D01*
X41076619Y-31161124D01*
X41171857Y-31208743D01*
X41314714Y-31208743D01*
X41409952Y-31161124D01*
X41457571Y-31113505D01*
X41505190Y-31018267D01*
X41505190Y-30637314D01*
X41076619Y-31589695D02*
X41029000Y-31637314D01*
X40981381Y-31732552D01*
X40981381Y-31970648D01*
X41029000Y-32065886D01*
X41076619Y-32113505D01*
X41171857Y-32161124D01*
X41267095Y-32161124D01*
X41409952Y-32113505D01*
X41981381Y-31542076D01*
X41981381Y-32161124D01*
X40981381Y-33065886D02*
X40981381Y-32589695D01*
X41457571Y-32542076D01*
X41409952Y-32589695D01*
X41362333Y-32684933D01*
X41362333Y-32923029D01*
X41409952Y-33018267D01*
X41457571Y-33065886D01*
X41552810Y-33113505D01*
X41790905Y-33113505D01*
X41886143Y-33065886D01*
X41933762Y-33018267D01*
X41981381Y-32923029D01*
X41981381Y-32684933D01*
X41933762Y-32589695D01*
X41886143Y-32542076D01*
X39974781Y-32326343D02*
X39498590Y-31993009D01*
X39974781Y-31754914D02*
X38974781Y-31754914D01*
X38974781Y-32135867D01*
X39022400Y-32231105D01*
X39070019Y-32278724D01*
X39165257Y-32326343D01*
X39308114Y-32326343D01*
X39403352Y-32278724D01*
X39450971Y-32231105D01*
X39498590Y-32135867D01*
X39498590Y-31754914D01*
X39070019Y-32707295D02*
X39022400Y-32754914D01*
X38974781Y-32850152D01*
X38974781Y-33088248D01*
X39022400Y-33183486D01*
X39070019Y-33231105D01*
X39165257Y-33278724D01*
X39260495Y-33278724D01*
X39403352Y-33231105D01*
X39974781Y-32659676D01*
X39974781Y-33278724D01*
X38974781Y-34135867D02*
X38974781Y-33945390D01*
X39022400Y-33850152D01*
X39070019Y-33802533D01*
X39212876Y-33707295D01*
X39403352Y-33659676D01*
X39784305Y-33659676D01*
X39879543Y-33707295D01*
X39927162Y-33754914D01*
X39974781Y-33850152D01*
X39974781Y-34040629D01*
X39927162Y-34135867D01*
X39879543Y-34183486D01*
X39784305Y-34231105D01*
X39546210Y-34231105D01*
X39450971Y-34183486D01*
X39403352Y-34135867D01*
X39355733Y-34040629D01*
X39355733Y-33850152D01*
X39403352Y-33754914D01*
X39450971Y-33707295D01*
X39546210Y-33659676D01*
X27090666Y-62968143D02*
X27138285Y-63015762D01*
X27281142Y-63063381D01*
X27376380Y-63063381D01*
X27519238Y-63015762D01*
X27614476Y-62920524D01*
X27662095Y-62825286D01*
X27709714Y-62634810D01*
X27709714Y-62491952D01*
X27662095Y-62301476D01*
X27614476Y-62206238D01*
X27519238Y-62111000D01*
X27376380Y-62063381D01*
X27281142Y-62063381D01*
X27138285Y-62111000D01*
X27090666Y-62158619D01*
X26138285Y-63063381D02*
X26709714Y-63063381D01*
X26424000Y-63063381D02*
X26424000Y-62063381D01*
X26519238Y-62206238D01*
X26614476Y-62301476D01*
X26709714Y-62349095D01*
X29884666Y-59182143D02*
X29932285Y-59229762D01*
X30075142Y-59277381D01*
X30170380Y-59277381D01*
X30313238Y-59229762D01*
X30408476Y-59134524D01*
X30456095Y-59039286D01*
X30503714Y-58848810D01*
X30503714Y-58705952D01*
X30456095Y-58515476D01*
X30408476Y-58420238D01*
X30313238Y-58325000D01*
X30170380Y-58277381D01*
X30075142Y-58277381D01*
X29932285Y-58325000D01*
X29884666Y-58372619D01*
X29503714Y-58372619D02*
X29456095Y-58325000D01*
X29360857Y-58277381D01*
X29122761Y-58277381D01*
X29027523Y-58325000D01*
X28979904Y-58372619D01*
X28932285Y-58467857D01*
X28932285Y-58563095D01*
X28979904Y-58705952D01*
X29551333Y-59277381D01*
X28932285Y-59277381D01*
X27431905Y-65619381D02*
X27431905Y-66428905D01*
X27384286Y-66524143D01*
X27336667Y-66571762D01*
X27241429Y-66619381D01*
X27050952Y-66619381D01*
X26955714Y-66571762D01*
X26908095Y-66524143D01*
X26860476Y-66428905D01*
X26860476Y-65619381D01*
X25860476Y-66619381D02*
X26431905Y-66619381D01*
X26146191Y-66619381D02*
X26146191Y-65619381D01*
X26241429Y-65762238D01*
X26336667Y-65857476D01*
X26431905Y-65905095D01*
X41147905Y-64349381D02*
X41147905Y-65158905D01*
X41100286Y-65254143D01*
X41052667Y-65301762D01*
X40957429Y-65349381D01*
X40766952Y-65349381D01*
X40671714Y-65301762D01*
X40624095Y-65254143D01*
X40576476Y-65158905D01*
X40576476Y-64349381D01*
X40147905Y-64444619D02*
X40100286Y-64397000D01*
X40005048Y-64349381D01*
X39766952Y-64349381D01*
X39671714Y-64397000D01*
X39624095Y-64444619D01*
X39576476Y-64539857D01*
X39576476Y-64635095D01*
X39624095Y-64777952D01*
X40195524Y-65349381D01*
X39576476Y-65349381D01*
M02*
