M48
;DRILL file {Pcbnew (2013-may-18)-stable} date Вс 07 июн 2015 12:28:56
;FORMAT={-:-/ absolute / metric / decimal}
FMAT,2
METRIC,TZ
T1C0.300
T2C1.000
T3C3.000
%
G90
G05
M71
T1
X68.5Y-61.8
X68.7Y-71.
X68.8Y-55.95
X70.2Y-53.1
X70.4Y-64.7
X73.2Y-56.9
X74.7Y-62.2
X77.15Y-57.85
X77.5Y-55.3
X78.1Y-53.7
X84.Y-65.4
X88.6Y-59.6
X91.05Y-52.9
X92.3Y-54.6
X95.7Y-55.2
X98.2Y-64.8
X98.6Y-56.8
X100.35Y-52.95
X101.25Y-61.5
X102.025Y-52.95
X102.05Y-60.95
X106.95Y-51.375
T2
X64.23Y-47.63
X64.23Y-50.17
X64.23Y-52.71
X64.23Y-55.25
X64.23Y-57.79
X64.23Y-60.33
X64.23Y-62.87
X64.23Y-65.41
X64.23Y-67.95
X64.23Y-70.49
X66.77Y-47.63
X66.77Y-50.17
X66.77Y-52.71
X66.77Y-55.25
X66.77Y-57.79
X66.77Y-60.33
X66.77Y-62.87
X66.77Y-65.41
X66.77Y-67.95
X66.77Y-70.49
X69.56Y-69.2
X70.31Y-48.4
X72.1Y-69.2
X72.85Y-48.4
X74.64Y-69.2
X75.39Y-48.4
X77.41Y-69.2
X78.76Y-48.4
X79.95Y-69.2
X81.3Y-48.4
X82.49Y-69.2
X83.84Y-48.4
X85.26Y-69.2
X87.28Y-48.4
X87.8Y-69.2
X89.82Y-48.4
X90.34Y-69.2
X93.14Y-47.58
X93.14Y-50.12
X93.14Y-67.93
X93.14Y-70.47
X95.68Y-47.58
X95.68Y-50.12
X95.68Y-67.93
X95.68Y-70.47
X98.22Y-47.58
X98.22Y-50.12
X98.22Y-67.93
X98.22Y-70.47
X100.76Y-47.58
X100.76Y-50.12
X100.76Y-67.93
X100.76Y-70.47
X103.53Y-47.63
X103.53Y-50.17
X103.53Y-52.71
X103.53Y-55.25
X103.53Y-57.79
X103.53Y-60.33
X103.53Y-62.87
X103.53Y-65.41
X103.53Y-67.95
X103.53Y-70.49
X106.07Y-47.63
X106.07Y-50.17
X106.07Y-52.71
X106.07Y-55.25
X106.07Y-57.79
X106.07Y-60.33
X106.07Y-62.87
X106.07Y-65.41
X106.07Y-67.95
X106.07Y-70.49
X108.95Y-52.49
X108.95Y-55.03
X108.95Y-57.57
X108.95Y-60.11
X109.9Y-62.99
X109.9Y-65.53
X109.9Y-68.07
X109.9Y-70.61
T3
X79.6Y-64.
X109.9Y-49.
T0
M30
