G04 (created by PCBNEW (2013-may-18)-stable) date Вс 07 июн 2015 12:30:23*
%MOIN*%
G04 Gerber Fmt 3.4, Leading zero omitted, Abs format*
%FSLAX34Y34*%
G01*
G70*
G90*
G04 APERTURE LIST*
%ADD10C,0.00590551*%
%ADD11R,0.036X0.036*%
%ADD12R,0.06X0.06*%
%ADD13C,0.06*%
%ADD14R,0.1004X0.0984*%
%ADD15R,0.15748X0.11811*%
%ADD16C,0.16*%
G04 APERTURE END LIST*
G54D10*
G54D11*
X29265Y-24031D03*
X29265Y-23331D03*
X30065Y-23681D03*
X28281Y-25448D03*
X28281Y-24748D03*
X29081Y-25098D03*
X27198Y-20743D03*
X27198Y-20043D03*
X27998Y-20393D03*
X28342Y-22211D03*
X27642Y-22211D03*
X27992Y-21411D03*
X29166Y-20684D03*
X29166Y-19984D03*
X29966Y-20334D03*
X27375Y-24031D03*
X27375Y-23331D03*
X28175Y-23681D03*
G54D12*
X39669Y-27744D03*
G54D13*
X39669Y-26744D03*
X38669Y-27744D03*
X38669Y-26744D03*
X37669Y-27744D03*
X37669Y-26744D03*
X36669Y-27744D03*
X36669Y-26744D03*
G54D12*
X36669Y-18732D03*
G54D13*
X36669Y-19732D03*
X37669Y-18732D03*
X37669Y-19732D03*
X38669Y-18732D03*
X38669Y-19732D03*
X39669Y-18732D03*
X39669Y-19732D03*
G54D12*
X43267Y-24799D03*
G54D13*
X43267Y-25799D03*
X43267Y-26799D03*
X43267Y-27799D03*
G54D12*
X42893Y-23665D03*
G54D13*
X42893Y-22665D03*
X42893Y-21665D03*
X42893Y-20665D03*
G54D12*
X31007Y-19055D03*
G54D13*
X32007Y-19055D03*
X33007Y-19055D03*
G54D12*
X35566Y-27244D03*
G54D13*
X34566Y-27244D03*
X33566Y-27244D03*
G54D12*
X27385Y-27244D03*
G54D13*
X28385Y-27244D03*
X29385Y-27244D03*
G54D12*
X27681Y-19055D03*
G54D13*
X28681Y-19055D03*
X29681Y-19055D03*
G54D12*
X30476Y-27244D03*
G54D13*
X31476Y-27244D03*
X32476Y-27244D03*
G54D12*
X35362Y-19055D03*
G54D13*
X34362Y-19055D03*
G54D12*
X41759Y-18751D03*
G54D13*
X40759Y-18751D03*
X41759Y-19751D03*
X40759Y-19751D03*
X41759Y-20751D03*
X40759Y-20751D03*
X41759Y-21751D03*
X40759Y-21751D03*
X41759Y-22751D03*
X40759Y-22751D03*
X41759Y-23751D03*
X40759Y-23751D03*
X41759Y-24751D03*
X40759Y-24751D03*
X41759Y-25751D03*
X40759Y-25751D03*
X41759Y-26751D03*
X40759Y-26751D03*
X41759Y-27751D03*
X40759Y-27751D03*
G54D12*
X26287Y-18751D03*
G54D13*
X25287Y-18751D03*
X26287Y-19751D03*
X25287Y-19751D03*
X26287Y-20751D03*
X25287Y-20751D03*
X26287Y-21751D03*
X25287Y-21751D03*
X26287Y-22751D03*
X25287Y-22751D03*
X26287Y-23751D03*
X25287Y-23751D03*
X26287Y-24751D03*
X25287Y-24751D03*
X26287Y-25751D03*
X25287Y-25751D03*
X26287Y-26751D03*
X25287Y-26751D03*
X26287Y-27751D03*
X25287Y-27751D03*
G54D14*
X32844Y-20334D03*
X30856Y-20334D03*
X31682Y-21791D03*
X29694Y-21791D03*
G54D15*
X38838Y-23228D03*
X31555Y-23228D03*
G54D16*
X43267Y-19291D03*
X31338Y-25196D03*
M02*
