G04 (created by PCBNEW (2013-may-18)-stable) date Сб 29 авг 2015 23:53:58*
%MOIN*%
G04 Gerber Fmt 3.4, Leading zero omitted, Abs format*
%FSLAX34Y34*%
G01*
G70*
G90*
G04 APERTURE LIST*
%ADD10C,0.00590551*%
%ADD11R,0.036X0.036*%
%ADD12R,0.144X0.08*%
%ADD13R,0.04X0.08*%
%ADD14R,0.035X0.055*%
%ADD15R,0.06X0.06*%
%ADD16C,0.06*%
%ADD17C,0.16*%
%ADD18C,0.023622*%
%ADD19C,0.023622*%
%ADD20C,0.01*%
%ADD21C,0.00787402*%
G04 APERTURE END LIST*
G54D10*
G54D11*
X35262Y-20842D03*
X35262Y-20142D03*
X34462Y-20492D03*
G54D12*
X34881Y-25217D03*
G54D13*
X34881Y-22617D03*
X35781Y-22617D03*
X33981Y-22617D03*
G54D14*
X35217Y-21515D03*
X34467Y-21515D03*
G54D15*
X39570Y-19771D03*
G54D16*
X39570Y-18771D03*
X38570Y-19771D03*
X38570Y-18771D03*
X37570Y-19771D03*
X37570Y-18771D03*
X36570Y-19771D03*
X36570Y-18771D03*
G54D15*
X36629Y-26783D03*
G54D16*
X36629Y-27783D03*
X37629Y-26783D03*
X37629Y-27783D03*
X38629Y-26783D03*
X38629Y-27783D03*
X39629Y-26783D03*
X39629Y-27783D03*
G54D15*
X43267Y-24799D03*
G54D16*
X43267Y-25799D03*
X43267Y-26799D03*
X43267Y-27799D03*
G54D15*
X42893Y-20665D03*
G54D16*
X42893Y-21665D03*
X42893Y-22665D03*
X42893Y-23665D03*
G54D15*
X31007Y-19055D03*
G54D16*
X32007Y-19055D03*
X33007Y-19055D03*
G54D15*
X35566Y-27244D03*
G54D16*
X34566Y-27244D03*
X33566Y-27244D03*
G54D15*
X27385Y-27244D03*
G54D16*
X28385Y-27244D03*
X29385Y-27244D03*
G54D15*
X27681Y-19055D03*
G54D16*
X28681Y-19055D03*
X29681Y-19055D03*
G54D15*
X30476Y-27244D03*
G54D16*
X31476Y-27244D03*
X32476Y-27244D03*
G54D15*
X35362Y-19055D03*
G54D16*
X34362Y-19055D03*
G54D15*
X40759Y-27783D03*
G54D16*
X41759Y-27783D03*
X40759Y-26783D03*
X41759Y-26783D03*
X40759Y-25783D03*
X41759Y-25783D03*
X40759Y-24783D03*
X41759Y-24783D03*
X40759Y-23783D03*
X41759Y-23783D03*
X40759Y-22783D03*
X41759Y-22783D03*
X40759Y-21783D03*
X41759Y-21783D03*
X40759Y-20783D03*
X41759Y-20783D03*
X40759Y-19783D03*
X41759Y-19783D03*
X40759Y-18783D03*
X41759Y-18783D03*
G54D15*
X26287Y-18751D03*
G54D16*
X25287Y-18751D03*
X26287Y-19751D03*
X25287Y-19751D03*
X26287Y-20751D03*
X25287Y-20751D03*
X26287Y-21751D03*
X25287Y-21751D03*
X26287Y-22751D03*
X25287Y-22751D03*
X26287Y-23751D03*
X25287Y-23751D03*
X26287Y-24751D03*
X25287Y-24751D03*
X26287Y-25751D03*
X25287Y-25751D03*
X26287Y-26751D03*
X25287Y-26751D03*
X26287Y-27751D03*
X25287Y-27751D03*
G54D17*
X43267Y-19291D03*
X31338Y-25196D03*
G54D18*
X34881Y-23464D03*
X30374Y-22775D03*
X42488Y-24838D03*
X42488Y-25728D03*
X33070Y-25748D03*
X38818Y-22362D03*
X29409Y-24488D03*
X27716Y-25472D03*
X26968Y-24330D03*
X27637Y-20905D03*
X28818Y-22401D03*
X30748Y-21141D03*
X30511Y-21771D03*
X38661Y-25511D03*
X37677Y-21732D03*
X36338Y-21496D03*
X27047Y-27952D03*
X40492Y-24291D03*
X27086Y-22027D03*
X39901Y-25275D03*
X35846Y-20826D03*
G54D19*
X34881Y-23464D02*
X34881Y-22617D01*
X26614Y-20078D02*
X26287Y-19751D01*
X27677Y-20078D02*
X26614Y-20078D01*
X30374Y-22775D02*
X27677Y-20078D01*
X43224Y-20665D02*
X43590Y-21031D01*
X43590Y-21031D02*
X43590Y-23787D01*
X43590Y-23787D02*
X43125Y-24251D01*
X43125Y-24251D02*
X42759Y-24251D01*
X42759Y-24251D02*
X42488Y-24523D01*
X42488Y-24523D02*
X42488Y-24838D01*
X43224Y-20665D02*
X42893Y-20665D01*
X37007Y-21732D02*
X37007Y-23858D01*
X37007Y-23858D02*
X38661Y-25511D01*
X37677Y-21732D02*
X37007Y-21732D01*
X37007Y-21732D02*
X36574Y-21732D01*
X36574Y-21732D02*
X36338Y-21496D01*
G54D20*
X25287Y-21751D02*
X25287Y-21759D01*
X26791Y-28208D02*
X27047Y-27952D01*
X25098Y-28208D02*
X26791Y-28208D01*
X24842Y-27952D02*
X25098Y-28208D01*
X24842Y-22204D02*
X24842Y-27952D01*
X25287Y-21759D02*
X24842Y-22204D01*
G54D19*
X34362Y-19055D02*
X34362Y-20392D01*
X34362Y-20392D02*
X34462Y-20492D01*
G54D20*
X39570Y-18771D02*
X39594Y-18771D01*
X42204Y-21338D02*
X41759Y-21783D01*
X42204Y-18582D02*
X42204Y-21338D01*
X41948Y-18326D02*
X42204Y-18582D01*
X40039Y-18326D02*
X41948Y-18326D01*
X39594Y-18771D02*
X40039Y-18326D01*
X39629Y-27783D02*
X39629Y-27779D01*
X40177Y-19366D02*
X40759Y-18783D01*
X40177Y-23996D02*
X40177Y-19366D01*
X39133Y-25039D02*
X40177Y-23996D01*
X39133Y-27283D02*
X39133Y-25039D01*
X39629Y-27779D02*
X39133Y-27283D01*
X41759Y-19783D02*
X41751Y-19783D01*
X40984Y-24291D02*
X40492Y-24291D01*
X41259Y-24015D02*
X40984Y-24291D01*
X41259Y-20275D02*
X41259Y-24015D01*
X41751Y-19783D02*
X41259Y-20275D01*
X26287Y-20751D02*
X26287Y-20755D01*
X27086Y-21555D02*
X27086Y-22027D01*
X26287Y-20755D02*
X27086Y-21555D01*
G54D19*
X39901Y-25275D02*
X39984Y-25275D01*
X42751Y-25283D02*
X43267Y-25799D01*
X39992Y-25283D02*
X42751Y-25283D01*
X39984Y-25275D02*
X39992Y-25283D01*
X43267Y-26799D02*
X43267Y-27799D01*
X35262Y-20842D02*
X35831Y-20842D01*
X35831Y-20842D02*
X35846Y-20826D01*
X35217Y-21515D02*
X35295Y-21515D01*
X35781Y-22002D02*
X35781Y-22617D01*
X35295Y-21515D02*
X35781Y-22002D01*
X35262Y-20842D02*
X35262Y-21471D01*
X35262Y-21471D02*
X35217Y-21515D01*
G54D10*
G36*
X40457Y-18494D02*
X40405Y-18546D01*
X40341Y-18699D01*
X40341Y-18866D01*
X40370Y-18935D01*
X40058Y-19247D01*
X40021Y-19301D01*
X40009Y-19366D01*
X40009Y-19366D01*
X40009Y-23926D01*
X39988Y-23946D01*
X39988Y-20048D01*
X39988Y-19448D01*
X39971Y-19404D01*
X39937Y-19371D01*
X39894Y-19353D01*
X39847Y-19353D01*
X39247Y-19353D01*
X39204Y-19371D01*
X39170Y-19404D01*
X39152Y-19448D01*
X39152Y-19495D01*
X39152Y-20095D01*
X39170Y-20138D01*
X39203Y-20171D01*
X39247Y-20189D01*
X39294Y-20189D01*
X39894Y-20189D01*
X39937Y-20171D01*
X39970Y-20138D01*
X39988Y-20095D01*
X39988Y-20048D01*
X39988Y-23946D01*
X39014Y-24920D01*
X38989Y-24959D01*
X38989Y-19688D01*
X38989Y-18688D01*
X38925Y-18535D01*
X38808Y-18417D01*
X38654Y-18353D01*
X38488Y-18353D01*
X38334Y-18416D01*
X38216Y-18534D01*
X38152Y-18688D01*
X38152Y-18854D01*
X38216Y-19008D01*
X38333Y-19125D01*
X38487Y-19189D01*
X38653Y-19189D01*
X38807Y-19126D01*
X38925Y-19008D01*
X38988Y-18855D01*
X38989Y-18688D01*
X38989Y-19688D01*
X38925Y-19535D01*
X38808Y-19417D01*
X38654Y-19353D01*
X38488Y-19353D01*
X38334Y-19416D01*
X38216Y-19534D01*
X38152Y-19688D01*
X38152Y-19854D01*
X38216Y-20008D01*
X38333Y-20125D01*
X38487Y-20189D01*
X38653Y-20189D01*
X38807Y-20126D01*
X38925Y-20008D01*
X38988Y-19855D01*
X38989Y-19688D01*
X38989Y-24959D01*
X38978Y-24975D01*
X38965Y-25039D01*
X38965Y-25039D01*
X38965Y-26528D01*
X38867Y-26429D01*
X38713Y-26365D01*
X38547Y-26365D01*
X38393Y-26428D01*
X38275Y-26546D01*
X38211Y-26699D01*
X38211Y-26866D01*
X38275Y-27019D01*
X38392Y-27137D01*
X38546Y-27201D01*
X38712Y-27201D01*
X38866Y-27138D01*
X38965Y-27039D01*
X38965Y-27283D01*
X38965Y-27283D01*
X38978Y-27347D01*
X39014Y-27402D01*
X39241Y-27628D01*
X39211Y-27699D01*
X39211Y-27866D01*
X39275Y-28019D01*
X39392Y-28137D01*
X39539Y-28198D01*
X38719Y-28198D01*
X38866Y-28138D01*
X38984Y-28020D01*
X39047Y-27866D01*
X39048Y-27700D01*
X38984Y-27546D01*
X38867Y-27429D01*
X38713Y-27365D01*
X38547Y-27365D01*
X38393Y-27428D01*
X38275Y-27546D01*
X38211Y-27699D01*
X38211Y-27866D01*
X38275Y-28019D01*
X38392Y-28137D01*
X38539Y-28198D01*
X38071Y-28198D01*
X38071Y-18851D01*
X38063Y-18653D01*
X38002Y-18506D01*
X37920Y-18477D01*
X37626Y-18771D01*
X37920Y-19066D01*
X38002Y-19036D01*
X38071Y-18851D01*
X38071Y-28198D01*
X37719Y-28198D01*
X37866Y-28138D01*
X37984Y-28020D01*
X38047Y-27866D01*
X38048Y-27700D01*
X38048Y-26700D01*
X37989Y-26557D01*
X37989Y-19688D01*
X37925Y-19535D01*
X37865Y-19474D01*
X37865Y-19121D01*
X37570Y-18827D01*
X37515Y-18883D01*
X37515Y-18771D01*
X37220Y-18477D01*
X37139Y-18506D01*
X37070Y-18692D01*
X37078Y-18889D01*
X37139Y-19036D01*
X37220Y-19066D01*
X37515Y-18771D01*
X37515Y-18883D01*
X37276Y-19121D01*
X37305Y-19203D01*
X37491Y-19271D01*
X37688Y-19264D01*
X37835Y-19203D01*
X37865Y-19121D01*
X37865Y-19474D01*
X37808Y-19417D01*
X37654Y-19353D01*
X37488Y-19353D01*
X37334Y-19416D01*
X37216Y-19534D01*
X37152Y-19688D01*
X37152Y-19854D01*
X37216Y-20008D01*
X37333Y-20125D01*
X37487Y-20189D01*
X37653Y-20189D01*
X37807Y-20126D01*
X37925Y-20008D01*
X37988Y-19855D01*
X37989Y-19688D01*
X37989Y-26557D01*
X37984Y-26546D01*
X37867Y-26429D01*
X37713Y-26365D01*
X37547Y-26365D01*
X37393Y-26428D01*
X37275Y-26546D01*
X37211Y-26699D01*
X37211Y-26866D01*
X37275Y-27019D01*
X37392Y-27137D01*
X37546Y-27201D01*
X37712Y-27201D01*
X37866Y-27138D01*
X37984Y-27020D01*
X38047Y-26866D01*
X38048Y-26700D01*
X38048Y-27700D01*
X37984Y-27546D01*
X37867Y-27429D01*
X37713Y-27365D01*
X37547Y-27365D01*
X37393Y-27428D01*
X37275Y-27546D01*
X37211Y-27699D01*
X37211Y-27866D01*
X37275Y-28019D01*
X37392Y-28137D01*
X37539Y-28198D01*
X37126Y-28198D01*
X37126Y-27044D01*
X37126Y-26522D01*
X37126Y-26444D01*
X37096Y-26371D01*
X37041Y-26316D01*
X36989Y-26294D01*
X36989Y-19688D01*
X36989Y-18688D01*
X36925Y-18535D01*
X36808Y-18417D01*
X36654Y-18353D01*
X36488Y-18353D01*
X36334Y-18416D01*
X36216Y-18534D01*
X36152Y-18688D01*
X36152Y-18854D01*
X36216Y-19008D01*
X36333Y-19125D01*
X36487Y-19189D01*
X36653Y-19189D01*
X36807Y-19126D01*
X36925Y-19008D01*
X36988Y-18855D01*
X36989Y-18688D01*
X36989Y-19688D01*
X36925Y-19535D01*
X36808Y-19417D01*
X36654Y-19353D01*
X36488Y-19353D01*
X36334Y-19416D01*
X36216Y-19534D01*
X36152Y-19688D01*
X36152Y-19854D01*
X36216Y-20008D01*
X36333Y-20125D01*
X36487Y-20189D01*
X36653Y-20189D01*
X36807Y-20126D01*
X36925Y-20008D01*
X36988Y-19855D01*
X36989Y-19688D01*
X36989Y-26294D01*
X36968Y-26286D01*
X36718Y-26286D01*
X36669Y-26335D01*
X36669Y-26744D01*
X37077Y-26744D01*
X37126Y-26694D01*
X37126Y-26522D01*
X37126Y-27044D01*
X37126Y-26872D01*
X37077Y-26822D01*
X36669Y-26822D01*
X36669Y-27231D01*
X36718Y-27280D01*
X36968Y-27280D01*
X37041Y-27250D01*
X37096Y-27195D01*
X37126Y-27122D01*
X37126Y-27044D01*
X37126Y-28198D01*
X36719Y-28198D01*
X36866Y-28138D01*
X36984Y-28020D01*
X37047Y-27866D01*
X37048Y-27700D01*
X36984Y-27546D01*
X36867Y-27429D01*
X36713Y-27365D01*
X36590Y-27365D01*
X36590Y-27231D01*
X36590Y-26822D01*
X36590Y-26744D01*
X36590Y-26335D01*
X36541Y-26286D01*
X36290Y-26286D01*
X36218Y-26316D01*
X36163Y-26371D01*
X36133Y-26444D01*
X36133Y-26522D01*
X36133Y-26694D01*
X36182Y-26744D01*
X36590Y-26744D01*
X36590Y-26822D01*
X36182Y-26822D01*
X36133Y-26872D01*
X36133Y-27044D01*
X36133Y-27122D01*
X36163Y-27195D01*
X36218Y-27250D01*
X36290Y-27280D01*
X36541Y-27280D01*
X36590Y-27231D01*
X36590Y-27365D01*
X36547Y-27365D01*
X36393Y-27428D01*
X36275Y-27546D01*
X36211Y-27699D01*
X36211Y-27866D01*
X36275Y-28019D01*
X36392Y-28137D01*
X36539Y-28198D01*
X36100Y-28198D01*
X36100Y-22993D01*
X36100Y-22193D01*
X36082Y-22150D01*
X36048Y-22117D01*
X36018Y-22104D01*
X36018Y-22002D01*
X36018Y-22002D01*
X36000Y-21911D01*
X36000Y-21911D01*
X35948Y-21835D01*
X35948Y-21835D01*
X35510Y-21397D01*
X35510Y-21217D01*
X35498Y-21187D01*
X35498Y-21126D01*
X35509Y-21122D01*
X35542Y-21089D01*
X35546Y-21078D01*
X35831Y-21078D01*
X35921Y-21060D01*
X35956Y-21036D01*
X35980Y-21027D01*
X35998Y-21009D01*
X35998Y-21009D01*
X36013Y-20994D01*
X36013Y-20993D01*
X36046Y-20960D01*
X36064Y-20917D01*
X36082Y-20873D01*
X36082Y-20826D01*
X36082Y-20779D01*
X36064Y-20736D01*
X36046Y-20693D01*
X35980Y-20626D01*
X35893Y-20590D01*
X35859Y-20590D01*
X35859Y-19316D01*
X35859Y-18794D01*
X35859Y-18715D01*
X35828Y-18643D01*
X35773Y-18588D01*
X35701Y-18558D01*
X35450Y-18558D01*
X35401Y-18607D01*
X35401Y-19015D01*
X35809Y-19015D01*
X35859Y-18966D01*
X35859Y-18794D01*
X35859Y-19316D01*
X35859Y-19143D01*
X35809Y-19094D01*
X35401Y-19094D01*
X35401Y-19502D01*
X35450Y-19551D01*
X35701Y-19552D01*
X35773Y-19522D01*
X35828Y-19466D01*
X35859Y-19394D01*
X35859Y-19316D01*
X35859Y-20590D01*
X35799Y-20590D01*
X35762Y-20605D01*
X35639Y-20605D01*
X35639Y-20361D01*
X35639Y-19923D01*
X35609Y-19850D01*
X35553Y-19795D01*
X35481Y-19765D01*
X35403Y-19765D01*
X35350Y-19765D01*
X35322Y-19793D01*
X35322Y-19502D01*
X35322Y-19094D01*
X35322Y-19015D01*
X35322Y-18607D01*
X35273Y-18558D01*
X35023Y-18558D01*
X34950Y-18588D01*
X34895Y-18643D01*
X34865Y-18715D01*
X34865Y-18794D01*
X34865Y-18966D01*
X34914Y-19015D01*
X35322Y-19015D01*
X35322Y-19094D01*
X34914Y-19094D01*
X34865Y-19143D01*
X34865Y-19316D01*
X34865Y-19394D01*
X34895Y-19466D01*
X34950Y-19522D01*
X35023Y-19552D01*
X35273Y-19551D01*
X35322Y-19502D01*
X35322Y-19793D01*
X35301Y-19814D01*
X35301Y-20102D01*
X35589Y-20102D01*
X35639Y-20053D01*
X35639Y-19923D01*
X35639Y-20361D01*
X35639Y-20230D01*
X35589Y-20181D01*
X35301Y-20181D01*
X35301Y-20469D01*
X35350Y-20518D01*
X35403Y-20519D01*
X35481Y-20518D01*
X35553Y-20488D01*
X35609Y-20433D01*
X35639Y-20361D01*
X35639Y-20605D01*
X35546Y-20605D01*
X35542Y-20595D01*
X35509Y-20562D01*
X35465Y-20544D01*
X35418Y-20543D01*
X35222Y-20543D01*
X35222Y-20469D01*
X35222Y-20181D01*
X35222Y-20102D01*
X35222Y-19814D01*
X35173Y-19765D01*
X35121Y-19765D01*
X35042Y-19765D01*
X34970Y-19795D01*
X34915Y-19850D01*
X34885Y-19923D01*
X34885Y-20053D01*
X34934Y-20102D01*
X35222Y-20102D01*
X35222Y-20181D01*
X34934Y-20181D01*
X34885Y-20230D01*
X34885Y-20361D01*
X34915Y-20433D01*
X34970Y-20488D01*
X35042Y-20518D01*
X35121Y-20519D01*
X35173Y-20518D01*
X35222Y-20469D01*
X35222Y-20543D01*
X35058Y-20543D01*
X35015Y-20561D01*
X34982Y-20595D01*
X34964Y-20638D01*
X34964Y-20685D01*
X34964Y-21045D01*
X34982Y-21088D01*
X35015Y-21122D01*
X35017Y-21123D01*
X34975Y-21140D01*
X34942Y-21173D01*
X34924Y-21217D01*
X34924Y-21264D01*
X34924Y-21814D01*
X34942Y-21857D01*
X34975Y-21890D01*
X35018Y-21908D01*
X35065Y-21908D01*
X35354Y-21908D01*
X35545Y-22100D01*
X35545Y-22104D01*
X35515Y-22117D01*
X35481Y-22150D01*
X35463Y-22193D01*
X35463Y-22240D01*
X35463Y-23040D01*
X35481Y-23084D01*
X35514Y-23117D01*
X35558Y-23135D01*
X35605Y-23135D01*
X36005Y-23135D01*
X36048Y-23117D01*
X36081Y-23084D01*
X36099Y-23040D01*
X36100Y-22993D01*
X36100Y-28198D01*
X36063Y-28198D01*
X36063Y-27505D01*
X36063Y-26983D01*
X36063Y-26904D01*
X36033Y-26832D01*
X35978Y-26777D01*
X35905Y-26747D01*
X35720Y-26747D01*
X35720Y-25593D01*
X35720Y-24793D01*
X35702Y-24750D01*
X35668Y-24717D01*
X35625Y-24699D01*
X35578Y-24699D01*
X35200Y-24699D01*
X35200Y-22993D01*
X35200Y-22193D01*
X35182Y-22150D01*
X35148Y-22117D01*
X35105Y-22099D01*
X35058Y-22099D01*
X34839Y-22099D01*
X34839Y-21751D01*
X34839Y-21279D01*
X34839Y-21201D01*
X34809Y-21129D01*
X34780Y-21100D01*
X34780Y-18972D01*
X34716Y-18818D01*
X34599Y-18700D01*
X34445Y-18637D01*
X34279Y-18636D01*
X34125Y-18700D01*
X34007Y-18817D01*
X33944Y-18971D01*
X33944Y-19137D01*
X34007Y-19291D01*
X34125Y-19409D01*
X34125Y-19409D01*
X34125Y-20392D01*
X34143Y-20482D01*
X34164Y-20512D01*
X34164Y-20695D01*
X34182Y-20738D01*
X34215Y-20772D01*
X34258Y-20790D01*
X34305Y-20790D01*
X34665Y-20790D01*
X34709Y-20772D01*
X34742Y-20739D01*
X34760Y-20695D01*
X34760Y-20648D01*
X34760Y-20288D01*
X34742Y-20245D01*
X34709Y-20212D01*
X34665Y-20194D01*
X34618Y-20193D01*
X34598Y-20193D01*
X34598Y-19409D01*
X34598Y-19409D01*
X34716Y-19292D01*
X34780Y-19138D01*
X34780Y-18972D01*
X34780Y-21100D01*
X34753Y-21073D01*
X34681Y-21043D01*
X34556Y-21043D01*
X34506Y-21093D01*
X34506Y-21476D01*
X34790Y-21476D01*
X34839Y-21427D01*
X34839Y-21279D01*
X34839Y-21751D01*
X34839Y-21604D01*
X34790Y-21555D01*
X34506Y-21555D01*
X34506Y-21938D01*
X34556Y-21987D01*
X34681Y-21987D01*
X34753Y-21957D01*
X34809Y-21902D01*
X34839Y-21830D01*
X34839Y-21751D01*
X34839Y-22099D01*
X34658Y-22099D01*
X34615Y-22117D01*
X34581Y-22150D01*
X34563Y-22193D01*
X34563Y-22240D01*
X34563Y-23040D01*
X34581Y-23084D01*
X34614Y-23117D01*
X34645Y-23130D01*
X34645Y-23464D01*
X34645Y-23511D01*
X34663Y-23554D01*
X34681Y-23598D01*
X34747Y-23664D01*
X34791Y-23682D01*
X34834Y-23700D01*
X34881Y-23700D01*
X34928Y-23700D01*
X34972Y-23682D01*
X35015Y-23664D01*
X35048Y-23631D01*
X35082Y-23598D01*
X35100Y-23554D01*
X35118Y-23511D01*
X35118Y-23464D01*
X35118Y-23417D01*
X35118Y-23417D01*
X35118Y-23130D01*
X35148Y-23117D01*
X35181Y-23084D01*
X35199Y-23040D01*
X35200Y-22993D01*
X35200Y-24699D01*
X34428Y-24699D01*
X34428Y-21938D01*
X34428Y-21555D01*
X34428Y-21476D01*
X34428Y-21093D01*
X34378Y-21043D01*
X34253Y-21043D01*
X34181Y-21073D01*
X34125Y-21129D01*
X34095Y-21201D01*
X34095Y-21279D01*
X34095Y-21427D01*
X34144Y-21476D01*
X34428Y-21476D01*
X34428Y-21555D01*
X34144Y-21555D01*
X34095Y-21604D01*
X34095Y-21751D01*
X34095Y-21830D01*
X34125Y-21902D01*
X34181Y-21957D01*
X34253Y-21987D01*
X34378Y-21987D01*
X34428Y-21938D01*
X34428Y-24699D01*
X34378Y-24699D01*
X34378Y-22978D01*
X34378Y-22256D01*
X34378Y-22177D01*
X34348Y-22105D01*
X34293Y-22050D01*
X34220Y-22020D01*
X34070Y-22020D01*
X34021Y-22069D01*
X34021Y-22577D01*
X34329Y-22577D01*
X34378Y-22528D01*
X34378Y-22256D01*
X34378Y-22978D01*
X34378Y-22705D01*
X34329Y-22656D01*
X34021Y-22656D01*
X34021Y-23164D01*
X34070Y-23214D01*
X34220Y-23214D01*
X34293Y-23184D01*
X34348Y-23128D01*
X34378Y-23056D01*
X34378Y-22978D01*
X34378Y-24699D01*
X34138Y-24699D01*
X34095Y-24717D01*
X34061Y-24750D01*
X34043Y-24793D01*
X34043Y-24840D01*
X34043Y-25640D01*
X34061Y-25684D01*
X34094Y-25717D01*
X34138Y-25735D01*
X34185Y-25735D01*
X35625Y-25735D01*
X35668Y-25717D01*
X35701Y-25684D01*
X35719Y-25640D01*
X35720Y-25593D01*
X35720Y-26747D01*
X35655Y-26747D01*
X35606Y-26796D01*
X35606Y-27204D01*
X36014Y-27204D01*
X36063Y-27155D01*
X36063Y-26983D01*
X36063Y-27505D01*
X36063Y-27332D01*
X36014Y-27283D01*
X35606Y-27283D01*
X35606Y-27691D01*
X35655Y-27740D01*
X35905Y-27740D01*
X35978Y-27711D01*
X36033Y-27655D01*
X36063Y-27583D01*
X36063Y-27505D01*
X36063Y-28198D01*
X35527Y-28198D01*
X35527Y-27691D01*
X35527Y-27283D01*
X35527Y-27204D01*
X35527Y-26796D01*
X35478Y-26747D01*
X35227Y-26747D01*
X35155Y-26777D01*
X35100Y-26832D01*
X35070Y-26904D01*
X35070Y-26983D01*
X35070Y-27155D01*
X35119Y-27204D01*
X35527Y-27204D01*
X35527Y-27283D01*
X35119Y-27283D01*
X35070Y-27332D01*
X35070Y-27505D01*
X35070Y-27583D01*
X35100Y-27655D01*
X35155Y-27711D01*
X35227Y-27740D01*
X35478Y-27740D01*
X35527Y-27691D01*
X35527Y-28198D01*
X35067Y-28198D01*
X35067Y-27323D01*
X35059Y-27126D01*
X34998Y-26979D01*
X34916Y-26949D01*
X34861Y-27005D01*
X34861Y-26894D01*
X34831Y-26812D01*
X34646Y-26743D01*
X34449Y-26751D01*
X34301Y-26812D01*
X34272Y-26894D01*
X34566Y-27188D01*
X34861Y-26894D01*
X34861Y-27005D01*
X34622Y-27244D01*
X34916Y-27538D01*
X34998Y-27509D01*
X35067Y-27323D01*
X35067Y-28198D01*
X34861Y-28198D01*
X34861Y-27594D01*
X34566Y-27299D01*
X34511Y-27355D01*
X34511Y-27244D01*
X34216Y-26949D01*
X34135Y-26979D01*
X34066Y-27164D01*
X34074Y-27361D01*
X34135Y-27509D01*
X34216Y-27538D01*
X34511Y-27244D01*
X34511Y-27355D01*
X34272Y-27594D01*
X34301Y-27675D01*
X34487Y-27744D01*
X34684Y-27736D01*
X34831Y-27675D01*
X34861Y-27594D01*
X34861Y-28198D01*
X34067Y-28198D01*
X34067Y-27323D01*
X34059Y-27126D01*
X33998Y-26979D01*
X33942Y-26958D01*
X33942Y-23164D01*
X33942Y-22656D01*
X33942Y-22577D01*
X33942Y-22069D01*
X33893Y-22020D01*
X33742Y-22020D01*
X33670Y-22050D01*
X33615Y-22105D01*
X33585Y-22177D01*
X33585Y-22256D01*
X33585Y-22528D01*
X33634Y-22577D01*
X33942Y-22577D01*
X33942Y-22656D01*
X33634Y-22656D01*
X33585Y-22705D01*
X33585Y-22978D01*
X33585Y-23056D01*
X33615Y-23128D01*
X33670Y-23184D01*
X33742Y-23214D01*
X33893Y-23214D01*
X33942Y-23164D01*
X33942Y-26958D01*
X33916Y-26949D01*
X33861Y-27005D01*
X33861Y-26894D01*
X33831Y-26812D01*
X33646Y-26743D01*
X33449Y-26751D01*
X33426Y-26760D01*
X33426Y-18972D01*
X33362Y-18818D01*
X33245Y-18700D01*
X33091Y-18637D01*
X32925Y-18636D01*
X32771Y-18700D01*
X32653Y-18817D01*
X32589Y-18971D01*
X32589Y-19137D01*
X32653Y-19291D01*
X32770Y-19409D01*
X32924Y-19473D01*
X33090Y-19473D01*
X33244Y-19409D01*
X33362Y-19292D01*
X33425Y-19138D01*
X33426Y-18972D01*
X33426Y-26760D01*
X33301Y-26812D01*
X33272Y-26894D01*
X33566Y-27188D01*
X33861Y-26894D01*
X33861Y-27005D01*
X33622Y-27244D01*
X33916Y-27538D01*
X33998Y-27509D01*
X34067Y-27323D01*
X34067Y-28198D01*
X33861Y-28198D01*
X33861Y-27594D01*
X33566Y-27299D01*
X33511Y-27355D01*
X33511Y-27244D01*
X33216Y-26949D01*
X33135Y-26979D01*
X33066Y-27164D01*
X33074Y-27361D01*
X33135Y-27509D01*
X33216Y-27538D01*
X33511Y-27244D01*
X33511Y-27355D01*
X33272Y-27594D01*
X33301Y-27675D01*
X33487Y-27744D01*
X33684Y-27736D01*
X33831Y-27675D01*
X33861Y-27594D01*
X33861Y-28198D01*
X32894Y-28198D01*
X32894Y-27161D01*
X32831Y-27007D01*
X32713Y-26889D01*
X32559Y-26826D01*
X32426Y-26825D01*
X32426Y-18972D01*
X32362Y-18818D01*
X32245Y-18700D01*
X32091Y-18637D01*
X31925Y-18636D01*
X31771Y-18700D01*
X31653Y-18817D01*
X31589Y-18971D01*
X31589Y-19137D01*
X31653Y-19291D01*
X31770Y-19409D01*
X31924Y-19473D01*
X32090Y-19473D01*
X32244Y-19409D01*
X32362Y-19292D01*
X32425Y-19138D01*
X32426Y-18972D01*
X32426Y-26825D01*
X32393Y-26825D01*
X32256Y-26882D01*
X32256Y-25015D01*
X32117Y-24677D01*
X31859Y-24418D01*
X31522Y-24278D01*
X31426Y-24278D01*
X31426Y-19331D01*
X31426Y-18731D01*
X31408Y-18688D01*
X31374Y-18655D01*
X31331Y-18637D01*
X31284Y-18636D01*
X30684Y-18636D01*
X30641Y-18654D01*
X30607Y-18688D01*
X30589Y-18731D01*
X30589Y-18778D01*
X30589Y-19378D01*
X30607Y-19421D01*
X30640Y-19455D01*
X30684Y-19473D01*
X30731Y-19473D01*
X31331Y-19473D01*
X31374Y-19455D01*
X31407Y-19422D01*
X31425Y-19378D01*
X31426Y-19331D01*
X31426Y-24278D01*
X31156Y-24278D01*
X30819Y-24418D01*
X30610Y-24626D01*
X30610Y-22728D01*
X30592Y-22685D01*
X30574Y-22641D01*
X30507Y-22575D01*
X30507Y-22575D01*
X30099Y-22166D01*
X30099Y-18972D01*
X30035Y-18818D01*
X29918Y-18700D01*
X29764Y-18637D01*
X29598Y-18636D01*
X29444Y-18700D01*
X29326Y-18817D01*
X29263Y-18971D01*
X29262Y-19137D01*
X29326Y-19291D01*
X29443Y-19409D01*
X29597Y-19473D01*
X29763Y-19473D01*
X29917Y-19409D01*
X30035Y-19292D01*
X30099Y-19138D01*
X30099Y-18972D01*
X30099Y-22166D01*
X29099Y-21166D01*
X29099Y-18972D01*
X29035Y-18818D01*
X28918Y-18700D01*
X28764Y-18637D01*
X28598Y-18636D01*
X28444Y-18700D01*
X28326Y-18817D01*
X28263Y-18971D01*
X28262Y-19137D01*
X28326Y-19291D01*
X28443Y-19409D01*
X28597Y-19473D01*
X28763Y-19473D01*
X28917Y-19409D01*
X29035Y-19292D01*
X29099Y-19138D01*
X29099Y-18972D01*
X29099Y-21166D01*
X28099Y-20166D01*
X28099Y-19331D01*
X28099Y-18731D01*
X28081Y-18688D01*
X28048Y-18655D01*
X28004Y-18637D01*
X27957Y-18636D01*
X27357Y-18636D01*
X27314Y-18654D01*
X27281Y-18688D01*
X27263Y-18731D01*
X27262Y-18778D01*
X27262Y-19378D01*
X27280Y-19421D01*
X27314Y-19455D01*
X27357Y-19473D01*
X27404Y-19473D01*
X28004Y-19473D01*
X28047Y-19455D01*
X28081Y-19422D01*
X28099Y-19378D01*
X28099Y-19331D01*
X28099Y-20166D01*
X27844Y-19911D01*
X27767Y-19860D01*
X27677Y-19842D01*
X26784Y-19842D01*
X26784Y-19090D01*
X26784Y-18840D01*
X26735Y-18791D01*
X26326Y-18791D01*
X26326Y-19199D01*
X26375Y-19248D01*
X26548Y-19248D01*
X26626Y-19248D01*
X26699Y-19218D01*
X26754Y-19163D01*
X26784Y-19090D01*
X26784Y-19842D01*
X26712Y-19842D01*
X26705Y-19835D01*
X26705Y-19835D01*
X26705Y-19669D01*
X26642Y-19515D01*
X26524Y-19397D01*
X26370Y-19333D01*
X26248Y-19333D01*
X26248Y-19199D01*
X26248Y-18791D01*
X25839Y-18791D01*
X25790Y-18840D01*
X25790Y-19090D01*
X25820Y-19163D01*
X25875Y-19218D01*
X25948Y-19248D01*
X26026Y-19248D01*
X26198Y-19248D01*
X26248Y-19199D01*
X26248Y-19333D01*
X26204Y-19333D01*
X26050Y-19397D01*
X25933Y-19514D01*
X25869Y-19668D01*
X25869Y-19834D01*
X25932Y-19988D01*
X26050Y-20106D01*
X26203Y-20170D01*
X26370Y-20170D01*
X26371Y-20169D01*
X26447Y-20245D01*
X26523Y-20296D01*
X26614Y-20314D01*
X27579Y-20314D01*
X30206Y-22942D01*
X30240Y-22975D01*
X30326Y-23011D01*
X30420Y-23011D01*
X30464Y-22993D01*
X30507Y-22975D01*
X30574Y-22909D01*
X30610Y-22822D01*
X30610Y-22728D01*
X30610Y-24626D01*
X30560Y-24676D01*
X30420Y-25013D01*
X30420Y-25378D01*
X30559Y-25716D01*
X30817Y-25974D01*
X31155Y-26114D01*
X31520Y-26115D01*
X31857Y-25975D01*
X32116Y-25717D01*
X32256Y-25380D01*
X32256Y-25015D01*
X32256Y-26882D01*
X32239Y-26889D01*
X32122Y-27006D01*
X32058Y-27160D01*
X32058Y-27326D01*
X32121Y-27480D01*
X32239Y-27598D01*
X32392Y-27662D01*
X32559Y-27662D01*
X32712Y-27598D01*
X32830Y-27481D01*
X32894Y-27327D01*
X32894Y-27161D01*
X32894Y-28198D01*
X31894Y-28198D01*
X31894Y-27161D01*
X31831Y-27007D01*
X31713Y-26889D01*
X31559Y-26826D01*
X31393Y-26825D01*
X31239Y-26889D01*
X31122Y-27006D01*
X31058Y-27160D01*
X31058Y-27326D01*
X31121Y-27480D01*
X31239Y-27598D01*
X31392Y-27662D01*
X31559Y-27662D01*
X31712Y-27598D01*
X31830Y-27481D01*
X31894Y-27327D01*
X31894Y-27161D01*
X31894Y-28198D01*
X30894Y-28198D01*
X30894Y-27520D01*
X30894Y-26920D01*
X30876Y-26877D01*
X30843Y-26844D01*
X30799Y-26826D01*
X30752Y-26825D01*
X30152Y-26825D01*
X30109Y-26843D01*
X30076Y-26877D01*
X30058Y-26920D01*
X30058Y-26967D01*
X30058Y-27567D01*
X30076Y-27610D01*
X30109Y-27644D01*
X30152Y-27662D01*
X30199Y-27662D01*
X30799Y-27662D01*
X30843Y-27644D01*
X30876Y-27611D01*
X30894Y-27567D01*
X30894Y-27520D01*
X30894Y-28198D01*
X29804Y-28198D01*
X29804Y-27161D01*
X29740Y-27007D01*
X29622Y-26889D01*
X29469Y-26826D01*
X29303Y-26825D01*
X29149Y-26889D01*
X29031Y-27006D01*
X28967Y-27160D01*
X28967Y-27326D01*
X29031Y-27480D01*
X29148Y-27598D01*
X29302Y-27662D01*
X29468Y-27662D01*
X29622Y-27598D01*
X29740Y-27481D01*
X29803Y-27327D01*
X29804Y-27161D01*
X29804Y-28198D01*
X28804Y-28198D01*
X28804Y-27161D01*
X28740Y-27007D01*
X28622Y-26889D01*
X28469Y-26826D01*
X28303Y-26825D01*
X28149Y-26889D01*
X28031Y-27006D01*
X27967Y-27160D01*
X27967Y-27326D01*
X28031Y-27480D01*
X28148Y-27598D01*
X28302Y-27662D01*
X28468Y-27662D01*
X28622Y-27598D01*
X28740Y-27481D01*
X28803Y-27327D01*
X28804Y-27161D01*
X28804Y-28198D01*
X27803Y-28198D01*
X27803Y-27520D01*
X27803Y-26920D01*
X27786Y-26877D01*
X27752Y-26844D01*
X27709Y-26826D01*
X27662Y-26825D01*
X27322Y-26825D01*
X27322Y-21980D01*
X27286Y-21893D01*
X27254Y-21861D01*
X27254Y-21555D01*
X27241Y-21490D01*
X27205Y-21436D01*
X27205Y-21436D01*
X26675Y-20906D01*
X26705Y-20835D01*
X26705Y-20669D01*
X26642Y-20515D01*
X26524Y-20397D01*
X26370Y-20333D01*
X26204Y-20333D01*
X26050Y-20397D01*
X25933Y-20514D01*
X25869Y-20668D01*
X25869Y-20834D01*
X25932Y-20988D01*
X26050Y-21106D01*
X26203Y-21170D01*
X26370Y-21170D01*
X26436Y-21142D01*
X26918Y-21624D01*
X26918Y-21861D01*
X26886Y-21893D01*
X26850Y-21980D01*
X26850Y-22074D01*
X26886Y-22161D01*
X26952Y-22227D01*
X27039Y-22263D01*
X27133Y-22263D01*
X27220Y-22227D01*
X27286Y-22161D01*
X27322Y-22074D01*
X27322Y-21980D01*
X27322Y-26825D01*
X27062Y-26825D01*
X27019Y-26843D01*
X26985Y-26877D01*
X26967Y-26920D01*
X26967Y-26967D01*
X26967Y-27567D01*
X26985Y-27610D01*
X27018Y-27644D01*
X27062Y-27662D01*
X27109Y-27662D01*
X27709Y-27662D01*
X27752Y-27644D01*
X27785Y-27611D01*
X27803Y-27567D01*
X27803Y-27520D01*
X27803Y-28198D01*
X27038Y-28198D01*
X27048Y-28188D01*
X27094Y-28189D01*
X27180Y-28153D01*
X27247Y-28086D01*
X27283Y-27999D01*
X27283Y-27905D01*
X27247Y-27819D01*
X27181Y-27752D01*
X27094Y-27716D01*
X27000Y-27716D01*
X26913Y-27752D01*
X26847Y-27818D01*
X26811Y-27905D01*
X26811Y-27951D01*
X26721Y-28040D01*
X26590Y-28040D01*
X26641Y-27989D01*
X26705Y-27835D01*
X26705Y-27669D01*
X26705Y-26669D01*
X26705Y-25669D01*
X26705Y-24669D01*
X26705Y-23669D01*
X26705Y-22669D01*
X26705Y-21669D01*
X26642Y-21515D01*
X26524Y-21397D01*
X26370Y-21333D01*
X26204Y-21333D01*
X26050Y-21397D01*
X25933Y-21514D01*
X25869Y-21668D01*
X25869Y-21834D01*
X25932Y-21988D01*
X26050Y-22106D01*
X26203Y-22170D01*
X26370Y-22170D01*
X26523Y-22106D01*
X26641Y-21989D01*
X26705Y-21835D01*
X26705Y-21669D01*
X26705Y-22669D01*
X26642Y-22515D01*
X26524Y-22397D01*
X26370Y-22333D01*
X26204Y-22333D01*
X26050Y-22397D01*
X25933Y-22514D01*
X25869Y-22668D01*
X25869Y-22834D01*
X25932Y-22988D01*
X26050Y-23106D01*
X26203Y-23170D01*
X26370Y-23170D01*
X26523Y-23106D01*
X26641Y-22989D01*
X26705Y-22835D01*
X26705Y-22669D01*
X26705Y-23669D01*
X26642Y-23515D01*
X26524Y-23397D01*
X26370Y-23333D01*
X26204Y-23333D01*
X26050Y-23397D01*
X25933Y-23514D01*
X25869Y-23668D01*
X25869Y-23834D01*
X25932Y-23988D01*
X26050Y-24106D01*
X26203Y-24170D01*
X26370Y-24170D01*
X26523Y-24106D01*
X26641Y-23989D01*
X26705Y-23835D01*
X26705Y-23669D01*
X26705Y-24669D01*
X26642Y-24515D01*
X26524Y-24397D01*
X26370Y-24333D01*
X26204Y-24333D01*
X26050Y-24397D01*
X25933Y-24514D01*
X25869Y-24668D01*
X25869Y-24834D01*
X25932Y-24988D01*
X26050Y-25106D01*
X26203Y-25170D01*
X26370Y-25170D01*
X26523Y-25106D01*
X26641Y-24989D01*
X26705Y-24835D01*
X26705Y-24669D01*
X26705Y-25669D01*
X26642Y-25515D01*
X26524Y-25397D01*
X26370Y-25333D01*
X26204Y-25333D01*
X26050Y-25397D01*
X25933Y-25514D01*
X25869Y-25668D01*
X25869Y-25834D01*
X25932Y-25988D01*
X26050Y-26106D01*
X26203Y-26170D01*
X26370Y-26170D01*
X26523Y-26106D01*
X26641Y-25989D01*
X26705Y-25835D01*
X26705Y-25669D01*
X26705Y-26669D01*
X26642Y-26515D01*
X26524Y-26397D01*
X26370Y-26333D01*
X26204Y-26333D01*
X26050Y-26397D01*
X25933Y-26514D01*
X25869Y-26668D01*
X25869Y-26834D01*
X25932Y-26988D01*
X26050Y-27106D01*
X26203Y-27170D01*
X26370Y-27170D01*
X26523Y-27106D01*
X26641Y-26989D01*
X26705Y-26835D01*
X26705Y-26669D01*
X26705Y-27669D01*
X26642Y-27515D01*
X26524Y-27397D01*
X26370Y-27333D01*
X26204Y-27333D01*
X26050Y-27397D01*
X25933Y-27514D01*
X25869Y-27668D01*
X25869Y-27834D01*
X25932Y-27988D01*
X25984Y-28040D01*
X25590Y-28040D01*
X25641Y-27989D01*
X25705Y-27835D01*
X25705Y-27669D01*
X25642Y-27515D01*
X25524Y-27397D01*
X25370Y-27333D01*
X25204Y-27333D01*
X25050Y-27397D01*
X25010Y-27437D01*
X25010Y-27066D01*
X25050Y-27106D01*
X25203Y-27170D01*
X25370Y-27170D01*
X25523Y-27106D01*
X25641Y-26989D01*
X25705Y-26835D01*
X25705Y-26669D01*
X25642Y-26515D01*
X25524Y-26397D01*
X25370Y-26333D01*
X25204Y-26333D01*
X25050Y-26397D01*
X25010Y-26437D01*
X25010Y-26066D01*
X25050Y-26106D01*
X25203Y-26170D01*
X25370Y-26170D01*
X25523Y-26106D01*
X25641Y-25989D01*
X25705Y-25835D01*
X25705Y-25669D01*
X25642Y-25515D01*
X25524Y-25397D01*
X25370Y-25333D01*
X25204Y-25333D01*
X25050Y-25397D01*
X25010Y-25437D01*
X25010Y-25066D01*
X25050Y-25106D01*
X25203Y-25170D01*
X25370Y-25170D01*
X25523Y-25106D01*
X25641Y-24989D01*
X25705Y-24835D01*
X25705Y-24669D01*
X25642Y-24515D01*
X25524Y-24397D01*
X25370Y-24333D01*
X25204Y-24333D01*
X25050Y-24397D01*
X25010Y-24437D01*
X25010Y-24066D01*
X25050Y-24106D01*
X25203Y-24170D01*
X25370Y-24170D01*
X25523Y-24106D01*
X25641Y-23989D01*
X25705Y-23835D01*
X25705Y-23669D01*
X25642Y-23515D01*
X25524Y-23397D01*
X25370Y-23333D01*
X25204Y-23333D01*
X25050Y-23397D01*
X25010Y-23437D01*
X25010Y-23066D01*
X25050Y-23106D01*
X25203Y-23170D01*
X25370Y-23170D01*
X25523Y-23106D01*
X25641Y-22989D01*
X25705Y-22835D01*
X25705Y-22669D01*
X25642Y-22515D01*
X25524Y-22397D01*
X25370Y-22333D01*
X25204Y-22333D01*
X25050Y-22397D01*
X25010Y-22437D01*
X25010Y-22274D01*
X25141Y-22143D01*
X25203Y-22170D01*
X25370Y-22170D01*
X25523Y-22106D01*
X25641Y-21989D01*
X25705Y-21835D01*
X25705Y-21669D01*
X25705Y-20669D01*
X25705Y-19669D01*
X25705Y-18669D01*
X25642Y-18515D01*
X25524Y-18397D01*
X25370Y-18333D01*
X25204Y-18333D01*
X25050Y-18397D01*
X24933Y-18514D01*
X24869Y-18668D01*
X24869Y-18834D01*
X24932Y-18988D01*
X25050Y-19106D01*
X25203Y-19170D01*
X25370Y-19170D01*
X25523Y-19106D01*
X25641Y-18989D01*
X25705Y-18835D01*
X25705Y-18669D01*
X25705Y-19669D01*
X25642Y-19515D01*
X25524Y-19397D01*
X25370Y-19333D01*
X25204Y-19333D01*
X25050Y-19397D01*
X24933Y-19514D01*
X24869Y-19668D01*
X24869Y-19834D01*
X24932Y-19988D01*
X25050Y-20106D01*
X25203Y-20170D01*
X25370Y-20170D01*
X25523Y-20106D01*
X25641Y-19989D01*
X25705Y-19835D01*
X25705Y-19669D01*
X25705Y-20669D01*
X25642Y-20515D01*
X25524Y-20397D01*
X25370Y-20333D01*
X25204Y-20333D01*
X25050Y-20397D01*
X24933Y-20514D01*
X24869Y-20668D01*
X24869Y-20834D01*
X24932Y-20988D01*
X25050Y-21106D01*
X25203Y-21170D01*
X25370Y-21170D01*
X25523Y-21106D01*
X25641Y-20989D01*
X25705Y-20835D01*
X25705Y-20669D01*
X25705Y-21669D01*
X25642Y-21515D01*
X25524Y-21397D01*
X25370Y-21333D01*
X25204Y-21333D01*
X25050Y-21397D01*
X24933Y-21514D01*
X24869Y-21668D01*
X24869Y-21834D01*
X24900Y-21909D01*
X24832Y-21976D01*
X24832Y-18297D01*
X25863Y-18297D01*
X25820Y-18340D01*
X25790Y-18412D01*
X25790Y-18663D01*
X25839Y-18712D01*
X26248Y-18712D01*
X26248Y-18704D01*
X26326Y-18704D01*
X26326Y-18712D01*
X26735Y-18712D01*
X26784Y-18663D01*
X26784Y-18412D01*
X26754Y-18340D01*
X26711Y-18297D01*
X37408Y-18297D01*
X37305Y-18339D01*
X37276Y-18421D01*
X37570Y-18715D01*
X37865Y-18421D01*
X37835Y-18339D01*
X37720Y-18297D01*
X39831Y-18297D01*
X39739Y-18388D01*
X39654Y-18353D01*
X39488Y-18353D01*
X39334Y-18416D01*
X39216Y-18534D01*
X39152Y-18688D01*
X39152Y-18854D01*
X39216Y-19008D01*
X39333Y-19125D01*
X39487Y-19189D01*
X39653Y-19189D01*
X39807Y-19126D01*
X39925Y-19008D01*
X39988Y-18855D01*
X39989Y-18688D01*
X39967Y-18636D01*
X40109Y-18494D01*
X40457Y-18494D01*
X40457Y-18494D01*
G37*
G54D21*
X40457Y-18494D02*
X40405Y-18546D01*
X40341Y-18699D01*
X40341Y-18866D01*
X40370Y-18935D01*
X40058Y-19247D01*
X40021Y-19301D01*
X40009Y-19366D01*
X40009Y-19366D01*
X40009Y-23926D01*
X39988Y-23946D01*
X39988Y-20048D01*
X39988Y-19448D01*
X39971Y-19404D01*
X39937Y-19371D01*
X39894Y-19353D01*
X39847Y-19353D01*
X39247Y-19353D01*
X39204Y-19371D01*
X39170Y-19404D01*
X39152Y-19448D01*
X39152Y-19495D01*
X39152Y-20095D01*
X39170Y-20138D01*
X39203Y-20171D01*
X39247Y-20189D01*
X39294Y-20189D01*
X39894Y-20189D01*
X39937Y-20171D01*
X39970Y-20138D01*
X39988Y-20095D01*
X39988Y-20048D01*
X39988Y-23946D01*
X39014Y-24920D01*
X38989Y-24959D01*
X38989Y-19688D01*
X38989Y-18688D01*
X38925Y-18535D01*
X38808Y-18417D01*
X38654Y-18353D01*
X38488Y-18353D01*
X38334Y-18416D01*
X38216Y-18534D01*
X38152Y-18688D01*
X38152Y-18854D01*
X38216Y-19008D01*
X38333Y-19125D01*
X38487Y-19189D01*
X38653Y-19189D01*
X38807Y-19126D01*
X38925Y-19008D01*
X38988Y-18855D01*
X38989Y-18688D01*
X38989Y-19688D01*
X38925Y-19535D01*
X38808Y-19417D01*
X38654Y-19353D01*
X38488Y-19353D01*
X38334Y-19416D01*
X38216Y-19534D01*
X38152Y-19688D01*
X38152Y-19854D01*
X38216Y-20008D01*
X38333Y-20125D01*
X38487Y-20189D01*
X38653Y-20189D01*
X38807Y-20126D01*
X38925Y-20008D01*
X38988Y-19855D01*
X38989Y-19688D01*
X38989Y-24959D01*
X38978Y-24975D01*
X38965Y-25039D01*
X38965Y-25039D01*
X38965Y-26528D01*
X38867Y-26429D01*
X38713Y-26365D01*
X38547Y-26365D01*
X38393Y-26428D01*
X38275Y-26546D01*
X38211Y-26699D01*
X38211Y-26866D01*
X38275Y-27019D01*
X38392Y-27137D01*
X38546Y-27201D01*
X38712Y-27201D01*
X38866Y-27138D01*
X38965Y-27039D01*
X38965Y-27283D01*
X38965Y-27283D01*
X38978Y-27347D01*
X39014Y-27402D01*
X39241Y-27628D01*
X39211Y-27699D01*
X39211Y-27866D01*
X39275Y-28019D01*
X39392Y-28137D01*
X39539Y-28198D01*
X38719Y-28198D01*
X38866Y-28138D01*
X38984Y-28020D01*
X39047Y-27866D01*
X39048Y-27700D01*
X38984Y-27546D01*
X38867Y-27429D01*
X38713Y-27365D01*
X38547Y-27365D01*
X38393Y-27428D01*
X38275Y-27546D01*
X38211Y-27699D01*
X38211Y-27866D01*
X38275Y-28019D01*
X38392Y-28137D01*
X38539Y-28198D01*
X38071Y-28198D01*
X38071Y-18851D01*
X38063Y-18653D01*
X38002Y-18506D01*
X37920Y-18477D01*
X37626Y-18771D01*
X37920Y-19066D01*
X38002Y-19036D01*
X38071Y-18851D01*
X38071Y-28198D01*
X37719Y-28198D01*
X37866Y-28138D01*
X37984Y-28020D01*
X38047Y-27866D01*
X38048Y-27700D01*
X38048Y-26700D01*
X37989Y-26557D01*
X37989Y-19688D01*
X37925Y-19535D01*
X37865Y-19474D01*
X37865Y-19121D01*
X37570Y-18827D01*
X37515Y-18883D01*
X37515Y-18771D01*
X37220Y-18477D01*
X37139Y-18506D01*
X37070Y-18692D01*
X37078Y-18889D01*
X37139Y-19036D01*
X37220Y-19066D01*
X37515Y-18771D01*
X37515Y-18883D01*
X37276Y-19121D01*
X37305Y-19203D01*
X37491Y-19271D01*
X37688Y-19264D01*
X37835Y-19203D01*
X37865Y-19121D01*
X37865Y-19474D01*
X37808Y-19417D01*
X37654Y-19353D01*
X37488Y-19353D01*
X37334Y-19416D01*
X37216Y-19534D01*
X37152Y-19688D01*
X37152Y-19854D01*
X37216Y-20008D01*
X37333Y-20125D01*
X37487Y-20189D01*
X37653Y-20189D01*
X37807Y-20126D01*
X37925Y-20008D01*
X37988Y-19855D01*
X37989Y-19688D01*
X37989Y-26557D01*
X37984Y-26546D01*
X37867Y-26429D01*
X37713Y-26365D01*
X37547Y-26365D01*
X37393Y-26428D01*
X37275Y-26546D01*
X37211Y-26699D01*
X37211Y-26866D01*
X37275Y-27019D01*
X37392Y-27137D01*
X37546Y-27201D01*
X37712Y-27201D01*
X37866Y-27138D01*
X37984Y-27020D01*
X38047Y-26866D01*
X38048Y-26700D01*
X38048Y-27700D01*
X37984Y-27546D01*
X37867Y-27429D01*
X37713Y-27365D01*
X37547Y-27365D01*
X37393Y-27428D01*
X37275Y-27546D01*
X37211Y-27699D01*
X37211Y-27866D01*
X37275Y-28019D01*
X37392Y-28137D01*
X37539Y-28198D01*
X37126Y-28198D01*
X37126Y-27044D01*
X37126Y-26522D01*
X37126Y-26444D01*
X37096Y-26371D01*
X37041Y-26316D01*
X36989Y-26294D01*
X36989Y-19688D01*
X36989Y-18688D01*
X36925Y-18535D01*
X36808Y-18417D01*
X36654Y-18353D01*
X36488Y-18353D01*
X36334Y-18416D01*
X36216Y-18534D01*
X36152Y-18688D01*
X36152Y-18854D01*
X36216Y-19008D01*
X36333Y-19125D01*
X36487Y-19189D01*
X36653Y-19189D01*
X36807Y-19126D01*
X36925Y-19008D01*
X36988Y-18855D01*
X36989Y-18688D01*
X36989Y-19688D01*
X36925Y-19535D01*
X36808Y-19417D01*
X36654Y-19353D01*
X36488Y-19353D01*
X36334Y-19416D01*
X36216Y-19534D01*
X36152Y-19688D01*
X36152Y-19854D01*
X36216Y-20008D01*
X36333Y-20125D01*
X36487Y-20189D01*
X36653Y-20189D01*
X36807Y-20126D01*
X36925Y-20008D01*
X36988Y-19855D01*
X36989Y-19688D01*
X36989Y-26294D01*
X36968Y-26286D01*
X36718Y-26286D01*
X36669Y-26335D01*
X36669Y-26744D01*
X37077Y-26744D01*
X37126Y-26694D01*
X37126Y-26522D01*
X37126Y-27044D01*
X37126Y-26872D01*
X37077Y-26822D01*
X36669Y-26822D01*
X36669Y-27231D01*
X36718Y-27280D01*
X36968Y-27280D01*
X37041Y-27250D01*
X37096Y-27195D01*
X37126Y-27122D01*
X37126Y-27044D01*
X37126Y-28198D01*
X36719Y-28198D01*
X36866Y-28138D01*
X36984Y-28020D01*
X37047Y-27866D01*
X37048Y-27700D01*
X36984Y-27546D01*
X36867Y-27429D01*
X36713Y-27365D01*
X36590Y-27365D01*
X36590Y-27231D01*
X36590Y-26822D01*
X36590Y-26744D01*
X36590Y-26335D01*
X36541Y-26286D01*
X36290Y-26286D01*
X36218Y-26316D01*
X36163Y-26371D01*
X36133Y-26444D01*
X36133Y-26522D01*
X36133Y-26694D01*
X36182Y-26744D01*
X36590Y-26744D01*
X36590Y-26822D01*
X36182Y-26822D01*
X36133Y-26872D01*
X36133Y-27044D01*
X36133Y-27122D01*
X36163Y-27195D01*
X36218Y-27250D01*
X36290Y-27280D01*
X36541Y-27280D01*
X36590Y-27231D01*
X36590Y-27365D01*
X36547Y-27365D01*
X36393Y-27428D01*
X36275Y-27546D01*
X36211Y-27699D01*
X36211Y-27866D01*
X36275Y-28019D01*
X36392Y-28137D01*
X36539Y-28198D01*
X36100Y-28198D01*
X36100Y-22993D01*
X36100Y-22193D01*
X36082Y-22150D01*
X36048Y-22117D01*
X36018Y-22104D01*
X36018Y-22002D01*
X36018Y-22002D01*
X36000Y-21911D01*
X36000Y-21911D01*
X35948Y-21835D01*
X35948Y-21835D01*
X35510Y-21397D01*
X35510Y-21217D01*
X35498Y-21187D01*
X35498Y-21126D01*
X35509Y-21122D01*
X35542Y-21089D01*
X35546Y-21078D01*
X35831Y-21078D01*
X35921Y-21060D01*
X35956Y-21036D01*
X35980Y-21027D01*
X35998Y-21009D01*
X35998Y-21009D01*
X36013Y-20994D01*
X36013Y-20993D01*
X36046Y-20960D01*
X36064Y-20917D01*
X36082Y-20873D01*
X36082Y-20826D01*
X36082Y-20779D01*
X36064Y-20736D01*
X36046Y-20693D01*
X35980Y-20626D01*
X35893Y-20590D01*
X35859Y-20590D01*
X35859Y-19316D01*
X35859Y-18794D01*
X35859Y-18715D01*
X35828Y-18643D01*
X35773Y-18588D01*
X35701Y-18558D01*
X35450Y-18558D01*
X35401Y-18607D01*
X35401Y-19015D01*
X35809Y-19015D01*
X35859Y-18966D01*
X35859Y-18794D01*
X35859Y-19316D01*
X35859Y-19143D01*
X35809Y-19094D01*
X35401Y-19094D01*
X35401Y-19502D01*
X35450Y-19551D01*
X35701Y-19552D01*
X35773Y-19522D01*
X35828Y-19466D01*
X35859Y-19394D01*
X35859Y-19316D01*
X35859Y-20590D01*
X35799Y-20590D01*
X35762Y-20605D01*
X35639Y-20605D01*
X35639Y-20361D01*
X35639Y-19923D01*
X35609Y-19850D01*
X35553Y-19795D01*
X35481Y-19765D01*
X35403Y-19765D01*
X35350Y-19765D01*
X35322Y-19793D01*
X35322Y-19502D01*
X35322Y-19094D01*
X35322Y-19015D01*
X35322Y-18607D01*
X35273Y-18558D01*
X35023Y-18558D01*
X34950Y-18588D01*
X34895Y-18643D01*
X34865Y-18715D01*
X34865Y-18794D01*
X34865Y-18966D01*
X34914Y-19015D01*
X35322Y-19015D01*
X35322Y-19094D01*
X34914Y-19094D01*
X34865Y-19143D01*
X34865Y-19316D01*
X34865Y-19394D01*
X34895Y-19466D01*
X34950Y-19522D01*
X35023Y-19552D01*
X35273Y-19551D01*
X35322Y-19502D01*
X35322Y-19793D01*
X35301Y-19814D01*
X35301Y-20102D01*
X35589Y-20102D01*
X35639Y-20053D01*
X35639Y-19923D01*
X35639Y-20361D01*
X35639Y-20230D01*
X35589Y-20181D01*
X35301Y-20181D01*
X35301Y-20469D01*
X35350Y-20518D01*
X35403Y-20519D01*
X35481Y-20518D01*
X35553Y-20488D01*
X35609Y-20433D01*
X35639Y-20361D01*
X35639Y-20605D01*
X35546Y-20605D01*
X35542Y-20595D01*
X35509Y-20562D01*
X35465Y-20544D01*
X35418Y-20543D01*
X35222Y-20543D01*
X35222Y-20469D01*
X35222Y-20181D01*
X35222Y-20102D01*
X35222Y-19814D01*
X35173Y-19765D01*
X35121Y-19765D01*
X35042Y-19765D01*
X34970Y-19795D01*
X34915Y-19850D01*
X34885Y-19923D01*
X34885Y-20053D01*
X34934Y-20102D01*
X35222Y-20102D01*
X35222Y-20181D01*
X34934Y-20181D01*
X34885Y-20230D01*
X34885Y-20361D01*
X34915Y-20433D01*
X34970Y-20488D01*
X35042Y-20518D01*
X35121Y-20519D01*
X35173Y-20518D01*
X35222Y-20469D01*
X35222Y-20543D01*
X35058Y-20543D01*
X35015Y-20561D01*
X34982Y-20595D01*
X34964Y-20638D01*
X34964Y-20685D01*
X34964Y-21045D01*
X34982Y-21088D01*
X35015Y-21122D01*
X35017Y-21123D01*
X34975Y-21140D01*
X34942Y-21173D01*
X34924Y-21217D01*
X34924Y-21264D01*
X34924Y-21814D01*
X34942Y-21857D01*
X34975Y-21890D01*
X35018Y-21908D01*
X35065Y-21908D01*
X35354Y-21908D01*
X35545Y-22100D01*
X35545Y-22104D01*
X35515Y-22117D01*
X35481Y-22150D01*
X35463Y-22193D01*
X35463Y-22240D01*
X35463Y-23040D01*
X35481Y-23084D01*
X35514Y-23117D01*
X35558Y-23135D01*
X35605Y-23135D01*
X36005Y-23135D01*
X36048Y-23117D01*
X36081Y-23084D01*
X36099Y-23040D01*
X36100Y-22993D01*
X36100Y-28198D01*
X36063Y-28198D01*
X36063Y-27505D01*
X36063Y-26983D01*
X36063Y-26904D01*
X36033Y-26832D01*
X35978Y-26777D01*
X35905Y-26747D01*
X35720Y-26747D01*
X35720Y-25593D01*
X35720Y-24793D01*
X35702Y-24750D01*
X35668Y-24717D01*
X35625Y-24699D01*
X35578Y-24699D01*
X35200Y-24699D01*
X35200Y-22993D01*
X35200Y-22193D01*
X35182Y-22150D01*
X35148Y-22117D01*
X35105Y-22099D01*
X35058Y-22099D01*
X34839Y-22099D01*
X34839Y-21751D01*
X34839Y-21279D01*
X34839Y-21201D01*
X34809Y-21129D01*
X34780Y-21100D01*
X34780Y-18972D01*
X34716Y-18818D01*
X34599Y-18700D01*
X34445Y-18637D01*
X34279Y-18636D01*
X34125Y-18700D01*
X34007Y-18817D01*
X33944Y-18971D01*
X33944Y-19137D01*
X34007Y-19291D01*
X34125Y-19409D01*
X34125Y-19409D01*
X34125Y-20392D01*
X34143Y-20482D01*
X34164Y-20512D01*
X34164Y-20695D01*
X34182Y-20738D01*
X34215Y-20772D01*
X34258Y-20790D01*
X34305Y-20790D01*
X34665Y-20790D01*
X34709Y-20772D01*
X34742Y-20739D01*
X34760Y-20695D01*
X34760Y-20648D01*
X34760Y-20288D01*
X34742Y-20245D01*
X34709Y-20212D01*
X34665Y-20194D01*
X34618Y-20193D01*
X34598Y-20193D01*
X34598Y-19409D01*
X34598Y-19409D01*
X34716Y-19292D01*
X34780Y-19138D01*
X34780Y-18972D01*
X34780Y-21100D01*
X34753Y-21073D01*
X34681Y-21043D01*
X34556Y-21043D01*
X34506Y-21093D01*
X34506Y-21476D01*
X34790Y-21476D01*
X34839Y-21427D01*
X34839Y-21279D01*
X34839Y-21751D01*
X34839Y-21604D01*
X34790Y-21555D01*
X34506Y-21555D01*
X34506Y-21938D01*
X34556Y-21987D01*
X34681Y-21987D01*
X34753Y-21957D01*
X34809Y-21902D01*
X34839Y-21830D01*
X34839Y-21751D01*
X34839Y-22099D01*
X34658Y-22099D01*
X34615Y-22117D01*
X34581Y-22150D01*
X34563Y-22193D01*
X34563Y-22240D01*
X34563Y-23040D01*
X34581Y-23084D01*
X34614Y-23117D01*
X34645Y-23130D01*
X34645Y-23464D01*
X34645Y-23511D01*
X34663Y-23554D01*
X34681Y-23598D01*
X34747Y-23664D01*
X34791Y-23682D01*
X34834Y-23700D01*
X34881Y-23700D01*
X34928Y-23700D01*
X34972Y-23682D01*
X35015Y-23664D01*
X35048Y-23631D01*
X35082Y-23598D01*
X35100Y-23554D01*
X35118Y-23511D01*
X35118Y-23464D01*
X35118Y-23417D01*
X35118Y-23417D01*
X35118Y-23130D01*
X35148Y-23117D01*
X35181Y-23084D01*
X35199Y-23040D01*
X35200Y-22993D01*
X35200Y-24699D01*
X34428Y-24699D01*
X34428Y-21938D01*
X34428Y-21555D01*
X34428Y-21476D01*
X34428Y-21093D01*
X34378Y-21043D01*
X34253Y-21043D01*
X34181Y-21073D01*
X34125Y-21129D01*
X34095Y-21201D01*
X34095Y-21279D01*
X34095Y-21427D01*
X34144Y-21476D01*
X34428Y-21476D01*
X34428Y-21555D01*
X34144Y-21555D01*
X34095Y-21604D01*
X34095Y-21751D01*
X34095Y-21830D01*
X34125Y-21902D01*
X34181Y-21957D01*
X34253Y-21987D01*
X34378Y-21987D01*
X34428Y-21938D01*
X34428Y-24699D01*
X34378Y-24699D01*
X34378Y-22978D01*
X34378Y-22256D01*
X34378Y-22177D01*
X34348Y-22105D01*
X34293Y-22050D01*
X34220Y-22020D01*
X34070Y-22020D01*
X34021Y-22069D01*
X34021Y-22577D01*
X34329Y-22577D01*
X34378Y-22528D01*
X34378Y-22256D01*
X34378Y-22978D01*
X34378Y-22705D01*
X34329Y-22656D01*
X34021Y-22656D01*
X34021Y-23164D01*
X34070Y-23214D01*
X34220Y-23214D01*
X34293Y-23184D01*
X34348Y-23128D01*
X34378Y-23056D01*
X34378Y-22978D01*
X34378Y-24699D01*
X34138Y-24699D01*
X34095Y-24717D01*
X34061Y-24750D01*
X34043Y-24793D01*
X34043Y-24840D01*
X34043Y-25640D01*
X34061Y-25684D01*
X34094Y-25717D01*
X34138Y-25735D01*
X34185Y-25735D01*
X35625Y-25735D01*
X35668Y-25717D01*
X35701Y-25684D01*
X35719Y-25640D01*
X35720Y-25593D01*
X35720Y-26747D01*
X35655Y-26747D01*
X35606Y-26796D01*
X35606Y-27204D01*
X36014Y-27204D01*
X36063Y-27155D01*
X36063Y-26983D01*
X36063Y-27505D01*
X36063Y-27332D01*
X36014Y-27283D01*
X35606Y-27283D01*
X35606Y-27691D01*
X35655Y-27740D01*
X35905Y-27740D01*
X35978Y-27711D01*
X36033Y-27655D01*
X36063Y-27583D01*
X36063Y-27505D01*
X36063Y-28198D01*
X35527Y-28198D01*
X35527Y-27691D01*
X35527Y-27283D01*
X35527Y-27204D01*
X35527Y-26796D01*
X35478Y-26747D01*
X35227Y-26747D01*
X35155Y-26777D01*
X35100Y-26832D01*
X35070Y-26904D01*
X35070Y-26983D01*
X35070Y-27155D01*
X35119Y-27204D01*
X35527Y-27204D01*
X35527Y-27283D01*
X35119Y-27283D01*
X35070Y-27332D01*
X35070Y-27505D01*
X35070Y-27583D01*
X35100Y-27655D01*
X35155Y-27711D01*
X35227Y-27740D01*
X35478Y-27740D01*
X35527Y-27691D01*
X35527Y-28198D01*
X35067Y-28198D01*
X35067Y-27323D01*
X35059Y-27126D01*
X34998Y-26979D01*
X34916Y-26949D01*
X34861Y-27005D01*
X34861Y-26894D01*
X34831Y-26812D01*
X34646Y-26743D01*
X34449Y-26751D01*
X34301Y-26812D01*
X34272Y-26894D01*
X34566Y-27188D01*
X34861Y-26894D01*
X34861Y-27005D01*
X34622Y-27244D01*
X34916Y-27538D01*
X34998Y-27509D01*
X35067Y-27323D01*
X35067Y-28198D01*
X34861Y-28198D01*
X34861Y-27594D01*
X34566Y-27299D01*
X34511Y-27355D01*
X34511Y-27244D01*
X34216Y-26949D01*
X34135Y-26979D01*
X34066Y-27164D01*
X34074Y-27361D01*
X34135Y-27509D01*
X34216Y-27538D01*
X34511Y-27244D01*
X34511Y-27355D01*
X34272Y-27594D01*
X34301Y-27675D01*
X34487Y-27744D01*
X34684Y-27736D01*
X34831Y-27675D01*
X34861Y-27594D01*
X34861Y-28198D01*
X34067Y-28198D01*
X34067Y-27323D01*
X34059Y-27126D01*
X33998Y-26979D01*
X33942Y-26958D01*
X33942Y-23164D01*
X33942Y-22656D01*
X33942Y-22577D01*
X33942Y-22069D01*
X33893Y-22020D01*
X33742Y-22020D01*
X33670Y-22050D01*
X33615Y-22105D01*
X33585Y-22177D01*
X33585Y-22256D01*
X33585Y-22528D01*
X33634Y-22577D01*
X33942Y-22577D01*
X33942Y-22656D01*
X33634Y-22656D01*
X33585Y-22705D01*
X33585Y-22978D01*
X33585Y-23056D01*
X33615Y-23128D01*
X33670Y-23184D01*
X33742Y-23214D01*
X33893Y-23214D01*
X33942Y-23164D01*
X33942Y-26958D01*
X33916Y-26949D01*
X33861Y-27005D01*
X33861Y-26894D01*
X33831Y-26812D01*
X33646Y-26743D01*
X33449Y-26751D01*
X33426Y-26760D01*
X33426Y-18972D01*
X33362Y-18818D01*
X33245Y-18700D01*
X33091Y-18637D01*
X32925Y-18636D01*
X32771Y-18700D01*
X32653Y-18817D01*
X32589Y-18971D01*
X32589Y-19137D01*
X32653Y-19291D01*
X32770Y-19409D01*
X32924Y-19473D01*
X33090Y-19473D01*
X33244Y-19409D01*
X33362Y-19292D01*
X33425Y-19138D01*
X33426Y-18972D01*
X33426Y-26760D01*
X33301Y-26812D01*
X33272Y-26894D01*
X33566Y-27188D01*
X33861Y-26894D01*
X33861Y-27005D01*
X33622Y-27244D01*
X33916Y-27538D01*
X33998Y-27509D01*
X34067Y-27323D01*
X34067Y-28198D01*
X33861Y-28198D01*
X33861Y-27594D01*
X33566Y-27299D01*
X33511Y-27355D01*
X33511Y-27244D01*
X33216Y-26949D01*
X33135Y-26979D01*
X33066Y-27164D01*
X33074Y-27361D01*
X33135Y-27509D01*
X33216Y-27538D01*
X33511Y-27244D01*
X33511Y-27355D01*
X33272Y-27594D01*
X33301Y-27675D01*
X33487Y-27744D01*
X33684Y-27736D01*
X33831Y-27675D01*
X33861Y-27594D01*
X33861Y-28198D01*
X32894Y-28198D01*
X32894Y-27161D01*
X32831Y-27007D01*
X32713Y-26889D01*
X32559Y-26826D01*
X32426Y-26825D01*
X32426Y-18972D01*
X32362Y-18818D01*
X32245Y-18700D01*
X32091Y-18637D01*
X31925Y-18636D01*
X31771Y-18700D01*
X31653Y-18817D01*
X31589Y-18971D01*
X31589Y-19137D01*
X31653Y-19291D01*
X31770Y-19409D01*
X31924Y-19473D01*
X32090Y-19473D01*
X32244Y-19409D01*
X32362Y-19292D01*
X32425Y-19138D01*
X32426Y-18972D01*
X32426Y-26825D01*
X32393Y-26825D01*
X32256Y-26882D01*
X32256Y-25015D01*
X32117Y-24677D01*
X31859Y-24418D01*
X31522Y-24278D01*
X31426Y-24278D01*
X31426Y-19331D01*
X31426Y-18731D01*
X31408Y-18688D01*
X31374Y-18655D01*
X31331Y-18637D01*
X31284Y-18636D01*
X30684Y-18636D01*
X30641Y-18654D01*
X30607Y-18688D01*
X30589Y-18731D01*
X30589Y-18778D01*
X30589Y-19378D01*
X30607Y-19421D01*
X30640Y-19455D01*
X30684Y-19473D01*
X30731Y-19473D01*
X31331Y-19473D01*
X31374Y-19455D01*
X31407Y-19422D01*
X31425Y-19378D01*
X31426Y-19331D01*
X31426Y-24278D01*
X31156Y-24278D01*
X30819Y-24418D01*
X30610Y-24626D01*
X30610Y-22728D01*
X30592Y-22685D01*
X30574Y-22641D01*
X30507Y-22575D01*
X30507Y-22575D01*
X30099Y-22166D01*
X30099Y-18972D01*
X30035Y-18818D01*
X29918Y-18700D01*
X29764Y-18637D01*
X29598Y-18636D01*
X29444Y-18700D01*
X29326Y-18817D01*
X29263Y-18971D01*
X29262Y-19137D01*
X29326Y-19291D01*
X29443Y-19409D01*
X29597Y-19473D01*
X29763Y-19473D01*
X29917Y-19409D01*
X30035Y-19292D01*
X30099Y-19138D01*
X30099Y-18972D01*
X30099Y-22166D01*
X29099Y-21166D01*
X29099Y-18972D01*
X29035Y-18818D01*
X28918Y-18700D01*
X28764Y-18637D01*
X28598Y-18636D01*
X28444Y-18700D01*
X28326Y-18817D01*
X28263Y-18971D01*
X28262Y-19137D01*
X28326Y-19291D01*
X28443Y-19409D01*
X28597Y-19473D01*
X28763Y-19473D01*
X28917Y-19409D01*
X29035Y-19292D01*
X29099Y-19138D01*
X29099Y-18972D01*
X29099Y-21166D01*
X28099Y-20166D01*
X28099Y-19331D01*
X28099Y-18731D01*
X28081Y-18688D01*
X28048Y-18655D01*
X28004Y-18637D01*
X27957Y-18636D01*
X27357Y-18636D01*
X27314Y-18654D01*
X27281Y-18688D01*
X27263Y-18731D01*
X27262Y-18778D01*
X27262Y-19378D01*
X27280Y-19421D01*
X27314Y-19455D01*
X27357Y-19473D01*
X27404Y-19473D01*
X28004Y-19473D01*
X28047Y-19455D01*
X28081Y-19422D01*
X28099Y-19378D01*
X28099Y-19331D01*
X28099Y-20166D01*
X27844Y-19911D01*
X27767Y-19860D01*
X27677Y-19842D01*
X26784Y-19842D01*
X26784Y-19090D01*
X26784Y-18840D01*
X26735Y-18791D01*
X26326Y-18791D01*
X26326Y-19199D01*
X26375Y-19248D01*
X26548Y-19248D01*
X26626Y-19248D01*
X26699Y-19218D01*
X26754Y-19163D01*
X26784Y-19090D01*
X26784Y-19842D01*
X26712Y-19842D01*
X26705Y-19835D01*
X26705Y-19835D01*
X26705Y-19669D01*
X26642Y-19515D01*
X26524Y-19397D01*
X26370Y-19333D01*
X26248Y-19333D01*
X26248Y-19199D01*
X26248Y-18791D01*
X25839Y-18791D01*
X25790Y-18840D01*
X25790Y-19090D01*
X25820Y-19163D01*
X25875Y-19218D01*
X25948Y-19248D01*
X26026Y-19248D01*
X26198Y-19248D01*
X26248Y-19199D01*
X26248Y-19333D01*
X26204Y-19333D01*
X26050Y-19397D01*
X25933Y-19514D01*
X25869Y-19668D01*
X25869Y-19834D01*
X25932Y-19988D01*
X26050Y-20106D01*
X26203Y-20170D01*
X26370Y-20170D01*
X26371Y-20169D01*
X26447Y-20245D01*
X26523Y-20296D01*
X26614Y-20314D01*
X27579Y-20314D01*
X30206Y-22942D01*
X30240Y-22975D01*
X30326Y-23011D01*
X30420Y-23011D01*
X30464Y-22993D01*
X30507Y-22975D01*
X30574Y-22909D01*
X30610Y-22822D01*
X30610Y-22728D01*
X30610Y-24626D01*
X30560Y-24676D01*
X30420Y-25013D01*
X30420Y-25378D01*
X30559Y-25716D01*
X30817Y-25974D01*
X31155Y-26114D01*
X31520Y-26115D01*
X31857Y-25975D01*
X32116Y-25717D01*
X32256Y-25380D01*
X32256Y-25015D01*
X32256Y-26882D01*
X32239Y-26889D01*
X32122Y-27006D01*
X32058Y-27160D01*
X32058Y-27326D01*
X32121Y-27480D01*
X32239Y-27598D01*
X32392Y-27662D01*
X32559Y-27662D01*
X32712Y-27598D01*
X32830Y-27481D01*
X32894Y-27327D01*
X32894Y-27161D01*
X32894Y-28198D01*
X31894Y-28198D01*
X31894Y-27161D01*
X31831Y-27007D01*
X31713Y-26889D01*
X31559Y-26826D01*
X31393Y-26825D01*
X31239Y-26889D01*
X31122Y-27006D01*
X31058Y-27160D01*
X31058Y-27326D01*
X31121Y-27480D01*
X31239Y-27598D01*
X31392Y-27662D01*
X31559Y-27662D01*
X31712Y-27598D01*
X31830Y-27481D01*
X31894Y-27327D01*
X31894Y-27161D01*
X31894Y-28198D01*
X30894Y-28198D01*
X30894Y-27520D01*
X30894Y-26920D01*
X30876Y-26877D01*
X30843Y-26844D01*
X30799Y-26826D01*
X30752Y-26825D01*
X30152Y-26825D01*
X30109Y-26843D01*
X30076Y-26877D01*
X30058Y-26920D01*
X30058Y-26967D01*
X30058Y-27567D01*
X30076Y-27610D01*
X30109Y-27644D01*
X30152Y-27662D01*
X30199Y-27662D01*
X30799Y-27662D01*
X30843Y-27644D01*
X30876Y-27611D01*
X30894Y-27567D01*
X30894Y-27520D01*
X30894Y-28198D01*
X29804Y-28198D01*
X29804Y-27161D01*
X29740Y-27007D01*
X29622Y-26889D01*
X29469Y-26826D01*
X29303Y-26825D01*
X29149Y-26889D01*
X29031Y-27006D01*
X28967Y-27160D01*
X28967Y-27326D01*
X29031Y-27480D01*
X29148Y-27598D01*
X29302Y-27662D01*
X29468Y-27662D01*
X29622Y-27598D01*
X29740Y-27481D01*
X29803Y-27327D01*
X29804Y-27161D01*
X29804Y-28198D01*
X28804Y-28198D01*
X28804Y-27161D01*
X28740Y-27007D01*
X28622Y-26889D01*
X28469Y-26826D01*
X28303Y-26825D01*
X28149Y-26889D01*
X28031Y-27006D01*
X27967Y-27160D01*
X27967Y-27326D01*
X28031Y-27480D01*
X28148Y-27598D01*
X28302Y-27662D01*
X28468Y-27662D01*
X28622Y-27598D01*
X28740Y-27481D01*
X28803Y-27327D01*
X28804Y-27161D01*
X28804Y-28198D01*
X27803Y-28198D01*
X27803Y-27520D01*
X27803Y-26920D01*
X27786Y-26877D01*
X27752Y-26844D01*
X27709Y-26826D01*
X27662Y-26825D01*
X27322Y-26825D01*
X27322Y-21980D01*
X27286Y-21893D01*
X27254Y-21861D01*
X27254Y-21555D01*
X27241Y-21490D01*
X27205Y-21436D01*
X27205Y-21436D01*
X26675Y-20906D01*
X26705Y-20835D01*
X26705Y-20669D01*
X26642Y-20515D01*
X26524Y-20397D01*
X26370Y-20333D01*
X26204Y-20333D01*
X26050Y-20397D01*
X25933Y-20514D01*
X25869Y-20668D01*
X25869Y-20834D01*
X25932Y-20988D01*
X26050Y-21106D01*
X26203Y-21170D01*
X26370Y-21170D01*
X26436Y-21142D01*
X26918Y-21624D01*
X26918Y-21861D01*
X26886Y-21893D01*
X26850Y-21980D01*
X26850Y-22074D01*
X26886Y-22161D01*
X26952Y-22227D01*
X27039Y-22263D01*
X27133Y-22263D01*
X27220Y-22227D01*
X27286Y-22161D01*
X27322Y-22074D01*
X27322Y-21980D01*
X27322Y-26825D01*
X27062Y-26825D01*
X27019Y-26843D01*
X26985Y-26877D01*
X26967Y-26920D01*
X26967Y-26967D01*
X26967Y-27567D01*
X26985Y-27610D01*
X27018Y-27644D01*
X27062Y-27662D01*
X27109Y-27662D01*
X27709Y-27662D01*
X27752Y-27644D01*
X27785Y-27611D01*
X27803Y-27567D01*
X27803Y-27520D01*
X27803Y-28198D01*
X27038Y-28198D01*
X27048Y-28188D01*
X27094Y-28189D01*
X27180Y-28153D01*
X27247Y-28086D01*
X27283Y-27999D01*
X27283Y-27905D01*
X27247Y-27819D01*
X27181Y-27752D01*
X27094Y-27716D01*
X27000Y-27716D01*
X26913Y-27752D01*
X26847Y-27818D01*
X26811Y-27905D01*
X26811Y-27951D01*
X26721Y-28040D01*
X26590Y-28040D01*
X26641Y-27989D01*
X26705Y-27835D01*
X26705Y-27669D01*
X26705Y-26669D01*
X26705Y-25669D01*
X26705Y-24669D01*
X26705Y-23669D01*
X26705Y-22669D01*
X26705Y-21669D01*
X26642Y-21515D01*
X26524Y-21397D01*
X26370Y-21333D01*
X26204Y-21333D01*
X26050Y-21397D01*
X25933Y-21514D01*
X25869Y-21668D01*
X25869Y-21834D01*
X25932Y-21988D01*
X26050Y-22106D01*
X26203Y-22170D01*
X26370Y-22170D01*
X26523Y-22106D01*
X26641Y-21989D01*
X26705Y-21835D01*
X26705Y-21669D01*
X26705Y-22669D01*
X26642Y-22515D01*
X26524Y-22397D01*
X26370Y-22333D01*
X26204Y-22333D01*
X26050Y-22397D01*
X25933Y-22514D01*
X25869Y-22668D01*
X25869Y-22834D01*
X25932Y-22988D01*
X26050Y-23106D01*
X26203Y-23170D01*
X26370Y-23170D01*
X26523Y-23106D01*
X26641Y-22989D01*
X26705Y-22835D01*
X26705Y-22669D01*
X26705Y-23669D01*
X26642Y-23515D01*
X26524Y-23397D01*
X26370Y-23333D01*
X26204Y-23333D01*
X26050Y-23397D01*
X25933Y-23514D01*
X25869Y-23668D01*
X25869Y-23834D01*
X25932Y-23988D01*
X26050Y-24106D01*
X26203Y-24170D01*
X26370Y-24170D01*
X26523Y-24106D01*
X26641Y-23989D01*
X26705Y-23835D01*
X26705Y-23669D01*
X26705Y-24669D01*
X26642Y-24515D01*
X26524Y-24397D01*
X26370Y-24333D01*
X26204Y-24333D01*
X26050Y-24397D01*
X25933Y-24514D01*
X25869Y-24668D01*
X25869Y-24834D01*
X25932Y-24988D01*
X26050Y-25106D01*
X26203Y-25170D01*
X26370Y-25170D01*
X26523Y-25106D01*
X26641Y-24989D01*
X26705Y-24835D01*
X26705Y-24669D01*
X26705Y-25669D01*
X26642Y-25515D01*
X26524Y-25397D01*
X26370Y-25333D01*
X26204Y-25333D01*
X26050Y-25397D01*
X25933Y-25514D01*
X25869Y-25668D01*
X25869Y-25834D01*
X25932Y-25988D01*
X26050Y-26106D01*
X26203Y-26170D01*
X26370Y-26170D01*
X26523Y-26106D01*
X26641Y-25989D01*
X26705Y-25835D01*
X26705Y-25669D01*
X26705Y-26669D01*
X26642Y-26515D01*
X26524Y-26397D01*
X26370Y-26333D01*
X26204Y-26333D01*
X26050Y-26397D01*
X25933Y-26514D01*
X25869Y-26668D01*
X25869Y-26834D01*
X25932Y-26988D01*
X26050Y-27106D01*
X26203Y-27170D01*
X26370Y-27170D01*
X26523Y-27106D01*
X26641Y-26989D01*
X26705Y-26835D01*
X26705Y-26669D01*
X26705Y-27669D01*
X26642Y-27515D01*
X26524Y-27397D01*
X26370Y-27333D01*
X26204Y-27333D01*
X26050Y-27397D01*
X25933Y-27514D01*
X25869Y-27668D01*
X25869Y-27834D01*
X25932Y-27988D01*
X25984Y-28040D01*
X25590Y-28040D01*
X25641Y-27989D01*
X25705Y-27835D01*
X25705Y-27669D01*
X25642Y-27515D01*
X25524Y-27397D01*
X25370Y-27333D01*
X25204Y-27333D01*
X25050Y-27397D01*
X25010Y-27437D01*
X25010Y-27066D01*
X25050Y-27106D01*
X25203Y-27170D01*
X25370Y-27170D01*
X25523Y-27106D01*
X25641Y-26989D01*
X25705Y-26835D01*
X25705Y-26669D01*
X25642Y-26515D01*
X25524Y-26397D01*
X25370Y-26333D01*
X25204Y-26333D01*
X25050Y-26397D01*
X25010Y-26437D01*
X25010Y-26066D01*
X25050Y-26106D01*
X25203Y-26170D01*
X25370Y-26170D01*
X25523Y-26106D01*
X25641Y-25989D01*
X25705Y-25835D01*
X25705Y-25669D01*
X25642Y-25515D01*
X25524Y-25397D01*
X25370Y-25333D01*
X25204Y-25333D01*
X25050Y-25397D01*
X25010Y-25437D01*
X25010Y-25066D01*
X25050Y-25106D01*
X25203Y-25170D01*
X25370Y-25170D01*
X25523Y-25106D01*
X25641Y-24989D01*
X25705Y-24835D01*
X25705Y-24669D01*
X25642Y-24515D01*
X25524Y-24397D01*
X25370Y-24333D01*
X25204Y-24333D01*
X25050Y-24397D01*
X25010Y-24437D01*
X25010Y-24066D01*
X25050Y-24106D01*
X25203Y-24170D01*
X25370Y-24170D01*
X25523Y-24106D01*
X25641Y-23989D01*
X25705Y-23835D01*
X25705Y-23669D01*
X25642Y-23515D01*
X25524Y-23397D01*
X25370Y-23333D01*
X25204Y-23333D01*
X25050Y-23397D01*
X25010Y-23437D01*
X25010Y-23066D01*
X25050Y-23106D01*
X25203Y-23170D01*
X25370Y-23170D01*
X25523Y-23106D01*
X25641Y-22989D01*
X25705Y-22835D01*
X25705Y-22669D01*
X25642Y-22515D01*
X25524Y-22397D01*
X25370Y-22333D01*
X25204Y-22333D01*
X25050Y-22397D01*
X25010Y-22437D01*
X25010Y-22274D01*
X25141Y-22143D01*
X25203Y-22170D01*
X25370Y-22170D01*
X25523Y-22106D01*
X25641Y-21989D01*
X25705Y-21835D01*
X25705Y-21669D01*
X25705Y-20669D01*
X25705Y-19669D01*
X25705Y-18669D01*
X25642Y-18515D01*
X25524Y-18397D01*
X25370Y-18333D01*
X25204Y-18333D01*
X25050Y-18397D01*
X24933Y-18514D01*
X24869Y-18668D01*
X24869Y-18834D01*
X24932Y-18988D01*
X25050Y-19106D01*
X25203Y-19170D01*
X25370Y-19170D01*
X25523Y-19106D01*
X25641Y-18989D01*
X25705Y-18835D01*
X25705Y-18669D01*
X25705Y-19669D01*
X25642Y-19515D01*
X25524Y-19397D01*
X25370Y-19333D01*
X25204Y-19333D01*
X25050Y-19397D01*
X24933Y-19514D01*
X24869Y-19668D01*
X24869Y-19834D01*
X24932Y-19988D01*
X25050Y-20106D01*
X25203Y-20170D01*
X25370Y-20170D01*
X25523Y-20106D01*
X25641Y-19989D01*
X25705Y-19835D01*
X25705Y-19669D01*
X25705Y-20669D01*
X25642Y-20515D01*
X25524Y-20397D01*
X25370Y-20333D01*
X25204Y-20333D01*
X25050Y-20397D01*
X24933Y-20514D01*
X24869Y-20668D01*
X24869Y-20834D01*
X24932Y-20988D01*
X25050Y-21106D01*
X25203Y-21170D01*
X25370Y-21170D01*
X25523Y-21106D01*
X25641Y-20989D01*
X25705Y-20835D01*
X25705Y-20669D01*
X25705Y-21669D01*
X25642Y-21515D01*
X25524Y-21397D01*
X25370Y-21333D01*
X25204Y-21333D01*
X25050Y-21397D01*
X24933Y-21514D01*
X24869Y-21668D01*
X24869Y-21834D01*
X24900Y-21909D01*
X24832Y-21976D01*
X24832Y-18297D01*
X25863Y-18297D01*
X25820Y-18340D01*
X25790Y-18412D01*
X25790Y-18663D01*
X25839Y-18712D01*
X26248Y-18712D01*
X26248Y-18704D01*
X26326Y-18704D01*
X26326Y-18712D01*
X26735Y-18712D01*
X26784Y-18663D01*
X26784Y-18412D01*
X26754Y-18340D01*
X26711Y-18297D01*
X37408Y-18297D01*
X37305Y-18339D01*
X37276Y-18421D01*
X37570Y-18715D01*
X37865Y-18421D01*
X37835Y-18339D01*
X37720Y-18297D01*
X39831Y-18297D01*
X39739Y-18388D01*
X39654Y-18353D01*
X39488Y-18353D01*
X39334Y-18416D01*
X39216Y-18534D01*
X39152Y-18688D01*
X39152Y-18854D01*
X39216Y-19008D01*
X39333Y-19125D01*
X39487Y-19189D01*
X39653Y-19189D01*
X39807Y-19126D01*
X39925Y-19008D01*
X39988Y-18855D01*
X39989Y-18688D01*
X39967Y-18636D01*
X40109Y-18494D01*
X40457Y-18494D01*
G54D10*
G36*
X44222Y-28198D02*
X43395Y-28198D01*
X43504Y-28153D01*
X43621Y-28036D01*
X43685Y-27882D01*
X43685Y-27716D01*
X43622Y-27562D01*
X43504Y-27444D01*
X43503Y-27444D01*
X43503Y-27154D01*
X43504Y-27153D01*
X43621Y-27036D01*
X43685Y-26882D01*
X43685Y-26716D01*
X43622Y-26562D01*
X43504Y-26444D01*
X43351Y-26381D01*
X43184Y-26381D01*
X43031Y-26444D01*
X42913Y-26562D01*
X42849Y-26715D01*
X42849Y-26882D01*
X42913Y-27035D01*
X43030Y-27153D01*
X43031Y-27153D01*
X43031Y-27444D01*
X43031Y-27444D01*
X42913Y-27562D01*
X42849Y-27715D01*
X42849Y-27882D01*
X42913Y-28035D01*
X43030Y-28153D01*
X43139Y-28198D01*
X41849Y-28198D01*
X41996Y-28138D01*
X42114Y-28020D01*
X42177Y-27866D01*
X42178Y-27700D01*
X42178Y-26700D01*
X42114Y-26546D01*
X41996Y-26429D01*
X41843Y-26365D01*
X41677Y-26365D01*
X41523Y-26428D01*
X41405Y-26546D01*
X41341Y-26699D01*
X41341Y-26866D01*
X41405Y-27019D01*
X41522Y-27137D01*
X41676Y-27201D01*
X41842Y-27201D01*
X41996Y-27138D01*
X42114Y-27020D01*
X42177Y-26866D01*
X42178Y-26700D01*
X42178Y-27700D01*
X42114Y-27546D01*
X41996Y-27429D01*
X41843Y-27365D01*
X41677Y-27365D01*
X41523Y-27428D01*
X41405Y-27546D01*
X41341Y-27699D01*
X41341Y-27866D01*
X41405Y-28019D01*
X41522Y-28137D01*
X41669Y-28198D01*
X41178Y-28198D01*
X41178Y-26700D01*
X41114Y-26546D01*
X40996Y-26429D01*
X40843Y-26365D01*
X40677Y-26365D01*
X40523Y-26428D01*
X40405Y-26546D01*
X40341Y-26699D01*
X40341Y-26866D01*
X40405Y-27019D01*
X40522Y-27137D01*
X40676Y-27201D01*
X40842Y-27201D01*
X40996Y-27138D01*
X41114Y-27020D01*
X41177Y-26866D01*
X41178Y-26700D01*
X41178Y-28198D01*
X41089Y-28198D01*
X41126Y-28183D01*
X41159Y-28150D01*
X41177Y-28107D01*
X41177Y-28060D01*
X41177Y-27460D01*
X41160Y-27416D01*
X41126Y-27383D01*
X41083Y-27365D01*
X41036Y-27365D01*
X40436Y-27365D01*
X40393Y-27383D01*
X40359Y-27416D01*
X40341Y-27459D01*
X40341Y-27506D01*
X40341Y-28106D01*
X40359Y-28150D01*
X40392Y-28183D01*
X40429Y-28198D01*
X39719Y-28198D01*
X39866Y-28138D01*
X39984Y-28020D01*
X40047Y-27866D01*
X40048Y-27700D01*
X39984Y-27546D01*
X39867Y-27429D01*
X39713Y-27365D01*
X39547Y-27365D01*
X39480Y-27392D01*
X39301Y-27213D01*
X39301Y-27046D01*
X39392Y-27137D01*
X39546Y-27201D01*
X39712Y-27201D01*
X39866Y-27138D01*
X39984Y-27020D01*
X40047Y-26866D01*
X40048Y-26700D01*
X39984Y-26546D01*
X39867Y-26429D01*
X39713Y-26365D01*
X39547Y-26365D01*
X39393Y-26428D01*
X39301Y-26520D01*
X39301Y-25109D01*
X40296Y-24114D01*
X40296Y-24114D01*
X40296Y-24114D01*
X40332Y-24060D01*
X40332Y-24060D01*
X40342Y-24008D01*
X40345Y-23996D01*
X40345Y-23996D01*
X40345Y-23996D01*
X40345Y-23875D01*
X40405Y-24019D01*
X40441Y-24056D01*
X40358Y-24090D01*
X40291Y-24157D01*
X40255Y-24244D01*
X40255Y-24338D01*
X40291Y-24424D01*
X40358Y-24491D01*
X40430Y-24521D01*
X40405Y-24546D01*
X40341Y-24699D01*
X40341Y-24866D01*
X40405Y-25019D01*
X40432Y-25047D01*
X40023Y-25047D01*
X39984Y-25039D01*
X39901Y-25039D01*
X39854Y-25039D01*
X39767Y-25075D01*
X39701Y-25141D01*
X39665Y-25228D01*
X39665Y-25322D01*
X39683Y-25365D01*
X39701Y-25409D01*
X39767Y-25475D01*
X39811Y-25493D01*
X39854Y-25511D01*
X39901Y-25511D01*
X39948Y-25511D01*
X39948Y-25511D01*
X39952Y-25511D01*
X39992Y-25519D01*
X40432Y-25519D01*
X40405Y-25546D01*
X40341Y-25699D01*
X40341Y-25866D01*
X40405Y-26019D01*
X40522Y-26137D01*
X40676Y-26201D01*
X40842Y-26201D01*
X40996Y-26138D01*
X41114Y-26020D01*
X41177Y-25866D01*
X41178Y-25700D01*
X41114Y-25546D01*
X41087Y-25519D01*
X41432Y-25519D01*
X41405Y-25546D01*
X41341Y-25699D01*
X41341Y-25866D01*
X41405Y-26019D01*
X41522Y-26137D01*
X41676Y-26201D01*
X41842Y-26201D01*
X41996Y-26138D01*
X42114Y-26020D01*
X42177Y-25866D01*
X42178Y-25700D01*
X42114Y-25546D01*
X42087Y-25519D01*
X42654Y-25519D01*
X42849Y-25715D01*
X42849Y-25715D01*
X42849Y-25882D01*
X42913Y-26035D01*
X43030Y-26153D01*
X43184Y-26217D01*
X43350Y-26217D01*
X43504Y-26153D01*
X43621Y-26036D01*
X43685Y-25882D01*
X43685Y-25716D01*
X43622Y-25562D01*
X43504Y-25444D01*
X43351Y-25381D01*
X43184Y-25381D01*
X43183Y-25381D01*
X43019Y-25217D01*
X43591Y-25217D01*
X43634Y-25199D01*
X43667Y-25166D01*
X43685Y-25122D01*
X43685Y-25075D01*
X43685Y-24475D01*
X43667Y-24432D01*
X43634Y-24399D01*
X43591Y-24381D01*
X43544Y-24381D01*
X43390Y-24381D01*
X43390Y-21004D01*
X43390Y-20753D01*
X43341Y-20704D01*
X42933Y-20704D01*
X42933Y-21112D01*
X42982Y-21162D01*
X43154Y-21162D01*
X43233Y-21162D01*
X43305Y-21132D01*
X43360Y-21076D01*
X43390Y-21004D01*
X43390Y-24381D01*
X43311Y-24381D01*
X43311Y-23582D01*
X43311Y-22582D01*
X43311Y-21582D01*
X43248Y-21428D01*
X43130Y-21311D01*
X42977Y-21247D01*
X42854Y-21247D01*
X42854Y-21112D01*
X42854Y-20704D01*
X42854Y-20625D01*
X42854Y-20217D01*
X42805Y-20168D01*
X42632Y-20168D01*
X42554Y-20168D01*
X42482Y-20198D01*
X42426Y-20253D01*
X42396Y-20326D01*
X42396Y-20576D01*
X42446Y-20625D01*
X42854Y-20625D01*
X42854Y-20704D01*
X42446Y-20704D01*
X42396Y-20753D01*
X42396Y-21004D01*
X42426Y-21076D01*
X42482Y-21132D01*
X42554Y-21162D01*
X42632Y-21162D01*
X42805Y-21162D01*
X42854Y-21112D01*
X42854Y-21247D01*
X42810Y-21247D01*
X42657Y-21310D01*
X42539Y-21428D01*
X42475Y-21581D01*
X42475Y-21748D01*
X42539Y-21901D01*
X42656Y-22019D01*
X42810Y-22083D01*
X42976Y-22083D01*
X43130Y-22020D01*
X43247Y-21902D01*
X43311Y-21748D01*
X43311Y-21582D01*
X43311Y-22582D01*
X43248Y-22428D01*
X43130Y-22311D01*
X42977Y-22247D01*
X42810Y-22247D01*
X42657Y-22310D01*
X42539Y-22428D01*
X42475Y-22581D01*
X42475Y-22748D01*
X42539Y-22901D01*
X42656Y-23019D01*
X42810Y-23083D01*
X42976Y-23083D01*
X43130Y-23020D01*
X43247Y-22902D01*
X43311Y-22748D01*
X43311Y-22582D01*
X43311Y-23582D01*
X43248Y-23428D01*
X43130Y-23311D01*
X42977Y-23247D01*
X42810Y-23247D01*
X42657Y-23310D01*
X42539Y-23428D01*
X42475Y-23581D01*
X42475Y-23748D01*
X42539Y-23901D01*
X42656Y-24019D01*
X42810Y-24083D01*
X42976Y-24083D01*
X43130Y-24020D01*
X43247Y-23902D01*
X43311Y-23748D01*
X43311Y-23582D01*
X43311Y-24381D01*
X42944Y-24381D01*
X42900Y-24399D01*
X42867Y-24432D01*
X42849Y-24475D01*
X42849Y-24522D01*
X42849Y-25070D01*
X42842Y-25065D01*
X42751Y-25047D01*
X42087Y-25047D01*
X42114Y-25020D01*
X42177Y-24866D01*
X42178Y-24700D01*
X42114Y-24546D01*
X41996Y-24429D01*
X41843Y-24365D01*
X41677Y-24365D01*
X41523Y-24428D01*
X41405Y-24546D01*
X41341Y-24699D01*
X41341Y-24866D01*
X41405Y-25019D01*
X41432Y-25047D01*
X41087Y-25047D01*
X41114Y-25020D01*
X41177Y-24866D01*
X41178Y-24700D01*
X41114Y-24546D01*
X41020Y-24452D01*
X41048Y-24446D01*
X41103Y-24410D01*
X41378Y-24134D01*
X41378Y-24134D01*
X41378Y-24134D01*
X41415Y-24080D01*
X41423Y-24038D01*
X41522Y-24137D01*
X41676Y-24201D01*
X41842Y-24201D01*
X41996Y-24138D01*
X42114Y-24020D01*
X42177Y-23866D01*
X42178Y-23700D01*
X42114Y-23546D01*
X41996Y-23429D01*
X41843Y-23365D01*
X41677Y-23365D01*
X41523Y-23428D01*
X41427Y-23523D01*
X41427Y-23042D01*
X41522Y-23137D01*
X41676Y-23201D01*
X41842Y-23201D01*
X41996Y-23138D01*
X42114Y-23020D01*
X42177Y-22866D01*
X42178Y-22700D01*
X42114Y-22546D01*
X41996Y-22429D01*
X41843Y-22365D01*
X41677Y-22365D01*
X41523Y-22428D01*
X41427Y-22523D01*
X41427Y-22042D01*
X41522Y-22137D01*
X41676Y-22201D01*
X41842Y-22201D01*
X41996Y-22138D01*
X42114Y-22020D01*
X42177Y-21866D01*
X42178Y-21700D01*
X42149Y-21631D01*
X42323Y-21457D01*
X42323Y-21457D01*
X42323Y-21457D01*
X42360Y-21402D01*
X42372Y-21338D01*
X42372Y-19529D01*
X42488Y-19810D01*
X42746Y-20069D01*
X42986Y-20168D01*
X42982Y-20168D01*
X42933Y-20217D01*
X42933Y-20625D01*
X43341Y-20625D01*
X43390Y-20576D01*
X43390Y-20326D01*
X43360Y-20253D01*
X43316Y-20209D01*
X43449Y-20209D01*
X43787Y-20070D01*
X44045Y-19812D01*
X44185Y-19474D01*
X44185Y-19109D01*
X44046Y-18771D01*
X43788Y-18513D01*
X43451Y-18373D01*
X43085Y-18373D01*
X42748Y-18512D01*
X42489Y-18770D01*
X42372Y-19052D01*
X42372Y-18582D01*
X42372Y-18582D01*
X42372Y-18582D01*
X42370Y-18569D01*
X42360Y-18518D01*
X42360Y-18518D01*
X42323Y-18463D01*
X42323Y-18463D01*
X42157Y-18297D01*
X44222Y-18297D01*
X44222Y-28198D01*
X44222Y-28198D01*
G37*
G54D21*
X44222Y-28198D02*
X43395Y-28198D01*
X43504Y-28153D01*
X43621Y-28036D01*
X43685Y-27882D01*
X43685Y-27716D01*
X43622Y-27562D01*
X43504Y-27444D01*
X43503Y-27444D01*
X43503Y-27154D01*
X43504Y-27153D01*
X43621Y-27036D01*
X43685Y-26882D01*
X43685Y-26716D01*
X43622Y-26562D01*
X43504Y-26444D01*
X43351Y-26381D01*
X43184Y-26381D01*
X43031Y-26444D01*
X42913Y-26562D01*
X42849Y-26715D01*
X42849Y-26882D01*
X42913Y-27035D01*
X43030Y-27153D01*
X43031Y-27153D01*
X43031Y-27444D01*
X43031Y-27444D01*
X42913Y-27562D01*
X42849Y-27715D01*
X42849Y-27882D01*
X42913Y-28035D01*
X43030Y-28153D01*
X43139Y-28198D01*
X41849Y-28198D01*
X41996Y-28138D01*
X42114Y-28020D01*
X42177Y-27866D01*
X42178Y-27700D01*
X42178Y-26700D01*
X42114Y-26546D01*
X41996Y-26429D01*
X41843Y-26365D01*
X41677Y-26365D01*
X41523Y-26428D01*
X41405Y-26546D01*
X41341Y-26699D01*
X41341Y-26866D01*
X41405Y-27019D01*
X41522Y-27137D01*
X41676Y-27201D01*
X41842Y-27201D01*
X41996Y-27138D01*
X42114Y-27020D01*
X42177Y-26866D01*
X42178Y-26700D01*
X42178Y-27700D01*
X42114Y-27546D01*
X41996Y-27429D01*
X41843Y-27365D01*
X41677Y-27365D01*
X41523Y-27428D01*
X41405Y-27546D01*
X41341Y-27699D01*
X41341Y-27866D01*
X41405Y-28019D01*
X41522Y-28137D01*
X41669Y-28198D01*
X41178Y-28198D01*
X41178Y-26700D01*
X41114Y-26546D01*
X40996Y-26429D01*
X40843Y-26365D01*
X40677Y-26365D01*
X40523Y-26428D01*
X40405Y-26546D01*
X40341Y-26699D01*
X40341Y-26866D01*
X40405Y-27019D01*
X40522Y-27137D01*
X40676Y-27201D01*
X40842Y-27201D01*
X40996Y-27138D01*
X41114Y-27020D01*
X41177Y-26866D01*
X41178Y-26700D01*
X41178Y-28198D01*
X41089Y-28198D01*
X41126Y-28183D01*
X41159Y-28150D01*
X41177Y-28107D01*
X41177Y-28060D01*
X41177Y-27460D01*
X41160Y-27416D01*
X41126Y-27383D01*
X41083Y-27365D01*
X41036Y-27365D01*
X40436Y-27365D01*
X40393Y-27383D01*
X40359Y-27416D01*
X40341Y-27459D01*
X40341Y-27506D01*
X40341Y-28106D01*
X40359Y-28150D01*
X40392Y-28183D01*
X40429Y-28198D01*
X39719Y-28198D01*
X39866Y-28138D01*
X39984Y-28020D01*
X40047Y-27866D01*
X40048Y-27700D01*
X39984Y-27546D01*
X39867Y-27429D01*
X39713Y-27365D01*
X39547Y-27365D01*
X39480Y-27392D01*
X39301Y-27213D01*
X39301Y-27046D01*
X39392Y-27137D01*
X39546Y-27201D01*
X39712Y-27201D01*
X39866Y-27138D01*
X39984Y-27020D01*
X40047Y-26866D01*
X40048Y-26700D01*
X39984Y-26546D01*
X39867Y-26429D01*
X39713Y-26365D01*
X39547Y-26365D01*
X39393Y-26428D01*
X39301Y-26520D01*
X39301Y-25109D01*
X40296Y-24114D01*
X40296Y-24114D01*
X40296Y-24114D01*
X40332Y-24060D01*
X40332Y-24060D01*
X40342Y-24008D01*
X40345Y-23996D01*
X40345Y-23996D01*
X40345Y-23996D01*
X40345Y-23875D01*
X40405Y-24019D01*
X40441Y-24056D01*
X40358Y-24090D01*
X40291Y-24157D01*
X40255Y-24244D01*
X40255Y-24338D01*
X40291Y-24424D01*
X40358Y-24491D01*
X40430Y-24521D01*
X40405Y-24546D01*
X40341Y-24699D01*
X40341Y-24866D01*
X40405Y-25019D01*
X40432Y-25047D01*
X40023Y-25047D01*
X39984Y-25039D01*
X39901Y-25039D01*
X39854Y-25039D01*
X39767Y-25075D01*
X39701Y-25141D01*
X39665Y-25228D01*
X39665Y-25322D01*
X39683Y-25365D01*
X39701Y-25409D01*
X39767Y-25475D01*
X39811Y-25493D01*
X39854Y-25511D01*
X39901Y-25511D01*
X39948Y-25511D01*
X39948Y-25511D01*
X39952Y-25511D01*
X39992Y-25519D01*
X40432Y-25519D01*
X40405Y-25546D01*
X40341Y-25699D01*
X40341Y-25866D01*
X40405Y-26019D01*
X40522Y-26137D01*
X40676Y-26201D01*
X40842Y-26201D01*
X40996Y-26138D01*
X41114Y-26020D01*
X41177Y-25866D01*
X41178Y-25700D01*
X41114Y-25546D01*
X41087Y-25519D01*
X41432Y-25519D01*
X41405Y-25546D01*
X41341Y-25699D01*
X41341Y-25866D01*
X41405Y-26019D01*
X41522Y-26137D01*
X41676Y-26201D01*
X41842Y-26201D01*
X41996Y-26138D01*
X42114Y-26020D01*
X42177Y-25866D01*
X42178Y-25700D01*
X42114Y-25546D01*
X42087Y-25519D01*
X42654Y-25519D01*
X42849Y-25715D01*
X42849Y-25715D01*
X42849Y-25882D01*
X42913Y-26035D01*
X43030Y-26153D01*
X43184Y-26217D01*
X43350Y-26217D01*
X43504Y-26153D01*
X43621Y-26036D01*
X43685Y-25882D01*
X43685Y-25716D01*
X43622Y-25562D01*
X43504Y-25444D01*
X43351Y-25381D01*
X43184Y-25381D01*
X43183Y-25381D01*
X43019Y-25217D01*
X43591Y-25217D01*
X43634Y-25199D01*
X43667Y-25166D01*
X43685Y-25122D01*
X43685Y-25075D01*
X43685Y-24475D01*
X43667Y-24432D01*
X43634Y-24399D01*
X43591Y-24381D01*
X43544Y-24381D01*
X43390Y-24381D01*
X43390Y-21004D01*
X43390Y-20753D01*
X43341Y-20704D01*
X42933Y-20704D01*
X42933Y-21112D01*
X42982Y-21162D01*
X43154Y-21162D01*
X43233Y-21162D01*
X43305Y-21132D01*
X43360Y-21076D01*
X43390Y-21004D01*
X43390Y-24381D01*
X43311Y-24381D01*
X43311Y-23582D01*
X43311Y-22582D01*
X43311Y-21582D01*
X43248Y-21428D01*
X43130Y-21311D01*
X42977Y-21247D01*
X42854Y-21247D01*
X42854Y-21112D01*
X42854Y-20704D01*
X42854Y-20625D01*
X42854Y-20217D01*
X42805Y-20168D01*
X42632Y-20168D01*
X42554Y-20168D01*
X42482Y-20198D01*
X42426Y-20253D01*
X42396Y-20326D01*
X42396Y-20576D01*
X42446Y-20625D01*
X42854Y-20625D01*
X42854Y-20704D01*
X42446Y-20704D01*
X42396Y-20753D01*
X42396Y-21004D01*
X42426Y-21076D01*
X42482Y-21132D01*
X42554Y-21162D01*
X42632Y-21162D01*
X42805Y-21162D01*
X42854Y-21112D01*
X42854Y-21247D01*
X42810Y-21247D01*
X42657Y-21310D01*
X42539Y-21428D01*
X42475Y-21581D01*
X42475Y-21748D01*
X42539Y-21901D01*
X42656Y-22019D01*
X42810Y-22083D01*
X42976Y-22083D01*
X43130Y-22020D01*
X43247Y-21902D01*
X43311Y-21748D01*
X43311Y-21582D01*
X43311Y-22582D01*
X43248Y-22428D01*
X43130Y-22311D01*
X42977Y-22247D01*
X42810Y-22247D01*
X42657Y-22310D01*
X42539Y-22428D01*
X42475Y-22581D01*
X42475Y-22748D01*
X42539Y-22901D01*
X42656Y-23019D01*
X42810Y-23083D01*
X42976Y-23083D01*
X43130Y-23020D01*
X43247Y-22902D01*
X43311Y-22748D01*
X43311Y-22582D01*
X43311Y-23582D01*
X43248Y-23428D01*
X43130Y-23311D01*
X42977Y-23247D01*
X42810Y-23247D01*
X42657Y-23310D01*
X42539Y-23428D01*
X42475Y-23581D01*
X42475Y-23748D01*
X42539Y-23901D01*
X42656Y-24019D01*
X42810Y-24083D01*
X42976Y-24083D01*
X43130Y-24020D01*
X43247Y-23902D01*
X43311Y-23748D01*
X43311Y-23582D01*
X43311Y-24381D01*
X42944Y-24381D01*
X42900Y-24399D01*
X42867Y-24432D01*
X42849Y-24475D01*
X42849Y-24522D01*
X42849Y-25070D01*
X42842Y-25065D01*
X42751Y-25047D01*
X42087Y-25047D01*
X42114Y-25020D01*
X42177Y-24866D01*
X42178Y-24700D01*
X42114Y-24546D01*
X41996Y-24429D01*
X41843Y-24365D01*
X41677Y-24365D01*
X41523Y-24428D01*
X41405Y-24546D01*
X41341Y-24699D01*
X41341Y-24866D01*
X41405Y-25019D01*
X41432Y-25047D01*
X41087Y-25047D01*
X41114Y-25020D01*
X41177Y-24866D01*
X41178Y-24700D01*
X41114Y-24546D01*
X41020Y-24452D01*
X41048Y-24446D01*
X41103Y-24410D01*
X41378Y-24134D01*
X41378Y-24134D01*
X41378Y-24134D01*
X41415Y-24080D01*
X41423Y-24038D01*
X41522Y-24137D01*
X41676Y-24201D01*
X41842Y-24201D01*
X41996Y-24138D01*
X42114Y-24020D01*
X42177Y-23866D01*
X42178Y-23700D01*
X42114Y-23546D01*
X41996Y-23429D01*
X41843Y-23365D01*
X41677Y-23365D01*
X41523Y-23428D01*
X41427Y-23523D01*
X41427Y-23042D01*
X41522Y-23137D01*
X41676Y-23201D01*
X41842Y-23201D01*
X41996Y-23138D01*
X42114Y-23020D01*
X42177Y-22866D01*
X42178Y-22700D01*
X42114Y-22546D01*
X41996Y-22429D01*
X41843Y-22365D01*
X41677Y-22365D01*
X41523Y-22428D01*
X41427Y-22523D01*
X41427Y-22042D01*
X41522Y-22137D01*
X41676Y-22201D01*
X41842Y-22201D01*
X41996Y-22138D01*
X42114Y-22020D01*
X42177Y-21866D01*
X42178Y-21700D01*
X42149Y-21631D01*
X42323Y-21457D01*
X42323Y-21457D01*
X42323Y-21457D01*
X42360Y-21402D01*
X42372Y-21338D01*
X42372Y-19529D01*
X42488Y-19810D01*
X42746Y-20069D01*
X42986Y-20168D01*
X42982Y-20168D01*
X42933Y-20217D01*
X42933Y-20625D01*
X43341Y-20625D01*
X43390Y-20576D01*
X43390Y-20326D01*
X43360Y-20253D01*
X43316Y-20209D01*
X43449Y-20209D01*
X43787Y-20070D01*
X44045Y-19812D01*
X44185Y-19474D01*
X44185Y-19109D01*
X44046Y-18771D01*
X43788Y-18513D01*
X43451Y-18373D01*
X43085Y-18373D01*
X42748Y-18512D01*
X42489Y-18770D01*
X42372Y-19052D01*
X42372Y-18582D01*
X42372Y-18582D01*
X42372Y-18582D01*
X42370Y-18569D01*
X42360Y-18518D01*
X42360Y-18518D01*
X42323Y-18463D01*
X42323Y-18463D01*
X42157Y-18297D01*
X44222Y-18297D01*
X44222Y-28198D01*
M02*
