M48
;DRILL file {KiCad 4.0.4-stable} date Mon Oct 10 23:42:27 2016
;FORMAT={-:-/ absolute / metric / decimal}
FMAT,2
METRIC,TZ
T1C0.300
T2C0.599
T3C0.762
T4C0.800
T5C0.813
T6C1.016
T7C2.301
T8C2.500
T9C3.048
%
G90
G05
M71
T1
X27.432Y-96.393
X27.495Y-51.689
X27.559Y-78.105
X27.622Y-33.401
X28.829Y-89.916
X28.892Y-45.212
X29.273Y-85.28
X29.337Y-40.576
X31.305Y-99.377
X31.369Y-54.673
X31.941Y-78.232
X32.004Y-33.528
X32.258Y-74.93
X32.322Y-30.226
X33.02Y-78.232
X33.084Y-33.528
X33.591Y-99.377
X33.655Y-54.673
X34.163Y-93.916
X34.227Y-49.212
X34.48Y-89.344
X34.544Y-44.64
X34.544Y-84.582
X34.608Y-39.878
X35.814Y-86.423
X35.877Y-41.719
X36.83Y-78.232
X36.893Y-33.528
X37.084Y-68.263
X37.084Y-72.263
X37.148Y-23.558
X37.148Y-27.559
X38.608Y-86.423
X38.672Y-41.719
X39.814Y-87.376
X39.878Y-42.672
X40.322Y-85.661
X40.386Y-40.957
X41.529Y-78.803
X41.593Y-34.099
X43.053Y-78.041
X43.116Y-33.337
X43.18Y-83.629
X43.243Y-38.925
X43.37Y-68.072
X43.37Y-82.233
X43.434Y-23.368
X43.434Y-37.529
X43.434Y-90.233
X43.497Y-45.529
X45.339Y-70.421
X45.402Y-25.717
X46.101Y-71.438
X46.164Y-26.733
X46.482Y-98.361
X46.545Y-53.657
X46.736Y-72.009
X46.736Y-78.422
X46.799Y-27.305
X46.799Y-33.718
X46.799Y-72.707
X46.863Y-28.003
X48.45Y-75.438
X48.514Y-30.734
X48.578Y-99.949
X48.641Y-55.245
X48.704Y-68.897
X48.768Y-24.194
X49.149Y-68.072
X49.212Y-23.368
X50.419Y-74.803
X50.482Y-30.099
X50.927Y-74.295
X50.99Y-29.591
X51.435Y-69.278
X51.435Y-85.788
X51.498Y-24.575
X51.498Y-41.084
X51.943Y-81.09
X52.006Y-36.386
X52.006Y-78.422
X52.006Y-79.184
X52.07Y-33.718
X52.07Y-34.48
X52.451Y-73.66
X52.514Y-28.956
X52.642Y-100.139
X52.705Y-55.435
X52.832Y-85.788
X52.895Y-41.084
X53.149Y-97.98
X53.213Y-53.276
X53.594Y-70.421
X53.657Y-25.717
X53.657Y-79.756
X53.721Y-35.052
X53.848Y-85.788
X53.911Y-41.084
X54.038Y-77.724
X54.102Y-33.02
X54.102Y-85.153
X54.165Y-40.45
X54.419Y-79.756
X54.483Y-35.052
X54.546Y-85.725
X54.546Y-88.646
X54.61Y-41.021
X54.61Y-43.942
X54.673Y-78.295
X54.737Y-33.591
X54.737Y-74.867
X54.8Y-30.162
X55.054Y-85.153
X55.118Y-40.45
X55.181Y-103.505
X55.245Y-58.801
X55.626Y-78.232
X55.689Y-33.528
X56.07Y-92.519
X56.134Y-47.816
X57.15Y-73.152
X57.213Y-28.448
X57.34Y-103.95
X57.404Y-59.245
X58.42Y-93.027
X58.483Y-48.323
X60.198Y-83.566
X60.261Y-38.862
X60.325Y-81.471
X60.389Y-36.767
X60.833Y-76.01
X60.833Y-77.533
X60.896Y-31.305
X60.896Y-32.829
X61.023Y-69.913
X61.087Y-25.209
X61.595Y-99.568
X61.658Y-54.864
X61.722Y-91.123
X61.785Y-46.418
X61.849Y-89.09
X61.912Y-44.386
X62.103Y-80.709
X62.166Y-36.005
X62.611Y-94.932
X62.674Y-50.228
X64.643Y-101.727
X64.706Y-57.023
X66.167Y-89.027
X66.23Y-44.323
X66.23Y-72.771
X66.23Y-91.63
X66.294Y-28.067
X66.294Y-46.926
X66.802Y-95.377
X66.865Y-50.673
X66.992Y-72.771
X67.056Y-28.067
X67.754Y-72.771
X67.818Y-28.067
X68.072Y-103.95
X68.135Y-59.245
X68.135Y-98.044
X68.199Y-53.34
X69.406Y-75.946
X69.469Y-31.242
X69.913Y-77.216
X69.977Y-32.512
X70.485Y-75.946
X70.548Y-31.242
X70.929Y-91.123
X70.993Y-46.418
X71.438Y-79.819
X71.501Y-35.115
X72.2Y-80.581
X72.2Y-98.044
X72.263Y-35.877
X72.263Y-53.34
X72.453Y-73.025
X72.517Y-28.321
X73.343Y-103.251
X73.406Y-58.547
X74.612Y-86.233
X74.612Y-104.521
X74.676Y-41.529
X74.676Y-59.817
X76.01Y-91.44
X76.073Y-46.736
X76.835Y-78.93
X76.898Y-34.227
X77.025Y-74.676
X77.089Y-29.972
X78.041Y-72.644
X78.041Y-102.997
X78.105Y-27.94
X78.105Y-58.293
X78.232Y-74.612
X78.295Y-29.909
X78.549Y-96.71
X78.613Y-52.006
X80.835Y-74.486
X80.899Y-29.781
X81.407Y-72.644
X81.471Y-27.94
X81.852Y-74.486
X81.915Y-29.781
X84.645Y-74.422
X84.709Y-29.718
X84.963Y-72.644
X85.026Y-27.94
X88.456Y-75.629
X88.519Y-30.924
X90.106Y-76.327
X90.17Y-31.623
X93.853Y-71.247
X93.916Y-26.543
X93.98Y-74.93
X94.043Y-30.226
X99.631Y-76.898
X99.695Y-32.194
X102.679Y-75.12
X102.743Y-30.416
T2
X55.385Y-93.535
X55.448Y-48.831
X56.883Y-93.535
X56.947Y-48.831
T3
X64.643Y-78.168
X64.643Y-80.709
X64.643Y-83.248
X64.643Y-85.788
X64.706Y-33.465
X64.706Y-36.005
X64.706Y-38.544
X64.706Y-41.084
X67.183Y-78.168
X67.183Y-80.709
X67.183Y-83.248
X67.183Y-85.788
X67.246Y-33.465
X67.246Y-36.005
X67.246Y-38.544
X67.246Y-41.084
T4
X39.751Y-75.982
X39.751Y-80.863
X39.814Y-31.278
X39.814Y-36.159
T5
X32.164Y-80.709
X32.164Y-83.248
X32.228Y-36.005
X32.228Y-38.544
X34.163Y-80.709
X34.163Y-83.248
X34.227Y-36.005
X34.227Y-38.544
T6
X34.163Y-92.138
X34.163Y-96.71
X34.227Y-47.434
X34.227Y-52.006
X36.703Y-92.138
X36.703Y-96.71
X36.767Y-47.434
X36.767Y-52.006
X39.243Y-92.138
X39.306Y-47.434
X41.783Y-92.138
X41.846Y-47.434
X46.863Y-104.331
X46.926Y-59.627
X49.403Y-104.331
X49.466Y-59.627
X51.943Y-104.331
X52.006Y-59.627
X65.913Y-69.85
X65.977Y-25.146
X68.453Y-69.85
X68.516Y-25.146
X70.993Y-69.85
X71.056Y-25.146
X73.533Y-69.85
X73.596Y-25.146
X76.073Y-69.85
X76.136Y-25.146
X78.613Y-69.85
X78.676Y-25.146
X81.153Y-69.85
X81.216Y-25.146
X83.693Y-69.85
X83.757Y-25.146
T7
X29.464Y-75.979
X29.464Y-87.978
X29.527Y-31.275
X29.527Y-43.274
T8
X97.183Y-79.478
X97.183Y-84.478
X97.246Y-34.774
X97.246Y-39.774
X99.683Y-81.978
X99.746Y-37.274
X102.183Y-79.478
X102.183Y-84.478
X102.246Y-34.774
X102.246Y-39.774
T9
X40.433Y-69.739
X40.433Y-104.739
X40.496Y-25.034
X40.496Y-60.034
X90.433Y-69.739
X90.496Y-25.034
X90.678Y-104.203
X90.742Y-59.499
T0
M30
