G04 #@! TF.FileFunction,Soldermask,Bot*
%FSLAX46Y46*%
G04 Gerber Fmt 4.6, Leading zero omitted, Abs format (unit mm)*
G04 Created by KiCad (PCBNEW 4.0.4-stable) date Mon Oct 10 23:42:20 2016*
%MOMM*%
%LPD*%
G01*
G04 APERTURE LIST*
%ADD10C,0.100000*%
%ADD11R,1.340000X0.740000*%
%ADD12R,0.740000X1.340000*%
%ADD13R,2.072000X2.072000*%
%ADD14O,2.072000X2.072000*%
%ADD15C,4.104000*%
%ADD16C,1.040760*%
%ADD17C,1.541140*%
%ADD18R,1.100000X0.690000*%
%ADD19R,0.690000X1.100000*%
%ADD20R,0.840100X0.840100*%
%ADD21R,1.767200X2.072000*%
%ADD22O,1.767200X2.072000*%
%ADD23C,1.564000*%
%ADD24C,2.740020*%
%ADD25R,1.564000X1.564000*%
%ADD26C,3.040000*%
%ADD27R,1.290000X1.040000*%
%ADD28R,1.040000X1.290000*%
%ADD29R,1.040000X0.290000*%
%ADD30R,0.290000X1.040000*%
G04 APERTURE END LIST*
D10*
D11*
X63055500Y-89093000D03*
X63055500Y-90993000D03*
D12*
X55184000Y-101917500D03*
X57084000Y-101917500D03*
D13*
X34163000Y-96710500D03*
D14*
X36703000Y-96710500D03*
D15*
X90678000Y-104203500D03*
X40433000Y-104738500D03*
X90433000Y-69738500D03*
X40433000Y-69738500D03*
D16*
X56883300Y-93535500D03*
X55384700Y-93535500D03*
D17*
X39751000Y-75981560D03*
X39751000Y-80863440D03*
D18*
X34564500Y-85473500D03*
X34564500Y-86423500D03*
X34564500Y-87373500D03*
X32364500Y-87373500D03*
X32364500Y-85473500D03*
D19*
X30033000Y-83078500D03*
X29083000Y-83078500D03*
X28133000Y-83078500D03*
X28133000Y-80878500D03*
X30033000Y-80878500D03*
X29083000Y-80878500D03*
D12*
X30223500Y-85407500D03*
X28323500Y-85407500D03*
D11*
X35242500Y-78229500D03*
X35242500Y-76329500D03*
D12*
X50485000Y-68262500D03*
X52385000Y-68262500D03*
X52385000Y-70421500D03*
X50485000Y-70421500D03*
D20*
X88453000Y-76438760D03*
X86553000Y-76438760D03*
X87503000Y-74439780D03*
X84643000Y-76438760D03*
X82743000Y-76438760D03*
X83693000Y-74439780D03*
X80833000Y-76438760D03*
X78933000Y-76438760D03*
X79883000Y-74439780D03*
X77023000Y-76438760D03*
X75123000Y-76438760D03*
X76073000Y-74439780D03*
D21*
X65913000Y-69850000D03*
D22*
X68453000Y-69850000D03*
X70993000Y-69850000D03*
X73533000Y-69850000D03*
X76073000Y-69850000D03*
X78613000Y-69850000D03*
X81153000Y-69850000D03*
X83693000Y-69850000D03*
D23*
X34163000Y-80708500D03*
X34163000Y-83248500D03*
X32164020Y-83248500D03*
X32164020Y-80708500D03*
D24*
X29464000Y-75979020D03*
X29464000Y-87977980D03*
D25*
X64643000Y-78168500D03*
D23*
X67183000Y-78168500D03*
X64643000Y-80708500D03*
X67183000Y-80708500D03*
X64643000Y-83248500D03*
X67183000Y-83248500D03*
X64643000Y-85788500D03*
X67183000Y-85788500D03*
D26*
X97183000Y-84478500D03*
X97183000Y-79478500D03*
X99683000Y-81978500D03*
X102183000Y-79478500D03*
X102183000Y-84478500D03*
D21*
X46863000Y-104330500D03*
D22*
X49403000Y-104330500D03*
X51943000Y-104330500D03*
D21*
X34163000Y-92138500D03*
D22*
X36703000Y-92138500D03*
X39243000Y-92138500D03*
X41783000Y-92138500D03*
D27*
X55118000Y-95964500D03*
X55118000Y-97964500D03*
X37084000Y-87360000D03*
X37084000Y-85360000D03*
D28*
X55007000Y-68262500D03*
X57007000Y-68262500D03*
D27*
X59055000Y-83486500D03*
X59055000Y-81486500D03*
X57277000Y-95964500D03*
X57277000Y-97964500D03*
X37465000Y-75263500D03*
X37465000Y-77263500D03*
X37465000Y-81581500D03*
X37465000Y-79581500D03*
D28*
X45990000Y-85915500D03*
X47990000Y-85915500D03*
X57007000Y-70421500D03*
X55007000Y-70421500D03*
X48752000Y-70421500D03*
X46752000Y-70421500D03*
D27*
X43434000Y-74501500D03*
X43434000Y-76501500D03*
D29*
X45608000Y-81918500D03*
X45608000Y-81418500D03*
X45608000Y-80918500D03*
X45608000Y-80418500D03*
X45608000Y-79918500D03*
X45608000Y-79418500D03*
X45608000Y-78918500D03*
X45608000Y-78418500D03*
X45608000Y-77918500D03*
X45608000Y-77418500D03*
X45608000Y-76918500D03*
X45608000Y-76418500D03*
X45608000Y-75918500D03*
X45608000Y-75418500D03*
X45608000Y-74918500D03*
X45608000Y-74418500D03*
D30*
X47558000Y-72468500D03*
X48058000Y-72468500D03*
X48558000Y-72468500D03*
X49058000Y-72468500D03*
X49558000Y-72468500D03*
X50058000Y-72468500D03*
X50558000Y-72468500D03*
X51058000Y-72468500D03*
X51558000Y-72468500D03*
X52058000Y-72468500D03*
X52558000Y-72468500D03*
X53058000Y-72468500D03*
X53558000Y-72468500D03*
X54058000Y-72468500D03*
X54558000Y-72468500D03*
X55058000Y-72468500D03*
D29*
X57008000Y-74418500D03*
X57008000Y-74918500D03*
X57008000Y-75418500D03*
X57008000Y-75918500D03*
X57008000Y-76418500D03*
X57008000Y-76918500D03*
X57008000Y-77418500D03*
X57008000Y-77918500D03*
X57008000Y-78418500D03*
X57008000Y-78918500D03*
X57008000Y-79418500D03*
X57008000Y-79918500D03*
X57008000Y-80418500D03*
X57008000Y-80918500D03*
X57008000Y-81418500D03*
X57008000Y-81918500D03*
D30*
X55058000Y-83868500D03*
X54558000Y-83868500D03*
X54058000Y-83868500D03*
X53558000Y-83868500D03*
X53058000Y-83868500D03*
X52558000Y-83868500D03*
X52058000Y-83868500D03*
X51558000Y-83868500D03*
X51058000Y-83868500D03*
X50558000Y-83868500D03*
X50058000Y-83868500D03*
X49558000Y-83868500D03*
X49058000Y-83868500D03*
X48558000Y-83868500D03*
X48058000Y-83868500D03*
X47558000Y-83868500D03*
D29*
X45671500Y-37214500D03*
X45671500Y-36714500D03*
X45671500Y-36214500D03*
X45671500Y-35714500D03*
X45671500Y-35214500D03*
X45671500Y-34714500D03*
X45671500Y-34214500D03*
X45671500Y-33714500D03*
X45671500Y-33214500D03*
X45671500Y-32714500D03*
X45671500Y-32214500D03*
X45671500Y-31714500D03*
X45671500Y-31214500D03*
X45671500Y-30714500D03*
X45671500Y-30214500D03*
X45671500Y-29714500D03*
D30*
X47621500Y-27764500D03*
X48121500Y-27764500D03*
X48621500Y-27764500D03*
X49121500Y-27764500D03*
X49621500Y-27764500D03*
X50121500Y-27764500D03*
X50621500Y-27764500D03*
X51121500Y-27764500D03*
X51621500Y-27764500D03*
X52121500Y-27764500D03*
X52621500Y-27764500D03*
X53121500Y-27764500D03*
X53621500Y-27764500D03*
X54121500Y-27764500D03*
X54621500Y-27764500D03*
X55121500Y-27764500D03*
D29*
X57071500Y-29714500D03*
X57071500Y-30214500D03*
X57071500Y-30714500D03*
X57071500Y-31214500D03*
X57071500Y-31714500D03*
X57071500Y-32214500D03*
X57071500Y-32714500D03*
X57071500Y-33214500D03*
X57071500Y-33714500D03*
X57071500Y-34214500D03*
X57071500Y-34714500D03*
X57071500Y-35214500D03*
X57071500Y-35714500D03*
X57071500Y-36214500D03*
X57071500Y-36714500D03*
X57071500Y-37214500D03*
D30*
X55121500Y-39164500D03*
X54621500Y-39164500D03*
X54121500Y-39164500D03*
X53621500Y-39164500D03*
X53121500Y-39164500D03*
X52621500Y-39164500D03*
X52121500Y-39164500D03*
X51621500Y-39164500D03*
X51121500Y-39164500D03*
X50621500Y-39164500D03*
X50121500Y-39164500D03*
X49621500Y-39164500D03*
X49121500Y-39164500D03*
X48621500Y-39164500D03*
X48121500Y-39164500D03*
X47621500Y-39164500D03*
D27*
X43497500Y-29797500D03*
X43497500Y-31797500D03*
D28*
X48815500Y-25717500D03*
X46815500Y-25717500D03*
X57070500Y-25717500D03*
X55070500Y-25717500D03*
X46053500Y-41211500D03*
X48053500Y-41211500D03*
D27*
X37528500Y-36877500D03*
X37528500Y-34877500D03*
X37528500Y-30559500D03*
X37528500Y-32559500D03*
X57340500Y-51260500D03*
X57340500Y-53260500D03*
X59118500Y-38782500D03*
X59118500Y-36782500D03*
D28*
X55070500Y-23558500D03*
X57070500Y-23558500D03*
D27*
X37147500Y-42656000D03*
X37147500Y-40656000D03*
X55181500Y-51260500D03*
X55181500Y-53260500D03*
D21*
X34226500Y-47434500D03*
D22*
X36766500Y-47434500D03*
X39306500Y-47434500D03*
X41846500Y-47434500D03*
D21*
X46926500Y-59626500D03*
D22*
X49466500Y-59626500D03*
X52006500Y-59626500D03*
D25*
X64706500Y-33464500D03*
D23*
X67246500Y-33464500D03*
X64706500Y-36004500D03*
X67246500Y-36004500D03*
X64706500Y-38544500D03*
X67246500Y-38544500D03*
X64706500Y-41084500D03*
X67246500Y-41084500D03*
D26*
X97246500Y-39774500D03*
X97246500Y-34774500D03*
X99746500Y-37274500D03*
X102246500Y-34774500D03*
X102246500Y-39774500D03*
D23*
X34226500Y-36004500D03*
X34226500Y-38544500D03*
X32227520Y-38544500D03*
X32227520Y-36004500D03*
D24*
X29527500Y-31275020D03*
X29527500Y-43273980D03*
D21*
X65976500Y-25146000D03*
D22*
X68516500Y-25146000D03*
X71056500Y-25146000D03*
X73596500Y-25146000D03*
X76136500Y-25146000D03*
X78676500Y-25146000D03*
X81216500Y-25146000D03*
X83756500Y-25146000D03*
D20*
X77086500Y-31734760D03*
X75186500Y-31734760D03*
X76136500Y-29735780D03*
X80896500Y-31734760D03*
X78996500Y-31734760D03*
X79946500Y-29735780D03*
X84706500Y-31734760D03*
X82806500Y-31734760D03*
X83756500Y-29735780D03*
X88516500Y-31734760D03*
X86616500Y-31734760D03*
X87566500Y-29735780D03*
D12*
X52448500Y-25717500D03*
X50548500Y-25717500D03*
X50548500Y-23558500D03*
X52448500Y-23558500D03*
D11*
X35306000Y-33525500D03*
X35306000Y-31625500D03*
D12*
X30287000Y-40703500D03*
X28387000Y-40703500D03*
D19*
X30096500Y-38374500D03*
X29146500Y-38374500D03*
X28196500Y-38374500D03*
X28196500Y-36174500D03*
X30096500Y-36174500D03*
X29146500Y-36174500D03*
D18*
X34628000Y-40769500D03*
X34628000Y-41719500D03*
X34628000Y-42669500D03*
X32428000Y-42669500D03*
X32428000Y-40769500D03*
D17*
X39814500Y-31277560D03*
X39814500Y-36159440D03*
D16*
X56946800Y-48831500D03*
X55448200Y-48831500D03*
D15*
X40496500Y-25034500D03*
X90496500Y-25034500D03*
X40496500Y-60034500D03*
X90741500Y-59499500D03*
D13*
X34226500Y-52006500D03*
D14*
X36766500Y-52006500D03*
D12*
X55247500Y-57213500D03*
X57147500Y-57213500D03*
D11*
X63119000Y-44389000D03*
X63119000Y-46289000D03*
M02*
