G04 #@! TF.FileFunction,Legend,Top*
%FSLAX46Y46*%
G04 Gerber Fmt 4.6, Leading zero omitted, Abs format (unit mm)*
G04 Created by KiCad (PCBNEW 4.0.4-stable) date Mon Oct 10 23:42:20 2016*
%MOMM*%
%LPD*%
G01*
G04 APERTURE LIST*
%ADD10C,0.100000*%
%ADD11C,0.200000*%
%ADD12C,0.150000*%
%ADD13C,0.378460*%
%ADD14C,0.304800*%
G04 APERTURE END LIST*
D10*
D11*
X33337500Y-94107000D02*
X33337500Y-94742000D01*
X33020000Y-94742000D02*
X33655000Y-94742000D01*
X33020000Y-99314000D02*
X33655000Y-99314000D01*
X33337500Y-98679000D02*
X33337500Y-99314000D01*
D12*
X35703310Y-94876881D02*
X35369976Y-94400690D01*
X35131881Y-94876881D02*
X35131881Y-93876881D01*
X35512834Y-93876881D01*
X35608072Y-93924500D01*
X35655691Y-93972119D01*
X35703310Y-94067357D01*
X35703310Y-94210214D01*
X35655691Y-94305452D01*
X35608072Y-94353071D01*
X35512834Y-94400690D01*
X35131881Y-94400690D01*
X36084262Y-94829262D02*
X36227119Y-94876881D01*
X36465215Y-94876881D01*
X36560453Y-94829262D01*
X36608072Y-94781643D01*
X36655691Y-94686405D01*
X36655691Y-94591167D01*
X36608072Y-94495929D01*
X36560453Y-94448310D01*
X36465215Y-94400690D01*
X36274738Y-94353071D01*
X36179500Y-94305452D01*
X36131881Y-94257833D01*
X36084262Y-94162595D01*
X36084262Y-94067357D01*
X36131881Y-93972119D01*
X36179500Y-93924500D01*
X36274738Y-93876881D01*
X36512834Y-93876881D01*
X36655691Y-93924500D01*
X36941405Y-93876881D02*
X37512834Y-93876881D01*
X37227119Y-94876881D02*
X37227119Y-93876881D01*
X38608072Y-94876881D02*
X38608072Y-93876881D01*
X39274738Y-93876881D02*
X39465215Y-93876881D01*
X39560453Y-93924500D01*
X39655691Y-94019738D01*
X39703310Y-94210214D01*
X39703310Y-94543548D01*
X39655691Y-94734024D01*
X39560453Y-94829262D01*
X39465215Y-94876881D01*
X39274738Y-94876881D01*
X39179500Y-94829262D01*
X39084262Y-94734024D01*
X39036643Y-94543548D01*
X39036643Y-94210214D01*
X39084262Y-94019738D01*
X39179500Y-93924500D01*
X39274738Y-93876881D01*
X41465215Y-94781643D02*
X41417596Y-94829262D01*
X41274739Y-94876881D01*
X41179501Y-94876881D01*
X41036643Y-94829262D01*
X40941405Y-94734024D01*
X40893786Y-94638786D01*
X40846167Y-94448310D01*
X40846167Y-94305452D01*
X40893786Y-94114976D01*
X40941405Y-94019738D01*
X41036643Y-93924500D01*
X41179501Y-93876881D01*
X41274739Y-93876881D01*
X41417596Y-93924500D01*
X41465215Y-93972119D01*
X42369977Y-94876881D02*
X41893786Y-94876881D01*
X41893786Y-93876881D01*
X42703310Y-94876881D02*
X42703310Y-93876881D01*
X43274739Y-94876881D02*
X42846167Y-94305452D01*
X43274739Y-93876881D02*
X42703310Y-94448310D01*
X35941095Y-98385381D02*
X36512524Y-98385381D01*
X36226809Y-99385381D02*
X36226809Y-98385381D01*
X36750619Y-98385381D02*
X37417286Y-99385381D01*
X37417286Y-98385381D02*
X36750619Y-99385381D01*
D11*
X65341500Y-72644000D02*
X65976500Y-72644000D01*
X65659000Y-72009000D02*
X65659000Y-72644000D01*
D12*
X66960738Y-71588381D02*
X67294071Y-72588381D01*
X67627405Y-71588381D01*
X68389310Y-72540762D02*
X68294072Y-72588381D01*
X68103595Y-72588381D01*
X68008357Y-72540762D01*
X67960738Y-72493143D01*
X67913119Y-72397905D01*
X67913119Y-72112190D01*
X67960738Y-72016952D01*
X68008357Y-71969333D01*
X68103595Y-71921714D01*
X68294072Y-71921714D01*
X68389310Y-71969333D01*
X69246453Y-72540762D02*
X69151215Y-72588381D01*
X68960738Y-72588381D01*
X68865500Y-72540762D01*
X68817881Y-72493143D01*
X68770262Y-72397905D01*
X68770262Y-72112190D01*
X68817881Y-72016952D01*
X68865500Y-71969333D01*
X68960738Y-71921714D01*
X69151215Y-71921714D01*
X69246453Y-71969333D01*
X70341691Y-71588381D02*
X70960739Y-71588381D01*
X70627405Y-71969333D01*
X70770263Y-71969333D01*
X70865501Y-72016952D01*
X70913120Y-72064571D01*
X70960739Y-72159810D01*
X70960739Y-72397905D01*
X70913120Y-72493143D01*
X70865501Y-72540762D01*
X70770263Y-72588381D01*
X70484548Y-72588381D01*
X70389310Y-72540762D01*
X70341691Y-72493143D01*
X71389310Y-72493143D02*
X71436929Y-72540762D01*
X71389310Y-72588381D01*
X71341691Y-72540762D01*
X71389310Y-72493143D01*
X71389310Y-72588381D01*
X71770262Y-71588381D02*
X72389310Y-71588381D01*
X72055976Y-71969333D01*
X72198834Y-71969333D01*
X72294072Y-72016952D01*
X72341691Y-72064571D01*
X72389310Y-72159810D01*
X72389310Y-72397905D01*
X72341691Y-72493143D01*
X72294072Y-72540762D01*
X72198834Y-72588381D01*
X71913119Y-72588381D01*
X71817881Y-72540762D01*
X71770262Y-72493143D01*
X73532167Y-72540762D02*
X73675024Y-72588381D01*
X73913120Y-72588381D01*
X74008358Y-72540762D01*
X74055977Y-72493143D01*
X74103596Y-72397905D01*
X74103596Y-72302667D01*
X74055977Y-72207429D01*
X74008358Y-72159810D01*
X73913120Y-72112190D01*
X73722643Y-72064571D01*
X73627405Y-72016952D01*
X73579786Y-71969333D01*
X73532167Y-71874095D01*
X73532167Y-71778857D01*
X73579786Y-71683619D01*
X73627405Y-71636000D01*
X73722643Y-71588381D01*
X73960739Y-71588381D01*
X74103596Y-71636000D01*
X76627406Y-72588381D02*
X76294072Y-72112190D01*
X76055977Y-72588381D02*
X76055977Y-71588381D01*
X76436930Y-71588381D01*
X76532168Y-71636000D01*
X76579787Y-71683619D01*
X76627406Y-71778857D01*
X76627406Y-71921714D01*
X76579787Y-72016952D01*
X76532168Y-72064571D01*
X76436930Y-72112190D01*
X76055977Y-72112190D01*
X79103597Y-71636000D02*
X79008359Y-71588381D01*
X78865502Y-71588381D01*
X78722644Y-71636000D01*
X78627406Y-71731238D01*
X78579787Y-71826476D01*
X78532168Y-72016952D01*
X78532168Y-72159810D01*
X78579787Y-72350286D01*
X78627406Y-72445524D01*
X78722644Y-72540762D01*
X78865502Y-72588381D01*
X78960740Y-72588381D01*
X79103597Y-72540762D01*
X79151216Y-72493143D01*
X79151216Y-72159810D01*
X78960740Y-72159810D01*
X81436931Y-72064571D02*
X81579788Y-72112190D01*
X81627407Y-72159810D01*
X81675026Y-72255048D01*
X81675026Y-72397905D01*
X81627407Y-72493143D01*
X81579788Y-72540762D01*
X81484550Y-72588381D01*
X81103597Y-72588381D01*
X81103597Y-71588381D01*
X81436931Y-71588381D01*
X81532169Y-71636000D01*
X81579788Y-71683619D01*
X81627407Y-71778857D01*
X81627407Y-71874095D01*
X81579788Y-71969333D01*
X81532169Y-72016952D01*
X81436931Y-72064571D01*
X81103597Y-72064571D01*
X82722645Y-71588381D02*
X83055978Y-72588381D01*
X83389312Y-71588381D01*
X83722645Y-72588381D02*
X83722645Y-71921714D01*
X83722645Y-71588381D02*
X83675026Y-71636000D01*
X83722645Y-71683619D01*
X83770264Y-71636000D01*
X83722645Y-71588381D01*
X83722645Y-71683619D01*
X84198835Y-72588381D02*
X84198835Y-71588381D01*
X84198835Y-71969333D02*
X84294073Y-71921714D01*
X84484550Y-71921714D01*
X84579788Y-71969333D01*
X84627407Y-72016952D01*
X84675026Y-72112190D01*
X84675026Y-72397905D01*
X84627407Y-72493143D01*
X84579788Y-72540762D01*
X84484550Y-72588381D01*
X84294073Y-72588381D01*
X84198835Y-72540762D01*
X67024238Y-26884381D02*
X67357571Y-27884381D01*
X67690905Y-26884381D01*
X68452810Y-27836762D02*
X68357572Y-27884381D01*
X68167095Y-27884381D01*
X68071857Y-27836762D01*
X68024238Y-27789143D01*
X67976619Y-27693905D01*
X67976619Y-27408190D01*
X68024238Y-27312952D01*
X68071857Y-27265333D01*
X68167095Y-27217714D01*
X68357572Y-27217714D01*
X68452810Y-27265333D01*
X69309953Y-27836762D02*
X69214715Y-27884381D01*
X69024238Y-27884381D01*
X68929000Y-27836762D01*
X68881381Y-27789143D01*
X68833762Y-27693905D01*
X68833762Y-27408190D01*
X68881381Y-27312952D01*
X68929000Y-27265333D01*
X69024238Y-27217714D01*
X69214715Y-27217714D01*
X69309953Y-27265333D01*
X70405191Y-26884381D02*
X71024239Y-26884381D01*
X70690905Y-27265333D01*
X70833763Y-27265333D01*
X70929001Y-27312952D01*
X70976620Y-27360571D01*
X71024239Y-27455810D01*
X71024239Y-27693905D01*
X70976620Y-27789143D01*
X70929001Y-27836762D01*
X70833763Y-27884381D01*
X70548048Y-27884381D01*
X70452810Y-27836762D01*
X70405191Y-27789143D01*
X71452810Y-27789143D02*
X71500429Y-27836762D01*
X71452810Y-27884381D01*
X71405191Y-27836762D01*
X71452810Y-27789143D01*
X71452810Y-27884381D01*
X71833762Y-26884381D02*
X72452810Y-26884381D01*
X72119476Y-27265333D01*
X72262334Y-27265333D01*
X72357572Y-27312952D01*
X72405191Y-27360571D01*
X72452810Y-27455810D01*
X72452810Y-27693905D01*
X72405191Y-27789143D01*
X72357572Y-27836762D01*
X72262334Y-27884381D01*
X71976619Y-27884381D01*
X71881381Y-27836762D01*
X71833762Y-27789143D01*
X73595667Y-27836762D02*
X73738524Y-27884381D01*
X73976620Y-27884381D01*
X74071858Y-27836762D01*
X74119477Y-27789143D01*
X74167096Y-27693905D01*
X74167096Y-27598667D01*
X74119477Y-27503429D01*
X74071858Y-27455810D01*
X73976620Y-27408190D01*
X73786143Y-27360571D01*
X73690905Y-27312952D01*
X73643286Y-27265333D01*
X73595667Y-27170095D01*
X73595667Y-27074857D01*
X73643286Y-26979619D01*
X73690905Y-26932000D01*
X73786143Y-26884381D01*
X74024239Y-26884381D01*
X74167096Y-26932000D01*
X76690906Y-27884381D02*
X76357572Y-27408190D01*
X76119477Y-27884381D02*
X76119477Y-26884381D01*
X76500430Y-26884381D01*
X76595668Y-26932000D01*
X76643287Y-26979619D01*
X76690906Y-27074857D01*
X76690906Y-27217714D01*
X76643287Y-27312952D01*
X76595668Y-27360571D01*
X76500430Y-27408190D01*
X76119477Y-27408190D01*
X79167097Y-26932000D02*
X79071859Y-26884381D01*
X78929002Y-26884381D01*
X78786144Y-26932000D01*
X78690906Y-27027238D01*
X78643287Y-27122476D01*
X78595668Y-27312952D01*
X78595668Y-27455810D01*
X78643287Y-27646286D01*
X78690906Y-27741524D01*
X78786144Y-27836762D01*
X78929002Y-27884381D01*
X79024240Y-27884381D01*
X79167097Y-27836762D01*
X79214716Y-27789143D01*
X79214716Y-27455810D01*
X79024240Y-27455810D01*
X81500431Y-27360571D02*
X81643288Y-27408190D01*
X81690907Y-27455810D01*
X81738526Y-27551048D01*
X81738526Y-27693905D01*
X81690907Y-27789143D01*
X81643288Y-27836762D01*
X81548050Y-27884381D01*
X81167097Y-27884381D01*
X81167097Y-26884381D01*
X81500431Y-26884381D01*
X81595669Y-26932000D01*
X81643288Y-26979619D01*
X81690907Y-27074857D01*
X81690907Y-27170095D01*
X81643288Y-27265333D01*
X81595669Y-27312952D01*
X81500431Y-27360571D01*
X81167097Y-27360571D01*
X82786145Y-26884381D02*
X83119478Y-27884381D01*
X83452812Y-26884381D01*
X83786145Y-27884381D02*
X83786145Y-27217714D01*
X83786145Y-26884381D02*
X83738526Y-26932000D01*
X83786145Y-26979619D01*
X83833764Y-26932000D01*
X83786145Y-26884381D01*
X83786145Y-26979619D01*
X84262335Y-27884381D02*
X84262335Y-26884381D01*
X84262335Y-27265333D02*
X84357573Y-27217714D01*
X84548050Y-27217714D01*
X84643288Y-27265333D01*
X84690907Y-27312952D01*
X84738526Y-27408190D01*
X84738526Y-27693905D01*
X84690907Y-27789143D01*
X84643288Y-27836762D01*
X84548050Y-27884381D01*
X84357573Y-27884381D01*
X84262335Y-27836762D01*
D11*
X65722500Y-27305000D02*
X65722500Y-27940000D01*
X65405000Y-27940000D02*
X66040000Y-27940000D01*
D12*
X36004595Y-53681381D02*
X36576024Y-53681381D01*
X36290309Y-54681381D02*
X36290309Y-53681381D01*
X36814119Y-53681381D02*
X37480786Y-54681381D01*
X37480786Y-53681381D02*
X36814119Y-54681381D01*
X35766810Y-50172881D02*
X35433476Y-49696690D01*
X35195381Y-50172881D02*
X35195381Y-49172881D01*
X35576334Y-49172881D01*
X35671572Y-49220500D01*
X35719191Y-49268119D01*
X35766810Y-49363357D01*
X35766810Y-49506214D01*
X35719191Y-49601452D01*
X35671572Y-49649071D01*
X35576334Y-49696690D01*
X35195381Y-49696690D01*
X36147762Y-50125262D02*
X36290619Y-50172881D01*
X36528715Y-50172881D01*
X36623953Y-50125262D01*
X36671572Y-50077643D01*
X36719191Y-49982405D01*
X36719191Y-49887167D01*
X36671572Y-49791929D01*
X36623953Y-49744310D01*
X36528715Y-49696690D01*
X36338238Y-49649071D01*
X36243000Y-49601452D01*
X36195381Y-49553833D01*
X36147762Y-49458595D01*
X36147762Y-49363357D01*
X36195381Y-49268119D01*
X36243000Y-49220500D01*
X36338238Y-49172881D01*
X36576334Y-49172881D01*
X36719191Y-49220500D01*
X37004905Y-49172881D02*
X37576334Y-49172881D01*
X37290619Y-50172881D02*
X37290619Y-49172881D01*
X38671572Y-50172881D02*
X38671572Y-49172881D01*
X39338238Y-49172881D02*
X39528715Y-49172881D01*
X39623953Y-49220500D01*
X39719191Y-49315738D01*
X39766810Y-49506214D01*
X39766810Y-49839548D01*
X39719191Y-50030024D01*
X39623953Y-50125262D01*
X39528715Y-50172881D01*
X39338238Y-50172881D01*
X39243000Y-50125262D01*
X39147762Y-50030024D01*
X39100143Y-49839548D01*
X39100143Y-49506214D01*
X39147762Y-49315738D01*
X39243000Y-49220500D01*
X39338238Y-49172881D01*
X41528715Y-50077643D02*
X41481096Y-50125262D01*
X41338239Y-50172881D01*
X41243001Y-50172881D01*
X41100143Y-50125262D01*
X41004905Y-50030024D01*
X40957286Y-49934786D01*
X40909667Y-49744310D01*
X40909667Y-49601452D01*
X40957286Y-49410976D01*
X41004905Y-49315738D01*
X41100143Y-49220500D01*
X41243001Y-49172881D01*
X41338239Y-49172881D01*
X41481096Y-49220500D01*
X41528715Y-49268119D01*
X42433477Y-50172881D02*
X41957286Y-50172881D01*
X41957286Y-49172881D01*
X42766810Y-50172881D02*
X42766810Y-49172881D01*
X43338239Y-50172881D02*
X42909667Y-49601452D01*
X43338239Y-49172881D02*
X42766810Y-49744310D01*
D11*
X33401000Y-53975000D02*
X33401000Y-54610000D01*
X33083500Y-54610000D02*
X33718500Y-54610000D01*
X33083500Y-50038000D02*
X33718500Y-50038000D01*
X33401000Y-49403000D02*
X33401000Y-50038000D01*
D13*
X86266020Y-96121220D02*
X83466940Y-96121220D01*
X86266020Y-94820740D02*
X83466940Y-94820740D01*
X83469480Y-96123760D02*
X83469480Y-94823280D01*
X86268560Y-98719640D02*
X83469480Y-98719640D01*
X86268560Y-97419160D02*
X83469480Y-97419160D01*
X83472020Y-98722180D02*
X83472020Y-97421700D01*
X86271100Y-97419160D02*
X86271100Y-96118680D01*
X86268560Y-101320600D02*
X83469480Y-101320600D01*
X86268560Y-100020120D02*
X83469480Y-100020120D01*
X83472020Y-101323140D02*
X83472020Y-100022660D01*
X86271100Y-100020120D02*
X86271100Y-98719640D01*
X86268560Y-105222040D02*
X81968340Y-105222040D01*
X86268560Y-103921560D02*
X83469480Y-103921560D01*
X86268560Y-102621080D02*
X83469480Y-102621080D01*
X61368940Y-97121980D02*
X67269360Y-97121980D01*
X67269360Y-105122980D02*
X61368940Y-105122980D01*
X67271900Y-97121980D02*
X67271900Y-105122980D01*
X61368940Y-105122980D02*
X61368940Y-97121980D01*
X76669900Y-105122980D02*
X68668900Y-105122980D01*
X68668900Y-105122980D02*
X68668900Y-97121980D01*
X68668900Y-97121980D02*
X76669900Y-97121980D01*
X76669900Y-97121980D02*
X76669900Y-105122980D01*
X86268560Y-94820740D02*
X86268560Y-94421960D01*
X83472020Y-103924100D02*
X83472020Y-102623620D01*
X86271100Y-102621080D02*
X86271100Y-101320600D01*
X86271100Y-105222040D02*
X86271100Y-103921560D01*
X81968340Y-106222800D02*
X81968340Y-93421200D01*
X59969400Y-93421200D02*
X86969600Y-93421200D01*
X86969600Y-93421200D02*
X86969600Y-106222800D01*
X86969600Y-106222800D02*
X59969400Y-106222800D01*
X59969400Y-106222800D02*
X59969400Y-93421200D01*
D12*
X59892500Y-88443000D02*
X59892500Y-91143000D01*
X61392500Y-88443000D02*
X61392500Y-91143000D01*
X60492500Y-89943000D02*
X60742500Y-89943000D01*
X60742500Y-89943000D02*
X60592500Y-89793000D01*
X60992500Y-89693000D02*
X60292500Y-89693000D01*
X60642500Y-90043000D02*
X60642500Y-90393000D01*
X60642500Y-89693000D02*
X60992500Y-90043000D01*
X60992500Y-90043000D02*
X60292500Y-90043000D01*
X60292500Y-90043000D02*
X60642500Y-89693000D01*
X54724500Y-106033000D02*
X57424500Y-106033000D01*
X54724500Y-104533000D02*
X57424500Y-104533000D01*
X56224500Y-105433000D02*
X56224500Y-105183000D01*
X56224500Y-105183000D02*
X56074500Y-105333000D01*
X55974500Y-104933000D02*
X55974500Y-105633000D01*
X56324500Y-105283000D02*
X56674500Y-105283000D01*
X55974500Y-105283000D02*
X56324500Y-104933000D01*
X56324500Y-104933000D02*
X56324500Y-105633000D01*
X56324500Y-105633000D02*
X55974500Y-105283000D01*
X35433000Y-95440500D02*
X37973000Y-95440500D01*
X32613000Y-95160500D02*
X34163000Y-95160500D01*
X35433000Y-95440500D02*
X35433000Y-97980500D01*
X34163000Y-98260500D02*
X32613000Y-98260500D01*
X32613000Y-98260500D02*
X32613000Y-95160500D01*
X35433000Y-97980500D02*
X37973000Y-97980500D01*
X37973000Y-97980500D02*
X37973000Y-95440500D01*
X31990000Y-96110500D02*
X31990000Y-97310500D01*
X30240000Y-97310500D02*
X30240000Y-96110500D01*
X29579000Y-98310500D02*
X29579000Y-95610500D01*
X28079000Y-98310500D02*
X28079000Y-95610500D01*
X28979000Y-96810500D02*
X28729000Y-96810500D01*
X28729000Y-96810500D02*
X28879000Y-96960500D01*
X28479000Y-97060500D02*
X29179000Y-97060500D01*
X28829000Y-96710500D02*
X28829000Y-96360500D01*
X28829000Y-97060500D02*
X28479000Y-96710500D01*
X28479000Y-96710500D02*
X29179000Y-96710500D01*
X29179000Y-96710500D02*
X28829000Y-97060500D01*
X92964000Y-104203500D02*
G75*
G03X92964000Y-104203500I-2286000J0D01*
G01*
X42719000Y-104738500D02*
G75*
G03X42719000Y-104738500I-2286000J0D01*
G01*
X92719000Y-69738500D02*
G75*
G03X92719000Y-69738500I-2286000J0D01*
G01*
X42719000Y-69738500D02*
G75*
G03X42719000Y-69738500I-2286000J0D01*
G01*
X54533800Y-94785180D02*
X54533800Y-103385620D01*
X54533800Y-103385620D02*
X57734200Y-103385620D01*
X57734200Y-103385620D02*
X57734200Y-94785180D01*
X56984900Y-94785180D02*
X57734200Y-94785180D01*
X55234840Y-94785180D02*
X54533800Y-94785180D01*
X56433720Y-94785180D02*
X56532780Y-94485460D01*
X55834280Y-94785180D02*
X55735220Y-94485460D01*
X55234840Y-94785180D02*
X57033160Y-94785180D01*
X40751760Y-83121500D02*
X40350440Y-83322160D01*
X40350440Y-83322160D02*
X39751000Y-83423760D01*
X39751000Y-83423760D02*
X39250620Y-83322160D01*
X39250620Y-83322160D02*
X38552120Y-82923380D01*
X38552120Y-82923380D02*
X38150800Y-82321400D01*
X38150800Y-82321400D02*
X37950140Y-81721960D01*
X37950140Y-81721960D02*
X37950140Y-75123040D01*
X37950140Y-75123040D02*
X38150800Y-74422000D01*
X38150800Y-74422000D02*
X38450520Y-74023220D01*
X38450520Y-74023220D02*
X38950900Y-73621900D01*
X38950900Y-73621900D02*
X39550340Y-73421240D01*
X39550340Y-73421240D02*
X40050720Y-73421240D01*
X40050720Y-73421240D02*
X40551100Y-73621900D01*
X40551100Y-73621900D02*
X41150540Y-74122280D01*
X41150540Y-74122280D02*
X41450260Y-74622660D01*
X41450260Y-74622660D02*
X41551860Y-75123040D01*
X41551860Y-75222100D02*
X41551860Y-81823560D01*
X41551860Y-81823560D02*
X41450260Y-82222340D01*
X41450260Y-82222340D02*
X41150540Y-82722720D01*
X41150540Y-82722720D02*
X40650160Y-83223100D01*
X42080180Y-75232260D02*
X42031920Y-74772520D01*
X42031920Y-74772520D02*
X41920160Y-74373740D01*
X41920160Y-74373740D02*
X41701720Y-73941940D01*
X41701720Y-73941940D02*
X41470580Y-73652380D01*
X41470580Y-73652380D02*
X41120060Y-73322180D01*
X41120060Y-73322180D02*
X40581580Y-73032620D01*
X40581580Y-73032620D02*
X39982140Y-72903080D01*
X39982140Y-72903080D02*
X39471600Y-72903080D01*
X39471600Y-72903080D02*
X38770560Y-73073260D01*
X38770560Y-73073260D02*
X38181280Y-73472040D01*
X38181280Y-73472040D02*
X37810440Y-73931780D01*
X37810440Y-73931780D02*
X37602160Y-74353420D01*
X37602160Y-74353420D02*
X37442140Y-74803000D01*
X37442140Y-74803000D02*
X37411660Y-75242420D01*
X37630100Y-82583020D02*
X37851080Y-82961480D01*
X37851080Y-82961480D02*
X38130480Y-83281520D01*
X38130480Y-83281520D02*
X38460680Y-83532980D01*
X38460680Y-83532980D02*
X39011860Y-83832700D01*
X39011860Y-83832700D02*
X39481760Y-83941920D01*
X39481760Y-83941920D02*
X39941500Y-83962240D01*
X39941500Y-83962240D02*
X40401240Y-83873340D01*
X40401240Y-83873340D02*
X40850820Y-83682840D01*
X40850820Y-83682840D02*
X41320720Y-83322160D01*
X41320720Y-83322160D02*
X41640760Y-82971640D01*
X41640760Y-82971640D02*
X41871900Y-82583020D01*
X41871900Y-82583020D02*
X42011600Y-82153760D01*
X42011600Y-82153760D02*
X42080180Y-81711800D01*
X37421820Y-75222100D02*
X37421820Y-81673700D01*
X37421820Y-81673700D02*
X37459920Y-82092800D01*
X37459920Y-82092800D02*
X37630100Y-82583020D01*
X42080180Y-75222100D02*
X42080180Y-81673700D01*
X46882000Y-100061500D02*
G75*
G03X46882000Y-100061500I-100000J0D01*
G01*
X46232000Y-99811500D02*
X46732000Y-99811500D01*
X46232000Y-96911500D02*
X46232000Y-99811500D01*
X46732000Y-96911500D02*
X46232000Y-96911500D01*
X46732000Y-99811500D02*
X46732000Y-96911500D01*
X30240000Y-92738500D02*
X30240000Y-91538500D01*
X31990000Y-91538500D02*
X31990000Y-92738500D01*
X45833000Y-90014500D02*
X45833000Y-91214500D01*
X44083000Y-91214500D02*
X44083000Y-90014500D01*
X48119000Y-90014500D02*
X48119000Y-91214500D01*
X46369000Y-91214500D02*
X46369000Y-90014500D01*
X50405000Y-90014500D02*
X50405000Y-91214500D01*
X48655000Y-91214500D02*
X48655000Y-90014500D01*
X56501000Y-90014500D02*
X56501000Y-91214500D01*
X54751000Y-91214500D02*
X54751000Y-90014500D01*
X58787000Y-90014500D02*
X58787000Y-91214500D01*
X57037000Y-91214500D02*
X57037000Y-90014500D01*
X51132740Y-99660660D02*
X51132740Y-99612400D01*
X50431700Y-96861680D02*
X51132740Y-96861680D01*
X51132740Y-96861680D02*
X51132740Y-97110600D01*
X51132740Y-99660660D02*
X51132740Y-99861320D01*
X51132740Y-99861320D02*
X50431700Y-99861320D01*
X67183000Y-68580000D02*
X84963000Y-68580000D01*
X84963000Y-68580000D02*
X84963000Y-71120000D01*
X84963000Y-71120000D02*
X67183000Y-71120000D01*
X64363000Y-68300000D02*
X65913000Y-68300000D01*
X67183000Y-68580000D02*
X67183000Y-71120000D01*
X65913000Y-71400000D02*
X64363000Y-71400000D01*
X64363000Y-71400000D02*
X64363000Y-68300000D01*
X27813000Y-75882500D02*
X19177000Y-75882500D01*
X36195000Y-75882500D02*
X31115000Y-75882500D01*
X27813000Y-88074500D02*
X19177000Y-88074500D01*
X36195000Y-88074500D02*
X31115000Y-88074500D01*
X19177000Y-88074500D02*
X19177000Y-75882500D01*
X36195000Y-75882500D02*
X36195000Y-88074500D01*
X62865000Y-90106500D02*
X104013000Y-90106500D01*
X104013000Y-90106500D02*
X104013000Y-73850500D01*
X104013000Y-73850500D02*
X62865000Y-73850500D01*
X62865000Y-73850500D02*
X62865000Y-81978500D01*
X62865000Y-81978500D02*
X62865000Y-90106500D01*
X48133000Y-105600500D02*
X53213000Y-105600500D01*
X53213000Y-105600500D02*
X53213000Y-103060500D01*
X53213000Y-103060500D02*
X48133000Y-103060500D01*
X45313000Y-102780500D02*
X46863000Y-102780500D01*
X48133000Y-103060500D02*
X48133000Y-105600500D01*
X46863000Y-105880500D02*
X45313000Y-105880500D01*
X45313000Y-105880500D02*
X45313000Y-102780500D01*
X35433000Y-93408500D02*
X43053000Y-93408500D01*
X35433000Y-90868500D02*
X43053000Y-90868500D01*
X32613000Y-90588500D02*
X34163000Y-90588500D01*
X43053000Y-93408500D02*
X43053000Y-90868500D01*
X35433000Y-90868500D02*
X35433000Y-93408500D01*
X34163000Y-93688500D02*
X32613000Y-93688500D01*
X32613000Y-93688500D02*
X32613000Y-90588500D01*
X57773000Y-77508500D02*
X57773000Y-77858500D01*
X57773000Y-70708500D02*
X57773000Y-74808500D01*
X57773000Y-84608500D02*
X57773000Y-80508500D01*
X57773000Y-87808500D02*
X57773000Y-87308500D01*
X43873000Y-88208500D02*
X43873000Y-70658500D01*
X57773000Y-70708500D02*
X57773000Y-70658500D01*
X57773000Y-70658500D02*
X43923000Y-70658500D01*
X47923000Y-88208500D02*
X43873000Y-88208500D01*
X45623000Y-71908500D02*
X57473000Y-71908500D01*
X57473000Y-71908500D02*
X57473000Y-80108500D01*
X45623000Y-85908500D02*
X45623000Y-71908500D01*
X57473000Y-80108500D02*
X57473000Y-85908500D01*
X57473000Y-85908500D02*
X56673000Y-85908500D01*
X56673000Y-86408500D02*
X56673000Y-85908500D01*
X56673000Y-85908500D02*
X45623000Y-85908500D01*
X45623000Y-85908500D02*
X45623000Y-86408500D01*
X47923000Y-87808500D02*
X47923000Y-88208500D01*
X47923000Y-88208500D02*
X57773000Y-88208500D01*
X57773000Y-88208500D02*
X57773000Y-87808500D01*
X29579000Y-93865500D02*
X29579000Y-91165500D01*
X28079000Y-93865500D02*
X28079000Y-91165500D01*
X28979000Y-92365500D02*
X28729000Y-92365500D01*
X28729000Y-92365500D02*
X28879000Y-92515500D01*
X28479000Y-92615500D02*
X29179000Y-92615500D01*
X28829000Y-92265500D02*
X28829000Y-91915500D01*
X28829000Y-92615500D02*
X28479000Y-92265500D01*
X28479000Y-92265500D02*
X29179000Y-92265500D01*
X29179000Y-92265500D02*
X28829000Y-92615500D01*
X51078000Y-93176500D02*
X51078000Y-89076500D01*
X54078000Y-93176500D02*
X54078000Y-89076500D01*
X49107500Y-95861000D02*
X45007500Y-95861000D01*
X49107500Y-92861000D02*
X45007500Y-92861000D01*
X52078000Y-96163500D02*
X53078000Y-96163500D01*
X53078000Y-94463500D02*
X52078000Y-94463500D01*
X40664000Y-99971000D02*
X40664000Y-95871000D01*
X43664000Y-99971000D02*
X43664000Y-95871000D01*
X40727500Y-55267000D02*
X40727500Y-51167000D01*
X43727500Y-55267000D02*
X43727500Y-51167000D01*
X52141500Y-51459500D02*
X53141500Y-51459500D01*
X53141500Y-49759500D02*
X52141500Y-49759500D01*
X49171000Y-51157000D02*
X45071000Y-51157000D01*
X49171000Y-48157000D02*
X45071000Y-48157000D01*
X51141500Y-48472500D02*
X51141500Y-44372500D01*
X54141500Y-48472500D02*
X54141500Y-44372500D01*
X29642500Y-49161500D02*
X29642500Y-46461500D01*
X28142500Y-49161500D02*
X28142500Y-46461500D01*
X29042500Y-47661500D02*
X28792500Y-47661500D01*
X28792500Y-47661500D02*
X28942500Y-47811500D01*
X28542500Y-47911500D02*
X29242500Y-47911500D01*
X28892500Y-47561500D02*
X28892500Y-47211500D01*
X28892500Y-47911500D02*
X28542500Y-47561500D01*
X28542500Y-47561500D02*
X29242500Y-47561500D01*
X29242500Y-47561500D02*
X28892500Y-47911500D01*
X57836500Y-32804500D02*
X57836500Y-33154500D01*
X57836500Y-26004500D02*
X57836500Y-30104500D01*
X57836500Y-39904500D02*
X57836500Y-35804500D01*
X57836500Y-43104500D02*
X57836500Y-42604500D01*
X43936500Y-43504500D02*
X43936500Y-25954500D01*
X57836500Y-26004500D02*
X57836500Y-25954500D01*
X57836500Y-25954500D02*
X43986500Y-25954500D01*
X47986500Y-43504500D02*
X43936500Y-43504500D01*
X45686500Y-27204500D02*
X57536500Y-27204500D01*
X57536500Y-27204500D02*
X57536500Y-35404500D01*
X45686500Y-41204500D02*
X45686500Y-27204500D01*
X57536500Y-35404500D02*
X57536500Y-41204500D01*
X57536500Y-41204500D02*
X56736500Y-41204500D01*
X56736500Y-41704500D02*
X56736500Y-41204500D01*
X56736500Y-41204500D02*
X45686500Y-41204500D01*
X45686500Y-41204500D02*
X45686500Y-41704500D01*
X47986500Y-43104500D02*
X47986500Y-43504500D01*
X47986500Y-43504500D02*
X57836500Y-43504500D01*
X57836500Y-43504500D02*
X57836500Y-43104500D01*
X35496500Y-48704500D02*
X43116500Y-48704500D01*
X35496500Y-46164500D02*
X43116500Y-46164500D01*
X32676500Y-45884500D02*
X34226500Y-45884500D01*
X43116500Y-48704500D02*
X43116500Y-46164500D01*
X35496500Y-46164500D02*
X35496500Y-48704500D01*
X34226500Y-48984500D02*
X32676500Y-48984500D01*
X32676500Y-48984500D02*
X32676500Y-45884500D01*
X48196500Y-60896500D02*
X53276500Y-60896500D01*
X53276500Y-60896500D02*
X53276500Y-58356500D01*
X53276500Y-58356500D02*
X48196500Y-58356500D01*
X45376500Y-58076500D02*
X46926500Y-58076500D01*
X48196500Y-58356500D02*
X48196500Y-60896500D01*
X46926500Y-61176500D02*
X45376500Y-61176500D01*
X45376500Y-61176500D02*
X45376500Y-58076500D01*
X62928500Y-45402500D02*
X104076500Y-45402500D01*
X104076500Y-45402500D02*
X104076500Y-29146500D01*
X104076500Y-29146500D02*
X62928500Y-29146500D01*
X62928500Y-29146500D02*
X62928500Y-37274500D01*
X62928500Y-37274500D02*
X62928500Y-45402500D01*
X27876500Y-31178500D02*
X19240500Y-31178500D01*
X36258500Y-31178500D02*
X31178500Y-31178500D01*
X27876500Y-43370500D02*
X19240500Y-43370500D01*
X36258500Y-43370500D02*
X31178500Y-43370500D01*
X19240500Y-43370500D02*
X19240500Y-31178500D01*
X36258500Y-31178500D02*
X36258500Y-43370500D01*
X67246500Y-23876000D02*
X85026500Y-23876000D01*
X85026500Y-23876000D02*
X85026500Y-26416000D01*
X85026500Y-26416000D02*
X67246500Y-26416000D01*
X64426500Y-23596000D02*
X65976500Y-23596000D01*
X67246500Y-23876000D02*
X67246500Y-26416000D01*
X65976500Y-26696000D02*
X64426500Y-26696000D01*
X64426500Y-26696000D02*
X64426500Y-23596000D01*
X51196240Y-54956660D02*
X51196240Y-54908400D01*
X50495200Y-52157680D02*
X51196240Y-52157680D01*
X51196240Y-52157680D02*
X51196240Y-52406600D01*
X51196240Y-54956660D02*
X51196240Y-55157320D01*
X51196240Y-55157320D02*
X50495200Y-55157320D01*
X58850500Y-45310500D02*
X58850500Y-46510500D01*
X57100500Y-46510500D02*
X57100500Y-45310500D01*
X56564500Y-45310500D02*
X56564500Y-46510500D01*
X54814500Y-46510500D02*
X54814500Y-45310500D01*
X50468500Y-45310500D02*
X50468500Y-46510500D01*
X48718500Y-46510500D02*
X48718500Y-45310500D01*
X48182500Y-45310500D02*
X48182500Y-46510500D01*
X46432500Y-46510500D02*
X46432500Y-45310500D01*
X45896500Y-45310500D02*
X45896500Y-46510500D01*
X44146500Y-46510500D02*
X44146500Y-45310500D01*
X30303500Y-48034500D02*
X30303500Y-46834500D01*
X32053500Y-46834500D02*
X32053500Y-48034500D01*
X46945500Y-55357500D02*
G75*
G03X46945500Y-55357500I-100000J0D01*
G01*
X46295500Y-55107500D02*
X46795500Y-55107500D01*
X46295500Y-52207500D02*
X46295500Y-55107500D01*
X46795500Y-52207500D02*
X46295500Y-52207500D01*
X46795500Y-55107500D02*
X46795500Y-52207500D01*
X40815260Y-38417500D02*
X40413940Y-38618160D01*
X40413940Y-38618160D02*
X39814500Y-38719760D01*
X39814500Y-38719760D02*
X39314120Y-38618160D01*
X39314120Y-38618160D02*
X38615620Y-38219380D01*
X38615620Y-38219380D02*
X38214300Y-37617400D01*
X38214300Y-37617400D02*
X38013640Y-37017960D01*
X38013640Y-37017960D02*
X38013640Y-30419040D01*
X38013640Y-30419040D02*
X38214300Y-29718000D01*
X38214300Y-29718000D02*
X38514020Y-29319220D01*
X38514020Y-29319220D02*
X39014400Y-28917900D01*
X39014400Y-28917900D02*
X39613840Y-28717240D01*
X39613840Y-28717240D02*
X40114220Y-28717240D01*
X40114220Y-28717240D02*
X40614600Y-28917900D01*
X40614600Y-28917900D02*
X41214040Y-29418280D01*
X41214040Y-29418280D02*
X41513760Y-29918660D01*
X41513760Y-29918660D02*
X41615360Y-30419040D01*
X41615360Y-30518100D02*
X41615360Y-37119560D01*
X41615360Y-37119560D02*
X41513760Y-37518340D01*
X41513760Y-37518340D02*
X41214040Y-38018720D01*
X41214040Y-38018720D02*
X40713660Y-38519100D01*
X42143680Y-30528260D02*
X42095420Y-30068520D01*
X42095420Y-30068520D02*
X41983660Y-29669740D01*
X41983660Y-29669740D02*
X41765220Y-29237940D01*
X41765220Y-29237940D02*
X41534080Y-28948380D01*
X41534080Y-28948380D02*
X41183560Y-28618180D01*
X41183560Y-28618180D02*
X40645080Y-28328620D01*
X40645080Y-28328620D02*
X40045640Y-28199080D01*
X40045640Y-28199080D02*
X39535100Y-28199080D01*
X39535100Y-28199080D02*
X38834060Y-28369260D01*
X38834060Y-28369260D02*
X38244780Y-28768040D01*
X38244780Y-28768040D02*
X37873940Y-29227780D01*
X37873940Y-29227780D02*
X37665660Y-29649420D01*
X37665660Y-29649420D02*
X37505640Y-30099000D01*
X37505640Y-30099000D02*
X37475160Y-30538420D01*
X37693600Y-37879020D02*
X37914580Y-38257480D01*
X37914580Y-38257480D02*
X38193980Y-38577520D01*
X38193980Y-38577520D02*
X38524180Y-38828980D01*
X38524180Y-38828980D02*
X39075360Y-39128700D01*
X39075360Y-39128700D02*
X39545260Y-39237920D01*
X39545260Y-39237920D02*
X40005000Y-39258240D01*
X40005000Y-39258240D02*
X40464740Y-39169340D01*
X40464740Y-39169340D02*
X40914320Y-38978840D01*
X40914320Y-38978840D02*
X41384220Y-38618160D01*
X41384220Y-38618160D02*
X41704260Y-38267640D01*
X41704260Y-38267640D02*
X41935400Y-37879020D01*
X41935400Y-37879020D02*
X42075100Y-37449760D01*
X42075100Y-37449760D02*
X42143680Y-37007800D01*
X37485320Y-30518100D02*
X37485320Y-36969700D01*
X37485320Y-36969700D02*
X37523420Y-37388800D01*
X37523420Y-37388800D02*
X37693600Y-37879020D01*
X42143680Y-30518100D02*
X42143680Y-36969700D01*
X54597300Y-50081180D02*
X54597300Y-58681620D01*
X54597300Y-58681620D02*
X57797700Y-58681620D01*
X57797700Y-58681620D02*
X57797700Y-50081180D01*
X57048400Y-50081180D02*
X57797700Y-50081180D01*
X55298340Y-50081180D02*
X54597300Y-50081180D01*
X56497220Y-50081180D02*
X56596280Y-49781460D01*
X55897780Y-50081180D02*
X55798720Y-49781460D01*
X55298340Y-50081180D02*
X57096660Y-50081180D01*
X42782500Y-25034500D02*
G75*
G03X42782500Y-25034500I-2286000J0D01*
G01*
X92782500Y-25034500D02*
G75*
G03X92782500Y-25034500I-2286000J0D01*
G01*
X42782500Y-60034500D02*
G75*
G03X42782500Y-60034500I-2286000J0D01*
G01*
X93027500Y-59499500D02*
G75*
G03X93027500Y-59499500I-2286000J0D01*
G01*
X29642500Y-53606500D02*
X29642500Y-50906500D01*
X28142500Y-53606500D02*
X28142500Y-50906500D01*
X29042500Y-52106500D02*
X28792500Y-52106500D01*
X28792500Y-52106500D02*
X28942500Y-52256500D01*
X28542500Y-52356500D02*
X29242500Y-52356500D01*
X28892500Y-52006500D02*
X28892500Y-51656500D01*
X28892500Y-52356500D02*
X28542500Y-52006500D01*
X28542500Y-52006500D02*
X29242500Y-52006500D01*
X29242500Y-52006500D02*
X28892500Y-52356500D01*
X32053500Y-51406500D02*
X32053500Y-52606500D01*
X30303500Y-52606500D02*
X30303500Y-51406500D01*
X35496500Y-50736500D02*
X38036500Y-50736500D01*
X32676500Y-50456500D02*
X34226500Y-50456500D01*
X35496500Y-50736500D02*
X35496500Y-53276500D01*
X34226500Y-53556500D02*
X32676500Y-53556500D01*
X32676500Y-53556500D02*
X32676500Y-50456500D01*
X35496500Y-53276500D02*
X38036500Y-53276500D01*
X38036500Y-53276500D02*
X38036500Y-50736500D01*
X54788000Y-61329000D02*
X57488000Y-61329000D01*
X54788000Y-59829000D02*
X57488000Y-59829000D01*
X56288000Y-60729000D02*
X56288000Y-60479000D01*
X56288000Y-60479000D02*
X56138000Y-60629000D01*
X56038000Y-60229000D02*
X56038000Y-60929000D01*
X56388000Y-60579000D02*
X56738000Y-60579000D01*
X56038000Y-60579000D02*
X56388000Y-60229000D01*
X56388000Y-60229000D02*
X56388000Y-60929000D01*
X56388000Y-60929000D02*
X56038000Y-60579000D01*
X59956000Y-43739000D02*
X59956000Y-46439000D01*
X61456000Y-43739000D02*
X61456000Y-46439000D01*
X60556000Y-45239000D02*
X60806000Y-45239000D01*
X60806000Y-45239000D02*
X60656000Y-45089000D01*
X61056000Y-44989000D02*
X60356000Y-44989000D01*
X60706000Y-45339000D02*
X60706000Y-45689000D01*
X60706000Y-44989000D02*
X61056000Y-45339000D01*
X61056000Y-45339000D02*
X60356000Y-45339000D01*
X60356000Y-45339000D02*
X60706000Y-44989000D01*
D13*
X86329520Y-51417220D02*
X83530440Y-51417220D01*
X86329520Y-50116740D02*
X83530440Y-50116740D01*
X83532980Y-51419760D02*
X83532980Y-50119280D01*
X86332060Y-54015640D02*
X83532980Y-54015640D01*
X86332060Y-52715160D02*
X83532980Y-52715160D01*
X83535520Y-54018180D02*
X83535520Y-52717700D01*
X86334600Y-52715160D02*
X86334600Y-51414680D01*
X86332060Y-56616600D02*
X83532980Y-56616600D01*
X86332060Y-55316120D02*
X83532980Y-55316120D01*
X83535520Y-56619140D02*
X83535520Y-55318660D01*
X86334600Y-55316120D02*
X86334600Y-54015640D01*
X86332060Y-60518040D02*
X82031840Y-60518040D01*
X86332060Y-59217560D02*
X83532980Y-59217560D01*
X86332060Y-57917080D02*
X83532980Y-57917080D01*
X61432440Y-52417980D02*
X67332860Y-52417980D01*
X67332860Y-60418980D02*
X61432440Y-60418980D01*
X67335400Y-52417980D02*
X67335400Y-60418980D01*
X61432440Y-60418980D02*
X61432440Y-52417980D01*
X76733400Y-60418980D02*
X68732400Y-60418980D01*
X68732400Y-60418980D02*
X68732400Y-52417980D01*
X68732400Y-52417980D02*
X76733400Y-52417980D01*
X76733400Y-52417980D02*
X76733400Y-60418980D01*
X86332060Y-50116740D02*
X86332060Y-49717960D01*
X83535520Y-59220100D02*
X83535520Y-57919620D01*
X86334600Y-57917080D02*
X86334600Y-56616600D01*
X86334600Y-60518040D02*
X86334600Y-59217560D01*
X82031840Y-61518800D02*
X82031840Y-48717200D01*
X60032900Y-48717200D02*
X87033100Y-48717200D01*
X87033100Y-48717200D02*
X87033100Y-61518800D01*
X87033100Y-61518800D02*
X60032900Y-61518800D01*
X60032900Y-61518800D02*
X60032900Y-48717200D01*
D14*
X62973857Y-94796429D02*
X62973857Y-96030143D01*
X63046429Y-96175286D01*
X63119000Y-96247857D01*
X63264143Y-96320429D01*
X63554429Y-96320429D01*
X63699571Y-96247857D01*
X63772143Y-96175286D01*
X63844714Y-96030143D01*
X63844714Y-94796429D01*
X65296142Y-94796429D02*
X64570428Y-94796429D01*
X64497857Y-95522143D01*
X64570428Y-95449571D01*
X64715571Y-95377000D01*
X65078428Y-95377000D01*
X65223571Y-95449571D01*
X65296142Y-95522143D01*
X65368714Y-95667286D01*
X65368714Y-96030143D01*
X65296142Y-96175286D01*
X65223571Y-96247857D01*
X65078428Y-96320429D01*
X64715571Y-96320429D01*
X64570428Y-96247857D01*
X64497857Y-96175286D01*
X67337214Y-96320429D02*
X67337214Y-94796429D01*
X67337214Y-95522143D02*
X68208071Y-95522143D01*
X68208071Y-96320429D02*
X68208071Y-94796429D01*
X69804642Y-96175286D02*
X69732071Y-96247857D01*
X69514357Y-96320429D01*
X69369214Y-96320429D01*
X69151499Y-96247857D01*
X69006357Y-96102714D01*
X68933785Y-95957571D01*
X68861214Y-95667286D01*
X68861214Y-95449571D01*
X68933785Y-95159286D01*
X69006357Y-95014143D01*
X69151499Y-94869000D01*
X69369214Y-94796429D01*
X69514357Y-94796429D01*
X69732071Y-94869000D01*
X69804642Y-94941571D01*
X70457785Y-95739857D02*
X71618928Y-95739857D01*
X72634928Y-94796429D02*
X72780071Y-94796429D01*
X72925214Y-94869000D01*
X72997785Y-94941571D01*
X73070356Y-95086714D01*
X73142928Y-95377000D01*
X73142928Y-95739857D01*
X73070356Y-96030143D01*
X72997785Y-96175286D01*
X72925214Y-96247857D01*
X72780071Y-96320429D01*
X72634928Y-96320429D01*
X72489785Y-96247857D01*
X72417214Y-96175286D01*
X72344642Y-96030143D01*
X72272071Y-95739857D01*
X72272071Y-95377000D01*
X72344642Y-95086714D01*
X72417214Y-94941571D01*
X72489785Y-94869000D01*
X72634928Y-94796429D01*
X74521785Y-94796429D02*
X73796071Y-94796429D01*
X73723500Y-95522143D01*
X73796071Y-95449571D01*
X73941214Y-95377000D01*
X74304071Y-95377000D01*
X74449214Y-95449571D01*
X74521785Y-95522143D01*
X74594357Y-95667286D01*
X74594357Y-96030143D01*
X74521785Y-96175286D01*
X74449214Y-96247857D01*
X74304071Y-96320429D01*
X73941214Y-96320429D01*
X73796071Y-96247857D01*
X73723500Y-96175286D01*
D12*
X62618881Y-91709667D02*
X61618881Y-91709667D01*
X62333167Y-91376333D01*
X61618881Y-91043000D01*
X62618881Y-91043000D01*
X62618881Y-90423953D02*
X62571262Y-90519191D01*
X62523643Y-90566810D01*
X62428405Y-90614429D01*
X62142690Y-90614429D01*
X62047452Y-90566810D01*
X61999833Y-90519191D01*
X61952214Y-90423953D01*
X61952214Y-90281095D01*
X61999833Y-90185857D01*
X62047452Y-90138238D01*
X62142690Y-90090619D01*
X62428405Y-90090619D01*
X62523643Y-90138238D01*
X62571262Y-90185857D01*
X62618881Y-90281095D01*
X62618881Y-90423953D01*
X62618881Y-89233476D02*
X61618881Y-89233476D01*
X62571262Y-89233476D02*
X62618881Y-89328714D01*
X62618881Y-89519191D01*
X62571262Y-89614429D01*
X62523643Y-89662048D01*
X62428405Y-89709667D01*
X62142690Y-89709667D01*
X62047452Y-89662048D01*
X61999833Y-89614429D01*
X61952214Y-89519191D01*
X61952214Y-89328714D01*
X61999833Y-89233476D01*
X62571262Y-88376333D02*
X62618881Y-88471571D01*
X62618881Y-88662048D01*
X62571262Y-88757286D01*
X62476024Y-88804905D01*
X62095071Y-88804905D01*
X61999833Y-88757286D01*
X61952214Y-88662048D01*
X61952214Y-88471571D01*
X61999833Y-88376333D01*
X62095071Y-88328714D01*
X62190310Y-88328714D01*
X62285548Y-88804905D01*
X55538786Y-107386381D02*
X55062595Y-107386381D01*
X55062595Y-106386381D01*
X55872119Y-107386381D02*
X55872119Y-106719714D01*
X55872119Y-106386381D02*
X55824500Y-106434000D01*
X55872119Y-106481619D01*
X55919738Y-106434000D01*
X55872119Y-106386381D01*
X55872119Y-106481619D01*
X56348309Y-106719714D02*
X56348309Y-107386381D01*
X56348309Y-106814952D02*
X56395928Y-106767333D01*
X56491166Y-106719714D01*
X56634024Y-106719714D01*
X56729262Y-106767333D01*
X56776881Y-106862571D01*
X56776881Y-107386381D01*
X57253071Y-107386381D02*
X57253071Y-106386381D01*
X57348309Y-107005429D02*
X57634024Y-107386381D01*
X57634024Y-106719714D02*
X57253071Y-107100667D01*
X32202381Y-99956857D02*
X31726190Y-100290191D01*
X32202381Y-100528286D02*
X31202381Y-100528286D01*
X31202381Y-100147333D01*
X31250000Y-100052095D01*
X31297619Y-100004476D01*
X31392857Y-99956857D01*
X31535714Y-99956857D01*
X31630952Y-100004476D01*
X31678571Y-100052095D01*
X31726190Y-100147333D01*
X31726190Y-100528286D01*
X32202381Y-99004476D02*
X32202381Y-99575905D01*
X32202381Y-99290191D02*
X31202381Y-99290191D01*
X31345238Y-99385429D01*
X31440476Y-99480667D01*
X31488095Y-99575905D01*
X32202381Y-98052095D02*
X32202381Y-98623524D01*
X32202381Y-98337810D02*
X31202381Y-98337810D01*
X31345238Y-98433048D01*
X31440476Y-98528286D01*
X31488095Y-98623524D01*
X27757381Y-97908905D02*
X26757381Y-97908905D01*
X26757381Y-97670810D01*
X26805000Y-97527952D01*
X26900238Y-97432714D01*
X26995476Y-97385095D01*
X27185952Y-97337476D01*
X27328810Y-97337476D01*
X27519286Y-97385095D01*
X27614524Y-97432714D01*
X27709762Y-97527952D01*
X27757381Y-97670810D01*
X27757381Y-97908905D01*
X27233571Y-96575571D02*
X27281190Y-96432714D01*
X27328810Y-96385095D01*
X27424048Y-96337476D01*
X27566905Y-96337476D01*
X27662143Y-96385095D01*
X27709762Y-96432714D01*
X27757381Y-96527952D01*
X27757381Y-96908905D01*
X26757381Y-96908905D01*
X26757381Y-96575571D01*
X26805000Y-96480333D01*
X26852619Y-96432714D01*
X26947857Y-96385095D01*
X27043095Y-96385095D01*
X27138333Y-96432714D01*
X27185952Y-96480333D01*
X27233571Y-96575571D01*
X27233571Y-96908905D01*
X26805000Y-95385095D02*
X26757381Y-95480333D01*
X26757381Y-95623190D01*
X26805000Y-95766048D01*
X26900238Y-95861286D01*
X26995476Y-95908905D01*
X27185952Y-95956524D01*
X27328810Y-95956524D01*
X27519286Y-95908905D01*
X27614524Y-95861286D01*
X27709762Y-95766048D01*
X27757381Y-95623190D01*
X27757381Y-95527952D01*
X27709762Y-95385095D01*
X27662143Y-95337476D01*
X27328810Y-95337476D01*
X27328810Y-95527952D01*
X55657809Y-99353690D02*
X55657809Y-99829881D01*
X55324476Y-98829881D02*
X55657809Y-99353690D01*
X55991143Y-98829881D01*
X56276857Y-98925119D02*
X56324476Y-98877500D01*
X56419714Y-98829881D01*
X56657810Y-98829881D01*
X56753048Y-98877500D01*
X56800667Y-98925119D01*
X56848286Y-99020357D01*
X56848286Y-99115595D01*
X56800667Y-99258452D01*
X56229238Y-99829881D01*
X56848286Y-99829881D01*
X39727190Y-78898691D02*
X40203381Y-78898691D01*
X39203381Y-79232024D02*
X39727190Y-78898691D01*
X39203381Y-78565357D01*
X40203381Y-77708214D02*
X40203381Y-78279643D01*
X40203381Y-77993929D02*
X39203381Y-77993929D01*
X39346238Y-78089167D01*
X39441476Y-78184405D01*
X39489095Y-78279643D01*
X45720095Y-100099881D02*
X45720095Y-100909405D01*
X45767714Y-101004643D01*
X45815333Y-101052262D01*
X45910571Y-101099881D01*
X46101048Y-101099881D01*
X46196286Y-101052262D01*
X46243905Y-101004643D01*
X46291524Y-100909405D01*
X46291524Y-100099881D01*
X47196286Y-100433214D02*
X47196286Y-101099881D01*
X46958190Y-100052262D02*
X46720095Y-100766548D01*
X47339143Y-100766548D01*
X43767714Y-102369881D02*
X43767714Y-101369881D01*
X44339143Y-102369881D01*
X44339143Y-101369881D01*
X45386762Y-102274643D02*
X45339143Y-102322262D01*
X45196286Y-102369881D01*
X45101048Y-102369881D01*
X44958190Y-102322262D01*
X44862952Y-102227024D01*
X44815333Y-102131786D01*
X44767714Y-101941310D01*
X44767714Y-101798452D01*
X44815333Y-101607976D01*
X44862952Y-101512738D01*
X44958190Y-101417500D01*
X45101048Y-101369881D01*
X45196286Y-101369881D01*
X45339143Y-101417500D01*
X45386762Y-101465119D01*
X45815333Y-102369881D02*
X45815333Y-101369881D01*
X46196286Y-101369881D01*
X46291524Y-101417500D01*
X46339143Y-101465119D01*
X46386762Y-101560357D01*
X46386762Y-101703214D01*
X46339143Y-101798452D01*
X46291524Y-101846071D01*
X46196286Y-101893690D01*
X45815333Y-101893690D01*
X47291524Y-101369881D02*
X46815333Y-101369881D01*
X46767714Y-101846071D01*
X46815333Y-101798452D01*
X46910571Y-101750833D01*
X47148667Y-101750833D01*
X47243905Y-101798452D01*
X47291524Y-101846071D01*
X47339143Y-101941310D01*
X47339143Y-102179405D01*
X47291524Y-102274643D01*
X47243905Y-102322262D01*
X47148667Y-102369881D01*
X46910571Y-102369881D01*
X46815333Y-102322262D01*
X46767714Y-102274643D01*
X48243905Y-101369881D02*
X47767714Y-101369881D01*
X47720095Y-101846071D01*
X47767714Y-101798452D01*
X47862952Y-101750833D01*
X48101048Y-101750833D01*
X48196286Y-101798452D01*
X48243905Y-101846071D01*
X48291524Y-101941310D01*
X48291524Y-102179405D01*
X48243905Y-102274643D01*
X48196286Y-102322262D01*
X48101048Y-102369881D01*
X47862952Y-102369881D01*
X47767714Y-102322262D01*
X47720095Y-102274643D01*
X49243905Y-102369881D02*
X48672476Y-102369881D01*
X48958190Y-102369881D02*
X48958190Y-101369881D01*
X48862952Y-101512738D01*
X48767714Y-101607976D01*
X48672476Y-101655595D01*
X32011881Y-89701666D02*
X31535690Y-90035000D01*
X32011881Y-90273095D02*
X31011881Y-90273095D01*
X31011881Y-89892142D01*
X31059500Y-89796904D01*
X31107119Y-89749285D01*
X31202357Y-89701666D01*
X31345214Y-89701666D01*
X31440452Y-89749285D01*
X31488071Y-89796904D01*
X31535690Y-89892142D01*
X31535690Y-90273095D01*
X32011881Y-89225476D02*
X32011881Y-89035000D01*
X31964262Y-88939761D01*
X31916643Y-88892142D01*
X31773786Y-88796904D01*
X31583310Y-88749285D01*
X31202357Y-88749285D01*
X31107119Y-88796904D01*
X31059500Y-88844523D01*
X31011881Y-88939761D01*
X31011881Y-89130238D01*
X31059500Y-89225476D01*
X31107119Y-89273095D01*
X31202357Y-89320714D01*
X31440452Y-89320714D01*
X31535690Y-89273095D01*
X31583310Y-89225476D01*
X31630929Y-89130238D01*
X31630929Y-88939761D01*
X31583310Y-88844523D01*
X31535690Y-88796904D01*
X31440452Y-88749285D01*
X41282881Y-89384166D02*
X40806690Y-89717500D01*
X41282881Y-89955595D02*
X40282881Y-89955595D01*
X40282881Y-89574642D01*
X40330500Y-89479404D01*
X40378119Y-89431785D01*
X40473357Y-89384166D01*
X40616214Y-89384166D01*
X40711452Y-89431785D01*
X40759071Y-89479404D01*
X40806690Y-89574642D01*
X40806690Y-89955595D01*
X40282881Y-88479404D02*
X40282881Y-88955595D01*
X40759071Y-89003214D01*
X40711452Y-88955595D01*
X40663833Y-88860357D01*
X40663833Y-88622261D01*
X40711452Y-88527023D01*
X40759071Y-88479404D01*
X40854310Y-88431785D01*
X41092405Y-88431785D01*
X41187643Y-88479404D01*
X41235262Y-88527023D01*
X41282881Y-88622261D01*
X41282881Y-88860357D01*
X41235262Y-88955595D01*
X41187643Y-89003214D01*
X42552881Y-89384166D02*
X42076690Y-89717500D01*
X42552881Y-89955595D02*
X41552881Y-89955595D01*
X41552881Y-89574642D01*
X41600500Y-89479404D01*
X41648119Y-89431785D01*
X41743357Y-89384166D01*
X41886214Y-89384166D01*
X41981452Y-89431785D01*
X42029071Y-89479404D01*
X42076690Y-89574642D01*
X42076690Y-89955595D01*
X41886214Y-88527023D02*
X42552881Y-88527023D01*
X41505262Y-88765119D02*
X42219548Y-89003214D01*
X42219548Y-88384166D01*
X43822881Y-89384166D02*
X43346690Y-89717500D01*
X43822881Y-89955595D02*
X42822881Y-89955595D01*
X42822881Y-89574642D01*
X42870500Y-89479404D01*
X42918119Y-89431785D01*
X43013357Y-89384166D01*
X43156214Y-89384166D01*
X43251452Y-89431785D01*
X43299071Y-89479404D01*
X43346690Y-89574642D01*
X43346690Y-89955595D01*
X42822881Y-89050833D02*
X42822881Y-88431785D01*
X43203833Y-88765119D01*
X43203833Y-88622261D01*
X43251452Y-88527023D01*
X43299071Y-88479404D01*
X43394310Y-88431785D01*
X43632405Y-88431785D01*
X43727643Y-88479404D01*
X43775262Y-88527023D01*
X43822881Y-88622261D01*
X43822881Y-88907976D01*
X43775262Y-89003214D01*
X43727643Y-89050833D01*
X58999381Y-88304666D02*
X58523190Y-88638000D01*
X58999381Y-88876095D02*
X57999381Y-88876095D01*
X57999381Y-88495142D01*
X58047000Y-88399904D01*
X58094619Y-88352285D01*
X58189857Y-88304666D01*
X58332714Y-88304666D01*
X58427952Y-88352285D01*
X58475571Y-88399904D01*
X58523190Y-88495142D01*
X58523190Y-88876095D01*
X58094619Y-87923714D02*
X58047000Y-87876095D01*
X57999381Y-87780857D01*
X57999381Y-87542761D01*
X58047000Y-87447523D01*
X58094619Y-87399904D01*
X58189857Y-87352285D01*
X58285095Y-87352285D01*
X58427952Y-87399904D01*
X58999381Y-87971333D01*
X58999381Y-87352285D01*
X60269381Y-87415666D02*
X59793190Y-87749000D01*
X60269381Y-87987095D02*
X59269381Y-87987095D01*
X59269381Y-87606142D01*
X59317000Y-87510904D01*
X59364619Y-87463285D01*
X59459857Y-87415666D01*
X59602714Y-87415666D01*
X59697952Y-87463285D01*
X59745571Y-87510904D01*
X59793190Y-87606142D01*
X59793190Y-87987095D01*
X60269381Y-86463285D02*
X60269381Y-87034714D01*
X60269381Y-86749000D02*
X59269381Y-86749000D01*
X59412238Y-86844238D01*
X59507476Y-86939476D01*
X59555095Y-87034714D01*
X52617619Y-100107738D02*
X52570000Y-100202976D01*
X52474762Y-100298214D01*
X52331905Y-100441071D01*
X52284286Y-100536310D01*
X52284286Y-100631548D01*
X52522381Y-100583929D02*
X52474762Y-100679167D01*
X52379524Y-100774405D01*
X52189048Y-100822024D01*
X51855714Y-100822024D01*
X51665238Y-100774405D01*
X51570000Y-100679167D01*
X51522381Y-100583929D01*
X51522381Y-100393452D01*
X51570000Y-100298214D01*
X51665238Y-100202976D01*
X51855714Y-100155357D01*
X52189048Y-100155357D01*
X52379524Y-100202976D01*
X52474762Y-100298214D01*
X52522381Y-100393452D01*
X52522381Y-100583929D01*
X52522381Y-99202976D02*
X52522381Y-99774405D01*
X52522381Y-99488691D02*
X51522381Y-99488691D01*
X51665238Y-99583929D01*
X51760476Y-99679167D01*
X51808095Y-99774405D01*
X63698381Y-70588095D02*
X62698381Y-70588095D01*
X62698381Y-70207142D01*
X62746000Y-70111904D01*
X62793619Y-70064285D01*
X62888857Y-70016666D01*
X63031714Y-70016666D01*
X63126952Y-70064285D01*
X63174571Y-70111904D01*
X63222190Y-70207142D01*
X63222190Y-70588095D01*
X62698381Y-69159523D02*
X62698381Y-69350000D01*
X62746000Y-69445238D01*
X62793619Y-69492857D01*
X62936476Y-69588095D01*
X63126952Y-69635714D01*
X63507905Y-69635714D01*
X63603143Y-69588095D01*
X63650762Y-69540476D01*
X63698381Y-69445238D01*
X63698381Y-69254761D01*
X63650762Y-69159523D01*
X63603143Y-69111904D01*
X63507905Y-69064285D01*
X63269810Y-69064285D01*
X63174571Y-69111904D01*
X63126952Y-69159523D01*
X63079333Y-69254761D01*
X63079333Y-69445238D01*
X63126952Y-69540476D01*
X63174571Y-69588095D01*
X63269810Y-69635714D01*
X28011381Y-82716595D02*
X27011381Y-82716595D01*
X27011381Y-82335642D01*
X27059000Y-82240404D01*
X27106619Y-82192785D01*
X27201857Y-82145166D01*
X27344714Y-82145166D01*
X27439952Y-82192785D01*
X27487571Y-82240404D01*
X27535190Y-82335642D01*
X27535190Y-82716595D01*
X27011381Y-81240404D02*
X27011381Y-81716595D01*
X27487571Y-81764214D01*
X27439952Y-81716595D01*
X27392333Y-81621357D01*
X27392333Y-81383261D01*
X27439952Y-81288023D01*
X27487571Y-81240404D01*
X27582810Y-81192785D01*
X27820905Y-81192785D01*
X27916143Y-81240404D01*
X27963762Y-81288023D01*
X28011381Y-81383261D01*
X28011381Y-81621357D01*
X27963762Y-81716595D01*
X27916143Y-81764214D01*
X59761381Y-82716595D02*
X58761381Y-82716595D01*
X58761381Y-82335642D01*
X58809000Y-82240404D01*
X58856619Y-82192785D01*
X58951857Y-82145166D01*
X59094714Y-82145166D01*
X59189952Y-82192785D01*
X59237571Y-82240404D01*
X59285190Y-82335642D01*
X59285190Y-82716595D01*
X59094714Y-81288023D02*
X59761381Y-81288023D01*
X58713762Y-81526119D02*
X59428048Y-81764214D01*
X59428048Y-81145166D01*
X77438690Y-83192881D02*
X77438690Y-82192881D01*
X78010119Y-83192881D01*
X78010119Y-82192881D01*
X79057738Y-83192881D02*
X78724404Y-82716690D01*
X78486309Y-83192881D02*
X78486309Y-82192881D01*
X78867262Y-82192881D01*
X78962500Y-82240500D01*
X79010119Y-82288119D01*
X79057738Y-82383357D01*
X79057738Y-82526214D01*
X79010119Y-82621452D01*
X78962500Y-82669071D01*
X78867262Y-82716690D01*
X78486309Y-82716690D01*
X79819643Y-82669071D02*
X79486309Y-82669071D01*
X79486309Y-83192881D02*
X79486309Y-82192881D01*
X79962500Y-82192881D01*
X80295833Y-82288119D02*
X80343452Y-82240500D01*
X80438690Y-82192881D01*
X80676786Y-82192881D01*
X80772024Y-82240500D01*
X80819643Y-82288119D01*
X80867262Y-82383357D01*
X80867262Y-82478595D01*
X80819643Y-82621452D01*
X80248214Y-83192881D01*
X80867262Y-83192881D01*
X81724405Y-82526214D02*
X81724405Y-83192881D01*
X81486309Y-82145262D02*
X81248214Y-82859548D01*
X81867262Y-82859548D01*
X82724405Y-83192881D02*
X82248214Y-83192881D01*
X82248214Y-82192881D01*
X83248214Y-82192881D02*
X83343453Y-82192881D01*
X83438691Y-82240500D01*
X83486310Y-82288119D01*
X83533929Y-82383357D01*
X83581548Y-82573833D01*
X83581548Y-82811929D01*
X83533929Y-83002405D01*
X83486310Y-83097643D01*
X83438691Y-83145262D01*
X83343453Y-83192881D01*
X83248214Y-83192881D01*
X83152976Y-83145262D01*
X83105357Y-83097643D01*
X83057738Y-83002405D01*
X83010119Y-82811929D01*
X83010119Y-82573833D01*
X83057738Y-82383357D01*
X83105357Y-82288119D01*
X83152976Y-82240500D01*
X83248214Y-82192881D01*
X84533929Y-83192881D02*
X83962500Y-83192881D01*
X84248214Y-83192881D02*
X84248214Y-82192881D01*
X84152976Y-82335738D01*
X84057738Y-82430976D01*
X83962500Y-82478595D01*
X44648381Y-105068595D02*
X43648381Y-105068595D01*
X43648381Y-104687642D01*
X43696000Y-104592404D01*
X43743619Y-104544785D01*
X43838857Y-104497166D01*
X43981714Y-104497166D01*
X44076952Y-104544785D01*
X44124571Y-104592404D01*
X44172190Y-104687642D01*
X44172190Y-105068595D01*
X43648381Y-104163833D02*
X43648381Y-103544785D01*
X44029333Y-103878119D01*
X44029333Y-103735261D01*
X44076952Y-103640023D01*
X44124571Y-103592404D01*
X44219810Y-103544785D01*
X44457905Y-103544785D01*
X44553143Y-103592404D01*
X44600762Y-103640023D01*
X44648381Y-103735261D01*
X44648381Y-104020976D01*
X44600762Y-104116214D01*
X44553143Y-104163833D01*
X47688786Y-106180000D02*
X47593548Y-106132381D01*
X47450691Y-106132381D01*
X47307833Y-106180000D01*
X47212595Y-106275238D01*
X47164976Y-106370476D01*
X47117357Y-106560952D01*
X47117357Y-106703810D01*
X47164976Y-106894286D01*
X47212595Y-106989524D01*
X47307833Y-107084762D01*
X47450691Y-107132381D01*
X47545929Y-107132381D01*
X47688786Y-107084762D01*
X47736405Y-107037143D01*
X47736405Y-106703810D01*
X47545929Y-106703810D01*
X49260215Y-106608571D02*
X49403072Y-106656190D01*
X49450691Y-106703810D01*
X49498310Y-106799048D01*
X49498310Y-106941905D01*
X49450691Y-107037143D01*
X49403072Y-107084762D01*
X49307834Y-107132381D01*
X48926881Y-107132381D01*
X48926881Y-106132381D01*
X49260215Y-106132381D01*
X49355453Y-106180000D01*
X49403072Y-106227619D01*
X49450691Y-106322857D01*
X49450691Y-106418095D01*
X49403072Y-106513333D01*
X49355453Y-106560952D01*
X49260215Y-106608571D01*
X48926881Y-106608571D01*
X50545929Y-106132381D02*
X50879262Y-107132381D01*
X51212596Y-106132381D01*
X51974501Y-107084762D02*
X51879263Y-107132381D01*
X51688786Y-107132381D01*
X51593548Y-107084762D01*
X51545929Y-107037143D01*
X51498310Y-106941905D01*
X51498310Y-106656190D01*
X51545929Y-106560952D01*
X51593548Y-106513333D01*
X51688786Y-106465714D01*
X51879263Y-106465714D01*
X51974501Y-106513333D01*
X52831644Y-107084762D02*
X52736406Y-107132381D01*
X52545929Y-107132381D01*
X52450691Y-107084762D01*
X52403072Y-107037143D01*
X52355453Y-106941905D01*
X52355453Y-106656190D01*
X52403072Y-106560952D01*
X52450691Y-106513333D01*
X52545929Y-106465714D01*
X52736406Y-106465714D01*
X52831644Y-106513333D01*
X50334905Y-84960881D02*
X50334905Y-83960881D01*
X50715858Y-83960881D01*
X50811096Y-84008500D01*
X50858715Y-84056119D01*
X50906334Y-84151357D01*
X50906334Y-84294214D01*
X50858715Y-84389452D01*
X50811096Y-84437071D01*
X50715858Y-84484690D01*
X50334905Y-84484690D01*
X51858715Y-84960881D02*
X51287286Y-84960881D01*
X51573000Y-84960881D02*
X51573000Y-83960881D01*
X51477762Y-84103738D01*
X51382524Y-84198976D01*
X51287286Y-84246595D01*
X44684905Y-71570405D02*
X44227762Y-71570405D01*
X44456333Y-71570405D02*
X44456333Y-70770405D01*
X44380143Y-70884690D01*
X44303952Y-70960881D01*
X44227762Y-70998976D01*
X45446810Y-71570405D02*
X44989667Y-71570405D01*
X45218238Y-71570405D02*
X45218238Y-70770405D01*
X45142048Y-70884690D01*
X45065857Y-70960881D01*
X44989667Y-70998976D01*
X45751572Y-70846595D02*
X45789667Y-70808500D01*
X45865858Y-70770405D01*
X46056334Y-70770405D01*
X46132524Y-70808500D01*
X46170620Y-70846595D01*
X46208715Y-70922786D01*
X46208715Y-70998976D01*
X46170620Y-71113262D01*
X45713477Y-71570405D01*
X46208715Y-71570405D01*
X46780144Y-70770405D02*
X46780144Y-71341833D01*
X46742048Y-71456119D01*
X46665858Y-71532310D01*
X46551572Y-71570405D01*
X46475382Y-71570405D01*
X46449191Y-72820405D02*
X45992048Y-72820405D01*
X46220619Y-72820405D02*
X46220619Y-72020405D01*
X46144429Y-72134690D01*
X46068238Y-72210881D01*
X45992048Y-72248976D01*
X47211096Y-72820405D02*
X46753953Y-72820405D01*
X46982524Y-72820405D02*
X46982524Y-72020405D01*
X46906334Y-72134690D01*
X46830143Y-72210881D01*
X46753953Y-72248976D01*
X47515858Y-72096595D02*
X47553953Y-72058500D01*
X47630144Y-72020405D01*
X47820620Y-72020405D01*
X47896810Y-72058500D01*
X47934906Y-72096595D01*
X47973001Y-72172786D01*
X47973001Y-72248976D01*
X47934906Y-72363262D01*
X47477763Y-72820405D01*
X47973001Y-72820405D01*
X48315858Y-72820405D02*
X48315858Y-72020405D01*
X27598643Y-93360762D02*
X27646262Y-93408381D01*
X27693881Y-93551238D01*
X27693881Y-93646476D01*
X27646262Y-93789334D01*
X27551024Y-93884572D01*
X27455786Y-93932191D01*
X27265310Y-93979810D01*
X27122452Y-93979810D01*
X26931976Y-93932191D01*
X26836738Y-93884572D01*
X26741500Y-93789334D01*
X26693881Y-93646476D01*
X26693881Y-93551238D01*
X26741500Y-93408381D01*
X26789119Y-93360762D01*
X27693881Y-92932191D02*
X26693881Y-92932191D01*
X27693881Y-92503619D02*
X27170071Y-92503619D01*
X27074833Y-92551238D01*
X27027214Y-92646476D01*
X27027214Y-92789334D01*
X27074833Y-92884572D01*
X27122452Y-92932191D01*
X27693881Y-92027429D02*
X27027214Y-92027429D01*
X27217690Y-92027429D02*
X27122452Y-91979810D01*
X27074833Y-91932191D01*
X27027214Y-91836953D01*
X27027214Y-91741714D01*
X27027214Y-90979809D02*
X27836738Y-90979809D01*
X27931976Y-91027428D01*
X27979595Y-91075047D01*
X28027214Y-91170286D01*
X28027214Y-91313143D01*
X27979595Y-91408381D01*
X27646262Y-90979809D02*
X27693881Y-91075047D01*
X27693881Y-91265524D01*
X27646262Y-91360762D01*
X27598643Y-91408381D01*
X27503405Y-91456000D01*
X27217690Y-91456000D01*
X27122452Y-91408381D01*
X27074833Y-91360762D01*
X27027214Y-91265524D01*
X27027214Y-91075047D01*
X27074833Y-90979809D01*
X50776143Y-94178357D02*
X50823762Y-94225976D01*
X50871381Y-94368833D01*
X50871381Y-94464071D01*
X50823762Y-94606929D01*
X50728524Y-94702167D01*
X50633286Y-94749786D01*
X50442810Y-94797405D01*
X50299952Y-94797405D01*
X50109476Y-94749786D01*
X50014238Y-94702167D01*
X49919000Y-94606929D01*
X49871381Y-94464071D01*
X49871381Y-94368833D01*
X49919000Y-94225976D01*
X49966619Y-94178357D01*
X50871381Y-93225976D02*
X50871381Y-93797405D01*
X50871381Y-93511691D02*
X49871381Y-93511691D01*
X50014238Y-93606929D01*
X50109476Y-93702167D01*
X50157095Y-93797405D01*
X49871381Y-92892643D02*
X49871381Y-92273595D01*
X50252333Y-92606929D01*
X50252333Y-92464071D01*
X50299952Y-92368833D01*
X50347571Y-92321214D01*
X50442810Y-92273595D01*
X50680905Y-92273595D01*
X50776143Y-92321214D01*
X50823762Y-92368833D01*
X50871381Y-92464071D01*
X50871381Y-92749786D01*
X50823762Y-92845024D01*
X50776143Y-92892643D01*
X44426143Y-94813357D02*
X44473762Y-94860976D01*
X44521381Y-95003833D01*
X44521381Y-95099071D01*
X44473762Y-95241929D01*
X44378524Y-95337167D01*
X44283286Y-95384786D01*
X44092810Y-95432405D01*
X43949952Y-95432405D01*
X43759476Y-95384786D01*
X43664238Y-95337167D01*
X43569000Y-95241929D01*
X43521381Y-95099071D01*
X43521381Y-95003833D01*
X43569000Y-94860976D01*
X43616619Y-94813357D01*
X44521381Y-93860976D02*
X44521381Y-94432405D01*
X44521381Y-94146691D02*
X43521381Y-94146691D01*
X43664238Y-94241929D01*
X43759476Y-94337167D01*
X43807095Y-94432405D01*
X43616619Y-93480024D02*
X43569000Y-93432405D01*
X43521381Y-93337167D01*
X43521381Y-93099071D01*
X43569000Y-93003833D01*
X43616619Y-92956214D01*
X43711857Y-92908595D01*
X43807095Y-92908595D01*
X43949952Y-92956214D01*
X44521381Y-93527643D01*
X44521381Y-92908595D01*
X52379643Y-97321643D02*
X52332024Y-97369262D01*
X52189167Y-97416881D01*
X52093929Y-97416881D01*
X51951071Y-97369262D01*
X51855833Y-97274024D01*
X51808214Y-97178786D01*
X51760595Y-96988310D01*
X51760595Y-96845452D01*
X51808214Y-96654976D01*
X51855833Y-96559738D01*
X51951071Y-96464500D01*
X52093929Y-96416881D01*
X52189167Y-96416881D01*
X52332024Y-96464500D01*
X52379643Y-96512119D01*
X53332024Y-97416881D02*
X52760595Y-97416881D01*
X53046309Y-97416881D02*
X53046309Y-96416881D01*
X52951071Y-96559738D01*
X52855833Y-96654976D01*
X52760595Y-96702595D01*
X54284405Y-97416881D02*
X53712976Y-97416881D01*
X53998690Y-97416881D02*
X53998690Y-96416881D01*
X53903452Y-96559738D01*
X53808214Y-96654976D01*
X53712976Y-96702595D01*
X40235143Y-98337666D02*
X40282762Y-98385285D01*
X40330381Y-98528142D01*
X40330381Y-98623380D01*
X40282762Y-98766238D01*
X40187524Y-98861476D01*
X40092286Y-98909095D01*
X39901810Y-98956714D01*
X39758952Y-98956714D01*
X39568476Y-98909095D01*
X39473238Y-98861476D01*
X39378000Y-98766238D01*
X39330381Y-98623380D01*
X39330381Y-98528142D01*
X39378000Y-98385285D01*
X39425619Y-98337666D01*
X40330381Y-97385285D02*
X40330381Y-97956714D01*
X40330381Y-97671000D02*
X39330381Y-97671000D01*
X39473238Y-97766238D01*
X39568476Y-97861476D01*
X39616095Y-97956714D01*
X40298643Y-53633666D02*
X40346262Y-53681285D01*
X40393881Y-53824142D01*
X40393881Y-53919380D01*
X40346262Y-54062238D01*
X40251024Y-54157476D01*
X40155786Y-54205095D01*
X39965310Y-54252714D01*
X39822452Y-54252714D01*
X39631976Y-54205095D01*
X39536738Y-54157476D01*
X39441500Y-54062238D01*
X39393881Y-53919380D01*
X39393881Y-53824142D01*
X39441500Y-53681285D01*
X39489119Y-53633666D01*
X40393881Y-52681285D02*
X40393881Y-53252714D01*
X40393881Y-52967000D02*
X39393881Y-52967000D01*
X39536738Y-53062238D01*
X39631976Y-53157476D01*
X39679595Y-53252714D01*
X52443143Y-52617643D02*
X52395524Y-52665262D01*
X52252667Y-52712881D01*
X52157429Y-52712881D01*
X52014571Y-52665262D01*
X51919333Y-52570024D01*
X51871714Y-52474786D01*
X51824095Y-52284310D01*
X51824095Y-52141452D01*
X51871714Y-51950976D01*
X51919333Y-51855738D01*
X52014571Y-51760500D01*
X52157429Y-51712881D01*
X52252667Y-51712881D01*
X52395524Y-51760500D01*
X52443143Y-51808119D01*
X53395524Y-52712881D02*
X52824095Y-52712881D01*
X53109809Y-52712881D02*
X53109809Y-51712881D01*
X53014571Y-51855738D01*
X52919333Y-51950976D01*
X52824095Y-51998595D01*
X54347905Y-52712881D02*
X53776476Y-52712881D01*
X54062190Y-52712881D02*
X54062190Y-51712881D01*
X53966952Y-51855738D01*
X53871714Y-51950976D01*
X53776476Y-51998595D01*
X44489643Y-50109357D02*
X44537262Y-50156976D01*
X44584881Y-50299833D01*
X44584881Y-50395071D01*
X44537262Y-50537929D01*
X44442024Y-50633167D01*
X44346786Y-50680786D01*
X44156310Y-50728405D01*
X44013452Y-50728405D01*
X43822976Y-50680786D01*
X43727738Y-50633167D01*
X43632500Y-50537929D01*
X43584881Y-50395071D01*
X43584881Y-50299833D01*
X43632500Y-50156976D01*
X43680119Y-50109357D01*
X44584881Y-49156976D02*
X44584881Y-49728405D01*
X44584881Y-49442691D02*
X43584881Y-49442691D01*
X43727738Y-49537929D01*
X43822976Y-49633167D01*
X43870595Y-49728405D01*
X43680119Y-48776024D02*
X43632500Y-48728405D01*
X43584881Y-48633167D01*
X43584881Y-48395071D01*
X43632500Y-48299833D01*
X43680119Y-48252214D01*
X43775357Y-48204595D01*
X43870595Y-48204595D01*
X44013452Y-48252214D01*
X44584881Y-48823643D01*
X44584881Y-48204595D01*
X50839643Y-49474357D02*
X50887262Y-49521976D01*
X50934881Y-49664833D01*
X50934881Y-49760071D01*
X50887262Y-49902929D01*
X50792024Y-49998167D01*
X50696786Y-50045786D01*
X50506310Y-50093405D01*
X50363452Y-50093405D01*
X50172976Y-50045786D01*
X50077738Y-49998167D01*
X49982500Y-49902929D01*
X49934881Y-49760071D01*
X49934881Y-49664833D01*
X49982500Y-49521976D01*
X50030119Y-49474357D01*
X50934881Y-48521976D02*
X50934881Y-49093405D01*
X50934881Y-48807691D02*
X49934881Y-48807691D01*
X50077738Y-48902929D01*
X50172976Y-48998167D01*
X50220595Y-49093405D01*
X49934881Y-48188643D02*
X49934881Y-47569595D01*
X50315833Y-47902929D01*
X50315833Y-47760071D01*
X50363452Y-47664833D01*
X50411071Y-47617214D01*
X50506310Y-47569595D01*
X50744405Y-47569595D01*
X50839643Y-47617214D01*
X50887262Y-47664833D01*
X50934881Y-47760071D01*
X50934881Y-48045786D01*
X50887262Y-48141024D01*
X50839643Y-48188643D01*
X27662143Y-48656762D02*
X27709762Y-48704381D01*
X27757381Y-48847238D01*
X27757381Y-48942476D01*
X27709762Y-49085334D01*
X27614524Y-49180572D01*
X27519286Y-49228191D01*
X27328810Y-49275810D01*
X27185952Y-49275810D01*
X26995476Y-49228191D01*
X26900238Y-49180572D01*
X26805000Y-49085334D01*
X26757381Y-48942476D01*
X26757381Y-48847238D01*
X26805000Y-48704381D01*
X26852619Y-48656762D01*
X27757381Y-48228191D02*
X26757381Y-48228191D01*
X27757381Y-47799619D02*
X27233571Y-47799619D01*
X27138333Y-47847238D01*
X27090714Y-47942476D01*
X27090714Y-48085334D01*
X27138333Y-48180572D01*
X27185952Y-48228191D01*
X27757381Y-47323429D02*
X27090714Y-47323429D01*
X27281190Y-47323429D02*
X27185952Y-47275810D01*
X27138333Y-47228191D01*
X27090714Y-47132953D01*
X27090714Y-47037714D01*
X27090714Y-46275809D02*
X27900238Y-46275809D01*
X27995476Y-46323428D01*
X28043095Y-46371047D01*
X28090714Y-46466286D01*
X28090714Y-46609143D01*
X28043095Y-46704381D01*
X27709762Y-46275809D02*
X27757381Y-46371047D01*
X27757381Y-46561524D01*
X27709762Y-46656762D01*
X27662143Y-46704381D01*
X27566905Y-46752000D01*
X27281190Y-46752000D01*
X27185952Y-46704381D01*
X27138333Y-46656762D01*
X27090714Y-46561524D01*
X27090714Y-46371047D01*
X27138333Y-46275809D01*
X50398405Y-40256881D02*
X50398405Y-39256881D01*
X50779358Y-39256881D01*
X50874596Y-39304500D01*
X50922215Y-39352119D01*
X50969834Y-39447357D01*
X50969834Y-39590214D01*
X50922215Y-39685452D01*
X50874596Y-39733071D01*
X50779358Y-39780690D01*
X50398405Y-39780690D01*
X51922215Y-40256881D02*
X51350786Y-40256881D01*
X51636500Y-40256881D02*
X51636500Y-39256881D01*
X51541262Y-39399738D01*
X51446024Y-39494976D01*
X51350786Y-39542595D01*
X44748405Y-26866405D02*
X44291262Y-26866405D01*
X44519833Y-26866405D02*
X44519833Y-26066405D01*
X44443643Y-26180690D01*
X44367452Y-26256881D01*
X44291262Y-26294976D01*
X45510310Y-26866405D02*
X45053167Y-26866405D01*
X45281738Y-26866405D02*
X45281738Y-26066405D01*
X45205548Y-26180690D01*
X45129357Y-26256881D01*
X45053167Y-26294976D01*
X45815072Y-26142595D02*
X45853167Y-26104500D01*
X45929358Y-26066405D01*
X46119834Y-26066405D01*
X46196024Y-26104500D01*
X46234120Y-26142595D01*
X46272215Y-26218786D01*
X46272215Y-26294976D01*
X46234120Y-26409262D01*
X45776977Y-26866405D01*
X46272215Y-26866405D01*
X46843644Y-26066405D02*
X46843644Y-26637833D01*
X46805548Y-26752119D01*
X46729358Y-26828310D01*
X46615072Y-26866405D01*
X46538882Y-26866405D01*
X46512691Y-28116405D02*
X46055548Y-28116405D01*
X46284119Y-28116405D02*
X46284119Y-27316405D01*
X46207929Y-27430690D01*
X46131738Y-27506881D01*
X46055548Y-27544976D01*
X47274596Y-28116405D02*
X46817453Y-28116405D01*
X47046024Y-28116405D02*
X47046024Y-27316405D01*
X46969834Y-27430690D01*
X46893643Y-27506881D01*
X46817453Y-27544976D01*
X47579358Y-27392595D02*
X47617453Y-27354500D01*
X47693644Y-27316405D01*
X47884120Y-27316405D01*
X47960310Y-27354500D01*
X47998406Y-27392595D01*
X48036501Y-27468786D01*
X48036501Y-27544976D01*
X47998406Y-27659262D01*
X47541263Y-28116405D01*
X48036501Y-28116405D01*
X48379358Y-28116405D02*
X48379358Y-27316405D01*
X29578881Y-48172595D02*
X28578881Y-48172595D01*
X28578881Y-47791642D01*
X28626500Y-47696404D01*
X28674119Y-47648785D01*
X28769357Y-47601166D01*
X28912214Y-47601166D01*
X29007452Y-47648785D01*
X29055071Y-47696404D01*
X29102690Y-47791642D01*
X29102690Y-48172595D01*
X28674119Y-47220214D02*
X28626500Y-47172595D01*
X28578881Y-47077357D01*
X28578881Y-46839261D01*
X28626500Y-46744023D01*
X28674119Y-46696404D01*
X28769357Y-46648785D01*
X28864595Y-46648785D01*
X29007452Y-46696404D01*
X29578881Y-47267833D01*
X29578881Y-46648785D01*
X44711881Y-60364595D02*
X43711881Y-60364595D01*
X43711881Y-59983642D01*
X43759500Y-59888404D01*
X43807119Y-59840785D01*
X43902357Y-59793166D01*
X44045214Y-59793166D01*
X44140452Y-59840785D01*
X44188071Y-59888404D01*
X44235690Y-59983642D01*
X44235690Y-60364595D01*
X43711881Y-59459833D02*
X43711881Y-58840785D01*
X44092833Y-59174119D01*
X44092833Y-59031261D01*
X44140452Y-58936023D01*
X44188071Y-58888404D01*
X44283310Y-58840785D01*
X44521405Y-58840785D01*
X44616643Y-58888404D01*
X44664262Y-58936023D01*
X44711881Y-59031261D01*
X44711881Y-59316976D01*
X44664262Y-59412214D01*
X44616643Y-59459833D01*
X47752286Y-61476000D02*
X47657048Y-61428381D01*
X47514191Y-61428381D01*
X47371333Y-61476000D01*
X47276095Y-61571238D01*
X47228476Y-61666476D01*
X47180857Y-61856952D01*
X47180857Y-61999810D01*
X47228476Y-62190286D01*
X47276095Y-62285524D01*
X47371333Y-62380762D01*
X47514191Y-62428381D01*
X47609429Y-62428381D01*
X47752286Y-62380762D01*
X47799905Y-62333143D01*
X47799905Y-61999810D01*
X47609429Y-61999810D01*
X49323715Y-61904571D02*
X49466572Y-61952190D01*
X49514191Y-61999810D01*
X49561810Y-62095048D01*
X49561810Y-62237905D01*
X49514191Y-62333143D01*
X49466572Y-62380762D01*
X49371334Y-62428381D01*
X48990381Y-62428381D01*
X48990381Y-61428381D01*
X49323715Y-61428381D01*
X49418953Y-61476000D01*
X49466572Y-61523619D01*
X49514191Y-61618857D01*
X49514191Y-61714095D01*
X49466572Y-61809333D01*
X49418953Y-61856952D01*
X49323715Y-61904571D01*
X48990381Y-61904571D01*
X50609429Y-61428381D02*
X50942762Y-62428381D01*
X51276096Y-61428381D01*
X52038001Y-62380762D02*
X51942763Y-62428381D01*
X51752286Y-62428381D01*
X51657048Y-62380762D01*
X51609429Y-62333143D01*
X51561810Y-62237905D01*
X51561810Y-61952190D01*
X51609429Y-61856952D01*
X51657048Y-61809333D01*
X51752286Y-61761714D01*
X51942763Y-61761714D01*
X52038001Y-61809333D01*
X52895144Y-62380762D02*
X52799906Y-62428381D01*
X52609429Y-62428381D01*
X52514191Y-62380762D01*
X52466572Y-62333143D01*
X52418953Y-62237905D01*
X52418953Y-61952190D01*
X52466572Y-61856952D01*
X52514191Y-61809333D01*
X52609429Y-61761714D01*
X52799906Y-61761714D01*
X52895144Y-61809333D01*
X59824881Y-38012595D02*
X58824881Y-38012595D01*
X58824881Y-37631642D01*
X58872500Y-37536404D01*
X58920119Y-37488785D01*
X59015357Y-37441166D01*
X59158214Y-37441166D01*
X59253452Y-37488785D01*
X59301071Y-37536404D01*
X59348690Y-37631642D01*
X59348690Y-38012595D01*
X59158214Y-36584023D02*
X59824881Y-36584023D01*
X58777262Y-36822119D02*
X59491548Y-37060214D01*
X59491548Y-36441166D01*
X77502190Y-38488881D02*
X77502190Y-37488881D01*
X78073619Y-38488881D01*
X78073619Y-37488881D01*
X79121238Y-38488881D02*
X78787904Y-38012690D01*
X78549809Y-38488881D02*
X78549809Y-37488881D01*
X78930762Y-37488881D01*
X79026000Y-37536500D01*
X79073619Y-37584119D01*
X79121238Y-37679357D01*
X79121238Y-37822214D01*
X79073619Y-37917452D01*
X79026000Y-37965071D01*
X78930762Y-38012690D01*
X78549809Y-38012690D01*
X79883143Y-37965071D02*
X79549809Y-37965071D01*
X79549809Y-38488881D02*
X79549809Y-37488881D01*
X80026000Y-37488881D01*
X80359333Y-37584119D02*
X80406952Y-37536500D01*
X80502190Y-37488881D01*
X80740286Y-37488881D01*
X80835524Y-37536500D01*
X80883143Y-37584119D01*
X80930762Y-37679357D01*
X80930762Y-37774595D01*
X80883143Y-37917452D01*
X80311714Y-38488881D01*
X80930762Y-38488881D01*
X81787905Y-37822214D02*
X81787905Y-38488881D01*
X81549809Y-37441262D02*
X81311714Y-38155548D01*
X81930762Y-38155548D01*
X82787905Y-38488881D02*
X82311714Y-38488881D01*
X82311714Y-37488881D01*
X83311714Y-37488881D02*
X83406953Y-37488881D01*
X83502191Y-37536500D01*
X83549810Y-37584119D01*
X83597429Y-37679357D01*
X83645048Y-37869833D01*
X83645048Y-38107929D01*
X83597429Y-38298405D01*
X83549810Y-38393643D01*
X83502191Y-38441262D01*
X83406953Y-38488881D01*
X83311714Y-38488881D01*
X83216476Y-38441262D01*
X83168857Y-38393643D01*
X83121238Y-38298405D01*
X83073619Y-38107929D01*
X83073619Y-37869833D01*
X83121238Y-37679357D01*
X83168857Y-37584119D01*
X83216476Y-37536500D01*
X83311714Y-37488881D01*
X84597429Y-38488881D02*
X84026000Y-38488881D01*
X84311714Y-38488881D02*
X84311714Y-37488881D01*
X84216476Y-37631738D01*
X84121238Y-37726976D01*
X84026000Y-37774595D01*
X28074881Y-38012595D02*
X27074881Y-38012595D01*
X27074881Y-37631642D01*
X27122500Y-37536404D01*
X27170119Y-37488785D01*
X27265357Y-37441166D01*
X27408214Y-37441166D01*
X27503452Y-37488785D01*
X27551071Y-37536404D01*
X27598690Y-37631642D01*
X27598690Y-38012595D01*
X27074881Y-36536404D02*
X27074881Y-37012595D01*
X27551071Y-37060214D01*
X27503452Y-37012595D01*
X27455833Y-36917357D01*
X27455833Y-36679261D01*
X27503452Y-36584023D01*
X27551071Y-36536404D01*
X27646310Y-36488785D01*
X27884405Y-36488785D01*
X27979643Y-36536404D01*
X28027262Y-36584023D01*
X28074881Y-36679261D01*
X28074881Y-36917357D01*
X28027262Y-37012595D01*
X27979643Y-37060214D01*
X63761881Y-25884095D02*
X62761881Y-25884095D01*
X62761881Y-25503142D01*
X62809500Y-25407904D01*
X62857119Y-25360285D01*
X62952357Y-25312666D01*
X63095214Y-25312666D01*
X63190452Y-25360285D01*
X63238071Y-25407904D01*
X63285690Y-25503142D01*
X63285690Y-25884095D01*
X62761881Y-24455523D02*
X62761881Y-24646000D01*
X62809500Y-24741238D01*
X62857119Y-24788857D01*
X62999976Y-24884095D01*
X63190452Y-24931714D01*
X63571405Y-24931714D01*
X63666643Y-24884095D01*
X63714262Y-24836476D01*
X63761881Y-24741238D01*
X63761881Y-24550761D01*
X63714262Y-24455523D01*
X63666643Y-24407904D01*
X63571405Y-24360285D01*
X63333310Y-24360285D01*
X63238071Y-24407904D01*
X63190452Y-24455523D01*
X63142833Y-24550761D01*
X63142833Y-24741238D01*
X63190452Y-24836476D01*
X63238071Y-24884095D01*
X63333310Y-24931714D01*
X52681119Y-55403738D02*
X52633500Y-55498976D01*
X52538262Y-55594214D01*
X52395405Y-55737071D01*
X52347786Y-55832310D01*
X52347786Y-55927548D01*
X52585881Y-55879929D02*
X52538262Y-55975167D01*
X52443024Y-56070405D01*
X52252548Y-56118024D01*
X51919214Y-56118024D01*
X51728738Y-56070405D01*
X51633500Y-55975167D01*
X51585881Y-55879929D01*
X51585881Y-55689452D01*
X51633500Y-55594214D01*
X51728738Y-55498976D01*
X51919214Y-55451357D01*
X52252548Y-55451357D01*
X52443024Y-55498976D01*
X52538262Y-55594214D01*
X52585881Y-55689452D01*
X52585881Y-55879929D01*
X52585881Y-54498976D02*
X52585881Y-55070405D01*
X52585881Y-54784691D02*
X51585881Y-54784691D01*
X51728738Y-54879929D01*
X51823976Y-54975167D01*
X51871595Y-55070405D01*
X60332881Y-42711666D02*
X59856690Y-43045000D01*
X60332881Y-43283095D02*
X59332881Y-43283095D01*
X59332881Y-42902142D01*
X59380500Y-42806904D01*
X59428119Y-42759285D01*
X59523357Y-42711666D01*
X59666214Y-42711666D01*
X59761452Y-42759285D01*
X59809071Y-42806904D01*
X59856690Y-42902142D01*
X59856690Y-43283095D01*
X60332881Y-41759285D02*
X60332881Y-42330714D01*
X60332881Y-42045000D02*
X59332881Y-42045000D01*
X59475738Y-42140238D01*
X59570976Y-42235476D01*
X59618595Y-42330714D01*
X59062881Y-43600666D02*
X58586690Y-43934000D01*
X59062881Y-44172095D02*
X58062881Y-44172095D01*
X58062881Y-43791142D01*
X58110500Y-43695904D01*
X58158119Y-43648285D01*
X58253357Y-43600666D01*
X58396214Y-43600666D01*
X58491452Y-43648285D01*
X58539071Y-43695904D01*
X58586690Y-43791142D01*
X58586690Y-44172095D01*
X58158119Y-43219714D02*
X58110500Y-43172095D01*
X58062881Y-43076857D01*
X58062881Y-42838761D01*
X58110500Y-42743523D01*
X58158119Y-42695904D01*
X58253357Y-42648285D01*
X58348595Y-42648285D01*
X58491452Y-42695904D01*
X59062881Y-43267333D01*
X59062881Y-42648285D01*
X43886381Y-44680166D02*
X43410190Y-45013500D01*
X43886381Y-45251595D02*
X42886381Y-45251595D01*
X42886381Y-44870642D01*
X42934000Y-44775404D01*
X42981619Y-44727785D01*
X43076857Y-44680166D01*
X43219714Y-44680166D01*
X43314952Y-44727785D01*
X43362571Y-44775404D01*
X43410190Y-44870642D01*
X43410190Y-45251595D01*
X42886381Y-44346833D02*
X42886381Y-43727785D01*
X43267333Y-44061119D01*
X43267333Y-43918261D01*
X43314952Y-43823023D01*
X43362571Y-43775404D01*
X43457810Y-43727785D01*
X43695905Y-43727785D01*
X43791143Y-43775404D01*
X43838762Y-43823023D01*
X43886381Y-43918261D01*
X43886381Y-44203976D01*
X43838762Y-44299214D01*
X43791143Y-44346833D01*
X42616381Y-44680166D02*
X42140190Y-45013500D01*
X42616381Y-45251595D02*
X41616381Y-45251595D01*
X41616381Y-44870642D01*
X41664000Y-44775404D01*
X41711619Y-44727785D01*
X41806857Y-44680166D01*
X41949714Y-44680166D01*
X42044952Y-44727785D01*
X42092571Y-44775404D01*
X42140190Y-44870642D01*
X42140190Y-45251595D01*
X41949714Y-43823023D02*
X42616381Y-43823023D01*
X41568762Y-44061119D02*
X42283048Y-44299214D01*
X42283048Y-43680166D01*
X41346381Y-44680166D02*
X40870190Y-45013500D01*
X41346381Y-45251595D02*
X40346381Y-45251595D01*
X40346381Y-44870642D01*
X40394000Y-44775404D01*
X40441619Y-44727785D01*
X40536857Y-44680166D01*
X40679714Y-44680166D01*
X40774952Y-44727785D01*
X40822571Y-44775404D01*
X40870190Y-44870642D01*
X40870190Y-45251595D01*
X40346381Y-43775404D02*
X40346381Y-44251595D01*
X40822571Y-44299214D01*
X40774952Y-44251595D01*
X40727333Y-44156357D01*
X40727333Y-43918261D01*
X40774952Y-43823023D01*
X40822571Y-43775404D01*
X40917810Y-43727785D01*
X41155905Y-43727785D01*
X41251143Y-43775404D01*
X41298762Y-43823023D01*
X41346381Y-43918261D01*
X41346381Y-44156357D01*
X41298762Y-44251595D01*
X41251143Y-44299214D01*
X31948381Y-45251666D02*
X31472190Y-45585000D01*
X31948381Y-45823095D02*
X30948381Y-45823095D01*
X30948381Y-45442142D01*
X30996000Y-45346904D01*
X31043619Y-45299285D01*
X31138857Y-45251666D01*
X31281714Y-45251666D01*
X31376952Y-45299285D01*
X31424571Y-45346904D01*
X31472190Y-45442142D01*
X31472190Y-45823095D01*
X31948381Y-44775476D02*
X31948381Y-44585000D01*
X31900762Y-44489761D01*
X31853143Y-44442142D01*
X31710286Y-44346904D01*
X31519810Y-44299285D01*
X31138857Y-44299285D01*
X31043619Y-44346904D01*
X30996000Y-44394523D01*
X30948381Y-44489761D01*
X30948381Y-44680238D01*
X30996000Y-44775476D01*
X31043619Y-44823095D01*
X31138857Y-44870714D01*
X31376952Y-44870714D01*
X31472190Y-44823095D01*
X31519810Y-44775476D01*
X31567429Y-44680238D01*
X31567429Y-44489761D01*
X31519810Y-44394523D01*
X31472190Y-44346904D01*
X31376952Y-44299285D01*
X45783595Y-55395881D02*
X45783595Y-56205405D01*
X45831214Y-56300643D01*
X45878833Y-56348262D01*
X45974071Y-56395881D01*
X46164548Y-56395881D01*
X46259786Y-56348262D01*
X46307405Y-56300643D01*
X46355024Y-56205405D01*
X46355024Y-55395881D01*
X47259786Y-55729214D02*
X47259786Y-56395881D01*
X47021690Y-55348262D02*
X46783595Y-56062548D01*
X47402643Y-56062548D01*
X43831214Y-57665881D02*
X43831214Y-56665881D01*
X44402643Y-57665881D01*
X44402643Y-56665881D01*
X45450262Y-57570643D02*
X45402643Y-57618262D01*
X45259786Y-57665881D01*
X45164548Y-57665881D01*
X45021690Y-57618262D01*
X44926452Y-57523024D01*
X44878833Y-57427786D01*
X44831214Y-57237310D01*
X44831214Y-57094452D01*
X44878833Y-56903976D01*
X44926452Y-56808738D01*
X45021690Y-56713500D01*
X45164548Y-56665881D01*
X45259786Y-56665881D01*
X45402643Y-56713500D01*
X45450262Y-56761119D01*
X45878833Y-57665881D02*
X45878833Y-56665881D01*
X46259786Y-56665881D01*
X46355024Y-56713500D01*
X46402643Y-56761119D01*
X46450262Y-56856357D01*
X46450262Y-56999214D01*
X46402643Y-57094452D01*
X46355024Y-57142071D01*
X46259786Y-57189690D01*
X45878833Y-57189690D01*
X47355024Y-56665881D02*
X46878833Y-56665881D01*
X46831214Y-57142071D01*
X46878833Y-57094452D01*
X46974071Y-57046833D01*
X47212167Y-57046833D01*
X47307405Y-57094452D01*
X47355024Y-57142071D01*
X47402643Y-57237310D01*
X47402643Y-57475405D01*
X47355024Y-57570643D01*
X47307405Y-57618262D01*
X47212167Y-57665881D01*
X46974071Y-57665881D01*
X46878833Y-57618262D01*
X46831214Y-57570643D01*
X48307405Y-56665881D02*
X47831214Y-56665881D01*
X47783595Y-57142071D01*
X47831214Y-57094452D01*
X47926452Y-57046833D01*
X48164548Y-57046833D01*
X48259786Y-57094452D01*
X48307405Y-57142071D01*
X48355024Y-57237310D01*
X48355024Y-57475405D01*
X48307405Y-57570643D01*
X48259786Y-57618262D01*
X48164548Y-57665881D01*
X47926452Y-57665881D01*
X47831214Y-57618262D01*
X47783595Y-57570643D01*
X49307405Y-57665881D02*
X48735976Y-57665881D01*
X49021690Y-57665881D02*
X49021690Y-56665881D01*
X48926452Y-56808738D01*
X48831214Y-56903976D01*
X48735976Y-56951595D01*
X39790690Y-34194691D02*
X40266881Y-34194691D01*
X39266881Y-34528024D02*
X39790690Y-34194691D01*
X39266881Y-33861357D01*
X40266881Y-33004214D02*
X40266881Y-33575643D01*
X40266881Y-33289929D02*
X39266881Y-33289929D01*
X39409738Y-33385167D01*
X39504976Y-33480405D01*
X39552595Y-33575643D01*
X55721309Y-54649690D02*
X55721309Y-55125881D01*
X55387976Y-54125881D02*
X55721309Y-54649690D01*
X56054643Y-54125881D01*
X56340357Y-54221119D02*
X56387976Y-54173500D01*
X56483214Y-54125881D01*
X56721310Y-54125881D01*
X56816548Y-54173500D01*
X56864167Y-54221119D01*
X56911786Y-54316357D01*
X56911786Y-54411595D01*
X56864167Y-54554452D01*
X56292738Y-55125881D01*
X56911786Y-55125881D01*
X27820881Y-53204905D02*
X26820881Y-53204905D01*
X26820881Y-52966810D01*
X26868500Y-52823952D01*
X26963738Y-52728714D01*
X27058976Y-52681095D01*
X27249452Y-52633476D01*
X27392310Y-52633476D01*
X27582786Y-52681095D01*
X27678024Y-52728714D01*
X27773262Y-52823952D01*
X27820881Y-52966810D01*
X27820881Y-53204905D01*
X27297071Y-51871571D02*
X27344690Y-51728714D01*
X27392310Y-51681095D01*
X27487548Y-51633476D01*
X27630405Y-51633476D01*
X27725643Y-51681095D01*
X27773262Y-51728714D01*
X27820881Y-51823952D01*
X27820881Y-52204905D01*
X26820881Y-52204905D01*
X26820881Y-51871571D01*
X26868500Y-51776333D01*
X26916119Y-51728714D01*
X27011357Y-51681095D01*
X27106595Y-51681095D01*
X27201833Y-51728714D01*
X27249452Y-51776333D01*
X27297071Y-51871571D01*
X27297071Y-52204905D01*
X26868500Y-50681095D02*
X26820881Y-50776333D01*
X26820881Y-50919190D01*
X26868500Y-51062048D01*
X26963738Y-51157286D01*
X27058976Y-51204905D01*
X27249452Y-51252524D01*
X27392310Y-51252524D01*
X27582786Y-51204905D01*
X27678024Y-51157286D01*
X27773262Y-51062048D01*
X27820881Y-50919190D01*
X27820881Y-50823952D01*
X27773262Y-50681095D01*
X27725643Y-50633476D01*
X27392310Y-50633476D01*
X27392310Y-50823952D01*
X32075381Y-55189357D02*
X31599190Y-55522691D01*
X32075381Y-55760786D02*
X31075381Y-55760786D01*
X31075381Y-55379833D01*
X31123000Y-55284595D01*
X31170619Y-55236976D01*
X31265857Y-55189357D01*
X31408714Y-55189357D01*
X31503952Y-55236976D01*
X31551571Y-55284595D01*
X31599190Y-55379833D01*
X31599190Y-55760786D01*
X32075381Y-54236976D02*
X32075381Y-54808405D01*
X32075381Y-54522691D02*
X31075381Y-54522691D01*
X31218238Y-54617929D01*
X31313476Y-54713167D01*
X31361095Y-54808405D01*
X32075381Y-53284595D02*
X32075381Y-53856024D01*
X32075381Y-53570310D02*
X31075381Y-53570310D01*
X31218238Y-53665548D01*
X31313476Y-53760786D01*
X31361095Y-53856024D01*
X55602286Y-62682381D02*
X55126095Y-62682381D01*
X55126095Y-61682381D01*
X55935619Y-62682381D02*
X55935619Y-62015714D01*
X55935619Y-61682381D02*
X55888000Y-61730000D01*
X55935619Y-61777619D01*
X55983238Y-61730000D01*
X55935619Y-61682381D01*
X55935619Y-61777619D01*
X56411809Y-62015714D02*
X56411809Y-62682381D01*
X56411809Y-62110952D02*
X56459428Y-62063333D01*
X56554666Y-62015714D01*
X56697524Y-62015714D01*
X56792762Y-62063333D01*
X56840381Y-62158571D01*
X56840381Y-62682381D01*
X57316571Y-62682381D02*
X57316571Y-61682381D01*
X57411809Y-62301429D02*
X57697524Y-62682381D01*
X57697524Y-62015714D02*
X57316571Y-62396667D01*
X62682381Y-47005667D02*
X61682381Y-47005667D01*
X62396667Y-46672333D01*
X61682381Y-46339000D01*
X62682381Y-46339000D01*
X62682381Y-45719953D02*
X62634762Y-45815191D01*
X62587143Y-45862810D01*
X62491905Y-45910429D01*
X62206190Y-45910429D01*
X62110952Y-45862810D01*
X62063333Y-45815191D01*
X62015714Y-45719953D01*
X62015714Y-45577095D01*
X62063333Y-45481857D01*
X62110952Y-45434238D01*
X62206190Y-45386619D01*
X62491905Y-45386619D01*
X62587143Y-45434238D01*
X62634762Y-45481857D01*
X62682381Y-45577095D01*
X62682381Y-45719953D01*
X62682381Y-44529476D02*
X61682381Y-44529476D01*
X62634762Y-44529476D02*
X62682381Y-44624714D01*
X62682381Y-44815191D01*
X62634762Y-44910429D01*
X62587143Y-44958048D01*
X62491905Y-45005667D01*
X62206190Y-45005667D01*
X62110952Y-44958048D01*
X62063333Y-44910429D01*
X62015714Y-44815191D01*
X62015714Y-44624714D01*
X62063333Y-44529476D01*
X62634762Y-43672333D02*
X62682381Y-43767571D01*
X62682381Y-43958048D01*
X62634762Y-44053286D01*
X62539524Y-44100905D01*
X62158571Y-44100905D01*
X62063333Y-44053286D01*
X62015714Y-43958048D01*
X62015714Y-43767571D01*
X62063333Y-43672333D01*
X62158571Y-43624714D01*
X62253810Y-43624714D01*
X62349048Y-44100905D01*
D14*
X63037357Y-50092429D02*
X63037357Y-51326143D01*
X63109929Y-51471286D01*
X63182500Y-51543857D01*
X63327643Y-51616429D01*
X63617929Y-51616429D01*
X63763071Y-51543857D01*
X63835643Y-51471286D01*
X63908214Y-51326143D01*
X63908214Y-50092429D01*
X65359642Y-50092429D02*
X64633928Y-50092429D01*
X64561357Y-50818143D01*
X64633928Y-50745571D01*
X64779071Y-50673000D01*
X65141928Y-50673000D01*
X65287071Y-50745571D01*
X65359642Y-50818143D01*
X65432214Y-50963286D01*
X65432214Y-51326143D01*
X65359642Y-51471286D01*
X65287071Y-51543857D01*
X65141928Y-51616429D01*
X64779071Y-51616429D01*
X64633928Y-51543857D01*
X64561357Y-51471286D01*
X67400714Y-51616429D02*
X67400714Y-50092429D01*
X67400714Y-50818143D02*
X68271571Y-50818143D01*
X68271571Y-51616429D02*
X68271571Y-50092429D01*
X69868142Y-51471286D02*
X69795571Y-51543857D01*
X69577857Y-51616429D01*
X69432714Y-51616429D01*
X69214999Y-51543857D01*
X69069857Y-51398714D01*
X68997285Y-51253571D01*
X68924714Y-50963286D01*
X68924714Y-50745571D01*
X68997285Y-50455286D01*
X69069857Y-50310143D01*
X69214999Y-50165000D01*
X69432714Y-50092429D01*
X69577857Y-50092429D01*
X69795571Y-50165000D01*
X69868142Y-50237571D01*
X70521285Y-51035857D02*
X71682428Y-51035857D01*
X72698428Y-50092429D02*
X72843571Y-50092429D01*
X72988714Y-50165000D01*
X73061285Y-50237571D01*
X73133856Y-50382714D01*
X73206428Y-50673000D01*
X73206428Y-51035857D01*
X73133856Y-51326143D01*
X73061285Y-51471286D01*
X72988714Y-51543857D01*
X72843571Y-51616429D01*
X72698428Y-51616429D01*
X72553285Y-51543857D01*
X72480714Y-51471286D01*
X72408142Y-51326143D01*
X72335571Y-51035857D01*
X72335571Y-50673000D01*
X72408142Y-50382714D01*
X72480714Y-50237571D01*
X72553285Y-50165000D01*
X72698428Y-50092429D01*
X74585285Y-50092429D02*
X73859571Y-50092429D01*
X73787000Y-50818143D01*
X73859571Y-50745571D01*
X74004714Y-50673000D01*
X74367571Y-50673000D01*
X74512714Y-50745571D01*
X74585285Y-50818143D01*
X74657857Y-50963286D01*
X74657857Y-51326143D01*
X74585285Y-51471286D01*
X74512714Y-51543857D01*
X74367571Y-51616429D01*
X74004714Y-51616429D01*
X73859571Y-51543857D01*
X73787000Y-51471286D01*
M02*
