G04 #@! TF.FileFunction,Soldermask,Top*
%FSLAX46Y46*%
G04 Gerber Fmt 4.6, Leading zero omitted, Abs format (unit mm)*
G04 Created by KiCad (PCBNEW 4.0.4-stable) date Mon Oct 10 23:42:20 2016*
%MOMM*%
%LPD*%
G01*
G04 APERTURE LIST*
%ADD10C,0.100000*%
%ADD11R,1.238880X1.739260*%
%ADD12R,1.637660X1.238880*%
%ADD13R,1.739260X1.238880*%
%ADD14R,1.238880X1.238880*%
%ADD15R,2.072000X2.072000*%
%ADD16O,2.072000X2.072000*%
%ADD17R,1.340000X0.740000*%
%ADD18C,4.104000*%
%ADD19C,1.040760*%
%ADD20C,1.541140*%
%ADD21R,1.100000X0.690000*%
%ADD22R,0.840100X0.840100*%
%ADD23R,1.767200X2.072000*%
%ADD24O,1.767200X2.072000*%
%ADD25C,1.564000*%
%ADD26C,2.740020*%
%ADD27R,1.564000X1.564000*%
%ADD28C,3.040000*%
%ADD29R,0.700400X1.614800*%
%ADD30R,1.208400X2.224400*%
%ADD31R,2.270000X1.840000*%
%ADD32R,1.840000X2.270000*%
%ADD33R,1.040000X1.290000*%
G04 APERTURE END LIST*
D10*
D11*
X64470280Y-93322140D03*
X62969140Y-93322140D03*
X61470540Y-93322140D03*
X65968880Y-93322140D03*
X67470020Y-93322140D03*
X68968620Y-93322140D03*
X70469760Y-93322140D03*
X71968360Y-93322140D03*
X73469500Y-93322140D03*
X74970640Y-93322140D03*
X76469240Y-93322140D03*
X77970380Y-93322140D03*
X79468980Y-93322140D03*
D12*
X59773820Y-94571820D03*
D13*
X59819540Y-96075500D03*
X59819540Y-97574100D03*
X59819540Y-99072700D03*
X59819540Y-100571300D03*
X59819540Y-102069900D03*
X59819540Y-103568500D03*
D12*
X59771280Y-105067100D03*
D11*
X61470540Y-106321860D03*
X62969140Y-106321860D03*
X64472820Y-106321860D03*
X65968880Y-106321860D03*
X67470020Y-106321860D03*
X68968620Y-106321860D03*
X70469760Y-106321860D03*
X71968360Y-106321860D03*
X73469500Y-106321860D03*
X74970640Y-106321860D03*
X76469240Y-106321860D03*
X77970380Y-106321860D03*
X79468980Y-106321860D03*
D14*
X60642500Y-91092020D03*
X60642500Y-88993980D03*
X57373520Y-105283000D03*
X55275480Y-105283000D03*
D15*
X34163000Y-96710500D03*
D16*
X36703000Y-96710500D03*
D17*
X31115000Y-97660500D03*
X31115000Y-95760500D03*
D14*
X28829000Y-95661480D03*
X28829000Y-97759520D03*
D18*
X90678000Y-104203500D03*
X40433000Y-104738500D03*
X90433000Y-69738500D03*
X40433000Y-69738500D03*
D19*
X56883300Y-93535500D03*
X55384700Y-93535500D03*
D20*
X39751000Y-75981560D03*
X39751000Y-80863440D03*
D21*
X47582000Y-99311500D03*
X47582000Y-98361500D03*
X47582000Y-97411500D03*
X45382000Y-97411500D03*
X45382000Y-99311500D03*
D17*
X31115000Y-91188500D03*
X31115000Y-93088500D03*
X44958000Y-91564500D03*
X44958000Y-89664500D03*
X47244000Y-91564500D03*
X47244000Y-89664500D03*
X49530000Y-91564500D03*
X49530000Y-89664500D03*
X55626000Y-91564500D03*
X55626000Y-89664500D03*
X57912000Y-91564500D03*
X57912000Y-89664500D03*
D22*
X49481740Y-97411500D03*
X49481740Y-99311500D03*
X51480720Y-98361500D03*
D23*
X65913000Y-69850000D03*
D24*
X68453000Y-69850000D03*
X70993000Y-69850000D03*
X73533000Y-69850000D03*
X76073000Y-69850000D03*
X78613000Y-69850000D03*
X81153000Y-69850000D03*
X83693000Y-69850000D03*
D25*
X34163000Y-80708500D03*
X34163000Y-83248500D03*
X32164020Y-83248500D03*
X32164020Y-80708500D03*
D26*
X29464000Y-75979020D03*
X29464000Y-87977980D03*
D27*
X64643000Y-78168500D03*
D25*
X67183000Y-78168500D03*
X64643000Y-80708500D03*
X67183000Y-80708500D03*
X64643000Y-83248500D03*
X67183000Y-83248500D03*
X64643000Y-85788500D03*
X67183000Y-85788500D03*
D28*
X97183000Y-84478500D03*
X97183000Y-79478500D03*
X99683000Y-81978500D03*
X102183000Y-79478500D03*
X102183000Y-84478500D03*
D23*
X46863000Y-104330500D03*
D24*
X49403000Y-104330500D03*
X51943000Y-104330500D03*
D23*
X34163000Y-92138500D03*
D24*
X36703000Y-92138500D03*
X39243000Y-92138500D03*
X41783000Y-92138500D03*
D29*
X46228000Y-87058500D03*
X48437800Y-87058500D03*
X49530000Y-87058500D03*
X50622200Y-87058500D03*
X51739800Y-87058500D03*
X52832000Y-87058500D03*
X53924200Y-87058500D03*
X55041800Y-87058500D03*
X56134000Y-87058500D03*
X47355760Y-87058500D03*
D30*
X44831000Y-79184500D03*
X58293000Y-79184500D03*
D29*
X57226200Y-87058500D03*
D30*
X58473000Y-76158500D03*
X43123000Y-76158500D03*
X58473000Y-85958500D03*
X43123000Y-85958500D03*
D14*
X28829000Y-91216480D03*
X28829000Y-93314520D03*
D31*
X52578000Y-92836500D03*
X52578000Y-89916500D03*
D32*
X48767500Y-94361000D03*
X45847500Y-94361000D03*
D33*
X53578000Y-95313500D03*
X51578000Y-95313500D03*
D31*
X42164000Y-99631000D03*
X42164000Y-96711000D03*
X42227500Y-54927000D03*
X42227500Y-52007000D03*
D33*
X53641500Y-50609500D03*
X51641500Y-50609500D03*
D32*
X48831000Y-49657000D03*
X45911000Y-49657000D03*
D31*
X52641500Y-48132500D03*
X52641500Y-45212500D03*
D14*
X28892500Y-46512480D03*
X28892500Y-48610520D03*
D29*
X46291500Y-42354500D03*
X48501300Y-42354500D03*
X49593500Y-42354500D03*
X50685700Y-42354500D03*
X51803300Y-42354500D03*
X52895500Y-42354500D03*
X53987700Y-42354500D03*
X55105300Y-42354500D03*
X56197500Y-42354500D03*
X47419260Y-42354500D03*
D30*
X44894500Y-34480500D03*
X58356500Y-34480500D03*
D29*
X57289700Y-42354500D03*
D30*
X58536500Y-31454500D03*
X43186500Y-31454500D03*
X58536500Y-41254500D03*
X43186500Y-41254500D03*
D23*
X34226500Y-47434500D03*
D24*
X36766500Y-47434500D03*
X39306500Y-47434500D03*
X41846500Y-47434500D03*
D23*
X46926500Y-59626500D03*
D24*
X49466500Y-59626500D03*
X52006500Y-59626500D03*
D27*
X64706500Y-33464500D03*
D25*
X67246500Y-33464500D03*
X64706500Y-36004500D03*
X67246500Y-36004500D03*
X64706500Y-38544500D03*
X67246500Y-38544500D03*
X64706500Y-41084500D03*
X67246500Y-41084500D03*
D28*
X97246500Y-39774500D03*
X97246500Y-34774500D03*
X99746500Y-37274500D03*
X102246500Y-34774500D03*
X102246500Y-39774500D03*
D25*
X34226500Y-36004500D03*
X34226500Y-38544500D03*
X32227520Y-38544500D03*
X32227520Y-36004500D03*
D26*
X29527500Y-31275020D03*
X29527500Y-43273980D03*
D23*
X65976500Y-25146000D03*
D24*
X68516500Y-25146000D03*
X71056500Y-25146000D03*
X73596500Y-25146000D03*
X76136500Y-25146000D03*
X78676500Y-25146000D03*
X81216500Y-25146000D03*
X83756500Y-25146000D03*
D22*
X49545240Y-52707500D03*
X49545240Y-54607500D03*
X51544220Y-53657500D03*
D17*
X57975500Y-46860500D03*
X57975500Y-44960500D03*
X55689500Y-46860500D03*
X55689500Y-44960500D03*
X49593500Y-46860500D03*
X49593500Y-44960500D03*
X47307500Y-46860500D03*
X47307500Y-44960500D03*
X45021500Y-46860500D03*
X45021500Y-44960500D03*
X31178500Y-46484500D03*
X31178500Y-48384500D03*
D21*
X47645500Y-54607500D03*
X47645500Y-53657500D03*
X47645500Y-52707500D03*
X45445500Y-52707500D03*
X45445500Y-54607500D03*
D20*
X39814500Y-31277560D03*
X39814500Y-36159440D03*
D19*
X56946800Y-48831500D03*
X55448200Y-48831500D03*
D18*
X40496500Y-25034500D03*
X90496500Y-25034500D03*
X40496500Y-60034500D03*
X90741500Y-59499500D03*
D14*
X28892500Y-50957480D03*
X28892500Y-53055520D03*
D17*
X31178500Y-52956500D03*
X31178500Y-51056500D03*
D15*
X34226500Y-52006500D03*
D16*
X36766500Y-52006500D03*
D14*
X57437020Y-60579000D03*
X55338980Y-60579000D03*
X60706000Y-46388020D03*
X60706000Y-44289980D03*
D11*
X64533780Y-48618140D03*
X63032640Y-48618140D03*
X61534040Y-48618140D03*
X66032380Y-48618140D03*
X67533520Y-48618140D03*
X69032120Y-48618140D03*
X70533260Y-48618140D03*
X72031860Y-48618140D03*
X73533000Y-48618140D03*
X75034140Y-48618140D03*
X76532740Y-48618140D03*
X78033880Y-48618140D03*
X79532480Y-48618140D03*
D12*
X59837320Y-49867820D03*
D13*
X59883040Y-51371500D03*
X59883040Y-52870100D03*
X59883040Y-54368700D03*
X59883040Y-55867300D03*
X59883040Y-57365900D03*
X59883040Y-58864500D03*
D12*
X59834780Y-60363100D03*
D11*
X61534040Y-61617860D03*
X63032640Y-61617860D03*
X64536320Y-61617860D03*
X66032380Y-61617860D03*
X67533520Y-61617860D03*
X69032120Y-61617860D03*
X70533260Y-61617860D03*
X72031860Y-61617860D03*
X73533000Y-61617860D03*
X75034140Y-61617860D03*
X76532740Y-61617860D03*
X78033880Y-61617860D03*
X79532480Y-61617860D03*
M02*
