G04 #@! TF.FileFunction,Legend,Bot*
%FSLAX46Y46*%
G04 Gerber Fmt 4.6, Leading zero omitted, Abs format (unit mm)*
G04 Created by KiCad (PCBNEW 4.0.4-stable) date Mon Oct 10 23:42:20 2016*
%MOMM*%
%LPD*%
G01*
G04 APERTURE LIST*
%ADD10C,0.100000*%
%ADD11C,0.300000*%
%ADD12C,0.010000*%
%ADD13C,0.150000*%
G04 APERTURE END LIST*
D10*
D11*
X91668857Y-85239714D02*
X91740286Y-85311143D01*
X91954572Y-85382571D01*
X92097429Y-85382571D01*
X92311714Y-85311143D01*
X92454572Y-85168286D01*
X92526000Y-85025429D01*
X92597429Y-84739714D01*
X92597429Y-84525429D01*
X92526000Y-84239714D01*
X92454572Y-84096857D01*
X92311714Y-83954000D01*
X92097429Y-83882571D01*
X91954572Y-83882571D01*
X91740286Y-83954000D01*
X91668857Y-84025429D01*
X90383143Y-85382571D02*
X90383143Y-84596857D01*
X90454572Y-84454000D01*
X90597429Y-84382571D01*
X90883143Y-84382571D01*
X91026000Y-84454000D01*
X90383143Y-85311143D02*
X90526000Y-85382571D01*
X90883143Y-85382571D01*
X91026000Y-85311143D01*
X91097429Y-85168286D01*
X91097429Y-85025429D01*
X91026000Y-84882571D01*
X90883143Y-84811143D01*
X90526000Y-84811143D01*
X90383143Y-84739714D01*
X89026000Y-84382571D02*
X89026000Y-85382571D01*
X89668857Y-84382571D02*
X89668857Y-85168286D01*
X89597429Y-85311143D01*
X89454571Y-85382571D01*
X89240286Y-85382571D01*
X89097429Y-85311143D01*
X89026000Y-85239714D01*
X88383143Y-85311143D02*
X88240286Y-85382571D01*
X87954571Y-85382571D01*
X87811714Y-85311143D01*
X87740286Y-85168286D01*
X87740286Y-85096857D01*
X87811714Y-84954000D01*
X87954571Y-84882571D01*
X88168857Y-84882571D01*
X88311714Y-84811143D01*
X88383143Y-84668286D01*
X88383143Y-84596857D01*
X88311714Y-84454000D01*
X88168857Y-84382571D01*
X87954571Y-84382571D01*
X87811714Y-84454000D01*
X87311714Y-84382571D02*
X86740285Y-84382571D01*
X87097428Y-83882571D02*
X87097428Y-85168286D01*
X87026000Y-85311143D01*
X86883142Y-85382571D01*
X86740285Y-85382571D01*
X86240285Y-85382571D02*
X86240285Y-84382571D01*
X86240285Y-83882571D02*
X86311714Y-83954000D01*
X86240285Y-84025429D01*
X86168857Y-83954000D01*
X86240285Y-83882571D01*
X86240285Y-84025429D01*
X84883142Y-85311143D02*
X85025999Y-85382571D01*
X85311713Y-85382571D01*
X85454571Y-85311143D01*
X85525999Y-85239714D01*
X85597428Y-85096857D01*
X85597428Y-84668286D01*
X85525999Y-84525429D01*
X85454571Y-84454000D01*
X85311713Y-84382571D01*
X85025999Y-84382571D01*
X84883142Y-84454000D01*
X83097428Y-85382571D02*
X83097428Y-83882571D01*
X83097428Y-84596857D02*
X82240285Y-84596857D01*
X82240285Y-85382571D02*
X82240285Y-83882571D01*
X80954571Y-85311143D02*
X81097428Y-85382571D01*
X81383142Y-85382571D01*
X81525999Y-85311143D01*
X81597428Y-85168286D01*
X81597428Y-84596857D01*
X81525999Y-84454000D01*
X81383142Y-84382571D01*
X81097428Y-84382571D01*
X80954571Y-84454000D01*
X80883142Y-84596857D01*
X80883142Y-84739714D01*
X81597428Y-84882571D01*
X79597428Y-85382571D02*
X79597428Y-84596857D01*
X79668857Y-84454000D01*
X79811714Y-84382571D01*
X80097428Y-84382571D01*
X80240285Y-84454000D01*
X79597428Y-85311143D02*
X79740285Y-85382571D01*
X80097428Y-85382571D01*
X80240285Y-85311143D01*
X80311714Y-85168286D01*
X80311714Y-85025429D01*
X80240285Y-84882571D01*
X80097428Y-84811143D01*
X79740285Y-84811143D01*
X79597428Y-84739714D01*
X78240285Y-85382571D02*
X78240285Y-83882571D01*
X78240285Y-85311143D02*
X78383142Y-85382571D01*
X78668856Y-85382571D01*
X78811714Y-85311143D01*
X78883142Y-85239714D01*
X78954571Y-85096857D01*
X78954571Y-84668286D01*
X78883142Y-84525429D01*
X78811714Y-84454000D01*
X78668856Y-84382571D01*
X78383142Y-84382571D01*
X78240285Y-84454000D01*
X76454571Y-85311143D02*
X76240285Y-85382571D01*
X75883142Y-85382571D01*
X75740285Y-85311143D01*
X75668856Y-85239714D01*
X75597428Y-85096857D01*
X75597428Y-84954000D01*
X75668856Y-84811143D01*
X75740285Y-84739714D01*
X75883142Y-84668286D01*
X76168856Y-84596857D01*
X76311714Y-84525429D01*
X76383142Y-84454000D01*
X76454571Y-84311143D01*
X76454571Y-84168286D01*
X76383142Y-84025429D01*
X76311714Y-83954000D01*
X76168856Y-83882571D01*
X75811714Y-83882571D01*
X75597428Y-83954000D01*
X74383143Y-85311143D02*
X74526000Y-85382571D01*
X74811714Y-85382571D01*
X74954571Y-85311143D01*
X75026000Y-85168286D01*
X75026000Y-84596857D01*
X74954571Y-84454000D01*
X74811714Y-84382571D01*
X74526000Y-84382571D01*
X74383143Y-84454000D01*
X74311714Y-84596857D01*
X74311714Y-84739714D01*
X75026000Y-84882571D01*
X73668857Y-84382571D02*
X73668857Y-85382571D01*
X73668857Y-84525429D02*
X73597429Y-84454000D01*
X73454571Y-84382571D01*
X73240286Y-84382571D01*
X73097429Y-84454000D01*
X73026000Y-84596857D01*
X73026000Y-85382571D01*
X72383143Y-85311143D02*
X72240286Y-85382571D01*
X71954571Y-85382571D01*
X71811714Y-85311143D01*
X71740286Y-85168286D01*
X71740286Y-85096857D01*
X71811714Y-84954000D01*
X71954571Y-84882571D01*
X72168857Y-84882571D01*
X72311714Y-84811143D01*
X72383143Y-84668286D01*
X72383143Y-84596857D01*
X72311714Y-84454000D01*
X72168857Y-84382571D01*
X71954571Y-84382571D01*
X71811714Y-84454000D01*
X70883142Y-85382571D02*
X71026000Y-85311143D01*
X71097428Y-85239714D01*
X71168857Y-85096857D01*
X71168857Y-84668286D01*
X71097428Y-84525429D01*
X71026000Y-84454000D01*
X70883142Y-84382571D01*
X70668857Y-84382571D01*
X70526000Y-84454000D01*
X70454571Y-84525429D01*
X70383142Y-84668286D01*
X70383142Y-85096857D01*
X70454571Y-85239714D01*
X70526000Y-85311143D01*
X70668857Y-85382571D01*
X70883142Y-85382571D01*
X69740285Y-85382571D02*
X69740285Y-84382571D01*
X69740285Y-84668286D02*
X69668857Y-84525429D01*
X69597428Y-84454000D01*
X69454571Y-84382571D01*
X69311714Y-84382571D01*
X93061713Y-86932571D02*
X92490284Y-86932571D01*
X92847427Y-87932571D02*
X92847427Y-86646857D01*
X92775999Y-86504000D01*
X92633141Y-86432571D01*
X92490284Y-86432571D01*
X91775998Y-87932571D02*
X91918856Y-87861143D01*
X91990284Y-87789714D01*
X92061713Y-87646857D01*
X92061713Y-87218286D01*
X91990284Y-87075429D01*
X91918856Y-87004000D01*
X91775998Y-86932571D01*
X91561713Y-86932571D01*
X91418856Y-87004000D01*
X91347427Y-87075429D01*
X91275998Y-87218286D01*
X91275998Y-87646857D01*
X91347427Y-87789714D01*
X91418856Y-87861143D01*
X91561713Y-87932571D01*
X91775998Y-87932571D01*
X90633141Y-87932571D02*
X90633141Y-86932571D01*
X90633141Y-87218286D02*
X90561713Y-87075429D01*
X90490284Y-87004000D01*
X90347427Y-86932571D01*
X90204570Y-86932571D01*
X87775999Y-86504000D02*
X87918856Y-86432571D01*
X88133142Y-86432571D01*
X88347427Y-86504000D01*
X88490285Y-86646857D01*
X88561713Y-86789714D01*
X88633142Y-87075429D01*
X88633142Y-87289714D01*
X88561713Y-87575429D01*
X88490285Y-87718286D01*
X88347427Y-87861143D01*
X88133142Y-87932571D01*
X87990285Y-87932571D01*
X87775999Y-87861143D01*
X87704570Y-87789714D01*
X87704570Y-87289714D01*
X87990285Y-87289714D01*
X86418856Y-86932571D02*
X86418856Y-87932571D01*
X86775999Y-86361143D02*
X87133142Y-87432571D01*
X86204570Y-87432571D01*
X85775999Y-86432571D02*
X84847428Y-86432571D01*
X85347428Y-87004000D01*
X85133142Y-87004000D01*
X84990285Y-87075429D01*
X84918856Y-87146857D01*
X84847428Y-87289714D01*
X84847428Y-87646857D01*
X84918856Y-87789714D01*
X84990285Y-87861143D01*
X85133142Y-87932571D01*
X85561714Y-87932571D01*
X85704571Y-87861143D01*
X85775999Y-87789714D01*
X83418857Y-87932571D02*
X84276000Y-87932571D01*
X83847428Y-87932571D02*
X83847428Y-86432571D01*
X83990285Y-86646857D01*
X84133143Y-86789714D01*
X84276000Y-86861143D01*
X81633143Y-87932571D02*
X81633143Y-86432571D01*
X81633143Y-87004000D02*
X81490286Y-86932571D01*
X81204572Y-86932571D01*
X81061715Y-87004000D01*
X80990286Y-87075429D01*
X80918857Y-87218286D01*
X80918857Y-87646857D01*
X80990286Y-87789714D01*
X81061715Y-87861143D01*
X81204572Y-87932571D01*
X81490286Y-87932571D01*
X81633143Y-87861143D01*
X80061714Y-87932571D02*
X80204572Y-87861143D01*
X80276000Y-87789714D01*
X80347429Y-87646857D01*
X80347429Y-87218286D01*
X80276000Y-87075429D01*
X80204572Y-87004000D01*
X80061714Y-86932571D01*
X79847429Y-86932571D01*
X79704572Y-87004000D01*
X79633143Y-87075429D01*
X79561714Y-87218286D01*
X79561714Y-87646857D01*
X79633143Y-87789714D01*
X79704572Y-87861143D01*
X79847429Y-87932571D01*
X80061714Y-87932571D01*
X79061714Y-87932571D02*
X78276000Y-86932571D01*
X79061714Y-86932571D02*
X78276000Y-87932571D01*
X76561714Y-87932571D02*
X76561714Y-86932571D01*
X76561714Y-87218286D02*
X76490286Y-87075429D01*
X76418857Y-87004000D01*
X76276000Y-86932571D01*
X76133143Y-86932571D01*
X75061715Y-87861143D02*
X75204572Y-87932571D01*
X75490286Y-87932571D01*
X75633143Y-87861143D01*
X75704572Y-87718286D01*
X75704572Y-87146857D01*
X75633143Y-87004000D01*
X75490286Y-86932571D01*
X75204572Y-86932571D01*
X75061715Y-87004000D01*
X74990286Y-87146857D01*
X74990286Y-87289714D01*
X75704572Y-87432571D01*
X74490286Y-86932571D02*
X74133143Y-87932571D01*
X73776001Y-86932571D01*
X71276001Y-87932571D02*
X72133144Y-87932571D01*
X71704572Y-87932571D02*
X71704572Y-86432571D01*
X71847429Y-86646857D01*
X71990287Y-86789714D01*
X72133144Y-86861143D01*
X70633144Y-87789714D02*
X70561716Y-87861143D01*
X70633144Y-87932571D01*
X70704573Y-87861143D01*
X70633144Y-87789714D01*
X70633144Y-87932571D01*
X69633144Y-86432571D02*
X69490287Y-86432571D01*
X69347430Y-86504000D01*
X69276001Y-86575429D01*
X69204572Y-86718286D01*
X69133144Y-87004000D01*
X69133144Y-87361143D01*
X69204572Y-87646857D01*
X69276001Y-87789714D01*
X69347430Y-87861143D01*
X69490287Y-87932571D01*
X69633144Y-87932571D01*
X69776001Y-87861143D01*
X69847430Y-87789714D01*
X69918858Y-87646857D01*
X69990287Y-87361143D01*
X69990287Y-87004000D01*
X69918858Y-86718286D01*
X69847430Y-86575429D01*
X69776001Y-86504000D01*
X69633144Y-86432571D01*
X91795857Y-40472214D02*
X91867286Y-40543643D01*
X92081572Y-40615071D01*
X92224429Y-40615071D01*
X92438714Y-40543643D01*
X92581572Y-40400786D01*
X92653000Y-40257929D01*
X92724429Y-39972214D01*
X92724429Y-39757929D01*
X92653000Y-39472214D01*
X92581572Y-39329357D01*
X92438714Y-39186500D01*
X92224429Y-39115071D01*
X92081572Y-39115071D01*
X91867286Y-39186500D01*
X91795857Y-39257929D01*
X90510143Y-40615071D02*
X90510143Y-39829357D01*
X90581572Y-39686500D01*
X90724429Y-39615071D01*
X91010143Y-39615071D01*
X91153000Y-39686500D01*
X90510143Y-40543643D02*
X90653000Y-40615071D01*
X91010143Y-40615071D01*
X91153000Y-40543643D01*
X91224429Y-40400786D01*
X91224429Y-40257929D01*
X91153000Y-40115071D01*
X91010143Y-40043643D01*
X90653000Y-40043643D01*
X90510143Y-39972214D01*
X89153000Y-39615071D02*
X89153000Y-40615071D01*
X89795857Y-39615071D02*
X89795857Y-40400786D01*
X89724429Y-40543643D01*
X89581571Y-40615071D01*
X89367286Y-40615071D01*
X89224429Y-40543643D01*
X89153000Y-40472214D01*
X88510143Y-40543643D02*
X88367286Y-40615071D01*
X88081571Y-40615071D01*
X87938714Y-40543643D01*
X87867286Y-40400786D01*
X87867286Y-40329357D01*
X87938714Y-40186500D01*
X88081571Y-40115071D01*
X88295857Y-40115071D01*
X88438714Y-40043643D01*
X88510143Y-39900786D01*
X88510143Y-39829357D01*
X88438714Y-39686500D01*
X88295857Y-39615071D01*
X88081571Y-39615071D01*
X87938714Y-39686500D01*
X87438714Y-39615071D02*
X86867285Y-39615071D01*
X87224428Y-39115071D02*
X87224428Y-40400786D01*
X87153000Y-40543643D01*
X87010142Y-40615071D01*
X86867285Y-40615071D01*
X86367285Y-40615071D02*
X86367285Y-39615071D01*
X86367285Y-39115071D02*
X86438714Y-39186500D01*
X86367285Y-39257929D01*
X86295857Y-39186500D01*
X86367285Y-39115071D01*
X86367285Y-39257929D01*
X85010142Y-40543643D02*
X85152999Y-40615071D01*
X85438713Y-40615071D01*
X85581571Y-40543643D01*
X85652999Y-40472214D01*
X85724428Y-40329357D01*
X85724428Y-39900786D01*
X85652999Y-39757929D01*
X85581571Y-39686500D01*
X85438713Y-39615071D01*
X85152999Y-39615071D01*
X85010142Y-39686500D01*
X83224428Y-40615071D02*
X83224428Y-39115071D01*
X83224428Y-39829357D02*
X82367285Y-39829357D01*
X82367285Y-40615071D02*
X82367285Y-39115071D01*
X81081571Y-40543643D02*
X81224428Y-40615071D01*
X81510142Y-40615071D01*
X81652999Y-40543643D01*
X81724428Y-40400786D01*
X81724428Y-39829357D01*
X81652999Y-39686500D01*
X81510142Y-39615071D01*
X81224428Y-39615071D01*
X81081571Y-39686500D01*
X81010142Y-39829357D01*
X81010142Y-39972214D01*
X81724428Y-40115071D01*
X79724428Y-40615071D02*
X79724428Y-39829357D01*
X79795857Y-39686500D01*
X79938714Y-39615071D01*
X80224428Y-39615071D01*
X80367285Y-39686500D01*
X79724428Y-40543643D02*
X79867285Y-40615071D01*
X80224428Y-40615071D01*
X80367285Y-40543643D01*
X80438714Y-40400786D01*
X80438714Y-40257929D01*
X80367285Y-40115071D01*
X80224428Y-40043643D01*
X79867285Y-40043643D01*
X79724428Y-39972214D01*
X78367285Y-40615071D02*
X78367285Y-39115071D01*
X78367285Y-40543643D02*
X78510142Y-40615071D01*
X78795856Y-40615071D01*
X78938714Y-40543643D01*
X79010142Y-40472214D01*
X79081571Y-40329357D01*
X79081571Y-39900786D01*
X79010142Y-39757929D01*
X78938714Y-39686500D01*
X78795856Y-39615071D01*
X78510142Y-39615071D01*
X78367285Y-39686500D01*
X76581571Y-40543643D02*
X76367285Y-40615071D01*
X76010142Y-40615071D01*
X75867285Y-40543643D01*
X75795856Y-40472214D01*
X75724428Y-40329357D01*
X75724428Y-40186500D01*
X75795856Y-40043643D01*
X75867285Y-39972214D01*
X76010142Y-39900786D01*
X76295856Y-39829357D01*
X76438714Y-39757929D01*
X76510142Y-39686500D01*
X76581571Y-39543643D01*
X76581571Y-39400786D01*
X76510142Y-39257929D01*
X76438714Y-39186500D01*
X76295856Y-39115071D01*
X75938714Y-39115071D01*
X75724428Y-39186500D01*
X74510143Y-40543643D02*
X74653000Y-40615071D01*
X74938714Y-40615071D01*
X75081571Y-40543643D01*
X75153000Y-40400786D01*
X75153000Y-39829357D01*
X75081571Y-39686500D01*
X74938714Y-39615071D01*
X74653000Y-39615071D01*
X74510143Y-39686500D01*
X74438714Y-39829357D01*
X74438714Y-39972214D01*
X75153000Y-40115071D01*
X73795857Y-39615071D02*
X73795857Y-40615071D01*
X73795857Y-39757929D02*
X73724429Y-39686500D01*
X73581571Y-39615071D01*
X73367286Y-39615071D01*
X73224429Y-39686500D01*
X73153000Y-39829357D01*
X73153000Y-40615071D01*
X72510143Y-40543643D02*
X72367286Y-40615071D01*
X72081571Y-40615071D01*
X71938714Y-40543643D01*
X71867286Y-40400786D01*
X71867286Y-40329357D01*
X71938714Y-40186500D01*
X72081571Y-40115071D01*
X72295857Y-40115071D01*
X72438714Y-40043643D01*
X72510143Y-39900786D01*
X72510143Y-39829357D01*
X72438714Y-39686500D01*
X72295857Y-39615071D01*
X72081571Y-39615071D01*
X71938714Y-39686500D01*
X71010142Y-40615071D02*
X71153000Y-40543643D01*
X71224428Y-40472214D01*
X71295857Y-40329357D01*
X71295857Y-39900786D01*
X71224428Y-39757929D01*
X71153000Y-39686500D01*
X71010142Y-39615071D01*
X70795857Y-39615071D01*
X70653000Y-39686500D01*
X70581571Y-39757929D01*
X70510142Y-39900786D01*
X70510142Y-40329357D01*
X70581571Y-40472214D01*
X70653000Y-40543643D01*
X70795857Y-40615071D01*
X71010142Y-40615071D01*
X69867285Y-40615071D02*
X69867285Y-39615071D01*
X69867285Y-39900786D02*
X69795857Y-39757929D01*
X69724428Y-39686500D01*
X69581571Y-39615071D01*
X69438714Y-39615071D01*
X93188713Y-42165071D02*
X92617284Y-42165071D01*
X92974427Y-43165071D02*
X92974427Y-41879357D01*
X92902999Y-41736500D01*
X92760141Y-41665071D01*
X92617284Y-41665071D01*
X91902998Y-43165071D02*
X92045856Y-43093643D01*
X92117284Y-43022214D01*
X92188713Y-42879357D01*
X92188713Y-42450786D01*
X92117284Y-42307929D01*
X92045856Y-42236500D01*
X91902998Y-42165071D01*
X91688713Y-42165071D01*
X91545856Y-42236500D01*
X91474427Y-42307929D01*
X91402998Y-42450786D01*
X91402998Y-42879357D01*
X91474427Y-43022214D01*
X91545856Y-43093643D01*
X91688713Y-43165071D01*
X91902998Y-43165071D01*
X90760141Y-43165071D02*
X90760141Y-42165071D01*
X90760141Y-42450786D02*
X90688713Y-42307929D01*
X90617284Y-42236500D01*
X90474427Y-42165071D01*
X90331570Y-42165071D01*
X87902999Y-41736500D02*
X88045856Y-41665071D01*
X88260142Y-41665071D01*
X88474427Y-41736500D01*
X88617285Y-41879357D01*
X88688713Y-42022214D01*
X88760142Y-42307929D01*
X88760142Y-42522214D01*
X88688713Y-42807929D01*
X88617285Y-42950786D01*
X88474427Y-43093643D01*
X88260142Y-43165071D01*
X88117285Y-43165071D01*
X87902999Y-43093643D01*
X87831570Y-43022214D01*
X87831570Y-42522214D01*
X88117285Y-42522214D01*
X86545856Y-42165071D02*
X86545856Y-43165071D01*
X86902999Y-41593643D02*
X87260142Y-42665071D01*
X86331570Y-42665071D01*
X85902999Y-41665071D02*
X84974428Y-41665071D01*
X85474428Y-42236500D01*
X85260142Y-42236500D01*
X85117285Y-42307929D01*
X85045856Y-42379357D01*
X84974428Y-42522214D01*
X84974428Y-42879357D01*
X85045856Y-43022214D01*
X85117285Y-43093643D01*
X85260142Y-43165071D01*
X85688714Y-43165071D01*
X85831571Y-43093643D01*
X85902999Y-43022214D01*
X83545857Y-43165071D02*
X84403000Y-43165071D01*
X83974428Y-43165071D02*
X83974428Y-41665071D01*
X84117285Y-41879357D01*
X84260143Y-42022214D01*
X84403000Y-42093643D01*
X81760143Y-43165071D02*
X81760143Y-41665071D01*
X81760143Y-42236500D02*
X81617286Y-42165071D01*
X81331572Y-42165071D01*
X81188715Y-42236500D01*
X81117286Y-42307929D01*
X81045857Y-42450786D01*
X81045857Y-42879357D01*
X81117286Y-43022214D01*
X81188715Y-43093643D01*
X81331572Y-43165071D01*
X81617286Y-43165071D01*
X81760143Y-43093643D01*
X80188714Y-43165071D02*
X80331572Y-43093643D01*
X80403000Y-43022214D01*
X80474429Y-42879357D01*
X80474429Y-42450786D01*
X80403000Y-42307929D01*
X80331572Y-42236500D01*
X80188714Y-42165071D01*
X79974429Y-42165071D01*
X79831572Y-42236500D01*
X79760143Y-42307929D01*
X79688714Y-42450786D01*
X79688714Y-42879357D01*
X79760143Y-43022214D01*
X79831572Y-43093643D01*
X79974429Y-43165071D01*
X80188714Y-43165071D01*
X79188714Y-43165071D02*
X78403000Y-42165071D01*
X79188714Y-42165071D02*
X78403000Y-43165071D01*
X76688714Y-43165071D02*
X76688714Y-42165071D01*
X76688714Y-42450786D02*
X76617286Y-42307929D01*
X76545857Y-42236500D01*
X76403000Y-42165071D01*
X76260143Y-42165071D01*
X75188715Y-43093643D02*
X75331572Y-43165071D01*
X75617286Y-43165071D01*
X75760143Y-43093643D01*
X75831572Y-42950786D01*
X75831572Y-42379357D01*
X75760143Y-42236500D01*
X75617286Y-42165071D01*
X75331572Y-42165071D01*
X75188715Y-42236500D01*
X75117286Y-42379357D01*
X75117286Y-42522214D01*
X75831572Y-42665071D01*
X74617286Y-42165071D02*
X74260143Y-43165071D01*
X73903001Y-42165071D01*
X71403001Y-43165071D02*
X72260144Y-43165071D01*
X71831572Y-43165071D02*
X71831572Y-41665071D01*
X71974429Y-41879357D01*
X72117287Y-42022214D01*
X72260144Y-42093643D01*
X70760144Y-43022214D02*
X70688716Y-43093643D01*
X70760144Y-43165071D01*
X70831573Y-43093643D01*
X70760144Y-43022214D01*
X70760144Y-43165071D01*
X69760144Y-41665071D02*
X69617287Y-41665071D01*
X69474430Y-41736500D01*
X69403001Y-41807929D01*
X69331572Y-41950786D01*
X69260144Y-42236500D01*
X69260144Y-42593643D01*
X69331572Y-42879357D01*
X69403001Y-43022214D01*
X69474430Y-43093643D01*
X69617287Y-43165071D01*
X69760144Y-43165071D01*
X69903001Y-43093643D01*
X69974430Y-43022214D01*
X70045858Y-42879357D01*
X70117287Y-42593643D01*
X70117287Y-42236500D01*
X70045858Y-41950786D01*
X69974430Y-41807929D01*
X69903001Y-41736500D01*
X69760144Y-41665071D01*
D12*
G36*
X83441100Y-55931903D02*
X83329550Y-55987522D01*
X83231092Y-56089931D01*
X83203977Y-56127864D01*
X83174438Y-56177500D01*
X83155272Y-56231412D01*
X83144307Y-56303364D01*
X83139371Y-56407122D01*
X83138287Y-56544101D01*
X83143182Y-56731815D01*
X83160196Y-56872758D01*
X83192823Y-56977908D01*
X83244558Y-57058243D01*
X83318896Y-57124741D01*
X83324358Y-57128678D01*
X83397620Y-57168953D01*
X83485840Y-57188880D01*
X83598038Y-57193793D01*
X83780433Y-57193793D01*
X83780509Y-57370857D01*
X83782207Y-57469470D01*
X83792550Y-57527314D01*
X83819578Y-57562006D01*
X83871332Y-57591164D01*
X83883761Y-57597121D01*
X83941923Y-57625039D01*
X83986956Y-57642672D01*
X84020441Y-57644194D01*
X84043962Y-57623781D01*
X84059100Y-57575607D01*
X84067437Y-57493846D01*
X84070556Y-57372672D01*
X84070040Y-57206260D01*
X84067471Y-56988785D01*
X84066668Y-56923736D01*
X84063778Y-56699502D01*
X84061188Y-56552821D01*
X83780586Y-56552821D01*
X83779009Y-56677326D01*
X83772000Y-56758787D01*
X83756142Y-56812515D01*
X83728019Y-56853823D01*
X83708925Y-56873971D01*
X83630865Y-56932921D01*
X83561753Y-56937720D01*
X83490440Y-56889038D01*
X83488632Y-56887241D01*
X83459617Y-56849618D01*
X83441967Y-56798484D01*
X83433064Y-56719738D01*
X83430291Y-56599276D01*
X83430241Y-56572588D01*
X83436942Y-56406583D01*
X83458752Y-56291505D01*
X83498235Y-56221254D01*
X83557956Y-56189729D01*
X83592472Y-56186552D01*
X83674389Y-56201460D01*
X83730579Y-56250548D01*
X83764402Y-56340362D01*
X83779220Y-56477445D01*
X83780586Y-56552821D01*
X84061188Y-56552821D01*
X84060713Y-56525952D01*
X84056753Y-56395382D01*
X84051174Y-56300087D01*
X84043254Y-56232364D01*
X84032269Y-56184507D01*
X84017499Y-56148813D01*
X83998218Y-56117578D01*
X83989951Y-56105824D01*
X83880288Y-55994797D01*
X83741635Y-55931847D01*
X83581246Y-55914297D01*
X83441100Y-55931903D01*
X83441100Y-55931903D01*
G37*
X83441100Y-55931903D02*
X83329550Y-55987522D01*
X83231092Y-56089931D01*
X83203977Y-56127864D01*
X83174438Y-56177500D01*
X83155272Y-56231412D01*
X83144307Y-56303364D01*
X83139371Y-56407122D01*
X83138287Y-56544101D01*
X83143182Y-56731815D01*
X83160196Y-56872758D01*
X83192823Y-56977908D01*
X83244558Y-57058243D01*
X83318896Y-57124741D01*
X83324358Y-57128678D01*
X83397620Y-57168953D01*
X83485840Y-57188880D01*
X83598038Y-57193793D01*
X83780433Y-57193793D01*
X83780509Y-57370857D01*
X83782207Y-57469470D01*
X83792550Y-57527314D01*
X83819578Y-57562006D01*
X83871332Y-57591164D01*
X83883761Y-57597121D01*
X83941923Y-57625039D01*
X83986956Y-57642672D01*
X84020441Y-57644194D01*
X84043962Y-57623781D01*
X84059100Y-57575607D01*
X84067437Y-57493846D01*
X84070556Y-57372672D01*
X84070040Y-57206260D01*
X84067471Y-56988785D01*
X84066668Y-56923736D01*
X84063778Y-56699502D01*
X84061188Y-56552821D01*
X83780586Y-56552821D01*
X83779009Y-56677326D01*
X83772000Y-56758787D01*
X83756142Y-56812515D01*
X83728019Y-56853823D01*
X83708925Y-56873971D01*
X83630865Y-56932921D01*
X83561753Y-56937720D01*
X83490440Y-56889038D01*
X83488632Y-56887241D01*
X83459617Y-56849618D01*
X83441967Y-56798484D01*
X83433064Y-56719738D01*
X83430291Y-56599276D01*
X83430241Y-56572588D01*
X83436942Y-56406583D01*
X83458752Y-56291505D01*
X83498235Y-56221254D01*
X83557956Y-56189729D01*
X83592472Y-56186552D01*
X83674389Y-56201460D01*
X83730579Y-56250548D01*
X83764402Y-56340362D01*
X83779220Y-56477445D01*
X83780586Y-56552821D01*
X84061188Y-56552821D01*
X84060713Y-56525952D01*
X84056753Y-56395382D01*
X84051174Y-56300087D01*
X84043254Y-56232364D01*
X84032269Y-56184507D01*
X84017499Y-56148813D01*
X83998218Y-56117578D01*
X83989951Y-56105824D01*
X83880288Y-55994797D01*
X83741635Y-55931847D01*
X83581246Y-55914297D01*
X83441100Y-55931903D01*
G36*
X81195571Y-55947719D02*
X81101877Y-56001914D01*
X81036736Y-56055707D01*
X80989093Y-56112066D01*
X80956272Y-56180987D01*
X80935594Y-56272468D01*
X80924380Y-56396506D01*
X80919951Y-56563098D01*
X80919437Y-56682851D01*
X80919437Y-57123659D01*
X81043517Y-57179283D01*
X81167598Y-57234907D01*
X81182195Y-56752095D01*
X81188227Y-56571779D01*
X81194555Y-56440901D01*
X81202394Y-56350511D01*
X81212963Y-56291664D01*
X81227477Y-56255413D01*
X81247152Y-56232810D01*
X81253465Y-56227917D01*
X81349112Y-56189706D01*
X81445793Y-56204827D01*
X81503345Y-56244943D01*
X81526755Y-56273370D01*
X81542961Y-56310672D01*
X81553259Y-56367223D01*
X81558951Y-56453394D01*
X81561336Y-56579558D01*
X81561736Y-56711042D01*
X81561814Y-56875999D01*
X81564639Y-56992761D01*
X81574093Y-57071510D01*
X81594060Y-57122431D01*
X81628424Y-57155706D01*
X81681068Y-57181520D01*
X81751383Y-57208344D01*
X81828180Y-57237542D01*
X81819038Y-56719346D01*
X81815357Y-56532539D01*
X81811050Y-56394490D01*
X81804877Y-56295568D01*
X81795598Y-56226145D01*
X81781973Y-56176590D01*
X81762761Y-56137273D01*
X81739598Y-56102584D01*
X81627848Y-55991770D01*
X81491487Y-55927689D01*
X81343175Y-55912339D01*
X81195571Y-55947719D01*
X81195571Y-55947719D01*
G37*
X81195571Y-55947719D02*
X81101877Y-56001914D01*
X81036736Y-56055707D01*
X80989093Y-56112066D01*
X80956272Y-56180987D01*
X80935594Y-56272468D01*
X80924380Y-56396506D01*
X80919951Y-56563098D01*
X80919437Y-56682851D01*
X80919437Y-57123659D01*
X81043517Y-57179283D01*
X81167598Y-57234907D01*
X81182195Y-56752095D01*
X81188227Y-56571779D01*
X81194555Y-56440901D01*
X81202394Y-56350511D01*
X81212963Y-56291664D01*
X81227477Y-56255413D01*
X81247152Y-56232810D01*
X81253465Y-56227917D01*
X81349112Y-56189706D01*
X81445793Y-56204827D01*
X81503345Y-56244943D01*
X81526755Y-56273370D01*
X81542961Y-56310672D01*
X81553259Y-56367223D01*
X81558951Y-56453394D01*
X81561336Y-56579558D01*
X81561736Y-56711042D01*
X81561814Y-56875999D01*
X81564639Y-56992761D01*
X81574093Y-57071510D01*
X81594060Y-57122431D01*
X81628424Y-57155706D01*
X81681068Y-57181520D01*
X81751383Y-57208344D01*
X81828180Y-57237542D01*
X81819038Y-56719346D01*
X81815357Y-56532539D01*
X81811050Y-56394490D01*
X81804877Y-56295568D01*
X81795598Y-56226145D01*
X81781973Y-56176590D01*
X81762761Y-56137273D01*
X81739598Y-56102584D01*
X81627848Y-55991770D01*
X81491487Y-55927689D01*
X81343175Y-55912339D01*
X81195571Y-55947719D01*
G36*
X84564779Y-55936015D02*
X84427939Y-56007968D01*
X84326949Y-56123766D01*
X84291075Y-56198213D01*
X84263161Y-56309992D01*
X84248871Y-56451227D01*
X84247516Y-56605371D01*
X84258405Y-56755879D01*
X84280847Y-56886205D01*
X84314150Y-56979803D01*
X84324385Y-56995922D01*
X84445618Y-57116249D01*
X84589613Y-57188317D01*
X84745861Y-57209408D01*
X84903852Y-57176802D01*
X84947820Y-57157253D01*
X85033444Y-57097012D01*
X85108592Y-57017135D01*
X85115694Y-57007004D01*
X85144561Y-56958181D01*
X85163643Y-56905990D01*
X85174916Y-56837285D01*
X85180355Y-56738918D01*
X85181938Y-56597744D01*
X85181965Y-56566092D01*
X85181893Y-56556019D01*
X84890011Y-56556019D01*
X84888313Y-56689256D01*
X84881628Y-56777674D01*
X84867575Y-56834785D01*
X84843771Y-56874102D01*
X84831621Y-56887241D01*
X84761764Y-56937172D01*
X84693941Y-56934895D01*
X84625365Y-56891584D01*
X84584465Y-56845346D01*
X84560242Y-56777857D01*
X84546639Y-56671433D01*
X84545706Y-56659020D01*
X84543384Y-56466147D01*
X84567650Y-56322900D01*
X84618176Y-56230160D01*
X84694632Y-56188807D01*
X84721924Y-56186552D01*
X84793589Y-56197893D01*
X84842610Y-56237184D01*
X84872582Y-56312326D01*
X84887101Y-56431222D01*
X84890011Y-56556019D01*
X85181893Y-56556019D01*
X85180878Y-56415659D01*
X85176312Y-56310549D01*
X85166312Y-56237714D01*
X85148921Y-56184108D01*
X85122184Y-56136681D01*
X85116276Y-56127864D01*
X85016968Y-56009007D01*
X84908758Y-55940008D01*
X84777019Y-55912619D01*
X84732283Y-55911281D01*
X84564779Y-55936015D01*
X84564779Y-55936015D01*
G37*
X84564779Y-55936015D02*
X84427939Y-56007968D01*
X84326949Y-56123766D01*
X84291075Y-56198213D01*
X84263161Y-56309992D01*
X84248871Y-56451227D01*
X84247516Y-56605371D01*
X84258405Y-56755879D01*
X84280847Y-56886205D01*
X84314150Y-56979803D01*
X84324385Y-56995922D01*
X84445618Y-57116249D01*
X84589613Y-57188317D01*
X84745861Y-57209408D01*
X84903852Y-57176802D01*
X84947820Y-57157253D01*
X85033444Y-57097012D01*
X85108592Y-57017135D01*
X85115694Y-57007004D01*
X85144561Y-56958181D01*
X85163643Y-56905990D01*
X85174916Y-56837285D01*
X85180355Y-56738918D01*
X85181938Y-56597744D01*
X85181965Y-56566092D01*
X85181893Y-56556019D01*
X84890011Y-56556019D01*
X84888313Y-56689256D01*
X84881628Y-56777674D01*
X84867575Y-56834785D01*
X84843771Y-56874102D01*
X84831621Y-56887241D01*
X84761764Y-56937172D01*
X84693941Y-56934895D01*
X84625365Y-56891584D01*
X84584465Y-56845346D01*
X84560242Y-56777857D01*
X84546639Y-56671433D01*
X84545706Y-56659020D01*
X84543384Y-56466147D01*
X84567650Y-56322900D01*
X84618176Y-56230160D01*
X84694632Y-56188807D01*
X84721924Y-56186552D01*
X84793589Y-56197893D01*
X84842610Y-56237184D01*
X84872582Y-56312326D01*
X84887101Y-56431222D01*
X84890011Y-56556019D01*
X85181893Y-56556019D01*
X85180878Y-56415659D01*
X85176312Y-56310549D01*
X85166312Y-56237714D01*
X85148921Y-56184108D01*
X85122184Y-56136681D01*
X85116276Y-56127864D01*
X85016968Y-56009007D01*
X84908758Y-55940008D01*
X84777019Y-55912619D01*
X84732283Y-55911281D01*
X84564779Y-55936015D01*
G36*
X82297448Y-55954676D02*
X82182342Y-56032111D01*
X82093389Y-56143949D01*
X82040251Y-56286265D01*
X82029503Y-56391015D01*
X82030724Y-56434726D01*
X82040944Y-56468194D01*
X82069039Y-56498179D01*
X82123884Y-56531440D01*
X82214355Y-56574738D01*
X82349328Y-56634833D01*
X82350011Y-56635134D01*
X82474249Y-56692037D01*
X82576127Y-56742565D01*
X82645233Y-56781280D01*
X82671154Y-56802740D01*
X82671161Y-56802913D01*
X82648315Y-56849644D01*
X82594891Y-56901154D01*
X82533558Y-56938261D01*
X82502485Y-56945632D01*
X82417711Y-56920138D01*
X82344707Y-56856291D01*
X82309087Y-56786094D01*
X82274820Y-56734343D01*
X82207697Y-56675409D01*
X82128792Y-56624496D01*
X82059179Y-56596809D01*
X82044623Y-56595287D01*
X82028237Y-56620321D01*
X82027250Y-56684311D01*
X82039292Y-56770593D01*
X82061993Y-56862501D01*
X82092986Y-56943369D01*
X82094552Y-56946509D01*
X82187819Y-57076734D01*
X82308696Y-57165311D01*
X82445973Y-57208786D01*
X82588440Y-57203706D01*
X82724888Y-57146616D01*
X82730955Y-57142602D01*
X82838290Y-57045326D01*
X82908868Y-56918409D01*
X82947926Y-56751526D01*
X82953168Y-56704639D01*
X82962452Y-56483329D01*
X82951322Y-56380124D01*
X82671161Y-56380124D01*
X82667521Y-56444503D01*
X82647611Y-56463291D01*
X82597974Y-56449235D01*
X82519733Y-56416009D01*
X82432274Y-56374359D01*
X82430101Y-56373256D01*
X82355970Y-56334265D01*
X82326219Y-56308244D01*
X82333555Y-56280965D01*
X82364447Y-56245121D01*
X82443040Y-56193251D01*
X82527677Y-56189439D01*
X82603597Y-56227189D01*
X82656035Y-56300001D01*
X82671161Y-56380124D01*
X82951322Y-56380124D01*
X82943356Y-56306261D01*
X82894366Y-56165829D01*
X82826164Y-56067447D01*
X82703065Y-55968030D01*
X82567472Y-55918711D01*
X82429045Y-55915568D01*
X82297448Y-55954676D01*
X82297448Y-55954676D01*
G37*
X82297448Y-55954676D02*
X82182342Y-56032111D01*
X82093389Y-56143949D01*
X82040251Y-56286265D01*
X82029503Y-56391015D01*
X82030724Y-56434726D01*
X82040944Y-56468194D01*
X82069039Y-56498179D01*
X82123884Y-56531440D01*
X82214355Y-56574738D01*
X82349328Y-56634833D01*
X82350011Y-56635134D01*
X82474249Y-56692037D01*
X82576127Y-56742565D01*
X82645233Y-56781280D01*
X82671154Y-56802740D01*
X82671161Y-56802913D01*
X82648315Y-56849644D01*
X82594891Y-56901154D01*
X82533558Y-56938261D01*
X82502485Y-56945632D01*
X82417711Y-56920138D01*
X82344707Y-56856291D01*
X82309087Y-56786094D01*
X82274820Y-56734343D01*
X82207697Y-56675409D01*
X82128792Y-56624496D01*
X82059179Y-56596809D01*
X82044623Y-56595287D01*
X82028237Y-56620321D01*
X82027250Y-56684311D01*
X82039292Y-56770593D01*
X82061993Y-56862501D01*
X82092986Y-56943369D01*
X82094552Y-56946509D01*
X82187819Y-57076734D01*
X82308696Y-57165311D01*
X82445973Y-57208786D01*
X82588440Y-57203706D01*
X82724888Y-57146616D01*
X82730955Y-57142602D01*
X82838290Y-57045326D01*
X82908868Y-56918409D01*
X82947926Y-56751526D01*
X82953168Y-56704639D01*
X82962452Y-56483329D01*
X82951322Y-56380124D01*
X82671161Y-56380124D01*
X82667521Y-56444503D01*
X82647611Y-56463291D01*
X82597974Y-56449235D01*
X82519733Y-56416009D01*
X82432274Y-56374359D01*
X82430101Y-56373256D01*
X82355970Y-56334265D01*
X82326219Y-56308244D01*
X82333555Y-56280965D01*
X82364447Y-56245121D01*
X82443040Y-56193251D01*
X82527677Y-56189439D01*
X82603597Y-56227189D01*
X82656035Y-56300001D01*
X82671161Y-56380124D01*
X82951322Y-56380124D01*
X82943356Y-56306261D01*
X82894366Y-56165829D01*
X82826164Y-56067447D01*
X82703065Y-55968030D01*
X82567472Y-55918711D01*
X82429045Y-55915568D01*
X82297448Y-55954676D01*
G36*
X79868402Y-55793857D02*
X79859846Y-55913188D01*
X79850019Y-55983506D01*
X79836401Y-56014179D01*
X79816473Y-56014571D01*
X79810011Y-56010910D01*
X79724060Y-55984398D01*
X79612255Y-55985946D01*
X79498586Y-56013199D01*
X79427490Y-56048455D01*
X79354595Y-56104778D01*
X79301307Y-56168519D01*
X79264725Y-56249510D01*
X79241950Y-56357586D01*
X79230081Y-56502580D01*
X79226218Y-56694326D01*
X79226149Y-56731109D01*
X79226103Y-57144288D01*
X79318046Y-57176339D01*
X79383348Y-57198144D01*
X79419176Y-57208297D01*
X79420230Y-57208391D01*
X79423758Y-57180860D01*
X79426761Y-57104923D01*
X79429010Y-56990565D01*
X79430276Y-56847769D01*
X79430471Y-56760951D01*
X79430877Y-56589773D01*
X79432968Y-56467088D01*
X79438053Y-56383000D01*
X79447440Y-56327614D01*
X79462439Y-56291032D01*
X79484358Y-56263359D01*
X79498043Y-56250032D01*
X79592051Y-56196328D01*
X79694636Y-56192307D01*
X79787710Y-56237725D01*
X79804922Y-56254123D01*
X79830168Y-56284957D01*
X79847680Y-56321531D01*
X79858858Y-56374415D01*
X79865104Y-56454177D01*
X79867818Y-56571385D01*
X79868402Y-56732991D01*
X79868402Y-57144288D01*
X79960345Y-57176339D01*
X80025647Y-57198144D01*
X80061475Y-57208297D01*
X80062529Y-57208391D01*
X80065225Y-57180448D01*
X80067655Y-57101630D01*
X80069722Y-56979453D01*
X80071329Y-56821432D01*
X80072377Y-56635083D01*
X80072769Y-56427920D01*
X80072770Y-56418706D01*
X80072770Y-55629020D01*
X79977885Y-55588997D01*
X79883000Y-55548973D01*
X79868402Y-55793857D01*
X79868402Y-55793857D01*
G37*
X79868402Y-55793857D02*
X79859846Y-55913188D01*
X79850019Y-55983506D01*
X79836401Y-56014179D01*
X79816473Y-56014571D01*
X79810011Y-56010910D01*
X79724060Y-55984398D01*
X79612255Y-55985946D01*
X79498586Y-56013199D01*
X79427490Y-56048455D01*
X79354595Y-56104778D01*
X79301307Y-56168519D01*
X79264725Y-56249510D01*
X79241950Y-56357586D01*
X79230081Y-56502580D01*
X79226218Y-56694326D01*
X79226149Y-56731109D01*
X79226103Y-57144288D01*
X79318046Y-57176339D01*
X79383348Y-57198144D01*
X79419176Y-57208297D01*
X79420230Y-57208391D01*
X79423758Y-57180860D01*
X79426761Y-57104923D01*
X79429010Y-56990565D01*
X79430276Y-56847769D01*
X79430471Y-56760951D01*
X79430877Y-56589773D01*
X79432968Y-56467088D01*
X79438053Y-56383000D01*
X79447440Y-56327614D01*
X79462439Y-56291032D01*
X79484358Y-56263359D01*
X79498043Y-56250032D01*
X79592051Y-56196328D01*
X79694636Y-56192307D01*
X79787710Y-56237725D01*
X79804922Y-56254123D01*
X79830168Y-56284957D01*
X79847680Y-56321531D01*
X79858858Y-56374415D01*
X79865104Y-56454177D01*
X79867818Y-56571385D01*
X79868402Y-56732991D01*
X79868402Y-57144288D01*
X79960345Y-57176339D01*
X80025647Y-57198144D01*
X80061475Y-57208297D01*
X80062529Y-57208391D01*
X80065225Y-57180448D01*
X80067655Y-57101630D01*
X80069722Y-56979453D01*
X80071329Y-56821432D01*
X80072377Y-56635083D01*
X80072769Y-56427920D01*
X80072770Y-56418706D01*
X80072770Y-55629020D01*
X79977885Y-55588997D01*
X79883000Y-55548973D01*
X79868402Y-55793857D01*
G36*
X78533056Y-55994360D02*
X78418657Y-56036842D01*
X78417348Y-56037658D01*
X78346597Y-56089730D01*
X78294364Y-56150584D01*
X78257629Y-56229887D01*
X78233366Y-56337309D01*
X78218555Y-56482517D01*
X78210171Y-56675179D01*
X78209436Y-56702628D01*
X78198880Y-57116521D01*
X78287709Y-57162456D01*
X78351982Y-57193498D01*
X78390790Y-57208206D01*
X78392585Y-57208391D01*
X78399300Y-57181250D01*
X78404635Y-57108041D01*
X78407917Y-57001081D01*
X78408632Y-56914469D01*
X78408649Y-56774162D01*
X78415063Y-56686051D01*
X78437420Y-56644025D01*
X78485268Y-56641975D01*
X78568151Y-56673790D01*
X78693287Y-56732272D01*
X78785303Y-56780845D01*
X78832629Y-56822986D01*
X78846542Y-56868916D01*
X78846563Y-56871189D01*
X78823605Y-56950311D01*
X78755630Y-56993055D01*
X78651602Y-56999246D01*
X78576670Y-56998172D01*
X78537161Y-57019753D01*
X78512522Y-57071591D01*
X78498341Y-57137632D01*
X78518777Y-57175104D01*
X78526472Y-57180467D01*
X78598917Y-57202006D01*
X78700367Y-57205055D01*
X78804843Y-57190778D01*
X78878875Y-57164688D01*
X78981228Y-57077785D01*
X79039409Y-56956816D01*
X79050931Y-56862308D01*
X79042138Y-56777062D01*
X79010320Y-56707476D01*
X78947316Y-56645672D01*
X78844969Y-56583772D01*
X78695118Y-56513897D01*
X78685988Y-56509948D01*
X78551003Y-56447588D01*
X78467706Y-56396446D01*
X78432003Y-56350488D01*
X78439797Y-56303683D01*
X78486993Y-56249998D01*
X78501106Y-56237644D01*
X78595641Y-56189741D01*
X78693594Y-56191758D01*
X78778903Y-56238724D01*
X78835504Y-56325669D01*
X78840763Y-56342734D01*
X78891977Y-56425504D01*
X78956963Y-56465372D01*
X79050931Y-56504882D01*
X79050931Y-56402658D01*
X79022347Y-56254072D01*
X78937505Y-56117784D01*
X78893355Y-56072191D01*
X78792995Y-56013674D01*
X78665365Y-55987184D01*
X78533056Y-55994360D01*
X78533056Y-55994360D01*
G37*
X78533056Y-55994360D02*
X78418657Y-56036842D01*
X78417348Y-56037658D01*
X78346597Y-56089730D01*
X78294364Y-56150584D01*
X78257629Y-56229887D01*
X78233366Y-56337309D01*
X78218555Y-56482517D01*
X78210171Y-56675179D01*
X78209436Y-56702628D01*
X78198880Y-57116521D01*
X78287709Y-57162456D01*
X78351982Y-57193498D01*
X78390790Y-57208206D01*
X78392585Y-57208391D01*
X78399300Y-57181250D01*
X78404635Y-57108041D01*
X78407917Y-57001081D01*
X78408632Y-56914469D01*
X78408649Y-56774162D01*
X78415063Y-56686051D01*
X78437420Y-56644025D01*
X78485268Y-56641975D01*
X78568151Y-56673790D01*
X78693287Y-56732272D01*
X78785303Y-56780845D01*
X78832629Y-56822986D01*
X78846542Y-56868916D01*
X78846563Y-56871189D01*
X78823605Y-56950311D01*
X78755630Y-56993055D01*
X78651602Y-56999246D01*
X78576670Y-56998172D01*
X78537161Y-57019753D01*
X78512522Y-57071591D01*
X78498341Y-57137632D01*
X78518777Y-57175104D01*
X78526472Y-57180467D01*
X78598917Y-57202006D01*
X78700367Y-57205055D01*
X78804843Y-57190778D01*
X78878875Y-57164688D01*
X78981228Y-57077785D01*
X79039409Y-56956816D01*
X79050931Y-56862308D01*
X79042138Y-56777062D01*
X79010320Y-56707476D01*
X78947316Y-56645672D01*
X78844969Y-56583772D01*
X78695118Y-56513897D01*
X78685988Y-56509948D01*
X78551003Y-56447588D01*
X78467706Y-56396446D01*
X78432003Y-56350488D01*
X78439797Y-56303683D01*
X78486993Y-56249998D01*
X78501106Y-56237644D01*
X78595641Y-56189741D01*
X78693594Y-56191758D01*
X78778903Y-56238724D01*
X78835504Y-56325669D01*
X78840763Y-56342734D01*
X78891977Y-56425504D01*
X78956963Y-56465372D01*
X79050931Y-56504882D01*
X79050931Y-56402658D01*
X79022347Y-56254072D01*
X78937505Y-56117784D01*
X78893355Y-56072191D01*
X78792995Y-56013674D01*
X78665365Y-55987184D01*
X78533056Y-55994360D01*
G36*
X77547057Y-55991920D02*
X77414435Y-56040859D01*
X77306990Y-56127419D01*
X77264968Y-56188352D01*
X77219157Y-56300161D01*
X77220109Y-56381006D01*
X77268192Y-56435378D01*
X77285983Y-56444624D01*
X77362796Y-56473450D01*
X77402024Y-56466065D01*
X77415311Y-56417658D01*
X77415988Y-56390920D01*
X77440314Y-56292548D01*
X77503719Y-56223734D01*
X77591846Y-56190498D01*
X77690337Y-56198861D01*
X77770398Y-56242296D01*
X77797439Y-56267072D01*
X77816606Y-56297129D01*
X77829554Y-56342565D01*
X77837936Y-56413476D01*
X77843407Y-56519960D01*
X77847622Y-56672112D01*
X77848713Y-56720287D01*
X77852693Y-56885095D01*
X77857219Y-57001088D01*
X77864005Y-57077833D01*
X77874769Y-57124893D01*
X77891227Y-57151835D01*
X77915094Y-57168223D01*
X77930374Y-57175463D01*
X77995267Y-57200220D01*
X78033466Y-57208391D01*
X78046088Y-57181103D01*
X78053792Y-57098603D01*
X78056620Y-56959941D01*
X78054614Y-56764162D01*
X78053989Y-56733965D01*
X78049579Y-56555349D01*
X78044365Y-56424923D01*
X78036945Y-56332492D01*
X78025918Y-56267858D01*
X78009883Y-56220825D01*
X77987439Y-56181196D01*
X77975698Y-56164215D01*
X77908381Y-56089080D01*
X77833090Y-56030638D01*
X77823872Y-56025536D01*
X77688867Y-55985260D01*
X77547057Y-55991920D01*
X77547057Y-55991920D01*
G37*
X77547057Y-55991920D02*
X77414435Y-56040859D01*
X77306990Y-56127419D01*
X77264968Y-56188352D01*
X77219157Y-56300161D01*
X77220109Y-56381006D01*
X77268192Y-56435378D01*
X77285983Y-56444624D01*
X77362796Y-56473450D01*
X77402024Y-56466065D01*
X77415311Y-56417658D01*
X77415988Y-56390920D01*
X77440314Y-56292548D01*
X77503719Y-56223734D01*
X77591846Y-56190498D01*
X77690337Y-56198861D01*
X77770398Y-56242296D01*
X77797439Y-56267072D01*
X77816606Y-56297129D01*
X77829554Y-56342565D01*
X77837936Y-56413476D01*
X77843407Y-56519960D01*
X77847622Y-56672112D01*
X77848713Y-56720287D01*
X77852693Y-56885095D01*
X77857219Y-57001088D01*
X77864005Y-57077833D01*
X77874769Y-57124893D01*
X77891227Y-57151835D01*
X77915094Y-57168223D01*
X77930374Y-57175463D01*
X77995267Y-57200220D01*
X78033466Y-57208391D01*
X78046088Y-57181103D01*
X78053792Y-57098603D01*
X78056620Y-56959941D01*
X78054614Y-56764162D01*
X78053989Y-56733965D01*
X78049579Y-56555349D01*
X78044365Y-56424923D01*
X78036945Y-56332492D01*
X78025918Y-56267858D01*
X78009883Y-56220825D01*
X77987439Y-56181196D01*
X77975698Y-56164215D01*
X77908381Y-56089080D01*
X77833090Y-56030638D01*
X77823872Y-56025536D01*
X77688867Y-55985260D01*
X77547057Y-55991920D01*
G36*
X76219086Y-56224455D02*
X76219457Y-56442661D01*
X76220892Y-56610519D01*
X76223998Y-56736070D01*
X76229378Y-56827355D01*
X76237638Y-56892415D01*
X76249384Y-56939291D01*
X76265219Y-56976024D01*
X76277210Y-56996991D01*
X76376510Y-57110694D01*
X76502412Y-57181965D01*
X76641709Y-57207538D01*
X76781195Y-57184150D01*
X76864257Y-57142119D01*
X76951455Y-57069411D01*
X77010883Y-56980612D01*
X77046739Y-56864320D01*
X77063219Y-56709135D01*
X77065553Y-56595287D01*
X77065239Y-56587106D01*
X76861276Y-56587106D01*
X76860030Y-56717657D01*
X76854322Y-56804080D01*
X76841196Y-56860618D01*
X76817694Y-56901514D01*
X76789614Y-56932362D01*
X76695312Y-56991905D01*
X76594060Y-56996992D01*
X76498364Y-56947279D01*
X76490916Y-56940543D01*
X76459126Y-56905502D01*
X76439192Y-56863811D01*
X76428400Y-56801762D01*
X76424035Y-56705644D01*
X76423345Y-56599379D01*
X76424841Y-56465880D01*
X76431036Y-56376822D01*
X76444486Y-56318293D01*
X76467749Y-56276382D01*
X76486825Y-56254123D01*
X76575437Y-56197985D01*
X76677492Y-56191235D01*
X76774905Y-56234114D01*
X76793704Y-56250032D01*
X76825707Y-56285382D01*
X76845682Y-56327502D01*
X76856407Y-56390251D01*
X76860661Y-56487487D01*
X76861276Y-56587106D01*
X77065239Y-56587106D01*
X77058496Y-56411947D01*
X77034528Y-56274195D01*
X76989452Y-56170632D01*
X76919072Y-56089856D01*
X76864257Y-56048455D01*
X76764624Y-56003728D01*
X76649145Y-55982967D01*
X76541801Y-55988525D01*
X76481736Y-56010943D01*
X76458165Y-56017323D01*
X76442523Y-55993535D01*
X76431605Y-55929788D01*
X76423345Y-55832687D01*
X76414301Y-55724541D01*
X76401739Y-55659475D01*
X76378881Y-55622268D01*
X76338949Y-55597699D01*
X76313862Y-55586819D01*
X76218977Y-55547072D01*
X76219086Y-56224455D01*
X76219086Y-56224455D01*
G37*
X76219086Y-56224455D02*
X76219457Y-56442661D01*
X76220892Y-56610519D01*
X76223998Y-56736070D01*
X76229378Y-56827355D01*
X76237638Y-56892415D01*
X76249384Y-56939291D01*
X76265219Y-56976024D01*
X76277210Y-56996991D01*
X76376510Y-57110694D01*
X76502412Y-57181965D01*
X76641709Y-57207538D01*
X76781195Y-57184150D01*
X76864257Y-57142119D01*
X76951455Y-57069411D01*
X77010883Y-56980612D01*
X77046739Y-56864320D01*
X77063219Y-56709135D01*
X77065553Y-56595287D01*
X77065239Y-56587106D01*
X76861276Y-56587106D01*
X76860030Y-56717657D01*
X76854322Y-56804080D01*
X76841196Y-56860618D01*
X76817694Y-56901514D01*
X76789614Y-56932362D01*
X76695312Y-56991905D01*
X76594060Y-56996992D01*
X76498364Y-56947279D01*
X76490916Y-56940543D01*
X76459126Y-56905502D01*
X76439192Y-56863811D01*
X76428400Y-56801762D01*
X76424035Y-56705644D01*
X76423345Y-56599379D01*
X76424841Y-56465880D01*
X76431036Y-56376822D01*
X76444486Y-56318293D01*
X76467749Y-56276382D01*
X76486825Y-56254123D01*
X76575437Y-56197985D01*
X76677492Y-56191235D01*
X76774905Y-56234114D01*
X76793704Y-56250032D01*
X76825707Y-56285382D01*
X76845682Y-56327502D01*
X76856407Y-56390251D01*
X76860661Y-56487487D01*
X76861276Y-56587106D01*
X77065239Y-56587106D01*
X77058496Y-56411947D01*
X77034528Y-56274195D01*
X76989452Y-56170632D01*
X76919072Y-56089856D01*
X76864257Y-56048455D01*
X76764624Y-56003728D01*
X76649145Y-55982967D01*
X76541801Y-55988525D01*
X76481736Y-56010943D01*
X76458165Y-56017323D01*
X76442523Y-55993535D01*
X76431605Y-55929788D01*
X76423345Y-55832687D01*
X76414301Y-55724541D01*
X76401739Y-55659475D01*
X76378881Y-55622268D01*
X76338949Y-55597699D01*
X76313862Y-55586819D01*
X76218977Y-55547072D01*
X76219086Y-56224455D01*
G36*
X75032876Y-56009840D02*
X75028421Y-56086653D01*
X75024929Y-56203391D01*
X75022685Y-56350821D01*
X75021965Y-56505455D01*
X75021965Y-57028727D01*
X75114355Y-57121117D01*
X75178022Y-57178047D01*
X75233911Y-57201107D01*
X75310298Y-57199647D01*
X75340620Y-57195934D01*
X75435390Y-57185126D01*
X75513778Y-57178933D01*
X75532885Y-57178361D01*
X75597301Y-57182102D01*
X75689429Y-57191494D01*
X75725150Y-57195934D01*
X75812886Y-57202801D01*
X75871847Y-57187885D01*
X75930310Y-57141835D01*
X75951415Y-57121117D01*
X76043805Y-57028727D01*
X76043805Y-56049947D01*
X75969442Y-56016066D01*
X75905410Y-55990970D01*
X75867948Y-55982184D01*
X75858343Y-56009950D01*
X75849365Y-56087530D01*
X75841614Y-56206348D01*
X75835686Y-56357828D01*
X75832827Y-56485805D01*
X75824839Y-56989425D01*
X75755152Y-56999278D01*
X75691771Y-56992389D01*
X75660714Y-56970083D01*
X75652033Y-56928379D01*
X75644622Y-56839544D01*
X75639069Y-56714834D01*
X75635964Y-56565507D01*
X75635516Y-56488661D01*
X75635069Y-56046287D01*
X75543126Y-56014235D01*
X75478051Y-55992443D01*
X75442653Y-55982281D01*
X75441632Y-55982184D01*
X75438080Y-56009809D01*
X75434177Y-56086411D01*
X75430249Y-56202579D01*
X75426624Y-56348904D01*
X75424092Y-56485805D01*
X75416103Y-56989425D01*
X75240931Y-56989425D01*
X75232893Y-56529965D01*
X75224854Y-56070505D01*
X75139457Y-56026344D01*
X75076407Y-55996019D01*
X75039090Y-55982258D01*
X75038013Y-55982184D01*
X75032876Y-56009840D01*
X75032876Y-56009840D01*
G37*
X75032876Y-56009840D02*
X75028421Y-56086653D01*
X75024929Y-56203391D01*
X75022685Y-56350821D01*
X75021965Y-56505455D01*
X75021965Y-57028727D01*
X75114355Y-57121117D01*
X75178022Y-57178047D01*
X75233911Y-57201107D01*
X75310298Y-57199647D01*
X75340620Y-57195934D01*
X75435390Y-57185126D01*
X75513778Y-57178933D01*
X75532885Y-57178361D01*
X75597301Y-57182102D01*
X75689429Y-57191494D01*
X75725150Y-57195934D01*
X75812886Y-57202801D01*
X75871847Y-57187885D01*
X75930310Y-57141835D01*
X75951415Y-57121117D01*
X76043805Y-57028727D01*
X76043805Y-56049947D01*
X75969442Y-56016066D01*
X75905410Y-55990970D01*
X75867948Y-55982184D01*
X75858343Y-56009950D01*
X75849365Y-56087530D01*
X75841614Y-56206348D01*
X75835686Y-56357828D01*
X75832827Y-56485805D01*
X75824839Y-56989425D01*
X75755152Y-56999278D01*
X75691771Y-56992389D01*
X75660714Y-56970083D01*
X75652033Y-56928379D01*
X75644622Y-56839544D01*
X75639069Y-56714834D01*
X75635964Y-56565507D01*
X75635516Y-56488661D01*
X75635069Y-56046287D01*
X75543126Y-56014235D01*
X75478051Y-55992443D01*
X75442653Y-55982281D01*
X75441632Y-55982184D01*
X75438080Y-56009809D01*
X75434177Y-56086411D01*
X75430249Y-56202579D01*
X75426624Y-56348904D01*
X75424092Y-56485805D01*
X75416103Y-56989425D01*
X75240931Y-56989425D01*
X75232893Y-56529965D01*
X75224854Y-56070505D01*
X75139457Y-56026344D01*
X75076407Y-55996019D01*
X75039090Y-55982258D01*
X75038013Y-55982184D01*
X75032876Y-56009840D01*
G36*
X74298594Y-56005156D02*
X74214531Y-56043393D01*
X74148550Y-56089726D01*
X74100206Y-56141532D01*
X74066828Y-56208363D01*
X74045747Y-56299769D01*
X74034293Y-56425301D01*
X74029797Y-56594508D01*
X74029322Y-56705933D01*
X74029322Y-57140627D01*
X74103684Y-57174509D01*
X74162254Y-57199272D01*
X74191270Y-57208391D01*
X74196821Y-57181257D01*
X74201225Y-57108094D01*
X74203922Y-57001263D01*
X74204494Y-56916437D01*
X74206954Y-56793887D01*
X74213588Y-56696668D01*
X74223274Y-56637134D01*
X74230968Y-56624483D01*
X74282689Y-56637402D01*
X74363883Y-56670539D01*
X74457898Y-56715461D01*
X74548083Y-56763735D01*
X74617785Y-56806928D01*
X74650352Y-56836608D01*
X74650481Y-56836929D01*
X74647680Y-56891857D01*
X74622561Y-56944292D01*
X74578459Y-56986881D01*
X74514091Y-57001126D01*
X74459079Y-56999466D01*
X74381165Y-56998245D01*
X74340268Y-57016498D01*
X74315705Y-57064726D01*
X74312608Y-57073820D01*
X74301960Y-57142598D01*
X74330435Y-57184360D01*
X74404656Y-57204263D01*
X74484832Y-57207944D01*
X74629110Y-57180658D01*
X74703797Y-57141690D01*
X74796037Y-57050148D01*
X74844957Y-56937782D01*
X74849346Y-56819051D01*
X74807999Y-56708411D01*
X74745803Y-56639080D01*
X74683706Y-56600265D01*
X74586105Y-56551125D01*
X74472368Y-56501292D01*
X74453410Y-56493677D01*
X74328479Y-56438545D01*
X74256461Y-56389954D01*
X74233300Y-56341647D01*
X74254936Y-56287370D01*
X74292080Y-56244943D01*
X74379873Y-56192702D01*
X74476470Y-56188784D01*
X74565056Y-56229041D01*
X74628814Y-56309326D01*
X74637183Y-56330040D01*
X74685904Y-56406225D01*
X74757035Y-56462785D01*
X74846793Y-56509201D01*
X74846793Y-56377584D01*
X74841510Y-56297168D01*
X74818858Y-56233786D01*
X74768633Y-56166163D01*
X74720418Y-56114076D01*
X74645446Y-56040322D01*
X74587194Y-56000702D01*
X74524628Y-55984810D01*
X74453807Y-55982184D01*
X74298594Y-56005156D01*
X74298594Y-56005156D01*
G37*
X74298594Y-56005156D02*
X74214531Y-56043393D01*
X74148550Y-56089726D01*
X74100206Y-56141532D01*
X74066828Y-56208363D01*
X74045747Y-56299769D01*
X74034293Y-56425301D01*
X74029797Y-56594508D01*
X74029322Y-56705933D01*
X74029322Y-57140627D01*
X74103684Y-57174509D01*
X74162254Y-57199272D01*
X74191270Y-57208391D01*
X74196821Y-57181257D01*
X74201225Y-57108094D01*
X74203922Y-57001263D01*
X74204494Y-56916437D01*
X74206954Y-56793887D01*
X74213588Y-56696668D01*
X74223274Y-56637134D01*
X74230968Y-56624483D01*
X74282689Y-56637402D01*
X74363883Y-56670539D01*
X74457898Y-56715461D01*
X74548083Y-56763735D01*
X74617785Y-56806928D01*
X74650352Y-56836608D01*
X74650481Y-56836929D01*
X74647680Y-56891857D01*
X74622561Y-56944292D01*
X74578459Y-56986881D01*
X74514091Y-57001126D01*
X74459079Y-56999466D01*
X74381165Y-56998245D01*
X74340268Y-57016498D01*
X74315705Y-57064726D01*
X74312608Y-57073820D01*
X74301960Y-57142598D01*
X74330435Y-57184360D01*
X74404656Y-57204263D01*
X74484832Y-57207944D01*
X74629110Y-57180658D01*
X74703797Y-57141690D01*
X74796037Y-57050148D01*
X74844957Y-56937782D01*
X74849346Y-56819051D01*
X74807999Y-56708411D01*
X74745803Y-56639080D01*
X74683706Y-56600265D01*
X74586105Y-56551125D01*
X74472368Y-56501292D01*
X74453410Y-56493677D01*
X74328479Y-56438545D01*
X74256461Y-56389954D01*
X74233300Y-56341647D01*
X74254936Y-56287370D01*
X74292080Y-56244943D01*
X74379873Y-56192702D01*
X74476470Y-56188784D01*
X74565056Y-56229041D01*
X74628814Y-56309326D01*
X74637183Y-56330040D01*
X74685904Y-56406225D01*
X74757035Y-56462785D01*
X74846793Y-56509201D01*
X74846793Y-56377584D01*
X74841510Y-56297168D01*
X74818858Y-56233786D01*
X74768633Y-56166163D01*
X74720418Y-56114076D01*
X74645446Y-56040322D01*
X74587194Y-56000702D01*
X74524628Y-55984810D01*
X74453807Y-55982184D01*
X74298594Y-56005156D01*
G36*
X73277310Y-56010018D02*
X73242415Y-56025269D01*
X73159123Y-56091235D01*
X73087897Y-56186618D01*
X73043847Y-56288406D01*
X73036678Y-56338587D01*
X73060715Y-56408647D01*
X73113439Y-56445717D01*
X73169969Y-56468164D01*
X73195854Y-56472300D01*
X73208458Y-56442283D01*
X73233346Y-56376961D01*
X73244265Y-56347445D01*
X73305492Y-56245348D01*
X73394139Y-56194423D01*
X73507807Y-56195989D01*
X73516226Y-56197994D01*
X73576912Y-56226767D01*
X73621526Y-56282859D01*
X73651998Y-56373163D01*
X73670256Y-56504571D01*
X73678229Y-56683974D01*
X73678977Y-56779433D01*
X73679348Y-56929913D01*
X73681777Y-57032495D01*
X73688240Y-57097672D01*
X73700712Y-57135938D01*
X73721167Y-57157785D01*
X73751581Y-57173707D01*
X73753339Y-57174509D01*
X73811909Y-57199272D01*
X73840925Y-57208391D01*
X73845384Y-57180822D01*
X73849201Y-57104620D01*
X73852101Y-56989541D01*
X73853809Y-56845341D01*
X73854149Y-56739814D01*
X73852412Y-56535613D01*
X73845618Y-56380697D01*
X73831393Y-56266024D01*
X73807362Y-56182551D01*
X73771152Y-56121236D01*
X73720388Y-56073034D01*
X73670261Y-56039393D01*
X73549725Y-55994619D01*
X73409443Y-55984521D01*
X73277310Y-56010018D01*
X73277310Y-56010018D01*
G37*
X73277310Y-56010018D02*
X73242415Y-56025269D01*
X73159123Y-56091235D01*
X73087897Y-56186618D01*
X73043847Y-56288406D01*
X73036678Y-56338587D01*
X73060715Y-56408647D01*
X73113439Y-56445717D01*
X73169969Y-56468164D01*
X73195854Y-56472300D01*
X73208458Y-56442283D01*
X73233346Y-56376961D01*
X73244265Y-56347445D01*
X73305492Y-56245348D01*
X73394139Y-56194423D01*
X73507807Y-56195989D01*
X73516226Y-56197994D01*
X73576912Y-56226767D01*
X73621526Y-56282859D01*
X73651998Y-56373163D01*
X73670256Y-56504571D01*
X73678229Y-56683974D01*
X73678977Y-56779433D01*
X73679348Y-56929913D01*
X73681777Y-57032495D01*
X73688240Y-57097672D01*
X73700712Y-57135938D01*
X73721167Y-57157785D01*
X73751581Y-57173707D01*
X73753339Y-57174509D01*
X73811909Y-57199272D01*
X73840925Y-57208391D01*
X73845384Y-57180822D01*
X73849201Y-57104620D01*
X73852101Y-56989541D01*
X73853809Y-56845341D01*
X73854149Y-56739814D01*
X73852412Y-56535613D01*
X73845618Y-56380697D01*
X73831393Y-56266024D01*
X73807362Y-56182551D01*
X73771152Y-56121236D01*
X73720388Y-56073034D01*
X73670261Y-56039393D01*
X73549725Y-55994619D01*
X73409443Y-55984521D01*
X73277310Y-56010018D01*
G36*
X72269561Y-56026540D02*
X72154050Y-56102034D01*
X72098336Y-56169617D01*
X72054196Y-56292255D01*
X72050691Y-56389298D01*
X72058632Y-56519056D01*
X72357885Y-56650039D01*
X72503389Y-56716958D01*
X72598463Y-56770790D01*
X72647899Y-56817416D01*
X72656489Y-56862720D01*
X72629028Y-56912582D01*
X72598747Y-56945632D01*
X72510637Y-56998633D01*
X72414804Y-57002347D01*
X72326788Y-56961041D01*
X72262131Y-56878983D01*
X72250567Y-56850008D01*
X72195175Y-56759509D01*
X72131447Y-56720940D01*
X72044034Y-56687946D01*
X72044034Y-56813034D01*
X72051762Y-56898156D01*
X72082034Y-56969938D01*
X72145482Y-57052356D01*
X72154912Y-57063066D01*
X72225487Y-57136391D01*
X72286153Y-57175742D01*
X72362050Y-57193845D01*
X72424970Y-57199774D01*
X72537513Y-57201251D01*
X72617630Y-57182535D01*
X72667610Y-57154747D01*
X72746162Y-57093641D01*
X72800537Y-57027554D01*
X72834948Y-56944441D01*
X72853612Y-56832254D01*
X72860744Y-56678946D01*
X72861313Y-56601136D01*
X72859378Y-56507853D01*
X72683101Y-56507853D01*
X72681056Y-56557896D01*
X72675961Y-56566092D01*
X72642334Y-56554958D01*
X72569970Y-56525493D01*
X72473253Y-56483601D01*
X72453027Y-56474597D01*
X72330797Y-56412442D01*
X72263453Y-56357815D01*
X72248652Y-56306649D01*
X72284053Y-56254876D01*
X72313289Y-56232000D01*
X72418784Y-56186250D01*
X72517524Y-56193808D01*
X72600188Y-56249651D01*
X72657452Y-56348753D01*
X72675812Y-56427414D01*
X72683101Y-56507853D01*
X72859378Y-56507853D01*
X72857541Y-56419351D01*
X72843641Y-56284853D01*
X72816106Y-56186916D01*
X72771428Y-56114811D01*
X72706099Y-56057813D01*
X72677617Y-56039393D01*
X72548237Y-55991422D01*
X72406588Y-55988403D01*
X72269561Y-56026540D01*
X72269561Y-56026540D01*
G37*
X72269561Y-56026540D02*
X72154050Y-56102034D01*
X72098336Y-56169617D01*
X72054196Y-56292255D01*
X72050691Y-56389298D01*
X72058632Y-56519056D01*
X72357885Y-56650039D01*
X72503389Y-56716958D01*
X72598463Y-56770790D01*
X72647899Y-56817416D01*
X72656489Y-56862720D01*
X72629028Y-56912582D01*
X72598747Y-56945632D01*
X72510637Y-56998633D01*
X72414804Y-57002347D01*
X72326788Y-56961041D01*
X72262131Y-56878983D01*
X72250567Y-56850008D01*
X72195175Y-56759509D01*
X72131447Y-56720940D01*
X72044034Y-56687946D01*
X72044034Y-56813034D01*
X72051762Y-56898156D01*
X72082034Y-56969938D01*
X72145482Y-57052356D01*
X72154912Y-57063066D01*
X72225487Y-57136391D01*
X72286153Y-57175742D01*
X72362050Y-57193845D01*
X72424970Y-57199774D01*
X72537513Y-57201251D01*
X72617630Y-57182535D01*
X72667610Y-57154747D01*
X72746162Y-57093641D01*
X72800537Y-57027554D01*
X72834948Y-56944441D01*
X72853612Y-56832254D01*
X72860744Y-56678946D01*
X72861313Y-56601136D01*
X72859378Y-56507853D01*
X72683101Y-56507853D01*
X72681056Y-56557896D01*
X72675961Y-56566092D01*
X72642334Y-56554958D01*
X72569970Y-56525493D01*
X72473253Y-56483601D01*
X72453027Y-56474597D01*
X72330797Y-56412442D01*
X72263453Y-56357815D01*
X72248652Y-56306649D01*
X72284053Y-56254876D01*
X72313289Y-56232000D01*
X72418784Y-56186250D01*
X72517524Y-56193808D01*
X72600188Y-56249651D01*
X72657452Y-56348753D01*
X72675812Y-56427414D01*
X72683101Y-56507853D01*
X72859378Y-56507853D01*
X72857541Y-56419351D01*
X72843641Y-56284853D01*
X72816106Y-56186916D01*
X72771428Y-56114811D01*
X72706099Y-56057813D01*
X72677617Y-56039393D01*
X72548237Y-55991422D01*
X72406588Y-55988403D01*
X72269561Y-56026540D01*
G36*
X78403986Y-46522998D02*
X78245994Y-46523863D01*
X78131653Y-46526205D01*
X78053593Y-46530762D01*
X78004446Y-46538270D01*
X77976841Y-46549466D01*
X77963408Y-46565088D01*
X77956779Y-46585873D01*
X77956135Y-46588563D01*
X77946065Y-46637113D01*
X77927425Y-46732905D01*
X77902155Y-46865743D01*
X77872193Y-47025431D01*
X77839478Y-47201774D01*
X77838336Y-47207967D01*
X77805567Y-47380782D01*
X77774907Y-47533469D01*
X77748336Y-47656871D01*
X77727833Y-47741831D01*
X77715374Y-47779190D01*
X77714780Y-47779852D01*
X77678081Y-47798095D01*
X77602414Y-47828497D01*
X77504122Y-47864493D01*
X77503575Y-47864685D01*
X77379767Y-47911222D01*
X77233804Y-47970504D01*
X77096219Y-48030109D01*
X77089707Y-48033056D01*
X76865610Y-48134765D01*
X76369381Y-47795897D01*
X76217154Y-47692592D01*
X76079259Y-47600237D01*
X75963685Y-47524084D01*
X75878421Y-47469385D01*
X75831456Y-47441393D01*
X75826996Y-47439317D01*
X75792866Y-47448560D01*
X75729119Y-47493156D01*
X75633269Y-47575209D01*
X75502831Y-47696821D01*
X75369672Y-47826205D01*
X75241306Y-47953702D01*
X75126419Y-48070046D01*
X75031927Y-48168052D01*
X74964747Y-48240536D01*
X74931794Y-48280313D01*
X74930568Y-48282361D01*
X74926926Y-48309656D01*
X74940650Y-48354234D01*
X74975131Y-48422112D01*
X75033761Y-48519311D01*
X75119930Y-48651851D01*
X75234800Y-48822476D01*
X75336746Y-48972655D01*
X75427877Y-49107350D01*
X75502927Y-49218740D01*
X75556631Y-49299005D01*
X75583720Y-49340325D01*
X75585426Y-49343130D01*
X75582118Y-49382721D01*
X75557047Y-49459669D01*
X75515202Y-49559432D01*
X75500288Y-49591291D01*
X75435214Y-49733226D01*
X75365788Y-49894273D01*
X75309391Y-50033621D01*
X75268753Y-50137044D01*
X75236474Y-50215642D01*
X75217822Y-50256720D01*
X75215503Y-50259885D01*
X75181197Y-50265128D01*
X75100331Y-50279494D01*
X74983657Y-50300937D01*
X74841925Y-50327413D01*
X74685890Y-50356877D01*
X74526302Y-50387283D01*
X74373915Y-50416588D01*
X74239479Y-50442745D01*
X74133748Y-50463710D01*
X74067474Y-50477439D01*
X74051218Y-50481320D01*
X74034427Y-50490900D01*
X74021751Y-50512536D01*
X74012622Y-50553531D01*
X74006469Y-50621189D01*
X74002720Y-50722812D01*
X74000808Y-50865703D01*
X74000160Y-51057165D01*
X74000126Y-51135645D01*
X74000126Y-51773906D01*
X74153402Y-51804160D01*
X74238678Y-51820564D01*
X74365930Y-51844509D01*
X74519685Y-51873107D01*
X74684466Y-51903467D01*
X74730011Y-51911806D01*
X74882068Y-51941370D01*
X75014532Y-51970442D01*
X75116286Y-51996329D01*
X75176212Y-52016337D01*
X75186195Y-52022301D01*
X75210707Y-52064534D01*
X75245852Y-52146370D01*
X75284827Y-52251683D01*
X75292558Y-52274368D01*
X75343640Y-52415018D01*
X75407046Y-52573714D01*
X75469096Y-52716225D01*
X75469402Y-52716886D01*
X75572733Y-52940440D01*
X74893039Y-53940232D01*
X75329379Y-54377300D01*
X75461351Y-54507381D01*
X75581721Y-54622048D01*
X75683727Y-54715181D01*
X75760609Y-54780658D01*
X75805607Y-54812357D01*
X75812062Y-54814368D01*
X75849960Y-54798529D01*
X75927292Y-54754496D01*
X76035611Y-54687490D01*
X76166468Y-54602734D01*
X76307948Y-54507816D01*
X76451539Y-54410998D01*
X76579565Y-54326751D01*
X76683895Y-54260258D01*
X76756400Y-54216702D01*
X76788842Y-54201264D01*
X76828424Y-54214328D01*
X76903481Y-54248750D01*
X76998532Y-54297380D01*
X77008608Y-54302785D01*
X77136609Y-54366980D01*
X77224382Y-54398463D01*
X77278972Y-54398798D01*
X77307425Y-54369548D01*
X77307590Y-54369138D01*
X77321812Y-54334498D01*
X77355731Y-54252269D01*
X77406716Y-54128814D01*
X77472138Y-53970498D01*
X77549366Y-53783686D01*
X77635771Y-53574742D01*
X77719449Y-53372446D01*
X77811412Y-53149200D01*
X77895850Y-52942392D01*
X77970231Y-52758362D01*
X78032026Y-52603451D01*
X78078703Y-52483996D01*
X78107732Y-52406339D01*
X78116678Y-52377356D01*
X78094244Y-52344110D01*
X78035561Y-52291123D01*
X77957311Y-52232704D01*
X77734466Y-52047952D01*
X77560282Y-51836182D01*
X77436846Y-51601856D01*
X77366246Y-51349434D01*
X77350569Y-51083377D01*
X77361964Y-50960575D01*
X77424050Y-50705793D01*
X77530977Y-50480801D01*
X77676111Y-50287817D01*
X77852822Y-50129061D01*
X78054478Y-50006750D01*
X78274446Y-49923105D01*
X78506094Y-49880344D01*
X78742791Y-49880687D01*
X78977905Y-49926352D01*
X79204804Y-50019559D01*
X79416856Y-50162527D01*
X79505364Y-50243383D01*
X79675111Y-50451007D01*
X79793301Y-50677895D01*
X79860722Y-50917433D01*
X79878160Y-51163007D01*
X79846402Y-51408003D01*
X79766235Y-51645808D01*
X79638445Y-51869807D01*
X79463820Y-52073387D01*
X79268688Y-52232704D01*
X79187409Y-52293602D01*
X79129991Y-52346015D01*
X79109322Y-52377406D01*
X79120144Y-52411639D01*
X79150923Y-52493419D01*
X79199126Y-52616407D01*
X79262222Y-52774263D01*
X79337678Y-52960649D01*
X79422962Y-53169226D01*
X79506781Y-53372496D01*
X79599255Y-53595933D01*
X79684911Y-53802984D01*
X79761118Y-53987286D01*
X79825247Y-54142475D01*
X79874668Y-54262188D01*
X79906752Y-54340061D01*
X79918641Y-54369138D01*
X79946726Y-54398677D01*
X80001051Y-54398591D01*
X80088605Y-54367326D01*
X80216381Y-54303329D01*
X80217392Y-54302785D01*
X80313598Y-54253121D01*
X80391369Y-54216945D01*
X80435223Y-54201408D01*
X80437158Y-54201264D01*
X80470171Y-54217024D01*
X80543054Y-54260850D01*
X80647678Y-54327557D01*
X80775910Y-54411964D01*
X80918052Y-54507816D01*
X81062767Y-54604867D01*
X81193196Y-54689270D01*
X81300890Y-54755801D01*
X81377402Y-54799238D01*
X81413938Y-54814368D01*
X81447582Y-54794482D01*
X81515224Y-54738903D01*
X81610107Y-54653754D01*
X81725470Y-54545153D01*
X81854555Y-54419221D01*
X81896771Y-54377149D01*
X82333261Y-53939931D01*
X82001023Y-53452340D01*
X81900054Y-53302605D01*
X81811438Y-53168220D01*
X81740146Y-53056969D01*
X81691150Y-52976639D01*
X81669422Y-52935014D01*
X81668785Y-52932053D01*
X81680240Y-52892818D01*
X81711051Y-52813895D01*
X81755884Y-52708509D01*
X81787353Y-52637954D01*
X81846192Y-52502876D01*
X81901604Y-52366409D01*
X81944564Y-52251103D01*
X81956234Y-52215977D01*
X81989389Y-52122174D01*
X82021799Y-52049694D01*
X82039601Y-52022301D01*
X82078886Y-52005536D01*
X82164626Y-51981770D01*
X82285697Y-51953697D01*
X82430973Y-51924009D01*
X82495988Y-51911806D01*
X82661087Y-51881468D01*
X82819448Y-51852093D01*
X82955596Y-51826569D01*
X83054057Y-51807785D01*
X83072598Y-51804160D01*
X83225873Y-51773906D01*
X83225873Y-51135645D01*
X83225529Y-50925770D01*
X83224116Y-50766980D01*
X83221064Y-50651973D01*
X83215803Y-50573446D01*
X83207763Y-50524096D01*
X83196373Y-50496619D01*
X83181063Y-50483713D01*
X83174782Y-50481320D01*
X83136896Y-50472833D01*
X83053195Y-50455900D01*
X82934433Y-50432566D01*
X82791361Y-50404875D01*
X82634732Y-50374873D01*
X82475297Y-50344604D01*
X82323809Y-50316115D01*
X82191019Y-50291449D01*
X82087681Y-50272651D01*
X82024545Y-50261767D01*
X82010497Y-50259885D01*
X81997770Y-50234704D01*
X81969600Y-50167622D01*
X81931252Y-50071333D01*
X81916609Y-50033621D01*
X81857548Y-49887921D01*
X81788000Y-49726951D01*
X81725712Y-49591291D01*
X81679879Y-49487561D01*
X81649387Y-49402326D01*
X81639208Y-49350126D01*
X81640831Y-49343130D01*
X81662343Y-49310102D01*
X81711465Y-49236643D01*
X81782923Y-49130577D01*
X81871445Y-48999726D01*
X81971759Y-48851912D01*
X81991594Y-48822734D01*
X82107988Y-48649863D01*
X82193548Y-48518226D01*
X82251684Y-48421761D01*
X82285808Y-48354408D01*
X82299331Y-48310106D01*
X82295664Y-48282794D01*
X82295570Y-48282620D01*
X82266707Y-48246746D01*
X82202867Y-48177391D01*
X82110969Y-48081745D01*
X81997933Y-47966999D01*
X81870679Y-47840341D01*
X81856328Y-47826205D01*
X81695957Y-47670903D01*
X81572195Y-47556870D01*
X81482555Y-47482002D01*
X81424552Y-47444196D01*
X81399004Y-47439317D01*
X81361718Y-47460603D01*
X81284343Y-47509773D01*
X81174867Y-47581575D01*
X81041280Y-47670755D01*
X80891570Y-47772063D01*
X80856618Y-47795897D01*
X80360390Y-48134765D01*
X80136293Y-48033056D01*
X80000011Y-47973783D01*
X79853724Y-47914170D01*
X79727965Y-47866640D01*
X79722425Y-47864685D01*
X79624057Y-47828677D01*
X79548229Y-47798229D01*
X79511282Y-47779905D01*
X79511220Y-47779852D01*
X79499496Y-47746729D01*
X79479568Y-47665267D01*
X79453413Y-47544625D01*
X79423010Y-47393959D01*
X79390337Y-47222428D01*
X79387664Y-47207967D01*
X79354890Y-47031235D01*
X79324802Y-46870810D01*
X79299339Y-46736888D01*
X79280441Y-46639663D01*
X79270047Y-46589332D01*
X79269865Y-46588563D01*
X79263539Y-46567153D01*
X79251239Y-46550988D01*
X79225594Y-46539331D01*
X79179235Y-46531445D01*
X79104792Y-46526593D01*
X78994895Y-46524039D01*
X78842175Y-46523045D01*
X78639262Y-46522874D01*
X78613000Y-46522874D01*
X78403986Y-46522998D01*
X78403986Y-46522998D01*
G37*
X78403986Y-46522998D02*
X78245994Y-46523863D01*
X78131653Y-46526205D01*
X78053593Y-46530762D01*
X78004446Y-46538270D01*
X77976841Y-46549466D01*
X77963408Y-46565088D01*
X77956779Y-46585873D01*
X77956135Y-46588563D01*
X77946065Y-46637113D01*
X77927425Y-46732905D01*
X77902155Y-46865743D01*
X77872193Y-47025431D01*
X77839478Y-47201774D01*
X77838336Y-47207967D01*
X77805567Y-47380782D01*
X77774907Y-47533469D01*
X77748336Y-47656871D01*
X77727833Y-47741831D01*
X77715374Y-47779190D01*
X77714780Y-47779852D01*
X77678081Y-47798095D01*
X77602414Y-47828497D01*
X77504122Y-47864493D01*
X77503575Y-47864685D01*
X77379767Y-47911222D01*
X77233804Y-47970504D01*
X77096219Y-48030109D01*
X77089707Y-48033056D01*
X76865610Y-48134765D01*
X76369381Y-47795897D01*
X76217154Y-47692592D01*
X76079259Y-47600237D01*
X75963685Y-47524084D01*
X75878421Y-47469385D01*
X75831456Y-47441393D01*
X75826996Y-47439317D01*
X75792866Y-47448560D01*
X75729119Y-47493156D01*
X75633269Y-47575209D01*
X75502831Y-47696821D01*
X75369672Y-47826205D01*
X75241306Y-47953702D01*
X75126419Y-48070046D01*
X75031927Y-48168052D01*
X74964747Y-48240536D01*
X74931794Y-48280313D01*
X74930568Y-48282361D01*
X74926926Y-48309656D01*
X74940650Y-48354234D01*
X74975131Y-48422112D01*
X75033761Y-48519311D01*
X75119930Y-48651851D01*
X75234800Y-48822476D01*
X75336746Y-48972655D01*
X75427877Y-49107350D01*
X75502927Y-49218740D01*
X75556631Y-49299005D01*
X75583720Y-49340325D01*
X75585426Y-49343130D01*
X75582118Y-49382721D01*
X75557047Y-49459669D01*
X75515202Y-49559432D01*
X75500288Y-49591291D01*
X75435214Y-49733226D01*
X75365788Y-49894273D01*
X75309391Y-50033621D01*
X75268753Y-50137044D01*
X75236474Y-50215642D01*
X75217822Y-50256720D01*
X75215503Y-50259885D01*
X75181197Y-50265128D01*
X75100331Y-50279494D01*
X74983657Y-50300937D01*
X74841925Y-50327413D01*
X74685890Y-50356877D01*
X74526302Y-50387283D01*
X74373915Y-50416588D01*
X74239479Y-50442745D01*
X74133748Y-50463710D01*
X74067474Y-50477439D01*
X74051218Y-50481320D01*
X74034427Y-50490900D01*
X74021751Y-50512536D01*
X74012622Y-50553531D01*
X74006469Y-50621189D01*
X74002720Y-50722812D01*
X74000808Y-50865703D01*
X74000160Y-51057165D01*
X74000126Y-51135645D01*
X74000126Y-51773906D01*
X74153402Y-51804160D01*
X74238678Y-51820564D01*
X74365930Y-51844509D01*
X74519685Y-51873107D01*
X74684466Y-51903467D01*
X74730011Y-51911806D01*
X74882068Y-51941370D01*
X75014532Y-51970442D01*
X75116286Y-51996329D01*
X75176212Y-52016337D01*
X75186195Y-52022301D01*
X75210707Y-52064534D01*
X75245852Y-52146370D01*
X75284827Y-52251683D01*
X75292558Y-52274368D01*
X75343640Y-52415018D01*
X75407046Y-52573714D01*
X75469096Y-52716225D01*
X75469402Y-52716886D01*
X75572733Y-52940440D01*
X74893039Y-53940232D01*
X75329379Y-54377300D01*
X75461351Y-54507381D01*
X75581721Y-54622048D01*
X75683727Y-54715181D01*
X75760609Y-54780658D01*
X75805607Y-54812357D01*
X75812062Y-54814368D01*
X75849960Y-54798529D01*
X75927292Y-54754496D01*
X76035611Y-54687490D01*
X76166468Y-54602734D01*
X76307948Y-54507816D01*
X76451539Y-54410998D01*
X76579565Y-54326751D01*
X76683895Y-54260258D01*
X76756400Y-54216702D01*
X76788842Y-54201264D01*
X76828424Y-54214328D01*
X76903481Y-54248750D01*
X76998532Y-54297380D01*
X77008608Y-54302785D01*
X77136609Y-54366980D01*
X77224382Y-54398463D01*
X77278972Y-54398798D01*
X77307425Y-54369548D01*
X77307590Y-54369138D01*
X77321812Y-54334498D01*
X77355731Y-54252269D01*
X77406716Y-54128814D01*
X77472138Y-53970498D01*
X77549366Y-53783686D01*
X77635771Y-53574742D01*
X77719449Y-53372446D01*
X77811412Y-53149200D01*
X77895850Y-52942392D01*
X77970231Y-52758362D01*
X78032026Y-52603451D01*
X78078703Y-52483996D01*
X78107732Y-52406339D01*
X78116678Y-52377356D01*
X78094244Y-52344110D01*
X78035561Y-52291123D01*
X77957311Y-52232704D01*
X77734466Y-52047952D01*
X77560282Y-51836182D01*
X77436846Y-51601856D01*
X77366246Y-51349434D01*
X77350569Y-51083377D01*
X77361964Y-50960575D01*
X77424050Y-50705793D01*
X77530977Y-50480801D01*
X77676111Y-50287817D01*
X77852822Y-50129061D01*
X78054478Y-50006750D01*
X78274446Y-49923105D01*
X78506094Y-49880344D01*
X78742791Y-49880687D01*
X78977905Y-49926352D01*
X79204804Y-50019559D01*
X79416856Y-50162527D01*
X79505364Y-50243383D01*
X79675111Y-50451007D01*
X79793301Y-50677895D01*
X79860722Y-50917433D01*
X79878160Y-51163007D01*
X79846402Y-51408003D01*
X79766235Y-51645808D01*
X79638445Y-51869807D01*
X79463820Y-52073387D01*
X79268688Y-52232704D01*
X79187409Y-52293602D01*
X79129991Y-52346015D01*
X79109322Y-52377406D01*
X79120144Y-52411639D01*
X79150923Y-52493419D01*
X79199126Y-52616407D01*
X79262222Y-52774263D01*
X79337678Y-52960649D01*
X79422962Y-53169226D01*
X79506781Y-53372496D01*
X79599255Y-53595933D01*
X79684911Y-53802984D01*
X79761118Y-53987286D01*
X79825247Y-54142475D01*
X79874668Y-54262188D01*
X79906752Y-54340061D01*
X79918641Y-54369138D01*
X79946726Y-54398677D01*
X80001051Y-54398591D01*
X80088605Y-54367326D01*
X80216381Y-54303329D01*
X80217392Y-54302785D01*
X80313598Y-54253121D01*
X80391369Y-54216945D01*
X80435223Y-54201408D01*
X80437158Y-54201264D01*
X80470171Y-54217024D01*
X80543054Y-54260850D01*
X80647678Y-54327557D01*
X80775910Y-54411964D01*
X80918052Y-54507816D01*
X81062767Y-54604867D01*
X81193196Y-54689270D01*
X81300890Y-54755801D01*
X81377402Y-54799238D01*
X81413938Y-54814368D01*
X81447582Y-54794482D01*
X81515224Y-54738903D01*
X81610107Y-54653754D01*
X81725470Y-54545153D01*
X81854555Y-54419221D01*
X81896771Y-54377149D01*
X82333261Y-53939931D01*
X82001023Y-53452340D01*
X81900054Y-53302605D01*
X81811438Y-53168220D01*
X81740146Y-53056969D01*
X81691150Y-52976639D01*
X81669422Y-52935014D01*
X81668785Y-52932053D01*
X81680240Y-52892818D01*
X81711051Y-52813895D01*
X81755884Y-52708509D01*
X81787353Y-52637954D01*
X81846192Y-52502876D01*
X81901604Y-52366409D01*
X81944564Y-52251103D01*
X81956234Y-52215977D01*
X81989389Y-52122174D01*
X82021799Y-52049694D01*
X82039601Y-52022301D01*
X82078886Y-52005536D01*
X82164626Y-51981770D01*
X82285697Y-51953697D01*
X82430973Y-51924009D01*
X82495988Y-51911806D01*
X82661087Y-51881468D01*
X82819448Y-51852093D01*
X82955596Y-51826569D01*
X83054057Y-51807785D01*
X83072598Y-51804160D01*
X83225873Y-51773906D01*
X83225873Y-51135645D01*
X83225529Y-50925770D01*
X83224116Y-50766980D01*
X83221064Y-50651973D01*
X83215803Y-50573446D01*
X83207763Y-50524096D01*
X83196373Y-50496619D01*
X83181063Y-50483713D01*
X83174782Y-50481320D01*
X83136896Y-50472833D01*
X83053195Y-50455900D01*
X82934433Y-50432566D01*
X82791361Y-50404875D01*
X82634732Y-50374873D01*
X82475297Y-50344604D01*
X82323809Y-50316115D01*
X82191019Y-50291449D01*
X82087681Y-50272651D01*
X82024545Y-50261767D01*
X82010497Y-50259885D01*
X81997770Y-50234704D01*
X81969600Y-50167622D01*
X81931252Y-50071333D01*
X81916609Y-50033621D01*
X81857548Y-49887921D01*
X81788000Y-49726951D01*
X81725712Y-49591291D01*
X81679879Y-49487561D01*
X81649387Y-49402326D01*
X81639208Y-49350126D01*
X81640831Y-49343130D01*
X81662343Y-49310102D01*
X81711465Y-49236643D01*
X81782923Y-49130577D01*
X81871445Y-48999726D01*
X81971759Y-48851912D01*
X81991594Y-48822734D01*
X82107988Y-48649863D01*
X82193548Y-48518226D01*
X82251684Y-48421761D01*
X82285808Y-48354408D01*
X82299331Y-48310106D01*
X82295664Y-48282794D01*
X82295570Y-48282620D01*
X82266707Y-48246746D01*
X82202867Y-48177391D01*
X82110969Y-48081745D01*
X81997933Y-47966999D01*
X81870679Y-47840341D01*
X81856328Y-47826205D01*
X81695957Y-47670903D01*
X81572195Y-47556870D01*
X81482555Y-47482002D01*
X81424552Y-47444196D01*
X81399004Y-47439317D01*
X81361718Y-47460603D01*
X81284343Y-47509773D01*
X81174867Y-47581575D01*
X81041280Y-47670755D01*
X80891570Y-47772063D01*
X80856618Y-47795897D01*
X80360390Y-48134765D01*
X80136293Y-48033056D01*
X80000011Y-47973783D01*
X79853724Y-47914170D01*
X79727965Y-47866640D01*
X79722425Y-47864685D01*
X79624057Y-47828677D01*
X79548229Y-47798229D01*
X79511282Y-47779905D01*
X79511220Y-47779852D01*
X79499496Y-47746729D01*
X79479568Y-47665267D01*
X79453413Y-47544625D01*
X79423010Y-47393959D01*
X79390337Y-47222428D01*
X79387664Y-47207967D01*
X79354890Y-47031235D01*
X79324802Y-46870810D01*
X79299339Y-46736888D01*
X79280441Y-46639663D01*
X79270047Y-46589332D01*
X79269865Y-46588563D01*
X79263539Y-46567153D01*
X79251239Y-46550988D01*
X79225594Y-46539331D01*
X79179235Y-46531445D01*
X79104792Y-46526593D01*
X78994895Y-46524039D01*
X78842175Y-46523045D01*
X78639262Y-46522874D01*
X78613000Y-46522874D01*
X78403986Y-46522998D01*
D13*
X63930500Y-90643000D02*
X63930500Y-89443000D01*
X62180500Y-89443000D02*
X62180500Y-90643000D01*
X56734000Y-101042500D02*
X55534000Y-101042500D01*
X55534000Y-102792500D02*
X56734000Y-102792500D01*
X33864500Y-84723500D02*
G75*
G03X33864500Y-84723500I-100000J0D01*
G01*
X33214500Y-84973500D02*
X33714500Y-84973500D01*
X33214500Y-87873500D02*
X33214500Y-84973500D01*
X33714500Y-87873500D02*
X33214500Y-87873500D01*
X33714500Y-84973500D02*
X33714500Y-87873500D01*
X30883000Y-82378500D02*
G75*
G03X30883000Y-82378500I-100000J0D01*
G01*
X30533000Y-81728500D02*
X30533000Y-82228500D01*
X27633000Y-81728500D02*
X30533000Y-81728500D01*
X27633000Y-82228500D02*
X27633000Y-81728500D01*
X30533000Y-82228500D02*
X27633000Y-82228500D01*
X28673500Y-86282500D02*
X29873500Y-86282500D01*
X29873500Y-84532500D02*
X28673500Y-84532500D01*
X34367500Y-76679500D02*
X34367500Y-77879500D01*
X36117500Y-77879500D02*
X36117500Y-76679500D01*
X52035000Y-67387500D02*
X50835000Y-67387500D01*
X50835000Y-69137500D02*
X52035000Y-69137500D01*
X50835000Y-71296500D02*
X52035000Y-71296500D01*
X52035000Y-69546500D02*
X50835000Y-69546500D01*
X86203840Y-74787760D02*
X86252100Y-74787760D01*
X89002820Y-75488800D02*
X89002820Y-74787760D01*
X89002820Y-74787760D02*
X88753900Y-74787760D01*
X86203840Y-74787760D02*
X86003180Y-74787760D01*
X86003180Y-74787760D02*
X86003180Y-75488800D01*
X82393840Y-74787760D02*
X82442100Y-74787760D01*
X85192820Y-75488800D02*
X85192820Y-74787760D01*
X85192820Y-74787760D02*
X84943900Y-74787760D01*
X82393840Y-74787760D02*
X82193180Y-74787760D01*
X82193180Y-74787760D02*
X82193180Y-75488800D01*
X78583840Y-74787760D02*
X78632100Y-74787760D01*
X81382820Y-75488800D02*
X81382820Y-74787760D01*
X81382820Y-74787760D02*
X81133900Y-74787760D01*
X78583840Y-74787760D02*
X78383180Y-74787760D01*
X78383180Y-74787760D02*
X78383180Y-75488800D01*
X74773840Y-74787760D02*
X74822100Y-74787760D01*
X77572820Y-75488800D02*
X77572820Y-74787760D01*
X77572820Y-74787760D02*
X77323900Y-74787760D01*
X74773840Y-74787760D02*
X74573180Y-74787760D01*
X74573180Y-74787760D02*
X74573180Y-75488800D01*
X54268000Y-97464500D02*
X54268000Y-96464500D01*
X55968000Y-96464500D02*
X55968000Y-97464500D01*
X37934000Y-85860000D02*
X37934000Y-86860000D01*
X36234000Y-86860000D02*
X36234000Y-85860000D01*
X56507000Y-69112500D02*
X55507000Y-69112500D01*
X55507000Y-67412500D02*
X56507000Y-67412500D01*
X59905000Y-81986500D02*
X59905000Y-82986500D01*
X58205000Y-82986500D02*
X58205000Y-81986500D01*
X56427000Y-97464500D02*
X56427000Y-96464500D01*
X58127000Y-96464500D02*
X58127000Y-97464500D01*
X36615000Y-76763500D02*
X36615000Y-75763500D01*
X38315000Y-75763500D02*
X38315000Y-76763500D01*
X38315000Y-80081500D02*
X38315000Y-81081500D01*
X36615000Y-81081500D02*
X36615000Y-80081500D01*
X47490000Y-86765500D02*
X46490000Y-86765500D01*
X46490000Y-85065500D02*
X47490000Y-85065500D01*
X55507000Y-69571500D02*
X56507000Y-69571500D01*
X56507000Y-71271500D02*
X55507000Y-71271500D01*
X47252000Y-69571500D02*
X48252000Y-69571500D01*
X48252000Y-71271500D02*
X47252000Y-71271500D01*
X42584000Y-76001500D02*
X42584000Y-75001500D01*
X44284000Y-75001500D02*
X44284000Y-76001500D01*
X46133000Y-83343500D02*
X46133000Y-82343500D01*
X56483000Y-83343500D02*
X56483000Y-82268500D01*
X56483000Y-72993500D02*
X56483000Y-74068500D01*
X46133000Y-72993500D02*
X46133000Y-74068500D01*
X46133000Y-83343500D02*
X47208000Y-83343500D01*
X46133000Y-72993500D02*
X47208000Y-72993500D01*
X56483000Y-72993500D02*
X55408000Y-72993500D01*
X56483000Y-83343500D02*
X55408000Y-83343500D01*
X46133000Y-82343500D02*
X45108000Y-82343500D01*
X46196500Y-38639500D02*
X46196500Y-37639500D01*
X56546500Y-38639500D02*
X56546500Y-37564500D01*
X56546500Y-28289500D02*
X56546500Y-29364500D01*
X46196500Y-28289500D02*
X46196500Y-29364500D01*
X46196500Y-38639500D02*
X47271500Y-38639500D01*
X46196500Y-28289500D02*
X47271500Y-28289500D01*
X56546500Y-28289500D02*
X55471500Y-28289500D01*
X56546500Y-38639500D02*
X55471500Y-38639500D01*
X46196500Y-37639500D02*
X45171500Y-37639500D01*
X42647500Y-31297500D02*
X42647500Y-30297500D01*
X44347500Y-30297500D02*
X44347500Y-31297500D01*
X47315500Y-24867500D02*
X48315500Y-24867500D01*
X48315500Y-26567500D02*
X47315500Y-26567500D01*
X55570500Y-24867500D02*
X56570500Y-24867500D01*
X56570500Y-26567500D02*
X55570500Y-26567500D01*
X47553500Y-42061500D02*
X46553500Y-42061500D01*
X46553500Y-40361500D02*
X47553500Y-40361500D01*
X38378500Y-35377500D02*
X38378500Y-36377500D01*
X36678500Y-36377500D02*
X36678500Y-35377500D01*
X36678500Y-32059500D02*
X36678500Y-31059500D01*
X38378500Y-31059500D02*
X38378500Y-32059500D01*
X56490500Y-52760500D02*
X56490500Y-51760500D01*
X58190500Y-51760500D02*
X58190500Y-52760500D01*
X59968500Y-37282500D02*
X59968500Y-38282500D01*
X58268500Y-38282500D02*
X58268500Y-37282500D01*
X56570500Y-24408500D02*
X55570500Y-24408500D01*
X55570500Y-22708500D02*
X56570500Y-22708500D01*
X37997500Y-41156000D02*
X37997500Y-42156000D01*
X36297500Y-42156000D02*
X36297500Y-41156000D01*
X54331500Y-52760500D02*
X54331500Y-51760500D01*
X56031500Y-51760500D02*
X56031500Y-52760500D01*
X74837340Y-30083760D02*
X74885600Y-30083760D01*
X77636320Y-30784800D02*
X77636320Y-30083760D01*
X77636320Y-30083760D02*
X77387400Y-30083760D01*
X74837340Y-30083760D02*
X74636680Y-30083760D01*
X74636680Y-30083760D02*
X74636680Y-30784800D01*
X78647340Y-30083760D02*
X78695600Y-30083760D01*
X81446320Y-30784800D02*
X81446320Y-30083760D01*
X81446320Y-30083760D02*
X81197400Y-30083760D01*
X78647340Y-30083760D02*
X78446680Y-30083760D01*
X78446680Y-30083760D02*
X78446680Y-30784800D01*
X82457340Y-30083760D02*
X82505600Y-30083760D01*
X85256320Y-30784800D02*
X85256320Y-30083760D01*
X85256320Y-30083760D02*
X85007400Y-30083760D01*
X82457340Y-30083760D02*
X82256680Y-30083760D01*
X82256680Y-30083760D02*
X82256680Y-30784800D01*
X86267340Y-30083760D02*
X86315600Y-30083760D01*
X89066320Y-30784800D02*
X89066320Y-30083760D01*
X89066320Y-30083760D02*
X88817400Y-30083760D01*
X86267340Y-30083760D02*
X86066680Y-30083760D01*
X86066680Y-30083760D02*
X86066680Y-30784800D01*
X50898500Y-26592500D02*
X52098500Y-26592500D01*
X52098500Y-24842500D02*
X50898500Y-24842500D01*
X52098500Y-22683500D02*
X50898500Y-22683500D01*
X50898500Y-24433500D02*
X52098500Y-24433500D01*
X34431000Y-31975500D02*
X34431000Y-33175500D01*
X36181000Y-33175500D02*
X36181000Y-31975500D01*
X28737000Y-41578500D02*
X29937000Y-41578500D01*
X29937000Y-39828500D02*
X28737000Y-39828500D01*
X30946500Y-37674500D02*
G75*
G03X30946500Y-37674500I-100000J0D01*
G01*
X30596500Y-37024500D02*
X30596500Y-37524500D01*
X27696500Y-37024500D02*
X30596500Y-37024500D01*
X27696500Y-37524500D02*
X27696500Y-37024500D01*
X30596500Y-37524500D02*
X27696500Y-37524500D01*
X33928000Y-40019500D02*
G75*
G03X33928000Y-40019500I-100000J0D01*
G01*
X33278000Y-40269500D02*
X33778000Y-40269500D01*
X33278000Y-43169500D02*
X33278000Y-40269500D01*
X33778000Y-43169500D02*
X33278000Y-43169500D01*
X33778000Y-40269500D02*
X33778000Y-43169500D01*
X56797500Y-56338500D02*
X55597500Y-56338500D01*
X55597500Y-58088500D02*
X56797500Y-58088500D01*
X63994000Y-45939000D02*
X63994000Y-44739000D01*
X62244000Y-44739000D02*
X62244000Y-45939000D01*
D12*
G36*
X83377600Y-100635903D02*
X83266050Y-100691522D01*
X83167592Y-100793931D01*
X83140477Y-100831864D01*
X83110938Y-100881500D01*
X83091772Y-100935412D01*
X83080807Y-101007364D01*
X83075871Y-101111122D01*
X83074787Y-101248101D01*
X83079682Y-101435815D01*
X83096696Y-101576758D01*
X83129323Y-101681908D01*
X83181058Y-101762243D01*
X83255396Y-101828741D01*
X83260858Y-101832678D01*
X83334120Y-101872953D01*
X83422340Y-101892880D01*
X83534538Y-101897793D01*
X83716933Y-101897793D01*
X83717009Y-102074857D01*
X83718707Y-102173470D01*
X83729050Y-102231314D01*
X83756078Y-102266006D01*
X83807832Y-102295164D01*
X83820261Y-102301121D01*
X83878423Y-102329039D01*
X83923456Y-102346672D01*
X83956941Y-102348194D01*
X83980462Y-102327781D01*
X83995600Y-102279607D01*
X84003937Y-102197846D01*
X84007056Y-102076672D01*
X84006540Y-101910260D01*
X84003971Y-101692785D01*
X84003168Y-101627736D01*
X84000278Y-101403502D01*
X83997688Y-101256821D01*
X83717086Y-101256821D01*
X83715509Y-101381326D01*
X83708500Y-101462787D01*
X83692642Y-101516515D01*
X83664519Y-101557823D01*
X83645425Y-101577971D01*
X83567365Y-101636921D01*
X83498253Y-101641720D01*
X83426940Y-101593038D01*
X83425132Y-101591241D01*
X83396117Y-101553618D01*
X83378467Y-101502484D01*
X83369564Y-101423738D01*
X83366791Y-101303276D01*
X83366741Y-101276588D01*
X83373442Y-101110583D01*
X83395252Y-100995505D01*
X83434735Y-100925254D01*
X83494456Y-100893729D01*
X83528972Y-100890552D01*
X83610889Y-100905460D01*
X83667079Y-100954548D01*
X83700902Y-101044362D01*
X83715720Y-101181445D01*
X83717086Y-101256821D01*
X83997688Y-101256821D01*
X83997213Y-101229952D01*
X83993253Y-101099382D01*
X83987674Y-101004087D01*
X83979754Y-100936364D01*
X83968769Y-100888507D01*
X83953999Y-100852813D01*
X83934718Y-100821578D01*
X83926451Y-100809824D01*
X83816788Y-100698797D01*
X83678135Y-100635847D01*
X83517746Y-100618297D01*
X83377600Y-100635903D01*
X83377600Y-100635903D01*
G37*
X83377600Y-100635903D02*
X83266050Y-100691522D01*
X83167592Y-100793931D01*
X83140477Y-100831864D01*
X83110938Y-100881500D01*
X83091772Y-100935412D01*
X83080807Y-101007364D01*
X83075871Y-101111122D01*
X83074787Y-101248101D01*
X83079682Y-101435815D01*
X83096696Y-101576758D01*
X83129323Y-101681908D01*
X83181058Y-101762243D01*
X83255396Y-101828741D01*
X83260858Y-101832678D01*
X83334120Y-101872953D01*
X83422340Y-101892880D01*
X83534538Y-101897793D01*
X83716933Y-101897793D01*
X83717009Y-102074857D01*
X83718707Y-102173470D01*
X83729050Y-102231314D01*
X83756078Y-102266006D01*
X83807832Y-102295164D01*
X83820261Y-102301121D01*
X83878423Y-102329039D01*
X83923456Y-102346672D01*
X83956941Y-102348194D01*
X83980462Y-102327781D01*
X83995600Y-102279607D01*
X84003937Y-102197846D01*
X84007056Y-102076672D01*
X84006540Y-101910260D01*
X84003971Y-101692785D01*
X84003168Y-101627736D01*
X84000278Y-101403502D01*
X83997688Y-101256821D01*
X83717086Y-101256821D01*
X83715509Y-101381326D01*
X83708500Y-101462787D01*
X83692642Y-101516515D01*
X83664519Y-101557823D01*
X83645425Y-101577971D01*
X83567365Y-101636921D01*
X83498253Y-101641720D01*
X83426940Y-101593038D01*
X83425132Y-101591241D01*
X83396117Y-101553618D01*
X83378467Y-101502484D01*
X83369564Y-101423738D01*
X83366791Y-101303276D01*
X83366741Y-101276588D01*
X83373442Y-101110583D01*
X83395252Y-100995505D01*
X83434735Y-100925254D01*
X83494456Y-100893729D01*
X83528972Y-100890552D01*
X83610889Y-100905460D01*
X83667079Y-100954548D01*
X83700902Y-101044362D01*
X83715720Y-101181445D01*
X83717086Y-101256821D01*
X83997688Y-101256821D01*
X83997213Y-101229952D01*
X83993253Y-101099382D01*
X83987674Y-101004087D01*
X83979754Y-100936364D01*
X83968769Y-100888507D01*
X83953999Y-100852813D01*
X83934718Y-100821578D01*
X83926451Y-100809824D01*
X83816788Y-100698797D01*
X83678135Y-100635847D01*
X83517746Y-100618297D01*
X83377600Y-100635903D01*
G36*
X81132071Y-100651719D02*
X81038377Y-100705914D01*
X80973236Y-100759707D01*
X80925593Y-100816066D01*
X80892772Y-100884987D01*
X80872094Y-100976468D01*
X80860880Y-101100506D01*
X80856451Y-101267098D01*
X80855937Y-101386851D01*
X80855937Y-101827659D01*
X80980017Y-101883283D01*
X81104098Y-101938907D01*
X81118695Y-101456095D01*
X81124727Y-101275779D01*
X81131055Y-101144901D01*
X81138894Y-101054511D01*
X81149463Y-100995664D01*
X81163977Y-100959413D01*
X81183652Y-100936810D01*
X81189965Y-100931917D01*
X81285612Y-100893706D01*
X81382293Y-100908827D01*
X81439845Y-100948943D01*
X81463255Y-100977370D01*
X81479461Y-101014672D01*
X81489759Y-101071223D01*
X81495451Y-101157394D01*
X81497836Y-101283558D01*
X81498236Y-101415042D01*
X81498314Y-101579999D01*
X81501139Y-101696761D01*
X81510593Y-101775510D01*
X81530560Y-101826431D01*
X81564924Y-101859706D01*
X81617568Y-101885520D01*
X81687883Y-101912344D01*
X81764680Y-101941542D01*
X81755538Y-101423346D01*
X81751857Y-101236539D01*
X81747550Y-101098490D01*
X81741377Y-100999568D01*
X81732098Y-100930145D01*
X81718473Y-100880590D01*
X81699261Y-100841273D01*
X81676098Y-100806584D01*
X81564348Y-100695770D01*
X81427987Y-100631689D01*
X81279675Y-100616339D01*
X81132071Y-100651719D01*
X81132071Y-100651719D01*
G37*
X81132071Y-100651719D02*
X81038377Y-100705914D01*
X80973236Y-100759707D01*
X80925593Y-100816066D01*
X80892772Y-100884987D01*
X80872094Y-100976468D01*
X80860880Y-101100506D01*
X80856451Y-101267098D01*
X80855937Y-101386851D01*
X80855937Y-101827659D01*
X80980017Y-101883283D01*
X81104098Y-101938907D01*
X81118695Y-101456095D01*
X81124727Y-101275779D01*
X81131055Y-101144901D01*
X81138894Y-101054511D01*
X81149463Y-100995664D01*
X81163977Y-100959413D01*
X81183652Y-100936810D01*
X81189965Y-100931917D01*
X81285612Y-100893706D01*
X81382293Y-100908827D01*
X81439845Y-100948943D01*
X81463255Y-100977370D01*
X81479461Y-101014672D01*
X81489759Y-101071223D01*
X81495451Y-101157394D01*
X81497836Y-101283558D01*
X81498236Y-101415042D01*
X81498314Y-101579999D01*
X81501139Y-101696761D01*
X81510593Y-101775510D01*
X81530560Y-101826431D01*
X81564924Y-101859706D01*
X81617568Y-101885520D01*
X81687883Y-101912344D01*
X81764680Y-101941542D01*
X81755538Y-101423346D01*
X81751857Y-101236539D01*
X81747550Y-101098490D01*
X81741377Y-100999568D01*
X81732098Y-100930145D01*
X81718473Y-100880590D01*
X81699261Y-100841273D01*
X81676098Y-100806584D01*
X81564348Y-100695770D01*
X81427987Y-100631689D01*
X81279675Y-100616339D01*
X81132071Y-100651719D01*
G36*
X84501279Y-100640015D02*
X84364439Y-100711968D01*
X84263449Y-100827766D01*
X84227575Y-100902213D01*
X84199661Y-101013992D01*
X84185371Y-101155227D01*
X84184016Y-101309371D01*
X84194905Y-101459879D01*
X84217347Y-101590205D01*
X84250650Y-101683803D01*
X84260885Y-101699922D01*
X84382118Y-101820249D01*
X84526113Y-101892317D01*
X84682361Y-101913408D01*
X84840352Y-101880802D01*
X84884320Y-101861253D01*
X84969944Y-101801012D01*
X85045092Y-101721135D01*
X85052194Y-101711004D01*
X85081061Y-101662181D01*
X85100143Y-101609990D01*
X85111416Y-101541285D01*
X85116855Y-101442918D01*
X85118438Y-101301744D01*
X85118465Y-101270092D01*
X85118393Y-101260019D01*
X84826511Y-101260019D01*
X84824813Y-101393256D01*
X84818128Y-101481674D01*
X84804075Y-101538785D01*
X84780271Y-101578102D01*
X84768121Y-101591241D01*
X84698264Y-101641172D01*
X84630441Y-101638895D01*
X84561865Y-101595584D01*
X84520965Y-101549346D01*
X84496742Y-101481857D01*
X84483139Y-101375433D01*
X84482206Y-101363020D01*
X84479884Y-101170147D01*
X84504150Y-101026900D01*
X84554676Y-100934160D01*
X84631132Y-100892807D01*
X84658424Y-100890552D01*
X84730089Y-100901893D01*
X84779110Y-100941184D01*
X84809082Y-101016326D01*
X84823601Y-101135222D01*
X84826511Y-101260019D01*
X85118393Y-101260019D01*
X85117378Y-101119659D01*
X85112812Y-101014549D01*
X85102812Y-100941714D01*
X85085421Y-100888108D01*
X85058684Y-100840681D01*
X85052776Y-100831864D01*
X84953468Y-100713007D01*
X84845258Y-100644008D01*
X84713519Y-100616619D01*
X84668783Y-100615281D01*
X84501279Y-100640015D01*
X84501279Y-100640015D01*
G37*
X84501279Y-100640015D02*
X84364439Y-100711968D01*
X84263449Y-100827766D01*
X84227575Y-100902213D01*
X84199661Y-101013992D01*
X84185371Y-101155227D01*
X84184016Y-101309371D01*
X84194905Y-101459879D01*
X84217347Y-101590205D01*
X84250650Y-101683803D01*
X84260885Y-101699922D01*
X84382118Y-101820249D01*
X84526113Y-101892317D01*
X84682361Y-101913408D01*
X84840352Y-101880802D01*
X84884320Y-101861253D01*
X84969944Y-101801012D01*
X85045092Y-101721135D01*
X85052194Y-101711004D01*
X85081061Y-101662181D01*
X85100143Y-101609990D01*
X85111416Y-101541285D01*
X85116855Y-101442918D01*
X85118438Y-101301744D01*
X85118465Y-101270092D01*
X85118393Y-101260019D01*
X84826511Y-101260019D01*
X84824813Y-101393256D01*
X84818128Y-101481674D01*
X84804075Y-101538785D01*
X84780271Y-101578102D01*
X84768121Y-101591241D01*
X84698264Y-101641172D01*
X84630441Y-101638895D01*
X84561865Y-101595584D01*
X84520965Y-101549346D01*
X84496742Y-101481857D01*
X84483139Y-101375433D01*
X84482206Y-101363020D01*
X84479884Y-101170147D01*
X84504150Y-101026900D01*
X84554676Y-100934160D01*
X84631132Y-100892807D01*
X84658424Y-100890552D01*
X84730089Y-100901893D01*
X84779110Y-100941184D01*
X84809082Y-101016326D01*
X84823601Y-101135222D01*
X84826511Y-101260019D01*
X85118393Y-101260019D01*
X85117378Y-101119659D01*
X85112812Y-101014549D01*
X85102812Y-100941714D01*
X85085421Y-100888108D01*
X85058684Y-100840681D01*
X85052776Y-100831864D01*
X84953468Y-100713007D01*
X84845258Y-100644008D01*
X84713519Y-100616619D01*
X84668783Y-100615281D01*
X84501279Y-100640015D01*
G36*
X82233948Y-100658676D02*
X82118842Y-100736111D01*
X82029889Y-100847949D01*
X81976751Y-100990265D01*
X81966003Y-101095015D01*
X81967224Y-101138726D01*
X81977444Y-101172194D01*
X82005539Y-101202179D01*
X82060384Y-101235440D01*
X82150855Y-101278738D01*
X82285828Y-101338833D01*
X82286511Y-101339134D01*
X82410749Y-101396037D01*
X82512627Y-101446565D01*
X82581733Y-101485280D01*
X82607654Y-101506740D01*
X82607661Y-101506913D01*
X82584815Y-101553644D01*
X82531391Y-101605154D01*
X82470058Y-101642261D01*
X82438985Y-101649632D01*
X82354211Y-101624138D01*
X82281207Y-101560291D01*
X82245587Y-101490094D01*
X82211320Y-101438343D01*
X82144197Y-101379409D01*
X82065292Y-101328496D01*
X81995679Y-101300809D01*
X81981123Y-101299287D01*
X81964737Y-101324321D01*
X81963750Y-101388311D01*
X81975792Y-101474593D01*
X81998493Y-101566501D01*
X82029486Y-101647369D01*
X82031052Y-101650509D01*
X82124319Y-101780734D01*
X82245196Y-101869311D01*
X82382473Y-101912786D01*
X82524940Y-101907706D01*
X82661388Y-101850616D01*
X82667455Y-101846602D01*
X82774790Y-101749326D01*
X82845368Y-101622409D01*
X82884426Y-101455526D01*
X82889668Y-101408639D01*
X82898952Y-101187329D01*
X82887822Y-101084124D01*
X82607661Y-101084124D01*
X82604021Y-101148503D01*
X82584111Y-101167291D01*
X82534474Y-101153235D01*
X82456233Y-101120009D01*
X82368774Y-101078359D01*
X82366601Y-101077256D01*
X82292470Y-101038265D01*
X82262719Y-101012244D01*
X82270055Y-100984965D01*
X82300947Y-100949121D01*
X82379540Y-100897251D01*
X82464177Y-100893439D01*
X82540097Y-100931189D01*
X82592535Y-101004001D01*
X82607661Y-101084124D01*
X82887822Y-101084124D01*
X82879856Y-101010261D01*
X82830866Y-100869829D01*
X82762664Y-100771447D01*
X82639565Y-100672030D01*
X82503972Y-100622711D01*
X82365545Y-100619568D01*
X82233948Y-100658676D01*
X82233948Y-100658676D01*
G37*
X82233948Y-100658676D02*
X82118842Y-100736111D01*
X82029889Y-100847949D01*
X81976751Y-100990265D01*
X81966003Y-101095015D01*
X81967224Y-101138726D01*
X81977444Y-101172194D01*
X82005539Y-101202179D01*
X82060384Y-101235440D01*
X82150855Y-101278738D01*
X82285828Y-101338833D01*
X82286511Y-101339134D01*
X82410749Y-101396037D01*
X82512627Y-101446565D01*
X82581733Y-101485280D01*
X82607654Y-101506740D01*
X82607661Y-101506913D01*
X82584815Y-101553644D01*
X82531391Y-101605154D01*
X82470058Y-101642261D01*
X82438985Y-101649632D01*
X82354211Y-101624138D01*
X82281207Y-101560291D01*
X82245587Y-101490094D01*
X82211320Y-101438343D01*
X82144197Y-101379409D01*
X82065292Y-101328496D01*
X81995679Y-101300809D01*
X81981123Y-101299287D01*
X81964737Y-101324321D01*
X81963750Y-101388311D01*
X81975792Y-101474593D01*
X81998493Y-101566501D01*
X82029486Y-101647369D01*
X82031052Y-101650509D01*
X82124319Y-101780734D01*
X82245196Y-101869311D01*
X82382473Y-101912786D01*
X82524940Y-101907706D01*
X82661388Y-101850616D01*
X82667455Y-101846602D01*
X82774790Y-101749326D01*
X82845368Y-101622409D01*
X82884426Y-101455526D01*
X82889668Y-101408639D01*
X82898952Y-101187329D01*
X82887822Y-101084124D01*
X82607661Y-101084124D01*
X82604021Y-101148503D01*
X82584111Y-101167291D01*
X82534474Y-101153235D01*
X82456233Y-101120009D01*
X82368774Y-101078359D01*
X82366601Y-101077256D01*
X82292470Y-101038265D01*
X82262719Y-101012244D01*
X82270055Y-100984965D01*
X82300947Y-100949121D01*
X82379540Y-100897251D01*
X82464177Y-100893439D01*
X82540097Y-100931189D01*
X82592535Y-101004001D01*
X82607661Y-101084124D01*
X82887822Y-101084124D01*
X82879856Y-101010261D01*
X82830866Y-100869829D01*
X82762664Y-100771447D01*
X82639565Y-100672030D01*
X82503972Y-100622711D01*
X82365545Y-100619568D01*
X82233948Y-100658676D01*
G36*
X79804902Y-100497857D02*
X79796346Y-100617188D01*
X79786519Y-100687506D01*
X79772901Y-100718179D01*
X79752973Y-100718571D01*
X79746511Y-100714910D01*
X79660560Y-100688398D01*
X79548755Y-100689946D01*
X79435086Y-100717199D01*
X79363990Y-100752455D01*
X79291095Y-100808778D01*
X79237807Y-100872519D01*
X79201225Y-100953510D01*
X79178450Y-101061586D01*
X79166581Y-101206580D01*
X79162718Y-101398326D01*
X79162649Y-101435109D01*
X79162603Y-101848288D01*
X79254546Y-101880339D01*
X79319848Y-101902144D01*
X79355676Y-101912297D01*
X79356730Y-101912391D01*
X79360258Y-101884860D01*
X79363261Y-101808923D01*
X79365510Y-101694565D01*
X79366776Y-101551769D01*
X79366971Y-101464951D01*
X79367377Y-101293773D01*
X79369468Y-101171088D01*
X79374553Y-101087000D01*
X79383940Y-101031614D01*
X79398939Y-100995032D01*
X79420858Y-100967359D01*
X79434543Y-100954032D01*
X79528551Y-100900328D01*
X79631136Y-100896307D01*
X79724210Y-100941725D01*
X79741422Y-100958123D01*
X79766668Y-100988957D01*
X79784180Y-101025531D01*
X79795358Y-101078415D01*
X79801604Y-101158177D01*
X79804318Y-101275385D01*
X79804902Y-101436991D01*
X79804902Y-101848288D01*
X79896845Y-101880339D01*
X79962147Y-101902144D01*
X79997975Y-101912297D01*
X79999029Y-101912391D01*
X80001725Y-101884448D01*
X80004155Y-101805630D01*
X80006222Y-101683453D01*
X80007829Y-101525432D01*
X80008877Y-101339083D01*
X80009269Y-101131920D01*
X80009270Y-101122706D01*
X80009270Y-100333020D01*
X79914385Y-100292997D01*
X79819500Y-100252973D01*
X79804902Y-100497857D01*
X79804902Y-100497857D01*
G37*
X79804902Y-100497857D02*
X79796346Y-100617188D01*
X79786519Y-100687506D01*
X79772901Y-100718179D01*
X79752973Y-100718571D01*
X79746511Y-100714910D01*
X79660560Y-100688398D01*
X79548755Y-100689946D01*
X79435086Y-100717199D01*
X79363990Y-100752455D01*
X79291095Y-100808778D01*
X79237807Y-100872519D01*
X79201225Y-100953510D01*
X79178450Y-101061586D01*
X79166581Y-101206580D01*
X79162718Y-101398326D01*
X79162649Y-101435109D01*
X79162603Y-101848288D01*
X79254546Y-101880339D01*
X79319848Y-101902144D01*
X79355676Y-101912297D01*
X79356730Y-101912391D01*
X79360258Y-101884860D01*
X79363261Y-101808923D01*
X79365510Y-101694565D01*
X79366776Y-101551769D01*
X79366971Y-101464951D01*
X79367377Y-101293773D01*
X79369468Y-101171088D01*
X79374553Y-101087000D01*
X79383940Y-101031614D01*
X79398939Y-100995032D01*
X79420858Y-100967359D01*
X79434543Y-100954032D01*
X79528551Y-100900328D01*
X79631136Y-100896307D01*
X79724210Y-100941725D01*
X79741422Y-100958123D01*
X79766668Y-100988957D01*
X79784180Y-101025531D01*
X79795358Y-101078415D01*
X79801604Y-101158177D01*
X79804318Y-101275385D01*
X79804902Y-101436991D01*
X79804902Y-101848288D01*
X79896845Y-101880339D01*
X79962147Y-101902144D01*
X79997975Y-101912297D01*
X79999029Y-101912391D01*
X80001725Y-101884448D01*
X80004155Y-101805630D01*
X80006222Y-101683453D01*
X80007829Y-101525432D01*
X80008877Y-101339083D01*
X80009269Y-101131920D01*
X80009270Y-101122706D01*
X80009270Y-100333020D01*
X79914385Y-100292997D01*
X79819500Y-100252973D01*
X79804902Y-100497857D01*
G36*
X78469556Y-100698360D02*
X78355157Y-100740842D01*
X78353848Y-100741658D01*
X78283097Y-100793730D01*
X78230864Y-100854584D01*
X78194129Y-100933887D01*
X78169866Y-101041309D01*
X78155055Y-101186517D01*
X78146671Y-101379179D01*
X78145936Y-101406628D01*
X78135380Y-101820521D01*
X78224209Y-101866456D01*
X78288482Y-101897498D01*
X78327290Y-101912206D01*
X78329085Y-101912391D01*
X78335800Y-101885250D01*
X78341135Y-101812041D01*
X78344417Y-101705081D01*
X78345132Y-101618469D01*
X78345149Y-101478162D01*
X78351563Y-101390051D01*
X78373920Y-101348025D01*
X78421768Y-101345975D01*
X78504651Y-101377790D01*
X78629787Y-101436272D01*
X78721803Y-101484845D01*
X78769129Y-101526986D01*
X78783042Y-101572916D01*
X78783063Y-101575189D01*
X78760105Y-101654311D01*
X78692130Y-101697055D01*
X78588102Y-101703246D01*
X78513170Y-101702172D01*
X78473661Y-101723753D01*
X78449022Y-101775591D01*
X78434841Y-101841632D01*
X78455277Y-101879104D01*
X78462972Y-101884467D01*
X78535417Y-101906006D01*
X78636867Y-101909055D01*
X78741343Y-101894778D01*
X78815375Y-101868688D01*
X78917728Y-101781785D01*
X78975909Y-101660816D01*
X78987431Y-101566308D01*
X78978638Y-101481062D01*
X78946820Y-101411476D01*
X78883816Y-101349672D01*
X78781469Y-101287772D01*
X78631618Y-101217897D01*
X78622488Y-101213948D01*
X78487503Y-101151588D01*
X78404206Y-101100446D01*
X78368503Y-101054488D01*
X78376297Y-101007683D01*
X78423493Y-100953998D01*
X78437606Y-100941644D01*
X78532141Y-100893741D01*
X78630094Y-100895758D01*
X78715403Y-100942724D01*
X78772004Y-101029669D01*
X78777263Y-101046734D01*
X78828477Y-101129504D01*
X78893463Y-101169372D01*
X78987431Y-101208882D01*
X78987431Y-101106658D01*
X78958847Y-100958072D01*
X78874005Y-100821784D01*
X78829855Y-100776191D01*
X78729495Y-100717674D01*
X78601865Y-100691184D01*
X78469556Y-100698360D01*
X78469556Y-100698360D01*
G37*
X78469556Y-100698360D02*
X78355157Y-100740842D01*
X78353848Y-100741658D01*
X78283097Y-100793730D01*
X78230864Y-100854584D01*
X78194129Y-100933887D01*
X78169866Y-101041309D01*
X78155055Y-101186517D01*
X78146671Y-101379179D01*
X78145936Y-101406628D01*
X78135380Y-101820521D01*
X78224209Y-101866456D01*
X78288482Y-101897498D01*
X78327290Y-101912206D01*
X78329085Y-101912391D01*
X78335800Y-101885250D01*
X78341135Y-101812041D01*
X78344417Y-101705081D01*
X78345132Y-101618469D01*
X78345149Y-101478162D01*
X78351563Y-101390051D01*
X78373920Y-101348025D01*
X78421768Y-101345975D01*
X78504651Y-101377790D01*
X78629787Y-101436272D01*
X78721803Y-101484845D01*
X78769129Y-101526986D01*
X78783042Y-101572916D01*
X78783063Y-101575189D01*
X78760105Y-101654311D01*
X78692130Y-101697055D01*
X78588102Y-101703246D01*
X78513170Y-101702172D01*
X78473661Y-101723753D01*
X78449022Y-101775591D01*
X78434841Y-101841632D01*
X78455277Y-101879104D01*
X78462972Y-101884467D01*
X78535417Y-101906006D01*
X78636867Y-101909055D01*
X78741343Y-101894778D01*
X78815375Y-101868688D01*
X78917728Y-101781785D01*
X78975909Y-101660816D01*
X78987431Y-101566308D01*
X78978638Y-101481062D01*
X78946820Y-101411476D01*
X78883816Y-101349672D01*
X78781469Y-101287772D01*
X78631618Y-101217897D01*
X78622488Y-101213948D01*
X78487503Y-101151588D01*
X78404206Y-101100446D01*
X78368503Y-101054488D01*
X78376297Y-101007683D01*
X78423493Y-100953998D01*
X78437606Y-100941644D01*
X78532141Y-100893741D01*
X78630094Y-100895758D01*
X78715403Y-100942724D01*
X78772004Y-101029669D01*
X78777263Y-101046734D01*
X78828477Y-101129504D01*
X78893463Y-101169372D01*
X78987431Y-101208882D01*
X78987431Y-101106658D01*
X78958847Y-100958072D01*
X78874005Y-100821784D01*
X78829855Y-100776191D01*
X78729495Y-100717674D01*
X78601865Y-100691184D01*
X78469556Y-100698360D01*
G36*
X77483557Y-100695920D02*
X77350935Y-100744859D01*
X77243490Y-100831419D01*
X77201468Y-100892352D01*
X77155657Y-101004161D01*
X77156609Y-101085006D01*
X77204692Y-101139378D01*
X77222483Y-101148624D01*
X77299296Y-101177450D01*
X77338524Y-101170065D01*
X77351811Y-101121658D01*
X77352488Y-101094920D01*
X77376814Y-100996548D01*
X77440219Y-100927734D01*
X77528346Y-100894498D01*
X77626837Y-100902861D01*
X77706898Y-100946296D01*
X77733939Y-100971072D01*
X77753106Y-101001129D01*
X77766054Y-101046565D01*
X77774436Y-101117476D01*
X77779907Y-101223960D01*
X77784122Y-101376112D01*
X77785213Y-101424287D01*
X77789193Y-101589095D01*
X77793719Y-101705088D01*
X77800505Y-101781833D01*
X77811269Y-101828893D01*
X77827727Y-101855835D01*
X77851594Y-101872223D01*
X77866874Y-101879463D01*
X77931767Y-101904220D01*
X77969966Y-101912391D01*
X77982588Y-101885103D01*
X77990292Y-101802603D01*
X77993120Y-101663941D01*
X77991114Y-101468162D01*
X77990489Y-101437965D01*
X77986079Y-101259349D01*
X77980865Y-101128923D01*
X77973445Y-101036492D01*
X77962418Y-100971858D01*
X77946383Y-100924825D01*
X77923939Y-100885196D01*
X77912198Y-100868215D01*
X77844881Y-100793080D01*
X77769590Y-100734638D01*
X77760372Y-100729536D01*
X77625367Y-100689260D01*
X77483557Y-100695920D01*
X77483557Y-100695920D01*
G37*
X77483557Y-100695920D02*
X77350935Y-100744859D01*
X77243490Y-100831419D01*
X77201468Y-100892352D01*
X77155657Y-101004161D01*
X77156609Y-101085006D01*
X77204692Y-101139378D01*
X77222483Y-101148624D01*
X77299296Y-101177450D01*
X77338524Y-101170065D01*
X77351811Y-101121658D01*
X77352488Y-101094920D01*
X77376814Y-100996548D01*
X77440219Y-100927734D01*
X77528346Y-100894498D01*
X77626837Y-100902861D01*
X77706898Y-100946296D01*
X77733939Y-100971072D01*
X77753106Y-101001129D01*
X77766054Y-101046565D01*
X77774436Y-101117476D01*
X77779907Y-101223960D01*
X77784122Y-101376112D01*
X77785213Y-101424287D01*
X77789193Y-101589095D01*
X77793719Y-101705088D01*
X77800505Y-101781833D01*
X77811269Y-101828893D01*
X77827727Y-101855835D01*
X77851594Y-101872223D01*
X77866874Y-101879463D01*
X77931767Y-101904220D01*
X77969966Y-101912391D01*
X77982588Y-101885103D01*
X77990292Y-101802603D01*
X77993120Y-101663941D01*
X77991114Y-101468162D01*
X77990489Y-101437965D01*
X77986079Y-101259349D01*
X77980865Y-101128923D01*
X77973445Y-101036492D01*
X77962418Y-100971858D01*
X77946383Y-100924825D01*
X77923939Y-100885196D01*
X77912198Y-100868215D01*
X77844881Y-100793080D01*
X77769590Y-100734638D01*
X77760372Y-100729536D01*
X77625367Y-100689260D01*
X77483557Y-100695920D01*
G36*
X76155586Y-100928455D02*
X76155957Y-101146661D01*
X76157392Y-101314519D01*
X76160498Y-101440070D01*
X76165878Y-101531355D01*
X76174138Y-101596415D01*
X76185884Y-101643291D01*
X76201719Y-101680024D01*
X76213710Y-101700991D01*
X76313010Y-101814694D01*
X76438912Y-101885965D01*
X76578209Y-101911538D01*
X76717695Y-101888150D01*
X76800757Y-101846119D01*
X76887955Y-101773411D01*
X76947383Y-101684612D01*
X76983239Y-101568320D01*
X76999719Y-101413135D01*
X77002053Y-101299287D01*
X77001739Y-101291106D01*
X76797776Y-101291106D01*
X76796530Y-101421657D01*
X76790822Y-101508080D01*
X76777696Y-101564618D01*
X76754194Y-101605514D01*
X76726114Y-101636362D01*
X76631812Y-101695905D01*
X76530560Y-101700992D01*
X76434864Y-101651279D01*
X76427416Y-101644543D01*
X76395626Y-101609502D01*
X76375692Y-101567811D01*
X76364900Y-101505762D01*
X76360535Y-101409644D01*
X76359845Y-101303379D01*
X76361341Y-101169880D01*
X76367536Y-101080822D01*
X76380986Y-101022293D01*
X76404249Y-100980382D01*
X76423325Y-100958123D01*
X76511937Y-100901985D01*
X76613992Y-100895235D01*
X76711405Y-100938114D01*
X76730204Y-100954032D01*
X76762207Y-100989382D01*
X76782182Y-101031502D01*
X76792907Y-101094251D01*
X76797161Y-101191487D01*
X76797776Y-101291106D01*
X77001739Y-101291106D01*
X76994996Y-101115947D01*
X76971028Y-100978195D01*
X76925952Y-100874632D01*
X76855572Y-100793856D01*
X76800757Y-100752455D01*
X76701124Y-100707728D01*
X76585645Y-100686967D01*
X76478301Y-100692525D01*
X76418236Y-100714943D01*
X76394665Y-100721323D01*
X76379023Y-100697535D01*
X76368105Y-100633788D01*
X76359845Y-100536687D01*
X76350801Y-100428541D01*
X76338239Y-100363475D01*
X76315381Y-100326268D01*
X76275449Y-100301699D01*
X76250362Y-100290819D01*
X76155477Y-100251072D01*
X76155586Y-100928455D01*
X76155586Y-100928455D01*
G37*
X76155586Y-100928455D02*
X76155957Y-101146661D01*
X76157392Y-101314519D01*
X76160498Y-101440070D01*
X76165878Y-101531355D01*
X76174138Y-101596415D01*
X76185884Y-101643291D01*
X76201719Y-101680024D01*
X76213710Y-101700991D01*
X76313010Y-101814694D01*
X76438912Y-101885965D01*
X76578209Y-101911538D01*
X76717695Y-101888150D01*
X76800757Y-101846119D01*
X76887955Y-101773411D01*
X76947383Y-101684612D01*
X76983239Y-101568320D01*
X76999719Y-101413135D01*
X77002053Y-101299287D01*
X77001739Y-101291106D01*
X76797776Y-101291106D01*
X76796530Y-101421657D01*
X76790822Y-101508080D01*
X76777696Y-101564618D01*
X76754194Y-101605514D01*
X76726114Y-101636362D01*
X76631812Y-101695905D01*
X76530560Y-101700992D01*
X76434864Y-101651279D01*
X76427416Y-101644543D01*
X76395626Y-101609502D01*
X76375692Y-101567811D01*
X76364900Y-101505762D01*
X76360535Y-101409644D01*
X76359845Y-101303379D01*
X76361341Y-101169880D01*
X76367536Y-101080822D01*
X76380986Y-101022293D01*
X76404249Y-100980382D01*
X76423325Y-100958123D01*
X76511937Y-100901985D01*
X76613992Y-100895235D01*
X76711405Y-100938114D01*
X76730204Y-100954032D01*
X76762207Y-100989382D01*
X76782182Y-101031502D01*
X76792907Y-101094251D01*
X76797161Y-101191487D01*
X76797776Y-101291106D01*
X77001739Y-101291106D01*
X76994996Y-101115947D01*
X76971028Y-100978195D01*
X76925952Y-100874632D01*
X76855572Y-100793856D01*
X76800757Y-100752455D01*
X76701124Y-100707728D01*
X76585645Y-100686967D01*
X76478301Y-100692525D01*
X76418236Y-100714943D01*
X76394665Y-100721323D01*
X76379023Y-100697535D01*
X76368105Y-100633788D01*
X76359845Y-100536687D01*
X76350801Y-100428541D01*
X76338239Y-100363475D01*
X76315381Y-100326268D01*
X76275449Y-100301699D01*
X76250362Y-100290819D01*
X76155477Y-100251072D01*
X76155586Y-100928455D01*
G36*
X74969376Y-100713840D02*
X74964921Y-100790653D01*
X74961429Y-100907391D01*
X74959185Y-101054821D01*
X74958465Y-101209455D01*
X74958465Y-101732727D01*
X75050855Y-101825117D01*
X75114522Y-101882047D01*
X75170411Y-101905107D01*
X75246798Y-101903647D01*
X75277120Y-101899934D01*
X75371890Y-101889126D01*
X75450278Y-101882933D01*
X75469385Y-101882361D01*
X75533801Y-101886102D01*
X75625929Y-101895494D01*
X75661650Y-101899934D01*
X75749386Y-101906801D01*
X75808347Y-101891885D01*
X75866810Y-101845835D01*
X75887915Y-101825117D01*
X75980305Y-101732727D01*
X75980305Y-100753947D01*
X75905942Y-100720066D01*
X75841910Y-100694970D01*
X75804448Y-100686184D01*
X75794843Y-100713950D01*
X75785865Y-100791530D01*
X75778114Y-100910348D01*
X75772186Y-101061828D01*
X75769327Y-101189805D01*
X75761339Y-101693425D01*
X75691652Y-101703278D01*
X75628271Y-101696389D01*
X75597214Y-101674083D01*
X75588533Y-101632379D01*
X75581122Y-101543544D01*
X75575569Y-101418834D01*
X75572464Y-101269507D01*
X75572016Y-101192661D01*
X75571569Y-100750287D01*
X75479626Y-100718235D01*
X75414551Y-100696443D01*
X75379153Y-100686281D01*
X75378132Y-100686184D01*
X75374580Y-100713809D01*
X75370677Y-100790411D01*
X75366749Y-100906579D01*
X75363124Y-101052904D01*
X75360592Y-101189805D01*
X75352603Y-101693425D01*
X75177431Y-101693425D01*
X75169393Y-101233965D01*
X75161354Y-100774505D01*
X75075957Y-100730344D01*
X75012907Y-100700019D01*
X74975590Y-100686258D01*
X74974513Y-100686184D01*
X74969376Y-100713840D01*
X74969376Y-100713840D01*
G37*
X74969376Y-100713840D02*
X74964921Y-100790653D01*
X74961429Y-100907391D01*
X74959185Y-101054821D01*
X74958465Y-101209455D01*
X74958465Y-101732727D01*
X75050855Y-101825117D01*
X75114522Y-101882047D01*
X75170411Y-101905107D01*
X75246798Y-101903647D01*
X75277120Y-101899934D01*
X75371890Y-101889126D01*
X75450278Y-101882933D01*
X75469385Y-101882361D01*
X75533801Y-101886102D01*
X75625929Y-101895494D01*
X75661650Y-101899934D01*
X75749386Y-101906801D01*
X75808347Y-101891885D01*
X75866810Y-101845835D01*
X75887915Y-101825117D01*
X75980305Y-101732727D01*
X75980305Y-100753947D01*
X75905942Y-100720066D01*
X75841910Y-100694970D01*
X75804448Y-100686184D01*
X75794843Y-100713950D01*
X75785865Y-100791530D01*
X75778114Y-100910348D01*
X75772186Y-101061828D01*
X75769327Y-101189805D01*
X75761339Y-101693425D01*
X75691652Y-101703278D01*
X75628271Y-101696389D01*
X75597214Y-101674083D01*
X75588533Y-101632379D01*
X75581122Y-101543544D01*
X75575569Y-101418834D01*
X75572464Y-101269507D01*
X75572016Y-101192661D01*
X75571569Y-100750287D01*
X75479626Y-100718235D01*
X75414551Y-100696443D01*
X75379153Y-100686281D01*
X75378132Y-100686184D01*
X75374580Y-100713809D01*
X75370677Y-100790411D01*
X75366749Y-100906579D01*
X75363124Y-101052904D01*
X75360592Y-101189805D01*
X75352603Y-101693425D01*
X75177431Y-101693425D01*
X75169393Y-101233965D01*
X75161354Y-100774505D01*
X75075957Y-100730344D01*
X75012907Y-100700019D01*
X74975590Y-100686258D01*
X74974513Y-100686184D01*
X74969376Y-100713840D01*
G36*
X74235094Y-100709156D02*
X74151031Y-100747393D01*
X74085050Y-100793726D01*
X74036706Y-100845532D01*
X74003328Y-100912363D01*
X73982247Y-101003769D01*
X73970793Y-101129301D01*
X73966297Y-101298508D01*
X73965822Y-101409933D01*
X73965822Y-101844627D01*
X74040184Y-101878509D01*
X74098754Y-101903272D01*
X74127770Y-101912391D01*
X74133321Y-101885257D01*
X74137725Y-101812094D01*
X74140422Y-101705263D01*
X74140994Y-101620437D01*
X74143454Y-101497887D01*
X74150088Y-101400668D01*
X74159774Y-101341134D01*
X74167468Y-101328483D01*
X74219189Y-101341402D01*
X74300383Y-101374539D01*
X74394398Y-101419461D01*
X74484583Y-101467735D01*
X74554285Y-101510928D01*
X74586852Y-101540608D01*
X74586981Y-101540929D01*
X74584180Y-101595857D01*
X74559061Y-101648292D01*
X74514959Y-101690881D01*
X74450591Y-101705126D01*
X74395579Y-101703466D01*
X74317665Y-101702245D01*
X74276768Y-101720498D01*
X74252205Y-101768726D01*
X74249108Y-101777820D01*
X74238460Y-101846598D01*
X74266935Y-101888360D01*
X74341156Y-101908263D01*
X74421332Y-101911944D01*
X74565610Y-101884658D01*
X74640297Y-101845690D01*
X74732537Y-101754148D01*
X74781457Y-101641782D01*
X74785846Y-101523051D01*
X74744499Y-101412411D01*
X74682303Y-101343080D01*
X74620206Y-101304265D01*
X74522605Y-101255125D01*
X74408868Y-101205292D01*
X74389910Y-101197677D01*
X74264979Y-101142545D01*
X74192961Y-101093954D01*
X74169800Y-101045647D01*
X74191436Y-100991370D01*
X74228580Y-100948943D01*
X74316373Y-100896702D01*
X74412970Y-100892784D01*
X74501556Y-100933041D01*
X74565314Y-101013326D01*
X74573683Y-101034040D01*
X74622404Y-101110225D01*
X74693535Y-101166785D01*
X74783293Y-101213201D01*
X74783293Y-101081584D01*
X74778010Y-101001168D01*
X74755358Y-100937786D01*
X74705133Y-100870163D01*
X74656918Y-100818076D01*
X74581946Y-100744322D01*
X74523694Y-100704702D01*
X74461128Y-100688810D01*
X74390307Y-100686184D01*
X74235094Y-100709156D01*
X74235094Y-100709156D01*
G37*
X74235094Y-100709156D02*
X74151031Y-100747393D01*
X74085050Y-100793726D01*
X74036706Y-100845532D01*
X74003328Y-100912363D01*
X73982247Y-101003769D01*
X73970793Y-101129301D01*
X73966297Y-101298508D01*
X73965822Y-101409933D01*
X73965822Y-101844627D01*
X74040184Y-101878509D01*
X74098754Y-101903272D01*
X74127770Y-101912391D01*
X74133321Y-101885257D01*
X74137725Y-101812094D01*
X74140422Y-101705263D01*
X74140994Y-101620437D01*
X74143454Y-101497887D01*
X74150088Y-101400668D01*
X74159774Y-101341134D01*
X74167468Y-101328483D01*
X74219189Y-101341402D01*
X74300383Y-101374539D01*
X74394398Y-101419461D01*
X74484583Y-101467735D01*
X74554285Y-101510928D01*
X74586852Y-101540608D01*
X74586981Y-101540929D01*
X74584180Y-101595857D01*
X74559061Y-101648292D01*
X74514959Y-101690881D01*
X74450591Y-101705126D01*
X74395579Y-101703466D01*
X74317665Y-101702245D01*
X74276768Y-101720498D01*
X74252205Y-101768726D01*
X74249108Y-101777820D01*
X74238460Y-101846598D01*
X74266935Y-101888360D01*
X74341156Y-101908263D01*
X74421332Y-101911944D01*
X74565610Y-101884658D01*
X74640297Y-101845690D01*
X74732537Y-101754148D01*
X74781457Y-101641782D01*
X74785846Y-101523051D01*
X74744499Y-101412411D01*
X74682303Y-101343080D01*
X74620206Y-101304265D01*
X74522605Y-101255125D01*
X74408868Y-101205292D01*
X74389910Y-101197677D01*
X74264979Y-101142545D01*
X74192961Y-101093954D01*
X74169800Y-101045647D01*
X74191436Y-100991370D01*
X74228580Y-100948943D01*
X74316373Y-100896702D01*
X74412970Y-100892784D01*
X74501556Y-100933041D01*
X74565314Y-101013326D01*
X74573683Y-101034040D01*
X74622404Y-101110225D01*
X74693535Y-101166785D01*
X74783293Y-101213201D01*
X74783293Y-101081584D01*
X74778010Y-101001168D01*
X74755358Y-100937786D01*
X74705133Y-100870163D01*
X74656918Y-100818076D01*
X74581946Y-100744322D01*
X74523694Y-100704702D01*
X74461128Y-100688810D01*
X74390307Y-100686184D01*
X74235094Y-100709156D01*
G36*
X73213810Y-100714018D02*
X73178915Y-100729269D01*
X73095623Y-100795235D01*
X73024397Y-100890618D01*
X72980347Y-100992406D01*
X72973178Y-101042587D01*
X72997215Y-101112647D01*
X73049939Y-101149717D01*
X73106469Y-101172164D01*
X73132354Y-101176300D01*
X73144958Y-101146283D01*
X73169846Y-101080961D01*
X73180765Y-101051445D01*
X73241992Y-100949348D01*
X73330639Y-100898423D01*
X73444307Y-100899989D01*
X73452726Y-100901994D01*
X73513412Y-100930767D01*
X73558026Y-100986859D01*
X73588498Y-101077163D01*
X73606756Y-101208571D01*
X73614729Y-101387974D01*
X73615477Y-101483433D01*
X73615848Y-101633913D01*
X73618277Y-101736495D01*
X73624740Y-101801672D01*
X73637212Y-101839938D01*
X73657667Y-101861785D01*
X73688081Y-101877707D01*
X73689839Y-101878509D01*
X73748409Y-101903272D01*
X73777425Y-101912391D01*
X73781884Y-101884822D01*
X73785701Y-101808620D01*
X73788601Y-101693541D01*
X73790309Y-101549341D01*
X73790649Y-101443814D01*
X73788912Y-101239613D01*
X73782118Y-101084697D01*
X73767893Y-100970024D01*
X73743862Y-100886551D01*
X73707652Y-100825236D01*
X73656888Y-100777034D01*
X73606761Y-100743393D01*
X73486225Y-100698619D01*
X73345943Y-100688521D01*
X73213810Y-100714018D01*
X73213810Y-100714018D01*
G37*
X73213810Y-100714018D02*
X73178915Y-100729269D01*
X73095623Y-100795235D01*
X73024397Y-100890618D01*
X72980347Y-100992406D01*
X72973178Y-101042587D01*
X72997215Y-101112647D01*
X73049939Y-101149717D01*
X73106469Y-101172164D01*
X73132354Y-101176300D01*
X73144958Y-101146283D01*
X73169846Y-101080961D01*
X73180765Y-101051445D01*
X73241992Y-100949348D01*
X73330639Y-100898423D01*
X73444307Y-100899989D01*
X73452726Y-100901994D01*
X73513412Y-100930767D01*
X73558026Y-100986859D01*
X73588498Y-101077163D01*
X73606756Y-101208571D01*
X73614729Y-101387974D01*
X73615477Y-101483433D01*
X73615848Y-101633913D01*
X73618277Y-101736495D01*
X73624740Y-101801672D01*
X73637212Y-101839938D01*
X73657667Y-101861785D01*
X73688081Y-101877707D01*
X73689839Y-101878509D01*
X73748409Y-101903272D01*
X73777425Y-101912391D01*
X73781884Y-101884822D01*
X73785701Y-101808620D01*
X73788601Y-101693541D01*
X73790309Y-101549341D01*
X73790649Y-101443814D01*
X73788912Y-101239613D01*
X73782118Y-101084697D01*
X73767893Y-100970024D01*
X73743862Y-100886551D01*
X73707652Y-100825236D01*
X73656888Y-100777034D01*
X73606761Y-100743393D01*
X73486225Y-100698619D01*
X73345943Y-100688521D01*
X73213810Y-100714018D01*
G36*
X72206061Y-100730540D02*
X72090550Y-100806034D01*
X72034836Y-100873617D01*
X71990696Y-100996255D01*
X71987191Y-101093298D01*
X71995132Y-101223056D01*
X72294385Y-101354039D01*
X72439889Y-101420958D01*
X72534963Y-101474790D01*
X72584399Y-101521416D01*
X72592989Y-101566720D01*
X72565528Y-101616582D01*
X72535247Y-101649632D01*
X72447137Y-101702633D01*
X72351304Y-101706347D01*
X72263288Y-101665041D01*
X72198631Y-101582983D01*
X72187067Y-101554008D01*
X72131675Y-101463509D01*
X72067947Y-101424940D01*
X71980534Y-101391946D01*
X71980534Y-101517034D01*
X71988262Y-101602156D01*
X72018534Y-101673938D01*
X72081982Y-101756356D01*
X72091412Y-101767066D01*
X72161987Y-101840391D01*
X72222653Y-101879742D01*
X72298550Y-101897845D01*
X72361470Y-101903774D01*
X72474013Y-101905251D01*
X72554130Y-101886535D01*
X72604110Y-101858747D01*
X72682662Y-101797641D01*
X72737037Y-101731554D01*
X72771448Y-101648441D01*
X72790112Y-101536254D01*
X72797244Y-101382946D01*
X72797813Y-101305136D01*
X72795878Y-101211853D01*
X72619601Y-101211853D01*
X72617556Y-101261896D01*
X72612461Y-101270092D01*
X72578834Y-101258958D01*
X72506470Y-101229493D01*
X72409753Y-101187601D01*
X72389527Y-101178597D01*
X72267297Y-101116442D01*
X72199953Y-101061815D01*
X72185152Y-101010649D01*
X72220553Y-100958876D01*
X72249789Y-100936000D01*
X72355284Y-100890250D01*
X72454024Y-100897808D01*
X72536688Y-100953651D01*
X72593952Y-101052753D01*
X72612312Y-101131414D01*
X72619601Y-101211853D01*
X72795878Y-101211853D01*
X72794041Y-101123351D01*
X72780141Y-100988853D01*
X72752606Y-100890916D01*
X72707928Y-100818811D01*
X72642599Y-100761813D01*
X72614117Y-100743393D01*
X72484737Y-100695422D01*
X72343088Y-100692403D01*
X72206061Y-100730540D01*
X72206061Y-100730540D01*
G37*
X72206061Y-100730540D02*
X72090550Y-100806034D01*
X72034836Y-100873617D01*
X71990696Y-100996255D01*
X71987191Y-101093298D01*
X71995132Y-101223056D01*
X72294385Y-101354039D01*
X72439889Y-101420958D01*
X72534963Y-101474790D01*
X72584399Y-101521416D01*
X72592989Y-101566720D01*
X72565528Y-101616582D01*
X72535247Y-101649632D01*
X72447137Y-101702633D01*
X72351304Y-101706347D01*
X72263288Y-101665041D01*
X72198631Y-101582983D01*
X72187067Y-101554008D01*
X72131675Y-101463509D01*
X72067947Y-101424940D01*
X71980534Y-101391946D01*
X71980534Y-101517034D01*
X71988262Y-101602156D01*
X72018534Y-101673938D01*
X72081982Y-101756356D01*
X72091412Y-101767066D01*
X72161987Y-101840391D01*
X72222653Y-101879742D01*
X72298550Y-101897845D01*
X72361470Y-101903774D01*
X72474013Y-101905251D01*
X72554130Y-101886535D01*
X72604110Y-101858747D01*
X72682662Y-101797641D01*
X72737037Y-101731554D01*
X72771448Y-101648441D01*
X72790112Y-101536254D01*
X72797244Y-101382946D01*
X72797813Y-101305136D01*
X72795878Y-101211853D01*
X72619601Y-101211853D01*
X72617556Y-101261896D01*
X72612461Y-101270092D01*
X72578834Y-101258958D01*
X72506470Y-101229493D01*
X72409753Y-101187601D01*
X72389527Y-101178597D01*
X72267297Y-101116442D01*
X72199953Y-101061815D01*
X72185152Y-101010649D01*
X72220553Y-100958876D01*
X72249789Y-100936000D01*
X72355284Y-100890250D01*
X72454024Y-100897808D01*
X72536688Y-100953651D01*
X72593952Y-101052753D01*
X72612312Y-101131414D01*
X72619601Y-101211853D01*
X72795878Y-101211853D01*
X72794041Y-101123351D01*
X72780141Y-100988853D01*
X72752606Y-100890916D01*
X72707928Y-100818811D01*
X72642599Y-100761813D01*
X72614117Y-100743393D01*
X72484737Y-100695422D01*
X72343088Y-100692403D01*
X72206061Y-100730540D01*
G36*
X78340486Y-91226998D02*
X78182494Y-91227863D01*
X78068153Y-91230205D01*
X77990093Y-91234762D01*
X77940946Y-91242270D01*
X77913341Y-91253466D01*
X77899908Y-91269088D01*
X77893279Y-91289873D01*
X77892635Y-91292563D01*
X77882565Y-91341113D01*
X77863925Y-91436905D01*
X77838655Y-91569743D01*
X77808693Y-91729431D01*
X77775978Y-91905774D01*
X77774836Y-91911967D01*
X77742067Y-92084782D01*
X77711407Y-92237469D01*
X77684836Y-92360871D01*
X77664333Y-92445831D01*
X77651874Y-92483190D01*
X77651280Y-92483852D01*
X77614581Y-92502095D01*
X77538914Y-92532497D01*
X77440622Y-92568493D01*
X77440075Y-92568685D01*
X77316267Y-92615222D01*
X77170304Y-92674504D01*
X77032719Y-92734109D01*
X77026207Y-92737056D01*
X76802110Y-92838765D01*
X76305881Y-92499897D01*
X76153654Y-92396592D01*
X76015759Y-92304237D01*
X75900185Y-92228084D01*
X75814921Y-92173385D01*
X75767956Y-92145393D01*
X75763496Y-92143317D01*
X75729366Y-92152560D01*
X75665619Y-92197156D01*
X75569769Y-92279209D01*
X75439331Y-92400821D01*
X75306172Y-92530205D01*
X75177806Y-92657702D01*
X75062919Y-92774046D01*
X74968427Y-92872052D01*
X74901247Y-92944536D01*
X74868294Y-92984313D01*
X74867068Y-92986361D01*
X74863426Y-93013656D01*
X74877150Y-93058234D01*
X74911631Y-93126112D01*
X74970261Y-93223311D01*
X75056430Y-93355851D01*
X75171300Y-93526476D01*
X75273246Y-93676655D01*
X75364377Y-93811350D01*
X75439427Y-93922740D01*
X75493131Y-94003005D01*
X75520220Y-94044325D01*
X75521926Y-94047130D01*
X75518618Y-94086721D01*
X75493547Y-94163669D01*
X75451702Y-94263432D01*
X75436788Y-94295291D01*
X75371714Y-94437226D01*
X75302288Y-94598273D01*
X75245891Y-94737621D01*
X75205253Y-94841044D01*
X75172974Y-94919642D01*
X75154322Y-94960720D01*
X75152003Y-94963885D01*
X75117697Y-94969128D01*
X75036831Y-94983494D01*
X74920157Y-95004937D01*
X74778425Y-95031413D01*
X74622390Y-95060877D01*
X74462802Y-95091283D01*
X74310415Y-95120588D01*
X74175979Y-95146745D01*
X74070248Y-95167710D01*
X74003974Y-95181439D01*
X73987718Y-95185320D01*
X73970927Y-95194900D01*
X73958251Y-95216536D01*
X73949122Y-95257531D01*
X73942969Y-95325189D01*
X73939220Y-95426812D01*
X73937308Y-95569703D01*
X73936660Y-95761165D01*
X73936626Y-95839645D01*
X73936626Y-96477906D01*
X74089902Y-96508160D01*
X74175178Y-96524564D01*
X74302430Y-96548509D01*
X74456185Y-96577107D01*
X74620966Y-96607467D01*
X74666511Y-96615806D01*
X74818568Y-96645370D01*
X74951032Y-96674442D01*
X75052786Y-96700329D01*
X75112712Y-96720337D01*
X75122695Y-96726301D01*
X75147207Y-96768534D01*
X75182352Y-96850370D01*
X75221327Y-96955683D01*
X75229058Y-96978368D01*
X75280140Y-97119018D01*
X75343546Y-97277714D01*
X75405596Y-97420225D01*
X75405902Y-97420886D01*
X75509233Y-97644440D01*
X74829539Y-98644232D01*
X75265879Y-99081300D01*
X75397851Y-99211381D01*
X75518221Y-99326048D01*
X75620227Y-99419181D01*
X75697109Y-99484658D01*
X75742107Y-99516357D01*
X75748562Y-99518368D01*
X75786460Y-99502529D01*
X75863792Y-99458496D01*
X75972111Y-99391490D01*
X76102968Y-99306734D01*
X76244448Y-99211816D01*
X76388039Y-99114998D01*
X76516065Y-99030751D01*
X76620395Y-98964258D01*
X76692900Y-98920702D01*
X76725342Y-98905264D01*
X76764924Y-98918328D01*
X76839981Y-98952750D01*
X76935032Y-99001380D01*
X76945108Y-99006785D01*
X77073109Y-99070980D01*
X77160882Y-99102463D01*
X77215472Y-99102798D01*
X77243925Y-99073548D01*
X77244090Y-99073138D01*
X77258312Y-99038498D01*
X77292231Y-98956269D01*
X77343216Y-98832814D01*
X77408638Y-98674498D01*
X77485866Y-98487686D01*
X77572271Y-98278742D01*
X77655949Y-98076446D01*
X77747912Y-97853200D01*
X77832350Y-97646392D01*
X77906731Y-97462362D01*
X77968526Y-97307451D01*
X78015203Y-97187996D01*
X78044232Y-97110339D01*
X78053178Y-97081356D01*
X78030744Y-97048110D01*
X77972061Y-96995123D01*
X77893811Y-96936704D01*
X77670966Y-96751952D01*
X77496782Y-96540182D01*
X77373346Y-96305856D01*
X77302746Y-96053434D01*
X77287069Y-95787377D01*
X77298464Y-95664575D01*
X77360550Y-95409793D01*
X77467477Y-95184801D01*
X77612611Y-94991817D01*
X77789322Y-94833061D01*
X77990978Y-94710750D01*
X78210946Y-94627105D01*
X78442594Y-94584344D01*
X78679291Y-94584687D01*
X78914405Y-94630352D01*
X79141304Y-94723559D01*
X79353356Y-94866527D01*
X79441864Y-94947383D01*
X79611611Y-95155007D01*
X79729801Y-95381895D01*
X79797222Y-95621433D01*
X79814660Y-95867007D01*
X79782902Y-96112003D01*
X79702735Y-96349808D01*
X79574945Y-96573807D01*
X79400320Y-96777387D01*
X79205188Y-96936704D01*
X79123909Y-96997602D01*
X79066491Y-97050015D01*
X79045822Y-97081406D01*
X79056644Y-97115639D01*
X79087423Y-97197419D01*
X79135626Y-97320407D01*
X79198722Y-97478263D01*
X79274178Y-97664649D01*
X79359462Y-97873226D01*
X79443281Y-98076496D01*
X79535755Y-98299933D01*
X79621411Y-98506984D01*
X79697618Y-98691286D01*
X79761747Y-98846475D01*
X79811168Y-98966188D01*
X79843252Y-99044061D01*
X79855141Y-99073138D01*
X79883226Y-99102677D01*
X79937551Y-99102591D01*
X80025105Y-99071326D01*
X80152881Y-99007329D01*
X80153892Y-99006785D01*
X80250098Y-98957121D01*
X80327869Y-98920945D01*
X80371723Y-98905408D01*
X80373658Y-98905264D01*
X80406671Y-98921024D01*
X80479554Y-98964850D01*
X80584178Y-99031557D01*
X80712410Y-99115964D01*
X80854552Y-99211816D01*
X80999267Y-99308867D01*
X81129696Y-99393270D01*
X81237390Y-99459801D01*
X81313902Y-99503238D01*
X81350438Y-99518368D01*
X81384082Y-99498482D01*
X81451724Y-99442903D01*
X81546607Y-99357754D01*
X81661970Y-99249153D01*
X81791055Y-99123221D01*
X81833271Y-99081149D01*
X82269761Y-98643931D01*
X81937523Y-98156340D01*
X81836554Y-98006605D01*
X81747938Y-97872220D01*
X81676646Y-97760969D01*
X81627650Y-97680639D01*
X81605922Y-97639014D01*
X81605285Y-97636053D01*
X81616740Y-97596818D01*
X81647551Y-97517895D01*
X81692384Y-97412509D01*
X81723853Y-97341954D01*
X81782692Y-97206876D01*
X81838104Y-97070409D01*
X81881064Y-96955103D01*
X81892734Y-96919977D01*
X81925889Y-96826174D01*
X81958299Y-96753694D01*
X81976101Y-96726301D01*
X82015386Y-96709536D01*
X82101126Y-96685770D01*
X82222197Y-96657697D01*
X82367473Y-96628009D01*
X82432488Y-96615806D01*
X82597587Y-96585468D01*
X82755948Y-96556093D01*
X82892096Y-96530569D01*
X82990557Y-96511785D01*
X83009098Y-96508160D01*
X83162373Y-96477906D01*
X83162373Y-95839645D01*
X83162029Y-95629770D01*
X83160616Y-95470980D01*
X83157564Y-95355973D01*
X83152303Y-95277446D01*
X83144263Y-95228096D01*
X83132873Y-95200619D01*
X83117563Y-95187713D01*
X83111282Y-95185320D01*
X83073396Y-95176833D01*
X82989695Y-95159900D01*
X82870933Y-95136566D01*
X82727861Y-95108875D01*
X82571232Y-95078873D01*
X82411797Y-95048604D01*
X82260309Y-95020115D01*
X82127519Y-94995449D01*
X82024181Y-94976651D01*
X81961045Y-94965767D01*
X81946997Y-94963885D01*
X81934270Y-94938704D01*
X81906100Y-94871622D01*
X81867752Y-94775333D01*
X81853109Y-94737621D01*
X81794048Y-94591921D01*
X81724500Y-94430951D01*
X81662212Y-94295291D01*
X81616379Y-94191561D01*
X81585887Y-94106326D01*
X81575708Y-94054126D01*
X81577331Y-94047130D01*
X81598843Y-94014102D01*
X81647965Y-93940643D01*
X81719423Y-93834577D01*
X81807945Y-93703726D01*
X81908259Y-93555912D01*
X81928094Y-93526734D01*
X82044488Y-93353863D01*
X82130048Y-93222226D01*
X82188184Y-93125761D01*
X82222308Y-93058408D01*
X82235831Y-93014106D01*
X82232164Y-92986794D01*
X82232070Y-92986620D01*
X82203207Y-92950746D01*
X82139367Y-92881391D01*
X82047469Y-92785745D01*
X81934433Y-92670999D01*
X81807179Y-92544341D01*
X81792828Y-92530205D01*
X81632457Y-92374903D01*
X81508695Y-92260870D01*
X81419055Y-92186002D01*
X81361052Y-92148196D01*
X81335504Y-92143317D01*
X81298218Y-92164603D01*
X81220843Y-92213773D01*
X81111367Y-92285575D01*
X80977780Y-92374755D01*
X80828070Y-92476063D01*
X80793118Y-92499897D01*
X80296890Y-92838765D01*
X80072793Y-92737056D01*
X79936511Y-92677783D01*
X79790224Y-92618170D01*
X79664465Y-92570640D01*
X79658925Y-92568685D01*
X79560557Y-92532677D01*
X79484729Y-92502229D01*
X79447782Y-92483905D01*
X79447720Y-92483852D01*
X79435996Y-92450729D01*
X79416068Y-92369267D01*
X79389913Y-92248625D01*
X79359510Y-92097959D01*
X79326837Y-91926428D01*
X79324164Y-91911967D01*
X79291390Y-91735235D01*
X79261302Y-91574810D01*
X79235839Y-91440888D01*
X79216941Y-91343663D01*
X79206547Y-91293332D01*
X79206365Y-91292563D01*
X79200039Y-91271153D01*
X79187739Y-91254988D01*
X79162094Y-91243331D01*
X79115735Y-91235445D01*
X79041292Y-91230593D01*
X78931395Y-91228039D01*
X78778675Y-91227045D01*
X78575762Y-91226874D01*
X78549500Y-91226874D01*
X78340486Y-91226998D01*
X78340486Y-91226998D01*
G37*
X78340486Y-91226998D02*
X78182494Y-91227863D01*
X78068153Y-91230205D01*
X77990093Y-91234762D01*
X77940946Y-91242270D01*
X77913341Y-91253466D01*
X77899908Y-91269088D01*
X77893279Y-91289873D01*
X77892635Y-91292563D01*
X77882565Y-91341113D01*
X77863925Y-91436905D01*
X77838655Y-91569743D01*
X77808693Y-91729431D01*
X77775978Y-91905774D01*
X77774836Y-91911967D01*
X77742067Y-92084782D01*
X77711407Y-92237469D01*
X77684836Y-92360871D01*
X77664333Y-92445831D01*
X77651874Y-92483190D01*
X77651280Y-92483852D01*
X77614581Y-92502095D01*
X77538914Y-92532497D01*
X77440622Y-92568493D01*
X77440075Y-92568685D01*
X77316267Y-92615222D01*
X77170304Y-92674504D01*
X77032719Y-92734109D01*
X77026207Y-92737056D01*
X76802110Y-92838765D01*
X76305881Y-92499897D01*
X76153654Y-92396592D01*
X76015759Y-92304237D01*
X75900185Y-92228084D01*
X75814921Y-92173385D01*
X75767956Y-92145393D01*
X75763496Y-92143317D01*
X75729366Y-92152560D01*
X75665619Y-92197156D01*
X75569769Y-92279209D01*
X75439331Y-92400821D01*
X75306172Y-92530205D01*
X75177806Y-92657702D01*
X75062919Y-92774046D01*
X74968427Y-92872052D01*
X74901247Y-92944536D01*
X74868294Y-92984313D01*
X74867068Y-92986361D01*
X74863426Y-93013656D01*
X74877150Y-93058234D01*
X74911631Y-93126112D01*
X74970261Y-93223311D01*
X75056430Y-93355851D01*
X75171300Y-93526476D01*
X75273246Y-93676655D01*
X75364377Y-93811350D01*
X75439427Y-93922740D01*
X75493131Y-94003005D01*
X75520220Y-94044325D01*
X75521926Y-94047130D01*
X75518618Y-94086721D01*
X75493547Y-94163669D01*
X75451702Y-94263432D01*
X75436788Y-94295291D01*
X75371714Y-94437226D01*
X75302288Y-94598273D01*
X75245891Y-94737621D01*
X75205253Y-94841044D01*
X75172974Y-94919642D01*
X75154322Y-94960720D01*
X75152003Y-94963885D01*
X75117697Y-94969128D01*
X75036831Y-94983494D01*
X74920157Y-95004937D01*
X74778425Y-95031413D01*
X74622390Y-95060877D01*
X74462802Y-95091283D01*
X74310415Y-95120588D01*
X74175979Y-95146745D01*
X74070248Y-95167710D01*
X74003974Y-95181439D01*
X73987718Y-95185320D01*
X73970927Y-95194900D01*
X73958251Y-95216536D01*
X73949122Y-95257531D01*
X73942969Y-95325189D01*
X73939220Y-95426812D01*
X73937308Y-95569703D01*
X73936660Y-95761165D01*
X73936626Y-95839645D01*
X73936626Y-96477906D01*
X74089902Y-96508160D01*
X74175178Y-96524564D01*
X74302430Y-96548509D01*
X74456185Y-96577107D01*
X74620966Y-96607467D01*
X74666511Y-96615806D01*
X74818568Y-96645370D01*
X74951032Y-96674442D01*
X75052786Y-96700329D01*
X75112712Y-96720337D01*
X75122695Y-96726301D01*
X75147207Y-96768534D01*
X75182352Y-96850370D01*
X75221327Y-96955683D01*
X75229058Y-96978368D01*
X75280140Y-97119018D01*
X75343546Y-97277714D01*
X75405596Y-97420225D01*
X75405902Y-97420886D01*
X75509233Y-97644440D01*
X74829539Y-98644232D01*
X75265879Y-99081300D01*
X75397851Y-99211381D01*
X75518221Y-99326048D01*
X75620227Y-99419181D01*
X75697109Y-99484658D01*
X75742107Y-99516357D01*
X75748562Y-99518368D01*
X75786460Y-99502529D01*
X75863792Y-99458496D01*
X75972111Y-99391490D01*
X76102968Y-99306734D01*
X76244448Y-99211816D01*
X76388039Y-99114998D01*
X76516065Y-99030751D01*
X76620395Y-98964258D01*
X76692900Y-98920702D01*
X76725342Y-98905264D01*
X76764924Y-98918328D01*
X76839981Y-98952750D01*
X76935032Y-99001380D01*
X76945108Y-99006785D01*
X77073109Y-99070980D01*
X77160882Y-99102463D01*
X77215472Y-99102798D01*
X77243925Y-99073548D01*
X77244090Y-99073138D01*
X77258312Y-99038498D01*
X77292231Y-98956269D01*
X77343216Y-98832814D01*
X77408638Y-98674498D01*
X77485866Y-98487686D01*
X77572271Y-98278742D01*
X77655949Y-98076446D01*
X77747912Y-97853200D01*
X77832350Y-97646392D01*
X77906731Y-97462362D01*
X77968526Y-97307451D01*
X78015203Y-97187996D01*
X78044232Y-97110339D01*
X78053178Y-97081356D01*
X78030744Y-97048110D01*
X77972061Y-96995123D01*
X77893811Y-96936704D01*
X77670966Y-96751952D01*
X77496782Y-96540182D01*
X77373346Y-96305856D01*
X77302746Y-96053434D01*
X77287069Y-95787377D01*
X77298464Y-95664575D01*
X77360550Y-95409793D01*
X77467477Y-95184801D01*
X77612611Y-94991817D01*
X77789322Y-94833061D01*
X77990978Y-94710750D01*
X78210946Y-94627105D01*
X78442594Y-94584344D01*
X78679291Y-94584687D01*
X78914405Y-94630352D01*
X79141304Y-94723559D01*
X79353356Y-94866527D01*
X79441864Y-94947383D01*
X79611611Y-95155007D01*
X79729801Y-95381895D01*
X79797222Y-95621433D01*
X79814660Y-95867007D01*
X79782902Y-96112003D01*
X79702735Y-96349808D01*
X79574945Y-96573807D01*
X79400320Y-96777387D01*
X79205188Y-96936704D01*
X79123909Y-96997602D01*
X79066491Y-97050015D01*
X79045822Y-97081406D01*
X79056644Y-97115639D01*
X79087423Y-97197419D01*
X79135626Y-97320407D01*
X79198722Y-97478263D01*
X79274178Y-97664649D01*
X79359462Y-97873226D01*
X79443281Y-98076496D01*
X79535755Y-98299933D01*
X79621411Y-98506984D01*
X79697618Y-98691286D01*
X79761747Y-98846475D01*
X79811168Y-98966188D01*
X79843252Y-99044061D01*
X79855141Y-99073138D01*
X79883226Y-99102677D01*
X79937551Y-99102591D01*
X80025105Y-99071326D01*
X80152881Y-99007329D01*
X80153892Y-99006785D01*
X80250098Y-98957121D01*
X80327869Y-98920945D01*
X80371723Y-98905408D01*
X80373658Y-98905264D01*
X80406671Y-98921024D01*
X80479554Y-98964850D01*
X80584178Y-99031557D01*
X80712410Y-99115964D01*
X80854552Y-99211816D01*
X80999267Y-99308867D01*
X81129696Y-99393270D01*
X81237390Y-99459801D01*
X81313902Y-99503238D01*
X81350438Y-99518368D01*
X81384082Y-99498482D01*
X81451724Y-99442903D01*
X81546607Y-99357754D01*
X81661970Y-99249153D01*
X81791055Y-99123221D01*
X81833271Y-99081149D01*
X82269761Y-98643931D01*
X81937523Y-98156340D01*
X81836554Y-98006605D01*
X81747938Y-97872220D01*
X81676646Y-97760969D01*
X81627650Y-97680639D01*
X81605922Y-97639014D01*
X81605285Y-97636053D01*
X81616740Y-97596818D01*
X81647551Y-97517895D01*
X81692384Y-97412509D01*
X81723853Y-97341954D01*
X81782692Y-97206876D01*
X81838104Y-97070409D01*
X81881064Y-96955103D01*
X81892734Y-96919977D01*
X81925889Y-96826174D01*
X81958299Y-96753694D01*
X81976101Y-96726301D01*
X82015386Y-96709536D01*
X82101126Y-96685770D01*
X82222197Y-96657697D01*
X82367473Y-96628009D01*
X82432488Y-96615806D01*
X82597587Y-96585468D01*
X82755948Y-96556093D01*
X82892096Y-96530569D01*
X82990557Y-96511785D01*
X83009098Y-96508160D01*
X83162373Y-96477906D01*
X83162373Y-95839645D01*
X83162029Y-95629770D01*
X83160616Y-95470980D01*
X83157564Y-95355973D01*
X83152303Y-95277446D01*
X83144263Y-95228096D01*
X83132873Y-95200619D01*
X83117563Y-95187713D01*
X83111282Y-95185320D01*
X83073396Y-95176833D01*
X82989695Y-95159900D01*
X82870933Y-95136566D01*
X82727861Y-95108875D01*
X82571232Y-95078873D01*
X82411797Y-95048604D01*
X82260309Y-95020115D01*
X82127519Y-94995449D01*
X82024181Y-94976651D01*
X81961045Y-94965767D01*
X81946997Y-94963885D01*
X81934270Y-94938704D01*
X81906100Y-94871622D01*
X81867752Y-94775333D01*
X81853109Y-94737621D01*
X81794048Y-94591921D01*
X81724500Y-94430951D01*
X81662212Y-94295291D01*
X81616379Y-94191561D01*
X81585887Y-94106326D01*
X81575708Y-94054126D01*
X81577331Y-94047130D01*
X81598843Y-94014102D01*
X81647965Y-93940643D01*
X81719423Y-93834577D01*
X81807945Y-93703726D01*
X81908259Y-93555912D01*
X81928094Y-93526734D01*
X82044488Y-93353863D01*
X82130048Y-93222226D01*
X82188184Y-93125761D01*
X82222308Y-93058408D01*
X82235831Y-93014106D01*
X82232164Y-92986794D01*
X82232070Y-92986620D01*
X82203207Y-92950746D01*
X82139367Y-92881391D01*
X82047469Y-92785745D01*
X81934433Y-92670999D01*
X81807179Y-92544341D01*
X81792828Y-92530205D01*
X81632457Y-92374903D01*
X81508695Y-92260870D01*
X81419055Y-92186002D01*
X81361052Y-92148196D01*
X81335504Y-92143317D01*
X81298218Y-92164603D01*
X81220843Y-92213773D01*
X81111367Y-92285575D01*
X80977780Y-92374755D01*
X80828070Y-92476063D01*
X80793118Y-92499897D01*
X80296890Y-92838765D01*
X80072793Y-92737056D01*
X79936511Y-92677783D01*
X79790224Y-92618170D01*
X79664465Y-92570640D01*
X79658925Y-92568685D01*
X79560557Y-92532677D01*
X79484729Y-92502229D01*
X79447782Y-92483905D01*
X79447720Y-92483852D01*
X79435996Y-92450729D01*
X79416068Y-92369267D01*
X79389913Y-92248625D01*
X79359510Y-92097959D01*
X79326837Y-91926428D01*
X79324164Y-91911967D01*
X79291390Y-91735235D01*
X79261302Y-91574810D01*
X79235839Y-91440888D01*
X79216941Y-91343663D01*
X79206547Y-91293332D01*
X79206365Y-91292563D01*
X79200039Y-91271153D01*
X79187739Y-91254988D01*
X79162094Y-91243331D01*
X79115735Y-91235445D01*
X79041292Y-91230593D01*
X78931395Y-91228039D01*
X78778675Y-91227045D01*
X78575762Y-91226874D01*
X78549500Y-91226874D01*
X78340486Y-91226998D01*
D13*
X61407881Y-89400143D02*
X60931690Y-89066809D01*
X61407881Y-88828714D02*
X60407881Y-88828714D01*
X60407881Y-89209667D01*
X60455500Y-89304905D01*
X60503119Y-89352524D01*
X60598357Y-89400143D01*
X60741214Y-89400143D01*
X60836452Y-89352524D01*
X60884071Y-89304905D01*
X60931690Y-89209667D01*
X60931690Y-88828714D01*
X61407881Y-90352524D02*
X61407881Y-89781095D01*
X61407881Y-90066809D02*
X60407881Y-90066809D01*
X60550738Y-89971571D01*
X60645976Y-89876333D01*
X60693595Y-89781095D01*
X60407881Y-90685857D02*
X60407881Y-91304905D01*
X60788833Y-90971571D01*
X60788833Y-91114429D01*
X60836452Y-91209667D01*
X60884071Y-91257286D01*
X60979310Y-91304905D01*
X61217405Y-91304905D01*
X61312643Y-91257286D01*
X61360262Y-91209667D01*
X61407881Y-91114429D01*
X61407881Y-90828714D01*
X61360262Y-90733476D01*
X61312643Y-90685857D01*
X56776857Y-104469881D02*
X57110191Y-103993690D01*
X57348286Y-104469881D02*
X57348286Y-103469881D01*
X56967333Y-103469881D01*
X56872095Y-103517500D01*
X56824476Y-103565119D01*
X56776857Y-103660357D01*
X56776857Y-103803214D01*
X56824476Y-103898452D01*
X56872095Y-103946071D01*
X56967333Y-103993690D01*
X57348286Y-103993690D01*
X55824476Y-104469881D02*
X56395905Y-104469881D01*
X56110191Y-104469881D02*
X56110191Y-103469881D01*
X56205429Y-103612738D01*
X56300667Y-103707976D01*
X56395905Y-103755595D01*
X55443524Y-103565119D02*
X55395905Y-103517500D01*
X55300667Y-103469881D01*
X55062571Y-103469881D01*
X54967333Y-103517500D01*
X54919714Y-103565119D01*
X54872095Y-103660357D01*
X54872095Y-103755595D01*
X54919714Y-103898452D01*
X55491143Y-104469881D01*
X54872095Y-104469881D01*
X34289905Y-88161881D02*
X34289905Y-88971405D01*
X34242286Y-89066643D01*
X34194667Y-89114262D01*
X34099429Y-89161881D01*
X33908952Y-89161881D01*
X33813714Y-89114262D01*
X33766095Y-89066643D01*
X33718476Y-88971405D01*
X33718476Y-88161881D01*
X33337524Y-88161881D02*
X32718476Y-88161881D01*
X33051810Y-88542833D01*
X32908952Y-88542833D01*
X32813714Y-88590452D01*
X32766095Y-88638071D01*
X32718476Y-88733310D01*
X32718476Y-88971405D01*
X32766095Y-89066643D01*
X32813714Y-89114262D01*
X32908952Y-89161881D01*
X33194667Y-89161881D01*
X33289905Y-89114262D01*
X33337524Y-89066643D01*
X38829786Y-90685881D02*
X38829786Y-89685881D01*
X38496452Y-90400167D01*
X38163119Y-89685881D01*
X38163119Y-90685881D01*
X37115500Y-90590643D02*
X37163119Y-90638262D01*
X37305976Y-90685881D01*
X37401214Y-90685881D01*
X37544072Y-90638262D01*
X37639310Y-90543024D01*
X37686929Y-90447786D01*
X37734548Y-90257310D01*
X37734548Y-90114452D01*
X37686929Y-89923976D01*
X37639310Y-89828738D01*
X37544072Y-89733500D01*
X37401214Y-89685881D01*
X37305976Y-89685881D01*
X37163119Y-89733500D01*
X37115500Y-89781119D01*
X36686929Y-90685881D02*
X36686929Y-89685881D01*
X36305976Y-89685881D01*
X36210738Y-89733500D01*
X36163119Y-89781119D01*
X36115500Y-89876357D01*
X36115500Y-90019214D01*
X36163119Y-90114452D01*
X36210738Y-90162071D01*
X36305976Y-90209690D01*
X36686929Y-90209690D01*
X35782167Y-89685881D02*
X35115500Y-89685881D01*
X35544072Y-90685881D01*
X34829786Y-89685881D02*
X34210738Y-89685881D01*
X34544072Y-90066833D01*
X34401214Y-90066833D01*
X34305976Y-90114452D01*
X34258357Y-90162071D01*
X34210738Y-90257310D01*
X34210738Y-90495405D01*
X34258357Y-90590643D01*
X34305976Y-90638262D01*
X34401214Y-90685881D01*
X34686929Y-90685881D01*
X34782167Y-90638262D01*
X34829786Y-90590643D01*
X33639310Y-90114452D02*
X33734548Y-90066833D01*
X33782167Y-90019214D01*
X33829786Y-89923976D01*
X33829786Y-89876357D01*
X33782167Y-89781119D01*
X33734548Y-89733500D01*
X33639310Y-89685881D01*
X33448833Y-89685881D01*
X33353595Y-89733500D01*
X33305976Y-89781119D01*
X33258357Y-89876357D01*
X33258357Y-89923976D01*
X33305976Y-90019214D01*
X33353595Y-90066833D01*
X33448833Y-90114452D01*
X33639310Y-90114452D01*
X33734548Y-90162071D01*
X33782167Y-90209690D01*
X33829786Y-90304929D01*
X33829786Y-90495405D01*
X33782167Y-90590643D01*
X33734548Y-90638262D01*
X33639310Y-90685881D01*
X33448833Y-90685881D01*
X33353595Y-90638262D01*
X33305976Y-90590643D01*
X33258357Y-90495405D01*
X33258357Y-90304929D01*
X33305976Y-90209690D01*
X33353595Y-90162071D01*
X33448833Y-90114452D01*
X32925024Y-89685881D02*
X32305976Y-89685881D01*
X32639310Y-90066833D01*
X32496452Y-90066833D01*
X32401214Y-90114452D01*
X32353595Y-90162071D01*
X32305976Y-90257310D01*
X32305976Y-90495405D01*
X32353595Y-90590643D01*
X32401214Y-90638262D01*
X32496452Y-90685881D01*
X32782167Y-90685881D01*
X32877405Y-90638262D01*
X32925024Y-90590643D01*
X31353595Y-90685881D02*
X31925024Y-90685881D01*
X31639310Y-90685881D02*
X31639310Y-89685881D01*
X31734548Y-89828738D01*
X31829786Y-89923976D01*
X31925024Y-89971595D01*
X29844905Y-77493881D02*
X29844905Y-78303405D01*
X29797286Y-78398643D01*
X29749667Y-78446262D01*
X29654429Y-78493881D01*
X29463952Y-78493881D01*
X29368714Y-78446262D01*
X29321095Y-78398643D01*
X29273476Y-78303405D01*
X29273476Y-77493881D01*
X28844905Y-77589119D02*
X28797286Y-77541500D01*
X28702048Y-77493881D01*
X28463952Y-77493881D01*
X28368714Y-77541500D01*
X28321095Y-77589119D01*
X28273476Y-77684357D01*
X28273476Y-77779595D01*
X28321095Y-77922452D01*
X28892524Y-78493881D01*
X28273476Y-78493881D01*
X32122595Y-78827381D02*
X32122595Y-79636905D01*
X32074976Y-79732143D01*
X32027357Y-79779762D01*
X31932119Y-79827381D01*
X31741642Y-79827381D01*
X31646404Y-79779762D01*
X31598785Y-79732143D01*
X31551166Y-79636905D01*
X31551166Y-78827381D01*
X31122595Y-79779762D02*
X30979738Y-79827381D01*
X30741642Y-79827381D01*
X30646404Y-79779762D01*
X30598785Y-79732143D01*
X30551166Y-79636905D01*
X30551166Y-79541667D01*
X30598785Y-79446429D01*
X30646404Y-79398810D01*
X30741642Y-79351190D01*
X30932119Y-79303571D01*
X31027357Y-79255952D01*
X31074976Y-79208333D01*
X31122595Y-79113095D01*
X31122595Y-79017857D01*
X31074976Y-78922619D01*
X31027357Y-78875000D01*
X30932119Y-78827381D01*
X30694023Y-78827381D01*
X30551166Y-78875000D01*
X29789261Y-79303571D02*
X29646404Y-79351190D01*
X29598785Y-79398810D01*
X29551166Y-79494048D01*
X29551166Y-79636905D01*
X29598785Y-79732143D01*
X29646404Y-79779762D01*
X29741642Y-79827381D01*
X30122595Y-79827381D01*
X30122595Y-78827381D01*
X29789261Y-78827381D01*
X29694023Y-78875000D01*
X29646404Y-78922619D01*
X29598785Y-79017857D01*
X29598785Y-79113095D01*
X29646404Y-79208333D01*
X29694023Y-79255952D01*
X29789261Y-79303571D01*
X30122595Y-79303571D01*
X28646404Y-79827381D02*
X29122595Y-79827381D01*
X29122595Y-78827381D01*
X27741642Y-79732143D02*
X27789261Y-79779762D01*
X27932118Y-79827381D01*
X28027356Y-79827381D01*
X28170214Y-79779762D01*
X28265452Y-79684524D01*
X28313071Y-79589286D01*
X28360690Y-79398810D01*
X28360690Y-79255952D01*
X28313071Y-79065476D01*
X28265452Y-78970238D01*
X28170214Y-78875000D01*
X28027356Y-78827381D01*
X27932118Y-78827381D01*
X27789261Y-78875000D01*
X27741642Y-78922619D01*
X26884499Y-78827381D02*
X27074976Y-78827381D01*
X27170214Y-78875000D01*
X27217833Y-78922619D01*
X27313071Y-79065476D01*
X27360690Y-79255952D01*
X27360690Y-79636905D01*
X27313071Y-79732143D01*
X27265452Y-79779762D01*
X27170214Y-79827381D01*
X26979737Y-79827381D01*
X26884499Y-79779762D01*
X26836880Y-79732143D01*
X26789261Y-79636905D01*
X26789261Y-79398810D01*
X26836880Y-79303571D01*
X26884499Y-79255952D01*
X26979737Y-79208333D01*
X27170214Y-79208333D01*
X27265452Y-79255952D01*
X27313071Y-79303571D01*
X27360690Y-79398810D01*
X26360690Y-79446429D02*
X25598785Y-79446429D01*
X24694023Y-79160714D02*
X24694023Y-79827381D01*
X24932119Y-78779762D02*
X25170214Y-79494048D01*
X24551166Y-79494048D01*
X29916357Y-90876381D02*
X30249691Y-90400190D01*
X30487786Y-90876381D02*
X30487786Y-89876381D01*
X30106833Y-89876381D01*
X30011595Y-89924000D01*
X29963976Y-89971619D01*
X29916357Y-90066857D01*
X29916357Y-90209714D01*
X29963976Y-90304952D01*
X30011595Y-90352571D01*
X30106833Y-90400190D01*
X30487786Y-90400190D01*
X28963976Y-90876381D02*
X29535405Y-90876381D01*
X29249691Y-90876381D02*
X29249691Y-89876381D01*
X29344929Y-90019238D01*
X29440167Y-90114476D01*
X29535405Y-90162095D01*
X28344929Y-89876381D02*
X28249690Y-89876381D01*
X28154452Y-89924000D01*
X28106833Y-89971619D01*
X28059214Y-90066857D01*
X28011595Y-90257333D01*
X28011595Y-90495429D01*
X28059214Y-90685905D01*
X28106833Y-90781143D01*
X28154452Y-90828762D01*
X28249690Y-90876381D01*
X28344929Y-90876381D01*
X28440167Y-90828762D01*
X28487786Y-90781143D01*
X28535405Y-90685905D01*
X28583024Y-90495429D01*
X28583024Y-90257333D01*
X28535405Y-90066857D01*
X28487786Y-89971619D01*
X28440167Y-89924000D01*
X28344929Y-89876381D01*
X33726381Y-77112834D02*
X33250190Y-76779500D01*
X33726381Y-76541405D02*
X32726381Y-76541405D01*
X32726381Y-76922358D01*
X32774000Y-77017596D01*
X32821619Y-77065215D01*
X32916857Y-77112834D01*
X33059714Y-77112834D01*
X33154952Y-77065215D01*
X33202571Y-77017596D01*
X33250190Y-76922358D01*
X33250190Y-76541405D01*
X33154952Y-77684262D02*
X33107333Y-77589024D01*
X33059714Y-77541405D01*
X32964476Y-77493786D01*
X32916857Y-77493786D01*
X32821619Y-77541405D01*
X32774000Y-77589024D01*
X32726381Y-77684262D01*
X32726381Y-77874739D01*
X32774000Y-77969977D01*
X32821619Y-78017596D01*
X32916857Y-78065215D01*
X32964476Y-78065215D01*
X33059714Y-78017596D01*
X33107333Y-77969977D01*
X33154952Y-77874739D01*
X33154952Y-77684262D01*
X33202571Y-77589024D01*
X33250190Y-77541405D01*
X33345429Y-77493786D01*
X33535905Y-77493786D01*
X33631143Y-77541405D01*
X33678762Y-77589024D01*
X33726381Y-77684262D01*
X33726381Y-77874739D01*
X33678762Y-77969977D01*
X33631143Y-78017596D01*
X33535905Y-78065215D01*
X33345429Y-78065215D01*
X33250190Y-78017596D01*
X33202571Y-77969977D01*
X33154952Y-77874739D01*
X49061666Y-68143381D02*
X49395000Y-67667190D01*
X49633095Y-68143381D02*
X49633095Y-67143381D01*
X49252142Y-67143381D01*
X49156904Y-67191000D01*
X49109285Y-67238619D01*
X49061666Y-67333857D01*
X49061666Y-67476714D01*
X49109285Y-67571952D01*
X49156904Y-67619571D01*
X49252142Y-67667190D01*
X49633095Y-67667190D01*
X48728333Y-67143381D02*
X48061666Y-67143381D01*
X48490238Y-68143381D01*
X49061666Y-69413381D02*
X49395000Y-68937190D01*
X49633095Y-69413381D02*
X49633095Y-68413381D01*
X49252142Y-68413381D01*
X49156904Y-68461000D01*
X49109285Y-68508619D01*
X49061666Y-68603857D01*
X49061666Y-68746714D01*
X49109285Y-68841952D01*
X49156904Y-68889571D01*
X49252142Y-68937190D01*
X49633095Y-68937190D01*
X48204523Y-68413381D02*
X48395000Y-68413381D01*
X48490238Y-68461000D01*
X48537857Y-68508619D01*
X48633095Y-68651476D01*
X48680714Y-68841952D01*
X48680714Y-69222905D01*
X48633095Y-69318143D01*
X48585476Y-69365762D01*
X48490238Y-69413381D01*
X48299761Y-69413381D01*
X48204523Y-69365762D01*
X48156904Y-69318143D01*
X48109285Y-69222905D01*
X48109285Y-68984810D01*
X48156904Y-68889571D01*
X48204523Y-68841952D01*
X48299761Y-68794333D01*
X48490238Y-68794333D01*
X48585476Y-68841952D01*
X48633095Y-68889571D01*
X48680714Y-68984810D01*
X87598238Y-73735619D02*
X87693476Y-73688000D01*
X87788714Y-73592762D01*
X87931571Y-73449905D01*
X88026810Y-73402286D01*
X88122048Y-73402286D01*
X88074429Y-73640381D02*
X88169667Y-73592762D01*
X88264905Y-73497524D01*
X88312524Y-73307048D01*
X88312524Y-72973714D01*
X88264905Y-72783238D01*
X88169667Y-72688000D01*
X88074429Y-72640381D01*
X87883952Y-72640381D01*
X87788714Y-72688000D01*
X87693476Y-72783238D01*
X87645857Y-72973714D01*
X87645857Y-73307048D01*
X87693476Y-73497524D01*
X87788714Y-73592762D01*
X87883952Y-73640381D01*
X88074429Y-73640381D01*
X86741095Y-72640381D02*
X87217286Y-72640381D01*
X87264905Y-73116571D01*
X87217286Y-73068952D01*
X87122048Y-73021333D01*
X86883952Y-73021333D01*
X86788714Y-73068952D01*
X86741095Y-73116571D01*
X86693476Y-73211810D01*
X86693476Y-73449905D01*
X86741095Y-73545143D01*
X86788714Y-73592762D01*
X86883952Y-73640381D01*
X87122048Y-73640381D01*
X87217286Y-73592762D01*
X87264905Y-73545143D01*
X83788238Y-73735619D02*
X83883476Y-73688000D01*
X83978714Y-73592762D01*
X84121571Y-73449905D01*
X84216810Y-73402286D01*
X84312048Y-73402286D01*
X84264429Y-73640381D02*
X84359667Y-73592762D01*
X84454905Y-73497524D01*
X84502524Y-73307048D01*
X84502524Y-72973714D01*
X84454905Y-72783238D01*
X84359667Y-72688000D01*
X84264429Y-72640381D01*
X84073952Y-72640381D01*
X83978714Y-72688000D01*
X83883476Y-72783238D01*
X83835857Y-72973714D01*
X83835857Y-73307048D01*
X83883476Y-73497524D01*
X83978714Y-73592762D01*
X84073952Y-73640381D01*
X84264429Y-73640381D01*
X82978714Y-72973714D02*
X82978714Y-73640381D01*
X83216810Y-72592762D02*
X83454905Y-73307048D01*
X82835857Y-73307048D01*
X79978238Y-73735619D02*
X80073476Y-73688000D01*
X80168714Y-73592762D01*
X80311571Y-73449905D01*
X80406810Y-73402286D01*
X80502048Y-73402286D01*
X80454429Y-73640381D02*
X80549667Y-73592762D01*
X80644905Y-73497524D01*
X80692524Y-73307048D01*
X80692524Y-72973714D01*
X80644905Y-72783238D01*
X80549667Y-72688000D01*
X80454429Y-72640381D01*
X80263952Y-72640381D01*
X80168714Y-72688000D01*
X80073476Y-72783238D01*
X80025857Y-72973714D01*
X80025857Y-73307048D01*
X80073476Y-73497524D01*
X80168714Y-73592762D01*
X80263952Y-73640381D01*
X80454429Y-73640381D01*
X79692524Y-72640381D02*
X79073476Y-72640381D01*
X79406810Y-73021333D01*
X79263952Y-73021333D01*
X79168714Y-73068952D01*
X79121095Y-73116571D01*
X79073476Y-73211810D01*
X79073476Y-73449905D01*
X79121095Y-73545143D01*
X79168714Y-73592762D01*
X79263952Y-73640381D01*
X79549667Y-73640381D01*
X79644905Y-73592762D01*
X79692524Y-73545143D01*
X76168238Y-73735619D02*
X76263476Y-73688000D01*
X76358714Y-73592762D01*
X76501571Y-73449905D01*
X76596810Y-73402286D01*
X76692048Y-73402286D01*
X76644429Y-73640381D02*
X76739667Y-73592762D01*
X76834905Y-73497524D01*
X76882524Y-73307048D01*
X76882524Y-72973714D01*
X76834905Y-72783238D01*
X76739667Y-72688000D01*
X76644429Y-72640381D01*
X76453952Y-72640381D01*
X76358714Y-72688000D01*
X76263476Y-72783238D01*
X76215857Y-72973714D01*
X76215857Y-73307048D01*
X76263476Y-73497524D01*
X76358714Y-73592762D01*
X76453952Y-73640381D01*
X76644429Y-73640381D01*
X75834905Y-72735619D02*
X75787286Y-72688000D01*
X75692048Y-72640381D01*
X75453952Y-72640381D01*
X75358714Y-72688000D01*
X75311095Y-72735619D01*
X75263476Y-72830857D01*
X75263476Y-72926095D01*
X75311095Y-73068952D01*
X75882524Y-73640381D01*
X75263476Y-73640381D01*
X53570143Y-96321643D02*
X53617762Y-96274024D01*
X53665381Y-96131167D01*
X53665381Y-96035929D01*
X53617762Y-95893071D01*
X53522524Y-95797833D01*
X53427286Y-95750214D01*
X53236810Y-95702595D01*
X53093952Y-95702595D01*
X52903476Y-95750214D01*
X52808238Y-95797833D01*
X52713000Y-95893071D01*
X52665381Y-96035929D01*
X52665381Y-96131167D01*
X52713000Y-96274024D01*
X52760619Y-96321643D01*
X53665381Y-97274024D02*
X53665381Y-96702595D01*
X53665381Y-96988309D02*
X52665381Y-96988309D01*
X52808238Y-96893071D01*
X52903476Y-96797833D01*
X52951095Y-96702595D01*
X52665381Y-98178786D02*
X52665381Y-97702595D01*
X53141571Y-97654976D01*
X53093952Y-97702595D01*
X53046333Y-97797833D01*
X53046333Y-98035929D01*
X53093952Y-98131167D01*
X53141571Y-98178786D01*
X53236810Y-98226405D01*
X53474905Y-98226405D01*
X53570143Y-98178786D01*
X53617762Y-98131167D01*
X53665381Y-98035929D01*
X53665381Y-97797833D01*
X53617762Y-97702595D01*
X53570143Y-97654976D01*
X39541143Y-85717143D02*
X39588762Y-85669524D01*
X39636381Y-85526667D01*
X39636381Y-85431429D01*
X39588762Y-85288571D01*
X39493524Y-85193333D01*
X39398286Y-85145714D01*
X39207810Y-85098095D01*
X39064952Y-85098095D01*
X38874476Y-85145714D01*
X38779238Y-85193333D01*
X38684000Y-85288571D01*
X38636381Y-85431429D01*
X38636381Y-85526667D01*
X38684000Y-85669524D01*
X38731619Y-85717143D01*
X39636381Y-86669524D02*
X39636381Y-86098095D01*
X39636381Y-86383809D02*
X38636381Y-86383809D01*
X38779238Y-86288571D01*
X38874476Y-86193333D01*
X38922095Y-86098095D01*
X38969714Y-87526667D02*
X39636381Y-87526667D01*
X38588762Y-87288571D02*
X39303048Y-87050476D01*
X39303048Y-87669524D01*
X60142357Y-68619643D02*
X60189976Y-68667262D01*
X60332833Y-68714881D01*
X60428071Y-68714881D01*
X60570929Y-68667262D01*
X60666167Y-68572024D01*
X60713786Y-68476786D01*
X60761405Y-68286310D01*
X60761405Y-68143452D01*
X60713786Y-67952976D01*
X60666167Y-67857738D01*
X60570929Y-67762500D01*
X60428071Y-67714881D01*
X60332833Y-67714881D01*
X60189976Y-67762500D01*
X60142357Y-67810119D01*
X59189976Y-68714881D02*
X59761405Y-68714881D01*
X59475691Y-68714881D02*
X59475691Y-67714881D01*
X59570929Y-67857738D01*
X59666167Y-67952976D01*
X59761405Y-68000595D01*
X58570929Y-67714881D02*
X58475690Y-67714881D01*
X58380452Y-67762500D01*
X58332833Y-67810119D01*
X58285214Y-67905357D01*
X58237595Y-68095833D01*
X58237595Y-68333929D01*
X58285214Y-68524405D01*
X58332833Y-68619643D01*
X58380452Y-68667262D01*
X58475690Y-68714881D01*
X58570929Y-68714881D01*
X58666167Y-68667262D01*
X58713786Y-68619643D01*
X58761405Y-68524405D01*
X58809024Y-68333929D01*
X58809024Y-68095833D01*
X58761405Y-67905357D01*
X58713786Y-67810119D01*
X58666167Y-67762500D01*
X58570929Y-67714881D01*
X61512143Y-82319834D02*
X61559762Y-82272215D01*
X61607381Y-82129358D01*
X61607381Y-82034120D01*
X61559762Y-81891262D01*
X61464524Y-81796024D01*
X61369286Y-81748405D01*
X61178810Y-81700786D01*
X61035952Y-81700786D01*
X60845476Y-81748405D01*
X60750238Y-81796024D01*
X60655000Y-81891262D01*
X60607381Y-82034120D01*
X60607381Y-82129358D01*
X60655000Y-82272215D01*
X60702619Y-82319834D01*
X61607381Y-82796024D02*
X61607381Y-82986500D01*
X61559762Y-83081739D01*
X61512143Y-83129358D01*
X61369286Y-83224596D01*
X61178810Y-83272215D01*
X60797857Y-83272215D01*
X60702619Y-83224596D01*
X60655000Y-83176977D01*
X60607381Y-83081739D01*
X60607381Y-82891262D01*
X60655000Y-82796024D01*
X60702619Y-82748405D01*
X60797857Y-82700786D01*
X61035952Y-82700786D01*
X61131190Y-82748405D01*
X61178810Y-82796024D01*
X61226429Y-82891262D01*
X61226429Y-83081739D01*
X61178810Y-83176977D01*
X61131190Y-83224596D01*
X61035952Y-83272215D01*
X59539143Y-96797834D02*
X59586762Y-96750215D01*
X59634381Y-96607358D01*
X59634381Y-96512120D01*
X59586762Y-96369262D01*
X59491524Y-96274024D01*
X59396286Y-96226405D01*
X59205810Y-96178786D01*
X59062952Y-96178786D01*
X58872476Y-96226405D01*
X58777238Y-96274024D01*
X58682000Y-96369262D01*
X58634381Y-96512120D01*
X58634381Y-96607358D01*
X58682000Y-96750215D01*
X58729619Y-96797834D01*
X59062952Y-97369262D02*
X59015333Y-97274024D01*
X58967714Y-97226405D01*
X58872476Y-97178786D01*
X58824857Y-97178786D01*
X58729619Y-97226405D01*
X58682000Y-97274024D01*
X58634381Y-97369262D01*
X58634381Y-97559739D01*
X58682000Y-97654977D01*
X58729619Y-97702596D01*
X58824857Y-97750215D01*
X58872476Y-97750215D01*
X58967714Y-97702596D01*
X59015333Y-97654977D01*
X59062952Y-97559739D01*
X59062952Y-97369262D01*
X59110571Y-97274024D01*
X59158190Y-97226405D01*
X59253429Y-97178786D01*
X59443905Y-97178786D01*
X59539143Y-97226405D01*
X59586762Y-97274024D01*
X59634381Y-97369262D01*
X59634381Y-97559739D01*
X59586762Y-97654977D01*
X59539143Y-97702596D01*
X59443905Y-97750215D01*
X59253429Y-97750215D01*
X59158190Y-97702596D01*
X59110571Y-97654977D01*
X59062952Y-97559739D01*
X37822143Y-73366334D02*
X37869762Y-73318715D01*
X37917381Y-73175858D01*
X37917381Y-73080620D01*
X37869762Y-72937762D01*
X37774524Y-72842524D01*
X37679286Y-72794905D01*
X37488810Y-72747286D01*
X37345952Y-72747286D01*
X37155476Y-72794905D01*
X37060238Y-72842524D01*
X36965000Y-72937762D01*
X36917381Y-73080620D01*
X36917381Y-73175858D01*
X36965000Y-73318715D01*
X37012619Y-73366334D01*
X36917381Y-73699667D02*
X36917381Y-74366334D01*
X37917381Y-73937762D01*
X37822143Y-83018334D02*
X37869762Y-82970715D01*
X37917381Y-82827858D01*
X37917381Y-82732620D01*
X37869762Y-82589762D01*
X37774524Y-82494524D01*
X37679286Y-82446905D01*
X37488810Y-82399286D01*
X37345952Y-82399286D01*
X37155476Y-82446905D01*
X37060238Y-82494524D01*
X36965000Y-82589762D01*
X36917381Y-82732620D01*
X36917381Y-82827858D01*
X36965000Y-82970715D01*
X37012619Y-83018334D01*
X36917381Y-83875477D02*
X36917381Y-83685000D01*
X36965000Y-83589762D01*
X37012619Y-83542143D01*
X37155476Y-83446905D01*
X37345952Y-83399286D01*
X37726905Y-83399286D01*
X37822143Y-83446905D01*
X37869762Y-83494524D01*
X37917381Y-83589762D01*
X37917381Y-83780239D01*
X37869762Y-83875477D01*
X37822143Y-83923096D01*
X37726905Y-83970715D01*
X37488810Y-83970715D01*
X37393571Y-83923096D01*
X37345952Y-83875477D01*
X37298333Y-83780239D01*
X37298333Y-83589762D01*
X37345952Y-83494524D01*
X37393571Y-83446905D01*
X37488810Y-83399286D01*
X47156666Y-88372643D02*
X47204285Y-88420262D01*
X47347142Y-88467881D01*
X47442380Y-88467881D01*
X47585238Y-88420262D01*
X47680476Y-88325024D01*
X47728095Y-88229786D01*
X47775714Y-88039310D01*
X47775714Y-87896452D01*
X47728095Y-87705976D01*
X47680476Y-87610738D01*
X47585238Y-87515500D01*
X47442380Y-87467881D01*
X47347142Y-87467881D01*
X47204285Y-87515500D01*
X47156666Y-87563119D01*
X46251904Y-87467881D02*
X46728095Y-87467881D01*
X46775714Y-87944071D01*
X46728095Y-87896452D01*
X46632857Y-87848833D01*
X46394761Y-87848833D01*
X46299523Y-87896452D01*
X46251904Y-87944071D01*
X46204285Y-88039310D01*
X46204285Y-88277405D01*
X46251904Y-88372643D01*
X46299523Y-88420262D01*
X46394761Y-88467881D01*
X46632857Y-88467881D01*
X46728095Y-88420262D01*
X46775714Y-88372643D01*
X59158166Y-70778643D02*
X59205785Y-70826262D01*
X59348642Y-70873881D01*
X59443880Y-70873881D01*
X59586738Y-70826262D01*
X59681976Y-70731024D01*
X59729595Y-70635786D01*
X59777214Y-70445310D01*
X59777214Y-70302452D01*
X59729595Y-70111976D01*
X59681976Y-70016738D01*
X59586738Y-69921500D01*
X59443880Y-69873881D01*
X59348642Y-69873881D01*
X59205785Y-69921500D01*
X59158166Y-69969119D01*
X58301023Y-70207214D02*
X58301023Y-70873881D01*
X58539119Y-69826262D02*
X58777214Y-70540548D01*
X58158166Y-70540548D01*
X45124666Y-70778643D02*
X45172285Y-70826262D01*
X45315142Y-70873881D01*
X45410380Y-70873881D01*
X45553238Y-70826262D01*
X45648476Y-70731024D01*
X45696095Y-70635786D01*
X45743714Y-70445310D01*
X45743714Y-70302452D01*
X45696095Y-70111976D01*
X45648476Y-70016738D01*
X45553238Y-69921500D01*
X45410380Y-69873881D01*
X45315142Y-69873881D01*
X45172285Y-69921500D01*
X45124666Y-69969119D01*
X44791333Y-69873881D02*
X44172285Y-69873881D01*
X44505619Y-70254833D01*
X44362761Y-70254833D01*
X44267523Y-70302452D01*
X44219904Y-70350071D01*
X44172285Y-70445310D01*
X44172285Y-70683405D01*
X44219904Y-70778643D01*
X44267523Y-70826262D01*
X44362761Y-70873881D01*
X44648476Y-70873881D01*
X44743714Y-70826262D01*
X44791333Y-70778643D01*
X41691143Y-75334834D02*
X41738762Y-75287215D01*
X41786381Y-75144358D01*
X41786381Y-75049120D01*
X41738762Y-74906262D01*
X41643524Y-74811024D01*
X41548286Y-74763405D01*
X41357810Y-74715786D01*
X41214952Y-74715786D01*
X41024476Y-74763405D01*
X40929238Y-74811024D01*
X40834000Y-74906262D01*
X40786381Y-75049120D01*
X40786381Y-75144358D01*
X40834000Y-75287215D01*
X40881619Y-75334834D01*
X40881619Y-75715786D02*
X40834000Y-75763405D01*
X40786381Y-75858643D01*
X40786381Y-76096739D01*
X40834000Y-76191977D01*
X40881619Y-76239596D01*
X40976857Y-76287215D01*
X41072095Y-76287215D01*
X41214952Y-76239596D01*
X41786381Y-75668167D01*
X41786381Y-76287215D01*
X52069905Y-84820881D02*
X52069905Y-85630405D01*
X52022286Y-85725643D01*
X51974667Y-85773262D01*
X51879429Y-85820881D01*
X51688952Y-85820881D01*
X51593714Y-85773262D01*
X51546095Y-85725643D01*
X51498476Y-85630405D01*
X51498476Y-84820881D01*
X50498476Y-85820881D02*
X51069905Y-85820881D01*
X50784191Y-85820881D02*
X50784191Y-84820881D01*
X50879429Y-84963738D01*
X50974667Y-85058976D01*
X51069905Y-85106595D01*
X52133405Y-40116881D02*
X52133405Y-40926405D01*
X52085786Y-41021643D01*
X52038167Y-41069262D01*
X51942929Y-41116881D01*
X51752452Y-41116881D01*
X51657214Y-41069262D01*
X51609595Y-41021643D01*
X51561976Y-40926405D01*
X51561976Y-40116881D01*
X50561976Y-41116881D02*
X51133405Y-41116881D01*
X50847691Y-41116881D02*
X50847691Y-40116881D01*
X50942929Y-40259738D01*
X51038167Y-40354976D01*
X51133405Y-40402595D01*
X41754643Y-30630834D02*
X41802262Y-30583215D01*
X41849881Y-30440358D01*
X41849881Y-30345120D01*
X41802262Y-30202262D01*
X41707024Y-30107024D01*
X41611786Y-30059405D01*
X41421310Y-30011786D01*
X41278452Y-30011786D01*
X41087976Y-30059405D01*
X40992738Y-30107024D01*
X40897500Y-30202262D01*
X40849881Y-30345120D01*
X40849881Y-30440358D01*
X40897500Y-30583215D01*
X40945119Y-30630834D01*
X40945119Y-31011786D02*
X40897500Y-31059405D01*
X40849881Y-31154643D01*
X40849881Y-31392739D01*
X40897500Y-31487977D01*
X40945119Y-31535596D01*
X41040357Y-31583215D01*
X41135595Y-31583215D01*
X41278452Y-31535596D01*
X41849881Y-30964167D01*
X41849881Y-31583215D01*
X45188166Y-26074643D02*
X45235785Y-26122262D01*
X45378642Y-26169881D01*
X45473880Y-26169881D01*
X45616738Y-26122262D01*
X45711976Y-26027024D01*
X45759595Y-25931786D01*
X45807214Y-25741310D01*
X45807214Y-25598452D01*
X45759595Y-25407976D01*
X45711976Y-25312738D01*
X45616738Y-25217500D01*
X45473880Y-25169881D01*
X45378642Y-25169881D01*
X45235785Y-25217500D01*
X45188166Y-25265119D01*
X44854833Y-25169881D02*
X44235785Y-25169881D01*
X44569119Y-25550833D01*
X44426261Y-25550833D01*
X44331023Y-25598452D01*
X44283404Y-25646071D01*
X44235785Y-25741310D01*
X44235785Y-25979405D01*
X44283404Y-26074643D01*
X44331023Y-26122262D01*
X44426261Y-26169881D01*
X44711976Y-26169881D01*
X44807214Y-26122262D01*
X44854833Y-26074643D01*
X59221666Y-26074643D02*
X59269285Y-26122262D01*
X59412142Y-26169881D01*
X59507380Y-26169881D01*
X59650238Y-26122262D01*
X59745476Y-26027024D01*
X59793095Y-25931786D01*
X59840714Y-25741310D01*
X59840714Y-25598452D01*
X59793095Y-25407976D01*
X59745476Y-25312738D01*
X59650238Y-25217500D01*
X59507380Y-25169881D01*
X59412142Y-25169881D01*
X59269285Y-25217500D01*
X59221666Y-25265119D01*
X58364523Y-25503214D02*
X58364523Y-26169881D01*
X58602619Y-25122262D02*
X58840714Y-25836548D01*
X58221666Y-25836548D01*
X47220166Y-43668643D02*
X47267785Y-43716262D01*
X47410642Y-43763881D01*
X47505880Y-43763881D01*
X47648738Y-43716262D01*
X47743976Y-43621024D01*
X47791595Y-43525786D01*
X47839214Y-43335310D01*
X47839214Y-43192452D01*
X47791595Y-43001976D01*
X47743976Y-42906738D01*
X47648738Y-42811500D01*
X47505880Y-42763881D01*
X47410642Y-42763881D01*
X47267785Y-42811500D01*
X47220166Y-42859119D01*
X46315404Y-42763881D02*
X46791595Y-42763881D01*
X46839214Y-43240071D01*
X46791595Y-43192452D01*
X46696357Y-43144833D01*
X46458261Y-43144833D01*
X46363023Y-43192452D01*
X46315404Y-43240071D01*
X46267785Y-43335310D01*
X46267785Y-43573405D01*
X46315404Y-43668643D01*
X46363023Y-43716262D01*
X46458261Y-43763881D01*
X46696357Y-43763881D01*
X46791595Y-43716262D01*
X46839214Y-43668643D01*
X37885643Y-38314334D02*
X37933262Y-38266715D01*
X37980881Y-38123858D01*
X37980881Y-38028620D01*
X37933262Y-37885762D01*
X37838024Y-37790524D01*
X37742786Y-37742905D01*
X37552310Y-37695286D01*
X37409452Y-37695286D01*
X37218976Y-37742905D01*
X37123738Y-37790524D01*
X37028500Y-37885762D01*
X36980881Y-38028620D01*
X36980881Y-38123858D01*
X37028500Y-38266715D01*
X37076119Y-38314334D01*
X36980881Y-39171477D02*
X36980881Y-38981000D01*
X37028500Y-38885762D01*
X37076119Y-38838143D01*
X37218976Y-38742905D01*
X37409452Y-38695286D01*
X37790405Y-38695286D01*
X37885643Y-38742905D01*
X37933262Y-38790524D01*
X37980881Y-38885762D01*
X37980881Y-39076239D01*
X37933262Y-39171477D01*
X37885643Y-39219096D01*
X37790405Y-39266715D01*
X37552310Y-39266715D01*
X37457071Y-39219096D01*
X37409452Y-39171477D01*
X37361833Y-39076239D01*
X37361833Y-38885762D01*
X37409452Y-38790524D01*
X37457071Y-38742905D01*
X37552310Y-38695286D01*
X37885643Y-28662334D02*
X37933262Y-28614715D01*
X37980881Y-28471858D01*
X37980881Y-28376620D01*
X37933262Y-28233762D01*
X37838024Y-28138524D01*
X37742786Y-28090905D01*
X37552310Y-28043286D01*
X37409452Y-28043286D01*
X37218976Y-28090905D01*
X37123738Y-28138524D01*
X37028500Y-28233762D01*
X36980881Y-28376620D01*
X36980881Y-28471858D01*
X37028500Y-28614715D01*
X37076119Y-28662334D01*
X36980881Y-28995667D02*
X36980881Y-29662334D01*
X37980881Y-29233762D01*
X59602643Y-52093834D02*
X59650262Y-52046215D01*
X59697881Y-51903358D01*
X59697881Y-51808120D01*
X59650262Y-51665262D01*
X59555024Y-51570024D01*
X59459786Y-51522405D01*
X59269310Y-51474786D01*
X59126452Y-51474786D01*
X58935976Y-51522405D01*
X58840738Y-51570024D01*
X58745500Y-51665262D01*
X58697881Y-51808120D01*
X58697881Y-51903358D01*
X58745500Y-52046215D01*
X58793119Y-52093834D01*
X59126452Y-52665262D02*
X59078833Y-52570024D01*
X59031214Y-52522405D01*
X58935976Y-52474786D01*
X58888357Y-52474786D01*
X58793119Y-52522405D01*
X58745500Y-52570024D01*
X58697881Y-52665262D01*
X58697881Y-52855739D01*
X58745500Y-52950977D01*
X58793119Y-52998596D01*
X58888357Y-53046215D01*
X58935976Y-53046215D01*
X59031214Y-52998596D01*
X59078833Y-52950977D01*
X59126452Y-52855739D01*
X59126452Y-52665262D01*
X59174071Y-52570024D01*
X59221690Y-52522405D01*
X59316929Y-52474786D01*
X59507405Y-52474786D01*
X59602643Y-52522405D01*
X59650262Y-52570024D01*
X59697881Y-52665262D01*
X59697881Y-52855739D01*
X59650262Y-52950977D01*
X59602643Y-52998596D01*
X59507405Y-53046215D01*
X59316929Y-53046215D01*
X59221690Y-52998596D01*
X59174071Y-52950977D01*
X59126452Y-52855739D01*
X61575643Y-37615834D02*
X61623262Y-37568215D01*
X61670881Y-37425358D01*
X61670881Y-37330120D01*
X61623262Y-37187262D01*
X61528024Y-37092024D01*
X61432786Y-37044405D01*
X61242310Y-36996786D01*
X61099452Y-36996786D01*
X60908976Y-37044405D01*
X60813738Y-37092024D01*
X60718500Y-37187262D01*
X60670881Y-37330120D01*
X60670881Y-37425358D01*
X60718500Y-37568215D01*
X60766119Y-37615834D01*
X61670881Y-38092024D02*
X61670881Y-38282500D01*
X61623262Y-38377739D01*
X61575643Y-38425358D01*
X61432786Y-38520596D01*
X61242310Y-38568215D01*
X60861357Y-38568215D01*
X60766119Y-38520596D01*
X60718500Y-38472977D01*
X60670881Y-38377739D01*
X60670881Y-38187262D01*
X60718500Y-38092024D01*
X60766119Y-38044405D01*
X60861357Y-37996786D01*
X61099452Y-37996786D01*
X61194690Y-38044405D01*
X61242310Y-38092024D01*
X61289929Y-38187262D01*
X61289929Y-38377739D01*
X61242310Y-38472977D01*
X61194690Y-38520596D01*
X61099452Y-38568215D01*
X60205857Y-23915643D02*
X60253476Y-23963262D01*
X60396333Y-24010881D01*
X60491571Y-24010881D01*
X60634429Y-23963262D01*
X60729667Y-23868024D01*
X60777286Y-23772786D01*
X60824905Y-23582310D01*
X60824905Y-23439452D01*
X60777286Y-23248976D01*
X60729667Y-23153738D01*
X60634429Y-23058500D01*
X60491571Y-23010881D01*
X60396333Y-23010881D01*
X60253476Y-23058500D01*
X60205857Y-23106119D01*
X59253476Y-24010881D02*
X59824905Y-24010881D01*
X59539191Y-24010881D02*
X59539191Y-23010881D01*
X59634429Y-23153738D01*
X59729667Y-23248976D01*
X59824905Y-23296595D01*
X58634429Y-23010881D02*
X58539190Y-23010881D01*
X58443952Y-23058500D01*
X58396333Y-23106119D01*
X58348714Y-23201357D01*
X58301095Y-23391833D01*
X58301095Y-23629929D01*
X58348714Y-23820405D01*
X58396333Y-23915643D01*
X58443952Y-23963262D01*
X58539190Y-24010881D01*
X58634429Y-24010881D01*
X58729667Y-23963262D01*
X58777286Y-23915643D01*
X58824905Y-23820405D01*
X58872524Y-23629929D01*
X58872524Y-23391833D01*
X58824905Y-23201357D01*
X58777286Y-23106119D01*
X58729667Y-23058500D01*
X58634429Y-23010881D01*
X39604643Y-41013143D02*
X39652262Y-40965524D01*
X39699881Y-40822667D01*
X39699881Y-40727429D01*
X39652262Y-40584571D01*
X39557024Y-40489333D01*
X39461786Y-40441714D01*
X39271310Y-40394095D01*
X39128452Y-40394095D01*
X38937976Y-40441714D01*
X38842738Y-40489333D01*
X38747500Y-40584571D01*
X38699881Y-40727429D01*
X38699881Y-40822667D01*
X38747500Y-40965524D01*
X38795119Y-41013143D01*
X39699881Y-41965524D02*
X39699881Y-41394095D01*
X39699881Y-41679809D02*
X38699881Y-41679809D01*
X38842738Y-41584571D01*
X38937976Y-41489333D01*
X38985595Y-41394095D01*
X39033214Y-42822667D02*
X39699881Y-42822667D01*
X38652262Y-42584571D02*
X39366548Y-42346476D01*
X39366548Y-42965524D01*
X53633643Y-51617643D02*
X53681262Y-51570024D01*
X53728881Y-51427167D01*
X53728881Y-51331929D01*
X53681262Y-51189071D01*
X53586024Y-51093833D01*
X53490786Y-51046214D01*
X53300310Y-50998595D01*
X53157452Y-50998595D01*
X52966976Y-51046214D01*
X52871738Y-51093833D01*
X52776500Y-51189071D01*
X52728881Y-51331929D01*
X52728881Y-51427167D01*
X52776500Y-51570024D01*
X52824119Y-51617643D01*
X53728881Y-52570024D02*
X53728881Y-51998595D01*
X53728881Y-52284309D02*
X52728881Y-52284309D01*
X52871738Y-52189071D01*
X52966976Y-52093833D01*
X53014595Y-51998595D01*
X52728881Y-53474786D02*
X52728881Y-52998595D01*
X53205071Y-52950976D01*
X53157452Y-52998595D01*
X53109833Y-53093833D01*
X53109833Y-53331929D01*
X53157452Y-53427167D01*
X53205071Y-53474786D01*
X53300310Y-53522405D01*
X53538405Y-53522405D01*
X53633643Y-53474786D01*
X53681262Y-53427167D01*
X53728881Y-53331929D01*
X53728881Y-53093833D01*
X53681262Y-52998595D01*
X53633643Y-52950976D01*
X76231738Y-29031619D02*
X76326976Y-28984000D01*
X76422214Y-28888762D01*
X76565071Y-28745905D01*
X76660310Y-28698286D01*
X76755548Y-28698286D01*
X76707929Y-28936381D02*
X76803167Y-28888762D01*
X76898405Y-28793524D01*
X76946024Y-28603048D01*
X76946024Y-28269714D01*
X76898405Y-28079238D01*
X76803167Y-27984000D01*
X76707929Y-27936381D01*
X76517452Y-27936381D01*
X76422214Y-27984000D01*
X76326976Y-28079238D01*
X76279357Y-28269714D01*
X76279357Y-28603048D01*
X76326976Y-28793524D01*
X76422214Y-28888762D01*
X76517452Y-28936381D01*
X76707929Y-28936381D01*
X75898405Y-28031619D02*
X75850786Y-27984000D01*
X75755548Y-27936381D01*
X75517452Y-27936381D01*
X75422214Y-27984000D01*
X75374595Y-28031619D01*
X75326976Y-28126857D01*
X75326976Y-28222095D01*
X75374595Y-28364952D01*
X75946024Y-28936381D01*
X75326976Y-28936381D01*
X80041738Y-29031619D02*
X80136976Y-28984000D01*
X80232214Y-28888762D01*
X80375071Y-28745905D01*
X80470310Y-28698286D01*
X80565548Y-28698286D01*
X80517929Y-28936381D02*
X80613167Y-28888762D01*
X80708405Y-28793524D01*
X80756024Y-28603048D01*
X80756024Y-28269714D01*
X80708405Y-28079238D01*
X80613167Y-27984000D01*
X80517929Y-27936381D01*
X80327452Y-27936381D01*
X80232214Y-27984000D01*
X80136976Y-28079238D01*
X80089357Y-28269714D01*
X80089357Y-28603048D01*
X80136976Y-28793524D01*
X80232214Y-28888762D01*
X80327452Y-28936381D01*
X80517929Y-28936381D01*
X79756024Y-27936381D02*
X79136976Y-27936381D01*
X79470310Y-28317333D01*
X79327452Y-28317333D01*
X79232214Y-28364952D01*
X79184595Y-28412571D01*
X79136976Y-28507810D01*
X79136976Y-28745905D01*
X79184595Y-28841143D01*
X79232214Y-28888762D01*
X79327452Y-28936381D01*
X79613167Y-28936381D01*
X79708405Y-28888762D01*
X79756024Y-28841143D01*
X83851738Y-29031619D02*
X83946976Y-28984000D01*
X84042214Y-28888762D01*
X84185071Y-28745905D01*
X84280310Y-28698286D01*
X84375548Y-28698286D01*
X84327929Y-28936381D02*
X84423167Y-28888762D01*
X84518405Y-28793524D01*
X84566024Y-28603048D01*
X84566024Y-28269714D01*
X84518405Y-28079238D01*
X84423167Y-27984000D01*
X84327929Y-27936381D01*
X84137452Y-27936381D01*
X84042214Y-27984000D01*
X83946976Y-28079238D01*
X83899357Y-28269714D01*
X83899357Y-28603048D01*
X83946976Y-28793524D01*
X84042214Y-28888762D01*
X84137452Y-28936381D01*
X84327929Y-28936381D01*
X83042214Y-28269714D02*
X83042214Y-28936381D01*
X83280310Y-27888762D02*
X83518405Y-28603048D01*
X82899357Y-28603048D01*
X87661738Y-29031619D02*
X87756976Y-28984000D01*
X87852214Y-28888762D01*
X87995071Y-28745905D01*
X88090310Y-28698286D01*
X88185548Y-28698286D01*
X88137929Y-28936381D02*
X88233167Y-28888762D01*
X88328405Y-28793524D01*
X88376024Y-28603048D01*
X88376024Y-28269714D01*
X88328405Y-28079238D01*
X88233167Y-27984000D01*
X88137929Y-27936381D01*
X87947452Y-27936381D01*
X87852214Y-27984000D01*
X87756976Y-28079238D01*
X87709357Y-28269714D01*
X87709357Y-28603048D01*
X87756976Y-28793524D01*
X87852214Y-28888762D01*
X87947452Y-28936381D01*
X88137929Y-28936381D01*
X86804595Y-27936381D02*
X87280786Y-27936381D01*
X87328405Y-28412571D01*
X87280786Y-28364952D01*
X87185548Y-28317333D01*
X86947452Y-28317333D01*
X86852214Y-28364952D01*
X86804595Y-28412571D01*
X86756976Y-28507810D01*
X86756976Y-28745905D01*
X86804595Y-28841143D01*
X86852214Y-28888762D01*
X86947452Y-28936381D01*
X87185548Y-28936381D01*
X87280786Y-28888762D01*
X87328405Y-28841143D01*
X49125166Y-24709381D02*
X49458500Y-24233190D01*
X49696595Y-24709381D02*
X49696595Y-23709381D01*
X49315642Y-23709381D01*
X49220404Y-23757000D01*
X49172785Y-23804619D01*
X49125166Y-23899857D01*
X49125166Y-24042714D01*
X49172785Y-24137952D01*
X49220404Y-24185571D01*
X49315642Y-24233190D01*
X49696595Y-24233190D01*
X48268023Y-23709381D02*
X48458500Y-23709381D01*
X48553738Y-23757000D01*
X48601357Y-23804619D01*
X48696595Y-23947476D01*
X48744214Y-24137952D01*
X48744214Y-24518905D01*
X48696595Y-24614143D01*
X48648976Y-24661762D01*
X48553738Y-24709381D01*
X48363261Y-24709381D01*
X48268023Y-24661762D01*
X48220404Y-24614143D01*
X48172785Y-24518905D01*
X48172785Y-24280810D01*
X48220404Y-24185571D01*
X48268023Y-24137952D01*
X48363261Y-24090333D01*
X48553738Y-24090333D01*
X48648976Y-24137952D01*
X48696595Y-24185571D01*
X48744214Y-24280810D01*
X49125166Y-23439381D02*
X49458500Y-22963190D01*
X49696595Y-23439381D02*
X49696595Y-22439381D01*
X49315642Y-22439381D01*
X49220404Y-22487000D01*
X49172785Y-22534619D01*
X49125166Y-22629857D01*
X49125166Y-22772714D01*
X49172785Y-22867952D01*
X49220404Y-22915571D01*
X49315642Y-22963190D01*
X49696595Y-22963190D01*
X48791833Y-22439381D02*
X48125166Y-22439381D01*
X48553738Y-23439381D01*
X33789881Y-32408834D02*
X33313690Y-32075500D01*
X33789881Y-31837405D02*
X32789881Y-31837405D01*
X32789881Y-32218358D01*
X32837500Y-32313596D01*
X32885119Y-32361215D01*
X32980357Y-32408834D01*
X33123214Y-32408834D01*
X33218452Y-32361215D01*
X33266071Y-32313596D01*
X33313690Y-32218358D01*
X33313690Y-31837405D01*
X33218452Y-32980262D02*
X33170833Y-32885024D01*
X33123214Y-32837405D01*
X33027976Y-32789786D01*
X32980357Y-32789786D01*
X32885119Y-32837405D01*
X32837500Y-32885024D01*
X32789881Y-32980262D01*
X32789881Y-33170739D01*
X32837500Y-33265977D01*
X32885119Y-33313596D01*
X32980357Y-33361215D01*
X33027976Y-33361215D01*
X33123214Y-33313596D01*
X33170833Y-33265977D01*
X33218452Y-33170739D01*
X33218452Y-32980262D01*
X33266071Y-32885024D01*
X33313690Y-32837405D01*
X33408929Y-32789786D01*
X33599405Y-32789786D01*
X33694643Y-32837405D01*
X33742262Y-32885024D01*
X33789881Y-32980262D01*
X33789881Y-33170739D01*
X33742262Y-33265977D01*
X33694643Y-33313596D01*
X33599405Y-33361215D01*
X33408929Y-33361215D01*
X33313690Y-33313596D01*
X33266071Y-33265977D01*
X33218452Y-33170739D01*
X29979857Y-46172381D02*
X30313191Y-45696190D01*
X30551286Y-46172381D02*
X30551286Y-45172381D01*
X30170333Y-45172381D01*
X30075095Y-45220000D01*
X30027476Y-45267619D01*
X29979857Y-45362857D01*
X29979857Y-45505714D01*
X30027476Y-45600952D01*
X30075095Y-45648571D01*
X30170333Y-45696190D01*
X30551286Y-45696190D01*
X29027476Y-46172381D02*
X29598905Y-46172381D01*
X29313191Y-46172381D02*
X29313191Y-45172381D01*
X29408429Y-45315238D01*
X29503667Y-45410476D01*
X29598905Y-45458095D01*
X28408429Y-45172381D02*
X28313190Y-45172381D01*
X28217952Y-45220000D01*
X28170333Y-45267619D01*
X28122714Y-45362857D01*
X28075095Y-45553333D01*
X28075095Y-45791429D01*
X28122714Y-45981905D01*
X28170333Y-46077143D01*
X28217952Y-46124762D01*
X28313190Y-46172381D01*
X28408429Y-46172381D01*
X28503667Y-46124762D01*
X28551286Y-46077143D01*
X28598905Y-45981905D01*
X28646524Y-45791429D01*
X28646524Y-45553333D01*
X28598905Y-45362857D01*
X28551286Y-45267619D01*
X28503667Y-45220000D01*
X28408429Y-45172381D01*
X29908405Y-32789881D02*
X29908405Y-33599405D01*
X29860786Y-33694643D01*
X29813167Y-33742262D01*
X29717929Y-33789881D01*
X29527452Y-33789881D01*
X29432214Y-33742262D01*
X29384595Y-33694643D01*
X29336976Y-33599405D01*
X29336976Y-32789881D01*
X28908405Y-32885119D02*
X28860786Y-32837500D01*
X28765548Y-32789881D01*
X28527452Y-32789881D01*
X28432214Y-32837500D01*
X28384595Y-32885119D01*
X28336976Y-32980357D01*
X28336976Y-33075595D01*
X28384595Y-33218452D01*
X28956024Y-33789881D01*
X28336976Y-33789881D01*
X32186095Y-34123381D02*
X32186095Y-34932905D01*
X32138476Y-35028143D01*
X32090857Y-35075762D01*
X31995619Y-35123381D01*
X31805142Y-35123381D01*
X31709904Y-35075762D01*
X31662285Y-35028143D01*
X31614666Y-34932905D01*
X31614666Y-34123381D01*
X31186095Y-35075762D02*
X31043238Y-35123381D01*
X30805142Y-35123381D01*
X30709904Y-35075762D01*
X30662285Y-35028143D01*
X30614666Y-34932905D01*
X30614666Y-34837667D01*
X30662285Y-34742429D01*
X30709904Y-34694810D01*
X30805142Y-34647190D01*
X30995619Y-34599571D01*
X31090857Y-34551952D01*
X31138476Y-34504333D01*
X31186095Y-34409095D01*
X31186095Y-34313857D01*
X31138476Y-34218619D01*
X31090857Y-34171000D01*
X30995619Y-34123381D01*
X30757523Y-34123381D01*
X30614666Y-34171000D01*
X29852761Y-34599571D02*
X29709904Y-34647190D01*
X29662285Y-34694810D01*
X29614666Y-34790048D01*
X29614666Y-34932905D01*
X29662285Y-35028143D01*
X29709904Y-35075762D01*
X29805142Y-35123381D01*
X30186095Y-35123381D01*
X30186095Y-34123381D01*
X29852761Y-34123381D01*
X29757523Y-34171000D01*
X29709904Y-34218619D01*
X29662285Y-34313857D01*
X29662285Y-34409095D01*
X29709904Y-34504333D01*
X29757523Y-34551952D01*
X29852761Y-34599571D01*
X30186095Y-34599571D01*
X28709904Y-35123381D02*
X29186095Y-35123381D01*
X29186095Y-34123381D01*
X27805142Y-35028143D02*
X27852761Y-35075762D01*
X27995618Y-35123381D01*
X28090856Y-35123381D01*
X28233714Y-35075762D01*
X28328952Y-34980524D01*
X28376571Y-34885286D01*
X28424190Y-34694810D01*
X28424190Y-34551952D01*
X28376571Y-34361476D01*
X28328952Y-34266238D01*
X28233714Y-34171000D01*
X28090856Y-34123381D01*
X27995618Y-34123381D01*
X27852761Y-34171000D01*
X27805142Y-34218619D01*
X26947999Y-34123381D02*
X27138476Y-34123381D01*
X27233714Y-34171000D01*
X27281333Y-34218619D01*
X27376571Y-34361476D01*
X27424190Y-34551952D01*
X27424190Y-34932905D01*
X27376571Y-35028143D01*
X27328952Y-35075762D01*
X27233714Y-35123381D01*
X27043237Y-35123381D01*
X26947999Y-35075762D01*
X26900380Y-35028143D01*
X26852761Y-34932905D01*
X26852761Y-34694810D01*
X26900380Y-34599571D01*
X26947999Y-34551952D01*
X27043237Y-34504333D01*
X27233714Y-34504333D01*
X27328952Y-34551952D01*
X27376571Y-34599571D01*
X27424190Y-34694810D01*
X26424190Y-34742429D02*
X25662285Y-34742429D01*
X24757523Y-34456714D02*
X24757523Y-35123381D01*
X24995619Y-34075762D02*
X25233714Y-34790048D01*
X24614666Y-34790048D01*
X34353405Y-43457881D02*
X34353405Y-44267405D01*
X34305786Y-44362643D01*
X34258167Y-44410262D01*
X34162929Y-44457881D01*
X33972452Y-44457881D01*
X33877214Y-44410262D01*
X33829595Y-44362643D01*
X33781976Y-44267405D01*
X33781976Y-43457881D01*
X33401024Y-43457881D02*
X32781976Y-43457881D01*
X33115310Y-43838833D01*
X32972452Y-43838833D01*
X32877214Y-43886452D01*
X32829595Y-43934071D01*
X32781976Y-44029310D01*
X32781976Y-44267405D01*
X32829595Y-44362643D01*
X32877214Y-44410262D01*
X32972452Y-44457881D01*
X33258167Y-44457881D01*
X33353405Y-44410262D01*
X33401024Y-44362643D01*
X38893286Y-45981881D02*
X38893286Y-44981881D01*
X38559952Y-45696167D01*
X38226619Y-44981881D01*
X38226619Y-45981881D01*
X37179000Y-45886643D02*
X37226619Y-45934262D01*
X37369476Y-45981881D01*
X37464714Y-45981881D01*
X37607572Y-45934262D01*
X37702810Y-45839024D01*
X37750429Y-45743786D01*
X37798048Y-45553310D01*
X37798048Y-45410452D01*
X37750429Y-45219976D01*
X37702810Y-45124738D01*
X37607572Y-45029500D01*
X37464714Y-44981881D01*
X37369476Y-44981881D01*
X37226619Y-45029500D01*
X37179000Y-45077119D01*
X36750429Y-45981881D02*
X36750429Y-44981881D01*
X36369476Y-44981881D01*
X36274238Y-45029500D01*
X36226619Y-45077119D01*
X36179000Y-45172357D01*
X36179000Y-45315214D01*
X36226619Y-45410452D01*
X36274238Y-45458071D01*
X36369476Y-45505690D01*
X36750429Y-45505690D01*
X35845667Y-44981881D02*
X35179000Y-44981881D01*
X35607572Y-45981881D01*
X34893286Y-44981881D02*
X34274238Y-44981881D01*
X34607572Y-45362833D01*
X34464714Y-45362833D01*
X34369476Y-45410452D01*
X34321857Y-45458071D01*
X34274238Y-45553310D01*
X34274238Y-45791405D01*
X34321857Y-45886643D01*
X34369476Y-45934262D01*
X34464714Y-45981881D01*
X34750429Y-45981881D01*
X34845667Y-45934262D01*
X34893286Y-45886643D01*
X33702810Y-45410452D02*
X33798048Y-45362833D01*
X33845667Y-45315214D01*
X33893286Y-45219976D01*
X33893286Y-45172357D01*
X33845667Y-45077119D01*
X33798048Y-45029500D01*
X33702810Y-44981881D01*
X33512333Y-44981881D01*
X33417095Y-45029500D01*
X33369476Y-45077119D01*
X33321857Y-45172357D01*
X33321857Y-45219976D01*
X33369476Y-45315214D01*
X33417095Y-45362833D01*
X33512333Y-45410452D01*
X33702810Y-45410452D01*
X33798048Y-45458071D01*
X33845667Y-45505690D01*
X33893286Y-45600929D01*
X33893286Y-45791405D01*
X33845667Y-45886643D01*
X33798048Y-45934262D01*
X33702810Y-45981881D01*
X33512333Y-45981881D01*
X33417095Y-45934262D01*
X33369476Y-45886643D01*
X33321857Y-45791405D01*
X33321857Y-45600929D01*
X33369476Y-45505690D01*
X33417095Y-45458071D01*
X33512333Y-45410452D01*
X32988524Y-44981881D02*
X32369476Y-44981881D01*
X32702810Y-45362833D01*
X32559952Y-45362833D01*
X32464714Y-45410452D01*
X32417095Y-45458071D01*
X32369476Y-45553310D01*
X32369476Y-45791405D01*
X32417095Y-45886643D01*
X32464714Y-45934262D01*
X32559952Y-45981881D01*
X32845667Y-45981881D01*
X32940905Y-45934262D01*
X32988524Y-45886643D01*
X31417095Y-45981881D02*
X31988524Y-45981881D01*
X31702810Y-45981881D02*
X31702810Y-44981881D01*
X31798048Y-45124738D01*
X31893286Y-45219976D01*
X31988524Y-45267595D01*
X56840357Y-59765881D02*
X57173691Y-59289690D01*
X57411786Y-59765881D02*
X57411786Y-58765881D01*
X57030833Y-58765881D01*
X56935595Y-58813500D01*
X56887976Y-58861119D01*
X56840357Y-58956357D01*
X56840357Y-59099214D01*
X56887976Y-59194452D01*
X56935595Y-59242071D01*
X57030833Y-59289690D01*
X57411786Y-59289690D01*
X55887976Y-59765881D02*
X56459405Y-59765881D01*
X56173691Y-59765881D02*
X56173691Y-58765881D01*
X56268929Y-58908738D01*
X56364167Y-59003976D01*
X56459405Y-59051595D01*
X55507024Y-58861119D02*
X55459405Y-58813500D01*
X55364167Y-58765881D01*
X55126071Y-58765881D01*
X55030833Y-58813500D01*
X54983214Y-58861119D01*
X54935595Y-58956357D01*
X54935595Y-59051595D01*
X54983214Y-59194452D01*
X55554643Y-59765881D01*
X54935595Y-59765881D01*
X61471381Y-44696143D02*
X60995190Y-44362809D01*
X61471381Y-44124714D02*
X60471381Y-44124714D01*
X60471381Y-44505667D01*
X60519000Y-44600905D01*
X60566619Y-44648524D01*
X60661857Y-44696143D01*
X60804714Y-44696143D01*
X60899952Y-44648524D01*
X60947571Y-44600905D01*
X60995190Y-44505667D01*
X60995190Y-44124714D01*
X61471381Y-45648524D02*
X61471381Y-45077095D01*
X61471381Y-45362809D02*
X60471381Y-45362809D01*
X60614238Y-45267571D01*
X60709476Y-45172333D01*
X60757095Y-45077095D01*
X60471381Y-45981857D02*
X60471381Y-46600905D01*
X60852333Y-46267571D01*
X60852333Y-46410429D01*
X60899952Y-46505667D01*
X60947571Y-46553286D01*
X61042810Y-46600905D01*
X61280905Y-46600905D01*
X61376143Y-46553286D01*
X61423762Y-46505667D01*
X61471381Y-46410429D01*
X61471381Y-46124714D01*
X61423762Y-46029476D01*
X61376143Y-45981857D01*
M02*
