G04 (created by PCBNEW (2013-may-18)-stable) date Вт 21 апр 2015 20:47:11*
%MOIN*%
G04 Gerber Fmt 3.4, Leading zero omitted, Abs format*
%FSLAX34Y34*%
G01*
G70*
G90*
G04 APERTURE LIST*
%ADD10C,0.00590551*%
%ADD11C,0.16*%
%ADD12R,0.0787402X0.0984252*%
%ADD13O,0.0787402X0.0984252*%
%ADD14R,0.0984252X0.0787402*%
%ADD15O,0.0984252X0.0787402*%
%ADD16R,0.0787402X0.0393701*%
%ADD17R,0.08X0.06*%
G04 APERTURE END LIST*
G54D10*
G54D11*
X27263Y-29842D03*
X34488Y-23818D03*
G54D12*
X34791Y-31141D03*
G54D13*
X33791Y-31141D03*
G54D14*
X28740Y-30125D03*
G54D15*
X28740Y-29125D03*
G54D14*
X35059Y-29047D03*
G54D15*
X35059Y-30047D03*
G54D14*
X28307Y-27948D03*
G54D15*
X28307Y-26948D03*
X28307Y-25948D03*
G54D14*
X26968Y-27948D03*
G54D15*
X26968Y-26948D03*
X26968Y-25948D03*
G54D14*
X35059Y-25948D03*
G54D15*
X35059Y-26948D03*
X35059Y-27948D03*
G54D14*
X32874Y-24799D03*
G54D15*
X32874Y-23799D03*
X32874Y-22799D03*
G54D14*
X33543Y-25948D03*
G54D15*
X33543Y-26948D03*
X33543Y-27948D03*
G54D14*
X26968Y-24799D03*
G54D15*
X26968Y-23799D03*
X26968Y-22799D03*
G54D16*
X31456Y-24586D03*
X31456Y-23996D03*
X31456Y-23405D03*
X29488Y-23405D03*
X29488Y-23996D03*
X29488Y-24586D03*
X32716Y-30649D03*
X32716Y-30059D03*
X32716Y-29468D03*
X30748Y-29468D03*
X30748Y-30059D03*
X30748Y-30649D03*
G54D17*
X33661Y-30236D03*
X33661Y-28936D03*
X43602Y-30236D03*
X43602Y-28936D03*
G54D16*
X42657Y-30649D03*
X42657Y-30059D03*
X42657Y-29468D03*
X40688Y-29468D03*
X40688Y-30059D03*
X40688Y-30649D03*
X41397Y-24586D03*
X41397Y-23996D03*
X41397Y-23405D03*
X39429Y-23405D03*
X39429Y-23996D03*
X39429Y-24586D03*
G54D14*
X36909Y-24799D03*
G54D15*
X36909Y-23799D03*
X36909Y-22799D03*
G54D14*
X43484Y-25948D03*
G54D15*
X43484Y-26948D03*
X43484Y-27948D03*
G54D14*
X42814Y-24799D03*
G54D15*
X42814Y-23799D03*
X42814Y-22799D03*
G54D14*
X45000Y-25948D03*
G54D15*
X45000Y-26948D03*
X45000Y-27948D03*
G54D14*
X36909Y-27948D03*
G54D15*
X36909Y-26948D03*
X36909Y-25948D03*
G54D14*
X38248Y-27948D03*
G54D15*
X38248Y-26948D03*
X38248Y-25948D03*
G54D14*
X45000Y-29047D03*
G54D15*
X45000Y-30047D03*
G54D14*
X38681Y-30125D03*
G54D15*
X38681Y-29125D03*
G54D12*
X44732Y-31141D03*
G54D13*
X43732Y-31141D03*
G54D11*
X44429Y-23818D03*
X37204Y-29842D03*
X37204Y-19803D03*
X44429Y-13779D03*
G54D12*
X44732Y-21102D03*
G54D13*
X43732Y-21102D03*
G54D14*
X38681Y-20086D03*
G54D15*
X38681Y-19086D03*
G54D14*
X45000Y-19007D03*
G54D15*
X45000Y-20007D03*
G54D14*
X38248Y-17909D03*
G54D15*
X38248Y-16909D03*
X38248Y-15909D03*
G54D14*
X36909Y-17909D03*
G54D15*
X36909Y-16909D03*
X36909Y-15909D03*
G54D14*
X45000Y-15909D03*
G54D15*
X45000Y-16909D03*
X45000Y-17909D03*
G54D14*
X42814Y-14759D03*
G54D15*
X42814Y-13759D03*
X42814Y-12759D03*
G54D14*
X43484Y-15909D03*
G54D15*
X43484Y-16909D03*
X43484Y-17909D03*
G54D14*
X36909Y-14759D03*
G54D15*
X36909Y-13759D03*
X36909Y-12759D03*
G54D16*
X41397Y-14547D03*
X41397Y-13956D03*
X41397Y-13366D03*
X39429Y-13366D03*
X39429Y-13956D03*
X39429Y-14547D03*
X42657Y-20610D03*
X42657Y-20019D03*
X42657Y-19429D03*
X40688Y-19429D03*
X40688Y-20019D03*
X40688Y-20610D03*
G54D17*
X43602Y-20197D03*
X43602Y-18897D03*
X33661Y-20197D03*
X33661Y-18897D03*
G54D16*
X32716Y-20610D03*
X32716Y-20019D03*
X32716Y-19429D03*
X30748Y-19429D03*
X30748Y-20019D03*
X30748Y-20610D03*
X31456Y-14547D03*
X31456Y-13956D03*
X31456Y-13366D03*
X29488Y-13366D03*
X29488Y-13956D03*
X29488Y-14547D03*
G54D14*
X26968Y-14759D03*
G54D15*
X26968Y-13759D03*
X26968Y-12759D03*
G54D14*
X33543Y-15909D03*
G54D15*
X33543Y-16909D03*
X33543Y-17909D03*
G54D14*
X32874Y-14759D03*
G54D15*
X32874Y-13759D03*
X32874Y-12759D03*
G54D14*
X35059Y-15909D03*
G54D15*
X35059Y-16909D03*
X35059Y-17909D03*
G54D14*
X26968Y-17909D03*
G54D15*
X26968Y-16909D03*
X26968Y-15909D03*
G54D14*
X28307Y-17909D03*
G54D15*
X28307Y-16909D03*
X28307Y-15909D03*
G54D14*
X35059Y-19007D03*
G54D15*
X35059Y-20007D03*
G54D14*
X28740Y-20086D03*
G54D15*
X28740Y-19086D03*
G54D12*
X34791Y-21102D03*
G54D13*
X33791Y-21102D03*
G54D11*
X34488Y-13779D03*
X27263Y-19803D03*
M02*
