G04 (created by PCBNEW (2013-may-18)-stable) date Вт 21 апр 2015 20:47:11*
%MOIN*%
G04 Gerber Fmt 3.4, Leading zero omitted, Abs format*
%FSLAX34Y34*%
G01*
G70*
G90*
G04 APERTURE LIST*
%ADD10C,0.00590551*%
%ADD11C,0.16*%
%ADD12R,0.0787402X0.0984252*%
%ADD13O,0.0787402X0.0984252*%
%ADD14R,0.0984252X0.0787402*%
%ADD15O,0.0984252X0.0787402*%
%ADD16R,0.06X0.08*%
%ADD17C,0.0275591*%
%ADD18C,0.0275591*%
G04 APERTURE END LIST*
G54D10*
G54D11*
X27263Y-29842D03*
X34488Y-23818D03*
G54D12*
X34791Y-31141D03*
G54D13*
X33791Y-31141D03*
G54D14*
X28740Y-30125D03*
G54D15*
X28740Y-29125D03*
G54D14*
X35059Y-29047D03*
G54D15*
X35059Y-30047D03*
G54D14*
X28307Y-27948D03*
G54D15*
X28307Y-26948D03*
X28307Y-25948D03*
G54D14*
X26968Y-27948D03*
G54D15*
X26968Y-26948D03*
X26968Y-25948D03*
G54D14*
X35059Y-25948D03*
G54D15*
X35059Y-26948D03*
X35059Y-27948D03*
G54D14*
X32874Y-24799D03*
G54D15*
X32874Y-23799D03*
X32874Y-22799D03*
G54D14*
X33543Y-25948D03*
G54D15*
X33543Y-26948D03*
X33543Y-27948D03*
G54D14*
X26968Y-24799D03*
G54D15*
X26968Y-23799D03*
X26968Y-22799D03*
G54D16*
X29665Y-22736D03*
X28365Y-22736D03*
X29665Y-23799D03*
X28365Y-23799D03*
X29665Y-24940D03*
X28365Y-24940D03*
X31004Y-29074D03*
X29704Y-29074D03*
X31004Y-30059D03*
X29704Y-30059D03*
X31004Y-31082D03*
X29704Y-31082D03*
X40945Y-31082D03*
X39645Y-31082D03*
X40945Y-30059D03*
X39645Y-30059D03*
X40945Y-29074D03*
X39645Y-29074D03*
X39606Y-24940D03*
X38306Y-24940D03*
X39606Y-23799D03*
X38306Y-23799D03*
X39606Y-22736D03*
X38306Y-22736D03*
G54D14*
X36909Y-24799D03*
G54D15*
X36909Y-23799D03*
X36909Y-22799D03*
G54D14*
X43484Y-25948D03*
G54D15*
X43484Y-26948D03*
X43484Y-27948D03*
G54D14*
X42814Y-24799D03*
G54D15*
X42814Y-23799D03*
X42814Y-22799D03*
G54D14*
X45000Y-25948D03*
G54D15*
X45000Y-26948D03*
X45000Y-27948D03*
G54D14*
X36909Y-27948D03*
G54D15*
X36909Y-26948D03*
X36909Y-25948D03*
G54D14*
X38248Y-27948D03*
G54D15*
X38248Y-26948D03*
X38248Y-25948D03*
G54D14*
X45000Y-29047D03*
G54D15*
X45000Y-30047D03*
G54D14*
X38681Y-30125D03*
G54D15*
X38681Y-29125D03*
G54D12*
X44732Y-31141D03*
G54D13*
X43732Y-31141D03*
G54D11*
X44429Y-23818D03*
X37204Y-29842D03*
X37204Y-19803D03*
X44429Y-13779D03*
G54D12*
X44732Y-21102D03*
G54D13*
X43732Y-21102D03*
G54D14*
X38681Y-20086D03*
G54D15*
X38681Y-19086D03*
G54D14*
X45000Y-19007D03*
G54D15*
X45000Y-20007D03*
G54D14*
X38248Y-17909D03*
G54D15*
X38248Y-16909D03*
X38248Y-15909D03*
G54D14*
X36909Y-17909D03*
G54D15*
X36909Y-16909D03*
X36909Y-15909D03*
G54D14*
X45000Y-15909D03*
G54D15*
X45000Y-16909D03*
X45000Y-17909D03*
G54D14*
X42814Y-14759D03*
G54D15*
X42814Y-13759D03*
X42814Y-12759D03*
G54D14*
X43484Y-15909D03*
G54D15*
X43484Y-16909D03*
X43484Y-17909D03*
G54D14*
X36909Y-14759D03*
G54D15*
X36909Y-13759D03*
X36909Y-12759D03*
G54D16*
X39606Y-12696D03*
X38306Y-12696D03*
X39606Y-13759D03*
X38306Y-13759D03*
X39606Y-14901D03*
X38306Y-14901D03*
X40945Y-19035D03*
X39645Y-19035D03*
X40945Y-20019D03*
X39645Y-20019D03*
X40945Y-21043D03*
X39645Y-21043D03*
X31004Y-21043D03*
X29704Y-21043D03*
X31004Y-20019D03*
X29704Y-20019D03*
X31004Y-19035D03*
X29704Y-19035D03*
X29665Y-14901D03*
X28365Y-14901D03*
X29665Y-13759D03*
X28365Y-13759D03*
X29665Y-12696D03*
X28365Y-12696D03*
G54D14*
X26968Y-14759D03*
G54D15*
X26968Y-13759D03*
X26968Y-12759D03*
G54D14*
X33543Y-15909D03*
G54D15*
X33543Y-16909D03*
X33543Y-17909D03*
G54D14*
X32874Y-14759D03*
G54D15*
X32874Y-13759D03*
X32874Y-12759D03*
G54D14*
X35059Y-15909D03*
G54D15*
X35059Y-16909D03*
X35059Y-17909D03*
G54D14*
X26968Y-17909D03*
G54D15*
X26968Y-16909D03*
X26968Y-15909D03*
G54D14*
X28307Y-17909D03*
G54D15*
X28307Y-16909D03*
X28307Y-15909D03*
G54D14*
X35059Y-19007D03*
G54D15*
X35059Y-20007D03*
G54D14*
X28740Y-20086D03*
G54D15*
X28740Y-19086D03*
G54D12*
X34791Y-21102D03*
G54D13*
X33791Y-21102D03*
G54D11*
X34488Y-13779D03*
X27263Y-19803D03*
G54D17*
X32224Y-26279D03*
X32322Y-27362D03*
X42263Y-27362D03*
X42165Y-26279D03*
X42165Y-16240D03*
X42263Y-17322D03*
X32322Y-17322D03*
X32224Y-16240D03*
X34291Y-29429D03*
X44232Y-29429D03*
X44232Y-19389D03*
X34291Y-19389D03*
X28897Y-23956D03*
X38838Y-23956D03*
X38838Y-13917D03*
X28897Y-13917D03*
X30275Y-29153D03*
X40216Y-29153D03*
X40216Y-19114D03*
X30275Y-19114D03*
X30196Y-30059D03*
X40137Y-30059D03*
X40137Y-20019D03*
X30196Y-20019D03*
X31771Y-31043D03*
X33385Y-29665D03*
X43326Y-29665D03*
X41712Y-31043D03*
X41712Y-21003D03*
X43326Y-19625D03*
X33385Y-19625D03*
X31771Y-21003D03*
X31968Y-28366D03*
X30511Y-24311D03*
X40452Y-24311D03*
X41909Y-28366D03*
X41909Y-18326D03*
X40452Y-14271D03*
X30511Y-14271D03*
X31968Y-18326D03*
X31023Y-28326D03*
X30078Y-25688D03*
X40019Y-25688D03*
X40964Y-28326D03*
X40964Y-18287D03*
X40019Y-15649D03*
X30078Y-15649D03*
X31023Y-18287D03*
X28937Y-23405D03*
X38877Y-23405D03*
X38877Y-13366D03*
X28937Y-13366D03*
X28937Y-24940D03*
X38877Y-24940D03*
X38877Y-14901D03*
X28937Y-14901D03*
X32440Y-28720D03*
X42381Y-28720D03*
X42381Y-18681D03*
X32440Y-18681D03*
X30275Y-30964D03*
X40216Y-30964D03*
X40216Y-20925D03*
X30275Y-20925D03*
X32795Y-28287D03*
X42736Y-28287D03*
X42736Y-18248D03*
X32795Y-18248D03*
G54D18*
X32224Y-26279D02*
X32322Y-26377D01*
X32322Y-26377D02*
X32322Y-27362D01*
X42263Y-26377D02*
X42263Y-27362D01*
X42165Y-26279D02*
X42263Y-26377D01*
X42165Y-16240D02*
X42263Y-16338D01*
X42263Y-16338D02*
X42263Y-17322D01*
X32322Y-16338D02*
X32322Y-17322D01*
X32224Y-16240D02*
X32322Y-16338D01*
X29665Y-22696D02*
X29665Y-23799D01*
X29665Y-23799D02*
X29665Y-24940D01*
X31004Y-29074D02*
X31004Y-30059D01*
X31004Y-30059D02*
X31004Y-31082D01*
X31004Y-28937D02*
X30354Y-28287D01*
X30354Y-28287D02*
X29921Y-28287D01*
X29921Y-28287D02*
X29665Y-28031D01*
X29665Y-28031D02*
X29665Y-24940D01*
X31004Y-29074D02*
X31004Y-28937D01*
X28740Y-28799D02*
X29507Y-28031D01*
X29507Y-28031D02*
X29665Y-28031D01*
X28740Y-29125D02*
X28740Y-28799D01*
X34224Y-30047D02*
X34035Y-30236D01*
X34035Y-30236D02*
X33070Y-30236D01*
X33070Y-30236D02*
X32421Y-30885D01*
X32421Y-30885D02*
X32421Y-31200D01*
X32421Y-31200D02*
X32185Y-31437D01*
X32185Y-31437D02*
X31358Y-31437D01*
X31358Y-31437D02*
X31004Y-31082D01*
X35059Y-30047D02*
X34224Y-30047D01*
X45000Y-30047D02*
X44165Y-30047D01*
X41299Y-31437D02*
X40945Y-31082D01*
X42125Y-31437D02*
X41299Y-31437D01*
X42362Y-31200D02*
X42125Y-31437D01*
X42362Y-30885D02*
X42362Y-31200D01*
X43011Y-30236D02*
X42362Y-30885D01*
X43976Y-30236D02*
X43011Y-30236D01*
X44165Y-30047D02*
X43976Y-30236D01*
X38681Y-29125D02*
X38681Y-28799D01*
X39448Y-28031D02*
X39606Y-28031D01*
X38681Y-28799D02*
X39448Y-28031D01*
X40945Y-29074D02*
X40945Y-28937D01*
X39606Y-28031D02*
X39606Y-24940D01*
X39862Y-28287D02*
X39606Y-28031D01*
X40295Y-28287D02*
X39862Y-28287D01*
X40945Y-28937D02*
X40295Y-28287D01*
X40945Y-30059D02*
X40945Y-31082D01*
X40945Y-29074D02*
X40945Y-30059D01*
X39606Y-23799D02*
X39606Y-24940D01*
X39606Y-22696D02*
X39606Y-23799D01*
X39606Y-12657D02*
X39606Y-13759D01*
X39606Y-13759D02*
X39606Y-14901D01*
X40945Y-19035D02*
X40945Y-20019D01*
X40945Y-20019D02*
X40945Y-21043D01*
X40945Y-18898D02*
X40295Y-18248D01*
X40295Y-18248D02*
X39862Y-18248D01*
X39862Y-18248D02*
X39606Y-17992D01*
X39606Y-17992D02*
X39606Y-14901D01*
X40945Y-19035D02*
X40945Y-18898D01*
X38681Y-18759D02*
X39448Y-17992D01*
X39448Y-17992D02*
X39606Y-17992D01*
X38681Y-19086D02*
X38681Y-18759D01*
X44165Y-20007D02*
X43976Y-20196D01*
X43976Y-20196D02*
X43011Y-20196D01*
X43011Y-20196D02*
X42362Y-20846D01*
X42362Y-20846D02*
X42362Y-21161D01*
X42362Y-21161D02*
X42125Y-21397D01*
X42125Y-21397D02*
X41299Y-21397D01*
X41299Y-21397D02*
X40945Y-21043D01*
X45000Y-20007D02*
X44165Y-20007D01*
X35059Y-20007D02*
X34224Y-20007D01*
X31358Y-21397D02*
X31004Y-21043D01*
X32185Y-21397D02*
X31358Y-21397D01*
X32421Y-21161D02*
X32185Y-21397D01*
X32421Y-20846D02*
X32421Y-21161D01*
X33070Y-20196D02*
X32421Y-20846D01*
X34035Y-20196D02*
X33070Y-20196D01*
X34224Y-20007D02*
X34035Y-20196D01*
X28740Y-19086D02*
X28740Y-18759D01*
X29507Y-17992D02*
X29665Y-17992D01*
X28740Y-18759D02*
X29507Y-17992D01*
X31004Y-19035D02*
X31004Y-18898D01*
X29665Y-17992D02*
X29665Y-14901D01*
X29921Y-18248D02*
X29665Y-17992D01*
X30354Y-18248D02*
X29921Y-18248D01*
X31004Y-18898D02*
X30354Y-18248D01*
X31004Y-20019D02*
X31004Y-21043D01*
X31004Y-19035D02*
X31004Y-20019D01*
X29665Y-13759D02*
X29665Y-14901D01*
X29665Y-12657D02*
X29665Y-13759D01*
X34291Y-29429D02*
X34291Y-27500D01*
X34291Y-27500D02*
X34842Y-26948D01*
X34842Y-26948D02*
X35059Y-26948D01*
X44783Y-26948D02*
X45000Y-26948D01*
X44232Y-27500D02*
X44783Y-26948D01*
X44232Y-29429D02*
X44232Y-27500D01*
X44232Y-19389D02*
X44232Y-17460D01*
X44232Y-17460D02*
X44783Y-16909D01*
X44783Y-16909D02*
X45000Y-16909D01*
X34842Y-16909D02*
X35059Y-16909D01*
X34291Y-17460D02*
X34842Y-16909D01*
X34291Y-19389D02*
X34291Y-17460D01*
X28897Y-23956D02*
X28740Y-23799D01*
X28740Y-23799D02*
X28365Y-23799D01*
X38681Y-23799D02*
X38306Y-23799D01*
X38838Y-23956D02*
X38681Y-23799D01*
X38838Y-13917D02*
X38681Y-13759D01*
X38681Y-13759D02*
X38306Y-13759D01*
X28740Y-13759D02*
X28365Y-13759D01*
X28897Y-13917D02*
X28740Y-13759D01*
X30275Y-29153D02*
X30196Y-29074D01*
X30196Y-29074D02*
X29704Y-29074D01*
X40137Y-29074D02*
X39645Y-29074D01*
X40216Y-29153D02*
X40137Y-29074D01*
X40216Y-19114D02*
X40137Y-19035D01*
X40137Y-19035D02*
X39645Y-19035D01*
X30196Y-19035D02*
X29704Y-19035D01*
X30275Y-19114D02*
X30196Y-19035D01*
X30196Y-30059D02*
X29704Y-30059D01*
X40137Y-30059D02*
X39645Y-30059D01*
X40137Y-20019D02*
X39645Y-20019D01*
X30196Y-20019D02*
X29704Y-20019D01*
X32637Y-29665D02*
X31771Y-30531D01*
X31771Y-30531D02*
X31771Y-31043D01*
X33385Y-29665D02*
X32637Y-29665D01*
X43326Y-29665D02*
X42578Y-29665D01*
X41712Y-30531D02*
X41712Y-31043D01*
X42578Y-29665D02*
X41712Y-30531D01*
X42578Y-19625D02*
X41712Y-20492D01*
X41712Y-20492D02*
X41712Y-21003D01*
X43326Y-19625D02*
X42578Y-19625D01*
X33385Y-19625D02*
X32637Y-19625D01*
X31771Y-20492D02*
X31771Y-21003D01*
X32637Y-19625D02*
X31771Y-20492D01*
X31968Y-28366D02*
X30511Y-26909D01*
X30511Y-26909D02*
X30511Y-24311D01*
X40452Y-26909D02*
X40452Y-24311D01*
X41909Y-28366D02*
X40452Y-26909D01*
X41909Y-18326D02*
X40452Y-16870D01*
X40452Y-16870D02*
X40452Y-14271D01*
X30511Y-16870D02*
X30511Y-14271D01*
X31968Y-18326D02*
X30511Y-16870D01*
X31023Y-28326D02*
X30078Y-27381D01*
X30078Y-27381D02*
X30078Y-25688D01*
X40019Y-27381D02*
X40019Y-25688D01*
X40964Y-28326D02*
X40019Y-27381D01*
X40964Y-18287D02*
X40019Y-17342D01*
X40019Y-17342D02*
X40019Y-15649D01*
X30078Y-17342D02*
X30078Y-15649D01*
X31023Y-18287D02*
X30078Y-17342D01*
X28937Y-23405D02*
X28937Y-23110D01*
X28937Y-23110D02*
X28562Y-22736D01*
X28562Y-22736D02*
X28365Y-22736D01*
X38503Y-22736D02*
X38306Y-22736D01*
X38877Y-23110D02*
X38503Y-22736D01*
X38877Y-23405D02*
X38877Y-23110D01*
X38877Y-13366D02*
X38877Y-13070D01*
X38877Y-13070D02*
X38503Y-12696D01*
X38503Y-12696D02*
X38306Y-12696D01*
X28562Y-12696D02*
X28365Y-12696D01*
X28937Y-13070D02*
X28562Y-12696D01*
X28937Y-13366D02*
X28937Y-13070D01*
X28937Y-24940D02*
X28365Y-24940D01*
X38877Y-24940D02*
X38306Y-24940D01*
X38877Y-14901D02*
X38306Y-14901D01*
X28937Y-14901D02*
X28365Y-14901D01*
X31456Y-23405D02*
X32062Y-22799D01*
X32062Y-22799D02*
X32874Y-22799D01*
X31456Y-27106D02*
X31456Y-25925D01*
X32362Y-28011D02*
X31456Y-27106D01*
X32362Y-28641D02*
X32362Y-28011D01*
X32440Y-28720D02*
X32362Y-28641D01*
X31456Y-25925D02*
X31456Y-23405D01*
X41397Y-25925D02*
X41397Y-23405D01*
X42381Y-28720D02*
X42303Y-28641D01*
X42303Y-28641D02*
X42303Y-28011D01*
X42303Y-28011D02*
X41397Y-27106D01*
X41397Y-27106D02*
X41397Y-25925D01*
X42003Y-22799D02*
X42814Y-22799D01*
X41397Y-23405D02*
X42003Y-22799D01*
X41397Y-13366D02*
X42003Y-12759D01*
X42003Y-12759D02*
X42814Y-12759D01*
X41397Y-17066D02*
X41397Y-15885D01*
X42303Y-17972D02*
X41397Y-17066D01*
X42303Y-18602D02*
X42303Y-17972D01*
X42381Y-18681D02*
X42303Y-18602D01*
X41397Y-15885D02*
X41397Y-13366D01*
X31456Y-15885D02*
X31456Y-13366D01*
X32440Y-18681D02*
X32362Y-18602D01*
X32362Y-18602D02*
X32362Y-17972D01*
X32362Y-17972D02*
X31456Y-17066D01*
X31456Y-17066D02*
X31456Y-15885D01*
X32062Y-12759D02*
X32874Y-12759D01*
X31456Y-13366D02*
X32062Y-12759D01*
X30275Y-30964D02*
X30157Y-31082D01*
X30157Y-31082D02*
X29704Y-31082D01*
X40098Y-31082D02*
X39645Y-31082D01*
X40216Y-30964D02*
X40098Y-31082D01*
X40216Y-20925D02*
X40098Y-21043D01*
X40098Y-21043D02*
X39645Y-21043D01*
X30157Y-21043D02*
X29704Y-21043D01*
X30275Y-20925D02*
X30157Y-21043D01*
X33125Y-25948D02*
X33543Y-25948D01*
X32795Y-26279D02*
X33125Y-25948D01*
X32795Y-28287D02*
X32795Y-26279D01*
X42736Y-28287D02*
X42736Y-26279D01*
X42736Y-26279D02*
X43066Y-25948D01*
X43066Y-25948D02*
X43484Y-25948D01*
X43066Y-15909D02*
X43484Y-15909D01*
X42736Y-16240D02*
X43066Y-15909D01*
X42736Y-18248D02*
X42736Y-16240D01*
X32795Y-18248D02*
X32795Y-16240D01*
X32795Y-16240D02*
X33125Y-15909D01*
X33125Y-15909D02*
X33543Y-15909D01*
M02*
