G04 (created by PCBNEW (2013-may-18)-stable) date Вт 21 апр 2015 20:47:11*
%MOIN*%
G04 Gerber Fmt 3.4, Leading zero omitted, Abs format*
%FSLAX34Y34*%
G01*
G70*
G90*
G04 APERTURE LIST*
%ADD10C,0.00590551*%
%ADD11C,0.16*%
%ADD12R,0.0787402X0.0984252*%
%ADD13O,0.0787402X0.0984252*%
%ADD14R,0.0984252X0.0787402*%
%ADD15O,0.0984252X0.0787402*%
%ADD16R,0.0787402X0.0393701*%
%ADD17R,0.08X0.06*%
%ADD18C,0.0275591*%
%ADD19C,0.0275591*%
G04 APERTURE END LIST*
G54D10*
G54D11*
X27263Y-29842D03*
X34488Y-23818D03*
G54D12*
X34791Y-31141D03*
G54D13*
X33791Y-31141D03*
G54D14*
X28740Y-30125D03*
G54D15*
X28740Y-29125D03*
G54D14*
X35059Y-29047D03*
G54D15*
X35059Y-30047D03*
G54D14*
X28307Y-27948D03*
G54D15*
X28307Y-26948D03*
X28307Y-25948D03*
G54D14*
X26968Y-27948D03*
G54D15*
X26968Y-26948D03*
X26968Y-25948D03*
G54D14*
X35059Y-25948D03*
G54D15*
X35059Y-26948D03*
X35059Y-27948D03*
G54D14*
X32874Y-24799D03*
G54D15*
X32874Y-23799D03*
X32874Y-22799D03*
G54D14*
X33543Y-25948D03*
G54D15*
X33543Y-26948D03*
X33543Y-27948D03*
G54D14*
X26968Y-24799D03*
G54D15*
X26968Y-23799D03*
X26968Y-22799D03*
G54D16*
X31456Y-24586D03*
X31456Y-23996D03*
X31456Y-23405D03*
X29488Y-23405D03*
X29488Y-23996D03*
X29488Y-24586D03*
X32716Y-30649D03*
X32716Y-30059D03*
X32716Y-29468D03*
X30748Y-29468D03*
X30748Y-30059D03*
X30748Y-30649D03*
G54D17*
X33661Y-30236D03*
X33661Y-28936D03*
X43602Y-30236D03*
X43602Y-28936D03*
G54D16*
X42657Y-30649D03*
X42657Y-30059D03*
X42657Y-29468D03*
X40688Y-29468D03*
X40688Y-30059D03*
X40688Y-30649D03*
X41397Y-24586D03*
X41397Y-23996D03*
X41397Y-23405D03*
X39429Y-23405D03*
X39429Y-23996D03*
X39429Y-24586D03*
G54D14*
X36909Y-24799D03*
G54D15*
X36909Y-23799D03*
X36909Y-22799D03*
G54D14*
X43484Y-25948D03*
G54D15*
X43484Y-26948D03*
X43484Y-27948D03*
G54D14*
X42814Y-24799D03*
G54D15*
X42814Y-23799D03*
X42814Y-22799D03*
G54D14*
X45000Y-25948D03*
G54D15*
X45000Y-26948D03*
X45000Y-27948D03*
G54D14*
X36909Y-27948D03*
G54D15*
X36909Y-26948D03*
X36909Y-25948D03*
G54D14*
X38248Y-27948D03*
G54D15*
X38248Y-26948D03*
X38248Y-25948D03*
G54D14*
X45000Y-29047D03*
G54D15*
X45000Y-30047D03*
G54D14*
X38681Y-30125D03*
G54D15*
X38681Y-29125D03*
G54D12*
X44732Y-31141D03*
G54D13*
X43732Y-31141D03*
G54D11*
X44429Y-23818D03*
X37204Y-29842D03*
X37204Y-19803D03*
X44429Y-13779D03*
G54D12*
X44732Y-21102D03*
G54D13*
X43732Y-21102D03*
G54D14*
X38681Y-20086D03*
G54D15*
X38681Y-19086D03*
G54D14*
X45000Y-19007D03*
G54D15*
X45000Y-20007D03*
G54D14*
X38248Y-17909D03*
G54D15*
X38248Y-16909D03*
X38248Y-15909D03*
G54D14*
X36909Y-17909D03*
G54D15*
X36909Y-16909D03*
X36909Y-15909D03*
G54D14*
X45000Y-15909D03*
G54D15*
X45000Y-16909D03*
X45000Y-17909D03*
G54D14*
X42814Y-14759D03*
G54D15*
X42814Y-13759D03*
X42814Y-12759D03*
G54D14*
X43484Y-15909D03*
G54D15*
X43484Y-16909D03*
X43484Y-17909D03*
G54D14*
X36909Y-14759D03*
G54D15*
X36909Y-13759D03*
X36909Y-12759D03*
G54D16*
X41397Y-14547D03*
X41397Y-13956D03*
X41397Y-13366D03*
X39429Y-13366D03*
X39429Y-13956D03*
X39429Y-14547D03*
X42657Y-20610D03*
X42657Y-20019D03*
X42657Y-19429D03*
X40688Y-19429D03*
X40688Y-20019D03*
X40688Y-20610D03*
G54D17*
X43602Y-20197D03*
X43602Y-18897D03*
X33661Y-20197D03*
X33661Y-18897D03*
G54D16*
X32716Y-20610D03*
X32716Y-20019D03*
X32716Y-19429D03*
X30748Y-19429D03*
X30748Y-20019D03*
X30748Y-20610D03*
X31456Y-14547D03*
X31456Y-13956D03*
X31456Y-13366D03*
X29488Y-13366D03*
X29488Y-13956D03*
X29488Y-14547D03*
G54D14*
X26968Y-14759D03*
G54D15*
X26968Y-13759D03*
X26968Y-12759D03*
G54D14*
X33543Y-15909D03*
G54D15*
X33543Y-16909D03*
X33543Y-17909D03*
G54D14*
X32874Y-14759D03*
G54D15*
X32874Y-13759D03*
X32874Y-12759D03*
G54D14*
X35059Y-15909D03*
G54D15*
X35059Y-16909D03*
X35059Y-17909D03*
G54D14*
X26968Y-17909D03*
G54D15*
X26968Y-16909D03*
X26968Y-15909D03*
G54D14*
X28307Y-17909D03*
G54D15*
X28307Y-16909D03*
X28307Y-15909D03*
G54D14*
X35059Y-19007D03*
G54D15*
X35059Y-20007D03*
G54D14*
X28740Y-20086D03*
G54D15*
X28740Y-19086D03*
G54D12*
X34791Y-21102D03*
G54D13*
X33791Y-21102D03*
G54D11*
X34488Y-13779D03*
X27263Y-19803D03*
G54D18*
X32224Y-26279D03*
X32322Y-27362D03*
X42263Y-27362D03*
X42165Y-26279D03*
X42165Y-16240D03*
X42263Y-17322D03*
X32322Y-17322D03*
X32224Y-16240D03*
X34291Y-29429D03*
X44232Y-29429D03*
X44232Y-19389D03*
X34291Y-19389D03*
X28897Y-23956D03*
X38838Y-23956D03*
X38838Y-13917D03*
X28897Y-13917D03*
X30275Y-29153D03*
X40216Y-29153D03*
X40216Y-19114D03*
X30275Y-19114D03*
X30196Y-30059D03*
X40137Y-30059D03*
X40137Y-20019D03*
X30196Y-20019D03*
X31771Y-31043D03*
X33385Y-29665D03*
X43326Y-29665D03*
X41712Y-31043D03*
X41712Y-21003D03*
X43326Y-19625D03*
X33385Y-19625D03*
X31771Y-21003D03*
X31968Y-28366D03*
X30511Y-24311D03*
X40452Y-24311D03*
X41909Y-28366D03*
X41909Y-18326D03*
X40452Y-14271D03*
X30511Y-14271D03*
X31968Y-18326D03*
X31023Y-28326D03*
X30078Y-25688D03*
X40019Y-25688D03*
X40964Y-28326D03*
X40964Y-18287D03*
X40019Y-15649D03*
X30078Y-15649D03*
X31023Y-18287D03*
X28937Y-23405D03*
X38877Y-23405D03*
X38877Y-13366D03*
X28937Y-13366D03*
X28937Y-24940D03*
X38877Y-24940D03*
X38877Y-14901D03*
X28937Y-14901D03*
X32440Y-28720D03*
X42381Y-28720D03*
X42381Y-18681D03*
X32440Y-18681D03*
X30275Y-30964D03*
X40216Y-30964D03*
X40216Y-20925D03*
X30275Y-20925D03*
X32795Y-28287D03*
X42736Y-28287D03*
X42736Y-18248D03*
X32795Y-18248D03*
G54D19*
X33543Y-27948D02*
X34921Y-27948D01*
X26968Y-25948D02*
X28307Y-25948D01*
X28940Y-25948D02*
X29114Y-26122D01*
X29114Y-26122D02*
X32066Y-26122D01*
X32066Y-26122D02*
X32224Y-26279D01*
X32322Y-27362D02*
X32519Y-27559D01*
X32519Y-27559D02*
X33153Y-27559D01*
X33153Y-27559D02*
X33543Y-27948D01*
X28307Y-25948D02*
X28940Y-25948D01*
X38248Y-25948D02*
X38881Y-25948D01*
X43094Y-27559D02*
X43484Y-27948D01*
X42460Y-27559D02*
X43094Y-27559D01*
X42263Y-27362D02*
X42460Y-27559D01*
X42007Y-26122D02*
X42165Y-26279D01*
X39055Y-26122D02*
X42007Y-26122D01*
X38881Y-25948D02*
X39055Y-26122D01*
X36909Y-25948D02*
X38248Y-25948D01*
X43484Y-27948D02*
X44862Y-27948D01*
X43484Y-17909D02*
X44862Y-17909D01*
X36909Y-15909D02*
X38248Y-15909D01*
X38881Y-15909D02*
X39055Y-16082D01*
X39055Y-16082D02*
X42007Y-16082D01*
X42007Y-16082D02*
X42165Y-16240D01*
X42263Y-17322D02*
X42460Y-17519D01*
X42460Y-17519D02*
X43094Y-17519D01*
X43094Y-17519D02*
X43484Y-17909D01*
X38248Y-15909D02*
X38881Y-15909D01*
X28307Y-15909D02*
X28940Y-15909D01*
X33153Y-17519D02*
X33543Y-17909D01*
X32519Y-17519D02*
X33153Y-17519D01*
X32322Y-17322D02*
X32519Y-17519D01*
X32066Y-16082D02*
X32224Y-16240D01*
X29114Y-16082D02*
X32066Y-16082D01*
X28940Y-15909D02*
X29114Y-16082D01*
X26968Y-15909D02*
X28307Y-15909D01*
X33543Y-17909D02*
X34921Y-17909D01*
X29685Y-26948D02*
X33543Y-26948D01*
X33543Y-26948D02*
X34921Y-26948D01*
X28307Y-26948D02*
X29685Y-26948D01*
X26968Y-26948D02*
X28307Y-26948D01*
X34791Y-31129D02*
X34311Y-30649D01*
X34311Y-30649D02*
X34311Y-29448D01*
X34311Y-29448D02*
X34291Y-29429D01*
X34791Y-31240D02*
X34791Y-31129D01*
X44732Y-31240D02*
X44732Y-31129D01*
X44251Y-29448D02*
X44232Y-29429D01*
X44251Y-30649D02*
X44251Y-29448D01*
X44732Y-31129D02*
X44251Y-30649D01*
X36909Y-26948D02*
X38248Y-26948D01*
X38248Y-26948D02*
X39625Y-26948D01*
X43484Y-26948D02*
X44862Y-26948D01*
X39625Y-26948D02*
X43484Y-26948D01*
X39625Y-16909D02*
X43484Y-16909D01*
X43484Y-16909D02*
X44862Y-16909D01*
X38248Y-16909D02*
X39625Y-16909D01*
X36909Y-16909D02*
X38248Y-16909D01*
X44732Y-21090D02*
X44251Y-20610D01*
X44251Y-20610D02*
X44251Y-19409D01*
X44251Y-19409D02*
X44232Y-19389D01*
X44732Y-21200D02*
X44732Y-21090D01*
X34791Y-21200D02*
X34791Y-21090D01*
X34311Y-19409D02*
X34291Y-19389D01*
X34311Y-20610D02*
X34311Y-19409D01*
X34791Y-21090D02*
X34311Y-20610D01*
X26968Y-16909D02*
X28307Y-16909D01*
X28307Y-16909D02*
X29685Y-16909D01*
X33543Y-16909D02*
X34921Y-16909D01*
X29685Y-16909D02*
X33543Y-16909D01*
X28937Y-23996D02*
X28897Y-23956D01*
X29488Y-23996D02*
X28937Y-23996D01*
X39429Y-23996D02*
X38877Y-23996D01*
X38877Y-23996D02*
X38838Y-23956D01*
X38877Y-13956D02*
X38838Y-13917D01*
X39429Y-13956D02*
X38877Y-13956D01*
X29488Y-13956D02*
X28937Y-13956D01*
X28937Y-13956D02*
X28897Y-13917D01*
X30590Y-29468D02*
X30275Y-29153D01*
X30748Y-29468D02*
X30590Y-29468D01*
X40688Y-29468D02*
X40531Y-29468D01*
X40531Y-29468D02*
X40216Y-29153D01*
X40531Y-19429D02*
X40216Y-19114D01*
X40688Y-19429D02*
X40531Y-19429D01*
X30748Y-19429D02*
X30590Y-19429D01*
X30590Y-19429D02*
X30275Y-19114D01*
X30748Y-30059D02*
X30196Y-30059D01*
X40688Y-30059D02*
X40137Y-30059D01*
X40688Y-20019D02*
X40137Y-20019D01*
X30748Y-20019D02*
X30196Y-20019D01*
X33779Y-31149D02*
X33870Y-31240D01*
X33779Y-30236D02*
X33779Y-31149D01*
X43720Y-30236D02*
X43720Y-31149D01*
X43720Y-31149D02*
X43811Y-31240D01*
X43720Y-21110D02*
X43811Y-21200D01*
X43720Y-20197D02*
X43720Y-21110D01*
X33779Y-20197D02*
X33779Y-21110D01*
X33779Y-21110D02*
X33870Y-21200D01*
X31771Y-31043D02*
X31456Y-31358D01*
X31456Y-31358D02*
X29972Y-31358D01*
X29972Y-31358D02*
X28740Y-30125D01*
X33779Y-28936D02*
X33779Y-29271D01*
X33779Y-29271D02*
X33385Y-29665D01*
X34921Y-29047D02*
X33890Y-29047D01*
X33890Y-29047D02*
X33779Y-28936D01*
X43831Y-29047D02*
X43720Y-28936D01*
X44862Y-29047D02*
X43831Y-29047D01*
X43720Y-29271D02*
X43326Y-29665D01*
X43720Y-28936D02*
X43720Y-29271D01*
X39913Y-31358D02*
X38681Y-30125D01*
X41397Y-31358D02*
X39913Y-31358D01*
X41712Y-31043D02*
X41397Y-31358D01*
X41712Y-21003D02*
X41397Y-21318D01*
X41397Y-21318D02*
X39913Y-21318D01*
X39913Y-21318D02*
X38681Y-20086D01*
X43720Y-18897D02*
X43720Y-19232D01*
X43720Y-19232D02*
X43326Y-19625D01*
X44862Y-19007D02*
X43831Y-19007D01*
X43831Y-19007D02*
X43720Y-18897D01*
X33890Y-19007D02*
X33779Y-18897D01*
X34921Y-19007D02*
X33890Y-19007D01*
X33779Y-19232D02*
X33385Y-19625D01*
X33779Y-18897D02*
X33779Y-19232D01*
X29972Y-21318D02*
X28740Y-20086D01*
X31456Y-21318D02*
X29972Y-21318D01*
X31771Y-21003D02*
X31456Y-21318D01*
X32440Y-23799D02*
X32244Y-23996D01*
X32244Y-23996D02*
X31456Y-23996D01*
X32874Y-23799D02*
X32440Y-23799D01*
X30708Y-23996D02*
X31456Y-23996D01*
X32029Y-30059D02*
X31968Y-29998D01*
X31968Y-29998D02*
X31968Y-28366D01*
X30511Y-24311D02*
X30708Y-24114D01*
X30708Y-24114D02*
X30708Y-23996D01*
X32716Y-30059D02*
X32029Y-30059D01*
X27992Y-23799D02*
X28838Y-22952D01*
X28838Y-22952D02*
X30000Y-22952D01*
X30000Y-22952D02*
X30708Y-23661D01*
X30708Y-23661D02*
X30708Y-23996D01*
X26968Y-23799D02*
X27992Y-23799D01*
X36909Y-23799D02*
X37933Y-23799D01*
X40649Y-23661D02*
X40649Y-23996D01*
X39940Y-22952D02*
X40649Y-23661D01*
X38779Y-22952D02*
X39940Y-22952D01*
X37933Y-23799D02*
X38779Y-22952D01*
X42657Y-30059D02*
X41970Y-30059D01*
X40649Y-24114D02*
X40649Y-23996D01*
X40452Y-24311D02*
X40649Y-24114D01*
X41909Y-29998D02*
X41909Y-28366D01*
X41970Y-30059D02*
X41909Y-29998D01*
X40649Y-23996D02*
X41397Y-23996D01*
X42814Y-23799D02*
X42381Y-23799D01*
X42185Y-23996D02*
X41397Y-23996D01*
X42381Y-23799D02*
X42185Y-23996D01*
X42381Y-13759D02*
X42185Y-13956D01*
X42185Y-13956D02*
X41397Y-13956D01*
X42814Y-13759D02*
X42381Y-13759D01*
X40649Y-13956D02*
X41397Y-13956D01*
X41970Y-20019D02*
X41909Y-19959D01*
X41909Y-19959D02*
X41909Y-18326D01*
X40452Y-14271D02*
X40649Y-14074D01*
X40649Y-14074D02*
X40649Y-13956D01*
X42657Y-20019D02*
X41970Y-20019D01*
X37933Y-13759D02*
X38779Y-12913D01*
X38779Y-12913D02*
X39940Y-12913D01*
X39940Y-12913D02*
X40649Y-13622D01*
X40649Y-13622D02*
X40649Y-13956D01*
X36909Y-13759D02*
X37933Y-13759D01*
X26968Y-13759D02*
X27992Y-13759D01*
X30708Y-13622D02*
X30708Y-13956D01*
X30000Y-12913D02*
X30708Y-13622D01*
X28838Y-12913D02*
X30000Y-12913D01*
X27992Y-13759D02*
X28838Y-12913D01*
X32716Y-20019D02*
X32029Y-20019D01*
X30708Y-14074D02*
X30708Y-13956D01*
X30511Y-14271D02*
X30708Y-14074D01*
X31968Y-19959D02*
X31968Y-18326D01*
X32029Y-20019D02*
X31968Y-19959D01*
X30708Y-13956D02*
X31456Y-13956D01*
X32874Y-13759D02*
X32440Y-13759D01*
X32244Y-13956D02*
X31456Y-13956D01*
X32440Y-13759D02*
X32244Y-13956D01*
X32338Y-24799D02*
X32125Y-24586D01*
X32125Y-24586D02*
X31456Y-24586D01*
X32874Y-24799D02*
X32338Y-24799D01*
X27874Y-24799D02*
X27889Y-24799D01*
X26968Y-24799D02*
X27874Y-24799D01*
X32007Y-24586D02*
X31377Y-25216D01*
X28204Y-24799D02*
X28740Y-25334D01*
X30314Y-25334D02*
X31259Y-25334D01*
X28740Y-25334D02*
X30314Y-25334D01*
X31259Y-25334D02*
X31377Y-25216D01*
X27874Y-24799D02*
X28204Y-24799D01*
X31771Y-30649D02*
X31574Y-30452D01*
X31574Y-30452D02*
X31574Y-28602D01*
X31574Y-28602D02*
X31299Y-28326D01*
X31299Y-28326D02*
X31023Y-28326D01*
X30078Y-25688D02*
X30314Y-25452D01*
X30314Y-25452D02*
X30314Y-25334D01*
X32716Y-30649D02*
X31771Y-30649D01*
X42657Y-30649D02*
X41712Y-30649D01*
X40255Y-25452D02*
X40255Y-25334D01*
X40019Y-25688D02*
X40255Y-25452D01*
X41240Y-28326D02*
X40964Y-28326D01*
X41515Y-28602D02*
X41240Y-28326D01*
X41515Y-30452D02*
X41515Y-28602D01*
X41712Y-30649D02*
X41515Y-30452D01*
X37814Y-24799D02*
X38145Y-24799D01*
X41200Y-25334D02*
X41318Y-25216D01*
X38681Y-25334D02*
X40255Y-25334D01*
X40255Y-25334D02*
X41200Y-25334D01*
X38145Y-24799D02*
X38681Y-25334D01*
X41948Y-24586D02*
X41318Y-25216D01*
X36909Y-24799D02*
X37814Y-24799D01*
X37814Y-24799D02*
X37830Y-24799D01*
X42814Y-24799D02*
X42279Y-24799D01*
X42066Y-24586D02*
X41397Y-24586D01*
X42279Y-24799D02*
X42066Y-24586D01*
X42279Y-14759D02*
X42066Y-14547D01*
X42066Y-14547D02*
X41397Y-14547D01*
X42814Y-14759D02*
X42279Y-14759D01*
X37814Y-14759D02*
X37830Y-14759D01*
X36909Y-14759D02*
X37814Y-14759D01*
X41948Y-14547D02*
X41318Y-15177D01*
X38145Y-14759D02*
X38681Y-15295D01*
X40255Y-15295D02*
X41200Y-15295D01*
X38681Y-15295D02*
X40255Y-15295D01*
X41200Y-15295D02*
X41318Y-15177D01*
X37814Y-14759D02*
X38145Y-14759D01*
X41712Y-20610D02*
X41515Y-20413D01*
X41515Y-20413D02*
X41515Y-18562D01*
X41515Y-18562D02*
X41240Y-18287D01*
X41240Y-18287D02*
X40964Y-18287D01*
X40019Y-15649D02*
X40255Y-15413D01*
X40255Y-15413D02*
X40255Y-15295D01*
X42657Y-20610D02*
X41712Y-20610D01*
X32716Y-20610D02*
X31771Y-20610D01*
X30314Y-15413D02*
X30314Y-15295D01*
X30078Y-15649D02*
X30314Y-15413D01*
X31299Y-18287D02*
X31023Y-18287D01*
X31574Y-18562D02*
X31299Y-18287D01*
X31574Y-20413D02*
X31574Y-18562D01*
X31771Y-20610D02*
X31574Y-20413D01*
X27874Y-14759D02*
X28204Y-14759D01*
X31259Y-15295D02*
X31377Y-15177D01*
X28740Y-15295D02*
X30314Y-15295D01*
X30314Y-15295D02*
X31259Y-15295D01*
X28204Y-14759D02*
X28740Y-15295D01*
X32007Y-14547D02*
X31377Y-15177D01*
X26968Y-14759D02*
X27874Y-14759D01*
X27874Y-14759D02*
X27889Y-14759D01*
X32874Y-14759D02*
X32338Y-14759D01*
X32125Y-14547D02*
X31456Y-14547D01*
X32338Y-14759D02*
X32125Y-14547D01*
X29488Y-23405D02*
X28937Y-23405D01*
X39429Y-23405D02*
X38877Y-23405D01*
X39429Y-13366D02*
X38877Y-13366D01*
X29488Y-13366D02*
X28937Y-13366D01*
X29173Y-24586D02*
X28937Y-24822D01*
X28937Y-24822D02*
X28937Y-24940D01*
X29488Y-24586D02*
X29173Y-24586D01*
X39429Y-24586D02*
X39114Y-24586D01*
X38877Y-24822D02*
X38877Y-24940D01*
X39114Y-24586D02*
X38877Y-24822D01*
X39114Y-14547D02*
X38877Y-14783D01*
X38877Y-14783D02*
X38877Y-14901D01*
X39429Y-14547D02*
X39114Y-14547D01*
X29488Y-14547D02*
X29173Y-14547D01*
X28937Y-14783D02*
X28937Y-14901D01*
X29173Y-14547D02*
X28937Y-14783D01*
X32062Y-22799D02*
X31456Y-23405D01*
X32874Y-22799D02*
X32062Y-22799D01*
X32716Y-29468D02*
X32716Y-28996D01*
X32716Y-28996D02*
X32440Y-28720D01*
X28440Y-22799D02*
X28662Y-22577D01*
X28662Y-22577D02*
X30628Y-22577D01*
X30628Y-22577D02*
X31456Y-23405D01*
X26968Y-22799D02*
X28440Y-22799D01*
X36909Y-22799D02*
X38381Y-22799D01*
X40569Y-22577D02*
X41397Y-23405D01*
X38603Y-22577D02*
X40569Y-22577D01*
X38381Y-22799D02*
X38603Y-22577D01*
X42657Y-28996D02*
X42381Y-28720D01*
X42657Y-29468D02*
X42657Y-28996D01*
X42814Y-22799D02*
X42003Y-22799D01*
X42003Y-22799D02*
X41397Y-23405D01*
X42003Y-12759D02*
X41397Y-13366D01*
X42814Y-12759D02*
X42003Y-12759D01*
X42657Y-19429D02*
X42657Y-18956D01*
X42657Y-18956D02*
X42381Y-18681D01*
X38381Y-12759D02*
X38603Y-12537D01*
X38603Y-12537D02*
X40569Y-12537D01*
X40569Y-12537D02*
X41397Y-13366D01*
X36909Y-12759D02*
X38381Y-12759D01*
X26968Y-12759D02*
X28440Y-12759D01*
X30628Y-12537D02*
X31456Y-13366D01*
X28662Y-12537D02*
X30628Y-12537D01*
X28440Y-12759D02*
X28662Y-12537D01*
X32716Y-18956D02*
X32440Y-18681D01*
X32716Y-19429D02*
X32716Y-18956D01*
X32874Y-12759D02*
X32062Y-12759D01*
X32062Y-12759D02*
X31456Y-13366D01*
X30590Y-30649D02*
X30275Y-30964D01*
X30748Y-30649D02*
X30590Y-30649D01*
X40688Y-30649D02*
X40531Y-30649D01*
X40531Y-30649D02*
X40216Y-30964D01*
X40531Y-20610D02*
X40216Y-20925D01*
X40688Y-20610D02*
X40531Y-20610D01*
X30748Y-20610D02*
X30590Y-20610D01*
X30590Y-20610D02*
X30275Y-20925D01*
X33543Y-25948D02*
X34921Y-25948D01*
X26968Y-27948D02*
X28307Y-27948D01*
X29685Y-27948D02*
X32456Y-27948D01*
X32456Y-27948D02*
X32795Y-28287D01*
X28307Y-27948D02*
X29685Y-27948D01*
X38248Y-27948D02*
X39625Y-27948D01*
X42397Y-27948D02*
X42736Y-28287D01*
X39625Y-27948D02*
X42397Y-27948D01*
X36909Y-27948D02*
X38248Y-27948D01*
X43484Y-25948D02*
X44862Y-25948D01*
X43484Y-15909D02*
X44862Y-15909D01*
X36909Y-17909D02*
X38248Y-17909D01*
X39625Y-17909D02*
X42397Y-17909D01*
X42397Y-17909D02*
X42736Y-18248D01*
X38248Y-17909D02*
X39625Y-17909D01*
X28307Y-17909D02*
X29685Y-17909D01*
X32456Y-17909D02*
X32795Y-18248D01*
X29685Y-17909D02*
X32456Y-17909D01*
X26968Y-17909D02*
X28307Y-17909D01*
X33543Y-15909D02*
X34921Y-15909D01*
M02*
