M48
;DRILL file {Pcbnew (2013-may-18)-stable} date Вт 21 апр 2015 20:41:27
;FORMAT={-:-/ absolute / metric / decimal}
FMAT,2
METRIC,TZ
T1C0.300
T2C1.000
T3C3.000
%
G90
G05
M71
T1
X73.4Y-35.35
X73.4Y-60.85
X73.5Y-33.95
X73.5Y-37.85
X73.5Y-59.45
X73.5Y-63.35
X76.4Y-39.75
X76.4Y-65.25
X76.7Y-50.85
X76.7Y-76.35
X76.9Y-48.55
X76.9Y-53.15
X76.9Y-74.05
X76.9Y-78.65
X77.5Y-36.25
X77.5Y-61.75
X78.8Y-46.45
X78.8Y-71.95
X80.7Y-53.35
X80.7Y-78.85
X81.2Y-46.55
X81.2Y-72.05
X81.85Y-41.25
X81.85Y-66.75
X82.1Y-44.
X82.1Y-69.5
X82.4Y-47.45
X82.4Y-72.95
X83.3Y-46.35
X83.3Y-71.85
X84.8Y-49.85
X84.8Y-75.35
X87.1Y-49.25
X87.1Y-74.75
X98.65Y-35.35
X98.65Y-60.85
X98.75Y-33.95
X98.75Y-37.85
X98.75Y-59.45
X98.75Y-63.35
X101.65Y-39.75
X101.65Y-65.25
X101.95Y-50.85
X101.95Y-76.35
X102.15Y-48.55
X102.15Y-53.15
X102.15Y-74.05
X102.15Y-78.65
X102.75Y-36.25
X102.75Y-61.75
X104.05Y-46.45
X104.05Y-71.95
X105.95Y-53.35
X105.95Y-78.85
X106.45Y-46.55
X106.45Y-72.05
X107.1Y-41.25
X107.1Y-66.75
X107.35Y-44.
X107.35Y-69.5
X107.65Y-47.45
X107.65Y-72.95
X108.55Y-46.35
X108.55Y-71.85
X110.05Y-49.85
X110.05Y-75.35
X112.35Y-49.25
X112.35Y-74.75
T2
X68.5Y-32.41
X68.5Y-34.95
X68.5Y-37.49
X68.5Y-40.41
X68.5Y-42.95
X68.5Y-45.49
X68.5Y-57.91
X68.5Y-60.45
X68.5Y-62.99
X68.5Y-65.91
X68.5Y-68.45
X68.5Y-70.99
X71.9Y-40.41
X71.9Y-42.95
X71.9Y-45.49
X71.9Y-65.91
X71.9Y-68.45
X71.9Y-70.99
X73.Y-48.48
X73.Y-51.02
X73.Y-73.98
X73.Y-76.52
X83.5Y-32.41
X83.5Y-34.95
X83.5Y-37.49
X83.5Y-57.91
X83.5Y-60.45
X83.5Y-62.99
X85.2Y-40.41
X85.2Y-42.95
X85.2Y-45.49
X85.2Y-65.91
X85.2Y-68.45
X85.2Y-70.99
X85.83Y-53.6
X85.83Y-79.1
X88.37Y-53.6
X88.37Y-79.1
X89.05Y-40.41
X89.05Y-42.95
X89.05Y-45.49
X89.05Y-48.28
X89.05Y-50.82
X89.05Y-65.91
X89.05Y-68.45
X89.05Y-70.99
X89.05Y-73.78
X89.05Y-76.32
X93.75Y-32.41
X93.75Y-34.95
X93.75Y-37.49
X93.75Y-40.41
X93.75Y-42.95
X93.75Y-45.49
X93.75Y-57.91
X93.75Y-60.45
X93.75Y-62.99
X93.75Y-65.91
X93.75Y-68.45
X93.75Y-70.99
X97.15Y-40.41
X97.15Y-42.95
X97.15Y-45.49
X97.15Y-65.91
X97.15Y-68.45
X97.15Y-70.99
X98.25Y-48.48
X98.25Y-51.02
X98.25Y-73.98
X98.25Y-76.52
X108.75Y-32.41
X108.75Y-34.95
X108.75Y-37.49
X108.75Y-57.91
X108.75Y-60.45
X108.75Y-62.99
X110.45Y-40.41
X110.45Y-42.95
X110.45Y-45.49
X110.45Y-65.91
X110.45Y-68.45
X110.45Y-70.99
X111.08Y-53.6
X111.08Y-79.1
X113.62Y-53.6
X113.62Y-79.1
X114.3Y-40.41
X114.3Y-42.95
X114.3Y-45.49
X114.3Y-48.28
X114.3Y-50.82
X114.3Y-65.91
X114.3Y-68.45
X114.3Y-70.99
X114.3Y-73.78
X114.3Y-76.32
T3
X69.25Y-50.3
X69.25Y-75.8
X87.6Y-35.
X87.6Y-60.5
X94.5Y-50.3
X94.5Y-75.8
X112.85Y-35.
X112.85Y-60.5
T0
M30
