G04 (created by PCBNEW (2013-may-18)-stable) date Вт 21 апр 2015 20:47:11*
%MOIN*%
G04 Gerber Fmt 3.4, Leading zero omitted, Abs format*
%FSLAX34Y34*%
G01*
G70*
G90*
G04 APERTURE LIST*
%ADD10C,0.00590551*%
%ADD11C,0.005*%
G04 APERTURE END LIST*
G54D10*
G54D11*
X30015Y-22286D02*
X30015Y-23186D01*
X30015Y-23186D02*
X29365Y-23186D01*
X28665Y-22286D02*
X28015Y-22286D01*
X28015Y-22286D02*
X28015Y-23186D01*
X28015Y-23186D02*
X28665Y-23186D01*
X29365Y-22286D02*
X30015Y-22286D01*
X30015Y-23349D02*
X30015Y-24249D01*
X30015Y-24249D02*
X29365Y-24249D01*
X28665Y-23349D02*
X28015Y-23349D01*
X28015Y-23349D02*
X28015Y-24249D01*
X28015Y-24249D02*
X28665Y-24249D01*
X29365Y-23349D02*
X30015Y-23349D01*
X30015Y-24490D02*
X30015Y-25390D01*
X30015Y-25390D02*
X29365Y-25390D01*
X28665Y-24490D02*
X28015Y-24490D01*
X28015Y-24490D02*
X28015Y-25390D01*
X28015Y-25390D02*
X28665Y-25390D01*
X29365Y-24490D02*
X30015Y-24490D01*
X31354Y-28624D02*
X31354Y-29524D01*
X31354Y-29524D02*
X30704Y-29524D01*
X30004Y-28624D02*
X29354Y-28624D01*
X29354Y-28624D02*
X29354Y-29524D01*
X29354Y-29524D02*
X30004Y-29524D01*
X30704Y-28624D02*
X31354Y-28624D01*
X31354Y-29609D02*
X31354Y-30509D01*
X31354Y-30509D02*
X30704Y-30509D01*
X30004Y-29609D02*
X29354Y-29609D01*
X29354Y-29609D02*
X29354Y-30509D01*
X29354Y-30509D02*
X30004Y-30509D01*
X30704Y-29609D02*
X31354Y-29609D01*
X31354Y-30632D02*
X31354Y-31532D01*
X31354Y-31532D02*
X30704Y-31532D01*
X30004Y-30632D02*
X29354Y-30632D01*
X29354Y-30632D02*
X29354Y-31532D01*
X29354Y-31532D02*
X30004Y-31532D01*
X30704Y-30632D02*
X31354Y-30632D01*
X41295Y-30632D02*
X41295Y-31532D01*
X41295Y-31532D02*
X40645Y-31532D01*
X39945Y-30632D02*
X39295Y-30632D01*
X39295Y-30632D02*
X39295Y-31532D01*
X39295Y-31532D02*
X39945Y-31532D01*
X40645Y-30632D02*
X41295Y-30632D01*
X41295Y-29609D02*
X41295Y-30509D01*
X41295Y-30509D02*
X40645Y-30509D01*
X39945Y-29609D02*
X39295Y-29609D01*
X39295Y-29609D02*
X39295Y-30509D01*
X39295Y-30509D02*
X39945Y-30509D01*
X40645Y-29609D02*
X41295Y-29609D01*
X41295Y-28624D02*
X41295Y-29524D01*
X41295Y-29524D02*
X40645Y-29524D01*
X39945Y-28624D02*
X39295Y-28624D01*
X39295Y-28624D02*
X39295Y-29524D01*
X39295Y-29524D02*
X39945Y-29524D01*
X40645Y-28624D02*
X41295Y-28624D01*
X39956Y-24490D02*
X39956Y-25390D01*
X39956Y-25390D02*
X39306Y-25390D01*
X38606Y-24490D02*
X37956Y-24490D01*
X37956Y-24490D02*
X37956Y-25390D01*
X37956Y-25390D02*
X38606Y-25390D01*
X39306Y-24490D02*
X39956Y-24490D01*
X39956Y-23349D02*
X39956Y-24249D01*
X39956Y-24249D02*
X39306Y-24249D01*
X38606Y-23349D02*
X37956Y-23349D01*
X37956Y-23349D02*
X37956Y-24249D01*
X37956Y-24249D02*
X38606Y-24249D01*
X39306Y-23349D02*
X39956Y-23349D01*
X39956Y-22286D02*
X39956Y-23186D01*
X39956Y-23186D02*
X39306Y-23186D01*
X38606Y-22286D02*
X37956Y-22286D01*
X37956Y-22286D02*
X37956Y-23186D01*
X37956Y-23186D02*
X38606Y-23186D01*
X39306Y-22286D02*
X39956Y-22286D01*
X39956Y-12246D02*
X39956Y-13146D01*
X39956Y-13146D02*
X39306Y-13146D01*
X38606Y-12246D02*
X37956Y-12246D01*
X37956Y-12246D02*
X37956Y-13146D01*
X37956Y-13146D02*
X38606Y-13146D01*
X39306Y-12246D02*
X39956Y-12246D01*
X39956Y-13309D02*
X39956Y-14209D01*
X39956Y-14209D02*
X39306Y-14209D01*
X38606Y-13309D02*
X37956Y-13309D01*
X37956Y-13309D02*
X37956Y-14209D01*
X37956Y-14209D02*
X38606Y-14209D01*
X39306Y-13309D02*
X39956Y-13309D01*
X39956Y-14451D02*
X39956Y-15351D01*
X39956Y-15351D02*
X39306Y-15351D01*
X38606Y-14451D02*
X37956Y-14451D01*
X37956Y-14451D02*
X37956Y-15351D01*
X37956Y-15351D02*
X38606Y-15351D01*
X39306Y-14451D02*
X39956Y-14451D01*
X41295Y-18585D02*
X41295Y-19485D01*
X41295Y-19485D02*
X40645Y-19485D01*
X39945Y-18585D02*
X39295Y-18585D01*
X39295Y-18585D02*
X39295Y-19485D01*
X39295Y-19485D02*
X39945Y-19485D01*
X40645Y-18585D02*
X41295Y-18585D01*
X41295Y-19569D02*
X41295Y-20469D01*
X41295Y-20469D02*
X40645Y-20469D01*
X39945Y-19569D02*
X39295Y-19569D01*
X39295Y-19569D02*
X39295Y-20469D01*
X39295Y-20469D02*
X39945Y-20469D01*
X40645Y-19569D02*
X41295Y-19569D01*
X41295Y-20593D02*
X41295Y-21493D01*
X41295Y-21493D02*
X40645Y-21493D01*
X39945Y-20593D02*
X39295Y-20593D01*
X39295Y-20593D02*
X39295Y-21493D01*
X39295Y-21493D02*
X39945Y-21493D01*
X40645Y-20593D02*
X41295Y-20593D01*
X31354Y-20593D02*
X31354Y-21493D01*
X31354Y-21493D02*
X30704Y-21493D01*
X30004Y-20593D02*
X29354Y-20593D01*
X29354Y-20593D02*
X29354Y-21493D01*
X29354Y-21493D02*
X30004Y-21493D01*
X30704Y-20593D02*
X31354Y-20593D01*
X31354Y-19569D02*
X31354Y-20469D01*
X31354Y-20469D02*
X30704Y-20469D01*
X30004Y-19569D02*
X29354Y-19569D01*
X29354Y-19569D02*
X29354Y-20469D01*
X29354Y-20469D02*
X30004Y-20469D01*
X30704Y-19569D02*
X31354Y-19569D01*
X31354Y-18585D02*
X31354Y-19485D01*
X31354Y-19485D02*
X30704Y-19485D01*
X30004Y-18585D02*
X29354Y-18585D01*
X29354Y-18585D02*
X29354Y-19485D01*
X29354Y-19485D02*
X30004Y-19485D01*
X30704Y-18585D02*
X31354Y-18585D01*
X30015Y-14451D02*
X30015Y-15351D01*
X30015Y-15351D02*
X29365Y-15351D01*
X28665Y-14451D02*
X28015Y-14451D01*
X28015Y-14451D02*
X28015Y-15351D01*
X28015Y-15351D02*
X28665Y-15351D01*
X29365Y-14451D02*
X30015Y-14451D01*
X30015Y-13309D02*
X30015Y-14209D01*
X30015Y-14209D02*
X29365Y-14209D01*
X28665Y-13309D02*
X28015Y-13309D01*
X28015Y-13309D02*
X28015Y-14209D01*
X28015Y-14209D02*
X28665Y-14209D01*
X29365Y-13309D02*
X30015Y-13309D01*
X30015Y-12246D02*
X30015Y-13146D01*
X30015Y-13146D02*
X29365Y-13146D01*
X28665Y-12246D02*
X28015Y-12246D01*
X28015Y-12246D02*
X28015Y-13146D01*
X28015Y-13146D02*
X28665Y-13146D01*
X29365Y-12246D02*
X30015Y-12246D01*
X29065Y-22857D02*
X29165Y-22714D01*
X29237Y-22857D02*
X29237Y-22557D01*
X29122Y-22557D01*
X29094Y-22571D01*
X29080Y-22586D01*
X29065Y-22614D01*
X29065Y-22657D01*
X29080Y-22686D01*
X29094Y-22700D01*
X29122Y-22714D01*
X29237Y-22714D01*
X28780Y-22857D02*
X28951Y-22857D01*
X28865Y-22857D02*
X28865Y-22557D01*
X28894Y-22600D01*
X28922Y-22629D01*
X28951Y-22643D01*
X29065Y-23920D02*
X29165Y-23777D01*
X29237Y-23920D02*
X29237Y-23620D01*
X29122Y-23620D01*
X29094Y-23634D01*
X29080Y-23649D01*
X29065Y-23677D01*
X29065Y-23720D01*
X29080Y-23749D01*
X29094Y-23763D01*
X29122Y-23777D01*
X29237Y-23777D01*
X28951Y-23649D02*
X28937Y-23634D01*
X28908Y-23620D01*
X28837Y-23620D01*
X28808Y-23634D01*
X28794Y-23649D01*
X28780Y-23677D01*
X28780Y-23706D01*
X28794Y-23749D01*
X28965Y-23920D01*
X28780Y-23920D01*
X29065Y-25062D02*
X29165Y-24919D01*
X29237Y-25062D02*
X29237Y-24762D01*
X29122Y-24762D01*
X29094Y-24776D01*
X29080Y-24790D01*
X29065Y-24819D01*
X29065Y-24862D01*
X29080Y-24890D01*
X29094Y-24905D01*
X29122Y-24919D01*
X29237Y-24919D01*
X28965Y-24762D02*
X28780Y-24762D01*
X28880Y-24876D01*
X28837Y-24876D01*
X28808Y-24890D01*
X28794Y-24905D01*
X28780Y-24933D01*
X28780Y-25005D01*
X28794Y-25033D01*
X28808Y-25048D01*
X28837Y-25062D01*
X28922Y-25062D01*
X28951Y-25048D01*
X28965Y-25033D01*
X30404Y-29196D02*
X30504Y-29053D01*
X30575Y-29196D02*
X30575Y-28896D01*
X30461Y-28896D01*
X30432Y-28910D01*
X30418Y-28924D01*
X30404Y-28953D01*
X30404Y-28996D01*
X30418Y-29024D01*
X30432Y-29039D01*
X30461Y-29053D01*
X30575Y-29053D01*
X30147Y-28996D02*
X30147Y-29196D01*
X30218Y-28881D02*
X30290Y-29096D01*
X30104Y-29096D01*
X30404Y-30180D02*
X30504Y-30037D01*
X30575Y-30180D02*
X30575Y-29880D01*
X30461Y-29880D01*
X30432Y-29894D01*
X30418Y-29909D01*
X30404Y-29937D01*
X30404Y-29980D01*
X30418Y-30009D01*
X30432Y-30023D01*
X30461Y-30037D01*
X30575Y-30037D01*
X30132Y-29880D02*
X30275Y-29880D01*
X30290Y-30023D01*
X30275Y-30009D01*
X30247Y-29994D01*
X30175Y-29994D01*
X30147Y-30009D01*
X30132Y-30023D01*
X30118Y-30051D01*
X30118Y-30123D01*
X30132Y-30151D01*
X30147Y-30166D01*
X30175Y-30180D01*
X30247Y-30180D01*
X30275Y-30166D01*
X30290Y-30151D01*
X30404Y-31204D02*
X30504Y-31061D01*
X30575Y-31204D02*
X30575Y-30904D01*
X30461Y-30904D01*
X30432Y-30918D01*
X30418Y-30932D01*
X30404Y-30961D01*
X30404Y-31004D01*
X30418Y-31032D01*
X30432Y-31046D01*
X30461Y-31061D01*
X30575Y-31061D01*
X30147Y-30904D02*
X30204Y-30904D01*
X30232Y-30918D01*
X30247Y-30932D01*
X30275Y-30975D01*
X30290Y-31032D01*
X30290Y-31146D01*
X30275Y-31175D01*
X30261Y-31189D01*
X30232Y-31204D01*
X30175Y-31204D01*
X30147Y-31189D01*
X30132Y-31175D01*
X30118Y-31146D01*
X30118Y-31075D01*
X30132Y-31046D01*
X30147Y-31032D01*
X30175Y-31018D01*
X30232Y-31018D01*
X30261Y-31032D01*
X30275Y-31046D01*
X30290Y-31075D01*
X40345Y-31204D02*
X40445Y-31061D01*
X40516Y-31204D02*
X40516Y-30904D01*
X40402Y-30904D01*
X40373Y-30918D01*
X40359Y-30932D01*
X40345Y-30961D01*
X40345Y-31004D01*
X40359Y-31032D01*
X40373Y-31046D01*
X40402Y-31061D01*
X40516Y-31061D01*
X40088Y-30904D02*
X40145Y-30904D01*
X40173Y-30918D01*
X40188Y-30932D01*
X40216Y-30975D01*
X40230Y-31032D01*
X40230Y-31146D01*
X40216Y-31175D01*
X40202Y-31189D01*
X40173Y-31204D01*
X40116Y-31204D01*
X40088Y-31189D01*
X40073Y-31175D01*
X40059Y-31146D01*
X40059Y-31075D01*
X40073Y-31046D01*
X40088Y-31032D01*
X40116Y-31018D01*
X40173Y-31018D01*
X40202Y-31032D01*
X40216Y-31046D01*
X40230Y-31075D01*
X40345Y-30180D02*
X40445Y-30037D01*
X40516Y-30180D02*
X40516Y-29880D01*
X40402Y-29880D01*
X40373Y-29894D01*
X40359Y-29909D01*
X40345Y-29937D01*
X40345Y-29980D01*
X40359Y-30009D01*
X40373Y-30023D01*
X40402Y-30037D01*
X40516Y-30037D01*
X40073Y-29880D02*
X40216Y-29880D01*
X40230Y-30023D01*
X40216Y-30009D01*
X40188Y-29994D01*
X40116Y-29994D01*
X40088Y-30009D01*
X40073Y-30023D01*
X40059Y-30051D01*
X40059Y-30123D01*
X40073Y-30151D01*
X40088Y-30166D01*
X40116Y-30180D01*
X40188Y-30180D01*
X40216Y-30166D01*
X40230Y-30151D01*
X40345Y-29196D02*
X40445Y-29053D01*
X40516Y-29196D02*
X40516Y-28896D01*
X40402Y-28896D01*
X40373Y-28910D01*
X40359Y-28924D01*
X40345Y-28953D01*
X40345Y-28996D01*
X40359Y-29024D01*
X40373Y-29039D01*
X40402Y-29053D01*
X40516Y-29053D01*
X40088Y-28996D02*
X40088Y-29196D01*
X40159Y-28881D02*
X40230Y-29096D01*
X40045Y-29096D01*
X39006Y-25062D02*
X39106Y-24919D01*
X39178Y-25062D02*
X39178Y-24762D01*
X39063Y-24762D01*
X39035Y-24776D01*
X39020Y-24790D01*
X39006Y-24819D01*
X39006Y-24862D01*
X39020Y-24890D01*
X39035Y-24905D01*
X39063Y-24919D01*
X39178Y-24919D01*
X38906Y-24762D02*
X38720Y-24762D01*
X38820Y-24876D01*
X38778Y-24876D01*
X38749Y-24890D01*
X38735Y-24905D01*
X38720Y-24933D01*
X38720Y-25005D01*
X38735Y-25033D01*
X38749Y-25048D01*
X38778Y-25062D01*
X38863Y-25062D01*
X38892Y-25048D01*
X38906Y-25033D01*
X39006Y-23920D02*
X39106Y-23777D01*
X39178Y-23920D02*
X39178Y-23620D01*
X39063Y-23620D01*
X39035Y-23634D01*
X39020Y-23649D01*
X39006Y-23677D01*
X39006Y-23720D01*
X39020Y-23749D01*
X39035Y-23763D01*
X39063Y-23777D01*
X39178Y-23777D01*
X38892Y-23649D02*
X38878Y-23634D01*
X38849Y-23620D01*
X38778Y-23620D01*
X38749Y-23634D01*
X38735Y-23649D01*
X38720Y-23677D01*
X38720Y-23706D01*
X38735Y-23749D01*
X38906Y-23920D01*
X38720Y-23920D01*
X39006Y-22857D02*
X39106Y-22714D01*
X39178Y-22857D02*
X39178Y-22557D01*
X39063Y-22557D01*
X39035Y-22571D01*
X39020Y-22586D01*
X39006Y-22614D01*
X39006Y-22657D01*
X39020Y-22686D01*
X39035Y-22700D01*
X39063Y-22714D01*
X39178Y-22714D01*
X38720Y-22857D02*
X38892Y-22857D01*
X38806Y-22857D02*
X38806Y-22557D01*
X38835Y-22600D01*
X38863Y-22629D01*
X38892Y-22643D01*
X39006Y-12818D02*
X39106Y-12675D01*
X39178Y-12818D02*
X39178Y-12518D01*
X39063Y-12518D01*
X39035Y-12532D01*
X39020Y-12546D01*
X39006Y-12575D01*
X39006Y-12618D01*
X39020Y-12646D01*
X39035Y-12661D01*
X39063Y-12675D01*
X39178Y-12675D01*
X38720Y-12818D02*
X38892Y-12818D01*
X38806Y-12818D02*
X38806Y-12518D01*
X38835Y-12561D01*
X38863Y-12589D01*
X38892Y-12603D01*
X39006Y-13881D02*
X39106Y-13738D01*
X39178Y-13881D02*
X39178Y-13581D01*
X39063Y-13581D01*
X39035Y-13595D01*
X39020Y-13609D01*
X39006Y-13638D01*
X39006Y-13681D01*
X39020Y-13709D01*
X39035Y-13724D01*
X39063Y-13738D01*
X39178Y-13738D01*
X38892Y-13609D02*
X38878Y-13595D01*
X38849Y-13581D01*
X38778Y-13581D01*
X38749Y-13595D01*
X38735Y-13609D01*
X38720Y-13638D01*
X38720Y-13666D01*
X38735Y-13709D01*
X38906Y-13881D01*
X38720Y-13881D01*
X39006Y-15023D02*
X39106Y-14880D01*
X39178Y-15023D02*
X39178Y-14723D01*
X39063Y-14723D01*
X39035Y-14737D01*
X39020Y-14751D01*
X39006Y-14780D01*
X39006Y-14823D01*
X39020Y-14851D01*
X39035Y-14865D01*
X39063Y-14880D01*
X39178Y-14880D01*
X38906Y-14723D02*
X38720Y-14723D01*
X38820Y-14837D01*
X38778Y-14837D01*
X38749Y-14851D01*
X38735Y-14865D01*
X38720Y-14894D01*
X38720Y-14965D01*
X38735Y-14994D01*
X38749Y-15008D01*
X38778Y-15023D01*
X38863Y-15023D01*
X38892Y-15008D01*
X38906Y-14994D01*
X40345Y-19156D02*
X40445Y-19014D01*
X40516Y-19156D02*
X40516Y-18856D01*
X40402Y-18856D01*
X40373Y-18871D01*
X40359Y-18885D01*
X40345Y-18914D01*
X40345Y-18956D01*
X40359Y-18985D01*
X40373Y-18999D01*
X40402Y-19014D01*
X40516Y-19014D01*
X40088Y-18956D02*
X40088Y-19156D01*
X40159Y-18842D02*
X40230Y-19056D01*
X40045Y-19056D01*
X40345Y-20141D02*
X40445Y-19998D01*
X40516Y-20141D02*
X40516Y-19841D01*
X40402Y-19841D01*
X40373Y-19855D01*
X40359Y-19869D01*
X40345Y-19898D01*
X40345Y-19941D01*
X40359Y-19969D01*
X40373Y-19983D01*
X40402Y-19998D01*
X40516Y-19998D01*
X40073Y-19841D02*
X40216Y-19841D01*
X40230Y-19983D01*
X40216Y-19969D01*
X40188Y-19955D01*
X40116Y-19955D01*
X40088Y-19969D01*
X40073Y-19983D01*
X40059Y-20012D01*
X40059Y-20083D01*
X40073Y-20112D01*
X40088Y-20126D01*
X40116Y-20141D01*
X40188Y-20141D01*
X40216Y-20126D01*
X40230Y-20112D01*
X40345Y-21164D02*
X40445Y-21021D01*
X40516Y-21164D02*
X40516Y-20864D01*
X40402Y-20864D01*
X40373Y-20879D01*
X40359Y-20893D01*
X40345Y-20921D01*
X40345Y-20964D01*
X40359Y-20993D01*
X40373Y-21007D01*
X40402Y-21021D01*
X40516Y-21021D01*
X40088Y-20864D02*
X40145Y-20864D01*
X40173Y-20879D01*
X40188Y-20893D01*
X40216Y-20936D01*
X40230Y-20993D01*
X40230Y-21107D01*
X40216Y-21136D01*
X40202Y-21150D01*
X40173Y-21164D01*
X40116Y-21164D01*
X40088Y-21150D01*
X40073Y-21136D01*
X40059Y-21107D01*
X40059Y-21036D01*
X40073Y-21007D01*
X40088Y-20993D01*
X40116Y-20979D01*
X40173Y-20979D01*
X40202Y-20993D01*
X40216Y-21007D01*
X40230Y-21036D01*
X30404Y-21164D02*
X30504Y-21021D01*
X30575Y-21164D02*
X30575Y-20864D01*
X30461Y-20864D01*
X30432Y-20879D01*
X30418Y-20893D01*
X30404Y-20921D01*
X30404Y-20964D01*
X30418Y-20993D01*
X30432Y-21007D01*
X30461Y-21021D01*
X30575Y-21021D01*
X30147Y-20864D02*
X30204Y-20864D01*
X30232Y-20879D01*
X30247Y-20893D01*
X30275Y-20936D01*
X30290Y-20993D01*
X30290Y-21107D01*
X30275Y-21136D01*
X30261Y-21150D01*
X30232Y-21164D01*
X30175Y-21164D01*
X30147Y-21150D01*
X30132Y-21136D01*
X30118Y-21107D01*
X30118Y-21036D01*
X30132Y-21007D01*
X30147Y-20993D01*
X30175Y-20979D01*
X30232Y-20979D01*
X30261Y-20993D01*
X30275Y-21007D01*
X30290Y-21036D01*
X30404Y-20141D02*
X30504Y-19998D01*
X30575Y-20141D02*
X30575Y-19841D01*
X30461Y-19841D01*
X30432Y-19855D01*
X30418Y-19869D01*
X30404Y-19898D01*
X30404Y-19941D01*
X30418Y-19969D01*
X30432Y-19983D01*
X30461Y-19998D01*
X30575Y-19998D01*
X30132Y-19841D02*
X30275Y-19841D01*
X30290Y-19983D01*
X30275Y-19969D01*
X30247Y-19955D01*
X30175Y-19955D01*
X30147Y-19969D01*
X30132Y-19983D01*
X30118Y-20012D01*
X30118Y-20083D01*
X30132Y-20112D01*
X30147Y-20126D01*
X30175Y-20141D01*
X30247Y-20141D01*
X30275Y-20126D01*
X30290Y-20112D01*
X30404Y-19156D02*
X30504Y-19014D01*
X30575Y-19156D02*
X30575Y-18856D01*
X30461Y-18856D01*
X30432Y-18871D01*
X30418Y-18885D01*
X30404Y-18914D01*
X30404Y-18956D01*
X30418Y-18985D01*
X30432Y-18999D01*
X30461Y-19014D01*
X30575Y-19014D01*
X30147Y-18956D02*
X30147Y-19156D01*
X30218Y-18842D02*
X30290Y-19056D01*
X30104Y-19056D01*
X29065Y-15023D02*
X29165Y-14880D01*
X29237Y-15023D02*
X29237Y-14723D01*
X29122Y-14723D01*
X29094Y-14737D01*
X29080Y-14751D01*
X29065Y-14780D01*
X29065Y-14823D01*
X29080Y-14851D01*
X29094Y-14865D01*
X29122Y-14880D01*
X29237Y-14880D01*
X28965Y-14723D02*
X28780Y-14723D01*
X28880Y-14837D01*
X28837Y-14837D01*
X28808Y-14851D01*
X28794Y-14865D01*
X28780Y-14894D01*
X28780Y-14965D01*
X28794Y-14994D01*
X28808Y-15008D01*
X28837Y-15023D01*
X28922Y-15023D01*
X28951Y-15008D01*
X28965Y-14994D01*
X29065Y-13881D02*
X29165Y-13738D01*
X29237Y-13881D02*
X29237Y-13581D01*
X29122Y-13581D01*
X29094Y-13595D01*
X29080Y-13609D01*
X29065Y-13638D01*
X29065Y-13681D01*
X29080Y-13709D01*
X29094Y-13724D01*
X29122Y-13738D01*
X29237Y-13738D01*
X28951Y-13609D02*
X28937Y-13595D01*
X28908Y-13581D01*
X28837Y-13581D01*
X28808Y-13595D01*
X28794Y-13609D01*
X28780Y-13638D01*
X28780Y-13666D01*
X28794Y-13709D01*
X28965Y-13881D01*
X28780Y-13881D01*
X29065Y-12818D02*
X29165Y-12675D01*
X29237Y-12818D02*
X29237Y-12518D01*
X29122Y-12518D01*
X29094Y-12532D01*
X29080Y-12546D01*
X29065Y-12575D01*
X29065Y-12618D01*
X29080Y-12646D01*
X29094Y-12661D01*
X29122Y-12675D01*
X29237Y-12675D01*
X28780Y-12818D02*
X28951Y-12818D01*
X28865Y-12818D02*
X28865Y-12518D01*
X28894Y-12561D01*
X28922Y-12589D01*
X28951Y-12603D01*
M02*
