M48
;DRILL file {Pcbnew (2013-may-18)-stable} date Сб 30 апр 2016 21:15:42
;FORMAT={-:-/ absolute / metric / decimal}
FMAT,2
METRIC,TZ
T1C0.300
T2C0.800
T3C1.000
T4C1.016
T5C3.048
%
G90
G05
M71
T1
X140.716Y-176.606
X144.526Y-121.285
X144.805Y-175.743
X145.136Y-157.81
X146.126Y-153.01
X146.304Y-166.751
X149.098Y-156.464
X149.987Y-116.078
X151.194Y-128.524
X151.511Y-165.989
X152.082Y-124.587
X152.4Y-167.64
X152.654Y-179.959
X152.984Y-175.222
X153.352Y-171.323
X153.556Y-170.078
X154.178Y-125.92
X154.242Y-132.969
X154.305Y-144.272
X154.419Y-175.235
X155.13Y-125.857
X155.13Y-132.207
X155.321Y-176.72
X155.829Y-173.99
X155.994Y-165.278
X155.994Y-167.538
X156.083Y-113.347
X157.607Y-159.385
X157.988Y-172.085
X158.94Y-132.334
X159.36Y-172.123
X159.512Y-125.857
X159.829Y-116.078
X159.868Y-167.564
X159.868Y-169.012
X160.147Y-136.906
X161.074Y-175.895
X161.798Y-157.29
X161.988Y-174.117
X162.052Y-139.446
X162.077Y-162.204
X162.128Y-175.082
X163.322Y-118.681
X163.83Y-125.857
X164.02Y-119.57
X164.795Y-165.684
X164.846Y-151.13
X165.1Y-176.276
X165.417Y-133.223
X166.116Y-168.275
X166.7Y-162.433
X167.919Y-171.298
X168.91Y-124.523
X168.91Y-176.403
X168.961Y-161.773
X169.291Y-132.969
X169.926Y-136.271
X169.989Y-117.792
X169.989Y-120.523
X170.078Y-157.607
X170.434Y-166.751
X170.561Y-135.382
X171.196Y-120.523
X171.196Y-131.064
X171.704Y-163.576
X172.085Y-176.911
X172.466Y-124.46
X172.466Y-165.506
X172.491Y-155.194
X173.101Y-141.224
X173.33Y-161.163
X173.863Y-163.068
X173.939Y-175.031
X174.625Y-167.386
X175.514Y-161.544
X175.514Y-168.529
X175.59Y-177.825
X175.895Y-158.598
X176.276Y-182.372
X176.594Y-119.57
X176.657Y-175.514
X177.101Y-118.681
X177.228Y-116.078
X177.546Y-167.259
X178.625Y-134.62
X178.752Y-182.626
X179.07Y-125.857
X179.324Y-119.57
X179.451Y-161.29
X179.708Y-173.489
X180.467Y-167.259
X181.102Y-136.652
X182.118Y-161.29
X182.258Y-167.239
X183.642Y-157.48
X183.642Y-159.766
X183.769Y-167.259
X184.277Y-133.985
X184.458Y-171.889
X185.166Y-131.191
X185.166Y-137.287
X186.03Y-179.578
X186.055Y-140.716
X186.944Y-159.131
X186.944Y-164.084
X187.071Y-175.387
X187.198Y-131.191
X188.722Y-158.115
X190.373Y-151.13
X191.821Y-153.314
X191.897Y-178.689
X192.659Y-123.317
X194.564Y-160.274
X194.564Y-172.72
X197.206Y-158.725
X197.231Y-161.036
X197.231Y-172.339
X198.73Y-176.352
X204.099Y-127.123
X204.29Y-176.716
X207.099Y-135.723
X207.29Y-185.316
X207.899Y-136.223
X208.089Y-185.816
X209.999Y-123.023
X210.083Y-108.204
X210.189Y-172.617
X210.274Y-157.797
X210.799Y-117.023
X210.799Y-118.023
X210.799Y-119.023
X210.989Y-166.617
X210.989Y-167.617
X210.989Y-168.617
X211.099Y-109.823
X211.29Y-159.416
X211.799Y-116.823
X211.799Y-122.123
X211.989Y-166.416
X211.989Y-171.716
X213.599Y-124.023
X213.79Y-173.617
X213.999Y-115.623
X214.189Y-165.216
X214.399Y-120.723
X214.589Y-170.316
X214.899Y-116.123
X215.089Y-165.716
X215.799Y-116.423
X215.989Y-166.016
X216.399Y-119.223
X216.399Y-128.223
X216.589Y-168.816
X216.589Y-177.816
X216.637Y-123.977
X216.827Y-173.571
X219.38Y-129.21
X219.57Y-178.803
X220.099Y-124.523
X220.29Y-174.117
X220.37Y-137.249
X220.399Y-110.623
X220.561Y-186.842
X220.589Y-160.216
X222.174Y-130.581
X222.275Y-124.892
X222.364Y-180.175
X222.466Y-174.485
T2
X213.099Y-131.283
X213.099Y-136.363
X213.29Y-180.876
X213.29Y-185.957
T3
X142.494Y-166.37
X142.494Y-168.91
X142.494Y-171.45
X142.494Y-173.99
X147.415Y-122.346
X147.415Y-124.886
X147.415Y-127.426
X147.415Y-129.966
X147.415Y-132.506
X147.415Y-135.046
X147.415Y-137.586
X147.415Y-140.126
X147.415Y-142.666
X147.415Y-145.206
X147.923Y-159.684
X147.923Y-162.224
X147.923Y-164.764
X147.923Y-167.304
X147.923Y-169.844
X147.923Y-172.384
X147.923Y-174.924
X147.923Y-177.464
X147.923Y-180.004
X147.923Y-182.544
X149.955Y-122.346
X149.955Y-124.886
X149.955Y-127.426
X149.955Y-129.966
X149.955Y-132.506
X149.955Y-135.046
X149.955Y-137.586
X149.955Y-140.126
X149.955Y-142.666
X149.955Y-145.206
X150.241Y-153.543
X150.463Y-159.684
X150.463Y-162.224
X150.463Y-164.764
X150.463Y-167.304
X150.463Y-169.844
X150.463Y-172.384
X150.463Y-174.924
X150.463Y-177.464
X150.463Y-180.004
X150.463Y-182.544
X152.781Y-153.543
X153.723Y-181.414
X154.099Y-140.589
X155.321Y-153.543
X156.099Y-140.589
X156.263Y-181.414
X158.099Y-140.589
X160.099Y-140.589
X165.123Y-181.414
X166.878Y-153.543
X167.663Y-181.414
X169.418Y-153.543
X170.823Y-181.414
X173.363Y-181.414
X178.737Y-177.8
X180.737Y-177.8
X182.737Y-177.8
X184.737Y-177.8
X188.055Y-122.346
X188.055Y-124.886
X188.055Y-127.426
X188.055Y-129.966
X188.055Y-132.506
X188.055Y-135.046
X188.055Y-137.586
X188.055Y-140.126
X188.055Y-142.666
X188.055Y-145.206
X188.563Y-159.684
X188.563Y-162.224
X188.563Y-164.764
X188.563Y-167.304
X188.563Y-169.844
X188.563Y-172.384
X188.563Y-174.924
X188.563Y-177.464
X188.563Y-180.004
X188.563Y-182.544
X190.595Y-122.346
X190.595Y-124.886
X190.595Y-127.426
X190.595Y-129.966
X190.595Y-132.506
X190.595Y-135.046
X190.595Y-137.586
X190.595Y-140.126
X190.595Y-142.666
X190.595Y-145.206
X191.103Y-159.684
X191.103Y-162.224
X191.103Y-164.764
X191.103Y-167.304
X191.103Y-169.844
X191.103Y-172.384
X191.103Y-174.924
X191.103Y-177.464
X191.103Y-180.004
X191.103Y-182.544
X204.769Y-102.013
X204.769Y-104.553
X204.769Y-142.653
X204.769Y-145.193
X204.959Y-151.606
X204.959Y-154.147
X204.959Y-192.246
X204.959Y-194.786
X206.629Y-130.223
X206.819Y-179.816
X207.309Y-102.013
X207.309Y-104.553
X207.309Y-142.653
X207.309Y-145.193
X207.499Y-151.606
X207.499Y-154.147
X207.499Y-192.246
X207.499Y-194.786
X209.169Y-130.223
X209.359Y-179.816
X209.849Y-102.013
X209.849Y-104.553
X209.849Y-142.653
X209.849Y-145.193
X210.04Y-151.606
X210.04Y-154.147
X210.04Y-192.246
X210.04Y-194.786
X212.389Y-102.013
X212.389Y-104.553
X212.389Y-142.653
X212.389Y-145.193
X212.579Y-151.606
X212.579Y-154.147
X212.579Y-192.246
X212.579Y-194.786
X214.929Y-102.013
X214.929Y-104.553
X214.929Y-142.653
X214.929Y-145.193
X215.119Y-151.606
X215.119Y-154.147
X215.119Y-192.246
X215.119Y-194.786
X217.469Y-102.013
X217.469Y-104.553
X217.469Y-142.653
X217.469Y-145.193
X217.659Y-151.606
X217.659Y-154.147
X217.659Y-192.246
X217.659Y-194.786
X220.009Y-102.013
X220.009Y-104.553
X220.009Y-142.653
X220.009Y-145.193
X220.2Y-151.606
X220.2Y-154.147
X220.2Y-192.246
X220.2Y-194.786
X222.549Y-102.013
X222.549Y-104.553
X222.549Y-142.653
X222.549Y-145.193
X222.739Y-151.606
X222.739Y-154.147
X222.739Y-192.246
X222.739Y-194.786
X222.899Y-131.823
X222.899Y-133.823
X222.899Y-135.823
X222.899Y-137.823
X223.089Y-181.416
X223.089Y-183.416
X223.089Y-185.416
X223.089Y-187.416
X225.089Y-102.013
X225.089Y-104.553
X225.089Y-142.653
X225.089Y-145.193
X225.279Y-151.606
X225.279Y-154.147
X225.279Y-192.246
X225.279Y-194.786
X227.629Y-102.013
X227.629Y-104.553
X227.629Y-142.653
X227.629Y-145.193
X227.819Y-151.606
X227.819Y-154.147
X227.819Y-192.246
X227.819Y-194.786
T4
X141.859Y-122.364
X141.859Y-124.904
X142.494Y-159.893
X142.494Y-162.433
X150.876Y-114.808
X150.876Y-117.348
X153.416Y-114.808
X153.416Y-117.348
X155.956Y-114.808
X155.956Y-117.348
X158.496Y-114.808
X158.496Y-117.348
X158.559Y-153.543
X159.436Y-181.414
X161.036Y-114.808
X161.036Y-117.348
X161.1Y-153.543
X161.976Y-181.414
X163.639Y-153.543
X166.37Y-143.51
X168.91Y-143.51
X171.45Y-143.51
X176.784Y-114.808
X176.784Y-117.348
X176.784Y-142.621
X176.784Y-145.161
X177.292Y-152.146
X177.292Y-154.686
X179.324Y-114.808
X179.324Y-117.348
X179.324Y-142.621
X179.324Y-145.161
X179.832Y-152.146
X179.832Y-154.686
X181.864Y-114.808
X181.864Y-117.348
X181.864Y-142.621
X181.864Y-145.161
X182.372Y-152.146
X182.372Y-154.686
X184.404Y-114.808
X184.404Y-117.348
X184.404Y-142.621
X184.404Y-145.161
X184.912Y-152.146
X184.912Y-154.686
X186.944Y-114.808
X186.944Y-117.348
X187.452Y-152.146
X187.452Y-154.686
X195.199Y-124.587
X195.199Y-127.127
X195.199Y-129.667
X195.199Y-132.207
X195.199Y-134.747
X195.961Y-163.322
X195.961Y-165.862
X195.961Y-168.402
X195.961Y-170.942
X197.739Y-124.587
X197.739Y-127.127
X197.739Y-129.667
X197.739Y-132.207
X197.739Y-134.747
X198.501Y-163.322
X198.501Y-165.862
X198.501Y-168.402
X198.501Y-170.942
T5
X141.859Y-116.256
X141.859Y-143.256
X142.367Y-153.594
X142.367Y-180.594
X196.469Y-116.256
X196.469Y-143.256
X196.977Y-153.594
X196.977Y-180.594
T0
M30
