G04 (created by PCBNEW (2013-may-18)-stable) date Сб 30 апр 2016 21:14:56*
%MOIN*%
G04 Gerber Fmt 3.4, Leading zero omitted, Abs format*
%FSLAX34Y34*%
G01*
G70*
G90*
G04 APERTURE LIST*
%ADD10C,0.00590551*%
G04 APERTURE END LIST*
G54D10*
X90200Y-39600D02*
X90150Y-39600D01*
X90200Y-57700D02*
X90200Y-39600D01*
X90150Y-57700D02*
X90200Y-57700D01*
X80550Y-59100D02*
X80550Y-57800D01*
X90250Y-59100D02*
X80550Y-59100D01*
X90250Y-77200D02*
X90250Y-59100D01*
X80100Y-77200D02*
X90250Y-77200D01*
X80100Y-59000D02*
X80100Y-77200D01*
X78850Y-59000D02*
X80100Y-59000D01*
X78850Y-59000D02*
X78850Y-72500D01*
X77800Y-57800D02*
X78400Y-57800D01*
X78400Y-59000D02*
X77800Y-59000D01*
X78400Y-57800D02*
X78400Y-59000D01*
X80550Y-57700D02*
X80550Y-57800D01*
X90150Y-57700D02*
X80550Y-57700D01*
X80050Y-39600D02*
X90150Y-39600D01*
X80050Y-57800D02*
X80050Y-39600D01*
X78850Y-57800D02*
X80050Y-57800D01*
X54650Y-44100D02*
X78850Y-44100D01*
X77800Y-59000D02*
X54700Y-59000D01*
X54650Y-57800D02*
X77800Y-57800D01*
X54650Y-57000D02*
X54650Y-57800D01*
X54800Y-72500D02*
X78825Y-72500D01*
X54650Y-57000D02*
X54650Y-44100D01*
X78850Y-44100D02*
X78850Y-57800D01*
X54700Y-72500D02*
X54800Y-72500D01*
X54700Y-59000D02*
X54700Y-72500D01*
M02*
