G04 (created by PCBNEW (2013-may-18)-stable) date Сб 29 авг 2015 23:53:58*
%MOIN*%
G04 Gerber Fmt 3.4, Leading zero omitted, Abs format*
%FSLAX34Y34*%
G01*
G70*
G90*
G04 APERTURE LIST*
%ADD10C,0.00590551*%
%ADD11R,0.036X0.036*%
%ADD12R,0.144X0.08*%
%ADD13R,0.04X0.08*%
%ADD14R,0.035X0.055*%
%ADD15R,0.06X0.06*%
%ADD16C,0.06*%
%ADD17C,0.16*%
G04 APERTURE END LIST*
G54D10*
G54D11*
X35262Y-20842D03*
X35262Y-20142D03*
X34462Y-20492D03*
G54D12*
X34881Y-25217D03*
G54D13*
X34881Y-22617D03*
X35781Y-22617D03*
X33981Y-22617D03*
G54D14*
X35217Y-21515D03*
X34467Y-21515D03*
G54D15*
X39570Y-19771D03*
G54D16*
X39570Y-18771D03*
X38570Y-19771D03*
X38570Y-18771D03*
X37570Y-19771D03*
X37570Y-18771D03*
X36570Y-19771D03*
X36570Y-18771D03*
G54D15*
X36629Y-26783D03*
G54D16*
X36629Y-27783D03*
X37629Y-26783D03*
X37629Y-27783D03*
X38629Y-26783D03*
X38629Y-27783D03*
X39629Y-26783D03*
X39629Y-27783D03*
G54D15*
X43267Y-24799D03*
G54D16*
X43267Y-25799D03*
X43267Y-26799D03*
X43267Y-27799D03*
G54D15*
X42893Y-20665D03*
G54D16*
X42893Y-21665D03*
X42893Y-22665D03*
X42893Y-23665D03*
G54D15*
X31007Y-19055D03*
G54D16*
X32007Y-19055D03*
X33007Y-19055D03*
G54D15*
X35566Y-27244D03*
G54D16*
X34566Y-27244D03*
X33566Y-27244D03*
G54D15*
X27385Y-27244D03*
G54D16*
X28385Y-27244D03*
X29385Y-27244D03*
G54D15*
X27681Y-19055D03*
G54D16*
X28681Y-19055D03*
X29681Y-19055D03*
G54D15*
X30476Y-27244D03*
G54D16*
X31476Y-27244D03*
X32476Y-27244D03*
G54D15*
X35362Y-19055D03*
G54D16*
X34362Y-19055D03*
G54D15*
X40759Y-27783D03*
G54D16*
X41759Y-27783D03*
X40759Y-26783D03*
X41759Y-26783D03*
X40759Y-25783D03*
X41759Y-25783D03*
X40759Y-24783D03*
X41759Y-24783D03*
X40759Y-23783D03*
X41759Y-23783D03*
X40759Y-22783D03*
X41759Y-22783D03*
X40759Y-21783D03*
X41759Y-21783D03*
X40759Y-20783D03*
X41759Y-20783D03*
X40759Y-19783D03*
X41759Y-19783D03*
X40759Y-18783D03*
X41759Y-18783D03*
G54D15*
X26287Y-18751D03*
G54D16*
X25287Y-18751D03*
X26287Y-19751D03*
X25287Y-19751D03*
X26287Y-20751D03*
X25287Y-20751D03*
X26287Y-21751D03*
X25287Y-21751D03*
X26287Y-22751D03*
X25287Y-22751D03*
X26287Y-23751D03*
X25287Y-23751D03*
X26287Y-24751D03*
X25287Y-24751D03*
X26287Y-25751D03*
X25287Y-25751D03*
X26287Y-26751D03*
X25287Y-26751D03*
X26287Y-27751D03*
X25287Y-27751D03*
G54D17*
X43267Y-19291D03*
X31338Y-25196D03*
M02*
