M48
;DRILL file {Pcbnew (2013-may-18)-stable} date Сб 14 ноя 2015 13:08:19
;FORMAT={-:-/ absolute / metric / decimal}
FMAT,2
METRIC,TZ
T1C0.300
T2C1.000
T3C3.000
%
G90
G05
M71
T1
X68.8Y-57.8
X68.8Y-62.2
X68.8Y-65.8
X69.225Y-48.95
X72.Y-55.
X72.Y-66.6
X72.125Y-62.8
X73.2Y-65.4
X73.3Y-61.5
X74.Y-55.
X74.3Y-56.1
X74.3Y-57.9
X76.2Y-64.4
X77.Y-51.9
X77.Y-55.
X77.2Y-60.
X78.8Y-60.
X78.95Y-64.2
X79.2Y-58.5
X79.6Y-62.
X80.2Y-66.6
X83.1Y-54.1
X84.8Y-64.2
X87.7Y-54.1
X87.8Y-58.2
X87.8Y-61.
X88.8Y-58.2
X88.8Y-61.
X91.3Y-70.6
X95.1Y-69.2
X95.2Y-63.1
X95.7Y-56.8
X96.9Y-55.6
X97.Y-64.1
X101.Y-54.8
X101.9Y-62.1
X102.Y-55.7
T2
X64.23Y-47.67
X64.23Y-50.21
X64.23Y-52.75
X64.23Y-55.29
X64.23Y-57.83
X64.23Y-60.37
X64.23Y-62.91
X64.23Y-65.45
X64.23Y-67.99
X64.23Y-70.53
X66.77Y-47.67
X66.77Y-50.21
X66.77Y-52.75
X66.77Y-55.29
X66.77Y-57.83
X66.77Y-60.37
X66.77Y-62.91
X66.77Y-65.45
X66.77Y-67.99
X66.77Y-70.53
X70.12Y-47.73
X70.12Y-50.27
X70.32Y-68.03
X70.32Y-70.57
X72.66Y-47.73
X72.66Y-50.27
X72.86Y-68.03
X72.86Y-70.57
X75.2Y-47.73
X75.2Y-50.27
X75.4Y-68.03
X75.4Y-70.57
X77.74Y-47.73
X77.74Y-50.27
X77.94Y-68.03
X77.94Y-70.57
X80.28Y-47.73
X80.28Y-50.27
X80.48Y-68.03
X80.48Y-70.57
X85.93Y-48.7
X88.47Y-48.7
X93.79Y-47.73
X93.79Y-50.27
X93.79Y-67.93
X93.79Y-70.47
X96.33Y-47.73
X96.33Y-50.27
X96.33Y-67.93
X96.33Y-70.47
X98.87Y-47.73
X98.87Y-50.27
X98.87Y-67.93
X98.87Y-70.47
X101.41Y-47.73
X101.41Y-50.27
X101.41Y-67.93
X101.41Y-70.47
X104.87Y-47.67
X104.87Y-50.21
X104.87Y-52.75
X104.87Y-55.29
X104.87Y-57.83
X104.87Y-60.37
X104.87Y-62.91
X104.87Y-65.45
X104.87Y-67.99
X104.87Y-70.53
X107.41Y-47.67
X107.41Y-50.21
X107.41Y-52.75
X107.41Y-55.29
X107.41Y-57.83
X107.41Y-60.37
X107.41Y-62.91
X107.41Y-65.45
X107.41Y-67.99
X107.41Y-70.53
X110.9Y-48.89
X110.9Y-51.43
X110.9Y-53.97
X110.9Y-56.51
X110.9Y-61.69
X110.9Y-64.23
X110.9Y-66.77
X110.9Y-69.31
T3
X87.7Y-69.4
T0
M30
