G04 (created by PCBNEW (2013-may-18)-stable) date Сб 14 ноя 2015 13:08:16*
%MOIN*%
G04 Gerber Fmt 3.4, Leading zero omitted, Abs format*
%FSLAX34Y34*%
G01*
G70*
G90*
G04 APERTURE LIST*
%ADD10C,0.00590551*%
%ADD11R,0.06X0.06*%
%ADD12C,0.06*%
%ADD13R,0.15748X0.11811*%
%ADD14C,0.16*%
%ADD15C,0.0275591*%
%ADD16C,0.035*%
%ADD17C,0.015748*%
%ADD18C,0.00787402*%
G04 APERTURE END LIST*
G54D10*
G54D11*
X31606Y-19791D03*
G54D12*
X31606Y-18791D03*
X30606Y-19791D03*
X30606Y-18791D03*
X29606Y-19791D03*
X29606Y-18791D03*
X28606Y-19791D03*
X28606Y-18791D03*
X27606Y-19791D03*
X27606Y-18791D03*
G54D11*
X27685Y-26783D03*
G54D12*
X27685Y-27783D03*
X28685Y-26783D03*
X28685Y-27783D03*
X29685Y-26783D03*
X29685Y-27783D03*
X30685Y-26783D03*
X30685Y-27783D03*
X31685Y-26783D03*
X31685Y-27783D03*
G54D11*
X36925Y-26744D03*
G54D12*
X36925Y-27744D03*
X37925Y-26744D03*
X37925Y-27744D03*
X38925Y-26744D03*
X38925Y-27744D03*
X39925Y-26744D03*
X39925Y-27744D03*
G54D11*
X39925Y-19791D03*
G54D12*
X39925Y-18791D03*
X38925Y-19791D03*
X38925Y-18791D03*
X37925Y-19791D03*
X37925Y-18791D03*
X36925Y-19791D03*
X36925Y-18791D03*
G54D11*
X43661Y-19248D03*
G54D12*
X43661Y-20248D03*
X43661Y-21248D03*
X43661Y-22248D03*
G54D11*
X33830Y-19173D03*
G54D12*
X34830Y-19173D03*
G54D11*
X41287Y-27767D03*
G54D12*
X42287Y-27767D03*
X41287Y-26767D03*
X42287Y-26767D03*
X41287Y-25767D03*
X42287Y-25767D03*
X41287Y-24767D03*
X42287Y-24767D03*
X41287Y-23767D03*
X42287Y-23767D03*
X41287Y-22767D03*
X42287Y-22767D03*
X41287Y-21767D03*
X42287Y-21767D03*
X41287Y-20767D03*
X42287Y-20767D03*
X41287Y-19767D03*
X42287Y-19767D03*
X41287Y-18767D03*
X42287Y-18767D03*
G54D11*
X26287Y-18767D03*
G54D12*
X25287Y-18767D03*
X26287Y-19767D03*
X25287Y-19767D03*
X26287Y-20767D03*
X25287Y-20767D03*
X26287Y-21767D03*
X25287Y-21767D03*
X26287Y-22767D03*
X25287Y-22767D03*
X26287Y-23767D03*
X25287Y-23767D03*
X26287Y-24767D03*
X25287Y-24767D03*
X26287Y-25767D03*
X25287Y-25767D03*
X26287Y-26767D03*
X25287Y-26767D03*
X26287Y-27767D03*
X25287Y-27767D03*
G54D13*
X32303Y-23248D03*
X39586Y-23248D03*
G54D14*
X34527Y-27322D03*
G54D11*
X43661Y-24287D03*
G54D12*
X43661Y-25287D03*
X43661Y-26287D03*
X43661Y-27287D03*
G54D15*
X38188Y-25236D03*
X31023Y-23622D03*
X30393Y-23622D03*
X30000Y-25354D03*
X28818Y-25748D03*
X37480Y-24842D03*
X30314Y-21653D03*
X30314Y-20433D03*
X31181Y-23031D03*
X35944Y-27795D03*
X33385Y-25275D03*
X28346Y-21653D03*
X40118Y-24448D03*
X38149Y-21889D03*
X32716Y-21299D03*
X34527Y-21299D03*
X37677Y-22362D03*
X31338Y-24409D03*
X27086Y-25905D03*
X27086Y-24488D03*
X27086Y-22755D03*
X34566Y-24015D03*
X31574Y-26220D03*
X34566Y-22913D03*
X28346Y-26220D03*
X27253Y-19271D03*
G54D16*
X29251Y-22795D03*
X29251Y-22086D03*
G54D15*
X28858Y-24212D03*
X29133Y-21653D03*
X31082Y-25275D03*
X28395Y-24724D03*
X39763Y-21574D03*
X37440Y-27244D03*
X40157Y-21929D03*
X34960Y-24015D03*
X34960Y-22913D03*
G54D17*
X38240Y-25287D02*
X43661Y-25287D01*
X38188Y-25236D02*
X38240Y-25287D01*
X30393Y-23622D02*
X31023Y-23622D01*
X29212Y-25354D02*
X30000Y-25354D01*
X28818Y-25748D02*
X29212Y-25354D01*
X26287Y-19767D02*
X26287Y-19771D01*
X32303Y-21407D02*
X32303Y-23248D01*
X31820Y-20925D02*
X32303Y-21407D01*
X27440Y-20925D02*
X31820Y-20925D01*
X26287Y-19771D02*
X27440Y-20925D01*
X30314Y-21653D02*
X30433Y-21653D01*
X31606Y-19791D02*
X31484Y-19791D01*
X30118Y-20236D02*
X30314Y-20433D01*
X30118Y-19645D02*
X30118Y-20236D01*
X30472Y-19291D02*
X30118Y-19645D01*
X30984Y-19291D02*
X30472Y-19291D01*
X31484Y-19791D02*
X30984Y-19291D01*
X31181Y-22401D02*
X31181Y-23031D01*
X30433Y-21653D02*
X31181Y-22401D01*
X36925Y-27200D02*
X37007Y-27283D01*
X37007Y-27283D02*
X37086Y-27283D01*
X37086Y-27283D02*
X37440Y-27637D01*
X37440Y-27637D02*
X37440Y-28070D01*
X37440Y-28070D02*
X37283Y-28228D01*
X37283Y-28228D02*
X36377Y-28228D01*
X36377Y-28228D02*
X35944Y-27795D01*
X36925Y-26744D02*
X36925Y-27200D01*
X39586Y-23248D02*
X39586Y-24350D01*
X39685Y-24448D02*
X40118Y-24448D01*
X39586Y-24350D02*
X39685Y-24448D01*
X41287Y-27767D02*
X41771Y-27283D01*
X42665Y-27283D02*
X43661Y-26287D01*
X41771Y-27283D02*
X42665Y-27283D01*
X34566Y-24015D02*
X34566Y-22913D01*
X28346Y-26220D02*
X31574Y-26220D01*
X26287Y-22767D02*
X26287Y-22777D01*
X28175Y-27273D02*
X28685Y-27783D01*
X26082Y-27273D02*
X28175Y-27273D01*
X25787Y-26978D02*
X26082Y-27273D01*
X25787Y-23277D02*
X25787Y-26978D01*
X26287Y-22777D02*
X25787Y-23277D01*
X30598Y-18791D02*
X30606Y-18791D01*
X30118Y-19271D02*
X30598Y-18791D01*
X30068Y-19271D02*
X30118Y-19271D01*
X27253Y-19271D02*
X30068Y-19271D01*
X29251Y-22086D02*
X29251Y-22795D01*
X28858Y-21929D02*
X28858Y-24212D01*
X29133Y-21653D02*
X28858Y-21929D01*
X30748Y-25275D02*
X31082Y-25275D01*
X30196Y-24724D02*
X30748Y-25275D01*
X28395Y-24724D02*
X30196Y-24724D01*
X42287Y-27767D02*
X43181Y-27767D01*
X43181Y-27767D02*
X43661Y-27287D01*
X39925Y-18791D02*
X39925Y-18775D01*
X42834Y-21220D02*
X42287Y-21767D01*
X42834Y-18503D02*
X42834Y-21220D01*
X42598Y-18267D02*
X42834Y-18503D01*
X40433Y-18267D02*
X42598Y-18267D01*
X39925Y-18775D02*
X40433Y-18267D01*
X39925Y-27744D02*
X39909Y-27744D01*
X40669Y-19385D02*
X41287Y-18767D01*
X40669Y-20669D02*
X40669Y-19385D01*
X39763Y-21574D02*
X40669Y-20669D01*
X39409Y-27244D02*
X37440Y-27244D01*
X39909Y-27744D02*
X39409Y-27244D01*
X41811Y-20244D02*
X42287Y-19767D01*
X41811Y-21023D02*
X41811Y-20244D01*
X41574Y-21259D02*
X41811Y-21023D01*
X40826Y-21259D02*
X41574Y-21259D01*
X40157Y-21929D02*
X40826Y-21259D01*
X34960Y-24015D02*
X34960Y-22913D01*
G54D10*
G36*
X44183Y-28277D02*
X44158Y-28277D01*
X44158Y-24626D01*
X44158Y-23948D01*
X44158Y-19587D01*
X44158Y-18909D01*
X44128Y-18836D01*
X44073Y-18781D01*
X44000Y-18751D01*
X43922Y-18751D01*
X43750Y-18751D01*
X43700Y-18800D01*
X43700Y-19208D01*
X44109Y-19208D01*
X44158Y-19159D01*
X44158Y-18909D01*
X44158Y-19587D01*
X44158Y-19336D01*
X44109Y-19287D01*
X43700Y-19287D01*
X43700Y-19695D01*
X43750Y-19744D01*
X43922Y-19744D01*
X44000Y-19744D01*
X44073Y-19714D01*
X44128Y-19659D01*
X44158Y-19587D01*
X44158Y-23948D01*
X44128Y-23876D01*
X44079Y-23827D01*
X44079Y-22165D01*
X44079Y-21165D01*
X44079Y-20165D01*
X44016Y-20011D01*
X43898Y-19893D01*
X43744Y-19829D01*
X43622Y-19829D01*
X43622Y-19695D01*
X43622Y-19287D01*
X43622Y-19208D01*
X43622Y-18800D01*
X43572Y-18751D01*
X43400Y-18751D01*
X43322Y-18751D01*
X43249Y-18781D01*
X43194Y-18836D01*
X43164Y-18909D01*
X43164Y-19159D01*
X43213Y-19208D01*
X43622Y-19208D01*
X43622Y-19287D01*
X43213Y-19287D01*
X43164Y-19336D01*
X43164Y-19587D01*
X43194Y-19659D01*
X43249Y-19714D01*
X43322Y-19744D01*
X43400Y-19744D01*
X43572Y-19744D01*
X43622Y-19695D01*
X43622Y-19829D01*
X43578Y-19829D01*
X43424Y-19893D01*
X43307Y-20010D01*
X43243Y-20164D01*
X43243Y-20330D01*
X43306Y-20484D01*
X43424Y-20602D01*
X43577Y-20666D01*
X43744Y-20666D01*
X43897Y-20602D01*
X44015Y-20485D01*
X44079Y-20331D01*
X44079Y-20165D01*
X44079Y-21165D01*
X44016Y-21011D01*
X43898Y-20893D01*
X43744Y-20829D01*
X43578Y-20829D01*
X43424Y-20893D01*
X43307Y-21010D01*
X43243Y-21164D01*
X43243Y-21330D01*
X43306Y-21484D01*
X43424Y-21602D01*
X43577Y-21666D01*
X43744Y-21666D01*
X43897Y-21602D01*
X44015Y-21485D01*
X44079Y-21331D01*
X44079Y-21165D01*
X44079Y-22165D01*
X44016Y-22011D01*
X43898Y-21893D01*
X43744Y-21829D01*
X43578Y-21829D01*
X43424Y-21893D01*
X43307Y-22010D01*
X43243Y-22164D01*
X43243Y-22330D01*
X43306Y-22484D01*
X43424Y-22602D01*
X43577Y-22666D01*
X43744Y-22666D01*
X43897Y-22602D01*
X44015Y-22485D01*
X44079Y-22331D01*
X44079Y-22165D01*
X44079Y-23827D01*
X44073Y-23820D01*
X44000Y-23790D01*
X43922Y-23790D01*
X43750Y-23790D01*
X43700Y-23839D01*
X43700Y-24248D01*
X44109Y-24248D01*
X44158Y-24198D01*
X44158Y-23948D01*
X44158Y-24626D01*
X44158Y-24375D01*
X44109Y-24326D01*
X43700Y-24326D01*
X43700Y-24735D01*
X43750Y-24784D01*
X43922Y-24784D01*
X44000Y-24784D01*
X44073Y-24754D01*
X44128Y-24698D01*
X44158Y-24626D01*
X44158Y-28277D01*
X44079Y-28277D01*
X44079Y-27204D01*
X44016Y-27050D01*
X43898Y-26933D01*
X43744Y-26869D01*
X43578Y-26869D01*
X43424Y-26932D01*
X43307Y-27050D01*
X43243Y-27203D01*
X43243Y-27370D01*
X43259Y-27410D01*
X43099Y-27570D01*
X42658Y-27570D01*
X42642Y-27531D01*
X42591Y-27480D01*
X42665Y-27480D01*
X42665Y-27480D01*
X42740Y-27465D01*
X42804Y-27422D01*
X43538Y-26688D01*
X43577Y-26705D01*
X43744Y-26705D01*
X43897Y-26642D01*
X44015Y-26524D01*
X44079Y-26370D01*
X44079Y-26204D01*
X44079Y-25204D01*
X44016Y-25050D01*
X43898Y-24933D01*
X43744Y-24869D01*
X43622Y-24869D01*
X43622Y-24735D01*
X43622Y-24326D01*
X43622Y-24248D01*
X43622Y-23839D01*
X43572Y-23790D01*
X43400Y-23790D01*
X43322Y-23790D01*
X43249Y-23820D01*
X43194Y-23876D01*
X43164Y-23948D01*
X43164Y-24198D01*
X43213Y-24248D01*
X43622Y-24248D01*
X43622Y-24326D01*
X43213Y-24326D01*
X43164Y-24375D01*
X43164Y-24626D01*
X43194Y-24698D01*
X43249Y-24754D01*
X43322Y-24784D01*
X43400Y-24784D01*
X43572Y-24784D01*
X43622Y-24735D01*
X43622Y-24869D01*
X43578Y-24869D01*
X43424Y-24932D01*
X43307Y-25050D01*
X43290Y-25090D01*
X42555Y-25090D01*
X42641Y-25004D01*
X42705Y-24851D01*
X42705Y-24684D01*
X42705Y-23684D01*
X42705Y-22684D01*
X42642Y-22531D01*
X42524Y-22413D01*
X42370Y-22349D01*
X42204Y-22349D01*
X42050Y-22413D01*
X41933Y-22530D01*
X41869Y-22684D01*
X41869Y-22850D01*
X41932Y-23004D01*
X42050Y-23121D01*
X42203Y-23185D01*
X42370Y-23185D01*
X42523Y-23122D01*
X42641Y-23004D01*
X42705Y-22851D01*
X42705Y-22684D01*
X42705Y-23684D01*
X42642Y-23531D01*
X42524Y-23413D01*
X42370Y-23349D01*
X42204Y-23349D01*
X42050Y-23413D01*
X41933Y-23530D01*
X41869Y-23684D01*
X41869Y-23850D01*
X41932Y-24004D01*
X42050Y-24121D01*
X42203Y-24185D01*
X42370Y-24185D01*
X42523Y-24122D01*
X42641Y-24004D01*
X42705Y-23851D01*
X42705Y-23684D01*
X42705Y-24684D01*
X42642Y-24531D01*
X42524Y-24413D01*
X42370Y-24349D01*
X42204Y-24349D01*
X42050Y-24413D01*
X41933Y-24530D01*
X41869Y-24684D01*
X41869Y-24850D01*
X41932Y-25004D01*
X42018Y-25090D01*
X41555Y-25090D01*
X41641Y-25004D01*
X41705Y-24851D01*
X41705Y-24684D01*
X41705Y-23684D01*
X41705Y-22684D01*
X41642Y-22531D01*
X41524Y-22413D01*
X41370Y-22349D01*
X41204Y-22349D01*
X41050Y-22413D01*
X40933Y-22530D01*
X40869Y-22684D01*
X40869Y-22850D01*
X40932Y-23004D01*
X41050Y-23121D01*
X41203Y-23185D01*
X41370Y-23185D01*
X41523Y-23122D01*
X41641Y-23004D01*
X41705Y-22851D01*
X41705Y-22684D01*
X41705Y-23684D01*
X41642Y-23531D01*
X41524Y-23413D01*
X41370Y-23349D01*
X41204Y-23349D01*
X41050Y-23413D01*
X40933Y-23530D01*
X40869Y-23684D01*
X40869Y-23850D01*
X40932Y-24004D01*
X41050Y-24121D01*
X41203Y-24185D01*
X41370Y-24185D01*
X41523Y-24122D01*
X41641Y-24004D01*
X41705Y-23851D01*
X41705Y-23684D01*
X41705Y-24684D01*
X41642Y-24531D01*
X41524Y-24413D01*
X41370Y-24349D01*
X41204Y-24349D01*
X41050Y-24413D01*
X40933Y-24530D01*
X40869Y-24684D01*
X40869Y-24850D01*
X40932Y-25004D01*
X41018Y-25090D01*
X40570Y-25090D01*
X40570Y-23799D01*
X40570Y-22696D01*
X40570Y-22618D01*
X40540Y-22545D01*
X40485Y-22490D01*
X40413Y-22460D01*
X39675Y-22460D01*
X39625Y-22509D01*
X39625Y-23208D01*
X40521Y-23208D01*
X40570Y-23159D01*
X40570Y-22696D01*
X40570Y-23799D01*
X40570Y-23336D01*
X40521Y-23287D01*
X39625Y-23287D01*
X39625Y-23986D01*
X39675Y-24035D01*
X40413Y-24035D01*
X40485Y-24005D01*
X40540Y-23950D01*
X40570Y-23877D01*
X40570Y-23799D01*
X40570Y-25090D01*
X39547Y-25090D01*
X39547Y-23986D01*
X39547Y-23287D01*
X39547Y-23208D01*
X39547Y-22509D01*
X39498Y-22460D01*
X39343Y-22460D01*
X39343Y-19708D01*
X39343Y-18708D01*
X39279Y-18554D01*
X39162Y-18437D01*
X39008Y-18373D01*
X38842Y-18373D01*
X38688Y-18436D01*
X38570Y-18554D01*
X38507Y-18707D01*
X38507Y-18874D01*
X38570Y-19027D01*
X38688Y-19145D01*
X38841Y-19209D01*
X39007Y-19209D01*
X39161Y-19146D01*
X39279Y-19028D01*
X39343Y-18874D01*
X39343Y-18708D01*
X39343Y-19708D01*
X39279Y-19554D01*
X39162Y-19437D01*
X39008Y-19373D01*
X38842Y-19373D01*
X38688Y-19436D01*
X38570Y-19554D01*
X38507Y-19707D01*
X38507Y-19874D01*
X38570Y-20027D01*
X38688Y-20145D01*
X38841Y-20209D01*
X39007Y-20209D01*
X39161Y-20146D01*
X39279Y-20028D01*
X39343Y-19874D01*
X39343Y-19708D01*
X39343Y-22460D01*
X38760Y-22460D01*
X38687Y-22490D01*
X38632Y-22545D01*
X38602Y-22618D01*
X38602Y-22696D01*
X38602Y-23159D01*
X38651Y-23208D01*
X39547Y-23208D01*
X39547Y-23287D01*
X38651Y-23287D01*
X38602Y-23336D01*
X38602Y-23799D01*
X38602Y-23877D01*
X38632Y-23950D01*
X38687Y-24005D01*
X38760Y-24035D01*
X39498Y-24035D01*
X39547Y-23986D01*
X39547Y-25090D01*
X38425Y-25090D01*
X38425Y-18870D01*
X38417Y-18673D01*
X38356Y-18526D01*
X38275Y-18496D01*
X38219Y-18552D01*
X38219Y-18441D01*
X38190Y-18359D01*
X38004Y-18291D01*
X37807Y-18298D01*
X37660Y-18359D01*
X37630Y-18441D01*
X37925Y-18735D01*
X38219Y-18441D01*
X38219Y-18552D01*
X37980Y-18791D01*
X38275Y-19085D01*
X38356Y-19056D01*
X38425Y-18870D01*
X38425Y-25090D01*
X38405Y-25090D01*
X38343Y-25028D01*
X38343Y-19708D01*
X38279Y-19554D01*
X38219Y-19494D01*
X38219Y-19141D01*
X37925Y-18847D01*
X37869Y-18902D01*
X37869Y-18791D01*
X37575Y-18496D01*
X37493Y-18526D01*
X37424Y-18711D01*
X37432Y-18909D01*
X37493Y-19056D01*
X37575Y-19085D01*
X37869Y-18791D01*
X37869Y-18902D01*
X37630Y-19141D01*
X37660Y-19223D01*
X37845Y-19291D01*
X38043Y-19284D01*
X38190Y-19223D01*
X38219Y-19141D01*
X38219Y-19494D01*
X38162Y-19437D01*
X38008Y-19373D01*
X37842Y-19373D01*
X37688Y-19436D01*
X37570Y-19554D01*
X37507Y-19707D01*
X37507Y-19874D01*
X37570Y-20027D01*
X37688Y-20145D01*
X37841Y-20209D01*
X38007Y-20209D01*
X38161Y-20146D01*
X38279Y-20028D01*
X38343Y-19874D01*
X38343Y-19708D01*
X38343Y-25028D01*
X38334Y-25019D01*
X38240Y-24980D01*
X38138Y-24980D01*
X38044Y-25019D01*
X37972Y-25091D01*
X37933Y-25185D01*
X37933Y-25286D01*
X37971Y-25380D01*
X38043Y-25453D01*
X38137Y-25492D01*
X38239Y-25492D01*
X38258Y-25484D01*
X40979Y-25484D01*
X40933Y-25530D01*
X40869Y-25684D01*
X40869Y-25850D01*
X40932Y-26004D01*
X41050Y-26121D01*
X41203Y-26185D01*
X41370Y-26185D01*
X41523Y-26122D01*
X41641Y-26004D01*
X41705Y-25851D01*
X41705Y-25684D01*
X41642Y-25531D01*
X41595Y-25484D01*
X41979Y-25484D01*
X41933Y-25530D01*
X41869Y-25684D01*
X41869Y-25850D01*
X41932Y-26004D01*
X42050Y-26121D01*
X42203Y-26185D01*
X42370Y-26185D01*
X42523Y-26122D01*
X42641Y-26004D01*
X42705Y-25851D01*
X42705Y-25684D01*
X42642Y-25531D01*
X42595Y-25484D01*
X43290Y-25484D01*
X43306Y-25523D01*
X43424Y-25641D01*
X43577Y-25705D01*
X43744Y-25705D01*
X43897Y-25642D01*
X44015Y-25524D01*
X44079Y-25370D01*
X44079Y-25204D01*
X44079Y-26204D01*
X44016Y-26050D01*
X43898Y-25933D01*
X43744Y-25869D01*
X43578Y-25869D01*
X43424Y-25932D01*
X43307Y-26050D01*
X43243Y-26203D01*
X43243Y-26370D01*
X43259Y-26410D01*
X42583Y-27086D01*
X42559Y-27086D01*
X42641Y-27004D01*
X42705Y-26851D01*
X42705Y-26684D01*
X42642Y-26531D01*
X42524Y-26413D01*
X42370Y-26349D01*
X42204Y-26349D01*
X42050Y-26413D01*
X41933Y-26530D01*
X41869Y-26684D01*
X41869Y-26850D01*
X41932Y-27004D01*
X42014Y-27086D01*
X41771Y-27086D01*
X41705Y-27099D01*
X41705Y-26684D01*
X41642Y-26531D01*
X41524Y-26413D01*
X41370Y-26349D01*
X41204Y-26349D01*
X41050Y-26413D01*
X40933Y-26530D01*
X40869Y-26684D01*
X40869Y-26850D01*
X40932Y-27004D01*
X41050Y-27121D01*
X41203Y-27185D01*
X41370Y-27185D01*
X41523Y-27122D01*
X41641Y-27004D01*
X41705Y-26851D01*
X41705Y-26684D01*
X41705Y-27099D01*
X41696Y-27101D01*
X41632Y-27144D01*
X41427Y-27349D01*
X40964Y-27349D01*
X40920Y-27367D01*
X40887Y-27400D01*
X40869Y-27444D01*
X40869Y-27491D01*
X40869Y-28091D01*
X40887Y-28134D01*
X40920Y-28167D01*
X40963Y-28185D01*
X41010Y-28185D01*
X41610Y-28185D01*
X41654Y-28167D01*
X41687Y-28134D01*
X41705Y-28091D01*
X41705Y-28044D01*
X41705Y-27627D01*
X41853Y-27480D01*
X41983Y-27480D01*
X41933Y-27530D01*
X41869Y-27684D01*
X41869Y-27850D01*
X41932Y-28004D01*
X42050Y-28121D01*
X42203Y-28185D01*
X42370Y-28185D01*
X42523Y-28122D01*
X42641Y-28004D01*
X42658Y-27964D01*
X43181Y-27964D01*
X43181Y-27964D01*
X43256Y-27949D01*
X43320Y-27906D01*
X43538Y-27688D01*
X43577Y-27705D01*
X43744Y-27705D01*
X43897Y-27642D01*
X44015Y-27524D01*
X44079Y-27370D01*
X44079Y-27204D01*
X44079Y-28277D01*
X40343Y-28277D01*
X40343Y-27661D01*
X40343Y-26661D01*
X40279Y-26507D01*
X40162Y-26389D01*
X40008Y-26326D01*
X39842Y-26325D01*
X39688Y-26389D01*
X39570Y-26506D01*
X39507Y-26660D01*
X39507Y-26826D01*
X39570Y-26980D01*
X39688Y-27098D01*
X39841Y-27162D01*
X40007Y-27162D01*
X40161Y-27098D01*
X40279Y-26981D01*
X40343Y-26827D01*
X40343Y-26661D01*
X40343Y-27661D01*
X40279Y-27507D01*
X40162Y-27389D01*
X40008Y-27326D01*
X39842Y-27325D01*
X39790Y-27347D01*
X39548Y-27104D01*
X39484Y-27062D01*
X39409Y-27047D01*
X39213Y-27047D01*
X39279Y-26981D01*
X39343Y-26827D01*
X39343Y-26661D01*
X39279Y-26507D01*
X39162Y-26389D01*
X39008Y-26326D01*
X38842Y-26325D01*
X38688Y-26389D01*
X38570Y-26506D01*
X38507Y-26660D01*
X38507Y-26826D01*
X38570Y-26980D01*
X38637Y-27047D01*
X38213Y-27047D01*
X38279Y-26981D01*
X38343Y-26827D01*
X38343Y-26661D01*
X38279Y-26507D01*
X38162Y-26389D01*
X38008Y-26326D01*
X37842Y-26325D01*
X37688Y-26389D01*
X37570Y-26506D01*
X37507Y-26660D01*
X37507Y-26826D01*
X37570Y-26980D01*
X37637Y-27047D01*
X37606Y-27047D01*
X37586Y-27027D01*
X37492Y-26988D01*
X37422Y-26988D01*
X37422Y-26483D01*
X37422Y-26404D01*
X37391Y-26332D01*
X37343Y-26283D01*
X37343Y-19708D01*
X37343Y-18708D01*
X37279Y-18554D01*
X37162Y-18437D01*
X37008Y-18373D01*
X36842Y-18373D01*
X36688Y-18436D01*
X36570Y-18554D01*
X36507Y-18707D01*
X36507Y-18874D01*
X36570Y-19027D01*
X36688Y-19145D01*
X36841Y-19209D01*
X37007Y-19209D01*
X37161Y-19146D01*
X37279Y-19028D01*
X37343Y-18874D01*
X37343Y-18708D01*
X37343Y-19708D01*
X37279Y-19554D01*
X37162Y-19437D01*
X37008Y-19373D01*
X36842Y-19373D01*
X36688Y-19436D01*
X36570Y-19554D01*
X36507Y-19707D01*
X36507Y-19874D01*
X36570Y-20027D01*
X36688Y-20145D01*
X36841Y-20209D01*
X37007Y-20209D01*
X37161Y-20146D01*
X37279Y-20028D01*
X37343Y-19874D01*
X37343Y-19708D01*
X37343Y-26283D01*
X37336Y-26277D01*
X37264Y-26247D01*
X37013Y-26247D01*
X36964Y-26296D01*
X36964Y-26704D01*
X37372Y-26704D01*
X37422Y-26655D01*
X37422Y-26483D01*
X37422Y-26988D01*
X37422Y-26988D01*
X37422Y-26832D01*
X37372Y-26783D01*
X36964Y-26783D01*
X36964Y-27191D01*
X37013Y-27240D01*
X37185Y-27240D01*
X37184Y-27294D01*
X37223Y-27388D01*
X37295Y-27460D01*
X37389Y-27499D01*
X37491Y-27500D01*
X37585Y-27461D01*
X37605Y-27440D01*
X37637Y-27440D01*
X37570Y-27506D01*
X37507Y-27660D01*
X37507Y-27826D01*
X37570Y-27980D01*
X37688Y-28098D01*
X37841Y-28162D01*
X38007Y-28162D01*
X38161Y-28098D01*
X38279Y-27981D01*
X38343Y-27827D01*
X38343Y-27661D01*
X38279Y-27507D01*
X38213Y-27440D01*
X38637Y-27440D01*
X38570Y-27506D01*
X38507Y-27660D01*
X38507Y-27826D01*
X38570Y-27980D01*
X38688Y-28098D01*
X38841Y-28162D01*
X39007Y-28162D01*
X39161Y-28098D01*
X39279Y-27981D01*
X39343Y-27827D01*
X39343Y-27661D01*
X39279Y-27507D01*
X39213Y-27440D01*
X39327Y-27440D01*
X39519Y-27632D01*
X39507Y-27660D01*
X39507Y-27826D01*
X39570Y-27980D01*
X39688Y-28098D01*
X39841Y-28162D01*
X40007Y-28162D01*
X40161Y-28098D01*
X40279Y-27981D01*
X40343Y-27827D01*
X40343Y-27661D01*
X40343Y-28277D01*
X37343Y-28277D01*
X37343Y-27661D01*
X37279Y-27507D01*
X37162Y-27389D01*
X37008Y-27326D01*
X36885Y-27325D01*
X36885Y-27191D01*
X36885Y-26783D01*
X36885Y-26704D01*
X36885Y-26296D01*
X36836Y-26247D01*
X36586Y-26247D01*
X36513Y-26277D01*
X36458Y-26332D01*
X36428Y-26404D01*
X36428Y-26483D01*
X36428Y-26655D01*
X36477Y-26704D01*
X36885Y-26704D01*
X36885Y-26783D01*
X36477Y-26783D01*
X36428Y-26832D01*
X36428Y-27005D01*
X36428Y-27083D01*
X36458Y-27155D01*
X36513Y-27211D01*
X36586Y-27240D01*
X36836Y-27240D01*
X36885Y-27191D01*
X36885Y-27325D01*
X36842Y-27325D01*
X36688Y-27389D01*
X36570Y-27506D01*
X36507Y-27660D01*
X36507Y-27826D01*
X36570Y-27980D01*
X36688Y-28098D01*
X36841Y-28162D01*
X37007Y-28162D01*
X37161Y-28098D01*
X37279Y-27981D01*
X37343Y-27827D01*
X37343Y-27661D01*
X37343Y-28277D01*
X35445Y-28277D01*
X35445Y-27141D01*
X35306Y-26803D01*
X35248Y-26745D01*
X35248Y-19090D01*
X35185Y-18936D01*
X35067Y-18818D01*
X34914Y-18755D01*
X34747Y-18755D01*
X34594Y-18818D01*
X34476Y-18936D01*
X34412Y-19089D01*
X34412Y-19256D01*
X34476Y-19409D01*
X34593Y-19527D01*
X34747Y-19591D01*
X34913Y-19591D01*
X35067Y-19527D01*
X35184Y-19410D01*
X35248Y-19256D01*
X35248Y-19090D01*
X35248Y-26745D01*
X35216Y-26713D01*
X35216Y-23965D01*
X35177Y-23870D01*
X35157Y-23850D01*
X35157Y-23078D01*
X35177Y-23058D01*
X35216Y-22964D01*
X35216Y-22862D01*
X35177Y-22768D01*
X35105Y-22696D01*
X35011Y-22657D01*
X34909Y-22657D01*
X34815Y-22696D01*
X34763Y-22748D01*
X34712Y-22696D01*
X34618Y-22657D01*
X34516Y-22657D01*
X34422Y-22696D01*
X34350Y-22768D01*
X34327Y-22822D01*
X34327Y-19434D01*
X34327Y-18912D01*
X34327Y-18833D01*
X34297Y-18761D01*
X34242Y-18706D01*
X34169Y-18676D01*
X33919Y-18676D01*
X33870Y-18725D01*
X33870Y-19133D01*
X34278Y-19133D01*
X34327Y-19084D01*
X34327Y-18912D01*
X34327Y-19434D01*
X34327Y-19261D01*
X34278Y-19212D01*
X33870Y-19212D01*
X33870Y-19620D01*
X33919Y-19670D01*
X34169Y-19670D01*
X34242Y-19640D01*
X34297Y-19584D01*
X34327Y-19512D01*
X34327Y-19434D01*
X34327Y-22822D01*
X34311Y-22862D01*
X34310Y-22964D01*
X34349Y-23058D01*
X34370Y-23078D01*
X34370Y-23850D01*
X34350Y-23870D01*
X34311Y-23964D01*
X34310Y-24066D01*
X34349Y-24160D01*
X34421Y-24232D01*
X34515Y-24271D01*
X34617Y-24271D01*
X34711Y-24232D01*
X34763Y-24180D01*
X34815Y-24232D01*
X34909Y-24271D01*
X35011Y-24271D01*
X35105Y-24232D01*
X35177Y-24160D01*
X35216Y-24066D01*
X35216Y-23965D01*
X35216Y-26713D01*
X35048Y-26544D01*
X34710Y-26404D01*
X34345Y-26404D01*
X34008Y-26544D01*
X33791Y-26760D01*
X33791Y-19620D01*
X33791Y-19212D01*
X33791Y-19133D01*
X33791Y-18725D01*
X33742Y-18676D01*
X33491Y-18676D01*
X33419Y-18706D01*
X33363Y-18761D01*
X33333Y-18833D01*
X33333Y-18912D01*
X33333Y-19084D01*
X33383Y-19133D01*
X33791Y-19133D01*
X33791Y-19212D01*
X33383Y-19212D01*
X33333Y-19261D01*
X33333Y-19434D01*
X33333Y-19512D01*
X33363Y-19584D01*
X33419Y-19640D01*
X33491Y-19670D01*
X33742Y-19670D01*
X33791Y-19620D01*
X33791Y-26760D01*
X33749Y-26802D01*
X33609Y-27139D01*
X33609Y-27504D01*
X33748Y-27842D01*
X34006Y-28100D01*
X34344Y-28240D01*
X34709Y-28241D01*
X35046Y-28101D01*
X35305Y-27843D01*
X35445Y-27506D01*
X35445Y-27141D01*
X35445Y-28277D01*
X33208Y-28277D01*
X33208Y-23815D01*
X33208Y-22634D01*
X33190Y-22590D01*
X33157Y-22557D01*
X33114Y-22539D01*
X33067Y-22539D01*
X32500Y-22539D01*
X32500Y-21407D01*
X32485Y-21332D01*
X32442Y-21268D01*
X32442Y-21268D01*
X32103Y-20929D01*
X32103Y-20052D01*
X32103Y-19530D01*
X32103Y-19452D01*
X32073Y-19379D01*
X32024Y-19331D01*
X32024Y-18708D01*
X31960Y-18554D01*
X31843Y-18437D01*
X31689Y-18373D01*
X31523Y-18373D01*
X31369Y-18436D01*
X31252Y-18554D01*
X31188Y-18707D01*
X31188Y-18874D01*
X31251Y-19027D01*
X31369Y-19145D01*
X31522Y-19209D01*
X31689Y-19209D01*
X31842Y-19146D01*
X31960Y-19028D01*
X32024Y-18874D01*
X32024Y-18708D01*
X32024Y-19331D01*
X32017Y-19324D01*
X31945Y-19294D01*
X31694Y-19294D01*
X31645Y-19343D01*
X31645Y-19751D01*
X32053Y-19751D01*
X32103Y-19702D01*
X32103Y-19530D01*
X32103Y-20052D01*
X32103Y-19879D01*
X32053Y-19830D01*
X31645Y-19830D01*
X31645Y-20238D01*
X31694Y-20288D01*
X31945Y-20288D01*
X32017Y-20258D01*
X32073Y-20202D01*
X32103Y-20130D01*
X32103Y-20052D01*
X32103Y-20929D01*
X31960Y-20786D01*
X31896Y-20743D01*
X31820Y-20728D01*
X31566Y-20728D01*
X31566Y-20238D01*
X31566Y-19830D01*
X31566Y-19751D01*
X31566Y-19343D01*
X31517Y-19294D01*
X31267Y-19294D01*
X31194Y-19324D01*
X31139Y-19379D01*
X31109Y-19452D01*
X31109Y-19530D01*
X31109Y-19702D01*
X31158Y-19751D01*
X31566Y-19751D01*
X31566Y-19830D01*
X31158Y-19830D01*
X31109Y-19879D01*
X31109Y-20052D01*
X31109Y-20130D01*
X31139Y-20202D01*
X31194Y-20258D01*
X31267Y-20288D01*
X31517Y-20288D01*
X31566Y-20238D01*
X31566Y-20728D01*
X31024Y-20728D01*
X31024Y-19708D01*
X31024Y-18708D01*
X30960Y-18554D01*
X30843Y-18437D01*
X30689Y-18373D01*
X30523Y-18373D01*
X30369Y-18436D01*
X30252Y-18554D01*
X30188Y-18707D01*
X30188Y-18874D01*
X30202Y-18908D01*
X30036Y-19074D01*
X29914Y-19074D01*
X29960Y-19028D01*
X30024Y-18874D01*
X30024Y-18708D01*
X29960Y-18554D01*
X29843Y-18437D01*
X29689Y-18373D01*
X29523Y-18373D01*
X29369Y-18436D01*
X29252Y-18554D01*
X29188Y-18707D01*
X29188Y-18874D01*
X29251Y-19027D01*
X29298Y-19074D01*
X28914Y-19074D01*
X28960Y-19028D01*
X29024Y-18874D01*
X29024Y-18708D01*
X28960Y-18554D01*
X28843Y-18437D01*
X28689Y-18373D01*
X28523Y-18373D01*
X28369Y-18436D01*
X28252Y-18554D01*
X28188Y-18707D01*
X28188Y-18874D01*
X28251Y-19027D01*
X28298Y-19074D01*
X27914Y-19074D01*
X27960Y-19028D01*
X28024Y-18874D01*
X28024Y-18708D01*
X27960Y-18554D01*
X27843Y-18437D01*
X27689Y-18373D01*
X27523Y-18373D01*
X27369Y-18436D01*
X27252Y-18554D01*
X27188Y-18707D01*
X27188Y-18874D01*
X27246Y-19015D01*
X27203Y-19015D01*
X27109Y-19054D01*
X27037Y-19126D01*
X26998Y-19220D01*
X26997Y-19322D01*
X27036Y-19416D01*
X27108Y-19488D01*
X27202Y-19527D01*
X27278Y-19527D01*
X27252Y-19554D01*
X27188Y-19707D01*
X27188Y-19874D01*
X27251Y-20027D01*
X27369Y-20145D01*
X27522Y-20209D01*
X27689Y-20209D01*
X27842Y-20146D01*
X27960Y-20028D01*
X28024Y-19874D01*
X28024Y-19708D01*
X27960Y-19554D01*
X27874Y-19468D01*
X28337Y-19468D01*
X28252Y-19554D01*
X28188Y-19707D01*
X28188Y-19874D01*
X28251Y-20027D01*
X28369Y-20145D01*
X28522Y-20209D01*
X28689Y-20209D01*
X28842Y-20146D01*
X28960Y-20028D01*
X29024Y-19874D01*
X29024Y-19708D01*
X28960Y-19554D01*
X28874Y-19468D01*
X29337Y-19468D01*
X29252Y-19554D01*
X29188Y-19707D01*
X29188Y-19874D01*
X29251Y-20027D01*
X29369Y-20145D01*
X29522Y-20209D01*
X29689Y-20209D01*
X29842Y-20146D01*
X29960Y-20028D01*
X30024Y-19874D01*
X30024Y-19708D01*
X29960Y-19554D01*
X29874Y-19468D01*
X30068Y-19468D01*
X30118Y-19468D01*
X30118Y-19468D01*
X30193Y-19453D01*
X30257Y-19410D01*
X30477Y-19190D01*
X30522Y-19209D01*
X30689Y-19209D01*
X30842Y-19146D01*
X30960Y-19028D01*
X31024Y-18874D01*
X31024Y-18708D01*
X31024Y-19708D01*
X30960Y-19554D01*
X30843Y-19437D01*
X30689Y-19373D01*
X30523Y-19373D01*
X30369Y-19436D01*
X30252Y-19554D01*
X30188Y-19707D01*
X30188Y-19874D01*
X30251Y-20027D01*
X30369Y-20145D01*
X30522Y-20209D01*
X30689Y-20209D01*
X30842Y-20146D01*
X30960Y-20028D01*
X31024Y-19874D01*
X31024Y-19708D01*
X31024Y-20728D01*
X27522Y-20728D01*
X26784Y-19990D01*
X26784Y-19106D01*
X26784Y-18428D01*
X26754Y-18356D01*
X26699Y-18300D01*
X26626Y-18270D01*
X26548Y-18270D01*
X26375Y-18270D01*
X26326Y-18320D01*
X26326Y-18728D01*
X26735Y-18728D01*
X26784Y-18679D01*
X26784Y-18428D01*
X26784Y-19106D01*
X26784Y-18856D01*
X26735Y-18807D01*
X26326Y-18807D01*
X26326Y-19215D01*
X26375Y-19264D01*
X26548Y-19264D01*
X26626Y-19264D01*
X26699Y-19234D01*
X26754Y-19179D01*
X26784Y-19106D01*
X26784Y-19990D01*
X26687Y-19893D01*
X26705Y-19851D01*
X26705Y-19684D01*
X26642Y-19531D01*
X26524Y-19413D01*
X26370Y-19349D01*
X26248Y-19349D01*
X26248Y-19215D01*
X26248Y-18807D01*
X26248Y-18728D01*
X26248Y-18320D01*
X26198Y-18270D01*
X26026Y-18270D01*
X25948Y-18270D01*
X25875Y-18300D01*
X25820Y-18356D01*
X25790Y-18428D01*
X25790Y-18679D01*
X25839Y-18728D01*
X26248Y-18728D01*
X26248Y-18807D01*
X25839Y-18807D01*
X25790Y-18856D01*
X25790Y-19106D01*
X25820Y-19179D01*
X25875Y-19234D01*
X25948Y-19264D01*
X26026Y-19264D01*
X26198Y-19264D01*
X26248Y-19215D01*
X26248Y-19349D01*
X26204Y-19349D01*
X26050Y-19413D01*
X25933Y-19530D01*
X25869Y-19684D01*
X25869Y-19850D01*
X25932Y-20004D01*
X26050Y-20121D01*
X26203Y-20185D01*
X26370Y-20185D01*
X26407Y-20170D01*
X27301Y-21064D01*
X27301Y-21064D01*
X27365Y-21107D01*
X27440Y-21122D01*
X27440Y-21122D01*
X31739Y-21122D01*
X32106Y-21489D01*
X32106Y-22539D01*
X31492Y-22539D01*
X31448Y-22557D01*
X31415Y-22590D01*
X31397Y-22633D01*
X31397Y-22680D01*
X31397Y-23861D01*
X31415Y-23905D01*
X31448Y-23938D01*
X31492Y-23956D01*
X31539Y-23956D01*
X33113Y-23956D01*
X33157Y-23938D01*
X33190Y-23905D01*
X33208Y-23862D01*
X33208Y-23815D01*
X33208Y-28277D01*
X32103Y-28277D01*
X32103Y-27700D01*
X32103Y-26700D01*
X32039Y-26546D01*
X31922Y-26429D01*
X31784Y-26372D01*
X31791Y-26365D01*
X31830Y-26271D01*
X31830Y-26169D01*
X31791Y-26075D01*
X31719Y-26003D01*
X31625Y-25964D01*
X31524Y-25964D01*
X31430Y-26003D01*
X31409Y-26023D01*
X31338Y-26023D01*
X31338Y-25224D01*
X31299Y-25130D01*
X31279Y-25110D01*
X31279Y-23571D01*
X31240Y-23477D01*
X31168Y-23405D01*
X31074Y-23366D01*
X30972Y-23366D01*
X30878Y-23404D01*
X30858Y-23425D01*
X30558Y-23425D01*
X30538Y-23405D01*
X30444Y-23366D01*
X30343Y-23366D01*
X30248Y-23404D01*
X30176Y-23476D01*
X30137Y-23570D01*
X30137Y-23672D01*
X30176Y-23766D01*
X30248Y-23838D01*
X30342Y-23877D01*
X30444Y-23877D01*
X30538Y-23839D01*
X30558Y-23818D01*
X30858Y-23818D01*
X30878Y-23838D01*
X30972Y-23877D01*
X31074Y-23877D01*
X31168Y-23839D01*
X31240Y-23767D01*
X31279Y-23673D01*
X31279Y-23571D01*
X31279Y-25110D01*
X31227Y-25058D01*
X31133Y-25019D01*
X31031Y-25019D01*
X30937Y-25058D01*
X30917Y-25078D01*
X30829Y-25078D01*
X30336Y-24585D01*
X30272Y-24542D01*
X30196Y-24527D01*
X29545Y-24527D01*
X29545Y-22737D01*
X29500Y-22629D01*
X29448Y-22577D01*
X29448Y-22304D01*
X29500Y-22252D01*
X29545Y-22145D01*
X29545Y-22028D01*
X29500Y-21920D01*
X29418Y-21838D01*
X29342Y-21806D01*
X29350Y-21798D01*
X29389Y-21704D01*
X29389Y-21602D01*
X29350Y-21508D01*
X29279Y-21436D01*
X29184Y-21397D01*
X29083Y-21397D01*
X28989Y-21436D01*
X28917Y-21508D01*
X28877Y-21602D01*
X28877Y-21631D01*
X28719Y-21789D01*
X28676Y-21853D01*
X28661Y-21929D01*
X28661Y-24047D01*
X28641Y-24067D01*
X28602Y-24161D01*
X28602Y-24263D01*
X28641Y-24357D01*
X28713Y-24429D01*
X28807Y-24468D01*
X28908Y-24468D01*
X29003Y-24429D01*
X29075Y-24357D01*
X29114Y-24263D01*
X29114Y-24161D01*
X29075Y-24067D01*
X29055Y-24047D01*
X29055Y-23012D01*
X29085Y-23043D01*
X29193Y-23088D01*
X29310Y-23088D01*
X29417Y-23043D01*
X29500Y-22961D01*
X29545Y-22853D01*
X29545Y-22737D01*
X29545Y-24527D01*
X28560Y-24527D01*
X28540Y-24507D01*
X28446Y-24468D01*
X28344Y-24468D01*
X28250Y-24507D01*
X28178Y-24579D01*
X28139Y-24673D01*
X28139Y-24775D01*
X28178Y-24869D01*
X28250Y-24941D01*
X28344Y-24980D01*
X28446Y-24980D01*
X28540Y-24941D01*
X28560Y-24921D01*
X30115Y-24921D01*
X30608Y-25414D01*
X30608Y-25414D01*
X30634Y-25431D01*
X30672Y-25457D01*
X30748Y-25472D01*
X30748Y-25472D01*
X30917Y-25472D01*
X30937Y-25492D01*
X31031Y-25531D01*
X31133Y-25531D01*
X31227Y-25492D01*
X31299Y-25420D01*
X31338Y-25326D01*
X31338Y-25224D01*
X31338Y-26023D01*
X30255Y-26023D01*
X30255Y-25303D01*
X30217Y-25209D01*
X30145Y-25137D01*
X30051Y-25098D01*
X29949Y-25098D01*
X29855Y-25137D01*
X29834Y-25157D01*
X29212Y-25157D01*
X29137Y-25172D01*
X29073Y-25215D01*
X28796Y-25492D01*
X28768Y-25492D01*
X28674Y-25530D01*
X28602Y-25602D01*
X28563Y-25696D01*
X28562Y-25798D01*
X28601Y-25892D01*
X28673Y-25964D01*
X28767Y-26003D01*
X28869Y-26003D01*
X28963Y-25965D01*
X29035Y-25893D01*
X29074Y-25799D01*
X29074Y-25770D01*
X29294Y-25551D01*
X29834Y-25551D01*
X29854Y-25571D01*
X29948Y-25610D01*
X30050Y-25610D01*
X30144Y-25571D01*
X30216Y-25499D01*
X30255Y-25405D01*
X30255Y-25303D01*
X30255Y-26023D01*
X28511Y-26023D01*
X28491Y-26003D01*
X28397Y-25964D01*
X28295Y-25964D01*
X28201Y-26003D01*
X28129Y-26075D01*
X28090Y-26169D01*
X28090Y-26271D01*
X28118Y-26338D01*
X28096Y-26316D01*
X28024Y-26286D01*
X27773Y-26286D01*
X27724Y-26335D01*
X27724Y-26744D01*
X28132Y-26744D01*
X28181Y-26694D01*
X28181Y-26522D01*
X28181Y-26444D01*
X28163Y-26399D01*
X28201Y-26437D01*
X28295Y-26476D01*
X28397Y-26476D01*
X28403Y-26473D01*
X28330Y-26546D01*
X28267Y-26699D01*
X28266Y-26866D01*
X28330Y-27019D01*
X28447Y-27137D01*
X28601Y-27201D01*
X28767Y-27201D01*
X28921Y-27138D01*
X29039Y-27020D01*
X29103Y-26866D01*
X29103Y-26700D01*
X29039Y-26546D01*
X28922Y-26429D01*
X28893Y-26417D01*
X29476Y-26417D01*
X29448Y-26428D01*
X29330Y-26546D01*
X29267Y-26699D01*
X29266Y-26866D01*
X29330Y-27019D01*
X29447Y-27137D01*
X29601Y-27201D01*
X29767Y-27201D01*
X29921Y-27138D01*
X30039Y-27020D01*
X30103Y-26866D01*
X30103Y-26700D01*
X30039Y-26546D01*
X29922Y-26429D01*
X29893Y-26417D01*
X30476Y-26417D01*
X30448Y-26428D01*
X30330Y-26546D01*
X30267Y-26699D01*
X30266Y-26866D01*
X30330Y-27019D01*
X30447Y-27137D01*
X30601Y-27201D01*
X30767Y-27201D01*
X30921Y-27138D01*
X31039Y-27020D01*
X31103Y-26866D01*
X31103Y-26700D01*
X31039Y-26546D01*
X30922Y-26429D01*
X30893Y-26417D01*
X31409Y-26417D01*
X31429Y-26437D01*
X31436Y-26440D01*
X31330Y-26546D01*
X31267Y-26699D01*
X31266Y-26866D01*
X31330Y-27019D01*
X31447Y-27137D01*
X31601Y-27201D01*
X31767Y-27201D01*
X31921Y-27138D01*
X32039Y-27020D01*
X32103Y-26866D01*
X32103Y-26700D01*
X32103Y-27700D01*
X32039Y-27546D01*
X31922Y-27429D01*
X31768Y-27365D01*
X31602Y-27365D01*
X31448Y-27428D01*
X31330Y-27546D01*
X31267Y-27699D01*
X31266Y-27866D01*
X31330Y-28019D01*
X31447Y-28137D01*
X31601Y-28201D01*
X31767Y-28201D01*
X31921Y-28138D01*
X32039Y-28020D01*
X32103Y-27866D01*
X32103Y-27700D01*
X32103Y-28277D01*
X31103Y-28277D01*
X31103Y-27700D01*
X31039Y-27546D01*
X30922Y-27429D01*
X30768Y-27365D01*
X30602Y-27365D01*
X30448Y-27428D01*
X30330Y-27546D01*
X30267Y-27699D01*
X30266Y-27866D01*
X30330Y-28019D01*
X30447Y-28137D01*
X30601Y-28201D01*
X30767Y-28201D01*
X30921Y-28138D01*
X31039Y-28020D01*
X31103Y-27866D01*
X31103Y-27700D01*
X31103Y-28277D01*
X30103Y-28277D01*
X30103Y-27700D01*
X30039Y-27546D01*
X29922Y-27429D01*
X29768Y-27365D01*
X29602Y-27365D01*
X29448Y-27428D01*
X29330Y-27546D01*
X29267Y-27699D01*
X29266Y-27866D01*
X29330Y-28019D01*
X29447Y-28137D01*
X29601Y-28201D01*
X29767Y-28201D01*
X29921Y-28138D01*
X30039Y-28020D01*
X30103Y-27866D01*
X30103Y-27700D01*
X30103Y-28277D01*
X29103Y-28277D01*
X29103Y-27700D01*
X29039Y-27546D01*
X28922Y-27429D01*
X28768Y-27365D01*
X28602Y-27365D01*
X28561Y-27381D01*
X28314Y-27134D01*
X28250Y-27091D01*
X28181Y-27078D01*
X28181Y-27044D01*
X28181Y-26872D01*
X28132Y-26822D01*
X27724Y-26822D01*
X27724Y-26830D01*
X27645Y-26830D01*
X27645Y-26822D01*
X27645Y-26744D01*
X27645Y-26335D01*
X27596Y-26286D01*
X27346Y-26286D01*
X27273Y-26316D01*
X27218Y-26371D01*
X27188Y-26444D01*
X27188Y-26522D01*
X27188Y-26694D01*
X27237Y-26744D01*
X27645Y-26744D01*
X27645Y-26822D01*
X27237Y-26822D01*
X27188Y-26872D01*
X27188Y-27044D01*
X27188Y-27076D01*
X26569Y-27076D01*
X26641Y-27004D01*
X26705Y-26851D01*
X26705Y-26684D01*
X26642Y-26531D01*
X26524Y-26413D01*
X26370Y-26349D01*
X26204Y-26349D01*
X26050Y-26413D01*
X25984Y-26479D01*
X25984Y-26055D01*
X26050Y-26121D01*
X26203Y-26185D01*
X26370Y-26185D01*
X26523Y-26122D01*
X26641Y-26004D01*
X26705Y-25851D01*
X26705Y-25684D01*
X26642Y-25531D01*
X26524Y-25413D01*
X26370Y-25349D01*
X26204Y-25349D01*
X26050Y-25413D01*
X25984Y-25479D01*
X25984Y-25055D01*
X26050Y-25121D01*
X26203Y-25185D01*
X26370Y-25185D01*
X26523Y-25122D01*
X26641Y-25004D01*
X26705Y-24851D01*
X26705Y-24684D01*
X26642Y-24531D01*
X26524Y-24413D01*
X26370Y-24349D01*
X26204Y-24349D01*
X26050Y-24413D01*
X25984Y-24479D01*
X25984Y-24055D01*
X26050Y-24121D01*
X26203Y-24185D01*
X26370Y-24185D01*
X26523Y-24122D01*
X26641Y-24004D01*
X26705Y-23851D01*
X26705Y-23684D01*
X26642Y-23531D01*
X26524Y-23413D01*
X26370Y-23349D01*
X26204Y-23349D01*
X26050Y-23413D01*
X25984Y-23479D01*
X25984Y-23359D01*
X26171Y-23172D01*
X26203Y-23185D01*
X26370Y-23185D01*
X26523Y-23122D01*
X26641Y-23004D01*
X26705Y-22851D01*
X26705Y-22684D01*
X26705Y-21684D01*
X26705Y-20684D01*
X26642Y-20531D01*
X26524Y-20413D01*
X26370Y-20349D01*
X26204Y-20349D01*
X26050Y-20413D01*
X25933Y-20530D01*
X25869Y-20684D01*
X25869Y-20850D01*
X25932Y-21004D01*
X26050Y-21121D01*
X26203Y-21185D01*
X26370Y-21185D01*
X26523Y-21122D01*
X26641Y-21004D01*
X26705Y-20851D01*
X26705Y-20684D01*
X26705Y-21684D01*
X26642Y-21531D01*
X26524Y-21413D01*
X26370Y-21349D01*
X26204Y-21349D01*
X26050Y-21413D01*
X25933Y-21530D01*
X25869Y-21684D01*
X25869Y-21850D01*
X25932Y-22004D01*
X26050Y-22121D01*
X26203Y-22185D01*
X26370Y-22185D01*
X26523Y-22122D01*
X26641Y-22004D01*
X26705Y-21851D01*
X26705Y-21684D01*
X26705Y-22684D01*
X26642Y-22531D01*
X26524Y-22413D01*
X26370Y-22349D01*
X26204Y-22349D01*
X26050Y-22413D01*
X25933Y-22530D01*
X25869Y-22684D01*
X25869Y-22850D01*
X25888Y-22897D01*
X25705Y-23080D01*
X25705Y-22684D01*
X25705Y-21684D01*
X25705Y-20684D01*
X25705Y-19684D01*
X25705Y-18684D01*
X25642Y-18531D01*
X25524Y-18413D01*
X25370Y-18349D01*
X25204Y-18349D01*
X25050Y-18413D01*
X24933Y-18530D01*
X24869Y-18684D01*
X24869Y-18850D01*
X24932Y-19004D01*
X25050Y-19121D01*
X25203Y-19185D01*
X25370Y-19185D01*
X25523Y-19122D01*
X25641Y-19004D01*
X25705Y-18851D01*
X25705Y-18684D01*
X25705Y-19684D01*
X25642Y-19531D01*
X25524Y-19413D01*
X25370Y-19349D01*
X25204Y-19349D01*
X25050Y-19413D01*
X24933Y-19530D01*
X24869Y-19684D01*
X24869Y-19850D01*
X24932Y-20004D01*
X25050Y-20121D01*
X25203Y-20185D01*
X25370Y-20185D01*
X25523Y-20122D01*
X25641Y-20004D01*
X25705Y-19851D01*
X25705Y-19684D01*
X25705Y-20684D01*
X25642Y-20531D01*
X25524Y-20413D01*
X25370Y-20349D01*
X25204Y-20349D01*
X25050Y-20413D01*
X24933Y-20530D01*
X24869Y-20684D01*
X24869Y-20850D01*
X24932Y-21004D01*
X25050Y-21121D01*
X25203Y-21185D01*
X25370Y-21185D01*
X25523Y-21122D01*
X25641Y-21004D01*
X25705Y-20851D01*
X25705Y-20684D01*
X25705Y-21684D01*
X25642Y-21531D01*
X25524Y-21413D01*
X25370Y-21349D01*
X25204Y-21349D01*
X25050Y-21413D01*
X24933Y-21530D01*
X24869Y-21684D01*
X24869Y-21850D01*
X24932Y-22004D01*
X25050Y-22121D01*
X25203Y-22185D01*
X25370Y-22185D01*
X25523Y-22122D01*
X25641Y-22004D01*
X25705Y-21851D01*
X25705Y-21684D01*
X25705Y-22684D01*
X25642Y-22531D01*
X25524Y-22413D01*
X25370Y-22349D01*
X25204Y-22349D01*
X25050Y-22413D01*
X24933Y-22530D01*
X24869Y-22684D01*
X24869Y-22850D01*
X24932Y-23004D01*
X25050Y-23121D01*
X25203Y-23185D01*
X25370Y-23185D01*
X25523Y-23122D01*
X25641Y-23004D01*
X25705Y-22851D01*
X25705Y-22684D01*
X25705Y-23080D01*
X25648Y-23138D01*
X25605Y-23202D01*
X25590Y-23277D01*
X25590Y-23479D01*
X25524Y-23413D01*
X25370Y-23349D01*
X25204Y-23349D01*
X25050Y-23413D01*
X24933Y-23530D01*
X24869Y-23684D01*
X24869Y-23850D01*
X24932Y-24004D01*
X25050Y-24121D01*
X25203Y-24185D01*
X25370Y-24185D01*
X25523Y-24122D01*
X25590Y-24055D01*
X25590Y-24479D01*
X25524Y-24413D01*
X25370Y-24349D01*
X25204Y-24349D01*
X25050Y-24413D01*
X24933Y-24530D01*
X24869Y-24684D01*
X24869Y-24850D01*
X24932Y-25004D01*
X25050Y-25121D01*
X25203Y-25185D01*
X25370Y-25185D01*
X25523Y-25122D01*
X25590Y-25055D01*
X25590Y-25479D01*
X25524Y-25413D01*
X25370Y-25349D01*
X25204Y-25349D01*
X25050Y-25413D01*
X24933Y-25530D01*
X24869Y-25684D01*
X24869Y-25850D01*
X24932Y-26004D01*
X25050Y-26121D01*
X25203Y-26185D01*
X25370Y-26185D01*
X25523Y-26122D01*
X25590Y-26055D01*
X25590Y-26479D01*
X25524Y-26413D01*
X25370Y-26349D01*
X25204Y-26349D01*
X25050Y-26413D01*
X24933Y-26530D01*
X24869Y-26684D01*
X24869Y-26850D01*
X24932Y-27004D01*
X25050Y-27121D01*
X25203Y-27185D01*
X25370Y-27185D01*
X25523Y-27122D01*
X25603Y-27043D01*
X25605Y-27053D01*
X25648Y-27117D01*
X25943Y-27412D01*
X25943Y-27412D01*
X26007Y-27455D01*
X26008Y-27455D01*
X25933Y-27530D01*
X25869Y-27684D01*
X25869Y-27850D01*
X25932Y-28004D01*
X26050Y-28121D01*
X26203Y-28185D01*
X26370Y-28185D01*
X26523Y-28122D01*
X26641Y-28004D01*
X26705Y-27851D01*
X26705Y-27684D01*
X26642Y-27531D01*
X26581Y-27470D01*
X27406Y-27470D01*
X27330Y-27546D01*
X27267Y-27699D01*
X27266Y-27866D01*
X27330Y-28019D01*
X27447Y-28137D01*
X27601Y-28201D01*
X27767Y-28201D01*
X27921Y-28138D01*
X28039Y-28020D01*
X28103Y-27866D01*
X28103Y-27700D01*
X28039Y-27546D01*
X27963Y-27470D01*
X28093Y-27470D01*
X28283Y-27660D01*
X28267Y-27699D01*
X28266Y-27866D01*
X28330Y-28019D01*
X28447Y-28137D01*
X28601Y-28201D01*
X28767Y-28201D01*
X28921Y-28138D01*
X29039Y-28020D01*
X29103Y-27866D01*
X29103Y-27700D01*
X29103Y-28277D01*
X25705Y-28277D01*
X25705Y-27684D01*
X25642Y-27531D01*
X25524Y-27413D01*
X25370Y-27349D01*
X25204Y-27349D01*
X25050Y-27413D01*
X24933Y-27530D01*
X24869Y-27684D01*
X24869Y-27850D01*
X24932Y-28004D01*
X25050Y-28121D01*
X25203Y-28185D01*
X25370Y-28185D01*
X25523Y-28122D01*
X25641Y-28004D01*
X25705Y-27851D01*
X25705Y-27684D01*
X25705Y-28277D01*
X24793Y-28277D01*
X24793Y-18257D01*
X40164Y-18257D01*
X40037Y-18385D01*
X40008Y-18373D01*
X39842Y-18373D01*
X39688Y-18436D01*
X39570Y-18554D01*
X39507Y-18707D01*
X39507Y-18874D01*
X39570Y-19027D01*
X39688Y-19145D01*
X39841Y-19209D01*
X40007Y-19209D01*
X40161Y-19146D01*
X40279Y-19028D01*
X40343Y-18874D01*
X40343Y-18708D01*
X40322Y-18657D01*
X40514Y-18464D01*
X40999Y-18464D01*
X40933Y-18530D01*
X40869Y-18684D01*
X40869Y-18850D01*
X40885Y-18890D01*
X40530Y-19246D01*
X40487Y-19310D01*
X40472Y-19385D01*
X40472Y-20587D01*
X40343Y-20716D01*
X40343Y-20067D01*
X40343Y-19467D01*
X40325Y-19424D01*
X40292Y-19391D01*
X40248Y-19373D01*
X40201Y-19373D01*
X39601Y-19373D01*
X39558Y-19391D01*
X39525Y-19424D01*
X39507Y-19467D01*
X39507Y-19514D01*
X39507Y-20114D01*
X39525Y-20158D01*
X39558Y-20191D01*
X39601Y-20209D01*
X39648Y-20209D01*
X40248Y-20209D01*
X40292Y-20191D01*
X40325Y-20158D01*
X40343Y-20114D01*
X40343Y-20067D01*
X40343Y-20716D01*
X39741Y-21318D01*
X39713Y-21318D01*
X39619Y-21357D01*
X39546Y-21429D01*
X39507Y-21523D01*
X39507Y-21625D01*
X39546Y-21719D01*
X39618Y-21791D01*
X39712Y-21830D01*
X39814Y-21830D01*
X39908Y-21791D01*
X39980Y-21719D01*
X40019Y-21625D01*
X40019Y-21597D01*
X40808Y-20808D01*
X40808Y-20808D01*
X40851Y-20744D01*
X40866Y-20669D01*
X40866Y-20669D01*
X40866Y-19467D01*
X41164Y-19169D01*
X41203Y-19185D01*
X41370Y-19185D01*
X41523Y-19122D01*
X41641Y-19004D01*
X41705Y-18851D01*
X41705Y-18684D01*
X41642Y-18531D01*
X41575Y-18464D01*
X41999Y-18464D01*
X41933Y-18530D01*
X41869Y-18684D01*
X41869Y-18850D01*
X41932Y-19004D01*
X42050Y-19121D01*
X42203Y-19185D01*
X42370Y-19185D01*
X42523Y-19122D01*
X42637Y-19008D01*
X42637Y-19526D01*
X42524Y-19413D01*
X42370Y-19349D01*
X42204Y-19349D01*
X42050Y-19413D01*
X41933Y-19530D01*
X41869Y-19684D01*
X41869Y-19850D01*
X41885Y-19890D01*
X41705Y-20071D01*
X41705Y-19684D01*
X41642Y-19531D01*
X41524Y-19413D01*
X41370Y-19349D01*
X41204Y-19349D01*
X41050Y-19413D01*
X40933Y-19530D01*
X40869Y-19684D01*
X40869Y-19850D01*
X40932Y-20004D01*
X41050Y-20121D01*
X41203Y-20185D01*
X41370Y-20185D01*
X41523Y-20122D01*
X41641Y-20004D01*
X41705Y-19851D01*
X41705Y-19684D01*
X41705Y-20071D01*
X41671Y-20104D01*
X41629Y-20168D01*
X41614Y-20244D01*
X41614Y-20503D01*
X41524Y-20413D01*
X41370Y-20349D01*
X41204Y-20349D01*
X41050Y-20413D01*
X40933Y-20530D01*
X40869Y-20684D01*
X40869Y-20850D01*
X40932Y-21004D01*
X40991Y-21062D01*
X40826Y-21062D01*
X40751Y-21077D01*
X40687Y-21120D01*
X40135Y-21673D01*
X40106Y-21673D01*
X40012Y-21712D01*
X39940Y-21783D01*
X39901Y-21878D01*
X39901Y-21979D01*
X39940Y-22073D01*
X40012Y-22145D01*
X40106Y-22184D01*
X40208Y-22185D01*
X40302Y-22146D01*
X40374Y-22074D01*
X40413Y-21980D01*
X40413Y-21951D01*
X40908Y-21456D01*
X41007Y-21456D01*
X40933Y-21530D01*
X40869Y-21684D01*
X40869Y-21850D01*
X40932Y-22004D01*
X41050Y-22121D01*
X41203Y-22185D01*
X41370Y-22185D01*
X41523Y-22122D01*
X41641Y-22004D01*
X41705Y-21851D01*
X41705Y-21684D01*
X41642Y-21531D01*
X41567Y-21456D01*
X41574Y-21456D01*
X41574Y-21456D01*
X41650Y-21441D01*
X41713Y-21399D01*
X41950Y-21162D01*
X41992Y-21098D01*
X41998Y-21070D01*
X42050Y-21121D01*
X42203Y-21185D01*
X42370Y-21185D01*
X42523Y-21122D01*
X42637Y-21008D01*
X42637Y-21138D01*
X42410Y-21366D01*
X42370Y-21349D01*
X42204Y-21349D01*
X42050Y-21413D01*
X41933Y-21530D01*
X41869Y-21684D01*
X41869Y-21850D01*
X41932Y-22004D01*
X42050Y-22121D01*
X42203Y-22185D01*
X42370Y-22185D01*
X42523Y-22122D01*
X42641Y-22004D01*
X42705Y-21851D01*
X42705Y-21684D01*
X42688Y-21644D01*
X42973Y-21359D01*
X42973Y-21359D01*
X43016Y-21295D01*
X43031Y-21220D01*
X43031Y-21220D01*
X43031Y-18503D01*
X43016Y-18428D01*
X42973Y-18364D01*
X42866Y-18257D01*
X44183Y-18257D01*
X44183Y-28277D01*
X44183Y-28277D01*
G37*
G54D18*
X44183Y-28277D02*
X44158Y-28277D01*
X44158Y-24626D01*
X44158Y-23948D01*
X44158Y-19587D01*
X44158Y-18909D01*
X44128Y-18836D01*
X44073Y-18781D01*
X44000Y-18751D01*
X43922Y-18751D01*
X43750Y-18751D01*
X43700Y-18800D01*
X43700Y-19208D01*
X44109Y-19208D01*
X44158Y-19159D01*
X44158Y-18909D01*
X44158Y-19587D01*
X44158Y-19336D01*
X44109Y-19287D01*
X43700Y-19287D01*
X43700Y-19695D01*
X43750Y-19744D01*
X43922Y-19744D01*
X44000Y-19744D01*
X44073Y-19714D01*
X44128Y-19659D01*
X44158Y-19587D01*
X44158Y-23948D01*
X44128Y-23876D01*
X44079Y-23827D01*
X44079Y-22165D01*
X44079Y-21165D01*
X44079Y-20165D01*
X44016Y-20011D01*
X43898Y-19893D01*
X43744Y-19829D01*
X43622Y-19829D01*
X43622Y-19695D01*
X43622Y-19287D01*
X43622Y-19208D01*
X43622Y-18800D01*
X43572Y-18751D01*
X43400Y-18751D01*
X43322Y-18751D01*
X43249Y-18781D01*
X43194Y-18836D01*
X43164Y-18909D01*
X43164Y-19159D01*
X43213Y-19208D01*
X43622Y-19208D01*
X43622Y-19287D01*
X43213Y-19287D01*
X43164Y-19336D01*
X43164Y-19587D01*
X43194Y-19659D01*
X43249Y-19714D01*
X43322Y-19744D01*
X43400Y-19744D01*
X43572Y-19744D01*
X43622Y-19695D01*
X43622Y-19829D01*
X43578Y-19829D01*
X43424Y-19893D01*
X43307Y-20010D01*
X43243Y-20164D01*
X43243Y-20330D01*
X43306Y-20484D01*
X43424Y-20602D01*
X43577Y-20666D01*
X43744Y-20666D01*
X43897Y-20602D01*
X44015Y-20485D01*
X44079Y-20331D01*
X44079Y-20165D01*
X44079Y-21165D01*
X44016Y-21011D01*
X43898Y-20893D01*
X43744Y-20829D01*
X43578Y-20829D01*
X43424Y-20893D01*
X43307Y-21010D01*
X43243Y-21164D01*
X43243Y-21330D01*
X43306Y-21484D01*
X43424Y-21602D01*
X43577Y-21666D01*
X43744Y-21666D01*
X43897Y-21602D01*
X44015Y-21485D01*
X44079Y-21331D01*
X44079Y-21165D01*
X44079Y-22165D01*
X44016Y-22011D01*
X43898Y-21893D01*
X43744Y-21829D01*
X43578Y-21829D01*
X43424Y-21893D01*
X43307Y-22010D01*
X43243Y-22164D01*
X43243Y-22330D01*
X43306Y-22484D01*
X43424Y-22602D01*
X43577Y-22666D01*
X43744Y-22666D01*
X43897Y-22602D01*
X44015Y-22485D01*
X44079Y-22331D01*
X44079Y-22165D01*
X44079Y-23827D01*
X44073Y-23820D01*
X44000Y-23790D01*
X43922Y-23790D01*
X43750Y-23790D01*
X43700Y-23839D01*
X43700Y-24248D01*
X44109Y-24248D01*
X44158Y-24198D01*
X44158Y-23948D01*
X44158Y-24626D01*
X44158Y-24375D01*
X44109Y-24326D01*
X43700Y-24326D01*
X43700Y-24735D01*
X43750Y-24784D01*
X43922Y-24784D01*
X44000Y-24784D01*
X44073Y-24754D01*
X44128Y-24698D01*
X44158Y-24626D01*
X44158Y-28277D01*
X44079Y-28277D01*
X44079Y-27204D01*
X44016Y-27050D01*
X43898Y-26933D01*
X43744Y-26869D01*
X43578Y-26869D01*
X43424Y-26932D01*
X43307Y-27050D01*
X43243Y-27203D01*
X43243Y-27370D01*
X43259Y-27410D01*
X43099Y-27570D01*
X42658Y-27570D01*
X42642Y-27531D01*
X42591Y-27480D01*
X42665Y-27480D01*
X42665Y-27480D01*
X42740Y-27465D01*
X42804Y-27422D01*
X43538Y-26688D01*
X43577Y-26705D01*
X43744Y-26705D01*
X43897Y-26642D01*
X44015Y-26524D01*
X44079Y-26370D01*
X44079Y-26204D01*
X44079Y-25204D01*
X44016Y-25050D01*
X43898Y-24933D01*
X43744Y-24869D01*
X43622Y-24869D01*
X43622Y-24735D01*
X43622Y-24326D01*
X43622Y-24248D01*
X43622Y-23839D01*
X43572Y-23790D01*
X43400Y-23790D01*
X43322Y-23790D01*
X43249Y-23820D01*
X43194Y-23876D01*
X43164Y-23948D01*
X43164Y-24198D01*
X43213Y-24248D01*
X43622Y-24248D01*
X43622Y-24326D01*
X43213Y-24326D01*
X43164Y-24375D01*
X43164Y-24626D01*
X43194Y-24698D01*
X43249Y-24754D01*
X43322Y-24784D01*
X43400Y-24784D01*
X43572Y-24784D01*
X43622Y-24735D01*
X43622Y-24869D01*
X43578Y-24869D01*
X43424Y-24932D01*
X43307Y-25050D01*
X43290Y-25090D01*
X42555Y-25090D01*
X42641Y-25004D01*
X42705Y-24851D01*
X42705Y-24684D01*
X42705Y-23684D01*
X42705Y-22684D01*
X42642Y-22531D01*
X42524Y-22413D01*
X42370Y-22349D01*
X42204Y-22349D01*
X42050Y-22413D01*
X41933Y-22530D01*
X41869Y-22684D01*
X41869Y-22850D01*
X41932Y-23004D01*
X42050Y-23121D01*
X42203Y-23185D01*
X42370Y-23185D01*
X42523Y-23122D01*
X42641Y-23004D01*
X42705Y-22851D01*
X42705Y-22684D01*
X42705Y-23684D01*
X42642Y-23531D01*
X42524Y-23413D01*
X42370Y-23349D01*
X42204Y-23349D01*
X42050Y-23413D01*
X41933Y-23530D01*
X41869Y-23684D01*
X41869Y-23850D01*
X41932Y-24004D01*
X42050Y-24121D01*
X42203Y-24185D01*
X42370Y-24185D01*
X42523Y-24122D01*
X42641Y-24004D01*
X42705Y-23851D01*
X42705Y-23684D01*
X42705Y-24684D01*
X42642Y-24531D01*
X42524Y-24413D01*
X42370Y-24349D01*
X42204Y-24349D01*
X42050Y-24413D01*
X41933Y-24530D01*
X41869Y-24684D01*
X41869Y-24850D01*
X41932Y-25004D01*
X42018Y-25090D01*
X41555Y-25090D01*
X41641Y-25004D01*
X41705Y-24851D01*
X41705Y-24684D01*
X41705Y-23684D01*
X41705Y-22684D01*
X41642Y-22531D01*
X41524Y-22413D01*
X41370Y-22349D01*
X41204Y-22349D01*
X41050Y-22413D01*
X40933Y-22530D01*
X40869Y-22684D01*
X40869Y-22850D01*
X40932Y-23004D01*
X41050Y-23121D01*
X41203Y-23185D01*
X41370Y-23185D01*
X41523Y-23122D01*
X41641Y-23004D01*
X41705Y-22851D01*
X41705Y-22684D01*
X41705Y-23684D01*
X41642Y-23531D01*
X41524Y-23413D01*
X41370Y-23349D01*
X41204Y-23349D01*
X41050Y-23413D01*
X40933Y-23530D01*
X40869Y-23684D01*
X40869Y-23850D01*
X40932Y-24004D01*
X41050Y-24121D01*
X41203Y-24185D01*
X41370Y-24185D01*
X41523Y-24122D01*
X41641Y-24004D01*
X41705Y-23851D01*
X41705Y-23684D01*
X41705Y-24684D01*
X41642Y-24531D01*
X41524Y-24413D01*
X41370Y-24349D01*
X41204Y-24349D01*
X41050Y-24413D01*
X40933Y-24530D01*
X40869Y-24684D01*
X40869Y-24850D01*
X40932Y-25004D01*
X41018Y-25090D01*
X40570Y-25090D01*
X40570Y-23799D01*
X40570Y-22696D01*
X40570Y-22618D01*
X40540Y-22545D01*
X40485Y-22490D01*
X40413Y-22460D01*
X39675Y-22460D01*
X39625Y-22509D01*
X39625Y-23208D01*
X40521Y-23208D01*
X40570Y-23159D01*
X40570Y-22696D01*
X40570Y-23799D01*
X40570Y-23336D01*
X40521Y-23287D01*
X39625Y-23287D01*
X39625Y-23986D01*
X39675Y-24035D01*
X40413Y-24035D01*
X40485Y-24005D01*
X40540Y-23950D01*
X40570Y-23877D01*
X40570Y-23799D01*
X40570Y-25090D01*
X39547Y-25090D01*
X39547Y-23986D01*
X39547Y-23287D01*
X39547Y-23208D01*
X39547Y-22509D01*
X39498Y-22460D01*
X39343Y-22460D01*
X39343Y-19708D01*
X39343Y-18708D01*
X39279Y-18554D01*
X39162Y-18437D01*
X39008Y-18373D01*
X38842Y-18373D01*
X38688Y-18436D01*
X38570Y-18554D01*
X38507Y-18707D01*
X38507Y-18874D01*
X38570Y-19027D01*
X38688Y-19145D01*
X38841Y-19209D01*
X39007Y-19209D01*
X39161Y-19146D01*
X39279Y-19028D01*
X39343Y-18874D01*
X39343Y-18708D01*
X39343Y-19708D01*
X39279Y-19554D01*
X39162Y-19437D01*
X39008Y-19373D01*
X38842Y-19373D01*
X38688Y-19436D01*
X38570Y-19554D01*
X38507Y-19707D01*
X38507Y-19874D01*
X38570Y-20027D01*
X38688Y-20145D01*
X38841Y-20209D01*
X39007Y-20209D01*
X39161Y-20146D01*
X39279Y-20028D01*
X39343Y-19874D01*
X39343Y-19708D01*
X39343Y-22460D01*
X38760Y-22460D01*
X38687Y-22490D01*
X38632Y-22545D01*
X38602Y-22618D01*
X38602Y-22696D01*
X38602Y-23159D01*
X38651Y-23208D01*
X39547Y-23208D01*
X39547Y-23287D01*
X38651Y-23287D01*
X38602Y-23336D01*
X38602Y-23799D01*
X38602Y-23877D01*
X38632Y-23950D01*
X38687Y-24005D01*
X38760Y-24035D01*
X39498Y-24035D01*
X39547Y-23986D01*
X39547Y-25090D01*
X38425Y-25090D01*
X38425Y-18870D01*
X38417Y-18673D01*
X38356Y-18526D01*
X38275Y-18496D01*
X38219Y-18552D01*
X38219Y-18441D01*
X38190Y-18359D01*
X38004Y-18291D01*
X37807Y-18298D01*
X37660Y-18359D01*
X37630Y-18441D01*
X37925Y-18735D01*
X38219Y-18441D01*
X38219Y-18552D01*
X37980Y-18791D01*
X38275Y-19085D01*
X38356Y-19056D01*
X38425Y-18870D01*
X38425Y-25090D01*
X38405Y-25090D01*
X38343Y-25028D01*
X38343Y-19708D01*
X38279Y-19554D01*
X38219Y-19494D01*
X38219Y-19141D01*
X37925Y-18847D01*
X37869Y-18902D01*
X37869Y-18791D01*
X37575Y-18496D01*
X37493Y-18526D01*
X37424Y-18711D01*
X37432Y-18909D01*
X37493Y-19056D01*
X37575Y-19085D01*
X37869Y-18791D01*
X37869Y-18902D01*
X37630Y-19141D01*
X37660Y-19223D01*
X37845Y-19291D01*
X38043Y-19284D01*
X38190Y-19223D01*
X38219Y-19141D01*
X38219Y-19494D01*
X38162Y-19437D01*
X38008Y-19373D01*
X37842Y-19373D01*
X37688Y-19436D01*
X37570Y-19554D01*
X37507Y-19707D01*
X37507Y-19874D01*
X37570Y-20027D01*
X37688Y-20145D01*
X37841Y-20209D01*
X38007Y-20209D01*
X38161Y-20146D01*
X38279Y-20028D01*
X38343Y-19874D01*
X38343Y-19708D01*
X38343Y-25028D01*
X38334Y-25019D01*
X38240Y-24980D01*
X38138Y-24980D01*
X38044Y-25019D01*
X37972Y-25091D01*
X37933Y-25185D01*
X37933Y-25286D01*
X37971Y-25380D01*
X38043Y-25453D01*
X38137Y-25492D01*
X38239Y-25492D01*
X38258Y-25484D01*
X40979Y-25484D01*
X40933Y-25530D01*
X40869Y-25684D01*
X40869Y-25850D01*
X40932Y-26004D01*
X41050Y-26121D01*
X41203Y-26185D01*
X41370Y-26185D01*
X41523Y-26122D01*
X41641Y-26004D01*
X41705Y-25851D01*
X41705Y-25684D01*
X41642Y-25531D01*
X41595Y-25484D01*
X41979Y-25484D01*
X41933Y-25530D01*
X41869Y-25684D01*
X41869Y-25850D01*
X41932Y-26004D01*
X42050Y-26121D01*
X42203Y-26185D01*
X42370Y-26185D01*
X42523Y-26122D01*
X42641Y-26004D01*
X42705Y-25851D01*
X42705Y-25684D01*
X42642Y-25531D01*
X42595Y-25484D01*
X43290Y-25484D01*
X43306Y-25523D01*
X43424Y-25641D01*
X43577Y-25705D01*
X43744Y-25705D01*
X43897Y-25642D01*
X44015Y-25524D01*
X44079Y-25370D01*
X44079Y-25204D01*
X44079Y-26204D01*
X44016Y-26050D01*
X43898Y-25933D01*
X43744Y-25869D01*
X43578Y-25869D01*
X43424Y-25932D01*
X43307Y-26050D01*
X43243Y-26203D01*
X43243Y-26370D01*
X43259Y-26410D01*
X42583Y-27086D01*
X42559Y-27086D01*
X42641Y-27004D01*
X42705Y-26851D01*
X42705Y-26684D01*
X42642Y-26531D01*
X42524Y-26413D01*
X42370Y-26349D01*
X42204Y-26349D01*
X42050Y-26413D01*
X41933Y-26530D01*
X41869Y-26684D01*
X41869Y-26850D01*
X41932Y-27004D01*
X42014Y-27086D01*
X41771Y-27086D01*
X41705Y-27099D01*
X41705Y-26684D01*
X41642Y-26531D01*
X41524Y-26413D01*
X41370Y-26349D01*
X41204Y-26349D01*
X41050Y-26413D01*
X40933Y-26530D01*
X40869Y-26684D01*
X40869Y-26850D01*
X40932Y-27004D01*
X41050Y-27121D01*
X41203Y-27185D01*
X41370Y-27185D01*
X41523Y-27122D01*
X41641Y-27004D01*
X41705Y-26851D01*
X41705Y-26684D01*
X41705Y-27099D01*
X41696Y-27101D01*
X41632Y-27144D01*
X41427Y-27349D01*
X40964Y-27349D01*
X40920Y-27367D01*
X40887Y-27400D01*
X40869Y-27444D01*
X40869Y-27491D01*
X40869Y-28091D01*
X40887Y-28134D01*
X40920Y-28167D01*
X40963Y-28185D01*
X41010Y-28185D01*
X41610Y-28185D01*
X41654Y-28167D01*
X41687Y-28134D01*
X41705Y-28091D01*
X41705Y-28044D01*
X41705Y-27627D01*
X41853Y-27480D01*
X41983Y-27480D01*
X41933Y-27530D01*
X41869Y-27684D01*
X41869Y-27850D01*
X41932Y-28004D01*
X42050Y-28121D01*
X42203Y-28185D01*
X42370Y-28185D01*
X42523Y-28122D01*
X42641Y-28004D01*
X42658Y-27964D01*
X43181Y-27964D01*
X43181Y-27964D01*
X43256Y-27949D01*
X43320Y-27906D01*
X43538Y-27688D01*
X43577Y-27705D01*
X43744Y-27705D01*
X43897Y-27642D01*
X44015Y-27524D01*
X44079Y-27370D01*
X44079Y-27204D01*
X44079Y-28277D01*
X40343Y-28277D01*
X40343Y-27661D01*
X40343Y-26661D01*
X40279Y-26507D01*
X40162Y-26389D01*
X40008Y-26326D01*
X39842Y-26325D01*
X39688Y-26389D01*
X39570Y-26506D01*
X39507Y-26660D01*
X39507Y-26826D01*
X39570Y-26980D01*
X39688Y-27098D01*
X39841Y-27162D01*
X40007Y-27162D01*
X40161Y-27098D01*
X40279Y-26981D01*
X40343Y-26827D01*
X40343Y-26661D01*
X40343Y-27661D01*
X40279Y-27507D01*
X40162Y-27389D01*
X40008Y-27326D01*
X39842Y-27325D01*
X39790Y-27347D01*
X39548Y-27104D01*
X39484Y-27062D01*
X39409Y-27047D01*
X39213Y-27047D01*
X39279Y-26981D01*
X39343Y-26827D01*
X39343Y-26661D01*
X39279Y-26507D01*
X39162Y-26389D01*
X39008Y-26326D01*
X38842Y-26325D01*
X38688Y-26389D01*
X38570Y-26506D01*
X38507Y-26660D01*
X38507Y-26826D01*
X38570Y-26980D01*
X38637Y-27047D01*
X38213Y-27047D01*
X38279Y-26981D01*
X38343Y-26827D01*
X38343Y-26661D01*
X38279Y-26507D01*
X38162Y-26389D01*
X38008Y-26326D01*
X37842Y-26325D01*
X37688Y-26389D01*
X37570Y-26506D01*
X37507Y-26660D01*
X37507Y-26826D01*
X37570Y-26980D01*
X37637Y-27047D01*
X37606Y-27047D01*
X37586Y-27027D01*
X37492Y-26988D01*
X37422Y-26988D01*
X37422Y-26483D01*
X37422Y-26404D01*
X37391Y-26332D01*
X37343Y-26283D01*
X37343Y-19708D01*
X37343Y-18708D01*
X37279Y-18554D01*
X37162Y-18437D01*
X37008Y-18373D01*
X36842Y-18373D01*
X36688Y-18436D01*
X36570Y-18554D01*
X36507Y-18707D01*
X36507Y-18874D01*
X36570Y-19027D01*
X36688Y-19145D01*
X36841Y-19209D01*
X37007Y-19209D01*
X37161Y-19146D01*
X37279Y-19028D01*
X37343Y-18874D01*
X37343Y-18708D01*
X37343Y-19708D01*
X37279Y-19554D01*
X37162Y-19437D01*
X37008Y-19373D01*
X36842Y-19373D01*
X36688Y-19436D01*
X36570Y-19554D01*
X36507Y-19707D01*
X36507Y-19874D01*
X36570Y-20027D01*
X36688Y-20145D01*
X36841Y-20209D01*
X37007Y-20209D01*
X37161Y-20146D01*
X37279Y-20028D01*
X37343Y-19874D01*
X37343Y-19708D01*
X37343Y-26283D01*
X37336Y-26277D01*
X37264Y-26247D01*
X37013Y-26247D01*
X36964Y-26296D01*
X36964Y-26704D01*
X37372Y-26704D01*
X37422Y-26655D01*
X37422Y-26483D01*
X37422Y-26988D01*
X37422Y-26988D01*
X37422Y-26832D01*
X37372Y-26783D01*
X36964Y-26783D01*
X36964Y-27191D01*
X37013Y-27240D01*
X37185Y-27240D01*
X37184Y-27294D01*
X37223Y-27388D01*
X37295Y-27460D01*
X37389Y-27499D01*
X37491Y-27500D01*
X37585Y-27461D01*
X37605Y-27440D01*
X37637Y-27440D01*
X37570Y-27506D01*
X37507Y-27660D01*
X37507Y-27826D01*
X37570Y-27980D01*
X37688Y-28098D01*
X37841Y-28162D01*
X38007Y-28162D01*
X38161Y-28098D01*
X38279Y-27981D01*
X38343Y-27827D01*
X38343Y-27661D01*
X38279Y-27507D01*
X38213Y-27440D01*
X38637Y-27440D01*
X38570Y-27506D01*
X38507Y-27660D01*
X38507Y-27826D01*
X38570Y-27980D01*
X38688Y-28098D01*
X38841Y-28162D01*
X39007Y-28162D01*
X39161Y-28098D01*
X39279Y-27981D01*
X39343Y-27827D01*
X39343Y-27661D01*
X39279Y-27507D01*
X39213Y-27440D01*
X39327Y-27440D01*
X39519Y-27632D01*
X39507Y-27660D01*
X39507Y-27826D01*
X39570Y-27980D01*
X39688Y-28098D01*
X39841Y-28162D01*
X40007Y-28162D01*
X40161Y-28098D01*
X40279Y-27981D01*
X40343Y-27827D01*
X40343Y-27661D01*
X40343Y-28277D01*
X37343Y-28277D01*
X37343Y-27661D01*
X37279Y-27507D01*
X37162Y-27389D01*
X37008Y-27326D01*
X36885Y-27325D01*
X36885Y-27191D01*
X36885Y-26783D01*
X36885Y-26704D01*
X36885Y-26296D01*
X36836Y-26247D01*
X36586Y-26247D01*
X36513Y-26277D01*
X36458Y-26332D01*
X36428Y-26404D01*
X36428Y-26483D01*
X36428Y-26655D01*
X36477Y-26704D01*
X36885Y-26704D01*
X36885Y-26783D01*
X36477Y-26783D01*
X36428Y-26832D01*
X36428Y-27005D01*
X36428Y-27083D01*
X36458Y-27155D01*
X36513Y-27211D01*
X36586Y-27240D01*
X36836Y-27240D01*
X36885Y-27191D01*
X36885Y-27325D01*
X36842Y-27325D01*
X36688Y-27389D01*
X36570Y-27506D01*
X36507Y-27660D01*
X36507Y-27826D01*
X36570Y-27980D01*
X36688Y-28098D01*
X36841Y-28162D01*
X37007Y-28162D01*
X37161Y-28098D01*
X37279Y-27981D01*
X37343Y-27827D01*
X37343Y-27661D01*
X37343Y-28277D01*
X35445Y-28277D01*
X35445Y-27141D01*
X35306Y-26803D01*
X35248Y-26745D01*
X35248Y-19090D01*
X35185Y-18936D01*
X35067Y-18818D01*
X34914Y-18755D01*
X34747Y-18755D01*
X34594Y-18818D01*
X34476Y-18936D01*
X34412Y-19089D01*
X34412Y-19256D01*
X34476Y-19409D01*
X34593Y-19527D01*
X34747Y-19591D01*
X34913Y-19591D01*
X35067Y-19527D01*
X35184Y-19410D01*
X35248Y-19256D01*
X35248Y-19090D01*
X35248Y-26745D01*
X35216Y-26713D01*
X35216Y-23965D01*
X35177Y-23870D01*
X35157Y-23850D01*
X35157Y-23078D01*
X35177Y-23058D01*
X35216Y-22964D01*
X35216Y-22862D01*
X35177Y-22768D01*
X35105Y-22696D01*
X35011Y-22657D01*
X34909Y-22657D01*
X34815Y-22696D01*
X34763Y-22748D01*
X34712Y-22696D01*
X34618Y-22657D01*
X34516Y-22657D01*
X34422Y-22696D01*
X34350Y-22768D01*
X34327Y-22822D01*
X34327Y-19434D01*
X34327Y-18912D01*
X34327Y-18833D01*
X34297Y-18761D01*
X34242Y-18706D01*
X34169Y-18676D01*
X33919Y-18676D01*
X33870Y-18725D01*
X33870Y-19133D01*
X34278Y-19133D01*
X34327Y-19084D01*
X34327Y-18912D01*
X34327Y-19434D01*
X34327Y-19261D01*
X34278Y-19212D01*
X33870Y-19212D01*
X33870Y-19620D01*
X33919Y-19670D01*
X34169Y-19670D01*
X34242Y-19640D01*
X34297Y-19584D01*
X34327Y-19512D01*
X34327Y-19434D01*
X34327Y-22822D01*
X34311Y-22862D01*
X34310Y-22964D01*
X34349Y-23058D01*
X34370Y-23078D01*
X34370Y-23850D01*
X34350Y-23870D01*
X34311Y-23964D01*
X34310Y-24066D01*
X34349Y-24160D01*
X34421Y-24232D01*
X34515Y-24271D01*
X34617Y-24271D01*
X34711Y-24232D01*
X34763Y-24180D01*
X34815Y-24232D01*
X34909Y-24271D01*
X35011Y-24271D01*
X35105Y-24232D01*
X35177Y-24160D01*
X35216Y-24066D01*
X35216Y-23965D01*
X35216Y-26713D01*
X35048Y-26544D01*
X34710Y-26404D01*
X34345Y-26404D01*
X34008Y-26544D01*
X33791Y-26760D01*
X33791Y-19620D01*
X33791Y-19212D01*
X33791Y-19133D01*
X33791Y-18725D01*
X33742Y-18676D01*
X33491Y-18676D01*
X33419Y-18706D01*
X33363Y-18761D01*
X33333Y-18833D01*
X33333Y-18912D01*
X33333Y-19084D01*
X33383Y-19133D01*
X33791Y-19133D01*
X33791Y-19212D01*
X33383Y-19212D01*
X33333Y-19261D01*
X33333Y-19434D01*
X33333Y-19512D01*
X33363Y-19584D01*
X33419Y-19640D01*
X33491Y-19670D01*
X33742Y-19670D01*
X33791Y-19620D01*
X33791Y-26760D01*
X33749Y-26802D01*
X33609Y-27139D01*
X33609Y-27504D01*
X33748Y-27842D01*
X34006Y-28100D01*
X34344Y-28240D01*
X34709Y-28241D01*
X35046Y-28101D01*
X35305Y-27843D01*
X35445Y-27506D01*
X35445Y-27141D01*
X35445Y-28277D01*
X33208Y-28277D01*
X33208Y-23815D01*
X33208Y-22634D01*
X33190Y-22590D01*
X33157Y-22557D01*
X33114Y-22539D01*
X33067Y-22539D01*
X32500Y-22539D01*
X32500Y-21407D01*
X32485Y-21332D01*
X32442Y-21268D01*
X32442Y-21268D01*
X32103Y-20929D01*
X32103Y-20052D01*
X32103Y-19530D01*
X32103Y-19452D01*
X32073Y-19379D01*
X32024Y-19331D01*
X32024Y-18708D01*
X31960Y-18554D01*
X31843Y-18437D01*
X31689Y-18373D01*
X31523Y-18373D01*
X31369Y-18436D01*
X31252Y-18554D01*
X31188Y-18707D01*
X31188Y-18874D01*
X31251Y-19027D01*
X31369Y-19145D01*
X31522Y-19209D01*
X31689Y-19209D01*
X31842Y-19146D01*
X31960Y-19028D01*
X32024Y-18874D01*
X32024Y-18708D01*
X32024Y-19331D01*
X32017Y-19324D01*
X31945Y-19294D01*
X31694Y-19294D01*
X31645Y-19343D01*
X31645Y-19751D01*
X32053Y-19751D01*
X32103Y-19702D01*
X32103Y-19530D01*
X32103Y-20052D01*
X32103Y-19879D01*
X32053Y-19830D01*
X31645Y-19830D01*
X31645Y-20238D01*
X31694Y-20288D01*
X31945Y-20288D01*
X32017Y-20258D01*
X32073Y-20202D01*
X32103Y-20130D01*
X32103Y-20052D01*
X32103Y-20929D01*
X31960Y-20786D01*
X31896Y-20743D01*
X31820Y-20728D01*
X31566Y-20728D01*
X31566Y-20238D01*
X31566Y-19830D01*
X31566Y-19751D01*
X31566Y-19343D01*
X31517Y-19294D01*
X31267Y-19294D01*
X31194Y-19324D01*
X31139Y-19379D01*
X31109Y-19452D01*
X31109Y-19530D01*
X31109Y-19702D01*
X31158Y-19751D01*
X31566Y-19751D01*
X31566Y-19830D01*
X31158Y-19830D01*
X31109Y-19879D01*
X31109Y-20052D01*
X31109Y-20130D01*
X31139Y-20202D01*
X31194Y-20258D01*
X31267Y-20288D01*
X31517Y-20288D01*
X31566Y-20238D01*
X31566Y-20728D01*
X31024Y-20728D01*
X31024Y-19708D01*
X31024Y-18708D01*
X30960Y-18554D01*
X30843Y-18437D01*
X30689Y-18373D01*
X30523Y-18373D01*
X30369Y-18436D01*
X30252Y-18554D01*
X30188Y-18707D01*
X30188Y-18874D01*
X30202Y-18908D01*
X30036Y-19074D01*
X29914Y-19074D01*
X29960Y-19028D01*
X30024Y-18874D01*
X30024Y-18708D01*
X29960Y-18554D01*
X29843Y-18437D01*
X29689Y-18373D01*
X29523Y-18373D01*
X29369Y-18436D01*
X29252Y-18554D01*
X29188Y-18707D01*
X29188Y-18874D01*
X29251Y-19027D01*
X29298Y-19074D01*
X28914Y-19074D01*
X28960Y-19028D01*
X29024Y-18874D01*
X29024Y-18708D01*
X28960Y-18554D01*
X28843Y-18437D01*
X28689Y-18373D01*
X28523Y-18373D01*
X28369Y-18436D01*
X28252Y-18554D01*
X28188Y-18707D01*
X28188Y-18874D01*
X28251Y-19027D01*
X28298Y-19074D01*
X27914Y-19074D01*
X27960Y-19028D01*
X28024Y-18874D01*
X28024Y-18708D01*
X27960Y-18554D01*
X27843Y-18437D01*
X27689Y-18373D01*
X27523Y-18373D01*
X27369Y-18436D01*
X27252Y-18554D01*
X27188Y-18707D01*
X27188Y-18874D01*
X27246Y-19015D01*
X27203Y-19015D01*
X27109Y-19054D01*
X27037Y-19126D01*
X26998Y-19220D01*
X26997Y-19322D01*
X27036Y-19416D01*
X27108Y-19488D01*
X27202Y-19527D01*
X27278Y-19527D01*
X27252Y-19554D01*
X27188Y-19707D01*
X27188Y-19874D01*
X27251Y-20027D01*
X27369Y-20145D01*
X27522Y-20209D01*
X27689Y-20209D01*
X27842Y-20146D01*
X27960Y-20028D01*
X28024Y-19874D01*
X28024Y-19708D01*
X27960Y-19554D01*
X27874Y-19468D01*
X28337Y-19468D01*
X28252Y-19554D01*
X28188Y-19707D01*
X28188Y-19874D01*
X28251Y-20027D01*
X28369Y-20145D01*
X28522Y-20209D01*
X28689Y-20209D01*
X28842Y-20146D01*
X28960Y-20028D01*
X29024Y-19874D01*
X29024Y-19708D01*
X28960Y-19554D01*
X28874Y-19468D01*
X29337Y-19468D01*
X29252Y-19554D01*
X29188Y-19707D01*
X29188Y-19874D01*
X29251Y-20027D01*
X29369Y-20145D01*
X29522Y-20209D01*
X29689Y-20209D01*
X29842Y-20146D01*
X29960Y-20028D01*
X30024Y-19874D01*
X30024Y-19708D01*
X29960Y-19554D01*
X29874Y-19468D01*
X30068Y-19468D01*
X30118Y-19468D01*
X30118Y-19468D01*
X30193Y-19453D01*
X30257Y-19410D01*
X30477Y-19190D01*
X30522Y-19209D01*
X30689Y-19209D01*
X30842Y-19146D01*
X30960Y-19028D01*
X31024Y-18874D01*
X31024Y-18708D01*
X31024Y-19708D01*
X30960Y-19554D01*
X30843Y-19437D01*
X30689Y-19373D01*
X30523Y-19373D01*
X30369Y-19436D01*
X30252Y-19554D01*
X30188Y-19707D01*
X30188Y-19874D01*
X30251Y-20027D01*
X30369Y-20145D01*
X30522Y-20209D01*
X30689Y-20209D01*
X30842Y-20146D01*
X30960Y-20028D01*
X31024Y-19874D01*
X31024Y-19708D01*
X31024Y-20728D01*
X27522Y-20728D01*
X26784Y-19990D01*
X26784Y-19106D01*
X26784Y-18428D01*
X26754Y-18356D01*
X26699Y-18300D01*
X26626Y-18270D01*
X26548Y-18270D01*
X26375Y-18270D01*
X26326Y-18320D01*
X26326Y-18728D01*
X26735Y-18728D01*
X26784Y-18679D01*
X26784Y-18428D01*
X26784Y-19106D01*
X26784Y-18856D01*
X26735Y-18807D01*
X26326Y-18807D01*
X26326Y-19215D01*
X26375Y-19264D01*
X26548Y-19264D01*
X26626Y-19264D01*
X26699Y-19234D01*
X26754Y-19179D01*
X26784Y-19106D01*
X26784Y-19990D01*
X26687Y-19893D01*
X26705Y-19851D01*
X26705Y-19684D01*
X26642Y-19531D01*
X26524Y-19413D01*
X26370Y-19349D01*
X26248Y-19349D01*
X26248Y-19215D01*
X26248Y-18807D01*
X26248Y-18728D01*
X26248Y-18320D01*
X26198Y-18270D01*
X26026Y-18270D01*
X25948Y-18270D01*
X25875Y-18300D01*
X25820Y-18356D01*
X25790Y-18428D01*
X25790Y-18679D01*
X25839Y-18728D01*
X26248Y-18728D01*
X26248Y-18807D01*
X25839Y-18807D01*
X25790Y-18856D01*
X25790Y-19106D01*
X25820Y-19179D01*
X25875Y-19234D01*
X25948Y-19264D01*
X26026Y-19264D01*
X26198Y-19264D01*
X26248Y-19215D01*
X26248Y-19349D01*
X26204Y-19349D01*
X26050Y-19413D01*
X25933Y-19530D01*
X25869Y-19684D01*
X25869Y-19850D01*
X25932Y-20004D01*
X26050Y-20121D01*
X26203Y-20185D01*
X26370Y-20185D01*
X26407Y-20170D01*
X27301Y-21064D01*
X27301Y-21064D01*
X27365Y-21107D01*
X27440Y-21122D01*
X27440Y-21122D01*
X31739Y-21122D01*
X32106Y-21489D01*
X32106Y-22539D01*
X31492Y-22539D01*
X31448Y-22557D01*
X31415Y-22590D01*
X31397Y-22633D01*
X31397Y-22680D01*
X31397Y-23861D01*
X31415Y-23905D01*
X31448Y-23938D01*
X31492Y-23956D01*
X31539Y-23956D01*
X33113Y-23956D01*
X33157Y-23938D01*
X33190Y-23905D01*
X33208Y-23862D01*
X33208Y-23815D01*
X33208Y-28277D01*
X32103Y-28277D01*
X32103Y-27700D01*
X32103Y-26700D01*
X32039Y-26546D01*
X31922Y-26429D01*
X31784Y-26372D01*
X31791Y-26365D01*
X31830Y-26271D01*
X31830Y-26169D01*
X31791Y-26075D01*
X31719Y-26003D01*
X31625Y-25964D01*
X31524Y-25964D01*
X31430Y-26003D01*
X31409Y-26023D01*
X31338Y-26023D01*
X31338Y-25224D01*
X31299Y-25130D01*
X31279Y-25110D01*
X31279Y-23571D01*
X31240Y-23477D01*
X31168Y-23405D01*
X31074Y-23366D01*
X30972Y-23366D01*
X30878Y-23404D01*
X30858Y-23425D01*
X30558Y-23425D01*
X30538Y-23405D01*
X30444Y-23366D01*
X30343Y-23366D01*
X30248Y-23404D01*
X30176Y-23476D01*
X30137Y-23570D01*
X30137Y-23672D01*
X30176Y-23766D01*
X30248Y-23838D01*
X30342Y-23877D01*
X30444Y-23877D01*
X30538Y-23839D01*
X30558Y-23818D01*
X30858Y-23818D01*
X30878Y-23838D01*
X30972Y-23877D01*
X31074Y-23877D01*
X31168Y-23839D01*
X31240Y-23767D01*
X31279Y-23673D01*
X31279Y-23571D01*
X31279Y-25110D01*
X31227Y-25058D01*
X31133Y-25019D01*
X31031Y-25019D01*
X30937Y-25058D01*
X30917Y-25078D01*
X30829Y-25078D01*
X30336Y-24585D01*
X30272Y-24542D01*
X30196Y-24527D01*
X29545Y-24527D01*
X29545Y-22737D01*
X29500Y-22629D01*
X29448Y-22577D01*
X29448Y-22304D01*
X29500Y-22252D01*
X29545Y-22145D01*
X29545Y-22028D01*
X29500Y-21920D01*
X29418Y-21838D01*
X29342Y-21806D01*
X29350Y-21798D01*
X29389Y-21704D01*
X29389Y-21602D01*
X29350Y-21508D01*
X29279Y-21436D01*
X29184Y-21397D01*
X29083Y-21397D01*
X28989Y-21436D01*
X28917Y-21508D01*
X28877Y-21602D01*
X28877Y-21631D01*
X28719Y-21789D01*
X28676Y-21853D01*
X28661Y-21929D01*
X28661Y-24047D01*
X28641Y-24067D01*
X28602Y-24161D01*
X28602Y-24263D01*
X28641Y-24357D01*
X28713Y-24429D01*
X28807Y-24468D01*
X28908Y-24468D01*
X29003Y-24429D01*
X29075Y-24357D01*
X29114Y-24263D01*
X29114Y-24161D01*
X29075Y-24067D01*
X29055Y-24047D01*
X29055Y-23012D01*
X29085Y-23043D01*
X29193Y-23088D01*
X29310Y-23088D01*
X29417Y-23043D01*
X29500Y-22961D01*
X29545Y-22853D01*
X29545Y-22737D01*
X29545Y-24527D01*
X28560Y-24527D01*
X28540Y-24507D01*
X28446Y-24468D01*
X28344Y-24468D01*
X28250Y-24507D01*
X28178Y-24579D01*
X28139Y-24673D01*
X28139Y-24775D01*
X28178Y-24869D01*
X28250Y-24941D01*
X28344Y-24980D01*
X28446Y-24980D01*
X28540Y-24941D01*
X28560Y-24921D01*
X30115Y-24921D01*
X30608Y-25414D01*
X30608Y-25414D01*
X30634Y-25431D01*
X30672Y-25457D01*
X30748Y-25472D01*
X30748Y-25472D01*
X30917Y-25472D01*
X30937Y-25492D01*
X31031Y-25531D01*
X31133Y-25531D01*
X31227Y-25492D01*
X31299Y-25420D01*
X31338Y-25326D01*
X31338Y-25224D01*
X31338Y-26023D01*
X30255Y-26023D01*
X30255Y-25303D01*
X30217Y-25209D01*
X30145Y-25137D01*
X30051Y-25098D01*
X29949Y-25098D01*
X29855Y-25137D01*
X29834Y-25157D01*
X29212Y-25157D01*
X29137Y-25172D01*
X29073Y-25215D01*
X28796Y-25492D01*
X28768Y-25492D01*
X28674Y-25530D01*
X28602Y-25602D01*
X28563Y-25696D01*
X28562Y-25798D01*
X28601Y-25892D01*
X28673Y-25964D01*
X28767Y-26003D01*
X28869Y-26003D01*
X28963Y-25965D01*
X29035Y-25893D01*
X29074Y-25799D01*
X29074Y-25770D01*
X29294Y-25551D01*
X29834Y-25551D01*
X29854Y-25571D01*
X29948Y-25610D01*
X30050Y-25610D01*
X30144Y-25571D01*
X30216Y-25499D01*
X30255Y-25405D01*
X30255Y-25303D01*
X30255Y-26023D01*
X28511Y-26023D01*
X28491Y-26003D01*
X28397Y-25964D01*
X28295Y-25964D01*
X28201Y-26003D01*
X28129Y-26075D01*
X28090Y-26169D01*
X28090Y-26271D01*
X28118Y-26338D01*
X28096Y-26316D01*
X28024Y-26286D01*
X27773Y-26286D01*
X27724Y-26335D01*
X27724Y-26744D01*
X28132Y-26744D01*
X28181Y-26694D01*
X28181Y-26522D01*
X28181Y-26444D01*
X28163Y-26399D01*
X28201Y-26437D01*
X28295Y-26476D01*
X28397Y-26476D01*
X28403Y-26473D01*
X28330Y-26546D01*
X28267Y-26699D01*
X28266Y-26866D01*
X28330Y-27019D01*
X28447Y-27137D01*
X28601Y-27201D01*
X28767Y-27201D01*
X28921Y-27138D01*
X29039Y-27020D01*
X29103Y-26866D01*
X29103Y-26700D01*
X29039Y-26546D01*
X28922Y-26429D01*
X28893Y-26417D01*
X29476Y-26417D01*
X29448Y-26428D01*
X29330Y-26546D01*
X29267Y-26699D01*
X29266Y-26866D01*
X29330Y-27019D01*
X29447Y-27137D01*
X29601Y-27201D01*
X29767Y-27201D01*
X29921Y-27138D01*
X30039Y-27020D01*
X30103Y-26866D01*
X30103Y-26700D01*
X30039Y-26546D01*
X29922Y-26429D01*
X29893Y-26417D01*
X30476Y-26417D01*
X30448Y-26428D01*
X30330Y-26546D01*
X30267Y-26699D01*
X30266Y-26866D01*
X30330Y-27019D01*
X30447Y-27137D01*
X30601Y-27201D01*
X30767Y-27201D01*
X30921Y-27138D01*
X31039Y-27020D01*
X31103Y-26866D01*
X31103Y-26700D01*
X31039Y-26546D01*
X30922Y-26429D01*
X30893Y-26417D01*
X31409Y-26417D01*
X31429Y-26437D01*
X31436Y-26440D01*
X31330Y-26546D01*
X31267Y-26699D01*
X31266Y-26866D01*
X31330Y-27019D01*
X31447Y-27137D01*
X31601Y-27201D01*
X31767Y-27201D01*
X31921Y-27138D01*
X32039Y-27020D01*
X32103Y-26866D01*
X32103Y-26700D01*
X32103Y-27700D01*
X32039Y-27546D01*
X31922Y-27429D01*
X31768Y-27365D01*
X31602Y-27365D01*
X31448Y-27428D01*
X31330Y-27546D01*
X31267Y-27699D01*
X31266Y-27866D01*
X31330Y-28019D01*
X31447Y-28137D01*
X31601Y-28201D01*
X31767Y-28201D01*
X31921Y-28138D01*
X32039Y-28020D01*
X32103Y-27866D01*
X32103Y-27700D01*
X32103Y-28277D01*
X31103Y-28277D01*
X31103Y-27700D01*
X31039Y-27546D01*
X30922Y-27429D01*
X30768Y-27365D01*
X30602Y-27365D01*
X30448Y-27428D01*
X30330Y-27546D01*
X30267Y-27699D01*
X30266Y-27866D01*
X30330Y-28019D01*
X30447Y-28137D01*
X30601Y-28201D01*
X30767Y-28201D01*
X30921Y-28138D01*
X31039Y-28020D01*
X31103Y-27866D01*
X31103Y-27700D01*
X31103Y-28277D01*
X30103Y-28277D01*
X30103Y-27700D01*
X30039Y-27546D01*
X29922Y-27429D01*
X29768Y-27365D01*
X29602Y-27365D01*
X29448Y-27428D01*
X29330Y-27546D01*
X29267Y-27699D01*
X29266Y-27866D01*
X29330Y-28019D01*
X29447Y-28137D01*
X29601Y-28201D01*
X29767Y-28201D01*
X29921Y-28138D01*
X30039Y-28020D01*
X30103Y-27866D01*
X30103Y-27700D01*
X30103Y-28277D01*
X29103Y-28277D01*
X29103Y-27700D01*
X29039Y-27546D01*
X28922Y-27429D01*
X28768Y-27365D01*
X28602Y-27365D01*
X28561Y-27381D01*
X28314Y-27134D01*
X28250Y-27091D01*
X28181Y-27078D01*
X28181Y-27044D01*
X28181Y-26872D01*
X28132Y-26822D01*
X27724Y-26822D01*
X27724Y-26830D01*
X27645Y-26830D01*
X27645Y-26822D01*
X27645Y-26744D01*
X27645Y-26335D01*
X27596Y-26286D01*
X27346Y-26286D01*
X27273Y-26316D01*
X27218Y-26371D01*
X27188Y-26444D01*
X27188Y-26522D01*
X27188Y-26694D01*
X27237Y-26744D01*
X27645Y-26744D01*
X27645Y-26822D01*
X27237Y-26822D01*
X27188Y-26872D01*
X27188Y-27044D01*
X27188Y-27076D01*
X26569Y-27076D01*
X26641Y-27004D01*
X26705Y-26851D01*
X26705Y-26684D01*
X26642Y-26531D01*
X26524Y-26413D01*
X26370Y-26349D01*
X26204Y-26349D01*
X26050Y-26413D01*
X25984Y-26479D01*
X25984Y-26055D01*
X26050Y-26121D01*
X26203Y-26185D01*
X26370Y-26185D01*
X26523Y-26122D01*
X26641Y-26004D01*
X26705Y-25851D01*
X26705Y-25684D01*
X26642Y-25531D01*
X26524Y-25413D01*
X26370Y-25349D01*
X26204Y-25349D01*
X26050Y-25413D01*
X25984Y-25479D01*
X25984Y-25055D01*
X26050Y-25121D01*
X26203Y-25185D01*
X26370Y-25185D01*
X26523Y-25122D01*
X26641Y-25004D01*
X26705Y-24851D01*
X26705Y-24684D01*
X26642Y-24531D01*
X26524Y-24413D01*
X26370Y-24349D01*
X26204Y-24349D01*
X26050Y-24413D01*
X25984Y-24479D01*
X25984Y-24055D01*
X26050Y-24121D01*
X26203Y-24185D01*
X26370Y-24185D01*
X26523Y-24122D01*
X26641Y-24004D01*
X26705Y-23851D01*
X26705Y-23684D01*
X26642Y-23531D01*
X26524Y-23413D01*
X26370Y-23349D01*
X26204Y-23349D01*
X26050Y-23413D01*
X25984Y-23479D01*
X25984Y-23359D01*
X26171Y-23172D01*
X26203Y-23185D01*
X26370Y-23185D01*
X26523Y-23122D01*
X26641Y-23004D01*
X26705Y-22851D01*
X26705Y-22684D01*
X26705Y-21684D01*
X26705Y-20684D01*
X26642Y-20531D01*
X26524Y-20413D01*
X26370Y-20349D01*
X26204Y-20349D01*
X26050Y-20413D01*
X25933Y-20530D01*
X25869Y-20684D01*
X25869Y-20850D01*
X25932Y-21004D01*
X26050Y-21121D01*
X26203Y-21185D01*
X26370Y-21185D01*
X26523Y-21122D01*
X26641Y-21004D01*
X26705Y-20851D01*
X26705Y-20684D01*
X26705Y-21684D01*
X26642Y-21531D01*
X26524Y-21413D01*
X26370Y-21349D01*
X26204Y-21349D01*
X26050Y-21413D01*
X25933Y-21530D01*
X25869Y-21684D01*
X25869Y-21850D01*
X25932Y-22004D01*
X26050Y-22121D01*
X26203Y-22185D01*
X26370Y-22185D01*
X26523Y-22122D01*
X26641Y-22004D01*
X26705Y-21851D01*
X26705Y-21684D01*
X26705Y-22684D01*
X26642Y-22531D01*
X26524Y-22413D01*
X26370Y-22349D01*
X26204Y-22349D01*
X26050Y-22413D01*
X25933Y-22530D01*
X25869Y-22684D01*
X25869Y-22850D01*
X25888Y-22897D01*
X25705Y-23080D01*
X25705Y-22684D01*
X25705Y-21684D01*
X25705Y-20684D01*
X25705Y-19684D01*
X25705Y-18684D01*
X25642Y-18531D01*
X25524Y-18413D01*
X25370Y-18349D01*
X25204Y-18349D01*
X25050Y-18413D01*
X24933Y-18530D01*
X24869Y-18684D01*
X24869Y-18850D01*
X24932Y-19004D01*
X25050Y-19121D01*
X25203Y-19185D01*
X25370Y-19185D01*
X25523Y-19122D01*
X25641Y-19004D01*
X25705Y-18851D01*
X25705Y-18684D01*
X25705Y-19684D01*
X25642Y-19531D01*
X25524Y-19413D01*
X25370Y-19349D01*
X25204Y-19349D01*
X25050Y-19413D01*
X24933Y-19530D01*
X24869Y-19684D01*
X24869Y-19850D01*
X24932Y-20004D01*
X25050Y-20121D01*
X25203Y-20185D01*
X25370Y-20185D01*
X25523Y-20122D01*
X25641Y-20004D01*
X25705Y-19851D01*
X25705Y-19684D01*
X25705Y-20684D01*
X25642Y-20531D01*
X25524Y-20413D01*
X25370Y-20349D01*
X25204Y-20349D01*
X25050Y-20413D01*
X24933Y-20530D01*
X24869Y-20684D01*
X24869Y-20850D01*
X24932Y-21004D01*
X25050Y-21121D01*
X25203Y-21185D01*
X25370Y-21185D01*
X25523Y-21122D01*
X25641Y-21004D01*
X25705Y-20851D01*
X25705Y-20684D01*
X25705Y-21684D01*
X25642Y-21531D01*
X25524Y-21413D01*
X25370Y-21349D01*
X25204Y-21349D01*
X25050Y-21413D01*
X24933Y-21530D01*
X24869Y-21684D01*
X24869Y-21850D01*
X24932Y-22004D01*
X25050Y-22121D01*
X25203Y-22185D01*
X25370Y-22185D01*
X25523Y-22122D01*
X25641Y-22004D01*
X25705Y-21851D01*
X25705Y-21684D01*
X25705Y-22684D01*
X25642Y-22531D01*
X25524Y-22413D01*
X25370Y-22349D01*
X25204Y-22349D01*
X25050Y-22413D01*
X24933Y-22530D01*
X24869Y-22684D01*
X24869Y-22850D01*
X24932Y-23004D01*
X25050Y-23121D01*
X25203Y-23185D01*
X25370Y-23185D01*
X25523Y-23122D01*
X25641Y-23004D01*
X25705Y-22851D01*
X25705Y-22684D01*
X25705Y-23080D01*
X25648Y-23138D01*
X25605Y-23202D01*
X25590Y-23277D01*
X25590Y-23479D01*
X25524Y-23413D01*
X25370Y-23349D01*
X25204Y-23349D01*
X25050Y-23413D01*
X24933Y-23530D01*
X24869Y-23684D01*
X24869Y-23850D01*
X24932Y-24004D01*
X25050Y-24121D01*
X25203Y-24185D01*
X25370Y-24185D01*
X25523Y-24122D01*
X25590Y-24055D01*
X25590Y-24479D01*
X25524Y-24413D01*
X25370Y-24349D01*
X25204Y-24349D01*
X25050Y-24413D01*
X24933Y-24530D01*
X24869Y-24684D01*
X24869Y-24850D01*
X24932Y-25004D01*
X25050Y-25121D01*
X25203Y-25185D01*
X25370Y-25185D01*
X25523Y-25122D01*
X25590Y-25055D01*
X25590Y-25479D01*
X25524Y-25413D01*
X25370Y-25349D01*
X25204Y-25349D01*
X25050Y-25413D01*
X24933Y-25530D01*
X24869Y-25684D01*
X24869Y-25850D01*
X24932Y-26004D01*
X25050Y-26121D01*
X25203Y-26185D01*
X25370Y-26185D01*
X25523Y-26122D01*
X25590Y-26055D01*
X25590Y-26479D01*
X25524Y-26413D01*
X25370Y-26349D01*
X25204Y-26349D01*
X25050Y-26413D01*
X24933Y-26530D01*
X24869Y-26684D01*
X24869Y-26850D01*
X24932Y-27004D01*
X25050Y-27121D01*
X25203Y-27185D01*
X25370Y-27185D01*
X25523Y-27122D01*
X25603Y-27043D01*
X25605Y-27053D01*
X25648Y-27117D01*
X25943Y-27412D01*
X25943Y-27412D01*
X26007Y-27455D01*
X26008Y-27455D01*
X25933Y-27530D01*
X25869Y-27684D01*
X25869Y-27850D01*
X25932Y-28004D01*
X26050Y-28121D01*
X26203Y-28185D01*
X26370Y-28185D01*
X26523Y-28122D01*
X26641Y-28004D01*
X26705Y-27851D01*
X26705Y-27684D01*
X26642Y-27531D01*
X26581Y-27470D01*
X27406Y-27470D01*
X27330Y-27546D01*
X27267Y-27699D01*
X27266Y-27866D01*
X27330Y-28019D01*
X27447Y-28137D01*
X27601Y-28201D01*
X27767Y-28201D01*
X27921Y-28138D01*
X28039Y-28020D01*
X28103Y-27866D01*
X28103Y-27700D01*
X28039Y-27546D01*
X27963Y-27470D01*
X28093Y-27470D01*
X28283Y-27660D01*
X28267Y-27699D01*
X28266Y-27866D01*
X28330Y-28019D01*
X28447Y-28137D01*
X28601Y-28201D01*
X28767Y-28201D01*
X28921Y-28138D01*
X29039Y-28020D01*
X29103Y-27866D01*
X29103Y-27700D01*
X29103Y-28277D01*
X25705Y-28277D01*
X25705Y-27684D01*
X25642Y-27531D01*
X25524Y-27413D01*
X25370Y-27349D01*
X25204Y-27349D01*
X25050Y-27413D01*
X24933Y-27530D01*
X24869Y-27684D01*
X24869Y-27850D01*
X24932Y-28004D01*
X25050Y-28121D01*
X25203Y-28185D01*
X25370Y-28185D01*
X25523Y-28122D01*
X25641Y-28004D01*
X25705Y-27851D01*
X25705Y-27684D01*
X25705Y-28277D01*
X24793Y-28277D01*
X24793Y-18257D01*
X40164Y-18257D01*
X40037Y-18385D01*
X40008Y-18373D01*
X39842Y-18373D01*
X39688Y-18436D01*
X39570Y-18554D01*
X39507Y-18707D01*
X39507Y-18874D01*
X39570Y-19027D01*
X39688Y-19145D01*
X39841Y-19209D01*
X40007Y-19209D01*
X40161Y-19146D01*
X40279Y-19028D01*
X40343Y-18874D01*
X40343Y-18708D01*
X40322Y-18657D01*
X40514Y-18464D01*
X40999Y-18464D01*
X40933Y-18530D01*
X40869Y-18684D01*
X40869Y-18850D01*
X40885Y-18890D01*
X40530Y-19246D01*
X40487Y-19310D01*
X40472Y-19385D01*
X40472Y-20587D01*
X40343Y-20716D01*
X40343Y-20067D01*
X40343Y-19467D01*
X40325Y-19424D01*
X40292Y-19391D01*
X40248Y-19373D01*
X40201Y-19373D01*
X39601Y-19373D01*
X39558Y-19391D01*
X39525Y-19424D01*
X39507Y-19467D01*
X39507Y-19514D01*
X39507Y-20114D01*
X39525Y-20158D01*
X39558Y-20191D01*
X39601Y-20209D01*
X39648Y-20209D01*
X40248Y-20209D01*
X40292Y-20191D01*
X40325Y-20158D01*
X40343Y-20114D01*
X40343Y-20067D01*
X40343Y-20716D01*
X39741Y-21318D01*
X39713Y-21318D01*
X39619Y-21357D01*
X39546Y-21429D01*
X39507Y-21523D01*
X39507Y-21625D01*
X39546Y-21719D01*
X39618Y-21791D01*
X39712Y-21830D01*
X39814Y-21830D01*
X39908Y-21791D01*
X39980Y-21719D01*
X40019Y-21625D01*
X40019Y-21597D01*
X40808Y-20808D01*
X40808Y-20808D01*
X40851Y-20744D01*
X40866Y-20669D01*
X40866Y-20669D01*
X40866Y-19467D01*
X41164Y-19169D01*
X41203Y-19185D01*
X41370Y-19185D01*
X41523Y-19122D01*
X41641Y-19004D01*
X41705Y-18851D01*
X41705Y-18684D01*
X41642Y-18531D01*
X41575Y-18464D01*
X41999Y-18464D01*
X41933Y-18530D01*
X41869Y-18684D01*
X41869Y-18850D01*
X41932Y-19004D01*
X42050Y-19121D01*
X42203Y-19185D01*
X42370Y-19185D01*
X42523Y-19122D01*
X42637Y-19008D01*
X42637Y-19526D01*
X42524Y-19413D01*
X42370Y-19349D01*
X42204Y-19349D01*
X42050Y-19413D01*
X41933Y-19530D01*
X41869Y-19684D01*
X41869Y-19850D01*
X41885Y-19890D01*
X41705Y-20071D01*
X41705Y-19684D01*
X41642Y-19531D01*
X41524Y-19413D01*
X41370Y-19349D01*
X41204Y-19349D01*
X41050Y-19413D01*
X40933Y-19530D01*
X40869Y-19684D01*
X40869Y-19850D01*
X40932Y-20004D01*
X41050Y-20121D01*
X41203Y-20185D01*
X41370Y-20185D01*
X41523Y-20122D01*
X41641Y-20004D01*
X41705Y-19851D01*
X41705Y-19684D01*
X41705Y-20071D01*
X41671Y-20104D01*
X41629Y-20168D01*
X41614Y-20244D01*
X41614Y-20503D01*
X41524Y-20413D01*
X41370Y-20349D01*
X41204Y-20349D01*
X41050Y-20413D01*
X40933Y-20530D01*
X40869Y-20684D01*
X40869Y-20850D01*
X40932Y-21004D01*
X40991Y-21062D01*
X40826Y-21062D01*
X40751Y-21077D01*
X40687Y-21120D01*
X40135Y-21673D01*
X40106Y-21673D01*
X40012Y-21712D01*
X39940Y-21783D01*
X39901Y-21878D01*
X39901Y-21979D01*
X39940Y-22073D01*
X40012Y-22145D01*
X40106Y-22184D01*
X40208Y-22185D01*
X40302Y-22146D01*
X40374Y-22074D01*
X40413Y-21980D01*
X40413Y-21951D01*
X40908Y-21456D01*
X41007Y-21456D01*
X40933Y-21530D01*
X40869Y-21684D01*
X40869Y-21850D01*
X40932Y-22004D01*
X41050Y-22121D01*
X41203Y-22185D01*
X41370Y-22185D01*
X41523Y-22122D01*
X41641Y-22004D01*
X41705Y-21851D01*
X41705Y-21684D01*
X41642Y-21531D01*
X41567Y-21456D01*
X41574Y-21456D01*
X41574Y-21456D01*
X41650Y-21441D01*
X41713Y-21399D01*
X41950Y-21162D01*
X41992Y-21098D01*
X41998Y-21070D01*
X42050Y-21121D01*
X42203Y-21185D01*
X42370Y-21185D01*
X42523Y-21122D01*
X42637Y-21008D01*
X42637Y-21138D01*
X42410Y-21366D01*
X42370Y-21349D01*
X42204Y-21349D01*
X42050Y-21413D01*
X41933Y-21530D01*
X41869Y-21684D01*
X41869Y-21850D01*
X41932Y-22004D01*
X42050Y-22121D01*
X42203Y-22185D01*
X42370Y-22185D01*
X42523Y-22122D01*
X42641Y-22004D01*
X42705Y-21851D01*
X42705Y-21684D01*
X42688Y-21644D01*
X42973Y-21359D01*
X42973Y-21359D01*
X43016Y-21295D01*
X43031Y-21220D01*
X43031Y-21220D01*
X43031Y-18503D01*
X43016Y-18428D01*
X42973Y-18364D01*
X42866Y-18257D01*
X44183Y-18257D01*
X44183Y-28277D01*
M02*
