G04 (created by PCBNEW (2013-may-18)-stable) date Сб 14 ноя 2015 13:08:16*
%MOIN*%
G04 Gerber Fmt 3.4, Leading zero omitted, Abs format*
%FSLAX34Y34*%
G01*
G70*
G90*
G04 APERTURE LIST*
%ADD10C,0.00590551*%
%ADD11R,0.036X0.036*%
%ADD12R,0.055X0.035*%
%ADD13R,0.035X0.055*%
%ADD14R,0.06X0.06*%
%ADD15C,0.06*%
%ADD16R,0.1004X0.0984*%
%ADD17C,0.16*%
%ADD18R,0.0315X0.0197*%
%ADD19C,0.0275591*%
%ADD20C,0.035*%
%ADD21C,0.015748*%
%ADD22C,0.00787402*%
G04 APERTURE END LIST*
G54D10*
G54D11*
X27592Y-24247D03*
X27592Y-23547D03*
X28392Y-23897D03*
X37436Y-21699D03*
X36736Y-21699D03*
X37086Y-20899D03*
X27592Y-22790D03*
X27592Y-22090D03*
X28392Y-22440D03*
X27592Y-25704D03*
X27592Y-25004D03*
X28392Y-25354D03*
X31342Y-24836D03*
X32042Y-24836D03*
X31692Y-25636D03*
X27592Y-21373D03*
X27592Y-20673D03*
X28392Y-21023D03*
G54D12*
X33503Y-22459D03*
X33503Y-23209D03*
X35708Y-22459D03*
X35708Y-23209D03*
G54D13*
X34981Y-22401D03*
X34231Y-22401D03*
G54D14*
X31606Y-19791D03*
G54D15*
X31606Y-18791D03*
X30606Y-19791D03*
X30606Y-18791D03*
X29606Y-19791D03*
X29606Y-18791D03*
X28606Y-19791D03*
X28606Y-18791D03*
X27606Y-19791D03*
X27606Y-18791D03*
G54D14*
X27685Y-26783D03*
G54D15*
X27685Y-27783D03*
X28685Y-26783D03*
X28685Y-27783D03*
X29685Y-26783D03*
X29685Y-27783D03*
X30685Y-26783D03*
X30685Y-27783D03*
X31685Y-26783D03*
X31685Y-27783D03*
G54D14*
X36925Y-26744D03*
G54D15*
X36925Y-27744D03*
X37925Y-26744D03*
X37925Y-27744D03*
X38925Y-26744D03*
X38925Y-27744D03*
X39925Y-26744D03*
X39925Y-27744D03*
G54D14*
X39925Y-19791D03*
G54D15*
X39925Y-18791D03*
X38925Y-19791D03*
X38925Y-18791D03*
X37925Y-19791D03*
X37925Y-18791D03*
X36925Y-19791D03*
X36925Y-18791D03*
G54D14*
X43661Y-19248D03*
G54D15*
X43661Y-20248D03*
X43661Y-21248D03*
X43661Y-22248D03*
G54D14*
X33830Y-19173D03*
G54D15*
X34830Y-19173D03*
G54D14*
X41287Y-27767D03*
G54D15*
X42287Y-27767D03*
X41287Y-26767D03*
X42287Y-26767D03*
X41287Y-25767D03*
X42287Y-25767D03*
X41287Y-24767D03*
X42287Y-24767D03*
X41287Y-23767D03*
X42287Y-23767D03*
X41287Y-22767D03*
X42287Y-22767D03*
X41287Y-21767D03*
X42287Y-21767D03*
X41287Y-20767D03*
X42287Y-20767D03*
X41287Y-19767D03*
X42287Y-19767D03*
X41287Y-18767D03*
X42287Y-18767D03*
G54D14*
X26287Y-18767D03*
G54D15*
X25287Y-18767D03*
X26287Y-19767D03*
X25287Y-19767D03*
X26287Y-20767D03*
X25287Y-20767D03*
X26287Y-21767D03*
X25287Y-21767D03*
X26287Y-22767D03*
X25287Y-22767D03*
X26287Y-23767D03*
X25287Y-23767D03*
X26287Y-24767D03*
X25287Y-24767D03*
X26287Y-25767D03*
X25287Y-25767D03*
X26287Y-26767D03*
X25287Y-26767D03*
X26287Y-27767D03*
X25287Y-27767D03*
G54D16*
X35600Y-21299D03*
X33612Y-21299D03*
X38710Y-23031D03*
X36722Y-23031D03*
G54D12*
X32598Y-22459D03*
X32598Y-23209D03*
G54D17*
X34527Y-27322D03*
G54D18*
X38267Y-21043D03*
X38267Y-21555D03*
X38267Y-21299D03*
X39055Y-21555D03*
X39055Y-21043D03*
G54D14*
X43661Y-24287D03*
G54D15*
X43661Y-25287D03*
X43661Y-26287D03*
X43661Y-27287D03*
G54D19*
X38188Y-25236D03*
X31023Y-23622D03*
X30393Y-23622D03*
X30000Y-25354D03*
X28818Y-25748D03*
X37480Y-24842D03*
X30314Y-21653D03*
X30314Y-20433D03*
X31181Y-23031D03*
X35944Y-27795D03*
X33385Y-25275D03*
X28346Y-21653D03*
X40118Y-24448D03*
X38149Y-21889D03*
X32716Y-21299D03*
X34527Y-21299D03*
X37677Y-22362D03*
X31338Y-24409D03*
X27086Y-25905D03*
X27086Y-24488D03*
X27086Y-22755D03*
X34566Y-24015D03*
X31574Y-26220D03*
X34566Y-22913D03*
X28346Y-26220D03*
X27253Y-19271D03*
G54D20*
X29251Y-22795D03*
X29251Y-22086D03*
G54D19*
X28858Y-24212D03*
X29133Y-21653D03*
X31082Y-25275D03*
X28395Y-24724D03*
X39763Y-21574D03*
X37440Y-27244D03*
X40157Y-21929D03*
X34960Y-24015D03*
X34960Y-22913D03*
G54D21*
X38710Y-23031D02*
X38710Y-24714D01*
X38710Y-24714D02*
X38188Y-25236D01*
X36925Y-27744D02*
X36917Y-27744D01*
X36338Y-23858D02*
X36505Y-23690D01*
X36338Y-27165D02*
X36338Y-23858D01*
X36917Y-27744D02*
X36338Y-27165D01*
X28685Y-26783D02*
X28685Y-25881D01*
X31092Y-23690D02*
X32204Y-23690D01*
X31023Y-23622D02*
X31092Y-23690D01*
X30393Y-24960D02*
X30393Y-23622D01*
X30000Y-25354D02*
X30393Y-24960D01*
X28685Y-25881D02*
X28818Y-25748D01*
X25287Y-18767D02*
X25748Y-18307D01*
X36397Y-19301D02*
X36925Y-19301D01*
X35403Y-18307D02*
X36397Y-19301D01*
X25748Y-18307D02*
X35403Y-18307D01*
X30606Y-19791D02*
X30608Y-19791D01*
X37992Y-23031D02*
X37795Y-23228D01*
X37795Y-23228D02*
X37795Y-23494D01*
X37795Y-23494D02*
X37598Y-23690D01*
X37598Y-23690D02*
X36505Y-23690D01*
X36505Y-23690D02*
X32204Y-23690D01*
X32204Y-23690D02*
X31968Y-23454D01*
X31968Y-23454D02*
X31968Y-20501D01*
X31968Y-20501D02*
X31722Y-20255D01*
X31722Y-20255D02*
X31188Y-20255D01*
X37992Y-23031D02*
X38710Y-23031D01*
X31072Y-20255D02*
X31188Y-20255D01*
X30608Y-19791D02*
X31072Y-20255D01*
X39016Y-21043D02*
X39016Y-20787D01*
X37763Y-20629D02*
X36925Y-19791D01*
X38858Y-20629D02*
X37763Y-20629D01*
X39016Y-20787D02*
X38858Y-20629D01*
X36925Y-18791D02*
X36925Y-19301D01*
X36925Y-19301D02*
X36925Y-19791D01*
X39016Y-21043D02*
X39232Y-21043D01*
X38710Y-22273D02*
X38710Y-23031D01*
X38937Y-22047D02*
X38710Y-22273D01*
X39212Y-22047D02*
X38937Y-22047D01*
X39409Y-21850D02*
X39212Y-22047D01*
X39409Y-21220D02*
X39409Y-21850D01*
X39232Y-21043D02*
X39409Y-21220D01*
X36925Y-26744D02*
X36925Y-25397D01*
X36925Y-25397D02*
X37480Y-24842D01*
X30314Y-21653D02*
X30314Y-20433D01*
X35944Y-27795D02*
X35944Y-25629D01*
X35590Y-25275D02*
X33385Y-25275D01*
X35944Y-25629D02*
X35590Y-25275D01*
X27592Y-21373D02*
X28066Y-21373D01*
X28066Y-21373D02*
X28346Y-21653D01*
X37834Y-21889D02*
X38149Y-21889D01*
X33612Y-21299D02*
X32716Y-21299D01*
X33612Y-21299D02*
X34527Y-21299D01*
X37677Y-22047D02*
X37677Y-22362D01*
X31342Y-24836D02*
X31342Y-24413D01*
X31342Y-24413D02*
X31338Y-24409D01*
X27592Y-25704D02*
X27287Y-25704D01*
X27287Y-25704D02*
X27086Y-25905D01*
X27592Y-24247D02*
X27327Y-24247D01*
X27327Y-24247D02*
X27086Y-24488D01*
X27592Y-22790D02*
X27121Y-22790D01*
X27121Y-22790D02*
X27086Y-22755D01*
X34231Y-22401D02*
X33562Y-22401D01*
X33562Y-22401D02*
X33503Y-22459D01*
X33612Y-21299D02*
X33612Y-22351D01*
X33612Y-22351D02*
X33503Y-22459D01*
X32598Y-22459D02*
X33503Y-22459D01*
X36736Y-22047D02*
X36889Y-22047D01*
X36889Y-22047D02*
X37677Y-22047D01*
X37677Y-22047D02*
X37834Y-21889D01*
X37834Y-21889D02*
X37834Y-21456D01*
X37834Y-21456D02*
X37992Y-21299D01*
X37992Y-21299D02*
X38228Y-21299D01*
X36736Y-22047D02*
X36732Y-22047D01*
X36732Y-22047D02*
X36736Y-22047D01*
X36736Y-21699D02*
X36736Y-22047D01*
X36736Y-22047D02*
X36736Y-23017D01*
X36736Y-23017D02*
X36722Y-23031D01*
X36736Y-21699D02*
X36736Y-21894D01*
X25287Y-26767D02*
X25281Y-26767D01*
X25118Y-22283D02*
X27399Y-22283D01*
X27399Y-22283D02*
X27592Y-22090D01*
X24842Y-22559D02*
X25118Y-22283D01*
X24842Y-26328D02*
X24842Y-22559D01*
X25281Y-26767D02*
X24842Y-26328D01*
X37925Y-27744D02*
X38425Y-27244D01*
X41263Y-26767D02*
X41287Y-26767D01*
X40787Y-27244D02*
X41263Y-26767D01*
X40708Y-27244D02*
X40787Y-27244D01*
X40669Y-27244D02*
X40708Y-27244D01*
X40590Y-27244D02*
X40669Y-27244D01*
X38425Y-27244D02*
X40590Y-27244D01*
X38925Y-26744D02*
X38925Y-26704D01*
X41811Y-26291D02*
X42287Y-26767D01*
X41811Y-25551D02*
X41811Y-26291D01*
X41535Y-25275D02*
X41811Y-25551D01*
X40354Y-25275D02*
X41535Y-25275D01*
X38925Y-26704D02*
X40354Y-25275D01*
X42598Y-28228D02*
X42834Y-27992D01*
X39409Y-28228D02*
X42598Y-28228D01*
X42834Y-27992D02*
X42834Y-26314D01*
X39291Y-28110D02*
X39409Y-28228D01*
X38925Y-27744D02*
X39291Y-28110D01*
X42834Y-26314D02*
X42287Y-25767D01*
X39925Y-26744D02*
X39925Y-26255D01*
X40413Y-25767D02*
X41287Y-25767D01*
X39925Y-26255D02*
X40413Y-25767D01*
X41287Y-21767D02*
X41255Y-21767D01*
X39925Y-20437D02*
X39925Y-19791D01*
X41255Y-21767D02*
X39925Y-20437D01*
X30685Y-27783D02*
X30685Y-27779D01*
X31332Y-25636D02*
X31692Y-25636D01*
X31181Y-25787D02*
X31332Y-25636D01*
X31181Y-27283D02*
X31181Y-25787D01*
X30685Y-27779D02*
X31181Y-27283D01*
X26287Y-25767D02*
X26791Y-25767D01*
X27239Y-25004D02*
X27592Y-25004D01*
X26968Y-25275D02*
X27239Y-25004D01*
X26968Y-25590D02*
X26968Y-25275D01*
X26791Y-25767D02*
X26968Y-25590D01*
X25748Y-26220D02*
X28346Y-26220D01*
X32125Y-26220D02*
X32598Y-25748D01*
X32598Y-25748D02*
X32598Y-24488D01*
X32598Y-24488D02*
X33070Y-24015D01*
X33070Y-24015D02*
X34566Y-24015D01*
X25287Y-25767D02*
X25295Y-25767D01*
X25295Y-25767D02*
X25748Y-26220D01*
X34566Y-22913D02*
X34566Y-23209D01*
X31574Y-26220D02*
X32125Y-26220D01*
X33503Y-23209D02*
X34566Y-23209D01*
X34566Y-23209D02*
X35708Y-23209D01*
X32598Y-23209D02*
X33503Y-23209D01*
X25287Y-21767D02*
X25287Y-21763D01*
X25137Y-19271D02*
X27253Y-19271D01*
X24842Y-19566D02*
X25137Y-19271D01*
X24842Y-21318D02*
X24842Y-19566D01*
X25287Y-21763D02*
X24842Y-21318D01*
X42287Y-23767D02*
X42807Y-23767D01*
X43661Y-22913D02*
X43661Y-22248D01*
X42807Y-23767D02*
X43661Y-22913D01*
X41287Y-23767D02*
X41287Y-23751D01*
X43070Y-21838D02*
X43661Y-21248D01*
X43070Y-22795D02*
X43070Y-21838D01*
X42598Y-23267D02*
X43070Y-22795D01*
X41771Y-23267D02*
X42598Y-23267D01*
X41287Y-23751D02*
X41771Y-23267D01*
X25287Y-19767D02*
X25287Y-19775D01*
X26943Y-20673D02*
X27592Y-20673D01*
X26535Y-20265D02*
X26943Y-20673D01*
X25777Y-20265D02*
X26535Y-20265D01*
X25287Y-19775D02*
X25777Y-20265D01*
X28110Y-20236D02*
X28110Y-19287D01*
X28392Y-21023D02*
X28392Y-20518D01*
X28392Y-20518D02*
X28110Y-20236D01*
X28110Y-19287D02*
X28606Y-18791D01*
X29606Y-19673D02*
X29606Y-21732D01*
X29251Y-22795D02*
X29251Y-23897D01*
X29606Y-21732D02*
X29251Y-22086D01*
X29685Y-26783D02*
X29685Y-24330D01*
X29251Y-23897D02*
X28392Y-23897D01*
X29685Y-24330D02*
X29251Y-23897D01*
X29133Y-21653D02*
X29133Y-19263D01*
X29133Y-19263D02*
X29606Y-18791D01*
X28858Y-25354D02*
X28897Y-25354D01*
X28858Y-24212D02*
X28858Y-25354D01*
X29094Y-21614D02*
X29133Y-21653D01*
X29685Y-27783D02*
X29555Y-27783D01*
X28897Y-25354D02*
X28392Y-25354D01*
X29212Y-25669D02*
X28897Y-25354D01*
X29212Y-27440D02*
X29212Y-25669D01*
X29555Y-27783D02*
X29212Y-27440D01*
X26287Y-20767D02*
X26289Y-20767D01*
X32042Y-25053D02*
X32042Y-24836D01*
X31860Y-25236D02*
X32042Y-25053D01*
X31122Y-25236D02*
X31860Y-25236D01*
X31082Y-25275D02*
X31122Y-25236D01*
X27992Y-24320D02*
X28395Y-24724D01*
X27992Y-21879D02*
X27992Y-24320D01*
X27844Y-21732D02*
X27992Y-21879D01*
X27253Y-21732D02*
X27844Y-21732D01*
X26289Y-20767D02*
X27253Y-21732D01*
X37925Y-19791D02*
X38385Y-19330D01*
X40629Y-19110D02*
X41287Y-19767D01*
X40629Y-18543D02*
X40629Y-19110D01*
X40393Y-18307D02*
X40629Y-18543D01*
X38700Y-18307D02*
X40393Y-18307D01*
X38425Y-18582D02*
X38700Y-18307D01*
X38425Y-19291D02*
X38425Y-18582D01*
X38385Y-19330D02*
X38425Y-19291D01*
X42287Y-20767D02*
X42287Y-20783D01*
X38925Y-20263D02*
X38925Y-19791D01*
X40905Y-22244D02*
X38925Y-20263D01*
X41496Y-22244D02*
X40905Y-22244D01*
X41811Y-21929D02*
X41496Y-22244D01*
X41811Y-21259D02*
X41811Y-21929D01*
X42287Y-20783D02*
X41811Y-21259D01*
X38925Y-18791D02*
X38925Y-18807D01*
X40669Y-20149D02*
X41287Y-20767D01*
X40669Y-19527D02*
X40669Y-20149D01*
X40433Y-19291D02*
X40669Y-19527D01*
X39409Y-19291D02*
X40433Y-19291D01*
X38925Y-18807D02*
X39409Y-19291D01*
X28818Y-22440D02*
X28818Y-20354D01*
X28606Y-20141D02*
X28606Y-19673D01*
X28818Y-20354D02*
X28606Y-20141D01*
X30685Y-26783D02*
X30685Y-22889D01*
X30236Y-22440D02*
X28818Y-22440D01*
X28818Y-22440D02*
X28392Y-22440D01*
X30685Y-22889D02*
X30236Y-22440D01*
X25287Y-24767D02*
X25287Y-24751D01*
X27200Y-23547D02*
X27592Y-23547D01*
X26929Y-23818D02*
X27200Y-23547D01*
X26929Y-24094D02*
X26929Y-23818D01*
X26771Y-24251D02*
X26929Y-24094D01*
X25787Y-24251D02*
X26771Y-24251D01*
X25287Y-24751D02*
X25787Y-24251D01*
X37086Y-20899D02*
X36489Y-20899D01*
X35629Y-19173D02*
X34830Y-19173D01*
X35984Y-19527D02*
X35629Y-19173D01*
X35984Y-20393D02*
X35984Y-19527D01*
X36489Y-20899D02*
X35984Y-20393D01*
X39763Y-24094D02*
X39763Y-21574D01*
X37440Y-26417D02*
X39763Y-24094D01*
X37440Y-27244D02*
X37440Y-26417D01*
X37925Y-26744D02*
X37940Y-26744D01*
X40669Y-22440D02*
X40157Y-21929D01*
X40669Y-24724D02*
X40669Y-22440D01*
X40393Y-25000D02*
X40669Y-24724D01*
X39685Y-25000D02*
X40393Y-25000D01*
X37940Y-26744D02*
X39685Y-25000D01*
X32755Y-27637D02*
X32834Y-27559D01*
X32834Y-27559D02*
X32834Y-24645D01*
X32834Y-24645D02*
X33149Y-24330D01*
X33149Y-24330D02*
X34803Y-24330D01*
X34803Y-24330D02*
X34960Y-24173D01*
X34960Y-24173D02*
X34960Y-24015D01*
X27685Y-27783D02*
X27704Y-27783D01*
X32125Y-28267D02*
X32519Y-27874D01*
X28188Y-28267D02*
X32125Y-28267D01*
X27704Y-27783D02*
X28188Y-28267D01*
X32519Y-27874D02*
X32755Y-27637D01*
X34981Y-22892D02*
X34981Y-22401D01*
X34960Y-22913D02*
X34981Y-22892D01*
X32706Y-18966D02*
X32549Y-18809D01*
X32706Y-18966D02*
X32706Y-19842D01*
X32706Y-19842D02*
X33070Y-20206D01*
X33070Y-20206D02*
X35226Y-20206D01*
X35226Y-20206D02*
X35600Y-20580D01*
X35600Y-21299D02*
X35600Y-20580D01*
X31624Y-18809D02*
X31606Y-18791D01*
X32549Y-18809D02*
X31624Y-18809D01*
X35600Y-21299D02*
X35600Y-22351D01*
X35600Y-22351D02*
X35708Y-22459D01*
X35708Y-22459D02*
X35039Y-22459D01*
X35039Y-22459D02*
X34981Y-22401D01*
X38228Y-21043D02*
X38523Y-21043D01*
X38523Y-21555D02*
X38228Y-21555D01*
X38622Y-21456D02*
X38523Y-21555D01*
X38622Y-21141D02*
X38622Y-21456D01*
X38523Y-21043D02*
X38622Y-21141D01*
X37436Y-21699D02*
X37436Y-21382D01*
X37436Y-21382D02*
X37519Y-21299D01*
X38228Y-21043D02*
X37775Y-21043D01*
X37519Y-21299D02*
X35600Y-21299D01*
X37775Y-21043D02*
X37519Y-21299D01*
G54D10*
G36*
X27302Y-18503D02*
X27252Y-18554D01*
X27188Y-18707D01*
X27188Y-18874D01*
X27246Y-19015D01*
X27203Y-19015D01*
X27109Y-19054D01*
X27088Y-19074D01*
X26784Y-19074D01*
X26784Y-18856D01*
X26735Y-18807D01*
X26326Y-18807D01*
X26326Y-18814D01*
X26248Y-18814D01*
X26248Y-18807D01*
X25839Y-18807D01*
X25790Y-18856D01*
X25790Y-19074D01*
X25571Y-19074D01*
X25641Y-19004D01*
X25705Y-18851D01*
X25705Y-18684D01*
X25688Y-18644D01*
X25790Y-18542D01*
X25790Y-18679D01*
X25839Y-18728D01*
X26248Y-18728D01*
X26248Y-18720D01*
X26326Y-18720D01*
X26326Y-18728D01*
X26735Y-18728D01*
X26784Y-18679D01*
X26784Y-18503D01*
X27302Y-18503D01*
X27302Y-18503D01*
G37*
G54D22*
X27302Y-18503D02*
X27252Y-18554D01*
X27188Y-18707D01*
X27188Y-18874D01*
X27246Y-19015D01*
X27203Y-19015D01*
X27109Y-19054D01*
X27088Y-19074D01*
X26784Y-19074D01*
X26784Y-18856D01*
X26735Y-18807D01*
X26326Y-18807D01*
X26326Y-18814D01*
X26248Y-18814D01*
X26248Y-18807D01*
X25839Y-18807D01*
X25790Y-18856D01*
X25790Y-19074D01*
X25571Y-19074D01*
X25641Y-19004D01*
X25705Y-18851D01*
X25705Y-18684D01*
X25688Y-18644D01*
X25790Y-18542D01*
X25790Y-18679D01*
X25839Y-18728D01*
X26248Y-18728D01*
X26248Y-18720D01*
X26326Y-18720D01*
X26326Y-18728D01*
X26735Y-18728D01*
X26784Y-18679D01*
X26784Y-18503D01*
X27302Y-18503D01*
G54D10*
G36*
X27795Y-23249D02*
X27748Y-23249D01*
X27552Y-23249D01*
X27552Y-23118D01*
X27552Y-22830D01*
X27264Y-22830D01*
X27215Y-22879D01*
X27215Y-23009D01*
X27245Y-23082D01*
X27300Y-23137D01*
X27372Y-23167D01*
X27451Y-23167D01*
X27503Y-23167D01*
X27552Y-23118D01*
X27552Y-23249D01*
X27388Y-23249D01*
X27345Y-23267D01*
X27312Y-23300D01*
X27294Y-23344D01*
X27294Y-23350D01*
X27200Y-23350D01*
X27125Y-23365D01*
X27061Y-23408D01*
X26789Y-23679D01*
X26747Y-23743D01*
X26732Y-23818D01*
X26732Y-24012D01*
X26690Y-24055D01*
X26591Y-24055D01*
X26641Y-24004D01*
X26705Y-23851D01*
X26705Y-23684D01*
X26642Y-23531D01*
X26524Y-23413D01*
X26370Y-23349D01*
X26204Y-23349D01*
X26050Y-23413D01*
X25933Y-23530D01*
X25869Y-23684D01*
X25869Y-23850D01*
X25932Y-24004D01*
X25983Y-24055D01*
X25787Y-24055D01*
X25712Y-24070D01*
X25648Y-24112D01*
X25399Y-24361D01*
X25370Y-24349D01*
X25204Y-24349D01*
X25050Y-24413D01*
X25039Y-24424D01*
X25039Y-24111D01*
X25050Y-24121D01*
X25203Y-24185D01*
X25370Y-24185D01*
X25523Y-24122D01*
X25641Y-24004D01*
X25705Y-23851D01*
X25705Y-23684D01*
X25642Y-23531D01*
X25524Y-23413D01*
X25370Y-23349D01*
X25204Y-23349D01*
X25050Y-23413D01*
X25039Y-23424D01*
X25039Y-23111D01*
X25050Y-23121D01*
X25203Y-23185D01*
X25370Y-23185D01*
X25523Y-23122D01*
X25641Y-23004D01*
X25705Y-22851D01*
X25705Y-22684D01*
X25642Y-22531D01*
X25591Y-22480D01*
X25983Y-22480D01*
X25933Y-22530D01*
X25869Y-22684D01*
X25869Y-22850D01*
X25932Y-23004D01*
X26050Y-23121D01*
X26203Y-23185D01*
X26370Y-23185D01*
X26523Y-23122D01*
X26641Y-23004D01*
X26705Y-22851D01*
X26705Y-22684D01*
X26642Y-22531D01*
X26591Y-22480D01*
X27264Y-22480D01*
X27245Y-22499D01*
X27215Y-22571D01*
X27215Y-22702D01*
X27264Y-22751D01*
X27552Y-22751D01*
X27552Y-22463D01*
X27522Y-22433D01*
X27538Y-22422D01*
X27572Y-22389D01*
X27795Y-22389D01*
X27795Y-22414D01*
X27733Y-22414D01*
X27680Y-22414D01*
X27631Y-22463D01*
X27631Y-22751D01*
X27639Y-22751D01*
X27639Y-22830D01*
X27631Y-22830D01*
X27631Y-23118D01*
X27680Y-23167D01*
X27733Y-23167D01*
X27795Y-23167D01*
X27795Y-23249D01*
X27795Y-23249D01*
G37*
G54D22*
X27795Y-23249D02*
X27748Y-23249D01*
X27552Y-23249D01*
X27552Y-23118D01*
X27552Y-22830D01*
X27264Y-22830D01*
X27215Y-22879D01*
X27215Y-23009D01*
X27245Y-23082D01*
X27300Y-23137D01*
X27372Y-23167D01*
X27451Y-23167D01*
X27503Y-23167D01*
X27552Y-23118D01*
X27552Y-23249D01*
X27388Y-23249D01*
X27345Y-23267D01*
X27312Y-23300D01*
X27294Y-23344D01*
X27294Y-23350D01*
X27200Y-23350D01*
X27125Y-23365D01*
X27061Y-23408D01*
X26789Y-23679D01*
X26747Y-23743D01*
X26732Y-23818D01*
X26732Y-24012D01*
X26690Y-24055D01*
X26591Y-24055D01*
X26641Y-24004D01*
X26705Y-23851D01*
X26705Y-23684D01*
X26642Y-23531D01*
X26524Y-23413D01*
X26370Y-23349D01*
X26204Y-23349D01*
X26050Y-23413D01*
X25933Y-23530D01*
X25869Y-23684D01*
X25869Y-23850D01*
X25932Y-24004D01*
X25983Y-24055D01*
X25787Y-24055D01*
X25712Y-24070D01*
X25648Y-24112D01*
X25399Y-24361D01*
X25370Y-24349D01*
X25204Y-24349D01*
X25050Y-24413D01*
X25039Y-24424D01*
X25039Y-24111D01*
X25050Y-24121D01*
X25203Y-24185D01*
X25370Y-24185D01*
X25523Y-24122D01*
X25641Y-24004D01*
X25705Y-23851D01*
X25705Y-23684D01*
X25642Y-23531D01*
X25524Y-23413D01*
X25370Y-23349D01*
X25204Y-23349D01*
X25050Y-23413D01*
X25039Y-23424D01*
X25039Y-23111D01*
X25050Y-23121D01*
X25203Y-23185D01*
X25370Y-23185D01*
X25523Y-23122D01*
X25641Y-23004D01*
X25705Y-22851D01*
X25705Y-22684D01*
X25642Y-22531D01*
X25591Y-22480D01*
X25983Y-22480D01*
X25933Y-22530D01*
X25869Y-22684D01*
X25869Y-22850D01*
X25932Y-23004D01*
X26050Y-23121D01*
X26203Y-23185D01*
X26370Y-23185D01*
X26523Y-23122D01*
X26641Y-23004D01*
X26705Y-22851D01*
X26705Y-22684D01*
X26642Y-22531D01*
X26591Y-22480D01*
X27264Y-22480D01*
X27245Y-22499D01*
X27215Y-22571D01*
X27215Y-22702D01*
X27264Y-22751D01*
X27552Y-22751D01*
X27552Y-22463D01*
X27522Y-22433D01*
X27538Y-22422D01*
X27572Y-22389D01*
X27795Y-22389D01*
X27795Y-22414D01*
X27733Y-22414D01*
X27680Y-22414D01*
X27631Y-22463D01*
X27631Y-22751D01*
X27639Y-22751D01*
X27639Y-22830D01*
X27631Y-22830D01*
X27631Y-23118D01*
X27680Y-23167D01*
X27733Y-23167D01*
X27795Y-23167D01*
X27795Y-23249D01*
G54D10*
G36*
X28622Y-22153D02*
X28595Y-22142D01*
X28548Y-22142D01*
X28188Y-22142D01*
X28188Y-21879D01*
X28173Y-21804D01*
X28131Y-21740D01*
X27983Y-21593D01*
X27969Y-21583D01*
X27969Y-21154D01*
X27939Y-21082D01*
X27883Y-21026D01*
X27811Y-20996D01*
X27733Y-20996D01*
X27680Y-20996D01*
X27631Y-21045D01*
X27631Y-21334D01*
X27919Y-21334D01*
X27968Y-21285D01*
X27969Y-21154D01*
X27969Y-21583D01*
X27969Y-21583D01*
X27968Y-21462D01*
X27919Y-21412D01*
X27631Y-21412D01*
X27631Y-21420D01*
X27552Y-21420D01*
X27552Y-21412D01*
X27552Y-21334D01*
X27552Y-21045D01*
X27503Y-20996D01*
X27451Y-20996D01*
X27372Y-20996D01*
X27300Y-21026D01*
X27245Y-21082D01*
X27215Y-21154D01*
X27215Y-21285D01*
X27264Y-21334D01*
X27552Y-21334D01*
X27552Y-21412D01*
X27264Y-21412D01*
X27238Y-21438D01*
X26689Y-20889D01*
X26705Y-20851D01*
X26705Y-20714D01*
X26804Y-20812D01*
X26804Y-20812D01*
X26867Y-20855D01*
X26943Y-20870D01*
X27293Y-20870D01*
X27293Y-20877D01*
X27311Y-20920D01*
X27345Y-20953D01*
X27388Y-20971D01*
X27435Y-20971D01*
X27795Y-20971D01*
X27838Y-20953D01*
X27872Y-20920D01*
X27890Y-20877D01*
X27890Y-20830D01*
X27890Y-20470D01*
X27872Y-20426D01*
X27839Y-20393D01*
X27795Y-20375D01*
X27748Y-20375D01*
X27388Y-20375D01*
X27345Y-20393D01*
X27312Y-20426D01*
X27294Y-20470D01*
X27294Y-20476D01*
X27024Y-20476D01*
X26674Y-20126D01*
X26610Y-20083D01*
X26570Y-20075D01*
X26641Y-20004D01*
X26705Y-19851D01*
X26705Y-19684D01*
X26642Y-19531D01*
X26579Y-19468D01*
X27088Y-19468D01*
X27108Y-19488D01*
X27202Y-19527D01*
X27278Y-19527D01*
X27252Y-19554D01*
X27188Y-19707D01*
X27188Y-19874D01*
X27251Y-20027D01*
X27369Y-20145D01*
X27522Y-20209D01*
X27689Y-20209D01*
X27842Y-20146D01*
X27913Y-20075D01*
X27913Y-20236D01*
X27928Y-20311D01*
X27971Y-20375D01*
X28195Y-20599D01*
X28195Y-20725D01*
X28188Y-20725D01*
X28145Y-20743D01*
X28112Y-20776D01*
X28094Y-20820D01*
X28093Y-20867D01*
X28093Y-21227D01*
X28111Y-21270D01*
X28145Y-21303D01*
X28188Y-21321D01*
X28235Y-21321D01*
X28595Y-21321D01*
X28622Y-21310D01*
X28622Y-22153D01*
X28622Y-22153D01*
G37*
G54D22*
X28622Y-22153D02*
X28595Y-22142D01*
X28548Y-22142D01*
X28188Y-22142D01*
X28188Y-21879D01*
X28173Y-21804D01*
X28131Y-21740D01*
X27983Y-21593D01*
X27969Y-21583D01*
X27969Y-21154D01*
X27939Y-21082D01*
X27883Y-21026D01*
X27811Y-20996D01*
X27733Y-20996D01*
X27680Y-20996D01*
X27631Y-21045D01*
X27631Y-21334D01*
X27919Y-21334D01*
X27968Y-21285D01*
X27969Y-21154D01*
X27969Y-21583D01*
X27969Y-21583D01*
X27968Y-21462D01*
X27919Y-21412D01*
X27631Y-21412D01*
X27631Y-21420D01*
X27552Y-21420D01*
X27552Y-21412D01*
X27552Y-21334D01*
X27552Y-21045D01*
X27503Y-20996D01*
X27451Y-20996D01*
X27372Y-20996D01*
X27300Y-21026D01*
X27245Y-21082D01*
X27215Y-21154D01*
X27215Y-21285D01*
X27264Y-21334D01*
X27552Y-21334D01*
X27552Y-21412D01*
X27264Y-21412D01*
X27238Y-21438D01*
X26689Y-20889D01*
X26705Y-20851D01*
X26705Y-20714D01*
X26804Y-20812D01*
X26804Y-20812D01*
X26867Y-20855D01*
X26943Y-20870D01*
X27293Y-20870D01*
X27293Y-20877D01*
X27311Y-20920D01*
X27345Y-20953D01*
X27388Y-20971D01*
X27435Y-20971D01*
X27795Y-20971D01*
X27838Y-20953D01*
X27872Y-20920D01*
X27890Y-20877D01*
X27890Y-20830D01*
X27890Y-20470D01*
X27872Y-20426D01*
X27839Y-20393D01*
X27795Y-20375D01*
X27748Y-20375D01*
X27388Y-20375D01*
X27345Y-20393D01*
X27312Y-20426D01*
X27294Y-20470D01*
X27294Y-20476D01*
X27024Y-20476D01*
X26674Y-20126D01*
X26610Y-20083D01*
X26570Y-20075D01*
X26641Y-20004D01*
X26705Y-19851D01*
X26705Y-19684D01*
X26642Y-19531D01*
X26579Y-19468D01*
X27088Y-19468D01*
X27108Y-19488D01*
X27202Y-19527D01*
X27278Y-19527D01*
X27252Y-19554D01*
X27188Y-19707D01*
X27188Y-19874D01*
X27251Y-20027D01*
X27369Y-20145D01*
X27522Y-20209D01*
X27689Y-20209D01*
X27842Y-20146D01*
X27913Y-20075D01*
X27913Y-20236D01*
X27928Y-20311D01*
X27971Y-20375D01*
X28195Y-20599D01*
X28195Y-20725D01*
X28188Y-20725D01*
X28145Y-20743D01*
X28112Y-20776D01*
X28094Y-20820D01*
X28093Y-20867D01*
X28093Y-21227D01*
X28111Y-21270D01*
X28145Y-21303D01*
X28188Y-21321D01*
X28235Y-21321D01*
X28595Y-21321D01*
X28622Y-21310D01*
X28622Y-22153D01*
G54D10*
G36*
X28661Y-25096D02*
X28639Y-25074D01*
X28595Y-25056D01*
X28548Y-25056D01*
X28188Y-25056D01*
X28145Y-25074D01*
X28112Y-25107D01*
X28094Y-25150D01*
X28093Y-25197D01*
X28093Y-25557D01*
X28111Y-25601D01*
X28145Y-25634D01*
X28188Y-25652D01*
X28235Y-25652D01*
X28581Y-25652D01*
X28563Y-25696D01*
X28563Y-25725D01*
X28545Y-25742D01*
X28503Y-25806D01*
X28488Y-25881D01*
X28488Y-26002D01*
X28397Y-25964D01*
X28295Y-25964D01*
X28201Y-26003D01*
X28181Y-26023D01*
X27911Y-26023D01*
X27939Y-25995D01*
X27969Y-25923D01*
X27969Y-25485D01*
X27939Y-25412D01*
X27883Y-25357D01*
X27811Y-25327D01*
X27733Y-25327D01*
X27680Y-25327D01*
X27631Y-25376D01*
X27631Y-25664D01*
X27919Y-25664D01*
X27968Y-25615D01*
X27969Y-25485D01*
X27969Y-25923D01*
X27968Y-25792D01*
X27919Y-25743D01*
X27631Y-25743D01*
X27631Y-25751D01*
X27552Y-25751D01*
X27552Y-25743D01*
X27552Y-25664D01*
X27552Y-25376D01*
X27503Y-25327D01*
X27451Y-25327D01*
X27372Y-25327D01*
X27300Y-25357D01*
X27245Y-25412D01*
X27215Y-25485D01*
X27215Y-25615D01*
X27264Y-25664D01*
X27552Y-25664D01*
X27552Y-25743D01*
X27264Y-25743D01*
X27215Y-25792D01*
X27215Y-25923D01*
X27245Y-25995D01*
X27273Y-26023D01*
X26622Y-26023D01*
X26641Y-26004D01*
X26658Y-25964D01*
X26791Y-25964D01*
X26791Y-25964D01*
X26866Y-25949D01*
X26930Y-25906D01*
X27107Y-25729D01*
X27150Y-25665D01*
X27165Y-25590D01*
X27165Y-25590D01*
X27165Y-25357D01*
X27300Y-25222D01*
X27311Y-25251D01*
X27345Y-25284D01*
X27388Y-25302D01*
X27435Y-25302D01*
X27795Y-25302D01*
X27838Y-25284D01*
X27872Y-25251D01*
X27890Y-25207D01*
X27890Y-25160D01*
X27890Y-24800D01*
X27872Y-24757D01*
X27839Y-24724D01*
X27795Y-24706D01*
X27748Y-24706D01*
X27552Y-24706D01*
X27552Y-24575D01*
X27552Y-24287D01*
X27552Y-24208D01*
X27552Y-23920D01*
X27503Y-23870D01*
X27451Y-23870D01*
X27372Y-23870D01*
X27300Y-23900D01*
X27245Y-23956D01*
X27215Y-24028D01*
X27215Y-24159D01*
X27264Y-24208D01*
X27552Y-24208D01*
X27552Y-24287D01*
X27264Y-24287D01*
X27215Y-24336D01*
X27215Y-24466D01*
X27245Y-24538D01*
X27300Y-24594D01*
X27372Y-24624D01*
X27451Y-24624D01*
X27503Y-24624D01*
X27552Y-24575D01*
X27552Y-24706D01*
X27388Y-24706D01*
X27345Y-24724D01*
X27312Y-24757D01*
X27294Y-24800D01*
X27294Y-24807D01*
X27239Y-24807D01*
X27164Y-24822D01*
X27100Y-24865D01*
X26829Y-25136D01*
X26786Y-25200D01*
X26771Y-25275D01*
X26771Y-25509D01*
X26709Y-25570D01*
X26658Y-25570D01*
X26642Y-25531D01*
X26524Y-25413D01*
X26370Y-25349D01*
X26204Y-25349D01*
X26050Y-25413D01*
X25933Y-25530D01*
X25869Y-25684D01*
X25869Y-25850D01*
X25932Y-26004D01*
X25952Y-26023D01*
X25829Y-26023D01*
X25691Y-25885D01*
X25705Y-25851D01*
X25705Y-25684D01*
X25642Y-25531D01*
X25524Y-25413D01*
X25370Y-25349D01*
X25204Y-25349D01*
X25050Y-25413D01*
X25039Y-25424D01*
X25039Y-25111D01*
X25050Y-25121D01*
X25203Y-25185D01*
X25370Y-25185D01*
X25523Y-25122D01*
X25641Y-25004D01*
X25705Y-24851D01*
X25705Y-24684D01*
X25684Y-24633D01*
X25868Y-24448D01*
X26015Y-24448D01*
X25933Y-24530D01*
X25869Y-24684D01*
X25869Y-24850D01*
X25932Y-25004D01*
X26050Y-25121D01*
X26203Y-25185D01*
X26370Y-25185D01*
X26523Y-25122D01*
X26641Y-25004D01*
X26705Y-24851D01*
X26705Y-24684D01*
X26642Y-24531D01*
X26559Y-24448D01*
X26771Y-24448D01*
X26771Y-24448D01*
X26846Y-24433D01*
X26910Y-24391D01*
X27068Y-24233D01*
X27068Y-24233D01*
X27111Y-24169D01*
X27125Y-24094D01*
X27125Y-24094D01*
X27125Y-23900D01*
X27281Y-23744D01*
X27293Y-23744D01*
X27293Y-23751D01*
X27311Y-23794D01*
X27345Y-23827D01*
X27388Y-23845D01*
X27435Y-23845D01*
X27795Y-23845D01*
X27795Y-23870D01*
X27733Y-23870D01*
X27680Y-23870D01*
X27631Y-23920D01*
X27631Y-24208D01*
X27639Y-24208D01*
X27639Y-24287D01*
X27631Y-24287D01*
X27631Y-24575D01*
X27680Y-24624D01*
X27733Y-24624D01*
X27811Y-24624D01*
X27883Y-24594D01*
X27935Y-24542D01*
X28139Y-24746D01*
X28139Y-24775D01*
X28178Y-24869D01*
X28250Y-24941D01*
X28344Y-24980D01*
X28446Y-24980D01*
X28540Y-24941D01*
X28612Y-24869D01*
X28651Y-24775D01*
X28651Y-24673D01*
X28612Y-24579D01*
X28540Y-24507D01*
X28446Y-24468D01*
X28418Y-24468D01*
X28188Y-24239D01*
X28188Y-24195D01*
X28235Y-24195D01*
X28595Y-24195D01*
X28602Y-24192D01*
X28602Y-24263D01*
X28641Y-24357D01*
X28661Y-24377D01*
X28661Y-25096D01*
X28661Y-25096D01*
G37*
G54D22*
X28661Y-25096D02*
X28639Y-25074D01*
X28595Y-25056D01*
X28548Y-25056D01*
X28188Y-25056D01*
X28145Y-25074D01*
X28112Y-25107D01*
X28094Y-25150D01*
X28093Y-25197D01*
X28093Y-25557D01*
X28111Y-25601D01*
X28145Y-25634D01*
X28188Y-25652D01*
X28235Y-25652D01*
X28581Y-25652D01*
X28563Y-25696D01*
X28563Y-25725D01*
X28545Y-25742D01*
X28503Y-25806D01*
X28488Y-25881D01*
X28488Y-26002D01*
X28397Y-25964D01*
X28295Y-25964D01*
X28201Y-26003D01*
X28181Y-26023D01*
X27911Y-26023D01*
X27939Y-25995D01*
X27969Y-25923D01*
X27969Y-25485D01*
X27939Y-25412D01*
X27883Y-25357D01*
X27811Y-25327D01*
X27733Y-25327D01*
X27680Y-25327D01*
X27631Y-25376D01*
X27631Y-25664D01*
X27919Y-25664D01*
X27968Y-25615D01*
X27969Y-25485D01*
X27969Y-25923D01*
X27968Y-25792D01*
X27919Y-25743D01*
X27631Y-25743D01*
X27631Y-25751D01*
X27552Y-25751D01*
X27552Y-25743D01*
X27552Y-25664D01*
X27552Y-25376D01*
X27503Y-25327D01*
X27451Y-25327D01*
X27372Y-25327D01*
X27300Y-25357D01*
X27245Y-25412D01*
X27215Y-25485D01*
X27215Y-25615D01*
X27264Y-25664D01*
X27552Y-25664D01*
X27552Y-25743D01*
X27264Y-25743D01*
X27215Y-25792D01*
X27215Y-25923D01*
X27245Y-25995D01*
X27273Y-26023D01*
X26622Y-26023D01*
X26641Y-26004D01*
X26658Y-25964D01*
X26791Y-25964D01*
X26791Y-25964D01*
X26866Y-25949D01*
X26930Y-25906D01*
X27107Y-25729D01*
X27150Y-25665D01*
X27165Y-25590D01*
X27165Y-25590D01*
X27165Y-25357D01*
X27300Y-25222D01*
X27311Y-25251D01*
X27345Y-25284D01*
X27388Y-25302D01*
X27435Y-25302D01*
X27795Y-25302D01*
X27838Y-25284D01*
X27872Y-25251D01*
X27890Y-25207D01*
X27890Y-25160D01*
X27890Y-24800D01*
X27872Y-24757D01*
X27839Y-24724D01*
X27795Y-24706D01*
X27748Y-24706D01*
X27552Y-24706D01*
X27552Y-24575D01*
X27552Y-24287D01*
X27552Y-24208D01*
X27552Y-23920D01*
X27503Y-23870D01*
X27451Y-23870D01*
X27372Y-23870D01*
X27300Y-23900D01*
X27245Y-23956D01*
X27215Y-24028D01*
X27215Y-24159D01*
X27264Y-24208D01*
X27552Y-24208D01*
X27552Y-24287D01*
X27264Y-24287D01*
X27215Y-24336D01*
X27215Y-24466D01*
X27245Y-24538D01*
X27300Y-24594D01*
X27372Y-24624D01*
X27451Y-24624D01*
X27503Y-24624D01*
X27552Y-24575D01*
X27552Y-24706D01*
X27388Y-24706D01*
X27345Y-24724D01*
X27312Y-24757D01*
X27294Y-24800D01*
X27294Y-24807D01*
X27239Y-24807D01*
X27164Y-24822D01*
X27100Y-24865D01*
X26829Y-25136D01*
X26786Y-25200D01*
X26771Y-25275D01*
X26771Y-25509D01*
X26709Y-25570D01*
X26658Y-25570D01*
X26642Y-25531D01*
X26524Y-25413D01*
X26370Y-25349D01*
X26204Y-25349D01*
X26050Y-25413D01*
X25933Y-25530D01*
X25869Y-25684D01*
X25869Y-25850D01*
X25932Y-26004D01*
X25952Y-26023D01*
X25829Y-26023D01*
X25691Y-25885D01*
X25705Y-25851D01*
X25705Y-25684D01*
X25642Y-25531D01*
X25524Y-25413D01*
X25370Y-25349D01*
X25204Y-25349D01*
X25050Y-25413D01*
X25039Y-25424D01*
X25039Y-25111D01*
X25050Y-25121D01*
X25203Y-25185D01*
X25370Y-25185D01*
X25523Y-25122D01*
X25641Y-25004D01*
X25705Y-24851D01*
X25705Y-24684D01*
X25684Y-24633D01*
X25868Y-24448D01*
X26015Y-24448D01*
X25933Y-24530D01*
X25869Y-24684D01*
X25869Y-24850D01*
X25932Y-25004D01*
X26050Y-25121D01*
X26203Y-25185D01*
X26370Y-25185D01*
X26523Y-25122D01*
X26641Y-25004D01*
X26705Y-24851D01*
X26705Y-24684D01*
X26642Y-24531D01*
X26559Y-24448D01*
X26771Y-24448D01*
X26771Y-24448D01*
X26846Y-24433D01*
X26910Y-24391D01*
X27068Y-24233D01*
X27068Y-24233D01*
X27111Y-24169D01*
X27125Y-24094D01*
X27125Y-24094D01*
X27125Y-23900D01*
X27281Y-23744D01*
X27293Y-23744D01*
X27293Y-23751D01*
X27311Y-23794D01*
X27345Y-23827D01*
X27388Y-23845D01*
X27435Y-23845D01*
X27795Y-23845D01*
X27795Y-23870D01*
X27733Y-23870D01*
X27680Y-23870D01*
X27631Y-23920D01*
X27631Y-24208D01*
X27639Y-24208D01*
X27639Y-24287D01*
X27631Y-24287D01*
X27631Y-24575D01*
X27680Y-24624D01*
X27733Y-24624D01*
X27811Y-24624D01*
X27883Y-24594D01*
X27935Y-24542D01*
X28139Y-24746D01*
X28139Y-24775D01*
X28178Y-24869D01*
X28250Y-24941D01*
X28344Y-24980D01*
X28446Y-24980D01*
X28540Y-24941D01*
X28612Y-24869D01*
X28651Y-24775D01*
X28651Y-24673D01*
X28612Y-24579D01*
X28540Y-24507D01*
X28446Y-24468D01*
X28418Y-24468D01*
X28188Y-24239D01*
X28188Y-24195D01*
X28235Y-24195D01*
X28595Y-24195D01*
X28602Y-24192D01*
X28602Y-24263D01*
X28641Y-24357D01*
X28661Y-24377D01*
X28661Y-25096D01*
G54D10*
G36*
X29381Y-28070D02*
X28988Y-28070D01*
X29039Y-28020D01*
X29103Y-27866D01*
X29103Y-27700D01*
X29039Y-27546D01*
X28922Y-27429D01*
X28768Y-27365D01*
X28602Y-27365D01*
X28448Y-27428D01*
X28330Y-27546D01*
X28267Y-27699D01*
X28266Y-27866D01*
X28330Y-28019D01*
X28381Y-28070D01*
X28270Y-28070D01*
X28181Y-27982D01*
X28181Y-27044D01*
X28181Y-26872D01*
X28132Y-26822D01*
X27724Y-26822D01*
X27724Y-27231D01*
X27773Y-27280D01*
X28024Y-27280D01*
X28096Y-27250D01*
X28151Y-27195D01*
X28181Y-27122D01*
X28181Y-27044D01*
X28181Y-27982D01*
X28092Y-27892D01*
X28103Y-27866D01*
X28103Y-27700D01*
X28039Y-27546D01*
X27922Y-27429D01*
X27768Y-27365D01*
X27645Y-27365D01*
X27645Y-27231D01*
X27645Y-26822D01*
X27237Y-26822D01*
X27188Y-26872D01*
X27188Y-27044D01*
X27188Y-27122D01*
X27218Y-27195D01*
X27273Y-27250D01*
X27346Y-27280D01*
X27596Y-27280D01*
X27645Y-27231D01*
X27645Y-27365D01*
X27602Y-27365D01*
X27448Y-27428D01*
X27330Y-27546D01*
X27267Y-27699D01*
X27266Y-27866D01*
X27330Y-28019D01*
X27447Y-28137D01*
X27601Y-28201D01*
X27767Y-28201D01*
X27822Y-28179D01*
X27920Y-28277D01*
X26705Y-28277D01*
X26705Y-27684D01*
X26642Y-27531D01*
X26524Y-27413D01*
X26370Y-27349D01*
X26204Y-27349D01*
X26050Y-27413D01*
X25933Y-27530D01*
X25869Y-27684D01*
X25869Y-27850D01*
X25932Y-28004D01*
X26050Y-28121D01*
X26203Y-28185D01*
X26370Y-28185D01*
X26523Y-28122D01*
X26641Y-28004D01*
X26705Y-27851D01*
X26705Y-27684D01*
X26705Y-28277D01*
X25705Y-28277D01*
X25705Y-27684D01*
X25642Y-27531D01*
X25524Y-27413D01*
X25370Y-27349D01*
X25204Y-27349D01*
X25050Y-27413D01*
X24933Y-27530D01*
X24869Y-27684D01*
X24869Y-27850D01*
X24932Y-28004D01*
X25050Y-28121D01*
X25203Y-28185D01*
X25370Y-28185D01*
X25523Y-28122D01*
X25641Y-28004D01*
X25705Y-27851D01*
X25705Y-27684D01*
X25705Y-28277D01*
X24793Y-28277D01*
X24793Y-26557D01*
X24884Y-26648D01*
X24869Y-26684D01*
X24869Y-26850D01*
X24932Y-27004D01*
X25050Y-27121D01*
X25203Y-27185D01*
X25370Y-27185D01*
X25523Y-27122D01*
X25641Y-27004D01*
X25705Y-26851D01*
X25705Y-26684D01*
X25642Y-26531D01*
X25524Y-26413D01*
X25370Y-26349D01*
X25204Y-26349D01*
X25160Y-26367D01*
X25039Y-26247D01*
X25039Y-26111D01*
X25050Y-26121D01*
X25203Y-26185D01*
X25370Y-26185D01*
X25416Y-26166D01*
X25608Y-26359D01*
X25608Y-26359D01*
X25672Y-26402D01*
X25748Y-26417D01*
X26046Y-26417D01*
X25933Y-26530D01*
X25869Y-26684D01*
X25869Y-26850D01*
X25932Y-27004D01*
X26050Y-27121D01*
X26203Y-27185D01*
X26370Y-27185D01*
X26523Y-27122D01*
X26641Y-27004D01*
X26705Y-26851D01*
X26705Y-26684D01*
X26642Y-26531D01*
X26528Y-26417D01*
X27199Y-26417D01*
X27188Y-26444D01*
X27188Y-26522D01*
X27188Y-26694D01*
X27237Y-26744D01*
X27645Y-26744D01*
X27645Y-26736D01*
X27724Y-26736D01*
X27724Y-26744D01*
X28132Y-26744D01*
X28181Y-26694D01*
X28181Y-26522D01*
X28181Y-26444D01*
X28170Y-26417D01*
X28181Y-26417D01*
X28201Y-26437D01*
X28295Y-26476D01*
X28397Y-26476D01*
X28403Y-26473D01*
X28330Y-26546D01*
X28267Y-26699D01*
X28266Y-26866D01*
X28330Y-27019D01*
X28447Y-27137D01*
X28601Y-27201D01*
X28767Y-27201D01*
X28921Y-27138D01*
X29015Y-27044D01*
X29015Y-27440D01*
X29030Y-27516D01*
X29073Y-27580D01*
X29266Y-27773D01*
X29266Y-27866D01*
X29330Y-28019D01*
X29381Y-28070D01*
X29381Y-28070D01*
G37*
G54D22*
X29381Y-28070D02*
X28988Y-28070D01*
X29039Y-28020D01*
X29103Y-27866D01*
X29103Y-27700D01*
X29039Y-27546D01*
X28922Y-27429D01*
X28768Y-27365D01*
X28602Y-27365D01*
X28448Y-27428D01*
X28330Y-27546D01*
X28267Y-27699D01*
X28266Y-27866D01*
X28330Y-28019D01*
X28381Y-28070D01*
X28270Y-28070D01*
X28181Y-27982D01*
X28181Y-27044D01*
X28181Y-26872D01*
X28132Y-26822D01*
X27724Y-26822D01*
X27724Y-27231D01*
X27773Y-27280D01*
X28024Y-27280D01*
X28096Y-27250D01*
X28151Y-27195D01*
X28181Y-27122D01*
X28181Y-27044D01*
X28181Y-27982D01*
X28092Y-27892D01*
X28103Y-27866D01*
X28103Y-27700D01*
X28039Y-27546D01*
X27922Y-27429D01*
X27768Y-27365D01*
X27645Y-27365D01*
X27645Y-27231D01*
X27645Y-26822D01*
X27237Y-26822D01*
X27188Y-26872D01*
X27188Y-27044D01*
X27188Y-27122D01*
X27218Y-27195D01*
X27273Y-27250D01*
X27346Y-27280D01*
X27596Y-27280D01*
X27645Y-27231D01*
X27645Y-27365D01*
X27602Y-27365D01*
X27448Y-27428D01*
X27330Y-27546D01*
X27267Y-27699D01*
X27266Y-27866D01*
X27330Y-28019D01*
X27447Y-28137D01*
X27601Y-28201D01*
X27767Y-28201D01*
X27822Y-28179D01*
X27920Y-28277D01*
X26705Y-28277D01*
X26705Y-27684D01*
X26642Y-27531D01*
X26524Y-27413D01*
X26370Y-27349D01*
X26204Y-27349D01*
X26050Y-27413D01*
X25933Y-27530D01*
X25869Y-27684D01*
X25869Y-27850D01*
X25932Y-28004D01*
X26050Y-28121D01*
X26203Y-28185D01*
X26370Y-28185D01*
X26523Y-28122D01*
X26641Y-28004D01*
X26705Y-27851D01*
X26705Y-27684D01*
X26705Y-28277D01*
X25705Y-28277D01*
X25705Y-27684D01*
X25642Y-27531D01*
X25524Y-27413D01*
X25370Y-27349D01*
X25204Y-27349D01*
X25050Y-27413D01*
X24933Y-27530D01*
X24869Y-27684D01*
X24869Y-27850D01*
X24932Y-28004D01*
X25050Y-28121D01*
X25203Y-28185D01*
X25370Y-28185D01*
X25523Y-28122D01*
X25641Y-28004D01*
X25705Y-27851D01*
X25705Y-27684D01*
X25705Y-28277D01*
X24793Y-28277D01*
X24793Y-26557D01*
X24884Y-26648D01*
X24869Y-26684D01*
X24869Y-26850D01*
X24932Y-27004D01*
X25050Y-27121D01*
X25203Y-27185D01*
X25370Y-27185D01*
X25523Y-27122D01*
X25641Y-27004D01*
X25705Y-26851D01*
X25705Y-26684D01*
X25642Y-26531D01*
X25524Y-26413D01*
X25370Y-26349D01*
X25204Y-26349D01*
X25160Y-26367D01*
X25039Y-26247D01*
X25039Y-26111D01*
X25050Y-26121D01*
X25203Y-26185D01*
X25370Y-26185D01*
X25416Y-26166D01*
X25608Y-26359D01*
X25608Y-26359D01*
X25672Y-26402D01*
X25748Y-26417D01*
X26046Y-26417D01*
X25933Y-26530D01*
X25869Y-26684D01*
X25869Y-26850D01*
X25932Y-27004D01*
X26050Y-27121D01*
X26203Y-27185D01*
X26370Y-27185D01*
X26523Y-27122D01*
X26641Y-27004D01*
X26705Y-26851D01*
X26705Y-26684D01*
X26642Y-26531D01*
X26528Y-26417D01*
X27199Y-26417D01*
X27188Y-26444D01*
X27188Y-26522D01*
X27188Y-26694D01*
X27237Y-26744D01*
X27645Y-26744D01*
X27645Y-26736D01*
X27724Y-26736D01*
X27724Y-26744D01*
X28132Y-26744D01*
X28181Y-26694D01*
X28181Y-26522D01*
X28181Y-26444D01*
X28170Y-26417D01*
X28181Y-26417D01*
X28201Y-26437D01*
X28295Y-26476D01*
X28397Y-26476D01*
X28403Y-26473D01*
X28330Y-26546D01*
X28267Y-26699D01*
X28266Y-26866D01*
X28330Y-27019D01*
X28447Y-27137D01*
X28601Y-27201D01*
X28767Y-27201D01*
X28921Y-27138D01*
X29015Y-27044D01*
X29015Y-27440D01*
X29030Y-27516D01*
X29073Y-27580D01*
X29266Y-27773D01*
X29266Y-27866D01*
X29330Y-28019D01*
X29381Y-28070D01*
G54D10*
G36*
X32920Y-23887D02*
X32459Y-24348D01*
X32416Y-24412D01*
X32401Y-24488D01*
X32401Y-25666D01*
X32044Y-26023D01*
X31739Y-26023D01*
X31719Y-26003D01*
X31625Y-25964D01*
X31524Y-25964D01*
X31430Y-26003D01*
X31377Y-26055D01*
X31377Y-25868D01*
X31398Y-25848D01*
X31412Y-25883D01*
X31445Y-25916D01*
X31489Y-25934D01*
X31536Y-25934D01*
X31896Y-25934D01*
X31939Y-25916D01*
X31972Y-25883D01*
X31991Y-25839D01*
X31991Y-25792D01*
X31991Y-25432D01*
X31974Y-25392D01*
X31999Y-25375D01*
X32182Y-25192D01*
X32221Y-25134D01*
X32246Y-25134D01*
X32289Y-25116D01*
X32322Y-25083D01*
X32341Y-25039D01*
X32341Y-24992D01*
X32341Y-24632D01*
X32323Y-24589D01*
X32289Y-24556D01*
X32246Y-24538D01*
X32199Y-24538D01*
X31839Y-24538D01*
X31796Y-24556D01*
X31762Y-24589D01*
X31744Y-24632D01*
X31744Y-24679D01*
X31744Y-25039D01*
X31719Y-25039D01*
X31719Y-24977D01*
X31719Y-24695D01*
X31719Y-24616D01*
X31689Y-24544D01*
X31634Y-24489D01*
X31561Y-24459D01*
X31431Y-24459D01*
X31382Y-24508D01*
X31382Y-24796D01*
X31670Y-24796D01*
X31719Y-24747D01*
X31719Y-24695D01*
X31719Y-24977D01*
X31719Y-24924D01*
X31670Y-24875D01*
X31382Y-24875D01*
X31382Y-24883D01*
X31303Y-24883D01*
X31303Y-24875D01*
X31303Y-24796D01*
X31303Y-24508D01*
X31254Y-24459D01*
X31123Y-24459D01*
X31051Y-24489D01*
X30996Y-24544D01*
X30966Y-24616D01*
X30966Y-24695D01*
X30966Y-24747D01*
X31015Y-24796D01*
X31303Y-24796D01*
X31303Y-24875D01*
X31015Y-24875D01*
X30966Y-24924D01*
X30966Y-24977D01*
X30966Y-25046D01*
X30937Y-25058D01*
X30881Y-25114D01*
X30881Y-23840D01*
X30972Y-23877D01*
X31043Y-23877D01*
X31043Y-23877D01*
X31092Y-23887D01*
X32204Y-23887D01*
X32920Y-23887D01*
X32920Y-23887D01*
G37*
G54D22*
X32920Y-23887D02*
X32459Y-24348D01*
X32416Y-24412D01*
X32401Y-24488D01*
X32401Y-25666D01*
X32044Y-26023D01*
X31739Y-26023D01*
X31719Y-26003D01*
X31625Y-25964D01*
X31524Y-25964D01*
X31430Y-26003D01*
X31377Y-26055D01*
X31377Y-25868D01*
X31398Y-25848D01*
X31412Y-25883D01*
X31445Y-25916D01*
X31489Y-25934D01*
X31536Y-25934D01*
X31896Y-25934D01*
X31939Y-25916D01*
X31972Y-25883D01*
X31991Y-25839D01*
X31991Y-25792D01*
X31991Y-25432D01*
X31974Y-25392D01*
X31999Y-25375D01*
X32182Y-25192D01*
X32221Y-25134D01*
X32246Y-25134D01*
X32289Y-25116D01*
X32322Y-25083D01*
X32341Y-25039D01*
X32341Y-24992D01*
X32341Y-24632D01*
X32323Y-24589D01*
X32289Y-24556D01*
X32246Y-24538D01*
X32199Y-24538D01*
X31839Y-24538D01*
X31796Y-24556D01*
X31762Y-24589D01*
X31744Y-24632D01*
X31744Y-24679D01*
X31744Y-25039D01*
X31719Y-25039D01*
X31719Y-24977D01*
X31719Y-24695D01*
X31719Y-24616D01*
X31689Y-24544D01*
X31634Y-24489D01*
X31561Y-24459D01*
X31431Y-24459D01*
X31382Y-24508D01*
X31382Y-24796D01*
X31670Y-24796D01*
X31719Y-24747D01*
X31719Y-24695D01*
X31719Y-24977D01*
X31719Y-24924D01*
X31670Y-24875D01*
X31382Y-24875D01*
X31382Y-24883D01*
X31303Y-24883D01*
X31303Y-24875D01*
X31303Y-24796D01*
X31303Y-24508D01*
X31254Y-24459D01*
X31123Y-24459D01*
X31051Y-24489D01*
X30996Y-24544D01*
X30966Y-24616D01*
X30966Y-24695D01*
X30966Y-24747D01*
X31015Y-24796D01*
X31303Y-24796D01*
X31303Y-24875D01*
X31015Y-24875D01*
X30966Y-24924D01*
X30966Y-24977D01*
X30966Y-25046D01*
X30937Y-25058D01*
X30881Y-25114D01*
X30881Y-23840D01*
X30972Y-23877D01*
X31043Y-23877D01*
X31043Y-23877D01*
X31092Y-23887D01*
X32204Y-23887D01*
X32920Y-23887D01*
G54D10*
G36*
X35403Y-22169D02*
X35366Y-22184D01*
X35333Y-22217D01*
X35315Y-22261D01*
X35315Y-22262D01*
X35274Y-22262D01*
X35274Y-22103D01*
X35256Y-22059D01*
X35223Y-22026D01*
X35179Y-22008D01*
X35132Y-22008D01*
X34782Y-22008D01*
X34739Y-22026D01*
X34706Y-22059D01*
X34688Y-22102D01*
X34688Y-22149D01*
X34688Y-22686D01*
X34618Y-22657D01*
X34603Y-22657D01*
X34603Y-22637D01*
X34603Y-22165D01*
X34603Y-22087D01*
X34573Y-22014D01*
X34517Y-21959D01*
X34445Y-21929D01*
X34319Y-21929D01*
X34311Y-21938D01*
X34270Y-21978D01*
X34270Y-21929D01*
X34254Y-21929D01*
X34281Y-21902D01*
X34311Y-21830D01*
X34311Y-21752D01*
X34311Y-20846D01*
X34311Y-20767D01*
X34281Y-20695D01*
X34225Y-20640D01*
X34153Y-20610D01*
X33700Y-20610D01*
X33651Y-20659D01*
X33651Y-21259D01*
X34261Y-21259D01*
X34311Y-21210D01*
X34311Y-20846D01*
X34311Y-21752D01*
X34311Y-21387D01*
X34261Y-21338D01*
X33651Y-21338D01*
X33651Y-21938D01*
X33700Y-21988D01*
X33916Y-21988D01*
X33889Y-22014D01*
X33859Y-22087D01*
X33859Y-22104D01*
X33818Y-22087D01*
X33739Y-22087D01*
X33592Y-22087D01*
X33572Y-22107D01*
X33572Y-21938D01*
X33572Y-21338D01*
X33572Y-21259D01*
X33572Y-20659D01*
X33523Y-20610D01*
X33071Y-20610D01*
X32998Y-20640D01*
X32943Y-20695D01*
X32913Y-20767D01*
X32913Y-20846D01*
X32913Y-21210D01*
X32962Y-21259D01*
X33572Y-21259D01*
X33572Y-21338D01*
X32962Y-21338D01*
X32913Y-21387D01*
X32913Y-21752D01*
X32913Y-21830D01*
X32943Y-21902D01*
X32998Y-21958D01*
X33071Y-21988D01*
X33523Y-21988D01*
X33572Y-21938D01*
X33572Y-22107D01*
X33543Y-22137D01*
X33543Y-22420D01*
X33551Y-22420D01*
X33551Y-22499D01*
X33543Y-22499D01*
X33543Y-22782D01*
X33592Y-22831D01*
X33739Y-22831D01*
X33818Y-22831D01*
X33890Y-22801D01*
X33896Y-22795D01*
X33944Y-22843D01*
X34017Y-22873D01*
X34142Y-22873D01*
X34191Y-22824D01*
X34191Y-22440D01*
X34184Y-22440D01*
X34184Y-22362D01*
X34191Y-22362D01*
X34191Y-22354D01*
X34270Y-22354D01*
X34270Y-22362D01*
X34553Y-22362D01*
X34603Y-22312D01*
X34603Y-22165D01*
X34603Y-22637D01*
X34603Y-22490D01*
X34553Y-22440D01*
X34270Y-22440D01*
X34270Y-22824D01*
X34311Y-22864D01*
X34310Y-22964D01*
X34331Y-23012D01*
X34191Y-23012D01*
X33897Y-23012D01*
X33897Y-23011D01*
X33879Y-22967D01*
X33845Y-22934D01*
X33802Y-22916D01*
X33755Y-22916D01*
X33464Y-22916D01*
X33464Y-22782D01*
X33464Y-22499D01*
X33464Y-22420D01*
X33464Y-22137D01*
X33415Y-22087D01*
X33267Y-22087D01*
X33189Y-22087D01*
X33117Y-22117D01*
X33061Y-22173D01*
X33051Y-22199D01*
X33040Y-22173D01*
X32985Y-22117D01*
X32912Y-22087D01*
X32834Y-22087D01*
X32687Y-22087D01*
X32637Y-22137D01*
X32637Y-22420D01*
X33021Y-22420D01*
X33051Y-22390D01*
X33081Y-22420D01*
X33464Y-22420D01*
X33464Y-22499D01*
X33081Y-22499D01*
X33051Y-22529D01*
X33021Y-22499D01*
X32637Y-22499D01*
X32637Y-22782D01*
X32687Y-22831D01*
X32834Y-22831D01*
X32912Y-22831D01*
X32985Y-22801D01*
X33040Y-22746D01*
X33051Y-22719D01*
X33061Y-22746D01*
X33117Y-22801D01*
X33189Y-22831D01*
X33267Y-22831D01*
X33415Y-22831D01*
X33464Y-22782D01*
X33464Y-22916D01*
X33205Y-22916D01*
X33162Y-22934D01*
X33128Y-22967D01*
X33110Y-23011D01*
X33110Y-23012D01*
X32991Y-23012D01*
X32991Y-23011D01*
X32973Y-22967D01*
X32940Y-22934D01*
X32897Y-22916D01*
X32850Y-22916D01*
X32300Y-22916D01*
X32256Y-22934D01*
X32223Y-22967D01*
X32205Y-23011D01*
X32205Y-23058D01*
X32205Y-23408D01*
X32208Y-23416D01*
X32165Y-23373D01*
X32165Y-22754D01*
X32211Y-22801D01*
X32284Y-22831D01*
X32362Y-22831D01*
X32509Y-22831D01*
X32559Y-22782D01*
X32559Y-22499D01*
X32551Y-22499D01*
X32551Y-22420D01*
X32559Y-22420D01*
X32559Y-22137D01*
X32509Y-22087D01*
X32362Y-22087D01*
X32284Y-22087D01*
X32211Y-22117D01*
X32165Y-22164D01*
X32165Y-20501D01*
X32150Y-20426D01*
X32107Y-20362D01*
X32107Y-20362D01*
X32007Y-20262D01*
X32017Y-20258D01*
X32073Y-20202D01*
X32103Y-20130D01*
X32103Y-20052D01*
X32103Y-19530D01*
X32103Y-19452D01*
X32073Y-19379D01*
X32017Y-19324D01*
X31945Y-19294D01*
X31694Y-19294D01*
X31645Y-19343D01*
X31645Y-19751D01*
X32053Y-19751D01*
X32103Y-19702D01*
X32103Y-19530D01*
X32103Y-20052D01*
X32103Y-19879D01*
X32053Y-19830D01*
X31645Y-19830D01*
X31645Y-19838D01*
X31566Y-19838D01*
X31566Y-19830D01*
X31566Y-19751D01*
X31566Y-19343D01*
X31517Y-19294D01*
X31267Y-19294D01*
X31194Y-19324D01*
X31139Y-19379D01*
X31109Y-19452D01*
X31109Y-19530D01*
X31109Y-19702D01*
X31158Y-19751D01*
X31566Y-19751D01*
X31566Y-19830D01*
X31158Y-19830D01*
X31109Y-19879D01*
X31109Y-20014D01*
X31008Y-19913D01*
X31024Y-19874D01*
X31024Y-19708D01*
X30960Y-19554D01*
X30843Y-19437D01*
X30689Y-19373D01*
X30523Y-19373D01*
X30369Y-19436D01*
X30252Y-19554D01*
X30188Y-19707D01*
X30188Y-19874D01*
X30251Y-20027D01*
X30369Y-20145D01*
X30522Y-20209D01*
X30689Y-20209D01*
X30730Y-20192D01*
X30933Y-20395D01*
X30997Y-20437D01*
X31072Y-20452D01*
X31188Y-20452D01*
X31640Y-20452D01*
X31771Y-20583D01*
X31771Y-23454D01*
X31779Y-23494D01*
X31247Y-23494D01*
X31240Y-23477D01*
X31168Y-23405D01*
X31074Y-23366D01*
X30972Y-23366D01*
X30881Y-23403D01*
X30881Y-22889D01*
X30866Y-22814D01*
X30824Y-22750D01*
X30824Y-22750D01*
X30375Y-22301D01*
X30311Y-22259D01*
X30236Y-22244D01*
X29503Y-22244D01*
X29545Y-22145D01*
X29545Y-22071D01*
X29745Y-21871D01*
X29745Y-21871D01*
X29788Y-21807D01*
X29803Y-21732D01*
X29803Y-21732D01*
X29803Y-20162D01*
X29842Y-20146D01*
X29960Y-20028D01*
X30024Y-19874D01*
X30024Y-19708D01*
X29960Y-19554D01*
X29843Y-19437D01*
X29689Y-19373D01*
X29523Y-19373D01*
X29369Y-19436D01*
X29330Y-19475D01*
X29330Y-19345D01*
X29483Y-19192D01*
X29522Y-19209D01*
X29689Y-19209D01*
X29842Y-19146D01*
X29960Y-19028D01*
X30024Y-18874D01*
X30024Y-18708D01*
X29960Y-18554D01*
X29910Y-18503D01*
X30302Y-18503D01*
X30252Y-18554D01*
X30188Y-18707D01*
X30188Y-18874D01*
X30251Y-19027D01*
X30369Y-19145D01*
X30522Y-19209D01*
X30689Y-19209D01*
X30842Y-19146D01*
X30960Y-19028D01*
X31024Y-18874D01*
X31024Y-18708D01*
X30960Y-18554D01*
X30910Y-18503D01*
X31302Y-18503D01*
X31252Y-18554D01*
X31188Y-18707D01*
X31188Y-18874D01*
X31251Y-19027D01*
X31369Y-19145D01*
X31522Y-19209D01*
X31689Y-19209D01*
X31842Y-19146D01*
X31960Y-19028D01*
X31969Y-19005D01*
X32467Y-19005D01*
X32509Y-19048D01*
X32509Y-19842D01*
X32524Y-19917D01*
X32567Y-19981D01*
X32931Y-20345D01*
X32931Y-20345D01*
X32995Y-20388D01*
X33070Y-20403D01*
X35144Y-20403D01*
X35403Y-20662D01*
X35403Y-20689D01*
X35074Y-20689D01*
X35031Y-20707D01*
X34998Y-20740D01*
X34980Y-20783D01*
X34980Y-20830D01*
X34980Y-21814D01*
X34998Y-21858D01*
X35031Y-21891D01*
X35074Y-21909D01*
X35121Y-21909D01*
X35403Y-21909D01*
X35403Y-22169D01*
X35403Y-22169D01*
G37*
G54D22*
X35403Y-22169D02*
X35366Y-22184D01*
X35333Y-22217D01*
X35315Y-22261D01*
X35315Y-22262D01*
X35274Y-22262D01*
X35274Y-22103D01*
X35256Y-22059D01*
X35223Y-22026D01*
X35179Y-22008D01*
X35132Y-22008D01*
X34782Y-22008D01*
X34739Y-22026D01*
X34706Y-22059D01*
X34688Y-22102D01*
X34688Y-22149D01*
X34688Y-22686D01*
X34618Y-22657D01*
X34603Y-22657D01*
X34603Y-22637D01*
X34603Y-22165D01*
X34603Y-22087D01*
X34573Y-22014D01*
X34517Y-21959D01*
X34445Y-21929D01*
X34319Y-21929D01*
X34311Y-21938D01*
X34270Y-21978D01*
X34270Y-21929D01*
X34254Y-21929D01*
X34281Y-21902D01*
X34311Y-21830D01*
X34311Y-21752D01*
X34311Y-20846D01*
X34311Y-20767D01*
X34281Y-20695D01*
X34225Y-20640D01*
X34153Y-20610D01*
X33700Y-20610D01*
X33651Y-20659D01*
X33651Y-21259D01*
X34261Y-21259D01*
X34311Y-21210D01*
X34311Y-20846D01*
X34311Y-21752D01*
X34311Y-21387D01*
X34261Y-21338D01*
X33651Y-21338D01*
X33651Y-21938D01*
X33700Y-21988D01*
X33916Y-21988D01*
X33889Y-22014D01*
X33859Y-22087D01*
X33859Y-22104D01*
X33818Y-22087D01*
X33739Y-22087D01*
X33592Y-22087D01*
X33572Y-22107D01*
X33572Y-21938D01*
X33572Y-21338D01*
X33572Y-21259D01*
X33572Y-20659D01*
X33523Y-20610D01*
X33071Y-20610D01*
X32998Y-20640D01*
X32943Y-20695D01*
X32913Y-20767D01*
X32913Y-20846D01*
X32913Y-21210D01*
X32962Y-21259D01*
X33572Y-21259D01*
X33572Y-21338D01*
X32962Y-21338D01*
X32913Y-21387D01*
X32913Y-21752D01*
X32913Y-21830D01*
X32943Y-21902D01*
X32998Y-21958D01*
X33071Y-21988D01*
X33523Y-21988D01*
X33572Y-21938D01*
X33572Y-22107D01*
X33543Y-22137D01*
X33543Y-22420D01*
X33551Y-22420D01*
X33551Y-22499D01*
X33543Y-22499D01*
X33543Y-22782D01*
X33592Y-22831D01*
X33739Y-22831D01*
X33818Y-22831D01*
X33890Y-22801D01*
X33896Y-22795D01*
X33944Y-22843D01*
X34017Y-22873D01*
X34142Y-22873D01*
X34191Y-22824D01*
X34191Y-22440D01*
X34184Y-22440D01*
X34184Y-22362D01*
X34191Y-22362D01*
X34191Y-22354D01*
X34270Y-22354D01*
X34270Y-22362D01*
X34553Y-22362D01*
X34603Y-22312D01*
X34603Y-22165D01*
X34603Y-22637D01*
X34603Y-22490D01*
X34553Y-22440D01*
X34270Y-22440D01*
X34270Y-22824D01*
X34311Y-22864D01*
X34310Y-22964D01*
X34331Y-23012D01*
X34191Y-23012D01*
X33897Y-23012D01*
X33897Y-23011D01*
X33879Y-22967D01*
X33845Y-22934D01*
X33802Y-22916D01*
X33755Y-22916D01*
X33464Y-22916D01*
X33464Y-22782D01*
X33464Y-22499D01*
X33464Y-22420D01*
X33464Y-22137D01*
X33415Y-22087D01*
X33267Y-22087D01*
X33189Y-22087D01*
X33117Y-22117D01*
X33061Y-22173D01*
X33051Y-22199D01*
X33040Y-22173D01*
X32985Y-22117D01*
X32912Y-22087D01*
X32834Y-22087D01*
X32687Y-22087D01*
X32637Y-22137D01*
X32637Y-22420D01*
X33021Y-22420D01*
X33051Y-22390D01*
X33081Y-22420D01*
X33464Y-22420D01*
X33464Y-22499D01*
X33081Y-22499D01*
X33051Y-22529D01*
X33021Y-22499D01*
X32637Y-22499D01*
X32637Y-22782D01*
X32687Y-22831D01*
X32834Y-22831D01*
X32912Y-22831D01*
X32985Y-22801D01*
X33040Y-22746D01*
X33051Y-22719D01*
X33061Y-22746D01*
X33117Y-22801D01*
X33189Y-22831D01*
X33267Y-22831D01*
X33415Y-22831D01*
X33464Y-22782D01*
X33464Y-22916D01*
X33205Y-22916D01*
X33162Y-22934D01*
X33128Y-22967D01*
X33110Y-23011D01*
X33110Y-23012D01*
X32991Y-23012D01*
X32991Y-23011D01*
X32973Y-22967D01*
X32940Y-22934D01*
X32897Y-22916D01*
X32850Y-22916D01*
X32300Y-22916D01*
X32256Y-22934D01*
X32223Y-22967D01*
X32205Y-23011D01*
X32205Y-23058D01*
X32205Y-23408D01*
X32208Y-23416D01*
X32165Y-23373D01*
X32165Y-22754D01*
X32211Y-22801D01*
X32284Y-22831D01*
X32362Y-22831D01*
X32509Y-22831D01*
X32559Y-22782D01*
X32559Y-22499D01*
X32551Y-22499D01*
X32551Y-22420D01*
X32559Y-22420D01*
X32559Y-22137D01*
X32509Y-22087D01*
X32362Y-22087D01*
X32284Y-22087D01*
X32211Y-22117D01*
X32165Y-22164D01*
X32165Y-20501D01*
X32150Y-20426D01*
X32107Y-20362D01*
X32107Y-20362D01*
X32007Y-20262D01*
X32017Y-20258D01*
X32073Y-20202D01*
X32103Y-20130D01*
X32103Y-20052D01*
X32103Y-19530D01*
X32103Y-19452D01*
X32073Y-19379D01*
X32017Y-19324D01*
X31945Y-19294D01*
X31694Y-19294D01*
X31645Y-19343D01*
X31645Y-19751D01*
X32053Y-19751D01*
X32103Y-19702D01*
X32103Y-19530D01*
X32103Y-20052D01*
X32103Y-19879D01*
X32053Y-19830D01*
X31645Y-19830D01*
X31645Y-19838D01*
X31566Y-19838D01*
X31566Y-19830D01*
X31566Y-19751D01*
X31566Y-19343D01*
X31517Y-19294D01*
X31267Y-19294D01*
X31194Y-19324D01*
X31139Y-19379D01*
X31109Y-19452D01*
X31109Y-19530D01*
X31109Y-19702D01*
X31158Y-19751D01*
X31566Y-19751D01*
X31566Y-19830D01*
X31158Y-19830D01*
X31109Y-19879D01*
X31109Y-20014D01*
X31008Y-19913D01*
X31024Y-19874D01*
X31024Y-19708D01*
X30960Y-19554D01*
X30843Y-19437D01*
X30689Y-19373D01*
X30523Y-19373D01*
X30369Y-19436D01*
X30252Y-19554D01*
X30188Y-19707D01*
X30188Y-19874D01*
X30251Y-20027D01*
X30369Y-20145D01*
X30522Y-20209D01*
X30689Y-20209D01*
X30730Y-20192D01*
X30933Y-20395D01*
X30997Y-20437D01*
X31072Y-20452D01*
X31188Y-20452D01*
X31640Y-20452D01*
X31771Y-20583D01*
X31771Y-23454D01*
X31779Y-23494D01*
X31247Y-23494D01*
X31240Y-23477D01*
X31168Y-23405D01*
X31074Y-23366D01*
X30972Y-23366D01*
X30881Y-23403D01*
X30881Y-22889D01*
X30866Y-22814D01*
X30824Y-22750D01*
X30824Y-22750D01*
X30375Y-22301D01*
X30311Y-22259D01*
X30236Y-22244D01*
X29503Y-22244D01*
X29545Y-22145D01*
X29545Y-22071D01*
X29745Y-21871D01*
X29745Y-21871D01*
X29788Y-21807D01*
X29803Y-21732D01*
X29803Y-21732D01*
X29803Y-20162D01*
X29842Y-20146D01*
X29960Y-20028D01*
X30024Y-19874D01*
X30024Y-19708D01*
X29960Y-19554D01*
X29843Y-19437D01*
X29689Y-19373D01*
X29523Y-19373D01*
X29369Y-19436D01*
X29330Y-19475D01*
X29330Y-19345D01*
X29483Y-19192D01*
X29522Y-19209D01*
X29689Y-19209D01*
X29842Y-19146D01*
X29960Y-19028D01*
X30024Y-18874D01*
X30024Y-18708D01*
X29960Y-18554D01*
X29910Y-18503D01*
X30302Y-18503D01*
X30252Y-18554D01*
X30188Y-18707D01*
X30188Y-18874D01*
X30251Y-19027D01*
X30369Y-19145D01*
X30522Y-19209D01*
X30689Y-19209D01*
X30842Y-19146D01*
X30960Y-19028D01*
X31024Y-18874D01*
X31024Y-18708D01*
X30960Y-18554D01*
X30910Y-18503D01*
X31302Y-18503D01*
X31252Y-18554D01*
X31188Y-18707D01*
X31188Y-18874D01*
X31251Y-19027D01*
X31369Y-19145D01*
X31522Y-19209D01*
X31689Y-19209D01*
X31842Y-19146D01*
X31960Y-19028D01*
X31969Y-19005D01*
X32467Y-19005D01*
X32509Y-19048D01*
X32509Y-19842D01*
X32524Y-19917D01*
X32567Y-19981D01*
X32931Y-20345D01*
X32931Y-20345D01*
X32995Y-20388D01*
X33070Y-20403D01*
X35144Y-20403D01*
X35403Y-20662D01*
X35403Y-20689D01*
X35074Y-20689D01*
X35031Y-20707D01*
X34998Y-20740D01*
X34980Y-20783D01*
X34980Y-20830D01*
X34980Y-21814D01*
X34998Y-21858D01*
X35031Y-21891D01*
X35074Y-21909D01*
X35121Y-21909D01*
X35403Y-21909D01*
X35403Y-22169D01*
G54D10*
G36*
X38086Y-20826D02*
X38043Y-20844D01*
X38041Y-20846D01*
X37775Y-20846D01*
X37700Y-20861D01*
X37636Y-20904D01*
X37438Y-21102D01*
X37384Y-21102D01*
X37384Y-21055D01*
X37384Y-20695D01*
X37366Y-20652D01*
X37333Y-20619D01*
X37290Y-20601D01*
X37243Y-20601D01*
X36883Y-20601D01*
X36839Y-20619D01*
X36806Y-20652D01*
X36788Y-20695D01*
X36788Y-20702D01*
X36571Y-20702D01*
X36181Y-20312D01*
X36181Y-19527D01*
X36166Y-19452D01*
X36123Y-19388D01*
X36123Y-19388D01*
X35769Y-19034D01*
X35705Y-18991D01*
X35629Y-18976D01*
X35201Y-18976D01*
X35185Y-18936D01*
X35067Y-18818D01*
X34914Y-18755D01*
X34747Y-18755D01*
X34594Y-18818D01*
X34476Y-18936D01*
X34412Y-19089D01*
X34412Y-19256D01*
X34476Y-19409D01*
X34593Y-19527D01*
X34747Y-19591D01*
X34913Y-19591D01*
X35067Y-19527D01*
X35184Y-19410D01*
X35201Y-19370D01*
X35548Y-19370D01*
X35787Y-19609D01*
X35787Y-20393D01*
X35802Y-20469D01*
X35845Y-20532D01*
X36001Y-20689D01*
X35797Y-20689D01*
X35797Y-20580D01*
X35782Y-20505D01*
X35739Y-20441D01*
X35739Y-20441D01*
X35365Y-20067D01*
X35301Y-20024D01*
X35226Y-20009D01*
X34327Y-20009D01*
X34327Y-19434D01*
X34327Y-18912D01*
X34327Y-18833D01*
X34297Y-18761D01*
X34242Y-18706D01*
X34169Y-18676D01*
X33919Y-18676D01*
X33870Y-18725D01*
X33870Y-19133D01*
X34278Y-19133D01*
X34327Y-19084D01*
X34327Y-18912D01*
X34327Y-19434D01*
X34327Y-19261D01*
X34278Y-19212D01*
X33870Y-19212D01*
X33870Y-19620D01*
X33919Y-19670D01*
X34169Y-19670D01*
X34242Y-19640D01*
X34297Y-19584D01*
X34327Y-19512D01*
X34327Y-19434D01*
X34327Y-20009D01*
X33791Y-20009D01*
X33791Y-19620D01*
X33791Y-19212D01*
X33791Y-19133D01*
X33791Y-18725D01*
X33742Y-18676D01*
X33491Y-18676D01*
X33419Y-18706D01*
X33363Y-18761D01*
X33333Y-18833D01*
X33333Y-18912D01*
X33333Y-19084D01*
X33383Y-19133D01*
X33791Y-19133D01*
X33791Y-19212D01*
X33383Y-19212D01*
X33333Y-19261D01*
X33333Y-19434D01*
X33333Y-19512D01*
X33363Y-19584D01*
X33419Y-19640D01*
X33491Y-19670D01*
X33742Y-19670D01*
X33791Y-19620D01*
X33791Y-20009D01*
X33152Y-20009D01*
X32903Y-19760D01*
X32903Y-18966D01*
X32888Y-18891D01*
X32845Y-18827D01*
X32845Y-18827D01*
X32688Y-18669D01*
X32624Y-18627D01*
X32549Y-18612D01*
X31984Y-18612D01*
X31960Y-18554D01*
X31910Y-18503D01*
X35322Y-18503D01*
X36258Y-19440D01*
X36258Y-19440D01*
X36322Y-19483D01*
X36397Y-19498D01*
X36627Y-19498D01*
X36570Y-19554D01*
X36507Y-19707D01*
X36507Y-19874D01*
X36570Y-20027D01*
X36688Y-20145D01*
X36841Y-20209D01*
X37007Y-20209D01*
X37048Y-20192D01*
X37624Y-20769D01*
X37624Y-20769D01*
X37688Y-20811D01*
X37763Y-20826D01*
X37763Y-20826D01*
X38086Y-20826D01*
X38086Y-20826D01*
G37*
G54D22*
X38086Y-20826D02*
X38043Y-20844D01*
X38041Y-20846D01*
X37775Y-20846D01*
X37700Y-20861D01*
X37636Y-20904D01*
X37438Y-21102D01*
X37384Y-21102D01*
X37384Y-21055D01*
X37384Y-20695D01*
X37366Y-20652D01*
X37333Y-20619D01*
X37290Y-20601D01*
X37243Y-20601D01*
X36883Y-20601D01*
X36839Y-20619D01*
X36806Y-20652D01*
X36788Y-20695D01*
X36788Y-20702D01*
X36571Y-20702D01*
X36181Y-20312D01*
X36181Y-19527D01*
X36166Y-19452D01*
X36123Y-19388D01*
X36123Y-19388D01*
X35769Y-19034D01*
X35705Y-18991D01*
X35629Y-18976D01*
X35201Y-18976D01*
X35185Y-18936D01*
X35067Y-18818D01*
X34914Y-18755D01*
X34747Y-18755D01*
X34594Y-18818D01*
X34476Y-18936D01*
X34412Y-19089D01*
X34412Y-19256D01*
X34476Y-19409D01*
X34593Y-19527D01*
X34747Y-19591D01*
X34913Y-19591D01*
X35067Y-19527D01*
X35184Y-19410D01*
X35201Y-19370D01*
X35548Y-19370D01*
X35787Y-19609D01*
X35787Y-20393D01*
X35802Y-20469D01*
X35845Y-20532D01*
X36001Y-20689D01*
X35797Y-20689D01*
X35797Y-20580D01*
X35782Y-20505D01*
X35739Y-20441D01*
X35739Y-20441D01*
X35365Y-20067D01*
X35301Y-20024D01*
X35226Y-20009D01*
X34327Y-20009D01*
X34327Y-19434D01*
X34327Y-18912D01*
X34327Y-18833D01*
X34297Y-18761D01*
X34242Y-18706D01*
X34169Y-18676D01*
X33919Y-18676D01*
X33870Y-18725D01*
X33870Y-19133D01*
X34278Y-19133D01*
X34327Y-19084D01*
X34327Y-18912D01*
X34327Y-19434D01*
X34327Y-19261D01*
X34278Y-19212D01*
X33870Y-19212D01*
X33870Y-19620D01*
X33919Y-19670D01*
X34169Y-19670D01*
X34242Y-19640D01*
X34297Y-19584D01*
X34327Y-19512D01*
X34327Y-19434D01*
X34327Y-20009D01*
X33791Y-20009D01*
X33791Y-19620D01*
X33791Y-19212D01*
X33791Y-19133D01*
X33791Y-18725D01*
X33742Y-18676D01*
X33491Y-18676D01*
X33419Y-18706D01*
X33363Y-18761D01*
X33333Y-18833D01*
X33333Y-18912D01*
X33333Y-19084D01*
X33383Y-19133D01*
X33791Y-19133D01*
X33791Y-19212D01*
X33383Y-19212D01*
X33333Y-19261D01*
X33333Y-19434D01*
X33333Y-19512D01*
X33363Y-19584D01*
X33419Y-19640D01*
X33491Y-19670D01*
X33742Y-19670D01*
X33791Y-19620D01*
X33791Y-20009D01*
X33152Y-20009D01*
X32903Y-19760D01*
X32903Y-18966D01*
X32888Y-18891D01*
X32845Y-18827D01*
X32845Y-18827D01*
X32688Y-18669D01*
X32624Y-18627D01*
X32549Y-18612D01*
X31984Y-18612D01*
X31960Y-18554D01*
X31910Y-18503D01*
X35322Y-18503D01*
X36258Y-19440D01*
X36258Y-19440D01*
X36322Y-19483D01*
X36397Y-19498D01*
X36627Y-19498D01*
X36570Y-19554D01*
X36507Y-19707D01*
X36507Y-19874D01*
X36570Y-20027D01*
X36688Y-20145D01*
X36841Y-20209D01*
X37007Y-20209D01*
X37048Y-20192D01*
X37624Y-20769D01*
X37624Y-20769D01*
X37688Y-20811D01*
X37763Y-20826D01*
X37763Y-20826D01*
X38086Y-20826D01*
G54D10*
G36*
X39209Y-21771D02*
X39131Y-21850D01*
X38937Y-21850D01*
X38861Y-21865D01*
X38797Y-21908D01*
X38571Y-22134D01*
X38528Y-22198D01*
X38513Y-22273D01*
X38513Y-22421D01*
X38185Y-22421D01*
X38141Y-22439D01*
X38108Y-22472D01*
X38090Y-22515D01*
X38090Y-22562D01*
X38090Y-22834D01*
X37992Y-22834D01*
X37916Y-22849D01*
X37852Y-22892D01*
X37656Y-23089D01*
X37613Y-23153D01*
X37598Y-23228D01*
X37598Y-23412D01*
X37516Y-23494D01*
X37421Y-23494D01*
X37421Y-23484D01*
X37421Y-22578D01*
X37421Y-22500D01*
X37391Y-22427D01*
X37335Y-22372D01*
X37263Y-22342D01*
X37113Y-22342D01*
X37113Y-21840D01*
X37113Y-21787D01*
X37064Y-21738D01*
X36775Y-21738D01*
X36775Y-22026D01*
X36825Y-22076D01*
X36955Y-22076D01*
X37027Y-22046D01*
X37083Y-21990D01*
X37113Y-21918D01*
X37113Y-21840D01*
X37113Y-22342D01*
X36811Y-22342D01*
X36761Y-22391D01*
X36761Y-22992D01*
X37372Y-22992D01*
X37421Y-22942D01*
X37421Y-22578D01*
X37421Y-23484D01*
X37421Y-23120D01*
X37372Y-23070D01*
X36761Y-23070D01*
X36761Y-23078D01*
X36697Y-23078D01*
X36697Y-22026D01*
X36697Y-21738D01*
X36408Y-21738D01*
X36359Y-21787D01*
X36359Y-21840D01*
X36359Y-21918D01*
X36389Y-21990D01*
X36445Y-22046D01*
X36517Y-22076D01*
X36648Y-22076D01*
X36697Y-22026D01*
X36697Y-23078D01*
X36683Y-23078D01*
X36683Y-23070D01*
X36675Y-23070D01*
X36675Y-22992D01*
X36683Y-22992D01*
X36683Y-22391D01*
X36633Y-22342D01*
X36181Y-22342D01*
X36109Y-22372D01*
X36101Y-22379D01*
X36101Y-22261D01*
X36083Y-22217D01*
X36050Y-22184D01*
X36007Y-22166D01*
X35960Y-22166D01*
X35797Y-22166D01*
X35797Y-21909D01*
X36125Y-21909D01*
X36169Y-21891D01*
X36202Y-21858D01*
X36220Y-21814D01*
X36220Y-21767D01*
X36220Y-21496D01*
X36359Y-21496D01*
X36359Y-21558D01*
X36359Y-21610D01*
X36408Y-21659D01*
X36697Y-21659D01*
X36697Y-21651D01*
X36775Y-21651D01*
X36775Y-21659D01*
X37064Y-21659D01*
X37113Y-21610D01*
X37113Y-21558D01*
X37113Y-21496D01*
X37138Y-21496D01*
X37138Y-21542D01*
X37138Y-21902D01*
X37156Y-21946D01*
X37189Y-21979D01*
X37233Y-21997D01*
X37280Y-21997D01*
X37640Y-21997D01*
X37683Y-21979D01*
X37716Y-21946D01*
X37734Y-21902D01*
X37734Y-21855D01*
X37734Y-21495D01*
X37716Y-21452D01*
X37683Y-21419D01*
X37679Y-21417D01*
X37857Y-21240D01*
X37942Y-21240D01*
X37962Y-21259D01*
X38132Y-21259D01*
X38133Y-21259D01*
X38314Y-21259D01*
X38314Y-21338D01*
X38086Y-21338D01*
X38086Y-21338D01*
X37962Y-21338D01*
X37913Y-21387D01*
X37913Y-21436D01*
X37942Y-21509D01*
X37991Y-21558D01*
X37991Y-21677D01*
X38009Y-21720D01*
X38042Y-21753D01*
X38086Y-21771D01*
X38133Y-21771D01*
X38448Y-21771D01*
X38491Y-21753D01*
X38493Y-21752D01*
X38523Y-21752D01*
X38523Y-21752D01*
X38598Y-21737D01*
X38662Y-21694D01*
X38761Y-21595D01*
X38761Y-21595D01*
X38779Y-21568D01*
X38779Y-21677D01*
X38797Y-21720D01*
X38830Y-21753D01*
X38874Y-21771D01*
X38921Y-21771D01*
X39209Y-21771D01*
X39209Y-21771D01*
G37*
G54D22*
X39209Y-21771D02*
X39131Y-21850D01*
X38937Y-21850D01*
X38861Y-21865D01*
X38797Y-21908D01*
X38571Y-22134D01*
X38528Y-22198D01*
X38513Y-22273D01*
X38513Y-22421D01*
X38185Y-22421D01*
X38141Y-22439D01*
X38108Y-22472D01*
X38090Y-22515D01*
X38090Y-22562D01*
X38090Y-22834D01*
X37992Y-22834D01*
X37916Y-22849D01*
X37852Y-22892D01*
X37656Y-23089D01*
X37613Y-23153D01*
X37598Y-23228D01*
X37598Y-23412D01*
X37516Y-23494D01*
X37421Y-23494D01*
X37421Y-23484D01*
X37421Y-22578D01*
X37421Y-22500D01*
X37391Y-22427D01*
X37335Y-22372D01*
X37263Y-22342D01*
X37113Y-22342D01*
X37113Y-21840D01*
X37113Y-21787D01*
X37064Y-21738D01*
X36775Y-21738D01*
X36775Y-22026D01*
X36825Y-22076D01*
X36955Y-22076D01*
X37027Y-22046D01*
X37083Y-21990D01*
X37113Y-21918D01*
X37113Y-21840D01*
X37113Y-22342D01*
X36811Y-22342D01*
X36761Y-22391D01*
X36761Y-22992D01*
X37372Y-22992D01*
X37421Y-22942D01*
X37421Y-22578D01*
X37421Y-23484D01*
X37421Y-23120D01*
X37372Y-23070D01*
X36761Y-23070D01*
X36761Y-23078D01*
X36697Y-23078D01*
X36697Y-22026D01*
X36697Y-21738D01*
X36408Y-21738D01*
X36359Y-21787D01*
X36359Y-21840D01*
X36359Y-21918D01*
X36389Y-21990D01*
X36445Y-22046D01*
X36517Y-22076D01*
X36648Y-22076D01*
X36697Y-22026D01*
X36697Y-23078D01*
X36683Y-23078D01*
X36683Y-23070D01*
X36675Y-23070D01*
X36675Y-22992D01*
X36683Y-22992D01*
X36683Y-22391D01*
X36633Y-22342D01*
X36181Y-22342D01*
X36109Y-22372D01*
X36101Y-22379D01*
X36101Y-22261D01*
X36083Y-22217D01*
X36050Y-22184D01*
X36007Y-22166D01*
X35960Y-22166D01*
X35797Y-22166D01*
X35797Y-21909D01*
X36125Y-21909D01*
X36169Y-21891D01*
X36202Y-21858D01*
X36220Y-21814D01*
X36220Y-21767D01*
X36220Y-21496D01*
X36359Y-21496D01*
X36359Y-21558D01*
X36359Y-21610D01*
X36408Y-21659D01*
X36697Y-21659D01*
X36697Y-21651D01*
X36775Y-21651D01*
X36775Y-21659D01*
X37064Y-21659D01*
X37113Y-21610D01*
X37113Y-21558D01*
X37113Y-21496D01*
X37138Y-21496D01*
X37138Y-21542D01*
X37138Y-21902D01*
X37156Y-21946D01*
X37189Y-21979D01*
X37233Y-21997D01*
X37280Y-21997D01*
X37640Y-21997D01*
X37683Y-21979D01*
X37716Y-21946D01*
X37734Y-21902D01*
X37734Y-21855D01*
X37734Y-21495D01*
X37716Y-21452D01*
X37683Y-21419D01*
X37679Y-21417D01*
X37857Y-21240D01*
X37942Y-21240D01*
X37962Y-21259D01*
X38132Y-21259D01*
X38133Y-21259D01*
X38314Y-21259D01*
X38314Y-21338D01*
X38086Y-21338D01*
X38086Y-21338D01*
X37962Y-21338D01*
X37913Y-21387D01*
X37913Y-21436D01*
X37942Y-21509D01*
X37991Y-21558D01*
X37991Y-21677D01*
X38009Y-21720D01*
X38042Y-21753D01*
X38086Y-21771D01*
X38133Y-21771D01*
X38448Y-21771D01*
X38491Y-21753D01*
X38493Y-21752D01*
X38523Y-21752D01*
X38523Y-21752D01*
X38598Y-21737D01*
X38662Y-21694D01*
X38761Y-21595D01*
X38761Y-21595D01*
X38779Y-21568D01*
X38779Y-21677D01*
X38797Y-21720D01*
X38830Y-21753D01*
X38874Y-21771D01*
X38921Y-21771D01*
X39209Y-21771D01*
G54D10*
G36*
X40154Y-25196D02*
X39020Y-26330D01*
X39008Y-26326D01*
X38842Y-26325D01*
X38688Y-26389D01*
X38570Y-26506D01*
X38507Y-26660D01*
X38507Y-26826D01*
X38570Y-26980D01*
X38637Y-27047D01*
X38425Y-27047D01*
X38349Y-27062D01*
X38286Y-27104D01*
X38048Y-27342D01*
X38008Y-27326D01*
X37842Y-27325D01*
X37688Y-27389D01*
X37570Y-27506D01*
X37507Y-27660D01*
X37507Y-27826D01*
X37570Y-27980D01*
X37688Y-28098D01*
X37841Y-28162D01*
X38007Y-28162D01*
X38161Y-28098D01*
X38279Y-27981D01*
X38343Y-27827D01*
X38343Y-27661D01*
X38326Y-27620D01*
X38506Y-27440D01*
X38637Y-27440D01*
X38570Y-27506D01*
X38507Y-27660D01*
X38507Y-27826D01*
X38570Y-27980D01*
X38688Y-28098D01*
X38841Y-28162D01*
X39007Y-28162D01*
X39048Y-28145D01*
X39152Y-28249D01*
X39152Y-28249D01*
X39152Y-28249D01*
X39180Y-28277D01*
X35445Y-28277D01*
X35445Y-27141D01*
X35306Y-26803D01*
X35048Y-26544D01*
X34710Y-26404D01*
X34345Y-26404D01*
X34008Y-26544D01*
X33749Y-26802D01*
X33609Y-27139D01*
X33609Y-27504D01*
X33748Y-27842D01*
X34006Y-28100D01*
X34344Y-28240D01*
X34709Y-28241D01*
X35046Y-28101D01*
X35305Y-27843D01*
X35445Y-27506D01*
X35445Y-27141D01*
X35445Y-28277D01*
X32394Y-28277D01*
X32658Y-28013D01*
X32658Y-28013D01*
X32658Y-28013D01*
X32895Y-27776D01*
X32973Y-27698D01*
X32973Y-27698D01*
X33016Y-27634D01*
X33031Y-27559D01*
X33031Y-27559D01*
X33031Y-24727D01*
X33231Y-24527D01*
X34803Y-24527D01*
X34803Y-24527D01*
X34878Y-24512D01*
X34942Y-24469D01*
X35099Y-24312D01*
X35099Y-24312D01*
X35142Y-24248D01*
X35155Y-24182D01*
X35177Y-24160D01*
X35216Y-24066D01*
X35216Y-23965D01*
X35184Y-23887D01*
X36141Y-23887D01*
X36141Y-27165D01*
X36156Y-27240D01*
X36199Y-27304D01*
X36521Y-27626D01*
X36507Y-27660D01*
X36507Y-27826D01*
X36570Y-27980D01*
X36688Y-28098D01*
X36841Y-28162D01*
X37007Y-28162D01*
X37161Y-28098D01*
X37279Y-27981D01*
X37343Y-27827D01*
X37343Y-27661D01*
X37279Y-27507D01*
X37162Y-27389D01*
X37008Y-27326D01*
X36842Y-27325D01*
X36796Y-27344D01*
X36692Y-27240D01*
X36836Y-27240D01*
X36885Y-27191D01*
X36885Y-26783D01*
X36877Y-26783D01*
X36877Y-26704D01*
X36885Y-26704D01*
X36885Y-26296D01*
X36836Y-26247D01*
X36586Y-26247D01*
X36535Y-26268D01*
X36535Y-23939D01*
X36587Y-23887D01*
X37598Y-23887D01*
X37598Y-23887D01*
X37673Y-23872D01*
X37737Y-23830D01*
X37934Y-23633D01*
X37934Y-23633D01*
X37977Y-23569D01*
X37992Y-23494D01*
X37992Y-23494D01*
X37992Y-23309D01*
X38073Y-23228D01*
X38090Y-23228D01*
X38090Y-23546D01*
X38108Y-23590D01*
X38141Y-23623D01*
X38184Y-23641D01*
X38231Y-23641D01*
X38513Y-23641D01*
X38513Y-24633D01*
X38166Y-24980D01*
X38138Y-24980D01*
X38044Y-25019D01*
X37972Y-25091D01*
X37933Y-25185D01*
X37933Y-25286D01*
X37971Y-25380D01*
X38043Y-25453D01*
X38102Y-25477D01*
X37312Y-26267D01*
X37264Y-26247D01*
X37013Y-26247D01*
X36964Y-26296D01*
X36964Y-26704D01*
X36972Y-26704D01*
X36972Y-26783D01*
X36964Y-26783D01*
X36964Y-27191D01*
X37013Y-27240D01*
X37185Y-27240D01*
X37184Y-27294D01*
X37223Y-27388D01*
X37295Y-27460D01*
X37389Y-27499D01*
X37491Y-27500D01*
X37585Y-27461D01*
X37657Y-27389D01*
X37696Y-27295D01*
X37696Y-27193D01*
X37658Y-27099D01*
X37637Y-27079D01*
X37637Y-27048D01*
X37688Y-27098D01*
X37841Y-27162D01*
X38007Y-27162D01*
X38161Y-27098D01*
X38279Y-26981D01*
X38343Y-26827D01*
X38343Y-26661D01*
X38331Y-26632D01*
X39766Y-25196D01*
X40154Y-25196D01*
X40154Y-25196D01*
G37*
G54D22*
X40154Y-25196D02*
X39020Y-26330D01*
X39008Y-26326D01*
X38842Y-26325D01*
X38688Y-26389D01*
X38570Y-26506D01*
X38507Y-26660D01*
X38507Y-26826D01*
X38570Y-26980D01*
X38637Y-27047D01*
X38425Y-27047D01*
X38349Y-27062D01*
X38286Y-27104D01*
X38048Y-27342D01*
X38008Y-27326D01*
X37842Y-27325D01*
X37688Y-27389D01*
X37570Y-27506D01*
X37507Y-27660D01*
X37507Y-27826D01*
X37570Y-27980D01*
X37688Y-28098D01*
X37841Y-28162D01*
X38007Y-28162D01*
X38161Y-28098D01*
X38279Y-27981D01*
X38343Y-27827D01*
X38343Y-27661D01*
X38326Y-27620D01*
X38506Y-27440D01*
X38637Y-27440D01*
X38570Y-27506D01*
X38507Y-27660D01*
X38507Y-27826D01*
X38570Y-27980D01*
X38688Y-28098D01*
X38841Y-28162D01*
X39007Y-28162D01*
X39048Y-28145D01*
X39152Y-28249D01*
X39152Y-28249D01*
X39152Y-28249D01*
X39180Y-28277D01*
X35445Y-28277D01*
X35445Y-27141D01*
X35306Y-26803D01*
X35048Y-26544D01*
X34710Y-26404D01*
X34345Y-26404D01*
X34008Y-26544D01*
X33749Y-26802D01*
X33609Y-27139D01*
X33609Y-27504D01*
X33748Y-27842D01*
X34006Y-28100D01*
X34344Y-28240D01*
X34709Y-28241D01*
X35046Y-28101D01*
X35305Y-27843D01*
X35445Y-27506D01*
X35445Y-27141D01*
X35445Y-28277D01*
X32394Y-28277D01*
X32658Y-28013D01*
X32658Y-28013D01*
X32658Y-28013D01*
X32895Y-27776D01*
X32973Y-27698D01*
X32973Y-27698D01*
X33016Y-27634D01*
X33031Y-27559D01*
X33031Y-27559D01*
X33031Y-24727D01*
X33231Y-24527D01*
X34803Y-24527D01*
X34803Y-24527D01*
X34878Y-24512D01*
X34942Y-24469D01*
X35099Y-24312D01*
X35099Y-24312D01*
X35142Y-24248D01*
X35155Y-24182D01*
X35177Y-24160D01*
X35216Y-24066D01*
X35216Y-23965D01*
X35184Y-23887D01*
X36141Y-23887D01*
X36141Y-27165D01*
X36156Y-27240D01*
X36199Y-27304D01*
X36521Y-27626D01*
X36507Y-27660D01*
X36507Y-27826D01*
X36570Y-27980D01*
X36688Y-28098D01*
X36841Y-28162D01*
X37007Y-28162D01*
X37161Y-28098D01*
X37279Y-27981D01*
X37343Y-27827D01*
X37343Y-27661D01*
X37279Y-27507D01*
X37162Y-27389D01*
X37008Y-27326D01*
X36842Y-27325D01*
X36796Y-27344D01*
X36692Y-27240D01*
X36836Y-27240D01*
X36885Y-27191D01*
X36885Y-26783D01*
X36877Y-26783D01*
X36877Y-26704D01*
X36885Y-26704D01*
X36885Y-26296D01*
X36836Y-26247D01*
X36586Y-26247D01*
X36535Y-26268D01*
X36535Y-23939D01*
X36587Y-23887D01*
X37598Y-23887D01*
X37598Y-23887D01*
X37673Y-23872D01*
X37737Y-23830D01*
X37934Y-23633D01*
X37934Y-23633D01*
X37977Y-23569D01*
X37992Y-23494D01*
X37992Y-23494D01*
X37992Y-23309D01*
X38073Y-23228D01*
X38090Y-23228D01*
X38090Y-23546D01*
X38108Y-23590D01*
X38141Y-23623D01*
X38184Y-23641D01*
X38231Y-23641D01*
X38513Y-23641D01*
X38513Y-24633D01*
X38166Y-24980D01*
X38138Y-24980D01*
X38044Y-25019D01*
X37972Y-25091D01*
X37933Y-25185D01*
X37933Y-25286D01*
X37971Y-25380D01*
X38043Y-25453D01*
X38102Y-25477D01*
X37312Y-26267D01*
X37264Y-26247D01*
X37013Y-26247D01*
X36964Y-26296D01*
X36964Y-26704D01*
X36972Y-26704D01*
X36972Y-26783D01*
X36964Y-26783D01*
X36964Y-27191D01*
X37013Y-27240D01*
X37185Y-27240D01*
X37184Y-27294D01*
X37223Y-27388D01*
X37295Y-27460D01*
X37389Y-27499D01*
X37491Y-27500D01*
X37585Y-27461D01*
X37657Y-27389D01*
X37696Y-27295D01*
X37696Y-27193D01*
X37658Y-27099D01*
X37637Y-27079D01*
X37637Y-27048D01*
X37688Y-27098D01*
X37841Y-27162D01*
X38007Y-27162D01*
X38161Y-27098D01*
X38279Y-26981D01*
X38343Y-26827D01*
X38343Y-26661D01*
X38331Y-26632D01*
X39766Y-25196D01*
X40154Y-25196D01*
G54D10*
G36*
X40472Y-24642D02*
X40312Y-24803D01*
X39685Y-24803D01*
X39609Y-24818D01*
X39545Y-24860D01*
X38059Y-26347D01*
X38008Y-26326D01*
X37842Y-26325D01*
X37788Y-26348D01*
X39902Y-24233D01*
X39945Y-24169D01*
X39960Y-24094D01*
X39960Y-24094D01*
X39960Y-22094D01*
X40012Y-22145D01*
X40106Y-22184D01*
X40134Y-22185D01*
X40472Y-22522D01*
X40472Y-24642D01*
X40472Y-24642D01*
G37*
G54D22*
X40472Y-24642D02*
X40312Y-24803D01*
X39685Y-24803D01*
X39609Y-24818D01*
X39545Y-24860D01*
X38059Y-26347D01*
X38008Y-26326D01*
X37842Y-26325D01*
X37788Y-26348D01*
X39902Y-24233D01*
X39945Y-24169D01*
X39960Y-24094D01*
X39960Y-24094D01*
X39960Y-22094D01*
X40012Y-22145D01*
X40106Y-22184D01*
X40134Y-22185D01*
X40472Y-22522D01*
X40472Y-24642D01*
G54D10*
G36*
X40924Y-21984D02*
X39122Y-20182D01*
X39122Y-20162D01*
X39161Y-20146D01*
X39279Y-20028D01*
X39343Y-19874D01*
X39343Y-19708D01*
X39279Y-19554D01*
X39162Y-19437D01*
X39008Y-19373D01*
X38842Y-19373D01*
X38688Y-19436D01*
X38570Y-19554D01*
X38507Y-19707D01*
X38507Y-19874D01*
X38570Y-20027D01*
X38688Y-20145D01*
X38728Y-20162D01*
X38728Y-20263D01*
X38743Y-20339D01*
X38786Y-20402D01*
X38816Y-20433D01*
X37845Y-20433D01*
X37326Y-19914D01*
X37343Y-19874D01*
X37343Y-19708D01*
X37279Y-19554D01*
X37162Y-19437D01*
X37122Y-19420D01*
X37122Y-19301D01*
X37122Y-19162D01*
X37161Y-19146D01*
X37279Y-19028D01*
X37343Y-18874D01*
X37343Y-18708D01*
X37279Y-18554D01*
X37162Y-18437D01*
X37008Y-18373D01*
X36842Y-18373D01*
X36688Y-18436D01*
X36570Y-18554D01*
X36507Y-18707D01*
X36507Y-18874D01*
X36570Y-19027D01*
X36646Y-19104D01*
X36479Y-19104D01*
X35632Y-18257D01*
X38471Y-18257D01*
X38286Y-18443D01*
X38243Y-18507D01*
X38237Y-18534D01*
X38237Y-18534D01*
X38219Y-18552D01*
X38219Y-18441D01*
X38190Y-18359D01*
X38004Y-18291D01*
X37807Y-18298D01*
X37660Y-18359D01*
X37630Y-18441D01*
X37925Y-18735D01*
X38219Y-18441D01*
X38219Y-18552D01*
X37980Y-18791D01*
X37986Y-18796D01*
X37930Y-18852D01*
X37925Y-18847D01*
X37869Y-18902D01*
X37869Y-18791D01*
X37575Y-18496D01*
X37493Y-18526D01*
X37424Y-18711D01*
X37432Y-18909D01*
X37493Y-19056D01*
X37575Y-19085D01*
X37869Y-18791D01*
X37869Y-18902D01*
X37630Y-19141D01*
X37660Y-19223D01*
X37845Y-19291D01*
X38043Y-19284D01*
X38190Y-19223D01*
X38219Y-19141D01*
X38219Y-19141D01*
X38228Y-19150D01*
X38228Y-19209D01*
X38219Y-19218D01*
X38048Y-19389D01*
X38008Y-19373D01*
X37842Y-19373D01*
X37688Y-19436D01*
X37570Y-19554D01*
X37507Y-19707D01*
X37507Y-19874D01*
X37570Y-20027D01*
X37688Y-20145D01*
X37841Y-20209D01*
X38007Y-20209D01*
X38161Y-20146D01*
X38279Y-20028D01*
X38343Y-19874D01*
X38343Y-19708D01*
X38326Y-19668D01*
X38525Y-19469D01*
X38525Y-19469D01*
X38525Y-19469D01*
X38564Y-19430D01*
X38564Y-19430D01*
X38607Y-19366D01*
X38622Y-19291D01*
X38622Y-19291D01*
X38622Y-19079D01*
X38688Y-19145D01*
X38841Y-19209D01*
X39007Y-19209D01*
X39037Y-19197D01*
X39270Y-19430D01*
X39270Y-19430D01*
X39334Y-19473D01*
X39409Y-19488D01*
X39507Y-19488D01*
X39507Y-19514D01*
X39507Y-20114D01*
X39525Y-20158D01*
X39558Y-20191D01*
X39601Y-20209D01*
X39648Y-20209D01*
X39728Y-20209D01*
X39728Y-20437D01*
X39743Y-20512D01*
X39786Y-20576D01*
X40876Y-21666D01*
X40869Y-21684D01*
X40869Y-21850D01*
X40924Y-21984D01*
X40924Y-21984D01*
G37*
G54D22*
X40924Y-21984D02*
X39122Y-20182D01*
X39122Y-20162D01*
X39161Y-20146D01*
X39279Y-20028D01*
X39343Y-19874D01*
X39343Y-19708D01*
X39279Y-19554D01*
X39162Y-19437D01*
X39008Y-19373D01*
X38842Y-19373D01*
X38688Y-19436D01*
X38570Y-19554D01*
X38507Y-19707D01*
X38507Y-19874D01*
X38570Y-20027D01*
X38688Y-20145D01*
X38728Y-20162D01*
X38728Y-20263D01*
X38743Y-20339D01*
X38786Y-20402D01*
X38816Y-20433D01*
X37845Y-20433D01*
X37326Y-19914D01*
X37343Y-19874D01*
X37343Y-19708D01*
X37279Y-19554D01*
X37162Y-19437D01*
X37122Y-19420D01*
X37122Y-19301D01*
X37122Y-19162D01*
X37161Y-19146D01*
X37279Y-19028D01*
X37343Y-18874D01*
X37343Y-18708D01*
X37279Y-18554D01*
X37162Y-18437D01*
X37008Y-18373D01*
X36842Y-18373D01*
X36688Y-18436D01*
X36570Y-18554D01*
X36507Y-18707D01*
X36507Y-18874D01*
X36570Y-19027D01*
X36646Y-19104D01*
X36479Y-19104D01*
X35632Y-18257D01*
X38471Y-18257D01*
X38286Y-18443D01*
X38243Y-18507D01*
X38237Y-18534D01*
X38237Y-18534D01*
X38219Y-18552D01*
X38219Y-18441D01*
X38190Y-18359D01*
X38004Y-18291D01*
X37807Y-18298D01*
X37660Y-18359D01*
X37630Y-18441D01*
X37925Y-18735D01*
X38219Y-18441D01*
X38219Y-18552D01*
X37980Y-18791D01*
X37986Y-18796D01*
X37930Y-18852D01*
X37925Y-18847D01*
X37869Y-18902D01*
X37869Y-18791D01*
X37575Y-18496D01*
X37493Y-18526D01*
X37424Y-18711D01*
X37432Y-18909D01*
X37493Y-19056D01*
X37575Y-19085D01*
X37869Y-18791D01*
X37869Y-18902D01*
X37630Y-19141D01*
X37660Y-19223D01*
X37845Y-19291D01*
X38043Y-19284D01*
X38190Y-19223D01*
X38219Y-19141D01*
X38219Y-19141D01*
X38228Y-19150D01*
X38228Y-19209D01*
X38219Y-19218D01*
X38048Y-19389D01*
X38008Y-19373D01*
X37842Y-19373D01*
X37688Y-19436D01*
X37570Y-19554D01*
X37507Y-19707D01*
X37507Y-19874D01*
X37570Y-20027D01*
X37688Y-20145D01*
X37841Y-20209D01*
X38007Y-20209D01*
X38161Y-20146D01*
X38279Y-20028D01*
X38343Y-19874D01*
X38343Y-19708D01*
X38326Y-19668D01*
X38525Y-19469D01*
X38525Y-19469D01*
X38525Y-19469D01*
X38564Y-19430D01*
X38564Y-19430D01*
X38607Y-19366D01*
X38622Y-19291D01*
X38622Y-19291D01*
X38622Y-19079D01*
X38688Y-19145D01*
X38841Y-19209D01*
X39007Y-19209D01*
X39037Y-19197D01*
X39270Y-19430D01*
X39270Y-19430D01*
X39334Y-19473D01*
X39409Y-19488D01*
X39507Y-19488D01*
X39507Y-19514D01*
X39507Y-20114D01*
X39525Y-20158D01*
X39558Y-20191D01*
X39601Y-20209D01*
X39648Y-20209D01*
X39728Y-20209D01*
X39728Y-20437D01*
X39743Y-20512D01*
X39786Y-20576D01*
X40876Y-21666D01*
X40869Y-21684D01*
X40869Y-21850D01*
X40924Y-21984D01*
G54D10*
G36*
X44183Y-28277D02*
X44158Y-28277D01*
X44158Y-24626D01*
X44158Y-23948D01*
X44158Y-19587D01*
X44158Y-18909D01*
X44128Y-18836D01*
X44073Y-18781D01*
X44000Y-18751D01*
X43922Y-18751D01*
X43750Y-18751D01*
X43700Y-18800D01*
X43700Y-19208D01*
X44109Y-19208D01*
X44158Y-19159D01*
X44158Y-18909D01*
X44158Y-19587D01*
X44158Y-19336D01*
X44109Y-19287D01*
X43700Y-19287D01*
X43700Y-19695D01*
X43750Y-19744D01*
X43922Y-19744D01*
X44000Y-19744D01*
X44073Y-19714D01*
X44128Y-19659D01*
X44158Y-19587D01*
X44158Y-23948D01*
X44128Y-23876D01*
X44079Y-23827D01*
X44079Y-22165D01*
X44016Y-22011D01*
X43898Y-21893D01*
X43744Y-21829D01*
X43578Y-21829D01*
X43424Y-21893D01*
X43307Y-22010D01*
X43267Y-22105D01*
X43267Y-21920D01*
X43538Y-21649D01*
X43577Y-21666D01*
X43744Y-21666D01*
X43897Y-21602D01*
X44015Y-21485D01*
X44079Y-21331D01*
X44079Y-21165D01*
X44079Y-20165D01*
X44016Y-20011D01*
X43898Y-19893D01*
X43744Y-19829D01*
X43622Y-19829D01*
X43622Y-19695D01*
X43622Y-19287D01*
X43622Y-19208D01*
X43622Y-18800D01*
X43572Y-18751D01*
X43400Y-18751D01*
X43322Y-18751D01*
X43249Y-18781D01*
X43194Y-18836D01*
X43164Y-18909D01*
X43164Y-19159D01*
X43213Y-19208D01*
X43622Y-19208D01*
X43622Y-19287D01*
X43213Y-19287D01*
X43164Y-19336D01*
X43164Y-19587D01*
X43194Y-19659D01*
X43249Y-19714D01*
X43322Y-19744D01*
X43400Y-19744D01*
X43572Y-19744D01*
X43622Y-19695D01*
X43622Y-19829D01*
X43578Y-19829D01*
X43424Y-19893D01*
X43307Y-20010D01*
X43243Y-20164D01*
X43243Y-20330D01*
X43306Y-20484D01*
X43424Y-20602D01*
X43577Y-20666D01*
X43744Y-20666D01*
X43897Y-20602D01*
X44015Y-20485D01*
X44079Y-20331D01*
X44079Y-20165D01*
X44079Y-21165D01*
X44016Y-21011D01*
X43898Y-20893D01*
X43744Y-20829D01*
X43578Y-20829D01*
X43424Y-20893D01*
X43307Y-21010D01*
X43243Y-21164D01*
X43243Y-21330D01*
X43259Y-21371D01*
X42931Y-21699D01*
X42889Y-21763D01*
X42874Y-21838D01*
X42874Y-22713D01*
X42683Y-22904D01*
X42705Y-22851D01*
X42705Y-22684D01*
X42642Y-22531D01*
X42524Y-22413D01*
X42370Y-22349D01*
X42204Y-22349D01*
X42050Y-22413D01*
X41933Y-22530D01*
X41869Y-22684D01*
X41869Y-22850D01*
X41932Y-23004D01*
X41999Y-23070D01*
X41771Y-23070D01*
X41696Y-23085D01*
X41632Y-23128D01*
X41399Y-23361D01*
X41370Y-23349D01*
X41204Y-23349D01*
X41050Y-23413D01*
X40933Y-23530D01*
X40869Y-23684D01*
X40869Y-23850D01*
X40932Y-24004D01*
X41050Y-24121D01*
X41203Y-24185D01*
X41370Y-24185D01*
X41523Y-24122D01*
X41641Y-24004D01*
X41705Y-23851D01*
X41705Y-23684D01*
X41684Y-23633D01*
X41853Y-23464D01*
X41999Y-23464D01*
X41933Y-23530D01*
X41869Y-23684D01*
X41869Y-23850D01*
X41932Y-24004D01*
X42050Y-24121D01*
X42203Y-24185D01*
X42370Y-24185D01*
X42523Y-24122D01*
X42641Y-24004D01*
X42658Y-23964D01*
X42807Y-23964D01*
X42807Y-23964D01*
X42882Y-23949D01*
X42946Y-23906D01*
X43800Y-23052D01*
X43800Y-23052D01*
X43843Y-22988D01*
X43858Y-22913D01*
X43858Y-22913D01*
X43858Y-22619D01*
X43897Y-22602D01*
X44015Y-22485D01*
X44079Y-22331D01*
X44079Y-22165D01*
X44079Y-23827D01*
X44073Y-23820D01*
X44000Y-23790D01*
X43922Y-23790D01*
X43750Y-23790D01*
X43700Y-23839D01*
X43700Y-24248D01*
X44109Y-24248D01*
X44158Y-24198D01*
X44158Y-23948D01*
X44158Y-24626D01*
X44158Y-24375D01*
X44109Y-24326D01*
X43700Y-24326D01*
X43700Y-24735D01*
X43750Y-24784D01*
X43922Y-24784D01*
X44000Y-24784D01*
X44073Y-24754D01*
X44128Y-24698D01*
X44158Y-24626D01*
X44158Y-28277D01*
X44079Y-28277D01*
X44079Y-27204D01*
X44079Y-26204D01*
X44079Y-25204D01*
X44016Y-25050D01*
X43898Y-24933D01*
X43744Y-24869D01*
X43622Y-24869D01*
X43622Y-24735D01*
X43622Y-24326D01*
X43622Y-24248D01*
X43622Y-23839D01*
X43572Y-23790D01*
X43400Y-23790D01*
X43322Y-23790D01*
X43249Y-23820D01*
X43194Y-23876D01*
X43164Y-23948D01*
X43164Y-24198D01*
X43213Y-24248D01*
X43622Y-24248D01*
X43622Y-24326D01*
X43213Y-24326D01*
X43164Y-24375D01*
X43164Y-24626D01*
X43194Y-24698D01*
X43249Y-24754D01*
X43322Y-24784D01*
X43400Y-24784D01*
X43572Y-24784D01*
X43622Y-24735D01*
X43622Y-24869D01*
X43578Y-24869D01*
X43424Y-24932D01*
X43307Y-25050D01*
X43243Y-25203D01*
X43243Y-25370D01*
X43306Y-25523D01*
X43424Y-25641D01*
X43577Y-25705D01*
X43744Y-25705D01*
X43897Y-25642D01*
X44015Y-25524D01*
X44079Y-25370D01*
X44079Y-25204D01*
X44079Y-26204D01*
X44016Y-26050D01*
X43898Y-25933D01*
X43744Y-25869D01*
X43578Y-25869D01*
X43424Y-25932D01*
X43307Y-26050D01*
X43243Y-26203D01*
X43243Y-26370D01*
X43306Y-26523D01*
X43424Y-26641D01*
X43577Y-26705D01*
X43744Y-26705D01*
X43897Y-26642D01*
X44015Y-26524D01*
X44079Y-26370D01*
X44079Y-26204D01*
X44079Y-27204D01*
X44016Y-27050D01*
X43898Y-26933D01*
X43744Y-26869D01*
X43578Y-26869D01*
X43424Y-26932D01*
X43307Y-27050D01*
X43243Y-27203D01*
X43243Y-27370D01*
X43306Y-27523D01*
X43424Y-27641D01*
X43577Y-27705D01*
X43744Y-27705D01*
X43897Y-27642D01*
X44015Y-27524D01*
X44079Y-27370D01*
X44079Y-27204D01*
X44079Y-28277D01*
X42827Y-28277D01*
X42973Y-28131D01*
X43016Y-28067D01*
X43031Y-27992D01*
X43031Y-27992D01*
X43031Y-26314D01*
X43031Y-26314D01*
X43016Y-26239D01*
X42973Y-26175D01*
X42973Y-26175D01*
X42688Y-25890D01*
X42705Y-25851D01*
X42705Y-25684D01*
X42705Y-24684D01*
X42642Y-24531D01*
X42524Y-24413D01*
X42370Y-24349D01*
X42204Y-24349D01*
X42050Y-24413D01*
X41933Y-24530D01*
X41869Y-24684D01*
X41869Y-24850D01*
X41932Y-25004D01*
X42050Y-25121D01*
X42203Y-25185D01*
X42370Y-25185D01*
X42523Y-25122D01*
X42641Y-25004D01*
X42705Y-24851D01*
X42705Y-24684D01*
X42705Y-25684D01*
X42642Y-25531D01*
X42524Y-25413D01*
X42370Y-25349D01*
X42204Y-25349D01*
X42050Y-25413D01*
X41990Y-25472D01*
X41950Y-25411D01*
X41950Y-25411D01*
X41674Y-25136D01*
X41610Y-25093D01*
X41562Y-25084D01*
X41641Y-25004D01*
X41705Y-24851D01*
X41705Y-24684D01*
X41642Y-24531D01*
X41524Y-24413D01*
X41370Y-24349D01*
X41204Y-24349D01*
X41050Y-24413D01*
X40933Y-24530D01*
X40869Y-24684D01*
X40869Y-24850D01*
X40932Y-25004D01*
X41007Y-25078D01*
X40593Y-25078D01*
X40808Y-24863D01*
X40808Y-24863D01*
X40851Y-24799D01*
X40866Y-24724D01*
X40866Y-24724D01*
X40866Y-22440D01*
X40864Y-22432D01*
X40905Y-22440D01*
X41022Y-22440D01*
X40933Y-22530D01*
X40869Y-22684D01*
X40869Y-22850D01*
X40932Y-23004D01*
X41050Y-23121D01*
X41203Y-23185D01*
X41370Y-23185D01*
X41523Y-23122D01*
X41641Y-23004D01*
X41705Y-22851D01*
X41705Y-22684D01*
X41642Y-22531D01*
X41542Y-22431D01*
X41571Y-22425D01*
X41635Y-22383D01*
X41950Y-22068D01*
X41950Y-22068D01*
X41968Y-22040D01*
X42050Y-22121D01*
X42203Y-22185D01*
X42370Y-22185D01*
X42523Y-22122D01*
X42641Y-22004D01*
X42705Y-21851D01*
X42705Y-21684D01*
X42642Y-21531D01*
X42524Y-21413D01*
X42370Y-21349D01*
X42204Y-21349D01*
X42050Y-21413D01*
X42007Y-21455D01*
X42007Y-21341D01*
X42175Y-21173D01*
X42203Y-21185D01*
X42370Y-21185D01*
X42523Y-21122D01*
X42641Y-21004D01*
X42705Y-20851D01*
X42705Y-20684D01*
X42705Y-19684D01*
X42705Y-18684D01*
X42642Y-18531D01*
X42524Y-18413D01*
X42370Y-18349D01*
X42204Y-18349D01*
X42050Y-18413D01*
X41933Y-18530D01*
X41869Y-18684D01*
X41869Y-18850D01*
X41932Y-19004D01*
X42050Y-19121D01*
X42203Y-19185D01*
X42370Y-19185D01*
X42523Y-19122D01*
X42641Y-19004D01*
X42705Y-18851D01*
X42705Y-18684D01*
X42705Y-19684D01*
X42642Y-19531D01*
X42524Y-19413D01*
X42370Y-19349D01*
X42204Y-19349D01*
X42050Y-19413D01*
X41933Y-19530D01*
X41869Y-19684D01*
X41869Y-19850D01*
X41932Y-20004D01*
X42050Y-20121D01*
X42203Y-20185D01*
X42370Y-20185D01*
X42523Y-20122D01*
X42641Y-20004D01*
X42705Y-19851D01*
X42705Y-19684D01*
X42705Y-20684D01*
X42642Y-20531D01*
X42524Y-20413D01*
X42370Y-20349D01*
X42204Y-20349D01*
X42050Y-20413D01*
X41933Y-20530D01*
X41869Y-20684D01*
X41869Y-20850D01*
X41890Y-20901D01*
X41671Y-21120D01*
X41629Y-21184D01*
X41614Y-21259D01*
X41614Y-21503D01*
X41524Y-21413D01*
X41370Y-21349D01*
X41204Y-21349D01*
X41141Y-21375D01*
X40122Y-20355D01*
X40122Y-20209D01*
X40248Y-20209D01*
X40292Y-20191D01*
X40325Y-20158D01*
X40343Y-20114D01*
X40343Y-20067D01*
X40343Y-19488D01*
X40351Y-19488D01*
X40472Y-19609D01*
X40472Y-20149D01*
X40487Y-20224D01*
X40530Y-20288D01*
X40885Y-20644D01*
X40869Y-20684D01*
X40869Y-20850D01*
X40932Y-21004D01*
X41050Y-21121D01*
X41203Y-21185D01*
X41370Y-21185D01*
X41523Y-21122D01*
X41641Y-21004D01*
X41705Y-20851D01*
X41705Y-20684D01*
X41642Y-20531D01*
X41524Y-20413D01*
X41370Y-20349D01*
X41204Y-20349D01*
X41164Y-20366D01*
X40866Y-20068D01*
X40866Y-19624D01*
X40885Y-19644D01*
X40869Y-19684D01*
X40869Y-19850D01*
X40932Y-20004D01*
X41050Y-20121D01*
X41203Y-20185D01*
X41370Y-20185D01*
X41523Y-20122D01*
X41641Y-20004D01*
X41705Y-19851D01*
X41705Y-19684D01*
X41705Y-18684D01*
X41642Y-18531D01*
X41524Y-18413D01*
X41370Y-18349D01*
X41204Y-18349D01*
X41050Y-18413D01*
X40933Y-18530D01*
X40869Y-18684D01*
X40869Y-18850D01*
X40932Y-19004D01*
X41050Y-19121D01*
X41203Y-19185D01*
X41370Y-19185D01*
X41523Y-19122D01*
X41641Y-19004D01*
X41705Y-18851D01*
X41705Y-18684D01*
X41705Y-19684D01*
X41642Y-19531D01*
X41524Y-19413D01*
X41370Y-19349D01*
X41204Y-19349D01*
X41164Y-19366D01*
X40826Y-19028D01*
X40826Y-18543D01*
X40811Y-18467D01*
X40769Y-18404D01*
X40622Y-18257D01*
X44183Y-18257D01*
X44183Y-28277D01*
X44183Y-28277D01*
G37*
G54D22*
X44183Y-28277D02*
X44158Y-28277D01*
X44158Y-24626D01*
X44158Y-23948D01*
X44158Y-19587D01*
X44158Y-18909D01*
X44128Y-18836D01*
X44073Y-18781D01*
X44000Y-18751D01*
X43922Y-18751D01*
X43750Y-18751D01*
X43700Y-18800D01*
X43700Y-19208D01*
X44109Y-19208D01*
X44158Y-19159D01*
X44158Y-18909D01*
X44158Y-19587D01*
X44158Y-19336D01*
X44109Y-19287D01*
X43700Y-19287D01*
X43700Y-19695D01*
X43750Y-19744D01*
X43922Y-19744D01*
X44000Y-19744D01*
X44073Y-19714D01*
X44128Y-19659D01*
X44158Y-19587D01*
X44158Y-23948D01*
X44128Y-23876D01*
X44079Y-23827D01*
X44079Y-22165D01*
X44016Y-22011D01*
X43898Y-21893D01*
X43744Y-21829D01*
X43578Y-21829D01*
X43424Y-21893D01*
X43307Y-22010D01*
X43267Y-22105D01*
X43267Y-21920D01*
X43538Y-21649D01*
X43577Y-21666D01*
X43744Y-21666D01*
X43897Y-21602D01*
X44015Y-21485D01*
X44079Y-21331D01*
X44079Y-21165D01*
X44079Y-20165D01*
X44016Y-20011D01*
X43898Y-19893D01*
X43744Y-19829D01*
X43622Y-19829D01*
X43622Y-19695D01*
X43622Y-19287D01*
X43622Y-19208D01*
X43622Y-18800D01*
X43572Y-18751D01*
X43400Y-18751D01*
X43322Y-18751D01*
X43249Y-18781D01*
X43194Y-18836D01*
X43164Y-18909D01*
X43164Y-19159D01*
X43213Y-19208D01*
X43622Y-19208D01*
X43622Y-19287D01*
X43213Y-19287D01*
X43164Y-19336D01*
X43164Y-19587D01*
X43194Y-19659D01*
X43249Y-19714D01*
X43322Y-19744D01*
X43400Y-19744D01*
X43572Y-19744D01*
X43622Y-19695D01*
X43622Y-19829D01*
X43578Y-19829D01*
X43424Y-19893D01*
X43307Y-20010D01*
X43243Y-20164D01*
X43243Y-20330D01*
X43306Y-20484D01*
X43424Y-20602D01*
X43577Y-20666D01*
X43744Y-20666D01*
X43897Y-20602D01*
X44015Y-20485D01*
X44079Y-20331D01*
X44079Y-20165D01*
X44079Y-21165D01*
X44016Y-21011D01*
X43898Y-20893D01*
X43744Y-20829D01*
X43578Y-20829D01*
X43424Y-20893D01*
X43307Y-21010D01*
X43243Y-21164D01*
X43243Y-21330D01*
X43259Y-21371D01*
X42931Y-21699D01*
X42889Y-21763D01*
X42874Y-21838D01*
X42874Y-22713D01*
X42683Y-22904D01*
X42705Y-22851D01*
X42705Y-22684D01*
X42642Y-22531D01*
X42524Y-22413D01*
X42370Y-22349D01*
X42204Y-22349D01*
X42050Y-22413D01*
X41933Y-22530D01*
X41869Y-22684D01*
X41869Y-22850D01*
X41932Y-23004D01*
X41999Y-23070D01*
X41771Y-23070D01*
X41696Y-23085D01*
X41632Y-23128D01*
X41399Y-23361D01*
X41370Y-23349D01*
X41204Y-23349D01*
X41050Y-23413D01*
X40933Y-23530D01*
X40869Y-23684D01*
X40869Y-23850D01*
X40932Y-24004D01*
X41050Y-24121D01*
X41203Y-24185D01*
X41370Y-24185D01*
X41523Y-24122D01*
X41641Y-24004D01*
X41705Y-23851D01*
X41705Y-23684D01*
X41684Y-23633D01*
X41853Y-23464D01*
X41999Y-23464D01*
X41933Y-23530D01*
X41869Y-23684D01*
X41869Y-23850D01*
X41932Y-24004D01*
X42050Y-24121D01*
X42203Y-24185D01*
X42370Y-24185D01*
X42523Y-24122D01*
X42641Y-24004D01*
X42658Y-23964D01*
X42807Y-23964D01*
X42807Y-23964D01*
X42882Y-23949D01*
X42946Y-23906D01*
X43800Y-23052D01*
X43800Y-23052D01*
X43843Y-22988D01*
X43858Y-22913D01*
X43858Y-22913D01*
X43858Y-22619D01*
X43897Y-22602D01*
X44015Y-22485D01*
X44079Y-22331D01*
X44079Y-22165D01*
X44079Y-23827D01*
X44073Y-23820D01*
X44000Y-23790D01*
X43922Y-23790D01*
X43750Y-23790D01*
X43700Y-23839D01*
X43700Y-24248D01*
X44109Y-24248D01*
X44158Y-24198D01*
X44158Y-23948D01*
X44158Y-24626D01*
X44158Y-24375D01*
X44109Y-24326D01*
X43700Y-24326D01*
X43700Y-24735D01*
X43750Y-24784D01*
X43922Y-24784D01*
X44000Y-24784D01*
X44073Y-24754D01*
X44128Y-24698D01*
X44158Y-24626D01*
X44158Y-28277D01*
X44079Y-28277D01*
X44079Y-27204D01*
X44079Y-26204D01*
X44079Y-25204D01*
X44016Y-25050D01*
X43898Y-24933D01*
X43744Y-24869D01*
X43622Y-24869D01*
X43622Y-24735D01*
X43622Y-24326D01*
X43622Y-24248D01*
X43622Y-23839D01*
X43572Y-23790D01*
X43400Y-23790D01*
X43322Y-23790D01*
X43249Y-23820D01*
X43194Y-23876D01*
X43164Y-23948D01*
X43164Y-24198D01*
X43213Y-24248D01*
X43622Y-24248D01*
X43622Y-24326D01*
X43213Y-24326D01*
X43164Y-24375D01*
X43164Y-24626D01*
X43194Y-24698D01*
X43249Y-24754D01*
X43322Y-24784D01*
X43400Y-24784D01*
X43572Y-24784D01*
X43622Y-24735D01*
X43622Y-24869D01*
X43578Y-24869D01*
X43424Y-24932D01*
X43307Y-25050D01*
X43243Y-25203D01*
X43243Y-25370D01*
X43306Y-25523D01*
X43424Y-25641D01*
X43577Y-25705D01*
X43744Y-25705D01*
X43897Y-25642D01*
X44015Y-25524D01*
X44079Y-25370D01*
X44079Y-25204D01*
X44079Y-26204D01*
X44016Y-26050D01*
X43898Y-25933D01*
X43744Y-25869D01*
X43578Y-25869D01*
X43424Y-25932D01*
X43307Y-26050D01*
X43243Y-26203D01*
X43243Y-26370D01*
X43306Y-26523D01*
X43424Y-26641D01*
X43577Y-26705D01*
X43744Y-26705D01*
X43897Y-26642D01*
X44015Y-26524D01*
X44079Y-26370D01*
X44079Y-26204D01*
X44079Y-27204D01*
X44016Y-27050D01*
X43898Y-26933D01*
X43744Y-26869D01*
X43578Y-26869D01*
X43424Y-26932D01*
X43307Y-27050D01*
X43243Y-27203D01*
X43243Y-27370D01*
X43306Y-27523D01*
X43424Y-27641D01*
X43577Y-27705D01*
X43744Y-27705D01*
X43897Y-27642D01*
X44015Y-27524D01*
X44079Y-27370D01*
X44079Y-27204D01*
X44079Y-28277D01*
X42827Y-28277D01*
X42973Y-28131D01*
X43016Y-28067D01*
X43031Y-27992D01*
X43031Y-27992D01*
X43031Y-26314D01*
X43031Y-26314D01*
X43016Y-26239D01*
X42973Y-26175D01*
X42973Y-26175D01*
X42688Y-25890D01*
X42705Y-25851D01*
X42705Y-25684D01*
X42705Y-24684D01*
X42642Y-24531D01*
X42524Y-24413D01*
X42370Y-24349D01*
X42204Y-24349D01*
X42050Y-24413D01*
X41933Y-24530D01*
X41869Y-24684D01*
X41869Y-24850D01*
X41932Y-25004D01*
X42050Y-25121D01*
X42203Y-25185D01*
X42370Y-25185D01*
X42523Y-25122D01*
X42641Y-25004D01*
X42705Y-24851D01*
X42705Y-24684D01*
X42705Y-25684D01*
X42642Y-25531D01*
X42524Y-25413D01*
X42370Y-25349D01*
X42204Y-25349D01*
X42050Y-25413D01*
X41990Y-25472D01*
X41950Y-25411D01*
X41950Y-25411D01*
X41674Y-25136D01*
X41610Y-25093D01*
X41562Y-25084D01*
X41641Y-25004D01*
X41705Y-24851D01*
X41705Y-24684D01*
X41642Y-24531D01*
X41524Y-24413D01*
X41370Y-24349D01*
X41204Y-24349D01*
X41050Y-24413D01*
X40933Y-24530D01*
X40869Y-24684D01*
X40869Y-24850D01*
X40932Y-25004D01*
X41007Y-25078D01*
X40593Y-25078D01*
X40808Y-24863D01*
X40808Y-24863D01*
X40851Y-24799D01*
X40866Y-24724D01*
X40866Y-24724D01*
X40866Y-22440D01*
X40864Y-22432D01*
X40905Y-22440D01*
X41022Y-22440D01*
X40933Y-22530D01*
X40869Y-22684D01*
X40869Y-22850D01*
X40932Y-23004D01*
X41050Y-23121D01*
X41203Y-23185D01*
X41370Y-23185D01*
X41523Y-23122D01*
X41641Y-23004D01*
X41705Y-22851D01*
X41705Y-22684D01*
X41642Y-22531D01*
X41542Y-22431D01*
X41571Y-22425D01*
X41635Y-22383D01*
X41950Y-22068D01*
X41950Y-22068D01*
X41968Y-22040D01*
X42050Y-22121D01*
X42203Y-22185D01*
X42370Y-22185D01*
X42523Y-22122D01*
X42641Y-22004D01*
X42705Y-21851D01*
X42705Y-21684D01*
X42642Y-21531D01*
X42524Y-21413D01*
X42370Y-21349D01*
X42204Y-21349D01*
X42050Y-21413D01*
X42007Y-21455D01*
X42007Y-21341D01*
X42175Y-21173D01*
X42203Y-21185D01*
X42370Y-21185D01*
X42523Y-21122D01*
X42641Y-21004D01*
X42705Y-20851D01*
X42705Y-20684D01*
X42705Y-19684D01*
X42705Y-18684D01*
X42642Y-18531D01*
X42524Y-18413D01*
X42370Y-18349D01*
X42204Y-18349D01*
X42050Y-18413D01*
X41933Y-18530D01*
X41869Y-18684D01*
X41869Y-18850D01*
X41932Y-19004D01*
X42050Y-19121D01*
X42203Y-19185D01*
X42370Y-19185D01*
X42523Y-19122D01*
X42641Y-19004D01*
X42705Y-18851D01*
X42705Y-18684D01*
X42705Y-19684D01*
X42642Y-19531D01*
X42524Y-19413D01*
X42370Y-19349D01*
X42204Y-19349D01*
X42050Y-19413D01*
X41933Y-19530D01*
X41869Y-19684D01*
X41869Y-19850D01*
X41932Y-20004D01*
X42050Y-20121D01*
X42203Y-20185D01*
X42370Y-20185D01*
X42523Y-20122D01*
X42641Y-20004D01*
X42705Y-19851D01*
X42705Y-19684D01*
X42705Y-20684D01*
X42642Y-20531D01*
X42524Y-20413D01*
X42370Y-20349D01*
X42204Y-20349D01*
X42050Y-20413D01*
X41933Y-20530D01*
X41869Y-20684D01*
X41869Y-20850D01*
X41890Y-20901D01*
X41671Y-21120D01*
X41629Y-21184D01*
X41614Y-21259D01*
X41614Y-21503D01*
X41524Y-21413D01*
X41370Y-21349D01*
X41204Y-21349D01*
X41141Y-21375D01*
X40122Y-20355D01*
X40122Y-20209D01*
X40248Y-20209D01*
X40292Y-20191D01*
X40325Y-20158D01*
X40343Y-20114D01*
X40343Y-20067D01*
X40343Y-19488D01*
X40351Y-19488D01*
X40472Y-19609D01*
X40472Y-20149D01*
X40487Y-20224D01*
X40530Y-20288D01*
X40885Y-20644D01*
X40869Y-20684D01*
X40869Y-20850D01*
X40932Y-21004D01*
X41050Y-21121D01*
X41203Y-21185D01*
X41370Y-21185D01*
X41523Y-21122D01*
X41641Y-21004D01*
X41705Y-20851D01*
X41705Y-20684D01*
X41642Y-20531D01*
X41524Y-20413D01*
X41370Y-20349D01*
X41204Y-20349D01*
X41164Y-20366D01*
X40866Y-20068D01*
X40866Y-19624D01*
X40885Y-19644D01*
X40869Y-19684D01*
X40869Y-19850D01*
X40932Y-20004D01*
X41050Y-20121D01*
X41203Y-20185D01*
X41370Y-20185D01*
X41523Y-20122D01*
X41641Y-20004D01*
X41705Y-19851D01*
X41705Y-19684D01*
X41705Y-18684D01*
X41642Y-18531D01*
X41524Y-18413D01*
X41370Y-18349D01*
X41204Y-18349D01*
X41050Y-18413D01*
X40933Y-18530D01*
X40869Y-18684D01*
X40869Y-18850D01*
X40932Y-19004D01*
X41050Y-19121D01*
X41203Y-19185D01*
X41370Y-19185D01*
X41523Y-19122D01*
X41641Y-19004D01*
X41705Y-18851D01*
X41705Y-18684D01*
X41705Y-19684D01*
X41642Y-19531D01*
X41524Y-19413D01*
X41370Y-19349D01*
X41204Y-19349D01*
X41164Y-19366D01*
X40826Y-19028D01*
X40826Y-18543D01*
X40811Y-18467D01*
X40769Y-18404D01*
X40622Y-18257D01*
X44183Y-18257D01*
X44183Y-28277D01*
M02*
