G04 (created by PCBNEW (2013-may-18)-stable) date Сб 29 авг 2015 23:53:58*
%MOIN*%
G04 Gerber Fmt 3.4, Leading zero omitted, Abs format*
%FSLAX34Y34*%
G01*
G70*
G90*
G04 APERTURE LIST*
%ADD10C,0.00590551*%
%ADD11R,0.036X0.036*%
%ADD12R,0.06X0.06*%
%ADD13C,0.06*%
%ADD14R,0.1004X0.0984*%
%ADD15R,0.15748X0.11811*%
%ADD16C,0.16*%
%ADD17C,0.023622*%
%ADD18C,0.023622*%
%ADD19C,0.01*%
%ADD20C,0.00787402*%
G04 APERTURE END LIST*
G54D10*
G54D11*
X29265Y-24031D03*
X29265Y-23331D03*
X30065Y-23681D03*
X28281Y-25448D03*
X28281Y-24748D03*
X29081Y-25098D03*
X27198Y-20743D03*
X27198Y-20043D03*
X27998Y-20393D03*
X28342Y-22211D03*
X27642Y-22211D03*
X27992Y-21411D03*
X29166Y-20684D03*
X29166Y-19984D03*
X29966Y-20334D03*
X27375Y-24031D03*
X27375Y-23331D03*
X28175Y-23681D03*
G54D12*
X39570Y-19771D03*
G54D13*
X39570Y-18771D03*
X38570Y-19771D03*
X38570Y-18771D03*
X37570Y-19771D03*
X37570Y-18771D03*
X36570Y-19771D03*
X36570Y-18771D03*
G54D12*
X36629Y-26783D03*
G54D13*
X36629Y-27783D03*
X37629Y-26783D03*
X37629Y-27783D03*
X38629Y-26783D03*
X38629Y-27783D03*
X39629Y-26783D03*
X39629Y-27783D03*
G54D12*
X43267Y-24799D03*
G54D13*
X43267Y-25799D03*
X43267Y-26799D03*
X43267Y-27799D03*
G54D12*
X42893Y-20665D03*
G54D13*
X42893Y-21665D03*
X42893Y-22665D03*
X42893Y-23665D03*
G54D12*
X31007Y-19055D03*
G54D13*
X32007Y-19055D03*
X33007Y-19055D03*
G54D12*
X35566Y-27244D03*
G54D13*
X34566Y-27244D03*
X33566Y-27244D03*
G54D12*
X27385Y-27244D03*
G54D13*
X28385Y-27244D03*
X29385Y-27244D03*
G54D12*
X27681Y-19055D03*
G54D13*
X28681Y-19055D03*
X29681Y-19055D03*
G54D12*
X30476Y-27244D03*
G54D13*
X31476Y-27244D03*
X32476Y-27244D03*
G54D12*
X35362Y-19055D03*
G54D13*
X34362Y-19055D03*
G54D12*
X40759Y-27783D03*
G54D13*
X41759Y-27783D03*
X40759Y-26783D03*
X41759Y-26783D03*
X40759Y-25783D03*
X41759Y-25783D03*
X40759Y-24783D03*
X41759Y-24783D03*
X40759Y-23783D03*
X41759Y-23783D03*
X40759Y-22783D03*
X41759Y-22783D03*
X40759Y-21783D03*
X41759Y-21783D03*
X40759Y-20783D03*
X41759Y-20783D03*
X40759Y-19783D03*
X41759Y-19783D03*
X40759Y-18783D03*
X41759Y-18783D03*
G54D12*
X26287Y-18751D03*
G54D13*
X25287Y-18751D03*
X26287Y-19751D03*
X25287Y-19751D03*
X26287Y-20751D03*
X25287Y-20751D03*
X26287Y-21751D03*
X25287Y-21751D03*
X26287Y-22751D03*
X25287Y-22751D03*
X26287Y-23751D03*
X25287Y-23751D03*
X26287Y-24751D03*
X25287Y-24751D03*
X26287Y-25751D03*
X25287Y-25751D03*
X26287Y-26751D03*
X25287Y-26751D03*
X26287Y-27751D03*
X25287Y-27751D03*
G54D14*
X32844Y-20334D03*
X30856Y-20334D03*
X31682Y-21791D03*
X29694Y-21791D03*
G54D15*
X38838Y-23228D03*
X31555Y-23228D03*
G54D16*
X43267Y-19291D03*
X31338Y-25196D03*
G54D17*
X34881Y-23464D03*
X30374Y-22775D03*
X42488Y-24838D03*
X42488Y-25728D03*
X33070Y-25748D03*
X38818Y-22362D03*
X29409Y-24488D03*
X27716Y-25472D03*
X26968Y-24330D03*
X27637Y-20905D03*
X28818Y-22401D03*
X30748Y-21141D03*
X30511Y-21771D03*
X38661Y-25511D03*
X37677Y-21732D03*
X36338Y-21496D03*
X27047Y-27952D03*
X40492Y-24291D03*
X27086Y-22027D03*
X39901Y-25275D03*
X35846Y-20826D03*
G54D18*
X31496Y-18543D02*
X36342Y-18543D01*
X36342Y-18543D02*
X36570Y-18771D01*
X36570Y-18771D02*
X36570Y-19771D01*
X36669Y-24503D02*
X36669Y-24523D01*
X36161Y-23996D02*
X36669Y-24503D01*
X35413Y-23996D02*
X36161Y-23996D01*
X34881Y-23996D02*
X35413Y-23996D01*
X37129Y-27283D02*
X36629Y-27783D01*
X37129Y-24984D02*
X37129Y-27283D01*
X36669Y-24523D02*
X37129Y-24984D01*
X25287Y-18751D02*
X25287Y-18830D01*
X31496Y-18543D02*
X32007Y-19055D01*
X27125Y-18543D02*
X31496Y-18543D01*
X26968Y-18700D02*
X27125Y-18543D01*
X26968Y-19015D02*
X26968Y-18700D01*
X26732Y-19251D02*
X26968Y-19015D01*
X25708Y-19251D02*
X26732Y-19251D01*
X25287Y-18830D02*
X25708Y-19251D01*
X34881Y-23996D02*
X34881Y-23464D01*
X31682Y-21791D02*
X32913Y-21791D01*
X34291Y-23996D02*
X34881Y-23996D01*
X33543Y-23248D02*
X34291Y-23996D01*
X33543Y-22421D02*
X33543Y-23248D01*
X32913Y-21791D02*
X33543Y-22421D01*
X31682Y-21791D02*
X31682Y-21151D01*
X32007Y-20826D02*
X32007Y-19055D01*
X31682Y-21151D02*
X32007Y-20826D01*
X32007Y-19055D02*
X33007Y-19055D01*
X31007Y-19055D02*
X32007Y-19055D01*
X31555Y-23228D02*
X30826Y-23228D01*
X30826Y-23228D02*
X30374Y-22775D01*
X42488Y-25728D02*
X42488Y-24838D01*
X34566Y-27244D02*
X33622Y-26299D01*
X33622Y-26299D02*
X33070Y-25748D01*
X38838Y-23228D02*
X38838Y-22381D01*
X38838Y-22381D02*
X38818Y-22362D01*
X38818Y-22362D02*
X38818Y-22125D01*
X29265Y-24031D02*
X29265Y-24344D01*
X29265Y-24344D02*
X29409Y-24488D01*
X28281Y-25448D02*
X27740Y-25448D01*
X27740Y-25448D02*
X27716Y-25472D01*
X27375Y-24031D02*
X27268Y-24031D01*
X27268Y-24031D02*
X26968Y-24330D01*
X27198Y-20743D02*
X27475Y-20743D01*
X27475Y-20743D02*
X27637Y-20905D01*
X28342Y-22211D02*
X28628Y-22211D01*
X28628Y-22211D02*
X28818Y-22401D01*
X30856Y-20334D02*
X30856Y-21033D01*
X30856Y-21033D02*
X30748Y-21141D01*
X29694Y-21791D02*
X30492Y-21791D01*
X30492Y-21791D02*
X30511Y-21771D01*
X38818Y-22125D02*
X38425Y-21732D01*
X38425Y-21732D02*
X37677Y-21732D01*
G54D19*
X28543Y-21614D02*
X28838Y-21318D01*
X25287Y-20759D02*
X25767Y-21240D01*
X25767Y-21240D02*
X26948Y-21240D01*
X26948Y-21240D02*
X27519Y-21811D01*
X27519Y-21811D02*
X28346Y-21811D01*
X28346Y-21811D02*
X28543Y-21614D01*
X25287Y-20751D02*
X25287Y-20759D01*
X28932Y-19984D02*
X29166Y-19984D01*
X28838Y-20078D02*
X28932Y-19984D01*
X28838Y-21318D02*
X28838Y-20078D01*
X30476Y-27751D02*
X30476Y-27244D01*
X30236Y-27992D02*
X30476Y-27751D01*
X27086Y-27992D02*
X30236Y-27992D01*
X27047Y-27952D02*
X27086Y-27992D01*
X25287Y-22751D02*
X25259Y-22751D01*
X32476Y-27877D02*
X32476Y-27244D01*
X32145Y-28208D02*
X32476Y-27877D01*
X25098Y-28208D02*
X32145Y-28208D01*
X24842Y-27952D02*
X25098Y-28208D01*
X24842Y-23169D02*
X24842Y-27952D01*
X25259Y-22751D02*
X24842Y-23169D01*
X26287Y-22751D02*
X26767Y-22751D01*
X31476Y-26633D02*
X31476Y-27244D01*
X31259Y-26417D02*
X31476Y-26633D01*
X30925Y-26417D02*
X31259Y-26417D01*
X30236Y-25728D02*
X30925Y-26417D01*
X30236Y-24586D02*
X30236Y-25728D01*
X30511Y-24311D02*
X30236Y-24586D01*
X30511Y-23366D02*
X30511Y-24311D01*
X30039Y-22893D02*
X30511Y-23366D01*
X26909Y-22893D02*
X30039Y-22893D01*
X26767Y-22751D02*
X26909Y-22893D01*
X25287Y-24751D02*
X25787Y-24251D01*
X27042Y-23331D02*
X27375Y-23331D01*
X26909Y-23464D02*
X27042Y-23331D01*
X26909Y-23917D02*
X26909Y-23464D01*
X26574Y-24251D02*
X26909Y-23917D01*
X25787Y-24251D02*
X26574Y-24251D01*
G54D18*
X27992Y-21411D02*
X28136Y-21411D01*
X28681Y-19645D02*
X28681Y-19055D01*
X28503Y-19822D02*
X28681Y-19645D01*
X28503Y-21043D02*
X28503Y-19822D01*
X28136Y-21411D02*
X28503Y-21043D01*
X28385Y-27244D02*
X28385Y-26555D01*
X29081Y-25859D02*
X29081Y-25098D01*
X28385Y-26555D02*
X29081Y-25859D01*
X30065Y-23681D02*
X30065Y-24344D01*
X30065Y-24344D02*
X29901Y-24507D01*
X29901Y-24507D02*
X29901Y-26043D01*
X29901Y-26043D02*
X29385Y-26559D01*
X29385Y-26559D02*
X29385Y-27244D01*
X28175Y-23681D02*
X28175Y-24041D01*
X27385Y-26413D02*
X27385Y-27244D01*
X27677Y-26122D02*
X27385Y-26413D01*
X28326Y-26122D02*
X27677Y-26122D01*
X28700Y-25748D02*
X28326Y-26122D01*
X28700Y-24389D02*
X28700Y-25748D01*
X28543Y-24232D02*
X28700Y-24389D01*
X28366Y-24232D02*
X28543Y-24232D01*
X28175Y-24041D02*
X28366Y-24232D01*
G54D19*
X37570Y-19771D02*
X38070Y-19271D01*
X40157Y-19181D02*
X40759Y-19783D01*
X40157Y-18622D02*
X40157Y-19181D01*
X39862Y-18326D02*
X40157Y-18622D01*
X38385Y-18326D02*
X39862Y-18326D01*
X38070Y-18641D02*
X38385Y-18326D01*
X38070Y-19271D02*
X38070Y-18641D01*
X40759Y-21783D02*
X40543Y-21783D01*
X39570Y-20200D02*
X39570Y-19771D01*
X39625Y-20255D02*
X39570Y-20200D01*
X39803Y-20255D02*
X39625Y-20255D01*
X40157Y-20610D02*
X39803Y-20255D01*
X40157Y-21397D02*
X40157Y-20610D01*
X40543Y-21783D02*
X40157Y-21397D01*
X38570Y-19771D02*
X38570Y-19791D01*
X41259Y-21283D02*
X41759Y-20783D01*
X38570Y-19791D02*
X39270Y-20490D01*
X41259Y-22086D02*
X41259Y-21283D01*
X41062Y-22283D02*
X41259Y-22086D01*
X40531Y-22283D02*
X41062Y-22283D01*
X39978Y-21730D02*
X40531Y-22283D01*
X39978Y-20687D02*
X39978Y-21730D01*
X39781Y-20490D02*
X39978Y-20687D01*
X39270Y-20490D02*
X39781Y-20490D01*
X38570Y-18771D02*
X38570Y-18885D01*
X40059Y-20082D02*
X40759Y-20783D01*
X40059Y-19429D02*
X40059Y-20082D01*
X39921Y-19291D02*
X40059Y-19429D01*
X38976Y-19291D02*
X39921Y-19291D01*
X38570Y-18885D02*
X38976Y-19291D01*
G54D18*
X29966Y-20334D02*
X29966Y-19848D01*
X29681Y-19562D02*
X29681Y-19055D01*
X29966Y-19848D02*
X29681Y-19562D01*
G54D19*
X38409Y-26003D02*
X37629Y-26783D01*
X39566Y-26003D02*
X38409Y-26003D01*
X40255Y-25314D02*
X39566Y-26003D01*
X40255Y-24527D02*
X40255Y-25314D01*
X40492Y-24291D02*
X40255Y-24527D01*
G54D18*
X27681Y-19055D02*
X27681Y-19669D01*
X27998Y-19986D02*
X27998Y-20393D01*
X27681Y-19669D02*
X27998Y-19986D01*
G54D19*
X38629Y-27783D02*
X38767Y-27783D01*
X42322Y-26346D02*
X41759Y-25783D01*
X42322Y-27933D02*
X42322Y-26346D01*
X42027Y-28228D02*
X42322Y-27933D01*
X39212Y-28228D02*
X42027Y-28228D01*
X38767Y-27783D02*
X39212Y-28228D01*
X39629Y-26783D02*
X39759Y-26783D01*
X39759Y-26783D02*
X40759Y-25783D01*
X41759Y-26783D02*
X41759Y-26779D01*
X38629Y-26527D02*
X38629Y-26783D01*
X38956Y-26200D02*
X38629Y-26527D01*
X39625Y-26200D02*
X38956Y-26200D01*
X40531Y-25295D02*
X39625Y-26200D01*
X40984Y-25295D02*
X40531Y-25295D01*
X41259Y-25570D02*
X40984Y-25295D01*
X41259Y-26279D02*
X41259Y-25570D01*
X41759Y-26779D02*
X41259Y-26279D01*
X37629Y-27783D02*
X37629Y-27763D01*
X40259Y-27283D02*
X40759Y-26783D01*
X38110Y-27283D02*
X40259Y-27283D01*
X37629Y-27763D02*
X38110Y-27283D01*
X40759Y-23783D02*
X40763Y-23783D01*
X42271Y-23287D02*
X42893Y-22665D01*
X41259Y-23287D02*
X42271Y-23287D01*
X40763Y-23783D02*
X41259Y-23287D01*
X41759Y-23783D02*
X42775Y-23783D01*
X42775Y-23783D02*
X42893Y-23665D01*
X27270Y-22211D02*
X27642Y-22211D01*
X27086Y-22027D02*
X27270Y-22211D01*
X25287Y-19751D02*
X25287Y-19755D01*
X26846Y-20043D02*
X27198Y-20043D01*
X26633Y-20255D02*
X26846Y-20043D01*
X25787Y-20255D02*
X26633Y-20255D01*
X25287Y-19755D02*
X25787Y-20255D01*
X27928Y-23331D02*
X29265Y-23331D01*
X25287Y-26751D02*
X25314Y-26751D01*
X27755Y-23503D02*
X27928Y-23331D01*
X27755Y-24251D02*
X27755Y-23503D01*
X27500Y-24507D02*
X27755Y-24251D01*
X27283Y-24507D02*
X27500Y-24507D01*
X26535Y-25255D02*
X27283Y-24507D01*
X26102Y-25255D02*
X26535Y-25255D01*
X25767Y-25590D02*
X26102Y-25255D01*
X25767Y-26299D02*
X25767Y-25590D01*
X25314Y-26751D02*
X25767Y-26299D01*
X26287Y-25751D02*
X26295Y-25751D01*
X27298Y-24748D02*
X28281Y-24748D01*
X26295Y-25751D02*
X27298Y-24748D01*
G54D18*
X35846Y-20826D02*
X38366Y-20826D01*
X39901Y-22362D02*
X39901Y-24980D01*
X38366Y-20826D02*
X39901Y-22362D01*
X39901Y-24980D02*
X39901Y-25275D01*
X43267Y-26799D02*
X43267Y-25799D01*
X43267Y-25799D02*
X43267Y-24799D01*
X35866Y-20846D02*
X35846Y-20826D01*
X33622Y-20334D02*
X32844Y-20334D01*
X34133Y-20846D02*
X33622Y-20334D01*
X35826Y-20846D02*
X34133Y-20846D01*
X35846Y-20826D02*
X35826Y-20846D01*
G54D10*
G36*
X27148Y-24404D02*
X26696Y-24857D01*
X26705Y-24835D01*
X26705Y-24669D01*
X26642Y-24515D01*
X26546Y-24420D01*
X26574Y-24420D01*
X26574Y-24420D01*
X26574Y-24420D01*
X26639Y-24407D01*
X26693Y-24370D01*
X26998Y-24065D01*
X26998Y-24070D01*
X27047Y-24070D01*
X26998Y-24119D01*
X26998Y-24250D01*
X27028Y-24322D01*
X27083Y-24377D01*
X27148Y-24404D01*
X27148Y-24404D01*
G37*
G54D20*
X27148Y-24404D02*
X26696Y-24857D01*
X26705Y-24835D01*
X26705Y-24669D01*
X26642Y-24515D01*
X26546Y-24420D01*
X26574Y-24420D01*
X26574Y-24420D01*
X26574Y-24420D01*
X26639Y-24407D01*
X26693Y-24370D01*
X26998Y-24065D01*
X26998Y-24070D01*
X27047Y-24070D01*
X26998Y-24119D01*
X26998Y-24250D01*
X27028Y-24322D01*
X27083Y-24377D01*
X27148Y-24404D01*
G54D10*
G36*
X27587Y-23654D02*
X27516Y-23654D01*
X27464Y-23654D01*
X27414Y-23703D01*
X27414Y-23991D01*
X27422Y-23991D01*
X27422Y-24070D01*
X27414Y-24070D01*
X27414Y-24078D01*
X27336Y-24078D01*
X27336Y-24070D01*
X27328Y-24070D01*
X27328Y-23991D01*
X27336Y-23991D01*
X27336Y-23703D01*
X27287Y-23654D01*
X27234Y-23654D01*
X27156Y-23654D01*
X27083Y-23684D01*
X27077Y-23690D01*
X27077Y-23534D01*
X27095Y-23577D01*
X27128Y-23611D01*
X27171Y-23629D01*
X27218Y-23629D01*
X27578Y-23629D01*
X27587Y-23625D01*
X27587Y-23654D01*
X27587Y-23654D01*
G37*
G54D20*
X27587Y-23654D02*
X27516Y-23654D01*
X27464Y-23654D01*
X27414Y-23703D01*
X27414Y-23991D01*
X27422Y-23991D01*
X27422Y-24070D01*
X27414Y-24070D01*
X27414Y-24078D01*
X27336Y-24078D01*
X27336Y-24070D01*
X27328Y-24070D01*
X27328Y-23991D01*
X27336Y-23991D01*
X27336Y-23703D01*
X27287Y-23654D01*
X27234Y-23654D01*
X27156Y-23654D01*
X27083Y-23684D01*
X27077Y-23690D01*
X27077Y-23534D01*
X27095Y-23577D01*
X27128Y-23611D01*
X27171Y-23629D01*
X27218Y-23629D01*
X27578Y-23629D01*
X27587Y-23625D01*
X27587Y-23654D01*
G54D10*
G36*
X28267Y-20945D02*
X28100Y-21112D01*
X27788Y-21112D01*
X27745Y-21130D01*
X27712Y-21164D01*
X27694Y-21207D01*
X27693Y-21254D01*
X27693Y-21614D01*
X27705Y-21642D01*
X27589Y-21642D01*
X27575Y-21628D01*
X27575Y-20962D01*
X27575Y-20524D01*
X27545Y-20452D01*
X27490Y-20396D01*
X27417Y-20366D01*
X27339Y-20366D01*
X27287Y-20366D01*
X27237Y-20416D01*
X27237Y-20704D01*
X27526Y-20704D01*
X27575Y-20655D01*
X27575Y-20524D01*
X27575Y-20962D01*
X27575Y-20832D01*
X27526Y-20783D01*
X27237Y-20783D01*
X27237Y-21071D01*
X27287Y-21120D01*
X27339Y-21120D01*
X27417Y-21120D01*
X27490Y-21090D01*
X27545Y-21035D01*
X27575Y-20962D01*
X27575Y-21628D01*
X27067Y-21121D01*
X27066Y-21120D01*
X27109Y-21120D01*
X27159Y-21071D01*
X27159Y-20783D01*
X27159Y-20704D01*
X27159Y-20416D01*
X27109Y-20366D01*
X27057Y-20366D01*
X26979Y-20366D01*
X26906Y-20396D01*
X26851Y-20452D01*
X26821Y-20524D01*
X26821Y-20655D01*
X26870Y-20704D01*
X27159Y-20704D01*
X27159Y-20783D01*
X26870Y-20783D01*
X26821Y-20832D01*
X26821Y-20962D01*
X26851Y-21035D01*
X26888Y-21072D01*
X26558Y-21072D01*
X26641Y-20989D01*
X26705Y-20835D01*
X26705Y-20669D01*
X26642Y-20515D01*
X26550Y-20424D01*
X26633Y-20424D01*
X26633Y-20424D01*
X26633Y-20424D01*
X26698Y-20411D01*
X26752Y-20374D01*
X26900Y-20227D01*
X26900Y-20247D01*
X26918Y-20290D01*
X26951Y-20323D01*
X26994Y-20341D01*
X27041Y-20341D01*
X27401Y-20341D01*
X27445Y-20323D01*
X27478Y-20290D01*
X27496Y-20247D01*
X27496Y-20200D01*
X27496Y-19840D01*
X27478Y-19796D01*
X27445Y-19763D01*
X27402Y-19745D01*
X27355Y-19745D01*
X26995Y-19745D01*
X26951Y-19763D01*
X26918Y-19796D01*
X26900Y-19840D01*
X26900Y-19875D01*
X26846Y-19875D01*
X26781Y-19888D01*
X26727Y-19924D01*
X26564Y-20087D01*
X26542Y-20087D01*
X26641Y-19989D01*
X26705Y-19835D01*
X26705Y-19669D01*
X26642Y-19515D01*
X26614Y-19488D01*
X26732Y-19488D01*
X26822Y-19470D01*
X26899Y-19419D01*
X27135Y-19182D01*
X27186Y-19106D01*
X27204Y-19015D01*
X27204Y-18798D01*
X27223Y-18779D01*
X27262Y-18779D01*
X27262Y-19378D01*
X27280Y-19421D01*
X27314Y-19455D01*
X27357Y-19473D01*
X27404Y-19473D01*
X27444Y-19473D01*
X27444Y-19669D01*
X27462Y-19759D01*
X27514Y-19836D01*
X27762Y-20084D01*
X27762Y-20109D01*
X27751Y-20113D01*
X27718Y-20146D01*
X27700Y-20190D01*
X27700Y-20237D01*
X27700Y-20597D01*
X27718Y-20640D01*
X27751Y-20673D01*
X27794Y-20691D01*
X27841Y-20691D01*
X28201Y-20691D01*
X28245Y-20673D01*
X28267Y-20651D01*
X28267Y-20945D01*
X28267Y-20945D01*
G37*
G54D20*
X28267Y-20945D02*
X28100Y-21112D01*
X27788Y-21112D01*
X27745Y-21130D01*
X27712Y-21164D01*
X27694Y-21207D01*
X27693Y-21254D01*
X27693Y-21614D01*
X27705Y-21642D01*
X27589Y-21642D01*
X27575Y-21628D01*
X27575Y-20962D01*
X27575Y-20524D01*
X27545Y-20452D01*
X27490Y-20396D01*
X27417Y-20366D01*
X27339Y-20366D01*
X27287Y-20366D01*
X27237Y-20416D01*
X27237Y-20704D01*
X27526Y-20704D01*
X27575Y-20655D01*
X27575Y-20524D01*
X27575Y-20962D01*
X27575Y-20832D01*
X27526Y-20783D01*
X27237Y-20783D01*
X27237Y-21071D01*
X27287Y-21120D01*
X27339Y-21120D01*
X27417Y-21120D01*
X27490Y-21090D01*
X27545Y-21035D01*
X27575Y-20962D01*
X27575Y-21628D01*
X27067Y-21121D01*
X27066Y-21120D01*
X27109Y-21120D01*
X27159Y-21071D01*
X27159Y-20783D01*
X27159Y-20704D01*
X27159Y-20416D01*
X27109Y-20366D01*
X27057Y-20366D01*
X26979Y-20366D01*
X26906Y-20396D01*
X26851Y-20452D01*
X26821Y-20524D01*
X26821Y-20655D01*
X26870Y-20704D01*
X27159Y-20704D01*
X27159Y-20783D01*
X26870Y-20783D01*
X26821Y-20832D01*
X26821Y-20962D01*
X26851Y-21035D01*
X26888Y-21072D01*
X26558Y-21072D01*
X26641Y-20989D01*
X26705Y-20835D01*
X26705Y-20669D01*
X26642Y-20515D01*
X26550Y-20424D01*
X26633Y-20424D01*
X26633Y-20424D01*
X26633Y-20424D01*
X26698Y-20411D01*
X26752Y-20374D01*
X26900Y-20227D01*
X26900Y-20247D01*
X26918Y-20290D01*
X26951Y-20323D01*
X26994Y-20341D01*
X27041Y-20341D01*
X27401Y-20341D01*
X27445Y-20323D01*
X27478Y-20290D01*
X27496Y-20247D01*
X27496Y-20200D01*
X27496Y-19840D01*
X27478Y-19796D01*
X27445Y-19763D01*
X27402Y-19745D01*
X27355Y-19745D01*
X26995Y-19745D01*
X26951Y-19763D01*
X26918Y-19796D01*
X26900Y-19840D01*
X26900Y-19875D01*
X26846Y-19875D01*
X26781Y-19888D01*
X26727Y-19924D01*
X26564Y-20087D01*
X26542Y-20087D01*
X26641Y-19989D01*
X26705Y-19835D01*
X26705Y-19669D01*
X26642Y-19515D01*
X26614Y-19488D01*
X26732Y-19488D01*
X26822Y-19470D01*
X26899Y-19419D01*
X27135Y-19182D01*
X27186Y-19106D01*
X27204Y-19015D01*
X27204Y-18798D01*
X27223Y-18779D01*
X27262Y-18779D01*
X27262Y-19378D01*
X27280Y-19421D01*
X27314Y-19455D01*
X27357Y-19473D01*
X27404Y-19473D01*
X27444Y-19473D01*
X27444Y-19669D01*
X27462Y-19759D01*
X27514Y-19836D01*
X27762Y-20084D01*
X27762Y-20109D01*
X27751Y-20113D01*
X27718Y-20146D01*
X27700Y-20190D01*
X27700Y-20237D01*
X27700Y-20597D01*
X27718Y-20640D01*
X27751Y-20673D01*
X27794Y-20691D01*
X27841Y-20691D01*
X28201Y-20691D01*
X28245Y-20673D01*
X28267Y-20651D01*
X28267Y-20945D01*
G54D10*
G36*
X36893Y-26286D02*
X36718Y-26286D01*
X36669Y-26335D01*
X36669Y-26744D01*
X36677Y-26744D01*
X36677Y-26822D01*
X36669Y-26822D01*
X36669Y-27231D01*
X36718Y-27280D01*
X36798Y-27280D01*
X36713Y-27365D01*
X36713Y-27365D01*
X36590Y-27365D01*
X36590Y-27231D01*
X36590Y-26822D01*
X36590Y-26744D01*
X36590Y-26335D01*
X36541Y-26286D01*
X36290Y-26286D01*
X36218Y-26316D01*
X36163Y-26371D01*
X36133Y-26444D01*
X36133Y-26522D01*
X36133Y-26694D01*
X36182Y-26744D01*
X36590Y-26744D01*
X36590Y-26822D01*
X36182Y-26822D01*
X36133Y-26872D01*
X36133Y-27044D01*
X36133Y-27122D01*
X36163Y-27195D01*
X36218Y-27250D01*
X36290Y-27280D01*
X36541Y-27280D01*
X36590Y-27231D01*
X36590Y-27365D01*
X36547Y-27365D01*
X36393Y-27428D01*
X36275Y-27546D01*
X36211Y-27699D01*
X36211Y-27866D01*
X36275Y-28019D01*
X36392Y-28137D01*
X36539Y-28198D01*
X36063Y-28198D01*
X36063Y-27505D01*
X36063Y-26983D01*
X36063Y-26904D01*
X36033Y-26832D01*
X35978Y-26777D01*
X35905Y-26747D01*
X35655Y-26747D01*
X35606Y-26796D01*
X35606Y-27204D01*
X36014Y-27204D01*
X36063Y-27155D01*
X36063Y-26983D01*
X36063Y-27505D01*
X36063Y-27332D01*
X36014Y-27283D01*
X35606Y-27283D01*
X35606Y-27691D01*
X35655Y-27740D01*
X35905Y-27740D01*
X35978Y-27711D01*
X36033Y-27655D01*
X36063Y-27583D01*
X36063Y-27505D01*
X36063Y-28198D01*
X35527Y-28198D01*
X35527Y-27691D01*
X35527Y-27283D01*
X35527Y-27204D01*
X35527Y-26796D01*
X35478Y-26747D01*
X35227Y-26747D01*
X35155Y-26777D01*
X35100Y-26832D01*
X35070Y-26904D01*
X35070Y-26983D01*
X35070Y-27155D01*
X35119Y-27204D01*
X35527Y-27204D01*
X35527Y-27283D01*
X35119Y-27283D01*
X35070Y-27332D01*
X35070Y-27505D01*
X35070Y-27583D01*
X35100Y-27655D01*
X35155Y-27711D01*
X35227Y-27740D01*
X35478Y-27740D01*
X35527Y-27691D01*
X35527Y-28198D01*
X35067Y-28198D01*
X35067Y-27323D01*
X35059Y-27126D01*
X34998Y-26979D01*
X34916Y-26949D01*
X34861Y-27005D01*
X34861Y-26894D01*
X34831Y-26812D01*
X34646Y-26743D01*
X34449Y-26751D01*
X34301Y-26812D01*
X34272Y-26894D01*
X34566Y-27188D01*
X34861Y-26894D01*
X34861Y-27005D01*
X34622Y-27244D01*
X34916Y-27538D01*
X34998Y-27509D01*
X35067Y-27323D01*
X35067Y-28198D01*
X34861Y-28198D01*
X34861Y-27594D01*
X34566Y-27299D01*
X34511Y-27355D01*
X34511Y-27244D01*
X34216Y-26949D01*
X34135Y-26979D01*
X34066Y-27164D01*
X34074Y-27361D01*
X34135Y-27509D01*
X34216Y-27538D01*
X34511Y-27244D01*
X34511Y-27355D01*
X34272Y-27594D01*
X34301Y-27675D01*
X34487Y-27744D01*
X34684Y-27736D01*
X34831Y-27675D01*
X34861Y-27594D01*
X34861Y-28198D01*
X34067Y-28198D01*
X34067Y-27323D01*
X34059Y-27126D01*
X33998Y-26979D01*
X33916Y-26949D01*
X33861Y-27005D01*
X33861Y-26894D01*
X33831Y-26812D01*
X33646Y-26743D01*
X33449Y-26751D01*
X33301Y-26812D01*
X33272Y-26894D01*
X33566Y-27188D01*
X33861Y-26894D01*
X33861Y-27005D01*
X33622Y-27244D01*
X33916Y-27538D01*
X33998Y-27509D01*
X34067Y-27323D01*
X34067Y-28198D01*
X33861Y-28198D01*
X33861Y-27594D01*
X33566Y-27299D01*
X33511Y-27355D01*
X33511Y-27244D01*
X33216Y-26949D01*
X33135Y-26979D01*
X33066Y-27164D01*
X33074Y-27361D01*
X33135Y-27509D01*
X33216Y-27538D01*
X33511Y-27244D01*
X33511Y-27355D01*
X33272Y-27594D01*
X33301Y-27675D01*
X33487Y-27744D01*
X33684Y-27736D01*
X33831Y-27675D01*
X33861Y-27594D01*
X33861Y-28198D01*
X32393Y-28198D01*
X32595Y-27996D01*
X32595Y-27996D01*
X32595Y-27996D01*
X32631Y-27942D01*
X32644Y-27877D01*
X32644Y-27627D01*
X32712Y-27598D01*
X32830Y-27481D01*
X32894Y-27327D01*
X32894Y-27161D01*
X32831Y-27007D01*
X32713Y-26889D01*
X32559Y-26826D01*
X32393Y-26825D01*
X32256Y-26882D01*
X32256Y-25015D01*
X32117Y-24677D01*
X31859Y-24418D01*
X31522Y-24278D01*
X31156Y-24278D01*
X30819Y-24418D01*
X30560Y-24676D01*
X30420Y-25013D01*
X30420Y-25378D01*
X30559Y-25716D01*
X30817Y-25974D01*
X31155Y-26114D01*
X31520Y-26115D01*
X31857Y-25975D01*
X32116Y-25717D01*
X32256Y-25380D01*
X32256Y-25015D01*
X32256Y-26882D01*
X32239Y-26889D01*
X32122Y-27006D01*
X32058Y-27160D01*
X32058Y-27326D01*
X32121Y-27480D01*
X32239Y-27598D01*
X32308Y-27627D01*
X32308Y-27808D01*
X32076Y-28040D01*
X30425Y-28040D01*
X30595Y-27870D01*
X30595Y-27870D01*
X30595Y-27870D01*
X30631Y-27816D01*
X30644Y-27751D01*
X30644Y-27662D01*
X30799Y-27662D01*
X30843Y-27644D01*
X30876Y-27611D01*
X30894Y-27567D01*
X30894Y-27520D01*
X30894Y-26920D01*
X30876Y-26877D01*
X30843Y-26844D01*
X30799Y-26826D01*
X30752Y-26825D01*
X30152Y-26825D01*
X30109Y-26843D01*
X30076Y-26877D01*
X30058Y-26920D01*
X30058Y-26967D01*
X30058Y-27567D01*
X30076Y-27610D01*
X30109Y-27644D01*
X30152Y-27662D01*
X30199Y-27662D01*
X30308Y-27662D01*
X30308Y-27682D01*
X30166Y-27824D01*
X27249Y-27824D01*
X27247Y-27819D01*
X27181Y-27752D01*
X27094Y-27716D01*
X27000Y-27716D01*
X26913Y-27752D01*
X26847Y-27818D01*
X26811Y-27905D01*
X26810Y-27999D01*
X26827Y-28040D01*
X26590Y-28040D01*
X26641Y-27989D01*
X26705Y-27835D01*
X26705Y-27669D01*
X26705Y-26669D01*
X26642Y-26515D01*
X26524Y-26397D01*
X26370Y-26333D01*
X26204Y-26333D01*
X26050Y-26397D01*
X25933Y-26514D01*
X25869Y-26668D01*
X25869Y-26834D01*
X25932Y-26988D01*
X26050Y-27106D01*
X26203Y-27170D01*
X26370Y-27170D01*
X26523Y-27106D01*
X26641Y-26989D01*
X26705Y-26835D01*
X26705Y-26669D01*
X26705Y-27669D01*
X26642Y-27515D01*
X26524Y-27397D01*
X26370Y-27333D01*
X26204Y-27333D01*
X26050Y-27397D01*
X25933Y-27514D01*
X25869Y-27668D01*
X25869Y-27834D01*
X25932Y-27988D01*
X25984Y-28040D01*
X25590Y-28040D01*
X25641Y-27989D01*
X25705Y-27835D01*
X25705Y-27669D01*
X25642Y-27515D01*
X25524Y-27397D01*
X25370Y-27333D01*
X25204Y-27333D01*
X25050Y-27397D01*
X25010Y-27437D01*
X25010Y-27066D01*
X25050Y-27106D01*
X25203Y-27170D01*
X25370Y-27170D01*
X25523Y-27106D01*
X25641Y-26989D01*
X25705Y-26835D01*
X25705Y-26669D01*
X25685Y-26619D01*
X25886Y-26418D01*
X25886Y-26418D01*
X25886Y-26418D01*
X25923Y-26363D01*
X25935Y-26299D01*
X25935Y-25991D01*
X26050Y-26106D01*
X26203Y-26170D01*
X26370Y-26170D01*
X26523Y-26106D01*
X26641Y-25989D01*
X26705Y-25835D01*
X26705Y-25669D01*
X26679Y-25605D01*
X27368Y-24916D01*
X27982Y-24916D01*
X27982Y-24951D01*
X28000Y-24995D01*
X28034Y-25028D01*
X28077Y-25046D01*
X28124Y-25046D01*
X28464Y-25046D01*
X28464Y-25071D01*
X28422Y-25071D01*
X28369Y-25071D01*
X28320Y-25120D01*
X28320Y-25409D01*
X28328Y-25409D01*
X28328Y-25487D01*
X28320Y-25487D01*
X28320Y-25776D01*
X28329Y-25785D01*
X28241Y-25873D01*
X28241Y-25776D01*
X28241Y-25487D01*
X28241Y-25409D01*
X28241Y-25120D01*
X28192Y-25071D01*
X28140Y-25071D01*
X28061Y-25071D01*
X27989Y-25101D01*
X27934Y-25157D01*
X27904Y-25229D01*
X27904Y-25359D01*
X27953Y-25409D01*
X28241Y-25409D01*
X28241Y-25487D01*
X27953Y-25487D01*
X27904Y-25537D01*
X27904Y-25667D01*
X27934Y-25739D01*
X27989Y-25795D01*
X28061Y-25825D01*
X28140Y-25825D01*
X28192Y-25825D01*
X28241Y-25776D01*
X28241Y-25873D01*
X28228Y-25885D01*
X27677Y-25885D01*
X27586Y-25903D01*
X27510Y-25955D01*
X27218Y-26246D01*
X27167Y-26322D01*
X27149Y-26413D01*
X27149Y-26825D01*
X27062Y-26825D01*
X27019Y-26843D01*
X26985Y-26877D01*
X26967Y-26920D01*
X26967Y-26967D01*
X26967Y-27567D01*
X26985Y-27610D01*
X27018Y-27644D01*
X27062Y-27662D01*
X27109Y-27662D01*
X27709Y-27662D01*
X27752Y-27644D01*
X27785Y-27611D01*
X27803Y-27567D01*
X27803Y-27520D01*
X27803Y-26920D01*
X27786Y-26877D01*
X27752Y-26844D01*
X27709Y-26826D01*
X27662Y-26825D01*
X27622Y-26825D01*
X27622Y-26511D01*
X27775Y-26358D01*
X28248Y-26358D01*
X28218Y-26388D01*
X28167Y-26464D01*
X28149Y-26555D01*
X28149Y-26889D01*
X28149Y-26889D01*
X28031Y-27006D01*
X27967Y-27160D01*
X27967Y-27326D01*
X28031Y-27480D01*
X28148Y-27598D01*
X28302Y-27662D01*
X28468Y-27662D01*
X28622Y-27598D01*
X28740Y-27481D01*
X28803Y-27327D01*
X28804Y-27161D01*
X28740Y-27007D01*
X28622Y-26889D01*
X28622Y-26889D01*
X28622Y-26652D01*
X29248Y-26026D01*
X29299Y-25950D01*
X29317Y-25859D01*
X29317Y-25382D01*
X29327Y-25378D01*
X29361Y-25345D01*
X29379Y-25302D01*
X29379Y-25255D01*
X29379Y-24895D01*
X29361Y-24851D01*
X29328Y-24818D01*
X29284Y-24800D01*
X29237Y-24800D01*
X28937Y-24800D01*
X28937Y-24389D01*
X28924Y-24329D01*
X28973Y-24377D01*
X29046Y-24407D01*
X29124Y-24407D01*
X29176Y-24407D01*
X29225Y-24358D01*
X29225Y-24070D01*
X29225Y-23991D01*
X29225Y-23703D01*
X29176Y-23654D01*
X29124Y-23654D01*
X29046Y-23654D01*
X28973Y-23684D01*
X28918Y-23739D01*
X28888Y-23812D01*
X28888Y-23942D01*
X28937Y-23991D01*
X29225Y-23991D01*
X29225Y-24070D01*
X28937Y-24070D01*
X28888Y-24119D01*
X28888Y-24250D01*
X28892Y-24259D01*
X28867Y-24222D01*
X28710Y-24065D01*
X28633Y-24014D01*
X28543Y-23996D01*
X28463Y-23996D01*
X28425Y-23957D01*
X28455Y-23928D01*
X28473Y-23884D01*
X28473Y-23837D01*
X28473Y-23499D01*
X28967Y-23499D01*
X28967Y-23534D01*
X28985Y-23577D01*
X29018Y-23611D01*
X29061Y-23629D01*
X29108Y-23629D01*
X29468Y-23629D01*
X29512Y-23611D01*
X29545Y-23578D01*
X29563Y-23534D01*
X29563Y-23487D01*
X29563Y-23127D01*
X29545Y-23084D01*
X29523Y-23061D01*
X29969Y-23061D01*
X30306Y-23398D01*
X30268Y-23383D01*
X30221Y-23382D01*
X29861Y-23382D01*
X29818Y-23400D01*
X29785Y-23434D01*
X29767Y-23477D01*
X29767Y-23524D01*
X29767Y-23884D01*
X29785Y-23927D01*
X29818Y-23961D01*
X29829Y-23965D01*
X29829Y-24246D01*
X29734Y-24340D01*
X29683Y-24417D01*
X29665Y-24507D01*
X29665Y-25945D01*
X29642Y-25968D01*
X29642Y-24250D01*
X29642Y-23812D01*
X29612Y-23739D01*
X29557Y-23684D01*
X29484Y-23654D01*
X29406Y-23654D01*
X29353Y-23654D01*
X29304Y-23703D01*
X29304Y-23991D01*
X29592Y-23991D01*
X29642Y-23942D01*
X29642Y-23812D01*
X29642Y-24250D01*
X29642Y-24119D01*
X29592Y-24070D01*
X29304Y-24070D01*
X29304Y-24358D01*
X29353Y-24407D01*
X29406Y-24407D01*
X29484Y-24407D01*
X29557Y-24377D01*
X29612Y-24322D01*
X29642Y-24250D01*
X29642Y-25968D01*
X29218Y-26392D01*
X29167Y-26468D01*
X29149Y-26559D01*
X29149Y-26889D01*
X29149Y-26889D01*
X29031Y-27006D01*
X28967Y-27160D01*
X28967Y-27326D01*
X29031Y-27480D01*
X29148Y-27598D01*
X29302Y-27662D01*
X29468Y-27662D01*
X29622Y-27598D01*
X29740Y-27481D01*
X29803Y-27327D01*
X29804Y-27161D01*
X29740Y-27007D01*
X29622Y-26889D01*
X29622Y-26889D01*
X29622Y-26656D01*
X30068Y-26210D01*
X30068Y-26210D01*
X30102Y-26159D01*
X30119Y-26133D01*
X30119Y-26133D01*
X30137Y-26043D01*
X30137Y-26043D01*
X30137Y-25867D01*
X30806Y-26536D01*
X30806Y-26536D01*
X30860Y-26572D01*
X30860Y-26572D01*
X30912Y-26582D01*
X30925Y-26585D01*
X30925Y-26585D01*
X30925Y-26585D01*
X31190Y-26585D01*
X31308Y-26703D01*
X31308Y-26861D01*
X31239Y-26889D01*
X31122Y-27006D01*
X31058Y-27160D01*
X31058Y-27326D01*
X31121Y-27480D01*
X31239Y-27598D01*
X31392Y-27662D01*
X31559Y-27662D01*
X31712Y-27598D01*
X31830Y-27481D01*
X31894Y-27327D01*
X31894Y-27161D01*
X31831Y-27007D01*
X31713Y-26889D01*
X31644Y-26861D01*
X31644Y-26633D01*
X31631Y-26569D01*
X31595Y-26514D01*
X31595Y-26514D01*
X31378Y-26298D01*
X31324Y-26262D01*
X31259Y-26249D01*
X31259Y-26249D01*
X30994Y-26249D01*
X30404Y-25658D01*
X30404Y-24656D01*
X30630Y-24429D01*
X30630Y-24429D01*
X30630Y-24429D01*
X30667Y-24375D01*
X30679Y-24311D01*
X30679Y-23898D01*
X30700Y-23918D01*
X30744Y-23936D01*
X30791Y-23937D01*
X32365Y-23937D01*
X32409Y-23919D01*
X32442Y-23885D01*
X32460Y-23842D01*
X32460Y-23795D01*
X32460Y-22614D01*
X32442Y-22570D01*
X32409Y-22537D01*
X32366Y-22519D01*
X32319Y-22519D01*
X30744Y-22519D01*
X30700Y-22537D01*
X30667Y-22570D01*
X30649Y-22614D01*
X30649Y-22661D01*
X30649Y-22717D01*
X30541Y-22608D01*
X30507Y-22575D01*
X30421Y-22539D01*
X30393Y-22539D01*
X30393Y-22244D01*
X30393Y-21338D01*
X30393Y-21260D01*
X30363Y-21187D01*
X30308Y-21132D01*
X30235Y-21102D01*
X29783Y-21102D01*
X29734Y-21151D01*
X29734Y-21751D01*
X30344Y-21751D01*
X30393Y-21702D01*
X30393Y-21338D01*
X30393Y-22244D01*
X30393Y-21879D01*
X30344Y-21830D01*
X29734Y-21830D01*
X29734Y-22430D01*
X29783Y-22480D01*
X30235Y-22480D01*
X30308Y-22450D01*
X30363Y-22394D01*
X30393Y-22322D01*
X30393Y-22244D01*
X30393Y-22539D01*
X30327Y-22539D01*
X30240Y-22575D01*
X30173Y-22641D01*
X30137Y-22728D01*
X30137Y-22761D01*
X30103Y-22738D01*
X30039Y-22725D01*
X30039Y-22725D01*
X29655Y-22725D01*
X29655Y-22430D01*
X29655Y-21830D01*
X29045Y-21830D01*
X28996Y-21879D01*
X28996Y-22244D01*
X28996Y-22322D01*
X29026Y-22394D01*
X29081Y-22450D01*
X29153Y-22480D01*
X29606Y-22480D01*
X29655Y-22430D01*
X29655Y-22725D01*
X28719Y-22725D01*
X28719Y-22352D01*
X28718Y-22299D01*
X28669Y-22250D01*
X28381Y-22250D01*
X28381Y-22538D01*
X28430Y-22587D01*
X28561Y-22587D01*
X28633Y-22558D01*
X28688Y-22502D01*
X28718Y-22430D01*
X28719Y-22352D01*
X28719Y-22725D01*
X28302Y-22725D01*
X28302Y-22538D01*
X28302Y-22250D01*
X28014Y-22250D01*
X27965Y-22299D01*
X27965Y-22352D01*
X27965Y-22430D01*
X27995Y-22502D01*
X28050Y-22558D01*
X28123Y-22587D01*
X28253Y-22587D01*
X28302Y-22538D01*
X28302Y-22725D01*
X26979Y-22725D01*
X26886Y-22633D01*
X26832Y-22596D01*
X26767Y-22583D01*
X26767Y-22583D01*
X26670Y-22583D01*
X26642Y-22515D01*
X26524Y-22397D01*
X26370Y-22333D01*
X26204Y-22333D01*
X26050Y-22397D01*
X25933Y-22514D01*
X25869Y-22668D01*
X25869Y-22834D01*
X25932Y-22988D01*
X26050Y-23106D01*
X26203Y-23170D01*
X26370Y-23170D01*
X26523Y-23106D01*
X26641Y-22989D01*
X26670Y-22920D01*
X26698Y-22920D01*
X26790Y-23012D01*
X26790Y-23012D01*
X26845Y-23049D01*
X26845Y-23049D01*
X26896Y-23059D01*
X26909Y-23061D01*
X26909Y-23061D01*
X26909Y-23061D01*
X27117Y-23061D01*
X27095Y-23084D01*
X27077Y-23127D01*
X27077Y-23162D01*
X27042Y-23162D01*
X26978Y-23175D01*
X26924Y-23212D01*
X26924Y-23212D01*
X26790Y-23345D01*
X26754Y-23400D01*
X26741Y-23464D01*
X26741Y-23464D01*
X26741Y-23847D01*
X26671Y-23917D01*
X26705Y-23835D01*
X26705Y-23669D01*
X26642Y-23515D01*
X26524Y-23397D01*
X26370Y-23333D01*
X26204Y-23333D01*
X26050Y-23397D01*
X25933Y-23514D01*
X25869Y-23668D01*
X25869Y-23834D01*
X25932Y-23988D01*
X26027Y-24083D01*
X25787Y-24083D01*
X25723Y-24096D01*
X25668Y-24133D01*
X25668Y-24133D01*
X25439Y-24362D01*
X25370Y-24333D01*
X25204Y-24333D01*
X25050Y-24397D01*
X25010Y-24437D01*
X25010Y-24066D01*
X25050Y-24106D01*
X25203Y-24170D01*
X25370Y-24170D01*
X25523Y-24106D01*
X25641Y-23989D01*
X25705Y-23835D01*
X25705Y-23669D01*
X25642Y-23515D01*
X25524Y-23397D01*
X25370Y-23333D01*
X25204Y-23333D01*
X25050Y-23397D01*
X25010Y-23437D01*
X25010Y-23238D01*
X25116Y-23133D01*
X25203Y-23170D01*
X25370Y-23170D01*
X25523Y-23106D01*
X25641Y-22989D01*
X25705Y-22835D01*
X25705Y-22669D01*
X25705Y-21669D01*
X25642Y-21515D01*
X25524Y-21397D01*
X25370Y-21333D01*
X25204Y-21333D01*
X25050Y-21397D01*
X24933Y-21514D01*
X24869Y-21668D01*
X24869Y-21834D01*
X24932Y-21988D01*
X25050Y-22106D01*
X25203Y-22170D01*
X25370Y-22170D01*
X25523Y-22106D01*
X25641Y-21989D01*
X25705Y-21835D01*
X25705Y-21669D01*
X25705Y-22669D01*
X25642Y-22515D01*
X25524Y-22397D01*
X25370Y-22333D01*
X25204Y-22333D01*
X25050Y-22397D01*
X24933Y-22514D01*
X24869Y-22668D01*
X24869Y-22834D01*
X24889Y-22884D01*
X24832Y-22941D01*
X24832Y-18297D01*
X25863Y-18297D01*
X25820Y-18340D01*
X25790Y-18412D01*
X25790Y-18663D01*
X25839Y-18712D01*
X26248Y-18712D01*
X26248Y-18704D01*
X26326Y-18704D01*
X26326Y-18712D01*
X26334Y-18712D01*
X26334Y-18791D01*
X26326Y-18791D01*
X26326Y-18799D01*
X26248Y-18799D01*
X26248Y-18791D01*
X25839Y-18791D01*
X25790Y-18840D01*
X25790Y-18999D01*
X25682Y-18891D01*
X25705Y-18835D01*
X25705Y-18669D01*
X25642Y-18515D01*
X25524Y-18397D01*
X25370Y-18333D01*
X25204Y-18333D01*
X25050Y-18397D01*
X24933Y-18514D01*
X24869Y-18668D01*
X24869Y-18834D01*
X24932Y-18988D01*
X25050Y-19106D01*
X25203Y-19170D01*
X25292Y-19170D01*
X25517Y-19394D01*
X25370Y-19333D01*
X25204Y-19333D01*
X25050Y-19397D01*
X24933Y-19514D01*
X24869Y-19668D01*
X24869Y-19834D01*
X24932Y-19988D01*
X25050Y-20106D01*
X25203Y-20170D01*
X25370Y-20170D01*
X25436Y-20142D01*
X25668Y-20374D01*
X25668Y-20374D01*
X25723Y-20411D01*
X25787Y-20424D01*
X26024Y-20424D01*
X25933Y-20514D01*
X25869Y-20668D01*
X25869Y-20834D01*
X25932Y-20988D01*
X26016Y-21072D01*
X25837Y-21072D01*
X25674Y-20909D01*
X25705Y-20835D01*
X25705Y-20669D01*
X25642Y-20515D01*
X25524Y-20397D01*
X25370Y-20333D01*
X25204Y-20333D01*
X25050Y-20397D01*
X24933Y-20514D01*
X24869Y-20668D01*
X24869Y-20834D01*
X24932Y-20988D01*
X25050Y-21106D01*
X25203Y-21170D01*
X25370Y-21170D01*
X25433Y-21143D01*
X25648Y-21359D01*
X25648Y-21359D01*
X25703Y-21395D01*
X25767Y-21408D01*
X26039Y-21408D01*
X25933Y-21514D01*
X25869Y-21668D01*
X25869Y-21834D01*
X25932Y-21988D01*
X26050Y-22106D01*
X26203Y-22170D01*
X26370Y-22170D01*
X26523Y-22106D01*
X26641Y-21989D01*
X26705Y-21835D01*
X26705Y-21669D01*
X26642Y-21515D01*
X26535Y-21408D01*
X26879Y-21408D01*
X27399Y-21928D01*
X27395Y-21930D01*
X27362Y-21964D01*
X27344Y-22007D01*
X27344Y-22042D01*
X27339Y-22042D01*
X27322Y-22026D01*
X27322Y-21980D01*
X27286Y-21893D01*
X27220Y-21827D01*
X27133Y-21791D01*
X27039Y-21791D01*
X26952Y-21827D01*
X26886Y-21893D01*
X26850Y-21980D01*
X26850Y-22074D01*
X26886Y-22161D01*
X26952Y-22227D01*
X27039Y-22263D01*
X27085Y-22263D01*
X27151Y-22329D01*
X27151Y-22329D01*
X27205Y-22366D01*
X27270Y-22379D01*
X27343Y-22379D01*
X27343Y-22414D01*
X27361Y-22457D01*
X27395Y-22491D01*
X27438Y-22509D01*
X27485Y-22509D01*
X27845Y-22509D01*
X27888Y-22491D01*
X27922Y-22458D01*
X27940Y-22414D01*
X27940Y-22367D01*
X27940Y-22007D01*
X27928Y-21979D01*
X27970Y-21979D01*
X27965Y-21991D01*
X27965Y-22070D01*
X27965Y-22122D01*
X28014Y-22171D01*
X28302Y-22171D01*
X28302Y-22163D01*
X28381Y-22163D01*
X28381Y-22171D01*
X28669Y-22171D01*
X28718Y-22122D01*
X28719Y-22070D01*
X28718Y-21991D01*
X28688Y-21919D01*
X28633Y-21864D01*
X28561Y-21834D01*
X28561Y-21834D01*
X28662Y-21733D01*
X28662Y-21733D01*
X28662Y-21733D01*
X28957Y-21437D01*
X28957Y-21437D01*
X28957Y-21437D01*
X28993Y-21383D01*
X28996Y-21372D01*
X28996Y-21702D01*
X29045Y-21751D01*
X29655Y-21751D01*
X29655Y-21151D01*
X29606Y-21102D01*
X29543Y-21102D01*
X29543Y-20903D01*
X29543Y-20465D01*
X29513Y-20393D01*
X29458Y-20337D01*
X29386Y-20307D01*
X29307Y-20307D01*
X29255Y-20307D01*
X29206Y-20357D01*
X29206Y-20645D01*
X29494Y-20645D01*
X29543Y-20596D01*
X29543Y-20465D01*
X29543Y-20903D01*
X29543Y-20773D01*
X29494Y-20724D01*
X29206Y-20724D01*
X29206Y-21012D01*
X29255Y-21061D01*
X29307Y-21061D01*
X29386Y-21061D01*
X29458Y-21031D01*
X29513Y-20976D01*
X29543Y-20903D01*
X29543Y-21102D01*
X29153Y-21102D01*
X29081Y-21132D01*
X29026Y-21187D01*
X29006Y-21234D01*
X29006Y-21061D01*
X29025Y-21061D01*
X29078Y-21061D01*
X29127Y-21012D01*
X29127Y-20724D01*
X29119Y-20724D01*
X29119Y-20645D01*
X29127Y-20645D01*
X29127Y-20357D01*
X29078Y-20307D01*
X29025Y-20307D01*
X29006Y-20307D01*
X29006Y-20282D01*
X29010Y-20282D01*
X29370Y-20282D01*
X29413Y-20264D01*
X29446Y-20231D01*
X29465Y-20188D01*
X29465Y-20141D01*
X29465Y-19781D01*
X29447Y-19737D01*
X29413Y-19704D01*
X29370Y-19686D01*
X29323Y-19686D01*
X28963Y-19686D01*
X28920Y-19704D01*
X28902Y-19722D01*
X28917Y-19645D01*
X28917Y-19409D01*
X28917Y-19409D01*
X29035Y-19292D01*
X29099Y-19138D01*
X29099Y-18972D01*
X29035Y-18818D01*
X28996Y-18779D01*
X29365Y-18779D01*
X29326Y-18817D01*
X29263Y-18971D01*
X29262Y-19137D01*
X29326Y-19291D01*
X29443Y-19409D01*
X29444Y-19409D01*
X29444Y-19562D01*
X29462Y-19653D01*
X29514Y-19730D01*
X29730Y-19946D01*
X29730Y-20050D01*
X29720Y-20054D01*
X29686Y-20087D01*
X29668Y-20131D01*
X29668Y-20178D01*
X29668Y-20538D01*
X29686Y-20581D01*
X29719Y-20614D01*
X29763Y-20632D01*
X29810Y-20632D01*
X30157Y-20632D01*
X30157Y-20787D01*
X30157Y-20865D01*
X30187Y-20938D01*
X30243Y-20993D01*
X30315Y-21023D01*
X30767Y-21023D01*
X30817Y-20974D01*
X30817Y-20374D01*
X30809Y-20374D01*
X30809Y-20295D01*
X30817Y-20295D01*
X30817Y-19695D01*
X30767Y-19645D01*
X30315Y-19645D01*
X30243Y-19675D01*
X30187Y-19730D01*
X30179Y-19750D01*
X30133Y-19681D01*
X29917Y-19465D01*
X29917Y-19409D01*
X29917Y-19409D01*
X30035Y-19292D01*
X30099Y-19138D01*
X30099Y-18972D01*
X30035Y-18818D01*
X29996Y-18779D01*
X30589Y-18779D01*
X30589Y-19378D01*
X30607Y-19421D01*
X30640Y-19455D01*
X30684Y-19473D01*
X30731Y-19473D01*
X31331Y-19473D01*
X31374Y-19455D01*
X31407Y-19422D01*
X31425Y-19378D01*
X31426Y-19331D01*
X31426Y-19291D01*
X31653Y-19291D01*
X31653Y-19291D01*
X31770Y-19409D01*
X31771Y-19409D01*
X31771Y-20728D01*
X31555Y-20945D01*
X31555Y-20787D01*
X31555Y-19881D01*
X31555Y-19803D01*
X31525Y-19730D01*
X31469Y-19675D01*
X31397Y-19645D01*
X30944Y-19645D01*
X30895Y-19695D01*
X30895Y-20295D01*
X31506Y-20295D01*
X31555Y-20246D01*
X31555Y-19881D01*
X31555Y-20787D01*
X31555Y-20423D01*
X31506Y-20374D01*
X30895Y-20374D01*
X30895Y-20974D01*
X30944Y-21023D01*
X31397Y-21023D01*
X31469Y-20993D01*
X31525Y-20938D01*
X31555Y-20865D01*
X31555Y-20787D01*
X31555Y-20945D01*
X31515Y-20984D01*
X31464Y-21061D01*
X31446Y-21151D01*
X31446Y-21181D01*
X31157Y-21181D01*
X31114Y-21199D01*
X31080Y-21232D01*
X31062Y-21275D01*
X31062Y-21322D01*
X31062Y-22306D01*
X31080Y-22350D01*
X31113Y-22383D01*
X31157Y-22401D01*
X31204Y-22401D01*
X32208Y-22401D01*
X32251Y-22383D01*
X32285Y-22350D01*
X32303Y-22306D01*
X32303Y-22259D01*
X32303Y-22027D01*
X32815Y-22027D01*
X33307Y-22519D01*
X33307Y-23248D01*
X33325Y-23338D01*
X33376Y-23415D01*
X34124Y-24163D01*
X34124Y-24163D01*
X34175Y-24197D01*
X34200Y-24214D01*
X34200Y-24214D01*
X34291Y-24232D01*
X34291Y-24232D01*
X34881Y-24232D01*
X35413Y-24232D01*
X36063Y-24232D01*
X36462Y-24631D01*
X36502Y-24690D01*
X36893Y-25082D01*
X36893Y-26286D01*
X36893Y-26286D01*
G37*
G54D20*
X36893Y-26286D02*
X36718Y-26286D01*
X36669Y-26335D01*
X36669Y-26744D01*
X36677Y-26744D01*
X36677Y-26822D01*
X36669Y-26822D01*
X36669Y-27231D01*
X36718Y-27280D01*
X36798Y-27280D01*
X36713Y-27365D01*
X36713Y-27365D01*
X36590Y-27365D01*
X36590Y-27231D01*
X36590Y-26822D01*
X36590Y-26744D01*
X36590Y-26335D01*
X36541Y-26286D01*
X36290Y-26286D01*
X36218Y-26316D01*
X36163Y-26371D01*
X36133Y-26444D01*
X36133Y-26522D01*
X36133Y-26694D01*
X36182Y-26744D01*
X36590Y-26744D01*
X36590Y-26822D01*
X36182Y-26822D01*
X36133Y-26872D01*
X36133Y-27044D01*
X36133Y-27122D01*
X36163Y-27195D01*
X36218Y-27250D01*
X36290Y-27280D01*
X36541Y-27280D01*
X36590Y-27231D01*
X36590Y-27365D01*
X36547Y-27365D01*
X36393Y-27428D01*
X36275Y-27546D01*
X36211Y-27699D01*
X36211Y-27866D01*
X36275Y-28019D01*
X36392Y-28137D01*
X36539Y-28198D01*
X36063Y-28198D01*
X36063Y-27505D01*
X36063Y-26983D01*
X36063Y-26904D01*
X36033Y-26832D01*
X35978Y-26777D01*
X35905Y-26747D01*
X35655Y-26747D01*
X35606Y-26796D01*
X35606Y-27204D01*
X36014Y-27204D01*
X36063Y-27155D01*
X36063Y-26983D01*
X36063Y-27505D01*
X36063Y-27332D01*
X36014Y-27283D01*
X35606Y-27283D01*
X35606Y-27691D01*
X35655Y-27740D01*
X35905Y-27740D01*
X35978Y-27711D01*
X36033Y-27655D01*
X36063Y-27583D01*
X36063Y-27505D01*
X36063Y-28198D01*
X35527Y-28198D01*
X35527Y-27691D01*
X35527Y-27283D01*
X35527Y-27204D01*
X35527Y-26796D01*
X35478Y-26747D01*
X35227Y-26747D01*
X35155Y-26777D01*
X35100Y-26832D01*
X35070Y-26904D01*
X35070Y-26983D01*
X35070Y-27155D01*
X35119Y-27204D01*
X35527Y-27204D01*
X35527Y-27283D01*
X35119Y-27283D01*
X35070Y-27332D01*
X35070Y-27505D01*
X35070Y-27583D01*
X35100Y-27655D01*
X35155Y-27711D01*
X35227Y-27740D01*
X35478Y-27740D01*
X35527Y-27691D01*
X35527Y-28198D01*
X35067Y-28198D01*
X35067Y-27323D01*
X35059Y-27126D01*
X34998Y-26979D01*
X34916Y-26949D01*
X34861Y-27005D01*
X34861Y-26894D01*
X34831Y-26812D01*
X34646Y-26743D01*
X34449Y-26751D01*
X34301Y-26812D01*
X34272Y-26894D01*
X34566Y-27188D01*
X34861Y-26894D01*
X34861Y-27005D01*
X34622Y-27244D01*
X34916Y-27538D01*
X34998Y-27509D01*
X35067Y-27323D01*
X35067Y-28198D01*
X34861Y-28198D01*
X34861Y-27594D01*
X34566Y-27299D01*
X34511Y-27355D01*
X34511Y-27244D01*
X34216Y-26949D01*
X34135Y-26979D01*
X34066Y-27164D01*
X34074Y-27361D01*
X34135Y-27509D01*
X34216Y-27538D01*
X34511Y-27244D01*
X34511Y-27355D01*
X34272Y-27594D01*
X34301Y-27675D01*
X34487Y-27744D01*
X34684Y-27736D01*
X34831Y-27675D01*
X34861Y-27594D01*
X34861Y-28198D01*
X34067Y-28198D01*
X34067Y-27323D01*
X34059Y-27126D01*
X33998Y-26979D01*
X33916Y-26949D01*
X33861Y-27005D01*
X33861Y-26894D01*
X33831Y-26812D01*
X33646Y-26743D01*
X33449Y-26751D01*
X33301Y-26812D01*
X33272Y-26894D01*
X33566Y-27188D01*
X33861Y-26894D01*
X33861Y-27005D01*
X33622Y-27244D01*
X33916Y-27538D01*
X33998Y-27509D01*
X34067Y-27323D01*
X34067Y-28198D01*
X33861Y-28198D01*
X33861Y-27594D01*
X33566Y-27299D01*
X33511Y-27355D01*
X33511Y-27244D01*
X33216Y-26949D01*
X33135Y-26979D01*
X33066Y-27164D01*
X33074Y-27361D01*
X33135Y-27509D01*
X33216Y-27538D01*
X33511Y-27244D01*
X33511Y-27355D01*
X33272Y-27594D01*
X33301Y-27675D01*
X33487Y-27744D01*
X33684Y-27736D01*
X33831Y-27675D01*
X33861Y-27594D01*
X33861Y-28198D01*
X32393Y-28198D01*
X32595Y-27996D01*
X32595Y-27996D01*
X32595Y-27996D01*
X32631Y-27942D01*
X32644Y-27877D01*
X32644Y-27627D01*
X32712Y-27598D01*
X32830Y-27481D01*
X32894Y-27327D01*
X32894Y-27161D01*
X32831Y-27007D01*
X32713Y-26889D01*
X32559Y-26826D01*
X32393Y-26825D01*
X32256Y-26882D01*
X32256Y-25015D01*
X32117Y-24677D01*
X31859Y-24418D01*
X31522Y-24278D01*
X31156Y-24278D01*
X30819Y-24418D01*
X30560Y-24676D01*
X30420Y-25013D01*
X30420Y-25378D01*
X30559Y-25716D01*
X30817Y-25974D01*
X31155Y-26114D01*
X31520Y-26115D01*
X31857Y-25975D01*
X32116Y-25717D01*
X32256Y-25380D01*
X32256Y-25015D01*
X32256Y-26882D01*
X32239Y-26889D01*
X32122Y-27006D01*
X32058Y-27160D01*
X32058Y-27326D01*
X32121Y-27480D01*
X32239Y-27598D01*
X32308Y-27627D01*
X32308Y-27808D01*
X32076Y-28040D01*
X30425Y-28040D01*
X30595Y-27870D01*
X30595Y-27870D01*
X30595Y-27870D01*
X30631Y-27816D01*
X30644Y-27751D01*
X30644Y-27662D01*
X30799Y-27662D01*
X30843Y-27644D01*
X30876Y-27611D01*
X30894Y-27567D01*
X30894Y-27520D01*
X30894Y-26920D01*
X30876Y-26877D01*
X30843Y-26844D01*
X30799Y-26826D01*
X30752Y-26825D01*
X30152Y-26825D01*
X30109Y-26843D01*
X30076Y-26877D01*
X30058Y-26920D01*
X30058Y-26967D01*
X30058Y-27567D01*
X30076Y-27610D01*
X30109Y-27644D01*
X30152Y-27662D01*
X30199Y-27662D01*
X30308Y-27662D01*
X30308Y-27682D01*
X30166Y-27824D01*
X27249Y-27824D01*
X27247Y-27819D01*
X27181Y-27752D01*
X27094Y-27716D01*
X27000Y-27716D01*
X26913Y-27752D01*
X26847Y-27818D01*
X26811Y-27905D01*
X26810Y-27999D01*
X26827Y-28040D01*
X26590Y-28040D01*
X26641Y-27989D01*
X26705Y-27835D01*
X26705Y-27669D01*
X26705Y-26669D01*
X26642Y-26515D01*
X26524Y-26397D01*
X26370Y-26333D01*
X26204Y-26333D01*
X26050Y-26397D01*
X25933Y-26514D01*
X25869Y-26668D01*
X25869Y-26834D01*
X25932Y-26988D01*
X26050Y-27106D01*
X26203Y-27170D01*
X26370Y-27170D01*
X26523Y-27106D01*
X26641Y-26989D01*
X26705Y-26835D01*
X26705Y-26669D01*
X26705Y-27669D01*
X26642Y-27515D01*
X26524Y-27397D01*
X26370Y-27333D01*
X26204Y-27333D01*
X26050Y-27397D01*
X25933Y-27514D01*
X25869Y-27668D01*
X25869Y-27834D01*
X25932Y-27988D01*
X25984Y-28040D01*
X25590Y-28040D01*
X25641Y-27989D01*
X25705Y-27835D01*
X25705Y-27669D01*
X25642Y-27515D01*
X25524Y-27397D01*
X25370Y-27333D01*
X25204Y-27333D01*
X25050Y-27397D01*
X25010Y-27437D01*
X25010Y-27066D01*
X25050Y-27106D01*
X25203Y-27170D01*
X25370Y-27170D01*
X25523Y-27106D01*
X25641Y-26989D01*
X25705Y-26835D01*
X25705Y-26669D01*
X25685Y-26619D01*
X25886Y-26418D01*
X25886Y-26418D01*
X25886Y-26418D01*
X25923Y-26363D01*
X25935Y-26299D01*
X25935Y-25991D01*
X26050Y-26106D01*
X26203Y-26170D01*
X26370Y-26170D01*
X26523Y-26106D01*
X26641Y-25989D01*
X26705Y-25835D01*
X26705Y-25669D01*
X26679Y-25605D01*
X27368Y-24916D01*
X27982Y-24916D01*
X27982Y-24951D01*
X28000Y-24995D01*
X28034Y-25028D01*
X28077Y-25046D01*
X28124Y-25046D01*
X28464Y-25046D01*
X28464Y-25071D01*
X28422Y-25071D01*
X28369Y-25071D01*
X28320Y-25120D01*
X28320Y-25409D01*
X28328Y-25409D01*
X28328Y-25487D01*
X28320Y-25487D01*
X28320Y-25776D01*
X28329Y-25785D01*
X28241Y-25873D01*
X28241Y-25776D01*
X28241Y-25487D01*
X28241Y-25409D01*
X28241Y-25120D01*
X28192Y-25071D01*
X28140Y-25071D01*
X28061Y-25071D01*
X27989Y-25101D01*
X27934Y-25157D01*
X27904Y-25229D01*
X27904Y-25359D01*
X27953Y-25409D01*
X28241Y-25409D01*
X28241Y-25487D01*
X27953Y-25487D01*
X27904Y-25537D01*
X27904Y-25667D01*
X27934Y-25739D01*
X27989Y-25795D01*
X28061Y-25825D01*
X28140Y-25825D01*
X28192Y-25825D01*
X28241Y-25776D01*
X28241Y-25873D01*
X28228Y-25885D01*
X27677Y-25885D01*
X27586Y-25903D01*
X27510Y-25955D01*
X27218Y-26246D01*
X27167Y-26322D01*
X27149Y-26413D01*
X27149Y-26825D01*
X27062Y-26825D01*
X27019Y-26843D01*
X26985Y-26877D01*
X26967Y-26920D01*
X26967Y-26967D01*
X26967Y-27567D01*
X26985Y-27610D01*
X27018Y-27644D01*
X27062Y-27662D01*
X27109Y-27662D01*
X27709Y-27662D01*
X27752Y-27644D01*
X27785Y-27611D01*
X27803Y-27567D01*
X27803Y-27520D01*
X27803Y-26920D01*
X27786Y-26877D01*
X27752Y-26844D01*
X27709Y-26826D01*
X27662Y-26825D01*
X27622Y-26825D01*
X27622Y-26511D01*
X27775Y-26358D01*
X28248Y-26358D01*
X28218Y-26388D01*
X28167Y-26464D01*
X28149Y-26555D01*
X28149Y-26889D01*
X28149Y-26889D01*
X28031Y-27006D01*
X27967Y-27160D01*
X27967Y-27326D01*
X28031Y-27480D01*
X28148Y-27598D01*
X28302Y-27662D01*
X28468Y-27662D01*
X28622Y-27598D01*
X28740Y-27481D01*
X28803Y-27327D01*
X28804Y-27161D01*
X28740Y-27007D01*
X28622Y-26889D01*
X28622Y-26889D01*
X28622Y-26652D01*
X29248Y-26026D01*
X29299Y-25950D01*
X29317Y-25859D01*
X29317Y-25382D01*
X29327Y-25378D01*
X29361Y-25345D01*
X29379Y-25302D01*
X29379Y-25255D01*
X29379Y-24895D01*
X29361Y-24851D01*
X29328Y-24818D01*
X29284Y-24800D01*
X29237Y-24800D01*
X28937Y-24800D01*
X28937Y-24389D01*
X28924Y-24329D01*
X28973Y-24377D01*
X29046Y-24407D01*
X29124Y-24407D01*
X29176Y-24407D01*
X29225Y-24358D01*
X29225Y-24070D01*
X29225Y-23991D01*
X29225Y-23703D01*
X29176Y-23654D01*
X29124Y-23654D01*
X29046Y-23654D01*
X28973Y-23684D01*
X28918Y-23739D01*
X28888Y-23812D01*
X28888Y-23942D01*
X28937Y-23991D01*
X29225Y-23991D01*
X29225Y-24070D01*
X28937Y-24070D01*
X28888Y-24119D01*
X28888Y-24250D01*
X28892Y-24259D01*
X28867Y-24222D01*
X28710Y-24065D01*
X28633Y-24014D01*
X28543Y-23996D01*
X28463Y-23996D01*
X28425Y-23957D01*
X28455Y-23928D01*
X28473Y-23884D01*
X28473Y-23837D01*
X28473Y-23499D01*
X28967Y-23499D01*
X28967Y-23534D01*
X28985Y-23577D01*
X29018Y-23611D01*
X29061Y-23629D01*
X29108Y-23629D01*
X29468Y-23629D01*
X29512Y-23611D01*
X29545Y-23578D01*
X29563Y-23534D01*
X29563Y-23487D01*
X29563Y-23127D01*
X29545Y-23084D01*
X29523Y-23061D01*
X29969Y-23061D01*
X30306Y-23398D01*
X30268Y-23383D01*
X30221Y-23382D01*
X29861Y-23382D01*
X29818Y-23400D01*
X29785Y-23434D01*
X29767Y-23477D01*
X29767Y-23524D01*
X29767Y-23884D01*
X29785Y-23927D01*
X29818Y-23961D01*
X29829Y-23965D01*
X29829Y-24246D01*
X29734Y-24340D01*
X29683Y-24417D01*
X29665Y-24507D01*
X29665Y-25945D01*
X29642Y-25968D01*
X29642Y-24250D01*
X29642Y-23812D01*
X29612Y-23739D01*
X29557Y-23684D01*
X29484Y-23654D01*
X29406Y-23654D01*
X29353Y-23654D01*
X29304Y-23703D01*
X29304Y-23991D01*
X29592Y-23991D01*
X29642Y-23942D01*
X29642Y-23812D01*
X29642Y-24250D01*
X29642Y-24119D01*
X29592Y-24070D01*
X29304Y-24070D01*
X29304Y-24358D01*
X29353Y-24407D01*
X29406Y-24407D01*
X29484Y-24407D01*
X29557Y-24377D01*
X29612Y-24322D01*
X29642Y-24250D01*
X29642Y-25968D01*
X29218Y-26392D01*
X29167Y-26468D01*
X29149Y-26559D01*
X29149Y-26889D01*
X29149Y-26889D01*
X29031Y-27006D01*
X28967Y-27160D01*
X28967Y-27326D01*
X29031Y-27480D01*
X29148Y-27598D01*
X29302Y-27662D01*
X29468Y-27662D01*
X29622Y-27598D01*
X29740Y-27481D01*
X29803Y-27327D01*
X29804Y-27161D01*
X29740Y-27007D01*
X29622Y-26889D01*
X29622Y-26889D01*
X29622Y-26656D01*
X30068Y-26210D01*
X30068Y-26210D01*
X30102Y-26159D01*
X30119Y-26133D01*
X30119Y-26133D01*
X30137Y-26043D01*
X30137Y-26043D01*
X30137Y-25867D01*
X30806Y-26536D01*
X30806Y-26536D01*
X30860Y-26572D01*
X30860Y-26572D01*
X30912Y-26582D01*
X30925Y-26585D01*
X30925Y-26585D01*
X30925Y-26585D01*
X31190Y-26585D01*
X31308Y-26703D01*
X31308Y-26861D01*
X31239Y-26889D01*
X31122Y-27006D01*
X31058Y-27160D01*
X31058Y-27326D01*
X31121Y-27480D01*
X31239Y-27598D01*
X31392Y-27662D01*
X31559Y-27662D01*
X31712Y-27598D01*
X31830Y-27481D01*
X31894Y-27327D01*
X31894Y-27161D01*
X31831Y-27007D01*
X31713Y-26889D01*
X31644Y-26861D01*
X31644Y-26633D01*
X31631Y-26569D01*
X31595Y-26514D01*
X31595Y-26514D01*
X31378Y-26298D01*
X31324Y-26262D01*
X31259Y-26249D01*
X31259Y-26249D01*
X30994Y-26249D01*
X30404Y-25658D01*
X30404Y-24656D01*
X30630Y-24429D01*
X30630Y-24429D01*
X30630Y-24429D01*
X30667Y-24375D01*
X30679Y-24311D01*
X30679Y-23898D01*
X30700Y-23918D01*
X30744Y-23936D01*
X30791Y-23937D01*
X32365Y-23937D01*
X32409Y-23919D01*
X32442Y-23885D01*
X32460Y-23842D01*
X32460Y-23795D01*
X32460Y-22614D01*
X32442Y-22570D01*
X32409Y-22537D01*
X32366Y-22519D01*
X32319Y-22519D01*
X30744Y-22519D01*
X30700Y-22537D01*
X30667Y-22570D01*
X30649Y-22614D01*
X30649Y-22661D01*
X30649Y-22717D01*
X30541Y-22608D01*
X30507Y-22575D01*
X30421Y-22539D01*
X30393Y-22539D01*
X30393Y-22244D01*
X30393Y-21338D01*
X30393Y-21260D01*
X30363Y-21187D01*
X30308Y-21132D01*
X30235Y-21102D01*
X29783Y-21102D01*
X29734Y-21151D01*
X29734Y-21751D01*
X30344Y-21751D01*
X30393Y-21702D01*
X30393Y-21338D01*
X30393Y-22244D01*
X30393Y-21879D01*
X30344Y-21830D01*
X29734Y-21830D01*
X29734Y-22430D01*
X29783Y-22480D01*
X30235Y-22480D01*
X30308Y-22450D01*
X30363Y-22394D01*
X30393Y-22322D01*
X30393Y-22244D01*
X30393Y-22539D01*
X30327Y-22539D01*
X30240Y-22575D01*
X30173Y-22641D01*
X30137Y-22728D01*
X30137Y-22761D01*
X30103Y-22738D01*
X30039Y-22725D01*
X30039Y-22725D01*
X29655Y-22725D01*
X29655Y-22430D01*
X29655Y-21830D01*
X29045Y-21830D01*
X28996Y-21879D01*
X28996Y-22244D01*
X28996Y-22322D01*
X29026Y-22394D01*
X29081Y-22450D01*
X29153Y-22480D01*
X29606Y-22480D01*
X29655Y-22430D01*
X29655Y-22725D01*
X28719Y-22725D01*
X28719Y-22352D01*
X28718Y-22299D01*
X28669Y-22250D01*
X28381Y-22250D01*
X28381Y-22538D01*
X28430Y-22587D01*
X28561Y-22587D01*
X28633Y-22558D01*
X28688Y-22502D01*
X28718Y-22430D01*
X28719Y-22352D01*
X28719Y-22725D01*
X28302Y-22725D01*
X28302Y-22538D01*
X28302Y-22250D01*
X28014Y-22250D01*
X27965Y-22299D01*
X27965Y-22352D01*
X27965Y-22430D01*
X27995Y-22502D01*
X28050Y-22558D01*
X28123Y-22587D01*
X28253Y-22587D01*
X28302Y-22538D01*
X28302Y-22725D01*
X26979Y-22725D01*
X26886Y-22633D01*
X26832Y-22596D01*
X26767Y-22583D01*
X26767Y-22583D01*
X26670Y-22583D01*
X26642Y-22515D01*
X26524Y-22397D01*
X26370Y-22333D01*
X26204Y-22333D01*
X26050Y-22397D01*
X25933Y-22514D01*
X25869Y-22668D01*
X25869Y-22834D01*
X25932Y-22988D01*
X26050Y-23106D01*
X26203Y-23170D01*
X26370Y-23170D01*
X26523Y-23106D01*
X26641Y-22989D01*
X26670Y-22920D01*
X26698Y-22920D01*
X26790Y-23012D01*
X26790Y-23012D01*
X26845Y-23049D01*
X26845Y-23049D01*
X26896Y-23059D01*
X26909Y-23061D01*
X26909Y-23061D01*
X26909Y-23061D01*
X27117Y-23061D01*
X27095Y-23084D01*
X27077Y-23127D01*
X27077Y-23162D01*
X27042Y-23162D01*
X26978Y-23175D01*
X26924Y-23212D01*
X26924Y-23212D01*
X26790Y-23345D01*
X26754Y-23400D01*
X26741Y-23464D01*
X26741Y-23464D01*
X26741Y-23847D01*
X26671Y-23917D01*
X26705Y-23835D01*
X26705Y-23669D01*
X26642Y-23515D01*
X26524Y-23397D01*
X26370Y-23333D01*
X26204Y-23333D01*
X26050Y-23397D01*
X25933Y-23514D01*
X25869Y-23668D01*
X25869Y-23834D01*
X25932Y-23988D01*
X26027Y-24083D01*
X25787Y-24083D01*
X25723Y-24096D01*
X25668Y-24133D01*
X25668Y-24133D01*
X25439Y-24362D01*
X25370Y-24333D01*
X25204Y-24333D01*
X25050Y-24397D01*
X25010Y-24437D01*
X25010Y-24066D01*
X25050Y-24106D01*
X25203Y-24170D01*
X25370Y-24170D01*
X25523Y-24106D01*
X25641Y-23989D01*
X25705Y-23835D01*
X25705Y-23669D01*
X25642Y-23515D01*
X25524Y-23397D01*
X25370Y-23333D01*
X25204Y-23333D01*
X25050Y-23397D01*
X25010Y-23437D01*
X25010Y-23238D01*
X25116Y-23133D01*
X25203Y-23170D01*
X25370Y-23170D01*
X25523Y-23106D01*
X25641Y-22989D01*
X25705Y-22835D01*
X25705Y-22669D01*
X25705Y-21669D01*
X25642Y-21515D01*
X25524Y-21397D01*
X25370Y-21333D01*
X25204Y-21333D01*
X25050Y-21397D01*
X24933Y-21514D01*
X24869Y-21668D01*
X24869Y-21834D01*
X24932Y-21988D01*
X25050Y-22106D01*
X25203Y-22170D01*
X25370Y-22170D01*
X25523Y-22106D01*
X25641Y-21989D01*
X25705Y-21835D01*
X25705Y-21669D01*
X25705Y-22669D01*
X25642Y-22515D01*
X25524Y-22397D01*
X25370Y-22333D01*
X25204Y-22333D01*
X25050Y-22397D01*
X24933Y-22514D01*
X24869Y-22668D01*
X24869Y-22834D01*
X24889Y-22884D01*
X24832Y-22941D01*
X24832Y-18297D01*
X25863Y-18297D01*
X25820Y-18340D01*
X25790Y-18412D01*
X25790Y-18663D01*
X25839Y-18712D01*
X26248Y-18712D01*
X26248Y-18704D01*
X26326Y-18704D01*
X26326Y-18712D01*
X26334Y-18712D01*
X26334Y-18791D01*
X26326Y-18791D01*
X26326Y-18799D01*
X26248Y-18799D01*
X26248Y-18791D01*
X25839Y-18791D01*
X25790Y-18840D01*
X25790Y-18999D01*
X25682Y-18891D01*
X25705Y-18835D01*
X25705Y-18669D01*
X25642Y-18515D01*
X25524Y-18397D01*
X25370Y-18333D01*
X25204Y-18333D01*
X25050Y-18397D01*
X24933Y-18514D01*
X24869Y-18668D01*
X24869Y-18834D01*
X24932Y-18988D01*
X25050Y-19106D01*
X25203Y-19170D01*
X25292Y-19170D01*
X25517Y-19394D01*
X25370Y-19333D01*
X25204Y-19333D01*
X25050Y-19397D01*
X24933Y-19514D01*
X24869Y-19668D01*
X24869Y-19834D01*
X24932Y-19988D01*
X25050Y-20106D01*
X25203Y-20170D01*
X25370Y-20170D01*
X25436Y-20142D01*
X25668Y-20374D01*
X25668Y-20374D01*
X25723Y-20411D01*
X25787Y-20424D01*
X26024Y-20424D01*
X25933Y-20514D01*
X25869Y-20668D01*
X25869Y-20834D01*
X25932Y-20988D01*
X26016Y-21072D01*
X25837Y-21072D01*
X25674Y-20909D01*
X25705Y-20835D01*
X25705Y-20669D01*
X25642Y-20515D01*
X25524Y-20397D01*
X25370Y-20333D01*
X25204Y-20333D01*
X25050Y-20397D01*
X24933Y-20514D01*
X24869Y-20668D01*
X24869Y-20834D01*
X24932Y-20988D01*
X25050Y-21106D01*
X25203Y-21170D01*
X25370Y-21170D01*
X25433Y-21143D01*
X25648Y-21359D01*
X25648Y-21359D01*
X25703Y-21395D01*
X25767Y-21408D01*
X26039Y-21408D01*
X25933Y-21514D01*
X25869Y-21668D01*
X25869Y-21834D01*
X25932Y-21988D01*
X26050Y-22106D01*
X26203Y-22170D01*
X26370Y-22170D01*
X26523Y-22106D01*
X26641Y-21989D01*
X26705Y-21835D01*
X26705Y-21669D01*
X26642Y-21515D01*
X26535Y-21408D01*
X26879Y-21408D01*
X27399Y-21928D01*
X27395Y-21930D01*
X27362Y-21964D01*
X27344Y-22007D01*
X27344Y-22042D01*
X27339Y-22042D01*
X27322Y-22026D01*
X27322Y-21980D01*
X27286Y-21893D01*
X27220Y-21827D01*
X27133Y-21791D01*
X27039Y-21791D01*
X26952Y-21827D01*
X26886Y-21893D01*
X26850Y-21980D01*
X26850Y-22074D01*
X26886Y-22161D01*
X26952Y-22227D01*
X27039Y-22263D01*
X27085Y-22263D01*
X27151Y-22329D01*
X27151Y-22329D01*
X27205Y-22366D01*
X27270Y-22379D01*
X27343Y-22379D01*
X27343Y-22414D01*
X27361Y-22457D01*
X27395Y-22491D01*
X27438Y-22509D01*
X27485Y-22509D01*
X27845Y-22509D01*
X27888Y-22491D01*
X27922Y-22458D01*
X27940Y-22414D01*
X27940Y-22367D01*
X27940Y-22007D01*
X27928Y-21979D01*
X27970Y-21979D01*
X27965Y-21991D01*
X27965Y-22070D01*
X27965Y-22122D01*
X28014Y-22171D01*
X28302Y-22171D01*
X28302Y-22163D01*
X28381Y-22163D01*
X28381Y-22171D01*
X28669Y-22171D01*
X28718Y-22122D01*
X28719Y-22070D01*
X28718Y-21991D01*
X28688Y-21919D01*
X28633Y-21864D01*
X28561Y-21834D01*
X28561Y-21834D01*
X28662Y-21733D01*
X28662Y-21733D01*
X28662Y-21733D01*
X28957Y-21437D01*
X28957Y-21437D01*
X28957Y-21437D01*
X28993Y-21383D01*
X28996Y-21372D01*
X28996Y-21702D01*
X29045Y-21751D01*
X29655Y-21751D01*
X29655Y-21151D01*
X29606Y-21102D01*
X29543Y-21102D01*
X29543Y-20903D01*
X29543Y-20465D01*
X29513Y-20393D01*
X29458Y-20337D01*
X29386Y-20307D01*
X29307Y-20307D01*
X29255Y-20307D01*
X29206Y-20357D01*
X29206Y-20645D01*
X29494Y-20645D01*
X29543Y-20596D01*
X29543Y-20465D01*
X29543Y-20903D01*
X29543Y-20773D01*
X29494Y-20724D01*
X29206Y-20724D01*
X29206Y-21012D01*
X29255Y-21061D01*
X29307Y-21061D01*
X29386Y-21061D01*
X29458Y-21031D01*
X29513Y-20976D01*
X29543Y-20903D01*
X29543Y-21102D01*
X29153Y-21102D01*
X29081Y-21132D01*
X29026Y-21187D01*
X29006Y-21234D01*
X29006Y-21061D01*
X29025Y-21061D01*
X29078Y-21061D01*
X29127Y-21012D01*
X29127Y-20724D01*
X29119Y-20724D01*
X29119Y-20645D01*
X29127Y-20645D01*
X29127Y-20357D01*
X29078Y-20307D01*
X29025Y-20307D01*
X29006Y-20307D01*
X29006Y-20282D01*
X29010Y-20282D01*
X29370Y-20282D01*
X29413Y-20264D01*
X29446Y-20231D01*
X29465Y-20188D01*
X29465Y-20141D01*
X29465Y-19781D01*
X29447Y-19737D01*
X29413Y-19704D01*
X29370Y-19686D01*
X29323Y-19686D01*
X28963Y-19686D01*
X28920Y-19704D01*
X28902Y-19722D01*
X28917Y-19645D01*
X28917Y-19409D01*
X28917Y-19409D01*
X29035Y-19292D01*
X29099Y-19138D01*
X29099Y-18972D01*
X29035Y-18818D01*
X28996Y-18779D01*
X29365Y-18779D01*
X29326Y-18817D01*
X29263Y-18971D01*
X29262Y-19137D01*
X29326Y-19291D01*
X29443Y-19409D01*
X29444Y-19409D01*
X29444Y-19562D01*
X29462Y-19653D01*
X29514Y-19730D01*
X29730Y-19946D01*
X29730Y-20050D01*
X29720Y-20054D01*
X29686Y-20087D01*
X29668Y-20131D01*
X29668Y-20178D01*
X29668Y-20538D01*
X29686Y-20581D01*
X29719Y-20614D01*
X29763Y-20632D01*
X29810Y-20632D01*
X30157Y-20632D01*
X30157Y-20787D01*
X30157Y-20865D01*
X30187Y-20938D01*
X30243Y-20993D01*
X30315Y-21023D01*
X30767Y-21023D01*
X30817Y-20974D01*
X30817Y-20374D01*
X30809Y-20374D01*
X30809Y-20295D01*
X30817Y-20295D01*
X30817Y-19695D01*
X30767Y-19645D01*
X30315Y-19645D01*
X30243Y-19675D01*
X30187Y-19730D01*
X30179Y-19750D01*
X30133Y-19681D01*
X29917Y-19465D01*
X29917Y-19409D01*
X29917Y-19409D01*
X30035Y-19292D01*
X30099Y-19138D01*
X30099Y-18972D01*
X30035Y-18818D01*
X29996Y-18779D01*
X30589Y-18779D01*
X30589Y-19378D01*
X30607Y-19421D01*
X30640Y-19455D01*
X30684Y-19473D01*
X30731Y-19473D01*
X31331Y-19473D01*
X31374Y-19455D01*
X31407Y-19422D01*
X31425Y-19378D01*
X31426Y-19331D01*
X31426Y-19291D01*
X31653Y-19291D01*
X31653Y-19291D01*
X31770Y-19409D01*
X31771Y-19409D01*
X31771Y-20728D01*
X31555Y-20945D01*
X31555Y-20787D01*
X31555Y-19881D01*
X31555Y-19803D01*
X31525Y-19730D01*
X31469Y-19675D01*
X31397Y-19645D01*
X30944Y-19645D01*
X30895Y-19695D01*
X30895Y-20295D01*
X31506Y-20295D01*
X31555Y-20246D01*
X31555Y-19881D01*
X31555Y-20787D01*
X31555Y-20423D01*
X31506Y-20374D01*
X30895Y-20374D01*
X30895Y-20974D01*
X30944Y-21023D01*
X31397Y-21023D01*
X31469Y-20993D01*
X31525Y-20938D01*
X31555Y-20865D01*
X31555Y-20787D01*
X31555Y-20945D01*
X31515Y-20984D01*
X31464Y-21061D01*
X31446Y-21151D01*
X31446Y-21181D01*
X31157Y-21181D01*
X31114Y-21199D01*
X31080Y-21232D01*
X31062Y-21275D01*
X31062Y-21322D01*
X31062Y-22306D01*
X31080Y-22350D01*
X31113Y-22383D01*
X31157Y-22401D01*
X31204Y-22401D01*
X32208Y-22401D01*
X32251Y-22383D01*
X32285Y-22350D01*
X32303Y-22306D01*
X32303Y-22259D01*
X32303Y-22027D01*
X32815Y-22027D01*
X33307Y-22519D01*
X33307Y-23248D01*
X33325Y-23338D01*
X33376Y-23415D01*
X34124Y-24163D01*
X34124Y-24163D01*
X34175Y-24197D01*
X34200Y-24214D01*
X34200Y-24214D01*
X34291Y-24232D01*
X34291Y-24232D01*
X34881Y-24232D01*
X35413Y-24232D01*
X36063Y-24232D01*
X36462Y-24631D01*
X36502Y-24690D01*
X36893Y-25082D01*
X36893Y-26286D01*
G54D10*
G36*
X39831Y-25502D02*
X39497Y-25835D01*
X38799Y-25835D01*
X38799Y-23966D01*
X38799Y-23267D01*
X38799Y-23188D01*
X38799Y-22490D01*
X38750Y-22440D01*
X38012Y-22440D01*
X37939Y-22470D01*
X37884Y-22526D01*
X37854Y-22598D01*
X37854Y-22676D01*
X37854Y-23139D01*
X37903Y-23188D01*
X38799Y-23188D01*
X38799Y-23267D01*
X37903Y-23267D01*
X37854Y-23316D01*
X37854Y-23779D01*
X37854Y-23858D01*
X37884Y-23930D01*
X37939Y-23985D01*
X38012Y-24015D01*
X38750Y-24015D01*
X38799Y-23966D01*
X38799Y-25835D01*
X38409Y-25835D01*
X38409Y-25835D01*
X38396Y-25838D01*
X38345Y-25848D01*
X38290Y-25885D01*
X38290Y-25885D01*
X37781Y-26393D01*
X37713Y-26365D01*
X37547Y-26365D01*
X37393Y-26428D01*
X37366Y-26456D01*
X37366Y-24984D01*
X37366Y-24984D01*
X37348Y-24893D01*
X37348Y-24893D01*
X37296Y-24817D01*
X37296Y-24817D01*
X36875Y-24396D01*
X36875Y-24396D01*
X36836Y-24336D01*
X36328Y-23829D01*
X36251Y-23777D01*
X36161Y-23759D01*
X35413Y-23759D01*
X35118Y-23759D01*
X35118Y-23464D01*
X35118Y-23464D01*
X35118Y-23417D01*
X35100Y-23374D01*
X35082Y-23330D01*
X35015Y-23264D01*
X34929Y-23228D01*
X34835Y-23228D01*
X34748Y-23264D01*
X34681Y-23330D01*
X34645Y-23417D01*
X34645Y-23511D01*
X34645Y-23511D01*
X34645Y-23759D01*
X34389Y-23759D01*
X33779Y-23150D01*
X33779Y-22421D01*
X33761Y-22330D01*
X33761Y-22330D01*
X33744Y-22305D01*
X33710Y-22254D01*
X33710Y-22254D01*
X33080Y-21624D01*
X33003Y-21573D01*
X32913Y-21555D01*
X32303Y-21555D01*
X32303Y-21275D01*
X32285Y-21232D01*
X32251Y-21199D01*
X32208Y-21181D01*
X32161Y-21181D01*
X31987Y-21181D01*
X32174Y-20993D01*
X32226Y-20917D01*
X32226Y-20917D01*
X32234Y-20874D01*
X32242Y-20893D01*
X32275Y-20926D01*
X32318Y-20944D01*
X32365Y-20944D01*
X33369Y-20944D01*
X33413Y-20926D01*
X33446Y-20893D01*
X33464Y-20850D01*
X33464Y-20803D01*
X33464Y-20570D01*
X33524Y-20570D01*
X33966Y-21013D01*
X33966Y-21013D01*
X34018Y-21047D01*
X34043Y-21064D01*
X34043Y-21064D01*
X34133Y-21082D01*
X35826Y-21082D01*
X35846Y-21078D01*
X35866Y-21082D01*
X35956Y-21064D01*
X35959Y-21062D01*
X38268Y-21062D01*
X39646Y-22440D01*
X38927Y-22440D01*
X38877Y-22490D01*
X38877Y-23188D01*
X38885Y-23188D01*
X38885Y-23267D01*
X38877Y-23267D01*
X38877Y-23966D01*
X38927Y-24015D01*
X39664Y-24015D01*
X39665Y-24015D01*
X39665Y-24980D01*
X39665Y-25275D01*
X39665Y-25322D01*
X39683Y-25365D01*
X39701Y-25409D01*
X39767Y-25475D01*
X39811Y-25493D01*
X39831Y-25502D01*
X39831Y-25502D01*
G37*
G54D20*
X39831Y-25502D02*
X39497Y-25835D01*
X38799Y-25835D01*
X38799Y-23966D01*
X38799Y-23267D01*
X38799Y-23188D01*
X38799Y-22490D01*
X38750Y-22440D01*
X38012Y-22440D01*
X37939Y-22470D01*
X37884Y-22526D01*
X37854Y-22598D01*
X37854Y-22676D01*
X37854Y-23139D01*
X37903Y-23188D01*
X38799Y-23188D01*
X38799Y-23267D01*
X37903Y-23267D01*
X37854Y-23316D01*
X37854Y-23779D01*
X37854Y-23858D01*
X37884Y-23930D01*
X37939Y-23985D01*
X38012Y-24015D01*
X38750Y-24015D01*
X38799Y-23966D01*
X38799Y-25835D01*
X38409Y-25835D01*
X38409Y-25835D01*
X38396Y-25838D01*
X38345Y-25848D01*
X38290Y-25885D01*
X38290Y-25885D01*
X37781Y-26393D01*
X37713Y-26365D01*
X37547Y-26365D01*
X37393Y-26428D01*
X37366Y-26456D01*
X37366Y-24984D01*
X37366Y-24984D01*
X37348Y-24893D01*
X37348Y-24893D01*
X37296Y-24817D01*
X37296Y-24817D01*
X36875Y-24396D01*
X36875Y-24396D01*
X36836Y-24336D01*
X36328Y-23829D01*
X36251Y-23777D01*
X36161Y-23759D01*
X35413Y-23759D01*
X35118Y-23759D01*
X35118Y-23464D01*
X35118Y-23464D01*
X35118Y-23417D01*
X35100Y-23374D01*
X35082Y-23330D01*
X35015Y-23264D01*
X34929Y-23228D01*
X34835Y-23228D01*
X34748Y-23264D01*
X34681Y-23330D01*
X34645Y-23417D01*
X34645Y-23511D01*
X34645Y-23511D01*
X34645Y-23759D01*
X34389Y-23759D01*
X33779Y-23150D01*
X33779Y-22421D01*
X33761Y-22330D01*
X33761Y-22330D01*
X33744Y-22305D01*
X33710Y-22254D01*
X33710Y-22254D01*
X33080Y-21624D01*
X33003Y-21573D01*
X32913Y-21555D01*
X32303Y-21555D01*
X32303Y-21275D01*
X32285Y-21232D01*
X32251Y-21199D01*
X32208Y-21181D01*
X32161Y-21181D01*
X31987Y-21181D01*
X32174Y-20993D01*
X32226Y-20917D01*
X32226Y-20917D01*
X32234Y-20874D01*
X32242Y-20893D01*
X32275Y-20926D01*
X32318Y-20944D01*
X32365Y-20944D01*
X33369Y-20944D01*
X33413Y-20926D01*
X33446Y-20893D01*
X33464Y-20850D01*
X33464Y-20803D01*
X33464Y-20570D01*
X33524Y-20570D01*
X33966Y-21013D01*
X33966Y-21013D01*
X34018Y-21047D01*
X34043Y-21064D01*
X34043Y-21064D01*
X34133Y-21082D01*
X35826Y-21082D01*
X35846Y-21078D01*
X35866Y-21082D01*
X35956Y-21064D01*
X35959Y-21062D01*
X38268Y-21062D01*
X39646Y-22440D01*
X38927Y-22440D01*
X38877Y-22490D01*
X38877Y-23188D01*
X38885Y-23188D01*
X38885Y-23267D01*
X38877Y-23267D01*
X38877Y-23966D01*
X38927Y-24015D01*
X39664Y-24015D01*
X39665Y-24015D01*
X39665Y-24980D01*
X39665Y-25275D01*
X39665Y-25322D01*
X39683Y-25365D01*
X39701Y-25409D01*
X39767Y-25475D01*
X39811Y-25493D01*
X39831Y-25502D01*
G54D10*
G36*
X44222Y-28198D02*
X44185Y-28198D01*
X44185Y-19109D01*
X44046Y-18771D01*
X43788Y-18513D01*
X43451Y-18373D01*
X43085Y-18373D01*
X42748Y-18512D01*
X42489Y-18770D01*
X42349Y-19107D01*
X42349Y-19473D01*
X42488Y-19810D01*
X42746Y-20069D01*
X42986Y-20168D01*
X42982Y-20168D01*
X42933Y-20217D01*
X42933Y-20625D01*
X43341Y-20625D01*
X43390Y-20576D01*
X43390Y-20326D01*
X43360Y-20253D01*
X43316Y-20209D01*
X43449Y-20209D01*
X43787Y-20070D01*
X44045Y-19812D01*
X44185Y-19474D01*
X44185Y-19109D01*
X44185Y-28198D01*
X43395Y-28198D01*
X43504Y-28153D01*
X43621Y-28036D01*
X43685Y-27882D01*
X43685Y-27716D01*
X43685Y-26716D01*
X43622Y-26562D01*
X43504Y-26444D01*
X43503Y-26444D01*
X43503Y-26154D01*
X43504Y-26153D01*
X43621Y-26036D01*
X43685Y-25882D01*
X43685Y-25716D01*
X43622Y-25562D01*
X43504Y-25444D01*
X43503Y-25444D01*
X43503Y-25217D01*
X43591Y-25217D01*
X43634Y-25199D01*
X43667Y-25166D01*
X43685Y-25122D01*
X43685Y-25075D01*
X43685Y-24475D01*
X43667Y-24432D01*
X43634Y-24399D01*
X43591Y-24381D01*
X43544Y-24381D01*
X43390Y-24381D01*
X43390Y-21004D01*
X43390Y-20753D01*
X43341Y-20704D01*
X42933Y-20704D01*
X42933Y-21112D01*
X42982Y-21162D01*
X43154Y-21162D01*
X43233Y-21162D01*
X43305Y-21132D01*
X43360Y-21076D01*
X43390Y-21004D01*
X43390Y-24381D01*
X42944Y-24381D01*
X42900Y-24399D01*
X42867Y-24432D01*
X42849Y-24475D01*
X42849Y-24522D01*
X42849Y-25122D01*
X42867Y-25166D01*
X42900Y-25199D01*
X42944Y-25217D01*
X42991Y-25217D01*
X43031Y-25217D01*
X43031Y-25444D01*
X43031Y-25444D01*
X42913Y-25562D01*
X42849Y-25715D01*
X42849Y-25882D01*
X42913Y-26035D01*
X43030Y-26153D01*
X43031Y-26153D01*
X43031Y-26444D01*
X43031Y-26444D01*
X42913Y-26562D01*
X42849Y-26715D01*
X42849Y-26882D01*
X42913Y-27035D01*
X43030Y-27153D01*
X43184Y-27217D01*
X43350Y-27217D01*
X43504Y-27153D01*
X43621Y-27036D01*
X43685Y-26882D01*
X43685Y-26716D01*
X43685Y-27716D01*
X43622Y-27562D01*
X43504Y-27444D01*
X43351Y-27381D01*
X43184Y-27381D01*
X43031Y-27444D01*
X42913Y-27562D01*
X42849Y-27715D01*
X42849Y-27882D01*
X42913Y-28035D01*
X43030Y-28153D01*
X43139Y-28198D01*
X42294Y-28198D01*
X42441Y-28051D01*
X42441Y-28051D01*
X42441Y-28051D01*
X42478Y-27997D01*
X42490Y-27933D01*
X42490Y-26346D01*
X42478Y-26282D01*
X42441Y-26227D01*
X42441Y-26227D01*
X42149Y-25935D01*
X42177Y-25866D01*
X42178Y-25700D01*
X42178Y-24700D01*
X42114Y-24546D01*
X41996Y-24429D01*
X41843Y-24365D01*
X41677Y-24365D01*
X41523Y-24428D01*
X41405Y-24546D01*
X41341Y-24699D01*
X41341Y-24866D01*
X41405Y-25019D01*
X41522Y-25137D01*
X41676Y-25201D01*
X41842Y-25201D01*
X41996Y-25138D01*
X42114Y-25020D01*
X42177Y-24866D01*
X42178Y-24700D01*
X42178Y-25700D01*
X42114Y-25546D01*
X41996Y-25429D01*
X41843Y-25365D01*
X41677Y-25365D01*
X41523Y-25428D01*
X41420Y-25531D01*
X41415Y-25506D01*
X41378Y-25451D01*
X41378Y-25451D01*
X41103Y-25176D01*
X41048Y-25139D01*
X41003Y-25130D01*
X41114Y-25020D01*
X41177Y-24866D01*
X41178Y-24700D01*
X41114Y-24546D01*
X40996Y-24429D01*
X40843Y-24365D01*
X40717Y-24365D01*
X40728Y-24338D01*
X40728Y-24244D01*
X40710Y-24201D01*
X40842Y-24201D01*
X40996Y-24138D01*
X41114Y-24020D01*
X41177Y-23866D01*
X41178Y-23700D01*
X41150Y-23634D01*
X41329Y-23455D01*
X41496Y-23455D01*
X41405Y-23546D01*
X41341Y-23699D01*
X41341Y-23866D01*
X41405Y-24019D01*
X41522Y-24137D01*
X41676Y-24201D01*
X41842Y-24201D01*
X41996Y-24138D01*
X42114Y-24020D01*
X42142Y-23951D01*
X42588Y-23951D01*
X42656Y-24019D01*
X42810Y-24083D01*
X42976Y-24083D01*
X43130Y-24020D01*
X43247Y-23902D01*
X43311Y-23748D01*
X43311Y-23582D01*
X43248Y-23428D01*
X43130Y-23311D01*
X42977Y-23247D01*
X42810Y-23247D01*
X42657Y-23310D01*
X42539Y-23428D01*
X42475Y-23581D01*
X42475Y-23615D01*
X42142Y-23615D01*
X42114Y-23546D01*
X42023Y-23455D01*
X42271Y-23455D01*
X42271Y-23455D01*
X42271Y-23455D01*
X42335Y-23442D01*
X42390Y-23406D01*
X42741Y-23055D01*
X42810Y-23083D01*
X42976Y-23083D01*
X43130Y-23020D01*
X43247Y-22902D01*
X43311Y-22748D01*
X43311Y-22582D01*
X43311Y-21582D01*
X43248Y-21428D01*
X43130Y-21311D01*
X42977Y-21247D01*
X42854Y-21247D01*
X42854Y-21112D01*
X42854Y-20704D01*
X42854Y-20625D01*
X42854Y-20217D01*
X42805Y-20168D01*
X42632Y-20168D01*
X42554Y-20168D01*
X42482Y-20198D01*
X42426Y-20253D01*
X42396Y-20326D01*
X42396Y-20576D01*
X42446Y-20625D01*
X42854Y-20625D01*
X42854Y-20704D01*
X42446Y-20704D01*
X42396Y-20753D01*
X42396Y-21004D01*
X42426Y-21076D01*
X42482Y-21132D01*
X42554Y-21162D01*
X42632Y-21162D01*
X42805Y-21162D01*
X42854Y-21112D01*
X42854Y-21247D01*
X42810Y-21247D01*
X42657Y-21310D01*
X42539Y-21428D01*
X42475Y-21581D01*
X42475Y-21748D01*
X42539Y-21901D01*
X42656Y-22019D01*
X42810Y-22083D01*
X42976Y-22083D01*
X43130Y-22020D01*
X43247Y-21902D01*
X43311Y-21748D01*
X43311Y-21582D01*
X43311Y-22582D01*
X43248Y-22428D01*
X43130Y-22311D01*
X42977Y-22247D01*
X42810Y-22247D01*
X42657Y-22310D01*
X42539Y-22428D01*
X42475Y-22581D01*
X42475Y-22748D01*
X42504Y-22817D01*
X42202Y-23119D01*
X42015Y-23119D01*
X42114Y-23020D01*
X42177Y-22866D01*
X42178Y-22700D01*
X42114Y-22546D01*
X41996Y-22429D01*
X41843Y-22365D01*
X41677Y-22365D01*
X41523Y-22428D01*
X41405Y-22546D01*
X41341Y-22699D01*
X41341Y-22866D01*
X41405Y-23019D01*
X41504Y-23119D01*
X41259Y-23119D01*
X41259Y-23119D01*
X41195Y-23132D01*
X41140Y-23168D01*
X40914Y-23394D01*
X40843Y-23365D01*
X40677Y-23365D01*
X40523Y-23428D01*
X40405Y-23546D01*
X40341Y-23699D01*
X40341Y-23866D01*
X40405Y-24019D01*
X40441Y-24056D01*
X40358Y-24090D01*
X40291Y-24157D01*
X40255Y-24244D01*
X40255Y-24289D01*
X40137Y-24407D01*
X40137Y-22362D01*
X40137Y-22362D01*
X40119Y-22271D01*
X40119Y-22271D01*
X40068Y-22195D01*
X40068Y-22195D01*
X38533Y-20659D01*
X38456Y-20608D01*
X38366Y-20590D01*
X35859Y-20590D01*
X35859Y-19316D01*
X35859Y-19143D01*
X35809Y-19094D01*
X35401Y-19094D01*
X35401Y-19502D01*
X35450Y-19551D01*
X35701Y-19552D01*
X35773Y-19522D01*
X35828Y-19466D01*
X35859Y-19394D01*
X35859Y-19316D01*
X35859Y-20590D01*
X35846Y-20590D01*
X35799Y-20590D01*
X35751Y-20610D01*
X35322Y-20610D01*
X35322Y-19502D01*
X35322Y-19094D01*
X34914Y-19094D01*
X34865Y-19143D01*
X34865Y-19316D01*
X34865Y-19394D01*
X34895Y-19466D01*
X34950Y-19522D01*
X35023Y-19552D01*
X35273Y-19551D01*
X35322Y-19502D01*
X35322Y-20610D01*
X34231Y-20610D01*
X33789Y-20167D01*
X33712Y-20116D01*
X33622Y-20098D01*
X33464Y-20098D01*
X33464Y-19819D01*
X33446Y-19775D01*
X33413Y-19742D01*
X33369Y-19724D01*
X33323Y-19724D01*
X32319Y-19724D01*
X32275Y-19742D01*
X32244Y-19773D01*
X32244Y-19409D01*
X32244Y-19409D01*
X32362Y-19292D01*
X32362Y-19291D01*
X32653Y-19291D01*
X32653Y-19291D01*
X32770Y-19409D01*
X32924Y-19473D01*
X33090Y-19473D01*
X33244Y-19409D01*
X33362Y-19292D01*
X33425Y-19138D01*
X33426Y-18972D01*
X33362Y-18818D01*
X33323Y-18779D01*
X34046Y-18779D01*
X34007Y-18817D01*
X33944Y-18971D01*
X33944Y-19137D01*
X34007Y-19291D01*
X34125Y-19409D01*
X34278Y-19473D01*
X34445Y-19473D01*
X34598Y-19409D01*
X34716Y-19292D01*
X34780Y-19138D01*
X34780Y-18972D01*
X34716Y-18818D01*
X34677Y-18779D01*
X34865Y-18779D01*
X34865Y-18794D01*
X34865Y-18966D01*
X34914Y-19015D01*
X35322Y-19015D01*
X35322Y-19007D01*
X35401Y-19007D01*
X35401Y-19015D01*
X35809Y-19015D01*
X35859Y-18966D01*
X35859Y-18794D01*
X35859Y-18779D01*
X36152Y-18779D01*
X36152Y-18854D01*
X36216Y-19008D01*
X36333Y-19125D01*
X36334Y-19126D01*
X36334Y-19416D01*
X36334Y-19416D01*
X36216Y-19534D01*
X36152Y-19688D01*
X36152Y-19854D01*
X36216Y-20008D01*
X36333Y-20125D01*
X36487Y-20189D01*
X36653Y-20189D01*
X36807Y-20126D01*
X36925Y-20008D01*
X36988Y-19855D01*
X36989Y-19688D01*
X36925Y-19535D01*
X36808Y-19417D01*
X36807Y-19417D01*
X36807Y-19126D01*
X36807Y-19126D01*
X36925Y-19008D01*
X36988Y-18855D01*
X36989Y-18688D01*
X36925Y-18535D01*
X36808Y-18417D01*
X36654Y-18353D01*
X36488Y-18353D01*
X36480Y-18356D01*
X36432Y-18325D01*
X36342Y-18307D01*
X31496Y-18307D01*
X27125Y-18307D01*
X27035Y-18325D01*
X26958Y-18376D01*
X26801Y-18533D01*
X26784Y-18559D01*
X26784Y-18412D01*
X26754Y-18340D01*
X26711Y-18297D01*
X37408Y-18297D01*
X37305Y-18339D01*
X37276Y-18421D01*
X37570Y-18715D01*
X37865Y-18421D01*
X37835Y-18339D01*
X37720Y-18297D01*
X38177Y-18297D01*
X37977Y-18497D01*
X37920Y-18477D01*
X37626Y-18771D01*
X37632Y-18777D01*
X37576Y-18832D01*
X37570Y-18827D01*
X37515Y-18883D01*
X37515Y-18771D01*
X37220Y-18477D01*
X37139Y-18506D01*
X37070Y-18692D01*
X37078Y-18889D01*
X37139Y-19036D01*
X37220Y-19066D01*
X37515Y-18771D01*
X37515Y-18883D01*
X37276Y-19121D01*
X37305Y-19203D01*
X37491Y-19271D01*
X37688Y-19264D01*
X37835Y-19203D01*
X37865Y-19121D01*
X37865Y-19121D01*
X37900Y-19157D01*
X37902Y-19155D01*
X37902Y-19202D01*
X37865Y-19239D01*
X37722Y-19382D01*
X37654Y-19353D01*
X37488Y-19353D01*
X37334Y-19416D01*
X37216Y-19534D01*
X37152Y-19688D01*
X37152Y-19854D01*
X37216Y-20008D01*
X37333Y-20125D01*
X37487Y-20189D01*
X37653Y-20189D01*
X37807Y-20126D01*
X37925Y-20008D01*
X37988Y-19855D01*
X37989Y-19688D01*
X37960Y-19619D01*
X38189Y-19390D01*
X38189Y-19390D01*
X38189Y-19390D01*
X38226Y-19335D01*
X38238Y-19271D01*
X38238Y-19030D01*
X38333Y-19125D01*
X38487Y-19189D01*
X38637Y-19189D01*
X38857Y-19410D01*
X38857Y-19410D01*
X38912Y-19446D01*
X38912Y-19446D01*
X38963Y-19456D01*
X38976Y-19459D01*
X38976Y-19459D01*
X38976Y-19459D01*
X39152Y-19459D01*
X39152Y-19495D01*
X39152Y-20095D01*
X39170Y-20138D01*
X39203Y-20171D01*
X39247Y-20189D01*
X39294Y-20189D01*
X39402Y-20189D01*
X39402Y-20200D01*
X39402Y-20200D01*
X39415Y-20265D01*
X39451Y-20319D01*
X39454Y-20322D01*
X39339Y-20322D01*
X38954Y-19937D01*
X38988Y-19855D01*
X38989Y-19688D01*
X38925Y-19535D01*
X38808Y-19417D01*
X38654Y-19353D01*
X38488Y-19353D01*
X38334Y-19416D01*
X38216Y-19534D01*
X38152Y-19688D01*
X38152Y-19854D01*
X38216Y-20008D01*
X38333Y-20125D01*
X38487Y-20189D01*
X38653Y-20189D01*
X38708Y-20167D01*
X39151Y-20609D01*
X39151Y-20609D01*
X39205Y-20645D01*
X39205Y-20645D01*
X39257Y-20656D01*
X39270Y-20658D01*
X39270Y-20658D01*
X39270Y-20658D01*
X39712Y-20658D01*
X39810Y-20757D01*
X39810Y-21730D01*
X39810Y-21730D01*
X39823Y-21795D01*
X39859Y-21849D01*
X40412Y-22402D01*
X40412Y-22402D01*
X40467Y-22438D01*
X40505Y-22446D01*
X40405Y-22546D01*
X40341Y-22699D01*
X40341Y-22866D01*
X40405Y-23019D01*
X40522Y-23137D01*
X40676Y-23201D01*
X40842Y-23201D01*
X40996Y-23138D01*
X41114Y-23020D01*
X41177Y-22866D01*
X41178Y-22700D01*
X41114Y-22546D01*
X41019Y-22451D01*
X41062Y-22451D01*
X41062Y-22451D01*
X41062Y-22451D01*
X41127Y-22438D01*
X41181Y-22402D01*
X41378Y-22205D01*
X41378Y-22205D01*
X41378Y-22205D01*
X41415Y-22150D01*
X41415Y-22150D01*
X41425Y-22099D01*
X41427Y-22086D01*
X41427Y-22086D01*
X41427Y-22086D01*
X41427Y-22042D01*
X41522Y-22137D01*
X41676Y-22201D01*
X41842Y-22201D01*
X41996Y-22138D01*
X42114Y-22020D01*
X42177Y-21866D01*
X42178Y-21700D01*
X42114Y-21546D01*
X41996Y-21429D01*
X41843Y-21365D01*
X41677Y-21365D01*
X41523Y-21428D01*
X41427Y-21523D01*
X41427Y-21353D01*
X41607Y-21173D01*
X41676Y-21201D01*
X41842Y-21201D01*
X41996Y-21138D01*
X42114Y-21020D01*
X42177Y-20866D01*
X42178Y-20700D01*
X42178Y-19700D01*
X42178Y-18700D01*
X42114Y-18546D01*
X41996Y-18429D01*
X41843Y-18365D01*
X41677Y-18365D01*
X41523Y-18428D01*
X41405Y-18546D01*
X41341Y-18699D01*
X41341Y-18866D01*
X41405Y-19019D01*
X41522Y-19137D01*
X41676Y-19201D01*
X41842Y-19201D01*
X41996Y-19138D01*
X42114Y-19020D01*
X42177Y-18866D01*
X42178Y-18700D01*
X42178Y-19700D01*
X42114Y-19546D01*
X41996Y-19429D01*
X41843Y-19365D01*
X41677Y-19365D01*
X41523Y-19428D01*
X41405Y-19546D01*
X41341Y-19699D01*
X41341Y-19866D01*
X41405Y-20019D01*
X41522Y-20137D01*
X41676Y-20201D01*
X41842Y-20201D01*
X41996Y-20138D01*
X42114Y-20020D01*
X42177Y-19866D01*
X42178Y-19700D01*
X42178Y-20700D01*
X42114Y-20546D01*
X41996Y-20429D01*
X41843Y-20365D01*
X41677Y-20365D01*
X41523Y-20428D01*
X41405Y-20546D01*
X41341Y-20699D01*
X41341Y-20866D01*
X41370Y-20935D01*
X41140Y-21164D01*
X41104Y-21219D01*
X41091Y-21283D01*
X41091Y-21283D01*
X41091Y-21524D01*
X40996Y-21429D01*
X40843Y-21365D01*
X40677Y-21365D01*
X40523Y-21428D01*
X40474Y-21477D01*
X40325Y-21328D01*
X40325Y-20610D01*
X40319Y-20581D01*
X40370Y-20631D01*
X40341Y-20699D01*
X40341Y-20866D01*
X40405Y-21019D01*
X40522Y-21137D01*
X40676Y-21201D01*
X40842Y-21201D01*
X40996Y-21138D01*
X41114Y-21020D01*
X41177Y-20866D01*
X41178Y-20700D01*
X41114Y-20546D01*
X40996Y-20429D01*
X40843Y-20365D01*
X40677Y-20365D01*
X40607Y-20393D01*
X40227Y-20013D01*
X40227Y-19488D01*
X40370Y-19631D01*
X40341Y-19699D01*
X40341Y-19866D01*
X40405Y-20019D01*
X40522Y-20137D01*
X40676Y-20201D01*
X40842Y-20201D01*
X40996Y-20138D01*
X41114Y-20020D01*
X41177Y-19866D01*
X41178Y-19700D01*
X41178Y-18700D01*
X41114Y-18546D01*
X40996Y-18429D01*
X40843Y-18365D01*
X40677Y-18365D01*
X40523Y-18428D01*
X40405Y-18546D01*
X40341Y-18699D01*
X40341Y-18866D01*
X40405Y-19019D01*
X40522Y-19137D01*
X40676Y-19201D01*
X40842Y-19201D01*
X40996Y-19138D01*
X41114Y-19020D01*
X41177Y-18866D01*
X41178Y-18700D01*
X41178Y-19700D01*
X41114Y-19546D01*
X40996Y-19429D01*
X40843Y-19365D01*
X40677Y-19365D01*
X40607Y-19393D01*
X40325Y-19111D01*
X40325Y-18622D01*
X40312Y-18557D01*
X40276Y-18503D01*
X40276Y-18503D01*
X40070Y-18297D01*
X44222Y-18297D01*
X44222Y-28198D01*
X44222Y-28198D01*
G37*
G54D20*
X44222Y-28198D02*
X44185Y-28198D01*
X44185Y-19109D01*
X44046Y-18771D01*
X43788Y-18513D01*
X43451Y-18373D01*
X43085Y-18373D01*
X42748Y-18512D01*
X42489Y-18770D01*
X42349Y-19107D01*
X42349Y-19473D01*
X42488Y-19810D01*
X42746Y-20069D01*
X42986Y-20168D01*
X42982Y-20168D01*
X42933Y-20217D01*
X42933Y-20625D01*
X43341Y-20625D01*
X43390Y-20576D01*
X43390Y-20326D01*
X43360Y-20253D01*
X43316Y-20209D01*
X43449Y-20209D01*
X43787Y-20070D01*
X44045Y-19812D01*
X44185Y-19474D01*
X44185Y-19109D01*
X44185Y-28198D01*
X43395Y-28198D01*
X43504Y-28153D01*
X43621Y-28036D01*
X43685Y-27882D01*
X43685Y-27716D01*
X43685Y-26716D01*
X43622Y-26562D01*
X43504Y-26444D01*
X43503Y-26444D01*
X43503Y-26154D01*
X43504Y-26153D01*
X43621Y-26036D01*
X43685Y-25882D01*
X43685Y-25716D01*
X43622Y-25562D01*
X43504Y-25444D01*
X43503Y-25444D01*
X43503Y-25217D01*
X43591Y-25217D01*
X43634Y-25199D01*
X43667Y-25166D01*
X43685Y-25122D01*
X43685Y-25075D01*
X43685Y-24475D01*
X43667Y-24432D01*
X43634Y-24399D01*
X43591Y-24381D01*
X43544Y-24381D01*
X43390Y-24381D01*
X43390Y-21004D01*
X43390Y-20753D01*
X43341Y-20704D01*
X42933Y-20704D01*
X42933Y-21112D01*
X42982Y-21162D01*
X43154Y-21162D01*
X43233Y-21162D01*
X43305Y-21132D01*
X43360Y-21076D01*
X43390Y-21004D01*
X43390Y-24381D01*
X42944Y-24381D01*
X42900Y-24399D01*
X42867Y-24432D01*
X42849Y-24475D01*
X42849Y-24522D01*
X42849Y-25122D01*
X42867Y-25166D01*
X42900Y-25199D01*
X42944Y-25217D01*
X42991Y-25217D01*
X43031Y-25217D01*
X43031Y-25444D01*
X43031Y-25444D01*
X42913Y-25562D01*
X42849Y-25715D01*
X42849Y-25882D01*
X42913Y-26035D01*
X43030Y-26153D01*
X43031Y-26153D01*
X43031Y-26444D01*
X43031Y-26444D01*
X42913Y-26562D01*
X42849Y-26715D01*
X42849Y-26882D01*
X42913Y-27035D01*
X43030Y-27153D01*
X43184Y-27217D01*
X43350Y-27217D01*
X43504Y-27153D01*
X43621Y-27036D01*
X43685Y-26882D01*
X43685Y-26716D01*
X43685Y-27716D01*
X43622Y-27562D01*
X43504Y-27444D01*
X43351Y-27381D01*
X43184Y-27381D01*
X43031Y-27444D01*
X42913Y-27562D01*
X42849Y-27715D01*
X42849Y-27882D01*
X42913Y-28035D01*
X43030Y-28153D01*
X43139Y-28198D01*
X42294Y-28198D01*
X42441Y-28051D01*
X42441Y-28051D01*
X42441Y-28051D01*
X42478Y-27997D01*
X42490Y-27933D01*
X42490Y-26346D01*
X42478Y-26282D01*
X42441Y-26227D01*
X42441Y-26227D01*
X42149Y-25935D01*
X42177Y-25866D01*
X42178Y-25700D01*
X42178Y-24700D01*
X42114Y-24546D01*
X41996Y-24429D01*
X41843Y-24365D01*
X41677Y-24365D01*
X41523Y-24428D01*
X41405Y-24546D01*
X41341Y-24699D01*
X41341Y-24866D01*
X41405Y-25019D01*
X41522Y-25137D01*
X41676Y-25201D01*
X41842Y-25201D01*
X41996Y-25138D01*
X42114Y-25020D01*
X42177Y-24866D01*
X42178Y-24700D01*
X42178Y-25700D01*
X42114Y-25546D01*
X41996Y-25429D01*
X41843Y-25365D01*
X41677Y-25365D01*
X41523Y-25428D01*
X41420Y-25531D01*
X41415Y-25506D01*
X41378Y-25451D01*
X41378Y-25451D01*
X41103Y-25176D01*
X41048Y-25139D01*
X41003Y-25130D01*
X41114Y-25020D01*
X41177Y-24866D01*
X41178Y-24700D01*
X41114Y-24546D01*
X40996Y-24429D01*
X40843Y-24365D01*
X40717Y-24365D01*
X40728Y-24338D01*
X40728Y-24244D01*
X40710Y-24201D01*
X40842Y-24201D01*
X40996Y-24138D01*
X41114Y-24020D01*
X41177Y-23866D01*
X41178Y-23700D01*
X41150Y-23634D01*
X41329Y-23455D01*
X41496Y-23455D01*
X41405Y-23546D01*
X41341Y-23699D01*
X41341Y-23866D01*
X41405Y-24019D01*
X41522Y-24137D01*
X41676Y-24201D01*
X41842Y-24201D01*
X41996Y-24138D01*
X42114Y-24020D01*
X42142Y-23951D01*
X42588Y-23951D01*
X42656Y-24019D01*
X42810Y-24083D01*
X42976Y-24083D01*
X43130Y-24020D01*
X43247Y-23902D01*
X43311Y-23748D01*
X43311Y-23582D01*
X43248Y-23428D01*
X43130Y-23311D01*
X42977Y-23247D01*
X42810Y-23247D01*
X42657Y-23310D01*
X42539Y-23428D01*
X42475Y-23581D01*
X42475Y-23615D01*
X42142Y-23615D01*
X42114Y-23546D01*
X42023Y-23455D01*
X42271Y-23455D01*
X42271Y-23455D01*
X42271Y-23455D01*
X42335Y-23442D01*
X42390Y-23406D01*
X42741Y-23055D01*
X42810Y-23083D01*
X42976Y-23083D01*
X43130Y-23020D01*
X43247Y-22902D01*
X43311Y-22748D01*
X43311Y-22582D01*
X43311Y-21582D01*
X43248Y-21428D01*
X43130Y-21311D01*
X42977Y-21247D01*
X42854Y-21247D01*
X42854Y-21112D01*
X42854Y-20704D01*
X42854Y-20625D01*
X42854Y-20217D01*
X42805Y-20168D01*
X42632Y-20168D01*
X42554Y-20168D01*
X42482Y-20198D01*
X42426Y-20253D01*
X42396Y-20326D01*
X42396Y-20576D01*
X42446Y-20625D01*
X42854Y-20625D01*
X42854Y-20704D01*
X42446Y-20704D01*
X42396Y-20753D01*
X42396Y-21004D01*
X42426Y-21076D01*
X42482Y-21132D01*
X42554Y-21162D01*
X42632Y-21162D01*
X42805Y-21162D01*
X42854Y-21112D01*
X42854Y-21247D01*
X42810Y-21247D01*
X42657Y-21310D01*
X42539Y-21428D01*
X42475Y-21581D01*
X42475Y-21748D01*
X42539Y-21901D01*
X42656Y-22019D01*
X42810Y-22083D01*
X42976Y-22083D01*
X43130Y-22020D01*
X43247Y-21902D01*
X43311Y-21748D01*
X43311Y-21582D01*
X43311Y-22582D01*
X43248Y-22428D01*
X43130Y-22311D01*
X42977Y-22247D01*
X42810Y-22247D01*
X42657Y-22310D01*
X42539Y-22428D01*
X42475Y-22581D01*
X42475Y-22748D01*
X42504Y-22817D01*
X42202Y-23119D01*
X42015Y-23119D01*
X42114Y-23020D01*
X42177Y-22866D01*
X42178Y-22700D01*
X42114Y-22546D01*
X41996Y-22429D01*
X41843Y-22365D01*
X41677Y-22365D01*
X41523Y-22428D01*
X41405Y-22546D01*
X41341Y-22699D01*
X41341Y-22866D01*
X41405Y-23019D01*
X41504Y-23119D01*
X41259Y-23119D01*
X41259Y-23119D01*
X41195Y-23132D01*
X41140Y-23168D01*
X40914Y-23394D01*
X40843Y-23365D01*
X40677Y-23365D01*
X40523Y-23428D01*
X40405Y-23546D01*
X40341Y-23699D01*
X40341Y-23866D01*
X40405Y-24019D01*
X40441Y-24056D01*
X40358Y-24090D01*
X40291Y-24157D01*
X40255Y-24244D01*
X40255Y-24289D01*
X40137Y-24407D01*
X40137Y-22362D01*
X40137Y-22362D01*
X40119Y-22271D01*
X40119Y-22271D01*
X40068Y-22195D01*
X40068Y-22195D01*
X38533Y-20659D01*
X38456Y-20608D01*
X38366Y-20590D01*
X35859Y-20590D01*
X35859Y-19316D01*
X35859Y-19143D01*
X35809Y-19094D01*
X35401Y-19094D01*
X35401Y-19502D01*
X35450Y-19551D01*
X35701Y-19552D01*
X35773Y-19522D01*
X35828Y-19466D01*
X35859Y-19394D01*
X35859Y-19316D01*
X35859Y-20590D01*
X35846Y-20590D01*
X35799Y-20590D01*
X35751Y-20610D01*
X35322Y-20610D01*
X35322Y-19502D01*
X35322Y-19094D01*
X34914Y-19094D01*
X34865Y-19143D01*
X34865Y-19316D01*
X34865Y-19394D01*
X34895Y-19466D01*
X34950Y-19522D01*
X35023Y-19552D01*
X35273Y-19551D01*
X35322Y-19502D01*
X35322Y-20610D01*
X34231Y-20610D01*
X33789Y-20167D01*
X33712Y-20116D01*
X33622Y-20098D01*
X33464Y-20098D01*
X33464Y-19819D01*
X33446Y-19775D01*
X33413Y-19742D01*
X33369Y-19724D01*
X33323Y-19724D01*
X32319Y-19724D01*
X32275Y-19742D01*
X32244Y-19773D01*
X32244Y-19409D01*
X32244Y-19409D01*
X32362Y-19292D01*
X32362Y-19291D01*
X32653Y-19291D01*
X32653Y-19291D01*
X32770Y-19409D01*
X32924Y-19473D01*
X33090Y-19473D01*
X33244Y-19409D01*
X33362Y-19292D01*
X33425Y-19138D01*
X33426Y-18972D01*
X33362Y-18818D01*
X33323Y-18779D01*
X34046Y-18779D01*
X34007Y-18817D01*
X33944Y-18971D01*
X33944Y-19137D01*
X34007Y-19291D01*
X34125Y-19409D01*
X34278Y-19473D01*
X34445Y-19473D01*
X34598Y-19409D01*
X34716Y-19292D01*
X34780Y-19138D01*
X34780Y-18972D01*
X34716Y-18818D01*
X34677Y-18779D01*
X34865Y-18779D01*
X34865Y-18794D01*
X34865Y-18966D01*
X34914Y-19015D01*
X35322Y-19015D01*
X35322Y-19007D01*
X35401Y-19007D01*
X35401Y-19015D01*
X35809Y-19015D01*
X35859Y-18966D01*
X35859Y-18794D01*
X35859Y-18779D01*
X36152Y-18779D01*
X36152Y-18854D01*
X36216Y-19008D01*
X36333Y-19125D01*
X36334Y-19126D01*
X36334Y-19416D01*
X36334Y-19416D01*
X36216Y-19534D01*
X36152Y-19688D01*
X36152Y-19854D01*
X36216Y-20008D01*
X36333Y-20125D01*
X36487Y-20189D01*
X36653Y-20189D01*
X36807Y-20126D01*
X36925Y-20008D01*
X36988Y-19855D01*
X36989Y-19688D01*
X36925Y-19535D01*
X36808Y-19417D01*
X36807Y-19417D01*
X36807Y-19126D01*
X36807Y-19126D01*
X36925Y-19008D01*
X36988Y-18855D01*
X36989Y-18688D01*
X36925Y-18535D01*
X36808Y-18417D01*
X36654Y-18353D01*
X36488Y-18353D01*
X36480Y-18356D01*
X36432Y-18325D01*
X36342Y-18307D01*
X31496Y-18307D01*
X27125Y-18307D01*
X27035Y-18325D01*
X26958Y-18376D01*
X26801Y-18533D01*
X26784Y-18559D01*
X26784Y-18412D01*
X26754Y-18340D01*
X26711Y-18297D01*
X37408Y-18297D01*
X37305Y-18339D01*
X37276Y-18421D01*
X37570Y-18715D01*
X37865Y-18421D01*
X37835Y-18339D01*
X37720Y-18297D01*
X38177Y-18297D01*
X37977Y-18497D01*
X37920Y-18477D01*
X37626Y-18771D01*
X37632Y-18777D01*
X37576Y-18832D01*
X37570Y-18827D01*
X37515Y-18883D01*
X37515Y-18771D01*
X37220Y-18477D01*
X37139Y-18506D01*
X37070Y-18692D01*
X37078Y-18889D01*
X37139Y-19036D01*
X37220Y-19066D01*
X37515Y-18771D01*
X37515Y-18883D01*
X37276Y-19121D01*
X37305Y-19203D01*
X37491Y-19271D01*
X37688Y-19264D01*
X37835Y-19203D01*
X37865Y-19121D01*
X37865Y-19121D01*
X37900Y-19157D01*
X37902Y-19155D01*
X37902Y-19202D01*
X37865Y-19239D01*
X37722Y-19382D01*
X37654Y-19353D01*
X37488Y-19353D01*
X37334Y-19416D01*
X37216Y-19534D01*
X37152Y-19688D01*
X37152Y-19854D01*
X37216Y-20008D01*
X37333Y-20125D01*
X37487Y-20189D01*
X37653Y-20189D01*
X37807Y-20126D01*
X37925Y-20008D01*
X37988Y-19855D01*
X37989Y-19688D01*
X37960Y-19619D01*
X38189Y-19390D01*
X38189Y-19390D01*
X38189Y-19390D01*
X38226Y-19335D01*
X38238Y-19271D01*
X38238Y-19030D01*
X38333Y-19125D01*
X38487Y-19189D01*
X38637Y-19189D01*
X38857Y-19410D01*
X38857Y-19410D01*
X38912Y-19446D01*
X38912Y-19446D01*
X38963Y-19456D01*
X38976Y-19459D01*
X38976Y-19459D01*
X38976Y-19459D01*
X39152Y-19459D01*
X39152Y-19495D01*
X39152Y-20095D01*
X39170Y-20138D01*
X39203Y-20171D01*
X39247Y-20189D01*
X39294Y-20189D01*
X39402Y-20189D01*
X39402Y-20200D01*
X39402Y-20200D01*
X39415Y-20265D01*
X39451Y-20319D01*
X39454Y-20322D01*
X39339Y-20322D01*
X38954Y-19937D01*
X38988Y-19855D01*
X38989Y-19688D01*
X38925Y-19535D01*
X38808Y-19417D01*
X38654Y-19353D01*
X38488Y-19353D01*
X38334Y-19416D01*
X38216Y-19534D01*
X38152Y-19688D01*
X38152Y-19854D01*
X38216Y-20008D01*
X38333Y-20125D01*
X38487Y-20189D01*
X38653Y-20189D01*
X38708Y-20167D01*
X39151Y-20609D01*
X39151Y-20609D01*
X39205Y-20645D01*
X39205Y-20645D01*
X39257Y-20656D01*
X39270Y-20658D01*
X39270Y-20658D01*
X39270Y-20658D01*
X39712Y-20658D01*
X39810Y-20757D01*
X39810Y-21730D01*
X39810Y-21730D01*
X39823Y-21795D01*
X39859Y-21849D01*
X40412Y-22402D01*
X40412Y-22402D01*
X40467Y-22438D01*
X40505Y-22446D01*
X40405Y-22546D01*
X40341Y-22699D01*
X40341Y-22866D01*
X40405Y-23019D01*
X40522Y-23137D01*
X40676Y-23201D01*
X40842Y-23201D01*
X40996Y-23138D01*
X41114Y-23020D01*
X41177Y-22866D01*
X41178Y-22700D01*
X41114Y-22546D01*
X41019Y-22451D01*
X41062Y-22451D01*
X41062Y-22451D01*
X41062Y-22451D01*
X41127Y-22438D01*
X41181Y-22402D01*
X41378Y-22205D01*
X41378Y-22205D01*
X41378Y-22205D01*
X41415Y-22150D01*
X41415Y-22150D01*
X41425Y-22099D01*
X41427Y-22086D01*
X41427Y-22086D01*
X41427Y-22086D01*
X41427Y-22042D01*
X41522Y-22137D01*
X41676Y-22201D01*
X41842Y-22201D01*
X41996Y-22138D01*
X42114Y-22020D01*
X42177Y-21866D01*
X42178Y-21700D01*
X42114Y-21546D01*
X41996Y-21429D01*
X41843Y-21365D01*
X41677Y-21365D01*
X41523Y-21428D01*
X41427Y-21523D01*
X41427Y-21353D01*
X41607Y-21173D01*
X41676Y-21201D01*
X41842Y-21201D01*
X41996Y-21138D01*
X42114Y-21020D01*
X42177Y-20866D01*
X42178Y-20700D01*
X42178Y-19700D01*
X42178Y-18700D01*
X42114Y-18546D01*
X41996Y-18429D01*
X41843Y-18365D01*
X41677Y-18365D01*
X41523Y-18428D01*
X41405Y-18546D01*
X41341Y-18699D01*
X41341Y-18866D01*
X41405Y-19019D01*
X41522Y-19137D01*
X41676Y-19201D01*
X41842Y-19201D01*
X41996Y-19138D01*
X42114Y-19020D01*
X42177Y-18866D01*
X42178Y-18700D01*
X42178Y-19700D01*
X42114Y-19546D01*
X41996Y-19429D01*
X41843Y-19365D01*
X41677Y-19365D01*
X41523Y-19428D01*
X41405Y-19546D01*
X41341Y-19699D01*
X41341Y-19866D01*
X41405Y-20019D01*
X41522Y-20137D01*
X41676Y-20201D01*
X41842Y-20201D01*
X41996Y-20138D01*
X42114Y-20020D01*
X42177Y-19866D01*
X42178Y-19700D01*
X42178Y-20700D01*
X42114Y-20546D01*
X41996Y-20429D01*
X41843Y-20365D01*
X41677Y-20365D01*
X41523Y-20428D01*
X41405Y-20546D01*
X41341Y-20699D01*
X41341Y-20866D01*
X41370Y-20935D01*
X41140Y-21164D01*
X41104Y-21219D01*
X41091Y-21283D01*
X41091Y-21283D01*
X41091Y-21524D01*
X40996Y-21429D01*
X40843Y-21365D01*
X40677Y-21365D01*
X40523Y-21428D01*
X40474Y-21477D01*
X40325Y-21328D01*
X40325Y-20610D01*
X40319Y-20581D01*
X40370Y-20631D01*
X40341Y-20699D01*
X40341Y-20866D01*
X40405Y-21019D01*
X40522Y-21137D01*
X40676Y-21201D01*
X40842Y-21201D01*
X40996Y-21138D01*
X41114Y-21020D01*
X41177Y-20866D01*
X41178Y-20700D01*
X41114Y-20546D01*
X40996Y-20429D01*
X40843Y-20365D01*
X40677Y-20365D01*
X40607Y-20393D01*
X40227Y-20013D01*
X40227Y-19488D01*
X40370Y-19631D01*
X40341Y-19699D01*
X40341Y-19866D01*
X40405Y-20019D01*
X40522Y-20137D01*
X40676Y-20201D01*
X40842Y-20201D01*
X40996Y-20138D01*
X41114Y-20020D01*
X41177Y-19866D01*
X41178Y-19700D01*
X41178Y-18700D01*
X41114Y-18546D01*
X40996Y-18429D01*
X40843Y-18365D01*
X40677Y-18365D01*
X40523Y-18428D01*
X40405Y-18546D01*
X40341Y-18699D01*
X40341Y-18866D01*
X40405Y-19019D01*
X40522Y-19137D01*
X40676Y-19201D01*
X40842Y-19201D01*
X40996Y-19138D01*
X41114Y-19020D01*
X41177Y-18866D01*
X41178Y-18700D01*
X41178Y-19700D01*
X41114Y-19546D01*
X40996Y-19429D01*
X40843Y-19365D01*
X40677Y-19365D01*
X40607Y-19393D01*
X40325Y-19111D01*
X40325Y-18622D01*
X40312Y-18557D01*
X40276Y-18503D01*
X40276Y-18503D01*
X40070Y-18297D01*
X44222Y-18297D01*
X44222Y-28198D01*
M02*
