G04 (created by PCBNEW (2013-may-18)-stable) date Сб 29 авг 2015 23:53:58*
%MOIN*%
G04 Gerber Fmt 3.4, Leading zero omitted, Abs format*
%FSLAX34Y34*%
G01*
G70*
G90*
G04 APERTURE LIST*
%ADD10C,0.00590551*%
%ADD11C,0.00984252*%
%ADD12C,0.00787402*%
%ADD13C,0.0047*%
%ADD14C,0.008*%
%ADD15C,0.0039*%
%ADD16C,0.012*%
%ADD17C,0.01*%
%ADD18C,0.006*%
G04 APERTURE END LIST*
G54D10*
G54D11*
X32882Y-22232D02*
X32901Y-22250D01*
X32957Y-22269D01*
X32994Y-22269D01*
X33051Y-22250D01*
X33088Y-22213D01*
X33107Y-22175D01*
X33126Y-22100D01*
X33126Y-22044D01*
X33107Y-21969D01*
X33088Y-21932D01*
X33051Y-21894D01*
X32994Y-21875D01*
X32957Y-21875D01*
X32901Y-21894D01*
X32882Y-21913D01*
X32544Y-22269D02*
X32544Y-22063D01*
X32563Y-22025D01*
X32601Y-22007D01*
X32676Y-22007D01*
X32713Y-22025D01*
X32544Y-22250D02*
X32582Y-22269D01*
X32676Y-22269D01*
X32713Y-22250D01*
X32732Y-22213D01*
X32732Y-22175D01*
X32713Y-22138D01*
X32676Y-22119D01*
X32582Y-22119D01*
X32544Y-22100D01*
X32188Y-22007D02*
X32188Y-22269D01*
X32357Y-22007D02*
X32357Y-22213D01*
X32338Y-22250D01*
X32301Y-22269D01*
X32245Y-22269D01*
X32207Y-22250D01*
X32188Y-22232D01*
X32020Y-22250D02*
X31982Y-22269D01*
X31907Y-22269D01*
X31870Y-22250D01*
X31851Y-22213D01*
X31851Y-22194D01*
X31870Y-22157D01*
X31907Y-22138D01*
X31963Y-22138D01*
X32001Y-22119D01*
X32020Y-22082D01*
X32020Y-22063D01*
X32001Y-22025D01*
X31963Y-22007D01*
X31907Y-22007D01*
X31870Y-22025D01*
X31738Y-22007D02*
X31588Y-22007D01*
X31682Y-21875D02*
X31682Y-22213D01*
X31663Y-22250D01*
X31626Y-22269D01*
X31588Y-22269D01*
X31457Y-22269D02*
X31457Y-22007D01*
X31457Y-21875D02*
X31476Y-21894D01*
X31457Y-21913D01*
X31438Y-21894D01*
X31457Y-21875D01*
X31457Y-21913D01*
X31101Y-22250D02*
X31138Y-22269D01*
X31213Y-22269D01*
X31251Y-22250D01*
X31270Y-22232D01*
X31288Y-22194D01*
X31288Y-22082D01*
X31270Y-22044D01*
X31251Y-22025D01*
X31213Y-22007D01*
X31138Y-22007D01*
X31101Y-22025D01*
X30445Y-22269D02*
X30632Y-22269D01*
X30632Y-21875D01*
X30370Y-21875D02*
X30145Y-21875D01*
X30257Y-22269D02*
X30257Y-21875D01*
X29732Y-22250D02*
X29695Y-22269D01*
X29620Y-22269D01*
X29582Y-22250D01*
X29564Y-22213D01*
X29564Y-22194D01*
X29582Y-22157D01*
X29620Y-22138D01*
X29676Y-22138D01*
X29714Y-22119D01*
X29732Y-22082D01*
X29732Y-22063D01*
X29714Y-22025D01*
X29676Y-22007D01*
X29620Y-22007D01*
X29582Y-22025D01*
X29432Y-22007D02*
X29339Y-22269D01*
X29245Y-22007D02*
X29339Y-22269D01*
X29376Y-22363D01*
X29395Y-22382D01*
X29432Y-22400D01*
X29114Y-22250D02*
X29076Y-22269D01*
X29001Y-22269D01*
X28964Y-22250D01*
X28945Y-22213D01*
X28945Y-22194D01*
X28964Y-22157D01*
X29001Y-22138D01*
X29057Y-22138D01*
X29095Y-22119D01*
X29114Y-22082D01*
X29114Y-22063D01*
X29095Y-22025D01*
X29057Y-22007D01*
X29001Y-22007D01*
X28964Y-22025D01*
X28832Y-22007D02*
X28682Y-22007D01*
X28776Y-21875D02*
X28776Y-22213D01*
X28757Y-22250D01*
X28720Y-22269D01*
X28682Y-22269D01*
X28401Y-22250D02*
X28439Y-22269D01*
X28514Y-22269D01*
X28551Y-22250D01*
X28570Y-22213D01*
X28570Y-22063D01*
X28551Y-22025D01*
X28514Y-22007D01*
X28439Y-22007D01*
X28401Y-22025D01*
X28383Y-22063D01*
X28383Y-22100D01*
X28570Y-22138D01*
X28214Y-22269D02*
X28214Y-22007D01*
X28214Y-22044D02*
X28195Y-22025D01*
X28158Y-22007D01*
X28101Y-22007D01*
X28064Y-22025D01*
X28045Y-22063D01*
X28045Y-22269D01*
X28045Y-22063D02*
X28026Y-22025D01*
X27989Y-22007D01*
X27933Y-22007D01*
X27895Y-22025D01*
X27876Y-22063D01*
X27876Y-22269D01*
X32216Y-22919D02*
X32216Y-22525D01*
X32048Y-22919D02*
X32048Y-22712D01*
X32066Y-22675D01*
X32104Y-22656D01*
X32160Y-22656D01*
X32198Y-22675D01*
X32216Y-22694D01*
X31710Y-22900D02*
X31748Y-22919D01*
X31823Y-22919D01*
X31860Y-22900D01*
X31879Y-22862D01*
X31879Y-22712D01*
X31860Y-22675D01*
X31823Y-22656D01*
X31748Y-22656D01*
X31710Y-22675D01*
X31691Y-22712D01*
X31691Y-22750D01*
X31879Y-22787D01*
X31354Y-22919D02*
X31354Y-22712D01*
X31373Y-22675D01*
X31410Y-22656D01*
X31485Y-22656D01*
X31523Y-22675D01*
X31354Y-22900D02*
X31392Y-22919D01*
X31485Y-22919D01*
X31523Y-22900D01*
X31541Y-22862D01*
X31541Y-22825D01*
X31523Y-22787D01*
X31485Y-22769D01*
X31392Y-22769D01*
X31354Y-22750D01*
X30998Y-22919D02*
X30998Y-22525D01*
X30998Y-22900D02*
X31035Y-22919D01*
X31110Y-22919D01*
X31148Y-22900D01*
X31167Y-22881D01*
X31185Y-22844D01*
X31185Y-22731D01*
X31167Y-22694D01*
X31148Y-22675D01*
X31110Y-22656D01*
X31035Y-22656D01*
X30998Y-22675D01*
X30529Y-22900D02*
X30492Y-22919D01*
X30417Y-22919D01*
X30379Y-22900D01*
X30360Y-22862D01*
X30360Y-22844D01*
X30379Y-22806D01*
X30417Y-22787D01*
X30473Y-22787D01*
X30510Y-22769D01*
X30529Y-22731D01*
X30529Y-22712D01*
X30510Y-22675D01*
X30473Y-22656D01*
X30417Y-22656D01*
X30379Y-22675D01*
X30042Y-22900D02*
X30079Y-22919D01*
X30154Y-22919D01*
X30192Y-22900D01*
X30210Y-22862D01*
X30210Y-22712D01*
X30192Y-22675D01*
X30154Y-22656D01*
X30079Y-22656D01*
X30042Y-22675D01*
X30023Y-22712D01*
X30023Y-22750D01*
X30210Y-22787D01*
X29854Y-22656D02*
X29854Y-22919D01*
X29854Y-22694D02*
X29835Y-22675D01*
X29798Y-22656D01*
X29742Y-22656D01*
X29704Y-22675D01*
X29685Y-22712D01*
X29685Y-22919D01*
X29517Y-22900D02*
X29479Y-22919D01*
X29404Y-22919D01*
X29367Y-22900D01*
X29348Y-22862D01*
X29348Y-22844D01*
X29367Y-22806D01*
X29404Y-22787D01*
X29461Y-22787D01*
X29498Y-22769D01*
X29517Y-22731D01*
X29517Y-22712D01*
X29498Y-22675D01*
X29461Y-22656D01*
X29404Y-22656D01*
X29367Y-22675D01*
X29123Y-22919D02*
X29161Y-22900D01*
X29179Y-22881D01*
X29198Y-22844D01*
X29198Y-22731D01*
X29179Y-22694D01*
X29161Y-22675D01*
X29123Y-22656D01*
X29067Y-22656D01*
X29029Y-22675D01*
X29011Y-22694D01*
X28992Y-22731D01*
X28992Y-22844D01*
X29011Y-22881D01*
X29029Y-22900D01*
X29067Y-22919D01*
X29123Y-22919D01*
X28823Y-22919D02*
X28823Y-22656D01*
X28823Y-22731D02*
X28804Y-22694D01*
X28786Y-22675D01*
X28748Y-22656D01*
X28711Y-22656D01*
X33163Y-23550D02*
X33126Y-23568D01*
X33051Y-23568D01*
X33013Y-23550D01*
X32994Y-23512D01*
X32994Y-23493D01*
X33013Y-23456D01*
X33051Y-23437D01*
X33107Y-23437D01*
X33144Y-23418D01*
X33163Y-23381D01*
X33163Y-23362D01*
X33144Y-23325D01*
X33107Y-23306D01*
X33051Y-23306D01*
X33013Y-23325D01*
X32826Y-23568D02*
X32826Y-23175D01*
X32657Y-23568D02*
X32657Y-23362D01*
X32676Y-23325D01*
X32713Y-23306D01*
X32769Y-23306D01*
X32807Y-23325D01*
X32826Y-23343D01*
X32470Y-23568D02*
X32470Y-23306D01*
X32470Y-23175D02*
X32488Y-23193D01*
X32470Y-23212D01*
X32451Y-23193D01*
X32470Y-23175D01*
X32470Y-23212D01*
X32132Y-23550D02*
X32170Y-23568D01*
X32245Y-23568D01*
X32282Y-23550D01*
X32301Y-23512D01*
X32301Y-23362D01*
X32282Y-23325D01*
X32245Y-23306D01*
X32170Y-23306D01*
X32132Y-23325D01*
X32113Y-23362D01*
X32113Y-23400D01*
X32301Y-23437D01*
X31888Y-23568D02*
X31926Y-23550D01*
X31945Y-23512D01*
X31945Y-23175D01*
X31570Y-23568D02*
X31570Y-23175D01*
X31570Y-23550D02*
X31607Y-23568D01*
X31682Y-23568D01*
X31720Y-23550D01*
X31738Y-23531D01*
X31757Y-23493D01*
X31757Y-23381D01*
X31738Y-23343D01*
X31720Y-23325D01*
X31682Y-23306D01*
X31607Y-23306D01*
X31570Y-23325D01*
X31120Y-23306D02*
X31026Y-23568D01*
X30932Y-23306D01*
X30576Y-23568D02*
X30801Y-23568D01*
X30688Y-23568D02*
X30688Y-23175D01*
X30726Y-23231D01*
X30763Y-23268D01*
X30801Y-23287D01*
X30145Y-23175D02*
X29901Y-23175D01*
X30032Y-23325D01*
X29976Y-23325D01*
X29939Y-23343D01*
X29920Y-23362D01*
X29901Y-23400D01*
X29901Y-23493D01*
X29920Y-23531D01*
X29939Y-23550D01*
X29976Y-23568D01*
X30089Y-23568D01*
X30126Y-23550D01*
X30145Y-23531D01*
X29564Y-23550D02*
X29601Y-23568D01*
X29676Y-23568D01*
X29714Y-23550D01*
X29732Y-23531D01*
X29751Y-23493D01*
X29751Y-23381D01*
X29732Y-23343D01*
X29714Y-23325D01*
X29676Y-23306D01*
X29601Y-23306D01*
X29564Y-23325D01*
X29095Y-23568D02*
X29095Y-23306D01*
X29095Y-23381D02*
X29076Y-23343D01*
X29057Y-23325D01*
X29020Y-23306D01*
X28982Y-23306D01*
X28701Y-23550D02*
X28739Y-23568D01*
X28814Y-23568D01*
X28851Y-23550D01*
X28870Y-23512D01*
X28870Y-23362D01*
X28851Y-23325D01*
X28814Y-23306D01*
X28739Y-23306D01*
X28701Y-23325D01*
X28682Y-23362D01*
X28682Y-23400D01*
X28870Y-23437D01*
X28551Y-23306D02*
X28458Y-23568D01*
X28364Y-23306D01*
X28214Y-23531D02*
X28195Y-23550D01*
X28214Y-23568D01*
X28233Y-23550D01*
X28214Y-23531D01*
X28214Y-23568D01*
X28045Y-23212D02*
X28026Y-23193D01*
X27989Y-23175D01*
X27895Y-23175D01*
X27858Y-23193D01*
X27839Y-23212D01*
X27820Y-23250D01*
X27820Y-23287D01*
X27839Y-23343D01*
X28064Y-23568D01*
X27820Y-23568D01*
G54D12*
X34094Y-19783D02*
X34094Y-19744D01*
X33366Y-20511D02*
X34094Y-19783D01*
G54D11*
X40100Y-22723D02*
X39706Y-22723D01*
X39987Y-22854D01*
X39706Y-22985D01*
X40100Y-22985D01*
X40062Y-23398D02*
X40081Y-23379D01*
X40100Y-23323D01*
X40100Y-23285D01*
X40081Y-23229D01*
X40044Y-23191D01*
X40006Y-23173D01*
X39931Y-23154D01*
X39875Y-23154D01*
X39800Y-23173D01*
X39762Y-23191D01*
X39725Y-23229D01*
X39706Y-23285D01*
X39706Y-23323D01*
X39725Y-23379D01*
X39744Y-23398D01*
X39706Y-23566D02*
X40025Y-23566D01*
X40062Y-23585D01*
X40081Y-23604D01*
X40100Y-23641D01*
X40100Y-23716D01*
X40081Y-23754D01*
X40062Y-23772D01*
X40025Y-23791D01*
X39706Y-23791D01*
X39744Y-23960D02*
X39725Y-23979D01*
X39706Y-24016D01*
X39706Y-24110D01*
X39725Y-24147D01*
X39744Y-24166D01*
X39781Y-24185D01*
X39819Y-24185D01*
X39875Y-24166D01*
X40100Y-23941D01*
X40100Y-24185D01*
X26946Y-23851D02*
X27340Y-23851D01*
X27059Y-23720D01*
X27340Y-23589D01*
X26946Y-23589D01*
X26984Y-23176D02*
X26965Y-23195D01*
X26946Y-23251D01*
X26946Y-23289D01*
X26965Y-23345D01*
X27003Y-23383D01*
X27040Y-23401D01*
X27115Y-23420D01*
X27171Y-23420D01*
X27246Y-23401D01*
X27284Y-23383D01*
X27321Y-23345D01*
X27340Y-23289D01*
X27340Y-23251D01*
X27321Y-23195D01*
X27303Y-23176D01*
X27340Y-23008D02*
X27021Y-23008D01*
X26984Y-22989D01*
X26965Y-22970D01*
X26946Y-22933D01*
X26946Y-22858D01*
X26965Y-22820D01*
X26984Y-22801D01*
X27021Y-22783D01*
X27340Y-22783D01*
X26946Y-22389D02*
X26946Y-22614D01*
X26946Y-22501D02*
X27340Y-22501D01*
X27284Y-22539D01*
X27246Y-22576D01*
X27228Y-22614D01*
X37733Y-20431D02*
X37602Y-20618D01*
X37508Y-20431D02*
X37508Y-20824D01*
X37658Y-20824D01*
X37695Y-20806D01*
X37714Y-20787D01*
X37733Y-20749D01*
X37733Y-20693D01*
X37714Y-20656D01*
X37695Y-20637D01*
X37658Y-20618D01*
X37508Y-20618D01*
X38033Y-20637D02*
X37902Y-20637D01*
X37902Y-20431D02*
X37902Y-20824D01*
X38089Y-20824D01*
X38239Y-20431D02*
X38239Y-20824D01*
X38427Y-20431D02*
X38427Y-20824D01*
X38520Y-20824D01*
X38577Y-20806D01*
X38614Y-20768D01*
X38633Y-20731D01*
X38652Y-20656D01*
X38652Y-20599D01*
X38633Y-20524D01*
X38614Y-20487D01*
X38577Y-20449D01*
X38520Y-20431D01*
X38427Y-20431D01*
X39321Y-25841D02*
X39321Y-26104D01*
X39321Y-25879D02*
X39302Y-25860D01*
X39265Y-25841D01*
X39208Y-25841D01*
X39171Y-25860D01*
X39152Y-25898D01*
X39152Y-26104D01*
X38965Y-26104D02*
X38965Y-25841D01*
X38965Y-25916D02*
X38946Y-25879D01*
X38927Y-25860D01*
X38890Y-25841D01*
X38852Y-25841D01*
X38777Y-25841D02*
X38627Y-25841D01*
X38721Y-26104D02*
X38721Y-25766D01*
X38702Y-25729D01*
X38665Y-25710D01*
X38627Y-25710D01*
X38515Y-25748D02*
X38496Y-25729D01*
X38458Y-25710D01*
X38365Y-25710D01*
X38327Y-25729D01*
X38308Y-25748D01*
X38290Y-25785D01*
X38290Y-25823D01*
X38308Y-25879D01*
X38533Y-26104D01*
X38290Y-26104D01*
X37952Y-25841D02*
X37952Y-26104D01*
X38046Y-25691D02*
X38140Y-25973D01*
X37896Y-25973D01*
X37690Y-26104D02*
X37727Y-26085D01*
X37746Y-26047D01*
X37746Y-25710D01*
X37465Y-25710D02*
X37427Y-25710D01*
X37390Y-25729D01*
X37371Y-25748D01*
X37352Y-25785D01*
X37334Y-25860D01*
X37334Y-25954D01*
X37352Y-26029D01*
X37371Y-26066D01*
X37390Y-26085D01*
X37427Y-26104D01*
X37465Y-26104D01*
X37502Y-26085D01*
X37521Y-26066D01*
X37540Y-26029D01*
X37559Y-25954D01*
X37559Y-25860D01*
X37540Y-25785D01*
X37521Y-25748D01*
X37502Y-25729D01*
X37465Y-25710D01*
X36959Y-26104D02*
X37184Y-26104D01*
X37071Y-26104D02*
X37071Y-25710D01*
X37109Y-25766D01*
X37146Y-25804D01*
X37184Y-25823D01*
X32529Y-21218D02*
X32529Y-21612D01*
X32679Y-21612D01*
X32716Y-21593D01*
X32735Y-21574D01*
X32754Y-21537D01*
X32754Y-21481D01*
X32735Y-21443D01*
X32716Y-21424D01*
X32679Y-21406D01*
X32529Y-21406D01*
X32979Y-21218D02*
X32941Y-21237D01*
X32922Y-21256D01*
X32904Y-21293D01*
X32904Y-21406D01*
X32922Y-21443D01*
X32941Y-21462D01*
X32979Y-21481D01*
X33035Y-21481D01*
X33072Y-21462D01*
X33091Y-21443D01*
X33110Y-21406D01*
X33110Y-21293D01*
X33091Y-21256D01*
X33072Y-21237D01*
X33035Y-21218D01*
X32979Y-21218D01*
X33241Y-21481D02*
X33316Y-21218D01*
X33391Y-21406D01*
X33466Y-21218D01*
X33541Y-21481D01*
X33841Y-21237D02*
X33803Y-21218D01*
X33728Y-21218D01*
X33691Y-21237D01*
X33672Y-21274D01*
X33672Y-21424D01*
X33691Y-21462D01*
X33728Y-21481D01*
X33803Y-21481D01*
X33841Y-21462D01*
X33860Y-21424D01*
X33860Y-21387D01*
X33672Y-21349D01*
X34028Y-21218D02*
X34028Y-21481D01*
X34028Y-21406D02*
X34047Y-21443D01*
X34066Y-21462D01*
X34103Y-21481D01*
X34141Y-21481D01*
X32613Y-20718D02*
X32913Y-20718D01*
X32763Y-20568D02*
X32763Y-20868D01*
X33700Y-20718D02*
X34000Y-20718D01*
X31220Y-19833D02*
X31520Y-19833D01*
X31370Y-19683D02*
X31370Y-19983D01*
X31670Y-20076D02*
X31914Y-20076D01*
X31782Y-19926D01*
X31839Y-19926D01*
X31876Y-19908D01*
X31895Y-19889D01*
X31914Y-19851D01*
X31914Y-19758D01*
X31895Y-19720D01*
X31876Y-19701D01*
X31839Y-19683D01*
X31726Y-19683D01*
X31689Y-19701D01*
X31670Y-19720D01*
X32082Y-19720D02*
X32101Y-19701D01*
X32082Y-19683D01*
X32064Y-19701D01*
X32082Y-19720D01*
X32082Y-19683D01*
X32232Y-20076D02*
X32476Y-20076D01*
X32345Y-19926D01*
X32401Y-19926D01*
X32439Y-19908D01*
X32457Y-19889D01*
X32476Y-19851D01*
X32476Y-19758D01*
X32457Y-19720D01*
X32439Y-19701D01*
X32401Y-19683D01*
X32289Y-19683D01*
X32251Y-19701D01*
X32232Y-19720D01*
X32589Y-20076D02*
X32720Y-19683D01*
X32851Y-20076D01*
X27997Y-20706D02*
X28128Y-20313D01*
X28260Y-20706D01*
X28391Y-20313D02*
X28391Y-20575D01*
X28391Y-20706D02*
X28372Y-20688D01*
X28391Y-20669D01*
X28410Y-20688D01*
X28391Y-20706D01*
X28391Y-20669D01*
X28578Y-20313D02*
X28578Y-20706D01*
X28578Y-20556D02*
X28616Y-20575D01*
X28691Y-20575D01*
X28728Y-20556D01*
X28747Y-20538D01*
X28766Y-20500D01*
X28766Y-20388D01*
X28747Y-20350D01*
X28728Y-20331D01*
X28691Y-20313D01*
X28616Y-20313D01*
X28578Y-20331D01*
X28935Y-20313D02*
X28935Y-20575D01*
X28935Y-20500D02*
X28953Y-20538D01*
X28972Y-20556D01*
X29010Y-20575D01*
X29047Y-20575D01*
X29235Y-20313D02*
X29197Y-20331D01*
X29178Y-20350D01*
X29160Y-20388D01*
X29160Y-20500D01*
X29178Y-20538D01*
X29197Y-20556D01*
X29235Y-20575D01*
X29291Y-20575D01*
X29328Y-20556D01*
X29347Y-20538D01*
X29366Y-20500D01*
X29366Y-20388D01*
X29347Y-20350D01*
X29328Y-20331D01*
X29291Y-20313D01*
X29235Y-20313D01*
X27838Y-19663D02*
X27613Y-19663D01*
X27725Y-19663D02*
X27725Y-20057D01*
X27688Y-20000D01*
X27650Y-19963D01*
X27613Y-19944D01*
X28588Y-20019D02*
X28607Y-20038D01*
X28644Y-20057D01*
X28738Y-20057D01*
X28775Y-20038D01*
X28794Y-20019D01*
X28813Y-19982D01*
X28813Y-19944D01*
X28794Y-19888D01*
X28569Y-19663D01*
X28813Y-19663D01*
X29544Y-20057D02*
X29788Y-20057D01*
X29656Y-19907D01*
X29713Y-19907D01*
X29750Y-19888D01*
X29769Y-19869D01*
X29788Y-19832D01*
X29788Y-19738D01*
X29769Y-19700D01*
X29750Y-19682D01*
X29713Y-19663D01*
X29600Y-19663D01*
X29563Y-19682D01*
X29544Y-19700D01*
X29390Y-26409D02*
X29334Y-26428D01*
X29315Y-26447D01*
X29296Y-26484D01*
X29296Y-26541D01*
X29315Y-26578D01*
X29334Y-26597D01*
X29371Y-26616D01*
X29521Y-26616D01*
X29521Y-26222D01*
X29390Y-26222D01*
X29353Y-26241D01*
X29334Y-26259D01*
X29315Y-26297D01*
X29315Y-26334D01*
X29334Y-26372D01*
X29353Y-26391D01*
X29390Y-26409D01*
X29521Y-26409D01*
X28322Y-26241D02*
X28359Y-26222D01*
X28415Y-26222D01*
X28472Y-26241D01*
X28509Y-26278D01*
X28528Y-26316D01*
X28547Y-26391D01*
X28547Y-26447D01*
X28528Y-26522D01*
X28509Y-26559D01*
X28472Y-26597D01*
X28415Y-26616D01*
X28378Y-26616D01*
X28322Y-26597D01*
X28303Y-26578D01*
X28303Y-26447D01*
X28378Y-26447D01*
X27309Y-26616D02*
X27440Y-26428D01*
X27534Y-26616D02*
X27534Y-26222D01*
X27384Y-26222D01*
X27347Y-26241D01*
X27328Y-26259D01*
X27309Y-26297D01*
X27309Y-26353D01*
X27328Y-26391D01*
X27347Y-26409D01*
X27384Y-26428D01*
X27534Y-26428D01*
X32845Y-26597D02*
X32789Y-26616D01*
X32695Y-26616D01*
X32658Y-26597D01*
X32639Y-26578D01*
X32620Y-26541D01*
X32620Y-26503D01*
X32639Y-26466D01*
X32658Y-26447D01*
X32695Y-26428D01*
X32770Y-26409D01*
X32808Y-26391D01*
X32827Y-26372D01*
X32845Y-26334D01*
X32845Y-26297D01*
X32827Y-26259D01*
X32808Y-26241D01*
X32770Y-26222D01*
X32677Y-26222D01*
X32620Y-26241D01*
X32489Y-26222D02*
X32245Y-26222D01*
X32377Y-26372D01*
X32320Y-26372D01*
X32283Y-26391D01*
X32264Y-26409D01*
X32245Y-26447D01*
X32245Y-26541D01*
X32264Y-26578D01*
X32283Y-26597D01*
X32320Y-26616D01*
X32433Y-26616D01*
X32470Y-26597D01*
X32489Y-26578D01*
X31796Y-26597D02*
X31739Y-26616D01*
X31646Y-26616D01*
X31608Y-26597D01*
X31589Y-26578D01*
X31571Y-26541D01*
X31571Y-26503D01*
X31589Y-26466D01*
X31608Y-26447D01*
X31646Y-26428D01*
X31721Y-26409D01*
X31758Y-26391D01*
X31777Y-26372D01*
X31796Y-26334D01*
X31796Y-26297D01*
X31777Y-26259D01*
X31758Y-26241D01*
X31721Y-26222D01*
X31627Y-26222D01*
X31571Y-26241D01*
X31421Y-26259D02*
X31402Y-26241D01*
X31364Y-26222D01*
X31271Y-26222D01*
X31233Y-26241D01*
X31214Y-26259D01*
X31196Y-26297D01*
X31196Y-26334D01*
X31214Y-26391D01*
X31439Y-26616D01*
X31196Y-26616D01*
X30746Y-26597D02*
X30689Y-26616D01*
X30596Y-26616D01*
X30558Y-26597D01*
X30539Y-26578D01*
X30521Y-26541D01*
X30521Y-26503D01*
X30539Y-26466D01*
X30558Y-26447D01*
X30596Y-26428D01*
X30671Y-26409D01*
X30708Y-26391D01*
X30727Y-26372D01*
X30746Y-26334D01*
X30746Y-26297D01*
X30727Y-26259D01*
X30708Y-26241D01*
X30671Y-26222D01*
X30577Y-26222D01*
X30521Y-26241D01*
X30146Y-26616D02*
X30371Y-26616D01*
X30258Y-26616D02*
X30258Y-26222D01*
X30296Y-26278D01*
X30333Y-26316D01*
X30371Y-26334D01*
X34827Y-26241D02*
X34865Y-26222D01*
X34921Y-26222D01*
X34977Y-26241D01*
X35014Y-26278D01*
X35033Y-26316D01*
X35052Y-26391D01*
X35052Y-26447D01*
X35033Y-26522D01*
X35014Y-26559D01*
X34977Y-26597D01*
X34921Y-26616D01*
X34883Y-26616D01*
X34827Y-26597D01*
X34808Y-26578D01*
X34808Y-26447D01*
X34883Y-26447D01*
X34640Y-26616D02*
X34640Y-26222D01*
X34415Y-26616D01*
X34415Y-26222D01*
X34227Y-26616D02*
X34227Y-26222D01*
X34133Y-26222D01*
X34077Y-26241D01*
X34040Y-26278D01*
X34021Y-26316D01*
X34002Y-26391D01*
X34002Y-26447D01*
X34021Y-26522D01*
X34040Y-26559D01*
X34077Y-26597D01*
X34133Y-26616D01*
X34227Y-26616D01*
G54D13*
X35012Y-21092D02*
X35012Y-19892D01*
X35012Y-19892D02*
X34712Y-19892D01*
X34712Y-19892D02*
X34712Y-21092D01*
X34712Y-21092D02*
X35012Y-21092D01*
G54D14*
X33481Y-23317D02*
X33481Y-22117D01*
X33481Y-22117D02*
X36281Y-22117D01*
X36281Y-22117D02*
X36281Y-23317D01*
X33481Y-24517D02*
X33481Y-24817D01*
X33481Y-24817D02*
X34081Y-25717D01*
X34081Y-25717D02*
X35681Y-25717D01*
X35681Y-25717D02*
X36281Y-24817D01*
X36281Y-24817D02*
X36281Y-24517D01*
G54D15*
X35542Y-21815D02*
G75*
G03X35542Y-21815I-50J0D01*
G74*
G01*
X35042Y-21815D02*
X35442Y-21815D01*
X35442Y-21815D02*
X35442Y-21215D01*
X35442Y-21215D02*
X35042Y-21215D01*
X34642Y-21215D02*
X34242Y-21215D01*
X34242Y-21215D02*
X34242Y-21815D01*
X34242Y-21815D02*
X34642Y-21815D01*
G54D16*
X40070Y-18271D02*
X36070Y-18271D01*
X36070Y-18271D02*
X36070Y-20271D01*
X36070Y-20271D02*
X40070Y-20271D01*
X40070Y-20271D02*
X40070Y-18271D01*
X36129Y-28283D02*
X40129Y-28283D01*
X40129Y-28283D02*
X40129Y-26283D01*
X40129Y-26283D02*
X36129Y-26283D01*
X36129Y-26283D02*
X36129Y-28283D01*
G54D17*
X43767Y-28299D02*
X43767Y-24299D01*
X42767Y-28299D02*
X42767Y-24299D01*
X42767Y-24299D02*
X43767Y-24299D01*
X43767Y-28299D02*
X42767Y-28299D01*
X43393Y-24165D02*
X43393Y-20165D01*
X42393Y-24165D02*
X42393Y-20165D01*
X42393Y-20165D02*
X43393Y-20165D01*
X43393Y-24165D02*
X42393Y-24165D01*
G54D18*
X30507Y-18555D02*
X30507Y-19555D01*
X30507Y-19555D02*
X33507Y-19555D01*
X33507Y-19555D02*
X33507Y-18555D01*
X33507Y-18555D02*
X30507Y-18555D01*
X31507Y-19555D02*
X31507Y-18555D01*
X36066Y-27744D02*
X36066Y-26744D01*
X36066Y-26744D02*
X33066Y-26744D01*
X33066Y-26744D02*
X33066Y-27744D01*
X33066Y-27744D02*
X36066Y-27744D01*
X35066Y-26744D02*
X35066Y-27744D01*
X26885Y-26744D02*
X26885Y-27744D01*
X26885Y-27744D02*
X29885Y-27744D01*
X29885Y-27744D02*
X29885Y-26744D01*
X29885Y-26744D02*
X26885Y-26744D01*
X27885Y-27744D02*
X27885Y-26744D01*
X27181Y-18555D02*
X27181Y-19555D01*
X27181Y-19555D02*
X30181Y-19555D01*
X30181Y-19555D02*
X30181Y-18555D01*
X30181Y-18555D02*
X27181Y-18555D01*
X28181Y-19555D02*
X28181Y-18555D01*
X29976Y-26744D02*
X29976Y-27744D01*
X29976Y-27744D02*
X32976Y-27744D01*
X32976Y-27744D02*
X32976Y-26744D01*
X32976Y-26744D02*
X29976Y-26744D01*
X30976Y-27744D02*
X30976Y-26744D01*
X35862Y-19555D02*
X35862Y-18555D01*
X35862Y-18555D02*
X33862Y-18555D01*
X33862Y-18555D02*
X33862Y-19555D01*
X33862Y-19555D02*
X35862Y-19555D01*
G54D10*
X42283Y-28307D02*
X42283Y-18228D01*
X42283Y-18228D02*
X40236Y-18228D01*
X40236Y-18228D02*
X40236Y-28307D01*
X40236Y-28307D02*
X42283Y-28307D01*
X24763Y-18228D02*
X24763Y-28307D01*
X24763Y-28307D02*
X26811Y-28307D01*
X26811Y-28307D02*
X26811Y-18228D01*
X26811Y-18228D02*
X24763Y-18228D01*
M02*
