G04 (created by PCBNEW (2013-may-18)-stable) date Сб 14 ноя 2015 13:08:16*
%MOIN*%
G04 Gerber Fmt 3.4, Leading zero omitted, Abs format*
%FSLAX34Y34*%
G01*
G70*
G90*
G04 APERTURE LIST*
%ADD10C,0.00590551*%
%ADD11C,0.00984252*%
%ADD12C,0.012*%
%ADD13C,0.01*%
%ADD14C,0.006*%
%ADD15C,0.008*%
G04 APERTURE END LIST*
G54D10*
G54D11*
X29688Y-21891D02*
X29707Y-21872D01*
X29726Y-21816D01*
X29726Y-21779D01*
X29707Y-21722D01*
X29670Y-21685D01*
X29632Y-21666D01*
X29557Y-21647D01*
X29501Y-21647D01*
X29426Y-21666D01*
X29388Y-21685D01*
X29351Y-21722D01*
X29332Y-21779D01*
X29332Y-21816D01*
X29351Y-21872D01*
X29370Y-21891D01*
X29726Y-22229D02*
X29520Y-22229D01*
X29482Y-22210D01*
X29463Y-22172D01*
X29463Y-22097D01*
X29482Y-22060D01*
X29707Y-22229D02*
X29726Y-22191D01*
X29726Y-22097D01*
X29707Y-22060D01*
X29670Y-22041D01*
X29632Y-22041D01*
X29595Y-22060D01*
X29576Y-22097D01*
X29576Y-22191D01*
X29557Y-22229D01*
X29463Y-22585D02*
X29726Y-22585D01*
X29463Y-22416D02*
X29670Y-22416D01*
X29707Y-22435D01*
X29726Y-22472D01*
X29726Y-22529D01*
X29707Y-22566D01*
X29688Y-22585D01*
X29707Y-22754D02*
X29726Y-22791D01*
X29726Y-22866D01*
X29707Y-22904D01*
X29670Y-22922D01*
X29651Y-22922D01*
X29613Y-22904D01*
X29595Y-22866D01*
X29595Y-22810D01*
X29576Y-22772D01*
X29538Y-22754D01*
X29520Y-22754D01*
X29482Y-22772D01*
X29463Y-22810D01*
X29463Y-22866D01*
X29482Y-22904D01*
X29463Y-23035D02*
X29463Y-23185D01*
X29332Y-23091D02*
X29670Y-23091D01*
X29707Y-23110D01*
X29726Y-23147D01*
X29726Y-23185D01*
X29726Y-23316D02*
X29463Y-23316D01*
X29332Y-23316D02*
X29351Y-23297D01*
X29370Y-23316D01*
X29351Y-23335D01*
X29332Y-23316D01*
X29370Y-23316D01*
X29707Y-23672D02*
X29726Y-23635D01*
X29726Y-23560D01*
X29707Y-23522D01*
X29688Y-23503D01*
X29651Y-23485D01*
X29538Y-23485D01*
X29501Y-23503D01*
X29482Y-23522D01*
X29463Y-23560D01*
X29463Y-23635D01*
X29482Y-23672D01*
X29726Y-24328D02*
X29726Y-24141D01*
X29332Y-24141D01*
X29332Y-24403D02*
X29332Y-24628D01*
X29726Y-24516D02*
X29332Y-24516D01*
X29707Y-24741D02*
X29726Y-24797D01*
X29726Y-24891D01*
X29707Y-24928D01*
X29688Y-24947D01*
X29651Y-24966D01*
X29613Y-24966D01*
X29576Y-24947D01*
X29557Y-24928D01*
X29538Y-24891D01*
X29520Y-24816D01*
X29501Y-24778D01*
X29482Y-24760D01*
X29445Y-24741D01*
X29407Y-24741D01*
X29370Y-24760D01*
X29351Y-24778D01*
X29332Y-24816D01*
X29332Y-24910D01*
X29351Y-24966D01*
X30375Y-21432D02*
X29982Y-21432D01*
X30375Y-21601D02*
X30169Y-21601D01*
X30132Y-21582D01*
X30113Y-21544D01*
X30113Y-21488D01*
X30132Y-21451D01*
X30150Y-21432D01*
X30357Y-21938D02*
X30375Y-21901D01*
X30375Y-21826D01*
X30357Y-21788D01*
X30319Y-21769D01*
X30169Y-21769D01*
X30132Y-21788D01*
X30113Y-21826D01*
X30113Y-21901D01*
X30132Y-21938D01*
X30169Y-21957D01*
X30207Y-21957D01*
X30244Y-21769D01*
X30375Y-22294D02*
X30169Y-22294D01*
X30132Y-22275D01*
X30113Y-22238D01*
X30113Y-22163D01*
X30132Y-22125D01*
X30357Y-22294D02*
X30375Y-22257D01*
X30375Y-22163D01*
X30357Y-22125D01*
X30319Y-22107D01*
X30282Y-22107D01*
X30244Y-22125D01*
X30225Y-22163D01*
X30225Y-22257D01*
X30207Y-22294D01*
X30375Y-22650D02*
X29982Y-22650D01*
X30357Y-22650D02*
X30375Y-22613D01*
X30375Y-22538D01*
X30357Y-22500D01*
X30338Y-22482D01*
X30300Y-22463D01*
X30188Y-22463D01*
X30150Y-22482D01*
X30132Y-22500D01*
X30113Y-22538D01*
X30113Y-22613D01*
X30132Y-22650D01*
X30357Y-23119D02*
X30375Y-23157D01*
X30375Y-23232D01*
X30357Y-23269D01*
X30319Y-23288D01*
X30300Y-23288D01*
X30263Y-23269D01*
X30244Y-23232D01*
X30244Y-23175D01*
X30225Y-23138D01*
X30188Y-23119D01*
X30169Y-23119D01*
X30132Y-23138D01*
X30113Y-23175D01*
X30113Y-23232D01*
X30132Y-23269D01*
X30357Y-23607D02*
X30375Y-23569D01*
X30375Y-23494D01*
X30357Y-23457D01*
X30319Y-23438D01*
X30169Y-23438D01*
X30132Y-23457D01*
X30113Y-23494D01*
X30113Y-23569D01*
X30132Y-23607D01*
X30169Y-23625D01*
X30207Y-23625D01*
X30244Y-23438D01*
X30113Y-23794D02*
X30375Y-23794D01*
X30150Y-23794D02*
X30132Y-23813D01*
X30113Y-23850D01*
X30113Y-23907D01*
X30132Y-23944D01*
X30169Y-23963D01*
X30375Y-23963D01*
X30357Y-24131D02*
X30375Y-24169D01*
X30375Y-24244D01*
X30357Y-24281D01*
X30319Y-24300D01*
X30300Y-24300D01*
X30263Y-24281D01*
X30244Y-24244D01*
X30244Y-24188D01*
X30225Y-24150D01*
X30188Y-24131D01*
X30169Y-24131D01*
X30132Y-24150D01*
X30113Y-24188D01*
X30113Y-24244D01*
X30132Y-24281D01*
X30375Y-24525D02*
X30357Y-24488D01*
X30338Y-24469D01*
X30300Y-24450D01*
X30188Y-24450D01*
X30150Y-24469D01*
X30132Y-24488D01*
X30113Y-24525D01*
X30113Y-24581D01*
X30132Y-24619D01*
X30150Y-24638D01*
X30188Y-24656D01*
X30300Y-24656D01*
X30338Y-24638D01*
X30357Y-24619D01*
X30375Y-24581D01*
X30375Y-24525D01*
X30375Y-24825D02*
X30113Y-24825D01*
X30188Y-24825D02*
X30150Y-24844D01*
X30132Y-24863D01*
X30113Y-24900D01*
X30113Y-24938D01*
X31006Y-20738D02*
X31025Y-20776D01*
X31025Y-20851D01*
X31006Y-20888D01*
X30969Y-20907D01*
X30950Y-20907D01*
X30913Y-20888D01*
X30894Y-20851D01*
X30894Y-20794D01*
X30875Y-20757D01*
X30838Y-20738D01*
X30819Y-20738D01*
X30781Y-20757D01*
X30763Y-20794D01*
X30763Y-20851D01*
X30781Y-20888D01*
X31025Y-21076D02*
X30631Y-21076D01*
X31025Y-21244D02*
X30819Y-21244D01*
X30781Y-21226D01*
X30763Y-21188D01*
X30763Y-21132D01*
X30781Y-21094D01*
X30800Y-21076D01*
X31025Y-21432D02*
X30763Y-21432D01*
X30631Y-21432D02*
X30650Y-21413D01*
X30669Y-21432D01*
X30650Y-21451D01*
X30631Y-21432D01*
X30669Y-21432D01*
X31006Y-21769D02*
X31025Y-21732D01*
X31025Y-21657D01*
X31006Y-21619D01*
X30969Y-21601D01*
X30819Y-21601D01*
X30781Y-21619D01*
X30763Y-21657D01*
X30763Y-21732D01*
X30781Y-21769D01*
X30819Y-21788D01*
X30856Y-21788D01*
X30894Y-21601D01*
X31025Y-22013D02*
X31006Y-21976D01*
X30969Y-21957D01*
X30631Y-21957D01*
X31025Y-22332D02*
X30631Y-22332D01*
X31006Y-22332D02*
X31025Y-22294D01*
X31025Y-22219D01*
X31006Y-22182D01*
X30988Y-22163D01*
X30950Y-22144D01*
X30838Y-22144D01*
X30800Y-22163D01*
X30781Y-22182D01*
X30763Y-22219D01*
X30763Y-22294D01*
X30781Y-22332D01*
X30763Y-22782D02*
X31025Y-22875D01*
X30763Y-22969D01*
X30669Y-23100D02*
X30650Y-23119D01*
X30631Y-23157D01*
X30631Y-23250D01*
X30650Y-23288D01*
X30669Y-23307D01*
X30706Y-23325D01*
X30744Y-23325D01*
X30800Y-23307D01*
X31025Y-23082D01*
X31025Y-23325D01*
X30669Y-23775D02*
X30650Y-23794D01*
X30631Y-23832D01*
X30631Y-23925D01*
X30650Y-23963D01*
X30669Y-23982D01*
X30706Y-24000D01*
X30744Y-24000D01*
X30800Y-23982D01*
X31025Y-23757D01*
X31025Y-24000D01*
X30763Y-24131D02*
X30763Y-24338D01*
X31025Y-24131D01*
X31025Y-24338D01*
X31025Y-24788D02*
X30763Y-24788D01*
X30838Y-24788D02*
X30800Y-24806D01*
X30781Y-24825D01*
X30763Y-24863D01*
X30763Y-24900D01*
X31006Y-25181D02*
X31025Y-25144D01*
X31025Y-25069D01*
X31006Y-25031D01*
X30969Y-25013D01*
X30819Y-25013D01*
X30781Y-25031D01*
X30763Y-25069D01*
X30763Y-25144D01*
X30781Y-25181D01*
X30819Y-25200D01*
X30856Y-25200D01*
X30894Y-25013D01*
X30763Y-25331D02*
X31025Y-25425D01*
X30763Y-25519D01*
X31025Y-25875D02*
X31025Y-25650D01*
X31025Y-25763D02*
X30631Y-25763D01*
X30688Y-25725D01*
X30725Y-25688D01*
X30744Y-25650D01*
X32866Y-19182D02*
X32566Y-19182D01*
X35976Y-19182D02*
X35676Y-19182D01*
X35826Y-19332D02*
X35826Y-19032D01*
G54D12*
X32106Y-18291D02*
X27106Y-18291D01*
X27106Y-18291D02*
X27106Y-20291D01*
X27106Y-20291D02*
X32106Y-20291D01*
X32106Y-20291D02*
X32106Y-18291D01*
X27185Y-28283D02*
X32185Y-28283D01*
X32185Y-28283D02*
X32185Y-26283D01*
X32185Y-26283D02*
X27185Y-26283D01*
X27185Y-26283D02*
X27185Y-28283D01*
X36425Y-28244D02*
X40425Y-28244D01*
X40425Y-28244D02*
X40425Y-26244D01*
X40425Y-26244D02*
X36425Y-26244D01*
X36425Y-26244D02*
X36425Y-28244D01*
X40425Y-18291D02*
X36425Y-18291D01*
X36425Y-18291D02*
X36425Y-20291D01*
X36425Y-20291D02*
X40425Y-20291D01*
X40425Y-20291D02*
X40425Y-18291D01*
G54D13*
X44161Y-22748D02*
X44161Y-18748D01*
X43161Y-22748D02*
X43161Y-18748D01*
X43161Y-18748D02*
X44161Y-18748D01*
X44161Y-22748D02*
X43161Y-22748D01*
G54D14*
X33330Y-18673D02*
X33330Y-19673D01*
X33330Y-19673D02*
X35330Y-19673D01*
X35330Y-19673D02*
X35330Y-18673D01*
X35330Y-18673D02*
X33330Y-18673D01*
G54D10*
X42811Y-28307D02*
X42811Y-18228D01*
X42811Y-18228D02*
X40763Y-18228D01*
X40763Y-18228D02*
X40763Y-28307D01*
X40763Y-28307D02*
X42811Y-28307D01*
X24763Y-18228D02*
X24763Y-28307D01*
X24763Y-28307D02*
X26811Y-28307D01*
X26811Y-28307D02*
X26811Y-18228D01*
X26811Y-18228D02*
X24763Y-18228D01*
X33011Y-23248D02*
X33011Y-20413D01*
X33011Y-20413D02*
X33877Y-20413D01*
X33877Y-20413D02*
X33877Y-21397D01*
X33011Y-23248D02*
X33011Y-26082D01*
X33011Y-26082D02*
X33523Y-26082D01*
X33523Y-26082D02*
X33877Y-26082D01*
X33877Y-26082D02*
X33877Y-25098D01*
X38878Y-23248D02*
G75*
G03X38878Y-23248I-2834J0D01*
G74*
G01*
X38523Y-23248D02*
G75*
G03X38523Y-23248I-2480J0D01*
G74*
G01*
G54D13*
X44161Y-27787D02*
X44161Y-23787D01*
X43161Y-27787D02*
X43161Y-23787D01*
X43161Y-23787D02*
X44161Y-23787D01*
X44161Y-27787D02*
X43161Y-27787D01*
G54D15*
X29651Y-17953D02*
X29651Y-17553D01*
X29499Y-17553D01*
X29461Y-17572D01*
X29442Y-17591D01*
X29422Y-17629D01*
X29422Y-17686D01*
X29442Y-17724D01*
X29461Y-17743D01*
X29499Y-17762D01*
X29651Y-17762D01*
X29232Y-17953D02*
X29156Y-17953D01*
X29118Y-17934D01*
X29099Y-17915D01*
X29061Y-17858D01*
X29042Y-17781D01*
X29042Y-17629D01*
X29061Y-17591D01*
X29080Y-17572D01*
X29118Y-17553D01*
X29194Y-17553D01*
X29232Y-17572D01*
X29251Y-17591D01*
X29270Y-17629D01*
X29270Y-17724D01*
X29251Y-17762D01*
X29232Y-17781D01*
X29194Y-17800D01*
X29118Y-17800D01*
X29080Y-17781D01*
X29061Y-17762D01*
X29042Y-17724D01*
X30463Y-20509D02*
X30196Y-20509D01*
X30463Y-20909D01*
X30196Y-20909D01*
X29987Y-20909D02*
X30025Y-20890D01*
X30044Y-20871D01*
X30063Y-20833D01*
X30063Y-20719D01*
X30044Y-20681D01*
X30025Y-20662D01*
X29987Y-20643D01*
X29930Y-20643D01*
X29892Y-20662D01*
X29872Y-20681D01*
X29853Y-20719D01*
X29853Y-20833D01*
X29872Y-20871D01*
X29892Y-20890D01*
X29930Y-20909D01*
X29987Y-20909D01*
X29682Y-20643D02*
X29682Y-20909D01*
X29682Y-20681D02*
X29663Y-20662D01*
X29625Y-20643D01*
X29568Y-20643D01*
X29530Y-20662D01*
X29511Y-20700D01*
X29511Y-20909D01*
X29168Y-20890D02*
X29206Y-20909D01*
X29282Y-20909D01*
X29320Y-20890D01*
X29339Y-20852D01*
X29339Y-20700D01*
X29320Y-20662D01*
X29282Y-20643D01*
X29206Y-20643D01*
X29168Y-20662D01*
X29149Y-20700D01*
X29149Y-20738D01*
X29339Y-20776D01*
X28768Y-20909D02*
X28996Y-20909D01*
X28882Y-20909D02*
X28882Y-20509D01*
X28920Y-20567D01*
X28958Y-20605D01*
X28996Y-20624D01*
X30413Y-29217D02*
X30413Y-28817D01*
X30260Y-28817D01*
X30222Y-28836D01*
X30203Y-28855D01*
X30184Y-28893D01*
X30184Y-28950D01*
X30203Y-28988D01*
X30222Y-29007D01*
X30260Y-29026D01*
X30413Y-29026D01*
X30032Y-28855D02*
X30013Y-28836D01*
X29975Y-28817D01*
X29880Y-28817D01*
X29841Y-28836D01*
X29822Y-28855D01*
X29803Y-28893D01*
X29803Y-28931D01*
X29822Y-28988D01*
X30051Y-29217D01*
X29803Y-29217D01*
X30542Y-25588D02*
X30275Y-25588D01*
X30542Y-25988D01*
X30275Y-25988D01*
X30065Y-25988D02*
X30104Y-25969D01*
X30123Y-25950D01*
X30142Y-25912D01*
X30142Y-25798D01*
X30123Y-25760D01*
X30104Y-25741D01*
X30065Y-25722D01*
X30008Y-25722D01*
X29970Y-25741D01*
X29951Y-25760D01*
X29932Y-25798D01*
X29932Y-25912D01*
X29951Y-25950D01*
X29970Y-25969D01*
X30008Y-25988D01*
X30065Y-25988D01*
X29761Y-25722D02*
X29761Y-25988D01*
X29761Y-25760D02*
X29742Y-25741D01*
X29704Y-25722D01*
X29646Y-25722D01*
X29608Y-25741D01*
X29589Y-25779D01*
X29589Y-25988D01*
X29246Y-25969D02*
X29285Y-25988D01*
X29361Y-25988D01*
X29399Y-25969D01*
X29418Y-25931D01*
X29418Y-25779D01*
X29399Y-25741D01*
X29361Y-25722D01*
X29285Y-25722D01*
X29246Y-25741D01*
X29227Y-25779D01*
X29227Y-25817D01*
X29418Y-25855D01*
X29075Y-25626D02*
X29056Y-25607D01*
X29018Y-25588D01*
X28923Y-25588D01*
X28885Y-25607D01*
X28865Y-25626D01*
X28846Y-25664D01*
X28846Y-25702D01*
X28865Y-25760D01*
X29094Y-25988D01*
X28846Y-25988D01*
X38720Y-28905D02*
X38720Y-28505D01*
X38568Y-28505D01*
X38529Y-28525D01*
X38510Y-28544D01*
X38491Y-28582D01*
X38491Y-28639D01*
X38510Y-28677D01*
X38529Y-28696D01*
X38568Y-28715D01*
X38720Y-28715D01*
X38263Y-28677D02*
X38301Y-28658D01*
X38320Y-28639D01*
X38339Y-28601D01*
X38339Y-28582D01*
X38320Y-28544D01*
X38301Y-28525D01*
X38263Y-28505D01*
X38187Y-28505D01*
X38149Y-28525D01*
X38129Y-28544D01*
X38110Y-28582D01*
X38110Y-28601D01*
X38129Y-28639D01*
X38149Y-28658D01*
X38187Y-28677D01*
X38263Y-28677D01*
X38301Y-28696D01*
X38320Y-28715D01*
X38339Y-28753D01*
X38339Y-28829D01*
X38320Y-28867D01*
X38301Y-28886D01*
X38263Y-28905D01*
X38187Y-28905D01*
X38149Y-28886D01*
X38129Y-28867D01*
X38110Y-28829D01*
X38110Y-28753D01*
X38129Y-28715D01*
X38149Y-28696D01*
X38187Y-28677D01*
X40504Y-26067D02*
X40504Y-25667D01*
X40275Y-26067D01*
X40275Y-25667D01*
X39856Y-26067D02*
X39989Y-25876D01*
X40084Y-26067D02*
X40084Y-25667D01*
X39932Y-25667D01*
X39894Y-25686D01*
X39875Y-25705D01*
X39856Y-25743D01*
X39856Y-25800D01*
X39875Y-25838D01*
X39894Y-25857D01*
X39932Y-25876D01*
X40084Y-25876D01*
X39551Y-25857D02*
X39684Y-25857D01*
X39684Y-26067D02*
X39684Y-25667D01*
X39494Y-25667D01*
X39361Y-25705D02*
X39342Y-25686D01*
X39304Y-25667D01*
X39208Y-25667D01*
X39170Y-25686D01*
X39151Y-25705D01*
X39132Y-25743D01*
X39132Y-25781D01*
X39151Y-25838D01*
X39380Y-26067D01*
X39132Y-26067D01*
X38789Y-25800D02*
X38789Y-26067D01*
X38884Y-25648D02*
X38980Y-25934D01*
X38732Y-25934D01*
X38389Y-26067D02*
X38580Y-26067D01*
X38580Y-25667D01*
X38180Y-25667D02*
X38142Y-25667D01*
X38104Y-25686D01*
X38084Y-25705D01*
X38065Y-25743D01*
X38046Y-25819D01*
X38046Y-25915D01*
X38065Y-25991D01*
X38084Y-26029D01*
X38104Y-26048D01*
X38142Y-26067D01*
X38180Y-26067D01*
X38218Y-26048D01*
X38237Y-26029D01*
X38256Y-25991D01*
X38275Y-25915D01*
X38275Y-25819D01*
X38256Y-25743D01*
X38237Y-25705D01*
X38218Y-25686D01*
X38180Y-25667D01*
X37665Y-26067D02*
X37894Y-26067D01*
X37780Y-26067D02*
X37780Y-25667D01*
X37818Y-25724D01*
X37856Y-25762D01*
X37894Y-25781D01*
X38720Y-17953D02*
X38720Y-17553D01*
X38568Y-17553D01*
X38529Y-17572D01*
X38510Y-17591D01*
X38491Y-17629D01*
X38491Y-17686D01*
X38510Y-17724D01*
X38529Y-17743D01*
X38568Y-17762D01*
X38720Y-17762D01*
X38358Y-17553D02*
X38091Y-17553D01*
X38263Y-17953D01*
X38768Y-20953D02*
X38901Y-20762D01*
X38996Y-20953D02*
X38996Y-20553D01*
X38844Y-20553D01*
X38806Y-20572D01*
X38787Y-20591D01*
X38768Y-20629D01*
X38768Y-20686D01*
X38787Y-20724D01*
X38806Y-20743D01*
X38844Y-20762D01*
X38996Y-20762D01*
X38463Y-20743D02*
X38596Y-20743D01*
X38596Y-20953D02*
X38596Y-20553D01*
X38406Y-20553D01*
X38253Y-20953D02*
X38253Y-20553D01*
X38063Y-20953D02*
X38063Y-20553D01*
X37968Y-20553D01*
X37910Y-20572D01*
X37872Y-20610D01*
X37853Y-20648D01*
X37834Y-20724D01*
X37834Y-20781D01*
X37853Y-20858D01*
X37872Y-20896D01*
X37910Y-20934D01*
X37968Y-20953D01*
X38063Y-20953D01*
X46657Y-21515D02*
X46257Y-21515D01*
X46257Y-21668D01*
X46277Y-21706D01*
X46296Y-21725D01*
X46334Y-21744D01*
X46391Y-21744D01*
X46429Y-21725D01*
X46448Y-21706D01*
X46467Y-21668D01*
X46467Y-21515D01*
X46391Y-22087D02*
X46657Y-22087D01*
X46238Y-21991D02*
X46524Y-21896D01*
X46524Y-22144D01*
X42793Y-19880D02*
X43117Y-19880D01*
X43155Y-19899D01*
X43174Y-19918D01*
X43193Y-19956D01*
X43193Y-20032D01*
X43174Y-20070D01*
X43155Y-20089D01*
X43117Y-20108D01*
X42793Y-20108D01*
X43079Y-20280D02*
X43079Y-20470D01*
X43193Y-20241D02*
X42793Y-20375D01*
X43193Y-20508D01*
X43193Y-20870D02*
X43002Y-20737D01*
X43193Y-20641D02*
X42793Y-20641D01*
X42793Y-20794D01*
X42812Y-20832D01*
X42831Y-20851D01*
X42869Y-20870D01*
X42926Y-20870D01*
X42964Y-20851D01*
X42983Y-20832D01*
X43002Y-20794D01*
X43002Y-20641D01*
X42793Y-20984D02*
X42793Y-21213D01*
X43193Y-21099D02*
X42793Y-21099D01*
X43193Y-21556D02*
X43193Y-21327D01*
X43193Y-21441D02*
X42793Y-21441D01*
X42850Y-21403D01*
X42888Y-21365D01*
X42907Y-21327D01*
G54D14*
X34552Y-18507D02*
X34552Y-18207D01*
X34437Y-18207D01*
X34409Y-18221D01*
X34394Y-18235D01*
X34380Y-18264D01*
X34380Y-18307D01*
X34394Y-18335D01*
X34409Y-18350D01*
X34437Y-18364D01*
X34552Y-18364D01*
X34094Y-18507D02*
X34266Y-18507D01*
X34180Y-18507D02*
X34180Y-18207D01*
X34209Y-18250D01*
X34237Y-18278D01*
X34266Y-18292D01*
X35244Y-20044D02*
X35244Y-19744D01*
X35130Y-19744D01*
X35102Y-19758D01*
X35087Y-19773D01*
X35073Y-19801D01*
X35073Y-19844D01*
X35087Y-19873D01*
X35102Y-19887D01*
X35130Y-19901D01*
X35244Y-19901D01*
X34902Y-20044D02*
X34930Y-20030D01*
X34944Y-20016D01*
X34959Y-19987D01*
X34959Y-19901D01*
X34944Y-19873D01*
X34930Y-19858D01*
X34902Y-19844D01*
X34859Y-19844D01*
X34830Y-19858D01*
X34816Y-19873D01*
X34802Y-19901D01*
X34802Y-19987D01*
X34816Y-20016D01*
X34830Y-20030D01*
X34859Y-20044D01*
X34902Y-20044D01*
X34702Y-19844D02*
X34644Y-20044D01*
X34587Y-19901D01*
X34530Y-20044D01*
X34473Y-19844D01*
X34244Y-20030D02*
X34273Y-20044D01*
X34330Y-20044D01*
X34359Y-20030D01*
X34373Y-20001D01*
X34373Y-19887D01*
X34359Y-19858D01*
X34330Y-19844D01*
X34273Y-19844D01*
X34244Y-19858D01*
X34230Y-19887D01*
X34230Y-19916D01*
X34373Y-19944D01*
X34102Y-20044D02*
X34102Y-19844D01*
X34102Y-19901D02*
X34087Y-19873D01*
X34073Y-19858D01*
X34044Y-19844D01*
X34016Y-19844D01*
X33987Y-20073D02*
X33759Y-20073D01*
X33687Y-20044D02*
X33687Y-19844D01*
X33687Y-19744D02*
X33702Y-19758D01*
X33687Y-19773D01*
X33673Y-19758D01*
X33687Y-19744D01*
X33687Y-19773D01*
X33544Y-19844D02*
X33544Y-20044D01*
X33544Y-19873D02*
X33530Y-19858D01*
X33502Y-19844D01*
X33459Y-19844D01*
X33430Y-19858D01*
X33416Y-19887D01*
X33416Y-20044D01*
G54D13*
X40555Y-24704D02*
X40155Y-24704D01*
X40155Y-24857D01*
X40174Y-24895D01*
X40193Y-24914D01*
X40231Y-24933D01*
X40288Y-24933D01*
X40327Y-24914D01*
X40346Y-24895D01*
X40365Y-24857D01*
X40365Y-24704D01*
X40155Y-25276D02*
X40155Y-25200D01*
X40174Y-25161D01*
X40193Y-25142D01*
X40250Y-25104D01*
X40327Y-25085D01*
X40479Y-25085D01*
X40517Y-25104D01*
X40536Y-25123D01*
X40555Y-25161D01*
X40555Y-25238D01*
X40536Y-25276D01*
X40517Y-25295D01*
X40479Y-25314D01*
X40384Y-25314D01*
X40346Y-25295D01*
X40327Y-25276D01*
X40307Y-25238D01*
X40307Y-25161D01*
X40327Y-25123D01*
X40346Y-25104D01*
X40384Y-25085D01*
G54D15*
X40555Y-20762D02*
X40155Y-20762D01*
X40441Y-20896D01*
X40155Y-21029D01*
X40555Y-21029D01*
X40517Y-21448D02*
X40536Y-21429D01*
X40555Y-21372D01*
X40555Y-21334D01*
X40536Y-21277D01*
X40498Y-21238D01*
X40460Y-21219D01*
X40384Y-21200D01*
X40327Y-21200D01*
X40250Y-21219D01*
X40212Y-21238D01*
X40174Y-21277D01*
X40155Y-21334D01*
X40155Y-21372D01*
X40174Y-21429D01*
X40193Y-21448D01*
X40155Y-21619D02*
X40479Y-21619D01*
X40517Y-21638D01*
X40536Y-21657D01*
X40555Y-21696D01*
X40555Y-21772D01*
X40536Y-21810D01*
X40517Y-21829D01*
X40479Y-21848D01*
X40155Y-21848D01*
X40193Y-22019D02*
X40174Y-22038D01*
X40155Y-22077D01*
X40155Y-22172D01*
X40174Y-22210D01*
X40193Y-22229D01*
X40231Y-22248D01*
X40269Y-22248D01*
X40327Y-22229D01*
X40555Y-22000D01*
X40555Y-22248D01*
G54D13*
X24449Y-22972D02*
X24049Y-22972D01*
X24049Y-23124D01*
X24068Y-23162D01*
X24087Y-23182D01*
X24125Y-23201D01*
X24182Y-23201D01*
X24220Y-23182D01*
X24239Y-23162D01*
X24258Y-23124D01*
X24258Y-22972D01*
X24049Y-23334D02*
X24049Y-23582D01*
X24201Y-23448D01*
X24201Y-23505D01*
X24220Y-23543D01*
X24239Y-23562D01*
X24277Y-23582D01*
X24373Y-23582D01*
X24411Y-23562D01*
X24430Y-23543D01*
X24449Y-23505D01*
X24449Y-23391D01*
X24430Y-23353D01*
X24411Y-23334D01*
G54D15*
X27449Y-22534D02*
X27049Y-22534D01*
X27335Y-22667D01*
X27049Y-22801D01*
X27449Y-22801D01*
X27411Y-23220D02*
X27430Y-23201D01*
X27449Y-23143D01*
X27449Y-23105D01*
X27430Y-23048D01*
X27392Y-23010D01*
X27354Y-22991D01*
X27277Y-22972D01*
X27220Y-22972D01*
X27144Y-22991D01*
X27106Y-23010D01*
X27068Y-23048D01*
X27049Y-23105D01*
X27049Y-23143D01*
X27068Y-23201D01*
X27087Y-23220D01*
X27049Y-23391D02*
X27373Y-23391D01*
X27411Y-23410D01*
X27430Y-23429D01*
X27449Y-23467D01*
X27449Y-23543D01*
X27430Y-23582D01*
X27411Y-23601D01*
X27373Y-23620D01*
X27049Y-23620D01*
X27449Y-24020D02*
X27449Y-23791D01*
X27449Y-23905D02*
X27049Y-23905D01*
X27106Y-23867D01*
X27144Y-23829D01*
X27163Y-23791D01*
G54D10*
X32394Y-24143D02*
X32094Y-24143D01*
X32244Y-24293D02*
X32244Y-23993D01*
X32669Y-24527D02*
X32688Y-24583D01*
X32707Y-24602D01*
X32744Y-24621D01*
X32800Y-24621D01*
X32838Y-24602D01*
X32857Y-24583D01*
X32875Y-24546D01*
X32875Y-24396D01*
X32482Y-24396D01*
X32482Y-24527D01*
X32500Y-24565D01*
X32519Y-24583D01*
X32557Y-24602D01*
X32594Y-24602D01*
X32632Y-24583D01*
X32650Y-24565D01*
X32669Y-24527D01*
X32669Y-24396D01*
X32763Y-24771D02*
X32763Y-24958D01*
X32875Y-24733D02*
X32482Y-24865D01*
X32875Y-24996D01*
X32482Y-25071D02*
X32482Y-25296D01*
X32875Y-25183D02*
X32482Y-25183D01*
X32482Y-25371D02*
X32482Y-25596D01*
X32875Y-25483D02*
X32482Y-25483D01*
X32669Y-25727D02*
X32669Y-25858D01*
X32875Y-25914D02*
X32875Y-25727D01*
X32482Y-25727D01*
X32482Y-25914D01*
X32875Y-26308D02*
X32688Y-26177D01*
X32875Y-26083D02*
X32482Y-26083D01*
X32482Y-26233D01*
X32500Y-26271D01*
X32519Y-26289D01*
X32557Y-26308D01*
X32613Y-26308D01*
X32650Y-26289D01*
X32669Y-26271D01*
X32688Y-26233D01*
X32688Y-26083D01*
X32688Y-26552D02*
X32875Y-26552D01*
X32482Y-26421D02*
X32688Y-26552D01*
X32482Y-26683D01*
G54D15*
X46579Y-25492D02*
X46179Y-25492D01*
X46179Y-25644D01*
X46198Y-25682D01*
X46217Y-25701D01*
X46255Y-25720D01*
X46312Y-25720D01*
X46350Y-25701D01*
X46369Y-25682D01*
X46388Y-25644D01*
X46388Y-25492D01*
X46179Y-26082D02*
X46179Y-25892D01*
X46369Y-25873D01*
X46350Y-25892D01*
X46331Y-25930D01*
X46331Y-26025D01*
X46350Y-26063D01*
X46369Y-26082D01*
X46407Y-26101D01*
X46503Y-26101D01*
X46541Y-26082D01*
X46560Y-26063D01*
X46579Y-26025D01*
X46579Y-25930D01*
X46560Y-25892D01*
X46541Y-25873D01*
X42793Y-24958D02*
X43117Y-24958D01*
X43155Y-24977D01*
X43174Y-24996D01*
X43193Y-25035D01*
X43193Y-25111D01*
X43174Y-25149D01*
X43155Y-25168D01*
X43117Y-25187D01*
X42793Y-25187D01*
X43079Y-25358D02*
X43079Y-25549D01*
X43193Y-25320D02*
X42793Y-25454D01*
X43193Y-25587D01*
X43193Y-25949D02*
X43002Y-25815D01*
X43193Y-25720D02*
X42793Y-25720D01*
X42793Y-25873D01*
X42812Y-25911D01*
X42831Y-25930D01*
X42869Y-25949D01*
X42926Y-25949D01*
X42964Y-25930D01*
X42983Y-25911D01*
X43002Y-25873D01*
X43002Y-25720D01*
X42793Y-26063D02*
X42793Y-26292D01*
X43193Y-26177D02*
X42793Y-26177D01*
X42793Y-26387D02*
X42793Y-26635D01*
X42945Y-26501D01*
X42945Y-26558D01*
X42964Y-26596D01*
X42983Y-26615D01*
X43021Y-26635D01*
X43117Y-26635D01*
X43155Y-26615D01*
X43174Y-26596D01*
X43193Y-26558D01*
X43193Y-26444D01*
X43174Y-26406D01*
X43155Y-26387D01*
M02*
