G04 (created by PCBNEW (2013-may-18)-stable) date Пт 20 фев 2015 21:26:52*
%MOIN*%
G04 Gerber Fmt 3.4, Leading zero omitted, Abs format*
%FSLAX34Y34*%
G01*
G70*
G90*
G04 APERTURE LIST*
%ADD10C,0.00590551*%
%ADD11R,0.06X0.06*%
%ADD12C,0.06*%
%ADD13C,0.034*%
%ADD14C,0.056*%
%ADD15C,0.16*%
%ADD16C,0.0275591*%
%ADD17C,0.011811*%
%ADD18C,0.023622*%
G04 APERTURE END LIST*
G54D10*
G54D11*
X26299Y-30433D03*
G54D12*
X26299Y-29055D03*
X26299Y-27677D03*
G54D11*
X40787Y-30472D03*
G54D12*
X42165Y-30472D03*
X43543Y-30472D03*
G54D11*
X38377Y-38070D03*
G54D12*
X39755Y-38070D03*
G54D11*
X29606Y-30896D03*
G54D12*
X29606Y-32274D03*
G54D11*
X27983Y-22125D03*
G54D12*
X29361Y-22125D03*
G54D11*
X30520Y-34645D03*
G54D12*
X29142Y-34645D03*
G54D11*
X25700Y-25236D03*
G54D12*
X27077Y-25236D03*
G54D11*
X42334Y-35673D03*
G54D12*
X43334Y-35673D03*
X42334Y-34673D03*
X43334Y-34673D03*
X42334Y-33673D03*
X43334Y-33673D03*
X42334Y-32673D03*
X43334Y-32673D03*
G54D11*
X40708Y-35673D03*
G54D12*
X40708Y-34673D03*
X40708Y-33673D03*
X40708Y-32673D03*
G54D11*
X39291Y-31259D03*
X39015Y-22007D03*
X28464Y-29370D03*
X37874Y-29468D03*
X37440Y-23110D03*
G54D12*
X36653Y-23110D03*
X35866Y-23110D03*
X35078Y-23110D03*
X34291Y-23110D03*
X33503Y-23110D03*
X32716Y-23110D03*
X31929Y-23110D03*
X31141Y-23110D03*
G54D11*
X29291Y-37125D03*
G54D12*
X30078Y-37125D03*
X30866Y-37125D03*
X31653Y-37125D03*
X32440Y-37125D03*
X33228Y-37125D03*
G54D11*
X27244Y-32244D03*
G54D12*
X27244Y-33031D03*
X27244Y-33818D03*
X27244Y-34606D03*
G54D11*
X35000Y-37125D03*
G54D12*
X35787Y-37125D03*
X36574Y-37125D03*
G54D13*
X43332Y-28072D03*
X43332Y-24922D03*
G54D14*
X32244Y-32102D03*
X32244Y-30102D03*
G54D11*
X41802Y-38070D03*
G54D12*
X43180Y-38070D03*
G54D11*
X27244Y-36338D03*
G54D12*
X27244Y-37125D03*
X27244Y-37913D03*
X27244Y-38700D03*
G54D15*
X43110Y-22047D03*
X40944Y-22047D03*
G54D16*
X29409Y-35078D03*
X28622Y-35866D03*
X40354Y-36338D03*
X37992Y-34448D03*
X35118Y-25039D03*
X34527Y-25511D03*
X29921Y-27322D03*
X27519Y-26181D03*
X28307Y-26181D03*
X32480Y-37893D03*
X40354Y-24114D03*
X35039Y-33366D03*
X35137Y-31692D03*
X31496Y-34566D03*
X30629Y-33543D03*
X29606Y-21181D03*
X30354Y-22125D03*
X38031Y-38937D03*
X39448Y-35472D03*
X34173Y-28937D03*
X34606Y-27086D03*
X31338Y-26181D03*
X31141Y-27007D03*
X34055Y-25000D03*
X33543Y-30354D03*
X31023Y-31141D03*
X39803Y-27244D03*
X39291Y-35039D03*
X34409Y-34133D03*
X36850Y-34055D03*
X37440Y-31574D03*
X39409Y-29566D03*
X35236Y-29763D03*
X42795Y-30748D03*
X43267Y-31220D03*
X37283Y-29527D03*
X36102Y-28464D03*
X35708Y-26259D03*
X32440Y-33228D03*
X32952Y-33779D03*
X39881Y-24812D03*
X39822Y-33179D03*
X40374Y-25629D03*
X40944Y-25629D03*
X37480Y-32952D03*
X29803Y-32952D03*
X33661Y-35590D03*
X34645Y-35590D03*
X33858Y-35275D03*
X35826Y-35433D03*
X35629Y-35944D03*
X34842Y-35905D03*
X35433Y-36259D03*
X34842Y-36259D03*
X34921Y-29960D03*
X34606Y-29212D03*
X27637Y-27716D03*
X28267Y-27716D03*
X36653Y-28543D03*
X39763Y-28267D03*
X39301Y-32667D03*
X39960Y-35137D03*
X39773Y-27844D03*
X39566Y-32923D03*
X37696Y-25000D03*
X36397Y-29291D03*
X37598Y-34645D03*
X40059Y-34173D03*
X41515Y-34448D03*
X39527Y-29960D03*
X35000Y-30984D03*
X41141Y-29960D03*
X41417Y-31574D03*
G54D17*
X29409Y-35078D02*
X28622Y-35866D01*
X28622Y-35866D02*
X28661Y-35826D01*
X38503Y-36338D02*
X40354Y-36338D01*
X37992Y-35826D02*
X38503Y-36338D01*
X37992Y-34448D02*
X37992Y-35826D01*
X34645Y-25511D02*
X34527Y-25511D01*
X35118Y-25039D02*
X34645Y-25511D01*
G54D18*
X33228Y-37125D02*
X33228Y-36614D01*
X29251Y-29763D02*
X29251Y-27322D01*
X28700Y-30314D02*
X29251Y-29763D01*
X28700Y-33188D02*
X28700Y-30314D01*
X29803Y-34291D02*
X28700Y-33188D01*
X29803Y-35118D02*
X29803Y-34291D01*
X30118Y-35433D02*
X29803Y-35118D01*
X32047Y-35433D02*
X30118Y-35433D01*
X33228Y-36614D02*
X32047Y-35433D01*
X27077Y-25236D02*
X27077Y-26251D01*
X27077Y-26251D02*
X28149Y-27322D01*
X28149Y-27322D02*
X29251Y-27322D01*
X29251Y-27322D02*
X29921Y-27322D01*
X28307Y-26181D02*
X27519Y-26181D01*
X42334Y-35673D02*
X42759Y-35673D01*
X42759Y-35673D02*
X42814Y-35728D01*
G54D17*
X35787Y-37125D02*
X35787Y-36535D01*
X35787Y-37125D02*
X35787Y-37047D01*
X35787Y-37047D02*
X35433Y-36692D01*
X39409Y-29566D02*
X38976Y-30000D01*
X38976Y-30000D02*
X35472Y-30000D01*
X35472Y-30000D02*
X35236Y-29763D01*
X43267Y-31220D02*
X42795Y-30748D01*
X37992Y-23661D02*
X37992Y-23188D01*
X37283Y-29527D02*
X37362Y-29448D01*
X37362Y-29448D02*
X37362Y-28622D01*
X37362Y-28622D02*
X37992Y-27992D01*
X37992Y-27992D02*
X37992Y-23661D01*
X37913Y-23110D02*
X37440Y-23110D01*
X37992Y-23188D02*
X37913Y-23110D01*
X35078Y-23622D02*
X35078Y-23110D01*
X35433Y-23976D02*
X35078Y-23622D01*
X35433Y-27795D02*
X35433Y-23976D01*
X36102Y-28464D02*
X35433Y-27795D01*
X35866Y-26102D02*
X35866Y-23110D01*
X35708Y-26259D02*
X35866Y-26102D01*
X32440Y-33267D02*
X32440Y-33228D01*
X32952Y-33779D02*
X32440Y-33267D01*
X39881Y-25610D02*
X39881Y-24812D01*
X40228Y-25956D02*
X39881Y-25610D01*
X40228Y-32773D02*
X40228Y-25956D01*
X39822Y-33179D02*
X40228Y-32773D01*
X40944Y-25629D02*
X40374Y-25629D01*
X37480Y-32952D02*
X29803Y-32952D01*
X34645Y-35590D02*
X33661Y-35590D01*
X33858Y-35275D02*
X35669Y-35275D01*
X35826Y-35433D02*
X35669Y-35275D01*
X34881Y-35944D02*
X35629Y-35944D01*
X34842Y-35905D02*
X34881Y-35944D01*
X34842Y-36259D02*
X35433Y-36259D01*
X34921Y-29960D02*
X34606Y-29645D01*
X34606Y-29645D02*
X34606Y-29212D01*
X28267Y-27716D02*
X27637Y-27716D01*
X36653Y-28543D02*
X36653Y-23110D01*
X39832Y-28336D02*
X39763Y-28267D01*
X39832Y-32135D02*
X39832Y-28336D01*
X39301Y-32667D02*
X39832Y-32135D01*
X42830Y-35177D02*
X43334Y-34673D01*
X40000Y-35177D02*
X42830Y-35177D01*
X39960Y-35137D02*
X40000Y-35177D01*
X40039Y-28110D02*
X39773Y-27844D01*
X40039Y-32450D02*
X40039Y-28110D01*
X39566Y-32923D02*
X40039Y-32450D01*
X37696Y-27992D02*
X37696Y-25000D01*
X36397Y-29291D02*
X37696Y-27992D01*
X37204Y-37204D02*
X36850Y-37559D01*
X36850Y-37559D02*
X32874Y-37559D01*
X32874Y-37559D02*
X32440Y-37125D01*
X37244Y-37204D02*
X37204Y-37204D01*
X37598Y-36850D02*
X37244Y-37204D01*
X37598Y-36771D02*
X37598Y-36850D01*
X37598Y-36732D02*
X37598Y-36771D01*
X37598Y-35984D02*
X37598Y-36732D01*
X37598Y-34645D02*
X37598Y-35984D01*
X41736Y-32673D02*
X42334Y-32673D01*
X41240Y-33169D02*
X41736Y-32673D01*
X41240Y-34015D02*
X41240Y-33169D01*
X41082Y-34173D02*
X41240Y-34015D01*
X40059Y-34173D02*
X41082Y-34173D01*
X42291Y-33673D02*
X42334Y-33673D01*
X41515Y-34448D02*
X42291Y-33673D01*
X39527Y-29960D02*
X38503Y-30984D01*
X38503Y-30984D02*
X35000Y-30984D01*
X41259Y-29960D02*
X41141Y-29960D01*
X41417Y-30118D02*
X41259Y-29960D01*
X41417Y-30275D02*
X41417Y-30118D01*
X41417Y-31574D02*
X41417Y-30275D01*
G54D10*
G36*
X44214Y-39490D02*
X44056Y-39490D01*
X44056Y-21859D01*
X43912Y-21512D01*
X43646Y-21246D01*
X43299Y-21101D01*
X42922Y-21101D01*
X42575Y-21245D01*
X42309Y-21510D01*
X42164Y-21858D01*
X42164Y-22234D01*
X42308Y-22582D01*
X42573Y-22848D01*
X42921Y-22992D01*
X43297Y-22993D01*
X43645Y-22849D01*
X43911Y-22583D01*
X44055Y-22236D01*
X44056Y-21859D01*
X44056Y-39490D01*
X43989Y-39490D01*
X43989Y-30384D01*
X43921Y-30220D01*
X43796Y-30094D01*
X43648Y-30033D01*
X43648Y-28009D01*
X43648Y-24859D01*
X43600Y-24743D01*
X43511Y-24654D01*
X43395Y-24606D01*
X43270Y-24606D01*
X43154Y-24654D01*
X43065Y-24743D01*
X43017Y-24858D01*
X43017Y-24984D01*
X43065Y-25100D01*
X43153Y-25189D01*
X43269Y-25237D01*
X43395Y-25237D01*
X43511Y-25189D01*
X43600Y-25101D01*
X43648Y-24985D01*
X43648Y-24859D01*
X43648Y-28009D01*
X43600Y-27893D01*
X43511Y-27804D01*
X43395Y-27756D01*
X43270Y-27756D01*
X43154Y-27804D01*
X43065Y-27893D01*
X43017Y-28008D01*
X43017Y-28134D01*
X43065Y-28250D01*
X43153Y-28339D01*
X43269Y-28387D01*
X43395Y-28387D01*
X43511Y-28339D01*
X43600Y-28251D01*
X43648Y-28135D01*
X43648Y-28009D01*
X43648Y-30033D01*
X43632Y-30026D01*
X43455Y-30026D01*
X43291Y-30094D01*
X43165Y-30219D01*
X43097Y-30383D01*
X43097Y-30560D01*
X43165Y-30724D01*
X43290Y-30850D01*
X43454Y-30918D01*
X43631Y-30918D01*
X43795Y-30850D01*
X43920Y-30725D01*
X43988Y-30561D01*
X43989Y-30384D01*
X43989Y-39490D01*
X43780Y-39490D01*
X43780Y-35584D01*
X43712Y-35421D01*
X43587Y-35295D01*
X43423Y-35227D01*
X43246Y-35227D01*
X43082Y-35295D01*
X42957Y-35420D01*
X42889Y-35584D01*
X42889Y-35632D01*
X42828Y-35632D01*
X42893Y-35567D01*
X42893Y-35369D01*
X42909Y-35366D01*
X42975Y-35321D01*
X43198Y-35099D01*
X43245Y-35118D01*
X43422Y-35118D01*
X43586Y-35051D01*
X43712Y-34926D01*
X43780Y-34762D01*
X43780Y-34584D01*
X43780Y-33584D01*
X43780Y-32584D01*
X43712Y-32421D01*
X43587Y-32295D01*
X43551Y-32280D01*
X43551Y-31164D01*
X43508Y-31060D01*
X43428Y-30980D01*
X43324Y-30937D01*
X43273Y-30937D01*
X43078Y-30741D01*
X43078Y-30691D01*
X43035Y-30587D01*
X42956Y-30507D01*
X42851Y-30464D01*
X42739Y-30464D01*
X42634Y-30507D01*
X42610Y-30531D01*
X42611Y-30384D01*
X42543Y-30220D01*
X42418Y-30094D01*
X42254Y-30026D01*
X42077Y-30026D01*
X41913Y-30094D01*
X41890Y-30116D01*
X41890Y-21859D01*
X41747Y-21512D01*
X41481Y-21246D01*
X41133Y-21101D01*
X40757Y-21101D01*
X40409Y-21245D01*
X40143Y-21510D01*
X39999Y-21858D01*
X39999Y-22234D01*
X40142Y-22582D01*
X40408Y-22848D01*
X40755Y-22992D01*
X41132Y-22993D01*
X41479Y-22849D01*
X41746Y-22583D01*
X41890Y-22236D01*
X41890Y-21859D01*
X41890Y-30116D01*
X41787Y-30219D01*
X41719Y-30383D01*
X41719Y-30560D01*
X41787Y-30724D01*
X41912Y-30850D01*
X42076Y-30918D01*
X42253Y-30918D01*
X42417Y-30850D01*
X42511Y-30756D01*
X42511Y-30804D01*
X42554Y-30908D01*
X42634Y-30988D01*
X42738Y-31031D01*
X42789Y-31031D01*
X42984Y-31226D01*
X42984Y-31276D01*
X43027Y-31380D01*
X43106Y-31460D01*
X43211Y-31503D01*
X43323Y-31503D01*
X43428Y-31460D01*
X43507Y-31381D01*
X43551Y-31277D01*
X43551Y-31164D01*
X43551Y-32280D01*
X43423Y-32227D01*
X43246Y-32227D01*
X43082Y-32295D01*
X42957Y-32420D01*
X42889Y-32584D01*
X42888Y-32761D01*
X42956Y-32925D01*
X43081Y-33050D01*
X43245Y-33118D01*
X43422Y-33118D01*
X43586Y-33051D01*
X43712Y-32926D01*
X43780Y-32762D01*
X43780Y-32584D01*
X43780Y-33584D01*
X43712Y-33421D01*
X43587Y-33295D01*
X43423Y-33227D01*
X43246Y-33227D01*
X43082Y-33295D01*
X42957Y-33420D01*
X42889Y-33584D01*
X42888Y-33761D01*
X42956Y-33925D01*
X43081Y-34050D01*
X43245Y-34118D01*
X43422Y-34118D01*
X43586Y-34051D01*
X43712Y-33926D01*
X43780Y-33762D01*
X43780Y-33584D01*
X43780Y-34584D01*
X43712Y-34421D01*
X43587Y-34295D01*
X43423Y-34227D01*
X43246Y-34227D01*
X43082Y-34295D01*
X42957Y-34420D01*
X42889Y-34584D01*
X42888Y-34761D01*
X42908Y-34809D01*
X42745Y-34972D01*
X42665Y-34972D01*
X42712Y-34926D01*
X42780Y-34762D01*
X42780Y-34584D01*
X42780Y-33584D01*
X42712Y-33421D01*
X42587Y-33295D01*
X42423Y-33227D01*
X42246Y-33227D01*
X42082Y-33295D01*
X41957Y-33420D01*
X41889Y-33584D01*
X41888Y-33761D01*
X41896Y-33778D01*
X41509Y-34165D01*
X41459Y-34165D01*
X41355Y-34208D01*
X41275Y-34288D01*
X41232Y-34392D01*
X41232Y-34504D01*
X41275Y-34609D01*
X41354Y-34688D01*
X41459Y-34732D01*
X41571Y-34732D01*
X41676Y-34689D01*
X41755Y-34609D01*
X41799Y-34505D01*
X41799Y-34454D01*
X42167Y-34086D01*
X42245Y-34118D01*
X42422Y-34118D01*
X42586Y-34051D01*
X42712Y-33926D01*
X42780Y-33762D01*
X42780Y-33584D01*
X42780Y-34584D01*
X42712Y-34421D01*
X42587Y-34295D01*
X42423Y-34227D01*
X42246Y-34227D01*
X42082Y-34295D01*
X41957Y-34420D01*
X41889Y-34584D01*
X41888Y-34761D01*
X41956Y-34925D01*
X42003Y-34972D01*
X41039Y-34972D01*
X41086Y-34926D01*
X41154Y-34762D01*
X41154Y-34584D01*
X41086Y-34421D01*
X41043Y-34377D01*
X41082Y-34377D01*
X41082Y-34377D01*
X41082Y-34377D01*
X41161Y-34362D01*
X41227Y-34317D01*
X41384Y-34160D01*
X41384Y-34160D01*
X41384Y-34160D01*
X41411Y-34120D01*
X41429Y-34094D01*
X41429Y-34094D01*
X41444Y-34015D01*
X41444Y-33254D01*
X41821Y-32877D01*
X41937Y-32877D01*
X41956Y-32925D01*
X42081Y-33050D01*
X42245Y-33118D01*
X42422Y-33118D01*
X42586Y-33051D01*
X42712Y-32926D01*
X42780Y-32762D01*
X42780Y-32584D01*
X42712Y-32421D01*
X42587Y-32295D01*
X42423Y-32227D01*
X42246Y-32227D01*
X42082Y-32295D01*
X41957Y-32420D01*
X41937Y-32468D01*
X41736Y-32468D01*
X41736Y-32468D01*
X41700Y-32475D01*
X41700Y-31518D01*
X41657Y-31414D01*
X41622Y-31378D01*
X41622Y-30275D01*
X41622Y-30118D01*
X41606Y-30039D01*
X41606Y-30039D01*
X41588Y-30013D01*
X41562Y-29973D01*
X41562Y-29973D01*
X41404Y-29815D01*
X41382Y-29801D01*
X41382Y-29800D01*
X41302Y-29720D01*
X41228Y-29689D01*
X41228Y-25573D01*
X41185Y-25469D01*
X41105Y-25389D01*
X41001Y-25346D01*
X40888Y-25346D01*
X40784Y-25389D01*
X40748Y-25425D01*
X40570Y-25425D01*
X40534Y-25389D01*
X40430Y-25346D01*
X40317Y-25346D01*
X40213Y-25389D01*
X40133Y-25469D01*
X40103Y-25542D01*
X40086Y-25525D01*
X40086Y-25009D01*
X40122Y-24973D01*
X40165Y-24869D01*
X40165Y-24756D01*
X40122Y-24652D01*
X40042Y-24572D01*
X39938Y-24529D01*
X39825Y-24529D01*
X39721Y-24572D01*
X39641Y-24652D01*
X39598Y-24756D01*
X39598Y-24869D01*
X39641Y-24973D01*
X39677Y-25009D01*
X39677Y-25610D01*
X39677Y-25610D01*
X39692Y-25688D01*
X39737Y-25754D01*
X40023Y-26041D01*
X40023Y-27707D01*
X40014Y-27684D01*
X39934Y-27604D01*
X39830Y-27561D01*
X39717Y-27560D01*
X39613Y-27604D01*
X39574Y-27642D01*
X39574Y-22256D01*
X39574Y-21759D01*
X39574Y-21656D01*
X39535Y-21560D01*
X39462Y-21488D01*
X39367Y-21448D01*
X39121Y-21448D01*
X39056Y-21513D01*
X39056Y-21966D01*
X39510Y-21966D01*
X39574Y-21902D01*
X39574Y-21759D01*
X39574Y-22256D01*
X39574Y-22113D01*
X39510Y-22048D01*
X39056Y-22048D01*
X39056Y-22502D01*
X39121Y-22566D01*
X39367Y-22566D01*
X39462Y-22527D01*
X39535Y-22454D01*
X39574Y-22359D01*
X39574Y-22256D01*
X39574Y-27642D01*
X39533Y-27683D01*
X39490Y-27787D01*
X39490Y-27900D01*
X39533Y-28004D01*
X39579Y-28051D01*
X39523Y-28106D01*
X39480Y-28211D01*
X39480Y-28323D01*
X39523Y-28428D01*
X39603Y-28507D01*
X39627Y-28518D01*
X39627Y-29384D01*
X39570Y-29326D01*
X39466Y-29283D01*
X39353Y-29283D01*
X39249Y-29326D01*
X39169Y-29406D01*
X39126Y-29510D01*
X39125Y-29560D01*
X38974Y-29712D01*
X38974Y-22502D01*
X38974Y-22048D01*
X38974Y-21966D01*
X38974Y-21513D01*
X38910Y-21448D01*
X38664Y-21448D01*
X38569Y-21488D01*
X38496Y-21560D01*
X38456Y-21656D01*
X38456Y-21759D01*
X38456Y-21902D01*
X38521Y-21966D01*
X38974Y-21966D01*
X38974Y-22048D01*
X38521Y-22048D01*
X38456Y-22113D01*
X38456Y-22256D01*
X38456Y-22359D01*
X38496Y-22454D01*
X38569Y-22527D01*
X38664Y-22566D01*
X38910Y-22566D01*
X38974Y-22502D01*
X38974Y-29712D01*
X38891Y-29795D01*
X38319Y-29795D01*
X38319Y-29739D01*
X38319Y-29139D01*
X38297Y-29086D01*
X38256Y-29045D01*
X38203Y-29022D01*
X38145Y-29022D01*
X37566Y-29022D01*
X37566Y-28706D01*
X38136Y-28136D01*
X38136Y-28136D01*
X38136Y-28136D01*
X38181Y-28070D01*
X38181Y-28070D01*
X38196Y-27992D01*
X38196Y-23661D01*
X38196Y-23188D01*
X38196Y-23188D01*
X38196Y-23188D01*
X38193Y-23173D01*
X38181Y-23110D01*
X38181Y-23110D01*
X38136Y-23044D01*
X38136Y-23044D01*
X38058Y-22965D01*
X37991Y-22921D01*
X37913Y-22905D01*
X37913Y-22905D01*
X37886Y-22905D01*
X37886Y-22781D01*
X37864Y-22727D01*
X37823Y-22686D01*
X37770Y-22664D01*
X37712Y-22664D01*
X37112Y-22664D01*
X37058Y-22686D01*
X37017Y-22727D01*
X36995Y-22781D01*
X36995Y-22821D01*
X36906Y-22732D01*
X36742Y-22664D01*
X36565Y-22664D01*
X36401Y-22732D01*
X36275Y-22857D01*
X36259Y-22896D01*
X36244Y-22858D01*
X36118Y-22732D01*
X35955Y-22664D01*
X35777Y-22664D01*
X35614Y-22732D01*
X35488Y-22857D01*
X35472Y-22896D01*
X35456Y-22858D01*
X35331Y-22732D01*
X35167Y-22664D01*
X34990Y-22664D01*
X34826Y-22732D01*
X34701Y-22857D01*
X34685Y-22896D01*
X34669Y-22858D01*
X34544Y-22732D01*
X34380Y-22664D01*
X34203Y-22664D01*
X34039Y-22732D01*
X33967Y-22803D01*
X33888Y-22783D01*
X33831Y-22841D01*
X33831Y-22725D01*
X33804Y-22626D01*
X33596Y-22547D01*
X33374Y-22555D01*
X33202Y-22626D01*
X33176Y-22725D01*
X33503Y-23052D01*
X33831Y-22725D01*
X33831Y-22841D01*
X33561Y-23110D01*
X33888Y-23437D01*
X33967Y-23416D01*
X34038Y-23487D01*
X34202Y-23555D01*
X34379Y-23555D01*
X34543Y-23488D01*
X34668Y-23363D01*
X34684Y-23324D01*
X34700Y-23362D01*
X34825Y-23487D01*
X34874Y-23507D01*
X34874Y-23622D01*
X34874Y-23622D01*
X34889Y-23700D01*
X34933Y-23766D01*
X35228Y-24061D01*
X35228Y-24778D01*
X35174Y-24755D01*
X35061Y-24755D01*
X34957Y-24798D01*
X34877Y-24878D01*
X34834Y-24982D01*
X34834Y-25033D01*
X34623Y-25244D01*
X34584Y-25228D01*
X34471Y-25228D01*
X34367Y-25271D01*
X34287Y-25351D01*
X34244Y-25455D01*
X34244Y-25567D01*
X34287Y-25672D01*
X34366Y-25751D01*
X34470Y-25795D01*
X34583Y-25795D01*
X34687Y-25752D01*
X34767Y-25672D01*
X34768Y-25671D01*
X34790Y-25656D01*
X35124Y-25322D01*
X35174Y-25322D01*
X35228Y-25300D01*
X35228Y-27795D01*
X35228Y-27795D01*
X35243Y-27873D01*
X35288Y-27940D01*
X35818Y-28470D01*
X35818Y-28520D01*
X35861Y-28624D01*
X35941Y-28704D01*
X36045Y-28747D01*
X36158Y-28748D01*
X36262Y-28705D01*
X36342Y-28625D01*
X36370Y-28559D01*
X36370Y-28599D01*
X36413Y-28703D01*
X36492Y-28783D01*
X36579Y-28819D01*
X36391Y-29007D01*
X36341Y-29007D01*
X36237Y-29050D01*
X36157Y-29130D01*
X36114Y-29234D01*
X36114Y-29347D01*
X36157Y-29451D01*
X36236Y-29531D01*
X36341Y-29574D01*
X36453Y-29574D01*
X36557Y-29531D01*
X36637Y-29452D01*
X36681Y-29347D01*
X36681Y-29297D01*
X37157Y-28821D01*
X37157Y-29272D01*
X37123Y-29287D01*
X37043Y-29366D01*
X37000Y-29470D01*
X36999Y-29583D01*
X37043Y-29687D01*
X37122Y-29767D01*
X37189Y-29795D01*
X35557Y-29795D01*
X35519Y-29757D01*
X35519Y-29707D01*
X35476Y-29603D01*
X35397Y-29523D01*
X35292Y-29480D01*
X35180Y-29480D01*
X35075Y-29523D01*
X34996Y-29603D01*
X34965Y-29677D01*
X34927Y-29677D01*
X34811Y-29560D01*
X34811Y-29408D01*
X34846Y-29373D01*
X34889Y-29269D01*
X34889Y-29156D01*
X34846Y-29052D01*
X34767Y-28972D01*
X34662Y-28929D01*
X34550Y-28929D01*
X34445Y-28972D01*
X34366Y-29051D01*
X34322Y-29155D01*
X34322Y-29268D01*
X34365Y-29372D01*
X34401Y-29408D01*
X34401Y-29645D01*
X34401Y-29645D01*
X34417Y-29724D01*
X34461Y-29790D01*
X34637Y-29966D01*
X34637Y-30016D01*
X34680Y-30120D01*
X34760Y-30200D01*
X34864Y-30244D01*
X34977Y-30244D01*
X35081Y-30201D01*
X35161Y-30121D01*
X35192Y-30047D01*
X35230Y-30047D01*
X35327Y-30144D01*
X35327Y-30144D01*
X35367Y-30171D01*
X35394Y-30189D01*
X35394Y-30189D01*
X35472Y-30204D01*
X35472Y-30204D01*
X35472Y-30204D01*
X38976Y-30204D01*
X38976Y-30204D01*
X38976Y-30204D01*
X38998Y-30200D01*
X38419Y-30779D01*
X35196Y-30779D01*
X35160Y-30744D01*
X35056Y-30700D01*
X34943Y-30700D01*
X34839Y-30743D01*
X34759Y-30823D01*
X34716Y-30927D01*
X34716Y-31040D01*
X34759Y-31144D01*
X34839Y-31224D01*
X34943Y-31267D01*
X35056Y-31267D01*
X35160Y-31224D01*
X35196Y-31188D01*
X38503Y-31188D01*
X38503Y-31188D01*
X38503Y-31188D01*
X38582Y-31173D01*
X38648Y-31129D01*
X38845Y-30932D01*
X38845Y-30988D01*
X38845Y-31588D01*
X38867Y-31642D01*
X38908Y-31683D01*
X38962Y-31705D01*
X39020Y-31705D01*
X39620Y-31705D01*
X39627Y-31702D01*
X39627Y-32051D01*
X39295Y-32383D01*
X39245Y-32383D01*
X39140Y-32426D01*
X39061Y-32506D01*
X39017Y-32610D01*
X39017Y-32723D01*
X39060Y-32827D01*
X39140Y-32907D01*
X39244Y-32950D01*
X39283Y-32950D01*
X39283Y-32979D01*
X39326Y-33083D01*
X39406Y-33163D01*
X39510Y-33206D01*
X39539Y-33206D01*
X39539Y-33235D01*
X39582Y-33339D01*
X39662Y-33419D01*
X39766Y-33462D01*
X39878Y-33462D01*
X39983Y-33419D01*
X40063Y-33339D01*
X40106Y-33235D01*
X40106Y-33185D01*
X40348Y-32943D01*
X40455Y-33050D01*
X40619Y-33118D01*
X40796Y-33118D01*
X40960Y-33051D01*
X41086Y-32926D01*
X41154Y-32762D01*
X41154Y-32584D01*
X41086Y-32421D01*
X40961Y-32295D01*
X40797Y-32227D01*
X40620Y-32227D01*
X40456Y-32295D01*
X40433Y-32318D01*
X40433Y-31030D01*
X40436Y-31031D01*
X40681Y-31031D01*
X40746Y-30966D01*
X40746Y-30513D01*
X40738Y-30513D01*
X40738Y-30431D01*
X40746Y-30431D01*
X40746Y-29978D01*
X40681Y-29913D01*
X40436Y-29913D01*
X40433Y-29914D01*
X40433Y-25956D01*
X40433Y-25956D01*
X40433Y-25956D01*
X40429Y-25941D01*
X40424Y-25913D01*
X40430Y-25913D01*
X40534Y-25870D01*
X40570Y-25834D01*
X40748Y-25834D01*
X40784Y-25870D01*
X40888Y-25913D01*
X41001Y-25913D01*
X41105Y-25870D01*
X41185Y-25790D01*
X41228Y-25686D01*
X41228Y-25573D01*
X41228Y-29689D01*
X41198Y-29677D01*
X41085Y-29677D01*
X40981Y-29720D01*
X40901Y-29799D01*
X40858Y-29903D01*
X40858Y-29948D01*
X40828Y-29978D01*
X40828Y-30431D01*
X40836Y-30431D01*
X40836Y-30513D01*
X40828Y-30513D01*
X40828Y-30966D01*
X40893Y-31031D01*
X41138Y-31031D01*
X41212Y-31001D01*
X41212Y-31378D01*
X41177Y-31414D01*
X41133Y-31518D01*
X41133Y-31630D01*
X41176Y-31735D01*
X41256Y-31814D01*
X41360Y-31858D01*
X41473Y-31858D01*
X41577Y-31815D01*
X41657Y-31735D01*
X41700Y-31631D01*
X41700Y-31518D01*
X41700Y-32475D01*
X41657Y-32484D01*
X41591Y-32528D01*
X41591Y-32528D01*
X41095Y-33024D01*
X41051Y-33090D01*
X41035Y-33169D01*
X41035Y-33169D01*
X41035Y-33369D01*
X40961Y-33295D01*
X40797Y-33227D01*
X40620Y-33227D01*
X40456Y-33295D01*
X40331Y-33420D01*
X40263Y-33584D01*
X40262Y-33761D01*
X40330Y-33925D01*
X40373Y-33968D01*
X40255Y-33968D01*
X40219Y-33933D01*
X40115Y-33889D01*
X40002Y-33889D01*
X39898Y-33932D01*
X39818Y-34012D01*
X39775Y-34116D01*
X39775Y-34229D01*
X39818Y-34333D01*
X39898Y-34413D01*
X40002Y-34456D01*
X40115Y-34456D01*
X40219Y-34413D01*
X40255Y-34377D01*
X40373Y-34377D01*
X40331Y-34420D01*
X40263Y-34584D01*
X40262Y-34761D01*
X40330Y-34925D01*
X40377Y-34972D01*
X40196Y-34972D01*
X40121Y-34897D01*
X40017Y-34854D01*
X39904Y-34854D01*
X39800Y-34897D01*
X39720Y-34977D01*
X39677Y-35081D01*
X39677Y-35193D01*
X39720Y-35298D01*
X39799Y-35377D01*
X39903Y-35421D01*
X40016Y-35421D01*
X40112Y-35381D01*
X40149Y-35381D01*
X40149Y-35567D01*
X40214Y-35632D01*
X40667Y-35632D01*
X40667Y-35624D01*
X40749Y-35624D01*
X40749Y-35632D01*
X41202Y-35632D01*
X41267Y-35567D01*
X41267Y-35381D01*
X41775Y-35381D01*
X41775Y-35567D01*
X41840Y-35632D01*
X42293Y-35632D01*
X42293Y-35624D01*
X42375Y-35624D01*
X42375Y-35632D01*
X42383Y-35632D01*
X42383Y-35714D01*
X42375Y-35714D01*
X42375Y-36167D01*
X42440Y-36232D01*
X42583Y-36232D01*
X42686Y-36232D01*
X42781Y-36192D01*
X42854Y-36119D01*
X42893Y-36024D01*
X42893Y-35778D01*
X42828Y-35714D01*
X42888Y-35714D01*
X42888Y-35761D01*
X42956Y-35925D01*
X43081Y-36050D01*
X43245Y-36118D01*
X43422Y-36118D01*
X43586Y-36051D01*
X43712Y-35926D01*
X43780Y-35762D01*
X43780Y-35584D01*
X43780Y-39490D01*
X43626Y-39490D01*
X43626Y-37982D01*
X43558Y-37818D01*
X43433Y-37693D01*
X43269Y-37625D01*
X43092Y-37625D01*
X42928Y-37692D01*
X42893Y-37727D01*
X42802Y-37818D01*
X42734Y-37981D01*
X42734Y-38159D01*
X42802Y-38322D01*
X42927Y-38448D01*
X43091Y-38516D01*
X43268Y-38516D01*
X43432Y-38448D01*
X43557Y-38323D01*
X43625Y-38159D01*
X43626Y-37982D01*
X43626Y-39490D01*
X42293Y-39490D01*
X42293Y-36167D01*
X42293Y-35714D01*
X41840Y-35714D01*
X41775Y-35778D01*
X41775Y-36024D01*
X41814Y-36119D01*
X41887Y-36192D01*
X41982Y-36232D01*
X42085Y-36232D01*
X42228Y-36232D01*
X42293Y-36167D01*
X42293Y-39490D01*
X42248Y-39490D01*
X42248Y-38342D01*
X42248Y-37742D01*
X42225Y-37688D01*
X42184Y-37647D01*
X42131Y-37625D01*
X42073Y-37625D01*
X41473Y-37625D01*
X41419Y-37647D01*
X41378Y-37688D01*
X41356Y-37741D01*
X41356Y-37799D01*
X41356Y-38399D01*
X41378Y-38453D01*
X41419Y-38494D01*
X41473Y-38516D01*
X41531Y-38516D01*
X42131Y-38516D01*
X42184Y-38494D01*
X42225Y-38453D01*
X42248Y-38399D01*
X42248Y-38342D01*
X42248Y-39490D01*
X41267Y-39490D01*
X41267Y-36024D01*
X41267Y-35778D01*
X41202Y-35714D01*
X40749Y-35714D01*
X40749Y-36167D01*
X40814Y-36232D01*
X40957Y-36232D01*
X41060Y-36232D01*
X41155Y-36192D01*
X41228Y-36119D01*
X41267Y-36024D01*
X41267Y-39490D01*
X40667Y-39490D01*
X40667Y-36167D01*
X40667Y-35714D01*
X40214Y-35714D01*
X40149Y-35778D01*
X40149Y-36024D01*
X40184Y-36108D01*
X40158Y-36133D01*
X38588Y-36133D01*
X38196Y-35741D01*
X38196Y-34644D01*
X38232Y-34609D01*
X38275Y-34505D01*
X38275Y-34392D01*
X38232Y-34288D01*
X38152Y-34208D01*
X38048Y-34165D01*
X37935Y-34165D01*
X37831Y-34208D01*
X37763Y-34276D01*
X37763Y-32896D01*
X37720Y-32792D01*
X37641Y-32712D01*
X37536Y-32669D01*
X37424Y-32669D01*
X37319Y-32712D01*
X37284Y-32748D01*
X33831Y-32748D01*
X33831Y-23495D01*
X33503Y-23168D01*
X33446Y-23226D01*
X33446Y-23110D01*
X33118Y-22783D01*
X33040Y-22803D01*
X32969Y-22732D01*
X32805Y-22664D01*
X32628Y-22664D01*
X32464Y-22732D01*
X32338Y-22857D01*
X32322Y-22896D01*
X32307Y-22858D01*
X32181Y-22732D01*
X32018Y-22664D01*
X31840Y-22664D01*
X31677Y-22732D01*
X31551Y-22857D01*
X31535Y-22896D01*
X31519Y-22858D01*
X31394Y-22732D01*
X31230Y-22664D01*
X31053Y-22664D01*
X30889Y-22732D01*
X30764Y-22857D01*
X30696Y-23021D01*
X30695Y-23198D01*
X30763Y-23362D01*
X30888Y-23487D01*
X31052Y-23555D01*
X31229Y-23555D01*
X31393Y-23488D01*
X31519Y-23363D01*
X31535Y-23324D01*
X31551Y-23362D01*
X31676Y-23487D01*
X31840Y-23555D01*
X32017Y-23555D01*
X32181Y-23488D01*
X32306Y-23363D01*
X32322Y-23324D01*
X32338Y-23362D01*
X32463Y-23487D01*
X32627Y-23555D01*
X32804Y-23555D01*
X32968Y-23488D01*
X33040Y-23416D01*
X33118Y-23437D01*
X33446Y-23110D01*
X33446Y-23226D01*
X33176Y-23495D01*
X33202Y-23594D01*
X33411Y-23672D01*
X33633Y-23665D01*
X33804Y-23594D01*
X33831Y-23495D01*
X33831Y-32748D01*
X32669Y-32748D01*
X32669Y-32018D01*
X32669Y-30018D01*
X32605Y-29861D01*
X32485Y-29741D01*
X32329Y-29676D01*
X32159Y-29676D01*
X32003Y-29741D01*
X31883Y-29860D01*
X31818Y-30017D01*
X31818Y-30186D01*
X31883Y-30343D01*
X32002Y-30463D01*
X32159Y-30527D01*
X32328Y-30528D01*
X32484Y-30463D01*
X32604Y-30343D01*
X32669Y-30187D01*
X32669Y-30018D01*
X32669Y-32018D01*
X32605Y-31861D01*
X32485Y-31741D01*
X32329Y-31676D01*
X32159Y-31676D01*
X32003Y-31741D01*
X31883Y-31860D01*
X31818Y-32017D01*
X31818Y-32186D01*
X31883Y-32343D01*
X32002Y-32463D01*
X32159Y-32527D01*
X32328Y-32528D01*
X32484Y-32463D01*
X32604Y-32343D01*
X32669Y-32187D01*
X32669Y-32018D01*
X32669Y-32748D01*
X30165Y-32748D01*
X30165Y-31248D01*
X30165Y-30545D01*
X30126Y-30450D01*
X30053Y-30377D01*
X29958Y-30337D01*
X29854Y-30337D01*
X29712Y-30337D01*
X29647Y-30402D01*
X29647Y-30855D01*
X30100Y-30855D01*
X30165Y-30791D01*
X30165Y-30545D01*
X30165Y-31248D01*
X30165Y-31002D01*
X30100Y-30937D01*
X29647Y-30937D01*
X29647Y-31391D01*
X29712Y-31455D01*
X29854Y-31455D01*
X29958Y-31455D01*
X30053Y-31416D01*
X30126Y-31343D01*
X30165Y-31248D01*
X30165Y-32748D01*
X29999Y-32748D01*
X29963Y-32712D01*
X29859Y-32669D01*
X29818Y-32669D01*
X29858Y-32652D01*
X29983Y-32527D01*
X30051Y-32363D01*
X30052Y-32186D01*
X29984Y-32022D01*
X29859Y-31897D01*
X29695Y-31829D01*
X29565Y-31829D01*
X29565Y-31391D01*
X29565Y-30937D01*
X29565Y-30855D01*
X29565Y-30402D01*
X29500Y-30337D01*
X29357Y-30337D01*
X29254Y-30337D01*
X29159Y-30377D01*
X29086Y-30450D01*
X29047Y-30545D01*
X29047Y-30791D01*
X29112Y-30855D01*
X29565Y-30855D01*
X29565Y-30937D01*
X29112Y-30937D01*
X29047Y-31002D01*
X29047Y-31248D01*
X29086Y-31343D01*
X29159Y-31416D01*
X29254Y-31455D01*
X29357Y-31455D01*
X29500Y-31455D01*
X29565Y-31391D01*
X29565Y-31829D01*
X29518Y-31829D01*
X29354Y-31896D01*
X29228Y-32022D01*
X29160Y-32185D01*
X29160Y-32363D01*
X29228Y-32526D01*
X29353Y-32652D01*
X29517Y-32720D01*
X29634Y-32720D01*
X29562Y-32791D01*
X29519Y-32896D01*
X29519Y-33008D01*
X29562Y-33113D01*
X29642Y-33192D01*
X29746Y-33236D01*
X29859Y-33236D01*
X29963Y-33193D01*
X29999Y-33157D01*
X32163Y-33157D01*
X32157Y-33171D01*
X32157Y-33284D01*
X32200Y-33388D01*
X32280Y-33468D01*
X32384Y-33511D01*
X32395Y-33511D01*
X32669Y-33785D01*
X32669Y-33835D01*
X32712Y-33939D01*
X32791Y-34019D01*
X32896Y-34062D01*
X33008Y-34063D01*
X33113Y-34019D01*
X33192Y-33940D01*
X33236Y-33836D01*
X33236Y-33723D01*
X33193Y-33619D01*
X33113Y-33539D01*
X33009Y-33496D01*
X32958Y-33496D01*
X32724Y-33261D01*
X32724Y-33172D01*
X32718Y-33157D01*
X37284Y-33157D01*
X37319Y-33192D01*
X37423Y-33236D01*
X37536Y-33236D01*
X37640Y-33193D01*
X37720Y-33113D01*
X37763Y-33009D01*
X37763Y-32896D01*
X37763Y-34276D01*
X37751Y-34288D01*
X37711Y-34385D01*
X37655Y-34362D01*
X37542Y-34362D01*
X37438Y-34405D01*
X37358Y-34484D01*
X37315Y-34589D01*
X37314Y-34701D01*
X37357Y-34806D01*
X37393Y-34841D01*
X37393Y-35984D01*
X37393Y-36732D01*
X37393Y-36765D01*
X37148Y-37011D01*
X37148Y-37011D01*
X37126Y-37015D01*
X37099Y-37033D01*
X37059Y-37059D01*
X37059Y-37059D01*
X37020Y-37099D01*
X37020Y-37037D01*
X36952Y-36873D01*
X36827Y-36748D01*
X36663Y-36680D01*
X36486Y-36680D01*
X36322Y-36747D01*
X36250Y-36819D01*
X36172Y-36798D01*
X36114Y-36856D01*
X35845Y-37125D01*
X35850Y-37131D01*
X35792Y-37189D01*
X35787Y-37183D01*
X35781Y-37189D01*
X35723Y-37131D01*
X35729Y-37125D01*
X35723Y-37120D01*
X35781Y-37062D01*
X35787Y-37068D01*
X36114Y-36740D01*
X36110Y-36724D01*
X36110Y-35376D01*
X36067Y-35272D01*
X35987Y-35192D01*
X35883Y-35149D01*
X35832Y-35149D01*
X35814Y-35130D01*
X35747Y-35086D01*
X35669Y-35070D01*
X35669Y-35070D01*
X34054Y-35070D01*
X34019Y-35035D01*
X33914Y-34992D01*
X33802Y-34992D01*
X33697Y-35035D01*
X33618Y-35114D01*
X33574Y-35218D01*
X33574Y-35319D01*
X33501Y-35350D01*
X33421Y-35429D01*
X33378Y-35533D01*
X33377Y-35646D01*
X33420Y-35750D01*
X33500Y-35830D01*
X33604Y-35873D01*
X33717Y-35874D01*
X33821Y-35831D01*
X33857Y-35795D01*
X34449Y-35795D01*
X34484Y-35830D01*
X34559Y-35861D01*
X34559Y-35961D01*
X34602Y-36065D01*
X34618Y-36082D01*
X34602Y-36099D01*
X34559Y-36203D01*
X34559Y-36315D01*
X34602Y-36420D01*
X34681Y-36500D01*
X34785Y-36543D01*
X34898Y-36543D01*
X35002Y-36500D01*
X35038Y-36464D01*
X35236Y-36464D01*
X35272Y-36500D01*
X35376Y-36543D01*
X35489Y-36543D01*
X35593Y-36500D01*
X35673Y-36420D01*
X35716Y-36316D01*
X35716Y-36215D01*
X35790Y-36185D01*
X35870Y-36105D01*
X35913Y-36001D01*
X35913Y-35888D01*
X35870Y-35784D01*
X35802Y-35716D01*
X35882Y-35716D01*
X35987Y-35673D01*
X36066Y-35593D01*
X36110Y-35489D01*
X36110Y-35376D01*
X36110Y-36724D01*
X36088Y-36641D01*
X35880Y-36563D01*
X35658Y-36570D01*
X35486Y-36641D01*
X35460Y-36740D01*
X35414Y-36694D01*
X35394Y-36714D01*
X35382Y-36702D01*
X35329Y-36680D01*
X35271Y-36680D01*
X34671Y-36680D01*
X34617Y-36702D01*
X34576Y-36743D01*
X34554Y-36796D01*
X34554Y-36854D01*
X34554Y-37354D01*
X33616Y-37354D01*
X33673Y-37215D01*
X33674Y-37037D01*
X33606Y-36873D01*
X33492Y-36759D01*
X33492Y-36614D01*
X33472Y-36513D01*
X33414Y-36427D01*
X33414Y-36427D01*
X32233Y-35246D01*
X32148Y-35189D01*
X32047Y-35169D01*
X32047Y-35169D01*
X30966Y-35169D01*
X30966Y-34916D01*
X30966Y-34316D01*
X30944Y-34263D01*
X30903Y-34222D01*
X30849Y-34200D01*
X30791Y-34199D01*
X30191Y-34199D01*
X30138Y-34222D01*
X30097Y-34263D01*
X30074Y-34316D01*
X30074Y-34374D01*
X30074Y-34974D01*
X30096Y-35028D01*
X30137Y-35069D01*
X30191Y-35091D01*
X30249Y-35091D01*
X30849Y-35091D01*
X30902Y-35069D01*
X30943Y-35028D01*
X30966Y-34974D01*
X30966Y-34916D01*
X30966Y-35169D01*
X30227Y-35169D01*
X30066Y-35008D01*
X30066Y-34291D01*
X30066Y-34291D01*
X30066Y-34291D01*
X30063Y-34274D01*
X30046Y-34190D01*
X29989Y-34104D01*
X29989Y-34104D01*
X28964Y-33079D01*
X28964Y-30424D01*
X29438Y-29950D01*
X29438Y-29950D01*
X29438Y-29950D01*
X29495Y-29864D01*
X29495Y-29864D01*
X29512Y-29780D01*
X29515Y-29763D01*
X29515Y-29763D01*
X29515Y-29763D01*
X29515Y-27586D01*
X29817Y-27586D01*
X29864Y-27606D01*
X29977Y-27606D01*
X30081Y-27563D01*
X30161Y-27483D01*
X30204Y-27379D01*
X30204Y-27266D01*
X30161Y-27162D01*
X30082Y-27082D01*
X29977Y-27039D01*
X29923Y-27039D01*
X29923Y-22218D01*
X29916Y-21996D01*
X29845Y-21824D01*
X29746Y-21798D01*
X29688Y-21856D01*
X29688Y-21740D01*
X29662Y-21641D01*
X29454Y-21563D01*
X29232Y-21570D01*
X29060Y-21641D01*
X29034Y-21740D01*
X29361Y-22068D01*
X29688Y-21740D01*
X29688Y-21856D01*
X29419Y-22125D01*
X29746Y-22453D01*
X29845Y-22427D01*
X29923Y-22218D01*
X29923Y-27039D01*
X29865Y-27039D01*
X29817Y-27059D01*
X29688Y-27059D01*
X29688Y-22511D01*
X29361Y-22183D01*
X29303Y-22241D01*
X29303Y-22125D01*
X28976Y-21798D01*
X28877Y-21824D01*
X28799Y-22033D01*
X28806Y-22255D01*
X28877Y-22427D01*
X28976Y-22453D01*
X29303Y-22125D01*
X29303Y-22241D01*
X29034Y-22511D01*
X29060Y-22610D01*
X29268Y-22688D01*
X29490Y-22681D01*
X29662Y-22610D01*
X29688Y-22511D01*
X29688Y-27059D01*
X29251Y-27059D01*
X28258Y-27059D01*
X27644Y-26444D01*
X28203Y-26444D01*
X28250Y-26464D01*
X28363Y-26464D01*
X28467Y-26421D01*
X28547Y-26341D01*
X28590Y-26237D01*
X28590Y-26124D01*
X28547Y-26020D01*
X28467Y-25940D01*
X28429Y-25924D01*
X28429Y-22397D01*
X28429Y-21797D01*
X28407Y-21743D01*
X28366Y-21702D01*
X28312Y-21680D01*
X28254Y-21680D01*
X27654Y-21680D01*
X27601Y-21702D01*
X27560Y-21743D01*
X27537Y-21796D01*
X27537Y-21854D01*
X27537Y-22454D01*
X27559Y-22508D01*
X27600Y-22549D01*
X27654Y-22571D01*
X27712Y-22571D01*
X28312Y-22571D01*
X28365Y-22549D01*
X28406Y-22508D01*
X28429Y-22455D01*
X28429Y-22397D01*
X28429Y-25924D01*
X28363Y-25897D01*
X28250Y-25897D01*
X28203Y-25917D01*
X27623Y-25917D01*
X27576Y-25897D01*
X27463Y-25897D01*
X27359Y-25940D01*
X27341Y-25958D01*
X27341Y-25602D01*
X27455Y-25489D01*
X27523Y-25325D01*
X27523Y-25147D01*
X27455Y-24984D01*
X27330Y-24858D01*
X27166Y-24790D01*
X26989Y-24790D01*
X26825Y-24858D01*
X26700Y-24983D01*
X26632Y-25147D01*
X26632Y-25324D01*
X26699Y-25488D01*
X26814Y-25602D01*
X26814Y-26251D01*
X26814Y-26251D01*
X26834Y-26352D01*
X26891Y-26437D01*
X27963Y-27509D01*
X27963Y-27509D01*
X27966Y-27511D01*
X27833Y-27511D01*
X27798Y-27476D01*
X27694Y-27433D01*
X27581Y-27433D01*
X27477Y-27476D01*
X27397Y-27555D01*
X27354Y-27659D01*
X27354Y-27772D01*
X27397Y-27876D01*
X27477Y-27956D01*
X27581Y-27999D01*
X27693Y-28000D01*
X27798Y-27956D01*
X27833Y-27921D01*
X28071Y-27921D01*
X28106Y-27956D01*
X28211Y-27999D01*
X28323Y-28000D01*
X28428Y-27956D01*
X28507Y-27877D01*
X28551Y-27773D01*
X28551Y-27660D01*
X28520Y-27586D01*
X28988Y-27586D01*
X28988Y-29654D01*
X28910Y-29732D01*
X28910Y-29641D01*
X28910Y-29041D01*
X28888Y-28987D01*
X28847Y-28946D01*
X28793Y-28924D01*
X28735Y-28924D01*
X28135Y-28924D01*
X28082Y-28946D01*
X28041Y-28987D01*
X28018Y-29040D01*
X28018Y-29098D01*
X28018Y-29698D01*
X28041Y-29752D01*
X28081Y-29793D01*
X28135Y-29815D01*
X28193Y-29815D01*
X28793Y-29815D01*
X28846Y-29793D01*
X28887Y-29752D01*
X28910Y-29699D01*
X28910Y-29641D01*
X28910Y-29732D01*
X28514Y-30128D01*
X28457Y-30214D01*
X28437Y-30314D01*
X28437Y-30314D01*
X28437Y-33188D01*
X28437Y-33188D01*
X28457Y-33289D01*
X28514Y-33375D01*
X29539Y-34400D01*
X29539Y-34439D01*
X29520Y-34393D01*
X29395Y-34268D01*
X29231Y-34200D01*
X29054Y-34199D01*
X28890Y-34267D01*
X28764Y-34392D01*
X28696Y-34556D01*
X28696Y-34733D01*
X28764Y-34897D01*
X28889Y-35023D01*
X29053Y-35091D01*
X29107Y-35091D01*
X28615Y-35582D01*
X28565Y-35582D01*
X28461Y-35625D01*
X28381Y-35705D01*
X28338Y-35809D01*
X28338Y-35922D01*
X28381Y-36026D01*
X28461Y-36106D01*
X28565Y-36149D01*
X28678Y-36149D01*
X28782Y-36106D01*
X28862Y-36026D01*
X28905Y-35922D01*
X28905Y-35872D01*
X29415Y-35362D01*
X29465Y-35362D01*
X29569Y-35319D01*
X29603Y-35285D01*
X29616Y-35304D01*
X29931Y-35619D01*
X29931Y-35619D01*
X30017Y-35676D01*
X30118Y-35696D01*
X30118Y-35696D01*
X30118Y-35696D01*
X31937Y-35696D01*
X32964Y-36723D01*
X32964Y-36759D01*
X32850Y-36873D01*
X32834Y-36911D01*
X32818Y-36873D01*
X32693Y-36748D01*
X32529Y-36680D01*
X32352Y-36680D01*
X32188Y-36747D01*
X32063Y-36873D01*
X32047Y-36911D01*
X32031Y-36873D01*
X31906Y-36748D01*
X31742Y-36680D01*
X31565Y-36680D01*
X31401Y-36747D01*
X31275Y-36873D01*
X31259Y-36911D01*
X31244Y-36873D01*
X31118Y-36748D01*
X30955Y-36680D01*
X30777Y-36680D01*
X30614Y-36747D01*
X30488Y-36873D01*
X30472Y-36911D01*
X30456Y-36873D01*
X30331Y-36748D01*
X30167Y-36680D01*
X29990Y-36680D01*
X29837Y-36743D01*
X29810Y-36679D01*
X29737Y-36606D01*
X29642Y-36566D01*
X29397Y-36566D01*
X29332Y-36631D01*
X29332Y-37085D01*
X29340Y-37085D01*
X29340Y-37166D01*
X29332Y-37166D01*
X29332Y-37620D01*
X29397Y-37685D01*
X29642Y-37685D01*
X29737Y-37645D01*
X29810Y-37572D01*
X29837Y-37508D01*
X29989Y-37571D01*
X30167Y-37571D01*
X30330Y-37504D01*
X30456Y-37378D01*
X30472Y-37340D01*
X30488Y-37378D01*
X30613Y-37503D01*
X30777Y-37571D01*
X30954Y-37571D01*
X31118Y-37504D01*
X31243Y-37378D01*
X31259Y-37340D01*
X31275Y-37378D01*
X31400Y-37503D01*
X31564Y-37571D01*
X31741Y-37571D01*
X31905Y-37504D01*
X32031Y-37378D01*
X32047Y-37340D01*
X32062Y-37378D01*
X32188Y-37503D01*
X32351Y-37571D01*
X32529Y-37571D01*
X32577Y-37551D01*
X32729Y-37703D01*
X32729Y-37703D01*
X32795Y-37748D01*
X32795Y-37748D01*
X32858Y-37760D01*
X32874Y-37763D01*
X32874Y-37763D01*
X32874Y-37763D01*
X36850Y-37763D01*
X36850Y-37763D01*
X36850Y-37763D01*
X36928Y-37748D01*
X36995Y-37703D01*
X37300Y-37398D01*
X37300Y-37398D01*
X37322Y-37393D01*
X37388Y-37349D01*
X37743Y-36995D01*
X37743Y-36995D01*
X37743Y-36995D01*
X37769Y-36955D01*
X37787Y-36928D01*
X37787Y-36928D01*
X37803Y-36850D01*
X37803Y-36850D01*
X37803Y-36850D01*
X37803Y-36771D01*
X37803Y-36732D01*
X37803Y-35984D01*
X37803Y-35905D01*
X37847Y-35971D01*
X38359Y-36483D01*
X38359Y-36483D01*
X38425Y-36527D01*
X38425Y-36527D01*
X38503Y-36543D01*
X40158Y-36543D01*
X40193Y-36578D01*
X40297Y-36621D01*
X40410Y-36622D01*
X40514Y-36579D01*
X40594Y-36499D01*
X40637Y-36395D01*
X40637Y-36282D01*
X40612Y-36222D01*
X40667Y-36167D01*
X40667Y-39490D01*
X40200Y-39490D01*
X40200Y-37982D01*
X40133Y-37818D01*
X40007Y-37693D01*
X39844Y-37625D01*
X39666Y-37625D01*
X39502Y-37692D01*
X39377Y-37818D01*
X39309Y-37981D01*
X39309Y-38159D01*
X39377Y-38322D01*
X39502Y-38448D01*
X39666Y-38516D01*
X39843Y-38516D01*
X40007Y-38448D01*
X40132Y-38323D01*
X40200Y-38159D01*
X40200Y-37982D01*
X40200Y-39490D01*
X38936Y-39490D01*
X38936Y-38319D01*
X38936Y-37822D01*
X38936Y-37719D01*
X38896Y-37623D01*
X38823Y-37551D01*
X38728Y-37511D01*
X38482Y-37511D01*
X38418Y-37576D01*
X38418Y-38029D01*
X38871Y-38029D01*
X38936Y-37965D01*
X38936Y-37822D01*
X38936Y-38319D01*
X38936Y-38176D01*
X38871Y-38111D01*
X38418Y-38111D01*
X38418Y-38565D01*
X38482Y-38629D01*
X38728Y-38629D01*
X38823Y-38590D01*
X38896Y-38517D01*
X38936Y-38422D01*
X38936Y-38319D01*
X38936Y-39490D01*
X38336Y-39490D01*
X38336Y-38565D01*
X38336Y-38111D01*
X38336Y-38029D01*
X38336Y-37576D01*
X38271Y-37511D01*
X38025Y-37511D01*
X37930Y-37551D01*
X37857Y-37623D01*
X37818Y-37719D01*
X37818Y-37822D01*
X37818Y-37965D01*
X37882Y-38029D01*
X38336Y-38029D01*
X38336Y-38111D01*
X37882Y-38111D01*
X37818Y-38176D01*
X37818Y-38319D01*
X37818Y-38422D01*
X37857Y-38517D01*
X37930Y-38590D01*
X38025Y-38629D01*
X38271Y-38629D01*
X38336Y-38565D01*
X38336Y-39490D01*
X29250Y-39490D01*
X29250Y-37620D01*
X29250Y-37166D01*
X29250Y-37085D01*
X29250Y-36631D01*
X29185Y-36566D01*
X28940Y-36566D01*
X28844Y-36606D01*
X28771Y-36679D01*
X28732Y-36774D01*
X28732Y-36877D01*
X28732Y-37020D01*
X28797Y-37085D01*
X29250Y-37085D01*
X29250Y-37166D01*
X28797Y-37166D01*
X28732Y-37231D01*
X28732Y-37374D01*
X28732Y-37477D01*
X28771Y-37572D01*
X28844Y-37645D01*
X28940Y-37685D01*
X29185Y-37685D01*
X29250Y-37620D01*
X29250Y-39490D01*
X27803Y-39490D01*
X27803Y-36689D01*
X27803Y-35987D01*
X27803Y-32595D01*
X27803Y-31892D01*
X27763Y-31797D01*
X27691Y-31724D01*
X27595Y-31685D01*
X27492Y-31684D01*
X27349Y-31685D01*
X27285Y-31749D01*
X27285Y-32203D01*
X27738Y-32203D01*
X27803Y-32138D01*
X27803Y-31892D01*
X27803Y-32595D01*
X27803Y-32349D01*
X27738Y-32285D01*
X27285Y-32285D01*
X27285Y-32292D01*
X27203Y-32292D01*
X27203Y-32285D01*
X27203Y-32203D01*
X27203Y-31749D01*
X27138Y-31685D01*
X26995Y-31684D01*
X26892Y-31685D01*
X26858Y-31699D01*
X26858Y-30784D01*
X26858Y-30081D01*
X26818Y-29986D01*
X26746Y-29913D01*
X26744Y-29913D01*
X26744Y-28966D01*
X26744Y-27588D01*
X26677Y-27425D01*
X26551Y-27299D01*
X26388Y-27231D01*
X26210Y-27231D01*
X26145Y-27258D01*
X26145Y-25507D01*
X26145Y-24907D01*
X26123Y-24853D01*
X26082Y-24812D01*
X26029Y-24790D01*
X25971Y-24790D01*
X25371Y-24790D01*
X25317Y-24812D01*
X25276Y-24853D01*
X25254Y-24907D01*
X25254Y-24965D01*
X25254Y-25565D01*
X25276Y-25618D01*
X25317Y-25659D01*
X25370Y-25681D01*
X25428Y-25681D01*
X26028Y-25681D01*
X26082Y-25659D01*
X26123Y-25618D01*
X26145Y-25565D01*
X26145Y-25507D01*
X26145Y-27258D01*
X26047Y-27299D01*
X25921Y-27424D01*
X25853Y-27588D01*
X25853Y-27765D01*
X25921Y-27929D01*
X26046Y-28054D01*
X26210Y-28122D01*
X26387Y-28122D01*
X26551Y-28055D01*
X26676Y-27929D01*
X26744Y-27766D01*
X26744Y-27588D01*
X26744Y-28966D01*
X26677Y-28802D01*
X26551Y-28677D01*
X26388Y-28609D01*
X26210Y-28609D01*
X26047Y-28677D01*
X25921Y-28802D01*
X25853Y-28966D01*
X25853Y-29143D01*
X25921Y-29307D01*
X26046Y-29432D01*
X26210Y-29500D01*
X26387Y-29500D01*
X26551Y-29433D01*
X26676Y-29307D01*
X26744Y-29144D01*
X26744Y-28966D01*
X26744Y-29913D01*
X26650Y-29874D01*
X26547Y-29873D01*
X26404Y-29874D01*
X26340Y-29938D01*
X26340Y-30392D01*
X26793Y-30392D01*
X26858Y-30327D01*
X26858Y-30081D01*
X26858Y-30784D01*
X26858Y-30538D01*
X26793Y-30474D01*
X26340Y-30474D01*
X26340Y-30927D01*
X26404Y-30992D01*
X26547Y-30992D01*
X26650Y-30992D01*
X26746Y-30952D01*
X26818Y-30879D01*
X26858Y-30784D01*
X26858Y-31699D01*
X26797Y-31724D01*
X26724Y-31797D01*
X26684Y-31892D01*
X26685Y-32138D01*
X26749Y-32203D01*
X27203Y-32203D01*
X27203Y-32285D01*
X26749Y-32285D01*
X26685Y-32349D01*
X26684Y-32595D01*
X26724Y-32690D01*
X26797Y-32763D01*
X26861Y-32790D01*
X26798Y-32942D01*
X26798Y-33119D01*
X26866Y-33283D01*
X26991Y-33409D01*
X27029Y-33425D01*
X26991Y-33440D01*
X26866Y-33566D01*
X26798Y-33729D01*
X26798Y-33907D01*
X26866Y-34071D01*
X26991Y-34196D01*
X27029Y-34212D01*
X26991Y-34228D01*
X26866Y-34353D01*
X26798Y-34517D01*
X26798Y-34694D01*
X26866Y-34858D01*
X26991Y-34983D01*
X27155Y-35051D01*
X27332Y-35052D01*
X27496Y-34984D01*
X27621Y-34859D01*
X27689Y-34695D01*
X27689Y-34518D01*
X27622Y-34354D01*
X27496Y-34228D01*
X27458Y-34212D01*
X27496Y-34196D01*
X27621Y-34071D01*
X27689Y-33907D01*
X27689Y-33730D01*
X27622Y-33566D01*
X27496Y-33441D01*
X27458Y-33425D01*
X27496Y-33409D01*
X27621Y-33284D01*
X27689Y-33120D01*
X27689Y-32943D01*
X27626Y-32790D01*
X27691Y-32763D01*
X27763Y-32690D01*
X27803Y-32595D01*
X27803Y-35987D01*
X27763Y-35892D01*
X27691Y-35819D01*
X27595Y-35779D01*
X27492Y-35779D01*
X27349Y-35779D01*
X27285Y-35844D01*
X27285Y-36297D01*
X27738Y-36297D01*
X27803Y-36232D01*
X27803Y-35987D01*
X27803Y-36689D01*
X27803Y-36444D01*
X27738Y-36379D01*
X27285Y-36379D01*
X27285Y-36387D01*
X27203Y-36387D01*
X27203Y-36379D01*
X27203Y-36297D01*
X27203Y-35844D01*
X27138Y-35779D01*
X26995Y-35779D01*
X26892Y-35779D01*
X26797Y-35819D01*
X26724Y-35892D01*
X26684Y-35987D01*
X26685Y-36232D01*
X26749Y-36297D01*
X27203Y-36297D01*
X27203Y-36379D01*
X26749Y-36379D01*
X26685Y-36444D01*
X26684Y-36689D01*
X26724Y-36785D01*
X26797Y-36858D01*
X26861Y-36884D01*
X26798Y-37036D01*
X26798Y-37214D01*
X26866Y-37378D01*
X26991Y-37503D01*
X27029Y-37519D01*
X26991Y-37535D01*
X26866Y-37660D01*
X26798Y-37824D01*
X26798Y-38001D01*
X26866Y-38165D01*
X26991Y-38290D01*
X27029Y-38307D01*
X26991Y-38322D01*
X26866Y-38448D01*
X26798Y-38611D01*
X26798Y-38789D01*
X26866Y-38952D01*
X26991Y-39078D01*
X27155Y-39146D01*
X27332Y-39146D01*
X27496Y-39078D01*
X27621Y-38953D01*
X27689Y-38789D01*
X27689Y-38612D01*
X27622Y-38448D01*
X27496Y-38323D01*
X27458Y-38307D01*
X27496Y-38291D01*
X27621Y-38166D01*
X27689Y-38002D01*
X27689Y-37825D01*
X27622Y-37661D01*
X27496Y-37535D01*
X27458Y-37519D01*
X27496Y-37504D01*
X27621Y-37378D01*
X27689Y-37215D01*
X27689Y-37037D01*
X27626Y-36884D01*
X27691Y-36858D01*
X27763Y-36785D01*
X27803Y-36689D01*
X27803Y-39490D01*
X26258Y-39490D01*
X26258Y-30927D01*
X26258Y-30474D01*
X26258Y-30392D01*
X26258Y-29938D01*
X26193Y-29874D01*
X26050Y-29873D01*
X25947Y-29874D01*
X25852Y-29913D01*
X25779Y-29986D01*
X25740Y-30081D01*
X25740Y-30327D01*
X25804Y-30392D01*
X26258Y-30392D01*
X26258Y-30474D01*
X25804Y-30474D01*
X25740Y-30538D01*
X25740Y-30784D01*
X25779Y-30879D01*
X25852Y-30952D01*
X25947Y-30992D01*
X26050Y-30992D01*
X26193Y-30992D01*
X26258Y-30927D01*
X26258Y-39490D01*
X25175Y-39490D01*
X25175Y-20844D01*
X44214Y-20844D01*
X44214Y-39490D01*
X44214Y-39490D01*
G37*
G54D17*
X44214Y-39490D02*
X44056Y-39490D01*
X44056Y-21859D01*
X43912Y-21512D01*
X43646Y-21246D01*
X43299Y-21101D01*
X42922Y-21101D01*
X42575Y-21245D01*
X42309Y-21510D01*
X42164Y-21858D01*
X42164Y-22234D01*
X42308Y-22582D01*
X42573Y-22848D01*
X42921Y-22992D01*
X43297Y-22993D01*
X43645Y-22849D01*
X43911Y-22583D01*
X44055Y-22236D01*
X44056Y-21859D01*
X44056Y-39490D01*
X43989Y-39490D01*
X43989Y-30384D01*
X43921Y-30220D01*
X43796Y-30094D01*
X43648Y-30033D01*
X43648Y-28009D01*
X43648Y-24859D01*
X43600Y-24743D01*
X43511Y-24654D01*
X43395Y-24606D01*
X43270Y-24606D01*
X43154Y-24654D01*
X43065Y-24743D01*
X43017Y-24858D01*
X43017Y-24984D01*
X43065Y-25100D01*
X43153Y-25189D01*
X43269Y-25237D01*
X43395Y-25237D01*
X43511Y-25189D01*
X43600Y-25101D01*
X43648Y-24985D01*
X43648Y-24859D01*
X43648Y-28009D01*
X43600Y-27893D01*
X43511Y-27804D01*
X43395Y-27756D01*
X43270Y-27756D01*
X43154Y-27804D01*
X43065Y-27893D01*
X43017Y-28008D01*
X43017Y-28134D01*
X43065Y-28250D01*
X43153Y-28339D01*
X43269Y-28387D01*
X43395Y-28387D01*
X43511Y-28339D01*
X43600Y-28251D01*
X43648Y-28135D01*
X43648Y-28009D01*
X43648Y-30033D01*
X43632Y-30026D01*
X43455Y-30026D01*
X43291Y-30094D01*
X43165Y-30219D01*
X43097Y-30383D01*
X43097Y-30560D01*
X43165Y-30724D01*
X43290Y-30850D01*
X43454Y-30918D01*
X43631Y-30918D01*
X43795Y-30850D01*
X43920Y-30725D01*
X43988Y-30561D01*
X43989Y-30384D01*
X43989Y-39490D01*
X43780Y-39490D01*
X43780Y-35584D01*
X43712Y-35421D01*
X43587Y-35295D01*
X43423Y-35227D01*
X43246Y-35227D01*
X43082Y-35295D01*
X42957Y-35420D01*
X42889Y-35584D01*
X42889Y-35632D01*
X42828Y-35632D01*
X42893Y-35567D01*
X42893Y-35369D01*
X42909Y-35366D01*
X42975Y-35321D01*
X43198Y-35099D01*
X43245Y-35118D01*
X43422Y-35118D01*
X43586Y-35051D01*
X43712Y-34926D01*
X43780Y-34762D01*
X43780Y-34584D01*
X43780Y-33584D01*
X43780Y-32584D01*
X43712Y-32421D01*
X43587Y-32295D01*
X43551Y-32280D01*
X43551Y-31164D01*
X43508Y-31060D01*
X43428Y-30980D01*
X43324Y-30937D01*
X43273Y-30937D01*
X43078Y-30741D01*
X43078Y-30691D01*
X43035Y-30587D01*
X42956Y-30507D01*
X42851Y-30464D01*
X42739Y-30464D01*
X42634Y-30507D01*
X42610Y-30531D01*
X42611Y-30384D01*
X42543Y-30220D01*
X42418Y-30094D01*
X42254Y-30026D01*
X42077Y-30026D01*
X41913Y-30094D01*
X41890Y-30116D01*
X41890Y-21859D01*
X41747Y-21512D01*
X41481Y-21246D01*
X41133Y-21101D01*
X40757Y-21101D01*
X40409Y-21245D01*
X40143Y-21510D01*
X39999Y-21858D01*
X39999Y-22234D01*
X40142Y-22582D01*
X40408Y-22848D01*
X40755Y-22992D01*
X41132Y-22993D01*
X41479Y-22849D01*
X41746Y-22583D01*
X41890Y-22236D01*
X41890Y-21859D01*
X41890Y-30116D01*
X41787Y-30219D01*
X41719Y-30383D01*
X41719Y-30560D01*
X41787Y-30724D01*
X41912Y-30850D01*
X42076Y-30918D01*
X42253Y-30918D01*
X42417Y-30850D01*
X42511Y-30756D01*
X42511Y-30804D01*
X42554Y-30908D01*
X42634Y-30988D01*
X42738Y-31031D01*
X42789Y-31031D01*
X42984Y-31226D01*
X42984Y-31276D01*
X43027Y-31380D01*
X43106Y-31460D01*
X43211Y-31503D01*
X43323Y-31503D01*
X43428Y-31460D01*
X43507Y-31381D01*
X43551Y-31277D01*
X43551Y-31164D01*
X43551Y-32280D01*
X43423Y-32227D01*
X43246Y-32227D01*
X43082Y-32295D01*
X42957Y-32420D01*
X42889Y-32584D01*
X42888Y-32761D01*
X42956Y-32925D01*
X43081Y-33050D01*
X43245Y-33118D01*
X43422Y-33118D01*
X43586Y-33051D01*
X43712Y-32926D01*
X43780Y-32762D01*
X43780Y-32584D01*
X43780Y-33584D01*
X43712Y-33421D01*
X43587Y-33295D01*
X43423Y-33227D01*
X43246Y-33227D01*
X43082Y-33295D01*
X42957Y-33420D01*
X42889Y-33584D01*
X42888Y-33761D01*
X42956Y-33925D01*
X43081Y-34050D01*
X43245Y-34118D01*
X43422Y-34118D01*
X43586Y-34051D01*
X43712Y-33926D01*
X43780Y-33762D01*
X43780Y-33584D01*
X43780Y-34584D01*
X43712Y-34421D01*
X43587Y-34295D01*
X43423Y-34227D01*
X43246Y-34227D01*
X43082Y-34295D01*
X42957Y-34420D01*
X42889Y-34584D01*
X42888Y-34761D01*
X42908Y-34809D01*
X42745Y-34972D01*
X42665Y-34972D01*
X42712Y-34926D01*
X42780Y-34762D01*
X42780Y-34584D01*
X42780Y-33584D01*
X42712Y-33421D01*
X42587Y-33295D01*
X42423Y-33227D01*
X42246Y-33227D01*
X42082Y-33295D01*
X41957Y-33420D01*
X41889Y-33584D01*
X41888Y-33761D01*
X41896Y-33778D01*
X41509Y-34165D01*
X41459Y-34165D01*
X41355Y-34208D01*
X41275Y-34288D01*
X41232Y-34392D01*
X41232Y-34504D01*
X41275Y-34609D01*
X41354Y-34688D01*
X41459Y-34732D01*
X41571Y-34732D01*
X41676Y-34689D01*
X41755Y-34609D01*
X41799Y-34505D01*
X41799Y-34454D01*
X42167Y-34086D01*
X42245Y-34118D01*
X42422Y-34118D01*
X42586Y-34051D01*
X42712Y-33926D01*
X42780Y-33762D01*
X42780Y-33584D01*
X42780Y-34584D01*
X42712Y-34421D01*
X42587Y-34295D01*
X42423Y-34227D01*
X42246Y-34227D01*
X42082Y-34295D01*
X41957Y-34420D01*
X41889Y-34584D01*
X41888Y-34761D01*
X41956Y-34925D01*
X42003Y-34972D01*
X41039Y-34972D01*
X41086Y-34926D01*
X41154Y-34762D01*
X41154Y-34584D01*
X41086Y-34421D01*
X41043Y-34377D01*
X41082Y-34377D01*
X41082Y-34377D01*
X41082Y-34377D01*
X41161Y-34362D01*
X41227Y-34317D01*
X41384Y-34160D01*
X41384Y-34160D01*
X41384Y-34160D01*
X41411Y-34120D01*
X41429Y-34094D01*
X41429Y-34094D01*
X41444Y-34015D01*
X41444Y-33254D01*
X41821Y-32877D01*
X41937Y-32877D01*
X41956Y-32925D01*
X42081Y-33050D01*
X42245Y-33118D01*
X42422Y-33118D01*
X42586Y-33051D01*
X42712Y-32926D01*
X42780Y-32762D01*
X42780Y-32584D01*
X42712Y-32421D01*
X42587Y-32295D01*
X42423Y-32227D01*
X42246Y-32227D01*
X42082Y-32295D01*
X41957Y-32420D01*
X41937Y-32468D01*
X41736Y-32468D01*
X41736Y-32468D01*
X41700Y-32475D01*
X41700Y-31518D01*
X41657Y-31414D01*
X41622Y-31378D01*
X41622Y-30275D01*
X41622Y-30118D01*
X41606Y-30039D01*
X41606Y-30039D01*
X41588Y-30013D01*
X41562Y-29973D01*
X41562Y-29973D01*
X41404Y-29815D01*
X41382Y-29801D01*
X41382Y-29800D01*
X41302Y-29720D01*
X41228Y-29689D01*
X41228Y-25573D01*
X41185Y-25469D01*
X41105Y-25389D01*
X41001Y-25346D01*
X40888Y-25346D01*
X40784Y-25389D01*
X40748Y-25425D01*
X40570Y-25425D01*
X40534Y-25389D01*
X40430Y-25346D01*
X40317Y-25346D01*
X40213Y-25389D01*
X40133Y-25469D01*
X40103Y-25542D01*
X40086Y-25525D01*
X40086Y-25009D01*
X40122Y-24973D01*
X40165Y-24869D01*
X40165Y-24756D01*
X40122Y-24652D01*
X40042Y-24572D01*
X39938Y-24529D01*
X39825Y-24529D01*
X39721Y-24572D01*
X39641Y-24652D01*
X39598Y-24756D01*
X39598Y-24869D01*
X39641Y-24973D01*
X39677Y-25009D01*
X39677Y-25610D01*
X39677Y-25610D01*
X39692Y-25688D01*
X39737Y-25754D01*
X40023Y-26041D01*
X40023Y-27707D01*
X40014Y-27684D01*
X39934Y-27604D01*
X39830Y-27561D01*
X39717Y-27560D01*
X39613Y-27604D01*
X39574Y-27642D01*
X39574Y-22256D01*
X39574Y-21759D01*
X39574Y-21656D01*
X39535Y-21560D01*
X39462Y-21488D01*
X39367Y-21448D01*
X39121Y-21448D01*
X39056Y-21513D01*
X39056Y-21966D01*
X39510Y-21966D01*
X39574Y-21902D01*
X39574Y-21759D01*
X39574Y-22256D01*
X39574Y-22113D01*
X39510Y-22048D01*
X39056Y-22048D01*
X39056Y-22502D01*
X39121Y-22566D01*
X39367Y-22566D01*
X39462Y-22527D01*
X39535Y-22454D01*
X39574Y-22359D01*
X39574Y-22256D01*
X39574Y-27642D01*
X39533Y-27683D01*
X39490Y-27787D01*
X39490Y-27900D01*
X39533Y-28004D01*
X39579Y-28051D01*
X39523Y-28106D01*
X39480Y-28211D01*
X39480Y-28323D01*
X39523Y-28428D01*
X39603Y-28507D01*
X39627Y-28518D01*
X39627Y-29384D01*
X39570Y-29326D01*
X39466Y-29283D01*
X39353Y-29283D01*
X39249Y-29326D01*
X39169Y-29406D01*
X39126Y-29510D01*
X39125Y-29560D01*
X38974Y-29712D01*
X38974Y-22502D01*
X38974Y-22048D01*
X38974Y-21966D01*
X38974Y-21513D01*
X38910Y-21448D01*
X38664Y-21448D01*
X38569Y-21488D01*
X38496Y-21560D01*
X38456Y-21656D01*
X38456Y-21759D01*
X38456Y-21902D01*
X38521Y-21966D01*
X38974Y-21966D01*
X38974Y-22048D01*
X38521Y-22048D01*
X38456Y-22113D01*
X38456Y-22256D01*
X38456Y-22359D01*
X38496Y-22454D01*
X38569Y-22527D01*
X38664Y-22566D01*
X38910Y-22566D01*
X38974Y-22502D01*
X38974Y-29712D01*
X38891Y-29795D01*
X38319Y-29795D01*
X38319Y-29739D01*
X38319Y-29139D01*
X38297Y-29086D01*
X38256Y-29045D01*
X38203Y-29022D01*
X38145Y-29022D01*
X37566Y-29022D01*
X37566Y-28706D01*
X38136Y-28136D01*
X38136Y-28136D01*
X38136Y-28136D01*
X38181Y-28070D01*
X38181Y-28070D01*
X38196Y-27992D01*
X38196Y-23661D01*
X38196Y-23188D01*
X38196Y-23188D01*
X38196Y-23188D01*
X38193Y-23173D01*
X38181Y-23110D01*
X38181Y-23110D01*
X38136Y-23044D01*
X38136Y-23044D01*
X38058Y-22965D01*
X37991Y-22921D01*
X37913Y-22905D01*
X37913Y-22905D01*
X37886Y-22905D01*
X37886Y-22781D01*
X37864Y-22727D01*
X37823Y-22686D01*
X37770Y-22664D01*
X37712Y-22664D01*
X37112Y-22664D01*
X37058Y-22686D01*
X37017Y-22727D01*
X36995Y-22781D01*
X36995Y-22821D01*
X36906Y-22732D01*
X36742Y-22664D01*
X36565Y-22664D01*
X36401Y-22732D01*
X36275Y-22857D01*
X36259Y-22896D01*
X36244Y-22858D01*
X36118Y-22732D01*
X35955Y-22664D01*
X35777Y-22664D01*
X35614Y-22732D01*
X35488Y-22857D01*
X35472Y-22896D01*
X35456Y-22858D01*
X35331Y-22732D01*
X35167Y-22664D01*
X34990Y-22664D01*
X34826Y-22732D01*
X34701Y-22857D01*
X34685Y-22896D01*
X34669Y-22858D01*
X34544Y-22732D01*
X34380Y-22664D01*
X34203Y-22664D01*
X34039Y-22732D01*
X33967Y-22803D01*
X33888Y-22783D01*
X33831Y-22841D01*
X33831Y-22725D01*
X33804Y-22626D01*
X33596Y-22547D01*
X33374Y-22555D01*
X33202Y-22626D01*
X33176Y-22725D01*
X33503Y-23052D01*
X33831Y-22725D01*
X33831Y-22841D01*
X33561Y-23110D01*
X33888Y-23437D01*
X33967Y-23416D01*
X34038Y-23487D01*
X34202Y-23555D01*
X34379Y-23555D01*
X34543Y-23488D01*
X34668Y-23363D01*
X34684Y-23324D01*
X34700Y-23362D01*
X34825Y-23487D01*
X34874Y-23507D01*
X34874Y-23622D01*
X34874Y-23622D01*
X34889Y-23700D01*
X34933Y-23766D01*
X35228Y-24061D01*
X35228Y-24778D01*
X35174Y-24755D01*
X35061Y-24755D01*
X34957Y-24798D01*
X34877Y-24878D01*
X34834Y-24982D01*
X34834Y-25033D01*
X34623Y-25244D01*
X34584Y-25228D01*
X34471Y-25228D01*
X34367Y-25271D01*
X34287Y-25351D01*
X34244Y-25455D01*
X34244Y-25567D01*
X34287Y-25672D01*
X34366Y-25751D01*
X34470Y-25795D01*
X34583Y-25795D01*
X34687Y-25752D01*
X34767Y-25672D01*
X34768Y-25671D01*
X34790Y-25656D01*
X35124Y-25322D01*
X35174Y-25322D01*
X35228Y-25300D01*
X35228Y-27795D01*
X35228Y-27795D01*
X35243Y-27873D01*
X35288Y-27940D01*
X35818Y-28470D01*
X35818Y-28520D01*
X35861Y-28624D01*
X35941Y-28704D01*
X36045Y-28747D01*
X36158Y-28748D01*
X36262Y-28705D01*
X36342Y-28625D01*
X36370Y-28559D01*
X36370Y-28599D01*
X36413Y-28703D01*
X36492Y-28783D01*
X36579Y-28819D01*
X36391Y-29007D01*
X36341Y-29007D01*
X36237Y-29050D01*
X36157Y-29130D01*
X36114Y-29234D01*
X36114Y-29347D01*
X36157Y-29451D01*
X36236Y-29531D01*
X36341Y-29574D01*
X36453Y-29574D01*
X36557Y-29531D01*
X36637Y-29452D01*
X36681Y-29347D01*
X36681Y-29297D01*
X37157Y-28821D01*
X37157Y-29272D01*
X37123Y-29287D01*
X37043Y-29366D01*
X37000Y-29470D01*
X36999Y-29583D01*
X37043Y-29687D01*
X37122Y-29767D01*
X37189Y-29795D01*
X35557Y-29795D01*
X35519Y-29757D01*
X35519Y-29707D01*
X35476Y-29603D01*
X35397Y-29523D01*
X35292Y-29480D01*
X35180Y-29480D01*
X35075Y-29523D01*
X34996Y-29603D01*
X34965Y-29677D01*
X34927Y-29677D01*
X34811Y-29560D01*
X34811Y-29408D01*
X34846Y-29373D01*
X34889Y-29269D01*
X34889Y-29156D01*
X34846Y-29052D01*
X34767Y-28972D01*
X34662Y-28929D01*
X34550Y-28929D01*
X34445Y-28972D01*
X34366Y-29051D01*
X34322Y-29155D01*
X34322Y-29268D01*
X34365Y-29372D01*
X34401Y-29408D01*
X34401Y-29645D01*
X34401Y-29645D01*
X34417Y-29724D01*
X34461Y-29790D01*
X34637Y-29966D01*
X34637Y-30016D01*
X34680Y-30120D01*
X34760Y-30200D01*
X34864Y-30244D01*
X34977Y-30244D01*
X35081Y-30201D01*
X35161Y-30121D01*
X35192Y-30047D01*
X35230Y-30047D01*
X35327Y-30144D01*
X35327Y-30144D01*
X35367Y-30171D01*
X35394Y-30189D01*
X35394Y-30189D01*
X35472Y-30204D01*
X35472Y-30204D01*
X35472Y-30204D01*
X38976Y-30204D01*
X38976Y-30204D01*
X38976Y-30204D01*
X38998Y-30200D01*
X38419Y-30779D01*
X35196Y-30779D01*
X35160Y-30744D01*
X35056Y-30700D01*
X34943Y-30700D01*
X34839Y-30743D01*
X34759Y-30823D01*
X34716Y-30927D01*
X34716Y-31040D01*
X34759Y-31144D01*
X34839Y-31224D01*
X34943Y-31267D01*
X35056Y-31267D01*
X35160Y-31224D01*
X35196Y-31188D01*
X38503Y-31188D01*
X38503Y-31188D01*
X38503Y-31188D01*
X38582Y-31173D01*
X38648Y-31129D01*
X38845Y-30932D01*
X38845Y-30988D01*
X38845Y-31588D01*
X38867Y-31642D01*
X38908Y-31683D01*
X38962Y-31705D01*
X39020Y-31705D01*
X39620Y-31705D01*
X39627Y-31702D01*
X39627Y-32051D01*
X39295Y-32383D01*
X39245Y-32383D01*
X39140Y-32426D01*
X39061Y-32506D01*
X39017Y-32610D01*
X39017Y-32723D01*
X39060Y-32827D01*
X39140Y-32907D01*
X39244Y-32950D01*
X39283Y-32950D01*
X39283Y-32979D01*
X39326Y-33083D01*
X39406Y-33163D01*
X39510Y-33206D01*
X39539Y-33206D01*
X39539Y-33235D01*
X39582Y-33339D01*
X39662Y-33419D01*
X39766Y-33462D01*
X39878Y-33462D01*
X39983Y-33419D01*
X40063Y-33339D01*
X40106Y-33235D01*
X40106Y-33185D01*
X40348Y-32943D01*
X40455Y-33050D01*
X40619Y-33118D01*
X40796Y-33118D01*
X40960Y-33051D01*
X41086Y-32926D01*
X41154Y-32762D01*
X41154Y-32584D01*
X41086Y-32421D01*
X40961Y-32295D01*
X40797Y-32227D01*
X40620Y-32227D01*
X40456Y-32295D01*
X40433Y-32318D01*
X40433Y-31030D01*
X40436Y-31031D01*
X40681Y-31031D01*
X40746Y-30966D01*
X40746Y-30513D01*
X40738Y-30513D01*
X40738Y-30431D01*
X40746Y-30431D01*
X40746Y-29978D01*
X40681Y-29913D01*
X40436Y-29913D01*
X40433Y-29914D01*
X40433Y-25956D01*
X40433Y-25956D01*
X40433Y-25956D01*
X40429Y-25941D01*
X40424Y-25913D01*
X40430Y-25913D01*
X40534Y-25870D01*
X40570Y-25834D01*
X40748Y-25834D01*
X40784Y-25870D01*
X40888Y-25913D01*
X41001Y-25913D01*
X41105Y-25870D01*
X41185Y-25790D01*
X41228Y-25686D01*
X41228Y-25573D01*
X41228Y-29689D01*
X41198Y-29677D01*
X41085Y-29677D01*
X40981Y-29720D01*
X40901Y-29799D01*
X40858Y-29903D01*
X40858Y-29948D01*
X40828Y-29978D01*
X40828Y-30431D01*
X40836Y-30431D01*
X40836Y-30513D01*
X40828Y-30513D01*
X40828Y-30966D01*
X40893Y-31031D01*
X41138Y-31031D01*
X41212Y-31001D01*
X41212Y-31378D01*
X41177Y-31414D01*
X41133Y-31518D01*
X41133Y-31630D01*
X41176Y-31735D01*
X41256Y-31814D01*
X41360Y-31858D01*
X41473Y-31858D01*
X41577Y-31815D01*
X41657Y-31735D01*
X41700Y-31631D01*
X41700Y-31518D01*
X41700Y-32475D01*
X41657Y-32484D01*
X41591Y-32528D01*
X41591Y-32528D01*
X41095Y-33024D01*
X41051Y-33090D01*
X41035Y-33169D01*
X41035Y-33169D01*
X41035Y-33369D01*
X40961Y-33295D01*
X40797Y-33227D01*
X40620Y-33227D01*
X40456Y-33295D01*
X40331Y-33420D01*
X40263Y-33584D01*
X40262Y-33761D01*
X40330Y-33925D01*
X40373Y-33968D01*
X40255Y-33968D01*
X40219Y-33933D01*
X40115Y-33889D01*
X40002Y-33889D01*
X39898Y-33932D01*
X39818Y-34012D01*
X39775Y-34116D01*
X39775Y-34229D01*
X39818Y-34333D01*
X39898Y-34413D01*
X40002Y-34456D01*
X40115Y-34456D01*
X40219Y-34413D01*
X40255Y-34377D01*
X40373Y-34377D01*
X40331Y-34420D01*
X40263Y-34584D01*
X40262Y-34761D01*
X40330Y-34925D01*
X40377Y-34972D01*
X40196Y-34972D01*
X40121Y-34897D01*
X40017Y-34854D01*
X39904Y-34854D01*
X39800Y-34897D01*
X39720Y-34977D01*
X39677Y-35081D01*
X39677Y-35193D01*
X39720Y-35298D01*
X39799Y-35377D01*
X39903Y-35421D01*
X40016Y-35421D01*
X40112Y-35381D01*
X40149Y-35381D01*
X40149Y-35567D01*
X40214Y-35632D01*
X40667Y-35632D01*
X40667Y-35624D01*
X40749Y-35624D01*
X40749Y-35632D01*
X41202Y-35632D01*
X41267Y-35567D01*
X41267Y-35381D01*
X41775Y-35381D01*
X41775Y-35567D01*
X41840Y-35632D01*
X42293Y-35632D01*
X42293Y-35624D01*
X42375Y-35624D01*
X42375Y-35632D01*
X42383Y-35632D01*
X42383Y-35714D01*
X42375Y-35714D01*
X42375Y-36167D01*
X42440Y-36232D01*
X42583Y-36232D01*
X42686Y-36232D01*
X42781Y-36192D01*
X42854Y-36119D01*
X42893Y-36024D01*
X42893Y-35778D01*
X42828Y-35714D01*
X42888Y-35714D01*
X42888Y-35761D01*
X42956Y-35925D01*
X43081Y-36050D01*
X43245Y-36118D01*
X43422Y-36118D01*
X43586Y-36051D01*
X43712Y-35926D01*
X43780Y-35762D01*
X43780Y-35584D01*
X43780Y-39490D01*
X43626Y-39490D01*
X43626Y-37982D01*
X43558Y-37818D01*
X43433Y-37693D01*
X43269Y-37625D01*
X43092Y-37625D01*
X42928Y-37692D01*
X42893Y-37727D01*
X42802Y-37818D01*
X42734Y-37981D01*
X42734Y-38159D01*
X42802Y-38322D01*
X42927Y-38448D01*
X43091Y-38516D01*
X43268Y-38516D01*
X43432Y-38448D01*
X43557Y-38323D01*
X43625Y-38159D01*
X43626Y-37982D01*
X43626Y-39490D01*
X42293Y-39490D01*
X42293Y-36167D01*
X42293Y-35714D01*
X41840Y-35714D01*
X41775Y-35778D01*
X41775Y-36024D01*
X41814Y-36119D01*
X41887Y-36192D01*
X41982Y-36232D01*
X42085Y-36232D01*
X42228Y-36232D01*
X42293Y-36167D01*
X42293Y-39490D01*
X42248Y-39490D01*
X42248Y-38342D01*
X42248Y-37742D01*
X42225Y-37688D01*
X42184Y-37647D01*
X42131Y-37625D01*
X42073Y-37625D01*
X41473Y-37625D01*
X41419Y-37647D01*
X41378Y-37688D01*
X41356Y-37741D01*
X41356Y-37799D01*
X41356Y-38399D01*
X41378Y-38453D01*
X41419Y-38494D01*
X41473Y-38516D01*
X41531Y-38516D01*
X42131Y-38516D01*
X42184Y-38494D01*
X42225Y-38453D01*
X42248Y-38399D01*
X42248Y-38342D01*
X42248Y-39490D01*
X41267Y-39490D01*
X41267Y-36024D01*
X41267Y-35778D01*
X41202Y-35714D01*
X40749Y-35714D01*
X40749Y-36167D01*
X40814Y-36232D01*
X40957Y-36232D01*
X41060Y-36232D01*
X41155Y-36192D01*
X41228Y-36119D01*
X41267Y-36024D01*
X41267Y-39490D01*
X40667Y-39490D01*
X40667Y-36167D01*
X40667Y-35714D01*
X40214Y-35714D01*
X40149Y-35778D01*
X40149Y-36024D01*
X40184Y-36108D01*
X40158Y-36133D01*
X38588Y-36133D01*
X38196Y-35741D01*
X38196Y-34644D01*
X38232Y-34609D01*
X38275Y-34505D01*
X38275Y-34392D01*
X38232Y-34288D01*
X38152Y-34208D01*
X38048Y-34165D01*
X37935Y-34165D01*
X37831Y-34208D01*
X37763Y-34276D01*
X37763Y-32896D01*
X37720Y-32792D01*
X37641Y-32712D01*
X37536Y-32669D01*
X37424Y-32669D01*
X37319Y-32712D01*
X37284Y-32748D01*
X33831Y-32748D01*
X33831Y-23495D01*
X33503Y-23168D01*
X33446Y-23226D01*
X33446Y-23110D01*
X33118Y-22783D01*
X33040Y-22803D01*
X32969Y-22732D01*
X32805Y-22664D01*
X32628Y-22664D01*
X32464Y-22732D01*
X32338Y-22857D01*
X32322Y-22896D01*
X32307Y-22858D01*
X32181Y-22732D01*
X32018Y-22664D01*
X31840Y-22664D01*
X31677Y-22732D01*
X31551Y-22857D01*
X31535Y-22896D01*
X31519Y-22858D01*
X31394Y-22732D01*
X31230Y-22664D01*
X31053Y-22664D01*
X30889Y-22732D01*
X30764Y-22857D01*
X30696Y-23021D01*
X30695Y-23198D01*
X30763Y-23362D01*
X30888Y-23487D01*
X31052Y-23555D01*
X31229Y-23555D01*
X31393Y-23488D01*
X31519Y-23363D01*
X31535Y-23324D01*
X31551Y-23362D01*
X31676Y-23487D01*
X31840Y-23555D01*
X32017Y-23555D01*
X32181Y-23488D01*
X32306Y-23363D01*
X32322Y-23324D01*
X32338Y-23362D01*
X32463Y-23487D01*
X32627Y-23555D01*
X32804Y-23555D01*
X32968Y-23488D01*
X33040Y-23416D01*
X33118Y-23437D01*
X33446Y-23110D01*
X33446Y-23226D01*
X33176Y-23495D01*
X33202Y-23594D01*
X33411Y-23672D01*
X33633Y-23665D01*
X33804Y-23594D01*
X33831Y-23495D01*
X33831Y-32748D01*
X32669Y-32748D01*
X32669Y-32018D01*
X32669Y-30018D01*
X32605Y-29861D01*
X32485Y-29741D01*
X32329Y-29676D01*
X32159Y-29676D01*
X32003Y-29741D01*
X31883Y-29860D01*
X31818Y-30017D01*
X31818Y-30186D01*
X31883Y-30343D01*
X32002Y-30463D01*
X32159Y-30527D01*
X32328Y-30528D01*
X32484Y-30463D01*
X32604Y-30343D01*
X32669Y-30187D01*
X32669Y-30018D01*
X32669Y-32018D01*
X32605Y-31861D01*
X32485Y-31741D01*
X32329Y-31676D01*
X32159Y-31676D01*
X32003Y-31741D01*
X31883Y-31860D01*
X31818Y-32017D01*
X31818Y-32186D01*
X31883Y-32343D01*
X32002Y-32463D01*
X32159Y-32527D01*
X32328Y-32528D01*
X32484Y-32463D01*
X32604Y-32343D01*
X32669Y-32187D01*
X32669Y-32018D01*
X32669Y-32748D01*
X30165Y-32748D01*
X30165Y-31248D01*
X30165Y-30545D01*
X30126Y-30450D01*
X30053Y-30377D01*
X29958Y-30337D01*
X29854Y-30337D01*
X29712Y-30337D01*
X29647Y-30402D01*
X29647Y-30855D01*
X30100Y-30855D01*
X30165Y-30791D01*
X30165Y-30545D01*
X30165Y-31248D01*
X30165Y-31002D01*
X30100Y-30937D01*
X29647Y-30937D01*
X29647Y-31391D01*
X29712Y-31455D01*
X29854Y-31455D01*
X29958Y-31455D01*
X30053Y-31416D01*
X30126Y-31343D01*
X30165Y-31248D01*
X30165Y-32748D01*
X29999Y-32748D01*
X29963Y-32712D01*
X29859Y-32669D01*
X29818Y-32669D01*
X29858Y-32652D01*
X29983Y-32527D01*
X30051Y-32363D01*
X30052Y-32186D01*
X29984Y-32022D01*
X29859Y-31897D01*
X29695Y-31829D01*
X29565Y-31829D01*
X29565Y-31391D01*
X29565Y-30937D01*
X29565Y-30855D01*
X29565Y-30402D01*
X29500Y-30337D01*
X29357Y-30337D01*
X29254Y-30337D01*
X29159Y-30377D01*
X29086Y-30450D01*
X29047Y-30545D01*
X29047Y-30791D01*
X29112Y-30855D01*
X29565Y-30855D01*
X29565Y-30937D01*
X29112Y-30937D01*
X29047Y-31002D01*
X29047Y-31248D01*
X29086Y-31343D01*
X29159Y-31416D01*
X29254Y-31455D01*
X29357Y-31455D01*
X29500Y-31455D01*
X29565Y-31391D01*
X29565Y-31829D01*
X29518Y-31829D01*
X29354Y-31896D01*
X29228Y-32022D01*
X29160Y-32185D01*
X29160Y-32363D01*
X29228Y-32526D01*
X29353Y-32652D01*
X29517Y-32720D01*
X29634Y-32720D01*
X29562Y-32791D01*
X29519Y-32896D01*
X29519Y-33008D01*
X29562Y-33113D01*
X29642Y-33192D01*
X29746Y-33236D01*
X29859Y-33236D01*
X29963Y-33193D01*
X29999Y-33157D01*
X32163Y-33157D01*
X32157Y-33171D01*
X32157Y-33284D01*
X32200Y-33388D01*
X32280Y-33468D01*
X32384Y-33511D01*
X32395Y-33511D01*
X32669Y-33785D01*
X32669Y-33835D01*
X32712Y-33939D01*
X32791Y-34019D01*
X32896Y-34062D01*
X33008Y-34063D01*
X33113Y-34019D01*
X33192Y-33940D01*
X33236Y-33836D01*
X33236Y-33723D01*
X33193Y-33619D01*
X33113Y-33539D01*
X33009Y-33496D01*
X32958Y-33496D01*
X32724Y-33261D01*
X32724Y-33172D01*
X32718Y-33157D01*
X37284Y-33157D01*
X37319Y-33192D01*
X37423Y-33236D01*
X37536Y-33236D01*
X37640Y-33193D01*
X37720Y-33113D01*
X37763Y-33009D01*
X37763Y-32896D01*
X37763Y-34276D01*
X37751Y-34288D01*
X37711Y-34385D01*
X37655Y-34362D01*
X37542Y-34362D01*
X37438Y-34405D01*
X37358Y-34484D01*
X37315Y-34589D01*
X37314Y-34701D01*
X37357Y-34806D01*
X37393Y-34841D01*
X37393Y-35984D01*
X37393Y-36732D01*
X37393Y-36765D01*
X37148Y-37011D01*
X37148Y-37011D01*
X37126Y-37015D01*
X37099Y-37033D01*
X37059Y-37059D01*
X37059Y-37059D01*
X37020Y-37099D01*
X37020Y-37037D01*
X36952Y-36873D01*
X36827Y-36748D01*
X36663Y-36680D01*
X36486Y-36680D01*
X36322Y-36747D01*
X36250Y-36819D01*
X36172Y-36798D01*
X36114Y-36856D01*
X35845Y-37125D01*
X35850Y-37131D01*
X35792Y-37189D01*
X35787Y-37183D01*
X35781Y-37189D01*
X35723Y-37131D01*
X35729Y-37125D01*
X35723Y-37120D01*
X35781Y-37062D01*
X35787Y-37068D01*
X36114Y-36740D01*
X36110Y-36724D01*
X36110Y-35376D01*
X36067Y-35272D01*
X35987Y-35192D01*
X35883Y-35149D01*
X35832Y-35149D01*
X35814Y-35130D01*
X35747Y-35086D01*
X35669Y-35070D01*
X35669Y-35070D01*
X34054Y-35070D01*
X34019Y-35035D01*
X33914Y-34992D01*
X33802Y-34992D01*
X33697Y-35035D01*
X33618Y-35114D01*
X33574Y-35218D01*
X33574Y-35319D01*
X33501Y-35350D01*
X33421Y-35429D01*
X33378Y-35533D01*
X33377Y-35646D01*
X33420Y-35750D01*
X33500Y-35830D01*
X33604Y-35873D01*
X33717Y-35874D01*
X33821Y-35831D01*
X33857Y-35795D01*
X34449Y-35795D01*
X34484Y-35830D01*
X34559Y-35861D01*
X34559Y-35961D01*
X34602Y-36065D01*
X34618Y-36082D01*
X34602Y-36099D01*
X34559Y-36203D01*
X34559Y-36315D01*
X34602Y-36420D01*
X34681Y-36500D01*
X34785Y-36543D01*
X34898Y-36543D01*
X35002Y-36500D01*
X35038Y-36464D01*
X35236Y-36464D01*
X35272Y-36500D01*
X35376Y-36543D01*
X35489Y-36543D01*
X35593Y-36500D01*
X35673Y-36420D01*
X35716Y-36316D01*
X35716Y-36215D01*
X35790Y-36185D01*
X35870Y-36105D01*
X35913Y-36001D01*
X35913Y-35888D01*
X35870Y-35784D01*
X35802Y-35716D01*
X35882Y-35716D01*
X35987Y-35673D01*
X36066Y-35593D01*
X36110Y-35489D01*
X36110Y-35376D01*
X36110Y-36724D01*
X36088Y-36641D01*
X35880Y-36563D01*
X35658Y-36570D01*
X35486Y-36641D01*
X35460Y-36740D01*
X35414Y-36694D01*
X35394Y-36714D01*
X35382Y-36702D01*
X35329Y-36680D01*
X35271Y-36680D01*
X34671Y-36680D01*
X34617Y-36702D01*
X34576Y-36743D01*
X34554Y-36796D01*
X34554Y-36854D01*
X34554Y-37354D01*
X33616Y-37354D01*
X33673Y-37215D01*
X33674Y-37037D01*
X33606Y-36873D01*
X33492Y-36759D01*
X33492Y-36614D01*
X33472Y-36513D01*
X33414Y-36427D01*
X33414Y-36427D01*
X32233Y-35246D01*
X32148Y-35189D01*
X32047Y-35169D01*
X32047Y-35169D01*
X30966Y-35169D01*
X30966Y-34916D01*
X30966Y-34316D01*
X30944Y-34263D01*
X30903Y-34222D01*
X30849Y-34200D01*
X30791Y-34199D01*
X30191Y-34199D01*
X30138Y-34222D01*
X30097Y-34263D01*
X30074Y-34316D01*
X30074Y-34374D01*
X30074Y-34974D01*
X30096Y-35028D01*
X30137Y-35069D01*
X30191Y-35091D01*
X30249Y-35091D01*
X30849Y-35091D01*
X30902Y-35069D01*
X30943Y-35028D01*
X30966Y-34974D01*
X30966Y-34916D01*
X30966Y-35169D01*
X30227Y-35169D01*
X30066Y-35008D01*
X30066Y-34291D01*
X30066Y-34291D01*
X30066Y-34291D01*
X30063Y-34274D01*
X30046Y-34190D01*
X29989Y-34104D01*
X29989Y-34104D01*
X28964Y-33079D01*
X28964Y-30424D01*
X29438Y-29950D01*
X29438Y-29950D01*
X29438Y-29950D01*
X29495Y-29864D01*
X29495Y-29864D01*
X29512Y-29780D01*
X29515Y-29763D01*
X29515Y-29763D01*
X29515Y-29763D01*
X29515Y-27586D01*
X29817Y-27586D01*
X29864Y-27606D01*
X29977Y-27606D01*
X30081Y-27563D01*
X30161Y-27483D01*
X30204Y-27379D01*
X30204Y-27266D01*
X30161Y-27162D01*
X30082Y-27082D01*
X29977Y-27039D01*
X29923Y-27039D01*
X29923Y-22218D01*
X29916Y-21996D01*
X29845Y-21824D01*
X29746Y-21798D01*
X29688Y-21856D01*
X29688Y-21740D01*
X29662Y-21641D01*
X29454Y-21563D01*
X29232Y-21570D01*
X29060Y-21641D01*
X29034Y-21740D01*
X29361Y-22068D01*
X29688Y-21740D01*
X29688Y-21856D01*
X29419Y-22125D01*
X29746Y-22453D01*
X29845Y-22427D01*
X29923Y-22218D01*
X29923Y-27039D01*
X29865Y-27039D01*
X29817Y-27059D01*
X29688Y-27059D01*
X29688Y-22511D01*
X29361Y-22183D01*
X29303Y-22241D01*
X29303Y-22125D01*
X28976Y-21798D01*
X28877Y-21824D01*
X28799Y-22033D01*
X28806Y-22255D01*
X28877Y-22427D01*
X28976Y-22453D01*
X29303Y-22125D01*
X29303Y-22241D01*
X29034Y-22511D01*
X29060Y-22610D01*
X29268Y-22688D01*
X29490Y-22681D01*
X29662Y-22610D01*
X29688Y-22511D01*
X29688Y-27059D01*
X29251Y-27059D01*
X28258Y-27059D01*
X27644Y-26444D01*
X28203Y-26444D01*
X28250Y-26464D01*
X28363Y-26464D01*
X28467Y-26421D01*
X28547Y-26341D01*
X28590Y-26237D01*
X28590Y-26124D01*
X28547Y-26020D01*
X28467Y-25940D01*
X28429Y-25924D01*
X28429Y-22397D01*
X28429Y-21797D01*
X28407Y-21743D01*
X28366Y-21702D01*
X28312Y-21680D01*
X28254Y-21680D01*
X27654Y-21680D01*
X27601Y-21702D01*
X27560Y-21743D01*
X27537Y-21796D01*
X27537Y-21854D01*
X27537Y-22454D01*
X27559Y-22508D01*
X27600Y-22549D01*
X27654Y-22571D01*
X27712Y-22571D01*
X28312Y-22571D01*
X28365Y-22549D01*
X28406Y-22508D01*
X28429Y-22455D01*
X28429Y-22397D01*
X28429Y-25924D01*
X28363Y-25897D01*
X28250Y-25897D01*
X28203Y-25917D01*
X27623Y-25917D01*
X27576Y-25897D01*
X27463Y-25897D01*
X27359Y-25940D01*
X27341Y-25958D01*
X27341Y-25602D01*
X27455Y-25489D01*
X27523Y-25325D01*
X27523Y-25147D01*
X27455Y-24984D01*
X27330Y-24858D01*
X27166Y-24790D01*
X26989Y-24790D01*
X26825Y-24858D01*
X26700Y-24983D01*
X26632Y-25147D01*
X26632Y-25324D01*
X26699Y-25488D01*
X26814Y-25602D01*
X26814Y-26251D01*
X26814Y-26251D01*
X26834Y-26352D01*
X26891Y-26437D01*
X27963Y-27509D01*
X27963Y-27509D01*
X27966Y-27511D01*
X27833Y-27511D01*
X27798Y-27476D01*
X27694Y-27433D01*
X27581Y-27433D01*
X27477Y-27476D01*
X27397Y-27555D01*
X27354Y-27659D01*
X27354Y-27772D01*
X27397Y-27876D01*
X27477Y-27956D01*
X27581Y-27999D01*
X27693Y-28000D01*
X27798Y-27956D01*
X27833Y-27921D01*
X28071Y-27921D01*
X28106Y-27956D01*
X28211Y-27999D01*
X28323Y-28000D01*
X28428Y-27956D01*
X28507Y-27877D01*
X28551Y-27773D01*
X28551Y-27660D01*
X28520Y-27586D01*
X28988Y-27586D01*
X28988Y-29654D01*
X28910Y-29732D01*
X28910Y-29641D01*
X28910Y-29041D01*
X28888Y-28987D01*
X28847Y-28946D01*
X28793Y-28924D01*
X28735Y-28924D01*
X28135Y-28924D01*
X28082Y-28946D01*
X28041Y-28987D01*
X28018Y-29040D01*
X28018Y-29098D01*
X28018Y-29698D01*
X28041Y-29752D01*
X28081Y-29793D01*
X28135Y-29815D01*
X28193Y-29815D01*
X28793Y-29815D01*
X28846Y-29793D01*
X28887Y-29752D01*
X28910Y-29699D01*
X28910Y-29641D01*
X28910Y-29732D01*
X28514Y-30128D01*
X28457Y-30214D01*
X28437Y-30314D01*
X28437Y-30314D01*
X28437Y-33188D01*
X28437Y-33188D01*
X28457Y-33289D01*
X28514Y-33375D01*
X29539Y-34400D01*
X29539Y-34439D01*
X29520Y-34393D01*
X29395Y-34268D01*
X29231Y-34200D01*
X29054Y-34199D01*
X28890Y-34267D01*
X28764Y-34392D01*
X28696Y-34556D01*
X28696Y-34733D01*
X28764Y-34897D01*
X28889Y-35023D01*
X29053Y-35091D01*
X29107Y-35091D01*
X28615Y-35582D01*
X28565Y-35582D01*
X28461Y-35625D01*
X28381Y-35705D01*
X28338Y-35809D01*
X28338Y-35922D01*
X28381Y-36026D01*
X28461Y-36106D01*
X28565Y-36149D01*
X28678Y-36149D01*
X28782Y-36106D01*
X28862Y-36026D01*
X28905Y-35922D01*
X28905Y-35872D01*
X29415Y-35362D01*
X29465Y-35362D01*
X29569Y-35319D01*
X29603Y-35285D01*
X29616Y-35304D01*
X29931Y-35619D01*
X29931Y-35619D01*
X30017Y-35676D01*
X30118Y-35696D01*
X30118Y-35696D01*
X30118Y-35696D01*
X31937Y-35696D01*
X32964Y-36723D01*
X32964Y-36759D01*
X32850Y-36873D01*
X32834Y-36911D01*
X32818Y-36873D01*
X32693Y-36748D01*
X32529Y-36680D01*
X32352Y-36680D01*
X32188Y-36747D01*
X32063Y-36873D01*
X32047Y-36911D01*
X32031Y-36873D01*
X31906Y-36748D01*
X31742Y-36680D01*
X31565Y-36680D01*
X31401Y-36747D01*
X31275Y-36873D01*
X31259Y-36911D01*
X31244Y-36873D01*
X31118Y-36748D01*
X30955Y-36680D01*
X30777Y-36680D01*
X30614Y-36747D01*
X30488Y-36873D01*
X30472Y-36911D01*
X30456Y-36873D01*
X30331Y-36748D01*
X30167Y-36680D01*
X29990Y-36680D01*
X29837Y-36743D01*
X29810Y-36679D01*
X29737Y-36606D01*
X29642Y-36566D01*
X29397Y-36566D01*
X29332Y-36631D01*
X29332Y-37085D01*
X29340Y-37085D01*
X29340Y-37166D01*
X29332Y-37166D01*
X29332Y-37620D01*
X29397Y-37685D01*
X29642Y-37685D01*
X29737Y-37645D01*
X29810Y-37572D01*
X29837Y-37508D01*
X29989Y-37571D01*
X30167Y-37571D01*
X30330Y-37504D01*
X30456Y-37378D01*
X30472Y-37340D01*
X30488Y-37378D01*
X30613Y-37503D01*
X30777Y-37571D01*
X30954Y-37571D01*
X31118Y-37504D01*
X31243Y-37378D01*
X31259Y-37340D01*
X31275Y-37378D01*
X31400Y-37503D01*
X31564Y-37571D01*
X31741Y-37571D01*
X31905Y-37504D01*
X32031Y-37378D01*
X32047Y-37340D01*
X32062Y-37378D01*
X32188Y-37503D01*
X32351Y-37571D01*
X32529Y-37571D01*
X32577Y-37551D01*
X32729Y-37703D01*
X32729Y-37703D01*
X32795Y-37748D01*
X32795Y-37748D01*
X32858Y-37760D01*
X32874Y-37763D01*
X32874Y-37763D01*
X32874Y-37763D01*
X36850Y-37763D01*
X36850Y-37763D01*
X36850Y-37763D01*
X36928Y-37748D01*
X36995Y-37703D01*
X37300Y-37398D01*
X37300Y-37398D01*
X37322Y-37393D01*
X37388Y-37349D01*
X37743Y-36995D01*
X37743Y-36995D01*
X37743Y-36995D01*
X37769Y-36955D01*
X37787Y-36928D01*
X37787Y-36928D01*
X37803Y-36850D01*
X37803Y-36850D01*
X37803Y-36850D01*
X37803Y-36771D01*
X37803Y-36732D01*
X37803Y-35984D01*
X37803Y-35905D01*
X37847Y-35971D01*
X38359Y-36483D01*
X38359Y-36483D01*
X38425Y-36527D01*
X38425Y-36527D01*
X38503Y-36543D01*
X40158Y-36543D01*
X40193Y-36578D01*
X40297Y-36621D01*
X40410Y-36622D01*
X40514Y-36579D01*
X40594Y-36499D01*
X40637Y-36395D01*
X40637Y-36282D01*
X40612Y-36222D01*
X40667Y-36167D01*
X40667Y-39490D01*
X40200Y-39490D01*
X40200Y-37982D01*
X40133Y-37818D01*
X40007Y-37693D01*
X39844Y-37625D01*
X39666Y-37625D01*
X39502Y-37692D01*
X39377Y-37818D01*
X39309Y-37981D01*
X39309Y-38159D01*
X39377Y-38322D01*
X39502Y-38448D01*
X39666Y-38516D01*
X39843Y-38516D01*
X40007Y-38448D01*
X40132Y-38323D01*
X40200Y-38159D01*
X40200Y-37982D01*
X40200Y-39490D01*
X38936Y-39490D01*
X38936Y-38319D01*
X38936Y-37822D01*
X38936Y-37719D01*
X38896Y-37623D01*
X38823Y-37551D01*
X38728Y-37511D01*
X38482Y-37511D01*
X38418Y-37576D01*
X38418Y-38029D01*
X38871Y-38029D01*
X38936Y-37965D01*
X38936Y-37822D01*
X38936Y-38319D01*
X38936Y-38176D01*
X38871Y-38111D01*
X38418Y-38111D01*
X38418Y-38565D01*
X38482Y-38629D01*
X38728Y-38629D01*
X38823Y-38590D01*
X38896Y-38517D01*
X38936Y-38422D01*
X38936Y-38319D01*
X38936Y-39490D01*
X38336Y-39490D01*
X38336Y-38565D01*
X38336Y-38111D01*
X38336Y-38029D01*
X38336Y-37576D01*
X38271Y-37511D01*
X38025Y-37511D01*
X37930Y-37551D01*
X37857Y-37623D01*
X37818Y-37719D01*
X37818Y-37822D01*
X37818Y-37965D01*
X37882Y-38029D01*
X38336Y-38029D01*
X38336Y-38111D01*
X37882Y-38111D01*
X37818Y-38176D01*
X37818Y-38319D01*
X37818Y-38422D01*
X37857Y-38517D01*
X37930Y-38590D01*
X38025Y-38629D01*
X38271Y-38629D01*
X38336Y-38565D01*
X38336Y-39490D01*
X29250Y-39490D01*
X29250Y-37620D01*
X29250Y-37166D01*
X29250Y-37085D01*
X29250Y-36631D01*
X29185Y-36566D01*
X28940Y-36566D01*
X28844Y-36606D01*
X28771Y-36679D01*
X28732Y-36774D01*
X28732Y-36877D01*
X28732Y-37020D01*
X28797Y-37085D01*
X29250Y-37085D01*
X29250Y-37166D01*
X28797Y-37166D01*
X28732Y-37231D01*
X28732Y-37374D01*
X28732Y-37477D01*
X28771Y-37572D01*
X28844Y-37645D01*
X28940Y-37685D01*
X29185Y-37685D01*
X29250Y-37620D01*
X29250Y-39490D01*
X27803Y-39490D01*
X27803Y-36689D01*
X27803Y-35987D01*
X27803Y-32595D01*
X27803Y-31892D01*
X27763Y-31797D01*
X27691Y-31724D01*
X27595Y-31685D01*
X27492Y-31684D01*
X27349Y-31685D01*
X27285Y-31749D01*
X27285Y-32203D01*
X27738Y-32203D01*
X27803Y-32138D01*
X27803Y-31892D01*
X27803Y-32595D01*
X27803Y-32349D01*
X27738Y-32285D01*
X27285Y-32285D01*
X27285Y-32292D01*
X27203Y-32292D01*
X27203Y-32285D01*
X27203Y-32203D01*
X27203Y-31749D01*
X27138Y-31685D01*
X26995Y-31684D01*
X26892Y-31685D01*
X26858Y-31699D01*
X26858Y-30784D01*
X26858Y-30081D01*
X26818Y-29986D01*
X26746Y-29913D01*
X26744Y-29913D01*
X26744Y-28966D01*
X26744Y-27588D01*
X26677Y-27425D01*
X26551Y-27299D01*
X26388Y-27231D01*
X26210Y-27231D01*
X26145Y-27258D01*
X26145Y-25507D01*
X26145Y-24907D01*
X26123Y-24853D01*
X26082Y-24812D01*
X26029Y-24790D01*
X25971Y-24790D01*
X25371Y-24790D01*
X25317Y-24812D01*
X25276Y-24853D01*
X25254Y-24907D01*
X25254Y-24965D01*
X25254Y-25565D01*
X25276Y-25618D01*
X25317Y-25659D01*
X25370Y-25681D01*
X25428Y-25681D01*
X26028Y-25681D01*
X26082Y-25659D01*
X26123Y-25618D01*
X26145Y-25565D01*
X26145Y-25507D01*
X26145Y-27258D01*
X26047Y-27299D01*
X25921Y-27424D01*
X25853Y-27588D01*
X25853Y-27765D01*
X25921Y-27929D01*
X26046Y-28054D01*
X26210Y-28122D01*
X26387Y-28122D01*
X26551Y-28055D01*
X26676Y-27929D01*
X26744Y-27766D01*
X26744Y-27588D01*
X26744Y-28966D01*
X26677Y-28802D01*
X26551Y-28677D01*
X26388Y-28609D01*
X26210Y-28609D01*
X26047Y-28677D01*
X25921Y-28802D01*
X25853Y-28966D01*
X25853Y-29143D01*
X25921Y-29307D01*
X26046Y-29432D01*
X26210Y-29500D01*
X26387Y-29500D01*
X26551Y-29433D01*
X26676Y-29307D01*
X26744Y-29144D01*
X26744Y-28966D01*
X26744Y-29913D01*
X26650Y-29874D01*
X26547Y-29873D01*
X26404Y-29874D01*
X26340Y-29938D01*
X26340Y-30392D01*
X26793Y-30392D01*
X26858Y-30327D01*
X26858Y-30081D01*
X26858Y-30784D01*
X26858Y-30538D01*
X26793Y-30474D01*
X26340Y-30474D01*
X26340Y-30927D01*
X26404Y-30992D01*
X26547Y-30992D01*
X26650Y-30992D01*
X26746Y-30952D01*
X26818Y-30879D01*
X26858Y-30784D01*
X26858Y-31699D01*
X26797Y-31724D01*
X26724Y-31797D01*
X26684Y-31892D01*
X26685Y-32138D01*
X26749Y-32203D01*
X27203Y-32203D01*
X27203Y-32285D01*
X26749Y-32285D01*
X26685Y-32349D01*
X26684Y-32595D01*
X26724Y-32690D01*
X26797Y-32763D01*
X26861Y-32790D01*
X26798Y-32942D01*
X26798Y-33119D01*
X26866Y-33283D01*
X26991Y-33409D01*
X27029Y-33425D01*
X26991Y-33440D01*
X26866Y-33566D01*
X26798Y-33729D01*
X26798Y-33907D01*
X26866Y-34071D01*
X26991Y-34196D01*
X27029Y-34212D01*
X26991Y-34228D01*
X26866Y-34353D01*
X26798Y-34517D01*
X26798Y-34694D01*
X26866Y-34858D01*
X26991Y-34983D01*
X27155Y-35051D01*
X27332Y-35052D01*
X27496Y-34984D01*
X27621Y-34859D01*
X27689Y-34695D01*
X27689Y-34518D01*
X27622Y-34354D01*
X27496Y-34228D01*
X27458Y-34212D01*
X27496Y-34196D01*
X27621Y-34071D01*
X27689Y-33907D01*
X27689Y-33730D01*
X27622Y-33566D01*
X27496Y-33441D01*
X27458Y-33425D01*
X27496Y-33409D01*
X27621Y-33284D01*
X27689Y-33120D01*
X27689Y-32943D01*
X27626Y-32790D01*
X27691Y-32763D01*
X27763Y-32690D01*
X27803Y-32595D01*
X27803Y-35987D01*
X27763Y-35892D01*
X27691Y-35819D01*
X27595Y-35779D01*
X27492Y-35779D01*
X27349Y-35779D01*
X27285Y-35844D01*
X27285Y-36297D01*
X27738Y-36297D01*
X27803Y-36232D01*
X27803Y-35987D01*
X27803Y-36689D01*
X27803Y-36444D01*
X27738Y-36379D01*
X27285Y-36379D01*
X27285Y-36387D01*
X27203Y-36387D01*
X27203Y-36379D01*
X27203Y-36297D01*
X27203Y-35844D01*
X27138Y-35779D01*
X26995Y-35779D01*
X26892Y-35779D01*
X26797Y-35819D01*
X26724Y-35892D01*
X26684Y-35987D01*
X26685Y-36232D01*
X26749Y-36297D01*
X27203Y-36297D01*
X27203Y-36379D01*
X26749Y-36379D01*
X26685Y-36444D01*
X26684Y-36689D01*
X26724Y-36785D01*
X26797Y-36858D01*
X26861Y-36884D01*
X26798Y-37036D01*
X26798Y-37214D01*
X26866Y-37378D01*
X26991Y-37503D01*
X27029Y-37519D01*
X26991Y-37535D01*
X26866Y-37660D01*
X26798Y-37824D01*
X26798Y-38001D01*
X26866Y-38165D01*
X26991Y-38290D01*
X27029Y-38307D01*
X26991Y-38322D01*
X26866Y-38448D01*
X26798Y-38611D01*
X26798Y-38789D01*
X26866Y-38952D01*
X26991Y-39078D01*
X27155Y-39146D01*
X27332Y-39146D01*
X27496Y-39078D01*
X27621Y-38953D01*
X27689Y-38789D01*
X27689Y-38612D01*
X27622Y-38448D01*
X27496Y-38323D01*
X27458Y-38307D01*
X27496Y-38291D01*
X27621Y-38166D01*
X27689Y-38002D01*
X27689Y-37825D01*
X27622Y-37661D01*
X27496Y-37535D01*
X27458Y-37519D01*
X27496Y-37504D01*
X27621Y-37378D01*
X27689Y-37215D01*
X27689Y-37037D01*
X27626Y-36884D01*
X27691Y-36858D01*
X27763Y-36785D01*
X27803Y-36689D01*
X27803Y-39490D01*
X26258Y-39490D01*
X26258Y-30927D01*
X26258Y-30474D01*
X26258Y-30392D01*
X26258Y-29938D01*
X26193Y-29874D01*
X26050Y-29873D01*
X25947Y-29874D01*
X25852Y-29913D01*
X25779Y-29986D01*
X25740Y-30081D01*
X25740Y-30327D01*
X25804Y-30392D01*
X26258Y-30392D01*
X26258Y-30474D01*
X25804Y-30474D01*
X25740Y-30538D01*
X25740Y-30784D01*
X25779Y-30879D01*
X25852Y-30952D01*
X25947Y-30992D01*
X26050Y-30992D01*
X26193Y-30992D01*
X26258Y-30927D01*
X26258Y-39490D01*
X25175Y-39490D01*
X25175Y-20844D01*
X44214Y-20844D01*
X44214Y-39490D01*
M02*
