M48
;DRILL file {Pcbnew (2013-may-18)-stable} date Пт 20 фев 2015 21:20:23
;FORMAT={-:-/ absolute / metric / decimal}
FMAT,2
METRIC,TZ
T1C0.300
T2C0.800
T3C1.000
T4C3.000
%
G90
G05
M71
T1
X69.9Y-66.5
X70.2Y-70.4
X71.8Y-70.4
X71.9Y-66.5
X72.7Y-91.1
X74.7Y-89.1
X75.2Y-53.8
X75.7Y-83.7
X76.Y-69.4
X77.1Y-56.2
X77.8Y-85.2
X78.8Y-79.1
X79.1Y-68.6
X79.6Y-66.5
X80.Y-87.8
X82.4Y-84.4
X82.5Y-96.25
X83.7Y-85.8
X85.2Y-77.1
X85.5Y-90.4
X86.Y-89.6
X86.5Y-63.5
X86.8Y-73.5
X87.4Y-86.7
X87.7Y-64.8
X87.9Y-68.8
X87.9Y-74.2
X88.Y-90.4
X88.5Y-91.2
X88.5Y-92.1
X88.7Y-76.1
X88.9Y-78.7
X89.Y-84.75
X89.2Y-63.6
X89.25Y-80.5
X89.5Y-75.6
X90.Y-92.1
X90.5Y-91.3
X90.7Y-66.7
X91.Y-90.
X91.7Y-72.3
X92.45Y-74.4
X93.1Y-72.5
X93.6Y-86.5
X94.7Y-75.
X95.1Y-80.2
X95.2Y-83.7
X95.5Y-88.
X95.75Y-63.5
X96.5Y-87.5
X96.6Y-98.9
X99.8Y-89.
X99.825Y-82.975
X100.1Y-75.1
X100.2Y-90.1
X100.4Y-76.1
X100.5Y-83.625
X101.Y-71.8
X101.025Y-70.725
X101.1Y-69.2
X101.15Y-84.275
X101.3Y-63.025
X101.5Y-89.25
X101.75Y-86.8
X102.5Y-61.25
X102.5Y-92.3
X102.55Y-65.1
X104.Y-65.1
X104.5Y-76.1
X105.2Y-80.2
X105.45Y-87.5
X108.7Y-78.1
X109.9Y-79.3
T2
X81.9Y-76.46
X81.9Y-81.54
T3
X65.278Y-64.1
X66.8Y-70.3
X66.8Y-73.8
X66.8Y-77.3
X68.778Y-64.1
X69.2Y-81.9
X69.2Y-83.9
X69.2Y-85.9
X69.2Y-87.9
X69.2Y-92.3
X69.2Y-94.3
X69.2Y-96.3
X69.2Y-98.3
X71.078Y-56.2
X72.3Y-74.6
X74.022Y-88.
X74.4Y-94.3
X74.578Y-56.2
X75.2Y-78.478
X75.2Y-81.978
X76.4Y-94.3
X77.522Y-88.
X78.4Y-94.3
X79.1Y-58.7
X80.4Y-94.3
X81.1Y-58.7
X82.4Y-94.3
X83.1Y-58.7
X84.4Y-94.3
X85.1Y-58.7
X87.1Y-58.7
X88.9Y-94.3
X89.1Y-58.7
X90.9Y-94.3
X91.1Y-58.7
X92.9Y-94.3
X93.1Y-58.7
X95.1Y-58.7
X96.2Y-74.85
X97.478Y-96.7
X99.1Y-55.9
X99.8Y-79.4
X100.978Y-96.7
X103.4Y-82.99
X103.4Y-85.53
X103.4Y-88.07
X103.4Y-90.61
X103.6Y-77.4
X106.178Y-96.7
X107.1Y-77.4
X107.53Y-82.99
X107.53Y-85.53
X107.53Y-88.07
X107.53Y-90.61
X109.678Y-96.7
X110.066Y-63.302
X110.066Y-71.303
X110.07Y-82.99
X110.07Y-85.53
X110.07Y-88.07
X110.07Y-90.61
X110.6Y-77.4
T4
X104.Y-56.
X109.5Y-56.
T0
M30
