G04 (created by PCBNEW (2013-may-18)-stable) date Пт 20 фев 2015 21:26:52*
%MOIN*%
G04 Gerber Fmt 3.4, Leading zero omitted, Abs format*
%FSLAX34Y34*%
G01*
G70*
G90*
G04 APERTURE LIST*
%ADD10C,0.00590551*%
%ADD11C,0.012*%
%ADD12C,0.01*%
%ADD13C,0.006*%
%ADD14C,0.0125*%
G04 APERTURE END LIST*
G54D10*
X24899Y-31255D02*
X24899Y-26855D01*
X27699Y-31255D02*
X27699Y-26855D01*
X27699Y-31255D02*
X24899Y-31255D01*
X27699Y-26855D02*
X24899Y-26855D01*
X39965Y-29072D02*
X44365Y-29072D01*
X39965Y-31872D02*
X44365Y-31872D01*
X39965Y-31872D02*
X39965Y-29072D01*
X44365Y-31872D02*
X44365Y-29072D01*
X40555Y-39470D02*
X40555Y-36670D01*
X40555Y-36670D02*
X37555Y-36670D01*
X37555Y-39470D02*
X40555Y-39470D01*
X37555Y-39470D02*
X37555Y-36670D01*
X28206Y-33074D02*
X31006Y-33074D01*
X31006Y-33074D02*
X31006Y-30074D01*
X28206Y-30074D02*
X28206Y-33074D01*
X28206Y-30074D02*
X31006Y-30074D01*
X30161Y-23525D02*
X30161Y-20725D01*
X30161Y-20725D02*
X27161Y-20725D01*
X27161Y-23525D02*
X30161Y-23525D01*
X27161Y-23525D02*
X27161Y-20725D01*
X28342Y-33245D02*
X28342Y-36045D01*
X28342Y-36045D02*
X31342Y-36045D01*
X31342Y-33245D02*
X28342Y-33245D01*
X31342Y-33245D02*
X31342Y-36045D01*
X27877Y-26636D02*
X27877Y-23836D01*
X27877Y-23836D02*
X24877Y-23836D01*
X24877Y-26636D02*
X27877Y-26636D01*
X24877Y-26636D02*
X24877Y-23836D01*
G54D11*
X43834Y-36173D02*
X43834Y-32173D01*
X43834Y-32173D02*
X41834Y-32173D01*
X41834Y-32173D02*
X41834Y-36173D01*
X41834Y-36173D02*
X43834Y-36173D01*
G54D12*
X40208Y-32173D02*
X40208Y-36173D01*
X41208Y-32173D02*
X41208Y-36173D01*
X41208Y-36173D02*
X40208Y-36173D01*
X40208Y-32173D02*
X41208Y-32173D01*
G54D13*
X39791Y-30759D02*
X38791Y-30759D01*
X38791Y-31759D02*
X39791Y-31759D01*
X38791Y-30759D02*
X38791Y-31759D01*
X39791Y-31759D02*
X39791Y-30759D01*
X39515Y-21507D02*
X38515Y-21507D01*
X38515Y-22507D02*
X39515Y-22507D01*
X38515Y-21507D02*
X38515Y-22507D01*
X39515Y-22507D02*
X39515Y-21507D01*
X28964Y-28870D02*
X27964Y-28870D01*
X27964Y-29870D02*
X28964Y-29870D01*
X27964Y-28870D02*
X27964Y-29870D01*
X28964Y-29870D02*
X28964Y-28870D01*
X38374Y-28968D02*
X37374Y-28968D01*
X37374Y-29968D02*
X38374Y-29968D01*
X37374Y-28968D02*
X37374Y-29968D01*
X38374Y-29968D02*
X38374Y-28968D01*
G54D10*
X38228Y-23897D02*
X38228Y-20748D01*
X38228Y-20748D02*
X30354Y-20748D01*
X30354Y-20748D02*
X30354Y-23897D01*
X30354Y-23897D02*
X38228Y-23897D01*
X28503Y-39488D02*
X34015Y-39488D01*
X34015Y-39488D02*
X34015Y-36338D01*
X34015Y-36338D02*
X28503Y-36338D01*
X28503Y-36338D02*
X28503Y-39488D01*
X28031Y-31456D02*
X28031Y-35393D01*
X28031Y-35393D02*
X24881Y-35393D01*
X24881Y-35393D02*
X24881Y-31456D01*
X28031Y-31456D02*
X24881Y-31456D01*
X34212Y-39488D02*
X37362Y-39488D01*
X37362Y-39488D02*
X37362Y-36338D01*
X37362Y-36338D02*
X34212Y-36338D01*
X34212Y-36338D02*
X34212Y-39488D01*
G54D14*
X31244Y-32352D02*
X31244Y-29852D01*
X33244Y-32352D02*
X33244Y-29852D01*
X32244Y-28852D02*
G75*
G02X33244Y-29852I0J-1000D01*
G74*
G01*
X31244Y-29852D02*
G75*
G02X32244Y-28852I1000J0D01*
G74*
G01*
X33244Y-32352D02*
G75*
G02X32244Y-33352I-999J0D01*
G74*
G01*
X32244Y-33352D02*
G75*
G02X31244Y-32352I0J999D01*
G74*
G01*
G54D10*
X43980Y-39470D02*
X43980Y-36670D01*
X43980Y-36670D02*
X40980Y-36670D01*
X40980Y-39470D02*
X43980Y-39470D01*
X40980Y-39470D02*
X40980Y-36670D01*
X28031Y-35551D02*
X28031Y-39488D01*
X28031Y-39488D02*
X24881Y-39488D01*
X24881Y-39488D02*
X24881Y-35551D01*
X28031Y-35551D02*
X24881Y-35551D01*
M02*
