G04 #@! TF.FileFunction,Legend,Top*
%FSLAX46Y46*%
G04 Gerber Fmt 4.6, Leading zero omitted, Abs format (unit mm)*
G04 Created by KiCad (PCBNEW 4.0.3-stable) date Sun Sep  4 14:24:28 2016*
%MOMM*%
%LPD*%
G01*
G04 APERTURE LIST*
%ADD10C,0.100000*%
%ADD11C,0.200000*%
%ADD12C,0.150000*%
%ADD13C,0.010000*%
G04 APERTURE END LIST*
D10*
D11*
X48577500Y-54102000D02*
X48641000Y-54102000D01*
X46863000Y-52387500D02*
X48577500Y-54102000D01*
X54800500Y-53975000D02*
X56515000Y-52260500D01*
X54927500Y-44323000D02*
X56642000Y-46037500D01*
X46990000Y-46164500D02*
X48704500Y-44450000D01*
D12*
X65087500Y-30663500D02*
G75*
G03X65087500Y-30663500I-2286000J0D01*
G01*
X65087500Y-45663500D02*
G75*
G03X65087500Y-45663500I-2286000J0D01*
G01*
X60263201Y-34564541D02*
X58354013Y-32655352D01*
X59202541Y-35625201D02*
X57293352Y-33716013D01*
X58778277Y-33928145D02*
X58601500Y-34104921D01*
X58601500Y-34104921D02*
X58813632Y-34104921D01*
X58601500Y-34458475D02*
X59096475Y-33963500D01*
X58601500Y-33963500D02*
X58354013Y-33716013D01*
X58848987Y-34210987D02*
X58354013Y-34210987D01*
X58354013Y-34210987D02*
X58848987Y-33716013D01*
X58848987Y-33716013D02*
X58848987Y-34210987D01*
X59202541Y-40701799D02*
X57293352Y-42610987D01*
X60263201Y-41762459D02*
X58354013Y-43671648D01*
X58566145Y-42186723D02*
X58742921Y-42363500D01*
X58742921Y-42363500D02*
X58742921Y-42151368D01*
X59096475Y-42363500D02*
X58601500Y-41868525D01*
X58601500Y-42363500D02*
X58354013Y-42610987D01*
X58848987Y-42116013D02*
X58848987Y-42610987D01*
X58848987Y-42610987D02*
X58354013Y-42116013D01*
X58354013Y-42116013D02*
X58848987Y-42116013D01*
X65339799Y-41762459D02*
X67248987Y-43671648D01*
X66400459Y-40701799D02*
X68309648Y-42610987D01*
X66824723Y-42398855D02*
X67001500Y-42222079D01*
X67001500Y-42222079D02*
X66789368Y-42222079D01*
X67001500Y-41868525D02*
X66506525Y-42363500D01*
X67001500Y-42363500D02*
X67248987Y-42610987D01*
X66754013Y-42116013D02*
X67248987Y-42116013D01*
X67248987Y-42116013D02*
X66754013Y-42610987D01*
X66754013Y-42610987D02*
X66754013Y-42116013D01*
X66400459Y-35625201D02*
X68309648Y-33716013D01*
X65339799Y-34564541D02*
X67248987Y-32655352D01*
X67036855Y-34140277D02*
X66860079Y-33963500D01*
X66860079Y-33963500D02*
X66860079Y-34175632D01*
X66506525Y-33963500D02*
X67001500Y-34458475D01*
X67001500Y-33963500D02*
X67248987Y-33716013D01*
X66754013Y-34210987D02*
X66754013Y-33716013D01*
X66754013Y-33716013D02*
X67248987Y-34210987D01*
X67248987Y-34210987D02*
X66754013Y-34210987D01*
X65286388Y-36638596D02*
G75*
G03X65301500Y-39663500I-2484888J-1524904D01*
G01*
X65301500Y-36663500D02*
X65301500Y-39663500D01*
X65319436Y-38163500D02*
G75*
G03X65319436Y-38163500I-2517936J0D01*
G01*
X39305596Y-35805612D02*
G75*
G03X42330500Y-35790500I1524904J-2484888D01*
G01*
X39330500Y-35790500D02*
X42330500Y-35790500D01*
X43348436Y-38290500D02*
G75*
G03X43348436Y-38290500I-2517936J0D01*
G01*
X38292201Y-34691541D02*
X36383013Y-32782352D01*
X37231541Y-35752201D02*
X35322352Y-33843013D01*
X36807277Y-34055145D02*
X36630500Y-34231921D01*
X36630500Y-34231921D02*
X36842632Y-34231921D01*
X36630500Y-34585475D02*
X37125475Y-34090500D01*
X36630500Y-34090500D02*
X36383013Y-33843013D01*
X36877987Y-34337987D02*
X36383013Y-34337987D01*
X36383013Y-34337987D02*
X36877987Y-33843013D01*
X36877987Y-33843013D02*
X36877987Y-34337987D01*
X44429459Y-35752201D02*
X46338648Y-33843013D01*
X43368799Y-34691541D02*
X45277987Y-32782352D01*
X45065855Y-34267277D02*
X44889079Y-34090500D01*
X44889079Y-34090500D02*
X44889079Y-34302632D01*
X44535525Y-34090500D02*
X45030500Y-34585475D01*
X45030500Y-34090500D02*
X45277987Y-33843013D01*
X44783013Y-34337987D02*
X44783013Y-33843013D01*
X44783013Y-33843013D02*
X45277987Y-34337987D01*
X45277987Y-34337987D02*
X44783013Y-34337987D01*
X43368799Y-41889459D02*
X45277987Y-43798648D01*
X44429459Y-40828799D02*
X46338648Y-42737987D01*
X44853723Y-42525855D02*
X45030500Y-42349079D01*
X45030500Y-42349079D02*
X44818368Y-42349079D01*
X45030500Y-41995525D02*
X44535525Y-42490500D01*
X45030500Y-42490500D02*
X45277987Y-42737987D01*
X44783013Y-42243013D02*
X45277987Y-42243013D01*
X45277987Y-42243013D02*
X44783013Y-42737987D01*
X44783013Y-42737987D02*
X44783013Y-42243013D01*
X37231541Y-40828799D02*
X35322352Y-42737987D01*
X38292201Y-41889459D02*
X36383013Y-43798648D01*
X36595145Y-42313723D02*
X36771921Y-42490500D01*
X36771921Y-42490500D02*
X36771921Y-42278368D01*
X37125475Y-42490500D02*
X36630500Y-41995525D01*
X36630500Y-42490500D02*
X36383013Y-42737987D01*
X36877987Y-42243013D02*
X36877987Y-42737987D01*
X36877987Y-42737987D02*
X36383013Y-42243013D01*
X36383013Y-42243013D02*
X36877987Y-42243013D01*
X50616500Y-38290500D02*
G75*
G03X50616500Y-38290500I-2286000J0D01*
G01*
X35616500Y-38290500D02*
G75*
G03X35616500Y-38290500I-2286000J0D01*
G01*
X72460500Y-60134500D02*
G75*
G03X72460500Y-60134500I-2286000J0D01*
G01*
X57460500Y-60134500D02*
G75*
G03X57460500Y-60134500I-2286000J0D01*
G01*
X66273459Y-57596201D02*
X68182648Y-55687013D01*
X65212799Y-56535541D02*
X67121987Y-54626352D01*
X66909855Y-56111277D02*
X66733079Y-55934500D01*
X66733079Y-55934500D02*
X66733079Y-56146632D01*
X66379525Y-55934500D02*
X66874500Y-56429475D01*
X66874500Y-55934500D02*
X67121987Y-55687013D01*
X66627013Y-56181987D02*
X66627013Y-55687013D01*
X66627013Y-55687013D02*
X67121987Y-56181987D01*
X67121987Y-56181987D02*
X66627013Y-56181987D01*
X60136201Y-56535541D02*
X58227013Y-54626352D01*
X59075541Y-57596201D02*
X57166352Y-55687013D01*
X58651277Y-55899145D02*
X58474500Y-56075921D01*
X58474500Y-56075921D02*
X58686632Y-56075921D01*
X58474500Y-56429475D02*
X58969475Y-55934500D01*
X58474500Y-55934500D02*
X58227013Y-55687013D01*
X58721987Y-56181987D02*
X58227013Y-56181987D01*
X58227013Y-56181987D02*
X58721987Y-55687013D01*
X58721987Y-55687013D02*
X58721987Y-56181987D01*
X59075541Y-62672799D02*
X57166352Y-64581987D01*
X60136201Y-63733459D02*
X58227013Y-65642648D01*
X58439145Y-64157723D02*
X58615921Y-64334500D01*
X58615921Y-64334500D02*
X58615921Y-64122368D01*
X58969475Y-64334500D02*
X58474500Y-63839525D01*
X58474500Y-64334500D02*
X58227013Y-64581987D01*
X58721987Y-64087013D02*
X58721987Y-64581987D01*
X58721987Y-64581987D02*
X58227013Y-64087013D01*
X58227013Y-64087013D02*
X58721987Y-64087013D01*
X65212799Y-63733459D02*
X67121987Y-65642648D01*
X66273459Y-62672799D02*
X68182648Y-64581987D01*
X66697723Y-64369855D02*
X66874500Y-64193079D01*
X66874500Y-64193079D02*
X66662368Y-64193079D01*
X66874500Y-63839525D02*
X66379525Y-64334500D01*
X66874500Y-64334500D02*
X67121987Y-64581987D01*
X66627013Y-64087013D02*
X67121987Y-64087013D01*
X67121987Y-64087013D02*
X66627013Y-64581987D01*
X66627013Y-64581987D02*
X66627013Y-64087013D01*
X64199404Y-62619388D02*
G75*
G03X61174500Y-62634500I-1524904J2484888D01*
G01*
X64174500Y-62634500D02*
X61174500Y-62634500D01*
X65192436Y-60134500D02*
G75*
G03X65192436Y-60134500I-2517936J0D01*
G01*
X38218612Y-61786404D02*
G75*
G03X38203500Y-58761500I2484888J1524904D01*
G01*
X38203500Y-61761500D02*
X38203500Y-58761500D01*
X43221436Y-60261500D02*
G75*
G03X43221436Y-60261500I-2517936J0D01*
G01*
X37104541Y-62799799D02*
X35195352Y-64708987D01*
X38165201Y-63860459D02*
X36256013Y-65769648D01*
X36468145Y-64284723D02*
X36644921Y-64461500D01*
X36644921Y-64461500D02*
X36644921Y-64249368D01*
X36998475Y-64461500D02*
X36503500Y-63966525D01*
X36503500Y-64461500D02*
X36256013Y-64708987D01*
X36750987Y-64214013D02*
X36750987Y-64708987D01*
X36750987Y-64708987D02*
X36256013Y-64214013D01*
X36256013Y-64214013D02*
X36750987Y-64214013D01*
X38165201Y-56662541D02*
X36256013Y-54753352D01*
X37104541Y-57723201D02*
X35195352Y-55814013D01*
X36680277Y-56026145D02*
X36503500Y-56202921D01*
X36503500Y-56202921D02*
X36715632Y-56202921D01*
X36503500Y-56556475D02*
X36998475Y-56061500D01*
X36503500Y-56061500D02*
X36256013Y-55814013D01*
X36750987Y-56308987D02*
X36256013Y-56308987D01*
X36256013Y-56308987D02*
X36750987Y-55814013D01*
X36750987Y-55814013D02*
X36750987Y-56308987D01*
X44302459Y-57723201D02*
X46211648Y-55814013D01*
X43241799Y-56662541D02*
X45150987Y-54753352D01*
X44938855Y-56238277D02*
X44762079Y-56061500D01*
X44762079Y-56061500D02*
X44762079Y-56273632D01*
X44408525Y-56061500D02*
X44903500Y-56556475D01*
X44903500Y-56061500D02*
X45150987Y-55814013D01*
X44656013Y-56308987D02*
X44656013Y-55814013D01*
X44656013Y-55814013D02*
X45150987Y-56308987D01*
X45150987Y-56308987D02*
X44656013Y-56308987D01*
X43241799Y-63860459D02*
X45150987Y-65769648D01*
X44302459Y-62799799D02*
X46211648Y-64708987D01*
X44726723Y-64496855D02*
X44903500Y-64320079D01*
X44903500Y-64320079D02*
X44691368Y-64320079D01*
X44903500Y-63966525D02*
X44408525Y-64461500D01*
X44903500Y-64461500D02*
X45150987Y-64708987D01*
X44656013Y-64214013D02*
X45150987Y-64214013D01*
X45150987Y-64214013D02*
X44656013Y-64708987D01*
X44656013Y-64708987D02*
X44656013Y-64214013D01*
X42989500Y-52761500D02*
G75*
G03X42989500Y-52761500I-2286000J0D01*
G01*
X42989500Y-67761500D02*
G75*
G03X42989500Y-67761500I-2286000J0D01*
G01*
D13*
G36*
X49352244Y-50941918D02*
X49407701Y-50969568D01*
X49456648Y-51020480D01*
X49470129Y-51039338D01*
X49484814Y-51064015D01*
X49494342Y-51090816D01*
X49499793Y-51126587D01*
X49502247Y-51178169D01*
X49502786Y-51246267D01*
X49500352Y-51339588D01*
X49491894Y-51409657D01*
X49475674Y-51461931D01*
X49449954Y-51501869D01*
X49412997Y-51534929D01*
X49410282Y-51536886D01*
X49373860Y-51556908D01*
X49330002Y-51566815D01*
X49274224Y-51569257D01*
X49183548Y-51569257D01*
X49183510Y-51657283D01*
X49182666Y-51706308D01*
X49177524Y-51735065D01*
X49164087Y-51752311D01*
X49138358Y-51766808D01*
X49132179Y-51769769D01*
X49103264Y-51783648D01*
X49080876Y-51792414D01*
X49064229Y-51793171D01*
X49052536Y-51783023D01*
X49045010Y-51759073D01*
X49040866Y-51718426D01*
X49039315Y-51658186D01*
X49039571Y-51575455D01*
X49040849Y-51467339D01*
X49041248Y-51435000D01*
X49042685Y-51323524D01*
X49043972Y-51250603D01*
X49183471Y-51250603D01*
X49184255Y-51312499D01*
X49187740Y-51352997D01*
X49195624Y-51379708D01*
X49209605Y-51400244D01*
X49219097Y-51410260D01*
X49257904Y-51439567D01*
X49292263Y-51441952D01*
X49327716Y-51417750D01*
X49328614Y-51416857D01*
X49343039Y-51398153D01*
X49351813Y-51372732D01*
X49356239Y-51333584D01*
X49357618Y-51273697D01*
X49357643Y-51260430D01*
X49354312Y-51177901D01*
X49343469Y-51120691D01*
X49323840Y-51085766D01*
X49294150Y-51070094D01*
X49276991Y-51068514D01*
X49236266Y-51075926D01*
X49208332Y-51100330D01*
X49191517Y-51144980D01*
X49184150Y-51213130D01*
X49183471Y-51250603D01*
X49043972Y-51250603D01*
X49044208Y-51237245D01*
X49046177Y-51172333D01*
X49048950Y-51124958D01*
X49052888Y-51091290D01*
X49058349Y-51067498D01*
X49065692Y-51049753D01*
X49075277Y-51034224D01*
X49079387Y-51028381D01*
X49133905Y-50973185D01*
X49202836Y-50941890D01*
X49282572Y-50933165D01*
X49352244Y-50941918D01*
X49352244Y-50941918D01*
G37*
X49352244Y-50941918D02*
X49407701Y-50969568D01*
X49456648Y-51020480D01*
X49470129Y-51039338D01*
X49484814Y-51064015D01*
X49494342Y-51090816D01*
X49499793Y-51126587D01*
X49502247Y-51178169D01*
X49502786Y-51246267D01*
X49500352Y-51339588D01*
X49491894Y-51409657D01*
X49475674Y-51461931D01*
X49449954Y-51501869D01*
X49412997Y-51534929D01*
X49410282Y-51536886D01*
X49373860Y-51556908D01*
X49330002Y-51566815D01*
X49274224Y-51569257D01*
X49183548Y-51569257D01*
X49183510Y-51657283D01*
X49182666Y-51706308D01*
X49177524Y-51735065D01*
X49164087Y-51752311D01*
X49138358Y-51766808D01*
X49132179Y-51769769D01*
X49103264Y-51783648D01*
X49080876Y-51792414D01*
X49064229Y-51793171D01*
X49052536Y-51783023D01*
X49045010Y-51759073D01*
X49040866Y-51718426D01*
X49039315Y-51658186D01*
X49039571Y-51575455D01*
X49040849Y-51467339D01*
X49041248Y-51435000D01*
X49042685Y-51323524D01*
X49043972Y-51250603D01*
X49183471Y-51250603D01*
X49184255Y-51312499D01*
X49187740Y-51352997D01*
X49195624Y-51379708D01*
X49209605Y-51400244D01*
X49219097Y-51410260D01*
X49257904Y-51439567D01*
X49292263Y-51441952D01*
X49327716Y-51417750D01*
X49328614Y-51416857D01*
X49343039Y-51398153D01*
X49351813Y-51372732D01*
X49356239Y-51333584D01*
X49357618Y-51273697D01*
X49357643Y-51260430D01*
X49354312Y-51177901D01*
X49343469Y-51120691D01*
X49323840Y-51085766D01*
X49294150Y-51070094D01*
X49276991Y-51068514D01*
X49236266Y-51075926D01*
X49208332Y-51100330D01*
X49191517Y-51144980D01*
X49184150Y-51213130D01*
X49183471Y-51250603D01*
X49043972Y-51250603D01*
X49044208Y-51237245D01*
X49046177Y-51172333D01*
X49048950Y-51124958D01*
X49052888Y-51091290D01*
X49058349Y-51067498D01*
X49065692Y-51049753D01*
X49075277Y-51034224D01*
X49079387Y-51028381D01*
X49133905Y-50973185D01*
X49202836Y-50941890D01*
X49282572Y-50933165D01*
X49352244Y-50941918D01*
G36*
X50468593Y-50949780D02*
X50515172Y-50976723D01*
X50547557Y-51003466D01*
X50571242Y-51031484D01*
X50587559Y-51065748D01*
X50597839Y-51111227D01*
X50603414Y-51172892D01*
X50605616Y-51255711D01*
X50605871Y-51315246D01*
X50605871Y-51534391D01*
X50544186Y-51562044D01*
X50482500Y-51589697D01*
X50475243Y-51349670D01*
X50472244Y-51260028D01*
X50469098Y-51194962D01*
X50465201Y-51150026D01*
X50459947Y-51120770D01*
X50452731Y-51102748D01*
X50442950Y-51091511D01*
X50439812Y-51089079D01*
X50392261Y-51070083D01*
X50344197Y-51077600D01*
X50315586Y-51097543D01*
X50303947Y-51111675D01*
X50295891Y-51130220D01*
X50290771Y-51158334D01*
X50287941Y-51201173D01*
X50286756Y-51263895D01*
X50286557Y-51329261D01*
X50286518Y-51411268D01*
X50285114Y-51469316D01*
X50280414Y-51508465D01*
X50270487Y-51533780D01*
X50253403Y-51550323D01*
X50227232Y-51563156D01*
X50192275Y-51576491D01*
X50154096Y-51591007D01*
X50158641Y-51333389D01*
X50160471Y-51240519D01*
X50162612Y-51171889D01*
X50165681Y-51122711D01*
X50170294Y-51088198D01*
X50177068Y-51063562D01*
X50186619Y-51044016D01*
X50198134Y-51026770D01*
X50253690Y-50971680D01*
X50321480Y-50939822D01*
X50395213Y-50932191D01*
X50468593Y-50949780D01*
X50468593Y-50949780D01*
G37*
X50468593Y-50949780D02*
X50515172Y-50976723D01*
X50547557Y-51003466D01*
X50571242Y-51031484D01*
X50587559Y-51065748D01*
X50597839Y-51111227D01*
X50603414Y-51172892D01*
X50605616Y-51255711D01*
X50605871Y-51315246D01*
X50605871Y-51534391D01*
X50544186Y-51562044D01*
X50482500Y-51589697D01*
X50475243Y-51349670D01*
X50472244Y-51260028D01*
X50469098Y-51194962D01*
X50465201Y-51150026D01*
X50459947Y-51120770D01*
X50452731Y-51102748D01*
X50442950Y-51091511D01*
X50439812Y-51089079D01*
X50392261Y-51070083D01*
X50344197Y-51077600D01*
X50315586Y-51097543D01*
X50303947Y-51111675D01*
X50295891Y-51130220D01*
X50290771Y-51158334D01*
X50287941Y-51201173D01*
X50286756Y-51263895D01*
X50286557Y-51329261D01*
X50286518Y-51411268D01*
X50285114Y-51469316D01*
X50280414Y-51508465D01*
X50270487Y-51533780D01*
X50253403Y-51550323D01*
X50227232Y-51563156D01*
X50192275Y-51576491D01*
X50154096Y-51591007D01*
X50158641Y-51333389D01*
X50160471Y-51240519D01*
X50162612Y-51171889D01*
X50165681Y-51122711D01*
X50170294Y-51088198D01*
X50177068Y-51063562D01*
X50186619Y-51044016D01*
X50198134Y-51026770D01*
X50253690Y-50971680D01*
X50321480Y-50939822D01*
X50395213Y-50932191D01*
X50468593Y-50949780D01*
G36*
X48793615Y-50943962D02*
X48861645Y-50979733D01*
X48911851Y-51037301D01*
X48929685Y-51074312D01*
X48943563Y-51129882D01*
X48950667Y-51200096D01*
X48951340Y-51276727D01*
X48945927Y-51351552D01*
X48934770Y-51416342D01*
X48918214Y-51462873D01*
X48913126Y-51470887D01*
X48852855Y-51530707D01*
X48781269Y-51566535D01*
X48703592Y-51577020D01*
X48625048Y-51560810D01*
X48603189Y-51551092D01*
X48560622Y-51521143D01*
X48523263Y-51481433D01*
X48519732Y-51476397D01*
X48505381Y-51452124D01*
X48495894Y-51426178D01*
X48490290Y-51392022D01*
X48487586Y-51343119D01*
X48486799Y-51272935D01*
X48486786Y-51257200D01*
X48486822Y-51252192D01*
X48631929Y-51252192D01*
X48632773Y-51318430D01*
X48636096Y-51362386D01*
X48643083Y-51390779D01*
X48654916Y-51410325D01*
X48660957Y-51416857D01*
X48695686Y-51441680D01*
X48729403Y-51440548D01*
X48763495Y-51419016D01*
X48783829Y-51396029D01*
X48795871Y-51362478D01*
X48802634Y-51309569D01*
X48803098Y-51303399D01*
X48804252Y-51207513D01*
X48792188Y-51136299D01*
X48767070Y-51090194D01*
X48729060Y-51069635D01*
X48715492Y-51068514D01*
X48679864Y-51074152D01*
X48655494Y-51093686D01*
X48640593Y-51131042D01*
X48633375Y-51190150D01*
X48631929Y-51252192D01*
X48486822Y-51252192D01*
X48487326Y-51182413D01*
X48489596Y-51130159D01*
X48494568Y-51093949D01*
X48503213Y-51067299D01*
X48516505Y-51043722D01*
X48519443Y-51039338D01*
X48568813Y-50980249D01*
X48622609Y-50945947D01*
X48688102Y-50932331D01*
X48710342Y-50931665D01*
X48793615Y-50943962D01*
X48793615Y-50943962D01*
G37*
X48793615Y-50943962D02*
X48861645Y-50979733D01*
X48911851Y-51037301D01*
X48929685Y-51074312D01*
X48943563Y-51129882D01*
X48950667Y-51200096D01*
X48951340Y-51276727D01*
X48945927Y-51351552D01*
X48934770Y-51416342D01*
X48918214Y-51462873D01*
X48913126Y-51470887D01*
X48852855Y-51530707D01*
X48781269Y-51566535D01*
X48703592Y-51577020D01*
X48625048Y-51560810D01*
X48603189Y-51551092D01*
X48560622Y-51521143D01*
X48523263Y-51481433D01*
X48519732Y-51476397D01*
X48505381Y-51452124D01*
X48495894Y-51426178D01*
X48490290Y-51392022D01*
X48487586Y-51343119D01*
X48486799Y-51272935D01*
X48486786Y-51257200D01*
X48486822Y-51252192D01*
X48631929Y-51252192D01*
X48632773Y-51318430D01*
X48636096Y-51362386D01*
X48643083Y-51390779D01*
X48654916Y-51410325D01*
X48660957Y-51416857D01*
X48695686Y-51441680D01*
X48729403Y-51440548D01*
X48763495Y-51419016D01*
X48783829Y-51396029D01*
X48795871Y-51362478D01*
X48802634Y-51309569D01*
X48803098Y-51303399D01*
X48804252Y-51207513D01*
X48792188Y-51136299D01*
X48767070Y-51090194D01*
X48729060Y-51069635D01*
X48715492Y-51068514D01*
X48679864Y-51074152D01*
X48655494Y-51093686D01*
X48640593Y-51131042D01*
X48633375Y-51190150D01*
X48631929Y-51252192D01*
X48486822Y-51252192D01*
X48487326Y-51182413D01*
X48489596Y-51130159D01*
X48494568Y-51093949D01*
X48503213Y-51067299D01*
X48516505Y-51043722D01*
X48519443Y-51039338D01*
X48568813Y-50980249D01*
X48622609Y-50945947D01*
X48688102Y-50932331D01*
X48710342Y-50931665D01*
X48793615Y-50943962D01*
G36*
X49920803Y-50953239D02*
X49978027Y-50991735D01*
X50022249Y-51047335D01*
X50048667Y-51118086D01*
X50054010Y-51170162D01*
X50053403Y-51191893D01*
X50048322Y-51208531D01*
X50034355Y-51223437D01*
X50007089Y-51239973D01*
X49962112Y-51261498D01*
X49895011Y-51291374D01*
X49894671Y-51291524D01*
X49832907Y-51319813D01*
X49782259Y-51344933D01*
X49747904Y-51364179D01*
X49735018Y-51374848D01*
X49735014Y-51374934D01*
X49746372Y-51398166D01*
X49772931Y-51423774D01*
X49803423Y-51442221D01*
X49818870Y-51445886D01*
X49861015Y-51433212D01*
X49897308Y-51401471D01*
X49915017Y-51366572D01*
X49932052Y-51340845D01*
X49965422Y-51311546D01*
X50004649Y-51286235D01*
X50039256Y-51272471D01*
X50046493Y-51271714D01*
X50054639Y-51284160D01*
X50055130Y-51315972D01*
X50049143Y-51358866D01*
X50037857Y-51404558D01*
X50022450Y-51444761D01*
X50021671Y-51446322D01*
X49975304Y-51511062D01*
X49915211Y-51555097D01*
X49846965Y-51576711D01*
X49776138Y-51574185D01*
X49708304Y-51545804D01*
X49705288Y-51543808D01*
X49651927Y-51495448D01*
X49616840Y-51432352D01*
X49597422Y-51349387D01*
X49594816Y-51326078D01*
X49590201Y-51216055D01*
X49595733Y-51164748D01*
X49735014Y-51164748D01*
X49736824Y-51196753D01*
X49746722Y-51206093D01*
X49771398Y-51199105D01*
X49810295Y-51182587D01*
X49853775Y-51161881D01*
X49854856Y-51161333D01*
X49891709Y-51141949D01*
X49906500Y-51129013D01*
X49902853Y-51115451D01*
X49887495Y-51097632D01*
X49848423Y-51071845D01*
X49806346Y-51069950D01*
X49768603Y-51088717D01*
X49742534Y-51124915D01*
X49735014Y-51164748D01*
X49595733Y-51164748D01*
X49599694Y-51128027D01*
X49624050Y-51058212D01*
X49657956Y-51009302D01*
X49719153Y-50959878D01*
X49786563Y-50935359D01*
X49855380Y-50933797D01*
X49920803Y-50953239D01*
X49920803Y-50953239D01*
G37*
X49920803Y-50953239D02*
X49978027Y-50991735D01*
X50022249Y-51047335D01*
X50048667Y-51118086D01*
X50054010Y-51170162D01*
X50053403Y-51191893D01*
X50048322Y-51208531D01*
X50034355Y-51223437D01*
X50007089Y-51239973D01*
X49962112Y-51261498D01*
X49895011Y-51291374D01*
X49894671Y-51291524D01*
X49832907Y-51319813D01*
X49782259Y-51344933D01*
X49747904Y-51364179D01*
X49735018Y-51374848D01*
X49735014Y-51374934D01*
X49746372Y-51398166D01*
X49772931Y-51423774D01*
X49803423Y-51442221D01*
X49818870Y-51445886D01*
X49861015Y-51433212D01*
X49897308Y-51401471D01*
X49915017Y-51366572D01*
X49932052Y-51340845D01*
X49965422Y-51311546D01*
X50004649Y-51286235D01*
X50039256Y-51272471D01*
X50046493Y-51271714D01*
X50054639Y-51284160D01*
X50055130Y-51315972D01*
X50049143Y-51358866D01*
X50037857Y-51404558D01*
X50022450Y-51444761D01*
X50021671Y-51446322D01*
X49975304Y-51511062D01*
X49915211Y-51555097D01*
X49846965Y-51576711D01*
X49776138Y-51574185D01*
X49708304Y-51545804D01*
X49705288Y-51543808D01*
X49651927Y-51495448D01*
X49616840Y-51432352D01*
X49597422Y-51349387D01*
X49594816Y-51326078D01*
X49590201Y-51216055D01*
X49595733Y-51164748D01*
X49735014Y-51164748D01*
X49736824Y-51196753D01*
X49746722Y-51206093D01*
X49771398Y-51199105D01*
X49810295Y-51182587D01*
X49853775Y-51161881D01*
X49854856Y-51161333D01*
X49891709Y-51141949D01*
X49906500Y-51129013D01*
X49902853Y-51115451D01*
X49887495Y-51097632D01*
X49848423Y-51071845D01*
X49806346Y-51069950D01*
X49768603Y-51088717D01*
X49742534Y-51124915D01*
X49735014Y-51164748D01*
X49595733Y-51164748D01*
X49599694Y-51128027D01*
X49624050Y-51058212D01*
X49657956Y-51009302D01*
X49719153Y-50959878D01*
X49786563Y-50935359D01*
X49855380Y-50933797D01*
X49920803Y-50953239D01*
G36*
X51128386Y-50873289D02*
X51132639Y-50932613D01*
X51137525Y-50967572D01*
X51144295Y-50982820D01*
X51154202Y-50983015D01*
X51157414Y-50981195D01*
X51200144Y-50968015D01*
X51255727Y-50968785D01*
X51312237Y-50982333D01*
X51347582Y-50999861D01*
X51383821Y-51027861D01*
X51410313Y-51059549D01*
X51428499Y-51099813D01*
X51439822Y-51153543D01*
X51445722Y-51225626D01*
X51447643Y-51320951D01*
X51447677Y-51339237D01*
X51447700Y-51544646D01*
X51401991Y-51560580D01*
X51369527Y-51571420D01*
X51351715Y-51576468D01*
X51351191Y-51576514D01*
X51349437Y-51562828D01*
X51347944Y-51525076D01*
X51346826Y-51468224D01*
X51346197Y-51397234D01*
X51346100Y-51354073D01*
X51345898Y-51268973D01*
X51344858Y-51207981D01*
X51342331Y-51166177D01*
X51337664Y-51138642D01*
X51330207Y-51120456D01*
X51319311Y-51106698D01*
X51312507Y-51100073D01*
X51265772Y-51073375D01*
X51214772Y-51071375D01*
X51168501Y-51093955D01*
X51159944Y-51102107D01*
X51147393Y-51117436D01*
X51138688Y-51135618D01*
X51133131Y-51161909D01*
X51130026Y-51201562D01*
X51128676Y-51259832D01*
X51128386Y-51340173D01*
X51128386Y-51544646D01*
X51082677Y-51560580D01*
X51050213Y-51571420D01*
X51032401Y-51576468D01*
X51031877Y-51576514D01*
X51030537Y-51562623D01*
X51029328Y-51523439D01*
X51028301Y-51462700D01*
X51027502Y-51384141D01*
X51026981Y-51291498D01*
X51026786Y-51188509D01*
X51026786Y-50791342D01*
X51073957Y-50771444D01*
X51121129Y-50751547D01*
X51128386Y-50873289D01*
X51128386Y-50873289D01*
G37*
X51128386Y-50873289D02*
X51132639Y-50932613D01*
X51137525Y-50967572D01*
X51144295Y-50982820D01*
X51154202Y-50983015D01*
X51157414Y-50981195D01*
X51200144Y-50968015D01*
X51255727Y-50968785D01*
X51312237Y-50982333D01*
X51347582Y-50999861D01*
X51383821Y-51027861D01*
X51410313Y-51059549D01*
X51428499Y-51099813D01*
X51439822Y-51153543D01*
X51445722Y-51225626D01*
X51447643Y-51320951D01*
X51447677Y-51339237D01*
X51447700Y-51544646D01*
X51401991Y-51560580D01*
X51369527Y-51571420D01*
X51351715Y-51576468D01*
X51351191Y-51576514D01*
X51349437Y-51562828D01*
X51347944Y-51525076D01*
X51346826Y-51468224D01*
X51346197Y-51397234D01*
X51346100Y-51354073D01*
X51345898Y-51268973D01*
X51344858Y-51207981D01*
X51342331Y-51166177D01*
X51337664Y-51138642D01*
X51330207Y-51120456D01*
X51319311Y-51106698D01*
X51312507Y-51100073D01*
X51265772Y-51073375D01*
X51214772Y-51071375D01*
X51168501Y-51093955D01*
X51159944Y-51102107D01*
X51147393Y-51117436D01*
X51138688Y-51135618D01*
X51133131Y-51161909D01*
X51130026Y-51201562D01*
X51128676Y-51259832D01*
X51128386Y-51340173D01*
X51128386Y-51544646D01*
X51082677Y-51560580D01*
X51050213Y-51571420D01*
X51032401Y-51576468D01*
X51031877Y-51576514D01*
X51030537Y-51562623D01*
X51029328Y-51523439D01*
X51028301Y-51462700D01*
X51027502Y-51384141D01*
X51026981Y-51291498D01*
X51026786Y-51188509D01*
X51026786Y-50791342D01*
X51073957Y-50771444D01*
X51121129Y-50751547D01*
X51128386Y-50873289D01*
G36*
X51792244Y-50972968D02*
X51849116Y-50994087D01*
X51849767Y-50994493D01*
X51884940Y-51020380D01*
X51910907Y-51050633D01*
X51929170Y-51090058D01*
X51941232Y-51143462D01*
X51948596Y-51215651D01*
X51952764Y-51311432D01*
X51953129Y-51325078D01*
X51958376Y-51530842D01*
X51914216Y-51553678D01*
X51882263Y-51569110D01*
X51862970Y-51576423D01*
X51862078Y-51576514D01*
X51858739Y-51563022D01*
X51856087Y-51526626D01*
X51854456Y-51473452D01*
X51854100Y-51430393D01*
X51854092Y-51360641D01*
X51850903Y-51316837D01*
X51839788Y-51295944D01*
X51816001Y-51294925D01*
X51774796Y-51310741D01*
X51712586Y-51339815D01*
X51666841Y-51363963D01*
X51643313Y-51384913D01*
X51636396Y-51407747D01*
X51636386Y-51408877D01*
X51647799Y-51448212D01*
X51681592Y-51469462D01*
X51733309Y-51472539D01*
X51770561Y-51472006D01*
X51790203Y-51482735D01*
X51802452Y-51508505D01*
X51809502Y-51541337D01*
X51799342Y-51559966D01*
X51795517Y-51562632D01*
X51759501Y-51573340D01*
X51709066Y-51574856D01*
X51657126Y-51567759D01*
X51620322Y-51554788D01*
X51569438Y-51511585D01*
X51540514Y-51451446D01*
X51534786Y-51404462D01*
X51539157Y-51362082D01*
X51554975Y-51327488D01*
X51586297Y-51296763D01*
X51637178Y-51265990D01*
X51711676Y-51231252D01*
X51716214Y-51229288D01*
X51783321Y-51198287D01*
X51824732Y-51172862D01*
X51842481Y-51150014D01*
X51838607Y-51126745D01*
X51815143Y-51100056D01*
X51808127Y-51093914D01*
X51761130Y-51070100D01*
X51712433Y-51071103D01*
X51670022Y-51094451D01*
X51641884Y-51137675D01*
X51639269Y-51146160D01*
X51613808Y-51187308D01*
X51581501Y-51207128D01*
X51534786Y-51226770D01*
X51534786Y-51175950D01*
X51548996Y-51102082D01*
X51591175Y-51034327D01*
X51613124Y-51011661D01*
X51663017Y-50982569D01*
X51726467Y-50969400D01*
X51792244Y-50972968D01*
X51792244Y-50972968D01*
G37*
X51792244Y-50972968D02*
X51849116Y-50994087D01*
X51849767Y-50994493D01*
X51884940Y-51020380D01*
X51910907Y-51050633D01*
X51929170Y-51090058D01*
X51941232Y-51143462D01*
X51948596Y-51215651D01*
X51952764Y-51311432D01*
X51953129Y-51325078D01*
X51958376Y-51530842D01*
X51914216Y-51553678D01*
X51882263Y-51569110D01*
X51862970Y-51576423D01*
X51862078Y-51576514D01*
X51858739Y-51563022D01*
X51856087Y-51526626D01*
X51854456Y-51473452D01*
X51854100Y-51430393D01*
X51854092Y-51360641D01*
X51850903Y-51316837D01*
X51839788Y-51295944D01*
X51816001Y-51294925D01*
X51774796Y-51310741D01*
X51712586Y-51339815D01*
X51666841Y-51363963D01*
X51643313Y-51384913D01*
X51636396Y-51407747D01*
X51636386Y-51408877D01*
X51647799Y-51448212D01*
X51681592Y-51469462D01*
X51733309Y-51472539D01*
X51770561Y-51472006D01*
X51790203Y-51482735D01*
X51802452Y-51508505D01*
X51809502Y-51541337D01*
X51799342Y-51559966D01*
X51795517Y-51562632D01*
X51759501Y-51573340D01*
X51709066Y-51574856D01*
X51657126Y-51567759D01*
X51620322Y-51554788D01*
X51569438Y-51511585D01*
X51540514Y-51451446D01*
X51534786Y-51404462D01*
X51539157Y-51362082D01*
X51554975Y-51327488D01*
X51586297Y-51296763D01*
X51637178Y-51265990D01*
X51711676Y-51231252D01*
X51716214Y-51229288D01*
X51783321Y-51198287D01*
X51824732Y-51172862D01*
X51842481Y-51150014D01*
X51838607Y-51126745D01*
X51815143Y-51100056D01*
X51808127Y-51093914D01*
X51761130Y-51070100D01*
X51712433Y-51071103D01*
X51670022Y-51094451D01*
X51641884Y-51137675D01*
X51639269Y-51146160D01*
X51613808Y-51187308D01*
X51581501Y-51207128D01*
X51534786Y-51226770D01*
X51534786Y-51175950D01*
X51548996Y-51102082D01*
X51591175Y-51034327D01*
X51613124Y-51011661D01*
X51663017Y-50982569D01*
X51726467Y-50969400D01*
X51792244Y-50972968D01*
G36*
X52282426Y-50971755D02*
X52348358Y-50996084D01*
X52401773Y-51039117D01*
X52422664Y-51069409D01*
X52445439Y-51124994D01*
X52444966Y-51165186D01*
X52421062Y-51192217D01*
X52412217Y-51196813D01*
X52374030Y-51211144D01*
X52354528Y-51207472D01*
X52347922Y-51183407D01*
X52347586Y-51170114D01*
X52335492Y-51121210D01*
X52303971Y-51086999D01*
X52260159Y-51070476D01*
X52211195Y-51074634D01*
X52171394Y-51096227D01*
X52157950Y-51108544D01*
X52148421Y-51123487D01*
X52141985Y-51146075D01*
X52137817Y-51181328D01*
X52135097Y-51234266D01*
X52133002Y-51309907D01*
X52132460Y-51333857D01*
X52130481Y-51415790D01*
X52128231Y-51473455D01*
X52124857Y-51511608D01*
X52119506Y-51535004D01*
X52111324Y-51548398D01*
X52099459Y-51556545D01*
X52091862Y-51560144D01*
X52059602Y-51572452D01*
X52040611Y-51576514D01*
X52034336Y-51562948D01*
X52030506Y-51521934D01*
X52029100Y-51452999D01*
X52030098Y-51355669D01*
X52030408Y-51340657D01*
X52032601Y-51251859D01*
X52035193Y-51187019D01*
X52038882Y-51141067D01*
X52044364Y-51108935D01*
X52052335Y-51085553D01*
X52063493Y-51065852D01*
X52069330Y-51057410D01*
X52102796Y-51020057D01*
X52140227Y-50991003D01*
X52144809Y-50988467D01*
X52211926Y-50968443D01*
X52282426Y-50971755D01*
X52282426Y-50971755D01*
G37*
X52282426Y-50971755D02*
X52348358Y-50996084D01*
X52401773Y-51039117D01*
X52422664Y-51069409D01*
X52445439Y-51124994D01*
X52444966Y-51165186D01*
X52421062Y-51192217D01*
X52412217Y-51196813D01*
X52374030Y-51211144D01*
X52354528Y-51207472D01*
X52347922Y-51183407D01*
X52347586Y-51170114D01*
X52335492Y-51121210D01*
X52303971Y-51086999D01*
X52260159Y-51070476D01*
X52211195Y-51074634D01*
X52171394Y-51096227D01*
X52157950Y-51108544D01*
X52148421Y-51123487D01*
X52141985Y-51146075D01*
X52137817Y-51181328D01*
X52135097Y-51234266D01*
X52133002Y-51309907D01*
X52132460Y-51333857D01*
X52130481Y-51415790D01*
X52128231Y-51473455D01*
X52124857Y-51511608D01*
X52119506Y-51535004D01*
X52111324Y-51548398D01*
X52099459Y-51556545D01*
X52091862Y-51560144D01*
X52059602Y-51572452D01*
X52040611Y-51576514D01*
X52034336Y-51562948D01*
X52030506Y-51521934D01*
X52029100Y-51452999D01*
X52030098Y-51355669D01*
X52030408Y-51340657D01*
X52032601Y-51251859D01*
X52035193Y-51187019D01*
X52038882Y-51141067D01*
X52044364Y-51108935D01*
X52052335Y-51085553D01*
X52063493Y-51065852D01*
X52069330Y-51057410D01*
X52102796Y-51020057D01*
X52140227Y-50991003D01*
X52144809Y-50988467D01*
X52211926Y-50968443D01*
X52282426Y-50971755D01*
G36*
X52942617Y-51087358D02*
X52942433Y-51195837D01*
X52941719Y-51279287D01*
X52940175Y-51341704D01*
X52937501Y-51387085D01*
X52933394Y-51419429D01*
X52927555Y-51442733D01*
X52919682Y-51460995D01*
X52913721Y-51471418D01*
X52864355Y-51527945D01*
X52801764Y-51563377D01*
X52732513Y-51576090D01*
X52663168Y-51564463D01*
X52621875Y-51543568D01*
X52578525Y-51507422D01*
X52548981Y-51463276D01*
X52531155Y-51405462D01*
X52522963Y-51328313D01*
X52521802Y-51271714D01*
X52521958Y-51267647D01*
X52623357Y-51267647D01*
X52623976Y-51332550D01*
X52626814Y-51375514D01*
X52633340Y-51403622D01*
X52645023Y-51423953D01*
X52658983Y-51439288D01*
X52705865Y-51468890D01*
X52756201Y-51471419D01*
X52803776Y-51446705D01*
X52807479Y-51443356D01*
X52823283Y-51425935D01*
X52833193Y-51405209D01*
X52838558Y-51374362D01*
X52840728Y-51326577D01*
X52841071Y-51273748D01*
X52840327Y-51207381D01*
X52837248Y-51163106D01*
X52830561Y-51134009D01*
X52818996Y-51113173D01*
X52809513Y-51102107D01*
X52765460Y-51074198D01*
X52714724Y-51070843D01*
X52666296Y-51092159D01*
X52656950Y-51100073D01*
X52641040Y-51117647D01*
X52631110Y-51138587D01*
X52625778Y-51169782D01*
X52623663Y-51218122D01*
X52623357Y-51267647D01*
X52521958Y-51267647D01*
X52525310Y-51180568D01*
X52537226Y-51112086D01*
X52559635Y-51060600D01*
X52594624Y-51020443D01*
X52621875Y-50999861D01*
X52671407Y-50977625D01*
X52728816Y-50967304D01*
X52782182Y-50970067D01*
X52812043Y-50981212D01*
X52823761Y-50984383D01*
X52831537Y-50972557D01*
X52836965Y-50940866D01*
X52841071Y-50892593D01*
X52845567Y-50838829D01*
X52851813Y-50806482D01*
X52863176Y-50787985D01*
X52883028Y-50775770D01*
X52895500Y-50770362D01*
X52942671Y-50750601D01*
X52942617Y-51087358D01*
X52942617Y-51087358D01*
G37*
X52942617Y-51087358D02*
X52942433Y-51195837D01*
X52941719Y-51279287D01*
X52940175Y-51341704D01*
X52937501Y-51387085D01*
X52933394Y-51419429D01*
X52927555Y-51442733D01*
X52919682Y-51460995D01*
X52913721Y-51471418D01*
X52864355Y-51527945D01*
X52801764Y-51563377D01*
X52732513Y-51576090D01*
X52663168Y-51564463D01*
X52621875Y-51543568D01*
X52578525Y-51507422D01*
X52548981Y-51463276D01*
X52531155Y-51405462D01*
X52522963Y-51328313D01*
X52521802Y-51271714D01*
X52521958Y-51267647D01*
X52623357Y-51267647D01*
X52623976Y-51332550D01*
X52626814Y-51375514D01*
X52633340Y-51403622D01*
X52645023Y-51423953D01*
X52658983Y-51439288D01*
X52705865Y-51468890D01*
X52756201Y-51471419D01*
X52803776Y-51446705D01*
X52807479Y-51443356D01*
X52823283Y-51425935D01*
X52833193Y-51405209D01*
X52838558Y-51374362D01*
X52840728Y-51326577D01*
X52841071Y-51273748D01*
X52840327Y-51207381D01*
X52837248Y-51163106D01*
X52830561Y-51134009D01*
X52818996Y-51113173D01*
X52809513Y-51102107D01*
X52765460Y-51074198D01*
X52714724Y-51070843D01*
X52666296Y-51092159D01*
X52656950Y-51100073D01*
X52641040Y-51117647D01*
X52631110Y-51138587D01*
X52625778Y-51169782D01*
X52623663Y-51218122D01*
X52623357Y-51267647D01*
X52521958Y-51267647D01*
X52525310Y-51180568D01*
X52537226Y-51112086D01*
X52559635Y-51060600D01*
X52594624Y-51020443D01*
X52621875Y-50999861D01*
X52671407Y-50977625D01*
X52728816Y-50967304D01*
X52782182Y-50970067D01*
X52812043Y-50981212D01*
X52823761Y-50984383D01*
X52831537Y-50972557D01*
X52836965Y-50940866D01*
X52841071Y-50892593D01*
X52845567Y-50838829D01*
X52851813Y-50806482D01*
X52863176Y-50787985D01*
X52883028Y-50775770D01*
X52895500Y-50770362D01*
X52942671Y-50750601D01*
X52942617Y-51087358D01*
G36*
X53532333Y-50980663D02*
X53534548Y-51018850D01*
X53536284Y-51076886D01*
X53537399Y-51150180D01*
X53537757Y-51227055D01*
X53537757Y-51487196D01*
X53491826Y-51533127D01*
X53460175Y-51561429D01*
X53432390Y-51572893D01*
X53394415Y-51572168D01*
X53379340Y-51570321D01*
X53332226Y-51564948D01*
X53293256Y-51561869D01*
X53283757Y-51561585D01*
X53251733Y-51563445D01*
X53205932Y-51568114D01*
X53188174Y-51570321D01*
X53144557Y-51573735D01*
X53115245Y-51566320D01*
X53086180Y-51543427D01*
X53075688Y-51533127D01*
X53029757Y-51487196D01*
X53029757Y-51000602D01*
X53066726Y-50983758D01*
X53098559Y-50971282D01*
X53117183Y-50966914D01*
X53121958Y-50980718D01*
X53126421Y-51019286D01*
X53130275Y-51078356D01*
X53133222Y-51153663D01*
X53134643Y-51217286D01*
X53138614Y-51467657D01*
X53173259Y-51472556D01*
X53204768Y-51469131D01*
X53220208Y-51458041D01*
X53224523Y-51437308D01*
X53228208Y-51393145D01*
X53230969Y-51331146D01*
X53232512Y-51256909D01*
X53232735Y-51218706D01*
X53232957Y-50998783D01*
X53278666Y-50982849D01*
X53311018Y-50972015D01*
X53328615Y-50966962D01*
X53329123Y-50966914D01*
X53330888Y-50980648D01*
X53332829Y-51018730D01*
X53334782Y-51076482D01*
X53336584Y-51149227D01*
X53337843Y-51217286D01*
X53341814Y-51467657D01*
X53428900Y-51467657D01*
X53432896Y-51239240D01*
X53436892Y-51010822D01*
X53479347Y-50988868D01*
X53510692Y-50973793D01*
X53529244Y-50966951D01*
X53529779Y-50966914D01*
X53532333Y-50980663D01*
X53532333Y-50980663D01*
G37*
X53532333Y-50980663D02*
X53534548Y-51018850D01*
X53536284Y-51076886D01*
X53537399Y-51150180D01*
X53537757Y-51227055D01*
X53537757Y-51487196D01*
X53491826Y-51533127D01*
X53460175Y-51561429D01*
X53432390Y-51572893D01*
X53394415Y-51572168D01*
X53379340Y-51570321D01*
X53332226Y-51564948D01*
X53293256Y-51561869D01*
X53283757Y-51561585D01*
X53251733Y-51563445D01*
X53205932Y-51568114D01*
X53188174Y-51570321D01*
X53144557Y-51573735D01*
X53115245Y-51566320D01*
X53086180Y-51543427D01*
X53075688Y-51533127D01*
X53029757Y-51487196D01*
X53029757Y-51000602D01*
X53066726Y-50983758D01*
X53098559Y-50971282D01*
X53117183Y-50966914D01*
X53121958Y-50980718D01*
X53126421Y-51019286D01*
X53130275Y-51078356D01*
X53133222Y-51153663D01*
X53134643Y-51217286D01*
X53138614Y-51467657D01*
X53173259Y-51472556D01*
X53204768Y-51469131D01*
X53220208Y-51458041D01*
X53224523Y-51437308D01*
X53228208Y-51393145D01*
X53230969Y-51331146D01*
X53232512Y-51256909D01*
X53232735Y-51218706D01*
X53232957Y-50998783D01*
X53278666Y-50982849D01*
X53311018Y-50972015D01*
X53328615Y-50966962D01*
X53329123Y-50966914D01*
X53330888Y-50980648D01*
X53332829Y-51018730D01*
X53334782Y-51076482D01*
X53336584Y-51149227D01*
X53337843Y-51217286D01*
X53341814Y-51467657D01*
X53428900Y-51467657D01*
X53432896Y-51239240D01*
X53436892Y-51010822D01*
X53479347Y-50988868D01*
X53510692Y-50973793D01*
X53529244Y-50966951D01*
X53529779Y-50966914D01*
X53532333Y-50980663D01*
G36*
X53897376Y-50978335D02*
X53939167Y-50997344D01*
X53971969Y-51020378D01*
X53996003Y-51046133D01*
X54012597Y-51079358D01*
X54023077Y-51124800D01*
X54028771Y-51187207D01*
X54031007Y-51271327D01*
X54031243Y-51326721D01*
X54031243Y-51542826D01*
X53994274Y-51559670D01*
X53965156Y-51571981D01*
X53950731Y-51576514D01*
X53947972Y-51563025D01*
X53945782Y-51526653D01*
X53944442Y-51473542D01*
X53944157Y-51431372D01*
X53942934Y-51370447D01*
X53939636Y-51322115D01*
X53934821Y-51292518D01*
X53930996Y-51286229D01*
X53905283Y-51292652D01*
X53864918Y-51309125D01*
X53818179Y-51331458D01*
X53773345Y-51355457D01*
X53738693Y-51376930D01*
X53722502Y-51391685D01*
X53722438Y-51391845D01*
X53723830Y-51419152D01*
X53736318Y-51445219D01*
X53758243Y-51466392D01*
X53790243Y-51473474D01*
X53817592Y-51472649D01*
X53856326Y-51472042D01*
X53876658Y-51481116D01*
X53888869Y-51505092D01*
X53890409Y-51509613D01*
X53895703Y-51543806D01*
X53881547Y-51564568D01*
X53844648Y-51574462D01*
X53804789Y-51576292D01*
X53733062Y-51562727D01*
X53695932Y-51543355D01*
X53650076Y-51497845D01*
X53625756Y-51441983D01*
X53623573Y-51382957D01*
X53644129Y-51327953D01*
X53675049Y-51293486D01*
X53705920Y-51274189D01*
X53754442Y-51249759D01*
X53810985Y-51224985D01*
X53820410Y-51221199D01*
X53882519Y-51193791D01*
X53918322Y-51169634D01*
X53929837Y-51145619D01*
X53919080Y-51118635D01*
X53900614Y-51097543D01*
X53856969Y-51071572D01*
X53808946Y-51069624D01*
X53764906Y-51089637D01*
X53733209Y-51129551D01*
X53729049Y-51139848D01*
X53704827Y-51177724D01*
X53669465Y-51205842D01*
X53624843Y-51228917D01*
X53624843Y-51163485D01*
X53627469Y-51123506D01*
X53638730Y-51091997D01*
X53663699Y-51058378D01*
X53687669Y-51032484D01*
X53724941Y-50995817D01*
X53753901Y-50976121D01*
X53785005Y-50968220D01*
X53820213Y-50966914D01*
X53897376Y-50978335D01*
X53897376Y-50978335D01*
G37*
X53897376Y-50978335D02*
X53939167Y-50997344D01*
X53971969Y-51020378D01*
X53996003Y-51046133D01*
X54012597Y-51079358D01*
X54023077Y-51124800D01*
X54028771Y-51187207D01*
X54031007Y-51271327D01*
X54031243Y-51326721D01*
X54031243Y-51542826D01*
X53994274Y-51559670D01*
X53965156Y-51571981D01*
X53950731Y-51576514D01*
X53947972Y-51563025D01*
X53945782Y-51526653D01*
X53944442Y-51473542D01*
X53944157Y-51431372D01*
X53942934Y-51370447D01*
X53939636Y-51322115D01*
X53934821Y-51292518D01*
X53930996Y-51286229D01*
X53905283Y-51292652D01*
X53864918Y-51309125D01*
X53818179Y-51331458D01*
X53773345Y-51355457D01*
X53738693Y-51376930D01*
X53722502Y-51391685D01*
X53722438Y-51391845D01*
X53723830Y-51419152D01*
X53736318Y-51445219D01*
X53758243Y-51466392D01*
X53790243Y-51473474D01*
X53817592Y-51472649D01*
X53856326Y-51472042D01*
X53876658Y-51481116D01*
X53888869Y-51505092D01*
X53890409Y-51509613D01*
X53895703Y-51543806D01*
X53881547Y-51564568D01*
X53844648Y-51574462D01*
X53804789Y-51576292D01*
X53733062Y-51562727D01*
X53695932Y-51543355D01*
X53650076Y-51497845D01*
X53625756Y-51441983D01*
X53623573Y-51382957D01*
X53644129Y-51327953D01*
X53675049Y-51293486D01*
X53705920Y-51274189D01*
X53754442Y-51249759D01*
X53810985Y-51224985D01*
X53820410Y-51221199D01*
X53882519Y-51193791D01*
X53918322Y-51169634D01*
X53929837Y-51145619D01*
X53919080Y-51118635D01*
X53900614Y-51097543D01*
X53856969Y-51071572D01*
X53808946Y-51069624D01*
X53764906Y-51089637D01*
X53733209Y-51129551D01*
X53729049Y-51139848D01*
X53704827Y-51177724D01*
X53669465Y-51205842D01*
X53624843Y-51228917D01*
X53624843Y-51163485D01*
X53627469Y-51123506D01*
X53638730Y-51091997D01*
X53663699Y-51058378D01*
X53687669Y-51032484D01*
X53724941Y-50995817D01*
X53753901Y-50976121D01*
X53785005Y-50968220D01*
X53820213Y-50966914D01*
X53897376Y-50978335D01*
G36*
X54405100Y-50980752D02*
X54422448Y-50988334D01*
X54463856Y-51021128D01*
X54499265Y-51068547D01*
X54521164Y-51119151D01*
X54524729Y-51144098D01*
X54512779Y-51178927D01*
X54486567Y-51197357D01*
X54458464Y-51208516D01*
X54445595Y-51210572D01*
X54439329Y-51195649D01*
X54426956Y-51163175D01*
X54421528Y-51148502D01*
X54391090Y-51097744D01*
X54347020Y-51072427D01*
X54290510Y-51073206D01*
X54286325Y-51074203D01*
X54256155Y-51088507D01*
X54233976Y-51116393D01*
X54218827Y-51161287D01*
X54209750Y-51226615D01*
X54205786Y-51315804D01*
X54205414Y-51363261D01*
X54205230Y-51438071D01*
X54204022Y-51489069D01*
X54200809Y-51521471D01*
X54194609Y-51540495D01*
X54184440Y-51551356D01*
X54169319Y-51559272D01*
X54168446Y-51559670D01*
X54139328Y-51571981D01*
X54124903Y-51576514D01*
X54122686Y-51562809D01*
X54120789Y-51524925D01*
X54119347Y-51467715D01*
X54118498Y-51396027D01*
X54118329Y-51343565D01*
X54119192Y-51242047D01*
X54122570Y-51165032D01*
X54129642Y-51108023D01*
X54141588Y-51066526D01*
X54159590Y-51036043D01*
X54184827Y-51012080D01*
X54209747Y-50995355D01*
X54269671Y-50973097D01*
X54339411Y-50968076D01*
X54405100Y-50980752D01*
X54405100Y-50980752D01*
G37*
X54405100Y-50980752D02*
X54422448Y-50988334D01*
X54463856Y-51021128D01*
X54499265Y-51068547D01*
X54521164Y-51119151D01*
X54524729Y-51144098D01*
X54512779Y-51178927D01*
X54486567Y-51197357D01*
X54458464Y-51208516D01*
X54445595Y-51210572D01*
X54439329Y-51195649D01*
X54426956Y-51163175D01*
X54421528Y-51148502D01*
X54391090Y-51097744D01*
X54347020Y-51072427D01*
X54290510Y-51073206D01*
X54286325Y-51074203D01*
X54256155Y-51088507D01*
X54233976Y-51116393D01*
X54218827Y-51161287D01*
X54209750Y-51226615D01*
X54205786Y-51315804D01*
X54205414Y-51363261D01*
X54205230Y-51438071D01*
X54204022Y-51489069D01*
X54200809Y-51521471D01*
X54194609Y-51540495D01*
X54184440Y-51551356D01*
X54169319Y-51559272D01*
X54168446Y-51559670D01*
X54139328Y-51571981D01*
X54124903Y-51576514D01*
X54122686Y-51562809D01*
X54120789Y-51524925D01*
X54119347Y-51467715D01*
X54118498Y-51396027D01*
X54118329Y-51343565D01*
X54119192Y-51242047D01*
X54122570Y-51165032D01*
X54129642Y-51108023D01*
X54141588Y-51066526D01*
X54159590Y-51036043D01*
X54184827Y-51012080D01*
X54209747Y-50995355D01*
X54269671Y-50973097D01*
X54339411Y-50968076D01*
X54405100Y-50980752D01*
G36*
X54906095Y-50988966D02*
X54963521Y-51026497D01*
X54991219Y-51060096D01*
X55013162Y-51121064D01*
X55014905Y-51169308D01*
X55010957Y-51233816D01*
X54862186Y-51298934D01*
X54789849Y-51332202D01*
X54742584Y-51358964D01*
X54718007Y-51382144D01*
X54713737Y-51404667D01*
X54727389Y-51429455D01*
X54742443Y-51445886D01*
X54786246Y-51472235D01*
X54833889Y-51474081D01*
X54877645Y-51453546D01*
X54909789Y-51412752D01*
X54915538Y-51398347D01*
X54943076Y-51353356D01*
X54974758Y-51334182D01*
X55018214Y-51317779D01*
X55018214Y-51379966D01*
X55014372Y-51422283D01*
X54999323Y-51457969D01*
X54967780Y-51498943D01*
X54963092Y-51504267D01*
X54928006Y-51540720D01*
X54897847Y-51560283D01*
X54860115Y-51569283D01*
X54828835Y-51572230D01*
X54772885Y-51572965D01*
X54733055Y-51563660D01*
X54708208Y-51549846D01*
X54669156Y-51519467D01*
X54642125Y-51486613D01*
X54625017Y-51445294D01*
X54615738Y-51389521D01*
X54612193Y-51313305D01*
X54611910Y-51274622D01*
X54612872Y-51228247D01*
X54700507Y-51228247D01*
X54701523Y-51253126D01*
X54704056Y-51257200D01*
X54720774Y-51251665D01*
X54756749Y-51237017D01*
X54804831Y-51216190D01*
X54814886Y-51211714D01*
X54875652Y-51180814D01*
X54909132Y-51153657D01*
X54916490Y-51128220D01*
X54898891Y-51102481D01*
X54884356Y-51091109D01*
X54831910Y-51068364D01*
X54782822Y-51072122D01*
X54741727Y-51099884D01*
X54713258Y-51149152D01*
X54704131Y-51188257D01*
X54700507Y-51228247D01*
X54612872Y-51228247D01*
X54613785Y-51184249D01*
X54620696Y-51117384D01*
X54634384Y-51068695D01*
X54656596Y-51032849D01*
X54689074Y-51004513D01*
X54703233Y-50995355D01*
X54767553Y-50971507D01*
X54837973Y-50970006D01*
X54906095Y-50988966D01*
X54906095Y-50988966D01*
G37*
X54906095Y-50988966D02*
X54963521Y-51026497D01*
X54991219Y-51060096D01*
X55013162Y-51121064D01*
X55014905Y-51169308D01*
X55010957Y-51233816D01*
X54862186Y-51298934D01*
X54789849Y-51332202D01*
X54742584Y-51358964D01*
X54718007Y-51382144D01*
X54713737Y-51404667D01*
X54727389Y-51429455D01*
X54742443Y-51445886D01*
X54786246Y-51472235D01*
X54833889Y-51474081D01*
X54877645Y-51453546D01*
X54909789Y-51412752D01*
X54915538Y-51398347D01*
X54943076Y-51353356D01*
X54974758Y-51334182D01*
X55018214Y-51317779D01*
X55018214Y-51379966D01*
X55014372Y-51422283D01*
X54999323Y-51457969D01*
X54967780Y-51498943D01*
X54963092Y-51504267D01*
X54928006Y-51540720D01*
X54897847Y-51560283D01*
X54860115Y-51569283D01*
X54828835Y-51572230D01*
X54772885Y-51572965D01*
X54733055Y-51563660D01*
X54708208Y-51549846D01*
X54669156Y-51519467D01*
X54642125Y-51486613D01*
X54625017Y-51445294D01*
X54615738Y-51389521D01*
X54612193Y-51313305D01*
X54611910Y-51274622D01*
X54612872Y-51228247D01*
X54700507Y-51228247D01*
X54701523Y-51253126D01*
X54704056Y-51257200D01*
X54720774Y-51251665D01*
X54756749Y-51237017D01*
X54804831Y-51216190D01*
X54814886Y-51211714D01*
X54875652Y-51180814D01*
X54909132Y-51153657D01*
X54916490Y-51128220D01*
X54898891Y-51102481D01*
X54884356Y-51091109D01*
X54831910Y-51068364D01*
X54782822Y-51072122D01*
X54741727Y-51099884D01*
X54713258Y-51149152D01*
X54704131Y-51188257D01*
X54700507Y-51228247D01*
X54612872Y-51228247D01*
X54613785Y-51184249D01*
X54620696Y-51117384D01*
X54634384Y-51068695D01*
X54656596Y-51032849D01*
X54689074Y-51004513D01*
X54703233Y-50995355D01*
X54767553Y-50971507D01*
X54837973Y-50970006D01*
X54906095Y-50988966D01*
G36*
X51856410Y-46264348D02*
X51934954Y-46264778D01*
X51991798Y-46265942D01*
X52030605Y-46268207D01*
X52055038Y-46271940D01*
X52068762Y-46277506D01*
X52075440Y-46285273D01*
X52078736Y-46295605D01*
X52079056Y-46296943D01*
X52084062Y-46321079D01*
X52093329Y-46368701D01*
X52105892Y-46434741D01*
X52120787Y-46514128D01*
X52137051Y-46601796D01*
X52137619Y-46604875D01*
X52153910Y-46690789D01*
X52169152Y-46766696D01*
X52182361Y-46828045D01*
X52192554Y-46870282D01*
X52198748Y-46888855D01*
X52199043Y-46889184D01*
X52217288Y-46898253D01*
X52254905Y-46913367D01*
X52303771Y-46931262D01*
X52304043Y-46931358D01*
X52365593Y-46954493D01*
X52438157Y-46983965D01*
X52506557Y-47013597D01*
X52509794Y-47015062D01*
X52621202Y-47065626D01*
X52867899Y-46897160D01*
X52943577Y-46845803D01*
X53012131Y-46799889D01*
X53069588Y-46762030D01*
X53111976Y-46734837D01*
X53135325Y-46720921D01*
X53137542Y-46719889D01*
X53154510Y-46724484D01*
X53186201Y-46746655D01*
X53233852Y-46787447D01*
X53298698Y-46847905D01*
X53364897Y-46912227D01*
X53428714Y-46975612D01*
X53485829Y-47033451D01*
X53532805Y-47082175D01*
X53566203Y-47118210D01*
X53582585Y-47137984D01*
X53583194Y-47139002D01*
X53585005Y-47152572D01*
X53578183Y-47174733D01*
X53561040Y-47208478D01*
X53531893Y-47256800D01*
X53489055Y-47322692D01*
X53431948Y-47407517D01*
X53381266Y-47482177D01*
X53335961Y-47549140D01*
X53298650Y-47604516D01*
X53271952Y-47644420D01*
X53258485Y-47664962D01*
X53257637Y-47666356D01*
X53259281Y-47686038D01*
X53271745Y-47724293D01*
X53292548Y-47773889D01*
X53299962Y-47789728D01*
X53332314Y-47860290D01*
X53366828Y-47940353D01*
X53394865Y-48009629D01*
X53415068Y-48061045D01*
X53431115Y-48100119D01*
X53440388Y-48120541D01*
X53441541Y-48122114D01*
X53458596Y-48124721D01*
X53498798Y-48131863D01*
X53556802Y-48142523D01*
X53627263Y-48155685D01*
X53704835Y-48170333D01*
X53784172Y-48185449D01*
X53859931Y-48200018D01*
X53926764Y-48213022D01*
X53979328Y-48223445D01*
X54012276Y-48230270D01*
X54020357Y-48232199D01*
X54028705Y-48236962D01*
X54035006Y-48247718D01*
X54039545Y-48268098D01*
X54042604Y-48301734D01*
X54044467Y-48352255D01*
X54045418Y-48423292D01*
X54045740Y-48518476D01*
X54045757Y-48557492D01*
X54045757Y-48874799D01*
X53969557Y-48889839D01*
X53927163Y-48897995D01*
X53863900Y-48909899D01*
X53787462Y-48924116D01*
X53705543Y-48939210D01*
X53682900Y-48943355D01*
X53607306Y-48958053D01*
X53541453Y-48972505D01*
X53490866Y-48985375D01*
X53461074Y-48995322D01*
X53456112Y-48998287D01*
X53443926Y-49019283D01*
X53426453Y-49059967D01*
X53407077Y-49112322D01*
X53403234Y-49123600D01*
X53377839Y-49193523D01*
X53346317Y-49272418D01*
X53315469Y-49343266D01*
X53315317Y-49343595D01*
X53263947Y-49454733D01*
X53432899Y-49703253D01*
X53601852Y-49951772D01*
X53384929Y-50169058D01*
X53319319Y-50233726D01*
X53259479Y-50290733D01*
X53208767Y-50337033D01*
X53170546Y-50369584D01*
X53148175Y-50385343D01*
X53144966Y-50386343D01*
X53126126Y-50378469D01*
X53087680Y-50356578D01*
X53033830Y-50323267D01*
X52968776Y-50281131D01*
X52898440Y-50233943D01*
X52827055Y-50185810D01*
X52763408Y-50143928D01*
X52711541Y-50110871D01*
X52675495Y-50089218D01*
X52659367Y-50081543D01*
X52639689Y-50088037D01*
X52602375Y-50105150D01*
X52555121Y-50129326D01*
X52550112Y-50132013D01*
X52486477Y-50163927D01*
X52442841Y-50179579D01*
X52415702Y-50179745D01*
X52401557Y-50165204D01*
X52401475Y-50165000D01*
X52394405Y-50147779D01*
X52377542Y-50106899D01*
X52352195Y-50045525D01*
X52319671Y-49966819D01*
X52281278Y-49873947D01*
X52238322Y-49770072D01*
X52196722Y-49669502D01*
X52151004Y-49558516D01*
X52109026Y-49455703D01*
X52072048Y-49364215D01*
X52041327Y-49287201D01*
X52018122Y-49227815D01*
X52003690Y-49189209D01*
X51999243Y-49174800D01*
X52010396Y-49158272D01*
X52039569Y-49131930D01*
X52078471Y-49102887D01*
X52189257Y-49011039D01*
X52275851Y-48905759D01*
X52337216Y-48789266D01*
X52372315Y-48663776D01*
X52380108Y-48531507D01*
X52374443Y-48470457D01*
X52343578Y-48343795D01*
X52290420Y-48231941D01*
X52218267Y-48136001D01*
X52130417Y-48057076D01*
X52030165Y-47996270D01*
X51920810Y-47954687D01*
X51805647Y-47933428D01*
X51687975Y-47933599D01*
X51571090Y-47956301D01*
X51458289Y-48002638D01*
X51352869Y-48073713D01*
X51308868Y-48113911D01*
X51224479Y-48217129D01*
X51165722Y-48329925D01*
X51132204Y-48449010D01*
X51123535Y-48571095D01*
X51139323Y-48692893D01*
X51179178Y-48811116D01*
X51242707Y-48922475D01*
X51329521Y-49023684D01*
X51426529Y-49102887D01*
X51466937Y-49133162D01*
X51495482Y-49159219D01*
X51505757Y-49174825D01*
X51500377Y-49191843D01*
X51485075Y-49232500D01*
X51461112Y-49293642D01*
X51429744Y-49372119D01*
X51392232Y-49464780D01*
X51349833Y-49568472D01*
X51308163Y-49669526D01*
X51262190Y-49780607D01*
X51219607Y-49883541D01*
X51181721Y-49975165D01*
X51149840Y-50052316D01*
X51125271Y-50111831D01*
X51109320Y-50150544D01*
X51103410Y-50165000D01*
X51089448Y-50179685D01*
X51062440Y-50179642D01*
X51018913Y-50164099D01*
X50955390Y-50132284D01*
X50954888Y-50132013D01*
X50907060Y-50107323D01*
X50868397Y-50089338D01*
X50846595Y-50081614D01*
X50845633Y-50081543D01*
X50829221Y-50089378D01*
X50792987Y-50111165D01*
X50740974Y-50144328D01*
X50677225Y-50186291D01*
X50606560Y-50233943D01*
X50534616Y-50282191D01*
X50469774Y-50324151D01*
X50416235Y-50357227D01*
X50378197Y-50378821D01*
X50360033Y-50386343D01*
X50343308Y-50376457D01*
X50309680Y-50348826D01*
X50262510Y-50306495D01*
X50205158Y-50252505D01*
X50140984Y-50189899D01*
X50119997Y-50168983D01*
X49902999Y-49951623D01*
X50068168Y-49709220D01*
X50118364Y-49634781D01*
X50162419Y-49567972D01*
X50197862Y-49512665D01*
X50222219Y-49472729D01*
X50233022Y-49452036D01*
X50233338Y-49450563D01*
X50227643Y-49431058D01*
X50212326Y-49391822D01*
X50190037Y-49339430D01*
X50174393Y-49304355D01*
X50145141Y-49237201D01*
X50117594Y-49169358D01*
X50096237Y-49112034D01*
X50090435Y-49094572D01*
X50073952Y-49047938D01*
X50057840Y-49011905D01*
X50048990Y-48998287D01*
X50029460Y-48989952D01*
X49986834Y-48978137D01*
X49926645Y-48964181D01*
X49854422Y-48949422D01*
X49822100Y-48943355D01*
X49740022Y-48928273D01*
X49661295Y-48913669D01*
X49593609Y-48900980D01*
X49544660Y-48891642D01*
X49535443Y-48889839D01*
X49459243Y-48874799D01*
X49459243Y-48557492D01*
X49459414Y-48453154D01*
X49460116Y-48374213D01*
X49461634Y-48317038D01*
X49464249Y-48277999D01*
X49468246Y-48253465D01*
X49473909Y-48239805D01*
X49481520Y-48233389D01*
X49484643Y-48232199D01*
X49503478Y-48227980D01*
X49545088Y-48219562D01*
X49604130Y-48207961D01*
X49675257Y-48194195D01*
X49753125Y-48179280D01*
X49832387Y-48164232D01*
X49907698Y-48150069D01*
X49973713Y-48137806D01*
X50025087Y-48128461D01*
X50056475Y-48123050D01*
X50063459Y-48122114D01*
X50069785Y-48109596D01*
X50083790Y-48076246D01*
X50102855Y-48028377D01*
X50110134Y-48009629D01*
X50139496Y-47937195D01*
X50174071Y-47857170D01*
X50205037Y-47789728D01*
X50227823Y-47738159D01*
X50242982Y-47695785D01*
X50248042Y-47669834D01*
X50247236Y-47666356D01*
X50236541Y-47649936D01*
X50212120Y-47613417D01*
X50176595Y-47560687D01*
X50132587Y-47495635D01*
X50082717Y-47422151D01*
X50072856Y-47407645D01*
X50014992Y-47321704D01*
X49972456Y-47256261D01*
X49943554Y-47208304D01*
X49926590Y-47174820D01*
X49919867Y-47152795D01*
X49921690Y-47139217D01*
X49921736Y-47139131D01*
X49936086Y-47121297D01*
X49967823Y-47086817D01*
X50013510Y-47039268D01*
X50069704Y-46982222D01*
X50132968Y-46919255D01*
X50140102Y-46912227D01*
X50219830Y-46835020D01*
X50281357Y-46778330D01*
X50325921Y-46741110D01*
X50354757Y-46722315D01*
X50367458Y-46719889D01*
X50385994Y-46730471D01*
X50424461Y-46754916D01*
X50478886Y-46790612D01*
X50545298Y-46834947D01*
X50619725Y-46885311D01*
X50637101Y-46897160D01*
X50883797Y-47065626D01*
X50995206Y-47015062D01*
X51062957Y-46985595D01*
X51135683Y-46955959D01*
X51198203Y-46932330D01*
X51200957Y-46931358D01*
X51249860Y-46913457D01*
X51287557Y-46898320D01*
X51305925Y-46889210D01*
X51305956Y-46889184D01*
X51311785Y-46872717D01*
X51321692Y-46832219D01*
X51334695Y-46772242D01*
X51349809Y-46697340D01*
X51366052Y-46612064D01*
X51367381Y-46604875D01*
X51383675Y-46517014D01*
X51398633Y-46437260D01*
X51411291Y-46370681D01*
X51420686Y-46322347D01*
X51425854Y-46297325D01*
X51425944Y-46296943D01*
X51429089Y-46286299D01*
X51435204Y-46278262D01*
X51447953Y-46272467D01*
X51471000Y-46268547D01*
X51508009Y-46266135D01*
X51562644Y-46264865D01*
X51638567Y-46264371D01*
X51739444Y-46264286D01*
X51752500Y-46264286D01*
X51856410Y-46264348D01*
X51856410Y-46264348D01*
G37*
X51856410Y-46264348D02*
X51934954Y-46264778D01*
X51991798Y-46265942D01*
X52030605Y-46268207D01*
X52055038Y-46271940D01*
X52068762Y-46277506D01*
X52075440Y-46285273D01*
X52078736Y-46295605D01*
X52079056Y-46296943D01*
X52084062Y-46321079D01*
X52093329Y-46368701D01*
X52105892Y-46434741D01*
X52120787Y-46514128D01*
X52137051Y-46601796D01*
X52137619Y-46604875D01*
X52153910Y-46690789D01*
X52169152Y-46766696D01*
X52182361Y-46828045D01*
X52192554Y-46870282D01*
X52198748Y-46888855D01*
X52199043Y-46889184D01*
X52217288Y-46898253D01*
X52254905Y-46913367D01*
X52303771Y-46931262D01*
X52304043Y-46931358D01*
X52365593Y-46954493D01*
X52438157Y-46983965D01*
X52506557Y-47013597D01*
X52509794Y-47015062D01*
X52621202Y-47065626D01*
X52867899Y-46897160D01*
X52943577Y-46845803D01*
X53012131Y-46799889D01*
X53069588Y-46762030D01*
X53111976Y-46734837D01*
X53135325Y-46720921D01*
X53137542Y-46719889D01*
X53154510Y-46724484D01*
X53186201Y-46746655D01*
X53233852Y-46787447D01*
X53298698Y-46847905D01*
X53364897Y-46912227D01*
X53428714Y-46975612D01*
X53485829Y-47033451D01*
X53532805Y-47082175D01*
X53566203Y-47118210D01*
X53582585Y-47137984D01*
X53583194Y-47139002D01*
X53585005Y-47152572D01*
X53578183Y-47174733D01*
X53561040Y-47208478D01*
X53531893Y-47256800D01*
X53489055Y-47322692D01*
X53431948Y-47407517D01*
X53381266Y-47482177D01*
X53335961Y-47549140D01*
X53298650Y-47604516D01*
X53271952Y-47644420D01*
X53258485Y-47664962D01*
X53257637Y-47666356D01*
X53259281Y-47686038D01*
X53271745Y-47724293D01*
X53292548Y-47773889D01*
X53299962Y-47789728D01*
X53332314Y-47860290D01*
X53366828Y-47940353D01*
X53394865Y-48009629D01*
X53415068Y-48061045D01*
X53431115Y-48100119D01*
X53440388Y-48120541D01*
X53441541Y-48122114D01*
X53458596Y-48124721D01*
X53498798Y-48131863D01*
X53556802Y-48142523D01*
X53627263Y-48155685D01*
X53704835Y-48170333D01*
X53784172Y-48185449D01*
X53859931Y-48200018D01*
X53926764Y-48213022D01*
X53979328Y-48223445D01*
X54012276Y-48230270D01*
X54020357Y-48232199D01*
X54028705Y-48236962D01*
X54035006Y-48247718D01*
X54039545Y-48268098D01*
X54042604Y-48301734D01*
X54044467Y-48352255D01*
X54045418Y-48423292D01*
X54045740Y-48518476D01*
X54045757Y-48557492D01*
X54045757Y-48874799D01*
X53969557Y-48889839D01*
X53927163Y-48897995D01*
X53863900Y-48909899D01*
X53787462Y-48924116D01*
X53705543Y-48939210D01*
X53682900Y-48943355D01*
X53607306Y-48958053D01*
X53541453Y-48972505D01*
X53490866Y-48985375D01*
X53461074Y-48995322D01*
X53456112Y-48998287D01*
X53443926Y-49019283D01*
X53426453Y-49059967D01*
X53407077Y-49112322D01*
X53403234Y-49123600D01*
X53377839Y-49193523D01*
X53346317Y-49272418D01*
X53315469Y-49343266D01*
X53315317Y-49343595D01*
X53263947Y-49454733D01*
X53432899Y-49703253D01*
X53601852Y-49951772D01*
X53384929Y-50169058D01*
X53319319Y-50233726D01*
X53259479Y-50290733D01*
X53208767Y-50337033D01*
X53170546Y-50369584D01*
X53148175Y-50385343D01*
X53144966Y-50386343D01*
X53126126Y-50378469D01*
X53087680Y-50356578D01*
X53033830Y-50323267D01*
X52968776Y-50281131D01*
X52898440Y-50233943D01*
X52827055Y-50185810D01*
X52763408Y-50143928D01*
X52711541Y-50110871D01*
X52675495Y-50089218D01*
X52659367Y-50081543D01*
X52639689Y-50088037D01*
X52602375Y-50105150D01*
X52555121Y-50129326D01*
X52550112Y-50132013D01*
X52486477Y-50163927D01*
X52442841Y-50179579D01*
X52415702Y-50179745D01*
X52401557Y-50165204D01*
X52401475Y-50165000D01*
X52394405Y-50147779D01*
X52377542Y-50106899D01*
X52352195Y-50045525D01*
X52319671Y-49966819D01*
X52281278Y-49873947D01*
X52238322Y-49770072D01*
X52196722Y-49669502D01*
X52151004Y-49558516D01*
X52109026Y-49455703D01*
X52072048Y-49364215D01*
X52041327Y-49287201D01*
X52018122Y-49227815D01*
X52003690Y-49189209D01*
X51999243Y-49174800D01*
X52010396Y-49158272D01*
X52039569Y-49131930D01*
X52078471Y-49102887D01*
X52189257Y-49011039D01*
X52275851Y-48905759D01*
X52337216Y-48789266D01*
X52372315Y-48663776D01*
X52380108Y-48531507D01*
X52374443Y-48470457D01*
X52343578Y-48343795D01*
X52290420Y-48231941D01*
X52218267Y-48136001D01*
X52130417Y-48057076D01*
X52030165Y-47996270D01*
X51920810Y-47954687D01*
X51805647Y-47933428D01*
X51687975Y-47933599D01*
X51571090Y-47956301D01*
X51458289Y-48002638D01*
X51352869Y-48073713D01*
X51308868Y-48113911D01*
X51224479Y-48217129D01*
X51165722Y-48329925D01*
X51132204Y-48449010D01*
X51123535Y-48571095D01*
X51139323Y-48692893D01*
X51179178Y-48811116D01*
X51242707Y-48922475D01*
X51329521Y-49023684D01*
X51426529Y-49102887D01*
X51466937Y-49133162D01*
X51495482Y-49159219D01*
X51505757Y-49174825D01*
X51500377Y-49191843D01*
X51485075Y-49232500D01*
X51461112Y-49293642D01*
X51429744Y-49372119D01*
X51392232Y-49464780D01*
X51349833Y-49568472D01*
X51308163Y-49669526D01*
X51262190Y-49780607D01*
X51219607Y-49883541D01*
X51181721Y-49975165D01*
X51149840Y-50052316D01*
X51125271Y-50111831D01*
X51109320Y-50150544D01*
X51103410Y-50165000D01*
X51089448Y-50179685D01*
X51062440Y-50179642D01*
X51018913Y-50164099D01*
X50955390Y-50132284D01*
X50954888Y-50132013D01*
X50907060Y-50107323D01*
X50868397Y-50089338D01*
X50846595Y-50081614D01*
X50845633Y-50081543D01*
X50829221Y-50089378D01*
X50792987Y-50111165D01*
X50740974Y-50144328D01*
X50677225Y-50186291D01*
X50606560Y-50233943D01*
X50534616Y-50282191D01*
X50469774Y-50324151D01*
X50416235Y-50357227D01*
X50378197Y-50378821D01*
X50360033Y-50386343D01*
X50343308Y-50376457D01*
X50309680Y-50348826D01*
X50262510Y-50306495D01*
X50205158Y-50252505D01*
X50140984Y-50189899D01*
X50119997Y-50168983D01*
X49902999Y-49951623D01*
X50068168Y-49709220D01*
X50118364Y-49634781D01*
X50162419Y-49567972D01*
X50197862Y-49512665D01*
X50222219Y-49472729D01*
X50233022Y-49452036D01*
X50233338Y-49450563D01*
X50227643Y-49431058D01*
X50212326Y-49391822D01*
X50190037Y-49339430D01*
X50174393Y-49304355D01*
X50145141Y-49237201D01*
X50117594Y-49169358D01*
X50096237Y-49112034D01*
X50090435Y-49094572D01*
X50073952Y-49047938D01*
X50057840Y-49011905D01*
X50048990Y-48998287D01*
X50029460Y-48989952D01*
X49986834Y-48978137D01*
X49926645Y-48964181D01*
X49854422Y-48949422D01*
X49822100Y-48943355D01*
X49740022Y-48928273D01*
X49661295Y-48913669D01*
X49593609Y-48900980D01*
X49544660Y-48891642D01*
X49535443Y-48889839D01*
X49459243Y-48874799D01*
X49459243Y-48557492D01*
X49459414Y-48453154D01*
X49460116Y-48374213D01*
X49461634Y-48317038D01*
X49464249Y-48277999D01*
X49468246Y-48253465D01*
X49473909Y-48239805D01*
X49481520Y-48233389D01*
X49484643Y-48232199D01*
X49503478Y-48227980D01*
X49545088Y-48219562D01*
X49604130Y-48207961D01*
X49675257Y-48194195D01*
X49753125Y-48179280D01*
X49832387Y-48164232D01*
X49907698Y-48150069D01*
X49973713Y-48137806D01*
X50025087Y-48128461D01*
X50056475Y-48123050D01*
X50063459Y-48122114D01*
X50069785Y-48109596D01*
X50083790Y-48076246D01*
X50102855Y-48028377D01*
X50110134Y-48009629D01*
X50139496Y-47937195D01*
X50174071Y-47857170D01*
X50205037Y-47789728D01*
X50227823Y-47738159D01*
X50242982Y-47695785D01*
X50248042Y-47669834D01*
X50247236Y-47666356D01*
X50236541Y-47649936D01*
X50212120Y-47613417D01*
X50176595Y-47560687D01*
X50132587Y-47495635D01*
X50082717Y-47422151D01*
X50072856Y-47407645D01*
X50014992Y-47321704D01*
X49972456Y-47256261D01*
X49943554Y-47208304D01*
X49926590Y-47174820D01*
X49919867Y-47152795D01*
X49921690Y-47139217D01*
X49921736Y-47139131D01*
X49936086Y-47121297D01*
X49967823Y-47086817D01*
X50013510Y-47039268D01*
X50069704Y-46982222D01*
X50132968Y-46919255D01*
X50140102Y-46912227D01*
X50219830Y-46835020D01*
X50281357Y-46778330D01*
X50325921Y-46741110D01*
X50354757Y-46722315D01*
X50367458Y-46719889D01*
X50385994Y-46730471D01*
X50424461Y-46754916D01*
X50478886Y-46790612D01*
X50545298Y-46834947D01*
X50619725Y-46885311D01*
X50637101Y-46897160D01*
X50883797Y-47065626D01*
X50995206Y-47015062D01*
X51062957Y-46985595D01*
X51135683Y-46955959D01*
X51198203Y-46932330D01*
X51200957Y-46931358D01*
X51249860Y-46913457D01*
X51287557Y-46898320D01*
X51305925Y-46889210D01*
X51305956Y-46889184D01*
X51311785Y-46872717D01*
X51321692Y-46832219D01*
X51334695Y-46772242D01*
X51349809Y-46697340D01*
X51366052Y-46612064D01*
X51367381Y-46604875D01*
X51383675Y-46517014D01*
X51398633Y-46437260D01*
X51411291Y-46370681D01*
X51420686Y-46322347D01*
X51425854Y-46297325D01*
X51425944Y-46296943D01*
X51429089Y-46286299D01*
X51435204Y-46278262D01*
X51447953Y-46272467D01*
X51471000Y-46268547D01*
X51508009Y-46266135D01*
X51562644Y-46264865D01*
X51638567Y-46264371D01*
X51739444Y-46264286D01*
X51752500Y-46264286D01*
X51856410Y-46264348D01*
D12*
X65714595Y-36710881D02*
X65714595Y-35710881D01*
X66286024Y-36710881D02*
X65857452Y-36139452D01*
X66286024Y-35710881D02*
X65714595Y-36282310D01*
X39377881Y-35377405D02*
X38377881Y-35377405D01*
X39377881Y-34805976D02*
X38806452Y-35234548D01*
X38377881Y-34805976D02*
X38949310Y-35377405D01*
X65031881Y-63571405D02*
X64031881Y-63571405D01*
X65031881Y-62999976D02*
X64460452Y-63428548D01*
X64031881Y-62999976D02*
X64603310Y-63571405D01*
X37266595Y-62618881D02*
X37266595Y-61618881D01*
X37838024Y-62618881D02*
X37409452Y-62047452D01*
X37838024Y-61618881D02*
X37266595Y-62190310D01*
M02*
