G04 #@! TF.FileFunction,Copper,L1,Top,Signal*
%FSLAX46Y46*%
G04 Gerber Fmt 4.6, Leading zero omitted, Abs format (unit mm)*
G04 Created by KiCad (PCBNEW 4.0.3-stable) date Sun Sep  4 14:24:28 2016*
%MOMM*%
%LPD*%
G01*
G04 APERTURE LIST*
%ADD10C,0.100000*%
%ADD11C,4.064000*%
%ADD12R,2.235200X2.235200*%
%ADD13R,1.900000X2.000000*%
%ADD14C,1.900000*%
%ADD15R,2.000000X1.900000*%
%ADD16C,0.400000*%
%ADD17C,0.500000*%
G04 APERTURE END LIST*
D10*
D11*
X62801500Y-30663500D03*
X62801500Y-45663500D03*
D12*
X56959500Y-38163500D03*
X68389500Y-39687500D03*
X68389500Y-36639500D03*
D10*
G36*
X57011995Y-33221731D02*
X57859731Y-32373995D01*
X58707467Y-33221731D01*
X57859731Y-34069467D01*
X57011995Y-33221731D01*
X57011995Y-33221731D01*
G37*
G36*
X58495533Y-34705269D02*
X59343269Y-33857533D01*
X60191005Y-34705269D01*
X59343269Y-35553005D01*
X58495533Y-34705269D01*
X58495533Y-34705269D01*
G37*
G36*
X57859731Y-43953005D02*
X57011995Y-43105269D01*
X57859731Y-42257533D01*
X58707467Y-43105269D01*
X57859731Y-43953005D01*
X57859731Y-43953005D01*
G37*
G36*
X59343269Y-42469467D02*
X58495533Y-41621731D01*
X59343269Y-40773995D01*
X60191005Y-41621731D01*
X59343269Y-42469467D01*
X59343269Y-42469467D01*
G37*
G36*
X68591005Y-43105269D02*
X67743269Y-43953005D01*
X66895533Y-43105269D01*
X67743269Y-42257533D01*
X68591005Y-43105269D01*
X68591005Y-43105269D01*
G37*
G36*
X67107467Y-41621731D02*
X66259731Y-42469467D01*
X65411995Y-41621731D01*
X66259731Y-40773995D01*
X67107467Y-41621731D01*
X67107467Y-41621731D01*
G37*
G36*
X67743269Y-32373995D02*
X68591005Y-33221731D01*
X67743269Y-34069467D01*
X66895533Y-33221731D01*
X67743269Y-32373995D01*
X67743269Y-32373995D01*
G37*
G36*
X66259731Y-33857533D02*
X67107467Y-34705269D01*
X66259731Y-35553005D01*
X65411995Y-34705269D01*
X66259731Y-33857533D01*
X66259731Y-33857533D01*
G37*
D13*
X64071500Y-38163500D03*
D14*
X61531500Y-38163500D03*
D15*
X40830500Y-37020500D03*
D14*
X40830500Y-39560500D03*
D10*
G36*
X35040995Y-33348731D02*
X35888731Y-32500995D01*
X36736467Y-33348731D01*
X35888731Y-34196467D01*
X35040995Y-33348731D01*
X35040995Y-33348731D01*
G37*
G36*
X36524533Y-34832269D02*
X37372269Y-33984533D01*
X38220005Y-34832269D01*
X37372269Y-35680005D01*
X36524533Y-34832269D01*
X36524533Y-34832269D01*
G37*
G36*
X45772269Y-32500995D02*
X46620005Y-33348731D01*
X45772269Y-34196467D01*
X44924533Y-33348731D01*
X45772269Y-32500995D01*
X45772269Y-32500995D01*
G37*
G36*
X44288731Y-33984533D02*
X45136467Y-34832269D01*
X44288731Y-35680005D01*
X43440995Y-34832269D01*
X44288731Y-33984533D01*
X44288731Y-33984533D01*
G37*
G36*
X46620005Y-43232269D02*
X45772269Y-44080005D01*
X44924533Y-43232269D01*
X45772269Y-42384533D01*
X46620005Y-43232269D01*
X46620005Y-43232269D01*
G37*
G36*
X45136467Y-41748731D02*
X44288731Y-42596467D01*
X43440995Y-41748731D01*
X44288731Y-40900995D01*
X45136467Y-41748731D01*
X45136467Y-41748731D01*
G37*
G36*
X35888731Y-44080005D02*
X35040995Y-43232269D01*
X35888731Y-42384533D01*
X36736467Y-43232269D01*
X35888731Y-44080005D01*
X35888731Y-44080005D01*
G37*
G36*
X37372269Y-42596467D02*
X36524533Y-41748731D01*
X37372269Y-40900995D01*
X38220005Y-41748731D01*
X37372269Y-42596467D01*
X37372269Y-42596467D01*
G37*
D12*
X39306500Y-32702500D03*
X42354500Y-32702500D03*
X40830500Y-44132500D03*
D11*
X48330500Y-38290500D03*
X33330500Y-38290500D03*
X70174500Y-60134500D03*
X55174500Y-60134500D03*
D12*
X62674500Y-54292500D03*
X61150500Y-65722500D03*
X64198500Y-65722500D03*
D10*
G36*
X67616269Y-54344995D02*
X68464005Y-55192731D01*
X67616269Y-56040467D01*
X66768533Y-55192731D01*
X67616269Y-54344995D01*
X67616269Y-54344995D01*
G37*
G36*
X66132731Y-55828533D02*
X66980467Y-56676269D01*
X66132731Y-57524005D01*
X65284995Y-56676269D01*
X66132731Y-55828533D01*
X66132731Y-55828533D01*
G37*
G36*
X56884995Y-55192731D02*
X57732731Y-54344995D01*
X58580467Y-55192731D01*
X57732731Y-56040467D01*
X56884995Y-55192731D01*
X56884995Y-55192731D01*
G37*
G36*
X58368533Y-56676269D02*
X59216269Y-55828533D01*
X60064005Y-56676269D01*
X59216269Y-57524005D01*
X58368533Y-56676269D01*
X58368533Y-56676269D01*
G37*
G36*
X57732731Y-65924005D02*
X56884995Y-65076269D01*
X57732731Y-64228533D01*
X58580467Y-65076269D01*
X57732731Y-65924005D01*
X57732731Y-65924005D01*
G37*
G36*
X59216269Y-64440467D02*
X58368533Y-63592731D01*
X59216269Y-62744995D01*
X60064005Y-63592731D01*
X59216269Y-64440467D01*
X59216269Y-64440467D01*
G37*
G36*
X68464005Y-65076269D02*
X67616269Y-65924005D01*
X66768533Y-65076269D01*
X67616269Y-64228533D01*
X68464005Y-65076269D01*
X68464005Y-65076269D01*
G37*
G36*
X66980467Y-63592731D02*
X66132731Y-64440467D01*
X65284995Y-63592731D01*
X66132731Y-62744995D01*
X66980467Y-63592731D01*
X66980467Y-63592731D01*
G37*
D15*
X62674500Y-61404500D03*
D14*
X62674500Y-58864500D03*
D13*
X39433500Y-60261500D03*
D14*
X41973500Y-60261500D03*
D10*
G36*
X35761731Y-66051005D02*
X34913995Y-65203269D01*
X35761731Y-64355533D01*
X36609467Y-65203269D01*
X35761731Y-66051005D01*
X35761731Y-66051005D01*
G37*
G36*
X37245269Y-64567467D02*
X36397533Y-63719731D01*
X37245269Y-62871995D01*
X38093005Y-63719731D01*
X37245269Y-64567467D01*
X37245269Y-64567467D01*
G37*
G36*
X34913995Y-55319731D02*
X35761731Y-54471995D01*
X36609467Y-55319731D01*
X35761731Y-56167467D01*
X34913995Y-55319731D01*
X34913995Y-55319731D01*
G37*
G36*
X36397533Y-56803269D02*
X37245269Y-55955533D01*
X38093005Y-56803269D01*
X37245269Y-57651005D01*
X36397533Y-56803269D01*
X36397533Y-56803269D01*
G37*
G36*
X45645269Y-54471995D02*
X46493005Y-55319731D01*
X45645269Y-56167467D01*
X44797533Y-55319731D01*
X45645269Y-54471995D01*
X45645269Y-54471995D01*
G37*
G36*
X44161731Y-55955533D02*
X45009467Y-56803269D01*
X44161731Y-57651005D01*
X43313995Y-56803269D01*
X44161731Y-55955533D01*
X44161731Y-55955533D01*
G37*
G36*
X46493005Y-65203269D02*
X45645269Y-66051005D01*
X44797533Y-65203269D01*
X45645269Y-64355533D01*
X46493005Y-65203269D01*
X46493005Y-65203269D01*
G37*
G36*
X45009467Y-63719731D02*
X44161731Y-64567467D01*
X43313995Y-63719731D01*
X44161731Y-62871995D01*
X45009467Y-63719731D01*
X45009467Y-63719731D01*
G37*
D12*
X35115500Y-61785500D03*
X35115500Y-58737500D03*
X46545500Y-60261500D03*
D11*
X40703500Y-52761500D03*
X40703500Y-67761500D03*
D16*
X60261500Y-40703500D03*
X43370500Y-40830500D03*
X60134500Y-57594500D03*
X43243500Y-57721500D03*
D17*
X67743269Y-43105269D02*
X57859731Y-43105269D01*
X67743269Y-33221731D02*
X57859731Y-33221731D01*
X56959500Y-42227500D02*
X56959500Y-38163500D01*
X57837269Y-43105269D02*
X56959500Y-42227500D01*
X57859731Y-43105269D02*
X57837269Y-43105269D01*
X56959500Y-34121962D02*
X57859731Y-33221731D01*
X56959500Y-38163500D02*
X56959500Y-34121962D01*
X40830500Y-44132500D02*
X36788962Y-44132500D01*
X36788962Y-44132500D02*
X35888731Y-43232269D01*
X45772269Y-43232269D02*
X45772269Y-43254731D01*
X45772269Y-43254731D02*
X44894500Y-44132500D01*
X44894500Y-44132500D02*
X40830500Y-44132500D01*
X35888731Y-33348731D02*
X35888731Y-43232269D01*
X45772269Y-33348731D02*
X45772269Y-43232269D01*
X57732731Y-65076269D02*
X57732731Y-55192731D01*
X67616269Y-65076269D02*
X67616269Y-55192731D01*
X58610500Y-54292500D02*
X62674500Y-54292500D01*
X57732731Y-55170269D02*
X58610500Y-54292500D01*
X57732731Y-55192731D02*
X57732731Y-55170269D01*
X66716038Y-54292500D02*
X67616269Y-55192731D01*
X62674500Y-54292500D02*
X66716038Y-54292500D01*
X46545500Y-60261500D02*
X46545500Y-64303038D01*
X46545500Y-64303038D02*
X45645269Y-65203269D01*
X45645269Y-55319731D02*
X45667731Y-55319731D01*
X45667731Y-55319731D02*
X46545500Y-56197500D01*
X46545500Y-56197500D02*
X46545500Y-60261500D01*
X35761731Y-65203269D02*
X45645269Y-65203269D01*
X35761731Y-55319731D02*
X45645269Y-55319731D01*
X66259731Y-41621731D02*
X59343269Y-41621731D01*
X59343269Y-41621731D02*
X59343269Y-34705269D01*
X59343269Y-34705269D02*
X66259731Y-34705269D01*
X66259731Y-34705269D02*
X66259731Y-41621731D01*
X59343269Y-41621731D02*
X60261500Y-40703500D01*
X44288731Y-41748731D02*
X43370500Y-40830500D01*
X37372269Y-34832269D02*
X44288731Y-34832269D01*
X37372269Y-41748731D02*
X37372269Y-34832269D01*
X44288731Y-41748731D02*
X37372269Y-41748731D01*
X44288731Y-34832269D02*
X44288731Y-41748731D01*
X59216269Y-63592731D02*
X59216269Y-56676269D01*
X59216269Y-56676269D02*
X66132731Y-56676269D01*
X66132731Y-56676269D02*
X66132731Y-63592731D01*
X66132731Y-63592731D02*
X59216269Y-63592731D01*
X59216269Y-56676269D02*
X60134500Y-57594500D01*
X44161731Y-56803269D02*
X43243500Y-57721500D01*
X37245269Y-63719731D02*
X37245269Y-56803269D01*
X44161731Y-63719731D02*
X37245269Y-63719731D01*
X44161731Y-56803269D02*
X44161731Y-63719731D01*
X37245269Y-56803269D02*
X44161731Y-56803269D01*
M02*
