M48
;DRILL file {KiCad 4.0.3-stable} date Sun Sep  4 14:24:30 2016
;FORMAT={-:-/ absolute / inch / decimal}
FMAT,2
INCH,TZ
T1C0.012
T2C0.039
T3C0.040
T4C0.120
%
G90
G05
M72
T1
X1.7025Y-2.2725
X1.7075Y-1.6075
X2.3675Y-2.2675
X2.3725Y-1.6025
T2
X1.5525Y-2.3725
X1.6075Y-1.4575
X1.6075Y-1.5575
X1.6525Y-2.3725
X2.4225Y-1.5025
X2.4675Y-2.3175
X2.4675Y-2.4175
X2.5225Y-1.5025
T3
X1.3825Y-2.3125
X1.3825Y-2.4325
X1.5475Y-1.2875
X1.6075Y-1.7375
X1.6675Y-1.2875
X1.8325Y-2.3725
X2.2425Y-1.5025
X2.4075Y-2.5875
X2.4675Y-2.1375
X2.5275Y-2.5875
X2.6925Y-1.4425
X2.6925Y-1.5625
T4
X1.3122Y-1.5075
X1.6025Y-2.0772
X1.6025Y-2.6678
X1.9028Y-1.5075
X2.1722Y-2.3675
X2.4725Y-1.2072
X2.4725Y-1.7978
X2.7628Y-2.3675
T0
M30
