G04 #@! TF.FileFunction,Copper,L2,Bot,Signal*
%FSLAX46Y46*%
G04 Gerber Fmt 4.6, Leading zero omitted, Abs format (unit mm)*
G04 Created by KiCad (PCBNEW 4.0.3-stable) date Sun Sep  4 14:24:28 2016*
%MOMM*%
%LPD*%
G01*
G04 APERTURE LIST*
%ADD10C,0.100000*%
%ADD11C,4.064000*%
%ADD12R,0.700000X1.300000*%
%ADD13R,2.235200X2.235200*%
%ADD14R,1.900000X2.000000*%
%ADD15C,1.900000*%
%ADD16R,2.000000X1.900000*%
%ADD17R,1.300000X0.700000*%
%ADD18C,0.400000*%
%ADD19C,0.500000*%
G04 APERTURE END LIST*
D10*
D11*
X62801500Y-30663500D03*
X62801500Y-45663500D03*
D12*
X61851500Y-40703500D03*
X63751500Y-40703500D03*
D13*
X56959500Y-38163500D03*
X68389500Y-39687500D03*
X68389500Y-36639500D03*
D14*
X64071500Y-38163500D03*
D15*
X61531500Y-38163500D03*
D16*
X40830500Y-37020500D03*
D15*
X40830500Y-39560500D03*
D13*
X39306500Y-32702500D03*
X42354500Y-32702500D03*
X40830500Y-44132500D03*
D17*
X43370500Y-39240500D03*
X43370500Y-37340500D03*
D11*
X48330500Y-38290500D03*
X33330500Y-38290500D03*
X70174500Y-60134500D03*
X55174500Y-60134500D03*
D17*
X60134500Y-59184500D03*
X60134500Y-61084500D03*
D13*
X62674500Y-54292500D03*
X61150500Y-65722500D03*
X64198500Y-65722500D03*
D16*
X62674500Y-61404500D03*
D15*
X62674500Y-58864500D03*
D14*
X39433500Y-60261500D03*
D15*
X41973500Y-60261500D03*
D13*
X35115500Y-61785500D03*
X35115500Y-58737500D03*
X46545500Y-60261500D03*
D12*
X41653500Y-57721500D03*
X39753500Y-57721500D03*
D11*
X40703500Y-52761500D03*
X40703500Y-67761500D03*
D18*
X60261500Y-40703500D03*
X43370500Y-40830500D03*
X60134500Y-57594500D03*
X43243500Y-57721500D03*
D19*
X64325500Y-36639500D02*
X64071500Y-36893500D01*
X64071500Y-36893500D02*
X64071500Y-38163500D01*
X68389500Y-36639500D02*
X64325500Y-36639500D01*
X39306500Y-32702500D02*
X39306500Y-36766500D01*
X39560500Y-37020500D02*
X40830500Y-37020500D01*
X39306500Y-36766500D02*
X39560500Y-37020500D01*
X64198500Y-61658500D02*
X63944500Y-61404500D01*
X63944500Y-61404500D02*
X62674500Y-61404500D01*
X64198500Y-65722500D02*
X64198500Y-61658500D01*
X35115500Y-61785500D02*
X39179500Y-61785500D01*
X39433500Y-61531500D02*
X39433500Y-60261500D01*
X39179500Y-61785500D02*
X39433500Y-61531500D01*
X61531500Y-38163500D02*
X56959500Y-38163500D01*
X40830500Y-39560500D02*
X40830500Y-44132500D01*
X62674500Y-58864500D02*
X62674500Y-54292500D01*
X41973500Y-60261500D02*
X46545500Y-60261500D01*
X60261500Y-40703500D02*
X61851500Y-40703500D01*
X43370500Y-40830500D02*
X43370500Y-39240500D01*
X60134500Y-57594500D02*
X60134500Y-59184500D01*
X43243500Y-57721500D02*
X41653500Y-57721500D01*
X64579500Y-40703500D02*
X65595500Y-39687500D01*
X65595500Y-39687500D02*
X68389500Y-39687500D01*
X63751500Y-40703500D02*
X64579500Y-40703500D01*
X43370500Y-37340500D02*
X43370500Y-36512500D01*
X42354500Y-35496500D02*
X42354500Y-32702500D01*
X43370500Y-36512500D02*
X42354500Y-35496500D01*
X60134500Y-61912500D02*
X61150500Y-62928500D01*
X61150500Y-62928500D02*
X61150500Y-65722500D01*
X60134500Y-61084500D02*
X60134500Y-61912500D01*
X39753500Y-57721500D02*
X38925500Y-57721500D01*
X37909500Y-58737500D02*
X35115500Y-58737500D01*
X38925500Y-57721500D02*
X37909500Y-58737500D01*
M02*
