G04 (created by PCBNEW (2013-may-18)-stable) date Чт 26 май 2016 23:42:55*
%MOIN*%
G04 Gerber Fmt 3.4, Leading zero omitted, Abs format*
%FSLAX34Y34*%
G01*
G70*
G90*
G04 APERTURE LIST*
%ADD10C,0.00590551*%
%ADD11R,0.0787402X0.0393701*%
%ADD12R,0.0984252X0.0787402*%
%ADD13O,0.0984252X0.0787402*%
%ADD14R,0.0787402X0.0984252*%
%ADD15O,0.0787402X0.0984252*%
%ADD16R,0.06X0.06*%
%ADD17C,0.06*%
%ADD18C,0.16*%
%ADD19R,0.036X0.036*%
%ADD20R,0.02X0.045*%
%ADD21R,0.035X0.055*%
%ADD22R,0.055X0.035*%
%ADD23R,0.03X0.02*%
%ADD24R,0.0276X0.0394*%
%ADD25R,0.0629X0.0709*%
%ADD26C,0.023622*%
%ADD27C,0.0275591*%
%ADD28C,0.023622*%
%ADD29C,0.01*%
%ADD30C,0.00787402*%
G04 APERTURE END LIST*
G54D10*
G54D11*
X36609Y-52740D03*
X36609Y-52150D03*
X36609Y-51559D03*
X34640Y-51559D03*
X34640Y-52150D03*
X34640Y-52740D03*
X40640Y-46759D03*
X40640Y-47350D03*
X40640Y-47940D03*
X42609Y-47940D03*
X42609Y-47350D03*
X42609Y-46759D03*
G54D12*
X35525Y-46200D03*
G54D13*
X35525Y-47200D03*
X35525Y-48200D03*
G54D12*
X41725Y-53300D03*
G54D13*
X41725Y-52300D03*
X41725Y-51300D03*
G54D14*
X38125Y-54550D03*
G54D15*
X39125Y-54550D03*
G54D16*
X39125Y-47750D03*
G54D17*
X38125Y-47750D03*
X39125Y-48750D03*
X38125Y-48750D03*
X39125Y-49750D03*
X38125Y-49750D03*
X39125Y-50750D03*
X38125Y-50750D03*
X39125Y-51750D03*
X38125Y-51750D03*
G54D18*
X35081Y-49750D03*
X42168Y-49750D03*
X55543Y-49725D03*
X48456Y-49725D03*
G54D16*
X52500Y-47725D03*
G54D17*
X51500Y-47725D03*
X52500Y-48725D03*
X51500Y-48725D03*
X52500Y-49725D03*
X51500Y-49725D03*
X52500Y-50725D03*
X51500Y-50725D03*
X52500Y-51725D03*
X51500Y-51725D03*
G54D14*
X51500Y-54525D03*
G54D15*
X52500Y-54525D03*
G54D12*
X55100Y-53275D03*
G54D13*
X55100Y-52275D03*
X55100Y-51275D03*
G54D12*
X48900Y-46175D03*
G54D13*
X48900Y-47175D03*
X48900Y-48175D03*
G54D11*
X54015Y-46734D03*
X54015Y-47325D03*
X54015Y-47915D03*
X55984Y-47915D03*
X55984Y-47325D03*
X55984Y-46734D03*
X49984Y-52715D03*
X49984Y-52125D03*
X49984Y-51534D03*
X48015Y-51534D03*
X48015Y-52125D03*
X48015Y-52715D03*
X63284Y-52765D03*
X63284Y-52175D03*
X63284Y-51584D03*
X61315Y-51584D03*
X61315Y-52175D03*
X61315Y-52765D03*
X67315Y-46784D03*
X67315Y-47375D03*
X67315Y-47965D03*
X69284Y-47965D03*
X69284Y-47375D03*
X69284Y-46784D03*
G54D12*
X62200Y-46225D03*
G54D13*
X62200Y-47225D03*
X62200Y-48225D03*
G54D12*
X68400Y-53325D03*
G54D13*
X68400Y-52325D03*
X68400Y-51325D03*
G54D14*
X64800Y-54575D03*
G54D15*
X65800Y-54575D03*
G54D16*
X65800Y-47775D03*
G54D17*
X64800Y-47775D03*
X65800Y-48775D03*
X64800Y-48775D03*
X65800Y-49775D03*
X64800Y-49775D03*
X65800Y-50775D03*
X64800Y-50775D03*
X65800Y-51775D03*
X64800Y-51775D03*
G54D18*
X61756Y-49775D03*
X68843Y-49775D03*
G54D11*
X40565Y-20009D03*
X40565Y-20600D03*
X40565Y-21190D03*
X42534Y-21190D03*
X42534Y-20600D03*
X42534Y-20009D03*
X36534Y-25990D03*
X36534Y-25400D03*
X36534Y-24809D03*
X34565Y-24809D03*
X34565Y-25400D03*
X34565Y-25990D03*
G54D12*
X41650Y-26550D03*
G54D13*
X41650Y-25550D03*
X41650Y-24550D03*
G54D12*
X35450Y-19450D03*
G54D13*
X35450Y-20450D03*
X35450Y-21450D03*
G54D14*
X39050Y-18200D03*
G54D15*
X38050Y-18200D03*
G54D16*
X38050Y-25000D03*
G54D17*
X39050Y-25000D03*
X38050Y-24000D03*
X39050Y-24000D03*
X38050Y-23000D03*
X39050Y-23000D03*
X38050Y-22000D03*
X39050Y-22000D03*
X38050Y-21000D03*
X39050Y-21000D03*
G54D18*
X42093Y-23000D03*
X35006Y-23000D03*
X48256Y-23025D03*
X55343Y-23025D03*
G54D16*
X51300Y-25025D03*
G54D17*
X52300Y-25025D03*
X51300Y-24025D03*
X52300Y-24025D03*
X51300Y-23025D03*
X52300Y-23025D03*
X51300Y-22025D03*
X52300Y-22025D03*
X51300Y-21025D03*
X52300Y-21025D03*
G54D14*
X52300Y-18225D03*
G54D15*
X51300Y-18225D03*
G54D12*
X48700Y-19475D03*
G54D13*
X48700Y-20475D03*
X48700Y-21475D03*
G54D12*
X54900Y-26575D03*
G54D13*
X54900Y-25575D03*
X54900Y-24575D03*
G54D11*
X49784Y-26015D03*
X49784Y-25425D03*
X49784Y-24834D03*
X47815Y-24834D03*
X47815Y-25425D03*
X47815Y-26015D03*
X53815Y-20034D03*
X53815Y-20625D03*
X53815Y-21215D03*
X55784Y-21215D03*
X55784Y-20625D03*
X55784Y-20034D03*
X67215Y-20159D03*
X67215Y-20750D03*
X67215Y-21340D03*
X69184Y-21340D03*
X69184Y-20750D03*
X69184Y-20159D03*
X63184Y-26140D03*
X63184Y-25550D03*
X63184Y-24959D03*
X61215Y-24959D03*
X61215Y-25550D03*
X61215Y-26140D03*
G54D12*
X68300Y-26700D03*
G54D13*
X68300Y-25700D03*
X68300Y-24700D03*
G54D12*
X62100Y-19600D03*
G54D13*
X62100Y-20600D03*
X62100Y-21600D03*
G54D14*
X65700Y-18350D03*
G54D15*
X64700Y-18350D03*
G54D16*
X64700Y-25150D03*
G54D17*
X65700Y-25150D03*
X64700Y-24150D03*
X65700Y-24150D03*
X64700Y-23150D03*
X65700Y-23150D03*
X64700Y-22150D03*
X65700Y-22150D03*
X64700Y-21150D03*
X65700Y-21150D03*
G54D18*
X68743Y-23150D03*
X61656Y-23150D03*
G54D19*
X54325Y-32750D03*
X54325Y-32050D03*
X55125Y-32400D03*
G54D20*
X60645Y-35840D03*
X61645Y-35840D03*
X62145Y-35840D03*
X62645Y-35840D03*
X63145Y-35840D03*
X63645Y-35840D03*
X64145Y-35840D03*
X64145Y-38340D03*
X63645Y-38340D03*
X63145Y-38340D03*
X62645Y-38340D03*
X62145Y-38340D03*
X61645Y-38340D03*
X61145Y-38340D03*
X60645Y-38340D03*
X61145Y-35840D03*
G54D21*
X62725Y-34700D03*
X63475Y-34700D03*
G54D22*
X54450Y-33825D03*
X54450Y-34575D03*
X53650Y-34575D03*
X53650Y-33825D03*
G54D16*
X51050Y-30950D03*
G54D17*
X52050Y-30950D03*
X53050Y-30950D03*
G54D16*
X58600Y-30950D03*
G54D17*
X57600Y-30950D03*
G54D16*
X51137Y-33367D03*
G54D17*
X50137Y-33367D03*
X51137Y-34367D03*
X50137Y-34367D03*
X51137Y-35367D03*
X50137Y-35367D03*
X51137Y-36367D03*
X50137Y-36367D03*
X51137Y-37367D03*
X50137Y-37367D03*
X51137Y-38367D03*
X50137Y-38367D03*
X51137Y-39367D03*
X50137Y-39367D03*
X51137Y-40367D03*
X50137Y-40367D03*
X51137Y-41367D03*
X50137Y-41367D03*
X51137Y-42367D03*
X50137Y-42367D03*
G54D16*
X66137Y-42367D03*
G54D17*
X67137Y-42367D03*
X66137Y-41367D03*
X67137Y-41367D03*
X66137Y-40367D03*
X67137Y-40367D03*
X66137Y-39367D03*
X67137Y-39367D03*
X66137Y-38367D03*
X67137Y-38367D03*
X66137Y-37367D03*
X67137Y-37367D03*
X66137Y-36367D03*
X67137Y-36367D03*
X66137Y-35367D03*
X67137Y-35367D03*
X66137Y-34367D03*
X67137Y-34367D03*
X66137Y-33367D03*
X67137Y-33367D03*
G54D23*
X53525Y-32825D03*
X53525Y-32075D03*
X52525Y-32825D03*
X53525Y-32450D03*
X52525Y-32075D03*
G54D24*
X63275Y-41400D03*
X63650Y-41400D03*
X64025Y-41400D03*
X64025Y-42400D03*
X63650Y-42400D03*
X63275Y-42400D03*
G54D23*
X56075Y-32075D03*
X56075Y-32825D03*
X57075Y-32075D03*
X56075Y-32450D03*
X57075Y-32825D03*
G54D21*
X61675Y-34700D03*
X60925Y-34700D03*
G54D22*
X52850Y-34575D03*
X52850Y-33825D03*
X63850Y-39825D03*
X63850Y-39075D03*
G54D21*
X56185Y-33580D03*
X56935Y-33580D03*
X58825Y-30000D03*
X58075Y-30000D03*
X56935Y-34360D03*
X56185Y-34360D03*
X51825Y-32100D03*
X51075Y-32100D03*
G54D16*
X54325Y-30950D03*
G54D17*
X55325Y-30950D03*
X56325Y-30950D03*
G54D16*
X62268Y-40500D03*
G54D17*
X63056Y-40500D03*
X63843Y-40500D03*
X64631Y-40500D03*
G54D16*
X69050Y-37800D03*
G54D17*
X70050Y-37800D03*
X69050Y-36800D03*
X70050Y-36800D03*
X69050Y-35800D03*
X70050Y-35800D03*
X69050Y-34800D03*
X70050Y-34800D03*
G54D18*
X69450Y-30970D03*
X69450Y-41600D03*
X47950Y-41600D03*
X47950Y-30970D03*
G54D16*
X65700Y-31400D03*
G54D17*
X65700Y-30400D03*
X64700Y-31400D03*
X64700Y-30400D03*
X63700Y-31400D03*
X63700Y-30400D03*
X62700Y-31400D03*
X62700Y-30400D03*
X61700Y-31400D03*
X61700Y-30400D03*
G54D19*
X55350Y-38850D03*
X55350Y-38150D03*
X56150Y-38500D03*
G54D25*
X60609Y-30000D03*
X59491Y-30000D03*
G54D16*
X48000Y-35150D03*
G54D17*
X48000Y-34150D03*
X48000Y-33150D03*
G54D19*
X52900Y-37450D03*
X52900Y-36750D03*
X53700Y-37100D03*
X55350Y-40450D03*
X55350Y-39750D03*
X56150Y-40100D03*
X57550Y-40450D03*
X57550Y-39750D03*
X58350Y-40100D03*
X57550Y-38900D03*
X57550Y-38200D03*
X58350Y-38550D03*
X52900Y-38950D03*
X52900Y-38250D03*
X53700Y-38600D03*
G54D22*
X52150Y-38225D03*
X52150Y-38975D03*
X52150Y-36725D03*
X52150Y-37475D03*
X52750Y-39825D03*
X52750Y-40575D03*
X53750Y-39875D03*
X53750Y-40625D03*
X56850Y-38175D03*
X56850Y-38925D03*
X56850Y-39725D03*
X56850Y-40475D03*
X54650Y-39725D03*
X54650Y-40475D03*
X54650Y-38125D03*
X54650Y-38875D03*
G54D16*
X48000Y-36350D03*
G54D17*
X48000Y-37350D03*
X48000Y-38350D03*
X48000Y-39350D03*
G54D16*
X60550Y-41500D03*
G54D17*
X59550Y-41500D03*
G54D16*
X69850Y-33100D03*
G54D17*
X68850Y-33100D03*
G54D16*
X53700Y-41500D03*
G54D17*
X52700Y-41500D03*
G54D16*
X55100Y-41500D03*
G54D17*
X56100Y-41500D03*
X57100Y-41500D03*
X58100Y-41500D03*
G54D26*
X53950Y-33250D03*
X60380Y-39410D03*
X70140Y-39930D03*
X62275Y-42400D03*
X56800Y-30000D03*
G54D27*
X39325Y-46550D03*
X52700Y-46525D03*
X66000Y-46575D03*
X37850Y-26200D03*
X51100Y-26225D03*
X64500Y-26350D03*
X40475Y-52300D03*
X53850Y-52275D03*
X67150Y-52325D03*
X36700Y-20450D03*
X49950Y-20475D03*
X63350Y-20600D03*
G54D26*
X58420Y-34190D03*
X58010Y-37940D03*
X59800Y-35660D03*
X56600Y-41000D03*
X54400Y-41500D03*
X51950Y-39450D03*
X52600Y-37850D03*
X65140Y-41200D03*
X61030Y-40510D03*
X61300Y-42300D03*
X61150Y-32940D03*
X60140Y-33950D03*
X59810Y-31600D03*
X58860Y-32550D03*
X56780Y-35730D03*
X55710Y-34360D03*
X50600Y-32100D03*
X63600Y-34000D03*
X60650Y-36400D03*
X64250Y-36350D03*
X55600Y-32425D03*
G54D27*
X40325Y-49000D03*
X53700Y-48975D03*
X67000Y-49025D03*
X36850Y-23750D03*
X50100Y-23775D03*
X63500Y-23900D03*
X39975Y-48800D03*
X53350Y-48775D03*
X66650Y-48825D03*
X37200Y-23950D03*
X50450Y-23975D03*
X63850Y-24100D03*
X40575Y-49300D03*
X53950Y-49275D03*
X67250Y-49325D03*
X36600Y-23450D03*
X49850Y-23475D03*
X63250Y-23600D03*
X33875Y-51550D03*
X47250Y-51525D03*
X60550Y-51575D03*
X43300Y-21200D03*
X56550Y-21225D03*
X69950Y-21350D03*
X33875Y-52600D03*
X47250Y-52575D03*
X60550Y-52625D03*
X43300Y-20150D03*
X56550Y-20175D03*
X69950Y-20300D03*
X33875Y-52150D03*
X47250Y-52125D03*
X60550Y-52175D03*
X43300Y-20600D03*
X56550Y-20625D03*
X69950Y-20750D03*
G54D26*
X64521Y-38172D03*
X61450Y-39600D03*
X57300Y-36750D03*
X57530Y-34450D03*
X62550Y-34000D03*
X62950Y-36350D03*
X62651Y-38802D03*
G54D27*
X40875Y-53300D03*
X40875Y-50200D03*
X54250Y-50175D03*
X54250Y-53275D03*
X67550Y-53325D03*
X67550Y-50225D03*
X36300Y-19450D03*
X36300Y-22550D03*
X49550Y-22575D03*
X49550Y-19475D03*
X62950Y-19600D03*
X62950Y-22700D03*
G54D26*
X56850Y-40100D03*
X55600Y-42700D03*
X57500Y-42700D03*
X57550Y-39300D03*
X54700Y-38500D03*
X55000Y-40050D03*
G54D27*
X43325Y-46900D03*
X56700Y-46875D03*
X70000Y-46925D03*
X33850Y-25850D03*
X47100Y-25875D03*
X60500Y-26000D03*
G54D26*
X65500Y-33150D03*
X65500Y-35100D03*
X66200Y-32750D03*
X64200Y-33400D03*
X64200Y-32500D03*
X67450Y-40850D03*
G54D27*
X43325Y-47350D03*
X56700Y-47325D03*
X70000Y-47375D03*
X33850Y-25400D03*
X47100Y-25425D03*
X60500Y-25550D03*
G54D26*
X69550Y-38350D03*
X69550Y-33900D03*
X66850Y-30000D03*
X68500Y-38500D03*
X68500Y-33850D03*
G54D27*
X43325Y-47950D03*
X56700Y-47925D03*
X70000Y-47975D03*
X33850Y-24800D03*
X47100Y-24825D03*
X60500Y-24950D03*
G54D26*
X61000Y-34100D03*
X61800Y-36350D03*
X51550Y-35850D03*
X49500Y-36150D03*
X63655Y-36342D03*
X61000Y-36850D03*
X51900Y-36200D03*
X55661Y-36550D03*
X56050Y-35900D03*
X59500Y-34900D03*
X60350Y-34700D03*
G54D28*
X39125Y-48750D02*
X39125Y-49250D01*
X38625Y-49250D02*
X39125Y-49250D01*
X39125Y-49250D02*
X39375Y-49250D01*
X41425Y-51300D02*
X41725Y-51300D01*
X39375Y-49250D02*
X41425Y-51300D01*
X36375Y-48200D02*
X35525Y-48200D01*
X37425Y-49250D02*
X36375Y-48200D01*
X38625Y-49250D02*
X37425Y-49250D01*
X52000Y-49225D02*
X50800Y-49225D01*
X50800Y-49225D02*
X49750Y-48175D01*
X49750Y-48175D02*
X48900Y-48175D01*
X52750Y-49225D02*
X54800Y-51275D01*
X54800Y-51275D02*
X55100Y-51275D01*
X52500Y-49225D02*
X52750Y-49225D01*
X52000Y-49225D02*
X52500Y-49225D01*
X52500Y-48725D02*
X52500Y-49225D01*
X65800Y-48775D02*
X65800Y-49275D01*
X65300Y-49275D02*
X65800Y-49275D01*
X65800Y-49275D02*
X66050Y-49275D01*
X68100Y-51325D02*
X68400Y-51325D01*
X66050Y-49275D02*
X68100Y-51325D01*
X63050Y-48225D02*
X62200Y-48225D01*
X64100Y-49275D02*
X63050Y-48225D01*
X65300Y-49275D02*
X64100Y-49275D01*
X38050Y-24000D02*
X38050Y-23500D01*
X38550Y-23500D02*
X38050Y-23500D01*
X38050Y-23500D02*
X37800Y-23500D01*
X35750Y-21450D02*
X35450Y-21450D01*
X37800Y-23500D02*
X35750Y-21450D01*
X40800Y-24550D02*
X41650Y-24550D01*
X39750Y-23500D02*
X40800Y-24550D01*
X38550Y-23500D02*
X39750Y-23500D01*
X51800Y-23525D02*
X53000Y-23525D01*
X53000Y-23525D02*
X54050Y-24575D01*
X54050Y-24575D02*
X54900Y-24575D01*
X51050Y-23525D02*
X49000Y-21475D01*
X49000Y-21475D02*
X48700Y-21475D01*
X51300Y-23525D02*
X51050Y-23525D01*
X51800Y-23525D02*
X51300Y-23525D01*
X51300Y-24025D02*
X51300Y-23525D01*
X64700Y-24150D02*
X64700Y-23650D01*
X65200Y-23650D02*
X64700Y-23650D01*
X64700Y-23650D02*
X64450Y-23650D01*
X62400Y-21600D02*
X62100Y-21600D01*
X64450Y-23650D02*
X62400Y-21600D01*
X67450Y-24700D02*
X68300Y-24700D01*
X66400Y-23650D02*
X67450Y-24700D01*
X65200Y-23650D02*
X66400Y-23650D01*
G54D29*
X50137Y-33367D02*
X49217Y-33367D01*
X49000Y-33150D02*
X48000Y-33150D01*
X49217Y-33367D02*
X49000Y-33150D01*
G54D28*
X52525Y-33175D02*
X52600Y-33250D01*
X52600Y-33250D02*
X53950Y-33250D01*
X52525Y-32825D02*
X52525Y-33175D01*
X61070Y-40100D02*
X61650Y-40100D01*
X60380Y-39410D02*
X61070Y-40100D01*
X70050Y-38760D02*
X70050Y-37800D01*
X70140Y-38850D02*
X70050Y-38760D01*
X70140Y-39930D02*
X70140Y-38850D01*
X61650Y-41775D02*
X62275Y-42400D01*
X61650Y-40100D02*
X61650Y-41775D01*
X61850Y-39900D02*
X61650Y-40100D01*
X62225Y-39900D02*
X61850Y-39900D01*
X63050Y-39075D02*
X62225Y-39900D01*
X63400Y-39075D02*
X63050Y-39075D01*
X63850Y-39075D02*
X63400Y-39075D01*
X63850Y-39075D02*
X63075Y-39075D01*
X63075Y-39075D02*
X63850Y-39075D01*
X62700Y-31400D02*
X62700Y-32500D01*
X64525Y-39075D02*
X63850Y-39075D01*
X65050Y-38550D02*
X64525Y-39075D01*
X65050Y-34850D02*
X65050Y-38550D01*
X62700Y-32500D02*
X65050Y-34850D01*
X50100Y-32200D02*
X50725Y-32825D01*
X50100Y-30650D02*
X50100Y-32200D01*
X50750Y-30000D02*
X50100Y-30650D01*
X51150Y-30000D02*
X50750Y-30000D01*
X56800Y-30000D02*
X51150Y-30000D01*
X52525Y-32825D02*
X50725Y-32825D01*
X50725Y-32825D02*
X50680Y-32825D01*
X50680Y-32825D02*
X50137Y-33367D01*
X38125Y-47750D02*
X39325Y-46550D01*
X51500Y-47725D02*
X52700Y-46525D01*
X64800Y-47775D02*
X66000Y-46575D01*
X39050Y-25000D02*
X37850Y-26200D01*
X52300Y-25025D02*
X51100Y-26225D01*
X65700Y-25150D02*
X64500Y-26350D01*
X40475Y-52300D02*
X41725Y-52300D01*
X53850Y-52275D02*
X55100Y-52275D01*
X67150Y-52325D02*
X68400Y-52325D01*
X36700Y-20450D02*
X35450Y-20450D01*
X49950Y-20475D02*
X48700Y-20475D01*
X63350Y-20600D02*
X62100Y-20600D01*
X56850Y-40475D02*
X56850Y-40900D01*
X56750Y-41000D02*
X56600Y-41000D01*
X56850Y-40900D02*
X56750Y-41000D01*
X54650Y-40475D02*
X54650Y-40850D01*
X54400Y-41100D02*
X54400Y-41500D01*
X54650Y-40850D02*
X54400Y-41100D01*
X52150Y-38975D02*
X52150Y-39250D01*
X52150Y-39250D02*
X51950Y-39450D01*
X52600Y-37475D02*
X52600Y-37850D01*
X56850Y-38925D02*
X57525Y-38925D01*
X57525Y-38925D02*
X57550Y-38900D01*
X56850Y-40475D02*
X57525Y-40475D01*
X57525Y-40475D02*
X57550Y-40450D01*
X54650Y-38875D02*
X55325Y-38875D01*
X55325Y-38875D02*
X55350Y-38850D01*
X54650Y-40475D02*
X55325Y-40475D01*
X55325Y-40475D02*
X55350Y-40450D01*
X52900Y-38950D02*
X52175Y-38950D01*
X52175Y-38950D02*
X52150Y-38975D01*
X52150Y-37475D02*
X52600Y-37475D01*
X52600Y-37475D02*
X52875Y-37475D01*
X52875Y-37475D02*
X52900Y-37450D01*
X56185Y-34360D02*
X55710Y-34360D01*
X61145Y-38340D02*
X61145Y-37754D01*
X61450Y-36559D02*
X61145Y-36254D01*
X61450Y-37450D02*
X61450Y-36559D01*
X61145Y-37754D02*
X61450Y-37450D01*
X51075Y-32100D02*
X50600Y-32100D01*
X63475Y-34700D02*
X63475Y-34125D01*
X63475Y-34125D02*
X63600Y-34000D01*
X61145Y-36254D02*
X61145Y-35840D01*
X61000Y-36400D02*
X61145Y-36254D01*
X60650Y-36400D02*
X61000Y-36400D01*
X64145Y-36245D02*
X64145Y-35840D01*
X64250Y-36350D02*
X64145Y-36245D01*
X61145Y-35840D02*
X61145Y-35454D01*
X61300Y-35300D02*
X63300Y-35300D01*
X61145Y-35454D02*
X61300Y-35300D01*
X63145Y-35840D02*
X63145Y-35454D01*
X64145Y-35445D02*
X64145Y-35840D01*
X64000Y-35300D02*
X64145Y-35445D01*
X63300Y-35300D02*
X64000Y-35300D01*
X63145Y-35454D02*
X63300Y-35300D01*
X52850Y-33825D02*
X51594Y-33825D01*
X51594Y-33825D02*
X51137Y-33367D01*
X52850Y-33825D02*
X53650Y-33825D01*
X53525Y-32450D02*
X53800Y-32450D01*
X53975Y-32050D02*
X54325Y-32050D01*
X53875Y-32150D02*
X53975Y-32050D01*
X53875Y-32375D02*
X53875Y-32150D01*
X53800Y-32450D02*
X53875Y-32375D01*
X56075Y-32450D02*
X55625Y-32450D01*
X55625Y-32450D02*
X55600Y-32425D01*
X54325Y-30950D02*
X54325Y-32050D01*
X63650Y-42400D02*
X63650Y-42145D01*
X62268Y-41718D02*
X62268Y-40500D01*
X62450Y-41900D02*
X62268Y-41718D01*
X63404Y-41900D02*
X62450Y-41900D01*
X63650Y-42145D02*
X63404Y-41900D01*
G54D29*
X50137Y-39367D02*
X50137Y-39362D01*
X51675Y-36725D02*
X52150Y-36725D01*
X51550Y-36850D02*
X51675Y-36725D01*
X50800Y-36850D02*
X51550Y-36850D01*
X50600Y-37050D02*
X50800Y-36850D01*
X50600Y-38900D02*
X50600Y-37050D01*
X50137Y-39362D02*
X50600Y-38900D01*
G54D28*
X52150Y-36725D02*
X52875Y-36725D01*
X52875Y-36725D02*
X52900Y-36750D01*
X52750Y-40575D02*
X53700Y-40575D01*
X53700Y-40575D02*
X53700Y-41500D01*
X40640Y-47940D02*
X40640Y-48684D01*
X40640Y-48684D02*
X40325Y-49000D01*
X39125Y-49750D02*
X38625Y-50250D01*
X37184Y-51559D02*
X36609Y-51559D01*
X37875Y-52250D02*
X37184Y-51559D01*
X38425Y-52250D02*
X37875Y-52250D01*
X38625Y-52050D02*
X38425Y-52250D01*
X38625Y-50250D02*
X38625Y-52050D01*
X52000Y-50225D02*
X52000Y-52025D01*
X52000Y-52025D02*
X51800Y-52225D01*
X51800Y-52225D02*
X51250Y-52225D01*
X51250Y-52225D02*
X50559Y-51534D01*
X50559Y-51534D02*
X49984Y-51534D01*
X52500Y-49725D02*
X52000Y-50225D01*
X54015Y-48659D02*
X53700Y-48975D01*
X54015Y-47915D02*
X54015Y-48659D01*
X67315Y-47965D02*
X67315Y-48709D01*
X67315Y-48709D02*
X67000Y-49025D01*
X65800Y-49775D02*
X65300Y-50275D01*
X63859Y-51584D02*
X63284Y-51584D01*
X64550Y-52275D02*
X63859Y-51584D01*
X65100Y-52275D02*
X64550Y-52275D01*
X65300Y-52075D02*
X65100Y-52275D01*
X65300Y-50275D02*
X65300Y-52075D01*
X36534Y-24809D02*
X36534Y-24065D01*
X36534Y-24065D02*
X36850Y-23750D01*
X38050Y-23000D02*
X38550Y-22500D01*
X39990Y-21190D02*
X40565Y-21190D01*
X39300Y-20500D02*
X39990Y-21190D01*
X38750Y-20500D02*
X39300Y-20500D01*
X38550Y-20700D02*
X38750Y-20500D01*
X38550Y-22500D02*
X38550Y-20700D01*
X51800Y-22525D02*
X51800Y-20725D01*
X51800Y-20725D02*
X52000Y-20525D01*
X52000Y-20525D02*
X52550Y-20525D01*
X52550Y-20525D02*
X53240Y-21215D01*
X53240Y-21215D02*
X53815Y-21215D01*
X51300Y-23025D02*
X51800Y-22525D01*
X49784Y-24090D02*
X50100Y-23775D01*
X49784Y-24834D02*
X49784Y-24090D01*
X63184Y-24959D02*
X63184Y-24215D01*
X63184Y-24215D02*
X63500Y-23900D01*
X64700Y-23150D02*
X65200Y-22650D01*
X66640Y-21340D02*
X67215Y-21340D01*
X65950Y-20650D02*
X66640Y-21340D01*
X65400Y-20650D02*
X65950Y-20650D01*
X65200Y-20850D02*
X65400Y-20650D01*
X65200Y-22650D02*
X65200Y-20850D01*
X53750Y-39875D02*
X53750Y-38650D01*
X53750Y-38650D02*
X53700Y-38600D01*
X40075Y-47350D02*
X40640Y-47350D01*
X39975Y-47450D02*
X40075Y-47350D01*
X39975Y-48800D02*
X39975Y-47450D01*
X36609Y-52150D02*
X36075Y-52150D01*
X37325Y-49750D02*
X38125Y-49750D01*
X35925Y-51150D02*
X37325Y-49750D01*
X35925Y-52000D02*
X35925Y-51150D01*
X36075Y-52150D02*
X35925Y-52000D01*
X49450Y-52125D02*
X49300Y-51975D01*
X49300Y-51975D02*
X49300Y-51125D01*
X49300Y-51125D02*
X50700Y-49725D01*
X50700Y-49725D02*
X51500Y-49725D01*
X49984Y-52125D02*
X49450Y-52125D01*
X53350Y-48775D02*
X53350Y-47425D01*
X53350Y-47425D02*
X53450Y-47325D01*
X53450Y-47325D02*
X54015Y-47325D01*
X66750Y-47375D02*
X67315Y-47375D01*
X66650Y-47475D02*
X66750Y-47375D01*
X66650Y-48825D02*
X66650Y-47475D01*
X63284Y-52175D02*
X62750Y-52175D01*
X64000Y-49775D02*
X64800Y-49775D01*
X62600Y-51175D02*
X64000Y-49775D01*
X62600Y-52025D02*
X62600Y-51175D01*
X62750Y-52175D02*
X62600Y-52025D01*
X37100Y-25400D02*
X36534Y-25400D01*
X37200Y-25300D02*
X37100Y-25400D01*
X37200Y-23950D02*
X37200Y-25300D01*
X40565Y-20600D02*
X41100Y-20600D01*
X39850Y-23000D02*
X39050Y-23000D01*
X41250Y-21600D02*
X39850Y-23000D01*
X41250Y-20750D02*
X41250Y-21600D01*
X41100Y-20600D02*
X41250Y-20750D01*
X54350Y-20625D02*
X54500Y-20775D01*
X54500Y-20775D02*
X54500Y-21625D01*
X54500Y-21625D02*
X53100Y-23025D01*
X53100Y-23025D02*
X52300Y-23025D01*
X53815Y-20625D02*
X54350Y-20625D01*
X50450Y-23975D02*
X50450Y-25325D01*
X50450Y-25325D02*
X50350Y-25425D01*
X50350Y-25425D02*
X49784Y-25425D01*
X63750Y-25550D02*
X63184Y-25550D01*
X63850Y-25450D02*
X63750Y-25550D01*
X63850Y-24100D02*
X63850Y-25450D01*
X67215Y-20750D02*
X67750Y-20750D01*
X66500Y-23150D02*
X65700Y-23150D01*
X67900Y-21750D02*
X66500Y-23150D01*
X67900Y-20900D02*
X67900Y-21750D01*
X67750Y-20750D02*
X67900Y-20900D01*
X53700Y-37100D02*
X53700Y-37800D01*
X52825Y-39825D02*
X52750Y-39825D01*
X53300Y-39350D02*
X52825Y-39825D01*
X53300Y-38200D02*
X53300Y-39350D01*
X53700Y-37800D02*
X53300Y-38200D01*
X41184Y-46759D02*
X40640Y-46759D01*
X41375Y-46950D02*
X41184Y-46759D01*
X41375Y-48500D02*
X41375Y-46950D01*
X40575Y-49300D02*
X41375Y-48500D01*
X39125Y-50750D02*
X39475Y-51100D01*
X38934Y-52740D02*
X36609Y-52740D01*
X39625Y-52050D02*
X38934Y-52740D01*
X39625Y-51250D02*
X39625Y-52050D01*
X39475Y-51100D02*
X39625Y-51250D01*
X52850Y-51075D02*
X53000Y-51225D01*
X53000Y-51225D02*
X53000Y-52025D01*
X53000Y-52025D02*
X52309Y-52715D01*
X52309Y-52715D02*
X49984Y-52715D01*
X52500Y-50725D02*
X52850Y-51075D01*
X53950Y-49275D02*
X54750Y-48475D01*
X54750Y-48475D02*
X54750Y-46925D01*
X54750Y-46925D02*
X54559Y-46734D01*
X54559Y-46734D02*
X54015Y-46734D01*
X67859Y-46784D02*
X67315Y-46784D01*
X68050Y-46975D02*
X67859Y-46784D01*
X68050Y-48525D02*
X68050Y-46975D01*
X67250Y-49325D02*
X68050Y-48525D01*
X65800Y-50775D02*
X66150Y-51125D01*
X65609Y-52765D02*
X63284Y-52765D01*
X66300Y-52075D02*
X65609Y-52765D01*
X66300Y-51275D02*
X66300Y-52075D01*
X66150Y-51125D02*
X66300Y-51275D01*
X35990Y-25990D02*
X36534Y-25990D01*
X35800Y-25800D02*
X35990Y-25990D01*
X35800Y-24250D02*
X35800Y-25800D01*
X36600Y-23450D02*
X35800Y-24250D01*
X38050Y-22000D02*
X37700Y-21650D01*
X38240Y-20009D02*
X40565Y-20009D01*
X37550Y-20700D02*
X38240Y-20009D01*
X37550Y-21500D02*
X37550Y-20700D01*
X37700Y-21650D02*
X37550Y-21500D01*
X50950Y-21675D02*
X50800Y-21525D01*
X50800Y-21525D02*
X50800Y-20725D01*
X50800Y-20725D02*
X51490Y-20034D01*
X51490Y-20034D02*
X53815Y-20034D01*
X51300Y-22025D02*
X50950Y-21675D01*
X49850Y-23475D02*
X49050Y-24275D01*
X49050Y-24275D02*
X49050Y-25825D01*
X49050Y-25825D02*
X49240Y-26015D01*
X49240Y-26015D02*
X49784Y-26015D01*
X62640Y-26140D02*
X63184Y-26140D01*
X62450Y-25950D02*
X62640Y-26140D01*
X62450Y-24400D02*
X62450Y-25950D01*
X63250Y-23600D02*
X62450Y-24400D01*
X64700Y-22150D02*
X64350Y-21800D01*
X64890Y-20159D02*
X67215Y-20159D01*
X64200Y-20850D02*
X64890Y-20159D01*
X64200Y-21650D02*
X64200Y-20850D01*
X64350Y-21800D02*
X64200Y-21650D01*
X34640Y-51559D02*
X33884Y-51559D01*
X33884Y-51559D02*
X33875Y-51550D01*
X47259Y-51534D02*
X47250Y-51525D01*
X48015Y-51534D02*
X47259Y-51534D01*
X61315Y-51584D02*
X60559Y-51584D01*
X60559Y-51584D02*
X60550Y-51575D01*
X42534Y-21190D02*
X43290Y-21190D01*
X43290Y-21190D02*
X43300Y-21200D01*
X56540Y-21215D02*
X56550Y-21225D01*
X55784Y-21215D02*
X56540Y-21215D01*
X69184Y-21340D02*
X69940Y-21340D01*
X69940Y-21340D02*
X69950Y-21350D01*
G54D29*
X66137Y-33367D02*
X66137Y-33387D01*
X69371Y-34121D02*
X70050Y-34800D01*
X67821Y-34121D02*
X69371Y-34121D01*
X67600Y-33900D02*
X67821Y-34121D01*
X66650Y-33900D02*
X67600Y-33900D01*
X66137Y-33387D02*
X66650Y-33900D01*
G54D28*
X34640Y-52740D02*
X34015Y-52740D01*
X34015Y-52740D02*
X33875Y-52600D01*
X47390Y-52715D02*
X47250Y-52575D01*
X48015Y-52715D02*
X47390Y-52715D01*
X61315Y-52765D02*
X60690Y-52765D01*
X60690Y-52765D02*
X60550Y-52625D01*
X42534Y-20009D02*
X43159Y-20009D01*
X43159Y-20009D02*
X43300Y-20150D01*
X56409Y-20034D02*
X56550Y-20175D01*
X55784Y-20034D02*
X56409Y-20034D01*
X69184Y-20159D02*
X69809Y-20159D01*
X69809Y-20159D02*
X69950Y-20300D01*
X34640Y-52150D02*
X33875Y-52150D01*
X48015Y-52125D02*
X47250Y-52125D01*
X61315Y-52175D02*
X60550Y-52175D01*
X42534Y-20600D02*
X43300Y-20600D01*
X55784Y-20625D02*
X56550Y-20625D01*
X69184Y-20750D02*
X69950Y-20750D01*
X64145Y-38340D02*
X64353Y-38340D01*
X64353Y-38340D02*
X64521Y-38172D01*
X57075Y-32825D02*
X57335Y-32825D01*
X61450Y-39600D02*
X61100Y-39600D01*
X61100Y-39600D02*
X58250Y-36750D01*
X58250Y-36750D02*
X57300Y-36750D01*
X57530Y-33020D02*
X57530Y-34450D01*
X57335Y-32825D02*
X57530Y-33020D01*
G54D29*
X60150Y-30500D02*
X60500Y-30500D01*
X57075Y-32825D02*
X57325Y-32825D01*
X57400Y-32750D02*
X57325Y-32825D01*
X57400Y-31850D02*
X57400Y-32750D01*
X57128Y-31578D02*
X57400Y-31850D01*
X57128Y-30671D02*
X57128Y-31578D01*
X57300Y-30500D02*
X57128Y-30671D01*
X60150Y-30500D02*
X57300Y-30500D01*
X60609Y-30391D02*
X60609Y-30000D01*
X60500Y-30500D02*
X60609Y-30391D01*
G54D28*
X63650Y-41400D02*
X63650Y-41700D01*
X64631Y-41718D02*
X64631Y-40500D01*
X64450Y-41900D02*
X64631Y-41718D01*
X63850Y-41900D02*
X64450Y-41900D01*
X63650Y-41700D02*
X63850Y-41900D01*
X56185Y-33580D02*
X55890Y-33580D01*
X55650Y-33340D02*
X55650Y-32825D01*
X55890Y-33580D02*
X55650Y-33340D01*
X55850Y-32825D02*
X55850Y-32875D01*
X55850Y-32875D02*
X55850Y-32825D01*
X55325Y-30950D02*
X55325Y-30975D01*
X54875Y-32825D02*
X55650Y-32825D01*
X55650Y-32825D02*
X55850Y-32825D01*
X55850Y-32825D02*
X56075Y-32825D01*
X54725Y-32675D02*
X54875Y-32825D01*
X54725Y-31575D02*
X54725Y-32675D01*
X55325Y-30975D02*
X54725Y-31575D01*
G54D29*
X48950Y-37050D02*
X48950Y-37400D01*
X49582Y-35367D02*
X48950Y-36000D01*
X48950Y-36000D02*
X48950Y-37050D01*
X50137Y-35367D02*
X49582Y-35367D01*
X48950Y-37400D02*
X48000Y-38350D01*
G54D28*
X56935Y-33580D02*
X56740Y-33580D01*
X56845Y-32075D02*
X57075Y-32075D01*
X56560Y-32360D02*
X56845Y-32075D01*
X56560Y-33400D02*
X56560Y-32360D01*
X56740Y-33580D02*
X56560Y-33400D01*
X56935Y-34360D02*
X56935Y-33580D01*
G54D29*
X58075Y-30000D02*
X57400Y-30000D01*
X56950Y-31200D02*
X56075Y-32075D01*
X56950Y-30450D02*
X56950Y-31200D01*
X57400Y-30000D02*
X56950Y-30450D01*
X58825Y-30000D02*
X59491Y-30000D01*
G54D28*
X55125Y-32400D02*
X55125Y-32000D01*
X56325Y-31375D02*
X56325Y-30950D01*
X56150Y-31550D02*
X56325Y-31375D01*
X55575Y-31550D02*
X56150Y-31550D01*
X55125Y-32000D02*
X55575Y-31550D01*
G54D29*
X52150Y-38225D02*
X52150Y-38500D01*
X51650Y-39855D02*
X51137Y-40367D01*
X51650Y-38700D02*
X51650Y-39855D01*
X51750Y-38600D02*
X51650Y-38700D01*
X52050Y-38600D02*
X51750Y-38600D01*
X52150Y-38500D02*
X52050Y-38600D01*
G54D28*
X52150Y-38225D02*
X52875Y-38225D01*
X52875Y-38225D02*
X52900Y-38250D01*
X61675Y-34700D02*
X62725Y-34700D01*
X62725Y-34700D02*
X62725Y-34175D01*
X62725Y-34175D02*
X62550Y-34000D01*
X62645Y-36350D02*
X62950Y-36350D01*
X62493Y-38340D02*
X62493Y-35997D01*
X62493Y-35997D02*
X62336Y-35840D01*
X62336Y-35840D02*
X62336Y-38192D01*
X62336Y-35840D02*
X62645Y-35840D01*
X62336Y-38192D02*
X62188Y-38340D01*
X62188Y-38340D02*
X62145Y-38340D01*
X62145Y-35840D02*
X62336Y-35840D01*
X62145Y-38340D02*
X62493Y-38340D01*
X62493Y-38340D02*
X62645Y-38340D01*
X62645Y-35840D02*
X62645Y-36350D01*
X62645Y-36350D02*
X62645Y-38340D01*
X62145Y-38340D02*
X62145Y-35840D01*
X62651Y-38802D02*
X62645Y-38796D01*
X62645Y-38796D02*
X62645Y-38340D01*
X63145Y-38340D02*
X62645Y-38340D01*
X56150Y-38500D02*
X56150Y-38950D01*
X55100Y-41000D02*
X55100Y-41500D01*
X55250Y-40850D02*
X55100Y-41000D01*
X55650Y-40850D02*
X55250Y-40850D01*
X55750Y-40750D02*
X55650Y-40850D01*
X55750Y-39350D02*
X55750Y-40750D01*
X56150Y-38950D02*
X55750Y-39350D01*
X56150Y-40100D02*
X56150Y-40650D01*
X56100Y-40700D02*
X56100Y-41500D01*
X56150Y-40650D02*
X56100Y-40700D01*
X57100Y-41500D02*
X57500Y-41100D01*
X58350Y-40600D02*
X58350Y-40100D01*
X58000Y-40950D02*
X58350Y-40600D01*
X57650Y-40950D02*
X58000Y-40950D01*
X57500Y-41100D02*
X57650Y-40950D01*
X38125Y-48250D02*
X39325Y-48250D01*
X40875Y-53300D02*
X41725Y-53300D01*
X39625Y-48950D02*
X40875Y-50200D01*
X39625Y-48550D02*
X39625Y-48950D01*
X39325Y-48250D02*
X39625Y-48550D01*
X38125Y-48750D02*
X38125Y-48250D01*
X37175Y-47800D02*
X37175Y-46800D01*
X37175Y-46800D02*
X36575Y-46200D01*
X36575Y-46200D02*
X35525Y-46200D01*
X37175Y-47850D02*
X37175Y-47800D01*
X37575Y-48250D02*
X37175Y-47850D01*
X37675Y-48250D02*
X37575Y-48250D01*
X37725Y-48250D02*
X37675Y-48250D01*
X38125Y-48250D02*
X37725Y-48250D01*
X51500Y-48225D02*
X51100Y-48225D01*
X51100Y-48225D02*
X51050Y-48225D01*
X51050Y-48225D02*
X50950Y-48225D01*
X50950Y-48225D02*
X50550Y-47825D01*
X50550Y-47825D02*
X50550Y-47775D01*
X49950Y-46175D02*
X48900Y-46175D01*
X50550Y-46775D02*
X49950Y-46175D01*
X50550Y-47775D02*
X50550Y-46775D01*
X51500Y-48725D02*
X51500Y-48225D01*
X52700Y-48225D02*
X53000Y-48525D01*
X53000Y-48525D02*
X53000Y-48925D01*
X53000Y-48925D02*
X54250Y-50175D01*
X54250Y-53275D02*
X55100Y-53275D01*
X51500Y-48225D02*
X52700Y-48225D01*
X64800Y-48275D02*
X66000Y-48275D01*
X67550Y-53325D02*
X68400Y-53325D01*
X66300Y-48975D02*
X67550Y-50225D01*
X66300Y-48575D02*
X66300Y-48975D01*
X66000Y-48275D02*
X66300Y-48575D01*
X64800Y-48775D02*
X64800Y-48275D01*
X63850Y-47825D02*
X63850Y-46825D01*
X63850Y-46825D02*
X63250Y-46225D01*
X63250Y-46225D02*
X62200Y-46225D01*
X63850Y-47875D02*
X63850Y-47825D01*
X64250Y-48275D02*
X63850Y-47875D01*
X64350Y-48275D02*
X64250Y-48275D01*
X64400Y-48275D02*
X64350Y-48275D01*
X64800Y-48275D02*
X64400Y-48275D01*
X39050Y-24500D02*
X37850Y-24500D01*
X36300Y-19450D02*
X35450Y-19450D01*
X37550Y-23800D02*
X36300Y-22550D01*
X37550Y-24200D02*
X37550Y-23800D01*
X37850Y-24500D02*
X37550Y-24200D01*
X39050Y-24000D02*
X39050Y-24500D01*
X40000Y-24950D02*
X40000Y-25950D01*
X40000Y-25950D02*
X40600Y-26550D01*
X40600Y-26550D02*
X41650Y-26550D01*
X40000Y-24900D02*
X40000Y-24950D01*
X39600Y-24500D02*
X40000Y-24900D01*
X39500Y-24500D02*
X39600Y-24500D01*
X39450Y-24500D02*
X39500Y-24500D01*
X39050Y-24500D02*
X39450Y-24500D01*
X52300Y-24525D02*
X52700Y-24525D01*
X52700Y-24525D02*
X52750Y-24525D01*
X52750Y-24525D02*
X52850Y-24525D01*
X52850Y-24525D02*
X53250Y-24925D01*
X53250Y-24925D02*
X53250Y-24975D01*
X53850Y-26575D02*
X54900Y-26575D01*
X53250Y-25975D02*
X53850Y-26575D01*
X53250Y-24975D02*
X53250Y-25975D01*
X52300Y-24025D02*
X52300Y-24525D01*
X51100Y-24525D02*
X50800Y-24225D01*
X50800Y-24225D02*
X50800Y-23825D01*
X50800Y-23825D02*
X49550Y-22575D01*
X49550Y-19475D02*
X48700Y-19475D01*
X52300Y-24525D02*
X51100Y-24525D01*
X65700Y-24650D02*
X64500Y-24650D01*
X62950Y-19600D02*
X62100Y-19600D01*
X64200Y-23950D02*
X62950Y-22700D01*
X64200Y-24350D02*
X64200Y-23950D01*
X64500Y-24650D02*
X64200Y-24350D01*
X65700Y-24150D02*
X65700Y-24650D01*
X66650Y-25100D02*
X66650Y-26100D01*
X66650Y-26100D02*
X67250Y-26700D01*
X67250Y-26700D02*
X68300Y-26700D01*
X66650Y-25050D02*
X66650Y-25100D01*
X66250Y-24650D02*
X66650Y-25050D01*
X66150Y-24650D02*
X66250Y-24650D01*
X66100Y-24650D02*
X66150Y-24650D01*
X65700Y-24650D02*
X66100Y-24650D01*
G54D29*
X48750Y-36250D02*
X48750Y-36600D01*
X48750Y-36250D02*
X48750Y-35900D01*
X48750Y-35900D02*
X49800Y-34850D01*
X49800Y-34850D02*
X50619Y-34850D01*
X51137Y-35367D02*
X50619Y-34850D01*
X48750Y-36600D02*
X48000Y-37350D01*
G54D28*
X58850Y-39650D02*
X58850Y-40750D01*
X58350Y-38550D02*
X58350Y-39150D01*
X58850Y-40750D02*
X58100Y-41500D01*
X58350Y-39150D02*
X58850Y-39650D01*
G54D29*
X50137Y-41367D02*
X50137Y-41387D01*
X56850Y-40100D02*
X56850Y-39725D01*
X55500Y-42800D02*
X55600Y-42700D01*
X50950Y-42800D02*
X55500Y-42800D01*
X50600Y-42450D02*
X50950Y-42800D01*
X50600Y-41850D02*
X50600Y-42450D01*
X50137Y-41387D02*
X50600Y-41850D01*
X57250Y-39725D02*
X57250Y-39700D01*
X57250Y-39700D02*
X57250Y-39725D01*
G54D28*
X56850Y-39725D02*
X57250Y-39725D01*
X57250Y-39725D02*
X57525Y-39725D01*
X57525Y-39725D02*
X57550Y-39750D01*
G54D29*
X57550Y-38200D02*
X57850Y-38200D01*
X52219Y-42450D02*
X51137Y-41367D01*
X55750Y-42450D02*
X52219Y-42450D01*
X56100Y-42800D02*
X55750Y-42450D01*
X57400Y-42800D02*
X56100Y-42800D01*
X57500Y-42700D02*
X57400Y-42800D01*
X57750Y-39300D02*
X57550Y-39300D01*
X57900Y-39150D02*
X57750Y-39300D01*
X57900Y-38250D02*
X57900Y-39150D01*
X57850Y-38200D02*
X57900Y-38250D01*
G54D28*
X56850Y-38175D02*
X57250Y-38175D01*
X57250Y-38175D02*
X57525Y-38175D01*
X57525Y-38175D02*
X57550Y-38200D01*
G54D29*
X54650Y-38450D02*
X54650Y-38125D01*
X54700Y-38500D02*
X54650Y-38450D01*
G54D28*
X54650Y-38125D02*
X55325Y-38125D01*
X55325Y-38125D02*
X55350Y-38150D01*
G54D29*
X55000Y-40050D02*
X55000Y-39725D01*
X55000Y-39725D02*
X55000Y-39700D01*
X55000Y-39700D02*
X55000Y-39725D01*
X55050Y-39725D02*
X55050Y-39750D01*
X55050Y-39750D02*
X55050Y-39725D01*
G54D28*
X54650Y-39725D02*
X55000Y-39725D01*
X55000Y-39725D02*
X55050Y-39725D01*
X55050Y-39725D02*
X55325Y-39725D01*
X55325Y-39725D02*
X55350Y-39750D01*
G54D29*
X66137Y-34367D02*
X65717Y-34367D01*
X63700Y-32350D02*
X63700Y-31400D01*
X65717Y-34367D02*
X63700Y-32350D01*
G54D28*
X42609Y-46759D02*
X43184Y-46759D01*
X43184Y-46759D02*
X43325Y-46900D01*
X56559Y-46734D02*
X56700Y-46875D01*
X55984Y-46734D02*
X56559Y-46734D01*
X69284Y-46784D02*
X69859Y-46784D01*
X69859Y-46784D02*
X70000Y-46925D01*
X34565Y-25990D02*
X33990Y-25990D01*
X33990Y-25990D02*
X33850Y-25850D01*
X47240Y-26015D02*
X47100Y-25875D01*
X47815Y-26015D02*
X47240Y-26015D01*
X61215Y-26140D02*
X60640Y-26140D01*
X60640Y-26140D02*
X60500Y-26000D01*
G54D29*
X48000Y-36350D02*
X48000Y-35950D01*
X49582Y-34367D02*
X50137Y-34367D01*
X48000Y-35950D02*
X49582Y-34367D01*
X66137Y-36367D02*
X66117Y-36367D01*
X65700Y-32950D02*
X65700Y-31400D01*
X65500Y-33150D02*
X65700Y-32950D01*
X65500Y-35750D02*
X65500Y-35100D01*
X66117Y-36367D02*
X65500Y-35750D01*
X65700Y-30400D02*
X66100Y-30800D01*
X66200Y-30900D02*
X66200Y-32750D01*
X66100Y-30800D02*
X66200Y-30900D01*
X67137Y-35367D02*
X67117Y-35367D01*
X64700Y-32750D02*
X64700Y-31400D01*
X65800Y-33850D02*
X64700Y-32750D01*
X66250Y-33850D02*
X65800Y-33850D01*
X66600Y-34200D02*
X66250Y-33850D01*
X66600Y-34850D02*
X66600Y-34200D01*
X67117Y-35367D02*
X66600Y-34850D01*
X64700Y-30400D02*
X64250Y-30850D01*
X66137Y-35337D02*
X66137Y-35367D01*
X64200Y-33400D02*
X66137Y-35337D01*
X64200Y-30900D02*
X64200Y-32500D01*
X64250Y-30850D02*
X64200Y-30900D01*
X69050Y-36800D02*
X69350Y-36800D01*
X67982Y-34367D02*
X67137Y-34367D01*
X68050Y-34300D02*
X67982Y-34367D01*
X69250Y-34300D02*
X68050Y-34300D01*
X69550Y-34600D02*
X69250Y-34300D01*
X69550Y-35000D02*
X69550Y-34600D01*
X69850Y-35300D02*
X69550Y-35000D01*
X70250Y-35300D02*
X69850Y-35300D01*
X70550Y-35600D02*
X70250Y-35300D01*
X70550Y-36000D02*
X70550Y-35600D01*
X70250Y-36300D02*
X70550Y-36000D01*
X69850Y-36300D02*
X70250Y-36300D01*
X69350Y-36800D02*
X69850Y-36300D01*
X68250Y-37450D02*
X68400Y-37300D01*
X68400Y-37300D02*
X69550Y-37300D01*
X69550Y-37300D02*
X70050Y-36800D01*
X68250Y-40050D02*
X68250Y-37450D01*
X67450Y-40850D02*
X68250Y-40050D01*
X67137Y-41367D02*
X67117Y-41367D01*
X68100Y-35800D02*
X69050Y-35800D01*
X67850Y-36050D02*
X68100Y-35800D01*
X67850Y-39350D02*
X67850Y-36050D01*
X67350Y-39850D02*
X67850Y-39350D01*
X66950Y-39850D02*
X67350Y-39850D01*
X66650Y-40150D02*
X66950Y-39850D01*
X66650Y-40900D02*
X66650Y-40150D01*
X67117Y-41367D02*
X66650Y-40900D01*
X67137Y-40367D02*
X67137Y-40362D01*
X69550Y-36300D02*
X70050Y-35800D01*
X68350Y-36300D02*
X69550Y-36300D01*
X68050Y-36600D02*
X68350Y-36300D01*
X68050Y-39450D02*
X68050Y-36600D01*
X67137Y-40362D02*
X68050Y-39450D01*
X66137Y-40367D02*
X66137Y-40362D01*
X67950Y-34800D02*
X69050Y-34800D01*
X67650Y-35100D02*
X67950Y-34800D01*
X67650Y-38600D02*
X67650Y-35100D01*
X67400Y-38850D02*
X67650Y-38600D01*
X66850Y-38850D02*
X67400Y-38850D01*
X66650Y-39050D02*
X66850Y-38850D01*
X66650Y-39850D02*
X66650Y-39050D01*
X66137Y-40362D02*
X66650Y-39850D01*
G54D28*
X42609Y-47350D02*
X43325Y-47350D01*
X55984Y-47325D02*
X56700Y-47325D01*
X69284Y-47375D02*
X70000Y-47375D01*
X34565Y-25400D02*
X33850Y-25400D01*
X47815Y-25425D02*
X47100Y-25425D01*
X61215Y-25550D02*
X60500Y-25550D01*
X60645Y-35840D02*
X60645Y-35495D01*
X57600Y-31550D02*
X57600Y-30950D01*
X57750Y-31700D02*
X57600Y-31550D01*
X57750Y-32600D02*
X57750Y-31700D01*
X60645Y-35495D02*
X57750Y-32600D01*
G54D29*
X66800Y-31150D02*
X66800Y-32000D01*
X67182Y-42367D02*
X67950Y-41600D01*
X67950Y-41600D02*
X67950Y-41100D01*
X67950Y-41100D02*
X69550Y-39500D01*
X69550Y-39500D02*
X69550Y-38350D01*
X66800Y-31150D02*
X66800Y-30000D01*
X66800Y-30000D02*
X66850Y-30000D01*
X67182Y-42367D02*
X67137Y-42367D01*
X68950Y-33900D02*
X69550Y-33900D01*
X68600Y-33550D02*
X68950Y-33900D01*
X68350Y-33550D02*
X68600Y-33550D01*
X66800Y-32000D02*
X68350Y-33550D01*
X68450Y-33900D02*
X68500Y-33850D01*
X66137Y-42362D02*
X66650Y-41850D01*
X66650Y-41850D02*
X67350Y-41850D01*
X67350Y-41850D02*
X67650Y-41550D01*
X67650Y-41550D02*
X67650Y-41050D01*
X67650Y-41050D02*
X68450Y-40250D01*
X68450Y-40250D02*
X68450Y-38550D01*
X68450Y-38550D02*
X68500Y-38500D01*
X66137Y-42367D02*
X66137Y-42362D01*
X66600Y-32450D02*
X67050Y-32900D01*
X67050Y-32900D02*
X67300Y-32900D01*
X67300Y-32900D02*
X68300Y-33900D01*
X68300Y-33900D02*
X68450Y-33900D01*
X61100Y-30800D02*
X61700Y-31400D01*
X61100Y-30150D02*
X61100Y-30800D01*
X61550Y-29700D02*
X61100Y-30150D01*
X66200Y-29700D02*
X61550Y-29700D01*
X66600Y-30100D02*
X66200Y-29700D01*
X66600Y-31700D02*
X66600Y-30100D01*
X66600Y-31700D02*
X66600Y-32450D01*
X67137Y-33367D02*
X67137Y-33337D01*
X63200Y-29900D02*
X62700Y-30400D01*
X66100Y-29900D02*
X63200Y-29900D01*
X66400Y-30200D02*
X66100Y-29900D01*
X66400Y-32600D02*
X66400Y-30200D01*
X67137Y-33337D02*
X66400Y-32600D01*
X63056Y-40500D02*
X63056Y-39793D01*
X65682Y-37367D02*
X66137Y-37367D01*
X65450Y-37600D02*
X65682Y-37367D01*
X65450Y-38750D02*
X65450Y-37600D01*
X64750Y-39450D02*
X65450Y-38750D01*
X63400Y-39450D02*
X64750Y-39450D01*
X63056Y-39793D02*
X63400Y-39450D01*
G54D28*
X63056Y-40500D02*
X63056Y-41181D01*
X63056Y-41181D02*
X63275Y-41400D01*
X42609Y-47940D02*
X43315Y-47940D01*
X43315Y-47940D02*
X43325Y-47950D01*
X56690Y-47915D02*
X56700Y-47925D01*
X55984Y-47915D02*
X56690Y-47915D01*
X69284Y-47965D02*
X69990Y-47965D01*
X69990Y-47965D02*
X70000Y-47975D01*
X34565Y-24809D02*
X33859Y-24809D01*
X33859Y-24809D02*
X33850Y-24800D01*
X47109Y-24834D02*
X47100Y-24825D01*
X47815Y-24834D02*
X47109Y-24834D01*
X61215Y-24959D02*
X60509Y-24959D01*
X60509Y-24959D02*
X60500Y-24950D01*
X61645Y-35840D02*
X61645Y-36195D01*
X58600Y-31700D02*
X58600Y-30950D01*
X61000Y-34100D02*
X58600Y-31700D01*
X61645Y-36195D02*
X61800Y-36350D01*
G54D29*
X50137Y-40367D02*
X50117Y-40367D01*
X52075Y-34575D02*
X52850Y-34575D01*
X51800Y-34850D02*
X52075Y-34575D01*
X51800Y-35600D02*
X51800Y-34850D01*
X51550Y-35850D02*
X51800Y-35600D01*
X49400Y-36250D02*
X49500Y-36150D01*
X49400Y-39650D02*
X49400Y-36250D01*
X50117Y-40367D02*
X49400Y-39650D01*
G54D28*
X53650Y-34575D02*
X54450Y-34575D01*
X52850Y-34575D02*
X53650Y-34575D01*
G54D29*
X63850Y-39825D02*
X64875Y-39825D01*
X66650Y-37855D02*
X67137Y-37367D01*
X66650Y-38600D02*
X66650Y-37855D01*
X66400Y-38850D02*
X66650Y-38600D01*
X65850Y-38850D02*
X66400Y-38850D01*
X64875Y-39825D02*
X65850Y-38850D01*
X63843Y-40500D02*
X63843Y-39831D01*
X63843Y-39831D02*
X63850Y-39825D01*
G54D28*
X64025Y-41400D02*
X64025Y-40681D01*
X64025Y-40681D02*
X63843Y-40500D01*
G54D29*
X49150Y-37850D02*
X49150Y-38200D01*
X49150Y-37850D02*
X49150Y-36100D01*
X49150Y-36100D02*
X49400Y-35850D01*
X49400Y-35850D02*
X50619Y-35850D01*
X51137Y-36367D02*
X50619Y-35850D01*
X49150Y-38200D02*
X48000Y-39350D01*
X63645Y-35840D02*
X63645Y-36332D01*
X63645Y-36332D02*
X63655Y-36342D01*
X52190Y-36210D02*
X58460Y-36210D01*
X58460Y-36210D02*
X58700Y-36450D01*
X58700Y-36450D02*
X59900Y-36450D01*
X60300Y-36850D02*
X61000Y-36850D01*
X59900Y-36450D02*
X60300Y-36850D01*
X51910Y-36210D02*
X52190Y-36210D01*
X51900Y-36200D02*
X51910Y-36210D01*
G54D28*
X52700Y-41500D02*
X53200Y-42000D01*
X58950Y-42100D02*
X59550Y-41500D01*
X53300Y-42100D02*
X58950Y-42100D01*
X53200Y-42000D02*
X53300Y-42100D01*
X59550Y-41500D02*
X60550Y-41500D01*
X59550Y-41500D02*
X59550Y-38800D01*
X58150Y-37400D02*
X59550Y-38800D01*
X56511Y-37400D02*
X58150Y-37400D01*
X56511Y-37400D02*
X55661Y-36550D01*
X56050Y-35900D02*
X56050Y-34900D01*
X54950Y-33825D02*
X54950Y-34450D01*
X55400Y-34900D02*
X56050Y-34900D01*
X56050Y-34900D02*
X59000Y-34900D01*
X54950Y-34450D02*
X55400Y-34900D01*
X59000Y-34950D02*
X59000Y-34900D01*
X59000Y-34950D02*
X59000Y-34900D01*
X60350Y-34700D02*
X60925Y-34700D01*
X59000Y-34900D02*
X59500Y-34900D01*
X51825Y-32100D02*
X51825Y-31675D01*
X53125Y-31725D02*
X53125Y-32150D01*
X53050Y-31650D02*
X53125Y-31725D01*
X51850Y-31650D02*
X53050Y-31650D01*
X51825Y-31675D02*
X51850Y-31650D01*
X54950Y-33825D02*
X54450Y-33825D01*
X54325Y-32750D02*
X54325Y-33275D01*
X54450Y-33400D02*
X54450Y-33825D01*
X54325Y-33275D02*
X54450Y-33400D01*
X53525Y-32075D02*
X53200Y-32075D01*
X53225Y-32825D02*
X53525Y-32825D01*
X53125Y-32725D02*
X53225Y-32825D01*
X53125Y-32150D02*
X53125Y-32725D01*
X53200Y-32075D02*
X53125Y-32150D01*
X53525Y-32825D02*
X53950Y-32825D01*
X54025Y-32750D02*
X54325Y-32750D01*
X53950Y-32825D02*
X54025Y-32750D01*
G54D10*
G36*
X56126Y-31786D02*
X56055Y-31856D01*
X55901Y-31856D01*
X55858Y-31874D01*
X55824Y-31908D01*
X55806Y-31951D01*
X55806Y-31998D01*
X55806Y-32189D01*
X55758Y-32238D01*
X55728Y-32311D01*
X55728Y-32361D01*
X55777Y-32410D01*
X56035Y-32410D01*
X56035Y-32402D01*
X56114Y-32402D01*
X56114Y-32410D01*
X56122Y-32410D01*
X56122Y-32489D01*
X56114Y-32489D01*
X56114Y-32497D01*
X56035Y-32497D01*
X56035Y-32489D01*
X55777Y-32489D01*
X55728Y-32538D01*
X55728Y-32588D01*
X55650Y-32588D01*
X55423Y-32588D01*
X55423Y-32556D01*
X55423Y-32196D01*
X55405Y-32153D01*
X55371Y-32119D01*
X55361Y-32115D01*
X55361Y-32097D01*
X55672Y-31786D01*
X56126Y-31786D01*
X56126Y-31786D01*
G37*
G54D30*
X56126Y-31786D02*
X56055Y-31856D01*
X55901Y-31856D01*
X55858Y-31874D01*
X55824Y-31908D01*
X55806Y-31951D01*
X55806Y-31998D01*
X55806Y-32189D01*
X55758Y-32238D01*
X55728Y-32311D01*
X55728Y-32361D01*
X55777Y-32410D01*
X56035Y-32410D01*
X56035Y-32402D01*
X56114Y-32402D01*
X56114Y-32410D01*
X56122Y-32410D01*
X56122Y-32489D01*
X56114Y-32489D01*
X56114Y-32497D01*
X56035Y-32497D01*
X56035Y-32489D01*
X55777Y-32489D01*
X55728Y-32538D01*
X55728Y-32588D01*
X55650Y-32588D01*
X55423Y-32588D01*
X55423Y-32556D01*
X55423Y-32196D01*
X55405Y-32153D01*
X55371Y-32119D01*
X55361Y-32115D01*
X55361Y-32097D01*
X55672Y-31786D01*
X56126Y-31786D01*
G54D10*
G36*
X56698Y-33982D02*
X56693Y-33984D01*
X56659Y-34018D01*
X56641Y-34061D01*
X56641Y-34108D01*
X56641Y-34658D01*
X56644Y-34663D01*
X56556Y-34663D01*
X56556Y-34596D01*
X56556Y-34448D01*
X56507Y-34399D01*
X56224Y-34399D01*
X56224Y-34407D01*
X56145Y-34407D01*
X56145Y-34399D01*
X55862Y-34399D01*
X55813Y-34448D01*
X55813Y-34596D01*
X55813Y-34663D01*
X55497Y-34663D01*
X55186Y-34352D01*
X55186Y-33825D01*
X55168Y-33734D01*
X55117Y-33657D01*
X55040Y-33606D01*
X54950Y-33588D01*
X54827Y-33588D01*
X54825Y-33583D01*
X54791Y-33549D01*
X54748Y-33531D01*
X54701Y-33531D01*
X54686Y-33531D01*
X54686Y-33400D01*
X54686Y-33399D01*
X54668Y-33309D01*
X54668Y-33309D01*
X54617Y-33232D01*
X54617Y-33232D01*
X54561Y-33177D01*
X54561Y-33034D01*
X54571Y-33030D01*
X54605Y-32996D01*
X54623Y-32953D01*
X54623Y-32907D01*
X54707Y-32992D01*
X54784Y-33043D01*
X54784Y-33043D01*
X54875Y-33061D01*
X55413Y-33061D01*
X55413Y-33340D01*
X55431Y-33430D01*
X55482Y-33507D01*
X55722Y-33747D01*
X55799Y-33798D01*
X55799Y-33798D01*
X55890Y-33816D01*
X55891Y-33816D01*
X55891Y-33878D01*
X55906Y-33914D01*
X55898Y-33918D01*
X55843Y-33973D01*
X55813Y-34045D01*
X55813Y-34123D01*
X55813Y-34271D01*
X55862Y-34320D01*
X56145Y-34320D01*
X56145Y-34312D01*
X56224Y-34312D01*
X56224Y-34320D01*
X56507Y-34320D01*
X56556Y-34271D01*
X56556Y-34123D01*
X56556Y-34045D01*
X56526Y-33973D01*
X56471Y-33918D01*
X56463Y-33914D01*
X56478Y-33878D01*
X56478Y-33831D01*
X56478Y-33652D01*
X56572Y-33747D01*
X56641Y-33793D01*
X56641Y-33878D01*
X56659Y-33921D01*
X56693Y-33955D01*
X56698Y-33957D01*
X56698Y-33982D01*
X56698Y-33982D01*
G37*
G54D30*
X56698Y-33982D02*
X56693Y-33984D01*
X56659Y-34018D01*
X56641Y-34061D01*
X56641Y-34108D01*
X56641Y-34658D01*
X56644Y-34663D01*
X56556Y-34663D01*
X56556Y-34596D01*
X56556Y-34448D01*
X56507Y-34399D01*
X56224Y-34399D01*
X56224Y-34407D01*
X56145Y-34407D01*
X56145Y-34399D01*
X55862Y-34399D01*
X55813Y-34448D01*
X55813Y-34596D01*
X55813Y-34663D01*
X55497Y-34663D01*
X55186Y-34352D01*
X55186Y-33825D01*
X55168Y-33734D01*
X55117Y-33657D01*
X55040Y-33606D01*
X54950Y-33588D01*
X54827Y-33588D01*
X54825Y-33583D01*
X54791Y-33549D01*
X54748Y-33531D01*
X54701Y-33531D01*
X54686Y-33531D01*
X54686Y-33400D01*
X54686Y-33399D01*
X54668Y-33309D01*
X54668Y-33309D01*
X54617Y-33232D01*
X54617Y-33232D01*
X54561Y-33177D01*
X54561Y-33034D01*
X54571Y-33030D01*
X54605Y-32996D01*
X54623Y-32953D01*
X54623Y-32907D01*
X54707Y-32992D01*
X54784Y-33043D01*
X54784Y-33043D01*
X54875Y-33061D01*
X55413Y-33061D01*
X55413Y-33340D01*
X55431Y-33430D01*
X55482Y-33507D01*
X55722Y-33747D01*
X55799Y-33798D01*
X55799Y-33798D01*
X55890Y-33816D01*
X55891Y-33816D01*
X55891Y-33878D01*
X55906Y-33914D01*
X55898Y-33918D01*
X55843Y-33973D01*
X55813Y-34045D01*
X55813Y-34123D01*
X55813Y-34271D01*
X55862Y-34320D01*
X56145Y-34320D01*
X56145Y-34312D01*
X56224Y-34312D01*
X56224Y-34320D01*
X56507Y-34320D01*
X56556Y-34271D01*
X56556Y-34123D01*
X56556Y-34045D01*
X56526Y-33973D01*
X56471Y-33918D01*
X56463Y-33914D01*
X56478Y-33878D01*
X56478Y-33831D01*
X56478Y-33652D01*
X56572Y-33747D01*
X56641Y-33793D01*
X56641Y-33878D01*
X56659Y-33921D01*
X56693Y-33955D01*
X56698Y-33957D01*
X56698Y-33982D01*
G54D10*
G36*
X58613Y-39836D02*
X58596Y-39819D01*
X58553Y-39801D01*
X58506Y-39801D01*
X58146Y-39801D01*
X58103Y-39819D01*
X58069Y-39853D01*
X58051Y-39896D01*
X58051Y-39943D01*
X58051Y-40303D01*
X58069Y-40346D01*
X58103Y-40380D01*
X58113Y-40384D01*
X58113Y-40502D01*
X57912Y-40703D01*
X57926Y-40668D01*
X57926Y-40231D01*
X57896Y-40158D01*
X57841Y-40103D01*
X57769Y-40073D01*
X57691Y-40073D01*
X57638Y-40073D01*
X57589Y-40122D01*
X57589Y-40410D01*
X57877Y-40410D01*
X57926Y-40361D01*
X57926Y-40231D01*
X57926Y-40668D01*
X57926Y-40538D01*
X57877Y-40489D01*
X57589Y-40489D01*
X57589Y-40497D01*
X57510Y-40497D01*
X57510Y-40489D01*
X57222Y-40489D01*
X57197Y-40514D01*
X56889Y-40514D01*
X56889Y-40797D01*
X56938Y-40846D01*
X57086Y-40846D01*
X57164Y-40846D01*
X57236Y-40816D01*
X57257Y-40795D01*
X57258Y-40796D01*
X57330Y-40826D01*
X57408Y-40826D01*
X57439Y-40826D01*
X57332Y-40932D01*
X57332Y-40932D01*
X57332Y-40932D01*
X57183Y-41082D01*
X57183Y-41081D01*
X57017Y-41081D01*
X56863Y-41145D01*
X56745Y-41262D01*
X56681Y-41416D01*
X56681Y-41582D01*
X56745Y-41736D01*
X56862Y-41854D01*
X56885Y-41863D01*
X56314Y-41863D01*
X56336Y-41854D01*
X56454Y-41737D01*
X56518Y-41583D01*
X56518Y-41417D01*
X56454Y-41263D01*
X56337Y-41145D01*
X56336Y-41145D01*
X56336Y-40788D01*
X56368Y-40740D01*
X56378Y-40689D01*
X56408Y-40761D01*
X56463Y-40816D01*
X56535Y-40846D01*
X56613Y-40846D01*
X56761Y-40846D01*
X56810Y-40797D01*
X56810Y-40514D01*
X56802Y-40514D01*
X56802Y-40435D01*
X56810Y-40435D01*
X56810Y-40427D01*
X56889Y-40427D01*
X56889Y-40435D01*
X57272Y-40435D01*
X57297Y-40410D01*
X57510Y-40410D01*
X57510Y-40122D01*
X57461Y-40073D01*
X57408Y-40073D01*
X57330Y-40073D01*
X57258Y-40103D01*
X57230Y-40130D01*
X57164Y-40103D01*
X57086Y-40103D01*
X57086Y-40053D01*
X57071Y-40018D01*
X57148Y-40018D01*
X57191Y-40000D01*
X57225Y-39966D01*
X57227Y-39961D01*
X57250Y-39961D01*
X57255Y-39961D01*
X57269Y-39996D01*
X57303Y-40030D01*
X57346Y-40048D01*
X57393Y-40048D01*
X57753Y-40048D01*
X57796Y-40030D01*
X57830Y-39996D01*
X57848Y-39953D01*
X57848Y-39906D01*
X57848Y-39546D01*
X57830Y-39503D01*
X57796Y-39469D01*
X57778Y-39462D01*
X57814Y-39455D01*
X57868Y-39418D01*
X58018Y-39268D01*
X58018Y-39268D01*
X58018Y-39268D01*
X58055Y-39214D01*
X58068Y-39150D01*
X58068Y-38792D01*
X58069Y-38796D01*
X58103Y-38830D01*
X58113Y-38834D01*
X58113Y-39150D01*
X58131Y-39240D01*
X58182Y-39317D01*
X58613Y-39747D01*
X58613Y-39836D01*
X58613Y-39836D01*
G37*
G54D30*
X58613Y-39836D02*
X58596Y-39819D01*
X58553Y-39801D01*
X58506Y-39801D01*
X58146Y-39801D01*
X58103Y-39819D01*
X58069Y-39853D01*
X58051Y-39896D01*
X58051Y-39943D01*
X58051Y-40303D01*
X58069Y-40346D01*
X58103Y-40380D01*
X58113Y-40384D01*
X58113Y-40502D01*
X57912Y-40703D01*
X57926Y-40668D01*
X57926Y-40231D01*
X57896Y-40158D01*
X57841Y-40103D01*
X57769Y-40073D01*
X57691Y-40073D01*
X57638Y-40073D01*
X57589Y-40122D01*
X57589Y-40410D01*
X57877Y-40410D01*
X57926Y-40361D01*
X57926Y-40231D01*
X57926Y-40668D01*
X57926Y-40538D01*
X57877Y-40489D01*
X57589Y-40489D01*
X57589Y-40497D01*
X57510Y-40497D01*
X57510Y-40489D01*
X57222Y-40489D01*
X57197Y-40514D01*
X56889Y-40514D01*
X56889Y-40797D01*
X56938Y-40846D01*
X57086Y-40846D01*
X57164Y-40846D01*
X57236Y-40816D01*
X57257Y-40795D01*
X57258Y-40796D01*
X57330Y-40826D01*
X57408Y-40826D01*
X57439Y-40826D01*
X57332Y-40932D01*
X57332Y-40932D01*
X57332Y-40932D01*
X57183Y-41082D01*
X57183Y-41081D01*
X57017Y-41081D01*
X56863Y-41145D01*
X56745Y-41262D01*
X56681Y-41416D01*
X56681Y-41582D01*
X56745Y-41736D01*
X56862Y-41854D01*
X56885Y-41863D01*
X56314Y-41863D01*
X56336Y-41854D01*
X56454Y-41737D01*
X56518Y-41583D01*
X56518Y-41417D01*
X56454Y-41263D01*
X56337Y-41145D01*
X56336Y-41145D01*
X56336Y-40788D01*
X56368Y-40740D01*
X56378Y-40689D01*
X56408Y-40761D01*
X56463Y-40816D01*
X56535Y-40846D01*
X56613Y-40846D01*
X56761Y-40846D01*
X56810Y-40797D01*
X56810Y-40514D01*
X56802Y-40514D01*
X56802Y-40435D01*
X56810Y-40435D01*
X56810Y-40427D01*
X56889Y-40427D01*
X56889Y-40435D01*
X57272Y-40435D01*
X57297Y-40410D01*
X57510Y-40410D01*
X57510Y-40122D01*
X57461Y-40073D01*
X57408Y-40073D01*
X57330Y-40073D01*
X57258Y-40103D01*
X57230Y-40130D01*
X57164Y-40103D01*
X57086Y-40103D01*
X57086Y-40053D01*
X57071Y-40018D01*
X57148Y-40018D01*
X57191Y-40000D01*
X57225Y-39966D01*
X57227Y-39961D01*
X57250Y-39961D01*
X57255Y-39961D01*
X57269Y-39996D01*
X57303Y-40030D01*
X57346Y-40048D01*
X57393Y-40048D01*
X57753Y-40048D01*
X57796Y-40030D01*
X57830Y-39996D01*
X57848Y-39953D01*
X57848Y-39906D01*
X57848Y-39546D01*
X57830Y-39503D01*
X57796Y-39469D01*
X57778Y-39462D01*
X57814Y-39455D01*
X57868Y-39418D01*
X58018Y-39268D01*
X58018Y-39268D01*
X58018Y-39268D01*
X58055Y-39214D01*
X58068Y-39150D01*
X58068Y-38792D01*
X58069Y-38796D01*
X58103Y-38830D01*
X58113Y-38834D01*
X58113Y-39150D01*
X58131Y-39240D01*
X58182Y-39317D01*
X58613Y-39747D01*
X58613Y-39836D01*
G54D10*
G36*
X59313Y-41145D02*
X59313Y-41145D01*
X59195Y-41262D01*
X59131Y-41416D01*
X59131Y-41582D01*
X59132Y-41583D01*
X58852Y-41863D01*
X58314Y-41863D01*
X58336Y-41854D01*
X58454Y-41737D01*
X58518Y-41583D01*
X58518Y-41417D01*
X58517Y-41416D01*
X59017Y-40917D01*
X59017Y-40917D01*
X59017Y-40917D01*
X59068Y-40840D01*
X59068Y-40840D01*
X59086Y-40750D01*
X59086Y-40750D01*
X59086Y-39650D01*
X59068Y-39559D01*
X59017Y-39482D01*
X58586Y-39052D01*
X58586Y-38834D01*
X58596Y-38830D01*
X58630Y-38796D01*
X58648Y-38753D01*
X58648Y-38706D01*
X58648Y-38346D01*
X58630Y-38303D01*
X58596Y-38269D01*
X58553Y-38251D01*
X58506Y-38251D01*
X58146Y-38251D01*
X58103Y-38269D01*
X58069Y-38303D01*
X58068Y-38307D01*
X58068Y-38250D01*
X58055Y-38185D01*
X58018Y-38131D01*
X57968Y-38081D01*
X57914Y-38044D01*
X57850Y-38031D01*
X57849Y-38031D01*
X57848Y-38031D01*
X57848Y-37996D01*
X57830Y-37953D01*
X57796Y-37919D01*
X57753Y-37901D01*
X57706Y-37901D01*
X57346Y-37901D01*
X57303Y-37919D01*
X57284Y-37938D01*
X57250Y-37938D01*
X57227Y-37938D01*
X57225Y-37933D01*
X57191Y-37899D01*
X57148Y-37881D01*
X57101Y-37881D01*
X56551Y-37881D01*
X56508Y-37899D01*
X56474Y-37933D01*
X56456Y-37976D01*
X56456Y-38023D01*
X56456Y-38373D01*
X56474Y-38416D01*
X56508Y-38450D01*
X56551Y-38468D01*
X56598Y-38468D01*
X57148Y-38468D01*
X57191Y-38450D01*
X57225Y-38416D01*
X57227Y-38411D01*
X57250Y-38411D01*
X57255Y-38411D01*
X57269Y-38446D01*
X57303Y-38480D01*
X57346Y-38498D01*
X57393Y-38498D01*
X57731Y-38498D01*
X57731Y-38523D01*
X57691Y-38523D01*
X57638Y-38523D01*
X57589Y-38572D01*
X57589Y-38860D01*
X57597Y-38860D01*
X57597Y-38939D01*
X57589Y-38939D01*
X57589Y-38947D01*
X57510Y-38947D01*
X57510Y-38939D01*
X57510Y-38860D01*
X57510Y-38572D01*
X57461Y-38523D01*
X57408Y-38523D01*
X57330Y-38523D01*
X57258Y-38553D01*
X57230Y-38580D01*
X57164Y-38553D01*
X57086Y-38553D01*
X56938Y-38553D01*
X56889Y-38602D01*
X56889Y-38885D01*
X57272Y-38885D01*
X57297Y-38860D01*
X57510Y-38860D01*
X57510Y-38939D01*
X57222Y-38939D01*
X57197Y-38964D01*
X56889Y-38964D01*
X56889Y-39247D01*
X56938Y-39296D01*
X57086Y-39296D01*
X57164Y-39296D01*
X57236Y-39266D01*
X57257Y-39245D01*
X57258Y-39246D01*
X57313Y-39269D01*
X57313Y-39346D01*
X57349Y-39433D01*
X57367Y-39451D01*
X57346Y-39451D01*
X57303Y-39469D01*
X57284Y-39488D01*
X57250Y-39488D01*
X57227Y-39488D01*
X57225Y-39483D01*
X57191Y-39449D01*
X57148Y-39431D01*
X57101Y-39431D01*
X56810Y-39431D01*
X56551Y-39431D01*
X56508Y-39449D01*
X56474Y-39483D01*
X56456Y-39526D01*
X56456Y-39573D01*
X56456Y-39923D01*
X56474Y-39966D01*
X56508Y-40000D01*
X56551Y-40018D01*
X56598Y-40018D01*
X56628Y-40018D01*
X56613Y-40052D01*
X56613Y-40103D01*
X56535Y-40103D01*
X56463Y-40133D01*
X56448Y-40148D01*
X56448Y-39896D01*
X56430Y-39853D01*
X56396Y-39819D01*
X56353Y-39801D01*
X56306Y-39801D01*
X55986Y-39801D01*
X55986Y-39447D01*
X56317Y-39117D01*
X56317Y-39117D01*
X56317Y-39117D01*
X56368Y-39040D01*
X56368Y-39040D01*
X56383Y-38964D01*
X56427Y-38964D01*
X56378Y-39013D01*
X56378Y-39138D01*
X56408Y-39211D01*
X56463Y-39266D01*
X56535Y-39296D01*
X56613Y-39296D01*
X56761Y-39296D01*
X56810Y-39247D01*
X56810Y-38964D01*
X56802Y-38964D01*
X56802Y-38885D01*
X56810Y-38885D01*
X56810Y-38602D01*
X56761Y-38553D01*
X56613Y-38553D01*
X56535Y-38553D01*
X56463Y-38583D01*
X56448Y-38598D01*
X56448Y-38296D01*
X56430Y-38253D01*
X56396Y-38219D01*
X56353Y-38201D01*
X56306Y-38201D01*
X55946Y-38201D01*
X55903Y-38219D01*
X55869Y-38253D01*
X55851Y-38296D01*
X55851Y-38343D01*
X55851Y-38703D01*
X55869Y-38746D01*
X55903Y-38780D01*
X55913Y-38784D01*
X55913Y-38852D01*
X55726Y-39039D01*
X55726Y-38631D01*
X55696Y-38558D01*
X55648Y-38509D01*
X55648Y-38306D01*
X55648Y-37946D01*
X55630Y-37903D01*
X55596Y-37869D01*
X55553Y-37851D01*
X55506Y-37851D01*
X55146Y-37851D01*
X55103Y-37869D01*
X55084Y-37888D01*
X55027Y-37888D01*
X55025Y-37883D01*
X54991Y-37849D01*
X54948Y-37831D01*
X54901Y-37831D01*
X54351Y-37831D01*
X54308Y-37849D01*
X54274Y-37883D01*
X54256Y-37926D01*
X54256Y-37973D01*
X54256Y-38323D01*
X54274Y-38366D01*
X54308Y-38400D01*
X54351Y-38418D01*
X54398Y-38418D01*
X54478Y-38418D01*
X54463Y-38452D01*
X54463Y-38503D01*
X54413Y-38503D01*
X54335Y-38503D01*
X54263Y-38533D01*
X54208Y-38588D01*
X54178Y-38661D01*
X54178Y-38786D01*
X54227Y-38835D01*
X54610Y-38835D01*
X54610Y-38827D01*
X54689Y-38827D01*
X54689Y-38835D01*
X55072Y-38835D01*
X55097Y-38810D01*
X55310Y-38810D01*
X55310Y-38522D01*
X55261Y-38473D01*
X55208Y-38473D01*
X55130Y-38473D01*
X55058Y-38503D01*
X55030Y-38530D01*
X54964Y-38503D01*
X54936Y-38503D01*
X54936Y-38453D01*
X54921Y-38418D01*
X54948Y-38418D01*
X54991Y-38400D01*
X55025Y-38366D01*
X55027Y-38361D01*
X55055Y-38361D01*
X55069Y-38396D01*
X55103Y-38430D01*
X55146Y-38448D01*
X55193Y-38448D01*
X55553Y-38448D01*
X55596Y-38430D01*
X55630Y-38396D01*
X55648Y-38353D01*
X55648Y-38306D01*
X55648Y-38509D01*
X55641Y-38503D01*
X55569Y-38473D01*
X55491Y-38473D01*
X55438Y-38473D01*
X55389Y-38522D01*
X55389Y-38810D01*
X55677Y-38810D01*
X55726Y-38761D01*
X55726Y-38631D01*
X55726Y-39039D01*
X55726Y-39039D01*
X55726Y-38938D01*
X55677Y-38889D01*
X55389Y-38889D01*
X55389Y-39177D01*
X55438Y-39226D01*
X55491Y-39226D01*
X55553Y-39226D01*
X55531Y-39259D01*
X55513Y-39350D01*
X55513Y-39451D01*
X55506Y-39451D01*
X55310Y-39451D01*
X55310Y-39177D01*
X55310Y-38889D01*
X55022Y-38889D01*
X54997Y-38914D01*
X54689Y-38914D01*
X54689Y-39197D01*
X54738Y-39246D01*
X54886Y-39246D01*
X54964Y-39246D01*
X55036Y-39216D01*
X55057Y-39195D01*
X55058Y-39196D01*
X55130Y-39226D01*
X55208Y-39226D01*
X55261Y-39226D01*
X55310Y-39177D01*
X55310Y-39451D01*
X55146Y-39451D01*
X55103Y-39469D01*
X55084Y-39488D01*
X55050Y-39488D01*
X55027Y-39488D01*
X55025Y-39483D01*
X54991Y-39449D01*
X54948Y-39431D01*
X54901Y-39431D01*
X54610Y-39431D01*
X54610Y-39197D01*
X54610Y-38914D01*
X54227Y-38914D01*
X54178Y-38963D01*
X54178Y-39088D01*
X54208Y-39161D01*
X54263Y-39216D01*
X54335Y-39246D01*
X54413Y-39246D01*
X54561Y-39246D01*
X54610Y-39197D01*
X54610Y-39431D01*
X54351Y-39431D01*
X54308Y-39449D01*
X54274Y-39483D01*
X54256Y-39526D01*
X54256Y-39573D01*
X54256Y-39923D01*
X54274Y-39966D01*
X54308Y-40000D01*
X54351Y-40018D01*
X54398Y-40018D01*
X54763Y-40018D01*
X54763Y-40096D01*
X54766Y-40103D01*
X54738Y-40103D01*
X54689Y-40152D01*
X54689Y-40435D01*
X55072Y-40435D01*
X55097Y-40410D01*
X55310Y-40410D01*
X55310Y-40122D01*
X55261Y-40073D01*
X55236Y-40073D01*
X55236Y-40048D01*
X55513Y-40048D01*
X55513Y-40073D01*
X55491Y-40073D01*
X55438Y-40073D01*
X55389Y-40122D01*
X55389Y-40410D01*
X55397Y-40410D01*
X55397Y-40489D01*
X55389Y-40489D01*
X55389Y-40497D01*
X55310Y-40497D01*
X55310Y-40489D01*
X55022Y-40489D01*
X54997Y-40514D01*
X54689Y-40514D01*
X54689Y-40797D01*
X54738Y-40846D01*
X54886Y-40846D01*
X54923Y-40846D01*
X54881Y-40909D01*
X54863Y-41000D01*
X54863Y-41081D01*
X54776Y-41081D01*
X54733Y-41099D01*
X54699Y-41133D01*
X54681Y-41176D01*
X54681Y-41223D01*
X54681Y-41823D01*
X54698Y-41863D01*
X54610Y-41863D01*
X54610Y-40797D01*
X54610Y-40514D01*
X54610Y-40435D01*
X54610Y-40152D01*
X54561Y-40103D01*
X54413Y-40103D01*
X54335Y-40103D01*
X54263Y-40133D01*
X54208Y-40188D01*
X54178Y-40261D01*
X54178Y-40386D01*
X54227Y-40435D01*
X54610Y-40435D01*
X54610Y-40514D01*
X54227Y-40514D01*
X54178Y-40563D01*
X54178Y-40688D01*
X54208Y-40761D01*
X54263Y-40816D01*
X54335Y-40846D01*
X54413Y-40846D01*
X54561Y-40846D01*
X54610Y-40797D01*
X54610Y-41863D01*
X54101Y-41863D01*
X54118Y-41823D01*
X54118Y-41776D01*
X54118Y-41176D01*
X54100Y-41133D01*
X54066Y-41099D01*
X54023Y-41081D01*
X53976Y-41081D01*
X53936Y-41081D01*
X53936Y-40918D01*
X54048Y-40918D01*
X54091Y-40900D01*
X54125Y-40866D01*
X54143Y-40823D01*
X54143Y-40776D01*
X54143Y-40426D01*
X54143Y-40026D01*
X54143Y-39676D01*
X54125Y-39633D01*
X54091Y-39599D01*
X54048Y-39581D01*
X54001Y-39581D01*
X53986Y-39581D01*
X53986Y-38832D01*
X53998Y-38803D01*
X53998Y-38756D01*
X53998Y-38396D01*
X53980Y-38353D01*
X53946Y-38319D01*
X53903Y-38301D01*
X53856Y-38301D01*
X53536Y-38301D01*
X53536Y-38297D01*
X53867Y-37967D01*
X53867Y-37967D01*
X53867Y-37967D01*
X53918Y-37890D01*
X53918Y-37890D01*
X53936Y-37800D01*
X53936Y-37800D01*
X53936Y-37384D01*
X53946Y-37380D01*
X53980Y-37346D01*
X53998Y-37303D01*
X53998Y-37256D01*
X53998Y-36896D01*
X53980Y-36853D01*
X53946Y-36819D01*
X53903Y-36801D01*
X53856Y-36801D01*
X53496Y-36801D01*
X53453Y-36819D01*
X53419Y-36853D01*
X53401Y-36896D01*
X53401Y-36943D01*
X53401Y-37303D01*
X53419Y-37346D01*
X53453Y-37380D01*
X53463Y-37384D01*
X53463Y-37702D01*
X53276Y-37889D01*
X53276Y-37668D01*
X53276Y-37231D01*
X53246Y-37158D01*
X53191Y-37103D01*
X53119Y-37073D01*
X53041Y-37073D01*
X52988Y-37073D01*
X52939Y-37122D01*
X52939Y-37410D01*
X53227Y-37410D01*
X53276Y-37361D01*
X53276Y-37231D01*
X53276Y-37668D01*
X53276Y-37538D01*
X53227Y-37489D01*
X52939Y-37489D01*
X52939Y-37777D01*
X52988Y-37826D01*
X53041Y-37826D01*
X53119Y-37826D01*
X53191Y-37796D01*
X53246Y-37741D01*
X53276Y-37668D01*
X53276Y-37889D01*
X53171Y-37994D01*
X53146Y-37969D01*
X53103Y-37951D01*
X53056Y-37951D01*
X52860Y-37951D01*
X52860Y-37777D01*
X52860Y-37489D01*
X52860Y-37410D01*
X52860Y-37122D01*
X52811Y-37073D01*
X52758Y-37073D01*
X52680Y-37073D01*
X52608Y-37103D01*
X52557Y-37154D01*
X52536Y-37133D01*
X52464Y-37103D01*
X52386Y-37103D01*
X52238Y-37103D01*
X52189Y-37152D01*
X52189Y-37435D01*
X52572Y-37435D01*
X52597Y-37410D01*
X52860Y-37410D01*
X52860Y-37489D01*
X52572Y-37489D01*
X52547Y-37514D01*
X52189Y-37514D01*
X52189Y-37797D01*
X52238Y-37846D01*
X52386Y-37846D01*
X52464Y-37846D01*
X52536Y-37816D01*
X52582Y-37770D01*
X52608Y-37796D01*
X52680Y-37826D01*
X52758Y-37826D01*
X52811Y-37826D01*
X52860Y-37777D01*
X52860Y-37951D01*
X52696Y-37951D01*
X52653Y-37969D01*
X52634Y-37988D01*
X52527Y-37988D01*
X52525Y-37983D01*
X52491Y-37949D01*
X52448Y-37931D01*
X52401Y-37931D01*
X52110Y-37931D01*
X52110Y-37797D01*
X52110Y-37514D01*
X52110Y-37435D01*
X52110Y-37152D01*
X52061Y-37103D01*
X51913Y-37103D01*
X51835Y-37103D01*
X51763Y-37133D01*
X51708Y-37188D01*
X51678Y-37261D01*
X51678Y-37386D01*
X51727Y-37435D01*
X52110Y-37435D01*
X52110Y-37514D01*
X51727Y-37514D01*
X51678Y-37563D01*
X51678Y-37688D01*
X51708Y-37761D01*
X51763Y-37816D01*
X51835Y-37846D01*
X51913Y-37846D01*
X52061Y-37846D01*
X52110Y-37797D01*
X52110Y-37931D01*
X51851Y-37931D01*
X51808Y-37949D01*
X51774Y-37983D01*
X51756Y-38026D01*
X51756Y-38073D01*
X51756Y-38423D01*
X51760Y-38431D01*
X51750Y-38431D01*
X51685Y-38444D01*
X51631Y-38481D01*
X51631Y-38481D01*
X51531Y-38581D01*
X51494Y-38635D01*
X51481Y-38700D01*
X51481Y-38700D01*
X51481Y-39120D01*
X51374Y-39013D01*
X51220Y-38949D01*
X51054Y-38949D01*
X50900Y-39013D01*
X50783Y-39130D01*
X50719Y-39284D01*
X50719Y-39450D01*
X50782Y-39604D01*
X50900Y-39721D01*
X51053Y-39785D01*
X51220Y-39785D01*
X51373Y-39722D01*
X51481Y-39614D01*
X51481Y-39785D01*
X51289Y-39978D01*
X51220Y-39949D01*
X51054Y-39949D01*
X50900Y-40013D01*
X50783Y-40130D01*
X50719Y-40284D01*
X50719Y-40450D01*
X50782Y-40604D01*
X50900Y-40721D01*
X51053Y-40785D01*
X51220Y-40785D01*
X51373Y-40722D01*
X51491Y-40604D01*
X51555Y-40451D01*
X51555Y-40284D01*
X51527Y-40215D01*
X51768Y-39973D01*
X51805Y-39919D01*
X51818Y-39855D01*
X51818Y-39855D01*
X51818Y-39855D01*
X51818Y-39339D01*
X51835Y-39346D01*
X51913Y-39346D01*
X52061Y-39346D01*
X52110Y-39297D01*
X52110Y-39014D01*
X52102Y-39014D01*
X52102Y-38935D01*
X52110Y-38935D01*
X52110Y-38927D01*
X52189Y-38927D01*
X52189Y-38935D01*
X52572Y-38935D01*
X52597Y-38910D01*
X52860Y-38910D01*
X52860Y-38622D01*
X52811Y-38573D01*
X52758Y-38573D01*
X52680Y-38573D01*
X52608Y-38603D01*
X52557Y-38654D01*
X52536Y-38633D01*
X52464Y-38603D01*
X52386Y-38603D01*
X52279Y-38603D01*
X52305Y-38564D01*
X52314Y-38518D01*
X52448Y-38518D01*
X52491Y-38500D01*
X52525Y-38466D01*
X52527Y-38461D01*
X52605Y-38461D01*
X52619Y-38496D01*
X52653Y-38530D01*
X52696Y-38548D01*
X52743Y-38548D01*
X53063Y-38548D01*
X53063Y-38573D01*
X53041Y-38573D01*
X52988Y-38573D01*
X52939Y-38622D01*
X52939Y-38910D01*
X52947Y-38910D01*
X52947Y-38989D01*
X52939Y-38989D01*
X52939Y-39277D01*
X52988Y-39326D01*
X52989Y-39326D01*
X52860Y-39455D01*
X52860Y-39277D01*
X52860Y-38989D01*
X52572Y-38989D01*
X52547Y-39014D01*
X52189Y-39014D01*
X52189Y-39297D01*
X52238Y-39346D01*
X52386Y-39346D01*
X52464Y-39346D01*
X52536Y-39316D01*
X52582Y-39270D01*
X52608Y-39296D01*
X52680Y-39326D01*
X52758Y-39326D01*
X52811Y-39326D01*
X52860Y-39277D01*
X52860Y-39455D01*
X52784Y-39531D01*
X52451Y-39531D01*
X52408Y-39549D01*
X52374Y-39583D01*
X52356Y-39626D01*
X52356Y-39673D01*
X52356Y-40023D01*
X52374Y-40066D01*
X52408Y-40100D01*
X52451Y-40118D01*
X52498Y-40118D01*
X53048Y-40118D01*
X53091Y-40100D01*
X53125Y-40066D01*
X53143Y-40023D01*
X53143Y-39976D01*
X53143Y-39840D01*
X53467Y-39517D01*
X53467Y-39517D01*
X53501Y-39465D01*
X53513Y-39447D01*
X53513Y-39581D01*
X53451Y-39581D01*
X53408Y-39599D01*
X53374Y-39633D01*
X53356Y-39676D01*
X53356Y-39723D01*
X53356Y-40073D01*
X53374Y-40116D01*
X53408Y-40150D01*
X53451Y-40168D01*
X53498Y-40168D01*
X54048Y-40168D01*
X54091Y-40150D01*
X54125Y-40116D01*
X54143Y-40073D01*
X54143Y-40026D01*
X54143Y-40426D01*
X54125Y-40383D01*
X54091Y-40349D01*
X54048Y-40331D01*
X54001Y-40331D01*
X53451Y-40331D01*
X53434Y-40338D01*
X53127Y-40338D01*
X53125Y-40333D01*
X53091Y-40299D01*
X53048Y-40281D01*
X53001Y-40281D01*
X52451Y-40281D01*
X52408Y-40299D01*
X52374Y-40333D01*
X52356Y-40376D01*
X52356Y-40423D01*
X52356Y-40773D01*
X52374Y-40816D01*
X52408Y-40850D01*
X52451Y-40868D01*
X52498Y-40868D01*
X53048Y-40868D01*
X53091Y-40850D01*
X53125Y-40816D01*
X53127Y-40811D01*
X53356Y-40811D01*
X53356Y-40823D01*
X53374Y-40866D01*
X53408Y-40900D01*
X53451Y-40918D01*
X53463Y-40918D01*
X53463Y-41081D01*
X53376Y-41081D01*
X53333Y-41099D01*
X53299Y-41133D01*
X53281Y-41176D01*
X53281Y-41223D01*
X53281Y-41747D01*
X53117Y-41583D01*
X53118Y-41583D01*
X53118Y-41417D01*
X53054Y-41263D01*
X52937Y-41145D01*
X52783Y-41081D01*
X52617Y-41081D01*
X52463Y-41145D01*
X52345Y-41262D01*
X52281Y-41416D01*
X52281Y-41582D01*
X52345Y-41736D01*
X52462Y-41854D01*
X52616Y-41918D01*
X52782Y-41918D01*
X52783Y-41917D01*
X53032Y-42167D01*
X53132Y-42267D01*
X53155Y-42281D01*
X52289Y-42281D01*
X51527Y-41519D01*
X51555Y-41451D01*
X51555Y-41284D01*
X51492Y-41131D01*
X51374Y-41013D01*
X51220Y-40949D01*
X51054Y-40949D01*
X50900Y-41013D01*
X50783Y-41130D01*
X50719Y-41284D01*
X50719Y-41450D01*
X50782Y-41604D01*
X50900Y-41721D01*
X51053Y-41785D01*
X51220Y-41785D01*
X51289Y-41757D01*
X52100Y-42568D01*
X52155Y-42605D01*
X52219Y-42618D01*
X52219Y-42618D01*
X52219Y-42618D01*
X55378Y-42618D01*
X55372Y-42631D01*
X51464Y-42631D01*
X51491Y-42604D01*
X51555Y-42451D01*
X51555Y-42284D01*
X51492Y-42131D01*
X51374Y-42013D01*
X51220Y-41949D01*
X51054Y-41949D01*
X50900Y-42013D01*
X50783Y-42130D01*
X50768Y-42166D01*
X50768Y-41850D01*
X50768Y-41849D01*
X50768Y-41849D01*
X50765Y-41837D01*
X50755Y-41785D01*
X50755Y-41785D01*
X50718Y-41731D01*
X50718Y-41731D01*
X50521Y-41533D01*
X50555Y-41451D01*
X50555Y-41284D01*
X50492Y-41131D01*
X50374Y-41013D01*
X50220Y-40949D01*
X50054Y-40949D01*
X49900Y-41013D01*
X49783Y-41130D01*
X49719Y-41284D01*
X49719Y-41450D01*
X49782Y-41604D01*
X49900Y-41721D01*
X50053Y-41785D01*
X50220Y-41785D01*
X50275Y-41763D01*
X50431Y-41919D01*
X50431Y-42070D01*
X50374Y-42013D01*
X50220Y-41949D01*
X50054Y-41949D01*
X49900Y-42013D01*
X49783Y-42130D01*
X49719Y-42284D01*
X49719Y-42450D01*
X49782Y-42604D01*
X49900Y-42721D01*
X50053Y-42785D01*
X50220Y-42785D01*
X50373Y-42722D01*
X50491Y-42604D01*
X50499Y-42586D01*
X50764Y-42852D01*
X48868Y-42852D01*
X48868Y-41418D01*
X48728Y-41080D01*
X48470Y-40822D01*
X48133Y-40682D01*
X47768Y-40681D01*
X47430Y-40821D01*
X47172Y-41079D01*
X47032Y-41416D01*
X47031Y-41781D01*
X47171Y-42119D01*
X47429Y-42377D01*
X47766Y-42517D01*
X48131Y-42518D01*
X48469Y-42378D01*
X48727Y-42120D01*
X48867Y-41783D01*
X48868Y-41418D01*
X48868Y-42852D01*
X46747Y-42852D01*
X46747Y-29647D01*
X57810Y-29647D01*
X57799Y-29658D01*
X57781Y-29701D01*
X57781Y-29748D01*
X57781Y-29831D01*
X57400Y-29831D01*
X57335Y-29844D01*
X57281Y-29881D01*
X56831Y-30331D01*
X56794Y-30385D01*
X56781Y-30450D01*
X56781Y-30450D01*
X56781Y-31130D01*
X56561Y-31351D01*
X56561Y-31304D01*
X56561Y-31304D01*
X56679Y-31187D01*
X56743Y-31033D01*
X56743Y-30867D01*
X56679Y-30713D01*
X56562Y-30595D01*
X56408Y-30531D01*
X56242Y-30531D01*
X56088Y-30595D01*
X55970Y-30712D01*
X55906Y-30866D01*
X55906Y-31032D01*
X55970Y-31186D01*
X56074Y-31291D01*
X56052Y-31313D01*
X55575Y-31313D01*
X55506Y-31327D01*
X55561Y-31304D01*
X55679Y-31187D01*
X55743Y-31033D01*
X55743Y-30867D01*
X55679Y-30713D01*
X55562Y-30595D01*
X55408Y-30531D01*
X55242Y-30531D01*
X55088Y-30595D01*
X54970Y-30712D01*
X54906Y-30866D01*
X54906Y-31032D01*
X54914Y-31051D01*
X54821Y-31144D01*
X54821Y-30688D01*
X54821Y-30610D01*
X54791Y-30538D01*
X54736Y-30483D01*
X54663Y-30453D01*
X54413Y-30453D01*
X54364Y-30502D01*
X54364Y-30910D01*
X54772Y-30910D01*
X54821Y-30861D01*
X54821Y-30688D01*
X54821Y-31144D01*
X54821Y-31144D01*
X54821Y-31038D01*
X54772Y-30989D01*
X54364Y-30989D01*
X54364Y-31397D01*
X54413Y-31446D01*
X54531Y-31446D01*
X54506Y-31484D01*
X54488Y-31575D01*
X54488Y-31673D01*
X54466Y-31673D01*
X54413Y-31673D01*
X54364Y-31722D01*
X54364Y-32010D01*
X54372Y-32010D01*
X54372Y-32089D01*
X54364Y-32089D01*
X54364Y-32377D01*
X54413Y-32426D01*
X54466Y-32426D01*
X54488Y-32426D01*
X54488Y-32451D01*
X54481Y-32451D01*
X54285Y-32451D01*
X54285Y-32377D01*
X54285Y-32089D01*
X54285Y-32010D01*
X54285Y-31722D01*
X54285Y-31397D01*
X54285Y-30989D01*
X54285Y-30910D01*
X54285Y-30502D01*
X54236Y-30453D01*
X53986Y-30453D01*
X53913Y-30483D01*
X53858Y-30538D01*
X53828Y-30610D01*
X53828Y-30688D01*
X53828Y-30861D01*
X53877Y-30910D01*
X54285Y-30910D01*
X54285Y-30989D01*
X53877Y-30989D01*
X53828Y-31038D01*
X53828Y-31211D01*
X53828Y-31289D01*
X53858Y-31361D01*
X53913Y-31416D01*
X53986Y-31446D01*
X54236Y-31446D01*
X54285Y-31397D01*
X54285Y-31722D01*
X54236Y-31673D01*
X54183Y-31673D01*
X54105Y-31673D01*
X54033Y-31703D01*
X53978Y-31758D01*
X53948Y-31831D01*
X53948Y-31961D01*
X53997Y-32010D01*
X54285Y-32010D01*
X54285Y-32089D01*
X53997Y-32089D01*
X53948Y-32138D01*
X53948Y-32268D01*
X53978Y-32341D01*
X54033Y-32396D01*
X54105Y-32426D01*
X54183Y-32426D01*
X54236Y-32426D01*
X54285Y-32377D01*
X54285Y-32451D01*
X54121Y-32451D01*
X54078Y-32469D01*
X54044Y-32503D01*
X54040Y-32513D01*
X54025Y-32513D01*
X53934Y-32531D01*
X53909Y-32548D01*
X53871Y-32573D01*
X53871Y-32538D01*
X53822Y-32489D01*
X53564Y-32489D01*
X53564Y-32497D01*
X53485Y-32497D01*
X53485Y-32489D01*
X53477Y-32489D01*
X53477Y-32410D01*
X53485Y-32410D01*
X53485Y-32402D01*
X53564Y-32402D01*
X53564Y-32410D01*
X53822Y-32410D01*
X53871Y-32361D01*
X53871Y-32311D01*
X53841Y-32238D01*
X53793Y-32189D01*
X53793Y-32151D01*
X53793Y-31951D01*
X53775Y-31908D01*
X53741Y-31874D01*
X53698Y-31856D01*
X53651Y-31856D01*
X53615Y-31856D01*
X53615Y-31856D01*
X53550Y-31843D01*
X53550Y-31029D01*
X53542Y-30832D01*
X53481Y-30684D01*
X53400Y-30655D01*
X53344Y-30711D01*
X53344Y-30599D01*
X53315Y-30518D01*
X53129Y-30449D01*
X52932Y-30457D01*
X52784Y-30518D01*
X52755Y-30599D01*
X53050Y-30894D01*
X53344Y-30599D01*
X53344Y-30711D01*
X53105Y-30950D01*
X53400Y-31244D01*
X53481Y-31215D01*
X53550Y-31029D01*
X53550Y-31843D01*
X53525Y-31838D01*
X53361Y-31838D01*
X53361Y-31725D01*
X53343Y-31634D01*
X53343Y-31634D01*
X53326Y-31609D01*
X53292Y-31557D01*
X53292Y-31557D01*
X53217Y-31482D01*
X53157Y-31443D01*
X53167Y-31442D01*
X53315Y-31381D01*
X53344Y-31300D01*
X53050Y-31005D01*
X52994Y-31061D01*
X52994Y-30950D01*
X52699Y-30655D01*
X52618Y-30684D01*
X52549Y-30870D01*
X52557Y-31067D01*
X52618Y-31215D01*
X52699Y-31244D01*
X52994Y-30950D01*
X52994Y-31061D01*
X52755Y-31300D01*
X52784Y-31381D01*
X52871Y-31413D01*
X52550Y-31413D01*
X52550Y-31029D01*
X52542Y-30832D01*
X52481Y-30684D01*
X52400Y-30655D01*
X52344Y-30711D01*
X52344Y-30599D01*
X52315Y-30518D01*
X52129Y-30449D01*
X51932Y-30457D01*
X51784Y-30518D01*
X51755Y-30599D01*
X52050Y-30894D01*
X52344Y-30599D01*
X52344Y-30711D01*
X52105Y-30950D01*
X52400Y-31244D01*
X52481Y-31215D01*
X52550Y-31029D01*
X52550Y-31413D01*
X52237Y-31413D01*
X52315Y-31381D01*
X52344Y-31300D01*
X52050Y-31005D01*
X51994Y-31061D01*
X51994Y-30950D01*
X51699Y-30655D01*
X51618Y-30684D01*
X51549Y-30870D01*
X51557Y-31067D01*
X51618Y-31215D01*
X51699Y-31244D01*
X51994Y-30950D01*
X51994Y-31061D01*
X51755Y-31300D01*
X51784Y-31381D01*
X51871Y-31413D01*
X51850Y-31413D01*
X51759Y-31431D01*
X51682Y-31482D01*
X51657Y-31507D01*
X51606Y-31584D01*
X51588Y-31675D01*
X51588Y-31722D01*
X51583Y-31724D01*
X51549Y-31758D01*
X51546Y-31765D01*
X51546Y-31211D01*
X51546Y-30688D01*
X51546Y-30610D01*
X51516Y-30538D01*
X51461Y-30483D01*
X51388Y-30453D01*
X51138Y-30453D01*
X51089Y-30502D01*
X51089Y-30910D01*
X51497Y-30910D01*
X51546Y-30861D01*
X51546Y-30688D01*
X51546Y-31211D01*
X51546Y-31038D01*
X51497Y-30989D01*
X51089Y-30989D01*
X51089Y-31397D01*
X51138Y-31446D01*
X51388Y-31446D01*
X51461Y-31416D01*
X51516Y-31361D01*
X51546Y-31289D01*
X51546Y-31211D01*
X51546Y-31765D01*
X51531Y-31801D01*
X51531Y-31848D01*
X51531Y-32398D01*
X51549Y-32441D01*
X51583Y-32475D01*
X51626Y-32493D01*
X51673Y-32493D01*
X52023Y-32493D01*
X52066Y-32475D01*
X52100Y-32441D01*
X52118Y-32398D01*
X52118Y-32351D01*
X52118Y-31886D01*
X52296Y-31886D01*
X52274Y-31908D01*
X52256Y-31951D01*
X52256Y-31998D01*
X52256Y-32198D01*
X52274Y-32241D01*
X52308Y-32275D01*
X52351Y-32293D01*
X52398Y-32293D01*
X52698Y-32293D01*
X52741Y-32275D01*
X52775Y-32241D01*
X52793Y-32198D01*
X52793Y-32151D01*
X52793Y-31951D01*
X52775Y-31908D01*
X52753Y-31886D01*
X52888Y-31886D01*
X52888Y-32150D01*
X52888Y-32725D01*
X52906Y-32815D01*
X52957Y-32892D01*
X53057Y-32992D01*
X53090Y-33013D01*
X52761Y-33013D01*
X52761Y-33005D01*
X52775Y-32991D01*
X52793Y-32948D01*
X52793Y-32901D01*
X52793Y-32701D01*
X52775Y-32658D01*
X52741Y-32624D01*
X52698Y-32606D01*
X52651Y-32606D01*
X52615Y-32606D01*
X52615Y-32606D01*
X52525Y-32588D01*
X51446Y-32588D01*
X51446Y-32336D01*
X51446Y-31863D01*
X51446Y-31785D01*
X51416Y-31713D01*
X51361Y-31658D01*
X51288Y-31628D01*
X51163Y-31628D01*
X51114Y-31677D01*
X51114Y-32060D01*
X51397Y-32060D01*
X51446Y-32011D01*
X51446Y-31863D01*
X51446Y-32336D01*
X51446Y-32188D01*
X51397Y-32139D01*
X51114Y-32139D01*
X51114Y-32522D01*
X51163Y-32571D01*
X51288Y-32571D01*
X51361Y-32541D01*
X51416Y-32486D01*
X51446Y-32414D01*
X51446Y-32336D01*
X51446Y-32588D01*
X51035Y-32588D01*
X51035Y-32522D01*
X51035Y-32139D01*
X51035Y-32060D01*
X51035Y-31677D01*
X51010Y-31652D01*
X51010Y-31397D01*
X51010Y-30989D01*
X51010Y-30910D01*
X51010Y-30502D01*
X50961Y-30453D01*
X50711Y-30453D01*
X50638Y-30483D01*
X50583Y-30538D01*
X50553Y-30610D01*
X50553Y-30688D01*
X50553Y-30861D01*
X50602Y-30910D01*
X51010Y-30910D01*
X51010Y-30989D01*
X50602Y-30989D01*
X50553Y-31038D01*
X50553Y-31211D01*
X50553Y-31289D01*
X50583Y-31361D01*
X50638Y-31416D01*
X50711Y-31446D01*
X50961Y-31446D01*
X51010Y-31397D01*
X51010Y-31652D01*
X50986Y-31628D01*
X50861Y-31628D01*
X50788Y-31658D01*
X50733Y-31713D01*
X50703Y-31785D01*
X50703Y-31863D01*
X50703Y-32011D01*
X50752Y-32060D01*
X51035Y-32060D01*
X51035Y-32139D01*
X50752Y-32139D01*
X50703Y-32188D01*
X50703Y-32336D01*
X50703Y-32414D01*
X50733Y-32486D01*
X50788Y-32541D01*
X50861Y-32571D01*
X50986Y-32571D01*
X51035Y-32522D01*
X51035Y-32588D01*
X50822Y-32588D01*
X50336Y-32102D01*
X50336Y-30747D01*
X50847Y-30236D01*
X51150Y-30236D01*
X56799Y-30236D01*
X56800Y-30236D01*
X56846Y-30236D01*
X56890Y-30218D01*
X56933Y-30200D01*
X56967Y-30167D01*
X57000Y-30133D01*
X57018Y-30090D01*
X57036Y-30047D01*
X57036Y-30000D01*
X57036Y-29953D01*
X57018Y-29909D01*
X57000Y-29866D01*
X56933Y-29799D01*
X56847Y-29763D01*
X56753Y-29763D01*
X56753Y-29763D01*
X51150Y-29763D01*
X50750Y-29763D01*
X50659Y-29781D01*
X50582Y-29832D01*
X49932Y-30482D01*
X49881Y-30559D01*
X49863Y-30650D01*
X49863Y-32200D01*
X49881Y-32290D01*
X49932Y-32367D01*
X50368Y-32802D01*
X50221Y-32949D01*
X50220Y-32949D01*
X50054Y-32949D01*
X49900Y-33013D01*
X49783Y-33130D01*
X49754Y-33199D01*
X49287Y-33199D01*
X49118Y-33031D01*
X49064Y-32994D01*
X49000Y-32981D01*
X48999Y-32981D01*
X48868Y-32981D01*
X48868Y-30788D01*
X48728Y-30450D01*
X48470Y-30192D01*
X48133Y-30052D01*
X47768Y-30051D01*
X47430Y-30191D01*
X47172Y-30449D01*
X47032Y-30786D01*
X47031Y-31151D01*
X47171Y-31489D01*
X47429Y-31747D01*
X47766Y-31888D01*
X48131Y-31888D01*
X48469Y-31748D01*
X48727Y-31490D01*
X48867Y-31153D01*
X48868Y-30788D01*
X48868Y-32981D01*
X48382Y-32981D01*
X48354Y-32913D01*
X48237Y-32795D01*
X48083Y-32731D01*
X47917Y-32731D01*
X47763Y-32795D01*
X47645Y-32912D01*
X47581Y-33066D01*
X47581Y-33232D01*
X47645Y-33386D01*
X47762Y-33504D01*
X47916Y-33568D01*
X48082Y-33568D01*
X48236Y-33504D01*
X48354Y-33387D01*
X48382Y-33318D01*
X48930Y-33318D01*
X49098Y-33486D01*
X49153Y-33523D01*
X49217Y-33535D01*
X49217Y-33535D01*
X49217Y-33535D01*
X49754Y-33535D01*
X49782Y-33604D01*
X49900Y-33721D01*
X50053Y-33785D01*
X50220Y-33785D01*
X50373Y-33722D01*
X50491Y-33604D01*
X50555Y-33451D01*
X50555Y-33284D01*
X50555Y-33283D01*
X50640Y-33198D01*
X50640Y-33279D01*
X50689Y-33328D01*
X51098Y-33328D01*
X51098Y-33320D01*
X51176Y-33320D01*
X51176Y-33328D01*
X51585Y-33328D01*
X51634Y-33279D01*
X51634Y-33061D01*
X52288Y-33061D01*
X52288Y-33175D01*
X52306Y-33265D01*
X52357Y-33342D01*
X52432Y-33417D01*
X52432Y-33417D01*
X52484Y-33451D01*
X52505Y-33465D01*
X52463Y-33483D01*
X52408Y-33538D01*
X52378Y-33611D01*
X52378Y-33736D01*
X52427Y-33785D01*
X52810Y-33785D01*
X52810Y-33777D01*
X52889Y-33777D01*
X52889Y-33785D01*
X53227Y-33785D01*
X53272Y-33785D01*
X53610Y-33785D01*
X53610Y-33777D01*
X53689Y-33777D01*
X53689Y-33785D01*
X53697Y-33785D01*
X53697Y-33864D01*
X53689Y-33864D01*
X53689Y-34147D01*
X53738Y-34196D01*
X53886Y-34196D01*
X53964Y-34196D01*
X54036Y-34166D01*
X54091Y-34111D01*
X54099Y-34092D01*
X54108Y-34100D01*
X54151Y-34118D01*
X54198Y-34118D01*
X54713Y-34118D01*
X54713Y-34281D01*
X54701Y-34281D01*
X54151Y-34281D01*
X54108Y-34299D01*
X54074Y-34333D01*
X54072Y-34338D01*
X54027Y-34338D01*
X54025Y-34333D01*
X53991Y-34299D01*
X53948Y-34281D01*
X53901Y-34281D01*
X53610Y-34281D01*
X53610Y-34147D01*
X53610Y-33864D01*
X53272Y-33864D01*
X53227Y-33864D01*
X52889Y-33864D01*
X52889Y-34147D01*
X52938Y-34196D01*
X53086Y-34196D01*
X53164Y-34196D01*
X53236Y-34166D01*
X53250Y-34153D01*
X53263Y-34166D01*
X53335Y-34196D01*
X53413Y-34196D01*
X53561Y-34196D01*
X53610Y-34147D01*
X53610Y-34281D01*
X53351Y-34281D01*
X53308Y-34299D01*
X53274Y-34333D01*
X53272Y-34338D01*
X53227Y-34338D01*
X53225Y-34333D01*
X53191Y-34299D01*
X53148Y-34281D01*
X53101Y-34281D01*
X52810Y-34281D01*
X52810Y-34147D01*
X52810Y-33864D01*
X52427Y-33864D01*
X52378Y-33913D01*
X52378Y-34038D01*
X52408Y-34111D01*
X52463Y-34166D01*
X52535Y-34196D01*
X52613Y-34196D01*
X52761Y-34196D01*
X52810Y-34147D01*
X52810Y-34281D01*
X52551Y-34281D01*
X52508Y-34299D01*
X52474Y-34333D01*
X52456Y-34376D01*
X52456Y-34406D01*
X52075Y-34406D01*
X52010Y-34419D01*
X51956Y-34456D01*
X51956Y-34456D01*
X51681Y-34731D01*
X51644Y-34785D01*
X51634Y-34837D01*
X51634Y-33706D01*
X51634Y-33456D01*
X51585Y-33407D01*
X51176Y-33407D01*
X51176Y-33815D01*
X51225Y-33864D01*
X51398Y-33864D01*
X51476Y-33864D01*
X51549Y-33834D01*
X51604Y-33779D01*
X51634Y-33706D01*
X51634Y-34837D01*
X51631Y-34850D01*
X51631Y-34850D01*
X51631Y-35530D01*
X51548Y-35613D01*
X51503Y-35613D01*
X51468Y-35628D01*
X51491Y-35604D01*
X51555Y-35451D01*
X51555Y-35284D01*
X51555Y-34284D01*
X51492Y-34131D01*
X51374Y-34013D01*
X51220Y-33949D01*
X51098Y-33949D01*
X51098Y-33815D01*
X51098Y-33407D01*
X50689Y-33407D01*
X50640Y-33456D01*
X50640Y-33706D01*
X50670Y-33779D01*
X50725Y-33834D01*
X50798Y-33864D01*
X50876Y-33864D01*
X51048Y-33864D01*
X51098Y-33815D01*
X51098Y-33949D01*
X51054Y-33949D01*
X50900Y-34013D01*
X50783Y-34130D01*
X50719Y-34284D01*
X50719Y-34450D01*
X50782Y-34604D01*
X50900Y-34721D01*
X51053Y-34785D01*
X51220Y-34785D01*
X51373Y-34722D01*
X51491Y-34604D01*
X51555Y-34451D01*
X51555Y-34284D01*
X51555Y-35284D01*
X51492Y-35131D01*
X51374Y-35013D01*
X51220Y-34949D01*
X51054Y-34949D01*
X50985Y-34978D01*
X50738Y-34731D01*
X50684Y-34694D01*
X50619Y-34681D01*
X50619Y-34681D01*
X50414Y-34681D01*
X50491Y-34604D01*
X50555Y-34451D01*
X50555Y-34284D01*
X50492Y-34131D01*
X50374Y-34013D01*
X50220Y-33949D01*
X50054Y-33949D01*
X49900Y-34013D01*
X49783Y-34130D01*
X49754Y-34199D01*
X49582Y-34199D01*
X49517Y-34212D01*
X49463Y-34248D01*
X49463Y-34248D01*
X48500Y-35211D01*
X48500Y-34229D01*
X48492Y-34032D01*
X48431Y-33884D01*
X48350Y-33855D01*
X48294Y-33911D01*
X48294Y-33799D01*
X48265Y-33718D01*
X48079Y-33649D01*
X47882Y-33657D01*
X47734Y-33718D01*
X47705Y-33799D01*
X48000Y-34094D01*
X48294Y-33799D01*
X48294Y-33911D01*
X48055Y-34150D01*
X48350Y-34444D01*
X48431Y-34415D01*
X48500Y-34229D01*
X48500Y-35211D01*
X48418Y-35294D01*
X48418Y-34826D01*
X48400Y-34783D01*
X48366Y-34749D01*
X48323Y-34731D01*
X48294Y-34731D01*
X48294Y-34500D01*
X48000Y-34205D01*
X47944Y-34261D01*
X47944Y-34150D01*
X47649Y-33855D01*
X47568Y-33884D01*
X47499Y-34070D01*
X47507Y-34267D01*
X47568Y-34415D01*
X47649Y-34444D01*
X47944Y-34150D01*
X47944Y-34261D01*
X47705Y-34500D01*
X47734Y-34581D01*
X47920Y-34650D01*
X48117Y-34642D01*
X48265Y-34581D01*
X48294Y-34500D01*
X48294Y-34731D01*
X48276Y-34731D01*
X47676Y-34731D01*
X47633Y-34749D01*
X47599Y-34783D01*
X47581Y-34826D01*
X47581Y-34873D01*
X47581Y-35473D01*
X47599Y-35516D01*
X47633Y-35550D01*
X47676Y-35568D01*
X47723Y-35568D01*
X48144Y-35568D01*
X47881Y-35831D01*
X47844Y-35885D01*
X47835Y-35931D01*
X47676Y-35931D01*
X47633Y-35949D01*
X47599Y-35983D01*
X47581Y-36026D01*
X47581Y-36073D01*
X47581Y-36673D01*
X47599Y-36716D01*
X47633Y-36750D01*
X47676Y-36768D01*
X47723Y-36768D01*
X48323Y-36768D01*
X48358Y-36753D01*
X48151Y-36960D01*
X48083Y-36931D01*
X47917Y-36931D01*
X47763Y-36995D01*
X47645Y-37112D01*
X47581Y-37266D01*
X47581Y-37432D01*
X47645Y-37586D01*
X47762Y-37704D01*
X47916Y-37768D01*
X48082Y-37768D01*
X48236Y-37704D01*
X48354Y-37587D01*
X48418Y-37433D01*
X48418Y-37267D01*
X48389Y-37198D01*
X48781Y-36805D01*
X48781Y-37050D01*
X48781Y-37330D01*
X48151Y-37960D01*
X48083Y-37931D01*
X47917Y-37931D01*
X47763Y-37995D01*
X47645Y-38112D01*
X47581Y-38266D01*
X47581Y-38432D01*
X47645Y-38586D01*
X47762Y-38704D01*
X47916Y-38768D01*
X48082Y-38768D01*
X48236Y-38704D01*
X48354Y-38587D01*
X48418Y-38433D01*
X48418Y-38267D01*
X48389Y-38198D01*
X48981Y-37605D01*
X48981Y-37850D01*
X48981Y-38130D01*
X48151Y-38960D01*
X48083Y-38931D01*
X47917Y-38931D01*
X47763Y-38995D01*
X47645Y-39112D01*
X47581Y-39266D01*
X47581Y-39432D01*
X47645Y-39586D01*
X47762Y-39704D01*
X47916Y-39768D01*
X48082Y-39768D01*
X48236Y-39704D01*
X48354Y-39587D01*
X48418Y-39433D01*
X48418Y-39267D01*
X48389Y-39198D01*
X49231Y-38355D01*
X49231Y-39649D01*
X49231Y-39650D01*
X49244Y-39714D01*
X49281Y-39768D01*
X49741Y-40229D01*
X49719Y-40284D01*
X49719Y-40450D01*
X49782Y-40604D01*
X49900Y-40721D01*
X50053Y-40785D01*
X50220Y-40785D01*
X50373Y-40722D01*
X50491Y-40604D01*
X50555Y-40451D01*
X50555Y-40284D01*
X50492Y-40131D01*
X50374Y-40013D01*
X50220Y-39949D01*
X50054Y-39949D01*
X49971Y-39983D01*
X49568Y-39580D01*
X49568Y-36377D01*
X49633Y-36350D01*
X49700Y-36283D01*
X49736Y-36197D01*
X49736Y-36103D01*
X49701Y-36018D01*
X49895Y-36018D01*
X49783Y-36130D01*
X49719Y-36284D01*
X49719Y-36450D01*
X49782Y-36604D01*
X49900Y-36721D01*
X50053Y-36785D01*
X50220Y-36785D01*
X50373Y-36722D01*
X50491Y-36604D01*
X50555Y-36451D01*
X50555Y-36284D01*
X50492Y-36131D01*
X50379Y-36018D01*
X50550Y-36018D01*
X50747Y-36215D01*
X50719Y-36284D01*
X50719Y-36450D01*
X50782Y-36604D01*
X50860Y-36681D01*
X50800Y-36681D01*
X50735Y-36694D01*
X50681Y-36731D01*
X50681Y-36731D01*
X50481Y-36931D01*
X50444Y-36985D01*
X50431Y-37050D01*
X50431Y-37050D01*
X50431Y-37070D01*
X50374Y-37013D01*
X50220Y-36949D01*
X50054Y-36949D01*
X49900Y-37013D01*
X49783Y-37130D01*
X49719Y-37284D01*
X49719Y-37450D01*
X49782Y-37604D01*
X49900Y-37721D01*
X50053Y-37785D01*
X50220Y-37785D01*
X50373Y-37722D01*
X50431Y-37664D01*
X50431Y-38070D01*
X50374Y-38013D01*
X50220Y-37949D01*
X50054Y-37949D01*
X49900Y-38013D01*
X49783Y-38130D01*
X49719Y-38284D01*
X49719Y-38450D01*
X49782Y-38604D01*
X49900Y-38721D01*
X50053Y-38785D01*
X50220Y-38785D01*
X50373Y-38722D01*
X50431Y-38664D01*
X50431Y-38830D01*
X50285Y-38976D01*
X50220Y-38949D01*
X50054Y-38949D01*
X49900Y-39013D01*
X49783Y-39130D01*
X49719Y-39284D01*
X49719Y-39450D01*
X49782Y-39604D01*
X49900Y-39721D01*
X50053Y-39785D01*
X50220Y-39785D01*
X50373Y-39722D01*
X50491Y-39604D01*
X50555Y-39451D01*
X50555Y-39284D01*
X50525Y-39212D01*
X50718Y-39018D01*
X50718Y-39018D01*
X50718Y-39018D01*
X50755Y-38964D01*
X50755Y-38964D01*
X50765Y-38912D01*
X50768Y-38900D01*
X50768Y-38900D01*
X50768Y-38900D01*
X50768Y-38568D01*
X50782Y-38604D01*
X50900Y-38721D01*
X51053Y-38785D01*
X51220Y-38785D01*
X51373Y-38722D01*
X51491Y-38604D01*
X51555Y-38451D01*
X51555Y-38284D01*
X51492Y-38131D01*
X51374Y-38013D01*
X51220Y-37949D01*
X51054Y-37949D01*
X50900Y-38013D01*
X50783Y-38130D01*
X50768Y-38166D01*
X50768Y-37568D01*
X50782Y-37604D01*
X50900Y-37721D01*
X51053Y-37785D01*
X51220Y-37785D01*
X51373Y-37722D01*
X51491Y-37604D01*
X51555Y-37451D01*
X51555Y-37284D01*
X51492Y-37131D01*
X51379Y-37018D01*
X51549Y-37018D01*
X51550Y-37018D01*
X51550Y-37018D01*
X51614Y-37005D01*
X51668Y-36968D01*
X51744Y-36893D01*
X51756Y-36893D01*
X51756Y-36923D01*
X51774Y-36966D01*
X51808Y-37000D01*
X51851Y-37018D01*
X51898Y-37018D01*
X52448Y-37018D01*
X52491Y-37000D01*
X52525Y-36966D01*
X52527Y-36961D01*
X52605Y-36961D01*
X52619Y-36996D01*
X52653Y-37030D01*
X52696Y-37048D01*
X52743Y-37048D01*
X53103Y-37048D01*
X53146Y-37030D01*
X53180Y-36996D01*
X53198Y-36953D01*
X53198Y-36906D01*
X53198Y-36546D01*
X53180Y-36503D01*
X53146Y-36469D01*
X53103Y-36451D01*
X53056Y-36451D01*
X52696Y-36451D01*
X52653Y-36469D01*
X52634Y-36488D01*
X52527Y-36488D01*
X52525Y-36483D01*
X52491Y-36449D01*
X52448Y-36431D01*
X52401Y-36431D01*
X51957Y-36431D01*
X52033Y-36400D01*
X52055Y-36378D01*
X52190Y-36378D01*
X55498Y-36378D01*
X55460Y-36416D01*
X55424Y-36502D01*
X55424Y-36596D01*
X55442Y-36640D01*
X55460Y-36683D01*
X55527Y-36750D01*
X55527Y-36750D01*
X56343Y-37567D01*
X56420Y-37618D01*
X56511Y-37636D01*
X58052Y-37636D01*
X59313Y-38897D01*
X59313Y-41145D01*
X59313Y-41145D01*
G37*
G54D30*
X59313Y-41145D02*
X59313Y-41145D01*
X59195Y-41262D01*
X59131Y-41416D01*
X59131Y-41582D01*
X59132Y-41583D01*
X58852Y-41863D01*
X58314Y-41863D01*
X58336Y-41854D01*
X58454Y-41737D01*
X58518Y-41583D01*
X58518Y-41417D01*
X58517Y-41416D01*
X59017Y-40917D01*
X59017Y-40917D01*
X59017Y-40917D01*
X59068Y-40840D01*
X59068Y-40840D01*
X59086Y-40750D01*
X59086Y-40750D01*
X59086Y-39650D01*
X59068Y-39559D01*
X59017Y-39482D01*
X58586Y-39052D01*
X58586Y-38834D01*
X58596Y-38830D01*
X58630Y-38796D01*
X58648Y-38753D01*
X58648Y-38706D01*
X58648Y-38346D01*
X58630Y-38303D01*
X58596Y-38269D01*
X58553Y-38251D01*
X58506Y-38251D01*
X58146Y-38251D01*
X58103Y-38269D01*
X58069Y-38303D01*
X58068Y-38307D01*
X58068Y-38250D01*
X58055Y-38185D01*
X58018Y-38131D01*
X57968Y-38081D01*
X57914Y-38044D01*
X57850Y-38031D01*
X57849Y-38031D01*
X57848Y-38031D01*
X57848Y-37996D01*
X57830Y-37953D01*
X57796Y-37919D01*
X57753Y-37901D01*
X57706Y-37901D01*
X57346Y-37901D01*
X57303Y-37919D01*
X57284Y-37938D01*
X57250Y-37938D01*
X57227Y-37938D01*
X57225Y-37933D01*
X57191Y-37899D01*
X57148Y-37881D01*
X57101Y-37881D01*
X56551Y-37881D01*
X56508Y-37899D01*
X56474Y-37933D01*
X56456Y-37976D01*
X56456Y-38023D01*
X56456Y-38373D01*
X56474Y-38416D01*
X56508Y-38450D01*
X56551Y-38468D01*
X56598Y-38468D01*
X57148Y-38468D01*
X57191Y-38450D01*
X57225Y-38416D01*
X57227Y-38411D01*
X57250Y-38411D01*
X57255Y-38411D01*
X57269Y-38446D01*
X57303Y-38480D01*
X57346Y-38498D01*
X57393Y-38498D01*
X57731Y-38498D01*
X57731Y-38523D01*
X57691Y-38523D01*
X57638Y-38523D01*
X57589Y-38572D01*
X57589Y-38860D01*
X57597Y-38860D01*
X57597Y-38939D01*
X57589Y-38939D01*
X57589Y-38947D01*
X57510Y-38947D01*
X57510Y-38939D01*
X57510Y-38860D01*
X57510Y-38572D01*
X57461Y-38523D01*
X57408Y-38523D01*
X57330Y-38523D01*
X57258Y-38553D01*
X57230Y-38580D01*
X57164Y-38553D01*
X57086Y-38553D01*
X56938Y-38553D01*
X56889Y-38602D01*
X56889Y-38885D01*
X57272Y-38885D01*
X57297Y-38860D01*
X57510Y-38860D01*
X57510Y-38939D01*
X57222Y-38939D01*
X57197Y-38964D01*
X56889Y-38964D01*
X56889Y-39247D01*
X56938Y-39296D01*
X57086Y-39296D01*
X57164Y-39296D01*
X57236Y-39266D01*
X57257Y-39245D01*
X57258Y-39246D01*
X57313Y-39269D01*
X57313Y-39346D01*
X57349Y-39433D01*
X57367Y-39451D01*
X57346Y-39451D01*
X57303Y-39469D01*
X57284Y-39488D01*
X57250Y-39488D01*
X57227Y-39488D01*
X57225Y-39483D01*
X57191Y-39449D01*
X57148Y-39431D01*
X57101Y-39431D01*
X56810Y-39431D01*
X56551Y-39431D01*
X56508Y-39449D01*
X56474Y-39483D01*
X56456Y-39526D01*
X56456Y-39573D01*
X56456Y-39923D01*
X56474Y-39966D01*
X56508Y-40000D01*
X56551Y-40018D01*
X56598Y-40018D01*
X56628Y-40018D01*
X56613Y-40052D01*
X56613Y-40103D01*
X56535Y-40103D01*
X56463Y-40133D01*
X56448Y-40148D01*
X56448Y-39896D01*
X56430Y-39853D01*
X56396Y-39819D01*
X56353Y-39801D01*
X56306Y-39801D01*
X55986Y-39801D01*
X55986Y-39447D01*
X56317Y-39117D01*
X56317Y-39117D01*
X56317Y-39117D01*
X56368Y-39040D01*
X56368Y-39040D01*
X56383Y-38964D01*
X56427Y-38964D01*
X56378Y-39013D01*
X56378Y-39138D01*
X56408Y-39211D01*
X56463Y-39266D01*
X56535Y-39296D01*
X56613Y-39296D01*
X56761Y-39296D01*
X56810Y-39247D01*
X56810Y-38964D01*
X56802Y-38964D01*
X56802Y-38885D01*
X56810Y-38885D01*
X56810Y-38602D01*
X56761Y-38553D01*
X56613Y-38553D01*
X56535Y-38553D01*
X56463Y-38583D01*
X56448Y-38598D01*
X56448Y-38296D01*
X56430Y-38253D01*
X56396Y-38219D01*
X56353Y-38201D01*
X56306Y-38201D01*
X55946Y-38201D01*
X55903Y-38219D01*
X55869Y-38253D01*
X55851Y-38296D01*
X55851Y-38343D01*
X55851Y-38703D01*
X55869Y-38746D01*
X55903Y-38780D01*
X55913Y-38784D01*
X55913Y-38852D01*
X55726Y-39039D01*
X55726Y-38631D01*
X55696Y-38558D01*
X55648Y-38509D01*
X55648Y-38306D01*
X55648Y-37946D01*
X55630Y-37903D01*
X55596Y-37869D01*
X55553Y-37851D01*
X55506Y-37851D01*
X55146Y-37851D01*
X55103Y-37869D01*
X55084Y-37888D01*
X55027Y-37888D01*
X55025Y-37883D01*
X54991Y-37849D01*
X54948Y-37831D01*
X54901Y-37831D01*
X54351Y-37831D01*
X54308Y-37849D01*
X54274Y-37883D01*
X54256Y-37926D01*
X54256Y-37973D01*
X54256Y-38323D01*
X54274Y-38366D01*
X54308Y-38400D01*
X54351Y-38418D01*
X54398Y-38418D01*
X54478Y-38418D01*
X54463Y-38452D01*
X54463Y-38503D01*
X54413Y-38503D01*
X54335Y-38503D01*
X54263Y-38533D01*
X54208Y-38588D01*
X54178Y-38661D01*
X54178Y-38786D01*
X54227Y-38835D01*
X54610Y-38835D01*
X54610Y-38827D01*
X54689Y-38827D01*
X54689Y-38835D01*
X55072Y-38835D01*
X55097Y-38810D01*
X55310Y-38810D01*
X55310Y-38522D01*
X55261Y-38473D01*
X55208Y-38473D01*
X55130Y-38473D01*
X55058Y-38503D01*
X55030Y-38530D01*
X54964Y-38503D01*
X54936Y-38503D01*
X54936Y-38453D01*
X54921Y-38418D01*
X54948Y-38418D01*
X54991Y-38400D01*
X55025Y-38366D01*
X55027Y-38361D01*
X55055Y-38361D01*
X55069Y-38396D01*
X55103Y-38430D01*
X55146Y-38448D01*
X55193Y-38448D01*
X55553Y-38448D01*
X55596Y-38430D01*
X55630Y-38396D01*
X55648Y-38353D01*
X55648Y-38306D01*
X55648Y-38509D01*
X55641Y-38503D01*
X55569Y-38473D01*
X55491Y-38473D01*
X55438Y-38473D01*
X55389Y-38522D01*
X55389Y-38810D01*
X55677Y-38810D01*
X55726Y-38761D01*
X55726Y-38631D01*
X55726Y-39039D01*
X55726Y-39039D01*
X55726Y-38938D01*
X55677Y-38889D01*
X55389Y-38889D01*
X55389Y-39177D01*
X55438Y-39226D01*
X55491Y-39226D01*
X55553Y-39226D01*
X55531Y-39259D01*
X55513Y-39350D01*
X55513Y-39451D01*
X55506Y-39451D01*
X55310Y-39451D01*
X55310Y-39177D01*
X55310Y-38889D01*
X55022Y-38889D01*
X54997Y-38914D01*
X54689Y-38914D01*
X54689Y-39197D01*
X54738Y-39246D01*
X54886Y-39246D01*
X54964Y-39246D01*
X55036Y-39216D01*
X55057Y-39195D01*
X55058Y-39196D01*
X55130Y-39226D01*
X55208Y-39226D01*
X55261Y-39226D01*
X55310Y-39177D01*
X55310Y-39451D01*
X55146Y-39451D01*
X55103Y-39469D01*
X55084Y-39488D01*
X55050Y-39488D01*
X55027Y-39488D01*
X55025Y-39483D01*
X54991Y-39449D01*
X54948Y-39431D01*
X54901Y-39431D01*
X54610Y-39431D01*
X54610Y-39197D01*
X54610Y-38914D01*
X54227Y-38914D01*
X54178Y-38963D01*
X54178Y-39088D01*
X54208Y-39161D01*
X54263Y-39216D01*
X54335Y-39246D01*
X54413Y-39246D01*
X54561Y-39246D01*
X54610Y-39197D01*
X54610Y-39431D01*
X54351Y-39431D01*
X54308Y-39449D01*
X54274Y-39483D01*
X54256Y-39526D01*
X54256Y-39573D01*
X54256Y-39923D01*
X54274Y-39966D01*
X54308Y-40000D01*
X54351Y-40018D01*
X54398Y-40018D01*
X54763Y-40018D01*
X54763Y-40096D01*
X54766Y-40103D01*
X54738Y-40103D01*
X54689Y-40152D01*
X54689Y-40435D01*
X55072Y-40435D01*
X55097Y-40410D01*
X55310Y-40410D01*
X55310Y-40122D01*
X55261Y-40073D01*
X55236Y-40073D01*
X55236Y-40048D01*
X55513Y-40048D01*
X55513Y-40073D01*
X55491Y-40073D01*
X55438Y-40073D01*
X55389Y-40122D01*
X55389Y-40410D01*
X55397Y-40410D01*
X55397Y-40489D01*
X55389Y-40489D01*
X55389Y-40497D01*
X55310Y-40497D01*
X55310Y-40489D01*
X55022Y-40489D01*
X54997Y-40514D01*
X54689Y-40514D01*
X54689Y-40797D01*
X54738Y-40846D01*
X54886Y-40846D01*
X54923Y-40846D01*
X54881Y-40909D01*
X54863Y-41000D01*
X54863Y-41081D01*
X54776Y-41081D01*
X54733Y-41099D01*
X54699Y-41133D01*
X54681Y-41176D01*
X54681Y-41223D01*
X54681Y-41823D01*
X54698Y-41863D01*
X54610Y-41863D01*
X54610Y-40797D01*
X54610Y-40514D01*
X54610Y-40435D01*
X54610Y-40152D01*
X54561Y-40103D01*
X54413Y-40103D01*
X54335Y-40103D01*
X54263Y-40133D01*
X54208Y-40188D01*
X54178Y-40261D01*
X54178Y-40386D01*
X54227Y-40435D01*
X54610Y-40435D01*
X54610Y-40514D01*
X54227Y-40514D01*
X54178Y-40563D01*
X54178Y-40688D01*
X54208Y-40761D01*
X54263Y-40816D01*
X54335Y-40846D01*
X54413Y-40846D01*
X54561Y-40846D01*
X54610Y-40797D01*
X54610Y-41863D01*
X54101Y-41863D01*
X54118Y-41823D01*
X54118Y-41776D01*
X54118Y-41176D01*
X54100Y-41133D01*
X54066Y-41099D01*
X54023Y-41081D01*
X53976Y-41081D01*
X53936Y-41081D01*
X53936Y-40918D01*
X54048Y-40918D01*
X54091Y-40900D01*
X54125Y-40866D01*
X54143Y-40823D01*
X54143Y-40776D01*
X54143Y-40426D01*
X54143Y-40026D01*
X54143Y-39676D01*
X54125Y-39633D01*
X54091Y-39599D01*
X54048Y-39581D01*
X54001Y-39581D01*
X53986Y-39581D01*
X53986Y-38832D01*
X53998Y-38803D01*
X53998Y-38756D01*
X53998Y-38396D01*
X53980Y-38353D01*
X53946Y-38319D01*
X53903Y-38301D01*
X53856Y-38301D01*
X53536Y-38301D01*
X53536Y-38297D01*
X53867Y-37967D01*
X53867Y-37967D01*
X53867Y-37967D01*
X53918Y-37890D01*
X53918Y-37890D01*
X53936Y-37800D01*
X53936Y-37800D01*
X53936Y-37384D01*
X53946Y-37380D01*
X53980Y-37346D01*
X53998Y-37303D01*
X53998Y-37256D01*
X53998Y-36896D01*
X53980Y-36853D01*
X53946Y-36819D01*
X53903Y-36801D01*
X53856Y-36801D01*
X53496Y-36801D01*
X53453Y-36819D01*
X53419Y-36853D01*
X53401Y-36896D01*
X53401Y-36943D01*
X53401Y-37303D01*
X53419Y-37346D01*
X53453Y-37380D01*
X53463Y-37384D01*
X53463Y-37702D01*
X53276Y-37889D01*
X53276Y-37668D01*
X53276Y-37231D01*
X53246Y-37158D01*
X53191Y-37103D01*
X53119Y-37073D01*
X53041Y-37073D01*
X52988Y-37073D01*
X52939Y-37122D01*
X52939Y-37410D01*
X53227Y-37410D01*
X53276Y-37361D01*
X53276Y-37231D01*
X53276Y-37668D01*
X53276Y-37538D01*
X53227Y-37489D01*
X52939Y-37489D01*
X52939Y-37777D01*
X52988Y-37826D01*
X53041Y-37826D01*
X53119Y-37826D01*
X53191Y-37796D01*
X53246Y-37741D01*
X53276Y-37668D01*
X53276Y-37889D01*
X53171Y-37994D01*
X53146Y-37969D01*
X53103Y-37951D01*
X53056Y-37951D01*
X52860Y-37951D01*
X52860Y-37777D01*
X52860Y-37489D01*
X52860Y-37410D01*
X52860Y-37122D01*
X52811Y-37073D01*
X52758Y-37073D01*
X52680Y-37073D01*
X52608Y-37103D01*
X52557Y-37154D01*
X52536Y-37133D01*
X52464Y-37103D01*
X52386Y-37103D01*
X52238Y-37103D01*
X52189Y-37152D01*
X52189Y-37435D01*
X52572Y-37435D01*
X52597Y-37410D01*
X52860Y-37410D01*
X52860Y-37489D01*
X52572Y-37489D01*
X52547Y-37514D01*
X52189Y-37514D01*
X52189Y-37797D01*
X52238Y-37846D01*
X52386Y-37846D01*
X52464Y-37846D01*
X52536Y-37816D01*
X52582Y-37770D01*
X52608Y-37796D01*
X52680Y-37826D01*
X52758Y-37826D01*
X52811Y-37826D01*
X52860Y-37777D01*
X52860Y-37951D01*
X52696Y-37951D01*
X52653Y-37969D01*
X52634Y-37988D01*
X52527Y-37988D01*
X52525Y-37983D01*
X52491Y-37949D01*
X52448Y-37931D01*
X52401Y-37931D01*
X52110Y-37931D01*
X52110Y-37797D01*
X52110Y-37514D01*
X52110Y-37435D01*
X52110Y-37152D01*
X52061Y-37103D01*
X51913Y-37103D01*
X51835Y-37103D01*
X51763Y-37133D01*
X51708Y-37188D01*
X51678Y-37261D01*
X51678Y-37386D01*
X51727Y-37435D01*
X52110Y-37435D01*
X52110Y-37514D01*
X51727Y-37514D01*
X51678Y-37563D01*
X51678Y-37688D01*
X51708Y-37761D01*
X51763Y-37816D01*
X51835Y-37846D01*
X51913Y-37846D01*
X52061Y-37846D01*
X52110Y-37797D01*
X52110Y-37931D01*
X51851Y-37931D01*
X51808Y-37949D01*
X51774Y-37983D01*
X51756Y-38026D01*
X51756Y-38073D01*
X51756Y-38423D01*
X51760Y-38431D01*
X51750Y-38431D01*
X51685Y-38444D01*
X51631Y-38481D01*
X51631Y-38481D01*
X51531Y-38581D01*
X51494Y-38635D01*
X51481Y-38700D01*
X51481Y-38700D01*
X51481Y-39120D01*
X51374Y-39013D01*
X51220Y-38949D01*
X51054Y-38949D01*
X50900Y-39013D01*
X50783Y-39130D01*
X50719Y-39284D01*
X50719Y-39450D01*
X50782Y-39604D01*
X50900Y-39721D01*
X51053Y-39785D01*
X51220Y-39785D01*
X51373Y-39722D01*
X51481Y-39614D01*
X51481Y-39785D01*
X51289Y-39978D01*
X51220Y-39949D01*
X51054Y-39949D01*
X50900Y-40013D01*
X50783Y-40130D01*
X50719Y-40284D01*
X50719Y-40450D01*
X50782Y-40604D01*
X50900Y-40721D01*
X51053Y-40785D01*
X51220Y-40785D01*
X51373Y-40722D01*
X51491Y-40604D01*
X51555Y-40451D01*
X51555Y-40284D01*
X51527Y-40215D01*
X51768Y-39973D01*
X51805Y-39919D01*
X51818Y-39855D01*
X51818Y-39855D01*
X51818Y-39855D01*
X51818Y-39339D01*
X51835Y-39346D01*
X51913Y-39346D01*
X52061Y-39346D01*
X52110Y-39297D01*
X52110Y-39014D01*
X52102Y-39014D01*
X52102Y-38935D01*
X52110Y-38935D01*
X52110Y-38927D01*
X52189Y-38927D01*
X52189Y-38935D01*
X52572Y-38935D01*
X52597Y-38910D01*
X52860Y-38910D01*
X52860Y-38622D01*
X52811Y-38573D01*
X52758Y-38573D01*
X52680Y-38573D01*
X52608Y-38603D01*
X52557Y-38654D01*
X52536Y-38633D01*
X52464Y-38603D01*
X52386Y-38603D01*
X52279Y-38603D01*
X52305Y-38564D01*
X52314Y-38518D01*
X52448Y-38518D01*
X52491Y-38500D01*
X52525Y-38466D01*
X52527Y-38461D01*
X52605Y-38461D01*
X52619Y-38496D01*
X52653Y-38530D01*
X52696Y-38548D01*
X52743Y-38548D01*
X53063Y-38548D01*
X53063Y-38573D01*
X53041Y-38573D01*
X52988Y-38573D01*
X52939Y-38622D01*
X52939Y-38910D01*
X52947Y-38910D01*
X52947Y-38989D01*
X52939Y-38989D01*
X52939Y-39277D01*
X52988Y-39326D01*
X52989Y-39326D01*
X52860Y-39455D01*
X52860Y-39277D01*
X52860Y-38989D01*
X52572Y-38989D01*
X52547Y-39014D01*
X52189Y-39014D01*
X52189Y-39297D01*
X52238Y-39346D01*
X52386Y-39346D01*
X52464Y-39346D01*
X52536Y-39316D01*
X52582Y-39270D01*
X52608Y-39296D01*
X52680Y-39326D01*
X52758Y-39326D01*
X52811Y-39326D01*
X52860Y-39277D01*
X52860Y-39455D01*
X52784Y-39531D01*
X52451Y-39531D01*
X52408Y-39549D01*
X52374Y-39583D01*
X52356Y-39626D01*
X52356Y-39673D01*
X52356Y-40023D01*
X52374Y-40066D01*
X52408Y-40100D01*
X52451Y-40118D01*
X52498Y-40118D01*
X53048Y-40118D01*
X53091Y-40100D01*
X53125Y-40066D01*
X53143Y-40023D01*
X53143Y-39976D01*
X53143Y-39840D01*
X53467Y-39517D01*
X53467Y-39517D01*
X53501Y-39465D01*
X53513Y-39447D01*
X53513Y-39581D01*
X53451Y-39581D01*
X53408Y-39599D01*
X53374Y-39633D01*
X53356Y-39676D01*
X53356Y-39723D01*
X53356Y-40073D01*
X53374Y-40116D01*
X53408Y-40150D01*
X53451Y-40168D01*
X53498Y-40168D01*
X54048Y-40168D01*
X54091Y-40150D01*
X54125Y-40116D01*
X54143Y-40073D01*
X54143Y-40026D01*
X54143Y-40426D01*
X54125Y-40383D01*
X54091Y-40349D01*
X54048Y-40331D01*
X54001Y-40331D01*
X53451Y-40331D01*
X53434Y-40338D01*
X53127Y-40338D01*
X53125Y-40333D01*
X53091Y-40299D01*
X53048Y-40281D01*
X53001Y-40281D01*
X52451Y-40281D01*
X52408Y-40299D01*
X52374Y-40333D01*
X52356Y-40376D01*
X52356Y-40423D01*
X52356Y-40773D01*
X52374Y-40816D01*
X52408Y-40850D01*
X52451Y-40868D01*
X52498Y-40868D01*
X53048Y-40868D01*
X53091Y-40850D01*
X53125Y-40816D01*
X53127Y-40811D01*
X53356Y-40811D01*
X53356Y-40823D01*
X53374Y-40866D01*
X53408Y-40900D01*
X53451Y-40918D01*
X53463Y-40918D01*
X53463Y-41081D01*
X53376Y-41081D01*
X53333Y-41099D01*
X53299Y-41133D01*
X53281Y-41176D01*
X53281Y-41223D01*
X53281Y-41747D01*
X53117Y-41583D01*
X53118Y-41583D01*
X53118Y-41417D01*
X53054Y-41263D01*
X52937Y-41145D01*
X52783Y-41081D01*
X52617Y-41081D01*
X52463Y-41145D01*
X52345Y-41262D01*
X52281Y-41416D01*
X52281Y-41582D01*
X52345Y-41736D01*
X52462Y-41854D01*
X52616Y-41918D01*
X52782Y-41918D01*
X52783Y-41917D01*
X53032Y-42167D01*
X53132Y-42267D01*
X53155Y-42281D01*
X52289Y-42281D01*
X51527Y-41519D01*
X51555Y-41451D01*
X51555Y-41284D01*
X51492Y-41131D01*
X51374Y-41013D01*
X51220Y-40949D01*
X51054Y-40949D01*
X50900Y-41013D01*
X50783Y-41130D01*
X50719Y-41284D01*
X50719Y-41450D01*
X50782Y-41604D01*
X50900Y-41721D01*
X51053Y-41785D01*
X51220Y-41785D01*
X51289Y-41757D01*
X52100Y-42568D01*
X52155Y-42605D01*
X52219Y-42618D01*
X52219Y-42618D01*
X52219Y-42618D01*
X55378Y-42618D01*
X55372Y-42631D01*
X51464Y-42631D01*
X51491Y-42604D01*
X51555Y-42451D01*
X51555Y-42284D01*
X51492Y-42131D01*
X51374Y-42013D01*
X51220Y-41949D01*
X51054Y-41949D01*
X50900Y-42013D01*
X50783Y-42130D01*
X50768Y-42166D01*
X50768Y-41850D01*
X50768Y-41849D01*
X50768Y-41849D01*
X50765Y-41837D01*
X50755Y-41785D01*
X50755Y-41785D01*
X50718Y-41731D01*
X50718Y-41731D01*
X50521Y-41533D01*
X50555Y-41451D01*
X50555Y-41284D01*
X50492Y-41131D01*
X50374Y-41013D01*
X50220Y-40949D01*
X50054Y-40949D01*
X49900Y-41013D01*
X49783Y-41130D01*
X49719Y-41284D01*
X49719Y-41450D01*
X49782Y-41604D01*
X49900Y-41721D01*
X50053Y-41785D01*
X50220Y-41785D01*
X50275Y-41763D01*
X50431Y-41919D01*
X50431Y-42070D01*
X50374Y-42013D01*
X50220Y-41949D01*
X50054Y-41949D01*
X49900Y-42013D01*
X49783Y-42130D01*
X49719Y-42284D01*
X49719Y-42450D01*
X49782Y-42604D01*
X49900Y-42721D01*
X50053Y-42785D01*
X50220Y-42785D01*
X50373Y-42722D01*
X50491Y-42604D01*
X50499Y-42586D01*
X50764Y-42852D01*
X48868Y-42852D01*
X48868Y-41418D01*
X48728Y-41080D01*
X48470Y-40822D01*
X48133Y-40682D01*
X47768Y-40681D01*
X47430Y-40821D01*
X47172Y-41079D01*
X47032Y-41416D01*
X47031Y-41781D01*
X47171Y-42119D01*
X47429Y-42377D01*
X47766Y-42517D01*
X48131Y-42518D01*
X48469Y-42378D01*
X48727Y-42120D01*
X48867Y-41783D01*
X48868Y-41418D01*
X48868Y-42852D01*
X46747Y-42852D01*
X46747Y-29647D01*
X57810Y-29647D01*
X57799Y-29658D01*
X57781Y-29701D01*
X57781Y-29748D01*
X57781Y-29831D01*
X57400Y-29831D01*
X57335Y-29844D01*
X57281Y-29881D01*
X56831Y-30331D01*
X56794Y-30385D01*
X56781Y-30450D01*
X56781Y-30450D01*
X56781Y-31130D01*
X56561Y-31351D01*
X56561Y-31304D01*
X56561Y-31304D01*
X56679Y-31187D01*
X56743Y-31033D01*
X56743Y-30867D01*
X56679Y-30713D01*
X56562Y-30595D01*
X56408Y-30531D01*
X56242Y-30531D01*
X56088Y-30595D01*
X55970Y-30712D01*
X55906Y-30866D01*
X55906Y-31032D01*
X55970Y-31186D01*
X56074Y-31291D01*
X56052Y-31313D01*
X55575Y-31313D01*
X55506Y-31327D01*
X55561Y-31304D01*
X55679Y-31187D01*
X55743Y-31033D01*
X55743Y-30867D01*
X55679Y-30713D01*
X55562Y-30595D01*
X55408Y-30531D01*
X55242Y-30531D01*
X55088Y-30595D01*
X54970Y-30712D01*
X54906Y-30866D01*
X54906Y-31032D01*
X54914Y-31051D01*
X54821Y-31144D01*
X54821Y-30688D01*
X54821Y-30610D01*
X54791Y-30538D01*
X54736Y-30483D01*
X54663Y-30453D01*
X54413Y-30453D01*
X54364Y-30502D01*
X54364Y-30910D01*
X54772Y-30910D01*
X54821Y-30861D01*
X54821Y-30688D01*
X54821Y-31144D01*
X54821Y-31144D01*
X54821Y-31038D01*
X54772Y-30989D01*
X54364Y-30989D01*
X54364Y-31397D01*
X54413Y-31446D01*
X54531Y-31446D01*
X54506Y-31484D01*
X54488Y-31575D01*
X54488Y-31673D01*
X54466Y-31673D01*
X54413Y-31673D01*
X54364Y-31722D01*
X54364Y-32010D01*
X54372Y-32010D01*
X54372Y-32089D01*
X54364Y-32089D01*
X54364Y-32377D01*
X54413Y-32426D01*
X54466Y-32426D01*
X54488Y-32426D01*
X54488Y-32451D01*
X54481Y-32451D01*
X54285Y-32451D01*
X54285Y-32377D01*
X54285Y-32089D01*
X54285Y-32010D01*
X54285Y-31722D01*
X54285Y-31397D01*
X54285Y-30989D01*
X54285Y-30910D01*
X54285Y-30502D01*
X54236Y-30453D01*
X53986Y-30453D01*
X53913Y-30483D01*
X53858Y-30538D01*
X53828Y-30610D01*
X53828Y-30688D01*
X53828Y-30861D01*
X53877Y-30910D01*
X54285Y-30910D01*
X54285Y-30989D01*
X53877Y-30989D01*
X53828Y-31038D01*
X53828Y-31211D01*
X53828Y-31289D01*
X53858Y-31361D01*
X53913Y-31416D01*
X53986Y-31446D01*
X54236Y-31446D01*
X54285Y-31397D01*
X54285Y-31722D01*
X54236Y-31673D01*
X54183Y-31673D01*
X54105Y-31673D01*
X54033Y-31703D01*
X53978Y-31758D01*
X53948Y-31831D01*
X53948Y-31961D01*
X53997Y-32010D01*
X54285Y-32010D01*
X54285Y-32089D01*
X53997Y-32089D01*
X53948Y-32138D01*
X53948Y-32268D01*
X53978Y-32341D01*
X54033Y-32396D01*
X54105Y-32426D01*
X54183Y-32426D01*
X54236Y-32426D01*
X54285Y-32377D01*
X54285Y-32451D01*
X54121Y-32451D01*
X54078Y-32469D01*
X54044Y-32503D01*
X54040Y-32513D01*
X54025Y-32513D01*
X53934Y-32531D01*
X53909Y-32548D01*
X53871Y-32573D01*
X53871Y-32538D01*
X53822Y-32489D01*
X53564Y-32489D01*
X53564Y-32497D01*
X53485Y-32497D01*
X53485Y-32489D01*
X53477Y-32489D01*
X53477Y-32410D01*
X53485Y-32410D01*
X53485Y-32402D01*
X53564Y-32402D01*
X53564Y-32410D01*
X53822Y-32410D01*
X53871Y-32361D01*
X53871Y-32311D01*
X53841Y-32238D01*
X53793Y-32189D01*
X53793Y-32151D01*
X53793Y-31951D01*
X53775Y-31908D01*
X53741Y-31874D01*
X53698Y-31856D01*
X53651Y-31856D01*
X53615Y-31856D01*
X53615Y-31856D01*
X53550Y-31843D01*
X53550Y-31029D01*
X53542Y-30832D01*
X53481Y-30684D01*
X53400Y-30655D01*
X53344Y-30711D01*
X53344Y-30599D01*
X53315Y-30518D01*
X53129Y-30449D01*
X52932Y-30457D01*
X52784Y-30518D01*
X52755Y-30599D01*
X53050Y-30894D01*
X53344Y-30599D01*
X53344Y-30711D01*
X53105Y-30950D01*
X53400Y-31244D01*
X53481Y-31215D01*
X53550Y-31029D01*
X53550Y-31843D01*
X53525Y-31838D01*
X53361Y-31838D01*
X53361Y-31725D01*
X53343Y-31634D01*
X53343Y-31634D01*
X53326Y-31609D01*
X53292Y-31557D01*
X53292Y-31557D01*
X53217Y-31482D01*
X53157Y-31443D01*
X53167Y-31442D01*
X53315Y-31381D01*
X53344Y-31300D01*
X53050Y-31005D01*
X52994Y-31061D01*
X52994Y-30950D01*
X52699Y-30655D01*
X52618Y-30684D01*
X52549Y-30870D01*
X52557Y-31067D01*
X52618Y-31215D01*
X52699Y-31244D01*
X52994Y-30950D01*
X52994Y-31061D01*
X52755Y-31300D01*
X52784Y-31381D01*
X52871Y-31413D01*
X52550Y-31413D01*
X52550Y-31029D01*
X52542Y-30832D01*
X52481Y-30684D01*
X52400Y-30655D01*
X52344Y-30711D01*
X52344Y-30599D01*
X52315Y-30518D01*
X52129Y-30449D01*
X51932Y-30457D01*
X51784Y-30518D01*
X51755Y-30599D01*
X52050Y-30894D01*
X52344Y-30599D01*
X52344Y-30711D01*
X52105Y-30950D01*
X52400Y-31244D01*
X52481Y-31215D01*
X52550Y-31029D01*
X52550Y-31413D01*
X52237Y-31413D01*
X52315Y-31381D01*
X52344Y-31300D01*
X52050Y-31005D01*
X51994Y-31061D01*
X51994Y-30950D01*
X51699Y-30655D01*
X51618Y-30684D01*
X51549Y-30870D01*
X51557Y-31067D01*
X51618Y-31215D01*
X51699Y-31244D01*
X51994Y-30950D01*
X51994Y-31061D01*
X51755Y-31300D01*
X51784Y-31381D01*
X51871Y-31413D01*
X51850Y-31413D01*
X51759Y-31431D01*
X51682Y-31482D01*
X51657Y-31507D01*
X51606Y-31584D01*
X51588Y-31675D01*
X51588Y-31722D01*
X51583Y-31724D01*
X51549Y-31758D01*
X51546Y-31765D01*
X51546Y-31211D01*
X51546Y-30688D01*
X51546Y-30610D01*
X51516Y-30538D01*
X51461Y-30483D01*
X51388Y-30453D01*
X51138Y-30453D01*
X51089Y-30502D01*
X51089Y-30910D01*
X51497Y-30910D01*
X51546Y-30861D01*
X51546Y-30688D01*
X51546Y-31211D01*
X51546Y-31038D01*
X51497Y-30989D01*
X51089Y-30989D01*
X51089Y-31397D01*
X51138Y-31446D01*
X51388Y-31446D01*
X51461Y-31416D01*
X51516Y-31361D01*
X51546Y-31289D01*
X51546Y-31211D01*
X51546Y-31765D01*
X51531Y-31801D01*
X51531Y-31848D01*
X51531Y-32398D01*
X51549Y-32441D01*
X51583Y-32475D01*
X51626Y-32493D01*
X51673Y-32493D01*
X52023Y-32493D01*
X52066Y-32475D01*
X52100Y-32441D01*
X52118Y-32398D01*
X52118Y-32351D01*
X52118Y-31886D01*
X52296Y-31886D01*
X52274Y-31908D01*
X52256Y-31951D01*
X52256Y-31998D01*
X52256Y-32198D01*
X52274Y-32241D01*
X52308Y-32275D01*
X52351Y-32293D01*
X52398Y-32293D01*
X52698Y-32293D01*
X52741Y-32275D01*
X52775Y-32241D01*
X52793Y-32198D01*
X52793Y-32151D01*
X52793Y-31951D01*
X52775Y-31908D01*
X52753Y-31886D01*
X52888Y-31886D01*
X52888Y-32150D01*
X52888Y-32725D01*
X52906Y-32815D01*
X52957Y-32892D01*
X53057Y-32992D01*
X53090Y-33013D01*
X52761Y-33013D01*
X52761Y-33005D01*
X52775Y-32991D01*
X52793Y-32948D01*
X52793Y-32901D01*
X52793Y-32701D01*
X52775Y-32658D01*
X52741Y-32624D01*
X52698Y-32606D01*
X52651Y-32606D01*
X52615Y-32606D01*
X52615Y-32606D01*
X52525Y-32588D01*
X51446Y-32588D01*
X51446Y-32336D01*
X51446Y-31863D01*
X51446Y-31785D01*
X51416Y-31713D01*
X51361Y-31658D01*
X51288Y-31628D01*
X51163Y-31628D01*
X51114Y-31677D01*
X51114Y-32060D01*
X51397Y-32060D01*
X51446Y-32011D01*
X51446Y-31863D01*
X51446Y-32336D01*
X51446Y-32188D01*
X51397Y-32139D01*
X51114Y-32139D01*
X51114Y-32522D01*
X51163Y-32571D01*
X51288Y-32571D01*
X51361Y-32541D01*
X51416Y-32486D01*
X51446Y-32414D01*
X51446Y-32336D01*
X51446Y-32588D01*
X51035Y-32588D01*
X51035Y-32522D01*
X51035Y-32139D01*
X51035Y-32060D01*
X51035Y-31677D01*
X51010Y-31652D01*
X51010Y-31397D01*
X51010Y-30989D01*
X51010Y-30910D01*
X51010Y-30502D01*
X50961Y-30453D01*
X50711Y-30453D01*
X50638Y-30483D01*
X50583Y-30538D01*
X50553Y-30610D01*
X50553Y-30688D01*
X50553Y-30861D01*
X50602Y-30910D01*
X51010Y-30910D01*
X51010Y-30989D01*
X50602Y-30989D01*
X50553Y-31038D01*
X50553Y-31211D01*
X50553Y-31289D01*
X50583Y-31361D01*
X50638Y-31416D01*
X50711Y-31446D01*
X50961Y-31446D01*
X51010Y-31397D01*
X51010Y-31652D01*
X50986Y-31628D01*
X50861Y-31628D01*
X50788Y-31658D01*
X50733Y-31713D01*
X50703Y-31785D01*
X50703Y-31863D01*
X50703Y-32011D01*
X50752Y-32060D01*
X51035Y-32060D01*
X51035Y-32139D01*
X50752Y-32139D01*
X50703Y-32188D01*
X50703Y-32336D01*
X50703Y-32414D01*
X50733Y-32486D01*
X50788Y-32541D01*
X50861Y-32571D01*
X50986Y-32571D01*
X51035Y-32522D01*
X51035Y-32588D01*
X50822Y-32588D01*
X50336Y-32102D01*
X50336Y-30747D01*
X50847Y-30236D01*
X51150Y-30236D01*
X56799Y-30236D01*
X56800Y-30236D01*
X56846Y-30236D01*
X56890Y-30218D01*
X56933Y-30200D01*
X56967Y-30167D01*
X57000Y-30133D01*
X57018Y-30090D01*
X57036Y-30047D01*
X57036Y-30000D01*
X57036Y-29953D01*
X57018Y-29909D01*
X57000Y-29866D01*
X56933Y-29799D01*
X56847Y-29763D01*
X56753Y-29763D01*
X56753Y-29763D01*
X51150Y-29763D01*
X50750Y-29763D01*
X50659Y-29781D01*
X50582Y-29832D01*
X49932Y-30482D01*
X49881Y-30559D01*
X49863Y-30650D01*
X49863Y-32200D01*
X49881Y-32290D01*
X49932Y-32367D01*
X50368Y-32802D01*
X50221Y-32949D01*
X50220Y-32949D01*
X50054Y-32949D01*
X49900Y-33013D01*
X49783Y-33130D01*
X49754Y-33199D01*
X49287Y-33199D01*
X49118Y-33031D01*
X49064Y-32994D01*
X49000Y-32981D01*
X48999Y-32981D01*
X48868Y-32981D01*
X48868Y-30788D01*
X48728Y-30450D01*
X48470Y-30192D01*
X48133Y-30052D01*
X47768Y-30051D01*
X47430Y-30191D01*
X47172Y-30449D01*
X47032Y-30786D01*
X47031Y-31151D01*
X47171Y-31489D01*
X47429Y-31747D01*
X47766Y-31888D01*
X48131Y-31888D01*
X48469Y-31748D01*
X48727Y-31490D01*
X48867Y-31153D01*
X48868Y-30788D01*
X48868Y-32981D01*
X48382Y-32981D01*
X48354Y-32913D01*
X48237Y-32795D01*
X48083Y-32731D01*
X47917Y-32731D01*
X47763Y-32795D01*
X47645Y-32912D01*
X47581Y-33066D01*
X47581Y-33232D01*
X47645Y-33386D01*
X47762Y-33504D01*
X47916Y-33568D01*
X48082Y-33568D01*
X48236Y-33504D01*
X48354Y-33387D01*
X48382Y-33318D01*
X48930Y-33318D01*
X49098Y-33486D01*
X49153Y-33523D01*
X49217Y-33535D01*
X49217Y-33535D01*
X49217Y-33535D01*
X49754Y-33535D01*
X49782Y-33604D01*
X49900Y-33721D01*
X50053Y-33785D01*
X50220Y-33785D01*
X50373Y-33722D01*
X50491Y-33604D01*
X50555Y-33451D01*
X50555Y-33284D01*
X50555Y-33283D01*
X50640Y-33198D01*
X50640Y-33279D01*
X50689Y-33328D01*
X51098Y-33328D01*
X51098Y-33320D01*
X51176Y-33320D01*
X51176Y-33328D01*
X51585Y-33328D01*
X51634Y-33279D01*
X51634Y-33061D01*
X52288Y-33061D01*
X52288Y-33175D01*
X52306Y-33265D01*
X52357Y-33342D01*
X52432Y-33417D01*
X52432Y-33417D01*
X52484Y-33451D01*
X52505Y-33465D01*
X52463Y-33483D01*
X52408Y-33538D01*
X52378Y-33611D01*
X52378Y-33736D01*
X52427Y-33785D01*
X52810Y-33785D01*
X52810Y-33777D01*
X52889Y-33777D01*
X52889Y-33785D01*
X53227Y-33785D01*
X53272Y-33785D01*
X53610Y-33785D01*
X53610Y-33777D01*
X53689Y-33777D01*
X53689Y-33785D01*
X53697Y-33785D01*
X53697Y-33864D01*
X53689Y-33864D01*
X53689Y-34147D01*
X53738Y-34196D01*
X53886Y-34196D01*
X53964Y-34196D01*
X54036Y-34166D01*
X54091Y-34111D01*
X54099Y-34092D01*
X54108Y-34100D01*
X54151Y-34118D01*
X54198Y-34118D01*
X54713Y-34118D01*
X54713Y-34281D01*
X54701Y-34281D01*
X54151Y-34281D01*
X54108Y-34299D01*
X54074Y-34333D01*
X54072Y-34338D01*
X54027Y-34338D01*
X54025Y-34333D01*
X53991Y-34299D01*
X53948Y-34281D01*
X53901Y-34281D01*
X53610Y-34281D01*
X53610Y-34147D01*
X53610Y-33864D01*
X53272Y-33864D01*
X53227Y-33864D01*
X52889Y-33864D01*
X52889Y-34147D01*
X52938Y-34196D01*
X53086Y-34196D01*
X53164Y-34196D01*
X53236Y-34166D01*
X53250Y-34153D01*
X53263Y-34166D01*
X53335Y-34196D01*
X53413Y-34196D01*
X53561Y-34196D01*
X53610Y-34147D01*
X53610Y-34281D01*
X53351Y-34281D01*
X53308Y-34299D01*
X53274Y-34333D01*
X53272Y-34338D01*
X53227Y-34338D01*
X53225Y-34333D01*
X53191Y-34299D01*
X53148Y-34281D01*
X53101Y-34281D01*
X52810Y-34281D01*
X52810Y-34147D01*
X52810Y-33864D01*
X52427Y-33864D01*
X52378Y-33913D01*
X52378Y-34038D01*
X52408Y-34111D01*
X52463Y-34166D01*
X52535Y-34196D01*
X52613Y-34196D01*
X52761Y-34196D01*
X52810Y-34147D01*
X52810Y-34281D01*
X52551Y-34281D01*
X52508Y-34299D01*
X52474Y-34333D01*
X52456Y-34376D01*
X52456Y-34406D01*
X52075Y-34406D01*
X52010Y-34419D01*
X51956Y-34456D01*
X51956Y-34456D01*
X51681Y-34731D01*
X51644Y-34785D01*
X51634Y-34837D01*
X51634Y-33706D01*
X51634Y-33456D01*
X51585Y-33407D01*
X51176Y-33407D01*
X51176Y-33815D01*
X51225Y-33864D01*
X51398Y-33864D01*
X51476Y-33864D01*
X51549Y-33834D01*
X51604Y-33779D01*
X51634Y-33706D01*
X51634Y-34837D01*
X51631Y-34850D01*
X51631Y-34850D01*
X51631Y-35530D01*
X51548Y-35613D01*
X51503Y-35613D01*
X51468Y-35628D01*
X51491Y-35604D01*
X51555Y-35451D01*
X51555Y-35284D01*
X51555Y-34284D01*
X51492Y-34131D01*
X51374Y-34013D01*
X51220Y-33949D01*
X51098Y-33949D01*
X51098Y-33815D01*
X51098Y-33407D01*
X50689Y-33407D01*
X50640Y-33456D01*
X50640Y-33706D01*
X50670Y-33779D01*
X50725Y-33834D01*
X50798Y-33864D01*
X50876Y-33864D01*
X51048Y-33864D01*
X51098Y-33815D01*
X51098Y-33949D01*
X51054Y-33949D01*
X50900Y-34013D01*
X50783Y-34130D01*
X50719Y-34284D01*
X50719Y-34450D01*
X50782Y-34604D01*
X50900Y-34721D01*
X51053Y-34785D01*
X51220Y-34785D01*
X51373Y-34722D01*
X51491Y-34604D01*
X51555Y-34451D01*
X51555Y-34284D01*
X51555Y-35284D01*
X51492Y-35131D01*
X51374Y-35013D01*
X51220Y-34949D01*
X51054Y-34949D01*
X50985Y-34978D01*
X50738Y-34731D01*
X50684Y-34694D01*
X50619Y-34681D01*
X50619Y-34681D01*
X50414Y-34681D01*
X50491Y-34604D01*
X50555Y-34451D01*
X50555Y-34284D01*
X50492Y-34131D01*
X50374Y-34013D01*
X50220Y-33949D01*
X50054Y-33949D01*
X49900Y-34013D01*
X49783Y-34130D01*
X49754Y-34199D01*
X49582Y-34199D01*
X49517Y-34212D01*
X49463Y-34248D01*
X49463Y-34248D01*
X48500Y-35211D01*
X48500Y-34229D01*
X48492Y-34032D01*
X48431Y-33884D01*
X48350Y-33855D01*
X48294Y-33911D01*
X48294Y-33799D01*
X48265Y-33718D01*
X48079Y-33649D01*
X47882Y-33657D01*
X47734Y-33718D01*
X47705Y-33799D01*
X48000Y-34094D01*
X48294Y-33799D01*
X48294Y-33911D01*
X48055Y-34150D01*
X48350Y-34444D01*
X48431Y-34415D01*
X48500Y-34229D01*
X48500Y-35211D01*
X48418Y-35294D01*
X48418Y-34826D01*
X48400Y-34783D01*
X48366Y-34749D01*
X48323Y-34731D01*
X48294Y-34731D01*
X48294Y-34500D01*
X48000Y-34205D01*
X47944Y-34261D01*
X47944Y-34150D01*
X47649Y-33855D01*
X47568Y-33884D01*
X47499Y-34070D01*
X47507Y-34267D01*
X47568Y-34415D01*
X47649Y-34444D01*
X47944Y-34150D01*
X47944Y-34261D01*
X47705Y-34500D01*
X47734Y-34581D01*
X47920Y-34650D01*
X48117Y-34642D01*
X48265Y-34581D01*
X48294Y-34500D01*
X48294Y-34731D01*
X48276Y-34731D01*
X47676Y-34731D01*
X47633Y-34749D01*
X47599Y-34783D01*
X47581Y-34826D01*
X47581Y-34873D01*
X47581Y-35473D01*
X47599Y-35516D01*
X47633Y-35550D01*
X47676Y-35568D01*
X47723Y-35568D01*
X48144Y-35568D01*
X47881Y-35831D01*
X47844Y-35885D01*
X47835Y-35931D01*
X47676Y-35931D01*
X47633Y-35949D01*
X47599Y-35983D01*
X47581Y-36026D01*
X47581Y-36073D01*
X47581Y-36673D01*
X47599Y-36716D01*
X47633Y-36750D01*
X47676Y-36768D01*
X47723Y-36768D01*
X48323Y-36768D01*
X48358Y-36753D01*
X48151Y-36960D01*
X48083Y-36931D01*
X47917Y-36931D01*
X47763Y-36995D01*
X47645Y-37112D01*
X47581Y-37266D01*
X47581Y-37432D01*
X47645Y-37586D01*
X47762Y-37704D01*
X47916Y-37768D01*
X48082Y-37768D01*
X48236Y-37704D01*
X48354Y-37587D01*
X48418Y-37433D01*
X48418Y-37267D01*
X48389Y-37198D01*
X48781Y-36805D01*
X48781Y-37050D01*
X48781Y-37330D01*
X48151Y-37960D01*
X48083Y-37931D01*
X47917Y-37931D01*
X47763Y-37995D01*
X47645Y-38112D01*
X47581Y-38266D01*
X47581Y-38432D01*
X47645Y-38586D01*
X47762Y-38704D01*
X47916Y-38768D01*
X48082Y-38768D01*
X48236Y-38704D01*
X48354Y-38587D01*
X48418Y-38433D01*
X48418Y-38267D01*
X48389Y-38198D01*
X48981Y-37605D01*
X48981Y-37850D01*
X48981Y-38130D01*
X48151Y-38960D01*
X48083Y-38931D01*
X47917Y-38931D01*
X47763Y-38995D01*
X47645Y-39112D01*
X47581Y-39266D01*
X47581Y-39432D01*
X47645Y-39586D01*
X47762Y-39704D01*
X47916Y-39768D01*
X48082Y-39768D01*
X48236Y-39704D01*
X48354Y-39587D01*
X48418Y-39433D01*
X48418Y-39267D01*
X48389Y-39198D01*
X49231Y-38355D01*
X49231Y-39649D01*
X49231Y-39650D01*
X49244Y-39714D01*
X49281Y-39768D01*
X49741Y-40229D01*
X49719Y-40284D01*
X49719Y-40450D01*
X49782Y-40604D01*
X49900Y-40721D01*
X50053Y-40785D01*
X50220Y-40785D01*
X50373Y-40722D01*
X50491Y-40604D01*
X50555Y-40451D01*
X50555Y-40284D01*
X50492Y-40131D01*
X50374Y-40013D01*
X50220Y-39949D01*
X50054Y-39949D01*
X49971Y-39983D01*
X49568Y-39580D01*
X49568Y-36377D01*
X49633Y-36350D01*
X49700Y-36283D01*
X49736Y-36197D01*
X49736Y-36103D01*
X49701Y-36018D01*
X49895Y-36018D01*
X49783Y-36130D01*
X49719Y-36284D01*
X49719Y-36450D01*
X49782Y-36604D01*
X49900Y-36721D01*
X50053Y-36785D01*
X50220Y-36785D01*
X50373Y-36722D01*
X50491Y-36604D01*
X50555Y-36451D01*
X50555Y-36284D01*
X50492Y-36131D01*
X50379Y-36018D01*
X50550Y-36018D01*
X50747Y-36215D01*
X50719Y-36284D01*
X50719Y-36450D01*
X50782Y-36604D01*
X50860Y-36681D01*
X50800Y-36681D01*
X50735Y-36694D01*
X50681Y-36731D01*
X50681Y-36731D01*
X50481Y-36931D01*
X50444Y-36985D01*
X50431Y-37050D01*
X50431Y-37050D01*
X50431Y-37070D01*
X50374Y-37013D01*
X50220Y-36949D01*
X50054Y-36949D01*
X49900Y-37013D01*
X49783Y-37130D01*
X49719Y-37284D01*
X49719Y-37450D01*
X49782Y-37604D01*
X49900Y-37721D01*
X50053Y-37785D01*
X50220Y-37785D01*
X50373Y-37722D01*
X50431Y-37664D01*
X50431Y-38070D01*
X50374Y-38013D01*
X50220Y-37949D01*
X50054Y-37949D01*
X49900Y-38013D01*
X49783Y-38130D01*
X49719Y-38284D01*
X49719Y-38450D01*
X49782Y-38604D01*
X49900Y-38721D01*
X50053Y-38785D01*
X50220Y-38785D01*
X50373Y-38722D01*
X50431Y-38664D01*
X50431Y-38830D01*
X50285Y-38976D01*
X50220Y-38949D01*
X50054Y-38949D01*
X49900Y-39013D01*
X49783Y-39130D01*
X49719Y-39284D01*
X49719Y-39450D01*
X49782Y-39604D01*
X49900Y-39721D01*
X50053Y-39785D01*
X50220Y-39785D01*
X50373Y-39722D01*
X50491Y-39604D01*
X50555Y-39451D01*
X50555Y-39284D01*
X50525Y-39212D01*
X50718Y-39018D01*
X50718Y-39018D01*
X50718Y-39018D01*
X50755Y-38964D01*
X50755Y-38964D01*
X50765Y-38912D01*
X50768Y-38900D01*
X50768Y-38900D01*
X50768Y-38900D01*
X50768Y-38568D01*
X50782Y-38604D01*
X50900Y-38721D01*
X51053Y-38785D01*
X51220Y-38785D01*
X51373Y-38722D01*
X51491Y-38604D01*
X51555Y-38451D01*
X51555Y-38284D01*
X51492Y-38131D01*
X51374Y-38013D01*
X51220Y-37949D01*
X51054Y-37949D01*
X50900Y-38013D01*
X50783Y-38130D01*
X50768Y-38166D01*
X50768Y-37568D01*
X50782Y-37604D01*
X50900Y-37721D01*
X51053Y-37785D01*
X51220Y-37785D01*
X51373Y-37722D01*
X51491Y-37604D01*
X51555Y-37451D01*
X51555Y-37284D01*
X51492Y-37131D01*
X51379Y-37018D01*
X51549Y-37018D01*
X51550Y-37018D01*
X51550Y-37018D01*
X51614Y-37005D01*
X51668Y-36968D01*
X51744Y-36893D01*
X51756Y-36893D01*
X51756Y-36923D01*
X51774Y-36966D01*
X51808Y-37000D01*
X51851Y-37018D01*
X51898Y-37018D01*
X52448Y-37018D01*
X52491Y-37000D01*
X52525Y-36966D01*
X52527Y-36961D01*
X52605Y-36961D01*
X52619Y-36996D01*
X52653Y-37030D01*
X52696Y-37048D01*
X52743Y-37048D01*
X53103Y-37048D01*
X53146Y-37030D01*
X53180Y-36996D01*
X53198Y-36953D01*
X53198Y-36906D01*
X53198Y-36546D01*
X53180Y-36503D01*
X53146Y-36469D01*
X53103Y-36451D01*
X53056Y-36451D01*
X52696Y-36451D01*
X52653Y-36469D01*
X52634Y-36488D01*
X52527Y-36488D01*
X52525Y-36483D01*
X52491Y-36449D01*
X52448Y-36431D01*
X52401Y-36431D01*
X51957Y-36431D01*
X52033Y-36400D01*
X52055Y-36378D01*
X52190Y-36378D01*
X55498Y-36378D01*
X55460Y-36416D01*
X55424Y-36502D01*
X55424Y-36596D01*
X55442Y-36640D01*
X55460Y-36683D01*
X55527Y-36750D01*
X55527Y-36750D01*
X56343Y-37567D01*
X56420Y-37618D01*
X56511Y-37636D01*
X58052Y-37636D01*
X59313Y-38897D01*
X59313Y-41145D01*
G54D10*
G36*
X59479Y-34663D02*
X59453Y-34663D01*
X59453Y-34663D01*
X59000Y-34663D01*
X57631Y-34663D01*
X57663Y-34650D01*
X57697Y-34617D01*
X57730Y-34583D01*
X57748Y-34540D01*
X57766Y-34497D01*
X57766Y-34450D01*
X57766Y-34403D01*
X57766Y-34403D01*
X57766Y-33020D01*
X57766Y-33019D01*
X57748Y-32932D01*
X59479Y-34663D01*
X59479Y-34663D01*
G37*
G54D30*
X59479Y-34663D02*
X59453Y-34663D01*
X59453Y-34663D01*
X59000Y-34663D01*
X57631Y-34663D01*
X57663Y-34650D01*
X57697Y-34617D01*
X57730Y-34583D01*
X57748Y-34540D01*
X57766Y-34497D01*
X57766Y-34450D01*
X57766Y-34403D01*
X57766Y-34403D01*
X57766Y-33020D01*
X57766Y-33019D01*
X57748Y-32932D01*
X59479Y-34663D01*
G54D10*
G36*
X60882Y-34306D02*
X60726Y-34306D01*
X60683Y-34324D01*
X60649Y-34358D01*
X60631Y-34401D01*
X60631Y-34448D01*
X60631Y-34463D01*
X60350Y-34463D01*
X60303Y-34463D01*
X60216Y-34499D01*
X60149Y-34566D01*
X60120Y-34636D01*
X57986Y-32502D01*
X57986Y-31700D01*
X57968Y-31609D01*
X57968Y-31609D01*
X57917Y-31532D01*
X57836Y-31452D01*
X57836Y-31304D01*
X57836Y-31304D01*
X57954Y-31187D01*
X58018Y-31033D01*
X58018Y-30867D01*
X57954Y-30713D01*
X57909Y-30668D01*
X58181Y-30668D01*
X58181Y-30673D01*
X58181Y-31273D01*
X58199Y-31316D01*
X58233Y-31350D01*
X58276Y-31368D01*
X58323Y-31368D01*
X58363Y-31368D01*
X58363Y-31700D01*
X58381Y-31790D01*
X58432Y-31867D01*
X60832Y-34266D01*
X60866Y-34300D01*
X60882Y-34306D01*
X60882Y-34306D01*
G37*
G54D30*
X60882Y-34306D02*
X60726Y-34306D01*
X60683Y-34324D01*
X60649Y-34358D01*
X60631Y-34401D01*
X60631Y-34448D01*
X60631Y-34463D01*
X60350Y-34463D01*
X60303Y-34463D01*
X60216Y-34499D01*
X60149Y-34566D01*
X60120Y-34636D01*
X57986Y-32502D01*
X57986Y-31700D01*
X57968Y-31609D01*
X57968Y-31609D01*
X57917Y-31532D01*
X57836Y-31452D01*
X57836Y-31304D01*
X57836Y-31304D01*
X57954Y-31187D01*
X58018Y-31033D01*
X58018Y-30867D01*
X57954Y-30713D01*
X57909Y-30668D01*
X58181Y-30668D01*
X58181Y-30673D01*
X58181Y-31273D01*
X58199Y-31316D01*
X58233Y-31350D01*
X58276Y-31368D01*
X58323Y-31368D01*
X58363Y-31368D01*
X58363Y-31700D01*
X58381Y-31790D01*
X58432Y-31867D01*
X60832Y-34266D01*
X60866Y-34300D01*
X60882Y-34306D01*
G54D10*
G36*
X70602Y-35414D02*
X70368Y-35181D01*
X70314Y-35144D01*
X70299Y-35141D01*
X70404Y-35037D01*
X70468Y-34883D01*
X70468Y-34717D01*
X70404Y-34563D01*
X70368Y-34527D01*
X70368Y-30788D01*
X70228Y-30450D01*
X69970Y-30192D01*
X69633Y-30052D01*
X69268Y-30051D01*
X68930Y-30191D01*
X68672Y-30449D01*
X68532Y-30786D01*
X68531Y-31151D01*
X68671Y-31489D01*
X68929Y-31747D01*
X69266Y-31888D01*
X69631Y-31888D01*
X69969Y-31748D01*
X70227Y-31490D01*
X70367Y-31153D01*
X70368Y-30788D01*
X70368Y-34527D01*
X70346Y-34505D01*
X70346Y-33361D01*
X70346Y-32838D01*
X70346Y-32760D01*
X70316Y-32688D01*
X70261Y-32633D01*
X70188Y-32603D01*
X69938Y-32603D01*
X69889Y-32652D01*
X69889Y-33060D01*
X70297Y-33060D01*
X70346Y-33011D01*
X70346Y-32838D01*
X70346Y-33361D01*
X70346Y-33188D01*
X70297Y-33139D01*
X69889Y-33139D01*
X69889Y-33547D01*
X69938Y-33596D01*
X70188Y-33596D01*
X70261Y-33566D01*
X70316Y-33511D01*
X70346Y-33439D01*
X70346Y-33361D01*
X70346Y-34505D01*
X70287Y-34445D01*
X70133Y-34381D01*
X69967Y-34381D01*
X69898Y-34410D01*
X69810Y-34322D01*
X69810Y-33547D01*
X69810Y-33139D01*
X69810Y-33060D01*
X69810Y-32652D01*
X69761Y-32603D01*
X69511Y-32603D01*
X69438Y-32633D01*
X69383Y-32688D01*
X69353Y-32760D01*
X69353Y-32838D01*
X69353Y-33011D01*
X69402Y-33060D01*
X69810Y-33060D01*
X69810Y-33139D01*
X69402Y-33139D01*
X69353Y-33188D01*
X69353Y-33361D01*
X69353Y-33439D01*
X69383Y-33511D01*
X69438Y-33566D01*
X69511Y-33596D01*
X69761Y-33596D01*
X69810Y-33547D01*
X69810Y-34322D01*
X69616Y-34128D01*
X69683Y-34100D01*
X69750Y-34033D01*
X69786Y-33947D01*
X69786Y-33853D01*
X69750Y-33766D01*
X69683Y-33699D01*
X69597Y-33663D01*
X69503Y-33663D01*
X69416Y-33699D01*
X69384Y-33731D01*
X69019Y-33731D01*
X68805Y-33518D01*
X68932Y-33518D01*
X69086Y-33454D01*
X69204Y-33337D01*
X69268Y-33183D01*
X69268Y-33017D01*
X69204Y-32863D01*
X69087Y-32745D01*
X68933Y-32681D01*
X68767Y-32681D01*
X68613Y-32745D01*
X68495Y-32862D01*
X68431Y-33016D01*
X68431Y-33182D01*
X68495Y-33336D01*
X68540Y-33381D01*
X68419Y-33381D01*
X66968Y-31930D01*
X66968Y-31150D01*
X66968Y-30206D01*
X66983Y-30200D01*
X67050Y-30133D01*
X67086Y-30047D01*
X67086Y-29953D01*
X67050Y-29866D01*
X66983Y-29799D01*
X66897Y-29763D01*
X66803Y-29763D01*
X66716Y-29799D01*
X66649Y-29866D01*
X66636Y-29898D01*
X66385Y-29647D01*
X70602Y-29647D01*
X70602Y-35414D01*
X70602Y-35414D01*
G37*
G54D30*
X70602Y-35414D02*
X70368Y-35181D01*
X70314Y-35144D01*
X70299Y-35141D01*
X70404Y-35037D01*
X70468Y-34883D01*
X70468Y-34717D01*
X70404Y-34563D01*
X70368Y-34527D01*
X70368Y-30788D01*
X70228Y-30450D01*
X69970Y-30192D01*
X69633Y-30052D01*
X69268Y-30051D01*
X68930Y-30191D01*
X68672Y-30449D01*
X68532Y-30786D01*
X68531Y-31151D01*
X68671Y-31489D01*
X68929Y-31747D01*
X69266Y-31888D01*
X69631Y-31888D01*
X69969Y-31748D01*
X70227Y-31490D01*
X70367Y-31153D01*
X70368Y-30788D01*
X70368Y-34527D01*
X70346Y-34505D01*
X70346Y-33361D01*
X70346Y-32838D01*
X70346Y-32760D01*
X70316Y-32688D01*
X70261Y-32633D01*
X70188Y-32603D01*
X69938Y-32603D01*
X69889Y-32652D01*
X69889Y-33060D01*
X70297Y-33060D01*
X70346Y-33011D01*
X70346Y-32838D01*
X70346Y-33361D01*
X70346Y-33188D01*
X70297Y-33139D01*
X69889Y-33139D01*
X69889Y-33547D01*
X69938Y-33596D01*
X70188Y-33596D01*
X70261Y-33566D01*
X70316Y-33511D01*
X70346Y-33439D01*
X70346Y-33361D01*
X70346Y-34505D01*
X70287Y-34445D01*
X70133Y-34381D01*
X69967Y-34381D01*
X69898Y-34410D01*
X69810Y-34322D01*
X69810Y-33547D01*
X69810Y-33139D01*
X69810Y-33060D01*
X69810Y-32652D01*
X69761Y-32603D01*
X69511Y-32603D01*
X69438Y-32633D01*
X69383Y-32688D01*
X69353Y-32760D01*
X69353Y-32838D01*
X69353Y-33011D01*
X69402Y-33060D01*
X69810Y-33060D01*
X69810Y-33139D01*
X69402Y-33139D01*
X69353Y-33188D01*
X69353Y-33361D01*
X69353Y-33439D01*
X69383Y-33511D01*
X69438Y-33566D01*
X69511Y-33596D01*
X69761Y-33596D01*
X69810Y-33547D01*
X69810Y-34322D01*
X69616Y-34128D01*
X69683Y-34100D01*
X69750Y-34033D01*
X69786Y-33947D01*
X69786Y-33853D01*
X69750Y-33766D01*
X69683Y-33699D01*
X69597Y-33663D01*
X69503Y-33663D01*
X69416Y-33699D01*
X69384Y-33731D01*
X69019Y-33731D01*
X68805Y-33518D01*
X68932Y-33518D01*
X69086Y-33454D01*
X69204Y-33337D01*
X69268Y-33183D01*
X69268Y-33017D01*
X69204Y-32863D01*
X69087Y-32745D01*
X68933Y-32681D01*
X68767Y-32681D01*
X68613Y-32745D01*
X68495Y-32862D01*
X68431Y-33016D01*
X68431Y-33182D01*
X68495Y-33336D01*
X68540Y-33381D01*
X68419Y-33381D01*
X66968Y-31930D01*
X66968Y-31150D01*
X66968Y-30206D01*
X66983Y-30200D01*
X67050Y-30133D01*
X67086Y-30047D01*
X67086Y-29953D01*
X67050Y-29866D01*
X66983Y-29799D01*
X66897Y-29763D01*
X66803Y-29763D01*
X66716Y-29799D01*
X66649Y-29866D01*
X66636Y-29898D01*
X66385Y-29647D01*
X70602Y-29647D01*
X70602Y-35414D01*
G54D10*
G36*
X70602Y-42852D02*
X70468Y-42852D01*
X70468Y-37717D01*
X70404Y-37563D01*
X70287Y-37445D01*
X70133Y-37381D01*
X69967Y-37381D01*
X69813Y-37445D01*
X69695Y-37562D01*
X69631Y-37716D01*
X69631Y-37882D01*
X69695Y-38036D01*
X69812Y-38154D01*
X69813Y-38154D01*
X69813Y-38760D01*
X69831Y-38850D01*
X69882Y-38927D01*
X69903Y-38947D01*
X69903Y-39929D01*
X69903Y-39976D01*
X69921Y-40020D01*
X69939Y-40063D01*
X70006Y-40130D01*
X70049Y-40148D01*
X70092Y-40166D01*
X70140Y-40166D01*
X70186Y-40166D01*
X70230Y-40148D01*
X70273Y-40130D01*
X70307Y-40097D01*
X70340Y-40063D01*
X70358Y-40020D01*
X70376Y-39977D01*
X70376Y-39930D01*
X70376Y-39883D01*
X70376Y-39883D01*
X70376Y-38850D01*
X70358Y-38759D01*
X70307Y-38682D01*
X70286Y-38662D01*
X70286Y-38154D01*
X70286Y-38154D01*
X70404Y-38037D01*
X70468Y-37883D01*
X70468Y-37717D01*
X70468Y-42852D01*
X70368Y-42852D01*
X70368Y-41418D01*
X70228Y-41080D01*
X69970Y-40822D01*
X69633Y-40682D01*
X69268Y-40681D01*
X68930Y-40821D01*
X68672Y-41079D01*
X68532Y-41416D01*
X68531Y-41781D01*
X68671Y-42119D01*
X68929Y-42377D01*
X69266Y-42517D01*
X69631Y-42518D01*
X69969Y-42378D01*
X70227Y-42120D01*
X70367Y-41783D01*
X70368Y-41418D01*
X70368Y-42852D01*
X63610Y-42852D01*
X57681Y-42852D01*
X57700Y-42833D01*
X57736Y-42747D01*
X57736Y-42653D01*
X57700Y-42566D01*
X57633Y-42499D01*
X57547Y-42463D01*
X57453Y-42463D01*
X57366Y-42499D01*
X57299Y-42566D01*
X57272Y-42631D01*
X56169Y-42631D01*
X55873Y-42336D01*
X58950Y-42336D01*
X59040Y-42318D01*
X59117Y-42267D01*
X59466Y-41917D01*
X59466Y-41918D01*
X59632Y-41918D01*
X59786Y-41854D01*
X59904Y-41737D01*
X59904Y-41736D01*
X60131Y-41736D01*
X60131Y-41823D01*
X60149Y-41866D01*
X60183Y-41900D01*
X60226Y-41918D01*
X60273Y-41918D01*
X60873Y-41918D01*
X60916Y-41900D01*
X60950Y-41866D01*
X60968Y-41823D01*
X60968Y-41776D01*
X60968Y-41176D01*
X60950Y-41133D01*
X60916Y-41099D01*
X60873Y-41081D01*
X60826Y-41081D01*
X60226Y-41081D01*
X60183Y-41099D01*
X60149Y-41133D01*
X60131Y-41176D01*
X60131Y-41223D01*
X60131Y-41263D01*
X59904Y-41263D01*
X59904Y-41263D01*
X59787Y-41145D01*
X59786Y-41145D01*
X59786Y-38800D01*
X59768Y-38709D01*
X59768Y-38709D01*
X59717Y-38632D01*
X58317Y-37232D01*
X58240Y-37181D01*
X58150Y-37163D01*
X56608Y-37163D01*
X55828Y-36383D01*
X55823Y-36378D01*
X58390Y-36378D01*
X58581Y-36568D01*
X58581Y-36568D01*
X58635Y-36605D01*
X58700Y-36618D01*
X59830Y-36618D01*
X60181Y-36968D01*
X60181Y-36968D01*
X60235Y-37005D01*
X60235Y-37005D01*
X60287Y-37015D01*
X60299Y-37018D01*
X60299Y-37018D01*
X60300Y-37018D01*
X60834Y-37018D01*
X60866Y-37050D01*
X60952Y-37086D01*
X61046Y-37086D01*
X61133Y-37050D01*
X61200Y-36983D01*
X61236Y-36897D01*
X61236Y-36803D01*
X61200Y-36716D01*
X61133Y-36649D01*
X61047Y-36613D01*
X60953Y-36613D01*
X60866Y-36649D01*
X60834Y-36681D01*
X60369Y-36681D01*
X60018Y-36331D01*
X59964Y-36294D01*
X59900Y-36281D01*
X59899Y-36281D01*
X58769Y-36281D01*
X58578Y-36091D01*
X58524Y-36054D01*
X58460Y-36041D01*
X58459Y-36041D01*
X56242Y-36041D01*
X56250Y-36033D01*
X56268Y-35990D01*
X56286Y-35947D01*
X56286Y-35900D01*
X56286Y-35853D01*
X56286Y-35853D01*
X56286Y-35136D01*
X58861Y-35136D01*
X58909Y-35168D01*
X59000Y-35186D01*
X59090Y-35168D01*
X59138Y-35136D01*
X59499Y-35136D01*
X59500Y-35136D01*
X59546Y-35136D01*
X59590Y-35118D01*
X59633Y-35100D01*
X59667Y-35067D01*
X59700Y-35033D01*
X59718Y-34990D01*
X59736Y-34947D01*
X59736Y-34920D01*
X60409Y-35593D01*
X60409Y-35840D01*
X60427Y-35930D01*
X60427Y-35930D01*
X60427Y-36088D01*
X60445Y-36131D01*
X60478Y-36165D01*
X60521Y-36183D01*
X60568Y-36183D01*
X60768Y-36183D01*
X60812Y-36165D01*
X60845Y-36132D01*
X60852Y-36114D01*
X60878Y-36176D01*
X60933Y-36232D01*
X61006Y-36262D01*
X61056Y-36262D01*
X61105Y-36212D01*
X61105Y-35879D01*
X61098Y-35879D01*
X61098Y-35800D01*
X61105Y-35800D01*
X61105Y-35467D01*
X61056Y-35418D01*
X61006Y-35418D01*
X60933Y-35448D01*
X60881Y-35500D01*
X60881Y-35495D01*
X60863Y-35404D01*
X60863Y-35404D01*
X60812Y-35328D01*
X60420Y-34936D01*
X60631Y-34936D01*
X60631Y-34998D01*
X60649Y-35041D01*
X60683Y-35075D01*
X60726Y-35093D01*
X60773Y-35093D01*
X61123Y-35093D01*
X61166Y-35075D01*
X61200Y-35041D01*
X61218Y-34998D01*
X61218Y-34951D01*
X61218Y-34401D01*
X61200Y-34358D01*
X61166Y-34324D01*
X61123Y-34306D01*
X61117Y-34306D01*
X61133Y-34300D01*
X61200Y-34233D01*
X61236Y-34147D01*
X61236Y-34053D01*
X61218Y-34009D01*
X61200Y-33966D01*
X61133Y-33899D01*
X61133Y-33899D01*
X58836Y-31602D01*
X58836Y-31368D01*
X58923Y-31368D01*
X58966Y-31350D01*
X59000Y-31316D01*
X59018Y-31273D01*
X59018Y-31226D01*
X59018Y-30668D01*
X60150Y-30668D01*
X60499Y-30668D01*
X60500Y-30668D01*
X60500Y-30668D01*
X60564Y-30655D01*
X60618Y-30618D01*
X60727Y-30509D01*
X60727Y-30509D01*
X60727Y-30509D01*
X60752Y-30472D01*
X60931Y-30472D01*
X60931Y-30799D01*
X60931Y-30800D01*
X60944Y-30864D01*
X60981Y-30918D01*
X61310Y-31248D01*
X61281Y-31316D01*
X61281Y-31482D01*
X61345Y-31636D01*
X61462Y-31754D01*
X61616Y-31818D01*
X61782Y-31818D01*
X61936Y-31754D01*
X62054Y-31637D01*
X62118Y-31483D01*
X62118Y-31317D01*
X62118Y-30317D01*
X62054Y-30163D01*
X61937Y-30045D01*
X61783Y-29981D01*
X61617Y-29981D01*
X61463Y-30045D01*
X61345Y-30162D01*
X61281Y-30316D01*
X61281Y-30482D01*
X61345Y-30636D01*
X61462Y-30754D01*
X61616Y-30818D01*
X61782Y-30818D01*
X61936Y-30754D01*
X62054Y-30637D01*
X62118Y-30483D01*
X62118Y-30317D01*
X62118Y-31317D01*
X62054Y-31163D01*
X61937Y-31045D01*
X61783Y-30981D01*
X61617Y-30981D01*
X61548Y-31010D01*
X61268Y-30730D01*
X61268Y-30219D01*
X61619Y-29868D01*
X62994Y-29868D01*
X62851Y-30010D01*
X62783Y-29981D01*
X62617Y-29981D01*
X62463Y-30045D01*
X62345Y-30162D01*
X62281Y-30316D01*
X62281Y-30482D01*
X62345Y-30636D01*
X62462Y-30754D01*
X62616Y-30818D01*
X62782Y-30818D01*
X62936Y-30754D01*
X63054Y-30637D01*
X63118Y-30483D01*
X63118Y-30317D01*
X63089Y-30248D01*
X63269Y-30068D01*
X63316Y-30068D01*
X63314Y-30070D01*
X63349Y-30105D01*
X63268Y-30134D01*
X63199Y-30320D01*
X63207Y-30517D01*
X63268Y-30665D01*
X63349Y-30694D01*
X63644Y-30400D01*
X63638Y-30394D01*
X63694Y-30338D01*
X63700Y-30344D01*
X63705Y-30338D01*
X63761Y-30394D01*
X63755Y-30400D01*
X64050Y-30694D01*
X64131Y-30665D01*
X64200Y-30479D01*
X64192Y-30282D01*
X64131Y-30134D01*
X64050Y-30105D01*
X64085Y-30070D01*
X64083Y-30068D01*
X64440Y-30068D01*
X64345Y-30162D01*
X64281Y-30316D01*
X64281Y-30482D01*
X64310Y-30551D01*
X64200Y-30661D01*
X64131Y-30731D01*
X64081Y-30781D01*
X64044Y-30835D01*
X64031Y-30900D01*
X64031Y-30900D01*
X64031Y-31140D01*
X63994Y-31103D01*
X63994Y-30750D01*
X63700Y-30455D01*
X63644Y-30511D01*
X63405Y-30750D01*
X63434Y-30831D01*
X63620Y-30900D01*
X63817Y-30892D01*
X63965Y-30831D01*
X63994Y-30750D01*
X63994Y-31103D01*
X63937Y-31045D01*
X63783Y-30981D01*
X63617Y-30981D01*
X63463Y-31045D01*
X63345Y-31162D01*
X63281Y-31316D01*
X63281Y-31482D01*
X63345Y-31636D01*
X63462Y-31754D01*
X63531Y-31782D01*
X63531Y-32349D01*
X63531Y-32350D01*
X63544Y-32414D01*
X63581Y-32468D01*
X64296Y-33184D01*
X64247Y-33163D01*
X64153Y-33163D01*
X64066Y-33199D01*
X63999Y-33266D01*
X63963Y-33352D01*
X63963Y-33429D01*
X62936Y-32402D01*
X62936Y-31754D01*
X62936Y-31754D01*
X63054Y-31637D01*
X63118Y-31483D01*
X63118Y-31317D01*
X63054Y-31163D01*
X62937Y-31045D01*
X62783Y-30981D01*
X62617Y-30981D01*
X62463Y-31045D01*
X62345Y-31162D01*
X62281Y-31316D01*
X62281Y-31482D01*
X62345Y-31636D01*
X62462Y-31754D01*
X62463Y-31754D01*
X62463Y-32500D01*
X62481Y-32590D01*
X62532Y-32667D01*
X64813Y-34947D01*
X64813Y-38452D01*
X64757Y-38508D01*
X64757Y-38126D01*
X64721Y-38039D01*
X64655Y-37972D01*
X64568Y-37936D01*
X64474Y-37936D01*
X64442Y-37949D01*
X64442Y-36026D01*
X64442Y-35654D01*
X64442Y-35575D01*
X64412Y-35503D01*
X64356Y-35448D01*
X64284Y-35418D01*
X64233Y-35418D01*
X64184Y-35467D01*
X64184Y-35800D01*
X64392Y-35800D01*
X64442Y-35751D01*
X64442Y-35654D01*
X64442Y-36026D01*
X64442Y-35928D01*
X64392Y-35879D01*
X64184Y-35879D01*
X64184Y-36212D01*
X64233Y-36262D01*
X64284Y-36262D01*
X64356Y-36232D01*
X64412Y-36176D01*
X64442Y-36104D01*
X64442Y-36026D01*
X64442Y-37949D01*
X64387Y-37972D01*
X64328Y-38031D01*
X64312Y-38015D01*
X64268Y-37997D01*
X64221Y-37997D01*
X64105Y-37997D01*
X64105Y-36212D01*
X64105Y-35879D01*
X64098Y-35879D01*
X64098Y-35800D01*
X64105Y-35800D01*
X64105Y-35467D01*
X64056Y-35418D01*
X64006Y-35418D01*
X63933Y-35448D01*
X63878Y-35503D01*
X63852Y-35565D01*
X63846Y-35551D01*
X63846Y-34936D01*
X63846Y-34463D01*
X63846Y-34385D01*
X63816Y-34313D01*
X63761Y-34258D01*
X63688Y-34228D01*
X63563Y-34228D01*
X63514Y-34277D01*
X63514Y-34660D01*
X63797Y-34660D01*
X63846Y-34611D01*
X63846Y-34463D01*
X63846Y-34936D01*
X63846Y-34788D01*
X63797Y-34739D01*
X63514Y-34739D01*
X63514Y-35122D01*
X63563Y-35171D01*
X63688Y-35171D01*
X63761Y-35141D01*
X63816Y-35086D01*
X63846Y-35014D01*
X63846Y-34936D01*
X63846Y-35551D01*
X63845Y-35548D01*
X63812Y-35515D01*
X63768Y-35497D01*
X63721Y-35497D01*
X63521Y-35497D01*
X63478Y-35514D01*
X63445Y-35548D01*
X63437Y-35565D01*
X63435Y-35560D01*
X63435Y-35122D01*
X63435Y-34739D01*
X63435Y-34660D01*
X63435Y-34277D01*
X63386Y-34228D01*
X63261Y-34228D01*
X63188Y-34258D01*
X63133Y-34313D01*
X63103Y-34385D01*
X63103Y-34463D01*
X63103Y-34611D01*
X63152Y-34660D01*
X63435Y-34660D01*
X63435Y-34739D01*
X63152Y-34739D01*
X63103Y-34788D01*
X63103Y-34936D01*
X63103Y-35014D01*
X63133Y-35086D01*
X63188Y-35141D01*
X63261Y-35171D01*
X63386Y-35171D01*
X63435Y-35122D01*
X63435Y-35560D01*
X63412Y-35503D01*
X63356Y-35448D01*
X63284Y-35418D01*
X63233Y-35418D01*
X63184Y-35467D01*
X63184Y-35800D01*
X63192Y-35800D01*
X63192Y-35879D01*
X63184Y-35879D01*
X63184Y-35887D01*
X63105Y-35887D01*
X63105Y-35879D01*
X63098Y-35879D01*
X63098Y-35800D01*
X63105Y-35800D01*
X63105Y-35467D01*
X63056Y-35418D01*
X63018Y-35418D01*
X63018Y-34951D01*
X63018Y-34401D01*
X63000Y-34358D01*
X62966Y-34324D01*
X62961Y-34322D01*
X62961Y-34175D01*
X62961Y-34174D01*
X62943Y-34084D01*
X62943Y-34084D01*
X62892Y-34007D01*
X62892Y-34007D01*
X62717Y-33833D01*
X62683Y-33799D01*
X62597Y-33763D01*
X62503Y-33763D01*
X62416Y-33799D01*
X62349Y-33866D01*
X62313Y-33952D01*
X62313Y-34046D01*
X62331Y-34090D01*
X62349Y-34133D01*
X62416Y-34200D01*
X62416Y-34200D01*
X62488Y-34272D01*
X62488Y-34322D01*
X62483Y-34324D01*
X62449Y-34358D01*
X62431Y-34401D01*
X62431Y-34448D01*
X62431Y-34463D01*
X61968Y-34463D01*
X61968Y-34401D01*
X61950Y-34358D01*
X61916Y-34324D01*
X61873Y-34306D01*
X61826Y-34306D01*
X61476Y-34306D01*
X61433Y-34324D01*
X61399Y-34358D01*
X61381Y-34401D01*
X61381Y-34448D01*
X61381Y-34998D01*
X61399Y-35041D01*
X61433Y-35075D01*
X61476Y-35093D01*
X61523Y-35093D01*
X61873Y-35093D01*
X61916Y-35075D01*
X61950Y-35041D01*
X61968Y-34998D01*
X61968Y-34951D01*
X61968Y-34936D01*
X62431Y-34936D01*
X62431Y-34998D01*
X62449Y-35041D01*
X62483Y-35075D01*
X62526Y-35093D01*
X62573Y-35093D01*
X62923Y-35093D01*
X62966Y-35075D01*
X63000Y-35041D01*
X63018Y-34998D01*
X63018Y-34951D01*
X63018Y-35418D01*
X63006Y-35418D01*
X62933Y-35448D01*
X62878Y-35503D01*
X62852Y-35565D01*
X62845Y-35548D01*
X62812Y-35515D01*
X62768Y-35497D01*
X62721Y-35497D01*
X62521Y-35497D01*
X62478Y-35514D01*
X62445Y-35548D01*
X62427Y-35591D01*
X62427Y-35603D01*
X62363Y-35603D01*
X62363Y-35591D01*
X62345Y-35548D01*
X62312Y-35515D01*
X62268Y-35497D01*
X62221Y-35497D01*
X62021Y-35497D01*
X61978Y-35514D01*
X61945Y-35548D01*
X61927Y-35591D01*
X61927Y-35638D01*
X61927Y-35749D01*
X61927Y-35749D01*
X61909Y-35840D01*
X61909Y-36124D01*
X61881Y-36097D01*
X61881Y-35840D01*
X61863Y-35749D01*
X61863Y-35749D01*
X61863Y-35591D01*
X61845Y-35548D01*
X61812Y-35515D01*
X61768Y-35497D01*
X61721Y-35497D01*
X61521Y-35497D01*
X61478Y-35514D01*
X61445Y-35548D01*
X61437Y-35565D01*
X61412Y-35503D01*
X61356Y-35448D01*
X61284Y-35418D01*
X61233Y-35418D01*
X61184Y-35467D01*
X61184Y-35800D01*
X61192Y-35800D01*
X61192Y-35879D01*
X61184Y-35879D01*
X61184Y-36212D01*
X61233Y-36262D01*
X61284Y-36262D01*
X61356Y-36232D01*
X61409Y-36179D01*
X61409Y-36195D01*
X61427Y-36285D01*
X61478Y-36362D01*
X61632Y-36516D01*
X61666Y-36550D01*
X61752Y-36586D01*
X61846Y-36586D01*
X61890Y-36568D01*
X61909Y-36560D01*
X61909Y-38340D01*
X61927Y-38430D01*
X61927Y-38430D01*
X61927Y-38588D01*
X61945Y-38631D01*
X61978Y-38665D01*
X62021Y-38683D01*
X62068Y-38683D01*
X62268Y-38683D01*
X62312Y-38665D01*
X62345Y-38632D01*
X62363Y-38588D01*
X62363Y-38576D01*
X62409Y-38576D01*
X62409Y-38796D01*
X62414Y-38826D01*
X62414Y-38849D01*
X62423Y-38871D01*
X62427Y-38887D01*
X62436Y-38900D01*
X62450Y-38936D01*
X62478Y-38963D01*
X62478Y-38963D01*
X62483Y-38969D01*
X62517Y-39002D01*
X62560Y-39020D01*
X62603Y-39038D01*
X62651Y-39038D01*
X62697Y-39039D01*
X62741Y-39020D01*
X62784Y-39003D01*
X62818Y-38969D01*
X62851Y-38936D01*
X62869Y-38893D01*
X62887Y-38849D01*
X62887Y-38802D01*
X62887Y-38755D01*
X62881Y-38741D01*
X62881Y-38576D01*
X62927Y-38576D01*
X62927Y-38588D01*
X62945Y-38631D01*
X62978Y-38665D01*
X63021Y-38683D01*
X63068Y-38683D01*
X63268Y-38683D01*
X63312Y-38665D01*
X63345Y-38632D01*
X63363Y-38588D01*
X63363Y-38541D01*
X63363Y-38430D01*
X63363Y-38430D01*
X63381Y-38340D01*
X63363Y-38249D01*
X63363Y-38249D01*
X63363Y-38091D01*
X63345Y-38048D01*
X63312Y-38015D01*
X63268Y-37997D01*
X63221Y-37997D01*
X63021Y-37997D01*
X62978Y-38014D01*
X62945Y-38048D01*
X62927Y-38091D01*
X62927Y-38103D01*
X62881Y-38103D01*
X62881Y-36586D01*
X62949Y-36586D01*
X62950Y-36586D01*
X62996Y-36586D01*
X63040Y-36568D01*
X63083Y-36550D01*
X63117Y-36517D01*
X63150Y-36483D01*
X63168Y-36440D01*
X63186Y-36397D01*
X63186Y-36350D01*
X63186Y-36303D01*
X63169Y-36262D01*
X63184Y-36262D01*
X63184Y-36212D01*
X63233Y-36262D01*
X63284Y-36262D01*
X63356Y-36232D01*
X63412Y-36176D01*
X63437Y-36114D01*
X63445Y-36131D01*
X63477Y-36164D01*
X63477Y-36185D01*
X63454Y-36208D01*
X63418Y-36294D01*
X63418Y-36388D01*
X63454Y-36475D01*
X63521Y-36542D01*
X63607Y-36578D01*
X63701Y-36578D01*
X63788Y-36542D01*
X63855Y-36476D01*
X63891Y-36389D01*
X63891Y-36295D01*
X63855Y-36208D01*
X63813Y-36166D01*
X63813Y-36164D01*
X63845Y-36132D01*
X63852Y-36114D01*
X63878Y-36176D01*
X63933Y-36232D01*
X64006Y-36262D01*
X64056Y-36262D01*
X64105Y-36212D01*
X64105Y-37997D01*
X64021Y-37997D01*
X63978Y-38014D01*
X63945Y-38048D01*
X63927Y-38091D01*
X63927Y-38138D01*
X63927Y-38249D01*
X63927Y-38249D01*
X63909Y-38340D01*
X63927Y-38430D01*
X63927Y-38430D01*
X63927Y-38588D01*
X63945Y-38631D01*
X63978Y-38665D01*
X64021Y-38683D01*
X64068Y-38683D01*
X64268Y-38683D01*
X64312Y-38665D01*
X64345Y-38632D01*
X64363Y-38588D01*
X64363Y-38574D01*
X64444Y-38558D01*
X64520Y-38507D01*
X64688Y-38339D01*
X64688Y-38339D01*
X64721Y-38306D01*
X64739Y-38263D01*
X64757Y-38220D01*
X64757Y-38126D01*
X64757Y-38508D01*
X64427Y-38838D01*
X64227Y-38838D01*
X64225Y-38833D01*
X64191Y-38799D01*
X64148Y-38781D01*
X64101Y-38781D01*
X63863Y-38781D01*
X63863Y-38541D01*
X63863Y-38091D01*
X63845Y-38048D01*
X63812Y-38015D01*
X63768Y-37997D01*
X63721Y-37997D01*
X63521Y-37997D01*
X63478Y-38014D01*
X63445Y-38048D01*
X63427Y-38091D01*
X63427Y-38138D01*
X63427Y-38588D01*
X63445Y-38631D01*
X63478Y-38665D01*
X63521Y-38683D01*
X63568Y-38683D01*
X63768Y-38683D01*
X63812Y-38665D01*
X63845Y-38632D01*
X63863Y-38588D01*
X63863Y-38541D01*
X63863Y-38781D01*
X63551Y-38781D01*
X63508Y-38799D01*
X63474Y-38833D01*
X63472Y-38838D01*
X63400Y-38838D01*
X63381Y-38838D01*
X63075Y-38838D01*
X63050Y-38838D01*
X62959Y-38856D01*
X62882Y-38907D01*
X62127Y-39663D01*
X61863Y-39663D01*
X61863Y-38541D01*
X61863Y-38091D01*
X61845Y-38048D01*
X61812Y-38015D01*
X61768Y-37997D01*
X61721Y-37997D01*
X61521Y-37997D01*
X61478Y-38014D01*
X61445Y-38048D01*
X61437Y-38065D01*
X61412Y-38003D01*
X61356Y-37948D01*
X61284Y-37918D01*
X61233Y-37918D01*
X61184Y-37967D01*
X61184Y-38300D01*
X61192Y-38300D01*
X61192Y-38379D01*
X61184Y-38379D01*
X61184Y-38712D01*
X61233Y-38762D01*
X61284Y-38762D01*
X61356Y-38732D01*
X61412Y-38676D01*
X61437Y-38614D01*
X61445Y-38631D01*
X61478Y-38665D01*
X61521Y-38683D01*
X61568Y-38683D01*
X61768Y-38683D01*
X61812Y-38665D01*
X61845Y-38632D01*
X61863Y-38588D01*
X61863Y-38541D01*
X61863Y-39663D01*
X61850Y-39663D01*
X61759Y-39681D01*
X61682Y-39732D01*
X61552Y-39863D01*
X61167Y-39863D01*
X61140Y-39836D01*
X61449Y-39836D01*
X61450Y-39836D01*
X61496Y-39836D01*
X61540Y-39818D01*
X61583Y-39800D01*
X61617Y-39767D01*
X61650Y-39733D01*
X61668Y-39690D01*
X61686Y-39647D01*
X61686Y-39600D01*
X61686Y-39553D01*
X61668Y-39509D01*
X61650Y-39466D01*
X61583Y-39399D01*
X61497Y-39363D01*
X61403Y-39363D01*
X61403Y-39363D01*
X61197Y-39363D01*
X60514Y-38680D01*
X60521Y-38683D01*
X60568Y-38683D01*
X60768Y-38683D01*
X60812Y-38665D01*
X60845Y-38632D01*
X60852Y-38614D01*
X60878Y-38676D01*
X60933Y-38732D01*
X61006Y-38762D01*
X61056Y-38762D01*
X61105Y-38712D01*
X61105Y-38379D01*
X61098Y-38379D01*
X61098Y-38300D01*
X61105Y-38300D01*
X61105Y-37967D01*
X61056Y-37918D01*
X61006Y-37918D01*
X60933Y-37948D01*
X60878Y-38003D01*
X60852Y-38065D01*
X60845Y-38048D01*
X60812Y-38015D01*
X60768Y-37997D01*
X60721Y-37997D01*
X60521Y-37997D01*
X60478Y-38014D01*
X60445Y-38048D01*
X60427Y-38091D01*
X60427Y-38138D01*
X60427Y-38588D01*
X60430Y-38596D01*
X58417Y-36582D01*
X58340Y-36531D01*
X58250Y-36513D01*
X57300Y-36513D01*
X57253Y-36513D01*
X57166Y-36549D01*
X57099Y-36616D01*
X57063Y-36702D01*
X57063Y-36796D01*
X57081Y-36840D01*
X57099Y-36883D01*
X57166Y-36950D01*
X57209Y-36968D01*
X57252Y-36986D01*
X57300Y-36986D01*
X57346Y-36986D01*
X57346Y-36986D01*
X58152Y-36986D01*
X60339Y-39173D01*
X60333Y-39173D01*
X60246Y-39209D01*
X60179Y-39276D01*
X60143Y-39362D01*
X60143Y-39456D01*
X60161Y-39500D01*
X60179Y-39543D01*
X60246Y-39610D01*
X60246Y-39610D01*
X60902Y-40267D01*
X60902Y-40267D01*
X60954Y-40301D01*
X60979Y-40318D01*
X60979Y-40318D01*
X61070Y-40336D01*
X61413Y-40336D01*
X61413Y-41775D01*
X61431Y-41865D01*
X61482Y-41942D01*
X62107Y-42566D01*
X62141Y-42600D01*
X62184Y-42618D01*
X62227Y-42636D01*
X62275Y-42636D01*
X62321Y-42636D01*
X62365Y-42618D01*
X62408Y-42600D01*
X62442Y-42567D01*
X62475Y-42533D01*
X62493Y-42490D01*
X62511Y-42447D01*
X62511Y-42400D01*
X62511Y-42353D01*
X62493Y-42309D01*
X62475Y-42266D01*
X62408Y-42199D01*
X62408Y-42199D01*
X61886Y-41677D01*
X61886Y-40978D01*
X61929Y-40996D01*
X62180Y-40996D01*
X62229Y-40947D01*
X62229Y-40539D01*
X62221Y-40539D01*
X62221Y-40460D01*
X62229Y-40460D01*
X62229Y-40452D01*
X62308Y-40452D01*
X62308Y-40460D01*
X62316Y-40460D01*
X62316Y-40539D01*
X62308Y-40539D01*
X62308Y-40947D01*
X62357Y-40996D01*
X62607Y-40996D01*
X62680Y-40966D01*
X62735Y-40911D01*
X62765Y-40839D01*
X62765Y-40800D01*
X62819Y-40854D01*
X62820Y-40854D01*
X62820Y-41181D01*
X62838Y-41271D01*
X62889Y-41348D01*
X63018Y-41477D01*
X63018Y-41620D01*
X63036Y-41663D01*
X63070Y-41697D01*
X63113Y-41715D01*
X63160Y-41715D01*
X63416Y-41715D01*
X63431Y-41790D01*
X63482Y-41867D01*
X63622Y-42006D01*
X63610Y-42006D01*
X63610Y-42055D01*
X63561Y-42006D01*
X63473Y-42006D01*
X63400Y-42036D01*
X63351Y-42084D01*
X63113Y-42084D01*
X63070Y-42102D01*
X63036Y-42136D01*
X63018Y-42179D01*
X63018Y-42226D01*
X63018Y-42620D01*
X63036Y-42663D01*
X63070Y-42697D01*
X63113Y-42715D01*
X63160Y-42715D01*
X63351Y-42715D01*
X63400Y-42763D01*
X63473Y-42793D01*
X63561Y-42793D01*
X63610Y-42744D01*
X63610Y-42439D01*
X63602Y-42439D01*
X63602Y-42360D01*
X63610Y-42360D01*
X63610Y-42352D01*
X63689Y-42352D01*
X63689Y-42360D01*
X63697Y-42360D01*
X63697Y-42439D01*
X63689Y-42439D01*
X63689Y-42744D01*
X63738Y-42793D01*
X63826Y-42793D01*
X63899Y-42763D01*
X63948Y-42715D01*
X64186Y-42715D01*
X64229Y-42697D01*
X64263Y-42663D01*
X64281Y-42620D01*
X64281Y-42573D01*
X64281Y-42179D01*
X64263Y-42136D01*
X64450Y-42136D01*
X64540Y-42118D01*
X64617Y-42067D01*
X64798Y-41885D01*
X64849Y-41809D01*
X64867Y-41718D01*
X64867Y-40854D01*
X64867Y-40854D01*
X64985Y-40737D01*
X65049Y-40583D01*
X65049Y-40417D01*
X64985Y-40263D01*
X64868Y-40145D01*
X64714Y-40081D01*
X64548Y-40081D01*
X64394Y-40145D01*
X64276Y-40262D01*
X64237Y-40357D01*
X64198Y-40263D01*
X64080Y-40145D01*
X64014Y-40118D01*
X64148Y-40118D01*
X64191Y-40100D01*
X64225Y-40066D01*
X64243Y-40023D01*
X64243Y-39993D01*
X64874Y-39993D01*
X64875Y-39993D01*
X64875Y-39993D01*
X64939Y-39980D01*
X64993Y-39943D01*
X65766Y-39171D01*
X65719Y-39284D01*
X65719Y-39450D01*
X65782Y-39604D01*
X65900Y-39721D01*
X66053Y-39785D01*
X66220Y-39785D01*
X66373Y-39722D01*
X66481Y-39614D01*
X66481Y-39780D01*
X66285Y-39976D01*
X66220Y-39949D01*
X66054Y-39949D01*
X65900Y-40013D01*
X65783Y-40130D01*
X65719Y-40284D01*
X65719Y-40450D01*
X65782Y-40604D01*
X65900Y-40721D01*
X66053Y-40785D01*
X66220Y-40785D01*
X66373Y-40722D01*
X66481Y-40614D01*
X66481Y-40899D01*
X66481Y-40900D01*
X66494Y-40964D01*
X66531Y-41018D01*
X66741Y-41229D01*
X66719Y-41284D01*
X66719Y-41450D01*
X66782Y-41604D01*
X66860Y-41681D01*
X66650Y-41681D01*
X66650Y-41681D01*
X66585Y-41694D01*
X66555Y-41714D01*
X66555Y-41284D01*
X66492Y-41131D01*
X66374Y-41013D01*
X66220Y-40949D01*
X66054Y-40949D01*
X65900Y-41013D01*
X65783Y-41130D01*
X65719Y-41284D01*
X65719Y-41450D01*
X65782Y-41604D01*
X65900Y-41721D01*
X66053Y-41785D01*
X66220Y-41785D01*
X66373Y-41722D01*
X66491Y-41604D01*
X66555Y-41451D01*
X66555Y-41284D01*
X66555Y-41714D01*
X66531Y-41731D01*
X66312Y-41949D01*
X65814Y-41949D01*
X65770Y-41967D01*
X65737Y-42000D01*
X65719Y-42044D01*
X65719Y-42091D01*
X65719Y-42691D01*
X65737Y-42734D01*
X65770Y-42767D01*
X65813Y-42785D01*
X65860Y-42785D01*
X66460Y-42785D01*
X66504Y-42767D01*
X66537Y-42734D01*
X66555Y-42691D01*
X66555Y-42644D01*
X66555Y-42182D01*
X66719Y-42018D01*
X66895Y-42018D01*
X66783Y-42130D01*
X66719Y-42284D01*
X66719Y-42450D01*
X66782Y-42604D01*
X66900Y-42721D01*
X67053Y-42785D01*
X67220Y-42785D01*
X67373Y-42722D01*
X67491Y-42604D01*
X67555Y-42451D01*
X67555Y-42284D01*
X67540Y-42247D01*
X68068Y-41718D01*
X68068Y-41718D01*
X68068Y-41718D01*
X68105Y-41664D01*
X68118Y-41600D01*
X68118Y-41169D01*
X69668Y-39618D01*
X69668Y-39618D01*
X69668Y-39618D01*
X69705Y-39564D01*
X69705Y-39564D01*
X69715Y-39512D01*
X69718Y-39500D01*
X69718Y-39500D01*
X69718Y-39500D01*
X69718Y-38515D01*
X69750Y-38483D01*
X69786Y-38397D01*
X69786Y-38303D01*
X69750Y-38216D01*
X69683Y-38149D01*
X69597Y-38113D01*
X69503Y-38113D01*
X69465Y-38129D01*
X69468Y-38123D01*
X69468Y-38076D01*
X69468Y-37476D01*
X69464Y-37468D01*
X69549Y-37468D01*
X69550Y-37468D01*
X69550Y-37468D01*
X69614Y-37455D01*
X69668Y-37418D01*
X69898Y-37189D01*
X69966Y-37218D01*
X70132Y-37218D01*
X70286Y-37154D01*
X70404Y-37037D01*
X70468Y-36883D01*
X70468Y-36717D01*
X70404Y-36563D01*
X70299Y-36458D01*
X70314Y-36455D01*
X70368Y-36418D01*
X70602Y-36185D01*
X70602Y-42852D01*
X70602Y-42852D01*
G37*
G54D30*
X70602Y-42852D02*
X70468Y-42852D01*
X70468Y-37717D01*
X70404Y-37563D01*
X70287Y-37445D01*
X70133Y-37381D01*
X69967Y-37381D01*
X69813Y-37445D01*
X69695Y-37562D01*
X69631Y-37716D01*
X69631Y-37882D01*
X69695Y-38036D01*
X69812Y-38154D01*
X69813Y-38154D01*
X69813Y-38760D01*
X69831Y-38850D01*
X69882Y-38927D01*
X69903Y-38947D01*
X69903Y-39929D01*
X69903Y-39976D01*
X69921Y-40020D01*
X69939Y-40063D01*
X70006Y-40130D01*
X70049Y-40148D01*
X70092Y-40166D01*
X70140Y-40166D01*
X70186Y-40166D01*
X70230Y-40148D01*
X70273Y-40130D01*
X70307Y-40097D01*
X70340Y-40063D01*
X70358Y-40020D01*
X70376Y-39977D01*
X70376Y-39930D01*
X70376Y-39883D01*
X70376Y-39883D01*
X70376Y-38850D01*
X70358Y-38759D01*
X70307Y-38682D01*
X70286Y-38662D01*
X70286Y-38154D01*
X70286Y-38154D01*
X70404Y-38037D01*
X70468Y-37883D01*
X70468Y-37717D01*
X70468Y-42852D01*
X70368Y-42852D01*
X70368Y-41418D01*
X70228Y-41080D01*
X69970Y-40822D01*
X69633Y-40682D01*
X69268Y-40681D01*
X68930Y-40821D01*
X68672Y-41079D01*
X68532Y-41416D01*
X68531Y-41781D01*
X68671Y-42119D01*
X68929Y-42377D01*
X69266Y-42517D01*
X69631Y-42518D01*
X69969Y-42378D01*
X70227Y-42120D01*
X70367Y-41783D01*
X70368Y-41418D01*
X70368Y-42852D01*
X63610Y-42852D01*
X57681Y-42852D01*
X57700Y-42833D01*
X57736Y-42747D01*
X57736Y-42653D01*
X57700Y-42566D01*
X57633Y-42499D01*
X57547Y-42463D01*
X57453Y-42463D01*
X57366Y-42499D01*
X57299Y-42566D01*
X57272Y-42631D01*
X56169Y-42631D01*
X55873Y-42336D01*
X58950Y-42336D01*
X59040Y-42318D01*
X59117Y-42267D01*
X59466Y-41917D01*
X59466Y-41918D01*
X59632Y-41918D01*
X59786Y-41854D01*
X59904Y-41737D01*
X59904Y-41736D01*
X60131Y-41736D01*
X60131Y-41823D01*
X60149Y-41866D01*
X60183Y-41900D01*
X60226Y-41918D01*
X60273Y-41918D01*
X60873Y-41918D01*
X60916Y-41900D01*
X60950Y-41866D01*
X60968Y-41823D01*
X60968Y-41776D01*
X60968Y-41176D01*
X60950Y-41133D01*
X60916Y-41099D01*
X60873Y-41081D01*
X60826Y-41081D01*
X60226Y-41081D01*
X60183Y-41099D01*
X60149Y-41133D01*
X60131Y-41176D01*
X60131Y-41223D01*
X60131Y-41263D01*
X59904Y-41263D01*
X59904Y-41263D01*
X59787Y-41145D01*
X59786Y-41145D01*
X59786Y-38800D01*
X59768Y-38709D01*
X59768Y-38709D01*
X59717Y-38632D01*
X58317Y-37232D01*
X58240Y-37181D01*
X58150Y-37163D01*
X56608Y-37163D01*
X55828Y-36383D01*
X55823Y-36378D01*
X58390Y-36378D01*
X58581Y-36568D01*
X58581Y-36568D01*
X58635Y-36605D01*
X58700Y-36618D01*
X59830Y-36618D01*
X60181Y-36968D01*
X60181Y-36968D01*
X60235Y-37005D01*
X60235Y-37005D01*
X60287Y-37015D01*
X60299Y-37018D01*
X60299Y-37018D01*
X60300Y-37018D01*
X60834Y-37018D01*
X60866Y-37050D01*
X60952Y-37086D01*
X61046Y-37086D01*
X61133Y-37050D01*
X61200Y-36983D01*
X61236Y-36897D01*
X61236Y-36803D01*
X61200Y-36716D01*
X61133Y-36649D01*
X61047Y-36613D01*
X60953Y-36613D01*
X60866Y-36649D01*
X60834Y-36681D01*
X60369Y-36681D01*
X60018Y-36331D01*
X59964Y-36294D01*
X59900Y-36281D01*
X59899Y-36281D01*
X58769Y-36281D01*
X58578Y-36091D01*
X58524Y-36054D01*
X58460Y-36041D01*
X58459Y-36041D01*
X56242Y-36041D01*
X56250Y-36033D01*
X56268Y-35990D01*
X56286Y-35947D01*
X56286Y-35900D01*
X56286Y-35853D01*
X56286Y-35853D01*
X56286Y-35136D01*
X58861Y-35136D01*
X58909Y-35168D01*
X59000Y-35186D01*
X59090Y-35168D01*
X59138Y-35136D01*
X59499Y-35136D01*
X59500Y-35136D01*
X59546Y-35136D01*
X59590Y-35118D01*
X59633Y-35100D01*
X59667Y-35067D01*
X59700Y-35033D01*
X59718Y-34990D01*
X59736Y-34947D01*
X59736Y-34920D01*
X60409Y-35593D01*
X60409Y-35840D01*
X60427Y-35930D01*
X60427Y-35930D01*
X60427Y-36088D01*
X60445Y-36131D01*
X60478Y-36165D01*
X60521Y-36183D01*
X60568Y-36183D01*
X60768Y-36183D01*
X60812Y-36165D01*
X60845Y-36132D01*
X60852Y-36114D01*
X60878Y-36176D01*
X60933Y-36232D01*
X61006Y-36262D01*
X61056Y-36262D01*
X61105Y-36212D01*
X61105Y-35879D01*
X61098Y-35879D01*
X61098Y-35800D01*
X61105Y-35800D01*
X61105Y-35467D01*
X61056Y-35418D01*
X61006Y-35418D01*
X60933Y-35448D01*
X60881Y-35500D01*
X60881Y-35495D01*
X60863Y-35404D01*
X60863Y-35404D01*
X60812Y-35328D01*
X60420Y-34936D01*
X60631Y-34936D01*
X60631Y-34998D01*
X60649Y-35041D01*
X60683Y-35075D01*
X60726Y-35093D01*
X60773Y-35093D01*
X61123Y-35093D01*
X61166Y-35075D01*
X61200Y-35041D01*
X61218Y-34998D01*
X61218Y-34951D01*
X61218Y-34401D01*
X61200Y-34358D01*
X61166Y-34324D01*
X61123Y-34306D01*
X61117Y-34306D01*
X61133Y-34300D01*
X61200Y-34233D01*
X61236Y-34147D01*
X61236Y-34053D01*
X61218Y-34009D01*
X61200Y-33966D01*
X61133Y-33899D01*
X61133Y-33899D01*
X58836Y-31602D01*
X58836Y-31368D01*
X58923Y-31368D01*
X58966Y-31350D01*
X59000Y-31316D01*
X59018Y-31273D01*
X59018Y-31226D01*
X59018Y-30668D01*
X60150Y-30668D01*
X60499Y-30668D01*
X60500Y-30668D01*
X60500Y-30668D01*
X60564Y-30655D01*
X60618Y-30618D01*
X60727Y-30509D01*
X60727Y-30509D01*
X60727Y-30509D01*
X60752Y-30472D01*
X60931Y-30472D01*
X60931Y-30799D01*
X60931Y-30800D01*
X60944Y-30864D01*
X60981Y-30918D01*
X61310Y-31248D01*
X61281Y-31316D01*
X61281Y-31482D01*
X61345Y-31636D01*
X61462Y-31754D01*
X61616Y-31818D01*
X61782Y-31818D01*
X61936Y-31754D01*
X62054Y-31637D01*
X62118Y-31483D01*
X62118Y-31317D01*
X62118Y-30317D01*
X62054Y-30163D01*
X61937Y-30045D01*
X61783Y-29981D01*
X61617Y-29981D01*
X61463Y-30045D01*
X61345Y-30162D01*
X61281Y-30316D01*
X61281Y-30482D01*
X61345Y-30636D01*
X61462Y-30754D01*
X61616Y-30818D01*
X61782Y-30818D01*
X61936Y-30754D01*
X62054Y-30637D01*
X62118Y-30483D01*
X62118Y-30317D01*
X62118Y-31317D01*
X62054Y-31163D01*
X61937Y-31045D01*
X61783Y-30981D01*
X61617Y-30981D01*
X61548Y-31010D01*
X61268Y-30730D01*
X61268Y-30219D01*
X61619Y-29868D01*
X62994Y-29868D01*
X62851Y-30010D01*
X62783Y-29981D01*
X62617Y-29981D01*
X62463Y-30045D01*
X62345Y-30162D01*
X62281Y-30316D01*
X62281Y-30482D01*
X62345Y-30636D01*
X62462Y-30754D01*
X62616Y-30818D01*
X62782Y-30818D01*
X62936Y-30754D01*
X63054Y-30637D01*
X63118Y-30483D01*
X63118Y-30317D01*
X63089Y-30248D01*
X63269Y-30068D01*
X63316Y-30068D01*
X63314Y-30070D01*
X63349Y-30105D01*
X63268Y-30134D01*
X63199Y-30320D01*
X63207Y-30517D01*
X63268Y-30665D01*
X63349Y-30694D01*
X63644Y-30400D01*
X63638Y-30394D01*
X63694Y-30338D01*
X63700Y-30344D01*
X63705Y-30338D01*
X63761Y-30394D01*
X63755Y-30400D01*
X64050Y-30694D01*
X64131Y-30665D01*
X64200Y-30479D01*
X64192Y-30282D01*
X64131Y-30134D01*
X64050Y-30105D01*
X64085Y-30070D01*
X64083Y-30068D01*
X64440Y-30068D01*
X64345Y-30162D01*
X64281Y-30316D01*
X64281Y-30482D01*
X64310Y-30551D01*
X64200Y-30661D01*
X64131Y-30731D01*
X64081Y-30781D01*
X64044Y-30835D01*
X64031Y-30900D01*
X64031Y-30900D01*
X64031Y-31140D01*
X63994Y-31103D01*
X63994Y-30750D01*
X63700Y-30455D01*
X63644Y-30511D01*
X63405Y-30750D01*
X63434Y-30831D01*
X63620Y-30900D01*
X63817Y-30892D01*
X63965Y-30831D01*
X63994Y-30750D01*
X63994Y-31103D01*
X63937Y-31045D01*
X63783Y-30981D01*
X63617Y-30981D01*
X63463Y-31045D01*
X63345Y-31162D01*
X63281Y-31316D01*
X63281Y-31482D01*
X63345Y-31636D01*
X63462Y-31754D01*
X63531Y-31782D01*
X63531Y-32349D01*
X63531Y-32350D01*
X63544Y-32414D01*
X63581Y-32468D01*
X64296Y-33184D01*
X64247Y-33163D01*
X64153Y-33163D01*
X64066Y-33199D01*
X63999Y-33266D01*
X63963Y-33352D01*
X63963Y-33429D01*
X62936Y-32402D01*
X62936Y-31754D01*
X62936Y-31754D01*
X63054Y-31637D01*
X63118Y-31483D01*
X63118Y-31317D01*
X63054Y-31163D01*
X62937Y-31045D01*
X62783Y-30981D01*
X62617Y-30981D01*
X62463Y-31045D01*
X62345Y-31162D01*
X62281Y-31316D01*
X62281Y-31482D01*
X62345Y-31636D01*
X62462Y-31754D01*
X62463Y-31754D01*
X62463Y-32500D01*
X62481Y-32590D01*
X62532Y-32667D01*
X64813Y-34947D01*
X64813Y-38452D01*
X64757Y-38508D01*
X64757Y-38126D01*
X64721Y-38039D01*
X64655Y-37972D01*
X64568Y-37936D01*
X64474Y-37936D01*
X64442Y-37949D01*
X64442Y-36026D01*
X64442Y-35654D01*
X64442Y-35575D01*
X64412Y-35503D01*
X64356Y-35448D01*
X64284Y-35418D01*
X64233Y-35418D01*
X64184Y-35467D01*
X64184Y-35800D01*
X64392Y-35800D01*
X64442Y-35751D01*
X64442Y-35654D01*
X64442Y-36026D01*
X64442Y-35928D01*
X64392Y-35879D01*
X64184Y-35879D01*
X64184Y-36212D01*
X64233Y-36262D01*
X64284Y-36262D01*
X64356Y-36232D01*
X64412Y-36176D01*
X64442Y-36104D01*
X64442Y-36026D01*
X64442Y-37949D01*
X64387Y-37972D01*
X64328Y-38031D01*
X64312Y-38015D01*
X64268Y-37997D01*
X64221Y-37997D01*
X64105Y-37997D01*
X64105Y-36212D01*
X64105Y-35879D01*
X64098Y-35879D01*
X64098Y-35800D01*
X64105Y-35800D01*
X64105Y-35467D01*
X64056Y-35418D01*
X64006Y-35418D01*
X63933Y-35448D01*
X63878Y-35503D01*
X63852Y-35565D01*
X63846Y-35551D01*
X63846Y-34936D01*
X63846Y-34463D01*
X63846Y-34385D01*
X63816Y-34313D01*
X63761Y-34258D01*
X63688Y-34228D01*
X63563Y-34228D01*
X63514Y-34277D01*
X63514Y-34660D01*
X63797Y-34660D01*
X63846Y-34611D01*
X63846Y-34463D01*
X63846Y-34936D01*
X63846Y-34788D01*
X63797Y-34739D01*
X63514Y-34739D01*
X63514Y-35122D01*
X63563Y-35171D01*
X63688Y-35171D01*
X63761Y-35141D01*
X63816Y-35086D01*
X63846Y-35014D01*
X63846Y-34936D01*
X63846Y-35551D01*
X63845Y-35548D01*
X63812Y-35515D01*
X63768Y-35497D01*
X63721Y-35497D01*
X63521Y-35497D01*
X63478Y-35514D01*
X63445Y-35548D01*
X63437Y-35565D01*
X63435Y-35560D01*
X63435Y-35122D01*
X63435Y-34739D01*
X63435Y-34660D01*
X63435Y-34277D01*
X63386Y-34228D01*
X63261Y-34228D01*
X63188Y-34258D01*
X63133Y-34313D01*
X63103Y-34385D01*
X63103Y-34463D01*
X63103Y-34611D01*
X63152Y-34660D01*
X63435Y-34660D01*
X63435Y-34739D01*
X63152Y-34739D01*
X63103Y-34788D01*
X63103Y-34936D01*
X63103Y-35014D01*
X63133Y-35086D01*
X63188Y-35141D01*
X63261Y-35171D01*
X63386Y-35171D01*
X63435Y-35122D01*
X63435Y-35560D01*
X63412Y-35503D01*
X63356Y-35448D01*
X63284Y-35418D01*
X63233Y-35418D01*
X63184Y-35467D01*
X63184Y-35800D01*
X63192Y-35800D01*
X63192Y-35879D01*
X63184Y-35879D01*
X63184Y-35887D01*
X63105Y-35887D01*
X63105Y-35879D01*
X63098Y-35879D01*
X63098Y-35800D01*
X63105Y-35800D01*
X63105Y-35467D01*
X63056Y-35418D01*
X63018Y-35418D01*
X63018Y-34951D01*
X63018Y-34401D01*
X63000Y-34358D01*
X62966Y-34324D01*
X62961Y-34322D01*
X62961Y-34175D01*
X62961Y-34174D01*
X62943Y-34084D01*
X62943Y-34084D01*
X62892Y-34007D01*
X62892Y-34007D01*
X62717Y-33833D01*
X62683Y-33799D01*
X62597Y-33763D01*
X62503Y-33763D01*
X62416Y-33799D01*
X62349Y-33866D01*
X62313Y-33952D01*
X62313Y-34046D01*
X62331Y-34090D01*
X62349Y-34133D01*
X62416Y-34200D01*
X62416Y-34200D01*
X62488Y-34272D01*
X62488Y-34322D01*
X62483Y-34324D01*
X62449Y-34358D01*
X62431Y-34401D01*
X62431Y-34448D01*
X62431Y-34463D01*
X61968Y-34463D01*
X61968Y-34401D01*
X61950Y-34358D01*
X61916Y-34324D01*
X61873Y-34306D01*
X61826Y-34306D01*
X61476Y-34306D01*
X61433Y-34324D01*
X61399Y-34358D01*
X61381Y-34401D01*
X61381Y-34448D01*
X61381Y-34998D01*
X61399Y-35041D01*
X61433Y-35075D01*
X61476Y-35093D01*
X61523Y-35093D01*
X61873Y-35093D01*
X61916Y-35075D01*
X61950Y-35041D01*
X61968Y-34998D01*
X61968Y-34951D01*
X61968Y-34936D01*
X62431Y-34936D01*
X62431Y-34998D01*
X62449Y-35041D01*
X62483Y-35075D01*
X62526Y-35093D01*
X62573Y-35093D01*
X62923Y-35093D01*
X62966Y-35075D01*
X63000Y-35041D01*
X63018Y-34998D01*
X63018Y-34951D01*
X63018Y-35418D01*
X63006Y-35418D01*
X62933Y-35448D01*
X62878Y-35503D01*
X62852Y-35565D01*
X62845Y-35548D01*
X62812Y-35515D01*
X62768Y-35497D01*
X62721Y-35497D01*
X62521Y-35497D01*
X62478Y-35514D01*
X62445Y-35548D01*
X62427Y-35591D01*
X62427Y-35603D01*
X62363Y-35603D01*
X62363Y-35591D01*
X62345Y-35548D01*
X62312Y-35515D01*
X62268Y-35497D01*
X62221Y-35497D01*
X62021Y-35497D01*
X61978Y-35514D01*
X61945Y-35548D01*
X61927Y-35591D01*
X61927Y-35638D01*
X61927Y-35749D01*
X61927Y-35749D01*
X61909Y-35840D01*
X61909Y-36124D01*
X61881Y-36097D01*
X61881Y-35840D01*
X61863Y-35749D01*
X61863Y-35749D01*
X61863Y-35591D01*
X61845Y-35548D01*
X61812Y-35515D01*
X61768Y-35497D01*
X61721Y-35497D01*
X61521Y-35497D01*
X61478Y-35514D01*
X61445Y-35548D01*
X61437Y-35565D01*
X61412Y-35503D01*
X61356Y-35448D01*
X61284Y-35418D01*
X61233Y-35418D01*
X61184Y-35467D01*
X61184Y-35800D01*
X61192Y-35800D01*
X61192Y-35879D01*
X61184Y-35879D01*
X61184Y-36212D01*
X61233Y-36262D01*
X61284Y-36262D01*
X61356Y-36232D01*
X61409Y-36179D01*
X61409Y-36195D01*
X61427Y-36285D01*
X61478Y-36362D01*
X61632Y-36516D01*
X61666Y-36550D01*
X61752Y-36586D01*
X61846Y-36586D01*
X61890Y-36568D01*
X61909Y-36560D01*
X61909Y-38340D01*
X61927Y-38430D01*
X61927Y-38430D01*
X61927Y-38588D01*
X61945Y-38631D01*
X61978Y-38665D01*
X62021Y-38683D01*
X62068Y-38683D01*
X62268Y-38683D01*
X62312Y-38665D01*
X62345Y-38632D01*
X62363Y-38588D01*
X62363Y-38576D01*
X62409Y-38576D01*
X62409Y-38796D01*
X62414Y-38826D01*
X62414Y-38849D01*
X62423Y-38871D01*
X62427Y-38887D01*
X62436Y-38900D01*
X62450Y-38936D01*
X62478Y-38963D01*
X62478Y-38963D01*
X62483Y-38969D01*
X62517Y-39002D01*
X62560Y-39020D01*
X62603Y-39038D01*
X62651Y-39038D01*
X62697Y-39039D01*
X62741Y-39020D01*
X62784Y-39003D01*
X62818Y-38969D01*
X62851Y-38936D01*
X62869Y-38893D01*
X62887Y-38849D01*
X62887Y-38802D01*
X62887Y-38755D01*
X62881Y-38741D01*
X62881Y-38576D01*
X62927Y-38576D01*
X62927Y-38588D01*
X62945Y-38631D01*
X62978Y-38665D01*
X63021Y-38683D01*
X63068Y-38683D01*
X63268Y-38683D01*
X63312Y-38665D01*
X63345Y-38632D01*
X63363Y-38588D01*
X63363Y-38541D01*
X63363Y-38430D01*
X63363Y-38430D01*
X63381Y-38340D01*
X63363Y-38249D01*
X63363Y-38249D01*
X63363Y-38091D01*
X63345Y-38048D01*
X63312Y-38015D01*
X63268Y-37997D01*
X63221Y-37997D01*
X63021Y-37997D01*
X62978Y-38014D01*
X62945Y-38048D01*
X62927Y-38091D01*
X62927Y-38103D01*
X62881Y-38103D01*
X62881Y-36586D01*
X62949Y-36586D01*
X62950Y-36586D01*
X62996Y-36586D01*
X63040Y-36568D01*
X63083Y-36550D01*
X63117Y-36517D01*
X63150Y-36483D01*
X63168Y-36440D01*
X63186Y-36397D01*
X63186Y-36350D01*
X63186Y-36303D01*
X63169Y-36262D01*
X63184Y-36262D01*
X63184Y-36212D01*
X63233Y-36262D01*
X63284Y-36262D01*
X63356Y-36232D01*
X63412Y-36176D01*
X63437Y-36114D01*
X63445Y-36131D01*
X63477Y-36164D01*
X63477Y-36185D01*
X63454Y-36208D01*
X63418Y-36294D01*
X63418Y-36388D01*
X63454Y-36475D01*
X63521Y-36542D01*
X63607Y-36578D01*
X63701Y-36578D01*
X63788Y-36542D01*
X63855Y-36476D01*
X63891Y-36389D01*
X63891Y-36295D01*
X63855Y-36208D01*
X63813Y-36166D01*
X63813Y-36164D01*
X63845Y-36132D01*
X63852Y-36114D01*
X63878Y-36176D01*
X63933Y-36232D01*
X64006Y-36262D01*
X64056Y-36262D01*
X64105Y-36212D01*
X64105Y-37997D01*
X64021Y-37997D01*
X63978Y-38014D01*
X63945Y-38048D01*
X63927Y-38091D01*
X63927Y-38138D01*
X63927Y-38249D01*
X63927Y-38249D01*
X63909Y-38340D01*
X63927Y-38430D01*
X63927Y-38430D01*
X63927Y-38588D01*
X63945Y-38631D01*
X63978Y-38665D01*
X64021Y-38683D01*
X64068Y-38683D01*
X64268Y-38683D01*
X64312Y-38665D01*
X64345Y-38632D01*
X64363Y-38588D01*
X64363Y-38574D01*
X64444Y-38558D01*
X64520Y-38507D01*
X64688Y-38339D01*
X64688Y-38339D01*
X64721Y-38306D01*
X64739Y-38263D01*
X64757Y-38220D01*
X64757Y-38126D01*
X64757Y-38508D01*
X64427Y-38838D01*
X64227Y-38838D01*
X64225Y-38833D01*
X64191Y-38799D01*
X64148Y-38781D01*
X64101Y-38781D01*
X63863Y-38781D01*
X63863Y-38541D01*
X63863Y-38091D01*
X63845Y-38048D01*
X63812Y-38015D01*
X63768Y-37997D01*
X63721Y-37997D01*
X63521Y-37997D01*
X63478Y-38014D01*
X63445Y-38048D01*
X63427Y-38091D01*
X63427Y-38138D01*
X63427Y-38588D01*
X63445Y-38631D01*
X63478Y-38665D01*
X63521Y-38683D01*
X63568Y-38683D01*
X63768Y-38683D01*
X63812Y-38665D01*
X63845Y-38632D01*
X63863Y-38588D01*
X63863Y-38541D01*
X63863Y-38781D01*
X63551Y-38781D01*
X63508Y-38799D01*
X63474Y-38833D01*
X63472Y-38838D01*
X63400Y-38838D01*
X63381Y-38838D01*
X63075Y-38838D01*
X63050Y-38838D01*
X62959Y-38856D01*
X62882Y-38907D01*
X62127Y-39663D01*
X61863Y-39663D01*
X61863Y-38541D01*
X61863Y-38091D01*
X61845Y-38048D01*
X61812Y-38015D01*
X61768Y-37997D01*
X61721Y-37997D01*
X61521Y-37997D01*
X61478Y-38014D01*
X61445Y-38048D01*
X61437Y-38065D01*
X61412Y-38003D01*
X61356Y-37948D01*
X61284Y-37918D01*
X61233Y-37918D01*
X61184Y-37967D01*
X61184Y-38300D01*
X61192Y-38300D01*
X61192Y-38379D01*
X61184Y-38379D01*
X61184Y-38712D01*
X61233Y-38762D01*
X61284Y-38762D01*
X61356Y-38732D01*
X61412Y-38676D01*
X61437Y-38614D01*
X61445Y-38631D01*
X61478Y-38665D01*
X61521Y-38683D01*
X61568Y-38683D01*
X61768Y-38683D01*
X61812Y-38665D01*
X61845Y-38632D01*
X61863Y-38588D01*
X61863Y-38541D01*
X61863Y-39663D01*
X61850Y-39663D01*
X61759Y-39681D01*
X61682Y-39732D01*
X61552Y-39863D01*
X61167Y-39863D01*
X61140Y-39836D01*
X61449Y-39836D01*
X61450Y-39836D01*
X61496Y-39836D01*
X61540Y-39818D01*
X61583Y-39800D01*
X61617Y-39767D01*
X61650Y-39733D01*
X61668Y-39690D01*
X61686Y-39647D01*
X61686Y-39600D01*
X61686Y-39553D01*
X61668Y-39509D01*
X61650Y-39466D01*
X61583Y-39399D01*
X61497Y-39363D01*
X61403Y-39363D01*
X61403Y-39363D01*
X61197Y-39363D01*
X60514Y-38680D01*
X60521Y-38683D01*
X60568Y-38683D01*
X60768Y-38683D01*
X60812Y-38665D01*
X60845Y-38632D01*
X60852Y-38614D01*
X60878Y-38676D01*
X60933Y-38732D01*
X61006Y-38762D01*
X61056Y-38762D01*
X61105Y-38712D01*
X61105Y-38379D01*
X61098Y-38379D01*
X61098Y-38300D01*
X61105Y-38300D01*
X61105Y-37967D01*
X61056Y-37918D01*
X61006Y-37918D01*
X60933Y-37948D01*
X60878Y-38003D01*
X60852Y-38065D01*
X60845Y-38048D01*
X60812Y-38015D01*
X60768Y-37997D01*
X60721Y-37997D01*
X60521Y-37997D01*
X60478Y-38014D01*
X60445Y-38048D01*
X60427Y-38091D01*
X60427Y-38138D01*
X60427Y-38588D01*
X60430Y-38596D01*
X58417Y-36582D01*
X58340Y-36531D01*
X58250Y-36513D01*
X57300Y-36513D01*
X57253Y-36513D01*
X57166Y-36549D01*
X57099Y-36616D01*
X57063Y-36702D01*
X57063Y-36796D01*
X57081Y-36840D01*
X57099Y-36883D01*
X57166Y-36950D01*
X57209Y-36968D01*
X57252Y-36986D01*
X57300Y-36986D01*
X57346Y-36986D01*
X57346Y-36986D01*
X58152Y-36986D01*
X60339Y-39173D01*
X60333Y-39173D01*
X60246Y-39209D01*
X60179Y-39276D01*
X60143Y-39362D01*
X60143Y-39456D01*
X60161Y-39500D01*
X60179Y-39543D01*
X60246Y-39610D01*
X60246Y-39610D01*
X60902Y-40267D01*
X60902Y-40267D01*
X60954Y-40301D01*
X60979Y-40318D01*
X60979Y-40318D01*
X61070Y-40336D01*
X61413Y-40336D01*
X61413Y-41775D01*
X61431Y-41865D01*
X61482Y-41942D01*
X62107Y-42566D01*
X62141Y-42600D01*
X62184Y-42618D01*
X62227Y-42636D01*
X62275Y-42636D01*
X62321Y-42636D01*
X62365Y-42618D01*
X62408Y-42600D01*
X62442Y-42567D01*
X62475Y-42533D01*
X62493Y-42490D01*
X62511Y-42447D01*
X62511Y-42400D01*
X62511Y-42353D01*
X62493Y-42309D01*
X62475Y-42266D01*
X62408Y-42199D01*
X62408Y-42199D01*
X61886Y-41677D01*
X61886Y-40978D01*
X61929Y-40996D01*
X62180Y-40996D01*
X62229Y-40947D01*
X62229Y-40539D01*
X62221Y-40539D01*
X62221Y-40460D01*
X62229Y-40460D01*
X62229Y-40452D01*
X62308Y-40452D01*
X62308Y-40460D01*
X62316Y-40460D01*
X62316Y-40539D01*
X62308Y-40539D01*
X62308Y-40947D01*
X62357Y-40996D01*
X62607Y-40996D01*
X62680Y-40966D01*
X62735Y-40911D01*
X62765Y-40839D01*
X62765Y-40800D01*
X62819Y-40854D01*
X62820Y-40854D01*
X62820Y-41181D01*
X62838Y-41271D01*
X62889Y-41348D01*
X63018Y-41477D01*
X63018Y-41620D01*
X63036Y-41663D01*
X63070Y-41697D01*
X63113Y-41715D01*
X63160Y-41715D01*
X63416Y-41715D01*
X63431Y-41790D01*
X63482Y-41867D01*
X63622Y-42006D01*
X63610Y-42006D01*
X63610Y-42055D01*
X63561Y-42006D01*
X63473Y-42006D01*
X63400Y-42036D01*
X63351Y-42084D01*
X63113Y-42084D01*
X63070Y-42102D01*
X63036Y-42136D01*
X63018Y-42179D01*
X63018Y-42226D01*
X63018Y-42620D01*
X63036Y-42663D01*
X63070Y-42697D01*
X63113Y-42715D01*
X63160Y-42715D01*
X63351Y-42715D01*
X63400Y-42763D01*
X63473Y-42793D01*
X63561Y-42793D01*
X63610Y-42744D01*
X63610Y-42439D01*
X63602Y-42439D01*
X63602Y-42360D01*
X63610Y-42360D01*
X63610Y-42352D01*
X63689Y-42352D01*
X63689Y-42360D01*
X63697Y-42360D01*
X63697Y-42439D01*
X63689Y-42439D01*
X63689Y-42744D01*
X63738Y-42793D01*
X63826Y-42793D01*
X63899Y-42763D01*
X63948Y-42715D01*
X64186Y-42715D01*
X64229Y-42697D01*
X64263Y-42663D01*
X64281Y-42620D01*
X64281Y-42573D01*
X64281Y-42179D01*
X64263Y-42136D01*
X64450Y-42136D01*
X64540Y-42118D01*
X64617Y-42067D01*
X64798Y-41885D01*
X64849Y-41809D01*
X64867Y-41718D01*
X64867Y-40854D01*
X64867Y-40854D01*
X64985Y-40737D01*
X65049Y-40583D01*
X65049Y-40417D01*
X64985Y-40263D01*
X64868Y-40145D01*
X64714Y-40081D01*
X64548Y-40081D01*
X64394Y-40145D01*
X64276Y-40262D01*
X64237Y-40357D01*
X64198Y-40263D01*
X64080Y-40145D01*
X64014Y-40118D01*
X64148Y-40118D01*
X64191Y-40100D01*
X64225Y-40066D01*
X64243Y-40023D01*
X64243Y-39993D01*
X64874Y-39993D01*
X64875Y-39993D01*
X64875Y-39993D01*
X64939Y-39980D01*
X64993Y-39943D01*
X65766Y-39171D01*
X65719Y-39284D01*
X65719Y-39450D01*
X65782Y-39604D01*
X65900Y-39721D01*
X66053Y-39785D01*
X66220Y-39785D01*
X66373Y-39722D01*
X66481Y-39614D01*
X66481Y-39780D01*
X66285Y-39976D01*
X66220Y-39949D01*
X66054Y-39949D01*
X65900Y-40013D01*
X65783Y-40130D01*
X65719Y-40284D01*
X65719Y-40450D01*
X65782Y-40604D01*
X65900Y-40721D01*
X66053Y-40785D01*
X66220Y-40785D01*
X66373Y-40722D01*
X66481Y-40614D01*
X66481Y-40899D01*
X66481Y-40900D01*
X66494Y-40964D01*
X66531Y-41018D01*
X66741Y-41229D01*
X66719Y-41284D01*
X66719Y-41450D01*
X66782Y-41604D01*
X66860Y-41681D01*
X66650Y-41681D01*
X66650Y-41681D01*
X66585Y-41694D01*
X66555Y-41714D01*
X66555Y-41284D01*
X66492Y-41131D01*
X66374Y-41013D01*
X66220Y-40949D01*
X66054Y-40949D01*
X65900Y-41013D01*
X65783Y-41130D01*
X65719Y-41284D01*
X65719Y-41450D01*
X65782Y-41604D01*
X65900Y-41721D01*
X66053Y-41785D01*
X66220Y-41785D01*
X66373Y-41722D01*
X66491Y-41604D01*
X66555Y-41451D01*
X66555Y-41284D01*
X66555Y-41714D01*
X66531Y-41731D01*
X66312Y-41949D01*
X65814Y-41949D01*
X65770Y-41967D01*
X65737Y-42000D01*
X65719Y-42044D01*
X65719Y-42091D01*
X65719Y-42691D01*
X65737Y-42734D01*
X65770Y-42767D01*
X65813Y-42785D01*
X65860Y-42785D01*
X66460Y-42785D01*
X66504Y-42767D01*
X66537Y-42734D01*
X66555Y-42691D01*
X66555Y-42644D01*
X66555Y-42182D01*
X66719Y-42018D01*
X66895Y-42018D01*
X66783Y-42130D01*
X66719Y-42284D01*
X66719Y-42450D01*
X66782Y-42604D01*
X66900Y-42721D01*
X67053Y-42785D01*
X67220Y-42785D01*
X67373Y-42722D01*
X67491Y-42604D01*
X67555Y-42451D01*
X67555Y-42284D01*
X67540Y-42247D01*
X68068Y-41718D01*
X68068Y-41718D01*
X68068Y-41718D01*
X68105Y-41664D01*
X68118Y-41600D01*
X68118Y-41169D01*
X69668Y-39618D01*
X69668Y-39618D01*
X69668Y-39618D01*
X69705Y-39564D01*
X69705Y-39564D01*
X69715Y-39512D01*
X69718Y-39500D01*
X69718Y-39500D01*
X69718Y-39500D01*
X69718Y-38515D01*
X69750Y-38483D01*
X69786Y-38397D01*
X69786Y-38303D01*
X69750Y-38216D01*
X69683Y-38149D01*
X69597Y-38113D01*
X69503Y-38113D01*
X69465Y-38129D01*
X69468Y-38123D01*
X69468Y-38076D01*
X69468Y-37476D01*
X69464Y-37468D01*
X69549Y-37468D01*
X69550Y-37468D01*
X69550Y-37468D01*
X69614Y-37455D01*
X69668Y-37418D01*
X69898Y-37189D01*
X69966Y-37218D01*
X70132Y-37218D01*
X70286Y-37154D01*
X70404Y-37037D01*
X70468Y-36883D01*
X70468Y-36717D01*
X70404Y-36563D01*
X70299Y-36458D01*
X70314Y-36455D01*
X70368Y-36418D01*
X70602Y-36185D01*
X70602Y-42852D01*
M02*
