M48
;DRILL file {Pcbnew (2013-may-18)-stable} date Чт 26 май 2016 23:42:57
;FORMAT={-:-/ absolute / metric / decimal}
FMAT,2
METRIC,TZ
T1C0.300
T2C1.000
T3C1.016
T4C3.048
%
G90
G05
M71
T1
X85.979Y-62.992
X85.979Y-64.516
X85.979Y-65.659
X86.042Y-130.937
X86.042Y-132.461
X86.042Y-133.604
X92.202Y-49.403
X92.202Y-57.277
X92.964Y-59.563
X93.218Y-51.943
X93.599Y-60.325
X94.488Y-60.833
X96.139Y-66.548
X99.885Y-118.237
X101.536Y-123.952
X102.425Y-124.46
X102.806Y-132.842
X103.06Y-125.222
X103.822Y-127.508
X103.822Y-135.382
X109.982Y-51.181
X109.982Y-52.324
X109.982Y-53.848
X110.045Y-119.126
X110.045Y-120.269
X110.045Y-121.793
X119.634Y-63.055
X119.634Y-64.579
X119.634Y-65.722
X120.015Y-130.874
X120.015Y-132.398
X120.015Y-133.54
X125.73Y-91.821
X125.857Y-49.466
X125.857Y-57.34
X126.619Y-59.627
X126.873Y-52.006
X127.254Y-60.389
X128.143Y-60.896
X128.524Y-81.534
X129.794Y-66.611
X130.937Y-91.059
X131.826Y-91.948
X131.953Y-100.203
X133.604Y-96.139
X133.858Y-118.173
X135.509Y-123.888
X136.398Y-124.396
X136.779Y-132.779
X137.033Y-84.455
X137.033Y-125.158
X137.795Y-127.444
X137.795Y-135.319
X138.176Y-105.41
X138.938Y-97.79
X139.7Y-101.727
X141.224Y-82.359
X141.224Y-108.458
X141.379Y-92.837
X141.503Y-87.274
X142.367Y-91.186
X143.637Y-51.244
X143.637Y-52.387
X143.637Y-53.911
X143.764Y-104.14
X144.018Y-119.062
X144.018Y-120.206
X144.018Y-121.73
X144.221Y-90.754
X144.272Y-76.2
X144.399Y-101.854
X145.542Y-93.345
X146.05Y-108.458
X146.126Y-87.503
X146.177Y-99.822
X147.345Y-96.368
X148.387Y-86.843
X149.504Y-82.677
X151.13Y-88.646
X151.892Y-90.576
X151.917Y-80.264
X152.756Y-86.233
X153.289Y-88.138
X153.365Y-100.101
X153.67Y-63.373
X153.67Y-64.897
X153.67Y-66.04
X153.797Y-131.
X153.797Y-132.524
X153.797Y-133.667
X154.051Y-92.456
X154.94Y-86.614
X154.94Y-93.599
X155.016Y-102.895
X155.321Y-83.668
X155.702Y-107.442
X156.083Y-100.584
X156.972Y-92.329
X158.178Y-107.696
X158.877Y-86.36
X159.134Y-98.559
X159.893Y-49.784
X159.893Y-57.658
X159.893Y-92.329
X160.655Y-59.944
X160.909Y-52.324
X161.29Y-60.706
X161.544Y-86.36
X161.684Y-92.309
X162.179Y-61.214
X163.068Y-82.55
X163.068Y-84.836
X163.195Y-92.329
X163.83Y-66.929
X163.884Y-96.959
X165.456Y-104.648
X166.37Y-84.201
X166.37Y-89.154
X167.64Y-118.3
X168.148Y-83.185
X169.291Y-124.015
X169.799Y-76.2
X170.18Y-124.523
X170.561Y-132.905
X170.815Y-125.285
X171.323Y-103.759
X171.577Y-127.572
X171.577Y-135.445
X173.99Y-85.979
X173.99Y-97.79
X176.657Y-86.106
X176.657Y-97.409
X177.673Y-51.562
X177.673Y-52.705
X177.673Y-54.229
X177.8Y-119.189
X177.8Y-120.332
X177.8Y-121.856
X178.156Y-101.422
T2
X127.349Y-84.754
X127.349Y-87.294
X127.349Y-89.834
X127.349Y-92.374
X127.349Y-94.914
X127.349Y-97.454
X127.349Y-99.994
X127.349Y-102.534
X127.349Y-105.074
X127.349Y-107.614
X129.667Y-78.613
X129.889Y-84.754
X129.889Y-87.294
X129.889Y-89.834
X129.889Y-92.374
X129.889Y-94.914
X129.889Y-97.454
X129.889Y-99.994
X129.889Y-102.534
X129.889Y-105.074
X129.889Y-107.614
X132.207Y-78.613
X134.747Y-78.613
X146.304Y-78.613
X148.844Y-78.613
X158.163Y-102.87
X160.163Y-102.87
X162.163Y-102.87
X164.163Y-102.87
X167.989Y-84.754
X167.989Y-87.294
X167.989Y-89.834
X167.989Y-92.374
X167.989Y-94.914
X167.989Y-97.454
X167.989Y-99.994
X167.989Y-102.534
X167.989Y-105.074
X167.989Y-107.614
X170.529Y-84.754
X170.529Y-87.294
X170.529Y-89.834
X170.529Y-92.374
X170.529Y-94.914
X170.529Y-97.454
X170.529Y-99.994
X170.529Y-102.534
X170.529Y-105.074
X170.529Y-107.614
T3
X90.043Y-49.403
X90.043Y-51.943
X90.043Y-54.483
X90.233Y-117.348
X90.233Y-119.888
X90.233Y-122.428
X96.647Y-46.228
X96.647Y-53.34
X96.647Y-55.88
X96.647Y-58.42
X96.647Y-60.96
X96.647Y-63.5
X96.837Y-121.285
X96.837Y-123.825
X96.837Y-126.365
X96.837Y-128.905
X96.837Y-131.445
X96.837Y-138.557
X99.187Y-46.228
X99.187Y-53.34
X99.187Y-55.88
X99.187Y-58.42
X99.187Y-60.96
X99.187Y-63.5
X99.377Y-121.285
X99.377Y-123.825
X99.377Y-126.365
X99.377Y-128.905
X99.377Y-131.445
X99.377Y-138.557
X105.791Y-62.357
X105.791Y-64.897
X105.791Y-67.437
X105.981Y-130.302
X105.981Y-132.842
X105.981Y-135.382
X121.92Y-84.201
X121.92Y-86.741
X121.92Y-89.281
X121.92Y-92.329
X121.92Y-94.869
X121.92Y-97.409
X121.92Y-99.949
X123.698Y-49.466
X123.698Y-52.006
X123.698Y-54.546
X124.206Y-117.284
X124.206Y-119.825
X124.206Y-122.364
X130.302Y-46.291
X130.302Y-53.404
X130.302Y-55.944
X130.302Y-58.483
X130.302Y-61.023
X130.302Y-63.563
X130.81Y-121.221
X130.81Y-123.761
X130.81Y-126.301
X130.81Y-128.841
X130.81Y-131.381
X130.81Y-138.493
X132.842Y-46.291
X132.842Y-53.404
X132.842Y-55.944
X132.842Y-58.483
X132.842Y-61.023
X132.842Y-63.563
X133.35Y-121.221
X133.35Y-123.761
X133.35Y-126.301
X133.35Y-128.841
X133.35Y-131.381
X133.35Y-138.493
X133.858Y-105.41
X136.398Y-105.41
X137.986Y-78.613
X139.446Y-62.42
X139.446Y-64.96
X139.446Y-67.501
X139.954Y-105.41
X139.954Y-130.238
X139.954Y-132.779
X139.954Y-135.319
X140.525Y-78.613
X142.494Y-105.41
X143.065Y-78.613
X145.034Y-105.41
X147.574Y-105.41
X151.257Y-105.41
X153.797Y-105.41
X156.718Y-77.216
X156.718Y-79.756
X157.734Y-49.784
X157.734Y-52.324
X157.734Y-54.864
X157.988Y-117.411
X157.988Y-119.951
X157.988Y-122.491
X159.258Y-77.216
X159.258Y-79.756
X161.798Y-77.216
X161.798Y-79.756
X164.338Y-46.609
X164.338Y-53.721
X164.338Y-56.261
X164.338Y-58.801
X164.338Y-61.341
X164.338Y-63.881
X164.338Y-77.216
X164.338Y-79.756
X164.592Y-121.349
X164.592Y-123.888
X164.592Y-126.428
X164.592Y-128.969
X164.592Y-131.508
X164.592Y-138.62
X166.878Y-46.609
X166.878Y-53.721
X166.878Y-56.261
X166.878Y-58.801
X166.878Y-61.341
X166.878Y-63.881
X166.878Y-77.216
X166.878Y-79.756
X167.132Y-121.349
X167.132Y-123.888
X167.132Y-126.428
X167.132Y-128.969
X167.132Y-131.508
X167.132Y-138.62
X173.482Y-62.738
X173.482Y-65.278
X173.482Y-67.818
X173.736Y-130.365
X173.736Y-132.905
X173.736Y-135.445
X174.879Y-84.074
X175.387Y-88.392
X175.387Y-90.932
X175.387Y-93.472
X175.387Y-96.012
X177.419Y-84.074
X177.927Y-88.392
X177.927Y-90.932
X177.927Y-93.472
X177.927Y-96.012
T4
X88.917Y-58.42
X89.108Y-126.365
X106.917Y-58.42
X107.108Y-126.365
X121.793Y-78.664
X121.793Y-105.664
X122.572Y-58.483
X123.08Y-126.301
X140.572Y-58.483
X141.08Y-126.301
X156.608Y-58.801
X156.862Y-126.428
X174.608Y-58.801
X174.862Y-126.428
X176.403Y-78.664
X176.403Y-105.664
T0
M30
