G04 (created by PCBNEW (2013-may-18)-stable) date Чт 26 май 2016 23:42:55*
%MOIN*%
G04 Gerber Fmt 3.4, Leading zero omitted, Abs format*
%FSLAX34Y34*%
G01*
G70*
G90*
G04 APERTURE LIST*
%ADD10C,0.00590551*%
%ADD11R,0.0787402X0.0393701*%
%ADD12R,0.0984252X0.0787402*%
%ADD13O,0.0984252X0.0787402*%
%ADD14R,0.0787402X0.0984252*%
%ADD15O,0.0787402X0.0984252*%
%ADD16R,0.06X0.06*%
%ADD17C,0.06*%
%ADD18C,0.16*%
%ADD19R,0.036X0.036*%
%ADD20R,0.02X0.045*%
%ADD21R,0.035X0.055*%
%ADD22R,0.055X0.035*%
%ADD23R,0.03X0.02*%
%ADD24R,0.0276X0.0394*%
%ADD25R,0.0629X0.0709*%
G04 APERTURE END LIST*
G54D10*
G54D11*
X36609Y-52740D03*
X36609Y-52150D03*
X36609Y-51559D03*
X34640Y-51559D03*
X34640Y-52150D03*
X34640Y-52740D03*
X40640Y-46759D03*
X40640Y-47350D03*
X40640Y-47940D03*
X42609Y-47940D03*
X42609Y-47350D03*
X42609Y-46759D03*
G54D12*
X35525Y-46200D03*
G54D13*
X35525Y-47200D03*
X35525Y-48200D03*
G54D12*
X41725Y-53300D03*
G54D13*
X41725Y-52300D03*
X41725Y-51300D03*
G54D14*
X38125Y-54550D03*
G54D15*
X39125Y-54550D03*
G54D16*
X39125Y-47750D03*
G54D17*
X38125Y-47750D03*
X39125Y-48750D03*
X38125Y-48750D03*
X39125Y-49750D03*
X38125Y-49750D03*
X39125Y-50750D03*
X38125Y-50750D03*
X39125Y-51750D03*
X38125Y-51750D03*
G54D18*
X35081Y-49750D03*
X42168Y-49750D03*
X55543Y-49725D03*
X48456Y-49725D03*
G54D16*
X52500Y-47725D03*
G54D17*
X51500Y-47725D03*
X52500Y-48725D03*
X51500Y-48725D03*
X52500Y-49725D03*
X51500Y-49725D03*
X52500Y-50725D03*
X51500Y-50725D03*
X52500Y-51725D03*
X51500Y-51725D03*
G54D14*
X51500Y-54525D03*
G54D15*
X52500Y-54525D03*
G54D12*
X55100Y-53275D03*
G54D13*
X55100Y-52275D03*
X55100Y-51275D03*
G54D12*
X48900Y-46175D03*
G54D13*
X48900Y-47175D03*
X48900Y-48175D03*
G54D11*
X54015Y-46734D03*
X54015Y-47325D03*
X54015Y-47915D03*
X55984Y-47915D03*
X55984Y-47325D03*
X55984Y-46734D03*
X49984Y-52715D03*
X49984Y-52125D03*
X49984Y-51534D03*
X48015Y-51534D03*
X48015Y-52125D03*
X48015Y-52715D03*
X63284Y-52765D03*
X63284Y-52175D03*
X63284Y-51584D03*
X61315Y-51584D03*
X61315Y-52175D03*
X61315Y-52765D03*
X67315Y-46784D03*
X67315Y-47375D03*
X67315Y-47965D03*
X69284Y-47965D03*
X69284Y-47375D03*
X69284Y-46784D03*
G54D12*
X62200Y-46225D03*
G54D13*
X62200Y-47225D03*
X62200Y-48225D03*
G54D12*
X68400Y-53325D03*
G54D13*
X68400Y-52325D03*
X68400Y-51325D03*
G54D14*
X64800Y-54575D03*
G54D15*
X65800Y-54575D03*
G54D16*
X65800Y-47775D03*
G54D17*
X64800Y-47775D03*
X65800Y-48775D03*
X64800Y-48775D03*
X65800Y-49775D03*
X64800Y-49775D03*
X65800Y-50775D03*
X64800Y-50775D03*
X65800Y-51775D03*
X64800Y-51775D03*
G54D18*
X61756Y-49775D03*
X68843Y-49775D03*
G54D11*
X40565Y-20009D03*
X40565Y-20600D03*
X40565Y-21190D03*
X42534Y-21190D03*
X42534Y-20600D03*
X42534Y-20009D03*
X36534Y-25990D03*
X36534Y-25400D03*
X36534Y-24809D03*
X34565Y-24809D03*
X34565Y-25400D03*
X34565Y-25990D03*
G54D12*
X41650Y-26550D03*
G54D13*
X41650Y-25550D03*
X41650Y-24550D03*
G54D12*
X35450Y-19450D03*
G54D13*
X35450Y-20450D03*
X35450Y-21450D03*
G54D14*
X39050Y-18200D03*
G54D15*
X38050Y-18200D03*
G54D16*
X38050Y-25000D03*
G54D17*
X39050Y-25000D03*
X38050Y-24000D03*
X39050Y-24000D03*
X38050Y-23000D03*
X39050Y-23000D03*
X38050Y-22000D03*
X39050Y-22000D03*
X38050Y-21000D03*
X39050Y-21000D03*
G54D18*
X42093Y-23000D03*
X35006Y-23000D03*
X48256Y-23025D03*
X55343Y-23025D03*
G54D16*
X51300Y-25025D03*
G54D17*
X52300Y-25025D03*
X51300Y-24025D03*
X52300Y-24025D03*
X51300Y-23025D03*
X52300Y-23025D03*
X51300Y-22025D03*
X52300Y-22025D03*
X51300Y-21025D03*
X52300Y-21025D03*
G54D14*
X52300Y-18225D03*
G54D15*
X51300Y-18225D03*
G54D12*
X48700Y-19475D03*
G54D13*
X48700Y-20475D03*
X48700Y-21475D03*
G54D12*
X54900Y-26575D03*
G54D13*
X54900Y-25575D03*
X54900Y-24575D03*
G54D11*
X49784Y-26015D03*
X49784Y-25425D03*
X49784Y-24834D03*
X47815Y-24834D03*
X47815Y-25425D03*
X47815Y-26015D03*
X53815Y-20034D03*
X53815Y-20625D03*
X53815Y-21215D03*
X55784Y-21215D03*
X55784Y-20625D03*
X55784Y-20034D03*
X67215Y-20159D03*
X67215Y-20750D03*
X67215Y-21340D03*
X69184Y-21340D03*
X69184Y-20750D03*
X69184Y-20159D03*
X63184Y-26140D03*
X63184Y-25550D03*
X63184Y-24959D03*
X61215Y-24959D03*
X61215Y-25550D03*
X61215Y-26140D03*
G54D12*
X68300Y-26700D03*
G54D13*
X68300Y-25700D03*
X68300Y-24700D03*
G54D12*
X62100Y-19600D03*
G54D13*
X62100Y-20600D03*
X62100Y-21600D03*
G54D14*
X65700Y-18350D03*
G54D15*
X64700Y-18350D03*
G54D16*
X64700Y-25150D03*
G54D17*
X65700Y-25150D03*
X64700Y-24150D03*
X65700Y-24150D03*
X64700Y-23150D03*
X65700Y-23150D03*
X64700Y-22150D03*
X65700Y-22150D03*
X64700Y-21150D03*
X65700Y-21150D03*
G54D18*
X68743Y-23150D03*
X61656Y-23150D03*
G54D19*
X54325Y-32750D03*
X54325Y-32050D03*
X55125Y-32400D03*
G54D20*
X60645Y-35840D03*
X61645Y-35840D03*
X62145Y-35840D03*
X62645Y-35840D03*
X63145Y-35840D03*
X63645Y-35840D03*
X64145Y-35840D03*
X64145Y-38340D03*
X63645Y-38340D03*
X63145Y-38340D03*
X62645Y-38340D03*
X62145Y-38340D03*
X61645Y-38340D03*
X61145Y-38340D03*
X60645Y-38340D03*
X61145Y-35840D03*
G54D21*
X62725Y-34700D03*
X63475Y-34700D03*
G54D22*
X54450Y-33825D03*
X54450Y-34575D03*
X53650Y-34575D03*
X53650Y-33825D03*
G54D16*
X51050Y-30950D03*
G54D17*
X52050Y-30950D03*
X53050Y-30950D03*
G54D16*
X58600Y-30950D03*
G54D17*
X57600Y-30950D03*
G54D16*
X51137Y-33367D03*
G54D17*
X50137Y-33367D03*
X51137Y-34367D03*
X50137Y-34367D03*
X51137Y-35367D03*
X50137Y-35367D03*
X51137Y-36367D03*
X50137Y-36367D03*
X51137Y-37367D03*
X50137Y-37367D03*
X51137Y-38367D03*
X50137Y-38367D03*
X51137Y-39367D03*
X50137Y-39367D03*
X51137Y-40367D03*
X50137Y-40367D03*
X51137Y-41367D03*
X50137Y-41367D03*
X51137Y-42367D03*
X50137Y-42367D03*
G54D16*
X66137Y-42367D03*
G54D17*
X67137Y-42367D03*
X66137Y-41367D03*
X67137Y-41367D03*
X66137Y-40367D03*
X67137Y-40367D03*
X66137Y-39367D03*
X67137Y-39367D03*
X66137Y-38367D03*
X67137Y-38367D03*
X66137Y-37367D03*
X67137Y-37367D03*
X66137Y-36367D03*
X67137Y-36367D03*
X66137Y-35367D03*
X67137Y-35367D03*
X66137Y-34367D03*
X67137Y-34367D03*
X66137Y-33367D03*
X67137Y-33367D03*
G54D23*
X53525Y-32825D03*
X53525Y-32075D03*
X52525Y-32825D03*
X53525Y-32450D03*
X52525Y-32075D03*
G54D24*
X63275Y-41400D03*
X63650Y-41400D03*
X64025Y-41400D03*
X64025Y-42400D03*
X63650Y-42400D03*
X63275Y-42400D03*
G54D23*
X56075Y-32075D03*
X56075Y-32825D03*
X57075Y-32075D03*
X56075Y-32450D03*
X57075Y-32825D03*
G54D21*
X61675Y-34700D03*
X60925Y-34700D03*
G54D22*
X52850Y-34575D03*
X52850Y-33825D03*
X63850Y-39825D03*
X63850Y-39075D03*
G54D21*
X56185Y-33580D03*
X56935Y-33580D03*
X58825Y-30000D03*
X58075Y-30000D03*
X56935Y-34360D03*
X56185Y-34360D03*
X51825Y-32100D03*
X51075Y-32100D03*
G54D16*
X54325Y-30950D03*
G54D17*
X55325Y-30950D03*
X56325Y-30950D03*
G54D16*
X62268Y-40500D03*
G54D17*
X63056Y-40500D03*
X63843Y-40500D03*
X64631Y-40500D03*
G54D16*
X69050Y-37800D03*
G54D17*
X70050Y-37800D03*
X69050Y-36800D03*
X70050Y-36800D03*
X69050Y-35800D03*
X70050Y-35800D03*
X69050Y-34800D03*
X70050Y-34800D03*
G54D18*
X69450Y-30970D03*
X69450Y-41600D03*
X47950Y-41600D03*
X47950Y-30970D03*
G54D16*
X65700Y-31400D03*
G54D17*
X65700Y-30400D03*
X64700Y-31400D03*
X64700Y-30400D03*
X63700Y-31400D03*
X63700Y-30400D03*
X62700Y-31400D03*
X62700Y-30400D03*
X61700Y-31400D03*
X61700Y-30400D03*
G54D19*
X55350Y-38850D03*
X55350Y-38150D03*
X56150Y-38500D03*
G54D25*
X60609Y-30000D03*
X59491Y-30000D03*
G54D16*
X48000Y-35150D03*
G54D17*
X48000Y-34150D03*
X48000Y-33150D03*
G54D19*
X52900Y-37450D03*
X52900Y-36750D03*
X53700Y-37100D03*
X55350Y-40450D03*
X55350Y-39750D03*
X56150Y-40100D03*
X57550Y-40450D03*
X57550Y-39750D03*
X58350Y-40100D03*
X57550Y-38900D03*
X57550Y-38200D03*
X58350Y-38550D03*
X52900Y-38950D03*
X52900Y-38250D03*
X53700Y-38600D03*
G54D22*
X52150Y-38225D03*
X52150Y-38975D03*
X52150Y-36725D03*
X52150Y-37475D03*
X52750Y-39825D03*
X52750Y-40575D03*
X53750Y-39875D03*
X53750Y-40625D03*
X56850Y-38175D03*
X56850Y-38925D03*
X56850Y-39725D03*
X56850Y-40475D03*
X54650Y-39725D03*
X54650Y-40475D03*
X54650Y-38125D03*
X54650Y-38875D03*
G54D16*
X48000Y-36350D03*
G54D17*
X48000Y-37350D03*
X48000Y-38350D03*
X48000Y-39350D03*
G54D16*
X60550Y-41500D03*
G54D17*
X59550Y-41500D03*
G54D16*
X69850Y-33100D03*
G54D17*
X68850Y-33100D03*
G54D16*
X53700Y-41500D03*
G54D17*
X52700Y-41500D03*
G54D16*
X55100Y-41500D03*
G54D17*
X56100Y-41500D03*
X57100Y-41500D03*
X58100Y-41500D03*
M02*
