G04 (created by PCBNEW (2013-may-18)-stable) date Чт 26 май 2016 23:42:55*
%MOIN*%
G04 Gerber Fmt 3.4, Leading zero omitted, Abs format*
%FSLAX34Y34*%
G01*
G70*
G90*
G04 APERTURE LIST*
%ADD10C,0.00590551*%
%ADD11C,0.00787402*%
%ADD12C,0.00984252*%
%ADD13C,0.0039*%
%ADD14C,0.005*%
%ADD15C,0.006*%
%ADD16C,0.012*%
%ADD17C,0.0047*%
%ADD18C,0.01*%
%ADD19C,0.0043*%
%ADD20C,0.008*%
%ADD21C,0.0051*%
G04 APERTURE END LIST*
G54D10*
G54D11*
X47350Y-35150D02*
X46950Y-35150D01*
X47350Y-34150D02*
X46950Y-34150D01*
X46950Y-33150D02*
X47350Y-33150D01*
X65700Y-32070D02*
X65700Y-32080D01*
X65515Y-31885D02*
X65700Y-32070D01*
X65525Y-31885D02*
X65515Y-31885D01*
X65885Y-31885D02*
X65525Y-31885D01*
X65700Y-32070D02*
X65885Y-31885D01*
G54D12*
X60987Y-39315D02*
X60856Y-39709D01*
X60724Y-39315D01*
X60593Y-39559D02*
X60293Y-39559D01*
X60443Y-39709D02*
X60443Y-39409D01*
X59862Y-39315D02*
X59731Y-39709D01*
X59600Y-39315D01*
X59468Y-39559D02*
X59168Y-39559D01*
X59318Y-39709D02*
X59318Y-39409D01*
X60740Y-34421D02*
X60759Y-34440D01*
X60815Y-34459D01*
X60852Y-34459D01*
X60909Y-34440D01*
X60946Y-34403D01*
X60965Y-34365D01*
X60984Y-34290D01*
X60984Y-34234D01*
X60965Y-34159D01*
X60946Y-34121D01*
X60909Y-34084D01*
X60852Y-34065D01*
X60815Y-34065D01*
X60759Y-34084D01*
X60740Y-34103D01*
X60402Y-34459D02*
X60402Y-34253D01*
X60421Y-34215D01*
X60459Y-34196D01*
X60534Y-34196D01*
X60571Y-34215D01*
X60402Y-34440D02*
X60440Y-34459D01*
X60534Y-34459D01*
X60571Y-34440D01*
X60590Y-34403D01*
X60590Y-34365D01*
X60571Y-34328D01*
X60534Y-34309D01*
X60440Y-34309D01*
X60402Y-34290D01*
X60046Y-34196D02*
X60046Y-34459D01*
X60215Y-34196D02*
X60215Y-34403D01*
X60196Y-34440D01*
X60159Y-34459D01*
X60102Y-34459D01*
X60065Y-34440D01*
X60046Y-34421D01*
X59877Y-34440D02*
X59840Y-34459D01*
X59765Y-34459D01*
X59727Y-34440D01*
X59709Y-34403D01*
X59709Y-34384D01*
X59727Y-34346D01*
X59765Y-34328D01*
X59821Y-34328D01*
X59859Y-34309D01*
X59877Y-34271D01*
X59877Y-34253D01*
X59859Y-34215D01*
X59821Y-34196D01*
X59765Y-34196D01*
X59727Y-34215D01*
X59596Y-34196D02*
X59446Y-34196D01*
X59540Y-34065D02*
X59540Y-34403D01*
X59521Y-34440D01*
X59484Y-34459D01*
X59446Y-34459D01*
X59315Y-34459D02*
X59315Y-34196D01*
X59315Y-34065D02*
X59334Y-34084D01*
X59315Y-34103D01*
X59296Y-34084D01*
X59315Y-34065D01*
X59315Y-34103D01*
X58959Y-34440D02*
X58996Y-34459D01*
X59071Y-34459D01*
X59109Y-34440D01*
X59128Y-34421D01*
X59146Y-34384D01*
X59146Y-34271D01*
X59128Y-34234D01*
X59109Y-34215D01*
X59071Y-34196D01*
X58996Y-34196D01*
X58959Y-34215D01*
X58303Y-34459D02*
X58490Y-34459D01*
X58490Y-34065D01*
X58228Y-34065D02*
X58003Y-34065D01*
X58115Y-34459D02*
X58115Y-34065D01*
X57590Y-34440D02*
X57553Y-34459D01*
X57478Y-34459D01*
X57440Y-34440D01*
X57421Y-34403D01*
X57421Y-34384D01*
X57440Y-34346D01*
X57478Y-34328D01*
X57534Y-34328D01*
X57571Y-34309D01*
X57590Y-34271D01*
X57590Y-34253D01*
X57571Y-34215D01*
X57534Y-34196D01*
X57478Y-34196D01*
X57440Y-34215D01*
X57290Y-34196D02*
X57197Y-34459D01*
X57103Y-34196D02*
X57197Y-34459D01*
X57234Y-34553D01*
X57253Y-34571D01*
X57290Y-34590D01*
X56972Y-34440D02*
X56934Y-34459D01*
X56859Y-34459D01*
X56822Y-34440D01*
X56803Y-34403D01*
X56803Y-34384D01*
X56822Y-34346D01*
X56859Y-34328D01*
X56915Y-34328D01*
X56953Y-34309D01*
X56972Y-34271D01*
X56972Y-34253D01*
X56953Y-34215D01*
X56915Y-34196D01*
X56859Y-34196D01*
X56822Y-34215D01*
X56690Y-34196D02*
X56540Y-34196D01*
X56634Y-34065D02*
X56634Y-34403D01*
X56615Y-34440D01*
X56578Y-34459D01*
X56540Y-34459D01*
X56259Y-34440D02*
X56297Y-34459D01*
X56372Y-34459D01*
X56409Y-34440D01*
X56428Y-34403D01*
X56428Y-34253D01*
X56409Y-34215D01*
X56372Y-34196D01*
X56297Y-34196D01*
X56259Y-34215D01*
X56240Y-34253D01*
X56240Y-34290D01*
X56428Y-34328D01*
X56072Y-34459D02*
X56072Y-34196D01*
X56072Y-34234D02*
X56053Y-34215D01*
X56015Y-34196D01*
X55959Y-34196D01*
X55922Y-34215D01*
X55903Y-34253D01*
X55903Y-34459D01*
X55903Y-34253D02*
X55884Y-34215D01*
X55847Y-34196D01*
X55790Y-34196D01*
X55753Y-34215D01*
X55734Y-34253D01*
X55734Y-34459D01*
X61096Y-34846D02*
X61096Y-35108D01*
X61265Y-34846D02*
X61265Y-35052D01*
X61246Y-35090D01*
X61209Y-35108D01*
X61152Y-35108D01*
X61115Y-35090D01*
X61096Y-35071D01*
X60909Y-34846D02*
X60909Y-35108D01*
X60909Y-34883D02*
X60890Y-34865D01*
X60852Y-34846D01*
X60796Y-34846D01*
X60759Y-34865D01*
X60740Y-34902D01*
X60740Y-35108D01*
X60552Y-35108D02*
X60552Y-34846D01*
X60552Y-34715D02*
X60571Y-34734D01*
X60552Y-34752D01*
X60534Y-34734D01*
X60552Y-34715D01*
X60552Y-34752D01*
X60402Y-34846D02*
X60309Y-35108D01*
X60215Y-34846D01*
X59915Y-35090D02*
X59952Y-35108D01*
X60027Y-35108D01*
X60065Y-35090D01*
X60084Y-35052D01*
X60084Y-34902D01*
X60065Y-34865D01*
X60027Y-34846D01*
X59952Y-34846D01*
X59915Y-34865D01*
X59896Y-34902D01*
X59896Y-34940D01*
X60084Y-34977D01*
X59727Y-35108D02*
X59727Y-34846D01*
X59727Y-34921D02*
X59709Y-34883D01*
X59690Y-34865D01*
X59652Y-34846D01*
X59615Y-34846D01*
X59502Y-35090D02*
X59465Y-35108D01*
X59390Y-35108D01*
X59352Y-35090D01*
X59334Y-35052D01*
X59334Y-35033D01*
X59352Y-34996D01*
X59390Y-34977D01*
X59446Y-34977D01*
X59484Y-34958D01*
X59502Y-34921D01*
X59502Y-34902D01*
X59484Y-34865D01*
X59446Y-34846D01*
X59390Y-34846D01*
X59352Y-34865D01*
X58996Y-35108D02*
X58996Y-34902D01*
X59015Y-34865D01*
X59053Y-34846D01*
X59128Y-34846D01*
X59165Y-34865D01*
X58996Y-35090D02*
X59034Y-35108D01*
X59128Y-35108D01*
X59165Y-35090D01*
X59184Y-35052D01*
X59184Y-35015D01*
X59165Y-34977D01*
X59128Y-34958D01*
X59034Y-34958D01*
X58996Y-34940D01*
X58753Y-35108D02*
X58790Y-35090D01*
X58809Y-35052D01*
X58809Y-34715D01*
X58134Y-35108D02*
X58134Y-34715D01*
X58134Y-35090D02*
X58171Y-35108D01*
X58246Y-35108D01*
X58284Y-35090D01*
X58303Y-35071D01*
X58321Y-35033D01*
X58321Y-34921D01*
X58303Y-34883D01*
X58284Y-34865D01*
X58246Y-34846D01*
X58171Y-34846D01*
X58134Y-34865D01*
X57796Y-35090D02*
X57834Y-35108D01*
X57909Y-35108D01*
X57946Y-35090D01*
X57965Y-35052D01*
X57965Y-34902D01*
X57946Y-34865D01*
X57909Y-34846D01*
X57834Y-34846D01*
X57796Y-34865D01*
X57778Y-34902D01*
X57778Y-34940D01*
X57965Y-34977D01*
X57646Y-34846D02*
X57553Y-35108D01*
X57459Y-34846D01*
X57028Y-35090D02*
X56990Y-35108D01*
X56915Y-35108D01*
X56878Y-35090D01*
X56859Y-35052D01*
X56859Y-35033D01*
X56878Y-34996D01*
X56915Y-34977D01*
X56972Y-34977D01*
X57009Y-34958D01*
X57028Y-34921D01*
X57028Y-34902D01*
X57009Y-34865D01*
X56972Y-34846D01*
X56915Y-34846D01*
X56878Y-34865D01*
X56690Y-35108D02*
X56690Y-34715D01*
X56522Y-35108D02*
X56522Y-34902D01*
X56540Y-34865D01*
X56578Y-34846D01*
X56634Y-34846D01*
X56672Y-34865D01*
X56690Y-34883D01*
X56334Y-35108D02*
X56334Y-34846D01*
X56334Y-34715D02*
X56353Y-34734D01*
X56334Y-34752D01*
X56315Y-34734D01*
X56334Y-34715D01*
X56334Y-34752D01*
X55997Y-35090D02*
X56034Y-35108D01*
X56109Y-35108D01*
X56147Y-35090D01*
X56165Y-35052D01*
X56165Y-34902D01*
X56147Y-34865D01*
X56109Y-34846D01*
X56034Y-34846D01*
X55997Y-34865D01*
X55978Y-34902D01*
X55978Y-34940D01*
X56165Y-34977D01*
X55753Y-35108D02*
X55790Y-35090D01*
X55809Y-35052D01*
X55809Y-34715D01*
X55434Y-35108D02*
X55434Y-34715D01*
X55434Y-35090D02*
X55472Y-35108D01*
X55547Y-35108D01*
X55584Y-35090D01*
X55603Y-35071D01*
X55622Y-35033D01*
X55622Y-34921D01*
X55603Y-34883D01*
X55584Y-34865D01*
X55547Y-34846D01*
X55472Y-34846D01*
X55434Y-34865D01*
X58978Y-35758D02*
X58978Y-35496D01*
X58978Y-35571D02*
X58959Y-35533D01*
X58940Y-35514D01*
X58903Y-35496D01*
X58865Y-35496D01*
X58584Y-35739D02*
X58621Y-35758D01*
X58696Y-35758D01*
X58734Y-35739D01*
X58753Y-35702D01*
X58753Y-35552D01*
X58734Y-35514D01*
X58696Y-35496D01*
X58621Y-35496D01*
X58584Y-35514D01*
X58565Y-35552D01*
X58565Y-35589D01*
X58753Y-35627D01*
X58434Y-35496D02*
X58340Y-35758D01*
X58246Y-35496D01*
X58096Y-35721D02*
X58078Y-35739D01*
X58096Y-35758D01*
X58115Y-35739D01*
X58096Y-35721D01*
X58096Y-35758D01*
X57703Y-35758D02*
X57928Y-35758D01*
X57815Y-35758D02*
X57815Y-35364D01*
X57853Y-35421D01*
X57890Y-35458D01*
X57928Y-35477D01*
X52300Y-32915D02*
X52262Y-32934D01*
X52206Y-32934D01*
X52150Y-32915D01*
X52112Y-32878D01*
X52093Y-32840D01*
X52075Y-32765D01*
X52075Y-32709D01*
X52093Y-32634D01*
X52112Y-32596D01*
X52150Y-32559D01*
X52206Y-32540D01*
X52243Y-32540D01*
X52300Y-32559D01*
X52318Y-32578D01*
X52318Y-32709D01*
X52243Y-32709D01*
X52487Y-32540D02*
X52487Y-32934D01*
X52712Y-32540D01*
X52712Y-32934D01*
X52899Y-32540D02*
X52899Y-32934D01*
X52993Y-32934D01*
X53049Y-32915D01*
X53087Y-32878D01*
X53106Y-32840D01*
X53124Y-32765D01*
X53124Y-32709D01*
X53106Y-32634D01*
X53087Y-32596D01*
X53049Y-32559D01*
X52993Y-32540D01*
X52899Y-32540D01*
X69737Y-31946D02*
X70037Y-31946D01*
X69887Y-31946D02*
X69887Y-32471D01*
X69306Y-31965D02*
X69081Y-31965D01*
X69193Y-32359D02*
X69193Y-31965D01*
X68987Y-31965D02*
X68725Y-32359D01*
X68725Y-31965D02*
X68987Y-32359D01*
X54621Y-32940D02*
X54621Y-33334D01*
X54771Y-33334D01*
X54809Y-33315D01*
X54828Y-33296D01*
X54846Y-33259D01*
X54846Y-33203D01*
X54828Y-33165D01*
X54809Y-33146D01*
X54771Y-33128D01*
X54621Y-33128D01*
X55071Y-32940D02*
X55034Y-32959D01*
X55015Y-32978D01*
X54996Y-33015D01*
X54996Y-33128D01*
X55015Y-33165D01*
X55034Y-33184D01*
X55071Y-33203D01*
X55128Y-33203D01*
X55165Y-33184D01*
X55184Y-33165D01*
X55203Y-33128D01*
X55203Y-33015D01*
X55184Y-32978D01*
X55165Y-32959D01*
X55128Y-32940D01*
X55071Y-32940D01*
X55334Y-33203D02*
X55409Y-32940D01*
X55484Y-33128D01*
X55559Y-32940D01*
X55634Y-33203D01*
X55934Y-32959D02*
X55896Y-32940D01*
X55821Y-32940D01*
X55784Y-32959D01*
X55765Y-32996D01*
X55765Y-33146D01*
X55784Y-33184D01*
X55821Y-33203D01*
X55896Y-33203D01*
X55934Y-33184D01*
X55953Y-33146D01*
X55953Y-33109D01*
X55765Y-33071D01*
X56121Y-32940D02*
X56121Y-33203D01*
X56121Y-33128D02*
X56140Y-33165D01*
X56159Y-33184D01*
X56196Y-33203D01*
X56234Y-33203D01*
X54265Y-32441D02*
X54565Y-32441D01*
X55184Y-32497D02*
X55240Y-32478D01*
X55259Y-32459D01*
X55278Y-32422D01*
X55278Y-32366D01*
X55259Y-32328D01*
X55240Y-32309D01*
X55203Y-32291D01*
X55053Y-32291D01*
X55053Y-32684D01*
X55184Y-32684D01*
X55221Y-32665D01*
X55240Y-32647D01*
X55259Y-32609D01*
X55259Y-32572D01*
X55240Y-32534D01*
X55221Y-32516D01*
X55184Y-32497D01*
X55053Y-32497D01*
X55446Y-32441D02*
X55746Y-32441D01*
X55596Y-32291D02*
X55596Y-32591D01*
X56234Y-32441D02*
X56534Y-32441D01*
X56384Y-32291D02*
X56384Y-32591D01*
X57062Y-32759D02*
X57118Y-32740D01*
X57212Y-32740D01*
X57250Y-32759D01*
X57268Y-32778D01*
X57287Y-32815D01*
X57287Y-32853D01*
X57268Y-32890D01*
X57250Y-32909D01*
X57212Y-32928D01*
X57137Y-32946D01*
X57100Y-32965D01*
X57081Y-32984D01*
X57062Y-33021D01*
X57062Y-33059D01*
X57081Y-33096D01*
X57100Y-33115D01*
X57137Y-33134D01*
X57231Y-33134D01*
X57287Y-33115D01*
X57456Y-33003D02*
X57456Y-32609D01*
X57456Y-32984D02*
X57493Y-33003D01*
X57568Y-33003D01*
X57606Y-32984D01*
X57625Y-32965D01*
X57643Y-32928D01*
X57643Y-32815D01*
X57625Y-32778D01*
X57606Y-32759D01*
X57568Y-32740D01*
X57493Y-32740D01*
X57456Y-32759D01*
X57962Y-32759D02*
X57925Y-32740D01*
X57850Y-32740D01*
X57812Y-32759D01*
X57793Y-32796D01*
X57793Y-32946D01*
X57812Y-32984D01*
X57850Y-33003D01*
X57925Y-33003D01*
X57962Y-32984D01*
X57981Y-32946D01*
X57981Y-32909D01*
X57793Y-32871D01*
X58318Y-32740D02*
X58318Y-32946D01*
X58299Y-32984D01*
X58262Y-33003D01*
X58187Y-33003D01*
X58150Y-32984D01*
X58318Y-32759D02*
X58281Y-32740D01*
X58187Y-32740D01*
X58150Y-32759D01*
X58131Y-32796D01*
X58131Y-32834D01*
X58150Y-32871D01*
X58187Y-32890D01*
X58281Y-32890D01*
X58318Y-32909D01*
X58506Y-32740D02*
X58506Y-33134D01*
X58543Y-32890D02*
X58656Y-32740D01*
X58656Y-33003D02*
X58506Y-32853D01*
X58974Y-32759D02*
X58937Y-32740D01*
X58862Y-32740D01*
X58824Y-32759D01*
X58806Y-32796D01*
X58806Y-32946D01*
X58824Y-32984D01*
X58862Y-33003D01*
X58937Y-33003D01*
X58974Y-32984D01*
X58993Y-32946D01*
X58993Y-32909D01*
X58806Y-32871D01*
X59162Y-32740D02*
X59162Y-33003D01*
X59162Y-32928D02*
X59181Y-32965D01*
X59199Y-32984D01*
X59237Y-33003D01*
X59274Y-33003D01*
X54046Y-39209D02*
X54046Y-38815D01*
X53634Y-39209D02*
X53765Y-39021D01*
X53859Y-39209D02*
X53859Y-38815D01*
X53709Y-38815D01*
X53671Y-38834D01*
X53653Y-38853D01*
X53634Y-38890D01*
X53634Y-38946D01*
X53653Y-38984D01*
X53671Y-39003D01*
X53709Y-39021D01*
X53859Y-39021D01*
X53109Y-39209D02*
X53146Y-39190D01*
X53165Y-39153D01*
X53165Y-38815D01*
X52809Y-39190D02*
X52846Y-39209D01*
X52921Y-39209D01*
X52959Y-39190D01*
X52978Y-39153D01*
X52978Y-39003D01*
X52959Y-38965D01*
X52921Y-38946D01*
X52846Y-38946D01*
X52809Y-38965D01*
X52790Y-39003D01*
X52790Y-39040D01*
X52978Y-39078D01*
X52453Y-39209D02*
X52453Y-38815D01*
X52453Y-39190D02*
X52490Y-39209D01*
X52565Y-39209D01*
X52603Y-39190D01*
X52621Y-39171D01*
X52640Y-39134D01*
X52640Y-39021D01*
X52621Y-38984D01*
X52603Y-38965D01*
X52565Y-38946D01*
X52490Y-38946D01*
X52453Y-38965D01*
X53943Y-39708D02*
X53643Y-39708D01*
X52856Y-39708D02*
X52556Y-39708D01*
X52706Y-39858D02*
X52706Y-39558D01*
G54D13*
X35925Y-51650D02*
G75*
G03X35925Y-51650I-50J0D01*
G74*
G01*
X35425Y-51650D02*
X35825Y-51650D01*
X35825Y-51650D02*
X35825Y-51050D01*
X35825Y-51050D02*
X35425Y-51050D01*
X35025Y-51050D02*
X34625Y-51050D01*
X34625Y-51050D02*
X34625Y-51650D01*
X34625Y-51650D02*
X35025Y-51650D01*
X35925Y-52450D02*
G75*
G03X35925Y-52450I-50J0D01*
G74*
G01*
X35425Y-52450D02*
X35825Y-52450D01*
X35825Y-52450D02*
X35825Y-51850D01*
X35825Y-51850D02*
X35425Y-51850D01*
X35025Y-51850D02*
X34625Y-51850D01*
X34625Y-51850D02*
X34625Y-52450D01*
X34625Y-52450D02*
X35025Y-52450D01*
X35925Y-53250D02*
G75*
G03X35925Y-53250I-50J0D01*
G74*
G01*
X35425Y-53250D02*
X35825Y-53250D01*
X35825Y-53250D02*
X35825Y-52650D01*
X35825Y-52650D02*
X35425Y-52650D01*
X35025Y-52650D02*
X34625Y-52650D01*
X34625Y-52650D02*
X34625Y-53250D01*
X34625Y-53250D02*
X35025Y-53250D01*
X41425Y-47850D02*
G75*
G03X41425Y-47850I-50J0D01*
G74*
G01*
X41825Y-47850D02*
X41425Y-47850D01*
X41425Y-47850D02*
X41425Y-48450D01*
X41425Y-48450D02*
X41825Y-48450D01*
X42225Y-48450D02*
X42625Y-48450D01*
X42625Y-48450D02*
X42625Y-47850D01*
X42625Y-47850D02*
X42225Y-47850D01*
X41425Y-47050D02*
G75*
G03X41425Y-47050I-50J0D01*
G74*
G01*
X41825Y-47050D02*
X41425Y-47050D01*
X41425Y-47050D02*
X41425Y-47650D01*
X41425Y-47650D02*
X41825Y-47650D01*
X42225Y-47650D02*
X42625Y-47650D01*
X42625Y-47650D02*
X42625Y-47050D01*
X42625Y-47050D02*
X42225Y-47050D01*
X41425Y-46250D02*
G75*
G03X41425Y-46250I-50J0D01*
G74*
G01*
X41825Y-46250D02*
X41425Y-46250D01*
X41425Y-46250D02*
X41425Y-46850D01*
X41425Y-46850D02*
X41825Y-46850D01*
X42225Y-46850D02*
X42625Y-46850D01*
X42625Y-46850D02*
X42625Y-46250D01*
X42625Y-46250D02*
X42225Y-46250D01*
X36675Y-54100D02*
G75*
G03X36675Y-54100I-50J0D01*
G74*
G01*
X36175Y-54100D02*
X36575Y-54100D01*
X36575Y-54100D02*
X36575Y-53500D01*
X36575Y-53500D02*
X36175Y-53500D01*
X35775Y-53500D02*
X35375Y-53500D01*
X35375Y-53500D02*
X35375Y-54100D01*
X35375Y-54100D02*
X35775Y-54100D01*
G54D10*
X37325Y-45773D02*
X37325Y-53726D01*
X37325Y-53726D02*
X39924Y-53726D01*
X39924Y-53726D02*
X39924Y-45773D01*
X39924Y-45773D02*
X37325Y-45773D01*
X50700Y-45748D02*
X50700Y-53701D01*
X50700Y-53701D02*
X53299Y-53701D01*
X53299Y-53701D02*
X53299Y-45748D01*
X53299Y-45748D02*
X50700Y-45748D01*
G54D13*
X50050Y-54075D02*
G75*
G03X50050Y-54075I-50J0D01*
G74*
G01*
X49550Y-54075D02*
X49950Y-54075D01*
X49950Y-54075D02*
X49950Y-53475D01*
X49950Y-53475D02*
X49550Y-53475D01*
X49150Y-53475D02*
X48750Y-53475D01*
X48750Y-53475D02*
X48750Y-54075D01*
X48750Y-54075D02*
X49150Y-54075D01*
X54800Y-46225D02*
G75*
G03X54800Y-46225I-50J0D01*
G74*
G01*
X55200Y-46225D02*
X54800Y-46225D01*
X54800Y-46225D02*
X54800Y-46825D01*
X54800Y-46825D02*
X55200Y-46825D01*
X55600Y-46825D02*
X56000Y-46825D01*
X56000Y-46825D02*
X56000Y-46225D01*
X56000Y-46225D02*
X55600Y-46225D01*
X54800Y-47025D02*
G75*
G03X54800Y-47025I-50J0D01*
G74*
G01*
X55200Y-47025D02*
X54800Y-47025D01*
X54800Y-47025D02*
X54800Y-47625D01*
X54800Y-47625D02*
X55200Y-47625D01*
X55600Y-47625D02*
X56000Y-47625D01*
X56000Y-47625D02*
X56000Y-47025D01*
X56000Y-47025D02*
X55600Y-47025D01*
X54800Y-47825D02*
G75*
G03X54800Y-47825I-50J0D01*
G74*
G01*
X55200Y-47825D02*
X54800Y-47825D01*
X54800Y-47825D02*
X54800Y-48425D01*
X54800Y-48425D02*
X55200Y-48425D01*
X55600Y-48425D02*
X56000Y-48425D01*
X56000Y-48425D02*
X56000Y-47825D01*
X56000Y-47825D02*
X55600Y-47825D01*
X49300Y-53225D02*
G75*
G03X49300Y-53225I-50J0D01*
G74*
G01*
X48800Y-53225D02*
X49200Y-53225D01*
X49200Y-53225D02*
X49200Y-52625D01*
X49200Y-52625D02*
X48800Y-52625D01*
X48400Y-52625D02*
X48000Y-52625D01*
X48000Y-52625D02*
X48000Y-53225D01*
X48000Y-53225D02*
X48400Y-53225D01*
X49300Y-52425D02*
G75*
G03X49300Y-52425I-50J0D01*
G74*
G01*
X48800Y-52425D02*
X49200Y-52425D01*
X49200Y-52425D02*
X49200Y-51825D01*
X49200Y-51825D02*
X48800Y-51825D01*
X48400Y-51825D02*
X48000Y-51825D01*
X48000Y-51825D02*
X48000Y-52425D01*
X48000Y-52425D02*
X48400Y-52425D01*
X49300Y-51625D02*
G75*
G03X49300Y-51625I-50J0D01*
G74*
G01*
X48800Y-51625D02*
X49200Y-51625D01*
X49200Y-51625D02*
X49200Y-51025D01*
X49200Y-51025D02*
X48800Y-51025D01*
X48400Y-51025D02*
X48000Y-51025D01*
X48000Y-51025D02*
X48000Y-51625D01*
X48000Y-51625D02*
X48400Y-51625D01*
X62600Y-51675D02*
G75*
G03X62600Y-51675I-50J0D01*
G74*
G01*
X62100Y-51675D02*
X62500Y-51675D01*
X62500Y-51675D02*
X62500Y-51075D01*
X62500Y-51075D02*
X62100Y-51075D01*
X61700Y-51075D02*
X61300Y-51075D01*
X61300Y-51075D02*
X61300Y-51675D01*
X61300Y-51675D02*
X61700Y-51675D01*
X62600Y-52475D02*
G75*
G03X62600Y-52475I-50J0D01*
G74*
G01*
X62100Y-52475D02*
X62500Y-52475D01*
X62500Y-52475D02*
X62500Y-51875D01*
X62500Y-51875D02*
X62100Y-51875D01*
X61700Y-51875D02*
X61300Y-51875D01*
X61300Y-51875D02*
X61300Y-52475D01*
X61300Y-52475D02*
X61700Y-52475D01*
X62600Y-53275D02*
G75*
G03X62600Y-53275I-50J0D01*
G74*
G01*
X62100Y-53275D02*
X62500Y-53275D01*
X62500Y-53275D02*
X62500Y-52675D01*
X62500Y-52675D02*
X62100Y-52675D01*
X61700Y-52675D02*
X61300Y-52675D01*
X61300Y-52675D02*
X61300Y-53275D01*
X61300Y-53275D02*
X61700Y-53275D01*
X68100Y-47875D02*
G75*
G03X68100Y-47875I-50J0D01*
G74*
G01*
X68500Y-47875D02*
X68100Y-47875D01*
X68100Y-47875D02*
X68100Y-48475D01*
X68100Y-48475D02*
X68500Y-48475D01*
X68900Y-48475D02*
X69300Y-48475D01*
X69300Y-48475D02*
X69300Y-47875D01*
X69300Y-47875D02*
X68900Y-47875D01*
X68100Y-47075D02*
G75*
G03X68100Y-47075I-50J0D01*
G74*
G01*
X68500Y-47075D02*
X68100Y-47075D01*
X68100Y-47075D02*
X68100Y-47675D01*
X68100Y-47675D02*
X68500Y-47675D01*
X68900Y-47675D02*
X69300Y-47675D01*
X69300Y-47675D02*
X69300Y-47075D01*
X69300Y-47075D02*
X68900Y-47075D01*
X68100Y-46275D02*
G75*
G03X68100Y-46275I-50J0D01*
G74*
G01*
X68500Y-46275D02*
X68100Y-46275D01*
X68100Y-46275D02*
X68100Y-46875D01*
X68100Y-46875D02*
X68500Y-46875D01*
X68900Y-46875D02*
X69300Y-46875D01*
X69300Y-46875D02*
X69300Y-46275D01*
X69300Y-46275D02*
X68900Y-46275D01*
X63350Y-54125D02*
G75*
G03X63350Y-54125I-50J0D01*
G74*
G01*
X62850Y-54125D02*
X63250Y-54125D01*
X63250Y-54125D02*
X63250Y-53525D01*
X63250Y-53525D02*
X62850Y-53525D01*
X62450Y-53525D02*
X62050Y-53525D01*
X62050Y-53525D02*
X62050Y-54125D01*
X62050Y-54125D02*
X62450Y-54125D01*
G54D10*
X64000Y-45798D02*
X64000Y-53751D01*
X64000Y-53751D02*
X66599Y-53751D01*
X66599Y-53751D02*
X66599Y-45798D01*
X66599Y-45798D02*
X64000Y-45798D01*
G54D13*
X41350Y-21100D02*
G75*
G03X41350Y-21100I-50J0D01*
G74*
G01*
X41750Y-21100D02*
X41350Y-21100D01*
X41350Y-21100D02*
X41350Y-21700D01*
X41350Y-21700D02*
X41750Y-21700D01*
X42150Y-21700D02*
X42550Y-21700D01*
X42550Y-21700D02*
X42550Y-21100D01*
X42550Y-21100D02*
X42150Y-21100D01*
X41350Y-20300D02*
G75*
G03X41350Y-20300I-50J0D01*
G74*
G01*
X41750Y-20300D02*
X41350Y-20300D01*
X41350Y-20300D02*
X41350Y-20900D01*
X41350Y-20900D02*
X41750Y-20900D01*
X42150Y-20900D02*
X42550Y-20900D01*
X42550Y-20900D02*
X42550Y-20300D01*
X42550Y-20300D02*
X42150Y-20300D01*
X41350Y-19500D02*
G75*
G03X41350Y-19500I-50J0D01*
G74*
G01*
X41750Y-19500D02*
X41350Y-19500D01*
X41350Y-19500D02*
X41350Y-20100D01*
X41350Y-20100D02*
X41750Y-20100D01*
X42150Y-20100D02*
X42550Y-20100D01*
X42550Y-20100D02*
X42550Y-19500D01*
X42550Y-19500D02*
X42150Y-19500D01*
X35850Y-24900D02*
G75*
G03X35850Y-24900I-50J0D01*
G74*
G01*
X35350Y-24900D02*
X35750Y-24900D01*
X35750Y-24900D02*
X35750Y-24300D01*
X35750Y-24300D02*
X35350Y-24300D01*
X34950Y-24300D02*
X34550Y-24300D01*
X34550Y-24300D02*
X34550Y-24900D01*
X34550Y-24900D02*
X34950Y-24900D01*
X35850Y-25700D02*
G75*
G03X35850Y-25700I-50J0D01*
G74*
G01*
X35350Y-25700D02*
X35750Y-25700D01*
X35750Y-25700D02*
X35750Y-25100D01*
X35750Y-25100D02*
X35350Y-25100D01*
X34950Y-25100D02*
X34550Y-25100D01*
X34550Y-25100D02*
X34550Y-25700D01*
X34550Y-25700D02*
X34950Y-25700D01*
X35850Y-26500D02*
G75*
G03X35850Y-26500I-50J0D01*
G74*
G01*
X35350Y-26500D02*
X35750Y-26500D01*
X35750Y-26500D02*
X35750Y-25900D01*
X35750Y-25900D02*
X35350Y-25900D01*
X34950Y-25900D02*
X34550Y-25900D01*
X34550Y-25900D02*
X34550Y-26500D01*
X34550Y-26500D02*
X34950Y-26500D01*
X40600Y-18650D02*
G75*
G03X40600Y-18650I-50J0D01*
G74*
G01*
X41000Y-18650D02*
X40600Y-18650D01*
X40600Y-18650D02*
X40600Y-19250D01*
X40600Y-19250D02*
X41000Y-19250D01*
X41400Y-19250D02*
X41800Y-19250D01*
X41800Y-19250D02*
X41800Y-18650D01*
X41800Y-18650D02*
X41400Y-18650D01*
G54D10*
X39849Y-26976D02*
X39849Y-19023D01*
X39849Y-19023D02*
X37250Y-19023D01*
X37250Y-19023D02*
X37250Y-26976D01*
X37250Y-26976D02*
X39849Y-26976D01*
X53099Y-27001D02*
X53099Y-19048D01*
X53099Y-19048D02*
X50500Y-19048D01*
X50500Y-19048D02*
X50500Y-27001D01*
X50500Y-27001D02*
X53099Y-27001D01*
G54D13*
X53850Y-18675D02*
G75*
G03X53850Y-18675I-50J0D01*
G74*
G01*
X54250Y-18675D02*
X53850Y-18675D01*
X53850Y-18675D02*
X53850Y-19275D01*
X53850Y-19275D02*
X54250Y-19275D01*
X54650Y-19275D02*
X55050Y-19275D01*
X55050Y-19275D02*
X55050Y-18675D01*
X55050Y-18675D02*
X54650Y-18675D01*
X49100Y-26525D02*
G75*
G03X49100Y-26525I-50J0D01*
G74*
G01*
X48600Y-26525D02*
X49000Y-26525D01*
X49000Y-26525D02*
X49000Y-25925D01*
X49000Y-25925D02*
X48600Y-25925D01*
X48200Y-25925D02*
X47800Y-25925D01*
X47800Y-25925D02*
X47800Y-26525D01*
X47800Y-26525D02*
X48200Y-26525D01*
X49100Y-25725D02*
G75*
G03X49100Y-25725I-50J0D01*
G74*
G01*
X48600Y-25725D02*
X49000Y-25725D01*
X49000Y-25725D02*
X49000Y-25125D01*
X49000Y-25125D02*
X48600Y-25125D01*
X48200Y-25125D02*
X47800Y-25125D01*
X47800Y-25125D02*
X47800Y-25725D01*
X47800Y-25725D02*
X48200Y-25725D01*
X49100Y-24925D02*
G75*
G03X49100Y-24925I-50J0D01*
G74*
G01*
X48600Y-24925D02*
X49000Y-24925D01*
X49000Y-24925D02*
X49000Y-24325D01*
X49000Y-24325D02*
X48600Y-24325D01*
X48200Y-24325D02*
X47800Y-24325D01*
X47800Y-24325D02*
X47800Y-24925D01*
X47800Y-24925D02*
X48200Y-24925D01*
X54600Y-19525D02*
G75*
G03X54600Y-19525I-50J0D01*
G74*
G01*
X55000Y-19525D02*
X54600Y-19525D01*
X54600Y-19525D02*
X54600Y-20125D01*
X54600Y-20125D02*
X55000Y-20125D01*
X55400Y-20125D02*
X55800Y-20125D01*
X55800Y-20125D02*
X55800Y-19525D01*
X55800Y-19525D02*
X55400Y-19525D01*
X54600Y-20325D02*
G75*
G03X54600Y-20325I-50J0D01*
G74*
G01*
X55000Y-20325D02*
X54600Y-20325D01*
X54600Y-20325D02*
X54600Y-20925D01*
X54600Y-20925D02*
X55000Y-20925D01*
X55400Y-20925D02*
X55800Y-20925D01*
X55800Y-20925D02*
X55800Y-20325D01*
X55800Y-20325D02*
X55400Y-20325D01*
X54600Y-21125D02*
G75*
G03X54600Y-21125I-50J0D01*
G74*
G01*
X55000Y-21125D02*
X54600Y-21125D01*
X54600Y-21125D02*
X54600Y-21725D01*
X54600Y-21725D02*
X55000Y-21725D01*
X55400Y-21725D02*
X55800Y-21725D01*
X55800Y-21725D02*
X55800Y-21125D01*
X55800Y-21125D02*
X55400Y-21125D01*
X68000Y-21250D02*
G75*
G03X68000Y-21250I-50J0D01*
G74*
G01*
X68400Y-21250D02*
X68000Y-21250D01*
X68000Y-21250D02*
X68000Y-21850D01*
X68000Y-21850D02*
X68400Y-21850D01*
X68800Y-21850D02*
X69200Y-21850D01*
X69200Y-21850D02*
X69200Y-21250D01*
X69200Y-21250D02*
X68800Y-21250D01*
X68000Y-20450D02*
G75*
G03X68000Y-20450I-50J0D01*
G74*
G01*
X68400Y-20450D02*
X68000Y-20450D01*
X68000Y-20450D02*
X68000Y-21050D01*
X68000Y-21050D02*
X68400Y-21050D01*
X68800Y-21050D02*
X69200Y-21050D01*
X69200Y-21050D02*
X69200Y-20450D01*
X69200Y-20450D02*
X68800Y-20450D01*
X68000Y-19650D02*
G75*
G03X68000Y-19650I-50J0D01*
G74*
G01*
X68400Y-19650D02*
X68000Y-19650D01*
X68000Y-19650D02*
X68000Y-20250D01*
X68000Y-20250D02*
X68400Y-20250D01*
X68800Y-20250D02*
X69200Y-20250D01*
X69200Y-20250D02*
X69200Y-19650D01*
X69200Y-19650D02*
X68800Y-19650D01*
X62500Y-25050D02*
G75*
G03X62500Y-25050I-50J0D01*
G74*
G01*
X62000Y-25050D02*
X62400Y-25050D01*
X62400Y-25050D02*
X62400Y-24450D01*
X62400Y-24450D02*
X62000Y-24450D01*
X61600Y-24450D02*
X61200Y-24450D01*
X61200Y-24450D02*
X61200Y-25050D01*
X61200Y-25050D02*
X61600Y-25050D01*
X62500Y-25850D02*
G75*
G03X62500Y-25850I-50J0D01*
G74*
G01*
X62000Y-25850D02*
X62400Y-25850D01*
X62400Y-25850D02*
X62400Y-25250D01*
X62400Y-25250D02*
X62000Y-25250D01*
X61600Y-25250D02*
X61200Y-25250D01*
X61200Y-25250D02*
X61200Y-25850D01*
X61200Y-25850D02*
X61600Y-25850D01*
X62500Y-26650D02*
G75*
G03X62500Y-26650I-50J0D01*
G74*
G01*
X62000Y-26650D02*
X62400Y-26650D01*
X62400Y-26650D02*
X62400Y-26050D01*
X62400Y-26050D02*
X62000Y-26050D01*
X61600Y-26050D02*
X61200Y-26050D01*
X61200Y-26050D02*
X61200Y-26650D01*
X61200Y-26650D02*
X61600Y-26650D01*
X67250Y-18800D02*
G75*
G03X67250Y-18800I-50J0D01*
G74*
G01*
X67650Y-18800D02*
X67250Y-18800D01*
X67250Y-18800D02*
X67250Y-19400D01*
X67250Y-19400D02*
X67650Y-19400D01*
X68050Y-19400D02*
X68450Y-19400D01*
X68450Y-19400D02*
X68450Y-18800D01*
X68450Y-18800D02*
X68050Y-18800D01*
G54D10*
X66499Y-27126D02*
X66499Y-19173D01*
X66499Y-19173D02*
X63900Y-19173D01*
X63900Y-19173D02*
X63900Y-27126D01*
X63900Y-27126D02*
X66499Y-27126D01*
G54D14*
X55930Y-38995D02*
X55930Y-36645D01*
X55480Y-36645D02*
X55480Y-38995D01*
X53030Y-38995D02*
X53030Y-36645D01*
X53030Y-36645D02*
X55930Y-36645D01*
X55930Y-38995D02*
X53030Y-38995D01*
G54D13*
X62661Y-36553D02*
G75*
G03X62661Y-36553I-50J0D01*
G74*
G01*
X63061Y-36553D02*
X62661Y-36553D01*
X62661Y-36553D02*
X62661Y-37153D01*
X62661Y-37153D02*
X63061Y-37153D01*
X63461Y-37153D02*
X63861Y-37153D01*
X63861Y-37153D02*
X63861Y-36553D01*
X63861Y-36553D02*
X63461Y-36553D01*
X62504Y-37901D02*
G75*
G03X62504Y-37901I-50J0D01*
G74*
G01*
X62004Y-37901D02*
X62404Y-37901D01*
X62404Y-37901D02*
X62404Y-37301D01*
X62404Y-37301D02*
X62004Y-37301D01*
X61604Y-37301D02*
X61204Y-37301D01*
X61204Y-37301D02*
X61204Y-37901D01*
X61204Y-37901D02*
X61604Y-37901D01*
X62504Y-37153D02*
G75*
G03X62504Y-37153I-50J0D01*
G74*
G01*
X62004Y-37153D02*
X62404Y-37153D01*
X62404Y-37153D02*
X62404Y-36553D01*
X62404Y-36553D02*
X62004Y-36553D01*
X61604Y-36553D02*
X61204Y-36553D01*
X61204Y-36553D02*
X61204Y-37153D01*
X61204Y-37153D02*
X61604Y-37153D01*
X62661Y-37301D02*
G75*
G03X62661Y-37301I-50J0D01*
G74*
G01*
X63061Y-37301D02*
X62661Y-37301D01*
X62661Y-37301D02*
X62661Y-37901D01*
X62661Y-37901D02*
X63061Y-37901D01*
X63461Y-37901D02*
X63861Y-37901D01*
X63861Y-37901D02*
X63861Y-37301D01*
X63861Y-37301D02*
X63461Y-37301D01*
X60235Y-37818D02*
G75*
G03X60235Y-37818I-50J0D01*
G74*
G01*
X60185Y-37368D02*
X60185Y-37768D01*
X60185Y-37768D02*
X60785Y-37768D01*
X60785Y-37768D02*
X60785Y-37368D01*
X60785Y-36968D02*
X60785Y-36568D01*
X60785Y-36568D02*
X60185Y-36568D01*
X60185Y-36568D02*
X60185Y-36968D01*
X64733Y-36538D02*
G75*
G03X64733Y-36538I-50J0D01*
G74*
G01*
X64683Y-36988D02*
X64683Y-36588D01*
X64683Y-36588D02*
X64083Y-36588D01*
X64083Y-36588D02*
X64083Y-36988D01*
X64083Y-37388D02*
X64083Y-37788D01*
X64083Y-37788D02*
X64683Y-37788D01*
X64683Y-37788D02*
X64683Y-37388D01*
G54D15*
X50550Y-30450D02*
X50550Y-31450D01*
X50550Y-31450D02*
X53550Y-31450D01*
X53550Y-31450D02*
X53550Y-30450D01*
X53550Y-30450D02*
X50550Y-30450D01*
X51550Y-31450D02*
X51550Y-30450D01*
X59100Y-31450D02*
X59100Y-30450D01*
X59100Y-30450D02*
X57100Y-30450D01*
X57100Y-30450D02*
X57100Y-31450D01*
X57100Y-31450D02*
X59100Y-31450D01*
G54D10*
X49613Y-32828D02*
X49613Y-42907D01*
X49613Y-42907D02*
X51661Y-42907D01*
X51661Y-42907D02*
X51661Y-32828D01*
X51661Y-32828D02*
X49613Y-32828D01*
X67661Y-42907D02*
X67661Y-32828D01*
X67661Y-32828D02*
X65613Y-32828D01*
X65613Y-32828D02*
X65613Y-42907D01*
X65613Y-42907D02*
X67661Y-42907D01*
G54D15*
X53825Y-30450D02*
X53825Y-31450D01*
X53825Y-31450D02*
X56825Y-31450D01*
X56825Y-31450D02*
X56825Y-30450D01*
X56825Y-30450D02*
X53825Y-30450D01*
X54825Y-31450D02*
X54825Y-30450D01*
G54D10*
X61481Y-39712D02*
X65418Y-39712D01*
X65418Y-39712D02*
X65418Y-42862D01*
X65418Y-42862D02*
X61481Y-42862D01*
X61481Y-39712D02*
X61481Y-42862D01*
G54D16*
X70550Y-38300D02*
X70550Y-34300D01*
X70550Y-34300D02*
X68550Y-34300D01*
X68550Y-34300D02*
X68550Y-38300D01*
X68550Y-38300D02*
X70550Y-38300D01*
G54D10*
X67676Y-29600D02*
X59723Y-29600D01*
X59723Y-29600D02*
X59723Y-32199D01*
X59723Y-32199D02*
X67676Y-32199D01*
X67676Y-32199D02*
X67676Y-29600D01*
G54D14*
X68700Y-38750D02*
X68700Y-39750D01*
X68000Y-39750D02*
X68000Y-38750D01*
X68000Y-39750D02*
X68700Y-39750D01*
X68700Y-38750D02*
X68000Y-38750D01*
X59720Y-39005D02*
X59720Y-36655D01*
X59270Y-36655D02*
X59270Y-39005D01*
X56820Y-39005D02*
X56820Y-36655D01*
X56820Y-36655D02*
X59720Y-36655D01*
X59720Y-39005D02*
X56820Y-39005D01*
X61600Y-33325D02*
X61600Y-35675D01*
X62050Y-35675D02*
X62050Y-33325D01*
X64500Y-33325D02*
X64500Y-35675D01*
X64500Y-35675D02*
X61600Y-35675D01*
X61600Y-33325D02*
X64500Y-33325D01*
X55070Y-35955D02*
X55070Y-33605D01*
X54620Y-33605D02*
X54620Y-35955D01*
X52170Y-35955D02*
X52170Y-33605D01*
X52170Y-33605D02*
X55070Y-33605D01*
X55070Y-35955D02*
X52170Y-35955D01*
G54D15*
X47500Y-35650D02*
X48500Y-35650D01*
X48500Y-35650D02*
X48500Y-32650D01*
X48500Y-32650D02*
X47500Y-32650D01*
X47500Y-32650D02*
X47500Y-35650D01*
X48500Y-34650D02*
X47500Y-34650D01*
G54D17*
X68775Y-39300D02*
X69975Y-39300D01*
X69975Y-39300D02*
X69975Y-39000D01*
X69975Y-39000D02*
X68775Y-39000D01*
X68775Y-39000D02*
X68775Y-39300D01*
G54D18*
X48500Y-39850D02*
X48500Y-35850D01*
X47500Y-39850D02*
X47500Y-35850D01*
X47500Y-35850D02*
X48500Y-35850D01*
X48500Y-39850D02*
X47500Y-39850D01*
G54D15*
X61050Y-42000D02*
X61050Y-41000D01*
X61050Y-41000D02*
X59050Y-41000D01*
X59050Y-41000D02*
X59050Y-42000D01*
X59050Y-42000D02*
X61050Y-42000D01*
X70350Y-33600D02*
X70350Y-32600D01*
X70350Y-32600D02*
X68350Y-32600D01*
X68350Y-32600D02*
X68350Y-33600D01*
X68350Y-33600D02*
X70350Y-33600D01*
X54200Y-42000D02*
X54200Y-41000D01*
X54200Y-41000D02*
X52200Y-41000D01*
X52200Y-41000D02*
X52200Y-42000D01*
X52200Y-42000D02*
X54200Y-42000D01*
G54D18*
X58600Y-41000D02*
X54600Y-41000D01*
X58600Y-42000D02*
X54600Y-42000D01*
X54600Y-42000D02*
X54600Y-41000D01*
X58600Y-41000D02*
X58600Y-42000D01*
G54D19*
X35257Y-51304D02*
X35323Y-51210D01*
X35370Y-51304D02*
X35370Y-51107D01*
X35295Y-51107D01*
X35276Y-51117D01*
X35267Y-51126D01*
X35257Y-51145D01*
X35257Y-51173D01*
X35267Y-51192D01*
X35276Y-51201D01*
X35295Y-51210D01*
X35370Y-51210D01*
X35070Y-51304D02*
X35182Y-51304D01*
X35126Y-51304D02*
X35126Y-51107D01*
X35145Y-51135D01*
X35164Y-51154D01*
X35182Y-51164D01*
X35164Y-51579D02*
X35229Y-51485D01*
X35276Y-51579D02*
X35276Y-51382D01*
X35201Y-51382D01*
X35182Y-51392D01*
X35173Y-51401D01*
X35164Y-51420D01*
X35164Y-51448D01*
X35173Y-51467D01*
X35182Y-51476D01*
X35201Y-51485D01*
X35276Y-51485D01*
X35257Y-52104D02*
X35323Y-52010D01*
X35370Y-52104D02*
X35370Y-51907D01*
X35295Y-51907D01*
X35276Y-51917D01*
X35267Y-51926D01*
X35257Y-51945D01*
X35257Y-51973D01*
X35267Y-51992D01*
X35276Y-52001D01*
X35295Y-52010D01*
X35370Y-52010D01*
X35182Y-51926D02*
X35173Y-51917D01*
X35154Y-51907D01*
X35107Y-51907D01*
X35088Y-51917D01*
X35079Y-51926D01*
X35070Y-51945D01*
X35070Y-51964D01*
X35079Y-51992D01*
X35192Y-52104D01*
X35070Y-52104D01*
X35164Y-52379D02*
X35229Y-52285D01*
X35276Y-52379D02*
X35276Y-52182D01*
X35201Y-52182D01*
X35182Y-52192D01*
X35173Y-52201D01*
X35164Y-52220D01*
X35164Y-52248D01*
X35173Y-52267D01*
X35182Y-52276D01*
X35201Y-52285D01*
X35276Y-52285D01*
X35257Y-52904D02*
X35323Y-52810D01*
X35370Y-52904D02*
X35370Y-52707D01*
X35295Y-52707D01*
X35276Y-52717D01*
X35267Y-52726D01*
X35257Y-52745D01*
X35257Y-52773D01*
X35267Y-52792D01*
X35276Y-52801D01*
X35295Y-52810D01*
X35370Y-52810D01*
X35192Y-52707D02*
X35070Y-52707D01*
X35135Y-52782D01*
X35107Y-52782D01*
X35088Y-52792D01*
X35079Y-52801D01*
X35070Y-52820D01*
X35070Y-52867D01*
X35079Y-52885D01*
X35088Y-52895D01*
X35107Y-52904D01*
X35164Y-52904D01*
X35182Y-52895D01*
X35192Y-52885D01*
X35164Y-53179D02*
X35229Y-53085D01*
X35276Y-53179D02*
X35276Y-52982D01*
X35201Y-52982D01*
X35182Y-52992D01*
X35173Y-53001D01*
X35164Y-53020D01*
X35164Y-53048D01*
X35173Y-53067D01*
X35182Y-53076D01*
X35201Y-53085D01*
X35276Y-53085D01*
X42057Y-48354D02*
X42123Y-48260D01*
X42170Y-48354D02*
X42170Y-48157D01*
X42095Y-48157D01*
X42076Y-48167D01*
X42067Y-48176D01*
X42057Y-48195D01*
X42057Y-48223D01*
X42067Y-48242D01*
X42076Y-48251D01*
X42095Y-48260D01*
X42170Y-48260D01*
X41888Y-48223D02*
X41888Y-48354D01*
X41935Y-48148D02*
X41982Y-48289D01*
X41860Y-48289D01*
X41964Y-48079D02*
X42029Y-47985D01*
X42076Y-48079D02*
X42076Y-47882D01*
X42001Y-47882D01*
X41982Y-47892D01*
X41973Y-47901D01*
X41964Y-47920D01*
X41964Y-47948D01*
X41973Y-47967D01*
X41982Y-47976D01*
X42001Y-47985D01*
X42076Y-47985D01*
X42057Y-47554D02*
X42123Y-47460D01*
X42170Y-47554D02*
X42170Y-47357D01*
X42095Y-47357D01*
X42076Y-47367D01*
X42067Y-47376D01*
X42057Y-47395D01*
X42057Y-47423D01*
X42067Y-47442D01*
X42076Y-47451D01*
X42095Y-47460D01*
X42170Y-47460D01*
X41879Y-47357D02*
X41973Y-47357D01*
X41982Y-47451D01*
X41973Y-47442D01*
X41954Y-47432D01*
X41907Y-47432D01*
X41888Y-47442D01*
X41879Y-47451D01*
X41870Y-47470D01*
X41870Y-47517D01*
X41879Y-47535D01*
X41888Y-47545D01*
X41907Y-47554D01*
X41954Y-47554D01*
X41973Y-47545D01*
X41982Y-47535D01*
X41964Y-47279D02*
X42029Y-47185D01*
X42076Y-47279D02*
X42076Y-47082D01*
X42001Y-47082D01*
X41982Y-47092D01*
X41973Y-47101D01*
X41964Y-47120D01*
X41964Y-47148D01*
X41973Y-47167D01*
X41982Y-47176D01*
X42001Y-47185D01*
X42076Y-47185D01*
X42057Y-46754D02*
X42123Y-46660D01*
X42170Y-46754D02*
X42170Y-46557D01*
X42095Y-46557D01*
X42076Y-46567D01*
X42067Y-46576D01*
X42057Y-46595D01*
X42057Y-46623D01*
X42067Y-46642D01*
X42076Y-46651D01*
X42095Y-46660D01*
X42170Y-46660D01*
X41888Y-46557D02*
X41926Y-46557D01*
X41945Y-46567D01*
X41954Y-46576D01*
X41973Y-46604D01*
X41982Y-46642D01*
X41982Y-46717D01*
X41973Y-46735D01*
X41964Y-46745D01*
X41945Y-46754D01*
X41907Y-46754D01*
X41888Y-46745D01*
X41879Y-46735D01*
X41870Y-46717D01*
X41870Y-46670D01*
X41879Y-46651D01*
X41888Y-46642D01*
X41907Y-46632D01*
X41945Y-46632D01*
X41964Y-46642D01*
X41973Y-46651D01*
X41982Y-46670D01*
X41964Y-46479D02*
X42029Y-46385D01*
X42076Y-46479D02*
X42076Y-46282D01*
X42001Y-46282D01*
X41982Y-46292D01*
X41973Y-46301D01*
X41964Y-46320D01*
X41964Y-46348D01*
X41973Y-46367D01*
X41982Y-46376D01*
X42001Y-46385D01*
X42076Y-46385D01*
X36007Y-53754D02*
X36073Y-53660D01*
X36120Y-53754D02*
X36120Y-53557D01*
X36045Y-53557D01*
X36026Y-53567D01*
X36017Y-53576D01*
X36007Y-53595D01*
X36007Y-53623D01*
X36017Y-53642D01*
X36026Y-53651D01*
X36045Y-53660D01*
X36120Y-53660D01*
X35942Y-53557D02*
X35810Y-53557D01*
X35895Y-53754D01*
X35914Y-54029D02*
X35979Y-53935D01*
X36026Y-54029D02*
X36026Y-53832D01*
X35951Y-53832D01*
X35932Y-53842D01*
X35923Y-53851D01*
X35914Y-53870D01*
X35914Y-53898D01*
X35923Y-53917D01*
X35932Y-53926D01*
X35951Y-53935D01*
X36026Y-53935D01*
X49382Y-53729D02*
X49448Y-53635D01*
X49495Y-53729D02*
X49495Y-53532D01*
X49420Y-53532D01*
X49401Y-53542D01*
X49392Y-53551D01*
X49382Y-53570D01*
X49382Y-53598D01*
X49392Y-53617D01*
X49401Y-53626D01*
X49420Y-53635D01*
X49495Y-53635D01*
X49317Y-53532D02*
X49185Y-53532D01*
X49270Y-53729D01*
X49289Y-54004D02*
X49354Y-53910D01*
X49401Y-54004D02*
X49401Y-53807D01*
X49326Y-53807D01*
X49307Y-53817D01*
X49298Y-53826D01*
X49289Y-53845D01*
X49289Y-53873D01*
X49298Y-53892D01*
X49307Y-53901D01*
X49326Y-53910D01*
X49401Y-53910D01*
X55432Y-46729D02*
X55498Y-46635D01*
X55545Y-46729D02*
X55545Y-46532D01*
X55470Y-46532D01*
X55451Y-46542D01*
X55442Y-46551D01*
X55432Y-46570D01*
X55432Y-46598D01*
X55442Y-46617D01*
X55451Y-46626D01*
X55470Y-46635D01*
X55545Y-46635D01*
X55263Y-46532D02*
X55301Y-46532D01*
X55320Y-46542D01*
X55329Y-46551D01*
X55348Y-46579D01*
X55357Y-46617D01*
X55357Y-46692D01*
X55348Y-46710D01*
X55339Y-46720D01*
X55320Y-46729D01*
X55282Y-46729D01*
X55263Y-46720D01*
X55254Y-46710D01*
X55245Y-46692D01*
X55245Y-46645D01*
X55254Y-46626D01*
X55263Y-46617D01*
X55282Y-46607D01*
X55320Y-46607D01*
X55339Y-46617D01*
X55348Y-46626D01*
X55357Y-46645D01*
X55339Y-46454D02*
X55404Y-46360D01*
X55451Y-46454D02*
X55451Y-46257D01*
X55376Y-46257D01*
X55357Y-46267D01*
X55348Y-46276D01*
X55339Y-46295D01*
X55339Y-46323D01*
X55348Y-46342D01*
X55357Y-46351D01*
X55376Y-46360D01*
X55451Y-46360D01*
X55432Y-47529D02*
X55498Y-47435D01*
X55545Y-47529D02*
X55545Y-47332D01*
X55470Y-47332D01*
X55451Y-47342D01*
X55442Y-47351D01*
X55432Y-47370D01*
X55432Y-47398D01*
X55442Y-47417D01*
X55451Y-47426D01*
X55470Y-47435D01*
X55545Y-47435D01*
X55254Y-47332D02*
X55348Y-47332D01*
X55357Y-47426D01*
X55348Y-47417D01*
X55329Y-47407D01*
X55282Y-47407D01*
X55263Y-47417D01*
X55254Y-47426D01*
X55245Y-47445D01*
X55245Y-47492D01*
X55254Y-47510D01*
X55263Y-47520D01*
X55282Y-47529D01*
X55329Y-47529D01*
X55348Y-47520D01*
X55357Y-47510D01*
X55339Y-47254D02*
X55404Y-47160D01*
X55451Y-47254D02*
X55451Y-47057D01*
X55376Y-47057D01*
X55357Y-47067D01*
X55348Y-47076D01*
X55339Y-47095D01*
X55339Y-47123D01*
X55348Y-47142D01*
X55357Y-47151D01*
X55376Y-47160D01*
X55451Y-47160D01*
X55432Y-48329D02*
X55498Y-48235D01*
X55545Y-48329D02*
X55545Y-48132D01*
X55470Y-48132D01*
X55451Y-48142D01*
X55442Y-48151D01*
X55432Y-48170D01*
X55432Y-48198D01*
X55442Y-48217D01*
X55451Y-48226D01*
X55470Y-48235D01*
X55545Y-48235D01*
X55263Y-48198D02*
X55263Y-48329D01*
X55310Y-48123D02*
X55357Y-48264D01*
X55235Y-48264D01*
X55339Y-48054D02*
X55404Y-47960D01*
X55451Y-48054D02*
X55451Y-47857D01*
X55376Y-47857D01*
X55357Y-47867D01*
X55348Y-47876D01*
X55339Y-47895D01*
X55339Y-47923D01*
X55348Y-47942D01*
X55357Y-47951D01*
X55376Y-47960D01*
X55451Y-47960D01*
X48632Y-52879D02*
X48698Y-52785D01*
X48745Y-52879D02*
X48745Y-52682D01*
X48670Y-52682D01*
X48651Y-52692D01*
X48642Y-52701D01*
X48632Y-52720D01*
X48632Y-52748D01*
X48642Y-52767D01*
X48651Y-52776D01*
X48670Y-52785D01*
X48745Y-52785D01*
X48567Y-52682D02*
X48445Y-52682D01*
X48510Y-52757D01*
X48482Y-52757D01*
X48463Y-52767D01*
X48454Y-52776D01*
X48445Y-52795D01*
X48445Y-52842D01*
X48454Y-52860D01*
X48463Y-52870D01*
X48482Y-52879D01*
X48539Y-52879D01*
X48557Y-52870D01*
X48567Y-52860D01*
X48539Y-53154D02*
X48604Y-53060D01*
X48651Y-53154D02*
X48651Y-52957D01*
X48576Y-52957D01*
X48557Y-52967D01*
X48548Y-52976D01*
X48539Y-52995D01*
X48539Y-53023D01*
X48548Y-53042D01*
X48557Y-53051D01*
X48576Y-53060D01*
X48651Y-53060D01*
X48632Y-52079D02*
X48698Y-51985D01*
X48745Y-52079D02*
X48745Y-51882D01*
X48670Y-51882D01*
X48651Y-51892D01*
X48642Y-51901D01*
X48632Y-51920D01*
X48632Y-51948D01*
X48642Y-51967D01*
X48651Y-51976D01*
X48670Y-51985D01*
X48745Y-51985D01*
X48557Y-51901D02*
X48548Y-51892D01*
X48529Y-51882D01*
X48482Y-51882D01*
X48463Y-51892D01*
X48454Y-51901D01*
X48445Y-51920D01*
X48445Y-51939D01*
X48454Y-51967D01*
X48567Y-52079D01*
X48445Y-52079D01*
X48539Y-52354D02*
X48604Y-52260D01*
X48651Y-52354D02*
X48651Y-52157D01*
X48576Y-52157D01*
X48557Y-52167D01*
X48548Y-52176D01*
X48539Y-52195D01*
X48539Y-52223D01*
X48548Y-52242D01*
X48557Y-52251D01*
X48576Y-52260D01*
X48651Y-52260D01*
X48632Y-51279D02*
X48698Y-51185D01*
X48745Y-51279D02*
X48745Y-51082D01*
X48670Y-51082D01*
X48651Y-51092D01*
X48642Y-51101D01*
X48632Y-51120D01*
X48632Y-51148D01*
X48642Y-51167D01*
X48651Y-51176D01*
X48670Y-51185D01*
X48745Y-51185D01*
X48445Y-51279D02*
X48557Y-51279D01*
X48501Y-51279D02*
X48501Y-51082D01*
X48520Y-51110D01*
X48539Y-51129D01*
X48557Y-51139D01*
X48539Y-51554D02*
X48604Y-51460D01*
X48651Y-51554D02*
X48651Y-51357D01*
X48576Y-51357D01*
X48557Y-51367D01*
X48548Y-51376D01*
X48539Y-51395D01*
X48539Y-51423D01*
X48548Y-51442D01*
X48557Y-51451D01*
X48576Y-51460D01*
X48651Y-51460D01*
X61932Y-51329D02*
X61998Y-51235D01*
X62045Y-51329D02*
X62045Y-51132D01*
X61970Y-51132D01*
X61951Y-51142D01*
X61942Y-51151D01*
X61932Y-51170D01*
X61932Y-51198D01*
X61942Y-51217D01*
X61951Y-51226D01*
X61970Y-51235D01*
X62045Y-51235D01*
X61745Y-51329D02*
X61857Y-51329D01*
X61801Y-51329D02*
X61801Y-51132D01*
X61820Y-51160D01*
X61839Y-51179D01*
X61857Y-51189D01*
X61839Y-51604D02*
X61904Y-51510D01*
X61951Y-51604D02*
X61951Y-51407D01*
X61876Y-51407D01*
X61857Y-51417D01*
X61848Y-51426D01*
X61839Y-51445D01*
X61839Y-51473D01*
X61848Y-51492D01*
X61857Y-51501D01*
X61876Y-51510D01*
X61951Y-51510D01*
X61932Y-52129D02*
X61998Y-52035D01*
X62045Y-52129D02*
X62045Y-51932D01*
X61970Y-51932D01*
X61951Y-51942D01*
X61942Y-51951D01*
X61932Y-51970D01*
X61932Y-51998D01*
X61942Y-52017D01*
X61951Y-52026D01*
X61970Y-52035D01*
X62045Y-52035D01*
X61857Y-51951D02*
X61848Y-51942D01*
X61829Y-51932D01*
X61782Y-51932D01*
X61763Y-51942D01*
X61754Y-51951D01*
X61745Y-51970D01*
X61745Y-51989D01*
X61754Y-52017D01*
X61867Y-52129D01*
X61745Y-52129D01*
X61839Y-52404D02*
X61904Y-52310D01*
X61951Y-52404D02*
X61951Y-52207D01*
X61876Y-52207D01*
X61857Y-52217D01*
X61848Y-52226D01*
X61839Y-52245D01*
X61839Y-52273D01*
X61848Y-52292D01*
X61857Y-52301D01*
X61876Y-52310D01*
X61951Y-52310D01*
X61932Y-52929D02*
X61998Y-52835D01*
X62045Y-52929D02*
X62045Y-52732D01*
X61970Y-52732D01*
X61951Y-52742D01*
X61942Y-52751D01*
X61932Y-52770D01*
X61932Y-52798D01*
X61942Y-52817D01*
X61951Y-52826D01*
X61970Y-52835D01*
X62045Y-52835D01*
X61867Y-52732D02*
X61745Y-52732D01*
X61810Y-52807D01*
X61782Y-52807D01*
X61763Y-52817D01*
X61754Y-52826D01*
X61745Y-52845D01*
X61745Y-52892D01*
X61754Y-52910D01*
X61763Y-52920D01*
X61782Y-52929D01*
X61839Y-52929D01*
X61857Y-52920D01*
X61867Y-52910D01*
X61839Y-53204D02*
X61904Y-53110D01*
X61951Y-53204D02*
X61951Y-53007D01*
X61876Y-53007D01*
X61857Y-53017D01*
X61848Y-53026D01*
X61839Y-53045D01*
X61839Y-53073D01*
X61848Y-53092D01*
X61857Y-53101D01*
X61876Y-53110D01*
X61951Y-53110D01*
X68732Y-48379D02*
X68798Y-48285D01*
X68845Y-48379D02*
X68845Y-48182D01*
X68770Y-48182D01*
X68751Y-48192D01*
X68742Y-48201D01*
X68732Y-48220D01*
X68732Y-48248D01*
X68742Y-48267D01*
X68751Y-48276D01*
X68770Y-48285D01*
X68845Y-48285D01*
X68563Y-48248D02*
X68563Y-48379D01*
X68610Y-48173D02*
X68657Y-48314D01*
X68535Y-48314D01*
X68639Y-48104D02*
X68704Y-48010D01*
X68751Y-48104D02*
X68751Y-47907D01*
X68676Y-47907D01*
X68657Y-47917D01*
X68648Y-47926D01*
X68639Y-47945D01*
X68639Y-47973D01*
X68648Y-47992D01*
X68657Y-48001D01*
X68676Y-48010D01*
X68751Y-48010D01*
X68732Y-47579D02*
X68798Y-47485D01*
X68845Y-47579D02*
X68845Y-47382D01*
X68770Y-47382D01*
X68751Y-47392D01*
X68742Y-47401D01*
X68732Y-47420D01*
X68732Y-47448D01*
X68742Y-47467D01*
X68751Y-47476D01*
X68770Y-47485D01*
X68845Y-47485D01*
X68554Y-47382D02*
X68648Y-47382D01*
X68657Y-47476D01*
X68648Y-47467D01*
X68629Y-47457D01*
X68582Y-47457D01*
X68563Y-47467D01*
X68554Y-47476D01*
X68545Y-47495D01*
X68545Y-47542D01*
X68554Y-47560D01*
X68563Y-47570D01*
X68582Y-47579D01*
X68629Y-47579D01*
X68648Y-47570D01*
X68657Y-47560D01*
X68639Y-47304D02*
X68704Y-47210D01*
X68751Y-47304D02*
X68751Y-47107D01*
X68676Y-47107D01*
X68657Y-47117D01*
X68648Y-47126D01*
X68639Y-47145D01*
X68639Y-47173D01*
X68648Y-47192D01*
X68657Y-47201D01*
X68676Y-47210D01*
X68751Y-47210D01*
X68732Y-46779D02*
X68798Y-46685D01*
X68845Y-46779D02*
X68845Y-46582D01*
X68770Y-46582D01*
X68751Y-46592D01*
X68742Y-46601D01*
X68732Y-46620D01*
X68732Y-46648D01*
X68742Y-46667D01*
X68751Y-46676D01*
X68770Y-46685D01*
X68845Y-46685D01*
X68563Y-46582D02*
X68601Y-46582D01*
X68620Y-46592D01*
X68629Y-46601D01*
X68648Y-46629D01*
X68657Y-46667D01*
X68657Y-46742D01*
X68648Y-46760D01*
X68639Y-46770D01*
X68620Y-46779D01*
X68582Y-46779D01*
X68563Y-46770D01*
X68554Y-46760D01*
X68545Y-46742D01*
X68545Y-46695D01*
X68554Y-46676D01*
X68563Y-46667D01*
X68582Y-46657D01*
X68620Y-46657D01*
X68639Y-46667D01*
X68648Y-46676D01*
X68657Y-46695D01*
X68639Y-46504D02*
X68704Y-46410D01*
X68751Y-46504D02*
X68751Y-46307D01*
X68676Y-46307D01*
X68657Y-46317D01*
X68648Y-46326D01*
X68639Y-46345D01*
X68639Y-46373D01*
X68648Y-46392D01*
X68657Y-46401D01*
X68676Y-46410D01*
X68751Y-46410D01*
X62682Y-53779D02*
X62748Y-53685D01*
X62795Y-53779D02*
X62795Y-53582D01*
X62720Y-53582D01*
X62701Y-53592D01*
X62692Y-53601D01*
X62682Y-53620D01*
X62682Y-53648D01*
X62692Y-53667D01*
X62701Y-53676D01*
X62720Y-53685D01*
X62795Y-53685D01*
X62617Y-53582D02*
X62485Y-53582D01*
X62570Y-53779D01*
X62589Y-54054D02*
X62654Y-53960D01*
X62701Y-54054D02*
X62701Y-53857D01*
X62626Y-53857D01*
X62607Y-53867D01*
X62598Y-53876D01*
X62589Y-53895D01*
X62589Y-53923D01*
X62598Y-53942D01*
X62607Y-53951D01*
X62626Y-53960D01*
X62701Y-53960D01*
X41982Y-21604D02*
X42048Y-21510D01*
X42095Y-21604D02*
X42095Y-21407D01*
X42020Y-21407D01*
X42001Y-21417D01*
X41992Y-21426D01*
X41982Y-21445D01*
X41982Y-21473D01*
X41992Y-21492D01*
X42001Y-21501D01*
X42020Y-21510D01*
X42095Y-21510D01*
X41795Y-21604D02*
X41907Y-21604D01*
X41851Y-21604D02*
X41851Y-21407D01*
X41870Y-21435D01*
X41889Y-21454D01*
X41907Y-21464D01*
X41889Y-21329D02*
X41954Y-21235D01*
X42001Y-21329D02*
X42001Y-21132D01*
X41926Y-21132D01*
X41907Y-21142D01*
X41898Y-21151D01*
X41889Y-21170D01*
X41889Y-21198D01*
X41898Y-21217D01*
X41907Y-21226D01*
X41926Y-21235D01*
X42001Y-21235D01*
X41982Y-20804D02*
X42048Y-20710D01*
X42095Y-20804D02*
X42095Y-20607D01*
X42020Y-20607D01*
X42001Y-20617D01*
X41992Y-20626D01*
X41982Y-20645D01*
X41982Y-20673D01*
X41992Y-20692D01*
X42001Y-20701D01*
X42020Y-20710D01*
X42095Y-20710D01*
X41907Y-20626D02*
X41898Y-20617D01*
X41879Y-20607D01*
X41832Y-20607D01*
X41813Y-20617D01*
X41804Y-20626D01*
X41795Y-20645D01*
X41795Y-20664D01*
X41804Y-20692D01*
X41917Y-20804D01*
X41795Y-20804D01*
X41889Y-20529D02*
X41954Y-20435D01*
X42001Y-20529D02*
X42001Y-20332D01*
X41926Y-20332D01*
X41907Y-20342D01*
X41898Y-20351D01*
X41889Y-20370D01*
X41889Y-20398D01*
X41898Y-20417D01*
X41907Y-20426D01*
X41926Y-20435D01*
X42001Y-20435D01*
X41982Y-20004D02*
X42048Y-19910D01*
X42095Y-20004D02*
X42095Y-19807D01*
X42020Y-19807D01*
X42001Y-19817D01*
X41992Y-19826D01*
X41982Y-19845D01*
X41982Y-19873D01*
X41992Y-19892D01*
X42001Y-19901D01*
X42020Y-19910D01*
X42095Y-19910D01*
X41917Y-19807D02*
X41795Y-19807D01*
X41860Y-19882D01*
X41832Y-19882D01*
X41813Y-19892D01*
X41804Y-19901D01*
X41795Y-19920D01*
X41795Y-19967D01*
X41804Y-19985D01*
X41813Y-19995D01*
X41832Y-20004D01*
X41889Y-20004D01*
X41907Y-19995D01*
X41917Y-19985D01*
X41889Y-19729D02*
X41954Y-19635D01*
X42001Y-19729D02*
X42001Y-19532D01*
X41926Y-19532D01*
X41907Y-19542D01*
X41898Y-19551D01*
X41889Y-19570D01*
X41889Y-19598D01*
X41898Y-19617D01*
X41907Y-19626D01*
X41926Y-19635D01*
X42001Y-19635D01*
X35182Y-24554D02*
X35248Y-24460D01*
X35295Y-24554D02*
X35295Y-24357D01*
X35220Y-24357D01*
X35201Y-24367D01*
X35192Y-24376D01*
X35182Y-24395D01*
X35182Y-24423D01*
X35192Y-24442D01*
X35201Y-24451D01*
X35220Y-24460D01*
X35295Y-24460D01*
X35013Y-24423D02*
X35013Y-24554D01*
X35060Y-24348D02*
X35107Y-24489D01*
X34985Y-24489D01*
X35089Y-24829D02*
X35154Y-24735D01*
X35201Y-24829D02*
X35201Y-24632D01*
X35126Y-24632D01*
X35107Y-24642D01*
X35098Y-24651D01*
X35089Y-24670D01*
X35089Y-24698D01*
X35098Y-24717D01*
X35107Y-24726D01*
X35126Y-24735D01*
X35201Y-24735D01*
X35182Y-25354D02*
X35248Y-25260D01*
X35295Y-25354D02*
X35295Y-25157D01*
X35220Y-25157D01*
X35201Y-25167D01*
X35192Y-25176D01*
X35182Y-25195D01*
X35182Y-25223D01*
X35192Y-25242D01*
X35201Y-25251D01*
X35220Y-25260D01*
X35295Y-25260D01*
X35004Y-25157D02*
X35098Y-25157D01*
X35107Y-25251D01*
X35098Y-25242D01*
X35079Y-25232D01*
X35032Y-25232D01*
X35013Y-25242D01*
X35004Y-25251D01*
X34995Y-25270D01*
X34995Y-25317D01*
X35004Y-25335D01*
X35013Y-25345D01*
X35032Y-25354D01*
X35079Y-25354D01*
X35098Y-25345D01*
X35107Y-25335D01*
X35089Y-25629D02*
X35154Y-25535D01*
X35201Y-25629D02*
X35201Y-25432D01*
X35126Y-25432D01*
X35107Y-25442D01*
X35098Y-25451D01*
X35089Y-25470D01*
X35089Y-25498D01*
X35098Y-25517D01*
X35107Y-25526D01*
X35126Y-25535D01*
X35201Y-25535D01*
X35182Y-26154D02*
X35248Y-26060D01*
X35295Y-26154D02*
X35295Y-25957D01*
X35220Y-25957D01*
X35201Y-25967D01*
X35192Y-25976D01*
X35182Y-25995D01*
X35182Y-26023D01*
X35192Y-26042D01*
X35201Y-26051D01*
X35220Y-26060D01*
X35295Y-26060D01*
X35013Y-25957D02*
X35051Y-25957D01*
X35070Y-25967D01*
X35079Y-25976D01*
X35098Y-26004D01*
X35107Y-26042D01*
X35107Y-26117D01*
X35098Y-26135D01*
X35089Y-26145D01*
X35070Y-26154D01*
X35032Y-26154D01*
X35013Y-26145D01*
X35004Y-26135D01*
X34995Y-26117D01*
X34995Y-26070D01*
X35004Y-26051D01*
X35013Y-26042D01*
X35032Y-26032D01*
X35070Y-26032D01*
X35089Y-26042D01*
X35098Y-26051D01*
X35107Y-26070D01*
X35089Y-26429D02*
X35154Y-26335D01*
X35201Y-26429D02*
X35201Y-26232D01*
X35126Y-26232D01*
X35107Y-26242D01*
X35098Y-26251D01*
X35089Y-26270D01*
X35089Y-26298D01*
X35098Y-26317D01*
X35107Y-26326D01*
X35126Y-26335D01*
X35201Y-26335D01*
X41232Y-19154D02*
X41298Y-19060D01*
X41345Y-19154D02*
X41345Y-18957D01*
X41270Y-18957D01*
X41251Y-18967D01*
X41242Y-18976D01*
X41232Y-18995D01*
X41232Y-19023D01*
X41242Y-19042D01*
X41251Y-19051D01*
X41270Y-19060D01*
X41345Y-19060D01*
X41167Y-18957D02*
X41035Y-18957D01*
X41120Y-19154D01*
X41139Y-18879D02*
X41204Y-18785D01*
X41251Y-18879D02*
X41251Y-18682D01*
X41176Y-18682D01*
X41157Y-18692D01*
X41148Y-18701D01*
X41139Y-18720D01*
X41139Y-18748D01*
X41148Y-18767D01*
X41157Y-18776D01*
X41176Y-18785D01*
X41251Y-18785D01*
X54482Y-19179D02*
X54548Y-19085D01*
X54595Y-19179D02*
X54595Y-18982D01*
X54520Y-18982D01*
X54501Y-18992D01*
X54492Y-19001D01*
X54482Y-19020D01*
X54482Y-19048D01*
X54492Y-19067D01*
X54501Y-19076D01*
X54520Y-19085D01*
X54595Y-19085D01*
X54417Y-18982D02*
X54285Y-18982D01*
X54370Y-19179D01*
X54389Y-18904D02*
X54454Y-18810D01*
X54501Y-18904D02*
X54501Y-18707D01*
X54426Y-18707D01*
X54407Y-18717D01*
X54398Y-18726D01*
X54389Y-18745D01*
X54389Y-18773D01*
X54398Y-18792D01*
X54407Y-18801D01*
X54426Y-18810D01*
X54501Y-18810D01*
X48432Y-26179D02*
X48498Y-26085D01*
X48545Y-26179D02*
X48545Y-25982D01*
X48470Y-25982D01*
X48451Y-25992D01*
X48442Y-26001D01*
X48432Y-26020D01*
X48432Y-26048D01*
X48442Y-26067D01*
X48451Y-26076D01*
X48470Y-26085D01*
X48545Y-26085D01*
X48263Y-25982D02*
X48301Y-25982D01*
X48320Y-25992D01*
X48329Y-26001D01*
X48348Y-26029D01*
X48357Y-26067D01*
X48357Y-26142D01*
X48348Y-26160D01*
X48339Y-26170D01*
X48320Y-26179D01*
X48282Y-26179D01*
X48263Y-26170D01*
X48254Y-26160D01*
X48245Y-26142D01*
X48245Y-26095D01*
X48254Y-26076D01*
X48263Y-26067D01*
X48282Y-26057D01*
X48320Y-26057D01*
X48339Y-26067D01*
X48348Y-26076D01*
X48357Y-26095D01*
X48339Y-26454D02*
X48404Y-26360D01*
X48451Y-26454D02*
X48451Y-26257D01*
X48376Y-26257D01*
X48357Y-26267D01*
X48348Y-26276D01*
X48339Y-26295D01*
X48339Y-26323D01*
X48348Y-26342D01*
X48357Y-26351D01*
X48376Y-26360D01*
X48451Y-26360D01*
X48432Y-25379D02*
X48498Y-25285D01*
X48545Y-25379D02*
X48545Y-25182D01*
X48470Y-25182D01*
X48451Y-25192D01*
X48442Y-25201D01*
X48432Y-25220D01*
X48432Y-25248D01*
X48442Y-25267D01*
X48451Y-25276D01*
X48470Y-25285D01*
X48545Y-25285D01*
X48254Y-25182D02*
X48348Y-25182D01*
X48357Y-25276D01*
X48348Y-25267D01*
X48329Y-25257D01*
X48282Y-25257D01*
X48263Y-25267D01*
X48254Y-25276D01*
X48245Y-25295D01*
X48245Y-25342D01*
X48254Y-25360D01*
X48263Y-25370D01*
X48282Y-25379D01*
X48329Y-25379D01*
X48348Y-25370D01*
X48357Y-25360D01*
X48339Y-25654D02*
X48404Y-25560D01*
X48451Y-25654D02*
X48451Y-25457D01*
X48376Y-25457D01*
X48357Y-25467D01*
X48348Y-25476D01*
X48339Y-25495D01*
X48339Y-25523D01*
X48348Y-25542D01*
X48357Y-25551D01*
X48376Y-25560D01*
X48451Y-25560D01*
X48432Y-24579D02*
X48498Y-24485D01*
X48545Y-24579D02*
X48545Y-24382D01*
X48470Y-24382D01*
X48451Y-24392D01*
X48442Y-24401D01*
X48432Y-24420D01*
X48432Y-24448D01*
X48442Y-24467D01*
X48451Y-24476D01*
X48470Y-24485D01*
X48545Y-24485D01*
X48263Y-24448D02*
X48263Y-24579D01*
X48310Y-24373D02*
X48357Y-24514D01*
X48235Y-24514D01*
X48339Y-24854D02*
X48404Y-24760D01*
X48451Y-24854D02*
X48451Y-24657D01*
X48376Y-24657D01*
X48357Y-24667D01*
X48348Y-24676D01*
X48339Y-24695D01*
X48339Y-24723D01*
X48348Y-24742D01*
X48357Y-24751D01*
X48376Y-24760D01*
X48451Y-24760D01*
X55232Y-20029D02*
X55298Y-19935D01*
X55345Y-20029D02*
X55345Y-19832D01*
X55270Y-19832D01*
X55251Y-19842D01*
X55242Y-19851D01*
X55232Y-19870D01*
X55232Y-19898D01*
X55242Y-19917D01*
X55251Y-19926D01*
X55270Y-19935D01*
X55345Y-19935D01*
X55167Y-19832D02*
X55045Y-19832D01*
X55110Y-19907D01*
X55082Y-19907D01*
X55063Y-19917D01*
X55054Y-19926D01*
X55045Y-19945D01*
X55045Y-19992D01*
X55054Y-20010D01*
X55063Y-20020D01*
X55082Y-20029D01*
X55139Y-20029D01*
X55157Y-20020D01*
X55167Y-20010D01*
X55139Y-19754D02*
X55204Y-19660D01*
X55251Y-19754D02*
X55251Y-19557D01*
X55176Y-19557D01*
X55157Y-19567D01*
X55148Y-19576D01*
X55139Y-19595D01*
X55139Y-19623D01*
X55148Y-19642D01*
X55157Y-19651D01*
X55176Y-19660D01*
X55251Y-19660D01*
X55232Y-20829D02*
X55298Y-20735D01*
X55345Y-20829D02*
X55345Y-20632D01*
X55270Y-20632D01*
X55251Y-20642D01*
X55242Y-20651D01*
X55232Y-20670D01*
X55232Y-20698D01*
X55242Y-20717D01*
X55251Y-20726D01*
X55270Y-20735D01*
X55345Y-20735D01*
X55157Y-20651D02*
X55148Y-20642D01*
X55129Y-20632D01*
X55082Y-20632D01*
X55063Y-20642D01*
X55054Y-20651D01*
X55045Y-20670D01*
X55045Y-20689D01*
X55054Y-20717D01*
X55167Y-20829D01*
X55045Y-20829D01*
X55139Y-20554D02*
X55204Y-20460D01*
X55251Y-20554D02*
X55251Y-20357D01*
X55176Y-20357D01*
X55157Y-20367D01*
X55148Y-20376D01*
X55139Y-20395D01*
X55139Y-20423D01*
X55148Y-20442D01*
X55157Y-20451D01*
X55176Y-20460D01*
X55251Y-20460D01*
X55232Y-21629D02*
X55298Y-21535D01*
X55345Y-21629D02*
X55345Y-21432D01*
X55270Y-21432D01*
X55251Y-21442D01*
X55242Y-21451D01*
X55232Y-21470D01*
X55232Y-21498D01*
X55242Y-21517D01*
X55251Y-21526D01*
X55270Y-21535D01*
X55345Y-21535D01*
X55045Y-21629D02*
X55157Y-21629D01*
X55101Y-21629D02*
X55101Y-21432D01*
X55120Y-21460D01*
X55139Y-21479D01*
X55157Y-21489D01*
X55139Y-21354D02*
X55204Y-21260D01*
X55251Y-21354D02*
X55251Y-21157D01*
X55176Y-21157D01*
X55157Y-21167D01*
X55148Y-21176D01*
X55139Y-21195D01*
X55139Y-21223D01*
X55148Y-21242D01*
X55157Y-21251D01*
X55176Y-21260D01*
X55251Y-21260D01*
X68632Y-21754D02*
X68698Y-21660D01*
X68745Y-21754D02*
X68745Y-21557D01*
X68670Y-21557D01*
X68651Y-21567D01*
X68642Y-21576D01*
X68632Y-21595D01*
X68632Y-21623D01*
X68642Y-21642D01*
X68651Y-21651D01*
X68670Y-21660D01*
X68745Y-21660D01*
X68445Y-21754D02*
X68557Y-21754D01*
X68501Y-21754D02*
X68501Y-21557D01*
X68520Y-21585D01*
X68539Y-21604D01*
X68557Y-21614D01*
X68539Y-21479D02*
X68604Y-21385D01*
X68651Y-21479D02*
X68651Y-21282D01*
X68576Y-21282D01*
X68557Y-21292D01*
X68548Y-21301D01*
X68539Y-21320D01*
X68539Y-21348D01*
X68548Y-21367D01*
X68557Y-21376D01*
X68576Y-21385D01*
X68651Y-21385D01*
X68632Y-20954D02*
X68698Y-20860D01*
X68745Y-20954D02*
X68745Y-20757D01*
X68670Y-20757D01*
X68651Y-20767D01*
X68642Y-20776D01*
X68632Y-20795D01*
X68632Y-20823D01*
X68642Y-20842D01*
X68651Y-20851D01*
X68670Y-20860D01*
X68745Y-20860D01*
X68557Y-20776D02*
X68548Y-20767D01*
X68529Y-20757D01*
X68482Y-20757D01*
X68463Y-20767D01*
X68454Y-20776D01*
X68445Y-20795D01*
X68445Y-20814D01*
X68454Y-20842D01*
X68567Y-20954D01*
X68445Y-20954D01*
X68539Y-20679D02*
X68604Y-20585D01*
X68651Y-20679D02*
X68651Y-20482D01*
X68576Y-20482D01*
X68557Y-20492D01*
X68548Y-20501D01*
X68539Y-20520D01*
X68539Y-20548D01*
X68548Y-20567D01*
X68557Y-20576D01*
X68576Y-20585D01*
X68651Y-20585D01*
X68632Y-20154D02*
X68698Y-20060D01*
X68745Y-20154D02*
X68745Y-19957D01*
X68670Y-19957D01*
X68651Y-19967D01*
X68642Y-19976D01*
X68632Y-19995D01*
X68632Y-20023D01*
X68642Y-20042D01*
X68651Y-20051D01*
X68670Y-20060D01*
X68745Y-20060D01*
X68567Y-19957D02*
X68445Y-19957D01*
X68510Y-20032D01*
X68482Y-20032D01*
X68463Y-20042D01*
X68454Y-20051D01*
X68445Y-20070D01*
X68445Y-20117D01*
X68454Y-20135D01*
X68463Y-20145D01*
X68482Y-20154D01*
X68539Y-20154D01*
X68557Y-20145D01*
X68567Y-20135D01*
X68539Y-19879D02*
X68604Y-19785D01*
X68651Y-19879D02*
X68651Y-19682D01*
X68576Y-19682D01*
X68557Y-19692D01*
X68548Y-19701D01*
X68539Y-19720D01*
X68539Y-19748D01*
X68548Y-19767D01*
X68557Y-19776D01*
X68576Y-19785D01*
X68651Y-19785D01*
X61832Y-24704D02*
X61898Y-24610D01*
X61945Y-24704D02*
X61945Y-24507D01*
X61870Y-24507D01*
X61851Y-24517D01*
X61842Y-24526D01*
X61832Y-24545D01*
X61832Y-24573D01*
X61842Y-24592D01*
X61851Y-24601D01*
X61870Y-24610D01*
X61945Y-24610D01*
X61663Y-24573D02*
X61663Y-24704D01*
X61710Y-24498D02*
X61757Y-24639D01*
X61635Y-24639D01*
X61739Y-24979D02*
X61804Y-24885D01*
X61851Y-24979D02*
X61851Y-24782D01*
X61776Y-24782D01*
X61757Y-24792D01*
X61748Y-24801D01*
X61739Y-24820D01*
X61739Y-24848D01*
X61748Y-24867D01*
X61757Y-24876D01*
X61776Y-24885D01*
X61851Y-24885D01*
X61832Y-25504D02*
X61898Y-25410D01*
X61945Y-25504D02*
X61945Y-25307D01*
X61870Y-25307D01*
X61851Y-25317D01*
X61842Y-25326D01*
X61832Y-25345D01*
X61832Y-25373D01*
X61842Y-25392D01*
X61851Y-25401D01*
X61870Y-25410D01*
X61945Y-25410D01*
X61654Y-25307D02*
X61748Y-25307D01*
X61757Y-25401D01*
X61748Y-25392D01*
X61729Y-25382D01*
X61682Y-25382D01*
X61663Y-25392D01*
X61654Y-25401D01*
X61645Y-25420D01*
X61645Y-25467D01*
X61654Y-25485D01*
X61663Y-25495D01*
X61682Y-25504D01*
X61729Y-25504D01*
X61748Y-25495D01*
X61757Y-25485D01*
X61739Y-25779D02*
X61804Y-25685D01*
X61851Y-25779D02*
X61851Y-25582D01*
X61776Y-25582D01*
X61757Y-25592D01*
X61748Y-25601D01*
X61739Y-25620D01*
X61739Y-25648D01*
X61748Y-25667D01*
X61757Y-25676D01*
X61776Y-25685D01*
X61851Y-25685D01*
X61832Y-26304D02*
X61898Y-26210D01*
X61945Y-26304D02*
X61945Y-26107D01*
X61870Y-26107D01*
X61851Y-26117D01*
X61842Y-26126D01*
X61832Y-26145D01*
X61832Y-26173D01*
X61842Y-26192D01*
X61851Y-26201D01*
X61870Y-26210D01*
X61945Y-26210D01*
X61663Y-26107D02*
X61701Y-26107D01*
X61720Y-26117D01*
X61729Y-26126D01*
X61748Y-26154D01*
X61757Y-26192D01*
X61757Y-26267D01*
X61748Y-26285D01*
X61739Y-26295D01*
X61720Y-26304D01*
X61682Y-26304D01*
X61663Y-26295D01*
X61654Y-26285D01*
X61645Y-26267D01*
X61645Y-26220D01*
X61654Y-26201D01*
X61663Y-26192D01*
X61682Y-26182D01*
X61720Y-26182D01*
X61739Y-26192D01*
X61748Y-26201D01*
X61757Y-26220D01*
X61739Y-26579D02*
X61804Y-26485D01*
X61851Y-26579D02*
X61851Y-26382D01*
X61776Y-26382D01*
X61757Y-26392D01*
X61748Y-26401D01*
X61739Y-26420D01*
X61739Y-26448D01*
X61748Y-26467D01*
X61757Y-26476D01*
X61776Y-26485D01*
X61851Y-26485D01*
X67882Y-19304D02*
X67948Y-19210D01*
X67995Y-19304D02*
X67995Y-19107D01*
X67920Y-19107D01*
X67901Y-19117D01*
X67892Y-19126D01*
X67882Y-19145D01*
X67882Y-19173D01*
X67892Y-19192D01*
X67901Y-19201D01*
X67920Y-19210D01*
X67995Y-19210D01*
X67817Y-19107D02*
X67685Y-19107D01*
X67770Y-19304D01*
X67789Y-19029D02*
X67854Y-18935D01*
X67901Y-19029D02*
X67901Y-18832D01*
X67826Y-18832D01*
X67807Y-18842D01*
X67798Y-18851D01*
X67789Y-18870D01*
X67789Y-18898D01*
X67798Y-18917D01*
X67807Y-18926D01*
X67826Y-18935D01*
X67901Y-18935D01*
G54D17*
X54477Y-38635D02*
X54487Y-38645D01*
X54515Y-38654D01*
X54534Y-38654D01*
X54562Y-38645D01*
X54581Y-38626D01*
X54590Y-38607D01*
X54599Y-38570D01*
X54599Y-38542D01*
X54590Y-38504D01*
X54581Y-38485D01*
X54562Y-38467D01*
X54534Y-38457D01*
X54515Y-38457D01*
X54487Y-38467D01*
X54477Y-38476D01*
X54412Y-38457D02*
X54280Y-38457D01*
X54365Y-38654D01*
G54D19*
X63294Y-36008D02*
X63359Y-35914D01*
X63406Y-36008D02*
X63406Y-35811D01*
X63331Y-35811D01*
X63313Y-35820D01*
X63303Y-35830D01*
X63294Y-35849D01*
X63294Y-35877D01*
X63303Y-35895D01*
X63313Y-35905D01*
X63331Y-35914D01*
X63406Y-35914D01*
X63228Y-35811D02*
X63106Y-35811D01*
X63172Y-35886D01*
X63144Y-35886D01*
X63125Y-35895D01*
X63116Y-35905D01*
X63106Y-35924D01*
X63106Y-35970D01*
X63116Y-35989D01*
X63125Y-35999D01*
X63144Y-36008D01*
X63200Y-36008D01*
X63219Y-35999D01*
X63228Y-35989D01*
X63378Y-36333D02*
X63491Y-36333D01*
X63434Y-36333D02*
X63434Y-36136D01*
X63453Y-36164D01*
X63472Y-36183D01*
X63491Y-36192D01*
X63256Y-36136D02*
X63237Y-36136D01*
X63219Y-36145D01*
X63209Y-36155D01*
X63200Y-36173D01*
X63191Y-36211D01*
X63191Y-36258D01*
X63200Y-36295D01*
X63209Y-36314D01*
X63219Y-36323D01*
X63237Y-36333D01*
X63256Y-36333D01*
X63275Y-36323D01*
X63284Y-36314D01*
X63294Y-36295D01*
X63303Y-36258D01*
X63303Y-36211D01*
X63294Y-36173D01*
X63284Y-36155D01*
X63275Y-36145D01*
X63256Y-36136D01*
X63106Y-36333D02*
X63106Y-36136D01*
X63087Y-36258D02*
X63031Y-36333D01*
X63031Y-36201D02*
X63106Y-36276D01*
X61837Y-38214D02*
X61846Y-38223D01*
X61875Y-38232D01*
X61893Y-38232D01*
X61921Y-38223D01*
X61940Y-38204D01*
X61950Y-38185D01*
X61959Y-38148D01*
X61959Y-38120D01*
X61950Y-38082D01*
X61940Y-38064D01*
X61921Y-38045D01*
X61893Y-38035D01*
X61875Y-38035D01*
X61846Y-38045D01*
X61837Y-38054D01*
X61771Y-38035D02*
X61649Y-38035D01*
X61715Y-38110D01*
X61687Y-38110D01*
X61668Y-38120D01*
X61659Y-38129D01*
X61649Y-38148D01*
X61649Y-38195D01*
X61659Y-38214D01*
X61668Y-38223D01*
X61687Y-38232D01*
X61743Y-38232D01*
X61762Y-38223D01*
X61771Y-38214D01*
X62315Y-38350D02*
X62297Y-38350D01*
X62278Y-38360D01*
X62269Y-38369D01*
X62259Y-38388D01*
X62250Y-38425D01*
X62250Y-38472D01*
X62259Y-38510D01*
X62269Y-38529D01*
X62278Y-38538D01*
X62297Y-38547D01*
X62315Y-38547D01*
X62334Y-38538D01*
X62344Y-38529D01*
X62353Y-38510D01*
X62362Y-38472D01*
X62362Y-38425D01*
X62353Y-38388D01*
X62344Y-38369D01*
X62334Y-38360D01*
X62315Y-38350D01*
X62165Y-38529D02*
X62156Y-38538D01*
X62165Y-38547D01*
X62175Y-38538D01*
X62165Y-38529D01*
X62165Y-38547D01*
X62034Y-38350D02*
X62015Y-38350D01*
X61997Y-38360D01*
X61987Y-38369D01*
X61978Y-38388D01*
X61968Y-38425D01*
X61968Y-38472D01*
X61978Y-38510D01*
X61987Y-38529D01*
X61997Y-38538D01*
X62015Y-38547D01*
X62034Y-38547D01*
X62053Y-38538D01*
X62062Y-38529D01*
X62072Y-38510D01*
X62081Y-38472D01*
X62081Y-38425D01*
X62072Y-38388D01*
X62062Y-38369D01*
X62053Y-38360D01*
X62034Y-38350D01*
X61781Y-38547D02*
X61893Y-38547D01*
X61837Y-38547D02*
X61837Y-38350D01*
X61856Y-38378D01*
X61875Y-38397D01*
X61893Y-38407D01*
X61603Y-38350D02*
X61696Y-38350D01*
X61706Y-38444D01*
X61696Y-38435D01*
X61678Y-38425D01*
X61631Y-38425D01*
X61612Y-38435D01*
X61603Y-38444D01*
X61593Y-38463D01*
X61593Y-38510D01*
X61603Y-38529D01*
X61612Y-38538D01*
X61631Y-38547D01*
X61678Y-38547D01*
X61696Y-38538D01*
X61706Y-38529D01*
X61424Y-38416D02*
X61424Y-38547D01*
X61509Y-38416D02*
X61509Y-38519D01*
X61499Y-38538D01*
X61481Y-38547D01*
X61452Y-38547D01*
X61434Y-38538D01*
X61424Y-38529D01*
X61265Y-38444D02*
X61330Y-38444D01*
X61330Y-38547D02*
X61330Y-38350D01*
X61237Y-38350D01*
X61827Y-36008D02*
X61893Y-35914D01*
X61940Y-36008D02*
X61940Y-35811D01*
X61865Y-35811D01*
X61846Y-35820D01*
X61837Y-35830D01*
X61827Y-35849D01*
X61827Y-35877D01*
X61837Y-35895D01*
X61846Y-35905D01*
X61865Y-35914D01*
X61940Y-35914D01*
X61640Y-36008D02*
X61752Y-36008D01*
X61696Y-36008D02*
X61696Y-35811D01*
X61715Y-35839D01*
X61733Y-35858D01*
X61752Y-35867D01*
X61921Y-36343D02*
X62034Y-36343D01*
X61978Y-36343D02*
X61978Y-36146D01*
X61997Y-36174D01*
X62015Y-36193D01*
X62034Y-36202D01*
X61800Y-36146D02*
X61781Y-36146D01*
X61762Y-36155D01*
X61753Y-36164D01*
X61743Y-36183D01*
X61734Y-36221D01*
X61734Y-36268D01*
X61743Y-36305D01*
X61753Y-36324D01*
X61762Y-36333D01*
X61781Y-36343D01*
X61800Y-36343D01*
X61818Y-36333D01*
X61828Y-36324D01*
X61837Y-36305D01*
X61846Y-36268D01*
X61846Y-36221D01*
X61837Y-36183D01*
X61828Y-36164D01*
X61818Y-36155D01*
X61800Y-36146D01*
X61649Y-36343D02*
X61649Y-36146D01*
X61631Y-36268D02*
X61574Y-36343D01*
X61574Y-36211D02*
X61649Y-36286D01*
X63294Y-38204D02*
X63303Y-38213D01*
X63331Y-38223D01*
X63350Y-38223D01*
X63378Y-38213D01*
X63397Y-38194D01*
X63406Y-38176D01*
X63416Y-38138D01*
X63416Y-38110D01*
X63406Y-38072D01*
X63397Y-38054D01*
X63378Y-38035D01*
X63350Y-38026D01*
X63331Y-38026D01*
X63303Y-38035D01*
X63294Y-38044D01*
X63219Y-38044D02*
X63209Y-38035D01*
X63191Y-38026D01*
X63144Y-38026D01*
X63125Y-38035D01*
X63116Y-38044D01*
X63106Y-38063D01*
X63106Y-38082D01*
X63116Y-38110D01*
X63228Y-38223D01*
X63106Y-38223D01*
X63678Y-38350D02*
X63660Y-38350D01*
X63641Y-38360D01*
X63631Y-38369D01*
X63622Y-38388D01*
X63613Y-38425D01*
X63613Y-38472D01*
X63622Y-38510D01*
X63631Y-38529D01*
X63641Y-38538D01*
X63660Y-38547D01*
X63678Y-38547D01*
X63697Y-38538D01*
X63707Y-38529D01*
X63716Y-38510D01*
X63725Y-38472D01*
X63725Y-38425D01*
X63716Y-38388D01*
X63707Y-38369D01*
X63697Y-38360D01*
X63678Y-38350D01*
X63528Y-38529D02*
X63519Y-38538D01*
X63528Y-38547D01*
X63538Y-38538D01*
X63528Y-38529D01*
X63528Y-38547D01*
X63350Y-38416D02*
X63350Y-38547D01*
X63397Y-38341D02*
X63444Y-38482D01*
X63322Y-38482D01*
X63266Y-38350D02*
X63134Y-38350D01*
X63219Y-38547D01*
X62975Y-38416D02*
X62975Y-38547D01*
X63059Y-38416D02*
X63059Y-38519D01*
X63050Y-38538D01*
X63031Y-38547D01*
X63003Y-38547D01*
X62984Y-38538D01*
X62975Y-38529D01*
X62815Y-38444D02*
X62881Y-38444D01*
X62881Y-38547D02*
X62881Y-38350D01*
X62787Y-38350D01*
X59859Y-37131D02*
X59868Y-37140D01*
X59896Y-37150D01*
X59915Y-37150D01*
X59943Y-37140D01*
X59962Y-37122D01*
X59971Y-37103D01*
X59981Y-37065D01*
X59981Y-37037D01*
X59971Y-37000D01*
X59962Y-36981D01*
X59943Y-36962D01*
X59915Y-36953D01*
X59896Y-36953D01*
X59868Y-36962D01*
X59859Y-36971D01*
X59765Y-37150D02*
X59727Y-37150D01*
X59709Y-37140D01*
X59699Y-37131D01*
X59680Y-37103D01*
X59671Y-37065D01*
X59671Y-36990D01*
X59680Y-36971D01*
X59690Y-36962D01*
X59709Y-36953D01*
X59746Y-36953D01*
X59765Y-36962D01*
X59774Y-36971D01*
X59784Y-36990D01*
X59784Y-37037D01*
X59774Y-37056D01*
X59765Y-37065D01*
X59746Y-37075D01*
X59709Y-37075D01*
X59690Y-37065D01*
X59680Y-37056D01*
X59671Y-37037D01*
X59923Y-37465D02*
X60036Y-37465D01*
X59980Y-37465D02*
X59980Y-37268D01*
X59999Y-37296D01*
X60017Y-37315D01*
X60036Y-37324D01*
X59755Y-37333D02*
X59755Y-37465D01*
X59839Y-37333D02*
X59839Y-37437D01*
X59830Y-37455D01*
X59811Y-37465D01*
X59783Y-37465D01*
X59764Y-37455D01*
X59755Y-37446D01*
X59595Y-37361D02*
X59661Y-37361D01*
X59661Y-37465D02*
X59661Y-37268D01*
X59567Y-37268D01*
X64957Y-38066D02*
X64967Y-38075D01*
X64995Y-38085D01*
X65013Y-38085D01*
X65042Y-38075D01*
X65060Y-38057D01*
X65070Y-38038D01*
X65079Y-38000D01*
X65079Y-37972D01*
X65070Y-37935D01*
X65060Y-37916D01*
X65042Y-37897D01*
X65013Y-37888D01*
X64995Y-37888D01*
X64967Y-37897D01*
X64957Y-37907D01*
X64788Y-37953D02*
X64788Y-38085D01*
X64835Y-37878D02*
X64882Y-38019D01*
X64760Y-38019D01*
X65238Y-38203D02*
X65219Y-38203D01*
X65201Y-38212D01*
X65191Y-38221D01*
X65182Y-38240D01*
X65172Y-38278D01*
X65172Y-38325D01*
X65182Y-38362D01*
X65191Y-38381D01*
X65201Y-38390D01*
X65219Y-38400D01*
X65238Y-38400D01*
X65257Y-38390D01*
X65266Y-38381D01*
X65276Y-38362D01*
X65285Y-38325D01*
X65285Y-38278D01*
X65276Y-38240D01*
X65266Y-38221D01*
X65257Y-38212D01*
X65238Y-38203D01*
X65088Y-38381D02*
X65079Y-38390D01*
X65088Y-38400D01*
X65097Y-38390D01*
X65088Y-38381D01*
X65088Y-38400D01*
X64891Y-38400D02*
X65004Y-38400D01*
X64947Y-38400D02*
X64947Y-38203D01*
X64966Y-38231D01*
X64985Y-38250D01*
X65004Y-38259D01*
X64722Y-38268D02*
X64722Y-38400D01*
X64807Y-38268D02*
X64807Y-38372D01*
X64797Y-38390D01*
X64778Y-38400D01*
X64750Y-38400D01*
X64732Y-38390D01*
X64722Y-38381D01*
X64563Y-38297D02*
X64628Y-38297D01*
X64628Y-38400D02*
X64628Y-38203D01*
X64535Y-38203D01*
G54D20*
X52275Y-36583D02*
X51875Y-36583D01*
X52161Y-36716D01*
X51875Y-36849D01*
X52275Y-36849D01*
X52237Y-37268D02*
X52256Y-37249D01*
X52275Y-37192D01*
X52275Y-37154D01*
X52256Y-37097D01*
X52218Y-37059D01*
X52180Y-37040D01*
X52104Y-37021D01*
X52047Y-37021D01*
X51970Y-37040D01*
X51932Y-37059D01*
X51894Y-37097D01*
X51875Y-37154D01*
X51875Y-37192D01*
X51894Y-37249D01*
X51913Y-37268D01*
X51875Y-37440D02*
X52199Y-37440D01*
X52237Y-37459D01*
X52256Y-37478D01*
X52275Y-37516D01*
X52275Y-37592D01*
X52256Y-37630D01*
X52237Y-37649D01*
X52199Y-37668D01*
X51875Y-37668D01*
X52275Y-38068D02*
X52275Y-37840D01*
X52275Y-37954D02*
X51875Y-37954D01*
X51932Y-37916D01*
X51970Y-37878D01*
X51989Y-37840D01*
X65484Y-36110D02*
X65084Y-36110D01*
X65370Y-36244D01*
X65084Y-36377D01*
X65484Y-36377D01*
X65446Y-36796D02*
X65465Y-36777D01*
X65484Y-36720D01*
X65484Y-36682D01*
X65465Y-36625D01*
X65427Y-36586D01*
X65389Y-36567D01*
X65312Y-36548D01*
X65255Y-36548D01*
X65179Y-36567D01*
X65141Y-36586D01*
X65103Y-36625D01*
X65084Y-36682D01*
X65084Y-36720D01*
X65103Y-36777D01*
X65122Y-36796D01*
X65084Y-36967D02*
X65408Y-36967D01*
X65446Y-36986D01*
X65465Y-37005D01*
X65484Y-37044D01*
X65484Y-37120D01*
X65465Y-37158D01*
X65446Y-37177D01*
X65408Y-37196D01*
X65084Y-37196D01*
X65122Y-37367D02*
X65103Y-37386D01*
X65084Y-37425D01*
X65084Y-37520D01*
X65103Y-37558D01*
X65122Y-37577D01*
X65160Y-37596D01*
X65198Y-37596D01*
X65255Y-37577D01*
X65484Y-37348D01*
X65484Y-37596D01*
G54D15*
X55720Y-31961D02*
X55720Y-31561D01*
X55491Y-31961D02*
X55663Y-31733D01*
X55491Y-31561D02*
X55720Y-31790D01*
X55339Y-31600D02*
X55320Y-31580D01*
X55282Y-31561D01*
X55186Y-31561D01*
X55148Y-31580D01*
X55129Y-31600D01*
X55110Y-31638D01*
X55110Y-31676D01*
X55129Y-31733D01*
X55358Y-31961D01*
X55110Y-31961D01*
G54D20*
X63891Y-39111D02*
X63891Y-39435D01*
X63875Y-39473D01*
X63858Y-39492D01*
X63825Y-39511D01*
X63758Y-39511D01*
X63725Y-39492D01*
X63708Y-39473D01*
X63691Y-39435D01*
X63691Y-39111D01*
X63541Y-39492D02*
X63491Y-39511D01*
X63408Y-39511D01*
X63375Y-39492D01*
X63358Y-39473D01*
X63341Y-39435D01*
X63341Y-39397D01*
X63358Y-39359D01*
X63375Y-39340D01*
X63408Y-39321D01*
X63475Y-39302D01*
X63508Y-39283D01*
X63525Y-39264D01*
X63541Y-39226D01*
X63541Y-39188D01*
X63525Y-39150D01*
X63508Y-39130D01*
X63475Y-39111D01*
X63391Y-39111D01*
X63341Y-39130D01*
X63075Y-39302D02*
X63025Y-39321D01*
X63008Y-39340D01*
X62991Y-39378D01*
X62991Y-39435D01*
X63008Y-39473D01*
X63025Y-39492D01*
X63058Y-39511D01*
X63191Y-39511D01*
X63191Y-39111D01*
X63075Y-39111D01*
X63041Y-39130D01*
X63025Y-39150D01*
X63008Y-39188D01*
X63008Y-39226D01*
X63025Y-39264D01*
X63041Y-39283D01*
X63075Y-39302D01*
X63191Y-39302D01*
X68261Y-34940D02*
X67861Y-34940D01*
X68261Y-35169D01*
X67861Y-35169D01*
X68261Y-35588D02*
X68071Y-35454D01*
X68261Y-35359D02*
X67861Y-35359D01*
X67861Y-35511D01*
X67880Y-35550D01*
X67900Y-35569D01*
X67938Y-35588D01*
X67995Y-35588D01*
X68033Y-35569D01*
X68052Y-35550D01*
X68071Y-35511D01*
X68071Y-35359D01*
X68052Y-35892D02*
X68052Y-35759D01*
X68261Y-35759D02*
X67861Y-35759D01*
X67861Y-35950D01*
X67900Y-36083D02*
X67880Y-36102D01*
X67861Y-36140D01*
X67861Y-36235D01*
X67880Y-36273D01*
X67900Y-36292D01*
X67938Y-36311D01*
X67976Y-36311D01*
X68033Y-36292D01*
X68261Y-36064D01*
X68261Y-36311D01*
X67995Y-36654D02*
X68261Y-36654D01*
X67842Y-36559D02*
X68128Y-36464D01*
X68128Y-36711D01*
X68261Y-37054D02*
X68261Y-36864D01*
X67861Y-36864D01*
X67861Y-37264D02*
X67861Y-37302D01*
X67880Y-37340D01*
X67900Y-37359D01*
X67938Y-37378D01*
X68014Y-37397D01*
X68109Y-37397D01*
X68185Y-37378D01*
X68223Y-37359D01*
X68242Y-37340D01*
X68261Y-37302D01*
X68261Y-37264D01*
X68242Y-37226D01*
X68223Y-37207D01*
X68185Y-37188D01*
X68109Y-37169D01*
X68014Y-37169D01*
X67938Y-37188D01*
X67900Y-37207D01*
X67880Y-37226D01*
X67861Y-37264D01*
X68261Y-37778D02*
X68261Y-37550D01*
X68261Y-37664D02*
X67861Y-37664D01*
X67919Y-37626D01*
X67957Y-37588D01*
X67976Y-37550D01*
X67242Y-32502D02*
X67109Y-32502D01*
X67052Y-32711D02*
X67242Y-32711D01*
X67242Y-32311D01*
X67052Y-32311D01*
X66919Y-32311D02*
X66652Y-32711D01*
X66652Y-32311D02*
X66919Y-32711D01*
X66557Y-32311D02*
X66328Y-32311D01*
X66442Y-32711D02*
X66442Y-32311D01*
X66195Y-32502D02*
X66061Y-32502D01*
X66004Y-32711D02*
X66195Y-32711D01*
X66195Y-32311D01*
X66004Y-32311D01*
X65833Y-32711D02*
X65833Y-32311D01*
X65604Y-32711D01*
X65604Y-32311D01*
X65433Y-32692D02*
X65376Y-32711D01*
X65280Y-32711D01*
X65242Y-32692D01*
X65223Y-32673D01*
X65204Y-32635D01*
X65204Y-32597D01*
X65223Y-32559D01*
X65242Y-32540D01*
X65280Y-32521D01*
X65357Y-32502D01*
X65395Y-32483D01*
X65414Y-32464D01*
X65433Y-32426D01*
X65433Y-32388D01*
X65414Y-32350D01*
X65395Y-32330D01*
X65357Y-32311D01*
X65261Y-32311D01*
X65204Y-32330D01*
X65033Y-32711D02*
X65033Y-32311D01*
X64766Y-32311D02*
X64690Y-32311D01*
X64652Y-32330D01*
X64614Y-32369D01*
X64595Y-32445D01*
X64595Y-32578D01*
X64614Y-32654D01*
X64652Y-32692D01*
X64690Y-32711D01*
X64766Y-32711D01*
X64804Y-32692D01*
X64842Y-32654D01*
X64861Y-32578D01*
X64861Y-32445D01*
X64842Y-32369D01*
X64804Y-32330D01*
X64766Y-32311D01*
X64423Y-32711D02*
X64423Y-32311D01*
X64195Y-32711D01*
X64195Y-32311D01*
X64004Y-32559D02*
X63700Y-32559D01*
X63280Y-32673D02*
X63300Y-32692D01*
X63357Y-32711D01*
X63395Y-32711D01*
X63452Y-32692D01*
X63490Y-32654D01*
X63509Y-32616D01*
X63528Y-32540D01*
X63528Y-32483D01*
X63509Y-32407D01*
X63490Y-32369D01*
X63452Y-32330D01*
X63395Y-32311D01*
X63357Y-32311D01*
X63300Y-32330D01*
X63280Y-32350D01*
X63033Y-32311D02*
X62957Y-32311D01*
X62919Y-32330D01*
X62880Y-32369D01*
X62861Y-32445D01*
X62861Y-32578D01*
X62880Y-32654D01*
X62919Y-32692D01*
X62957Y-32711D01*
X63033Y-32711D01*
X63071Y-32692D01*
X63109Y-32654D01*
X63128Y-32578D01*
X63128Y-32445D01*
X63109Y-32369D01*
X63071Y-32330D01*
X63033Y-32311D01*
X62690Y-32711D02*
X62690Y-32311D01*
X62461Y-32711D01*
X62461Y-32311D01*
X62271Y-32711D02*
X62271Y-32311D01*
X62042Y-32711D01*
X62042Y-32311D01*
X61852Y-32502D02*
X61719Y-32502D01*
X61661Y-32711D02*
X61852Y-32711D01*
X61852Y-32311D01*
X61661Y-32311D01*
X61261Y-32673D02*
X61280Y-32692D01*
X61338Y-32711D01*
X61376Y-32711D01*
X61433Y-32692D01*
X61471Y-32654D01*
X61490Y-32616D01*
X61509Y-32540D01*
X61509Y-32483D01*
X61490Y-32407D01*
X61471Y-32369D01*
X61433Y-32330D01*
X61376Y-32311D01*
X61338Y-32311D01*
X61280Y-32330D01*
X61261Y-32350D01*
X61147Y-32311D02*
X60919Y-32311D01*
X61033Y-32711D02*
X61033Y-32311D01*
X60709Y-32311D02*
X60633Y-32311D01*
X60595Y-32330D01*
X60557Y-32369D01*
X60538Y-32445D01*
X60538Y-32578D01*
X60557Y-32654D01*
X60595Y-32692D01*
X60633Y-32711D01*
X60709Y-32711D01*
X60747Y-32692D01*
X60785Y-32654D01*
X60804Y-32578D01*
X60804Y-32445D01*
X60785Y-32369D01*
X60747Y-32330D01*
X60709Y-32311D01*
X60138Y-32711D02*
X60271Y-32521D01*
X60366Y-32711D02*
X60366Y-32311D01*
X60214Y-32311D01*
X60176Y-32330D01*
X60157Y-32350D01*
X60138Y-32388D01*
X60138Y-32445D01*
X60157Y-32483D01*
X60176Y-32502D01*
X60214Y-32521D01*
X60366Y-32521D01*
G54D14*
X68131Y-39920D02*
X68417Y-39920D01*
X68474Y-39905D01*
X68512Y-39877D01*
X68531Y-39834D01*
X68531Y-39805D01*
X68531Y-40062D02*
X68131Y-40062D01*
X68131Y-40177D01*
X68150Y-40205D01*
X68170Y-40220D01*
X68208Y-40234D01*
X68265Y-40234D01*
X68303Y-40220D01*
X68322Y-40205D01*
X68341Y-40177D01*
X68341Y-40062D01*
X68531Y-40520D02*
X68531Y-40348D01*
X68531Y-40434D02*
X68131Y-40434D01*
X68189Y-40405D01*
X68227Y-40377D01*
X68246Y-40348D01*
G54D17*
X58386Y-38665D02*
X58396Y-38675D01*
X58424Y-38684D01*
X58442Y-38684D01*
X58471Y-38675D01*
X58489Y-38656D01*
X58499Y-38637D01*
X58508Y-38600D01*
X58508Y-38572D01*
X58499Y-38534D01*
X58489Y-38515D01*
X58471Y-38497D01*
X58442Y-38487D01*
X58424Y-38487D01*
X58396Y-38497D01*
X58386Y-38506D01*
X58199Y-38684D02*
X58311Y-38684D01*
X58255Y-38684D02*
X58255Y-38487D01*
X58274Y-38515D01*
X58292Y-38534D01*
X58311Y-38544D01*
X58077Y-38487D02*
X58058Y-38487D01*
X58039Y-38497D01*
X58030Y-38506D01*
X58020Y-38525D01*
X58011Y-38562D01*
X58011Y-38609D01*
X58020Y-38647D01*
X58030Y-38665D01*
X58039Y-38675D01*
X58058Y-38684D01*
X58077Y-38684D01*
X58095Y-38675D01*
X58105Y-38665D01*
X58114Y-38647D01*
X58123Y-38609D01*
X58123Y-38562D01*
X58114Y-38525D01*
X58105Y-38506D01*
X58095Y-38497D01*
X58077Y-38487D01*
X63082Y-33645D02*
X63092Y-33655D01*
X63120Y-33664D01*
X63139Y-33664D01*
X63167Y-33655D01*
X63186Y-33636D01*
X63195Y-33617D01*
X63204Y-33580D01*
X63204Y-33552D01*
X63195Y-33514D01*
X63186Y-33495D01*
X63167Y-33477D01*
X63139Y-33467D01*
X63120Y-33467D01*
X63092Y-33477D01*
X63082Y-33486D01*
X62970Y-33552D02*
X62989Y-33542D01*
X62998Y-33533D01*
X63007Y-33514D01*
X63007Y-33505D01*
X62998Y-33486D01*
X62989Y-33477D01*
X62970Y-33467D01*
X62932Y-33467D01*
X62913Y-33477D01*
X62904Y-33486D01*
X62895Y-33505D01*
X62895Y-33514D01*
X62904Y-33533D01*
X62913Y-33542D01*
X62932Y-33552D01*
X62970Y-33552D01*
X62989Y-33561D01*
X62998Y-33570D01*
X63007Y-33589D01*
X63007Y-33627D01*
X62998Y-33645D01*
X62989Y-33655D01*
X62970Y-33664D01*
X62932Y-33664D01*
X62913Y-33655D01*
X62904Y-33645D01*
X62895Y-33627D01*
X62895Y-33589D01*
X62904Y-33570D01*
X62913Y-33561D01*
X62932Y-33552D01*
X53736Y-35865D02*
X53746Y-35875D01*
X53774Y-35884D01*
X53792Y-35884D01*
X53821Y-35875D01*
X53839Y-35856D01*
X53849Y-35837D01*
X53858Y-35800D01*
X53858Y-35772D01*
X53849Y-35734D01*
X53839Y-35715D01*
X53821Y-35697D01*
X53792Y-35687D01*
X53774Y-35687D01*
X53746Y-35697D01*
X53736Y-35706D01*
X53549Y-35884D02*
X53661Y-35884D01*
X53605Y-35884D02*
X53605Y-35687D01*
X53624Y-35715D01*
X53642Y-35734D01*
X53661Y-35744D01*
X53473Y-35706D02*
X53464Y-35697D01*
X53445Y-35687D01*
X53398Y-35687D01*
X53380Y-35697D01*
X53370Y-35706D01*
X53361Y-35725D01*
X53361Y-35744D01*
X53370Y-35772D01*
X53483Y-35884D01*
X53361Y-35884D01*
G54D15*
X48611Y-33435D02*
X48611Y-33664D01*
X49011Y-33550D02*
X48611Y-33550D01*
X48992Y-33778D02*
X49011Y-33835D01*
X49011Y-33930D01*
X48992Y-33969D01*
X48973Y-33988D01*
X48935Y-34007D01*
X48897Y-34007D01*
X48859Y-33988D01*
X48840Y-33969D01*
X48821Y-33930D01*
X48802Y-33854D01*
X48783Y-33816D01*
X48764Y-33797D01*
X48726Y-33778D01*
X48688Y-33778D01*
X48650Y-33797D01*
X48630Y-33816D01*
X48611Y-33854D01*
X48611Y-33950D01*
X48630Y-34007D01*
X48611Y-34254D02*
X48611Y-34330D01*
X48630Y-34369D01*
X48669Y-34407D01*
X48745Y-34426D01*
X48878Y-34426D01*
X48954Y-34407D01*
X48992Y-34369D01*
X49011Y-34330D01*
X49011Y-34254D01*
X48992Y-34216D01*
X48954Y-34178D01*
X48878Y-34159D01*
X48745Y-34159D01*
X48669Y-34178D01*
X48630Y-34216D01*
X48611Y-34254D01*
X49011Y-34597D02*
X48611Y-34597D01*
X48611Y-34750D01*
X48630Y-34788D01*
X48650Y-34807D01*
X48688Y-34826D01*
X48745Y-34826D01*
X48783Y-34807D01*
X48802Y-34788D01*
X48821Y-34750D01*
X48821Y-34597D01*
G54D21*
X69403Y-40150D02*
X69432Y-40135D01*
X69460Y-40107D01*
X69503Y-40064D01*
X69532Y-40050D01*
X69560Y-40050D01*
X69546Y-40121D02*
X69575Y-40107D01*
X69603Y-40078D01*
X69617Y-40021D01*
X69617Y-39921D01*
X69603Y-39864D01*
X69575Y-39835D01*
X69546Y-39821D01*
X69489Y-39821D01*
X69460Y-39835D01*
X69432Y-39864D01*
X69417Y-39921D01*
X69417Y-40021D01*
X69432Y-40078D01*
X69460Y-40107D01*
X69489Y-40121D01*
X69546Y-40121D01*
X69160Y-39921D02*
X69160Y-40121D01*
X69232Y-39807D02*
X69303Y-40021D01*
X69117Y-40021D01*
X70424Y-39271D02*
X70424Y-38971D01*
X70324Y-39185D01*
X70224Y-38971D01*
X70224Y-39271D01*
X70025Y-38971D02*
X69967Y-38971D01*
X69939Y-38985D01*
X69910Y-39014D01*
X69896Y-39071D01*
X69896Y-39171D01*
X69910Y-39228D01*
X69939Y-39257D01*
X69967Y-39271D01*
X70025Y-39271D01*
X70053Y-39257D01*
X70082Y-39228D01*
X70096Y-39171D01*
X70096Y-39071D01*
X70082Y-39014D01*
X70053Y-38985D01*
X70025Y-38971D01*
X69782Y-39257D02*
X69739Y-39271D01*
X69667Y-39271D01*
X69639Y-39257D01*
X69624Y-39242D01*
X69610Y-39214D01*
X69610Y-39185D01*
X69624Y-39157D01*
X69639Y-39142D01*
X69667Y-39128D01*
X69724Y-39114D01*
X69753Y-39100D01*
X69767Y-39085D01*
X69782Y-39057D01*
X69782Y-39028D01*
X69767Y-39000D01*
X69753Y-38985D01*
X69724Y-38971D01*
X69653Y-38971D01*
X69610Y-38985D01*
X69382Y-39114D02*
X69482Y-39114D01*
X69482Y-39271D02*
X69482Y-38971D01*
X69339Y-38971D01*
X69224Y-39114D02*
X69124Y-39114D01*
X69082Y-39271D02*
X69224Y-39271D01*
X69224Y-38971D01*
X69082Y-38971D01*
X68996Y-38971D02*
X68824Y-38971D01*
X68910Y-39271D02*
X68910Y-38971D01*
X68796Y-39300D02*
X68567Y-39300D01*
X68496Y-39271D02*
X68496Y-38971D01*
X68325Y-39271D01*
X68325Y-38971D01*
G54D20*
X48952Y-36945D02*
X48971Y-37002D01*
X48990Y-37021D01*
X49028Y-37040D01*
X49085Y-37040D01*
X49123Y-37021D01*
X49142Y-37002D01*
X49161Y-36964D01*
X49161Y-36811D01*
X48761Y-36811D01*
X48761Y-36945D01*
X48780Y-36983D01*
X48800Y-37002D01*
X48838Y-37021D01*
X48876Y-37021D01*
X48914Y-37002D01*
X48933Y-36983D01*
X48952Y-36945D01*
X48952Y-36811D01*
X48895Y-37383D02*
X49161Y-37383D01*
X48895Y-37211D02*
X49104Y-37211D01*
X49142Y-37230D01*
X49161Y-37269D01*
X49161Y-37326D01*
X49142Y-37364D01*
X49123Y-37383D01*
X48895Y-37516D02*
X48895Y-37669D01*
X48761Y-37573D02*
X49104Y-37573D01*
X49142Y-37592D01*
X49161Y-37630D01*
X49161Y-37669D01*
X48895Y-37745D02*
X48895Y-37897D01*
X48761Y-37802D02*
X49104Y-37802D01*
X49142Y-37821D01*
X49161Y-37859D01*
X49161Y-37897D01*
X49161Y-38088D02*
X49142Y-38050D01*
X49123Y-38030D01*
X49085Y-38011D01*
X48971Y-38011D01*
X48933Y-38030D01*
X48914Y-38050D01*
X48895Y-38088D01*
X48895Y-38145D01*
X48914Y-38183D01*
X48933Y-38202D01*
X48971Y-38221D01*
X49085Y-38221D01*
X49123Y-38202D01*
X49142Y-38183D01*
X49161Y-38145D01*
X49161Y-38088D01*
X48895Y-38392D02*
X49161Y-38392D01*
X48933Y-38392D02*
X48914Y-38411D01*
X48895Y-38450D01*
X48895Y-38507D01*
X48914Y-38545D01*
X48952Y-38564D01*
X49161Y-38564D01*
X49142Y-38735D02*
X49161Y-38773D01*
X49161Y-38850D01*
X49142Y-38888D01*
X49104Y-38907D01*
X49085Y-38907D01*
X49047Y-38888D01*
X49028Y-38850D01*
X49028Y-38792D01*
X49009Y-38754D01*
X48971Y-38735D01*
X48952Y-38735D01*
X48914Y-38754D01*
X48895Y-38792D01*
X48895Y-38850D01*
X48914Y-38888D01*
G54D15*
X69571Y-32471D02*
X69571Y-32171D01*
X69457Y-32171D01*
X69428Y-32185D01*
X69414Y-32200D01*
X69400Y-32228D01*
X69400Y-32271D01*
X69414Y-32300D01*
X69428Y-32314D01*
X69457Y-32328D01*
X69571Y-32328D01*
X69300Y-32171D02*
X69100Y-32171D01*
X69228Y-32471D01*
X53564Y-40871D02*
X53564Y-40571D01*
X53450Y-40571D01*
X53421Y-40585D01*
X53407Y-40600D01*
X53392Y-40628D01*
X53392Y-40671D01*
X53407Y-40700D01*
X53421Y-40714D01*
X53450Y-40728D01*
X53564Y-40728D01*
X53107Y-40871D02*
X53278Y-40871D01*
X53192Y-40871D02*
X53192Y-40571D01*
X53221Y-40614D01*
X53250Y-40642D01*
X53278Y-40657D01*
X53007Y-40571D02*
X52821Y-40571D01*
X52921Y-40685D01*
X52878Y-40685D01*
X52850Y-40700D01*
X52835Y-40714D01*
X52821Y-40742D01*
X52821Y-40814D01*
X52835Y-40842D01*
X52850Y-40857D01*
X52878Y-40871D01*
X52964Y-40871D01*
X52992Y-40857D01*
X53007Y-40842D01*
M02*
