G04 (created by PCBNEW (2013-may-18)-stable) date Чт 26 май 2016 23:42:55*
%MOIN*%
G04 Gerber Fmt 3.4, Leading zero omitted, Abs format*
%FSLAX34Y34*%
G01*
G70*
G90*
G04 APERTURE LIST*
%ADD10C,0.00590551*%
G04 APERTURE END LIST*
G54D10*
X46600Y-36700D02*
X46600Y-43000D01*
X39400Y-36700D02*
X46600Y-36700D01*
X39400Y-43975D02*
X39400Y-36700D01*
X46600Y-34900D02*
X46600Y-29500D01*
X39400Y-34900D02*
X46600Y-34900D01*
X39400Y-28775D02*
X39400Y-34900D01*
X37775Y-42725D02*
X37775Y-43975D01*
X37775Y-28775D02*
X37775Y-42725D01*
X66075Y-43000D02*
X70750Y-43000D01*
X66075Y-44000D02*
X66075Y-43000D01*
X64475Y-43000D02*
X64475Y-44000D01*
X52775Y-43000D02*
X64475Y-43000D01*
X52775Y-43950D02*
X52775Y-43000D01*
X51150Y-43000D02*
X51150Y-43950D01*
X46700Y-43000D02*
X51150Y-43000D01*
X37781Y-43970D02*
G75*
G03X39407Y-43961I843J-5779D01*
G74*
G01*
X51156Y-43945D02*
G75*
G03X52782Y-43936I843J-5779D01*
G74*
G01*
X64456Y-43995D02*
G75*
G03X66082Y-43986I843J-5779D01*
G74*
G01*
X51025Y-29500D02*
X46600Y-29500D01*
X51025Y-28800D02*
X51025Y-29500D01*
X52650Y-29500D02*
X64425Y-29500D01*
X52650Y-28800D02*
X52650Y-29500D01*
X39393Y-28779D02*
G75*
G03X37767Y-28788I-843J5779D01*
G74*
G01*
X64425Y-28950D02*
X64425Y-29500D01*
X66050Y-29500D02*
X70750Y-29500D01*
X66050Y-28925D02*
X66050Y-29500D01*
X52643Y-28804D02*
G75*
G03X51017Y-28813I-843J5779D01*
G74*
G01*
X66043Y-28929D02*
G75*
G03X64417Y-28938I-843J5779D01*
G74*
G01*
X46600Y-43000D02*
X46700Y-43000D01*
X70750Y-43000D02*
X70750Y-29500D01*
M02*
