G04 (created by PCBNEW (2013-may-18)-stable) date Пт 05 июн 2015 10:56:45*
%MOIN*%
G04 Gerber Fmt 3.4, Leading zero omitted, Abs format*
%FSLAX34Y34*%
G01*
G70*
G90*
G04 APERTURE LIST*
%ADD10C,0.00590551*%
%ADD11R,0.06X0.06*%
%ADD12C,0.06*%
%ADD13R,0.036X0.036*%
%ADD14R,0.02X0.045*%
%ADD15R,0.055X0.035*%
%ADD16R,0.1004X0.0984*%
%ADD17R,0.0984X0.1004*%
%ADD18C,0.16*%
%ADD19C,0.023622*%
%ADD20C,0.01*%
%ADD21C,0.023622*%
%ADD22C,0.00787402*%
G04 APERTURE END LIST*
G54D10*
G54D11*
X41759Y-18751D03*
G54D12*
X40759Y-18751D03*
X41759Y-19751D03*
X40759Y-19751D03*
X41759Y-20751D03*
X40759Y-20751D03*
X41759Y-21751D03*
X40759Y-21751D03*
X41759Y-22751D03*
X40759Y-22751D03*
X41759Y-23751D03*
X40759Y-23751D03*
X41759Y-24751D03*
X40759Y-24751D03*
X41759Y-25751D03*
X40759Y-25751D03*
X41759Y-26751D03*
X40759Y-26751D03*
X41759Y-27751D03*
X40759Y-27751D03*
G54D11*
X26287Y-18751D03*
G54D12*
X25287Y-18751D03*
X26287Y-19751D03*
X25287Y-19751D03*
X26287Y-20751D03*
X25287Y-20751D03*
X26287Y-21751D03*
X25287Y-21751D03*
X26287Y-22751D03*
X25287Y-22751D03*
X26287Y-23751D03*
X25287Y-23751D03*
X26287Y-24751D03*
X25287Y-24751D03*
X26287Y-25751D03*
X25287Y-25751D03*
X26287Y-26751D03*
X25287Y-26751D03*
X26287Y-27751D03*
X25287Y-27751D03*
G54D11*
X29814Y-27322D03*
G54D12*
X30814Y-27322D03*
G54D13*
X31697Y-25584D03*
X32397Y-25584D03*
X32047Y-26384D03*
X27592Y-26294D03*
X27592Y-25594D03*
X28392Y-25944D03*
X33114Y-25584D03*
X33814Y-25584D03*
X33464Y-26384D03*
X29285Y-24798D03*
X29285Y-24098D03*
X30085Y-24448D03*
X27592Y-24798D03*
X27592Y-24098D03*
X28392Y-24448D03*
X32515Y-20636D03*
X31815Y-20636D03*
X32165Y-19836D03*
G54D14*
X36045Y-22490D03*
X37045Y-22490D03*
X37545Y-22490D03*
X38045Y-22490D03*
X38545Y-22490D03*
X39045Y-22490D03*
X39545Y-22490D03*
X39545Y-24990D03*
X39045Y-24990D03*
X38545Y-24990D03*
X38045Y-24990D03*
X37545Y-24990D03*
X37045Y-24990D03*
X36545Y-24990D03*
X36045Y-24990D03*
X36545Y-22490D03*
G54D15*
X29212Y-25648D03*
X29212Y-26398D03*
X30629Y-25648D03*
X30629Y-26398D03*
X29921Y-25648D03*
X29921Y-26398D03*
X35039Y-21376D03*
X35039Y-22126D03*
X32834Y-21357D03*
X32834Y-22107D03*
X31988Y-22441D03*
X31988Y-21691D03*
G54D11*
X36531Y-18751D03*
G54D12*
X36531Y-19751D03*
X37531Y-18751D03*
X37531Y-19751D03*
X38531Y-18751D03*
X38531Y-19751D03*
X39531Y-18751D03*
X39531Y-19751D03*
G54D11*
X36531Y-26822D03*
G54D12*
X36531Y-27822D03*
X37531Y-26822D03*
X37531Y-27822D03*
X38531Y-26822D03*
X38531Y-27822D03*
X39531Y-26822D03*
X39531Y-27822D03*
G54D11*
X27633Y-19133D03*
G54D12*
X28633Y-19133D03*
X29633Y-19133D03*
X30633Y-19133D03*
G54D11*
X42992Y-20940D03*
G54D12*
X42992Y-21940D03*
X42992Y-22940D03*
X42992Y-23940D03*
G54D11*
X43228Y-25377D03*
G54D12*
X43228Y-26377D03*
X43228Y-27377D03*
G54D11*
X27570Y-27322D03*
G54D12*
X28570Y-27322D03*
G54D11*
X35224Y-19133D03*
G54D12*
X34224Y-19133D03*
G54D11*
X32940Y-19133D03*
G54D12*
X31940Y-19133D03*
G54D11*
X32059Y-27322D03*
G54D12*
X33059Y-27322D03*
G54D11*
X34303Y-27322D03*
G54D12*
X35303Y-27322D03*
G54D16*
X30954Y-21732D03*
X28966Y-21732D03*
G54D17*
X33976Y-20462D03*
X33976Y-22450D03*
G54D16*
X36801Y-21181D03*
X38789Y-21181D03*
G54D18*
X43346Y-19153D03*
X32795Y-23897D03*
G54D19*
X37145Y-22972D03*
X39527Y-25590D03*
X30944Y-19724D03*
X27696Y-21712D03*
X27913Y-20748D03*
X31299Y-24744D03*
X32736Y-26318D03*
X39763Y-21496D03*
X28818Y-24763D03*
X33110Y-25157D03*
X39921Y-24822D03*
X36082Y-21003D03*
X37047Y-21968D03*
X40984Y-25236D03*
X40374Y-25137D03*
X38622Y-19251D03*
X27795Y-22519D03*
X34901Y-22716D03*
X26948Y-23267D03*
X27559Y-22775D03*
X39055Y-22992D03*
X27854Y-22992D03*
X31338Y-20551D03*
X35275Y-24192D03*
X38051Y-25452D03*
G54D20*
X36751Y-20472D02*
X36801Y-20472D01*
X36781Y-20472D02*
X36751Y-20472D01*
X36801Y-20452D02*
X36781Y-20472D01*
X39330Y-20452D02*
X36801Y-20452D01*
X40236Y-21358D02*
X39330Y-20452D01*
X40236Y-24881D02*
X40236Y-21358D01*
X39527Y-25590D02*
X40236Y-24881D01*
G54D21*
X30629Y-18228D02*
X35492Y-18228D01*
X35905Y-19125D02*
X36531Y-19751D01*
X35905Y-18641D02*
X35905Y-19125D01*
X35492Y-18228D02*
X35905Y-18641D01*
X36531Y-19751D02*
X36531Y-20055D01*
X36801Y-20324D02*
X36801Y-20472D01*
X36531Y-20055D02*
X36801Y-20324D01*
X36801Y-20472D02*
X36801Y-21181D01*
X25811Y-18228D02*
X25287Y-18751D01*
X30629Y-18228D02*
X25811Y-18228D01*
X31220Y-18818D02*
X30629Y-18228D01*
X31220Y-19448D02*
X31220Y-18818D01*
X30944Y-19724D02*
X31220Y-19448D01*
X27716Y-21732D02*
X27696Y-21712D01*
X28966Y-21732D02*
X27716Y-21732D01*
X33114Y-25584D02*
X33114Y-25940D01*
X33114Y-25940D02*
X32736Y-26318D01*
X38789Y-21181D02*
X39448Y-21181D01*
X39448Y-21181D02*
X39763Y-21496D01*
X35039Y-22126D02*
X34300Y-22126D01*
X34300Y-22126D02*
X33976Y-22450D01*
X29285Y-24798D02*
X28853Y-24798D01*
X28853Y-24798D02*
X28818Y-24763D01*
X33114Y-25584D02*
X33114Y-25161D01*
X33114Y-25161D02*
X33110Y-25157D01*
X39545Y-24990D02*
X39753Y-24990D01*
X39753Y-24990D02*
X39921Y-24822D01*
G54D20*
X25287Y-19751D02*
X25748Y-19291D01*
X27515Y-19251D02*
X27633Y-19133D01*
X25787Y-19251D02*
X27515Y-19251D01*
X25748Y-19291D02*
X25787Y-19251D01*
G54D21*
X36045Y-22490D02*
X36045Y-21438D01*
X34224Y-19204D02*
X34224Y-19133D01*
X34862Y-19842D02*
X34224Y-19204D01*
X34862Y-20255D02*
X34862Y-19842D01*
X36045Y-21438D02*
X34862Y-20255D01*
X37045Y-22490D02*
X37045Y-21970D01*
X35224Y-20145D02*
X35224Y-19133D01*
X36082Y-21003D02*
X35224Y-20145D01*
X37045Y-21970D02*
X37047Y-21968D01*
G54D20*
X38531Y-26822D02*
X38531Y-27114D01*
X41759Y-27019D02*
X41759Y-26751D01*
X41535Y-27244D02*
X41759Y-27019D01*
X40472Y-27244D02*
X41535Y-27244D01*
X40393Y-27322D02*
X40472Y-27244D01*
X38740Y-27322D02*
X40393Y-27322D01*
X38531Y-27114D02*
X38740Y-27322D01*
X36531Y-26822D02*
X36531Y-26480D01*
X41468Y-24751D02*
X41759Y-24751D01*
X40984Y-25236D02*
X41468Y-24751D01*
X40374Y-25236D02*
X40374Y-25137D01*
X40136Y-25474D02*
X40374Y-25236D01*
X40136Y-25733D02*
X40136Y-25474D01*
X40027Y-25841D02*
X40136Y-25733D01*
X37170Y-25841D02*
X40027Y-25841D01*
X36531Y-26480D02*
X37170Y-25841D01*
X36531Y-27822D02*
X36566Y-27822D01*
X40759Y-25125D02*
X40759Y-24751D01*
X40314Y-25570D02*
X40759Y-25125D01*
X40314Y-25807D02*
X40314Y-25570D01*
X40101Y-26020D02*
X40314Y-25807D01*
X37483Y-26020D02*
X40101Y-26020D01*
X37047Y-26456D02*
X37483Y-26020D01*
X37047Y-27342D02*
X37047Y-26456D01*
X36566Y-27822D02*
X37047Y-27342D01*
X37531Y-26822D02*
X37668Y-26822D01*
X40704Y-25751D02*
X40759Y-25751D01*
X40257Y-26199D02*
X40704Y-25751D01*
X38292Y-26199D02*
X40257Y-26199D01*
X37668Y-26822D02*
X38292Y-26199D01*
X37531Y-27822D02*
X38031Y-27322D01*
X41251Y-26259D02*
X41759Y-25751D01*
X40452Y-26259D02*
X41251Y-26259D01*
X40334Y-26377D02*
X40452Y-26259D01*
X38366Y-26377D02*
X40334Y-26377D01*
X38031Y-26712D02*
X38366Y-26377D01*
X38031Y-27322D02*
X38031Y-26712D01*
X37531Y-19751D02*
X38031Y-19251D01*
X38031Y-19251D02*
X38622Y-19251D01*
X38531Y-18751D02*
X38531Y-18807D01*
X40696Y-19751D02*
X40759Y-19751D01*
X40196Y-19251D02*
X40696Y-19751D01*
X38976Y-19251D02*
X40196Y-19251D01*
X38531Y-18807D02*
X38976Y-19251D01*
X38531Y-19751D02*
X38807Y-19751D01*
X40244Y-20236D02*
X40759Y-20751D01*
X39291Y-20236D02*
X40244Y-20236D01*
X38807Y-19751D02*
X39291Y-20236D01*
X39531Y-18751D02*
X39972Y-18751D01*
X41259Y-20251D02*
X41759Y-20751D01*
X41259Y-19448D02*
X41259Y-20251D01*
X41062Y-19251D02*
X41259Y-19448D01*
X40472Y-19251D02*
X41062Y-19251D01*
X39972Y-18751D02*
X40472Y-19251D01*
X26860Y-23573D02*
X27362Y-23573D01*
X25291Y-22751D02*
X25846Y-23307D01*
X25846Y-23307D02*
X26594Y-23307D01*
X26594Y-23307D02*
X26860Y-23573D01*
X33814Y-25584D02*
X33814Y-25251D01*
X25291Y-22751D02*
X25287Y-22751D01*
X33444Y-24881D02*
X33814Y-25251D01*
X32430Y-24881D02*
X33444Y-24881D01*
X31122Y-23573D02*
X32430Y-24881D01*
X31023Y-23573D02*
X31122Y-23573D01*
X27362Y-23573D02*
X31023Y-23573D01*
X31988Y-22441D02*
X32302Y-22441D01*
X32636Y-22107D02*
X32834Y-22107D01*
X32302Y-22441D02*
X32636Y-22107D01*
X31672Y-22441D02*
X31988Y-22441D01*
X31594Y-22519D02*
X31672Y-22441D01*
X31259Y-22519D02*
X31594Y-22519D01*
X31023Y-22519D02*
X31259Y-22519D01*
X30314Y-22519D02*
X31023Y-22519D01*
X27795Y-22519D02*
X30314Y-22519D01*
X26287Y-23751D02*
X30956Y-23751D01*
X32397Y-25192D02*
X32397Y-25584D01*
X30956Y-23751D02*
X32397Y-25192D01*
G54D21*
X32059Y-27322D02*
X32059Y-26396D01*
X32059Y-26396D02*
X32047Y-26384D01*
X33059Y-27322D02*
X33059Y-26789D01*
X33059Y-26789D02*
X33464Y-26384D01*
G54D20*
X42299Y-23248D02*
X42992Y-23940D01*
X41299Y-23248D02*
X42299Y-23248D01*
X40759Y-22751D02*
X40803Y-22751D01*
X40803Y-22751D02*
X41299Y-23248D01*
X41759Y-22751D02*
X42803Y-22751D01*
X42803Y-22751D02*
X42992Y-22940D01*
G54D21*
X30085Y-24448D02*
X30236Y-24448D01*
X30629Y-24842D02*
X30629Y-25648D01*
X30236Y-24448D02*
X30629Y-24842D01*
X29814Y-27322D02*
X29814Y-26504D01*
X29814Y-26504D02*
X29921Y-26398D01*
X29921Y-26398D02*
X30629Y-26398D01*
X29212Y-26398D02*
X29921Y-26398D01*
X28392Y-25944D02*
X28392Y-25859D01*
X28603Y-25648D02*
X29212Y-25648D01*
X28392Y-25859D02*
X28603Y-25648D01*
X29921Y-25648D02*
X29921Y-25354D01*
X28392Y-24888D02*
X28392Y-24448D01*
X28740Y-25236D02*
X28392Y-24888D01*
X29803Y-25236D02*
X28740Y-25236D01*
X29921Y-25354D02*
X29803Y-25236D01*
G54D20*
X28101Y-23394D02*
X28797Y-22698D01*
X28797Y-22698D02*
X31537Y-22698D01*
X31537Y-22698D02*
X31653Y-22814D01*
X31653Y-22814D02*
X33110Y-22814D01*
X33110Y-22814D02*
X33385Y-23090D01*
X33385Y-23090D02*
X34527Y-23090D01*
X34527Y-23090D02*
X34901Y-22716D01*
X26948Y-23267D02*
X27075Y-23394D01*
X27075Y-23394D02*
X28101Y-23394D01*
X25779Y-22244D02*
X25287Y-21751D01*
X27027Y-22244D02*
X25779Y-22244D01*
X27559Y-22775D02*
X27027Y-22244D01*
G54D21*
X31940Y-19133D02*
X31940Y-19633D01*
X32143Y-19836D02*
X32165Y-19836D01*
X31940Y-19633D02*
X32143Y-19836D01*
G54D20*
X25287Y-26751D02*
X25334Y-26751D01*
X27397Y-25594D02*
X27592Y-25594D01*
X26732Y-26259D02*
X27397Y-25594D01*
X25826Y-26259D02*
X26732Y-26259D01*
X25334Y-26751D02*
X25826Y-26259D01*
X26287Y-25751D02*
X26295Y-25751D01*
X28105Y-24098D02*
X29285Y-24098D01*
X27992Y-24212D02*
X28105Y-24098D01*
X27992Y-24960D02*
X27992Y-24212D01*
X27755Y-25196D02*
X27992Y-24960D01*
X26850Y-25196D02*
X27755Y-25196D01*
X26295Y-25751D02*
X26850Y-25196D01*
X26287Y-25751D02*
X26304Y-25751D01*
X25287Y-24751D02*
X25287Y-24712D01*
X27438Y-24251D02*
X27592Y-24098D01*
X25748Y-24251D02*
X27438Y-24251D01*
X25287Y-24712D02*
X25748Y-24251D01*
X39045Y-22490D02*
X39045Y-22982D01*
X39045Y-22982D02*
X39055Y-22992D01*
X26807Y-22751D02*
X26287Y-22751D01*
X27125Y-23070D02*
X26807Y-22751D01*
X27775Y-23070D02*
X27125Y-23070D01*
X27854Y-22992D02*
X27775Y-23070D01*
G54D21*
X37893Y-24990D02*
X37893Y-22647D01*
X37893Y-22647D02*
X37736Y-22490D01*
X37736Y-22490D02*
X37736Y-24842D01*
X37736Y-24842D02*
X37588Y-24990D01*
X37588Y-24990D02*
X37545Y-24990D01*
X37545Y-22490D02*
X37736Y-22490D01*
X37736Y-22490D02*
X38045Y-22490D01*
X37545Y-24990D02*
X37893Y-24990D01*
X37893Y-24990D02*
X38045Y-24990D01*
X31338Y-21230D02*
X30954Y-21614D01*
X31338Y-20551D02*
X31338Y-21230D01*
X38045Y-22490D02*
X38045Y-24990D01*
X37545Y-24990D02*
X37545Y-22490D01*
X30814Y-27322D02*
X30814Y-27350D01*
X33751Y-27874D02*
X34303Y-27322D01*
X31338Y-27874D02*
X33751Y-27874D01*
X30814Y-27350D02*
X31338Y-27874D01*
X35275Y-24192D02*
X35275Y-26456D01*
X34842Y-26889D02*
X34842Y-27322D01*
X35275Y-26456D02*
X34842Y-26889D01*
X35353Y-21376D02*
X35039Y-21376D01*
X35629Y-21653D02*
X35353Y-21376D01*
X35629Y-22500D02*
X35629Y-21653D01*
X35275Y-22854D02*
X35629Y-22500D01*
X35275Y-24192D02*
X35275Y-22854D01*
G54D20*
X32515Y-20636D02*
X32515Y-20822D01*
X32834Y-21141D02*
X32834Y-21357D01*
X32515Y-20822D02*
X32834Y-21141D01*
G54D21*
X33976Y-20462D02*
X33976Y-20925D01*
X33976Y-20925D02*
X34428Y-21376D01*
X34428Y-21376D02*
X35039Y-21376D01*
X38051Y-25452D02*
X38045Y-25446D01*
X38045Y-25446D02*
X38045Y-24990D01*
X32515Y-20636D02*
X33802Y-20636D01*
X33802Y-20636D02*
X33976Y-20462D01*
X38545Y-24990D02*
X38045Y-24990D01*
X32515Y-20636D02*
X32515Y-20468D01*
X31338Y-20275D02*
X31338Y-20551D01*
X31377Y-20236D02*
X31338Y-20275D01*
X32283Y-20236D02*
X31377Y-20236D01*
X32515Y-20468D02*
X32283Y-20236D01*
X34303Y-27322D02*
X34842Y-27322D01*
X34842Y-27322D02*
X35303Y-27322D01*
G54D10*
G36*
X27639Y-24838D02*
X27631Y-24838D01*
X27631Y-24846D01*
X27552Y-24846D01*
X27552Y-24838D01*
X27234Y-24838D01*
X27175Y-24897D01*
X27175Y-25025D01*
X27177Y-25028D01*
X26850Y-25028D01*
X26786Y-25041D01*
X26731Y-25077D01*
X26444Y-25364D01*
X26370Y-25333D01*
X26204Y-25333D01*
X26050Y-25397D01*
X25933Y-25514D01*
X25869Y-25668D01*
X25869Y-25834D01*
X25932Y-25988D01*
X26035Y-26091D01*
X25826Y-26091D01*
X25826Y-26091D01*
X25813Y-26094D01*
X25762Y-26104D01*
X25707Y-26140D01*
X25707Y-26140D01*
X25472Y-26376D01*
X25370Y-26333D01*
X25204Y-26333D01*
X25050Y-26397D01*
X24933Y-26514D01*
X24872Y-26661D01*
X24872Y-25841D01*
X24932Y-25988D01*
X25050Y-26106D01*
X25203Y-26170D01*
X25370Y-26170D01*
X25523Y-26106D01*
X25641Y-25989D01*
X25705Y-25835D01*
X25705Y-25669D01*
X25642Y-25515D01*
X25524Y-25397D01*
X25370Y-25333D01*
X25204Y-25333D01*
X25050Y-25397D01*
X24933Y-25514D01*
X24872Y-25661D01*
X24872Y-24841D01*
X24932Y-24988D01*
X25050Y-25106D01*
X25203Y-25170D01*
X25370Y-25170D01*
X25523Y-25106D01*
X25641Y-24989D01*
X25705Y-24835D01*
X25705Y-24669D01*
X25665Y-24572D01*
X25817Y-24420D01*
X26028Y-24420D01*
X25933Y-24514D01*
X25869Y-24668D01*
X25869Y-24834D01*
X25932Y-24988D01*
X26050Y-25106D01*
X26203Y-25170D01*
X26370Y-25170D01*
X26523Y-25106D01*
X26641Y-24989D01*
X26705Y-24835D01*
X26705Y-24669D01*
X26642Y-24515D01*
X26546Y-24420D01*
X27276Y-24420D01*
X27211Y-24485D01*
X27175Y-24572D01*
X27175Y-24700D01*
X27234Y-24759D01*
X27552Y-24759D01*
X27552Y-24751D01*
X27631Y-24751D01*
X27631Y-24759D01*
X27639Y-24759D01*
X27639Y-24838D01*
X27639Y-24838D01*
G37*
G54D22*
X27639Y-24838D02*
X27631Y-24838D01*
X27631Y-24846D01*
X27552Y-24846D01*
X27552Y-24838D01*
X27234Y-24838D01*
X27175Y-24897D01*
X27175Y-25025D01*
X27177Y-25028D01*
X26850Y-25028D01*
X26786Y-25041D01*
X26731Y-25077D01*
X26444Y-25364D01*
X26370Y-25333D01*
X26204Y-25333D01*
X26050Y-25397D01*
X25933Y-25514D01*
X25869Y-25668D01*
X25869Y-25834D01*
X25932Y-25988D01*
X26035Y-26091D01*
X25826Y-26091D01*
X25826Y-26091D01*
X25813Y-26094D01*
X25762Y-26104D01*
X25707Y-26140D01*
X25707Y-26140D01*
X25472Y-26376D01*
X25370Y-26333D01*
X25204Y-26333D01*
X25050Y-26397D01*
X24933Y-26514D01*
X24872Y-26661D01*
X24872Y-25841D01*
X24932Y-25988D01*
X25050Y-26106D01*
X25203Y-26170D01*
X25370Y-26170D01*
X25523Y-26106D01*
X25641Y-25989D01*
X25705Y-25835D01*
X25705Y-25669D01*
X25642Y-25515D01*
X25524Y-25397D01*
X25370Y-25333D01*
X25204Y-25333D01*
X25050Y-25397D01*
X24933Y-25514D01*
X24872Y-25661D01*
X24872Y-24841D01*
X24932Y-24988D01*
X25050Y-25106D01*
X25203Y-25170D01*
X25370Y-25170D01*
X25523Y-25106D01*
X25641Y-24989D01*
X25705Y-24835D01*
X25705Y-24669D01*
X25665Y-24572D01*
X25817Y-24420D01*
X26028Y-24420D01*
X25933Y-24514D01*
X25869Y-24668D01*
X25869Y-24834D01*
X25932Y-24988D01*
X26050Y-25106D01*
X26203Y-25170D01*
X26370Y-25170D01*
X26523Y-25106D01*
X26641Y-24989D01*
X26705Y-24835D01*
X26705Y-24669D01*
X26642Y-24515D01*
X26546Y-24420D01*
X27276Y-24420D01*
X27211Y-24485D01*
X27175Y-24572D01*
X27175Y-24700D01*
X27234Y-24759D01*
X27552Y-24759D01*
X27552Y-24751D01*
X27631Y-24751D01*
X27631Y-24759D01*
X27639Y-24759D01*
X27639Y-24838D01*
G54D10*
G36*
X36565Y-20570D02*
X36275Y-20570D01*
X36232Y-20588D01*
X36199Y-20622D01*
X36181Y-20665D01*
X36181Y-20712D01*
X36181Y-20768D01*
X35460Y-20047D01*
X35460Y-19551D01*
X35547Y-19551D01*
X35591Y-19534D01*
X35624Y-19500D01*
X35642Y-19457D01*
X35642Y-19410D01*
X35642Y-18810D01*
X35624Y-18767D01*
X35591Y-18733D01*
X35548Y-18715D01*
X35501Y-18715D01*
X34901Y-18715D01*
X34857Y-18733D01*
X34824Y-18766D01*
X34806Y-18810D01*
X34806Y-18857D01*
X34806Y-19452D01*
X34621Y-19267D01*
X34642Y-19217D01*
X34642Y-19051D01*
X34579Y-18897D01*
X34461Y-18779D01*
X34307Y-18715D01*
X34141Y-18715D01*
X33987Y-18779D01*
X33870Y-18896D01*
X33806Y-19050D01*
X33806Y-19216D01*
X33869Y-19370D01*
X33987Y-19488D01*
X34140Y-19551D01*
X34237Y-19551D01*
X34625Y-19940D01*
X34625Y-20255D01*
X34643Y-20346D01*
X34695Y-20422D01*
X35368Y-21096D01*
X35337Y-21083D01*
X35290Y-21083D01*
X34740Y-21083D01*
X34697Y-21101D01*
X34664Y-21134D01*
X34661Y-21140D01*
X34525Y-21140D01*
X34468Y-21082D01*
X34491Y-21082D01*
X34535Y-21064D01*
X34568Y-21031D01*
X34586Y-20988D01*
X34586Y-20941D01*
X34586Y-19937D01*
X34568Y-19893D01*
X34535Y-19860D01*
X34491Y-19842D01*
X34444Y-19842D01*
X33477Y-19842D01*
X33477Y-19387D01*
X33477Y-18880D01*
X33477Y-18786D01*
X33441Y-18699D01*
X33374Y-18633D01*
X33287Y-18597D01*
X33039Y-18597D01*
X32980Y-18656D01*
X32980Y-19094D01*
X33418Y-19094D01*
X33477Y-19035D01*
X33477Y-18880D01*
X33477Y-19387D01*
X33477Y-19232D01*
X33418Y-19173D01*
X32980Y-19173D01*
X32980Y-19611D01*
X33039Y-19670D01*
X33287Y-19670D01*
X33374Y-19634D01*
X33441Y-19567D01*
X33477Y-19481D01*
X33477Y-19387D01*
X33477Y-19842D01*
X33460Y-19842D01*
X33417Y-19860D01*
X33384Y-19893D01*
X33366Y-19937D01*
X33366Y-19984D01*
X33366Y-20400D01*
X32901Y-20400D01*
X32901Y-19611D01*
X32901Y-19173D01*
X32901Y-19094D01*
X32901Y-18656D01*
X32842Y-18597D01*
X32594Y-18597D01*
X32507Y-18633D01*
X32440Y-18699D01*
X32404Y-18786D01*
X32404Y-18880D01*
X32404Y-19035D01*
X32463Y-19094D01*
X32901Y-19094D01*
X32901Y-19173D01*
X32463Y-19173D01*
X32404Y-19232D01*
X32404Y-19387D01*
X32404Y-19481D01*
X32440Y-19567D01*
X32507Y-19634D01*
X32594Y-19670D01*
X32842Y-19670D01*
X32901Y-19611D01*
X32901Y-20400D01*
X32799Y-20400D01*
X32795Y-20389D01*
X32762Y-20356D01*
X32718Y-20338D01*
X32707Y-20338D01*
X32682Y-20301D01*
X32682Y-20301D01*
X32451Y-20069D01*
X32463Y-20039D01*
X32463Y-19992D01*
X32463Y-19632D01*
X32445Y-19589D01*
X32412Y-19556D01*
X32368Y-19538D01*
X32321Y-19538D01*
X32179Y-19538D01*
X32177Y-19536D01*
X32177Y-19488D01*
X32177Y-19488D01*
X32295Y-19371D01*
X32358Y-19217D01*
X32359Y-19051D01*
X32295Y-18897D01*
X32178Y-18779D01*
X32024Y-18715D01*
X31858Y-18715D01*
X31704Y-18779D01*
X31586Y-18896D01*
X31522Y-19050D01*
X31522Y-19216D01*
X31586Y-19370D01*
X31703Y-19488D01*
X31704Y-19488D01*
X31704Y-19633D01*
X31722Y-19724D01*
X31773Y-19800D01*
X31867Y-19894D01*
X31867Y-20000D01*
X31377Y-20000D01*
X31287Y-20017D01*
X31210Y-20069D01*
X31171Y-20108D01*
X31120Y-20185D01*
X31102Y-20275D01*
X31102Y-20550D01*
X31102Y-20597D01*
X31102Y-20598D01*
X31102Y-21122D01*
X30429Y-21122D01*
X30385Y-21140D01*
X30352Y-21173D01*
X30334Y-21216D01*
X30334Y-21263D01*
X30334Y-22247D01*
X30352Y-22291D01*
X30385Y-22324D01*
X30429Y-22342D01*
X30476Y-22342D01*
X31480Y-22342D01*
X31523Y-22324D01*
X31556Y-22291D01*
X31574Y-22247D01*
X31574Y-22200D01*
X31574Y-22062D01*
X31579Y-22067D01*
X31665Y-22103D01*
X31759Y-22103D01*
X31889Y-22103D01*
X31948Y-22044D01*
X31948Y-21731D01*
X31940Y-21731D01*
X31940Y-21652D01*
X31948Y-21652D01*
X31948Y-21339D01*
X31889Y-21280D01*
X31759Y-21280D01*
X31665Y-21280D01*
X31579Y-21316D01*
X31574Y-21321D01*
X31574Y-21230D01*
X31574Y-21230D01*
X31574Y-21230D01*
X31574Y-21230D01*
X31574Y-21046D01*
X31588Y-21052D01*
X31716Y-21052D01*
X31775Y-20993D01*
X31775Y-20675D01*
X31768Y-20675D01*
X31768Y-20596D01*
X31775Y-20596D01*
X31775Y-20588D01*
X31854Y-20588D01*
X31854Y-20596D01*
X31862Y-20596D01*
X31862Y-20675D01*
X31854Y-20675D01*
X31854Y-20993D01*
X31913Y-21052D01*
X32042Y-21052D01*
X32128Y-21016D01*
X32195Y-20950D01*
X32229Y-20868D01*
X32235Y-20883D01*
X32268Y-20916D01*
X32311Y-20934D01*
X32358Y-20934D01*
X32391Y-20934D01*
X32396Y-20941D01*
X32524Y-21069D01*
X32492Y-21082D01*
X32459Y-21115D01*
X32441Y-21158D01*
X32441Y-21205D01*
X32441Y-21361D01*
X32397Y-21316D01*
X32310Y-21280D01*
X32216Y-21280D01*
X32086Y-21280D01*
X32027Y-21339D01*
X32027Y-21652D01*
X32440Y-21652D01*
X32476Y-21616D01*
X32492Y-21632D01*
X32536Y-21650D01*
X32583Y-21650D01*
X33133Y-21650D01*
X33176Y-21632D01*
X33209Y-21599D01*
X33227Y-21555D01*
X33227Y-21508D01*
X33227Y-21158D01*
X33209Y-21115D01*
X33176Y-21082D01*
X33133Y-21064D01*
X33086Y-21064D01*
X32981Y-21064D01*
X32953Y-21022D01*
X32953Y-21022D01*
X32803Y-20872D01*
X33366Y-20872D01*
X33366Y-20988D01*
X33384Y-21031D01*
X33417Y-21064D01*
X33460Y-21082D01*
X33507Y-21082D01*
X33803Y-21082D01*
X33809Y-21092D01*
X34261Y-21544D01*
X34337Y-21595D01*
X34428Y-21613D01*
X34661Y-21613D01*
X34664Y-21618D01*
X34697Y-21652D01*
X34740Y-21670D01*
X34787Y-21670D01*
X35312Y-21670D01*
X35358Y-21715D01*
X35267Y-21715D01*
X35137Y-21715D01*
X35078Y-21774D01*
X35078Y-22087D01*
X35086Y-22087D01*
X35086Y-22166D01*
X35078Y-22166D01*
X35078Y-22174D01*
X35000Y-22174D01*
X35000Y-22166D01*
X34992Y-22166D01*
X34992Y-22087D01*
X35000Y-22087D01*
X35000Y-21774D01*
X34940Y-21715D01*
X34811Y-21715D01*
X34717Y-21715D01*
X34630Y-21751D01*
X34618Y-21764D01*
X34602Y-21748D01*
X34515Y-21712D01*
X34421Y-21712D01*
X34074Y-21712D01*
X34015Y-21771D01*
X34015Y-22411D01*
X34023Y-22411D01*
X34023Y-22490D01*
X34015Y-22490D01*
X34015Y-22497D01*
X33937Y-22497D01*
X33937Y-22490D01*
X33937Y-22411D01*
X33937Y-21771D01*
X33877Y-21712D01*
X33531Y-21712D01*
X33437Y-21712D01*
X33350Y-21748D01*
X33284Y-21815D01*
X33248Y-21901D01*
X33248Y-22352D01*
X33307Y-22411D01*
X33937Y-22411D01*
X33937Y-22490D01*
X33307Y-22490D01*
X33248Y-22549D01*
X33248Y-22715D01*
X33229Y-22696D01*
X33174Y-22659D01*
X33110Y-22646D01*
X33110Y-22646D01*
X32378Y-22646D01*
X32381Y-22640D01*
X32381Y-22593D01*
X32381Y-22587D01*
X32421Y-22560D01*
X32581Y-22400D01*
X32583Y-22400D01*
X33133Y-22400D01*
X33176Y-22382D01*
X33209Y-22349D01*
X33227Y-22305D01*
X33227Y-22258D01*
X33227Y-21908D01*
X33209Y-21865D01*
X33176Y-21832D01*
X33133Y-21814D01*
X33086Y-21814D01*
X32536Y-21814D01*
X32499Y-21829D01*
X32499Y-21790D01*
X32440Y-21731D01*
X32027Y-21731D01*
X32027Y-22044D01*
X32086Y-22103D01*
X32216Y-22103D01*
X32310Y-22103D01*
X32397Y-22067D01*
X32441Y-22022D01*
X32441Y-22064D01*
X32334Y-22171D01*
X32330Y-22166D01*
X32286Y-22148D01*
X32239Y-22148D01*
X31689Y-22148D01*
X31646Y-22166D01*
X31613Y-22199D01*
X31595Y-22243D01*
X31595Y-22290D01*
X31595Y-22295D01*
X31553Y-22323D01*
X31553Y-22323D01*
X31524Y-22351D01*
X31259Y-22351D01*
X31023Y-22351D01*
X30314Y-22351D01*
X30052Y-22351D01*
X30052Y-19051D01*
X29988Y-18897D01*
X29871Y-18779D01*
X29717Y-18715D01*
X29551Y-18715D01*
X29397Y-18779D01*
X29279Y-18896D01*
X29215Y-19050D01*
X29215Y-19216D01*
X29279Y-19370D01*
X29396Y-19488D01*
X29550Y-19551D01*
X29716Y-19552D01*
X29870Y-19488D01*
X29988Y-19371D01*
X30051Y-19217D01*
X30052Y-19051D01*
X30052Y-22351D01*
X29671Y-22351D01*
X29704Y-22271D01*
X29704Y-22177D01*
X29704Y-21287D01*
X29704Y-21193D01*
X29668Y-21106D01*
X29602Y-21039D01*
X29515Y-21004D01*
X29065Y-21004D01*
X29052Y-21017D01*
X29052Y-19051D01*
X28988Y-18897D01*
X28871Y-18779D01*
X28717Y-18715D01*
X28551Y-18715D01*
X28397Y-18779D01*
X28279Y-18896D01*
X28215Y-19050D01*
X28215Y-19216D01*
X28279Y-19370D01*
X28396Y-19488D01*
X28550Y-19551D01*
X28716Y-19552D01*
X28870Y-19488D01*
X28988Y-19371D01*
X29051Y-19217D01*
X29052Y-19051D01*
X29052Y-21017D01*
X29006Y-21063D01*
X29006Y-21692D01*
X29645Y-21692D01*
X29704Y-21633D01*
X29704Y-21287D01*
X29704Y-22177D01*
X29704Y-21830D01*
X29645Y-21771D01*
X29006Y-21771D01*
X29006Y-21779D01*
X28927Y-21779D01*
X28927Y-21771D01*
X28927Y-21692D01*
X28927Y-21063D01*
X28868Y-21004D01*
X28417Y-21004D01*
X28330Y-21039D01*
X28264Y-21106D01*
X28228Y-21193D01*
X28228Y-21287D01*
X28228Y-21633D01*
X28287Y-21692D01*
X28927Y-21692D01*
X28927Y-21771D01*
X28287Y-21771D01*
X28228Y-21830D01*
X28228Y-22177D01*
X28228Y-22271D01*
X28261Y-22351D01*
X27961Y-22351D01*
X27929Y-22319D01*
X27842Y-22283D01*
X27748Y-22283D01*
X27661Y-22319D01*
X27595Y-22385D01*
X27559Y-22472D01*
X27559Y-22537D01*
X27146Y-22125D01*
X27091Y-22088D01*
X27027Y-22075D01*
X27027Y-22075D01*
X26554Y-22075D01*
X26641Y-21989D01*
X26705Y-21835D01*
X26705Y-21669D01*
X26705Y-20669D01*
X26642Y-20515D01*
X26524Y-20397D01*
X26370Y-20333D01*
X26204Y-20333D01*
X26050Y-20397D01*
X25933Y-20514D01*
X25869Y-20668D01*
X25869Y-20834D01*
X25932Y-20988D01*
X26050Y-21106D01*
X26203Y-21170D01*
X26370Y-21170D01*
X26523Y-21106D01*
X26641Y-20989D01*
X26705Y-20835D01*
X26705Y-20669D01*
X26705Y-21669D01*
X26642Y-21515D01*
X26524Y-21397D01*
X26370Y-21333D01*
X26204Y-21333D01*
X26050Y-21397D01*
X25933Y-21514D01*
X25869Y-21668D01*
X25869Y-21834D01*
X25932Y-21988D01*
X26020Y-22075D01*
X25849Y-22075D01*
X25677Y-21903D01*
X25705Y-21835D01*
X25705Y-21669D01*
X25642Y-21515D01*
X25524Y-21397D01*
X25370Y-21333D01*
X25204Y-21333D01*
X25050Y-21397D01*
X24933Y-21514D01*
X24872Y-21661D01*
X24872Y-20841D01*
X24932Y-20988D01*
X25050Y-21106D01*
X25203Y-21170D01*
X25370Y-21170D01*
X25523Y-21106D01*
X25641Y-20989D01*
X25705Y-20835D01*
X25705Y-20669D01*
X25642Y-20515D01*
X25524Y-20397D01*
X25370Y-20333D01*
X25204Y-20333D01*
X25050Y-20397D01*
X24933Y-20514D01*
X24872Y-20661D01*
X24872Y-19841D01*
X24932Y-19988D01*
X25050Y-20106D01*
X25203Y-20170D01*
X25370Y-20170D01*
X25523Y-20106D01*
X25641Y-19989D01*
X25705Y-19835D01*
X25705Y-19669D01*
X25677Y-19600D01*
X25857Y-19420D01*
X26028Y-19420D01*
X25933Y-19514D01*
X25869Y-19668D01*
X25869Y-19834D01*
X25932Y-19988D01*
X26050Y-20106D01*
X26203Y-20170D01*
X26370Y-20170D01*
X26523Y-20106D01*
X26641Y-19989D01*
X26705Y-19835D01*
X26705Y-19669D01*
X26642Y-19515D01*
X26546Y-19420D01*
X27215Y-19420D01*
X27215Y-19457D01*
X27233Y-19500D01*
X27266Y-19533D01*
X27310Y-19551D01*
X27357Y-19551D01*
X27957Y-19551D01*
X28000Y-19534D01*
X28033Y-19500D01*
X28051Y-19457D01*
X28051Y-19410D01*
X28051Y-18810D01*
X28034Y-18767D01*
X28000Y-18733D01*
X27957Y-18715D01*
X27910Y-18715D01*
X27310Y-18715D01*
X27267Y-18733D01*
X27233Y-18766D01*
X27215Y-18810D01*
X27215Y-18857D01*
X27215Y-19083D01*
X26823Y-19083D01*
X26823Y-18850D01*
X26764Y-18791D01*
X26326Y-18791D01*
X26326Y-18799D01*
X26248Y-18799D01*
X26248Y-18791D01*
X25810Y-18791D01*
X25751Y-18850D01*
X25751Y-19091D01*
X25723Y-19096D01*
X25668Y-19133D01*
X25668Y-19133D01*
X25629Y-19172D01*
X25629Y-19172D01*
X25439Y-19362D01*
X25370Y-19333D01*
X25204Y-19333D01*
X25050Y-19397D01*
X24933Y-19514D01*
X24872Y-19661D01*
X24872Y-18841D01*
X24932Y-18988D01*
X25050Y-19106D01*
X25203Y-19170D01*
X25370Y-19170D01*
X25523Y-19106D01*
X25641Y-18989D01*
X25705Y-18835D01*
X25705Y-18669D01*
X25705Y-18668D01*
X25751Y-18622D01*
X25751Y-18653D01*
X25810Y-18712D01*
X26248Y-18712D01*
X26248Y-18704D01*
X26326Y-18704D01*
X26326Y-18712D01*
X26764Y-18712D01*
X26823Y-18653D01*
X26823Y-18464D01*
X30532Y-18464D01*
X30830Y-18762D01*
X30717Y-18715D01*
X30551Y-18715D01*
X30397Y-18779D01*
X30279Y-18896D01*
X30215Y-19050D01*
X30215Y-19216D01*
X30279Y-19370D01*
X30396Y-19488D01*
X30550Y-19551D01*
X30716Y-19552D01*
X30830Y-19505D01*
X30778Y-19557D01*
X30744Y-19590D01*
X30708Y-19677D01*
X30708Y-19771D01*
X30726Y-19814D01*
X30744Y-19858D01*
X30810Y-19924D01*
X30854Y-19942D01*
X30897Y-19960D01*
X30944Y-19960D01*
X30991Y-19960D01*
X31035Y-19942D01*
X31078Y-19924D01*
X31111Y-19891D01*
X31145Y-19858D01*
X31145Y-19858D01*
X31387Y-19615D01*
X31438Y-19539D01*
X31438Y-19539D01*
X31456Y-19448D01*
X31456Y-18818D01*
X31438Y-18728D01*
X31438Y-18728D01*
X31387Y-18651D01*
X31200Y-18464D01*
X35394Y-18464D01*
X35669Y-18739D01*
X35669Y-19125D01*
X35687Y-19216D01*
X35738Y-19293D01*
X36113Y-19668D01*
X36113Y-19668D01*
X36113Y-19834D01*
X36176Y-19988D01*
X36294Y-20106D01*
X36306Y-20111D01*
X36313Y-20145D01*
X36364Y-20222D01*
X36565Y-20422D01*
X36565Y-20472D01*
X36565Y-20570D01*
X36565Y-20570D01*
G37*
G54D22*
X36565Y-20570D02*
X36275Y-20570D01*
X36232Y-20588D01*
X36199Y-20622D01*
X36181Y-20665D01*
X36181Y-20712D01*
X36181Y-20768D01*
X35460Y-20047D01*
X35460Y-19551D01*
X35547Y-19551D01*
X35591Y-19534D01*
X35624Y-19500D01*
X35642Y-19457D01*
X35642Y-19410D01*
X35642Y-18810D01*
X35624Y-18767D01*
X35591Y-18733D01*
X35548Y-18715D01*
X35501Y-18715D01*
X34901Y-18715D01*
X34857Y-18733D01*
X34824Y-18766D01*
X34806Y-18810D01*
X34806Y-18857D01*
X34806Y-19452D01*
X34621Y-19267D01*
X34642Y-19217D01*
X34642Y-19051D01*
X34579Y-18897D01*
X34461Y-18779D01*
X34307Y-18715D01*
X34141Y-18715D01*
X33987Y-18779D01*
X33870Y-18896D01*
X33806Y-19050D01*
X33806Y-19216D01*
X33869Y-19370D01*
X33987Y-19488D01*
X34140Y-19551D01*
X34237Y-19551D01*
X34625Y-19940D01*
X34625Y-20255D01*
X34643Y-20346D01*
X34695Y-20422D01*
X35368Y-21096D01*
X35337Y-21083D01*
X35290Y-21083D01*
X34740Y-21083D01*
X34697Y-21101D01*
X34664Y-21134D01*
X34661Y-21140D01*
X34525Y-21140D01*
X34468Y-21082D01*
X34491Y-21082D01*
X34535Y-21064D01*
X34568Y-21031D01*
X34586Y-20988D01*
X34586Y-20941D01*
X34586Y-19937D01*
X34568Y-19893D01*
X34535Y-19860D01*
X34491Y-19842D01*
X34444Y-19842D01*
X33477Y-19842D01*
X33477Y-19387D01*
X33477Y-18880D01*
X33477Y-18786D01*
X33441Y-18699D01*
X33374Y-18633D01*
X33287Y-18597D01*
X33039Y-18597D01*
X32980Y-18656D01*
X32980Y-19094D01*
X33418Y-19094D01*
X33477Y-19035D01*
X33477Y-18880D01*
X33477Y-19387D01*
X33477Y-19232D01*
X33418Y-19173D01*
X32980Y-19173D01*
X32980Y-19611D01*
X33039Y-19670D01*
X33287Y-19670D01*
X33374Y-19634D01*
X33441Y-19567D01*
X33477Y-19481D01*
X33477Y-19387D01*
X33477Y-19842D01*
X33460Y-19842D01*
X33417Y-19860D01*
X33384Y-19893D01*
X33366Y-19937D01*
X33366Y-19984D01*
X33366Y-20400D01*
X32901Y-20400D01*
X32901Y-19611D01*
X32901Y-19173D01*
X32901Y-19094D01*
X32901Y-18656D01*
X32842Y-18597D01*
X32594Y-18597D01*
X32507Y-18633D01*
X32440Y-18699D01*
X32404Y-18786D01*
X32404Y-18880D01*
X32404Y-19035D01*
X32463Y-19094D01*
X32901Y-19094D01*
X32901Y-19173D01*
X32463Y-19173D01*
X32404Y-19232D01*
X32404Y-19387D01*
X32404Y-19481D01*
X32440Y-19567D01*
X32507Y-19634D01*
X32594Y-19670D01*
X32842Y-19670D01*
X32901Y-19611D01*
X32901Y-20400D01*
X32799Y-20400D01*
X32795Y-20389D01*
X32762Y-20356D01*
X32718Y-20338D01*
X32707Y-20338D01*
X32682Y-20301D01*
X32682Y-20301D01*
X32451Y-20069D01*
X32463Y-20039D01*
X32463Y-19992D01*
X32463Y-19632D01*
X32445Y-19589D01*
X32412Y-19556D01*
X32368Y-19538D01*
X32321Y-19538D01*
X32179Y-19538D01*
X32177Y-19536D01*
X32177Y-19488D01*
X32177Y-19488D01*
X32295Y-19371D01*
X32358Y-19217D01*
X32359Y-19051D01*
X32295Y-18897D01*
X32178Y-18779D01*
X32024Y-18715D01*
X31858Y-18715D01*
X31704Y-18779D01*
X31586Y-18896D01*
X31522Y-19050D01*
X31522Y-19216D01*
X31586Y-19370D01*
X31703Y-19488D01*
X31704Y-19488D01*
X31704Y-19633D01*
X31722Y-19724D01*
X31773Y-19800D01*
X31867Y-19894D01*
X31867Y-20000D01*
X31377Y-20000D01*
X31287Y-20017D01*
X31210Y-20069D01*
X31171Y-20108D01*
X31120Y-20185D01*
X31102Y-20275D01*
X31102Y-20550D01*
X31102Y-20597D01*
X31102Y-20598D01*
X31102Y-21122D01*
X30429Y-21122D01*
X30385Y-21140D01*
X30352Y-21173D01*
X30334Y-21216D01*
X30334Y-21263D01*
X30334Y-22247D01*
X30352Y-22291D01*
X30385Y-22324D01*
X30429Y-22342D01*
X30476Y-22342D01*
X31480Y-22342D01*
X31523Y-22324D01*
X31556Y-22291D01*
X31574Y-22247D01*
X31574Y-22200D01*
X31574Y-22062D01*
X31579Y-22067D01*
X31665Y-22103D01*
X31759Y-22103D01*
X31889Y-22103D01*
X31948Y-22044D01*
X31948Y-21731D01*
X31940Y-21731D01*
X31940Y-21652D01*
X31948Y-21652D01*
X31948Y-21339D01*
X31889Y-21280D01*
X31759Y-21280D01*
X31665Y-21280D01*
X31579Y-21316D01*
X31574Y-21321D01*
X31574Y-21230D01*
X31574Y-21230D01*
X31574Y-21230D01*
X31574Y-21230D01*
X31574Y-21046D01*
X31588Y-21052D01*
X31716Y-21052D01*
X31775Y-20993D01*
X31775Y-20675D01*
X31768Y-20675D01*
X31768Y-20596D01*
X31775Y-20596D01*
X31775Y-20588D01*
X31854Y-20588D01*
X31854Y-20596D01*
X31862Y-20596D01*
X31862Y-20675D01*
X31854Y-20675D01*
X31854Y-20993D01*
X31913Y-21052D01*
X32042Y-21052D01*
X32128Y-21016D01*
X32195Y-20950D01*
X32229Y-20868D01*
X32235Y-20883D01*
X32268Y-20916D01*
X32311Y-20934D01*
X32358Y-20934D01*
X32391Y-20934D01*
X32396Y-20941D01*
X32524Y-21069D01*
X32492Y-21082D01*
X32459Y-21115D01*
X32441Y-21158D01*
X32441Y-21205D01*
X32441Y-21361D01*
X32397Y-21316D01*
X32310Y-21280D01*
X32216Y-21280D01*
X32086Y-21280D01*
X32027Y-21339D01*
X32027Y-21652D01*
X32440Y-21652D01*
X32476Y-21616D01*
X32492Y-21632D01*
X32536Y-21650D01*
X32583Y-21650D01*
X33133Y-21650D01*
X33176Y-21632D01*
X33209Y-21599D01*
X33227Y-21555D01*
X33227Y-21508D01*
X33227Y-21158D01*
X33209Y-21115D01*
X33176Y-21082D01*
X33133Y-21064D01*
X33086Y-21064D01*
X32981Y-21064D01*
X32953Y-21022D01*
X32953Y-21022D01*
X32803Y-20872D01*
X33366Y-20872D01*
X33366Y-20988D01*
X33384Y-21031D01*
X33417Y-21064D01*
X33460Y-21082D01*
X33507Y-21082D01*
X33803Y-21082D01*
X33809Y-21092D01*
X34261Y-21544D01*
X34337Y-21595D01*
X34428Y-21613D01*
X34661Y-21613D01*
X34664Y-21618D01*
X34697Y-21652D01*
X34740Y-21670D01*
X34787Y-21670D01*
X35312Y-21670D01*
X35358Y-21715D01*
X35267Y-21715D01*
X35137Y-21715D01*
X35078Y-21774D01*
X35078Y-22087D01*
X35086Y-22087D01*
X35086Y-22166D01*
X35078Y-22166D01*
X35078Y-22174D01*
X35000Y-22174D01*
X35000Y-22166D01*
X34992Y-22166D01*
X34992Y-22087D01*
X35000Y-22087D01*
X35000Y-21774D01*
X34940Y-21715D01*
X34811Y-21715D01*
X34717Y-21715D01*
X34630Y-21751D01*
X34618Y-21764D01*
X34602Y-21748D01*
X34515Y-21712D01*
X34421Y-21712D01*
X34074Y-21712D01*
X34015Y-21771D01*
X34015Y-22411D01*
X34023Y-22411D01*
X34023Y-22490D01*
X34015Y-22490D01*
X34015Y-22497D01*
X33937Y-22497D01*
X33937Y-22490D01*
X33937Y-22411D01*
X33937Y-21771D01*
X33877Y-21712D01*
X33531Y-21712D01*
X33437Y-21712D01*
X33350Y-21748D01*
X33284Y-21815D01*
X33248Y-21901D01*
X33248Y-22352D01*
X33307Y-22411D01*
X33937Y-22411D01*
X33937Y-22490D01*
X33307Y-22490D01*
X33248Y-22549D01*
X33248Y-22715D01*
X33229Y-22696D01*
X33174Y-22659D01*
X33110Y-22646D01*
X33110Y-22646D01*
X32378Y-22646D01*
X32381Y-22640D01*
X32381Y-22593D01*
X32381Y-22587D01*
X32421Y-22560D01*
X32581Y-22400D01*
X32583Y-22400D01*
X33133Y-22400D01*
X33176Y-22382D01*
X33209Y-22349D01*
X33227Y-22305D01*
X33227Y-22258D01*
X33227Y-21908D01*
X33209Y-21865D01*
X33176Y-21832D01*
X33133Y-21814D01*
X33086Y-21814D01*
X32536Y-21814D01*
X32499Y-21829D01*
X32499Y-21790D01*
X32440Y-21731D01*
X32027Y-21731D01*
X32027Y-22044D01*
X32086Y-22103D01*
X32216Y-22103D01*
X32310Y-22103D01*
X32397Y-22067D01*
X32441Y-22022D01*
X32441Y-22064D01*
X32334Y-22171D01*
X32330Y-22166D01*
X32286Y-22148D01*
X32239Y-22148D01*
X31689Y-22148D01*
X31646Y-22166D01*
X31613Y-22199D01*
X31595Y-22243D01*
X31595Y-22290D01*
X31595Y-22295D01*
X31553Y-22323D01*
X31553Y-22323D01*
X31524Y-22351D01*
X31259Y-22351D01*
X31023Y-22351D01*
X30314Y-22351D01*
X30052Y-22351D01*
X30052Y-19051D01*
X29988Y-18897D01*
X29871Y-18779D01*
X29717Y-18715D01*
X29551Y-18715D01*
X29397Y-18779D01*
X29279Y-18896D01*
X29215Y-19050D01*
X29215Y-19216D01*
X29279Y-19370D01*
X29396Y-19488D01*
X29550Y-19551D01*
X29716Y-19552D01*
X29870Y-19488D01*
X29988Y-19371D01*
X30051Y-19217D01*
X30052Y-19051D01*
X30052Y-22351D01*
X29671Y-22351D01*
X29704Y-22271D01*
X29704Y-22177D01*
X29704Y-21287D01*
X29704Y-21193D01*
X29668Y-21106D01*
X29602Y-21039D01*
X29515Y-21004D01*
X29065Y-21004D01*
X29052Y-21017D01*
X29052Y-19051D01*
X28988Y-18897D01*
X28871Y-18779D01*
X28717Y-18715D01*
X28551Y-18715D01*
X28397Y-18779D01*
X28279Y-18896D01*
X28215Y-19050D01*
X28215Y-19216D01*
X28279Y-19370D01*
X28396Y-19488D01*
X28550Y-19551D01*
X28716Y-19552D01*
X28870Y-19488D01*
X28988Y-19371D01*
X29051Y-19217D01*
X29052Y-19051D01*
X29052Y-21017D01*
X29006Y-21063D01*
X29006Y-21692D01*
X29645Y-21692D01*
X29704Y-21633D01*
X29704Y-21287D01*
X29704Y-22177D01*
X29704Y-21830D01*
X29645Y-21771D01*
X29006Y-21771D01*
X29006Y-21779D01*
X28927Y-21779D01*
X28927Y-21771D01*
X28927Y-21692D01*
X28927Y-21063D01*
X28868Y-21004D01*
X28417Y-21004D01*
X28330Y-21039D01*
X28264Y-21106D01*
X28228Y-21193D01*
X28228Y-21287D01*
X28228Y-21633D01*
X28287Y-21692D01*
X28927Y-21692D01*
X28927Y-21771D01*
X28287Y-21771D01*
X28228Y-21830D01*
X28228Y-22177D01*
X28228Y-22271D01*
X28261Y-22351D01*
X27961Y-22351D01*
X27929Y-22319D01*
X27842Y-22283D01*
X27748Y-22283D01*
X27661Y-22319D01*
X27595Y-22385D01*
X27559Y-22472D01*
X27559Y-22537D01*
X27146Y-22125D01*
X27091Y-22088D01*
X27027Y-22075D01*
X27027Y-22075D01*
X26554Y-22075D01*
X26641Y-21989D01*
X26705Y-21835D01*
X26705Y-21669D01*
X26705Y-20669D01*
X26642Y-20515D01*
X26524Y-20397D01*
X26370Y-20333D01*
X26204Y-20333D01*
X26050Y-20397D01*
X25933Y-20514D01*
X25869Y-20668D01*
X25869Y-20834D01*
X25932Y-20988D01*
X26050Y-21106D01*
X26203Y-21170D01*
X26370Y-21170D01*
X26523Y-21106D01*
X26641Y-20989D01*
X26705Y-20835D01*
X26705Y-20669D01*
X26705Y-21669D01*
X26642Y-21515D01*
X26524Y-21397D01*
X26370Y-21333D01*
X26204Y-21333D01*
X26050Y-21397D01*
X25933Y-21514D01*
X25869Y-21668D01*
X25869Y-21834D01*
X25932Y-21988D01*
X26020Y-22075D01*
X25849Y-22075D01*
X25677Y-21903D01*
X25705Y-21835D01*
X25705Y-21669D01*
X25642Y-21515D01*
X25524Y-21397D01*
X25370Y-21333D01*
X25204Y-21333D01*
X25050Y-21397D01*
X24933Y-21514D01*
X24872Y-21661D01*
X24872Y-20841D01*
X24932Y-20988D01*
X25050Y-21106D01*
X25203Y-21170D01*
X25370Y-21170D01*
X25523Y-21106D01*
X25641Y-20989D01*
X25705Y-20835D01*
X25705Y-20669D01*
X25642Y-20515D01*
X25524Y-20397D01*
X25370Y-20333D01*
X25204Y-20333D01*
X25050Y-20397D01*
X24933Y-20514D01*
X24872Y-20661D01*
X24872Y-19841D01*
X24932Y-19988D01*
X25050Y-20106D01*
X25203Y-20170D01*
X25370Y-20170D01*
X25523Y-20106D01*
X25641Y-19989D01*
X25705Y-19835D01*
X25705Y-19669D01*
X25677Y-19600D01*
X25857Y-19420D01*
X26028Y-19420D01*
X25933Y-19514D01*
X25869Y-19668D01*
X25869Y-19834D01*
X25932Y-19988D01*
X26050Y-20106D01*
X26203Y-20170D01*
X26370Y-20170D01*
X26523Y-20106D01*
X26641Y-19989D01*
X26705Y-19835D01*
X26705Y-19669D01*
X26642Y-19515D01*
X26546Y-19420D01*
X27215Y-19420D01*
X27215Y-19457D01*
X27233Y-19500D01*
X27266Y-19533D01*
X27310Y-19551D01*
X27357Y-19551D01*
X27957Y-19551D01*
X28000Y-19534D01*
X28033Y-19500D01*
X28051Y-19457D01*
X28051Y-19410D01*
X28051Y-18810D01*
X28034Y-18767D01*
X28000Y-18733D01*
X27957Y-18715D01*
X27910Y-18715D01*
X27310Y-18715D01*
X27267Y-18733D01*
X27233Y-18766D01*
X27215Y-18810D01*
X27215Y-18857D01*
X27215Y-19083D01*
X26823Y-19083D01*
X26823Y-18850D01*
X26764Y-18791D01*
X26326Y-18791D01*
X26326Y-18799D01*
X26248Y-18799D01*
X26248Y-18791D01*
X25810Y-18791D01*
X25751Y-18850D01*
X25751Y-19091D01*
X25723Y-19096D01*
X25668Y-19133D01*
X25668Y-19133D01*
X25629Y-19172D01*
X25629Y-19172D01*
X25439Y-19362D01*
X25370Y-19333D01*
X25204Y-19333D01*
X25050Y-19397D01*
X24933Y-19514D01*
X24872Y-19661D01*
X24872Y-18841D01*
X24932Y-18988D01*
X25050Y-19106D01*
X25203Y-19170D01*
X25370Y-19170D01*
X25523Y-19106D01*
X25641Y-18989D01*
X25705Y-18835D01*
X25705Y-18669D01*
X25705Y-18668D01*
X25751Y-18622D01*
X25751Y-18653D01*
X25810Y-18712D01*
X26248Y-18712D01*
X26248Y-18704D01*
X26326Y-18704D01*
X26326Y-18712D01*
X26764Y-18712D01*
X26823Y-18653D01*
X26823Y-18464D01*
X30532Y-18464D01*
X30830Y-18762D01*
X30717Y-18715D01*
X30551Y-18715D01*
X30397Y-18779D01*
X30279Y-18896D01*
X30215Y-19050D01*
X30215Y-19216D01*
X30279Y-19370D01*
X30396Y-19488D01*
X30550Y-19551D01*
X30716Y-19552D01*
X30830Y-19505D01*
X30778Y-19557D01*
X30744Y-19590D01*
X30708Y-19677D01*
X30708Y-19771D01*
X30726Y-19814D01*
X30744Y-19858D01*
X30810Y-19924D01*
X30854Y-19942D01*
X30897Y-19960D01*
X30944Y-19960D01*
X30991Y-19960D01*
X31035Y-19942D01*
X31078Y-19924D01*
X31111Y-19891D01*
X31145Y-19858D01*
X31145Y-19858D01*
X31387Y-19615D01*
X31438Y-19539D01*
X31438Y-19539D01*
X31456Y-19448D01*
X31456Y-18818D01*
X31438Y-18728D01*
X31438Y-18728D01*
X31387Y-18651D01*
X31200Y-18464D01*
X35394Y-18464D01*
X35669Y-18739D01*
X35669Y-19125D01*
X35687Y-19216D01*
X35738Y-19293D01*
X36113Y-19668D01*
X36113Y-19668D01*
X36113Y-19834D01*
X36176Y-19988D01*
X36294Y-20106D01*
X36306Y-20111D01*
X36313Y-20145D01*
X36364Y-20222D01*
X36565Y-20422D01*
X36565Y-20472D01*
X36565Y-20570D01*
G54D10*
G36*
X37967Y-25673D02*
X37263Y-25673D01*
X37263Y-25191D01*
X37263Y-24741D01*
X37245Y-24698D01*
X37212Y-24665D01*
X37168Y-24647D01*
X37121Y-24647D01*
X36921Y-24647D01*
X36878Y-24664D01*
X36865Y-24678D01*
X36845Y-24631D01*
X36778Y-24564D01*
X36692Y-24528D01*
X36643Y-24528D01*
X36584Y-24587D01*
X36584Y-24950D01*
X36592Y-24950D01*
X36592Y-25029D01*
X36584Y-25029D01*
X36584Y-25392D01*
X36643Y-25451D01*
X36692Y-25451D01*
X36778Y-25415D01*
X36845Y-25349D01*
X36865Y-25301D01*
X36878Y-25315D01*
X36921Y-25333D01*
X36968Y-25333D01*
X37168Y-25333D01*
X37212Y-25315D01*
X37245Y-25282D01*
X37263Y-25238D01*
X37263Y-25191D01*
X37263Y-25673D01*
X37170Y-25673D01*
X37170Y-25673D01*
X37157Y-25676D01*
X37105Y-25686D01*
X37051Y-25722D01*
X37051Y-25722D01*
X36505Y-26268D01*
X36505Y-25392D01*
X36505Y-25029D01*
X36498Y-25029D01*
X36498Y-24950D01*
X36505Y-24950D01*
X36505Y-24587D01*
X36446Y-24528D01*
X36398Y-24528D01*
X36311Y-24564D01*
X36245Y-24631D01*
X36225Y-24678D01*
X36212Y-24665D01*
X36168Y-24647D01*
X36121Y-24647D01*
X35921Y-24647D01*
X35878Y-24664D01*
X35845Y-24698D01*
X35827Y-24741D01*
X35827Y-24788D01*
X35827Y-25238D01*
X35845Y-25281D01*
X35878Y-25315D01*
X35921Y-25333D01*
X35968Y-25333D01*
X36168Y-25333D01*
X36212Y-25315D01*
X36225Y-25301D01*
X36245Y-25349D01*
X36311Y-25415D01*
X36398Y-25451D01*
X36446Y-25451D01*
X36505Y-25392D01*
X36505Y-26268D01*
X36412Y-26361D01*
X36383Y-26404D01*
X36208Y-26404D01*
X36164Y-26422D01*
X36131Y-26455D01*
X36113Y-26499D01*
X36113Y-26546D01*
X36113Y-27146D01*
X36131Y-27189D01*
X36164Y-27222D01*
X36207Y-27240D01*
X36254Y-27240D01*
X36854Y-27240D01*
X36879Y-27230D01*
X36879Y-27272D01*
X36708Y-27443D01*
X36615Y-27404D01*
X36448Y-27404D01*
X36294Y-27468D01*
X36177Y-27585D01*
X36113Y-27739D01*
X36113Y-27905D01*
X36176Y-28059D01*
X36294Y-28177D01*
X36346Y-28198D01*
X28989Y-28198D01*
X28989Y-27240D01*
X28925Y-27086D01*
X28808Y-26968D01*
X28654Y-26904D01*
X28488Y-26904D01*
X28334Y-26968D01*
X28216Y-27085D01*
X28152Y-27239D01*
X28152Y-27405D01*
X28216Y-27559D01*
X28333Y-27677D01*
X28487Y-27740D01*
X28653Y-27741D01*
X28807Y-27677D01*
X28925Y-27559D01*
X28988Y-27406D01*
X28989Y-27240D01*
X28989Y-28198D01*
X28008Y-28198D01*
X28008Y-26521D01*
X28008Y-26393D01*
X27949Y-26334D01*
X27631Y-26334D01*
X27631Y-26652D01*
X27690Y-26711D01*
X27725Y-26711D01*
X27819Y-26711D01*
X27906Y-26675D01*
X27972Y-26608D01*
X28008Y-26521D01*
X28008Y-28198D01*
X27988Y-28198D01*
X27988Y-27599D01*
X27988Y-26999D01*
X27971Y-26956D01*
X27937Y-26922D01*
X27894Y-26904D01*
X27847Y-26904D01*
X27552Y-26904D01*
X27552Y-26652D01*
X27552Y-26334D01*
X27234Y-26334D01*
X27175Y-26393D01*
X27175Y-26521D01*
X27211Y-26608D01*
X27278Y-26675D01*
X27364Y-26711D01*
X27458Y-26711D01*
X27493Y-26711D01*
X27552Y-26652D01*
X27552Y-26904D01*
X27247Y-26904D01*
X27204Y-26922D01*
X27170Y-26955D01*
X27152Y-26999D01*
X27152Y-27046D01*
X27152Y-27646D01*
X27170Y-27689D01*
X27203Y-27722D01*
X27247Y-27740D01*
X27294Y-27740D01*
X27894Y-27740D01*
X27937Y-27723D01*
X27970Y-27689D01*
X27988Y-27646D01*
X27988Y-27599D01*
X27988Y-28198D01*
X26705Y-28198D01*
X26705Y-27669D01*
X26642Y-27515D01*
X26524Y-27397D01*
X26370Y-27333D01*
X26204Y-27333D01*
X26050Y-27397D01*
X25933Y-27514D01*
X25869Y-27668D01*
X25869Y-27834D01*
X25932Y-27988D01*
X26050Y-28106D01*
X26203Y-28170D01*
X26370Y-28170D01*
X26523Y-28106D01*
X26641Y-27989D01*
X26705Y-27835D01*
X26705Y-27669D01*
X26705Y-28198D01*
X24872Y-28198D01*
X24872Y-27841D01*
X24932Y-27988D01*
X25050Y-28106D01*
X25203Y-28170D01*
X25370Y-28170D01*
X25523Y-28106D01*
X25641Y-27989D01*
X25705Y-27835D01*
X25705Y-27669D01*
X25642Y-27515D01*
X25524Y-27397D01*
X25370Y-27333D01*
X25204Y-27333D01*
X25050Y-27397D01*
X24933Y-27514D01*
X24872Y-27661D01*
X24872Y-26841D01*
X24932Y-26988D01*
X25050Y-27106D01*
X25203Y-27170D01*
X25370Y-27170D01*
X25523Y-27106D01*
X25641Y-26989D01*
X25705Y-26835D01*
X25705Y-26669D01*
X25690Y-26633D01*
X25896Y-26427D01*
X26020Y-26427D01*
X25933Y-26514D01*
X25869Y-26668D01*
X25869Y-26834D01*
X25932Y-26988D01*
X26050Y-27106D01*
X26203Y-27170D01*
X26370Y-27170D01*
X26523Y-27106D01*
X26641Y-26989D01*
X26705Y-26835D01*
X26705Y-26669D01*
X26642Y-26515D01*
X26554Y-26427D01*
X26732Y-26427D01*
X26732Y-26427D01*
X26732Y-26427D01*
X26796Y-26415D01*
X26851Y-26378D01*
X27185Y-26044D01*
X27175Y-26068D01*
X27175Y-26196D01*
X27234Y-26255D01*
X27552Y-26255D01*
X27552Y-26247D01*
X27631Y-26247D01*
X27631Y-26255D01*
X27949Y-26255D01*
X28008Y-26196D01*
X28008Y-26068D01*
X27972Y-25981D01*
X27906Y-25914D01*
X27824Y-25880D01*
X27838Y-25875D01*
X27872Y-25841D01*
X27890Y-25798D01*
X27890Y-25751D01*
X27890Y-25391D01*
X27872Y-25348D01*
X27853Y-25329D01*
X27874Y-25315D01*
X28110Y-25079D01*
X28110Y-25079D01*
X28110Y-25079D01*
X28147Y-25024D01*
X28160Y-24960D01*
X28160Y-24909D01*
X28173Y-24978D01*
X28225Y-25055D01*
X28573Y-25403D01*
X28573Y-25403D01*
X28590Y-25414D01*
X28512Y-25430D01*
X28436Y-25481D01*
X28271Y-25646D01*
X28188Y-25646D01*
X28145Y-25664D01*
X28112Y-25697D01*
X28094Y-25741D01*
X28093Y-25788D01*
X28093Y-26148D01*
X28111Y-26191D01*
X28145Y-26224D01*
X28188Y-26242D01*
X28235Y-26243D01*
X28595Y-26243D01*
X28638Y-26225D01*
X28672Y-26191D01*
X28690Y-26148D01*
X28690Y-26101D01*
X28690Y-25895D01*
X28701Y-25884D01*
X28835Y-25884D01*
X28837Y-25890D01*
X28870Y-25923D01*
X28914Y-25941D01*
X28960Y-25941D01*
X29510Y-25941D01*
X29554Y-25923D01*
X29566Y-25911D01*
X29579Y-25923D01*
X29622Y-25941D01*
X29669Y-25941D01*
X30219Y-25941D01*
X30263Y-25923D01*
X30275Y-25911D01*
X30287Y-25923D01*
X30331Y-25941D01*
X30378Y-25941D01*
X30928Y-25941D01*
X30971Y-25923D01*
X31004Y-25890D01*
X31023Y-25847D01*
X31023Y-25800D01*
X31023Y-25450D01*
X31005Y-25406D01*
X30971Y-25373D01*
X30928Y-25355D01*
X30881Y-25355D01*
X30866Y-25355D01*
X30866Y-24842D01*
X30848Y-24752D01*
X30848Y-24752D01*
X30796Y-24675D01*
X30403Y-24281D01*
X30383Y-24268D01*
X30383Y-24245D01*
X30365Y-24202D01*
X30332Y-24168D01*
X30288Y-24150D01*
X30241Y-24150D01*
X29881Y-24150D01*
X29838Y-24168D01*
X29804Y-24201D01*
X29786Y-24245D01*
X29786Y-24292D01*
X29786Y-24652D01*
X29804Y-24695D01*
X29838Y-24728D01*
X29881Y-24746D01*
X29928Y-24746D01*
X30200Y-24746D01*
X30393Y-24940D01*
X30393Y-25355D01*
X30331Y-25355D01*
X30288Y-25373D01*
X30275Y-25385D01*
X30263Y-25373D01*
X30219Y-25355D01*
X30172Y-25355D01*
X30157Y-25355D01*
X30157Y-25354D01*
X30139Y-25263D01*
X30088Y-25187D01*
X29970Y-25069D01*
X29893Y-25017D01*
X29803Y-25000D01*
X29701Y-25000D01*
X29701Y-24897D01*
X29642Y-24838D01*
X29324Y-24838D01*
X29324Y-24846D01*
X29245Y-24846D01*
X29245Y-24838D01*
X28927Y-24838D01*
X28868Y-24897D01*
X28868Y-25000D01*
X28838Y-25000D01*
X28628Y-24790D01*
X28628Y-24733D01*
X28638Y-24729D01*
X28672Y-24695D01*
X28690Y-24652D01*
X28690Y-24605D01*
X28690Y-24266D01*
X28986Y-24266D01*
X28986Y-24302D01*
X29004Y-24345D01*
X29038Y-24378D01*
X29052Y-24384D01*
X28971Y-24418D01*
X28904Y-24485D01*
X28868Y-24572D01*
X28868Y-24700D01*
X28927Y-24759D01*
X29245Y-24759D01*
X29245Y-24751D01*
X29324Y-24751D01*
X29324Y-24759D01*
X29642Y-24759D01*
X29701Y-24700D01*
X29701Y-24572D01*
X29665Y-24485D01*
X29599Y-24418D01*
X29517Y-24384D01*
X29531Y-24379D01*
X29565Y-24345D01*
X29583Y-24302D01*
X29583Y-24255D01*
X29583Y-23920D01*
X30887Y-23920D01*
X32229Y-25262D01*
X32229Y-25286D01*
X32193Y-25286D01*
X32150Y-25304D01*
X32117Y-25337D01*
X32111Y-25351D01*
X32077Y-25270D01*
X32010Y-25203D01*
X31924Y-25167D01*
X31795Y-25168D01*
X31736Y-25227D01*
X31736Y-25544D01*
X31744Y-25544D01*
X31744Y-25623D01*
X31736Y-25623D01*
X31736Y-25941D01*
X31795Y-26000D01*
X31924Y-26000D01*
X32010Y-25964D01*
X32077Y-25898D01*
X32111Y-25816D01*
X32117Y-25831D01*
X32150Y-25864D01*
X32193Y-25882D01*
X32240Y-25882D01*
X32600Y-25882D01*
X32644Y-25864D01*
X32677Y-25831D01*
X32695Y-25787D01*
X32695Y-25740D01*
X32695Y-25380D01*
X32677Y-25337D01*
X32644Y-25304D01*
X32600Y-25286D01*
X32565Y-25286D01*
X32565Y-25192D01*
X32552Y-25128D01*
X32516Y-25073D01*
X32516Y-25073D01*
X32492Y-25050D01*
X33375Y-25050D01*
X33611Y-25286D01*
X33611Y-25286D01*
X33567Y-25304D01*
X33534Y-25337D01*
X33528Y-25351D01*
X33494Y-25270D01*
X33428Y-25203D01*
X33341Y-25167D01*
X33212Y-25168D01*
X33153Y-25227D01*
X33153Y-25544D01*
X33161Y-25544D01*
X33161Y-25623D01*
X33153Y-25623D01*
X33153Y-25941D01*
X33212Y-26000D01*
X33341Y-26000D01*
X33428Y-25964D01*
X33494Y-25898D01*
X33528Y-25816D01*
X33534Y-25831D01*
X33567Y-25864D01*
X33610Y-25882D01*
X33657Y-25882D01*
X34017Y-25882D01*
X34061Y-25864D01*
X34094Y-25831D01*
X34112Y-25787D01*
X34112Y-25740D01*
X34112Y-25380D01*
X34094Y-25337D01*
X34061Y-25304D01*
X34018Y-25286D01*
X33982Y-25286D01*
X33982Y-25251D01*
X33969Y-25187D01*
X33933Y-25132D01*
X33933Y-25132D01*
X33563Y-24763D01*
X33509Y-24726D01*
X33444Y-24713D01*
X33444Y-24713D01*
X33224Y-24713D01*
X33314Y-24676D01*
X33573Y-24418D01*
X33713Y-24081D01*
X33713Y-23715D01*
X33574Y-23378D01*
X33454Y-23258D01*
X34527Y-23258D01*
X34527Y-23258D01*
X34527Y-23258D01*
X34591Y-23245D01*
X34646Y-23209D01*
X34903Y-22952D01*
X34948Y-22952D01*
X35035Y-22916D01*
X35039Y-22912D01*
X35039Y-24192D01*
X35039Y-24239D01*
X35039Y-24239D01*
X35039Y-26358D01*
X34675Y-26722D01*
X34624Y-26799D01*
X34606Y-26889D01*
X34606Y-26904D01*
X34579Y-26904D01*
X33979Y-26904D01*
X33936Y-26922D01*
X33903Y-26955D01*
X33885Y-26999D01*
X33885Y-27046D01*
X33885Y-27406D01*
X33654Y-27637D01*
X33335Y-27637D01*
X33413Y-27559D01*
X33477Y-27406D01*
X33477Y-27240D01*
X33413Y-27086D01*
X33296Y-26968D01*
X33295Y-26968D01*
X33295Y-26887D01*
X33500Y-26682D01*
X33667Y-26682D01*
X33711Y-26664D01*
X33744Y-26631D01*
X33762Y-26587D01*
X33762Y-26540D01*
X33762Y-26180D01*
X33744Y-26137D01*
X33711Y-26104D01*
X33668Y-26086D01*
X33621Y-26086D01*
X33261Y-26086D01*
X33217Y-26104D01*
X33184Y-26137D01*
X33166Y-26180D01*
X33166Y-26227D01*
X33166Y-26348D01*
X33075Y-26439D01*
X33075Y-25941D01*
X33075Y-25623D01*
X33075Y-25544D01*
X33075Y-25227D01*
X33016Y-25168D01*
X32887Y-25167D01*
X32800Y-25203D01*
X32734Y-25270D01*
X32698Y-25357D01*
X32698Y-25451D01*
X32698Y-25485D01*
X32757Y-25544D01*
X33075Y-25544D01*
X33075Y-25623D01*
X32757Y-25623D01*
X32698Y-25682D01*
X32698Y-25717D01*
X32698Y-25811D01*
X32734Y-25898D01*
X32800Y-25964D01*
X32887Y-26000D01*
X33016Y-26000D01*
X33075Y-25941D01*
X33075Y-26439D01*
X32892Y-26622D01*
X32840Y-26699D01*
X32822Y-26789D01*
X32822Y-26968D01*
X32822Y-26968D01*
X32704Y-27085D01*
X32641Y-27239D01*
X32640Y-27405D01*
X32704Y-27559D01*
X32782Y-27637D01*
X32477Y-27637D01*
X32477Y-27599D01*
X32477Y-26999D01*
X32459Y-26956D01*
X32426Y-26922D01*
X32382Y-26904D01*
X32335Y-26904D01*
X32295Y-26904D01*
X32295Y-26663D01*
X32327Y-26631D01*
X32345Y-26587D01*
X32345Y-26540D01*
X32345Y-26180D01*
X32327Y-26137D01*
X32294Y-26104D01*
X32250Y-26086D01*
X32203Y-26086D01*
X31843Y-26086D01*
X31800Y-26104D01*
X31767Y-26137D01*
X31749Y-26180D01*
X31749Y-26227D01*
X31749Y-26587D01*
X31767Y-26631D01*
X31800Y-26664D01*
X31822Y-26673D01*
X31822Y-26904D01*
X31735Y-26904D01*
X31692Y-26922D01*
X31658Y-26955D01*
X31657Y-26958D01*
X31657Y-25941D01*
X31657Y-25623D01*
X31657Y-25544D01*
X31657Y-25227D01*
X31598Y-25168D01*
X31470Y-25167D01*
X31383Y-25203D01*
X31317Y-25270D01*
X31281Y-25357D01*
X31280Y-25451D01*
X31281Y-25485D01*
X31340Y-25544D01*
X31657Y-25544D01*
X31657Y-25623D01*
X31340Y-25623D01*
X31281Y-25682D01*
X31280Y-25717D01*
X31281Y-25811D01*
X31317Y-25898D01*
X31383Y-25964D01*
X31470Y-26000D01*
X31598Y-26000D01*
X31657Y-25941D01*
X31657Y-26958D01*
X31640Y-26999D01*
X31640Y-27046D01*
X31640Y-27637D01*
X31436Y-27637D01*
X31224Y-27426D01*
X31232Y-27406D01*
X31233Y-27240D01*
X31169Y-27086D01*
X31052Y-26968D01*
X31023Y-26956D01*
X31023Y-26550D01*
X31023Y-26200D01*
X31005Y-26156D01*
X30971Y-26123D01*
X30928Y-26105D01*
X30881Y-26105D01*
X30331Y-26105D01*
X30288Y-26123D01*
X30275Y-26135D01*
X30263Y-26123D01*
X30219Y-26105D01*
X30172Y-26105D01*
X29622Y-26105D01*
X29579Y-26123D01*
X29566Y-26135D01*
X29554Y-26123D01*
X29511Y-26105D01*
X29464Y-26105D01*
X28914Y-26105D01*
X28870Y-26123D01*
X28837Y-26156D01*
X28819Y-26200D01*
X28819Y-26247D01*
X28819Y-26597D01*
X28837Y-26640D01*
X28870Y-26673D01*
X28914Y-26691D01*
X28960Y-26691D01*
X29510Y-26691D01*
X29554Y-26673D01*
X29566Y-26661D01*
X29578Y-26673D01*
X29578Y-26904D01*
X29491Y-26904D01*
X29448Y-26922D01*
X29414Y-26955D01*
X29396Y-26999D01*
X29396Y-27046D01*
X29396Y-27646D01*
X29414Y-27689D01*
X29447Y-27722D01*
X29491Y-27740D01*
X29538Y-27740D01*
X30138Y-27740D01*
X30181Y-27723D01*
X30215Y-27689D01*
X30233Y-27646D01*
X30233Y-27599D01*
X30233Y-26999D01*
X30215Y-26956D01*
X30181Y-26922D01*
X30138Y-26904D01*
X30091Y-26904D01*
X30051Y-26904D01*
X30051Y-26691D01*
X30219Y-26691D01*
X30263Y-26673D01*
X30275Y-26661D01*
X30287Y-26673D01*
X30331Y-26691D01*
X30378Y-26691D01*
X30928Y-26691D01*
X30971Y-26673D01*
X31004Y-26640D01*
X31023Y-26597D01*
X31023Y-26550D01*
X31023Y-26956D01*
X30898Y-26904D01*
X30732Y-26904D01*
X30578Y-26968D01*
X30460Y-27085D01*
X30396Y-27239D01*
X30396Y-27405D01*
X30460Y-27559D01*
X30577Y-27677D01*
X30731Y-27740D01*
X30871Y-27740D01*
X31171Y-28041D01*
X31248Y-28092D01*
X31338Y-28110D01*
X33751Y-28110D01*
X33842Y-28092D01*
X33919Y-28041D01*
X34219Y-27740D01*
X34626Y-27740D01*
X34669Y-27723D01*
X34703Y-27689D01*
X34721Y-27646D01*
X34721Y-27599D01*
X34721Y-27559D01*
X34842Y-27559D01*
X34948Y-27559D01*
X34948Y-27559D01*
X35066Y-27677D01*
X35219Y-27740D01*
X35385Y-27741D01*
X35539Y-27677D01*
X35657Y-27559D01*
X35721Y-27406D01*
X35721Y-27240D01*
X35657Y-27086D01*
X35540Y-26968D01*
X35386Y-26904D01*
X35220Y-26904D01*
X35120Y-26945D01*
X35442Y-26623D01*
X35442Y-26623D01*
X35442Y-26623D01*
X35493Y-26547D01*
X35493Y-26547D01*
X35511Y-26456D01*
X35511Y-26456D01*
X35511Y-24193D01*
X35511Y-24192D01*
X35511Y-24146D01*
X35511Y-24146D01*
X35511Y-22952D01*
X35796Y-22667D01*
X35827Y-22621D01*
X35827Y-22738D01*
X35845Y-22781D01*
X35878Y-22815D01*
X35921Y-22833D01*
X35968Y-22833D01*
X36168Y-22833D01*
X36212Y-22815D01*
X36225Y-22801D01*
X36245Y-22849D01*
X36311Y-22915D01*
X36398Y-22951D01*
X36446Y-22951D01*
X36505Y-22892D01*
X36505Y-22529D01*
X36498Y-22529D01*
X36498Y-22450D01*
X36505Y-22450D01*
X36505Y-22087D01*
X36446Y-22028D01*
X36398Y-22028D01*
X36311Y-22064D01*
X36281Y-22094D01*
X36281Y-21791D01*
X36322Y-21791D01*
X36890Y-21791D01*
X36847Y-21834D01*
X36830Y-21875D01*
X36827Y-21880D01*
X36825Y-21885D01*
X36811Y-21921D01*
X36811Y-21960D01*
X36809Y-21970D01*
X36809Y-22094D01*
X36778Y-22064D01*
X36692Y-22028D01*
X36643Y-22028D01*
X36584Y-22087D01*
X36584Y-22450D01*
X36592Y-22450D01*
X36592Y-22529D01*
X36584Y-22529D01*
X36584Y-22892D01*
X36643Y-22951D01*
X36692Y-22951D01*
X36778Y-22915D01*
X36845Y-22849D01*
X36865Y-22801D01*
X36878Y-22815D01*
X36921Y-22833D01*
X36950Y-22833D01*
X36945Y-22838D01*
X36909Y-22925D01*
X36909Y-23019D01*
X36945Y-23106D01*
X37011Y-23172D01*
X37098Y-23208D01*
X37192Y-23208D01*
X37279Y-23172D01*
X37309Y-23143D01*
X37309Y-24990D01*
X37327Y-25080D01*
X37327Y-25080D01*
X37327Y-25238D01*
X37345Y-25281D01*
X37378Y-25315D01*
X37421Y-25333D01*
X37468Y-25333D01*
X37668Y-25333D01*
X37712Y-25315D01*
X37745Y-25282D01*
X37763Y-25238D01*
X37763Y-25226D01*
X37809Y-25226D01*
X37809Y-25446D01*
X37814Y-25476D01*
X37814Y-25499D01*
X37823Y-25521D01*
X37827Y-25537D01*
X37836Y-25550D01*
X37850Y-25586D01*
X37878Y-25613D01*
X37878Y-25613D01*
X37883Y-25619D01*
X37917Y-25652D01*
X37960Y-25670D01*
X37967Y-25673D01*
X37967Y-25673D01*
G37*
G54D22*
X37967Y-25673D02*
X37263Y-25673D01*
X37263Y-25191D01*
X37263Y-24741D01*
X37245Y-24698D01*
X37212Y-24665D01*
X37168Y-24647D01*
X37121Y-24647D01*
X36921Y-24647D01*
X36878Y-24664D01*
X36865Y-24678D01*
X36845Y-24631D01*
X36778Y-24564D01*
X36692Y-24528D01*
X36643Y-24528D01*
X36584Y-24587D01*
X36584Y-24950D01*
X36592Y-24950D01*
X36592Y-25029D01*
X36584Y-25029D01*
X36584Y-25392D01*
X36643Y-25451D01*
X36692Y-25451D01*
X36778Y-25415D01*
X36845Y-25349D01*
X36865Y-25301D01*
X36878Y-25315D01*
X36921Y-25333D01*
X36968Y-25333D01*
X37168Y-25333D01*
X37212Y-25315D01*
X37245Y-25282D01*
X37263Y-25238D01*
X37263Y-25191D01*
X37263Y-25673D01*
X37170Y-25673D01*
X37170Y-25673D01*
X37157Y-25676D01*
X37105Y-25686D01*
X37051Y-25722D01*
X37051Y-25722D01*
X36505Y-26268D01*
X36505Y-25392D01*
X36505Y-25029D01*
X36498Y-25029D01*
X36498Y-24950D01*
X36505Y-24950D01*
X36505Y-24587D01*
X36446Y-24528D01*
X36398Y-24528D01*
X36311Y-24564D01*
X36245Y-24631D01*
X36225Y-24678D01*
X36212Y-24665D01*
X36168Y-24647D01*
X36121Y-24647D01*
X35921Y-24647D01*
X35878Y-24664D01*
X35845Y-24698D01*
X35827Y-24741D01*
X35827Y-24788D01*
X35827Y-25238D01*
X35845Y-25281D01*
X35878Y-25315D01*
X35921Y-25333D01*
X35968Y-25333D01*
X36168Y-25333D01*
X36212Y-25315D01*
X36225Y-25301D01*
X36245Y-25349D01*
X36311Y-25415D01*
X36398Y-25451D01*
X36446Y-25451D01*
X36505Y-25392D01*
X36505Y-26268D01*
X36412Y-26361D01*
X36383Y-26404D01*
X36208Y-26404D01*
X36164Y-26422D01*
X36131Y-26455D01*
X36113Y-26499D01*
X36113Y-26546D01*
X36113Y-27146D01*
X36131Y-27189D01*
X36164Y-27222D01*
X36207Y-27240D01*
X36254Y-27240D01*
X36854Y-27240D01*
X36879Y-27230D01*
X36879Y-27272D01*
X36708Y-27443D01*
X36615Y-27404D01*
X36448Y-27404D01*
X36294Y-27468D01*
X36177Y-27585D01*
X36113Y-27739D01*
X36113Y-27905D01*
X36176Y-28059D01*
X36294Y-28177D01*
X36346Y-28198D01*
X28989Y-28198D01*
X28989Y-27240D01*
X28925Y-27086D01*
X28808Y-26968D01*
X28654Y-26904D01*
X28488Y-26904D01*
X28334Y-26968D01*
X28216Y-27085D01*
X28152Y-27239D01*
X28152Y-27405D01*
X28216Y-27559D01*
X28333Y-27677D01*
X28487Y-27740D01*
X28653Y-27741D01*
X28807Y-27677D01*
X28925Y-27559D01*
X28988Y-27406D01*
X28989Y-27240D01*
X28989Y-28198D01*
X28008Y-28198D01*
X28008Y-26521D01*
X28008Y-26393D01*
X27949Y-26334D01*
X27631Y-26334D01*
X27631Y-26652D01*
X27690Y-26711D01*
X27725Y-26711D01*
X27819Y-26711D01*
X27906Y-26675D01*
X27972Y-26608D01*
X28008Y-26521D01*
X28008Y-28198D01*
X27988Y-28198D01*
X27988Y-27599D01*
X27988Y-26999D01*
X27971Y-26956D01*
X27937Y-26922D01*
X27894Y-26904D01*
X27847Y-26904D01*
X27552Y-26904D01*
X27552Y-26652D01*
X27552Y-26334D01*
X27234Y-26334D01*
X27175Y-26393D01*
X27175Y-26521D01*
X27211Y-26608D01*
X27278Y-26675D01*
X27364Y-26711D01*
X27458Y-26711D01*
X27493Y-26711D01*
X27552Y-26652D01*
X27552Y-26904D01*
X27247Y-26904D01*
X27204Y-26922D01*
X27170Y-26955D01*
X27152Y-26999D01*
X27152Y-27046D01*
X27152Y-27646D01*
X27170Y-27689D01*
X27203Y-27722D01*
X27247Y-27740D01*
X27294Y-27740D01*
X27894Y-27740D01*
X27937Y-27723D01*
X27970Y-27689D01*
X27988Y-27646D01*
X27988Y-27599D01*
X27988Y-28198D01*
X26705Y-28198D01*
X26705Y-27669D01*
X26642Y-27515D01*
X26524Y-27397D01*
X26370Y-27333D01*
X26204Y-27333D01*
X26050Y-27397D01*
X25933Y-27514D01*
X25869Y-27668D01*
X25869Y-27834D01*
X25932Y-27988D01*
X26050Y-28106D01*
X26203Y-28170D01*
X26370Y-28170D01*
X26523Y-28106D01*
X26641Y-27989D01*
X26705Y-27835D01*
X26705Y-27669D01*
X26705Y-28198D01*
X24872Y-28198D01*
X24872Y-27841D01*
X24932Y-27988D01*
X25050Y-28106D01*
X25203Y-28170D01*
X25370Y-28170D01*
X25523Y-28106D01*
X25641Y-27989D01*
X25705Y-27835D01*
X25705Y-27669D01*
X25642Y-27515D01*
X25524Y-27397D01*
X25370Y-27333D01*
X25204Y-27333D01*
X25050Y-27397D01*
X24933Y-27514D01*
X24872Y-27661D01*
X24872Y-26841D01*
X24932Y-26988D01*
X25050Y-27106D01*
X25203Y-27170D01*
X25370Y-27170D01*
X25523Y-27106D01*
X25641Y-26989D01*
X25705Y-26835D01*
X25705Y-26669D01*
X25690Y-26633D01*
X25896Y-26427D01*
X26020Y-26427D01*
X25933Y-26514D01*
X25869Y-26668D01*
X25869Y-26834D01*
X25932Y-26988D01*
X26050Y-27106D01*
X26203Y-27170D01*
X26370Y-27170D01*
X26523Y-27106D01*
X26641Y-26989D01*
X26705Y-26835D01*
X26705Y-26669D01*
X26642Y-26515D01*
X26554Y-26427D01*
X26732Y-26427D01*
X26732Y-26427D01*
X26732Y-26427D01*
X26796Y-26415D01*
X26851Y-26378D01*
X27185Y-26044D01*
X27175Y-26068D01*
X27175Y-26196D01*
X27234Y-26255D01*
X27552Y-26255D01*
X27552Y-26247D01*
X27631Y-26247D01*
X27631Y-26255D01*
X27949Y-26255D01*
X28008Y-26196D01*
X28008Y-26068D01*
X27972Y-25981D01*
X27906Y-25914D01*
X27824Y-25880D01*
X27838Y-25875D01*
X27872Y-25841D01*
X27890Y-25798D01*
X27890Y-25751D01*
X27890Y-25391D01*
X27872Y-25348D01*
X27853Y-25329D01*
X27874Y-25315D01*
X28110Y-25079D01*
X28110Y-25079D01*
X28110Y-25079D01*
X28147Y-25024D01*
X28160Y-24960D01*
X28160Y-24909D01*
X28173Y-24978D01*
X28225Y-25055D01*
X28573Y-25403D01*
X28573Y-25403D01*
X28590Y-25414D01*
X28512Y-25430D01*
X28436Y-25481D01*
X28271Y-25646D01*
X28188Y-25646D01*
X28145Y-25664D01*
X28112Y-25697D01*
X28094Y-25741D01*
X28093Y-25788D01*
X28093Y-26148D01*
X28111Y-26191D01*
X28145Y-26224D01*
X28188Y-26242D01*
X28235Y-26243D01*
X28595Y-26243D01*
X28638Y-26225D01*
X28672Y-26191D01*
X28690Y-26148D01*
X28690Y-26101D01*
X28690Y-25895D01*
X28701Y-25884D01*
X28835Y-25884D01*
X28837Y-25890D01*
X28870Y-25923D01*
X28914Y-25941D01*
X28960Y-25941D01*
X29510Y-25941D01*
X29554Y-25923D01*
X29566Y-25911D01*
X29579Y-25923D01*
X29622Y-25941D01*
X29669Y-25941D01*
X30219Y-25941D01*
X30263Y-25923D01*
X30275Y-25911D01*
X30287Y-25923D01*
X30331Y-25941D01*
X30378Y-25941D01*
X30928Y-25941D01*
X30971Y-25923D01*
X31004Y-25890D01*
X31023Y-25847D01*
X31023Y-25800D01*
X31023Y-25450D01*
X31005Y-25406D01*
X30971Y-25373D01*
X30928Y-25355D01*
X30881Y-25355D01*
X30866Y-25355D01*
X30866Y-24842D01*
X30848Y-24752D01*
X30848Y-24752D01*
X30796Y-24675D01*
X30403Y-24281D01*
X30383Y-24268D01*
X30383Y-24245D01*
X30365Y-24202D01*
X30332Y-24168D01*
X30288Y-24150D01*
X30241Y-24150D01*
X29881Y-24150D01*
X29838Y-24168D01*
X29804Y-24201D01*
X29786Y-24245D01*
X29786Y-24292D01*
X29786Y-24652D01*
X29804Y-24695D01*
X29838Y-24728D01*
X29881Y-24746D01*
X29928Y-24746D01*
X30200Y-24746D01*
X30393Y-24940D01*
X30393Y-25355D01*
X30331Y-25355D01*
X30288Y-25373D01*
X30275Y-25385D01*
X30263Y-25373D01*
X30219Y-25355D01*
X30172Y-25355D01*
X30157Y-25355D01*
X30157Y-25354D01*
X30139Y-25263D01*
X30088Y-25187D01*
X29970Y-25069D01*
X29893Y-25017D01*
X29803Y-25000D01*
X29701Y-25000D01*
X29701Y-24897D01*
X29642Y-24838D01*
X29324Y-24838D01*
X29324Y-24846D01*
X29245Y-24846D01*
X29245Y-24838D01*
X28927Y-24838D01*
X28868Y-24897D01*
X28868Y-25000D01*
X28838Y-25000D01*
X28628Y-24790D01*
X28628Y-24733D01*
X28638Y-24729D01*
X28672Y-24695D01*
X28690Y-24652D01*
X28690Y-24605D01*
X28690Y-24266D01*
X28986Y-24266D01*
X28986Y-24302D01*
X29004Y-24345D01*
X29038Y-24378D01*
X29052Y-24384D01*
X28971Y-24418D01*
X28904Y-24485D01*
X28868Y-24572D01*
X28868Y-24700D01*
X28927Y-24759D01*
X29245Y-24759D01*
X29245Y-24751D01*
X29324Y-24751D01*
X29324Y-24759D01*
X29642Y-24759D01*
X29701Y-24700D01*
X29701Y-24572D01*
X29665Y-24485D01*
X29599Y-24418D01*
X29517Y-24384D01*
X29531Y-24379D01*
X29565Y-24345D01*
X29583Y-24302D01*
X29583Y-24255D01*
X29583Y-23920D01*
X30887Y-23920D01*
X32229Y-25262D01*
X32229Y-25286D01*
X32193Y-25286D01*
X32150Y-25304D01*
X32117Y-25337D01*
X32111Y-25351D01*
X32077Y-25270D01*
X32010Y-25203D01*
X31924Y-25167D01*
X31795Y-25168D01*
X31736Y-25227D01*
X31736Y-25544D01*
X31744Y-25544D01*
X31744Y-25623D01*
X31736Y-25623D01*
X31736Y-25941D01*
X31795Y-26000D01*
X31924Y-26000D01*
X32010Y-25964D01*
X32077Y-25898D01*
X32111Y-25816D01*
X32117Y-25831D01*
X32150Y-25864D01*
X32193Y-25882D01*
X32240Y-25882D01*
X32600Y-25882D01*
X32644Y-25864D01*
X32677Y-25831D01*
X32695Y-25787D01*
X32695Y-25740D01*
X32695Y-25380D01*
X32677Y-25337D01*
X32644Y-25304D01*
X32600Y-25286D01*
X32565Y-25286D01*
X32565Y-25192D01*
X32552Y-25128D01*
X32516Y-25073D01*
X32516Y-25073D01*
X32492Y-25050D01*
X33375Y-25050D01*
X33611Y-25286D01*
X33611Y-25286D01*
X33567Y-25304D01*
X33534Y-25337D01*
X33528Y-25351D01*
X33494Y-25270D01*
X33428Y-25203D01*
X33341Y-25167D01*
X33212Y-25168D01*
X33153Y-25227D01*
X33153Y-25544D01*
X33161Y-25544D01*
X33161Y-25623D01*
X33153Y-25623D01*
X33153Y-25941D01*
X33212Y-26000D01*
X33341Y-26000D01*
X33428Y-25964D01*
X33494Y-25898D01*
X33528Y-25816D01*
X33534Y-25831D01*
X33567Y-25864D01*
X33610Y-25882D01*
X33657Y-25882D01*
X34017Y-25882D01*
X34061Y-25864D01*
X34094Y-25831D01*
X34112Y-25787D01*
X34112Y-25740D01*
X34112Y-25380D01*
X34094Y-25337D01*
X34061Y-25304D01*
X34018Y-25286D01*
X33982Y-25286D01*
X33982Y-25251D01*
X33969Y-25187D01*
X33933Y-25132D01*
X33933Y-25132D01*
X33563Y-24763D01*
X33509Y-24726D01*
X33444Y-24713D01*
X33444Y-24713D01*
X33224Y-24713D01*
X33314Y-24676D01*
X33573Y-24418D01*
X33713Y-24081D01*
X33713Y-23715D01*
X33574Y-23378D01*
X33454Y-23258D01*
X34527Y-23258D01*
X34527Y-23258D01*
X34527Y-23258D01*
X34591Y-23245D01*
X34646Y-23209D01*
X34903Y-22952D01*
X34948Y-22952D01*
X35035Y-22916D01*
X35039Y-22912D01*
X35039Y-24192D01*
X35039Y-24239D01*
X35039Y-24239D01*
X35039Y-26358D01*
X34675Y-26722D01*
X34624Y-26799D01*
X34606Y-26889D01*
X34606Y-26904D01*
X34579Y-26904D01*
X33979Y-26904D01*
X33936Y-26922D01*
X33903Y-26955D01*
X33885Y-26999D01*
X33885Y-27046D01*
X33885Y-27406D01*
X33654Y-27637D01*
X33335Y-27637D01*
X33413Y-27559D01*
X33477Y-27406D01*
X33477Y-27240D01*
X33413Y-27086D01*
X33296Y-26968D01*
X33295Y-26968D01*
X33295Y-26887D01*
X33500Y-26682D01*
X33667Y-26682D01*
X33711Y-26664D01*
X33744Y-26631D01*
X33762Y-26587D01*
X33762Y-26540D01*
X33762Y-26180D01*
X33744Y-26137D01*
X33711Y-26104D01*
X33668Y-26086D01*
X33621Y-26086D01*
X33261Y-26086D01*
X33217Y-26104D01*
X33184Y-26137D01*
X33166Y-26180D01*
X33166Y-26227D01*
X33166Y-26348D01*
X33075Y-26439D01*
X33075Y-25941D01*
X33075Y-25623D01*
X33075Y-25544D01*
X33075Y-25227D01*
X33016Y-25168D01*
X32887Y-25167D01*
X32800Y-25203D01*
X32734Y-25270D01*
X32698Y-25357D01*
X32698Y-25451D01*
X32698Y-25485D01*
X32757Y-25544D01*
X33075Y-25544D01*
X33075Y-25623D01*
X32757Y-25623D01*
X32698Y-25682D01*
X32698Y-25717D01*
X32698Y-25811D01*
X32734Y-25898D01*
X32800Y-25964D01*
X32887Y-26000D01*
X33016Y-26000D01*
X33075Y-25941D01*
X33075Y-26439D01*
X32892Y-26622D01*
X32840Y-26699D01*
X32822Y-26789D01*
X32822Y-26968D01*
X32822Y-26968D01*
X32704Y-27085D01*
X32641Y-27239D01*
X32640Y-27405D01*
X32704Y-27559D01*
X32782Y-27637D01*
X32477Y-27637D01*
X32477Y-27599D01*
X32477Y-26999D01*
X32459Y-26956D01*
X32426Y-26922D01*
X32382Y-26904D01*
X32335Y-26904D01*
X32295Y-26904D01*
X32295Y-26663D01*
X32327Y-26631D01*
X32345Y-26587D01*
X32345Y-26540D01*
X32345Y-26180D01*
X32327Y-26137D01*
X32294Y-26104D01*
X32250Y-26086D01*
X32203Y-26086D01*
X31843Y-26086D01*
X31800Y-26104D01*
X31767Y-26137D01*
X31749Y-26180D01*
X31749Y-26227D01*
X31749Y-26587D01*
X31767Y-26631D01*
X31800Y-26664D01*
X31822Y-26673D01*
X31822Y-26904D01*
X31735Y-26904D01*
X31692Y-26922D01*
X31658Y-26955D01*
X31657Y-26958D01*
X31657Y-25941D01*
X31657Y-25623D01*
X31657Y-25544D01*
X31657Y-25227D01*
X31598Y-25168D01*
X31470Y-25167D01*
X31383Y-25203D01*
X31317Y-25270D01*
X31281Y-25357D01*
X31280Y-25451D01*
X31281Y-25485D01*
X31340Y-25544D01*
X31657Y-25544D01*
X31657Y-25623D01*
X31340Y-25623D01*
X31281Y-25682D01*
X31280Y-25717D01*
X31281Y-25811D01*
X31317Y-25898D01*
X31383Y-25964D01*
X31470Y-26000D01*
X31598Y-26000D01*
X31657Y-25941D01*
X31657Y-26958D01*
X31640Y-26999D01*
X31640Y-27046D01*
X31640Y-27637D01*
X31436Y-27637D01*
X31224Y-27426D01*
X31232Y-27406D01*
X31233Y-27240D01*
X31169Y-27086D01*
X31052Y-26968D01*
X31023Y-26956D01*
X31023Y-26550D01*
X31023Y-26200D01*
X31005Y-26156D01*
X30971Y-26123D01*
X30928Y-26105D01*
X30881Y-26105D01*
X30331Y-26105D01*
X30288Y-26123D01*
X30275Y-26135D01*
X30263Y-26123D01*
X30219Y-26105D01*
X30172Y-26105D01*
X29622Y-26105D01*
X29579Y-26123D01*
X29566Y-26135D01*
X29554Y-26123D01*
X29511Y-26105D01*
X29464Y-26105D01*
X28914Y-26105D01*
X28870Y-26123D01*
X28837Y-26156D01*
X28819Y-26200D01*
X28819Y-26247D01*
X28819Y-26597D01*
X28837Y-26640D01*
X28870Y-26673D01*
X28914Y-26691D01*
X28960Y-26691D01*
X29510Y-26691D01*
X29554Y-26673D01*
X29566Y-26661D01*
X29578Y-26673D01*
X29578Y-26904D01*
X29491Y-26904D01*
X29448Y-26922D01*
X29414Y-26955D01*
X29396Y-26999D01*
X29396Y-27046D01*
X29396Y-27646D01*
X29414Y-27689D01*
X29447Y-27722D01*
X29491Y-27740D01*
X29538Y-27740D01*
X30138Y-27740D01*
X30181Y-27723D01*
X30215Y-27689D01*
X30233Y-27646D01*
X30233Y-27599D01*
X30233Y-26999D01*
X30215Y-26956D01*
X30181Y-26922D01*
X30138Y-26904D01*
X30091Y-26904D01*
X30051Y-26904D01*
X30051Y-26691D01*
X30219Y-26691D01*
X30263Y-26673D01*
X30275Y-26661D01*
X30287Y-26673D01*
X30331Y-26691D01*
X30378Y-26691D01*
X30928Y-26691D01*
X30971Y-26673D01*
X31004Y-26640D01*
X31023Y-26597D01*
X31023Y-26550D01*
X31023Y-26956D01*
X30898Y-26904D01*
X30732Y-26904D01*
X30578Y-26968D01*
X30460Y-27085D01*
X30396Y-27239D01*
X30396Y-27405D01*
X30460Y-27559D01*
X30577Y-27677D01*
X30731Y-27740D01*
X30871Y-27740D01*
X31171Y-28041D01*
X31248Y-28092D01*
X31338Y-28110D01*
X33751Y-28110D01*
X33842Y-28092D01*
X33919Y-28041D01*
X34219Y-27740D01*
X34626Y-27740D01*
X34669Y-27723D01*
X34703Y-27689D01*
X34721Y-27646D01*
X34721Y-27599D01*
X34721Y-27559D01*
X34842Y-27559D01*
X34948Y-27559D01*
X34948Y-27559D01*
X35066Y-27677D01*
X35219Y-27740D01*
X35385Y-27741D01*
X35539Y-27677D01*
X35657Y-27559D01*
X35721Y-27406D01*
X35721Y-27240D01*
X35657Y-27086D01*
X35540Y-26968D01*
X35386Y-26904D01*
X35220Y-26904D01*
X35120Y-26945D01*
X35442Y-26623D01*
X35442Y-26623D01*
X35442Y-26623D01*
X35493Y-26547D01*
X35493Y-26547D01*
X35511Y-26456D01*
X35511Y-26456D01*
X35511Y-24193D01*
X35511Y-24192D01*
X35511Y-24146D01*
X35511Y-24146D01*
X35511Y-22952D01*
X35796Y-22667D01*
X35827Y-22621D01*
X35827Y-22738D01*
X35845Y-22781D01*
X35878Y-22815D01*
X35921Y-22833D01*
X35968Y-22833D01*
X36168Y-22833D01*
X36212Y-22815D01*
X36225Y-22801D01*
X36245Y-22849D01*
X36311Y-22915D01*
X36398Y-22951D01*
X36446Y-22951D01*
X36505Y-22892D01*
X36505Y-22529D01*
X36498Y-22529D01*
X36498Y-22450D01*
X36505Y-22450D01*
X36505Y-22087D01*
X36446Y-22028D01*
X36398Y-22028D01*
X36311Y-22064D01*
X36281Y-22094D01*
X36281Y-21791D01*
X36322Y-21791D01*
X36890Y-21791D01*
X36847Y-21834D01*
X36830Y-21875D01*
X36827Y-21880D01*
X36825Y-21885D01*
X36811Y-21921D01*
X36811Y-21960D01*
X36809Y-21970D01*
X36809Y-22094D01*
X36778Y-22064D01*
X36692Y-22028D01*
X36643Y-22028D01*
X36584Y-22087D01*
X36584Y-22450D01*
X36592Y-22450D01*
X36592Y-22529D01*
X36584Y-22529D01*
X36584Y-22892D01*
X36643Y-22951D01*
X36692Y-22951D01*
X36778Y-22915D01*
X36845Y-22849D01*
X36865Y-22801D01*
X36878Y-22815D01*
X36921Y-22833D01*
X36950Y-22833D01*
X36945Y-22838D01*
X36909Y-22925D01*
X36909Y-23019D01*
X36945Y-23106D01*
X37011Y-23172D01*
X37098Y-23208D01*
X37192Y-23208D01*
X37279Y-23172D01*
X37309Y-23143D01*
X37309Y-24990D01*
X37327Y-25080D01*
X37327Y-25080D01*
X37327Y-25238D01*
X37345Y-25281D01*
X37378Y-25315D01*
X37421Y-25333D01*
X37468Y-25333D01*
X37668Y-25333D01*
X37712Y-25315D01*
X37745Y-25282D01*
X37763Y-25238D01*
X37763Y-25226D01*
X37809Y-25226D01*
X37809Y-25446D01*
X37814Y-25476D01*
X37814Y-25499D01*
X37823Y-25521D01*
X37827Y-25537D01*
X37836Y-25550D01*
X37850Y-25586D01*
X37878Y-25613D01*
X37878Y-25613D01*
X37883Y-25619D01*
X37917Y-25652D01*
X37960Y-25670D01*
X37967Y-25673D01*
G54D10*
G36*
X38592Y-27828D02*
X38537Y-27884D01*
X38531Y-27878D01*
X38525Y-27884D01*
X38475Y-27833D01*
X38470Y-27828D01*
X38475Y-27822D01*
X38470Y-27817D01*
X38525Y-27761D01*
X38531Y-27767D01*
X38537Y-27761D01*
X38592Y-27817D01*
X38587Y-27822D01*
X38592Y-27828D01*
X38592Y-27828D01*
G37*
G54D22*
X38592Y-27828D02*
X38537Y-27884D01*
X38531Y-27878D01*
X38525Y-27884D01*
X38475Y-27833D01*
X38470Y-27828D01*
X38475Y-27822D01*
X38470Y-27817D01*
X38525Y-27761D01*
X38531Y-27767D01*
X38537Y-27761D01*
X38592Y-27817D01*
X38587Y-27822D01*
X38592Y-27828D01*
G54D10*
G36*
X40068Y-24635D02*
X40055Y-24622D01*
X39968Y-24586D01*
X39881Y-24586D01*
X39881Y-22668D01*
X39881Y-22311D01*
X39881Y-22217D01*
X39845Y-22131D01*
X39778Y-22064D01*
X39692Y-22028D01*
X39643Y-22028D01*
X39584Y-22087D01*
X39584Y-22450D01*
X39822Y-22450D01*
X39881Y-22391D01*
X39881Y-22311D01*
X39881Y-22668D01*
X39881Y-22588D01*
X39822Y-22529D01*
X39584Y-22529D01*
X39584Y-22892D01*
X39643Y-22951D01*
X39692Y-22951D01*
X39778Y-22915D01*
X39845Y-22849D01*
X39881Y-22762D01*
X39881Y-22668D01*
X39881Y-24586D01*
X39874Y-24586D01*
X39787Y-24622D01*
X39728Y-24681D01*
X39712Y-24665D01*
X39668Y-24647D01*
X39621Y-24647D01*
X39527Y-24647D01*
X39527Y-21626D01*
X39527Y-21279D01*
X39468Y-21220D01*
X38828Y-21220D01*
X38828Y-21850D01*
X38887Y-21909D01*
X39338Y-21909D01*
X39424Y-21873D01*
X39491Y-21807D01*
X39527Y-21720D01*
X39527Y-21626D01*
X39527Y-24647D01*
X39505Y-24647D01*
X39505Y-22892D01*
X39505Y-22529D01*
X39498Y-22529D01*
X39498Y-22450D01*
X39505Y-22450D01*
X39505Y-22087D01*
X39446Y-22028D01*
X39398Y-22028D01*
X39311Y-22064D01*
X39245Y-22131D01*
X39225Y-22178D01*
X39212Y-22165D01*
X39168Y-22147D01*
X39121Y-22147D01*
X38921Y-22147D01*
X38878Y-22164D01*
X38865Y-22178D01*
X38845Y-22131D01*
X38778Y-22064D01*
X38749Y-22052D01*
X38749Y-21850D01*
X38749Y-21220D01*
X38110Y-21220D01*
X38051Y-21279D01*
X38051Y-21626D01*
X38051Y-21720D01*
X38087Y-21807D01*
X38153Y-21873D01*
X38240Y-21909D01*
X38690Y-21909D01*
X38749Y-21850D01*
X38749Y-22052D01*
X38692Y-22028D01*
X38643Y-22028D01*
X38584Y-22087D01*
X38584Y-22450D01*
X38592Y-22450D01*
X38592Y-22529D01*
X38584Y-22529D01*
X38584Y-22892D01*
X38643Y-22951D01*
X38692Y-22951D01*
X38778Y-22915D01*
X38845Y-22849D01*
X38865Y-22801D01*
X38877Y-22814D01*
X38877Y-22835D01*
X38854Y-22858D01*
X38818Y-22944D01*
X38818Y-23038D01*
X38854Y-23125D01*
X38921Y-23192D01*
X39007Y-23228D01*
X39101Y-23228D01*
X39188Y-23192D01*
X39255Y-23126D01*
X39291Y-23039D01*
X39291Y-22945D01*
X39256Y-22860D01*
X39311Y-22915D01*
X39398Y-22951D01*
X39446Y-22951D01*
X39505Y-22892D01*
X39505Y-24647D01*
X39421Y-24647D01*
X39378Y-24664D01*
X39345Y-24698D01*
X39327Y-24741D01*
X39327Y-24788D01*
X39327Y-24899D01*
X39327Y-24899D01*
X39309Y-24990D01*
X39327Y-25080D01*
X39327Y-25080D01*
X39327Y-25238D01*
X39345Y-25281D01*
X39378Y-25315D01*
X39421Y-25333D01*
X39468Y-25333D01*
X39547Y-25333D01*
X39526Y-25354D01*
X39480Y-25354D01*
X39393Y-25390D01*
X39327Y-25456D01*
X39291Y-25543D01*
X39291Y-25637D01*
X39306Y-25673D01*
X39263Y-25673D01*
X39263Y-25191D01*
X39263Y-24741D01*
X39245Y-24698D01*
X39212Y-24665D01*
X39168Y-24647D01*
X39121Y-24647D01*
X38921Y-24647D01*
X38878Y-24664D01*
X38845Y-24698D01*
X38827Y-24741D01*
X38827Y-24788D01*
X38827Y-25238D01*
X38845Y-25281D01*
X38878Y-25315D01*
X38921Y-25333D01*
X38968Y-25333D01*
X39168Y-25333D01*
X39212Y-25315D01*
X39245Y-25282D01*
X39263Y-25238D01*
X39263Y-25191D01*
X39263Y-25673D01*
X38135Y-25673D01*
X38141Y-25670D01*
X38184Y-25653D01*
X38218Y-25619D01*
X38251Y-25586D01*
X38269Y-25543D01*
X38287Y-25499D01*
X38287Y-25452D01*
X38287Y-25405D01*
X38281Y-25391D01*
X38281Y-25226D01*
X38327Y-25226D01*
X38327Y-25238D01*
X38345Y-25281D01*
X38378Y-25315D01*
X38421Y-25333D01*
X38468Y-25333D01*
X38668Y-25333D01*
X38712Y-25315D01*
X38745Y-25282D01*
X38763Y-25238D01*
X38763Y-25191D01*
X38763Y-25080D01*
X38763Y-25080D01*
X38781Y-24990D01*
X38763Y-24899D01*
X38763Y-24899D01*
X38763Y-24741D01*
X38745Y-24698D01*
X38712Y-24665D01*
X38668Y-24647D01*
X38621Y-24647D01*
X38421Y-24647D01*
X38378Y-24664D01*
X38345Y-24698D01*
X38327Y-24741D01*
X38327Y-24753D01*
X38281Y-24753D01*
X38281Y-22885D01*
X38311Y-22915D01*
X38398Y-22951D01*
X38446Y-22951D01*
X38505Y-22892D01*
X38505Y-22529D01*
X38498Y-22529D01*
X38498Y-22450D01*
X38505Y-22450D01*
X38505Y-22087D01*
X38446Y-22028D01*
X38398Y-22028D01*
X38311Y-22064D01*
X38245Y-22131D01*
X38225Y-22178D01*
X38212Y-22165D01*
X38168Y-22147D01*
X38121Y-22147D01*
X37921Y-22147D01*
X37878Y-22164D01*
X37845Y-22198D01*
X37827Y-22241D01*
X37827Y-22253D01*
X37763Y-22253D01*
X37763Y-22241D01*
X37745Y-22198D01*
X37712Y-22165D01*
X37668Y-22147D01*
X37621Y-22147D01*
X37421Y-22147D01*
X37378Y-22164D01*
X37345Y-22198D01*
X37327Y-22241D01*
X37327Y-22288D01*
X37327Y-22399D01*
X37327Y-22399D01*
X37309Y-22490D01*
X37309Y-22801D01*
X37279Y-22772D01*
X37253Y-22761D01*
X37263Y-22738D01*
X37263Y-22691D01*
X37263Y-22580D01*
X37263Y-22580D01*
X37281Y-22490D01*
X37281Y-22020D01*
X37283Y-22015D01*
X37283Y-21968D01*
X37283Y-21921D01*
X37265Y-21878D01*
X37247Y-21834D01*
X37204Y-21791D01*
X37326Y-21791D01*
X37370Y-21773D01*
X37403Y-21740D01*
X37421Y-21696D01*
X37421Y-21649D01*
X37421Y-20665D01*
X37403Y-20622D01*
X37402Y-20620D01*
X38059Y-20620D01*
X38051Y-20641D01*
X38051Y-20735D01*
X38051Y-21082D01*
X38110Y-21141D01*
X38749Y-21141D01*
X38749Y-21133D01*
X38828Y-21133D01*
X38828Y-21141D01*
X39468Y-21141D01*
X39527Y-21082D01*
X39527Y-20887D01*
X40068Y-21427D01*
X40068Y-24635D01*
X40068Y-24635D01*
G37*
G54D22*
X40068Y-24635D02*
X40055Y-24622D01*
X39968Y-24586D01*
X39881Y-24586D01*
X39881Y-22668D01*
X39881Y-22311D01*
X39881Y-22217D01*
X39845Y-22131D01*
X39778Y-22064D01*
X39692Y-22028D01*
X39643Y-22028D01*
X39584Y-22087D01*
X39584Y-22450D01*
X39822Y-22450D01*
X39881Y-22391D01*
X39881Y-22311D01*
X39881Y-22668D01*
X39881Y-22588D01*
X39822Y-22529D01*
X39584Y-22529D01*
X39584Y-22892D01*
X39643Y-22951D01*
X39692Y-22951D01*
X39778Y-22915D01*
X39845Y-22849D01*
X39881Y-22762D01*
X39881Y-22668D01*
X39881Y-24586D01*
X39874Y-24586D01*
X39787Y-24622D01*
X39728Y-24681D01*
X39712Y-24665D01*
X39668Y-24647D01*
X39621Y-24647D01*
X39527Y-24647D01*
X39527Y-21626D01*
X39527Y-21279D01*
X39468Y-21220D01*
X38828Y-21220D01*
X38828Y-21850D01*
X38887Y-21909D01*
X39338Y-21909D01*
X39424Y-21873D01*
X39491Y-21807D01*
X39527Y-21720D01*
X39527Y-21626D01*
X39527Y-24647D01*
X39505Y-24647D01*
X39505Y-22892D01*
X39505Y-22529D01*
X39498Y-22529D01*
X39498Y-22450D01*
X39505Y-22450D01*
X39505Y-22087D01*
X39446Y-22028D01*
X39398Y-22028D01*
X39311Y-22064D01*
X39245Y-22131D01*
X39225Y-22178D01*
X39212Y-22165D01*
X39168Y-22147D01*
X39121Y-22147D01*
X38921Y-22147D01*
X38878Y-22164D01*
X38865Y-22178D01*
X38845Y-22131D01*
X38778Y-22064D01*
X38749Y-22052D01*
X38749Y-21850D01*
X38749Y-21220D01*
X38110Y-21220D01*
X38051Y-21279D01*
X38051Y-21626D01*
X38051Y-21720D01*
X38087Y-21807D01*
X38153Y-21873D01*
X38240Y-21909D01*
X38690Y-21909D01*
X38749Y-21850D01*
X38749Y-22052D01*
X38692Y-22028D01*
X38643Y-22028D01*
X38584Y-22087D01*
X38584Y-22450D01*
X38592Y-22450D01*
X38592Y-22529D01*
X38584Y-22529D01*
X38584Y-22892D01*
X38643Y-22951D01*
X38692Y-22951D01*
X38778Y-22915D01*
X38845Y-22849D01*
X38865Y-22801D01*
X38877Y-22814D01*
X38877Y-22835D01*
X38854Y-22858D01*
X38818Y-22944D01*
X38818Y-23038D01*
X38854Y-23125D01*
X38921Y-23192D01*
X39007Y-23228D01*
X39101Y-23228D01*
X39188Y-23192D01*
X39255Y-23126D01*
X39291Y-23039D01*
X39291Y-22945D01*
X39256Y-22860D01*
X39311Y-22915D01*
X39398Y-22951D01*
X39446Y-22951D01*
X39505Y-22892D01*
X39505Y-24647D01*
X39421Y-24647D01*
X39378Y-24664D01*
X39345Y-24698D01*
X39327Y-24741D01*
X39327Y-24788D01*
X39327Y-24899D01*
X39327Y-24899D01*
X39309Y-24990D01*
X39327Y-25080D01*
X39327Y-25080D01*
X39327Y-25238D01*
X39345Y-25281D01*
X39378Y-25315D01*
X39421Y-25333D01*
X39468Y-25333D01*
X39547Y-25333D01*
X39526Y-25354D01*
X39480Y-25354D01*
X39393Y-25390D01*
X39327Y-25456D01*
X39291Y-25543D01*
X39291Y-25637D01*
X39306Y-25673D01*
X39263Y-25673D01*
X39263Y-25191D01*
X39263Y-24741D01*
X39245Y-24698D01*
X39212Y-24665D01*
X39168Y-24647D01*
X39121Y-24647D01*
X38921Y-24647D01*
X38878Y-24664D01*
X38845Y-24698D01*
X38827Y-24741D01*
X38827Y-24788D01*
X38827Y-25238D01*
X38845Y-25281D01*
X38878Y-25315D01*
X38921Y-25333D01*
X38968Y-25333D01*
X39168Y-25333D01*
X39212Y-25315D01*
X39245Y-25282D01*
X39263Y-25238D01*
X39263Y-25191D01*
X39263Y-25673D01*
X38135Y-25673D01*
X38141Y-25670D01*
X38184Y-25653D01*
X38218Y-25619D01*
X38251Y-25586D01*
X38269Y-25543D01*
X38287Y-25499D01*
X38287Y-25452D01*
X38287Y-25405D01*
X38281Y-25391D01*
X38281Y-25226D01*
X38327Y-25226D01*
X38327Y-25238D01*
X38345Y-25281D01*
X38378Y-25315D01*
X38421Y-25333D01*
X38468Y-25333D01*
X38668Y-25333D01*
X38712Y-25315D01*
X38745Y-25282D01*
X38763Y-25238D01*
X38763Y-25191D01*
X38763Y-25080D01*
X38763Y-25080D01*
X38781Y-24990D01*
X38763Y-24899D01*
X38763Y-24899D01*
X38763Y-24741D01*
X38745Y-24698D01*
X38712Y-24665D01*
X38668Y-24647D01*
X38621Y-24647D01*
X38421Y-24647D01*
X38378Y-24664D01*
X38345Y-24698D01*
X38327Y-24741D01*
X38327Y-24753D01*
X38281Y-24753D01*
X38281Y-22885D01*
X38311Y-22915D01*
X38398Y-22951D01*
X38446Y-22951D01*
X38505Y-22892D01*
X38505Y-22529D01*
X38498Y-22529D01*
X38498Y-22450D01*
X38505Y-22450D01*
X38505Y-22087D01*
X38446Y-22028D01*
X38398Y-22028D01*
X38311Y-22064D01*
X38245Y-22131D01*
X38225Y-22178D01*
X38212Y-22165D01*
X38168Y-22147D01*
X38121Y-22147D01*
X37921Y-22147D01*
X37878Y-22164D01*
X37845Y-22198D01*
X37827Y-22241D01*
X37827Y-22253D01*
X37763Y-22253D01*
X37763Y-22241D01*
X37745Y-22198D01*
X37712Y-22165D01*
X37668Y-22147D01*
X37621Y-22147D01*
X37421Y-22147D01*
X37378Y-22164D01*
X37345Y-22198D01*
X37327Y-22241D01*
X37327Y-22288D01*
X37327Y-22399D01*
X37327Y-22399D01*
X37309Y-22490D01*
X37309Y-22801D01*
X37279Y-22772D01*
X37253Y-22761D01*
X37263Y-22738D01*
X37263Y-22691D01*
X37263Y-22580D01*
X37263Y-22580D01*
X37281Y-22490D01*
X37281Y-22020D01*
X37283Y-22015D01*
X37283Y-21968D01*
X37283Y-21921D01*
X37265Y-21878D01*
X37247Y-21834D01*
X37204Y-21791D01*
X37326Y-21791D01*
X37370Y-21773D01*
X37403Y-21740D01*
X37421Y-21696D01*
X37421Y-21649D01*
X37421Y-20665D01*
X37403Y-20622D01*
X37402Y-20620D01*
X38059Y-20620D01*
X38051Y-20641D01*
X38051Y-20735D01*
X38051Y-21082D01*
X38110Y-21141D01*
X38749Y-21141D01*
X38749Y-21133D01*
X38828Y-21133D01*
X38828Y-21141D01*
X39468Y-21141D01*
X39527Y-21082D01*
X39527Y-20887D01*
X40068Y-21427D01*
X40068Y-24635D01*
G54D10*
G36*
X44261Y-28198D02*
X43767Y-28198D01*
X43767Y-27466D01*
X43767Y-26466D01*
X43764Y-26370D01*
X43764Y-25724D01*
X43764Y-25031D01*
X43728Y-24944D01*
X43662Y-24877D01*
X43575Y-24841D01*
X43528Y-24841D01*
X43528Y-21287D01*
X43528Y-20594D01*
X43492Y-20507D01*
X43426Y-20440D01*
X43339Y-20404D01*
X43245Y-20404D01*
X43090Y-20404D01*
X43031Y-20463D01*
X43031Y-20901D01*
X43469Y-20901D01*
X43528Y-20842D01*
X43528Y-20594D01*
X43528Y-21287D01*
X43528Y-21039D01*
X43469Y-20980D01*
X43031Y-20980D01*
X43031Y-21418D01*
X43090Y-21477D01*
X43245Y-21477D01*
X43339Y-21477D01*
X43426Y-21441D01*
X43492Y-21374D01*
X43528Y-21287D01*
X43528Y-24841D01*
X43481Y-24841D01*
X43326Y-24841D01*
X43267Y-24900D01*
X43267Y-25338D01*
X43705Y-25338D01*
X43764Y-25279D01*
X43764Y-25031D01*
X43764Y-25724D01*
X43764Y-25476D01*
X43705Y-25417D01*
X43267Y-25417D01*
X43267Y-25425D01*
X43188Y-25425D01*
X43188Y-25417D01*
X43188Y-25338D01*
X43188Y-24900D01*
X43129Y-24841D01*
X42975Y-24841D01*
X42881Y-24841D01*
X42794Y-24877D01*
X42727Y-24944D01*
X42692Y-25031D01*
X42692Y-25279D01*
X42751Y-25338D01*
X43188Y-25338D01*
X43188Y-25417D01*
X42751Y-25417D01*
X42692Y-25476D01*
X42692Y-25724D01*
X42727Y-25811D01*
X42794Y-25878D01*
X42881Y-25914D01*
X42939Y-25914D01*
X42912Y-26006D01*
X43228Y-26322D01*
X43544Y-26006D01*
X43517Y-25914D01*
X43575Y-25914D01*
X43662Y-25878D01*
X43728Y-25811D01*
X43764Y-25724D01*
X43764Y-26370D01*
X43760Y-26253D01*
X43692Y-26089D01*
X43599Y-26062D01*
X43284Y-26377D01*
X43599Y-26693D01*
X43692Y-26666D01*
X43767Y-26466D01*
X43767Y-27466D01*
X43760Y-27253D01*
X43692Y-27089D01*
X43599Y-27062D01*
X43544Y-27117D01*
X43544Y-27006D01*
X43517Y-26913D01*
X43426Y-26879D01*
X43517Y-26842D01*
X43544Y-26749D01*
X43228Y-26433D01*
X43172Y-26489D01*
X43172Y-26377D01*
X42856Y-26062D01*
X42764Y-26089D01*
X42688Y-26288D01*
X42695Y-26502D01*
X42764Y-26666D01*
X42856Y-26693D01*
X43172Y-26377D01*
X43172Y-26489D01*
X42912Y-26749D01*
X42939Y-26842D01*
X43029Y-26876D01*
X42939Y-26913D01*
X42912Y-27006D01*
X43228Y-27322D01*
X43544Y-27006D01*
X43544Y-27117D01*
X43284Y-27377D01*
X43599Y-27693D01*
X43692Y-27666D01*
X43767Y-27466D01*
X43767Y-28198D01*
X43544Y-28198D01*
X43544Y-27749D01*
X43228Y-27433D01*
X43172Y-27489D01*
X43172Y-27377D01*
X42856Y-27062D01*
X42764Y-27089D01*
X42688Y-27288D01*
X42695Y-27502D01*
X42764Y-27666D01*
X42856Y-27693D01*
X43172Y-27377D01*
X43172Y-27489D01*
X42912Y-27749D01*
X42939Y-27842D01*
X43139Y-27917D01*
X43352Y-27910D01*
X43517Y-27842D01*
X43544Y-27749D01*
X43544Y-28198D01*
X39716Y-28198D01*
X39768Y-28177D01*
X39885Y-28059D01*
X39949Y-27906D01*
X39949Y-27740D01*
X39886Y-27586D01*
X39790Y-27490D01*
X40393Y-27490D01*
X40393Y-27490D01*
X40393Y-27490D01*
X40438Y-27482D01*
X40405Y-27514D01*
X40341Y-27668D01*
X40341Y-27834D01*
X40405Y-27988D01*
X40522Y-28106D01*
X40676Y-28170D01*
X40842Y-28170D01*
X40996Y-28106D01*
X41114Y-27989D01*
X41177Y-27835D01*
X41178Y-27669D01*
X41114Y-27515D01*
X41011Y-27412D01*
X41508Y-27412D01*
X41405Y-27514D01*
X41341Y-27668D01*
X41341Y-27834D01*
X41405Y-27988D01*
X41522Y-28106D01*
X41676Y-28170D01*
X41842Y-28170D01*
X41996Y-28106D01*
X42114Y-27989D01*
X42177Y-27835D01*
X42178Y-27669D01*
X42114Y-27515D01*
X41996Y-27397D01*
X41843Y-27333D01*
X41683Y-27333D01*
X41850Y-27166D01*
X41996Y-27106D01*
X42114Y-26989D01*
X42177Y-26835D01*
X42178Y-26669D01*
X42114Y-26515D01*
X41996Y-26397D01*
X41843Y-26333D01*
X41677Y-26333D01*
X41523Y-26397D01*
X41405Y-26514D01*
X41341Y-26668D01*
X41341Y-26834D01*
X41405Y-26988D01*
X41479Y-27062D01*
X41465Y-27075D01*
X41027Y-27075D01*
X41114Y-26989D01*
X41177Y-26835D01*
X41178Y-26669D01*
X41114Y-26515D01*
X41027Y-26427D01*
X41251Y-26427D01*
X41251Y-26427D01*
X41251Y-26427D01*
X41316Y-26415D01*
X41370Y-26378D01*
X41607Y-26141D01*
X41676Y-26170D01*
X41842Y-26170D01*
X41996Y-26106D01*
X42114Y-25989D01*
X42177Y-25835D01*
X42178Y-25669D01*
X42114Y-25515D01*
X41996Y-25397D01*
X41843Y-25333D01*
X41677Y-25333D01*
X41523Y-25397D01*
X41405Y-25514D01*
X41341Y-25668D01*
X41341Y-25834D01*
X41370Y-25903D01*
X41182Y-26091D01*
X41011Y-26091D01*
X41114Y-25989D01*
X41177Y-25835D01*
X41178Y-25669D01*
X41114Y-25515D01*
X41059Y-25460D01*
X41117Y-25436D01*
X41184Y-25370D01*
X41220Y-25283D01*
X41220Y-25237D01*
X41437Y-25020D01*
X41522Y-25106D01*
X41676Y-25170D01*
X41842Y-25170D01*
X41996Y-25106D01*
X42114Y-24989D01*
X42177Y-24835D01*
X42178Y-24669D01*
X42114Y-24515D01*
X41996Y-24397D01*
X41843Y-24333D01*
X41677Y-24333D01*
X41523Y-24397D01*
X41405Y-24514D01*
X41359Y-24626D01*
X41359Y-24626D01*
X41349Y-24633D01*
X41349Y-24633D01*
X41177Y-24804D01*
X41178Y-24669D01*
X41114Y-24515D01*
X40996Y-24397D01*
X40843Y-24333D01*
X40677Y-24333D01*
X40523Y-24397D01*
X40405Y-24514D01*
X40404Y-24517D01*
X40404Y-23986D01*
X40405Y-23988D01*
X40522Y-24106D01*
X40676Y-24170D01*
X40842Y-24170D01*
X40996Y-24106D01*
X41114Y-23989D01*
X41177Y-23835D01*
X41178Y-23669D01*
X41114Y-23515D01*
X40996Y-23397D01*
X40843Y-23333D01*
X40677Y-23333D01*
X40523Y-23397D01*
X40405Y-23514D01*
X40404Y-23517D01*
X40404Y-22986D01*
X40405Y-22988D01*
X40522Y-23106D01*
X40676Y-23170D01*
X40842Y-23170D01*
X40942Y-23128D01*
X41180Y-23366D01*
X41234Y-23403D01*
X41299Y-23416D01*
X41299Y-23416D01*
X41299Y-23416D01*
X41504Y-23416D01*
X41405Y-23514D01*
X41341Y-23668D01*
X41341Y-23834D01*
X41405Y-23988D01*
X41522Y-24106D01*
X41676Y-24170D01*
X41842Y-24170D01*
X41996Y-24106D01*
X42114Y-23989D01*
X42177Y-23835D01*
X42178Y-23669D01*
X42114Y-23515D01*
X42015Y-23416D01*
X42229Y-23416D01*
X42602Y-23789D01*
X42574Y-23857D01*
X42573Y-24023D01*
X42637Y-24177D01*
X42754Y-24295D01*
X42908Y-24358D01*
X43074Y-24359D01*
X43228Y-24295D01*
X43346Y-24178D01*
X43410Y-24024D01*
X43410Y-23858D01*
X43346Y-23704D01*
X43229Y-23586D01*
X43075Y-23522D01*
X42909Y-23522D01*
X42840Y-23551D01*
X42418Y-23129D01*
X42363Y-23092D01*
X42299Y-23079D01*
X42299Y-23079D01*
X42023Y-23079D01*
X42114Y-22989D01*
X42142Y-22920D01*
X42574Y-22920D01*
X42573Y-23023D01*
X42637Y-23177D01*
X42754Y-23295D01*
X42908Y-23358D01*
X43074Y-23359D01*
X43228Y-23295D01*
X43346Y-23178D01*
X43410Y-23024D01*
X43410Y-22858D01*
X43410Y-21858D01*
X43346Y-21704D01*
X43229Y-21586D01*
X43075Y-21522D01*
X42952Y-21522D01*
X42952Y-21418D01*
X42952Y-20980D01*
X42952Y-20901D01*
X42952Y-20463D01*
X42893Y-20404D01*
X42738Y-20404D01*
X42644Y-20404D01*
X42558Y-20440D01*
X42491Y-20507D01*
X42455Y-20594D01*
X42455Y-20842D01*
X42514Y-20901D01*
X42952Y-20901D01*
X42952Y-20980D01*
X42514Y-20980D01*
X42455Y-21039D01*
X42455Y-21287D01*
X42491Y-21374D01*
X42558Y-21441D01*
X42644Y-21477D01*
X42738Y-21477D01*
X42893Y-21477D01*
X42952Y-21418D01*
X42952Y-21522D01*
X42909Y-21522D01*
X42755Y-21586D01*
X42637Y-21703D01*
X42574Y-21857D01*
X42573Y-22023D01*
X42637Y-22177D01*
X42754Y-22295D01*
X42908Y-22358D01*
X43074Y-22359D01*
X43228Y-22295D01*
X43346Y-22178D01*
X43410Y-22024D01*
X43410Y-21858D01*
X43410Y-22858D01*
X43346Y-22704D01*
X43229Y-22586D01*
X43075Y-22522D01*
X42909Y-22522D01*
X42761Y-22583D01*
X42178Y-22583D01*
X42178Y-21669D01*
X42114Y-21515D01*
X41996Y-21397D01*
X41843Y-21333D01*
X41677Y-21333D01*
X41523Y-21397D01*
X41405Y-21514D01*
X41341Y-21668D01*
X41341Y-21834D01*
X41405Y-21988D01*
X41522Y-22106D01*
X41676Y-22170D01*
X41842Y-22170D01*
X41996Y-22106D01*
X42114Y-21989D01*
X42177Y-21835D01*
X42178Y-21669D01*
X42178Y-22583D01*
X42142Y-22583D01*
X42114Y-22515D01*
X41996Y-22397D01*
X41843Y-22333D01*
X41677Y-22333D01*
X41523Y-22397D01*
X41405Y-22514D01*
X41341Y-22668D01*
X41341Y-22834D01*
X41405Y-22988D01*
X41496Y-23079D01*
X41368Y-23079D01*
X41162Y-22873D01*
X41177Y-22835D01*
X41178Y-22669D01*
X41114Y-22515D01*
X40996Y-22397D01*
X40843Y-22333D01*
X40677Y-22333D01*
X40523Y-22397D01*
X40405Y-22514D01*
X40404Y-22517D01*
X40404Y-21986D01*
X40405Y-21988D01*
X40522Y-22106D01*
X40676Y-22170D01*
X40842Y-22170D01*
X40996Y-22106D01*
X41114Y-21989D01*
X41177Y-21835D01*
X41178Y-21669D01*
X41114Y-21515D01*
X40996Y-21397D01*
X40843Y-21333D01*
X40677Y-21333D01*
X40523Y-21397D01*
X40405Y-21514D01*
X40404Y-21517D01*
X40404Y-21358D01*
X40391Y-21293D01*
X40355Y-21239D01*
X40355Y-21239D01*
X39520Y-20404D01*
X40174Y-20404D01*
X40370Y-20600D01*
X40341Y-20668D01*
X40341Y-20834D01*
X40405Y-20988D01*
X40522Y-21106D01*
X40676Y-21170D01*
X40842Y-21170D01*
X40996Y-21106D01*
X41114Y-20989D01*
X41177Y-20835D01*
X41178Y-20669D01*
X41114Y-20515D01*
X40996Y-20397D01*
X40843Y-20333D01*
X40677Y-20333D01*
X40607Y-20362D01*
X40362Y-20117D01*
X40308Y-20080D01*
X40244Y-20068D01*
X40244Y-20068D01*
X39806Y-20068D01*
X39885Y-19989D01*
X39949Y-19835D01*
X39949Y-19669D01*
X39886Y-19515D01*
X39790Y-19420D01*
X40127Y-19420D01*
X40351Y-19644D01*
X40341Y-19668D01*
X40341Y-19834D01*
X40405Y-19988D01*
X40522Y-20106D01*
X40676Y-20170D01*
X40842Y-20170D01*
X40996Y-20106D01*
X41091Y-20011D01*
X41091Y-20251D01*
X41091Y-20251D01*
X41104Y-20316D01*
X41140Y-20370D01*
X41370Y-20600D01*
X41341Y-20668D01*
X41341Y-20834D01*
X41405Y-20988D01*
X41522Y-21106D01*
X41676Y-21170D01*
X41842Y-21170D01*
X41996Y-21106D01*
X42114Y-20989D01*
X42177Y-20835D01*
X42178Y-20669D01*
X42114Y-20515D01*
X41996Y-20397D01*
X41843Y-20333D01*
X41677Y-20333D01*
X41607Y-20362D01*
X41427Y-20182D01*
X41427Y-20011D01*
X41522Y-20106D01*
X41676Y-20170D01*
X41842Y-20170D01*
X41996Y-20106D01*
X42114Y-19989D01*
X42177Y-19835D01*
X42178Y-19669D01*
X42177Y-19669D01*
X42177Y-19028D01*
X42177Y-18428D01*
X42160Y-18385D01*
X42126Y-18351D01*
X42083Y-18333D01*
X42036Y-18333D01*
X41436Y-18333D01*
X41393Y-18351D01*
X41359Y-18384D01*
X41341Y-18428D01*
X41341Y-18475D01*
X41341Y-19075D01*
X41359Y-19118D01*
X41392Y-19152D01*
X41436Y-19170D01*
X41483Y-19170D01*
X42083Y-19170D01*
X42126Y-19152D01*
X42159Y-19118D01*
X42177Y-19075D01*
X42177Y-19028D01*
X42177Y-19669D01*
X42114Y-19515D01*
X41996Y-19397D01*
X41843Y-19333D01*
X41677Y-19333D01*
X41523Y-19397D01*
X41427Y-19492D01*
X41427Y-19448D01*
X41427Y-19448D01*
X41427Y-19448D01*
X41425Y-19436D01*
X41415Y-19384D01*
X41415Y-19384D01*
X41378Y-19329D01*
X41378Y-19329D01*
X41181Y-19133D01*
X41127Y-19096D01*
X41062Y-19083D01*
X41062Y-19083D01*
X41019Y-19083D01*
X41114Y-18989D01*
X41177Y-18835D01*
X41178Y-18669D01*
X41114Y-18515D01*
X40996Y-18397D01*
X40843Y-18333D01*
X40677Y-18333D01*
X40523Y-18397D01*
X40405Y-18514D01*
X40341Y-18668D01*
X40341Y-18834D01*
X40375Y-18917D01*
X40091Y-18633D01*
X40036Y-18596D01*
X39972Y-18583D01*
X39972Y-18583D01*
X39914Y-18583D01*
X39886Y-18515D01*
X39768Y-18397D01*
X39615Y-18333D01*
X39448Y-18333D01*
X39294Y-18397D01*
X39177Y-18514D01*
X39113Y-18668D01*
X39113Y-18834D01*
X39176Y-18988D01*
X39272Y-19083D01*
X39046Y-19083D01*
X38904Y-18942D01*
X38949Y-18835D01*
X38949Y-18669D01*
X38886Y-18515D01*
X38768Y-18397D01*
X38615Y-18333D01*
X38448Y-18333D01*
X38294Y-18397D01*
X38177Y-18514D01*
X38113Y-18668D01*
X38113Y-18834D01*
X38176Y-18988D01*
X38272Y-19083D01*
X38031Y-19083D01*
X37967Y-19096D01*
X37949Y-19108D01*
X37949Y-18669D01*
X37886Y-18515D01*
X37768Y-18397D01*
X37615Y-18333D01*
X37448Y-18333D01*
X37294Y-18397D01*
X37177Y-18514D01*
X37113Y-18668D01*
X37113Y-18834D01*
X37176Y-18988D01*
X37294Y-19106D01*
X37447Y-19170D01*
X37614Y-19170D01*
X37768Y-19106D01*
X37885Y-18989D01*
X37949Y-18835D01*
X37949Y-18669D01*
X37949Y-19108D01*
X37912Y-19133D01*
X37912Y-19133D01*
X37683Y-19362D01*
X37615Y-19333D01*
X37448Y-19333D01*
X37294Y-19397D01*
X37177Y-19514D01*
X37113Y-19668D01*
X37113Y-19834D01*
X37176Y-19988D01*
X37294Y-20106D01*
X37447Y-20170D01*
X37614Y-20170D01*
X37768Y-20106D01*
X37885Y-19989D01*
X37949Y-19835D01*
X37949Y-19669D01*
X37921Y-19600D01*
X38101Y-19420D01*
X38272Y-19420D01*
X38177Y-19514D01*
X38113Y-19668D01*
X38113Y-19834D01*
X38176Y-19988D01*
X38294Y-20106D01*
X38447Y-20170D01*
X38614Y-20170D01*
X38768Y-20106D01*
X38846Y-20028D01*
X39102Y-20284D01*
X37067Y-20284D01*
X37067Y-19005D01*
X37067Y-18498D01*
X37067Y-18404D01*
X37031Y-18317D01*
X36965Y-18251D01*
X36878Y-18215D01*
X36629Y-18215D01*
X36570Y-18274D01*
X36570Y-18712D01*
X37008Y-18712D01*
X37067Y-18653D01*
X37067Y-18498D01*
X37067Y-19005D01*
X37067Y-18850D01*
X37008Y-18791D01*
X36570Y-18791D01*
X36570Y-19229D01*
X36629Y-19288D01*
X36878Y-19288D01*
X36965Y-19252D01*
X37031Y-19185D01*
X37067Y-19099D01*
X37067Y-19005D01*
X37067Y-20284D01*
X37029Y-20284D01*
X37019Y-20234D01*
X37019Y-20234D01*
X37002Y-20209D01*
X36968Y-20157D01*
X36968Y-20157D01*
X36842Y-20032D01*
X36885Y-19989D01*
X36949Y-19835D01*
X36949Y-19669D01*
X36886Y-19515D01*
X36768Y-19397D01*
X36615Y-19333D01*
X36448Y-19333D01*
X36447Y-19334D01*
X36401Y-19288D01*
X36433Y-19288D01*
X36492Y-19229D01*
X36492Y-18791D01*
X36484Y-18791D01*
X36484Y-18712D01*
X36492Y-18712D01*
X36492Y-18274D01*
X36433Y-18215D01*
X36184Y-18215D01*
X36097Y-18251D01*
X36031Y-18317D01*
X35997Y-18399D01*
X35776Y-18179D01*
X44261Y-18179D01*
X44261Y-18964D01*
X44125Y-18634D01*
X43867Y-18375D01*
X43529Y-18235D01*
X43164Y-18235D01*
X42827Y-18374D01*
X42568Y-18632D01*
X42428Y-18970D01*
X42428Y-19335D01*
X42567Y-19672D01*
X42825Y-19931D01*
X43163Y-20071D01*
X43528Y-20071D01*
X43865Y-19932D01*
X44124Y-19674D01*
X44261Y-19343D01*
X44261Y-28198D01*
X44261Y-28198D01*
G37*
G54D22*
X44261Y-28198D02*
X43767Y-28198D01*
X43767Y-27466D01*
X43767Y-26466D01*
X43764Y-26370D01*
X43764Y-25724D01*
X43764Y-25031D01*
X43728Y-24944D01*
X43662Y-24877D01*
X43575Y-24841D01*
X43528Y-24841D01*
X43528Y-21287D01*
X43528Y-20594D01*
X43492Y-20507D01*
X43426Y-20440D01*
X43339Y-20404D01*
X43245Y-20404D01*
X43090Y-20404D01*
X43031Y-20463D01*
X43031Y-20901D01*
X43469Y-20901D01*
X43528Y-20842D01*
X43528Y-20594D01*
X43528Y-21287D01*
X43528Y-21039D01*
X43469Y-20980D01*
X43031Y-20980D01*
X43031Y-21418D01*
X43090Y-21477D01*
X43245Y-21477D01*
X43339Y-21477D01*
X43426Y-21441D01*
X43492Y-21374D01*
X43528Y-21287D01*
X43528Y-24841D01*
X43481Y-24841D01*
X43326Y-24841D01*
X43267Y-24900D01*
X43267Y-25338D01*
X43705Y-25338D01*
X43764Y-25279D01*
X43764Y-25031D01*
X43764Y-25724D01*
X43764Y-25476D01*
X43705Y-25417D01*
X43267Y-25417D01*
X43267Y-25425D01*
X43188Y-25425D01*
X43188Y-25417D01*
X43188Y-25338D01*
X43188Y-24900D01*
X43129Y-24841D01*
X42975Y-24841D01*
X42881Y-24841D01*
X42794Y-24877D01*
X42727Y-24944D01*
X42692Y-25031D01*
X42692Y-25279D01*
X42751Y-25338D01*
X43188Y-25338D01*
X43188Y-25417D01*
X42751Y-25417D01*
X42692Y-25476D01*
X42692Y-25724D01*
X42727Y-25811D01*
X42794Y-25878D01*
X42881Y-25914D01*
X42939Y-25914D01*
X42912Y-26006D01*
X43228Y-26322D01*
X43544Y-26006D01*
X43517Y-25914D01*
X43575Y-25914D01*
X43662Y-25878D01*
X43728Y-25811D01*
X43764Y-25724D01*
X43764Y-26370D01*
X43760Y-26253D01*
X43692Y-26089D01*
X43599Y-26062D01*
X43284Y-26377D01*
X43599Y-26693D01*
X43692Y-26666D01*
X43767Y-26466D01*
X43767Y-27466D01*
X43760Y-27253D01*
X43692Y-27089D01*
X43599Y-27062D01*
X43544Y-27117D01*
X43544Y-27006D01*
X43517Y-26913D01*
X43426Y-26879D01*
X43517Y-26842D01*
X43544Y-26749D01*
X43228Y-26433D01*
X43172Y-26489D01*
X43172Y-26377D01*
X42856Y-26062D01*
X42764Y-26089D01*
X42688Y-26288D01*
X42695Y-26502D01*
X42764Y-26666D01*
X42856Y-26693D01*
X43172Y-26377D01*
X43172Y-26489D01*
X42912Y-26749D01*
X42939Y-26842D01*
X43029Y-26876D01*
X42939Y-26913D01*
X42912Y-27006D01*
X43228Y-27322D01*
X43544Y-27006D01*
X43544Y-27117D01*
X43284Y-27377D01*
X43599Y-27693D01*
X43692Y-27666D01*
X43767Y-27466D01*
X43767Y-28198D01*
X43544Y-28198D01*
X43544Y-27749D01*
X43228Y-27433D01*
X43172Y-27489D01*
X43172Y-27377D01*
X42856Y-27062D01*
X42764Y-27089D01*
X42688Y-27288D01*
X42695Y-27502D01*
X42764Y-27666D01*
X42856Y-27693D01*
X43172Y-27377D01*
X43172Y-27489D01*
X42912Y-27749D01*
X42939Y-27842D01*
X43139Y-27917D01*
X43352Y-27910D01*
X43517Y-27842D01*
X43544Y-27749D01*
X43544Y-28198D01*
X39716Y-28198D01*
X39768Y-28177D01*
X39885Y-28059D01*
X39949Y-27906D01*
X39949Y-27740D01*
X39886Y-27586D01*
X39790Y-27490D01*
X40393Y-27490D01*
X40393Y-27490D01*
X40393Y-27490D01*
X40438Y-27482D01*
X40405Y-27514D01*
X40341Y-27668D01*
X40341Y-27834D01*
X40405Y-27988D01*
X40522Y-28106D01*
X40676Y-28170D01*
X40842Y-28170D01*
X40996Y-28106D01*
X41114Y-27989D01*
X41177Y-27835D01*
X41178Y-27669D01*
X41114Y-27515D01*
X41011Y-27412D01*
X41508Y-27412D01*
X41405Y-27514D01*
X41341Y-27668D01*
X41341Y-27834D01*
X41405Y-27988D01*
X41522Y-28106D01*
X41676Y-28170D01*
X41842Y-28170D01*
X41996Y-28106D01*
X42114Y-27989D01*
X42177Y-27835D01*
X42178Y-27669D01*
X42114Y-27515D01*
X41996Y-27397D01*
X41843Y-27333D01*
X41683Y-27333D01*
X41850Y-27166D01*
X41996Y-27106D01*
X42114Y-26989D01*
X42177Y-26835D01*
X42178Y-26669D01*
X42114Y-26515D01*
X41996Y-26397D01*
X41843Y-26333D01*
X41677Y-26333D01*
X41523Y-26397D01*
X41405Y-26514D01*
X41341Y-26668D01*
X41341Y-26834D01*
X41405Y-26988D01*
X41479Y-27062D01*
X41465Y-27075D01*
X41027Y-27075D01*
X41114Y-26989D01*
X41177Y-26835D01*
X41178Y-26669D01*
X41114Y-26515D01*
X41027Y-26427D01*
X41251Y-26427D01*
X41251Y-26427D01*
X41251Y-26427D01*
X41316Y-26415D01*
X41370Y-26378D01*
X41607Y-26141D01*
X41676Y-26170D01*
X41842Y-26170D01*
X41996Y-26106D01*
X42114Y-25989D01*
X42177Y-25835D01*
X42178Y-25669D01*
X42114Y-25515D01*
X41996Y-25397D01*
X41843Y-25333D01*
X41677Y-25333D01*
X41523Y-25397D01*
X41405Y-25514D01*
X41341Y-25668D01*
X41341Y-25834D01*
X41370Y-25903D01*
X41182Y-26091D01*
X41011Y-26091D01*
X41114Y-25989D01*
X41177Y-25835D01*
X41178Y-25669D01*
X41114Y-25515D01*
X41059Y-25460D01*
X41117Y-25436D01*
X41184Y-25370D01*
X41220Y-25283D01*
X41220Y-25237D01*
X41437Y-25020D01*
X41522Y-25106D01*
X41676Y-25170D01*
X41842Y-25170D01*
X41996Y-25106D01*
X42114Y-24989D01*
X42177Y-24835D01*
X42178Y-24669D01*
X42114Y-24515D01*
X41996Y-24397D01*
X41843Y-24333D01*
X41677Y-24333D01*
X41523Y-24397D01*
X41405Y-24514D01*
X41359Y-24626D01*
X41359Y-24626D01*
X41349Y-24633D01*
X41349Y-24633D01*
X41177Y-24804D01*
X41178Y-24669D01*
X41114Y-24515D01*
X40996Y-24397D01*
X40843Y-24333D01*
X40677Y-24333D01*
X40523Y-24397D01*
X40405Y-24514D01*
X40404Y-24517D01*
X40404Y-23986D01*
X40405Y-23988D01*
X40522Y-24106D01*
X40676Y-24170D01*
X40842Y-24170D01*
X40996Y-24106D01*
X41114Y-23989D01*
X41177Y-23835D01*
X41178Y-23669D01*
X41114Y-23515D01*
X40996Y-23397D01*
X40843Y-23333D01*
X40677Y-23333D01*
X40523Y-23397D01*
X40405Y-23514D01*
X40404Y-23517D01*
X40404Y-22986D01*
X40405Y-22988D01*
X40522Y-23106D01*
X40676Y-23170D01*
X40842Y-23170D01*
X40942Y-23128D01*
X41180Y-23366D01*
X41234Y-23403D01*
X41299Y-23416D01*
X41299Y-23416D01*
X41299Y-23416D01*
X41504Y-23416D01*
X41405Y-23514D01*
X41341Y-23668D01*
X41341Y-23834D01*
X41405Y-23988D01*
X41522Y-24106D01*
X41676Y-24170D01*
X41842Y-24170D01*
X41996Y-24106D01*
X42114Y-23989D01*
X42177Y-23835D01*
X42178Y-23669D01*
X42114Y-23515D01*
X42015Y-23416D01*
X42229Y-23416D01*
X42602Y-23789D01*
X42574Y-23857D01*
X42573Y-24023D01*
X42637Y-24177D01*
X42754Y-24295D01*
X42908Y-24358D01*
X43074Y-24359D01*
X43228Y-24295D01*
X43346Y-24178D01*
X43410Y-24024D01*
X43410Y-23858D01*
X43346Y-23704D01*
X43229Y-23586D01*
X43075Y-23522D01*
X42909Y-23522D01*
X42840Y-23551D01*
X42418Y-23129D01*
X42363Y-23092D01*
X42299Y-23079D01*
X42299Y-23079D01*
X42023Y-23079D01*
X42114Y-22989D01*
X42142Y-22920D01*
X42574Y-22920D01*
X42573Y-23023D01*
X42637Y-23177D01*
X42754Y-23295D01*
X42908Y-23358D01*
X43074Y-23359D01*
X43228Y-23295D01*
X43346Y-23178D01*
X43410Y-23024D01*
X43410Y-22858D01*
X43410Y-21858D01*
X43346Y-21704D01*
X43229Y-21586D01*
X43075Y-21522D01*
X42952Y-21522D01*
X42952Y-21418D01*
X42952Y-20980D01*
X42952Y-20901D01*
X42952Y-20463D01*
X42893Y-20404D01*
X42738Y-20404D01*
X42644Y-20404D01*
X42558Y-20440D01*
X42491Y-20507D01*
X42455Y-20594D01*
X42455Y-20842D01*
X42514Y-20901D01*
X42952Y-20901D01*
X42952Y-20980D01*
X42514Y-20980D01*
X42455Y-21039D01*
X42455Y-21287D01*
X42491Y-21374D01*
X42558Y-21441D01*
X42644Y-21477D01*
X42738Y-21477D01*
X42893Y-21477D01*
X42952Y-21418D01*
X42952Y-21522D01*
X42909Y-21522D01*
X42755Y-21586D01*
X42637Y-21703D01*
X42574Y-21857D01*
X42573Y-22023D01*
X42637Y-22177D01*
X42754Y-22295D01*
X42908Y-22358D01*
X43074Y-22359D01*
X43228Y-22295D01*
X43346Y-22178D01*
X43410Y-22024D01*
X43410Y-21858D01*
X43410Y-22858D01*
X43346Y-22704D01*
X43229Y-22586D01*
X43075Y-22522D01*
X42909Y-22522D01*
X42761Y-22583D01*
X42178Y-22583D01*
X42178Y-21669D01*
X42114Y-21515D01*
X41996Y-21397D01*
X41843Y-21333D01*
X41677Y-21333D01*
X41523Y-21397D01*
X41405Y-21514D01*
X41341Y-21668D01*
X41341Y-21834D01*
X41405Y-21988D01*
X41522Y-22106D01*
X41676Y-22170D01*
X41842Y-22170D01*
X41996Y-22106D01*
X42114Y-21989D01*
X42177Y-21835D01*
X42178Y-21669D01*
X42178Y-22583D01*
X42142Y-22583D01*
X42114Y-22515D01*
X41996Y-22397D01*
X41843Y-22333D01*
X41677Y-22333D01*
X41523Y-22397D01*
X41405Y-22514D01*
X41341Y-22668D01*
X41341Y-22834D01*
X41405Y-22988D01*
X41496Y-23079D01*
X41368Y-23079D01*
X41162Y-22873D01*
X41177Y-22835D01*
X41178Y-22669D01*
X41114Y-22515D01*
X40996Y-22397D01*
X40843Y-22333D01*
X40677Y-22333D01*
X40523Y-22397D01*
X40405Y-22514D01*
X40404Y-22517D01*
X40404Y-21986D01*
X40405Y-21988D01*
X40522Y-22106D01*
X40676Y-22170D01*
X40842Y-22170D01*
X40996Y-22106D01*
X41114Y-21989D01*
X41177Y-21835D01*
X41178Y-21669D01*
X41114Y-21515D01*
X40996Y-21397D01*
X40843Y-21333D01*
X40677Y-21333D01*
X40523Y-21397D01*
X40405Y-21514D01*
X40404Y-21517D01*
X40404Y-21358D01*
X40391Y-21293D01*
X40355Y-21239D01*
X40355Y-21239D01*
X39520Y-20404D01*
X40174Y-20404D01*
X40370Y-20600D01*
X40341Y-20668D01*
X40341Y-20834D01*
X40405Y-20988D01*
X40522Y-21106D01*
X40676Y-21170D01*
X40842Y-21170D01*
X40996Y-21106D01*
X41114Y-20989D01*
X41177Y-20835D01*
X41178Y-20669D01*
X41114Y-20515D01*
X40996Y-20397D01*
X40843Y-20333D01*
X40677Y-20333D01*
X40607Y-20362D01*
X40362Y-20117D01*
X40308Y-20080D01*
X40244Y-20068D01*
X40244Y-20068D01*
X39806Y-20068D01*
X39885Y-19989D01*
X39949Y-19835D01*
X39949Y-19669D01*
X39886Y-19515D01*
X39790Y-19420D01*
X40127Y-19420D01*
X40351Y-19644D01*
X40341Y-19668D01*
X40341Y-19834D01*
X40405Y-19988D01*
X40522Y-20106D01*
X40676Y-20170D01*
X40842Y-20170D01*
X40996Y-20106D01*
X41091Y-20011D01*
X41091Y-20251D01*
X41091Y-20251D01*
X41104Y-20316D01*
X41140Y-20370D01*
X41370Y-20600D01*
X41341Y-20668D01*
X41341Y-20834D01*
X41405Y-20988D01*
X41522Y-21106D01*
X41676Y-21170D01*
X41842Y-21170D01*
X41996Y-21106D01*
X42114Y-20989D01*
X42177Y-20835D01*
X42178Y-20669D01*
X42114Y-20515D01*
X41996Y-20397D01*
X41843Y-20333D01*
X41677Y-20333D01*
X41607Y-20362D01*
X41427Y-20182D01*
X41427Y-20011D01*
X41522Y-20106D01*
X41676Y-20170D01*
X41842Y-20170D01*
X41996Y-20106D01*
X42114Y-19989D01*
X42177Y-19835D01*
X42178Y-19669D01*
X42177Y-19669D01*
X42177Y-19028D01*
X42177Y-18428D01*
X42160Y-18385D01*
X42126Y-18351D01*
X42083Y-18333D01*
X42036Y-18333D01*
X41436Y-18333D01*
X41393Y-18351D01*
X41359Y-18384D01*
X41341Y-18428D01*
X41341Y-18475D01*
X41341Y-19075D01*
X41359Y-19118D01*
X41392Y-19152D01*
X41436Y-19170D01*
X41483Y-19170D01*
X42083Y-19170D01*
X42126Y-19152D01*
X42159Y-19118D01*
X42177Y-19075D01*
X42177Y-19028D01*
X42177Y-19669D01*
X42114Y-19515D01*
X41996Y-19397D01*
X41843Y-19333D01*
X41677Y-19333D01*
X41523Y-19397D01*
X41427Y-19492D01*
X41427Y-19448D01*
X41427Y-19448D01*
X41427Y-19448D01*
X41425Y-19436D01*
X41415Y-19384D01*
X41415Y-19384D01*
X41378Y-19329D01*
X41378Y-19329D01*
X41181Y-19133D01*
X41127Y-19096D01*
X41062Y-19083D01*
X41062Y-19083D01*
X41019Y-19083D01*
X41114Y-18989D01*
X41177Y-18835D01*
X41178Y-18669D01*
X41114Y-18515D01*
X40996Y-18397D01*
X40843Y-18333D01*
X40677Y-18333D01*
X40523Y-18397D01*
X40405Y-18514D01*
X40341Y-18668D01*
X40341Y-18834D01*
X40375Y-18917D01*
X40091Y-18633D01*
X40036Y-18596D01*
X39972Y-18583D01*
X39972Y-18583D01*
X39914Y-18583D01*
X39886Y-18515D01*
X39768Y-18397D01*
X39615Y-18333D01*
X39448Y-18333D01*
X39294Y-18397D01*
X39177Y-18514D01*
X39113Y-18668D01*
X39113Y-18834D01*
X39176Y-18988D01*
X39272Y-19083D01*
X39046Y-19083D01*
X38904Y-18942D01*
X38949Y-18835D01*
X38949Y-18669D01*
X38886Y-18515D01*
X38768Y-18397D01*
X38615Y-18333D01*
X38448Y-18333D01*
X38294Y-18397D01*
X38177Y-18514D01*
X38113Y-18668D01*
X38113Y-18834D01*
X38176Y-18988D01*
X38272Y-19083D01*
X38031Y-19083D01*
X37967Y-19096D01*
X37949Y-19108D01*
X37949Y-18669D01*
X37886Y-18515D01*
X37768Y-18397D01*
X37615Y-18333D01*
X37448Y-18333D01*
X37294Y-18397D01*
X37177Y-18514D01*
X37113Y-18668D01*
X37113Y-18834D01*
X37176Y-18988D01*
X37294Y-19106D01*
X37447Y-19170D01*
X37614Y-19170D01*
X37768Y-19106D01*
X37885Y-18989D01*
X37949Y-18835D01*
X37949Y-18669D01*
X37949Y-19108D01*
X37912Y-19133D01*
X37912Y-19133D01*
X37683Y-19362D01*
X37615Y-19333D01*
X37448Y-19333D01*
X37294Y-19397D01*
X37177Y-19514D01*
X37113Y-19668D01*
X37113Y-19834D01*
X37176Y-19988D01*
X37294Y-20106D01*
X37447Y-20170D01*
X37614Y-20170D01*
X37768Y-20106D01*
X37885Y-19989D01*
X37949Y-19835D01*
X37949Y-19669D01*
X37921Y-19600D01*
X38101Y-19420D01*
X38272Y-19420D01*
X38177Y-19514D01*
X38113Y-19668D01*
X38113Y-19834D01*
X38176Y-19988D01*
X38294Y-20106D01*
X38447Y-20170D01*
X38614Y-20170D01*
X38768Y-20106D01*
X38846Y-20028D01*
X39102Y-20284D01*
X37067Y-20284D01*
X37067Y-19005D01*
X37067Y-18498D01*
X37067Y-18404D01*
X37031Y-18317D01*
X36965Y-18251D01*
X36878Y-18215D01*
X36629Y-18215D01*
X36570Y-18274D01*
X36570Y-18712D01*
X37008Y-18712D01*
X37067Y-18653D01*
X37067Y-18498D01*
X37067Y-19005D01*
X37067Y-18850D01*
X37008Y-18791D01*
X36570Y-18791D01*
X36570Y-19229D01*
X36629Y-19288D01*
X36878Y-19288D01*
X36965Y-19252D01*
X37031Y-19185D01*
X37067Y-19099D01*
X37067Y-19005D01*
X37067Y-20284D01*
X37029Y-20284D01*
X37019Y-20234D01*
X37019Y-20234D01*
X37002Y-20209D01*
X36968Y-20157D01*
X36968Y-20157D01*
X36842Y-20032D01*
X36885Y-19989D01*
X36949Y-19835D01*
X36949Y-19669D01*
X36886Y-19515D01*
X36768Y-19397D01*
X36615Y-19333D01*
X36448Y-19333D01*
X36447Y-19334D01*
X36401Y-19288D01*
X36433Y-19288D01*
X36492Y-19229D01*
X36492Y-18791D01*
X36484Y-18791D01*
X36484Y-18712D01*
X36492Y-18712D01*
X36492Y-18274D01*
X36433Y-18215D01*
X36184Y-18215D01*
X36097Y-18251D01*
X36031Y-18317D01*
X35997Y-18399D01*
X35776Y-18179D01*
X44261Y-18179D01*
X44261Y-18964D01*
X44125Y-18634D01*
X43867Y-18375D01*
X43529Y-18235D01*
X43164Y-18235D01*
X42827Y-18374D01*
X42568Y-18632D01*
X42428Y-18970D01*
X42428Y-19335D01*
X42567Y-19672D01*
X42825Y-19931D01*
X43163Y-20071D01*
X43528Y-20071D01*
X43865Y-19932D01*
X44124Y-19674D01*
X44261Y-19343D01*
X44261Y-28198D01*
M02*
