G04 (created by PCBNEW (2013-may-18)-stable) date Пт 05 июн 2015 10:56:45*
%MOIN*%
G04 Gerber Fmt 3.4, Leading zero omitted, Abs format*
%FSLAX34Y34*%
G01*
G70*
G90*
G04 APERTURE LIST*
%ADD10C,0.00590551*%
%ADD11R,0.06X0.06*%
%ADD12C,0.06*%
%ADD13R,0.144X0.08*%
%ADD14R,0.04X0.08*%
%ADD15R,0.035X0.055*%
%ADD16R,0.055X0.035*%
%ADD17C,0.16*%
G04 APERTURE END LIST*
G54D10*
G54D11*
X41759Y-18751D03*
G54D12*
X40759Y-18751D03*
X41759Y-19751D03*
X40759Y-19751D03*
X41759Y-20751D03*
X40759Y-20751D03*
X41759Y-21751D03*
X40759Y-21751D03*
X41759Y-22751D03*
X40759Y-22751D03*
X41759Y-23751D03*
X40759Y-23751D03*
X41759Y-24751D03*
X40759Y-24751D03*
X41759Y-25751D03*
X40759Y-25751D03*
X41759Y-26751D03*
X40759Y-26751D03*
X41759Y-27751D03*
X40759Y-27751D03*
G54D11*
X26287Y-18751D03*
G54D12*
X25287Y-18751D03*
X26287Y-19751D03*
X25287Y-19751D03*
X26287Y-20751D03*
X25287Y-20751D03*
X26287Y-21751D03*
X25287Y-21751D03*
X26287Y-22751D03*
X25287Y-22751D03*
X26287Y-23751D03*
X25287Y-23751D03*
X26287Y-24751D03*
X25287Y-24751D03*
X26287Y-25751D03*
X25287Y-25751D03*
X26287Y-26751D03*
X25287Y-26751D03*
X26287Y-27751D03*
X25287Y-27751D03*
G54D11*
X29814Y-27322D03*
G54D12*
X30814Y-27322D03*
G54D13*
X29921Y-23150D03*
G54D14*
X29921Y-20550D03*
X30821Y-20550D03*
X29021Y-20550D03*
G54D15*
X38286Y-23503D03*
X39036Y-23503D03*
X37579Y-24251D03*
X36829Y-24251D03*
X37579Y-23503D03*
X36829Y-23503D03*
X38286Y-24251D03*
X39036Y-24251D03*
G54D16*
X35885Y-24193D03*
X35885Y-23443D03*
X39783Y-23463D03*
X39783Y-24213D03*
G54D11*
X36531Y-18751D03*
G54D12*
X36531Y-19751D03*
X37531Y-18751D03*
X37531Y-19751D03*
X38531Y-18751D03*
X38531Y-19751D03*
X39531Y-18751D03*
X39531Y-19751D03*
G54D11*
X36531Y-26822D03*
G54D12*
X36531Y-27822D03*
X37531Y-26822D03*
X37531Y-27822D03*
X38531Y-26822D03*
X38531Y-27822D03*
X39531Y-26822D03*
X39531Y-27822D03*
G54D11*
X27633Y-19133D03*
G54D12*
X28633Y-19133D03*
X29633Y-19133D03*
X30633Y-19133D03*
G54D11*
X42992Y-20940D03*
G54D12*
X42992Y-21940D03*
X42992Y-22940D03*
X42992Y-23940D03*
G54D11*
X43228Y-25377D03*
G54D12*
X43228Y-26377D03*
X43228Y-27377D03*
G54D11*
X27570Y-27322D03*
G54D12*
X28570Y-27322D03*
G54D11*
X35224Y-19133D03*
G54D12*
X34224Y-19133D03*
G54D11*
X32940Y-19133D03*
G54D12*
X31940Y-19133D03*
G54D11*
X32059Y-27322D03*
G54D12*
X33059Y-27322D03*
G54D11*
X34303Y-27322D03*
G54D12*
X35303Y-27322D03*
G54D17*
X43346Y-19153D03*
X32795Y-23897D03*
M02*
