G04 (created by PCBNEW (2013-may-18)-stable) date Вт 24 ноя 2015 00:04:13*
%MOIN*%
G04 Gerber Fmt 3.4, Leading zero omitted, Abs format*
%FSLAX34Y34*%
G01*
G70*
G90*
G04 APERTURE LIST*
%ADD10C,0.00590551*%
%ADD11C,0.00984252*%
%ADD12C,0.006*%
%ADD13C,0.0039*%
%ADD14C,0.012*%
%ADD15C,0.01*%
%ADD16C,0.005*%
%ADD17C,0.0043*%
%ADD18C,0.008*%
G04 APERTURE END LIST*
G54D10*
G54D11*
X36593Y-21598D02*
X36611Y-21616D01*
X36668Y-21635D01*
X36705Y-21635D01*
X36761Y-21616D01*
X36799Y-21579D01*
X36818Y-21541D01*
X36836Y-21467D01*
X36836Y-21410D01*
X36818Y-21335D01*
X36799Y-21298D01*
X36761Y-21260D01*
X36705Y-21242D01*
X36668Y-21242D01*
X36611Y-21260D01*
X36593Y-21279D01*
X36255Y-21635D02*
X36255Y-21429D01*
X36274Y-21392D01*
X36311Y-21373D01*
X36386Y-21373D01*
X36424Y-21392D01*
X36255Y-21616D02*
X36293Y-21635D01*
X36386Y-21635D01*
X36424Y-21616D01*
X36443Y-21579D01*
X36443Y-21541D01*
X36424Y-21504D01*
X36386Y-21485D01*
X36293Y-21485D01*
X36255Y-21467D01*
X35899Y-21373D02*
X35899Y-21635D01*
X36068Y-21373D02*
X36068Y-21579D01*
X36049Y-21616D01*
X36011Y-21635D01*
X35955Y-21635D01*
X35918Y-21616D01*
X35899Y-21598D01*
X35730Y-21616D02*
X35693Y-21635D01*
X35618Y-21635D01*
X35580Y-21616D01*
X35561Y-21579D01*
X35561Y-21560D01*
X35580Y-21523D01*
X35618Y-21504D01*
X35674Y-21504D01*
X35711Y-21485D01*
X35730Y-21448D01*
X35730Y-21429D01*
X35711Y-21392D01*
X35674Y-21373D01*
X35618Y-21373D01*
X35580Y-21392D01*
X35449Y-21373D02*
X35299Y-21373D01*
X35393Y-21242D02*
X35393Y-21579D01*
X35374Y-21616D01*
X35336Y-21635D01*
X35299Y-21635D01*
X35168Y-21635D02*
X35168Y-21373D01*
X35168Y-21242D02*
X35187Y-21260D01*
X35168Y-21279D01*
X35149Y-21260D01*
X35168Y-21242D01*
X35168Y-21279D01*
X34812Y-21616D02*
X34849Y-21635D01*
X34924Y-21635D01*
X34962Y-21616D01*
X34980Y-21598D01*
X34999Y-21560D01*
X34999Y-21448D01*
X34980Y-21410D01*
X34962Y-21392D01*
X34924Y-21373D01*
X34849Y-21373D01*
X34812Y-21392D01*
X34155Y-21635D02*
X34343Y-21635D01*
X34343Y-21242D01*
X34080Y-21242D02*
X33855Y-21242D01*
X33968Y-21635D02*
X33968Y-21242D01*
X33443Y-21616D02*
X33405Y-21635D01*
X33330Y-21635D01*
X33293Y-21616D01*
X33274Y-21579D01*
X33274Y-21560D01*
X33293Y-21523D01*
X33330Y-21504D01*
X33387Y-21504D01*
X33424Y-21485D01*
X33443Y-21448D01*
X33443Y-21429D01*
X33424Y-21392D01*
X33387Y-21373D01*
X33330Y-21373D01*
X33293Y-21392D01*
X33143Y-21373D02*
X33049Y-21635D01*
X32956Y-21373D02*
X33049Y-21635D01*
X33087Y-21729D01*
X33106Y-21748D01*
X33143Y-21766D01*
X32824Y-21616D02*
X32787Y-21635D01*
X32712Y-21635D01*
X32674Y-21616D01*
X32656Y-21579D01*
X32656Y-21560D01*
X32674Y-21523D01*
X32712Y-21504D01*
X32768Y-21504D01*
X32806Y-21485D01*
X32824Y-21448D01*
X32824Y-21429D01*
X32806Y-21392D01*
X32768Y-21373D01*
X32712Y-21373D01*
X32674Y-21392D01*
X32543Y-21373D02*
X32393Y-21373D01*
X32487Y-21242D02*
X32487Y-21579D01*
X32468Y-21616D01*
X32431Y-21635D01*
X32393Y-21635D01*
X32112Y-21616D02*
X32149Y-21635D01*
X32224Y-21635D01*
X32262Y-21616D01*
X32281Y-21579D01*
X32281Y-21429D01*
X32262Y-21392D01*
X32224Y-21373D01*
X32149Y-21373D01*
X32112Y-21392D01*
X32093Y-21429D01*
X32093Y-21467D01*
X32281Y-21504D01*
X31924Y-21635D02*
X31924Y-21373D01*
X31924Y-21410D02*
X31906Y-21392D01*
X31868Y-21373D01*
X31812Y-21373D01*
X31774Y-21392D01*
X31756Y-21429D01*
X31756Y-21635D01*
X31756Y-21429D02*
X31737Y-21392D01*
X31699Y-21373D01*
X31643Y-21373D01*
X31606Y-21392D01*
X31587Y-21429D01*
X31587Y-21635D01*
X37202Y-22285D02*
X37202Y-22022D01*
X37202Y-22097D02*
X37183Y-22060D01*
X37164Y-22041D01*
X37127Y-22022D01*
X37089Y-22022D01*
X36958Y-22285D02*
X36958Y-22022D01*
X36958Y-21891D02*
X36977Y-21910D01*
X36958Y-21929D01*
X36939Y-21910D01*
X36958Y-21891D01*
X36958Y-21929D01*
X36827Y-22022D02*
X36677Y-22022D01*
X36771Y-22285D02*
X36771Y-21947D01*
X36752Y-21910D01*
X36714Y-21891D01*
X36677Y-21891D01*
X36489Y-22285D02*
X36527Y-22266D01*
X36546Y-22229D01*
X36546Y-21891D01*
X36190Y-22266D02*
X36227Y-22285D01*
X36302Y-22285D01*
X36339Y-22266D01*
X36358Y-22229D01*
X36358Y-22079D01*
X36339Y-22041D01*
X36302Y-22022D01*
X36227Y-22022D01*
X36190Y-22041D01*
X36171Y-22079D01*
X36171Y-22116D01*
X36358Y-22154D01*
X35721Y-22266D02*
X35683Y-22285D01*
X35608Y-22285D01*
X35571Y-22266D01*
X35552Y-22229D01*
X35552Y-22210D01*
X35571Y-22172D01*
X35608Y-22154D01*
X35665Y-22154D01*
X35702Y-22135D01*
X35721Y-22097D01*
X35721Y-22079D01*
X35702Y-22041D01*
X35665Y-22022D01*
X35608Y-22022D01*
X35571Y-22041D01*
X35383Y-22285D02*
X35383Y-21891D01*
X35215Y-22285D02*
X35215Y-22079D01*
X35233Y-22041D01*
X35271Y-22022D01*
X35327Y-22022D01*
X35365Y-22041D01*
X35383Y-22060D01*
X35027Y-22285D02*
X35027Y-22022D01*
X35027Y-21891D02*
X35046Y-21910D01*
X35027Y-21929D01*
X35008Y-21910D01*
X35027Y-21891D01*
X35027Y-21929D01*
X34690Y-22266D02*
X34727Y-22285D01*
X34802Y-22285D01*
X34840Y-22266D01*
X34858Y-22229D01*
X34858Y-22079D01*
X34840Y-22041D01*
X34802Y-22022D01*
X34727Y-22022D01*
X34690Y-22041D01*
X34671Y-22079D01*
X34671Y-22116D01*
X34858Y-22154D01*
X34446Y-22285D02*
X34483Y-22266D01*
X34502Y-22229D01*
X34502Y-21891D01*
X34127Y-22285D02*
X34127Y-21891D01*
X34127Y-22266D02*
X34165Y-22285D01*
X34240Y-22285D01*
X34277Y-22266D01*
X34296Y-22247D01*
X34315Y-22210D01*
X34315Y-22097D01*
X34296Y-22060D01*
X34277Y-22041D01*
X34240Y-22022D01*
X34165Y-22022D01*
X34127Y-22041D01*
X33640Y-22022D02*
X33640Y-22285D01*
X33640Y-22060D02*
X33621Y-22041D01*
X33584Y-22022D01*
X33527Y-22022D01*
X33490Y-22041D01*
X33471Y-22079D01*
X33471Y-22285D01*
X33227Y-22285D02*
X33265Y-22266D01*
X33284Y-22247D01*
X33302Y-22210D01*
X33302Y-22097D01*
X33284Y-22060D01*
X33265Y-22041D01*
X33227Y-22022D01*
X33171Y-22022D01*
X33134Y-22041D01*
X33115Y-22060D01*
X33096Y-22097D01*
X33096Y-22210D01*
X33115Y-22247D01*
X33134Y-22266D01*
X33171Y-22285D01*
X33227Y-22285D01*
X32459Y-22285D02*
X32459Y-21891D01*
X32459Y-22266D02*
X32496Y-22285D01*
X32571Y-22285D01*
X32609Y-22266D01*
X32627Y-22247D01*
X32646Y-22210D01*
X32646Y-22097D01*
X32627Y-22060D01*
X32609Y-22041D01*
X32571Y-22022D01*
X32496Y-22022D01*
X32459Y-22041D01*
X32271Y-22285D02*
X32271Y-22022D01*
X32271Y-21891D02*
X32290Y-21910D01*
X32271Y-21929D01*
X32252Y-21910D01*
X32271Y-21891D01*
X32271Y-21929D01*
X32103Y-22266D02*
X32065Y-22285D01*
X31990Y-22285D01*
X31953Y-22266D01*
X31934Y-22229D01*
X31934Y-22210D01*
X31953Y-22172D01*
X31990Y-22154D01*
X32046Y-22154D01*
X32084Y-22135D01*
X32103Y-22097D01*
X32103Y-22079D01*
X32084Y-22041D01*
X32046Y-22022D01*
X31990Y-22022D01*
X31953Y-22041D01*
X31765Y-22022D02*
X31765Y-22416D01*
X31765Y-22041D02*
X31728Y-22022D01*
X31653Y-22022D01*
X31615Y-22041D01*
X31596Y-22060D01*
X31578Y-22097D01*
X31578Y-22210D01*
X31596Y-22247D01*
X31615Y-22266D01*
X31653Y-22285D01*
X31728Y-22285D01*
X31765Y-22266D01*
X31353Y-22285D02*
X31390Y-22266D01*
X31409Y-22229D01*
X31409Y-21891D01*
X31203Y-22247D02*
X31184Y-22266D01*
X31203Y-22285D01*
X31221Y-22266D01*
X31203Y-22247D01*
X31203Y-22285D01*
X34830Y-22934D02*
X34830Y-22672D01*
X34830Y-22747D02*
X34812Y-22709D01*
X34793Y-22691D01*
X34755Y-22672D01*
X34718Y-22672D01*
X34437Y-22916D02*
X34474Y-22934D01*
X34549Y-22934D01*
X34587Y-22916D01*
X34605Y-22878D01*
X34605Y-22728D01*
X34587Y-22691D01*
X34549Y-22672D01*
X34474Y-22672D01*
X34437Y-22691D01*
X34418Y-22728D01*
X34418Y-22766D01*
X34605Y-22803D01*
X34287Y-22672D02*
X34193Y-22934D01*
X34099Y-22672D01*
X33949Y-22897D02*
X33930Y-22916D01*
X33949Y-22934D01*
X33968Y-22916D01*
X33949Y-22897D01*
X33949Y-22934D01*
X33799Y-22541D02*
X33555Y-22541D01*
X33687Y-22691D01*
X33630Y-22691D01*
X33593Y-22709D01*
X33574Y-22728D01*
X33555Y-22766D01*
X33555Y-22859D01*
X33574Y-22897D01*
X33593Y-22916D01*
X33630Y-22934D01*
X33743Y-22934D01*
X33780Y-22916D01*
X33799Y-22897D01*
X42934Y-26383D02*
X42915Y-26345D01*
X42915Y-26289D01*
X42934Y-26233D01*
X42971Y-26195D01*
X43008Y-26176D01*
X43083Y-26158D01*
X43140Y-26158D01*
X43215Y-26176D01*
X43252Y-26195D01*
X43290Y-26233D01*
X43308Y-26289D01*
X43308Y-26326D01*
X43290Y-26383D01*
X43271Y-26401D01*
X43140Y-26401D01*
X43140Y-26326D01*
X43308Y-26570D02*
X42915Y-26570D01*
X43308Y-26795D01*
X42915Y-26795D01*
X43308Y-26983D02*
X42915Y-26983D01*
X42915Y-27076D01*
X42934Y-27133D01*
X42971Y-27170D01*
X43008Y-27189D01*
X43083Y-27208D01*
X43140Y-27208D01*
X43215Y-27189D01*
X43252Y-27170D01*
X43290Y-27133D01*
X43308Y-27076D01*
X43308Y-26983D01*
X42895Y-19400D02*
X43214Y-19400D01*
X43251Y-19419D01*
X43270Y-19438D01*
X43289Y-19475D01*
X43289Y-19550D01*
X43270Y-19588D01*
X43251Y-19606D01*
X43214Y-19625D01*
X42895Y-19625D01*
X43270Y-19794D02*
X43289Y-19850D01*
X43289Y-19944D01*
X43270Y-19981D01*
X43251Y-20000D01*
X43214Y-20019D01*
X43176Y-20019D01*
X43139Y-20000D01*
X43120Y-19981D01*
X43101Y-19944D01*
X43083Y-19869D01*
X43064Y-19831D01*
X43045Y-19812D01*
X43008Y-19794D01*
X42970Y-19794D01*
X42933Y-19812D01*
X42914Y-19831D01*
X42895Y-19869D01*
X42895Y-19962D01*
X42914Y-20019D01*
X43176Y-20169D02*
X43176Y-20356D01*
X43289Y-20131D02*
X42895Y-20262D01*
X43289Y-20394D01*
X43289Y-20750D02*
X43101Y-20619D01*
X43289Y-20525D02*
X42895Y-20525D01*
X42895Y-20675D01*
X42914Y-20712D01*
X42933Y-20731D01*
X42970Y-20750D01*
X43026Y-20750D01*
X43064Y-20731D01*
X43083Y-20712D01*
X43101Y-20675D01*
X43101Y-20525D01*
X42895Y-20862D02*
X42895Y-21087D01*
X43289Y-20975D02*
X42895Y-20975D01*
X43289Y-21425D02*
X43289Y-21200D01*
X43289Y-21312D02*
X42895Y-21312D01*
X42951Y-21275D01*
X42989Y-21237D01*
X43008Y-21200D01*
X27425Y-20381D02*
X27481Y-20362D01*
X27575Y-20362D01*
X27612Y-20381D01*
X27631Y-20399D01*
X27650Y-20437D01*
X27650Y-20474D01*
X27631Y-20512D01*
X27612Y-20531D01*
X27575Y-20549D01*
X27500Y-20568D01*
X27462Y-20587D01*
X27444Y-20606D01*
X27425Y-20643D01*
X27425Y-20681D01*
X27444Y-20718D01*
X27462Y-20737D01*
X27500Y-20755D01*
X27594Y-20755D01*
X27650Y-20737D01*
X28400Y-20474D02*
X28587Y-20474D01*
X28362Y-20362D02*
X28494Y-20755D01*
X28625Y-20362D01*
X29356Y-20362D02*
X29356Y-20755D01*
X29487Y-20474D01*
X29618Y-20755D01*
X29618Y-20362D01*
X30012Y-20362D02*
X29787Y-20362D01*
X29900Y-20362D02*
X29900Y-20755D01*
X29862Y-20699D01*
X29825Y-20662D01*
X29787Y-20643D01*
X30481Y-20362D02*
X30481Y-20755D01*
X30612Y-20474D01*
X30743Y-20755D01*
X30743Y-20362D01*
X30912Y-20718D02*
X30931Y-20737D01*
X30968Y-20755D01*
X31062Y-20755D01*
X31100Y-20737D01*
X31118Y-20718D01*
X31137Y-20681D01*
X31137Y-20643D01*
X31118Y-20587D01*
X30893Y-20362D01*
X31137Y-20362D01*
X31692Y-20362D02*
X31692Y-20755D01*
X31842Y-20755D01*
X31879Y-20737D01*
X31898Y-20718D01*
X31917Y-20681D01*
X31917Y-20624D01*
X31898Y-20587D01*
X31879Y-20568D01*
X31842Y-20549D01*
X31692Y-20549D01*
X32142Y-20362D02*
X32104Y-20381D01*
X32086Y-20399D01*
X32067Y-20437D01*
X32067Y-20549D01*
X32086Y-20587D01*
X32104Y-20606D01*
X32142Y-20624D01*
X32198Y-20624D01*
X32236Y-20606D01*
X32254Y-20587D01*
X32273Y-20549D01*
X32273Y-20437D01*
X32254Y-20399D01*
X32236Y-20381D01*
X32198Y-20362D01*
X32142Y-20362D01*
X32404Y-20624D02*
X32479Y-20362D01*
X32554Y-20549D01*
X32629Y-20362D01*
X32704Y-20624D01*
X33004Y-20381D02*
X32967Y-20362D01*
X32892Y-20362D01*
X32854Y-20381D01*
X32836Y-20418D01*
X32836Y-20568D01*
X32854Y-20606D01*
X32892Y-20624D01*
X32967Y-20624D01*
X33004Y-20606D01*
X33023Y-20568D01*
X33023Y-20531D01*
X32836Y-20493D01*
X33192Y-20362D02*
X33192Y-20624D01*
X33192Y-20549D02*
X33211Y-20587D01*
X33229Y-20606D01*
X33267Y-20624D01*
X33304Y-20624D01*
X33666Y-20371D02*
X33722Y-20352D01*
X33816Y-20352D01*
X33854Y-20371D01*
X33872Y-20389D01*
X33891Y-20427D01*
X33891Y-20464D01*
X33872Y-20502D01*
X33854Y-20521D01*
X33816Y-20539D01*
X33741Y-20558D01*
X33704Y-20577D01*
X33685Y-20596D01*
X33666Y-20633D01*
X33666Y-20671D01*
X33685Y-20708D01*
X33704Y-20727D01*
X33741Y-20746D01*
X33835Y-20746D01*
X33891Y-20727D01*
X34060Y-20614D02*
X34060Y-20221D01*
X34060Y-20596D02*
X34097Y-20614D01*
X34172Y-20614D01*
X34210Y-20596D01*
X34229Y-20577D01*
X34247Y-20539D01*
X34247Y-20427D01*
X34229Y-20389D01*
X34210Y-20371D01*
X34172Y-20352D01*
X34097Y-20352D01*
X34060Y-20371D01*
X34566Y-20371D02*
X34528Y-20352D01*
X34453Y-20352D01*
X34416Y-20371D01*
X34397Y-20408D01*
X34397Y-20558D01*
X34416Y-20596D01*
X34453Y-20614D01*
X34528Y-20614D01*
X34566Y-20596D01*
X34585Y-20558D01*
X34585Y-20521D01*
X34397Y-20483D01*
X34922Y-20352D02*
X34922Y-20558D01*
X34903Y-20596D01*
X34866Y-20614D01*
X34791Y-20614D01*
X34753Y-20596D01*
X34922Y-20371D02*
X34885Y-20352D01*
X34791Y-20352D01*
X34753Y-20371D01*
X34735Y-20408D01*
X34735Y-20446D01*
X34753Y-20483D01*
X34791Y-20502D01*
X34885Y-20502D01*
X34922Y-20521D01*
X35110Y-20352D02*
X35110Y-20746D01*
X35147Y-20502D02*
X35260Y-20352D01*
X35260Y-20614D02*
X35110Y-20464D01*
X35578Y-20371D02*
X35541Y-20352D01*
X35466Y-20352D01*
X35428Y-20371D01*
X35410Y-20408D01*
X35410Y-20558D01*
X35428Y-20596D01*
X35466Y-20614D01*
X35541Y-20614D01*
X35578Y-20596D01*
X35597Y-20558D01*
X35597Y-20521D01*
X35410Y-20483D01*
X35766Y-20352D02*
X35766Y-20614D01*
X35766Y-20539D02*
X35785Y-20577D01*
X35803Y-20596D01*
X35841Y-20614D01*
X35878Y-20614D01*
X28580Y-25798D02*
X28561Y-25742D01*
X28542Y-25723D01*
X28505Y-25704D01*
X28449Y-25704D01*
X28411Y-25723D01*
X28392Y-25742D01*
X28374Y-25779D01*
X28374Y-25929D01*
X28767Y-25929D01*
X28767Y-25798D01*
X28749Y-25761D01*
X28730Y-25742D01*
X28692Y-25723D01*
X28655Y-25723D01*
X28617Y-25742D01*
X28599Y-25761D01*
X28580Y-25798D01*
X28580Y-25929D01*
X28374Y-25479D02*
X28392Y-25517D01*
X28411Y-25536D01*
X28449Y-25554D01*
X28561Y-25554D01*
X28599Y-25536D01*
X28617Y-25517D01*
X28636Y-25479D01*
X28636Y-25423D01*
X28617Y-25386D01*
X28599Y-25367D01*
X28561Y-25348D01*
X28449Y-25348D01*
X28411Y-25367D01*
X28392Y-25386D01*
X28374Y-25423D01*
X28374Y-25479D01*
X28374Y-25123D02*
X28392Y-25161D01*
X28430Y-25179D01*
X28767Y-25179D01*
X28636Y-25029D02*
X28636Y-24880D01*
X28767Y-24973D02*
X28430Y-24973D01*
X28392Y-24955D01*
X28374Y-24917D01*
X28374Y-24880D01*
X27398Y-25954D02*
X27380Y-25898D01*
X27380Y-25804D01*
X27398Y-25767D01*
X27417Y-25748D01*
X27455Y-25729D01*
X27492Y-25729D01*
X27529Y-25748D01*
X27548Y-25767D01*
X27567Y-25804D01*
X27586Y-25879D01*
X27604Y-25917D01*
X27623Y-25935D01*
X27661Y-25954D01*
X27698Y-25954D01*
X27736Y-25935D01*
X27754Y-25917D01*
X27773Y-25879D01*
X27773Y-25785D01*
X27754Y-25729D01*
X27380Y-25561D02*
X27773Y-25561D01*
X27380Y-25392D02*
X27586Y-25392D01*
X27623Y-25411D01*
X27642Y-25448D01*
X27642Y-25504D01*
X27623Y-25542D01*
X27604Y-25561D01*
X27642Y-25036D02*
X27380Y-25036D01*
X27642Y-25204D02*
X27436Y-25204D01*
X27398Y-25186D01*
X27380Y-25148D01*
X27380Y-25092D01*
X27398Y-25054D01*
X27417Y-25036D01*
X27642Y-24904D02*
X27642Y-24754D01*
X27773Y-24848D02*
X27436Y-24848D01*
X27398Y-24829D01*
X27380Y-24792D01*
X27380Y-24754D01*
X27642Y-24679D02*
X27642Y-24529D01*
X27773Y-24623D02*
X27436Y-24623D01*
X27398Y-24604D01*
X27380Y-24567D01*
X27380Y-24529D01*
X27398Y-24248D02*
X27380Y-24286D01*
X27380Y-24361D01*
X27398Y-24398D01*
X27436Y-24417D01*
X27586Y-24417D01*
X27623Y-24398D01*
X27642Y-24361D01*
X27642Y-24286D01*
X27623Y-24248D01*
X27586Y-24229D01*
X27548Y-24229D01*
X27511Y-24417D01*
X27380Y-24061D02*
X27642Y-24061D01*
X27567Y-24061D02*
X27604Y-24042D01*
X27623Y-24023D01*
X27642Y-23986D01*
X27642Y-23948D01*
X31121Y-25257D02*
X31121Y-24864D01*
X30709Y-25257D02*
X30840Y-25070D01*
X30934Y-25257D02*
X30934Y-24864D01*
X30784Y-24864D01*
X30746Y-24882D01*
X30727Y-24901D01*
X30709Y-24939D01*
X30709Y-24995D01*
X30727Y-25032D01*
X30746Y-25051D01*
X30784Y-25070D01*
X30934Y-25070D01*
X30184Y-25257D02*
X30221Y-25239D01*
X30240Y-25201D01*
X30240Y-24864D01*
X29884Y-25239D02*
X29921Y-25257D01*
X29996Y-25257D01*
X30034Y-25239D01*
X30052Y-25201D01*
X30052Y-25051D01*
X30034Y-25014D01*
X29996Y-24995D01*
X29921Y-24995D01*
X29884Y-25014D01*
X29865Y-25051D01*
X29865Y-25089D01*
X30052Y-25126D01*
X29528Y-25257D02*
X29528Y-24864D01*
X29528Y-25239D02*
X29565Y-25257D01*
X29640Y-25257D01*
X29678Y-25239D01*
X29696Y-25220D01*
X29715Y-25182D01*
X29715Y-25070D01*
X29696Y-25032D01*
X29678Y-25014D01*
X29640Y-24995D01*
X29565Y-24995D01*
X29528Y-25014D01*
X31018Y-25757D02*
X30718Y-25757D01*
X30868Y-25907D02*
X30868Y-25607D01*
X29931Y-25757D02*
X29631Y-25757D01*
X31764Y-24585D02*
X31764Y-24453D01*
X31970Y-24453D02*
X31576Y-24453D01*
X31576Y-24641D01*
X31970Y-24847D02*
X31951Y-24810D01*
X31914Y-24791D01*
X31576Y-24791D01*
X31970Y-25166D02*
X31764Y-25166D01*
X31726Y-25147D01*
X31707Y-25110D01*
X31707Y-25035D01*
X31726Y-24997D01*
X31951Y-25166D02*
X31970Y-25128D01*
X31970Y-25035D01*
X31951Y-24997D01*
X31914Y-24978D01*
X31876Y-24978D01*
X31839Y-24997D01*
X31820Y-25035D01*
X31820Y-25128D01*
X31801Y-25166D01*
X31951Y-25335D02*
X31970Y-25372D01*
X31970Y-25447D01*
X31951Y-25485D01*
X31914Y-25503D01*
X31895Y-25503D01*
X31857Y-25485D01*
X31839Y-25447D01*
X31839Y-25391D01*
X31820Y-25353D01*
X31782Y-25335D01*
X31764Y-25335D01*
X31726Y-25353D01*
X31707Y-25391D01*
X31707Y-25447D01*
X31726Y-25485D01*
X31970Y-25672D02*
X31576Y-25672D01*
X31970Y-25841D02*
X31764Y-25841D01*
X31726Y-25822D01*
X31707Y-25785D01*
X31707Y-25728D01*
X31726Y-25691D01*
X31745Y-25672D01*
X33803Y-25533D02*
X33672Y-25927D01*
X33540Y-25533D01*
X33409Y-25927D02*
X33409Y-25664D01*
X33409Y-25533D02*
X33428Y-25552D01*
X33409Y-25570D01*
X33390Y-25552D01*
X33409Y-25533D01*
X33409Y-25570D01*
X33222Y-25927D02*
X33222Y-25533D01*
X33222Y-25683D02*
X33184Y-25664D01*
X33109Y-25664D01*
X33072Y-25683D01*
X33053Y-25702D01*
X33034Y-25739D01*
X33034Y-25852D01*
X33053Y-25889D01*
X33072Y-25908D01*
X33109Y-25927D01*
X33184Y-25927D01*
X33222Y-25908D01*
X32866Y-25927D02*
X32866Y-25664D01*
X32866Y-25739D02*
X32847Y-25702D01*
X32828Y-25683D01*
X32791Y-25664D01*
X32753Y-25664D01*
X32566Y-25927D02*
X32603Y-25908D01*
X32622Y-25889D01*
X32641Y-25852D01*
X32641Y-25739D01*
X32622Y-25702D01*
X32603Y-25683D01*
X32566Y-25664D01*
X32509Y-25664D01*
X32472Y-25683D01*
X32453Y-25702D01*
X32434Y-25739D01*
X32434Y-25852D01*
X32453Y-25889D01*
X32472Y-25908D01*
X32509Y-25927D01*
X32566Y-25927D01*
X35337Y-25543D02*
X35206Y-25936D01*
X35075Y-25543D01*
X34719Y-25899D02*
X34738Y-25918D01*
X34794Y-25936D01*
X34831Y-25936D01*
X34887Y-25918D01*
X34925Y-25880D01*
X34944Y-25843D01*
X34962Y-25768D01*
X34962Y-25711D01*
X34944Y-25636D01*
X34925Y-25599D01*
X34887Y-25561D01*
X34831Y-25543D01*
X34794Y-25543D01*
X34738Y-25561D01*
X34719Y-25580D01*
X34325Y-25899D02*
X34344Y-25918D01*
X34400Y-25936D01*
X34438Y-25936D01*
X34494Y-25918D01*
X34531Y-25880D01*
X34550Y-25843D01*
X34569Y-25768D01*
X34569Y-25711D01*
X34550Y-25636D01*
X34531Y-25599D01*
X34494Y-25561D01*
X34438Y-25543D01*
X34400Y-25543D01*
X34344Y-25561D01*
X34325Y-25580D01*
G54D12*
X29314Y-26822D02*
X29314Y-27822D01*
X29314Y-27822D02*
X31314Y-27822D01*
X31314Y-27822D02*
X31314Y-26822D01*
X31314Y-26822D02*
X29314Y-26822D01*
G54D13*
X38061Y-23203D02*
G75*
G03X38061Y-23203I-50J0D01*
G74*
G01*
X38461Y-23203D02*
X38061Y-23203D01*
X38061Y-23203D02*
X38061Y-23803D01*
X38061Y-23803D02*
X38461Y-23803D01*
X38861Y-23803D02*
X39261Y-23803D01*
X39261Y-23803D02*
X39261Y-23203D01*
X39261Y-23203D02*
X38861Y-23203D01*
X37904Y-24551D02*
G75*
G03X37904Y-24551I-50J0D01*
G74*
G01*
X37404Y-24551D02*
X37804Y-24551D01*
X37804Y-24551D02*
X37804Y-23951D01*
X37804Y-23951D02*
X37404Y-23951D01*
X37004Y-23951D02*
X36604Y-23951D01*
X36604Y-23951D02*
X36604Y-24551D01*
X36604Y-24551D02*
X37004Y-24551D01*
X37904Y-23803D02*
G75*
G03X37904Y-23803I-50J0D01*
G74*
G01*
X37404Y-23803D02*
X37804Y-23803D01*
X37804Y-23803D02*
X37804Y-23203D01*
X37804Y-23203D02*
X37404Y-23203D01*
X37004Y-23203D02*
X36604Y-23203D01*
X36604Y-23203D02*
X36604Y-23803D01*
X36604Y-23803D02*
X37004Y-23803D01*
X38061Y-23951D02*
G75*
G03X38061Y-23951I-50J0D01*
G74*
G01*
X38461Y-23951D02*
X38061Y-23951D01*
X38061Y-23951D02*
X38061Y-24551D01*
X38061Y-24551D02*
X38461Y-24551D01*
X38861Y-24551D02*
X39261Y-24551D01*
X39261Y-24551D02*
X39261Y-23951D01*
X39261Y-23951D02*
X38861Y-23951D01*
X35635Y-24468D02*
G75*
G03X35635Y-24468I-50J0D01*
G74*
G01*
X35585Y-24018D02*
X35585Y-24418D01*
X35585Y-24418D02*
X36185Y-24418D01*
X36185Y-24418D02*
X36185Y-24018D01*
X36185Y-23618D02*
X36185Y-23218D01*
X36185Y-23218D02*
X35585Y-23218D01*
X35585Y-23218D02*
X35585Y-23618D01*
X40133Y-23188D02*
G75*
G03X40133Y-23188I-50J0D01*
G74*
G01*
X40083Y-23638D02*
X40083Y-23238D01*
X40083Y-23238D02*
X39483Y-23238D01*
X39483Y-23238D02*
X39483Y-23638D01*
X39483Y-24038D02*
X39483Y-24438D01*
X39483Y-24438D02*
X40083Y-24438D01*
X40083Y-24438D02*
X40083Y-24038D01*
G54D14*
X36484Y-28165D02*
X40484Y-28165D01*
X40484Y-28165D02*
X40484Y-26165D01*
X40484Y-26165D02*
X36484Y-26165D01*
X36484Y-26165D02*
X36484Y-28165D01*
X40484Y-18291D02*
X36484Y-18291D01*
X36484Y-18291D02*
X36484Y-20291D01*
X36484Y-20291D02*
X40484Y-20291D01*
X40484Y-20291D02*
X40484Y-18291D01*
G54D15*
X31133Y-18633D02*
X27133Y-18633D01*
X31133Y-19633D02*
X27133Y-19633D01*
X27133Y-19633D02*
X27133Y-18633D01*
X31133Y-18633D02*
X31133Y-19633D01*
X44397Y-22275D02*
X44397Y-18275D01*
X43397Y-22275D02*
X43397Y-18275D01*
X43397Y-18275D02*
X44397Y-18275D01*
X44397Y-22275D02*
X43397Y-22275D01*
G54D12*
X44397Y-25173D02*
X43397Y-25173D01*
X43397Y-25173D02*
X43397Y-28173D01*
X43397Y-28173D02*
X44397Y-28173D01*
X44397Y-28173D02*
X44397Y-25173D01*
X43397Y-26173D02*
X44397Y-26173D01*
X27070Y-26822D02*
X27070Y-27822D01*
X27070Y-27822D02*
X29070Y-27822D01*
X29070Y-27822D02*
X29070Y-26822D01*
X29070Y-26822D02*
X27070Y-26822D01*
X35724Y-19633D02*
X35724Y-18633D01*
X35724Y-18633D02*
X33724Y-18633D01*
X33724Y-18633D02*
X33724Y-19633D01*
X33724Y-19633D02*
X35724Y-19633D01*
X33440Y-19633D02*
X33440Y-18633D01*
X33440Y-18633D02*
X31440Y-18633D01*
X31440Y-18633D02*
X31440Y-19633D01*
X31440Y-19633D02*
X33440Y-19633D01*
X31559Y-26822D02*
X31559Y-27822D01*
X31559Y-27822D02*
X33559Y-27822D01*
X33559Y-27822D02*
X33559Y-26822D01*
X33559Y-26822D02*
X31559Y-26822D01*
X33803Y-26822D02*
X33803Y-27822D01*
X33803Y-27822D02*
X35803Y-27822D01*
X35803Y-27822D02*
X35803Y-26822D01*
X35803Y-26822D02*
X33803Y-26822D01*
G54D10*
X24763Y-18228D02*
X24763Y-28307D01*
X24763Y-28307D02*
X26811Y-28307D01*
X26811Y-28307D02*
X26811Y-18228D01*
X26811Y-18228D02*
X24763Y-18228D01*
X42811Y-28307D02*
X42811Y-18228D01*
X42811Y-18228D02*
X40763Y-18228D01*
X40763Y-18228D02*
X40763Y-28307D01*
X40763Y-28307D02*
X42811Y-28307D01*
G54D16*
X29502Y-22332D02*
X30202Y-22332D01*
X30202Y-22332D02*
X30202Y-21132D01*
X30202Y-21132D02*
X29502Y-21132D01*
X29502Y-21132D02*
X29502Y-22332D01*
G54D17*
X38694Y-22658D02*
X38759Y-22564D01*
X38806Y-22658D02*
X38806Y-22461D01*
X38731Y-22461D01*
X38713Y-22470D01*
X38703Y-22480D01*
X38694Y-22499D01*
X38694Y-22527D01*
X38703Y-22545D01*
X38713Y-22555D01*
X38731Y-22564D01*
X38806Y-22564D01*
X38628Y-22461D02*
X38506Y-22461D01*
X38572Y-22536D01*
X38544Y-22536D01*
X38525Y-22545D01*
X38516Y-22555D01*
X38506Y-22574D01*
X38506Y-22620D01*
X38516Y-22639D01*
X38525Y-22649D01*
X38544Y-22658D01*
X38600Y-22658D01*
X38619Y-22649D01*
X38628Y-22639D01*
X38778Y-22983D02*
X38891Y-22983D01*
X38834Y-22983D02*
X38834Y-22786D01*
X38853Y-22814D01*
X38872Y-22833D01*
X38891Y-22842D01*
X38656Y-22786D02*
X38637Y-22786D01*
X38619Y-22795D01*
X38609Y-22805D01*
X38600Y-22823D01*
X38591Y-22861D01*
X38591Y-22908D01*
X38600Y-22945D01*
X38609Y-22964D01*
X38619Y-22973D01*
X38637Y-22983D01*
X38656Y-22983D01*
X38675Y-22973D01*
X38684Y-22964D01*
X38694Y-22945D01*
X38703Y-22908D01*
X38703Y-22861D01*
X38694Y-22823D01*
X38684Y-22805D01*
X38675Y-22795D01*
X38656Y-22786D01*
X38506Y-22983D02*
X38506Y-22786D01*
X38487Y-22908D02*
X38431Y-22983D01*
X38431Y-22851D02*
X38506Y-22926D01*
X37237Y-24864D02*
X37246Y-24873D01*
X37275Y-24882D01*
X37293Y-24882D01*
X37321Y-24873D01*
X37340Y-24854D01*
X37350Y-24835D01*
X37359Y-24798D01*
X37359Y-24770D01*
X37350Y-24732D01*
X37340Y-24714D01*
X37321Y-24695D01*
X37293Y-24685D01*
X37275Y-24685D01*
X37246Y-24695D01*
X37237Y-24704D01*
X37171Y-24685D02*
X37049Y-24685D01*
X37115Y-24760D01*
X37087Y-24760D01*
X37068Y-24770D01*
X37059Y-24779D01*
X37049Y-24798D01*
X37049Y-24845D01*
X37059Y-24864D01*
X37068Y-24873D01*
X37087Y-24882D01*
X37143Y-24882D01*
X37162Y-24873D01*
X37171Y-24864D01*
X37715Y-25000D02*
X37697Y-25000D01*
X37678Y-25010D01*
X37669Y-25019D01*
X37659Y-25038D01*
X37650Y-25075D01*
X37650Y-25122D01*
X37659Y-25160D01*
X37669Y-25179D01*
X37678Y-25188D01*
X37697Y-25197D01*
X37715Y-25197D01*
X37734Y-25188D01*
X37744Y-25179D01*
X37753Y-25160D01*
X37762Y-25122D01*
X37762Y-25075D01*
X37753Y-25038D01*
X37744Y-25019D01*
X37734Y-25010D01*
X37715Y-25000D01*
X37565Y-25179D02*
X37556Y-25188D01*
X37565Y-25197D01*
X37575Y-25188D01*
X37565Y-25179D01*
X37565Y-25197D01*
X37434Y-25000D02*
X37415Y-25000D01*
X37397Y-25010D01*
X37387Y-25019D01*
X37378Y-25038D01*
X37368Y-25075D01*
X37368Y-25122D01*
X37378Y-25160D01*
X37387Y-25179D01*
X37397Y-25188D01*
X37415Y-25197D01*
X37434Y-25197D01*
X37453Y-25188D01*
X37462Y-25179D01*
X37472Y-25160D01*
X37481Y-25122D01*
X37481Y-25075D01*
X37472Y-25038D01*
X37462Y-25019D01*
X37453Y-25010D01*
X37434Y-25000D01*
X37181Y-25197D02*
X37293Y-25197D01*
X37237Y-25197D02*
X37237Y-25000D01*
X37256Y-25028D01*
X37275Y-25047D01*
X37293Y-25057D01*
X37003Y-25000D02*
X37096Y-25000D01*
X37106Y-25094D01*
X37096Y-25085D01*
X37078Y-25075D01*
X37031Y-25075D01*
X37012Y-25085D01*
X37003Y-25094D01*
X36993Y-25113D01*
X36993Y-25160D01*
X37003Y-25179D01*
X37012Y-25188D01*
X37031Y-25197D01*
X37078Y-25197D01*
X37096Y-25188D01*
X37106Y-25179D01*
X36824Y-25066D02*
X36824Y-25197D01*
X36909Y-25066D02*
X36909Y-25169D01*
X36899Y-25188D01*
X36881Y-25197D01*
X36852Y-25197D01*
X36834Y-25188D01*
X36824Y-25179D01*
X36665Y-25094D02*
X36730Y-25094D01*
X36730Y-25197D02*
X36730Y-25000D01*
X36637Y-25000D01*
X37227Y-22658D02*
X37293Y-22564D01*
X37340Y-22658D02*
X37340Y-22461D01*
X37265Y-22461D01*
X37246Y-22470D01*
X37237Y-22480D01*
X37227Y-22499D01*
X37227Y-22527D01*
X37237Y-22545D01*
X37246Y-22555D01*
X37265Y-22564D01*
X37340Y-22564D01*
X37040Y-22658D02*
X37152Y-22658D01*
X37096Y-22658D02*
X37096Y-22461D01*
X37115Y-22489D01*
X37133Y-22508D01*
X37152Y-22517D01*
X37321Y-22993D02*
X37434Y-22993D01*
X37378Y-22993D02*
X37378Y-22796D01*
X37397Y-22824D01*
X37415Y-22843D01*
X37434Y-22852D01*
X37200Y-22796D02*
X37181Y-22796D01*
X37162Y-22805D01*
X37153Y-22814D01*
X37143Y-22833D01*
X37134Y-22871D01*
X37134Y-22918D01*
X37143Y-22955D01*
X37153Y-22974D01*
X37162Y-22983D01*
X37181Y-22993D01*
X37200Y-22993D01*
X37218Y-22983D01*
X37228Y-22974D01*
X37237Y-22955D01*
X37246Y-22918D01*
X37246Y-22871D01*
X37237Y-22833D01*
X37228Y-22814D01*
X37218Y-22805D01*
X37200Y-22796D01*
X37049Y-22993D02*
X37049Y-22796D01*
X37031Y-22918D02*
X36974Y-22993D01*
X36974Y-22861D02*
X37049Y-22936D01*
X38694Y-24854D02*
X38703Y-24863D01*
X38731Y-24873D01*
X38750Y-24873D01*
X38778Y-24863D01*
X38797Y-24844D01*
X38806Y-24826D01*
X38816Y-24788D01*
X38816Y-24760D01*
X38806Y-24722D01*
X38797Y-24704D01*
X38778Y-24685D01*
X38750Y-24676D01*
X38731Y-24676D01*
X38703Y-24685D01*
X38694Y-24694D01*
X38619Y-24694D02*
X38609Y-24685D01*
X38591Y-24676D01*
X38544Y-24676D01*
X38525Y-24685D01*
X38516Y-24694D01*
X38506Y-24713D01*
X38506Y-24732D01*
X38516Y-24760D01*
X38628Y-24873D01*
X38506Y-24873D01*
X39078Y-25000D02*
X39060Y-25000D01*
X39041Y-25010D01*
X39031Y-25019D01*
X39022Y-25038D01*
X39013Y-25075D01*
X39013Y-25122D01*
X39022Y-25160D01*
X39031Y-25179D01*
X39041Y-25188D01*
X39060Y-25197D01*
X39078Y-25197D01*
X39097Y-25188D01*
X39107Y-25179D01*
X39116Y-25160D01*
X39125Y-25122D01*
X39125Y-25075D01*
X39116Y-25038D01*
X39107Y-25019D01*
X39097Y-25010D01*
X39078Y-25000D01*
X38928Y-25179D02*
X38919Y-25188D01*
X38928Y-25197D01*
X38938Y-25188D01*
X38928Y-25179D01*
X38928Y-25197D01*
X38750Y-25066D02*
X38750Y-25197D01*
X38797Y-24991D02*
X38844Y-25132D01*
X38722Y-25132D01*
X38666Y-25000D02*
X38534Y-25000D01*
X38619Y-25197D01*
X38375Y-25066D02*
X38375Y-25197D01*
X38459Y-25066D02*
X38459Y-25169D01*
X38450Y-25188D01*
X38431Y-25197D01*
X38403Y-25197D01*
X38384Y-25188D01*
X38375Y-25179D01*
X38215Y-25094D02*
X38281Y-25094D01*
X38281Y-25197D02*
X38281Y-25000D01*
X38187Y-25000D01*
X35259Y-23781D02*
X35268Y-23790D01*
X35296Y-23800D01*
X35315Y-23800D01*
X35343Y-23790D01*
X35362Y-23772D01*
X35371Y-23753D01*
X35381Y-23715D01*
X35381Y-23687D01*
X35371Y-23650D01*
X35362Y-23631D01*
X35343Y-23612D01*
X35315Y-23603D01*
X35296Y-23603D01*
X35268Y-23612D01*
X35259Y-23621D01*
X35165Y-23800D02*
X35127Y-23800D01*
X35109Y-23790D01*
X35099Y-23781D01*
X35080Y-23753D01*
X35071Y-23715D01*
X35071Y-23640D01*
X35080Y-23621D01*
X35090Y-23612D01*
X35109Y-23603D01*
X35146Y-23603D01*
X35165Y-23612D01*
X35174Y-23621D01*
X35184Y-23640D01*
X35184Y-23687D01*
X35174Y-23706D01*
X35165Y-23715D01*
X35146Y-23725D01*
X35109Y-23725D01*
X35090Y-23715D01*
X35080Y-23706D01*
X35071Y-23687D01*
X35323Y-24115D02*
X35436Y-24115D01*
X35380Y-24115D02*
X35380Y-23918D01*
X35399Y-23946D01*
X35417Y-23965D01*
X35436Y-23974D01*
X35155Y-23983D02*
X35155Y-24115D01*
X35239Y-23983D02*
X35239Y-24087D01*
X35230Y-24105D01*
X35211Y-24115D01*
X35183Y-24115D01*
X35164Y-24105D01*
X35155Y-24096D01*
X34995Y-24011D02*
X35061Y-24011D01*
X35061Y-24115D02*
X35061Y-23918D01*
X34967Y-23918D01*
X40357Y-24716D02*
X40367Y-24725D01*
X40395Y-24735D01*
X40413Y-24735D01*
X40442Y-24725D01*
X40460Y-24707D01*
X40470Y-24688D01*
X40479Y-24650D01*
X40479Y-24622D01*
X40470Y-24585D01*
X40460Y-24566D01*
X40442Y-24547D01*
X40413Y-24538D01*
X40395Y-24538D01*
X40367Y-24547D01*
X40357Y-24557D01*
X40188Y-24603D02*
X40188Y-24735D01*
X40235Y-24528D02*
X40282Y-24669D01*
X40160Y-24669D01*
X40638Y-24853D02*
X40619Y-24853D01*
X40601Y-24862D01*
X40591Y-24871D01*
X40582Y-24890D01*
X40572Y-24928D01*
X40572Y-24975D01*
X40582Y-25012D01*
X40591Y-25031D01*
X40601Y-25040D01*
X40619Y-25050D01*
X40638Y-25050D01*
X40657Y-25040D01*
X40666Y-25031D01*
X40676Y-25012D01*
X40685Y-24975D01*
X40685Y-24928D01*
X40676Y-24890D01*
X40666Y-24871D01*
X40657Y-24862D01*
X40638Y-24853D01*
X40488Y-25031D02*
X40479Y-25040D01*
X40488Y-25050D01*
X40497Y-25040D01*
X40488Y-25031D01*
X40488Y-25050D01*
X40291Y-25050D02*
X40404Y-25050D01*
X40347Y-25050D02*
X40347Y-24853D01*
X40366Y-24881D01*
X40385Y-24900D01*
X40404Y-24909D01*
X40122Y-24918D02*
X40122Y-25050D01*
X40207Y-24918D02*
X40207Y-25022D01*
X40197Y-25040D01*
X40178Y-25050D01*
X40150Y-25050D01*
X40132Y-25040D01*
X40122Y-25031D01*
X39963Y-24947D02*
X40028Y-24947D01*
X40028Y-25050D02*
X40028Y-24853D01*
X39935Y-24853D01*
G54D18*
X39694Y-25623D02*
X39694Y-25890D01*
X39694Y-25661D02*
X39675Y-25642D01*
X39637Y-25623D01*
X39580Y-25623D01*
X39542Y-25642D01*
X39522Y-25680D01*
X39522Y-25890D01*
X39332Y-25890D02*
X39332Y-25623D01*
X39332Y-25699D02*
X39313Y-25661D01*
X39294Y-25642D01*
X39256Y-25623D01*
X39218Y-25623D01*
X39142Y-25623D02*
X38989Y-25623D01*
X39084Y-25890D02*
X39084Y-25547D01*
X39065Y-25509D01*
X39027Y-25490D01*
X38989Y-25490D01*
X38875Y-25528D02*
X38856Y-25509D01*
X38818Y-25490D01*
X38722Y-25490D01*
X38684Y-25509D01*
X38665Y-25528D01*
X38646Y-25566D01*
X38646Y-25604D01*
X38665Y-25661D01*
X38894Y-25890D01*
X38646Y-25890D01*
X38303Y-25623D02*
X38303Y-25890D01*
X38399Y-25471D02*
X38494Y-25756D01*
X38246Y-25756D01*
X38037Y-25890D02*
X38075Y-25871D01*
X38094Y-25833D01*
X38094Y-25490D01*
X37808Y-25490D02*
X37770Y-25490D01*
X37732Y-25509D01*
X37713Y-25528D01*
X37694Y-25566D01*
X37675Y-25642D01*
X37675Y-25737D01*
X37694Y-25814D01*
X37713Y-25852D01*
X37732Y-25871D01*
X37770Y-25890D01*
X37808Y-25890D01*
X37846Y-25871D01*
X37865Y-25852D01*
X37884Y-25814D01*
X37903Y-25737D01*
X37903Y-25642D01*
X37884Y-25566D01*
X37865Y-25528D01*
X37846Y-25509D01*
X37808Y-25490D01*
X37294Y-25890D02*
X37522Y-25890D01*
X37408Y-25890D02*
X37408Y-25490D01*
X37446Y-25547D01*
X37484Y-25585D01*
X37522Y-25604D01*
X38827Y-20988D02*
X38960Y-20798D01*
X39055Y-20988D02*
X39055Y-20588D01*
X38903Y-20588D01*
X38865Y-20607D01*
X38846Y-20626D01*
X38827Y-20664D01*
X38827Y-20722D01*
X38846Y-20760D01*
X38865Y-20779D01*
X38903Y-20798D01*
X39055Y-20798D01*
X38522Y-20779D02*
X38655Y-20779D01*
X38655Y-20988D02*
X38655Y-20588D01*
X38465Y-20588D01*
X38312Y-20988D02*
X38312Y-20588D01*
X38122Y-20988D02*
X38122Y-20588D01*
X38027Y-20588D01*
X37969Y-20607D01*
X37931Y-20645D01*
X37912Y-20683D01*
X37893Y-20760D01*
X37893Y-20817D01*
X37912Y-20893D01*
X37931Y-20931D01*
X37969Y-20969D01*
X38027Y-20988D01*
X38122Y-20988D01*
X27425Y-21983D02*
X27025Y-21983D01*
X27311Y-22116D01*
X27025Y-22249D01*
X27425Y-22249D01*
X27387Y-22668D02*
X27406Y-22649D01*
X27425Y-22592D01*
X27425Y-22554D01*
X27406Y-22497D01*
X27368Y-22459D01*
X27330Y-22440D01*
X27254Y-22421D01*
X27197Y-22421D01*
X27120Y-22440D01*
X27082Y-22459D01*
X27044Y-22497D01*
X27025Y-22554D01*
X27025Y-22592D01*
X27044Y-22649D01*
X27063Y-22668D01*
X27025Y-22840D02*
X27349Y-22840D01*
X27387Y-22859D01*
X27406Y-22878D01*
X27425Y-22916D01*
X27425Y-22992D01*
X27406Y-23030D01*
X27387Y-23049D01*
X27349Y-23068D01*
X27025Y-23068D01*
X27425Y-23468D02*
X27425Y-23240D01*
X27425Y-23354D02*
X27025Y-23354D01*
X27082Y-23316D01*
X27120Y-23278D01*
X27139Y-23240D01*
X40634Y-21510D02*
X40234Y-21510D01*
X40520Y-21644D01*
X40234Y-21777D01*
X40634Y-21777D01*
X40596Y-22196D02*
X40615Y-22177D01*
X40634Y-22120D01*
X40634Y-22082D01*
X40615Y-22025D01*
X40577Y-21986D01*
X40539Y-21967D01*
X40462Y-21948D01*
X40405Y-21948D01*
X40329Y-21967D01*
X40291Y-21986D01*
X40253Y-22025D01*
X40234Y-22082D01*
X40234Y-22120D01*
X40253Y-22177D01*
X40272Y-22196D01*
X40234Y-22367D02*
X40558Y-22367D01*
X40596Y-22386D01*
X40615Y-22405D01*
X40634Y-22444D01*
X40634Y-22520D01*
X40615Y-22558D01*
X40596Y-22577D01*
X40558Y-22596D01*
X40234Y-22596D01*
X40272Y-22767D02*
X40253Y-22786D01*
X40234Y-22825D01*
X40234Y-22920D01*
X40253Y-22958D01*
X40272Y-22977D01*
X40310Y-22996D01*
X40348Y-22996D01*
X40405Y-22977D01*
X40634Y-22748D01*
X40634Y-22996D01*
G54D16*
X30042Y-22449D02*
X30042Y-22651D01*
X30030Y-22675D01*
X30019Y-22687D01*
X29995Y-22699D01*
X29947Y-22699D01*
X29923Y-22687D01*
X29911Y-22675D01*
X29899Y-22651D01*
X29899Y-22449D01*
X29792Y-22473D02*
X29780Y-22461D01*
X29757Y-22449D01*
X29697Y-22449D01*
X29673Y-22461D01*
X29661Y-22473D01*
X29649Y-22497D01*
X29649Y-22521D01*
X29661Y-22556D01*
X29804Y-22699D01*
X29649Y-22699D01*
X30530Y-23073D02*
X30530Y-22823D01*
X30388Y-23073D01*
X30388Y-22823D01*
X30126Y-23049D02*
X30138Y-23061D01*
X30173Y-23073D01*
X30197Y-23073D01*
X30233Y-23061D01*
X30257Y-23037D01*
X30269Y-23014D01*
X30280Y-22966D01*
X30280Y-22930D01*
X30269Y-22883D01*
X30257Y-22859D01*
X30233Y-22835D01*
X30197Y-22823D01*
X30173Y-22823D01*
X30138Y-22835D01*
X30126Y-22847D01*
X30019Y-23073D02*
X30019Y-22823D01*
X29923Y-22823D01*
X29899Y-22835D01*
X29888Y-22847D01*
X29876Y-22871D01*
X29876Y-22906D01*
X29888Y-22930D01*
X29899Y-22942D01*
X29923Y-22954D01*
X30019Y-22954D01*
X29649Y-22823D02*
X29769Y-22823D01*
X29780Y-22942D01*
X29769Y-22930D01*
X29745Y-22918D01*
X29685Y-22918D01*
X29661Y-22930D01*
X29649Y-22942D01*
X29638Y-22966D01*
X29638Y-23026D01*
X29649Y-23049D01*
X29661Y-23061D01*
X29685Y-23073D01*
X29745Y-23073D01*
X29769Y-23061D01*
X29780Y-23049D01*
X29411Y-22823D02*
X29530Y-22823D01*
X29542Y-22942D01*
X29530Y-22930D01*
X29507Y-22918D01*
X29447Y-22918D01*
X29423Y-22930D01*
X29411Y-22942D01*
X29399Y-22966D01*
X29399Y-23026D01*
X29411Y-23049D01*
X29423Y-23061D01*
X29447Y-23073D01*
X29507Y-23073D01*
X29530Y-23061D01*
X29542Y-23049D01*
X29161Y-23073D02*
X29304Y-23073D01*
X29233Y-23073D02*
X29233Y-22823D01*
X29257Y-22859D01*
X29280Y-22883D01*
X29304Y-22895D01*
M02*
