G04 (created by PCBNEW (2013-may-18)-stable) date Сб 29 авг 2015 23:55:16*
%MOIN*%
G04 Gerber Fmt 3.4, Leading zero omitted, Abs format*
%FSLAX34Y34*%
G01*
G70*
G90*
G04 APERTURE LIST*
%ADD10C,0.00590551*%
%ADD11R,0.06X0.06*%
%ADD12C,0.06*%
%ADD13R,0.144X0.08*%
%ADD14R,0.04X0.08*%
%ADD15R,0.035X0.055*%
%ADD16R,0.055X0.035*%
%ADD17C,0.16*%
%ADD18C,0.023622*%
%ADD19C,0.023622*%
%ADD20C,0.011811*%
%ADD21C,0.01*%
%ADD22C,0.00787402*%
G04 APERTURE END LIST*
G54D10*
G54D11*
X40759Y-27783D03*
G54D12*
X41759Y-27783D03*
X40759Y-26783D03*
X41759Y-26783D03*
X40759Y-25783D03*
X41759Y-25783D03*
X40759Y-24783D03*
X41759Y-24783D03*
X40759Y-23783D03*
X41759Y-23783D03*
X40759Y-22783D03*
X41759Y-22783D03*
X40759Y-21783D03*
X41759Y-21783D03*
X40759Y-20783D03*
X41759Y-20783D03*
X40759Y-19783D03*
X41759Y-19783D03*
X40759Y-18783D03*
X41759Y-18783D03*
G54D11*
X26287Y-18751D03*
G54D12*
X25287Y-18751D03*
X26287Y-19751D03*
X25287Y-19751D03*
X26287Y-20751D03*
X25287Y-20751D03*
X26287Y-21751D03*
X25287Y-21751D03*
X26287Y-22751D03*
X25287Y-22751D03*
X26287Y-23751D03*
X25287Y-23751D03*
X26287Y-24751D03*
X25287Y-24751D03*
X26287Y-25751D03*
X25287Y-25751D03*
X26287Y-26751D03*
X25287Y-26751D03*
X26287Y-27751D03*
X25287Y-27751D03*
G54D11*
X29814Y-27322D03*
G54D12*
X30814Y-27322D03*
G54D13*
X29921Y-23150D03*
G54D14*
X29921Y-20550D03*
X30821Y-20550D03*
X29021Y-20550D03*
G54D15*
X38286Y-23503D03*
X39036Y-23503D03*
X37579Y-24251D03*
X36829Y-24251D03*
X37579Y-23503D03*
X36829Y-23503D03*
X38286Y-24251D03*
X39036Y-24251D03*
G54D16*
X35885Y-24193D03*
X35885Y-23443D03*
X39783Y-23463D03*
X39783Y-24213D03*
G54D11*
X36531Y-26527D03*
G54D12*
X36531Y-27527D03*
X37531Y-26527D03*
X37531Y-27527D03*
X38531Y-26527D03*
X38531Y-27527D03*
X39531Y-26527D03*
X39531Y-27527D03*
G54D11*
X39511Y-19791D03*
G54D12*
X39511Y-18791D03*
X38511Y-19791D03*
X38511Y-18791D03*
X37511Y-19791D03*
X37511Y-18791D03*
X36511Y-19791D03*
X36511Y-18791D03*
G54D11*
X27633Y-19133D03*
G54D12*
X28633Y-19133D03*
X29633Y-19133D03*
X30633Y-19133D03*
G54D11*
X42992Y-20940D03*
G54D12*
X42992Y-21940D03*
X42992Y-22940D03*
X42992Y-23940D03*
G54D11*
X43228Y-25377D03*
G54D12*
X43228Y-26377D03*
X43228Y-27377D03*
G54D11*
X27570Y-27322D03*
G54D12*
X28570Y-27322D03*
G54D11*
X35224Y-19133D03*
G54D12*
X34224Y-19133D03*
G54D11*
X32940Y-19133D03*
G54D12*
X31940Y-19133D03*
G54D11*
X32059Y-27322D03*
G54D12*
X33059Y-27322D03*
G54D11*
X34303Y-27322D03*
G54D12*
X35303Y-27322D03*
G54D17*
X43346Y-19153D03*
X32795Y-23897D03*
G54D18*
X37145Y-22972D03*
X31299Y-24744D03*
X30944Y-19724D03*
X31456Y-23307D03*
X29153Y-27952D03*
X25748Y-27244D03*
X27066Y-24783D03*
X27066Y-26299D03*
X27696Y-21712D03*
X27913Y-20748D03*
X32736Y-26318D03*
X39763Y-21496D03*
X28818Y-24763D03*
X33110Y-25157D03*
X39921Y-24822D03*
X36082Y-21003D03*
X37047Y-21968D03*
X40511Y-25295D03*
X27795Y-22519D03*
X34901Y-22716D03*
X26948Y-23267D03*
X27559Y-22775D03*
X39055Y-22992D03*
X27854Y-22992D03*
X31338Y-20551D03*
X35275Y-24192D03*
X38051Y-25452D03*
G54D19*
X31692Y-25590D02*
X31692Y-25137D01*
X31692Y-25137D02*
X31299Y-24744D01*
X29921Y-20550D02*
X29921Y-21122D01*
X34606Y-25602D02*
X36531Y-27527D01*
X34606Y-23484D02*
X34606Y-25602D01*
X33070Y-21948D02*
X34606Y-23484D01*
X30748Y-21948D02*
X33070Y-21948D01*
X29921Y-21122D02*
X30748Y-21948D01*
X29921Y-20550D02*
X29921Y-20354D01*
X30551Y-19724D02*
X30944Y-19724D01*
X29921Y-20354D02*
X30551Y-19724D01*
G54D20*
X27696Y-21712D02*
X29842Y-21712D01*
X31437Y-23307D02*
X31456Y-23307D01*
X29842Y-21712D02*
X31437Y-23307D01*
X27066Y-26299D02*
X27066Y-27696D01*
X27322Y-27952D02*
X29153Y-27952D01*
X27066Y-27696D02*
X27322Y-27952D01*
X27066Y-26299D02*
X27066Y-24783D01*
G54D19*
X27696Y-21712D02*
X27696Y-20964D01*
X27696Y-20964D02*
X27913Y-20748D01*
X39783Y-24685D02*
X39783Y-24213D01*
X39921Y-24822D02*
X39783Y-24685D01*
X37047Y-21968D02*
X36082Y-21003D01*
G54D21*
X38286Y-23503D02*
X38307Y-23503D01*
X39036Y-24233D02*
X39036Y-24251D01*
X38307Y-23503D02*
X39036Y-24233D01*
X39511Y-18791D02*
X39515Y-18791D01*
X42342Y-21200D02*
X41759Y-21783D01*
X42342Y-18641D02*
X42342Y-21200D01*
X41968Y-18267D02*
X42342Y-18641D01*
X40039Y-18267D02*
X41968Y-18267D01*
X39515Y-18791D02*
X40039Y-18267D01*
X39531Y-27527D02*
X39531Y-27515D01*
X40255Y-19287D02*
X40759Y-18783D01*
X40255Y-26791D02*
X40255Y-19287D01*
X39531Y-27515D02*
X40255Y-26791D01*
X41759Y-19783D02*
X41653Y-19783D01*
X40964Y-25295D02*
X40511Y-25295D01*
X41259Y-25000D02*
X40964Y-25295D01*
X41259Y-20177D02*
X41259Y-25000D01*
X41653Y-19783D02*
X41259Y-20177D01*
X38531Y-26527D02*
X38535Y-26527D01*
X41299Y-27244D02*
X41759Y-26783D01*
X40314Y-27244D02*
X41299Y-27244D01*
X40177Y-27381D02*
X40314Y-27244D01*
X40177Y-27578D02*
X40177Y-27381D01*
X39744Y-28011D02*
X40177Y-27578D01*
X39291Y-28011D02*
X39744Y-28011D01*
X39015Y-27736D02*
X39291Y-28011D01*
X39015Y-27007D02*
X39015Y-27736D01*
X38535Y-26527D02*
X39015Y-27007D01*
X25287Y-25751D02*
X25291Y-25751D01*
X27440Y-22519D02*
X27795Y-22519D01*
X27283Y-22677D02*
X27440Y-22519D01*
X27283Y-22893D02*
X27283Y-22677D01*
X27381Y-22992D02*
X27283Y-22893D01*
X27381Y-23976D02*
X27381Y-22992D01*
X27106Y-24251D02*
X27381Y-23976D01*
X26102Y-24251D02*
X27106Y-24251D01*
X25807Y-24547D02*
X26102Y-24251D01*
X25807Y-25236D02*
X25807Y-24547D01*
X25291Y-25751D02*
X25807Y-25236D01*
X34901Y-22716D02*
X35177Y-22716D01*
X25287Y-23751D02*
X25287Y-23748D01*
X25767Y-23267D02*
X26948Y-23267D01*
X25287Y-23748D02*
X25767Y-23267D01*
X36317Y-22992D02*
X36829Y-23503D01*
X35452Y-22992D02*
X36317Y-22992D01*
X35177Y-22716D02*
X35452Y-22992D01*
X37579Y-24251D02*
X37579Y-23503D01*
X38286Y-24251D02*
X37579Y-24251D01*
X27570Y-27322D02*
X27570Y-22787D01*
X27570Y-22787D02*
X27559Y-22775D01*
X39036Y-23010D02*
X39036Y-23503D01*
X39055Y-22992D02*
X39036Y-23010D01*
X27749Y-23096D02*
X27854Y-22992D01*
X27749Y-26489D02*
X27749Y-23096D01*
X28570Y-27311D02*
X27749Y-26489D01*
X28570Y-27322D02*
X28570Y-27311D01*
X30633Y-19133D02*
X30629Y-19133D01*
X26989Y-21049D02*
X26287Y-21751D01*
X26989Y-20252D02*
X26989Y-21049D01*
X27239Y-20003D02*
X26989Y-20252D01*
X29760Y-20003D02*
X27239Y-20003D01*
X30629Y-19133D02*
X29760Y-20003D01*
X25287Y-20751D02*
X25287Y-20759D01*
X28943Y-19824D02*
X29633Y-19133D01*
X27165Y-19824D02*
X28943Y-19824D01*
X26811Y-20178D02*
X27165Y-19824D01*
X26811Y-20866D02*
X26811Y-20178D01*
X26496Y-21181D02*
X26811Y-20866D01*
X25708Y-21181D02*
X26496Y-21181D01*
X25287Y-20759D02*
X25708Y-21181D01*
X26287Y-20751D02*
X26287Y-20444D01*
X28122Y-19645D02*
X28633Y-19133D01*
X27086Y-19645D02*
X28122Y-19645D01*
X26287Y-20444D02*
X27086Y-19645D01*
G54D19*
X30821Y-20550D02*
X31337Y-20550D01*
X31337Y-20550D02*
X31338Y-20551D01*
X35885Y-24193D02*
X35276Y-24193D01*
X35276Y-24193D02*
X35275Y-24192D01*
X35885Y-24193D02*
X35885Y-24606D01*
X35885Y-24606D02*
X36259Y-24980D01*
X36259Y-24980D02*
X37578Y-24980D01*
X37578Y-24980D02*
X38051Y-25452D01*
G54D10*
G36*
X40516Y-18435D02*
X40405Y-18546D01*
X40341Y-18699D01*
X40341Y-18866D01*
X40370Y-18935D01*
X40137Y-19168D01*
X40100Y-19223D01*
X40087Y-19287D01*
X40087Y-19287D01*
X40087Y-23049D01*
X40011Y-23049D01*
X39929Y-23049D01*
X39929Y-20067D01*
X39929Y-19467D01*
X39911Y-19424D01*
X39878Y-19391D01*
X39835Y-19373D01*
X39788Y-19373D01*
X39188Y-19373D01*
X39144Y-19391D01*
X39111Y-19424D01*
X39093Y-19467D01*
X39093Y-19514D01*
X39093Y-20114D01*
X39111Y-20158D01*
X39144Y-20191D01*
X39188Y-20209D01*
X39235Y-20209D01*
X39835Y-20209D01*
X39878Y-20191D01*
X39911Y-20158D01*
X39929Y-20114D01*
X39929Y-20067D01*
X39929Y-23049D01*
X39903Y-23049D01*
X39844Y-23109D01*
X39844Y-23402D01*
X39851Y-23402D01*
X39851Y-23524D01*
X39844Y-23524D01*
X39844Y-23818D01*
X39903Y-23877D01*
X40011Y-23877D01*
X40087Y-23877D01*
X40087Y-23922D01*
X40082Y-23920D01*
X40035Y-23920D01*
X39722Y-23920D01*
X39722Y-23818D01*
X39722Y-23524D01*
X39714Y-23524D01*
X39714Y-23402D01*
X39722Y-23402D01*
X39722Y-23109D01*
X39662Y-23049D01*
X39555Y-23049D01*
X39460Y-23049D01*
X39372Y-23085D01*
X39305Y-23153D01*
X39304Y-23155D01*
X39278Y-23128D01*
X39257Y-23120D01*
X39291Y-23039D01*
X39291Y-22945D01*
X39255Y-22858D01*
X39189Y-22791D01*
X39102Y-22755D01*
X39008Y-22755D01*
X38929Y-22788D01*
X38929Y-19708D01*
X38929Y-18708D01*
X38866Y-18554D01*
X38748Y-18437D01*
X38595Y-18373D01*
X38429Y-18373D01*
X38275Y-18436D01*
X38157Y-18554D01*
X38093Y-18707D01*
X38093Y-18874D01*
X38157Y-19027D01*
X38274Y-19145D01*
X38428Y-19209D01*
X38594Y-19209D01*
X38748Y-19146D01*
X38866Y-19028D01*
X38929Y-18874D01*
X38929Y-18708D01*
X38929Y-19708D01*
X38866Y-19554D01*
X38748Y-19437D01*
X38595Y-19373D01*
X38429Y-19373D01*
X38275Y-19436D01*
X38157Y-19554D01*
X38093Y-19707D01*
X38093Y-19874D01*
X38157Y-20027D01*
X38274Y-20145D01*
X38428Y-20209D01*
X38594Y-20209D01*
X38748Y-20146D01*
X38866Y-20028D01*
X38929Y-19874D01*
X38929Y-19708D01*
X38929Y-22788D01*
X38921Y-22791D01*
X38854Y-22858D01*
X38818Y-22944D01*
X38818Y-23038D01*
X38848Y-23110D01*
X38838Y-23110D01*
X38794Y-23128D01*
X38761Y-23161D01*
X38743Y-23205D01*
X38743Y-23252D01*
X38743Y-23702D01*
X38579Y-23538D01*
X38579Y-23205D01*
X38561Y-23162D01*
X38528Y-23128D01*
X38485Y-23110D01*
X38438Y-23110D01*
X38088Y-23110D01*
X38057Y-23123D01*
X38057Y-18859D01*
X38042Y-18645D01*
X37989Y-18519D01*
X37898Y-18490D01*
X37812Y-18576D01*
X37812Y-18404D01*
X37784Y-18313D01*
X37580Y-18245D01*
X37366Y-18260D01*
X37239Y-18313D01*
X37210Y-18404D01*
X37511Y-18705D01*
X37812Y-18404D01*
X37812Y-18576D01*
X37597Y-18791D01*
X37898Y-19092D01*
X37989Y-19063D01*
X38057Y-18859D01*
X38057Y-23123D01*
X38044Y-23128D01*
X38011Y-23161D01*
X37993Y-23205D01*
X37993Y-23252D01*
X37993Y-23802D01*
X38011Y-23845D01*
X38043Y-23877D01*
X38011Y-23909D01*
X37993Y-23953D01*
X37993Y-24000D01*
X37993Y-24083D01*
X37929Y-24083D01*
X37929Y-19708D01*
X37866Y-19554D01*
X37812Y-19501D01*
X37812Y-19178D01*
X37511Y-18877D01*
X37426Y-18962D01*
X37426Y-18791D01*
X37125Y-18490D01*
X37033Y-18519D01*
X36966Y-18722D01*
X36981Y-18936D01*
X37033Y-19063D01*
X37125Y-19092D01*
X37426Y-18791D01*
X37426Y-18962D01*
X37210Y-19178D01*
X37239Y-19269D01*
X37443Y-19336D01*
X37657Y-19321D01*
X37784Y-19269D01*
X37812Y-19178D01*
X37812Y-19501D01*
X37748Y-19437D01*
X37595Y-19373D01*
X37429Y-19373D01*
X37275Y-19436D01*
X37157Y-19554D01*
X37093Y-19707D01*
X37093Y-19874D01*
X37157Y-20027D01*
X37274Y-20145D01*
X37428Y-20209D01*
X37594Y-20209D01*
X37748Y-20146D01*
X37866Y-20028D01*
X37929Y-19874D01*
X37929Y-19708D01*
X37929Y-24083D01*
X37872Y-24083D01*
X37872Y-23953D01*
X37854Y-23910D01*
X37822Y-23877D01*
X37854Y-23845D01*
X37872Y-23802D01*
X37872Y-23755D01*
X37872Y-23205D01*
X37854Y-23162D01*
X37821Y-23128D01*
X37778Y-23110D01*
X37731Y-23110D01*
X37381Y-23110D01*
X37381Y-22925D01*
X37346Y-22838D01*
X37283Y-22776D01*
X37283Y-21921D01*
X37265Y-21878D01*
X37247Y-21834D01*
X37181Y-21768D01*
X37181Y-21768D01*
X36929Y-21517D01*
X36929Y-19708D01*
X36929Y-18708D01*
X36866Y-18554D01*
X36748Y-18437D01*
X36595Y-18373D01*
X36429Y-18373D01*
X36275Y-18436D01*
X36157Y-18554D01*
X36093Y-18707D01*
X36093Y-18874D01*
X36157Y-19027D01*
X36274Y-19145D01*
X36428Y-19209D01*
X36594Y-19209D01*
X36748Y-19146D01*
X36866Y-19028D01*
X36929Y-18874D01*
X36929Y-18708D01*
X36929Y-19708D01*
X36866Y-19554D01*
X36748Y-19437D01*
X36595Y-19373D01*
X36429Y-19373D01*
X36275Y-19436D01*
X36157Y-19554D01*
X36093Y-19707D01*
X36093Y-19874D01*
X36157Y-20027D01*
X36274Y-20145D01*
X36428Y-20209D01*
X36594Y-20209D01*
X36748Y-20146D01*
X36866Y-20028D01*
X36929Y-19874D01*
X36929Y-19708D01*
X36929Y-21517D01*
X36249Y-20837D01*
X36216Y-20803D01*
X36129Y-20767D01*
X36035Y-20767D01*
X35949Y-20803D01*
X35882Y-20869D01*
X35846Y-20956D01*
X35846Y-21050D01*
X35864Y-21094D01*
X35882Y-21137D01*
X35948Y-21204D01*
X35948Y-21204D01*
X36879Y-22135D01*
X36913Y-22168D01*
X36956Y-22186D01*
X37000Y-22204D01*
X37047Y-22204D01*
X37094Y-22204D01*
X37137Y-22186D01*
X37180Y-22168D01*
X37214Y-22135D01*
X37247Y-22102D01*
X37265Y-22058D01*
X37283Y-22015D01*
X37283Y-21968D01*
X37283Y-21921D01*
X37283Y-22776D01*
X37279Y-22772D01*
X37192Y-22736D01*
X37098Y-22736D01*
X37012Y-22772D01*
X36945Y-22838D01*
X36909Y-22925D01*
X36909Y-23019D01*
X36945Y-23106D01*
X36950Y-23110D01*
X36674Y-23110D01*
X36436Y-22873D01*
X36382Y-22836D01*
X36317Y-22824D01*
X36317Y-22824D01*
X35642Y-22824D01*
X35642Y-19410D01*
X35642Y-18810D01*
X35624Y-18767D01*
X35591Y-18733D01*
X35548Y-18715D01*
X35501Y-18715D01*
X34901Y-18715D01*
X34857Y-18733D01*
X34824Y-18766D01*
X34806Y-18810D01*
X34806Y-18857D01*
X34806Y-19457D01*
X34824Y-19500D01*
X34857Y-19533D01*
X34900Y-19551D01*
X34947Y-19551D01*
X35547Y-19551D01*
X35591Y-19534D01*
X35624Y-19500D01*
X35642Y-19457D01*
X35642Y-19410D01*
X35642Y-22824D01*
X35522Y-22824D01*
X35296Y-22597D01*
X35241Y-22561D01*
X35177Y-22548D01*
X35177Y-22548D01*
X35067Y-22548D01*
X35035Y-22516D01*
X34948Y-22480D01*
X34854Y-22480D01*
X34767Y-22516D01*
X34701Y-22582D01*
X34665Y-22669D01*
X34665Y-22763D01*
X34701Y-22850D01*
X34767Y-22916D01*
X34854Y-22952D01*
X34948Y-22952D01*
X35035Y-22916D01*
X35067Y-22884D01*
X35107Y-22884D01*
X35333Y-23110D01*
X35333Y-23110D01*
X35388Y-23147D01*
X35400Y-23149D01*
X35371Y-23221D01*
X35371Y-23323D01*
X35431Y-23383D01*
X35825Y-23383D01*
X35825Y-23375D01*
X35946Y-23375D01*
X35946Y-23383D01*
X36340Y-23383D01*
X36400Y-23323D01*
X36400Y-23312D01*
X36536Y-23448D01*
X36536Y-23766D01*
X36519Y-23773D01*
X36451Y-23841D01*
X36415Y-23929D01*
X36415Y-24024D01*
X36415Y-24131D01*
X36475Y-24191D01*
X36769Y-24191D01*
X36769Y-24183D01*
X36890Y-24183D01*
X36890Y-24191D01*
X37184Y-24191D01*
X37244Y-24131D01*
X37244Y-24024D01*
X37244Y-23929D01*
X37207Y-23841D01*
X37140Y-23773D01*
X37122Y-23766D01*
X37122Y-23755D01*
X37122Y-23208D01*
X37192Y-23208D01*
X37279Y-23172D01*
X37345Y-23106D01*
X37381Y-23019D01*
X37381Y-22925D01*
X37381Y-23110D01*
X37381Y-23110D01*
X37337Y-23128D01*
X37304Y-23161D01*
X37286Y-23205D01*
X37286Y-23252D01*
X37286Y-23802D01*
X37304Y-23845D01*
X37336Y-23877D01*
X37304Y-23909D01*
X37286Y-23953D01*
X37286Y-24000D01*
X37286Y-24550D01*
X37304Y-24593D01*
X37337Y-24627D01*
X37381Y-24645D01*
X37428Y-24645D01*
X37778Y-24645D01*
X37821Y-24627D01*
X37854Y-24593D01*
X37872Y-24550D01*
X37872Y-24503D01*
X37872Y-24420D01*
X37993Y-24420D01*
X37993Y-24550D01*
X38011Y-24593D01*
X38044Y-24627D01*
X38087Y-24645D01*
X38134Y-24645D01*
X38484Y-24645D01*
X38528Y-24627D01*
X38561Y-24593D01*
X38579Y-24550D01*
X38579Y-24503D01*
X38579Y-24014D01*
X38743Y-24177D01*
X38743Y-24550D01*
X38761Y-24593D01*
X38794Y-24627D01*
X38837Y-24645D01*
X38884Y-24645D01*
X39234Y-24645D01*
X39278Y-24627D01*
X39311Y-24593D01*
X39329Y-24550D01*
X39329Y-24503D01*
X39329Y-23953D01*
X39311Y-23910D01*
X39279Y-23877D01*
X39311Y-23845D01*
X39329Y-23802D01*
X39329Y-23798D01*
X39372Y-23841D01*
X39460Y-23877D01*
X39555Y-23877D01*
X39662Y-23877D01*
X39722Y-23818D01*
X39722Y-23920D01*
X39485Y-23920D01*
X39441Y-23938D01*
X39408Y-23971D01*
X39390Y-24014D01*
X39390Y-24061D01*
X39390Y-24411D01*
X39408Y-24455D01*
X39441Y-24488D01*
X39484Y-24506D01*
X39531Y-24506D01*
X39547Y-24506D01*
X39547Y-24685D01*
X39565Y-24775D01*
X39616Y-24852D01*
X39754Y-24989D01*
X39754Y-24989D01*
X39787Y-25022D01*
X39874Y-25059D01*
X39968Y-25059D01*
X40011Y-25041D01*
X40054Y-25023D01*
X40087Y-24990D01*
X40087Y-26721D01*
X39949Y-26859D01*
X39949Y-26444D01*
X39886Y-26291D01*
X39768Y-26173D01*
X39615Y-26109D01*
X39448Y-26109D01*
X39294Y-26172D01*
X39177Y-26290D01*
X39113Y-26444D01*
X39113Y-26610D01*
X39176Y-26764D01*
X39294Y-26881D01*
X39447Y-26945D01*
X39614Y-26945D01*
X39768Y-26882D01*
X39885Y-26764D01*
X39949Y-26611D01*
X39949Y-26444D01*
X39949Y-26859D01*
X39675Y-27134D01*
X39615Y-27109D01*
X39448Y-27109D01*
X39294Y-27172D01*
X39183Y-27283D01*
X39183Y-27007D01*
X39171Y-26943D01*
X39134Y-26889D01*
X39134Y-26889D01*
X38922Y-26676D01*
X38949Y-26611D01*
X38949Y-26444D01*
X38886Y-26291D01*
X38768Y-26173D01*
X38615Y-26109D01*
X38448Y-26109D01*
X38294Y-26172D01*
X38287Y-26180D01*
X38287Y-25405D01*
X38269Y-25362D01*
X38251Y-25319D01*
X38185Y-25252D01*
X38185Y-25252D01*
X37745Y-24813D01*
X37669Y-24762D01*
X37578Y-24744D01*
X37106Y-24744D01*
X37140Y-24730D01*
X37207Y-24662D01*
X37244Y-24574D01*
X37244Y-24479D01*
X37244Y-24372D01*
X37184Y-24312D01*
X36890Y-24312D01*
X36890Y-24320D01*
X36769Y-24320D01*
X36769Y-24312D01*
X36475Y-24312D01*
X36415Y-24372D01*
X36415Y-24479D01*
X36415Y-24574D01*
X36451Y-24662D01*
X36519Y-24730D01*
X36553Y-24744D01*
X36400Y-24744D01*
X36400Y-23666D01*
X36400Y-23564D01*
X36340Y-23504D01*
X35946Y-23504D01*
X35946Y-23798D01*
X36006Y-23858D01*
X36113Y-23858D01*
X36208Y-23858D01*
X36296Y-23821D01*
X36363Y-23754D01*
X36400Y-23666D01*
X36400Y-24744D01*
X36357Y-24744D01*
X36122Y-24508D01*
X36122Y-24487D01*
X36184Y-24487D01*
X36227Y-24469D01*
X36260Y-24435D01*
X36278Y-24392D01*
X36278Y-24345D01*
X36278Y-23995D01*
X36261Y-23952D01*
X36227Y-23918D01*
X36184Y-23900D01*
X36137Y-23900D01*
X35825Y-23900D01*
X35825Y-23798D01*
X35825Y-23504D01*
X35431Y-23504D01*
X35371Y-23564D01*
X35371Y-23666D01*
X35407Y-23754D01*
X35475Y-23821D01*
X35563Y-23858D01*
X35658Y-23858D01*
X35765Y-23858D01*
X35825Y-23798D01*
X35825Y-23900D01*
X35587Y-23900D01*
X35544Y-23918D01*
X35510Y-23951D01*
X35508Y-23957D01*
X35325Y-23957D01*
X35322Y-23956D01*
X35228Y-23956D01*
X35141Y-23992D01*
X35075Y-24058D01*
X35039Y-24145D01*
X35039Y-24239D01*
X35057Y-24283D01*
X35075Y-24326D01*
X35141Y-24393D01*
X35183Y-24410D01*
X35183Y-24410D01*
X35186Y-24412D01*
X35186Y-24412D01*
X35188Y-24412D01*
X35228Y-24429D01*
X35271Y-24429D01*
X35276Y-24430D01*
X35508Y-24430D01*
X35510Y-24435D01*
X35543Y-24468D01*
X35587Y-24486D01*
X35634Y-24487D01*
X35649Y-24487D01*
X35649Y-24606D01*
X35667Y-24696D01*
X35718Y-24773D01*
X36092Y-25147D01*
X36092Y-25147D01*
X36169Y-25198D01*
X36169Y-25198D01*
X36259Y-25216D01*
X36259Y-25216D01*
X37480Y-25216D01*
X37883Y-25619D01*
X37917Y-25652D01*
X37960Y-25670D01*
X38003Y-25688D01*
X38051Y-25688D01*
X38097Y-25689D01*
X38141Y-25670D01*
X38184Y-25653D01*
X38218Y-25619D01*
X38251Y-25586D01*
X38269Y-25543D01*
X38287Y-25499D01*
X38287Y-25452D01*
X38287Y-25405D01*
X38287Y-26180D01*
X38177Y-26290D01*
X38113Y-26444D01*
X38113Y-26610D01*
X38176Y-26764D01*
X38294Y-26881D01*
X38447Y-26945D01*
X38614Y-26945D01*
X38686Y-26916D01*
X38847Y-27077D01*
X38847Y-27252D01*
X38768Y-27173D01*
X38615Y-27109D01*
X38448Y-27109D01*
X38294Y-27172D01*
X38177Y-27290D01*
X38113Y-27444D01*
X38113Y-27610D01*
X38176Y-27764D01*
X38294Y-27881D01*
X38447Y-27945D01*
X38614Y-27945D01*
X38768Y-27882D01*
X38858Y-27791D01*
X38860Y-27800D01*
X38896Y-27855D01*
X39172Y-28130D01*
X39172Y-28130D01*
X39227Y-28167D01*
X39291Y-28179D01*
X39744Y-28179D01*
X39744Y-28179D01*
X39744Y-28179D01*
X39808Y-28167D01*
X39862Y-28130D01*
X40296Y-27697D01*
X40296Y-27697D01*
X40296Y-27697D01*
X40332Y-27643D01*
X40332Y-27643D01*
X40341Y-27596D01*
X40341Y-28106D01*
X40359Y-28150D01*
X40392Y-28183D01*
X40429Y-28198D01*
X37949Y-28198D01*
X37949Y-27444D01*
X37949Y-26444D01*
X37886Y-26291D01*
X37768Y-26173D01*
X37615Y-26109D01*
X37448Y-26109D01*
X37294Y-26172D01*
X37177Y-26290D01*
X37113Y-26444D01*
X37113Y-26610D01*
X37176Y-26764D01*
X37294Y-26881D01*
X37447Y-26945D01*
X37614Y-26945D01*
X37768Y-26882D01*
X37885Y-26764D01*
X37949Y-26611D01*
X37949Y-26444D01*
X37949Y-27444D01*
X37886Y-27291D01*
X37768Y-27173D01*
X37615Y-27109D01*
X37448Y-27109D01*
X37294Y-27172D01*
X37177Y-27290D01*
X37113Y-27444D01*
X37113Y-27610D01*
X37176Y-27764D01*
X37294Y-27881D01*
X37447Y-27945D01*
X37614Y-27945D01*
X37768Y-27882D01*
X37885Y-27764D01*
X37949Y-27611D01*
X37949Y-27444D01*
X37949Y-28198D01*
X37070Y-28198D01*
X37070Y-26780D01*
X37070Y-26274D01*
X37070Y-26179D01*
X37034Y-26091D01*
X36966Y-26024D01*
X36878Y-25988D01*
X36651Y-25988D01*
X36592Y-26048D01*
X36592Y-26466D01*
X37011Y-26466D01*
X37070Y-26407D01*
X37070Y-26274D01*
X37070Y-26780D01*
X37070Y-26648D01*
X37011Y-26588D01*
X36592Y-26588D01*
X36592Y-27007D01*
X36651Y-27066D01*
X36878Y-27066D01*
X36966Y-27030D01*
X37034Y-26963D01*
X37070Y-26875D01*
X37070Y-26780D01*
X37070Y-28198D01*
X35721Y-28198D01*
X35721Y-27240D01*
X35657Y-27086D01*
X35540Y-26968D01*
X35386Y-26904D01*
X35220Y-26904D01*
X35066Y-26968D01*
X34948Y-27085D01*
X34885Y-27239D01*
X34884Y-27405D01*
X34948Y-27559D01*
X35066Y-27677D01*
X35219Y-27740D01*
X35385Y-27741D01*
X35539Y-27677D01*
X35657Y-27559D01*
X35721Y-27406D01*
X35721Y-27240D01*
X35721Y-28198D01*
X34721Y-28198D01*
X34721Y-27599D01*
X34721Y-26999D01*
X34703Y-26956D01*
X34670Y-26922D01*
X34626Y-26904D01*
X34579Y-26904D01*
X33979Y-26904D01*
X33936Y-26922D01*
X33903Y-26955D01*
X33885Y-26999D01*
X33885Y-27046D01*
X33885Y-27646D01*
X33902Y-27689D01*
X33936Y-27722D01*
X33979Y-27740D01*
X34026Y-27740D01*
X34626Y-27740D01*
X34669Y-27723D01*
X34703Y-27689D01*
X34721Y-27646D01*
X34721Y-27599D01*
X34721Y-28198D01*
X33713Y-28198D01*
X33713Y-23715D01*
X33574Y-23378D01*
X33316Y-23119D01*
X32978Y-22979D01*
X32613Y-22979D01*
X32275Y-23118D01*
X32017Y-23376D01*
X31877Y-23714D01*
X31877Y-24079D01*
X32016Y-24417D01*
X32274Y-24675D01*
X32611Y-24815D01*
X32977Y-24815D01*
X33314Y-24676D01*
X33573Y-24418D01*
X33713Y-24081D01*
X33713Y-23715D01*
X33713Y-28198D01*
X33477Y-28198D01*
X33477Y-27240D01*
X33413Y-27086D01*
X33296Y-26968D01*
X33142Y-26904D01*
X32976Y-26904D01*
X32822Y-26968D01*
X32704Y-27085D01*
X32641Y-27239D01*
X32640Y-27405D01*
X32704Y-27559D01*
X32821Y-27677D01*
X32975Y-27740D01*
X33141Y-27741D01*
X33295Y-27677D01*
X33413Y-27559D01*
X33477Y-27406D01*
X33477Y-27240D01*
X33477Y-28198D01*
X32477Y-28198D01*
X32477Y-27599D01*
X32477Y-26999D01*
X32459Y-26956D01*
X32426Y-26922D01*
X32382Y-26904D01*
X32335Y-26904D01*
X31929Y-26904D01*
X31929Y-25590D01*
X31929Y-25137D01*
X31911Y-25047D01*
X31911Y-25047D01*
X31859Y-24970D01*
X31466Y-24577D01*
X31433Y-24543D01*
X31346Y-24507D01*
X31252Y-24507D01*
X31165Y-24543D01*
X31099Y-24610D01*
X31063Y-24696D01*
X31062Y-24790D01*
X31080Y-24834D01*
X31098Y-24877D01*
X31165Y-24944D01*
X31165Y-24944D01*
X31456Y-25235D01*
X31456Y-25590D01*
X31474Y-25680D01*
X31525Y-25757D01*
X31602Y-25808D01*
X31692Y-25826D01*
X31783Y-25808D01*
X31859Y-25757D01*
X31911Y-25680D01*
X31929Y-25590D01*
X31929Y-26904D01*
X31735Y-26904D01*
X31692Y-26922D01*
X31658Y-26955D01*
X31640Y-26999D01*
X31640Y-27046D01*
X31640Y-27646D01*
X31658Y-27689D01*
X31692Y-27722D01*
X31735Y-27740D01*
X31782Y-27740D01*
X32382Y-27740D01*
X32425Y-27723D01*
X32459Y-27689D01*
X32477Y-27646D01*
X32477Y-27599D01*
X32477Y-28198D01*
X31233Y-28198D01*
X31233Y-27240D01*
X31169Y-27086D01*
X31052Y-26968D01*
X30898Y-26904D01*
X30759Y-26904D01*
X30759Y-23527D01*
X30759Y-22727D01*
X30741Y-22683D01*
X30708Y-22650D01*
X30664Y-22632D01*
X30617Y-22632D01*
X29460Y-22632D01*
X29460Y-20902D01*
X29460Y-20670D01*
X29400Y-20611D01*
X29081Y-20611D01*
X29081Y-21129D01*
X29141Y-21189D01*
X29268Y-21189D01*
X29356Y-21153D01*
X29424Y-21086D01*
X29460Y-20998D01*
X29460Y-20902D01*
X29460Y-22632D01*
X29177Y-22632D01*
X29134Y-22650D01*
X29101Y-22683D01*
X29083Y-22726D01*
X29083Y-22773D01*
X29083Y-23573D01*
X29101Y-23617D01*
X29134Y-23650D01*
X29177Y-23668D01*
X29224Y-23668D01*
X30664Y-23668D01*
X30708Y-23650D01*
X30741Y-23617D01*
X30759Y-23573D01*
X30759Y-23527D01*
X30759Y-26904D01*
X30732Y-26904D01*
X30578Y-26968D01*
X30460Y-27085D01*
X30396Y-27239D01*
X30396Y-27405D01*
X30460Y-27559D01*
X30577Y-27677D01*
X30731Y-27740D01*
X30897Y-27741D01*
X31051Y-27677D01*
X31169Y-27559D01*
X31232Y-27406D01*
X31233Y-27240D01*
X31233Y-28198D01*
X30233Y-28198D01*
X30233Y-27599D01*
X30233Y-26999D01*
X30215Y-26956D01*
X30181Y-26922D01*
X30138Y-26904D01*
X30091Y-26904D01*
X29491Y-26904D01*
X29448Y-26922D01*
X29414Y-26955D01*
X29396Y-26999D01*
X29396Y-27046D01*
X29396Y-27646D01*
X29414Y-27689D01*
X29447Y-27722D01*
X29491Y-27740D01*
X29538Y-27740D01*
X30138Y-27740D01*
X30181Y-27723D01*
X30215Y-27689D01*
X30233Y-27646D01*
X30233Y-27599D01*
X30233Y-28198D01*
X26705Y-28198D01*
X26705Y-27669D01*
X26705Y-26669D01*
X26705Y-25669D01*
X26642Y-25515D01*
X26524Y-25397D01*
X26370Y-25333D01*
X26204Y-25333D01*
X26050Y-25397D01*
X25933Y-25514D01*
X25869Y-25668D01*
X25869Y-25834D01*
X25932Y-25988D01*
X26050Y-26106D01*
X26203Y-26170D01*
X26370Y-26170D01*
X26523Y-26106D01*
X26641Y-25989D01*
X26705Y-25835D01*
X26705Y-25669D01*
X26705Y-26669D01*
X26642Y-26515D01*
X26524Y-26397D01*
X26370Y-26333D01*
X26204Y-26333D01*
X26050Y-26397D01*
X25933Y-26514D01*
X25869Y-26668D01*
X25869Y-26834D01*
X25932Y-26988D01*
X26050Y-27106D01*
X26203Y-27170D01*
X26370Y-27170D01*
X26523Y-27106D01*
X26641Y-26989D01*
X26705Y-26835D01*
X26705Y-26669D01*
X26705Y-27669D01*
X26642Y-27515D01*
X26524Y-27397D01*
X26370Y-27333D01*
X26204Y-27333D01*
X26050Y-27397D01*
X25933Y-27514D01*
X25869Y-27668D01*
X25869Y-27834D01*
X25932Y-27988D01*
X26050Y-28106D01*
X26203Y-28170D01*
X26370Y-28170D01*
X26523Y-28106D01*
X26641Y-27989D01*
X26705Y-27835D01*
X26705Y-27669D01*
X26705Y-28198D01*
X24872Y-28198D01*
X24872Y-27841D01*
X24932Y-27988D01*
X25050Y-28106D01*
X25203Y-28170D01*
X25370Y-28170D01*
X25523Y-28106D01*
X25641Y-27989D01*
X25705Y-27835D01*
X25705Y-27669D01*
X25642Y-27515D01*
X25524Y-27397D01*
X25370Y-27333D01*
X25204Y-27333D01*
X25050Y-27397D01*
X24933Y-27514D01*
X24872Y-27661D01*
X24872Y-26841D01*
X24932Y-26988D01*
X25050Y-27106D01*
X25203Y-27170D01*
X25370Y-27170D01*
X25523Y-27106D01*
X25641Y-26989D01*
X25705Y-26835D01*
X25705Y-26669D01*
X25642Y-26515D01*
X25524Y-26397D01*
X25370Y-26333D01*
X25204Y-26333D01*
X25050Y-26397D01*
X24933Y-26514D01*
X24872Y-26661D01*
X24872Y-25841D01*
X24932Y-25988D01*
X25050Y-26106D01*
X25203Y-26170D01*
X25370Y-26170D01*
X25523Y-26106D01*
X25641Y-25989D01*
X25705Y-25835D01*
X25705Y-25669D01*
X25678Y-25602D01*
X25925Y-25355D01*
X25925Y-25355D01*
X25925Y-25355D01*
X25962Y-25300D01*
X25962Y-25300D01*
X25972Y-25249D01*
X25975Y-25236D01*
X25975Y-25236D01*
X25975Y-25236D01*
X25975Y-25031D01*
X26050Y-25106D01*
X26203Y-25170D01*
X26370Y-25170D01*
X26523Y-25106D01*
X26641Y-24989D01*
X26705Y-24835D01*
X26705Y-24669D01*
X26642Y-24515D01*
X26546Y-24420D01*
X27106Y-24420D01*
X27106Y-24420D01*
X27106Y-24420D01*
X27170Y-24407D01*
X27225Y-24370D01*
X27402Y-24193D01*
X27402Y-26904D01*
X27247Y-26904D01*
X27204Y-26922D01*
X27170Y-26955D01*
X27152Y-26999D01*
X27152Y-27046D01*
X27152Y-27646D01*
X27170Y-27689D01*
X27203Y-27722D01*
X27247Y-27740D01*
X27294Y-27740D01*
X27894Y-27740D01*
X27937Y-27723D01*
X27970Y-27689D01*
X27988Y-27646D01*
X27988Y-27599D01*
X27988Y-26999D01*
X27971Y-26956D01*
X27937Y-26922D01*
X27894Y-26904D01*
X27847Y-26904D01*
X27738Y-26904D01*
X27738Y-26716D01*
X28184Y-27162D01*
X28152Y-27239D01*
X28152Y-27405D01*
X28216Y-27559D01*
X28333Y-27677D01*
X28487Y-27740D01*
X28653Y-27741D01*
X28807Y-27677D01*
X28925Y-27559D01*
X28988Y-27406D01*
X28989Y-27240D01*
X28960Y-27171D01*
X28960Y-21129D01*
X28960Y-20611D01*
X28641Y-20611D01*
X28581Y-20670D01*
X28581Y-20902D01*
X28581Y-20998D01*
X28618Y-21086D01*
X28685Y-21153D01*
X28773Y-21189D01*
X28900Y-21189D01*
X28960Y-21129D01*
X28960Y-27171D01*
X28925Y-27086D01*
X28808Y-26968D01*
X28654Y-26904D01*
X28488Y-26904D01*
X28427Y-26929D01*
X27917Y-26420D01*
X27917Y-23221D01*
X27987Y-23192D01*
X28054Y-23126D01*
X28090Y-23039D01*
X28090Y-22945D01*
X28054Y-22858D01*
X27988Y-22791D01*
X27901Y-22755D01*
X27842Y-22755D01*
X27928Y-22720D01*
X27995Y-22653D01*
X28031Y-22566D01*
X28031Y-22472D01*
X27995Y-22386D01*
X27929Y-22319D01*
X27842Y-22283D01*
X27748Y-22283D01*
X27661Y-22319D01*
X27629Y-22351D01*
X27440Y-22351D01*
X27376Y-22364D01*
X27322Y-22400D01*
X27322Y-22400D01*
X27164Y-22558D01*
X27128Y-22612D01*
X27115Y-22677D01*
X27115Y-22677D01*
X27115Y-22893D01*
X27115Y-22893D01*
X27128Y-22958D01*
X27164Y-23012D01*
X27213Y-23061D01*
X27213Y-23906D01*
X27036Y-24083D01*
X26546Y-24083D01*
X26641Y-23989D01*
X26705Y-23835D01*
X26705Y-23669D01*
X26642Y-23515D01*
X26562Y-23435D01*
X26782Y-23435D01*
X26814Y-23467D01*
X26901Y-23503D01*
X26995Y-23503D01*
X27082Y-23468D01*
X27148Y-23401D01*
X27184Y-23314D01*
X27185Y-23220D01*
X27149Y-23134D01*
X27082Y-23067D01*
X26996Y-23031D01*
X26902Y-23031D01*
X26815Y-23067D01*
X26782Y-23099D01*
X26530Y-23099D01*
X26641Y-22989D01*
X26705Y-22835D01*
X26705Y-22669D01*
X26642Y-22515D01*
X26524Y-22397D01*
X26370Y-22333D01*
X26204Y-22333D01*
X26050Y-22397D01*
X25933Y-22514D01*
X25869Y-22668D01*
X25869Y-22834D01*
X25932Y-22988D01*
X26043Y-23099D01*
X25767Y-23099D01*
X25703Y-23112D01*
X25648Y-23148D01*
X25648Y-23148D01*
X25436Y-23361D01*
X25370Y-23333D01*
X25204Y-23333D01*
X25050Y-23397D01*
X24933Y-23514D01*
X24872Y-23661D01*
X24872Y-22841D01*
X24932Y-22988D01*
X25050Y-23106D01*
X25203Y-23170D01*
X25370Y-23170D01*
X25523Y-23106D01*
X25641Y-22989D01*
X25705Y-22835D01*
X25705Y-22669D01*
X25642Y-22515D01*
X25524Y-22397D01*
X25370Y-22333D01*
X25204Y-22333D01*
X25050Y-22397D01*
X24933Y-22514D01*
X24872Y-22661D01*
X24872Y-21841D01*
X24932Y-21988D01*
X25050Y-22106D01*
X25203Y-22170D01*
X25370Y-22170D01*
X25523Y-22106D01*
X25641Y-21989D01*
X25705Y-21835D01*
X25705Y-21669D01*
X25642Y-21515D01*
X25524Y-21397D01*
X25370Y-21333D01*
X25204Y-21333D01*
X25050Y-21397D01*
X24933Y-21514D01*
X24872Y-21661D01*
X24872Y-20841D01*
X24932Y-20988D01*
X25050Y-21106D01*
X25203Y-21170D01*
X25370Y-21170D01*
X25433Y-21143D01*
X25589Y-21299D01*
X25589Y-21299D01*
X25644Y-21336D01*
X25708Y-21349D01*
X26167Y-21349D01*
X26050Y-21397D01*
X25933Y-21514D01*
X25869Y-21668D01*
X25869Y-21834D01*
X25932Y-21988D01*
X26050Y-22106D01*
X26203Y-22170D01*
X26370Y-22170D01*
X26523Y-22106D01*
X26641Y-21989D01*
X26705Y-21835D01*
X26705Y-21669D01*
X26677Y-21600D01*
X27108Y-21168D01*
X27108Y-21168D01*
X27108Y-21168D01*
X27145Y-21113D01*
X27145Y-21113D01*
X27155Y-21062D01*
X27157Y-21049D01*
X27157Y-21049D01*
X27157Y-21049D01*
X27157Y-20322D01*
X27309Y-20171D01*
X28581Y-20171D01*
X28581Y-20197D01*
X28581Y-20429D01*
X28641Y-20489D01*
X28960Y-20489D01*
X28960Y-20481D01*
X29081Y-20481D01*
X29081Y-20489D01*
X29400Y-20489D01*
X29460Y-20429D01*
X29460Y-20197D01*
X29460Y-20171D01*
X29603Y-20171D01*
X29603Y-20173D01*
X29603Y-20973D01*
X29621Y-21017D01*
X29654Y-21050D01*
X29685Y-21063D01*
X29685Y-21122D01*
X29703Y-21212D01*
X29754Y-21289D01*
X30580Y-22115D01*
X30657Y-22167D01*
X30657Y-22167D01*
X30748Y-22185D01*
X32973Y-22185D01*
X34370Y-23582D01*
X34370Y-25602D01*
X34388Y-25692D01*
X34439Y-25769D01*
X36113Y-27443D01*
X36113Y-27444D01*
X36113Y-27610D01*
X36176Y-27764D01*
X36294Y-27881D01*
X36447Y-27945D01*
X36614Y-27945D01*
X36768Y-27882D01*
X36885Y-27764D01*
X36949Y-27611D01*
X36949Y-27444D01*
X36886Y-27291D01*
X36768Y-27173D01*
X36615Y-27109D01*
X36448Y-27109D01*
X36447Y-27109D01*
X36404Y-27066D01*
X36411Y-27066D01*
X36470Y-27007D01*
X36470Y-26588D01*
X36470Y-26466D01*
X36470Y-26048D01*
X36411Y-25988D01*
X36184Y-25988D01*
X36096Y-26024D01*
X36028Y-26091D01*
X35992Y-26179D01*
X35992Y-26274D01*
X35992Y-26407D01*
X36051Y-26466D01*
X36470Y-26466D01*
X36470Y-26588D01*
X36051Y-26588D01*
X35992Y-26648D01*
X35992Y-26654D01*
X34842Y-25504D01*
X34842Y-23484D01*
X34842Y-23484D01*
X34824Y-23393D01*
X34824Y-23393D01*
X34773Y-23317D01*
X34773Y-23317D01*
X34642Y-23186D01*
X34642Y-19051D01*
X34579Y-18897D01*
X34461Y-18779D01*
X34307Y-18715D01*
X34141Y-18715D01*
X33987Y-18779D01*
X33870Y-18896D01*
X33806Y-19050D01*
X33806Y-19216D01*
X33869Y-19370D01*
X33987Y-19488D01*
X34140Y-19551D01*
X34307Y-19552D01*
X34460Y-19488D01*
X34578Y-19371D01*
X34642Y-19217D01*
X34642Y-19051D01*
X34642Y-23186D01*
X33480Y-22024D01*
X33480Y-19386D01*
X33480Y-18881D01*
X33480Y-18786D01*
X33443Y-18698D01*
X33376Y-18630D01*
X33288Y-18594D01*
X33061Y-18594D01*
X33001Y-18654D01*
X33001Y-19073D01*
X33420Y-19073D01*
X33480Y-19013D01*
X33480Y-18881D01*
X33480Y-19386D01*
X33480Y-19254D01*
X33420Y-19194D01*
X33001Y-19194D01*
X33001Y-19613D01*
X33061Y-19673D01*
X33288Y-19673D01*
X33376Y-19636D01*
X33443Y-19569D01*
X33480Y-19481D01*
X33480Y-19386D01*
X33480Y-22024D01*
X33237Y-21781D01*
X33161Y-21730D01*
X33070Y-21712D01*
X32880Y-21712D01*
X32880Y-19613D01*
X32880Y-19194D01*
X32880Y-19073D01*
X32880Y-18654D01*
X32820Y-18594D01*
X32593Y-18594D01*
X32505Y-18630D01*
X32438Y-18698D01*
X32401Y-18786D01*
X32401Y-18881D01*
X32401Y-19013D01*
X32461Y-19073D01*
X32880Y-19073D01*
X32880Y-19194D01*
X32461Y-19194D01*
X32401Y-19254D01*
X32401Y-19386D01*
X32401Y-19481D01*
X32438Y-19569D01*
X32505Y-19636D01*
X32593Y-19673D01*
X32820Y-19673D01*
X32880Y-19613D01*
X32880Y-21712D01*
X32359Y-21712D01*
X32359Y-19051D01*
X32295Y-18897D01*
X32178Y-18779D01*
X32024Y-18715D01*
X31858Y-18715D01*
X31704Y-18779D01*
X31586Y-18896D01*
X31522Y-19050D01*
X31522Y-19216D01*
X31586Y-19370D01*
X31703Y-19488D01*
X31857Y-19551D01*
X32023Y-19552D01*
X32177Y-19488D01*
X32295Y-19371D01*
X32358Y-19217D01*
X32359Y-19051D01*
X32359Y-21712D01*
X30845Y-21712D01*
X30185Y-21051D01*
X30188Y-21050D01*
X30221Y-21017D01*
X30239Y-20973D01*
X30239Y-20927D01*
X30239Y-20370D01*
X30517Y-20092D01*
X30503Y-20126D01*
X30503Y-20173D01*
X30503Y-20973D01*
X30521Y-21017D01*
X30554Y-21050D01*
X30597Y-21068D01*
X30644Y-21068D01*
X31044Y-21068D01*
X31088Y-21050D01*
X31121Y-21017D01*
X31139Y-20973D01*
X31139Y-20927D01*
X31139Y-20786D01*
X31289Y-20786D01*
X31291Y-20787D01*
X31338Y-20787D01*
X31385Y-20787D01*
X31428Y-20769D01*
X31472Y-20751D01*
X31505Y-20718D01*
X31538Y-20685D01*
X31556Y-20641D01*
X31574Y-20598D01*
X31574Y-20551D01*
X31574Y-20504D01*
X31556Y-20460D01*
X31556Y-20460D01*
X31538Y-20417D01*
X31472Y-20351D01*
X31430Y-20333D01*
X31428Y-20332D01*
X31426Y-20331D01*
X31385Y-20315D01*
X31341Y-20314D01*
X31337Y-20314D01*
X31139Y-20314D01*
X31139Y-20127D01*
X31121Y-20083D01*
X31088Y-20050D01*
X31044Y-20032D01*
X30997Y-20032D01*
X30597Y-20032D01*
X30562Y-20046D01*
X30649Y-19960D01*
X30944Y-19960D01*
X30944Y-19960D01*
X30991Y-19960D01*
X31035Y-19942D01*
X31078Y-19924D01*
X31111Y-19891D01*
X31145Y-19858D01*
X31163Y-19814D01*
X31181Y-19771D01*
X31181Y-19724D01*
X31181Y-19677D01*
X31163Y-19634D01*
X31145Y-19590D01*
X31078Y-19524D01*
X30992Y-19488D01*
X30898Y-19488D01*
X30898Y-19488D01*
X30870Y-19488D01*
X30988Y-19371D01*
X31051Y-19217D01*
X31052Y-19051D01*
X30988Y-18897D01*
X30871Y-18779D01*
X30717Y-18715D01*
X30551Y-18715D01*
X30397Y-18779D01*
X30279Y-18896D01*
X30215Y-19050D01*
X30215Y-19216D01*
X30243Y-19282D01*
X29690Y-19835D01*
X29170Y-19835D01*
X29481Y-19523D01*
X29550Y-19551D01*
X29716Y-19552D01*
X29870Y-19488D01*
X29988Y-19371D01*
X30051Y-19217D01*
X30052Y-19051D01*
X29988Y-18897D01*
X29871Y-18779D01*
X29717Y-18715D01*
X29551Y-18715D01*
X29397Y-18779D01*
X29279Y-18896D01*
X29215Y-19050D01*
X29215Y-19216D01*
X29244Y-19285D01*
X28873Y-19656D01*
X28349Y-19656D01*
X28481Y-19523D01*
X28550Y-19551D01*
X28716Y-19552D01*
X28870Y-19488D01*
X28988Y-19371D01*
X29051Y-19217D01*
X29052Y-19051D01*
X28988Y-18897D01*
X28871Y-18779D01*
X28717Y-18715D01*
X28551Y-18715D01*
X28397Y-18779D01*
X28279Y-18896D01*
X28215Y-19050D01*
X28215Y-19216D01*
X28244Y-19285D01*
X28052Y-19477D01*
X28043Y-19477D01*
X28051Y-19457D01*
X28051Y-19410D01*
X28051Y-18810D01*
X28034Y-18767D01*
X28000Y-18733D01*
X27957Y-18715D01*
X27910Y-18715D01*
X27310Y-18715D01*
X27267Y-18733D01*
X27233Y-18766D01*
X27215Y-18810D01*
X27215Y-18857D01*
X27215Y-19457D01*
X27224Y-19477D01*
X27086Y-19477D01*
X27022Y-19490D01*
X26967Y-19526D01*
X26967Y-19526D01*
X26826Y-19667D01*
X26826Y-19099D01*
X26826Y-18404D01*
X26790Y-18316D01*
X26723Y-18249D01*
X26635Y-18212D01*
X26539Y-18212D01*
X26407Y-18212D01*
X26348Y-18272D01*
X26348Y-18691D01*
X26766Y-18691D01*
X26826Y-18631D01*
X26826Y-18404D01*
X26826Y-19099D01*
X26826Y-18872D01*
X26766Y-18812D01*
X26348Y-18812D01*
X26348Y-19231D01*
X26407Y-19291D01*
X26539Y-19291D01*
X26635Y-19291D01*
X26723Y-19254D01*
X26790Y-19187D01*
X26826Y-19099D01*
X26826Y-19667D01*
X26705Y-19789D01*
X26705Y-19669D01*
X26642Y-19515D01*
X26524Y-19397D01*
X26370Y-19333D01*
X26226Y-19333D01*
X26226Y-19231D01*
X26226Y-18812D01*
X26226Y-18691D01*
X26226Y-18272D01*
X26166Y-18212D01*
X26034Y-18212D01*
X25939Y-18212D01*
X25851Y-18249D01*
X25784Y-18316D01*
X25747Y-18404D01*
X25748Y-18631D01*
X25807Y-18691D01*
X26226Y-18691D01*
X26226Y-18812D01*
X25807Y-18812D01*
X25748Y-18872D01*
X25747Y-19099D01*
X25784Y-19187D01*
X25851Y-19254D01*
X25939Y-19291D01*
X26034Y-19291D01*
X26166Y-19291D01*
X26226Y-19231D01*
X26226Y-19333D01*
X26204Y-19333D01*
X26050Y-19397D01*
X25933Y-19514D01*
X25869Y-19668D01*
X25869Y-19834D01*
X25932Y-19988D01*
X26050Y-20106D01*
X26203Y-20170D01*
X26324Y-20170D01*
X26168Y-20326D01*
X26147Y-20357D01*
X26050Y-20397D01*
X25933Y-20514D01*
X25869Y-20668D01*
X25869Y-20834D01*
X25932Y-20988D01*
X25957Y-21012D01*
X25778Y-21012D01*
X25674Y-20909D01*
X25705Y-20835D01*
X25705Y-20669D01*
X25642Y-20515D01*
X25524Y-20397D01*
X25370Y-20333D01*
X25204Y-20333D01*
X25050Y-20397D01*
X24933Y-20514D01*
X24872Y-20661D01*
X24872Y-19841D01*
X24932Y-19988D01*
X25050Y-20106D01*
X25203Y-20170D01*
X25370Y-20170D01*
X25523Y-20106D01*
X25641Y-19989D01*
X25705Y-19835D01*
X25705Y-19669D01*
X25642Y-19515D01*
X25524Y-19397D01*
X25370Y-19333D01*
X25204Y-19333D01*
X25050Y-19397D01*
X24933Y-19514D01*
X24872Y-19661D01*
X24872Y-18841D01*
X24932Y-18988D01*
X25050Y-19106D01*
X25203Y-19170D01*
X25370Y-19170D01*
X25523Y-19106D01*
X25641Y-18989D01*
X25705Y-18835D01*
X25705Y-18669D01*
X25642Y-18515D01*
X25524Y-18397D01*
X25370Y-18333D01*
X25204Y-18333D01*
X25050Y-18397D01*
X24933Y-18514D01*
X24872Y-18661D01*
X24872Y-18179D01*
X39890Y-18179D01*
X39666Y-18402D01*
X39595Y-18373D01*
X39429Y-18373D01*
X39275Y-18436D01*
X39157Y-18554D01*
X39093Y-18707D01*
X39093Y-18874D01*
X39157Y-19027D01*
X39274Y-19145D01*
X39428Y-19209D01*
X39594Y-19209D01*
X39748Y-19146D01*
X39866Y-19028D01*
X39929Y-18874D01*
X39929Y-18708D01*
X39902Y-18642D01*
X40109Y-18435D01*
X40516Y-18435D01*
X40516Y-18435D01*
G37*
G54D22*
X40516Y-18435D02*
X40405Y-18546D01*
X40341Y-18699D01*
X40341Y-18866D01*
X40370Y-18935D01*
X40137Y-19168D01*
X40100Y-19223D01*
X40087Y-19287D01*
X40087Y-19287D01*
X40087Y-23049D01*
X40011Y-23049D01*
X39929Y-23049D01*
X39929Y-20067D01*
X39929Y-19467D01*
X39911Y-19424D01*
X39878Y-19391D01*
X39835Y-19373D01*
X39788Y-19373D01*
X39188Y-19373D01*
X39144Y-19391D01*
X39111Y-19424D01*
X39093Y-19467D01*
X39093Y-19514D01*
X39093Y-20114D01*
X39111Y-20158D01*
X39144Y-20191D01*
X39188Y-20209D01*
X39235Y-20209D01*
X39835Y-20209D01*
X39878Y-20191D01*
X39911Y-20158D01*
X39929Y-20114D01*
X39929Y-20067D01*
X39929Y-23049D01*
X39903Y-23049D01*
X39844Y-23109D01*
X39844Y-23402D01*
X39851Y-23402D01*
X39851Y-23524D01*
X39844Y-23524D01*
X39844Y-23818D01*
X39903Y-23877D01*
X40011Y-23877D01*
X40087Y-23877D01*
X40087Y-23922D01*
X40082Y-23920D01*
X40035Y-23920D01*
X39722Y-23920D01*
X39722Y-23818D01*
X39722Y-23524D01*
X39714Y-23524D01*
X39714Y-23402D01*
X39722Y-23402D01*
X39722Y-23109D01*
X39662Y-23049D01*
X39555Y-23049D01*
X39460Y-23049D01*
X39372Y-23085D01*
X39305Y-23153D01*
X39304Y-23155D01*
X39278Y-23128D01*
X39257Y-23120D01*
X39291Y-23039D01*
X39291Y-22945D01*
X39255Y-22858D01*
X39189Y-22791D01*
X39102Y-22755D01*
X39008Y-22755D01*
X38929Y-22788D01*
X38929Y-19708D01*
X38929Y-18708D01*
X38866Y-18554D01*
X38748Y-18437D01*
X38595Y-18373D01*
X38429Y-18373D01*
X38275Y-18436D01*
X38157Y-18554D01*
X38093Y-18707D01*
X38093Y-18874D01*
X38157Y-19027D01*
X38274Y-19145D01*
X38428Y-19209D01*
X38594Y-19209D01*
X38748Y-19146D01*
X38866Y-19028D01*
X38929Y-18874D01*
X38929Y-18708D01*
X38929Y-19708D01*
X38866Y-19554D01*
X38748Y-19437D01*
X38595Y-19373D01*
X38429Y-19373D01*
X38275Y-19436D01*
X38157Y-19554D01*
X38093Y-19707D01*
X38093Y-19874D01*
X38157Y-20027D01*
X38274Y-20145D01*
X38428Y-20209D01*
X38594Y-20209D01*
X38748Y-20146D01*
X38866Y-20028D01*
X38929Y-19874D01*
X38929Y-19708D01*
X38929Y-22788D01*
X38921Y-22791D01*
X38854Y-22858D01*
X38818Y-22944D01*
X38818Y-23038D01*
X38848Y-23110D01*
X38838Y-23110D01*
X38794Y-23128D01*
X38761Y-23161D01*
X38743Y-23205D01*
X38743Y-23252D01*
X38743Y-23702D01*
X38579Y-23538D01*
X38579Y-23205D01*
X38561Y-23162D01*
X38528Y-23128D01*
X38485Y-23110D01*
X38438Y-23110D01*
X38088Y-23110D01*
X38057Y-23123D01*
X38057Y-18859D01*
X38042Y-18645D01*
X37989Y-18519D01*
X37898Y-18490D01*
X37812Y-18576D01*
X37812Y-18404D01*
X37784Y-18313D01*
X37580Y-18245D01*
X37366Y-18260D01*
X37239Y-18313D01*
X37210Y-18404D01*
X37511Y-18705D01*
X37812Y-18404D01*
X37812Y-18576D01*
X37597Y-18791D01*
X37898Y-19092D01*
X37989Y-19063D01*
X38057Y-18859D01*
X38057Y-23123D01*
X38044Y-23128D01*
X38011Y-23161D01*
X37993Y-23205D01*
X37993Y-23252D01*
X37993Y-23802D01*
X38011Y-23845D01*
X38043Y-23877D01*
X38011Y-23909D01*
X37993Y-23953D01*
X37993Y-24000D01*
X37993Y-24083D01*
X37929Y-24083D01*
X37929Y-19708D01*
X37866Y-19554D01*
X37812Y-19501D01*
X37812Y-19178D01*
X37511Y-18877D01*
X37426Y-18962D01*
X37426Y-18791D01*
X37125Y-18490D01*
X37033Y-18519D01*
X36966Y-18722D01*
X36981Y-18936D01*
X37033Y-19063D01*
X37125Y-19092D01*
X37426Y-18791D01*
X37426Y-18962D01*
X37210Y-19178D01*
X37239Y-19269D01*
X37443Y-19336D01*
X37657Y-19321D01*
X37784Y-19269D01*
X37812Y-19178D01*
X37812Y-19501D01*
X37748Y-19437D01*
X37595Y-19373D01*
X37429Y-19373D01*
X37275Y-19436D01*
X37157Y-19554D01*
X37093Y-19707D01*
X37093Y-19874D01*
X37157Y-20027D01*
X37274Y-20145D01*
X37428Y-20209D01*
X37594Y-20209D01*
X37748Y-20146D01*
X37866Y-20028D01*
X37929Y-19874D01*
X37929Y-19708D01*
X37929Y-24083D01*
X37872Y-24083D01*
X37872Y-23953D01*
X37854Y-23910D01*
X37822Y-23877D01*
X37854Y-23845D01*
X37872Y-23802D01*
X37872Y-23755D01*
X37872Y-23205D01*
X37854Y-23162D01*
X37821Y-23128D01*
X37778Y-23110D01*
X37731Y-23110D01*
X37381Y-23110D01*
X37381Y-22925D01*
X37346Y-22838D01*
X37283Y-22776D01*
X37283Y-21921D01*
X37265Y-21878D01*
X37247Y-21834D01*
X37181Y-21768D01*
X37181Y-21768D01*
X36929Y-21517D01*
X36929Y-19708D01*
X36929Y-18708D01*
X36866Y-18554D01*
X36748Y-18437D01*
X36595Y-18373D01*
X36429Y-18373D01*
X36275Y-18436D01*
X36157Y-18554D01*
X36093Y-18707D01*
X36093Y-18874D01*
X36157Y-19027D01*
X36274Y-19145D01*
X36428Y-19209D01*
X36594Y-19209D01*
X36748Y-19146D01*
X36866Y-19028D01*
X36929Y-18874D01*
X36929Y-18708D01*
X36929Y-19708D01*
X36866Y-19554D01*
X36748Y-19437D01*
X36595Y-19373D01*
X36429Y-19373D01*
X36275Y-19436D01*
X36157Y-19554D01*
X36093Y-19707D01*
X36093Y-19874D01*
X36157Y-20027D01*
X36274Y-20145D01*
X36428Y-20209D01*
X36594Y-20209D01*
X36748Y-20146D01*
X36866Y-20028D01*
X36929Y-19874D01*
X36929Y-19708D01*
X36929Y-21517D01*
X36249Y-20837D01*
X36216Y-20803D01*
X36129Y-20767D01*
X36035Y-20767D01*
X35949Y-20803D01*
X35882Y-20869D01*
X35846Y-20956D01*
X35846Y-21050D01*
X35864Y-21094D01*
X35882Y-21137D01*
X35948Y-21204D01*
X35948Y-21204D01*
X36879Y-22135D01*
X36913Y-22168D01*
X36956Y-22186D01*
X37000Y-22204D01*
X37047Y-22204D01*
X37094Y-22204D01*
X37137Y-22186D01*
X37180Y-22168D01*
X37214Y-22135D01*
X37247Y-22102D01*
X37265Y-22058D01*
X37283Y-22015D01*
X37283Y-21968D01*
X37283Y-21921D01*
X37283Y-22776D01*
X37279Y-22772D01*
X37192Y-22736D01*
X37098Y-22736D01*
X37012Y-22772D01*
X36945Y-22838D01*
X36909Y-22925D01*
X36909Y-23019D01*
X36945Y-23106D01*
X36950Y-23110D01*
X36674Y-23110D01*
X36436Y-22873D01*
X36382Y-22836D01*
X36317Y-22824D01*
X36317Y-22824D01*
X35642Y-22824D01*
X35642Y-19410D01*
X35642Y-18810D01*
X35624Y-18767D01*
X35591Y-18733D01*
X35548Y-18715D01*
X35501Y-18715D01*
X34901Y-18715D01*
X34857Y-18733D01*
X34824Y-18766D01*
X34806Y-18810D01*
X34806Y-18857D01*
X34806Y-19457D01*
X34824Y-19500D01*
X34857Y-19533D01*
X34900Y-19551D01*
X34947Y-19551D01*
X35547Y-19551D01*
X35591Y-19534D01*
X35624Y-19500D01*
X35642Y-19457D01*
X35642Y-19410D01*
X35642Y-22824D01*
X35522Y-22824D01*
X35296Y-22597D01*
X35241Y-22561D01*
X35177Y-22548D01*
X35177Y-22548D01*
X35067Y-22548D01*
X35035Y-22516D01*
X34948Y-22480D01*
X34854Y-22480D01*
X34767Y-22516D01*
X34701Y-22582D01*
X34665Y-22669D01*
X34665Y-22763D01*
X34701Y-22850D01*
X34767Y-22916D01*
X34854Y-22952D01*
X34948Y-22952D01*
X35035Y-22916D01*
X35067Y-22884D01*
X35107Y-22884D01*
X35333Y-23110D01*
X35333Y-23110D01*
X35388Y-23147D01*
X35400Y-23149D01*
X35371Y-23221D01*
X35371Y-23323D01*
X35431Y-23383D01*
X35825Y-23383D01*
X35825Y-23375D01*
X35946Y-23375D01*
X35946Y-23383D01*
X36340Y-23383D01*
X36400Y-23323D01*
X36400Y-23312D01*
X36536Y-23448D01*
X36536Y-23766D01*
X36519Y-23773D01*
X36451Y-23841D01*
X36415Y-23929D01*
X36415Y-24024D01*
X36415Y-24131D01*
X36475Y-24191D01*
X36769Y-24191D01*
X36769Y-24183D01*
X36890Y-24183D01*
X36890Y-24191D01*
X37184Y-24191D01*
X37244Y-24131D01*
X37244Y-24024D01*
X37244Y-23929D01*
X37207Y-23841D01*
X37140Y-23773D01*
X37122Y-23766D01*
X37122Y-23755D01*
X37122Y-23208D01*
X37192Y-23208D01*
X37279Y-23172D01*
X37345Y-23106D01*
X37381Y-23019D01*
X37381Y-22925D01*
X37381Y-23110D01*
X37381Y-23110D01*
X37337Y-23128D01*
X37304Y-23161D01*
X37286Y-23205D01*
X37286Y-23252D01*
X37286Y-23802D01*
X37304Y-23845D01*
X37336Y-23877D01*
X37304Y-23909D01*
X37286Y-23953D01*
X37286Y-24000D01*
X37286Y-24550D01*
X37304Y-24593D01*
X37337Y-24627D01*
X37381Y-24645D01*
X37428Y-24645D01*
X37778Y-24645D01*
X37821Y-24627D01*
X37854Y-24593D01*
X37872Y-24550D01*
X37872Y-24503D01*
X37872Y-24420D01*
X37993Y-24420D01*
X37993Y-24550D01*
X38011Y-24593D01*
X38044Y-24627D01*
X38087Y-24645D01*
X38134Y-24645D01*
X38484Y-24645D01*
X38528Y-24627D01*
X38561Y-24593D01*
X38579Y-24550D01*
X38579Y-24503D01*
X38579Y-24014D01*
X38743Y-24177D01*
X38743Y-24550D01*
X38761Y-24593D01*
X38794Y-24627D01*
X38837Y-24645D01*
X38884Y-24645D01*
X39234Y-24645D01*
X39278Y-24627D01*
X39311Y-24593D01*
X39329Y-24550D01*
X39329Y-24503D01*
X39329Y-23953D01*
X39311Y-23910D01*
X39279Y-23877D01*
X39311Y-23845D01*
X39329Y-23802D01*
X39329Y-23798D01*
X39372Y-23841D01*
X39460Y-23877D01*
X39555Y-23877D01*
X39662Y-23877D01*
X39722Y-23818D01*
X39722Y-23920D01*
X39485Y-23920D01*
X39441Y-23938D01*
X39408Y-23971D01*
X39390Y-24014D01*
X39390Y-24061D01*
X39390Y-24411D01*
X39408Y-24455D01*
X39441Y-24488D01*
X39484Y-24506D01*
X39531Y-24506D01*
X39547Y-24506D01*
X39547Y-24685D01*
X39565Y-24775D01*
X39616Y-24852D01*
X39754Y-24989D01*
X39754Y-24989D01*
X39787Y-25022D01*
X39874Y-25059D01*
X39968Y-25059D01*
X40011Y-25041D01*
X40054Y-25023D01*
X40087Y-24990D01*
X40087Y-26721D01*
X39949Y-26859D01*
X39949Y-26444D01*
X39886Y-26291D01*
X39768Y-26173D01*
X39615Y-26109D01*
X39448Y-26109D01*
X39294Y-26172D01*
X39177Y-26290D01*
X39113Y-26444D01*
X39113Y-26610D01*
X39176Y-26764D01*
X39294Y-26881D01*
X39447Y-26945D01*
X39614Y-26945D01*
X39768Y-26882D01*
X39885Y-26764D01*
X39949Y-26611D01*
X39949Y-26444D01*
X39949Y-26859D01*
X39675Y-27134D01*
X39615Y-27109D01*
X39448Y-27109D01*
X39294Y-27172D01*
X39183Y-27283D01*
X39183Y-27007D01*
X39171Y-26943D01*
X39134Y-26889D01*
X39134Y-26889D01*
X38922Y-26676D01*
X38949Y-26611D01*
X38949Y-26444D01*
X38886Y-26291D01*
X38768Y-26173D01*
X38615Y-26109D01*
X38448Y-26109D01*
X38294Y-26172D01*
X38287Y-26180D01*
X38287Y-25405D01*
X38269Y-25362D01*
X38251Y-25319D01*
X38185Y-25252D01*
X38185Y-25252D01*
X37745Y-24813D01*
X37669Y-24762D01*
X37578Y-24744D01*
X37106Y-24744D01*
X37140Y-24730D01*
X37207Y-24662D01*
X37244Y-24574D01*
X37244Y-24479D01*
X37244Y-24372D01*
X37184Y-24312D01*
X36890Y-24312D01*
X36890Y-24320D01*
X36769Y-24320D01*
X36769Y-24312D01*
X36475Y-24312D01*
X36415Y-24372D01*
X36415Y-24479D01*
X36415Y-24574D01*
X36451Y-24662D01*
X36519Y-24730D01*
X36553Y-24744D01*
X36400Y-24744D01*
X36400Y-23666D01*
X36400Y-23564D01*
X36340Y-23504D01*
X35946Y-23504D01*
X35946Y-23798D01*
X36006Y-23858D01*
X36113Y-23858D01*
X36208Y-23858D01*
X36296Y-23821D01*
X36363Y-23754D01*
X36400Y-23666D01*
X36400Y-24744D01*
X36357Y-24744D01*
X36122Y-24508D01*
X36122Y-24487D01*
X36184Y-24487D01*
X36227Y-24469D01*
X36260Y-24435D01*
X36278Y-24392D01*
X36278Y-24345D01*
X36278Y-23995D01*
X36261Y-23952D01*
X36227Y-23918D01*
X36184Y-23900D01*
X36137Y-23900D01*
X35825Y-23900D01*
X35825Y-23798D01*
X35825Y-23504D01*
X35431Y-23504D01*
X35371Y-23564D01*
X35371Y-23666D01*
X35407Y-23754D01*
X35475Y-23821D01*
X35563Y-23858D01*
X35658Y-23858D01*
X35765Y-23858D01*
X35825Y-23798D01*
X35825Y-23900D01*
X35587Y-23900D01*
X35544Y-23918D01*
X35510Y-23951D01*
X35508Y-23957D01*
X35325Y-23957D01*
X35322Y-23956D01*
X35228Y-23956D01*
X35141Y-23992D01*
X35075Y-24058D01*
X35039Y-24145D01*
X35039Y-24239D01*
X35057Y-24283D01*
X35075Y-24326D01*
X35141Y-24393D01*
X35183Y-24410D01*
X35183Y-24410D01*
X35186Y-24412D01*
X35186Y-24412D01*
X35188Y-24412D01*
X35228Y-24429D01*
X35271Y-24429D01*
X35276Y-24430D01*
X35508Y-24430D01*
X35510Y-24435D01*
X35543Y-24468D01*
X35587Y-24486D01*
X35634Y-24487D01*
X35649Y-24487D01*
X35649Y-24606D01*
X35667Y-24696D01*
X35718Y-24773D01*
X36092Y-25147D01*
X36092Y-25147D01*
X36169Y-25198D01*
X36169Y-25198D01*
X36259Y-25216D01*
X36259Y-25216D01*
X37480Y-25216D01*
X37883Y-25619D01*
X37917Y-25652D01*
X37960Y-25670D01*
X38003Y-25688D01*
X38051Y-25688D01*
X38097Y-25689D01*
X38141Y-25670D01*
X38184Y-25653D01*
X38218Y-25619D01*
X38251Y-25586D01*
X38269Y-25543D01*
X38287Y-25499D01*
X38287Y-25452D01*
X38287Y-25405D01*
X38287Y-26180D01*
X38177Y-26290D01*
X38113Y-26444D01*
X38113Y-26610D01*
X38176Y-26764D01*
X38294Y-26881D01*
X38447Y-26945D01*
X38614Y-26945D01*
X38686Y-26916D01*
X38847Y-27077D01*
X38847Y-27252D01*
X38768Y-27173D01*
X38615Y-27109D01*
X38448Y-27109D01*
X38294Y-27172D01*
X38177Y-27290D01*
X38113Y-27444D01*
X38113Y-27610D01*
X38176Y-27764D01*
X38294Y-27881D01*
X38447Y-27945D01*
X38614Y-27945D01*
X38768Y-27882D01*
X38858Y-27791D01*
X38860Y-27800D01*
X38896Y-27855D01*
X39172Y-28130D01*
X39172Y-28130D01*
X39227Y-28167D01*
X39291Y-28179D01*
X39744Y-28179D01*
X39744Y-28179D01*
X39744Y-28179D01*
X39808Y-28167D01*
X39862Y-28130D01*
X40296Y-27697D01*
X40296Y-27697D01*
X40296Y-27697D01*
X40332Y-27643D01*
X40332Y-27643D01*
X40341Y-27596D01*
X40341Y-28106D01*
X40359Y-28150D01*
X40392Y-28183D01*
X40429Y-28198D01*
X37949Y-28198D01*
X37949Y-27444D01*
X37949Y-26444D01*
X37886Y-26291D01*
X37768Y-26173D01*
X37615Y-26109D01*
X37448Y-26109D01*
X37294Y-26172D01*
X37177Y-26290D01*
X37113Y-26444D01*
X37113Y-26610D01*
X37176Y-26764D01*
X37294Y-26881D01*
X37447Y-26945D01*
X37614Y-26945D01*
X37768Y-26882D01*
X37885Y-26764D01*
X37949Y-26611D01*
X37949Y-26444D01*
X37949Y-27444D01*
X37886Y-27291D01*
X37768Y-27173D01*
X37615Y-27109D01*
X37448Y-27109D01*
X37294Y-27172D01*
X37177Y-27290D01*
X37113Y-27444D01*
X37113Y-27610D01*
X37176Y-27764D01*
X37294Y-27881D01*
X37447Y-27945D01*
X37614Y-27945D01*
X37768Y-27882D01*
X37885Y-27764D01*
X37949Y-27611D01*
X37949Y-27444D01*
X37949Y-28198D01*
X37070Y-28198D01*
X37070Y-26780D01*
X37070Y-26274D01*
X37070Y-26179D01*
X37034Y-26091D01*
X36966Y-26024D01*
X36878Y-25988D01*
X36651Y-25988D01*
X36592Y-26048D01*
X36592Y-26466D01*
X37011Y-26466D01*
X37070Y-26407D01*
X37070Y-26274D01*
X37070Y-26780D01*
X37070Y-26648D01*
X37011Y-26588D01*
X36592Y-26588D01*
X36592Y-27007D01*
X36651Y-27066D01*
X36878Y-27066D01*
X36966Y-27030D01*
X37034Y-26963D01*
X37070Y-26875D01*
X37070Y-26780D01*
X37070Y-28198D01*
X35721Y-28198D01*
X35721Y-27240D01*
X35657Y-27086D01*
X35540Y-26968D01*
X35386Y-26904D01*
X35220Y-26904D01*
X35066Y-26968D01*
X34948Y-27085D01*
X34885Y-27239D01*
X34884Y-27405D01*
X34948Y-27559D01*
X35066Y-27677D01*
X35219Y-27740D01*
X35385Y-27741D01*
X35539Y-27677D01*
X35657Y-27559D01*
X35721Y-27406D01*
X35721Y-27240D01*
X35721Y-28198D01*
X34721Y-28198D01*
X34721Y-27599D01*
X34721Y-26999D01*
X34703Y-26956D01*
X34670Y-26922D01*
X34626Y-26904D01*
X34579Y-26904D01*
X33979Y-26904D01*
X33936Y-26922D01*
X33903Y-26955D01*
X33885Y-26999D01*
X33885Y-27046D01*
X33885Y-27646D01*
X33902Y-27689D01*
X33936Y-27722D01*
X33979Y-27740D01*
X34026Y-27740D01*
X34626Y-27740D01*
X34669Y-27723D01*
X34703Y-27689D01*
X34721Y-27646D01*
X34721Y-27599D01*
X34721Y-28198D01*
X33713Y-28198D01*
X33713Y-23715D01*
X33574Y-23378D01*
X33316Y-23119D01*
X32978Y-22979D01*
X32613Y-22979D01*
X32275Y-23118D01*
X32017Y-23376D01*
X31877Y-23714D01*
X31877Y-24079D01*
X32016Y-24417D01*
X32274Y-24675D01*
X32611Y-24815D01*
X32977Y-24815D01*
X33314Y-24676D01*
X33573Y-24418D01*
X33713Y-24081D01*
X33713Y-23715D01*
X33713Y-28198D01*
X33477Y-28198D01*
X33477Y-27240D01*
X33413Y-27086D01*
X33296Y-26968D01*
X33142Y-26904D01*
X32976Y-26904D01*
X32822Y-26968D01*
X32704Y-27085D01*
X32641Y-27239D01*
X32640Y-27405D01*
X32704Y-27559D01*
X32821Y-27677D01*
X32975Y-27740D01*
X33141Y-27741D01*
X33295Y-27677D01*
X33413Y-27559D01*
X33477Y-27406D01*
X33477Y-27240D01*
X33477Y-28198D01*
X32477Y-28198D01*
X32477Y-27599D01*
X32477Y-26999D01*
X32459Y-26956D01*
X32426Y-26922D01*
X32382Y-26904D01*
X32335Y-26904D01*
X31929Y-26904D01*
X31929Y-25590D01*
X31929Y-25137D01*
X31911Y-25047D01*
X31911Y-25047D01*
X31859Y-24970D01*
X31466Y-24577D01*
X31433Y-24543D01*
X31346Y-24507D01*
X31252Y-24507D01*
X31165Y-24543D01*
X31099Y-24610D01*
X31063Y-24696D01*
X31062Y-24790D01*
X31080Y-24834D01*
X31098Y-24877D01*
X31165Y-24944D01*
X31165Y-24944D01*
X31456Y-25235D01*
X31456Y-25590D01*
X31474Y-25680D01*
X31525Y-25757D01*
X31602Y-25808D01*
X31692Y-25826D01*
X31783Y-25808D01*
X31859Y-25757D01*
X31911Y-25680D01*
X31929Y-25590D01*
X31929Y-26904D01*
X31735Y-26904D01*
X31692Y-26922D01*
X31658Y-26955D01*
X31640Y-26999D01*
X31640Y-27046D01*
X31640Y-27646D01*
X31658Y-27689D01*
X31692Y-27722D01*
X31735Y-27740D01*
X31782Y-27740D01*
X32382Y-27740D01*
X32425Y-27723D01*
X32459Y-27689D01*
X32477Y-27646D01*
X32477Y-27599D01*
X32477Y-28198D01*
X31233Y-28198D01*
X31233Y-27240D01*
X31169Y-27086D01*
X31052Y-26968D01*
X30898Y-26904D01*
X30759Y-26904D01*
X30759Y-23527D01*
X30759Y-22727D01*
X30741Y-22683D01*
X30708Y-22650D01*
X30664Y-22632D01*
X30617Y-22632D01*
X29460Y-22632D01*
X29460Y-20902D01*
X29460Y-20670D01*
X29400Y-20611D01*
X29081Y-20611D01*
X29081Y-21129D01*
X29141Y-21189D01*
X29268Y-21189D01*
X29356Y-21153D01*
X29424Y-21086D01*
X29460Y-20998D01*
X29460Y-20902D01*
X29460Y-22632D01*
X29177Y-22632D01*
X29134Y-22650D01*
X29101Y-22683D01*
X29083Y-22726D01*
X29083Y-22773D01*
X29083Y-23573D01*
X29101Y-23617D01*
X29134Y-23650D01*
X29177Y-23668D01*
X29224Y-23668D01*
X30664Y-23668D01*
X30708Y-23650D01*
X30741Y-23617D01*
X30759Y-23573D01*
X30759Y-23527D01*
X30759Y-26904D01*
X30732Y-26904D01*
X30578Y-26968D01*
X30460Y-27085D01*
X30396Y-27239D01*
X30396Y-27405D01*
X30460Y-27559D01*
X30577Y-27677D01*
X30731Y-27740D01*
X30897Y-27741D01*
X31051Y-27677D01*
X31169Y-27559D01*
X31232Y-27406D01*
X31233Y-27240D01*
X31233Y-28198D01*
X30233Y-28198D01*
X30233Y-27599D01*
X30233Y-26999D01*
X30215Y-26956D01*
X30181Y-26922D01*
X30138Y-26904D01*
X30091Y-26904D01*
X29491Y-26904D01*
X29448Y-26922D01*
X29414Y-26955D01*
X29396Y-26999D01*
X29396Y-27046D01*
X29396Y-27646D01*
X29414Y-27689D01*
X29447Y-27722D01*
X29491Y-27740D01*
X29538Y-27740D01*
X30138Y-27740D01*
X30181Y-27723D01*
X30215Y-27689D01*
X30233Y-27646D01*
X30233Y-27599D01*
X30233Y-28198D01*
X26705Y-28198D01*
X26705Y-27669D01*
X26705Y-26669D01*
X26705Y-25669D01*
X26642Y-25515D01*
X26524Y-25397D01*
X26370Y-25333D01*
X26204Y-25333D01*
X26050Y-25397D01*
X25933Y-25514D01*
X25869Y-25668D01*
X25869Y-25834D01*
X25932Y-25988D01*
X26050Y-26106D01*
X26203Y-26170D01*
X26370Y-26170D01*
X26523Y-26106D01*
X26641Y-25989D01*
X26705Y-25835D01*
X26705Y-25669D01*
X26705Y-26669D01*
X26642Y-26515D01*
X26524Y-26397D01*
X26370Y-26333D01*
X26204Y-26333D01*
X26050Y-26397D01*
X25933Y-26514D01*
X25869Y-26668D01*
X25869Y-26834D01*
X25932Y-26988D01*
X26050Y-27106D01*
X26203Y-27170D01*
X26370Y-27170D01*
X26523Y-27106D01*
X26641Y-26989D01*
X26705Y-26835D01*
X26705Y-26669D01*
X26705Y-27669D01*
X26642Y-27515D01*
X26524Y-27397D01*
X26370Y-27333D01*
X26204Y-27333D01*
X26050Y-27397D01*
X25933Y-27514D01*
X25869Y-27668D01*
X25869Y-27834D01*
X25932Y-27988D01*
X26050Y-28106D01*
X26203Y-28170D01*
X26370Y-28170D01*
X26523Y-28106D01*
X26641Y-27989D01*
X26705Y-27835D01*
X26705Y-27669D01*
X26705Y-28198D01*
X24872Y-28198D01*
X24872Y-27841D01*
X24932Y-27988D01*
X25050Y-28106D01*
X25203Y-28170D01*
X25370Y-28170D01*
X25523Y-28106D01*
X25641Y-27989D01*
X25705Y-27835D01*
X25705Y-27669D01*
X25642Y-27515D01*
X25524Y-27397D01*
X25370Y-27333D01*
X25204Y-27333D01*
X25050Y-27397D01*
X24933Y-27514D01*
X24872Y-27661D01*
X24872Y-26841D01*
X24932Y-26988D01*
X25050Y-27106D01*
X25203Y-27170D01*
X25370Y-27170D01*
X25523Y-27106D01*
X25641Y-26989D01*
X25705Y-26835D01*
X25705Y-26669D01*
X25642Y-26515D01*
X25524Y-26397D01*
X25370Y-26333D01*
X25204Y-26333D01*
X25050Y-26397D01*
X24933Y-26514D01*
X24872Y-26661D01*
X24872Y-25841D01*
X24932Y-25988D01*
X25050Y-26106D01*
X25203Y-26170D01*
X25370Y-26170D01*
X25523Y-26106D01*
X25641Y-25989D01*
X25705Y-25835D01*
X25705Y-25669D01*
X25678Y-25602D01*
X25925Y-25355D01*
X25925Y-25355D01*
X25925Y-25355D01*
X25962Y-25300D01*
X25962Y-25300D01*
X25972Y-25249D01*
X25975Y-25236D01*
X25975Y-25236D01*
X25975Y-25236D01*
X25975Y-25031D01*
X26050Y-25106D01*
X26203Y-25170D01*
X26370Y-25170D01*
X26523Y-25106D01*
X26641Y-24989D01*
X26705Y-24835D01*
X26705Y-24669D01*
X26642Y-24515D01*
X26546Y-24420D01*
X27106Y-24420D01*
X27106Y-24420D01*
X27106Y-24420D01*
X27170Y-24407D01*
X27225Y-24370D01*
X27402Y-24193D01*
X27402Y-26904D01*
X27247Y-26904D01*
X27204Y-26922D01*
X27170Y-26955D01*
X27152Y-26999D01*
X27152Y-27046D01*
X27152Y-27646D01*
X27170Y-27689D01*
X27203Y-27722D01*
X27247Y-27740D01*
X27294Y-27740D01*
X27894Y-27740D01*
X27937Y-27723D01*
X27970Y-27689D01*
X27988Y-27646D01*
X27988Y-27599D01*
X27988Y-26999D01*
X27971Y-26956D01*
X27937Y-26922D01*
X27894Y-26904D01*
X27847Y-26904D01*
X27738Y-26904D01*
X27738Y-26716D01*
X28184Y-27162D01*
X28152Y-27239D01*
X28152Y-27405D01*
X28216Y-27559D01*
X28333Y-27677D01*
X28487Y-27740D01*
X28653Y-27741D01*
X28807Y-27677D01*
X28925Y-27559D01*
X28988Y-27406D01*
X28989Y-27240D01*
X28960Y-27171D01*
X28960Y-21129D01*
X28960Y-20611D01*
X28641Y-20611D01*
X28581Y-20670D01*
X28581Y-20902D01*
X28581Y-20998D01*
X28618Y-21086D01*
X28685Y-21153D01*
X28773Y-21189D01*
X28900Y-21189D01*
X28960Y-21129D01*
X28960Y-27171D01*
X28925Y-27086D01*
X28808Y-26968D01*
X28654Y-26904D01*
X28488Y-26904D01*
X28427Y-26929D01*
X27917Y-26420D01*
X27917Y-23221D01*
X27987Y-23192D01*
X28054Y-23126D01*
X28090Y-23039D01*
X28090Y-22945D01*
X28054Y-22858D01*
X27988Y-22791D01*
X27901Y-22755D01*
X27842Y-22755D01*
X27928Y-22720D01*
X27995Y-22653D01*
X28031Y-22566D01*
X28031Y-22472D01*
X27995Y-22386D01*
X27929Y-22319D01*
X27842Y-22283D01*
X27748Y-22283D01*
X27661Y-22319D01*
X27629Y-22351D01*
X27440Y-22351D01*
X27376Y-22364D01*
X27322Y-22400D01*
X27322Y-22400D01*
X27164Y-22558D01*
X27128Y-22612D01*
X27115Y-22677D01*
X27115Y-22677D01*
X27115Y-22893D01*
X27115Y-22893D01*
X27128Y-22958D01*
X27164Y-23012D01*
X27213Y-23061D01*
X27213Y-23906D01*
X27036Y-24083D01*
X26546Y-24083D01*
X26641Y-23989D01*
X26705Y-23835D01*
X26705Y-23669D01*
X26642Y-23515D01*
X26562Y-23435D01*
X26782Y-23435D01*
X26814Y-23467D01*
X26901Y-23503D01*
X26995Y-23503D01*
X27082Y-23468D01*
X27148Y-23401D01*
X27184Y-23314D01*
X27185Y-23220D01*
X27149Y-23134D01*
X27082Y-23067D01*
X26996Y-23031D01*
X26902Y-23031D01*
X26815Y-23067D01*
X26782Y-23099D01*
X26530Y-23099D01*
X26641Y-22989D01*
X26705Y-22835D01*
X26705Y-22669D01*
X26642Y-22515D01*
X26524Y-22397D01*
X26370Y-22333D01*
X26204Y-22333D01*
X26050Y-22397D01*
X25933Y-22514D01*
X25869Y-22668D01*
X25869Y-22834D01*
X25932Y-22988D01*
X26043Y-23099D01*
X25767Y-23099D01*
X25703Y-23112D01*
X25648Y-23148D01*
X25648Y-23148D01*
X25436Y-23361D01*
X25370Y-23333D01*
X25204Y-23333D01*
X25050Y-23397D01*
X24933Y-23514D01*
X24872Y-23661D01*
X24872Y-22841D01*
X24932Y-22988D01*
X25050Y-23106D01*
X25203Y-23170D01*
X25370Y-23170D01*
X25523Y-23106D01*
X25641Y-22989D01*
X25705Y-22835D01*
X25705Y-22669D01*
X25642Y-22515D01*
X25524Y-22397D01*
X25370Y-22333D01*
X25204Y-22333D01*
X25050Y-22397D01*
X24933Y-22514D01*
X24872Y-22661D01*
X24872Y-21841D01*
X24932Y-21988D01*
X25050Y-22106D01*
X25203Y-22170D01*
X25370Y-22170D01*
X25523Y-22106D01*
X25641Y-21989D01*
X25705Y-21835D01*
X25705Y-21669D01*
X25642Y-21515D01*
X25524Y-21397D01*
X25370Y-21333D01*
X25204Y-21333D01*
X25050Y-21397D01*
X24933Y-21514D01*
X24872Y-21661D01*
X24872Y-20841D01*
X24932Y-20988D01*
X25050Y-21106D01*
X25203Y-21170D01*
X25370Y-21170D01*
X25433Y-21143D01*
X25589Y-21299D01*
X25589Y-21299D01*
X25644Y-21336D01*
X25708Y-21349D01*
X26167Y-21349D01*
X26050Y-21397D01*
X25933Y-21514D01*
X25869Y-21668D01*
X25869Y-21834D01*
X25932Y-21988D01*
X26050Y-22106D01*
X26203Y-22170D01*
X26370Y-22170D01*
X26523Y-22106D01*
X26641Y-21989D01*
X26705Y-21835D01*
X26705Y-21669D01*
X26677Y-21600D01*
X27108Y-21168D01*
X27108Y-21168D01*
X27108Y-21168D01*
X27145Y-21113D01*
X27145Y-21113D01*
X27155Y-21062D01*
X27157Y-21049D01*
X27157Y-21049D01*
X27157Y-21049D01*
X27157Y-20322D01*
X27309Y-20171D01*
X28581Y-20171D01*
X28581Y-20197D01*
X28581Y-20429D01*
X28641Y-20489D01*
X28960Y-20489D01*
X28960Y-20481D01*
X29081Y-20481D01*
X29081Y-20489D01*
X29400Y-20489D01*
X29460Y-20429D01*
X29460Y-20197D01*
X29460Y-20171D01*
X29603Y-20171D01*
X29603Y-20173D01*
X29603Y-20973D01*
X29621Y-21017D01*
X29654Y-21050D01*
X29685Y-21063D01*
X29685Y-21122D01*
X29703Y-21212D01*
X29754Y-21289D01*
X30580Y-22115D01*
X30657Y-22167D01*
X30657Y-22167D01*
X30748Y-22185D01*
X32973Y-22185D01*
X34370Y-23582D01*
X34370Y-25602D01*
X34388Y-25692D01*
X34439Y-25769D01*
X36113Y-27443D01*
X36113Y-27444D01*
X36113Y-27610D01*
X36176Y-27764D01*
X36294Y-27881D01*
X36447Y-27945D01*
X36614Y-27945D01*
X36768Y-27882D01*
X36885Y-27764D01*
X36949Y-27611D01*
X36949Y-27444D01*
X36886Y-27291D01*
X36768Y-27173D01*
X36615Y-27109D01*
X36448Y-27109D01*
X36447Y-27109D01*
X36404Y-27066D01*
X36411Y-27066D01*
X36470Y-27007D01*
X36470Y-26588D01*
X36470Y-26466D01*
X36470Y-26048D01*
X36411Y-25988D01*
X36184Y-25988D01*
X36096Y-26024D01*
X36028Y-26091D01*
X35992Y-26179D01*
X35992Y-26274D01*
X35992Y-26407D01*
X36051Y-26466D01*
X36470Y-26466D01*
X36470Y-26588D01*
X36051Y-26588D01*
X35992Y-26648D01*
X35992Y-26654D01*
X34842Y-25504D01*
X34842Y-23484D01*
X34842Y-23484D01*
X34824Y-23393D01*
X34824Y-23393D01*
X34773Y-23317D01*
X34773Y-23317D01*
X34642Y-23186D01*
X34642Y-19051D01*
X34579Y-18897D01*
X34461Y-18779D01*
X34307Y-18715D01*
X34141Y-18715D01*
X33987Y-18779D01*
X33870Y-18896D01*
X33806Y-19050D01*
X33806Y-19216D01*
X33869Y-19370D01*
X33987Y-19488D01*
X34140Y-19551D01*
X34307Y-19552D01*
X34460Y-19488D01*
X34578Y-19371D01*
X34642Y-19217D01*
X34642Y-19051D01*
X34642Y-23186D01*
X33480Y-22024D01*
X33480Y-19386D01*
X33480Y-18881D01*
X33480Y-18786D01*
X33443Y-18698D01*
X33376Y-18630D01*
X33288Y-18594D01*
X33061Y-18594D01*
X33001Y-18654D01*
X33001Y-19073D01*
X33420Y-19073D01*
X33480Y-19013D01*
X33480Y-18881D01*
X33480Y-19386D01*
X33480Y-19254D01*
X33420Y-19194D01*
X33001Y-19194D01*
X33001Y-19613D01*
X33061Y-19673D01*
X33288Y-19673D01*
X33376Y-19636D01*
X33443Y-19569D01*
X33480Y-19481D01*
X33480Y-19386D01*
X33480Y-22024D01*
X33237Y-21781D01*
X33161Y-21730D01*
X33070Y-21712D01*
X32880Y-21712D01*
X32880Y-19613D01*
X32880Y-19194D01*
X32880Y-19073D01*
X32880Y-18654D01*
X32820Y-18594D01*
X32593Y-18594D01*
X32505Y-18630D01*
X32438Y-18698D01*
X32401Y-18786D01*
X32401Y-18881D01*
X32401Y-19013D01*
X32461Y-19073D01*
X32880Y-19073D01*
X32880Y-19194D01*
X32461Y-19194D01*
X32401Y-19254D01*
X32401Y-19386D01*
X32401Y-19481D01*
X32438Y-19569D01*
X32505Y-19636D01*
X32593Y-19673D01*
X32820Y-19673D01*
X32880Y-19613D01*
X32880Y-21712D01*
X32359Y-21712D01*
X32359Y-19051D01*
X32295Y-18897D01*
X32178Y-18779D01*
X32024Y-18715D01*
X31858Y-18715D01*
X31704Y-18779D01*
X31586Y-18896D01*
X31522Y-19050D01*
X31522Y-19216D01*
X31586Y-19370D01*
X31703Y-19488D01*
X31857Y-19551D01*
X32023Y-19552D01*
X32177Y-19488D01*
X32295Y-19371D01*
X32358Y-19217D01*
X32359Y-19051D01*
X32359Y-21712D01*
X30845Y-21712D01*
X30185Y-21051D01*
X30188Y-21050D01*
X30221Y-21017D01*
X30239Y-20973D01*
X30239Y-20927D01*
X30239Y-20370D01*
X30517Y-20092D01*
X30503Y-20126D01*
X30503Y-20173D01*
X30503Y-20973D01*
X30521Y-21017D01*
X30554Y-21050D01*
X30597Y-21068D01*
X30644Y-21068D01*
X31044Y-21068D01*
X31088Y-21050D01*
X31121Y-21017D01*
X31139Y-20973D01*
X31139Y-20927D01*
X31139Y-20786D01*
X31289Y-20786D01*
X31291Y-20787D01*
X31338Y-20787D01*
X31385Y-20787D01*
X31428Y-20769D01*
X31472Y-20751D01*
X31505Y-20718D01*
X31538Y-20685D01*
X31556Y-20641D01*
X31574Y-20598D01*
X31574Y-20551D01*
X31574Y-20504D01*
X31556Y-20460D01*
X31556Y-20460D01*
X31538Y-20417D01*
X31472Y-20351D01*
X31430Y-20333D01*
X31428Y-20332D01*
X31426Y-20331D01*
X31385Y-20315D01*
X31341Y-20314D01*
X31337Y-20314D01*
X31139Y-20314D01*
X31139Y-20127D01*
X31121Y-20083D01*
X31088Y-20050D01*
X31044Y-20032D01*
X30997Y-20032D01*
X30597Y-20032D01*
X30562Y-20046D01*
X30649Y-19960D01*
X30944Y-19960D01*
X30944Y-19960D01*
X30991Y-19960D01*
X31035Y-19942D01*
X31078Y-19924D01*
X31111Y-19891D01*
X31145Y-19858D01*
X31163Y-19814D01*
X31181Y-19771D01*
X31181Y-19724D01*
X31181Y-19677D01*
X31163Y-19634D01*
X31145Y-19590D01*
X31078Y-19524D01*
X30992Y-19488D01*
X30898Y-19488D01*
X30898Y-19488D01*
X30870Y-19488D01*
X30988Y-19371D01*
X31051Y-19217D01*
X31052Y-19051D01*
X30988Y-18897D01*
X30871Y-18779D01*
X30717Y-18715D01*
X30551Y-18715D01*
X30397Y-18779D01*
X30279Y-18896D01*
X30215Y-19050D01*
X30215Y-19216D01*
X30243Y-19282D01*
X29690Y-19835D01*
X29170Y-19835D01*
X29481Y-19523D01*
X29550Y-19551D01*
X29716Y-19552D01*
X29870Y-19488D01*
X29988Y-19371D01*
X30051Y-19217D01*
X30052Y-19051D01*
X29988Y-18897D01*
X29871Y-18779D01*
X29717Y-18715D01*
X29551Y-18715D01*
X29397Y-18779D01*
X29279Y-18896D01*
X29215Y-19050D01*
X29215Y-19216D01*
X29244Y-19285D01*
X28873Y-19656D01*
X28349Y-19656D01*
X28481Y-19523D01*
X28550Y-19551D01*
X28716Y-19552D01*
X28870Y-19488D01*
X28988Y-19371D01*
X29051Y-19217D01*
X29052Y-19051D01*
X28988Y-18897D01*
X28871Y-18779D01*
X28717Y-18715D01*
X28551Y-18715D01*
X28397Y-18779D01*
X28279Y-18896D01*
X28215Y-19050D01*
X28215Y-19216D01*
X28244Y-19285D01*
X28052Y-19477D01*
X28043Y-19477D01*
X28051Y-19457D01*
X28051Y-19410D01*
X28051Y-18810D01*
X28034Y-18767D01*
X28000Y-18733D01*
X27957Y-18715D01*
X27910Y-18715D01*
X27310Y-18715D01*
X27267Y-18733D01*
X27233Y-18766D01*
X27215Y-18810D01*
X27215Y-18857D01*
X27215Y-19457D01*
X27224Y-19477D01*
X27086Y-19477D01*
X27022Y-19490D01*
X26967Y-19526D01*
X26967Y-19526D01*
X26826Y-19667D01*
X26826Y-19099D01*
X26826Y-18404D01*
X26790Y-18316D01*
X26723Y-18249D01*
X26635Y-18212D01*
X26539Y-18212D01*
X26407Y-18212D01*
X26348Y-18272D01*
X26348Y-18691D01*
X26766Y-18691D01*
X26826Y-18631D01*
X26826Y-18404D01*
X26826Y-19099D01*
X26826Y-18872D01*
X26766Y-18812D01*
X26348Y-18812D01*
X26348Y-19231D01*
X26407Y-19291D01*
X26539Y-19291D01*
X26635Y-19291D01*
X26723Y-19254D01*
X26790Y-19187D01*
X26826Y-19099D01*
X26826Y-19667D01*
X26705Y-19789D01*
X26705Y-19669D01*
X26642Y-19515D01*
X26524Y-19397D01*
X26370Y-19333D01*
X26226Y-19333D01*
X26226Y-19231D01*
X26226Y-18812D01*
X26226Y-18691D01*
X26226Y-18272D01*
X26166Y-18212D01*
X26034Y-18212D01*
X25939Y-18212D01*
X25851Y-18249D01*
X25784Y-18316D01*
X25747Y-18404D01*
X25748Y-18631D01*
X25807Y-18691D01*
X26226Y-18691D01*
X26226Y-18812D01*
X25807Y-18812D01*
X25748Y-18872D01*
X25747Y-19099D01*
X25784Y-19187D01*
X25851Y-19254D01*
X25939Y-19291D01*
X26034Y-19291D01*
X26166Y-19291D01*
X26226Y-19231D01*
X26226Y-19333D01*
X26204Y-19333D01*
X26050Y-19397D01*
X25933Y-19514D01*
X25869Y-19668D01*
X25869Y-19834D01*
X25932Y-19988D01*
X26050Y-20106D01*
X26203Y-20170D01*
X26324Y-20170D01*
X26168Y-20326D01*
X26147Y-20357D01*
X26050Y-20397D01*
X25933Y-20514D01*
X25869Y-20668D01*
X25869Y-20834D01*
X25932Y-20988D01*
X25957Y-21012D01*
X25778Y-21012D01*
X25674Y-20909D01*
X25705Y-20835D01*
X25705Y-20669D01*
X25642Y-20515D01*
X25524Y-20397D01*
X25370Y-20333D01*
X25204Y-20333D01*
X25050Y-20397D01*
X24933Y-20514D01*
X24872Y-20661D01*
X24872Y-19841D01*
X24932Y-19988D01*
X25050Y-20106D01*
X25203Y-20170D01*
X25370Y-20170D01*
X25523Y-20106D01*
X25641Y-19989D01*
X25705Y-19835D01*
X25705Y-19669D01*
X25642Y-19515D01*
X25524Y-19397D01*
X25370Y-19333D01*
X25204Y-19333D01*
X25050Y-19397D01*
X24933Y-19514D01*
X24872Y-19661D01*
X24872Y-18841D01*
X24932Y-18988D01*
X25050Y-19106D01*
X25203Y-19170D01*
X25370Y-19170D01*
X25523Y-19106D01*
X25641Y-18989D01*
X25705Y-18835D01*
X25705Y-18669D01*
X25642Y-18515D01*
X25524Y-18397D01*
X25370Y-18333D01*
X25204Y-18333D01*
X25050Y-18397D01*
X24933Y-18514D01*
X24872Y-18661D01*
X24872Y-18179D01*
X39890Y-18179D01*
X39666Y-18402D01*
X39595Y-18373D01*
X39429Y-18373D01*
X39275Y-18436D01*
X39157Y-18554D01*
X39093Y-18707D01*
X39093Y-18874D01*
X39157Y-19027D01*
X39274Y-19145D01*
X39428Y-19209D01*
X39594Y-19209D01*
X39748Y-19146D01*
X39866Y-19028D01*
X39929Y-18874D01*
X39929Y-18708D01*
X39902Y-18642D01*
X40109Y-18435D01*
X40516Y-18435D01*
G54D10*
G36*
X44261Y-28198D02*
X43773Y-28198D01*
X43773Y-27446D01*
X43773Y-26446D01*
X43767Y-26359D01*
X43767Y-25725D01*
X43767Y-25030D01*
X43731Y-24942D01*
X43664Y-24875D01*
X43576Y-24838D01*
X43531Y-24838D01*
X43531Y-21288D01*
X43531Y-20593D01*
X43495Y-20505D01*
X43427Y-20438D01*
X43339Y-20401D01*
X43244Y-20401D01*
X43112Y-20401D01*
X43052Y-20461D01*
X43052Y-20880D01*
X43471Y-20880D01*
X43531Y-20820D01*
X43531Y-20593D01*
X43531Y-21288D01*
X43531Y-21061D01*
X43471Y-21001D01*
X43052Y-21001D01*
X43052Y-21420D01*
X43112Y-21480D01*
X43244Y-21480D01*
X43339Y-21480D01*
X43427Y-21443D01*
X43495Y-21376D01*
X43531Y-21288D01*
X43531Y-24838D01*
X43480Y-24838D01*
X43410Y-24838D01*
X43410Y-23858D01*
X43410Y-22858D01*
X43410Y-21858D01*
X43346Y-21704D01*
X43229Y-21586D01*
X43075Y-21522D01*
X42909Y-21522D01*
X42755Y-21586D01*
X42637Y-21703D01*
X42574Y-21857D01*
X42573Y-22023D01*
X42637Y-22177D01*
X42754Y-22295D01*
X42908Y-22358D01*
X43074Y-22359D01*
X43228Y-22295D01*
X43346Y-22178D01*
X43410Y-22024D01*
X43410Y-21858D01*
X43410Y-22858D01*
X43346Y-22704D01*
X43229Y-22586D01*
X43075Y-22522D01*
X42909Y-22522D01*
X42755Y-22586D01*
X42637Y-22703D01*
X42574Y-22857D01*
X42573Y-23023D01*
X42637Y-23177D01*
X42754Y-23295D01*
X42908Y-23358D01*
X43074Y-23359D01*
X43228Y-23295D01*
X43346Y-23178D01*
X43410Y-23024D01*
X43410Y-22858D01*
X43410Y-23858D01*
X43346Y-23704D01*
X43229Y-23586D01*
X43075Y-23522D01*
X42909Y-23522D01*
X42755Y-23586D01*
X42637Y-23703D01*
X42574Y-23857D01*
X42573Y-24023D01*
X42637Y-24177D01*
X42754Y-24295D01*
X42908Y-24358D01*
X43074Y-24359D01*
X43228Y-24295D01*
X43346Y-24178D01*
X43410Y-24024D01*
X43410Y-23858D01*
X43410Y-24838D01*
X43348Y-24838D01*
X43288Y-24898D01*
X43288Y-25317D01*
X43707Y-25317D01*
X43767Y-25257D01*
X43767Y-25030D01*
X43767Y-25725D01*
X43767Y-25498D01*
X43707Y-25438D01*
X43288Y-25438D01*
X43288Y-25446D01*
X43167Y-25446D01*
X43167Y-25438D01*
X43167Y-25317D01*
X43167Y-24898D01*
X43107Y-24838D01*
X42975Y-24838D01*
X42880Y-24838D01*
X42792Y-24875D01*
X42725Y-24942D01*
X42688Y-25030D01*
X42688Y-25257D01*
X42748Y-25317D01*
X43167Y-25317D01*
X43167Y-25438D01*
X42748Y-25438D01*
X42688Y-25498D01*
X42688Y-25725D01*
X42725Y-25813D01*
X42792Y-25880D01*
X42880Y-25917D01*
X42950Y-25917D01*
X42927Y-25991D01*
X43228Y-26292D01*
X43529Y-25991D01*
X43506Y-25917D01*
X43576Y-25917D01*
X43664Y-25880D01*
X43731Y-25813D01*
X43767Y-25725D01*
X43767Y-26359D01*
X43758Y-26232D01*
X43706Y-26105D01*
X43615Y-26076D01*
X43314Y-26377D01*
X43615Y-26678D01*
X43706Y-26650D01*
X43773Y-26446D01*
X43773Y-27446D01*
X43758Y-27232D01*
X43706Y-27105D01*
X43615Y-27076D01*
X43529Y-27162D01*
X43529Y-26991D01*
X43500Y-26900D01*
X43441Y-26880D01*
X43500Y-26855D01*
X43529Y-26764D01*
X43228Y-26463D01*
X43142Y-26549D01*
X43142Y-26377D01*
X42841Y-26076D01*
X42750Y-26105D01*
X42682Y-26309D01*
X42697Y-26523D01*
X42750Y-26650D01*
X42841Y-26678D01*
X43142Y-26377D01*
X43142Y-26549D01*
X42927Y-26764D01*
X42956Y-26855D01*
X43015Y-26875D01*
X42956Y-26900D01*
X42927Y-26991D01*
X43228Y-27292D01*
X43529Y-26991D01*
X43529Y-27162D01*
X43314Y-27377D01*
X43615Y-27678D01*
X43706Y-27650D01*
X43773Y-27446D01*
X43773Y-28198D01*
X43529Y-28198D01*
X43529Y-27764D01*
X43228Y-27463D01*
X43142Y-27549D01*
X43142Y-27377D01*
X42841Y-27076D01*
X42750Y-27105D01*
X42682Y-27309D01*
X42697Y-27523D01*
X42750Y-27650D01*
X42841Y-27678D01*
X43142Y-27377D01*
X43142Y-27549D01*
X42927Y-27764D01*
X42956Y-27855D01*
X43159Y-27923D01*
X43373Y-27908D01*
X43500Y-27855D01*
X43529Y-27764D01*
X43529Y-28198D01*
X41849Y-28198D01*
X41996Y-28138D01*
X42114Y-28020D01*
X42177Y-27866D01*
X42178Y-27700D01*
X42114Y-27546D01*
X41996Y-27429D01*
X41843Y-27365D01*
X41677Y-27365D01*
X41523Y-27428D01*
X41405Y-27546D01*
X41341Y-27699D01*
X41341Y-27866D01*
X41405Y-28019D01*
X41522Y-28137D01*
X41669Y-28198D01*
X41089Y-28198D01*
X41126Y-28183D01*
X41159Y-28150D01*
X41177Y-28107D01*
X41177Y-28060D01*
X41177Y-27460D01*
X41160Y-27416D01*
X41155Y-27412D01*
X41299Y-27412D01*
X41299Y-27412D01*
X41299Y-27412D01*
X41363Y-27399D01*
X41418Y-27362D01*
X41607Y-27173D01*
X41676Y-27201D01*
X41842Y-27201D01*
X41996Y-27138D01*
X42114Y-27020D01*
X42177Y-26866D01*
X42178Y-26700D01*
X42178Y-25700D01*
X42114Y-25546D01*
X41996Y-25429D01*
X41843Y-25365D01*
X41677Y-25365D01*
X41523Y-25428D01*
X41405Y-25546D01*
X41341Y-25699D01*
X41341Y-25866D01*
X41405Y-26019D01*
X41522Y-26137D01*
X41676Y-26201D01*
X41842Y-26201D01*
X41996Y-26138D01*
X42114Y-26020D01*
X42177Y-25866D01*
X42178Y-25700D01*
X42178Y-26700D01*
X42114Y-26546D01*
X41996Y-26429D01*
X41843Y-26365D01*
X41677Y-26365D01*
X41523Y-26428D01*
X41405Y-26546D01*
X41341Y-26699D01*
X41341Y-26866D01*
X41370Y-26935D01*
X41229Y-27075D01*
X41058Y-27075D01*
X41114Y-27020D01*
X41177Y-26866D01*
X41178Y-26700D01*
X41114Y-26546D01*
X40996Y-26429D01*
X40843Y-26365D01*
X40677Y-26365D01*
X40523Y-26428D01*
X40424Y-26527D01*
X40424Y-26038D01*
X40522Y-26137D01*
X40676Y-26201D01*
X40842Y-26201D01*
X40996Y-26138D01*
X41114Y-26020D01*
X41177Y-25866D01*
X41178Y-25700D01*
X41114Y-25546D01*
X41020Y-25452D01*
X41020Y-25452D01*
X41028Y-25450D01*
X41083Y-25414D01*
X41378Y-25118D01*
X41378Y-25118D01*
X41378Y-25118D01*
X41415Y-25064D01*
X41420Y-25035D01*
X41522Y-25137D01*
X41676Y-25201D01*
X41842Y-25201D01*
X41996Y-25138D01*
X42114Y-25020D01*
X42177Y-24866D01*
X42178Y-24700D01*
X42114Y-24546D01*
X41996Y-24429D01*
X41843Y-24365D01*
X41677Y-24365D01*
X41523Y-24428D01*
X41427Y-24523D01*
X41427Y-24042D01*
X41522Y-24137D01*
X41676Y-24201D01*
X41842Y-24201D01*
X41996Y-24138D01*
X42114Y-24020D01*
X42177Y-23866D01*
X42178Y-23700D01*
X42114Y-23546D01*
X41996Y-23429D01*
X41843Y-23365D01*
X41677Y-23365D01*
X41523Y-23428D01*
X41427Y-23523D01*
X41427Y-23042D01*
X41522Y-23137D01*
X41676Y-23201D01*
X41842Y-23201D01*
X41996Y-23138D01*
X42114Y-23020D01*
X42177Y-22866D01*
X42178Y-22700D01*
X42114Y-22546D01*
X41996Y-22429D01*
X41843Y-22365D01*
X41677Y-22365D01*
X41523Y-22428D01*
X41427Y-22523D01*
X41427Y-22042D01*
X41522Y-22137D01*
X41676Y-22201D01*
X41842Y-22201D01*
X41996Y-22138D01*
X42114Y-22020D01*
X42177Y-21866D01*
X42178Y-21700D01*
X42149Y-21631D01*
X42461Y-21319D01*
X42464Y-21315D01*
X42489Y-21376D01*
X42556Y-21443D01*
X42644Y-21480D01*
X42739Y-21480D01*
X42871Y-21480D01*
X42931Y-21420D01*
X42931Y-21001D01*
X42923Y-21001D01*
X42923Y-20880D01*
X42931Y-20880D01*
X42931Y-20461D01*
X42871Y-20401D01*
X42739Y-20401D01*
X42644Y-20401D01*
X42556Y-20438D01*
X42510Y-20483D01*
X42510Y-19534D01*
X42567Y-19672D01*
X42825Y-19931D01*
X43163Y-20071D01*
X43528Y-20071D01*
X43865Y-19932D01*
X44124Y-19674D01*
X44261Y-19343D01*
X44261Y-28198D01*
X44261Y-28198D01*
G37*
G54D22*
X44261Y-28198D02*
X43773Y-28198D01*
X43773Y-27446D01*
X43773Y-26446D01*
X43767Y-26359D01*
X43767Y-25725D01*
X43767Y-25030D01*
X43731Y-24942D01*
X43664Y-24875D01*
X43576Y-24838D01*
X43531Y-24838D01*
X43531Y-21288D01*
X43531Y-20593D01*
X43495Y-20505D01*
X43427Y-20438D01*
X43339Y-20401D01*
X43244Y-20401D01*
X43112Y-20401D01*
X43052Y-20461D01*
X43052Y-20880D01*
X43471Y-20880D01*
X43531Y-20820D01*
X43531Y-20593D01*
X43531Y-21288D01*
X43531Y-21061D01*
X43471Y-21001D01*
X43052Y-21001D01*
X43052Y-21420D01*
X43112Y-21480D01*
X43244Y-21480D01*
X43339Y-21480D01*
X43427Y-21443D01*
X43495Y-21376D01*
X43531Y-21288D01*
X43531Y-24838D01*
X43480Y-24838D01*
X43410Y-24838D01*
X43410Y-23858D01*
X43410Y-22858D01*
X43410Y-21858D01*
X43346Y-21704D01*
X43229Y-21586D01*
X43075Y-21522D01*
X42909Y-21522D01*
X42755Y-21586D01*
X42637Y-21703D01*
X42574Y-21857D01*
X42573Y-22023D01*
X42637Y-22177D01*
X42754Y-22295D01*
X42908Y-22358D01*
X43074Y-22359D01*
X43228Y-22295D01*
X43346Y-22178D01*
X43410Y-22024D01*
X43410Y-21858D01*
X43410Y-22858D01*
X43346Y-22704D01*
X43229Y-22586D01*
X43075Y-22522D01*
X42909Y-22522D01*
X42755Y-22586D01*
X42637Y-22703D01*
X42574Y-22857D01*
X42573Y-23023D01*
X42637Y-23177D01*
X42754Y-23295D01*
X42908Y-23358D01*
X43074Y-23359D01*
X43228Y-23295D01*
X43346Y-23178D01*
X43410Y-23024D01*
X43410Y-22858D01*
X43410Y-23858D01*
X43346Y-23704D01*
X43229Y-23586D01*
X43075Y-23522D01*
X42909Y-23522D01*
X42755Y-23586D01*
X42637Y-23703D01*
X42574Y-23857D01*
X42573Y-24023D01*
X42637Y-24177D01*
X42754Y-24295D01*
X42908Y-24358D01*
X43074Y-24359D01*
X43228Y-24295D01*
X43346Y-24178D01*
X43410Y-24024D01*
X43410Y-23858D01*
X43410Y-24838D01*
X43348Y-24838D01*
X43288Y-24898D01*
X43288Y-25317D01*
X43707Y-25317D01*
X43767Y-25257D01*
X43767Y-25030D01*
X43767Y-25725D01*
X43767Y-25498D01*
X43707Y-25438D01*
X43288Y-25438D01*
X43288Y-25446D01*
X43167Y-25446D01*
X43167Y-25438D01*
X43167Y-25317D01*
X43167Y-24898D01*
X43107Y-24838D01*
X42975Y-24838D01*
X42880Y-24838D01*
X42792Y-24875D01*
X42725Y-24942D01*
X42688Y-25030D01*
X42688Y-25257D01*
X42748Y-25317D01*
X43167Y-25317D01*
X43167Y-25438D01*
X42748Y-25438D01*
X42688Y-25498D01*
X42688Y-25725D01*
X42725Y-25813D01*
X42792Y-25880D01*
X42880Y-25917D01*
X42950Y-25917D01*
X42927Y-25991D01*
X43228Y-26292D01*
X43529Y-25991D01*
X43506Y-25917D01*
X43576Y-25917D01*
X43664Y-25880D01*
X43731Y-25813D01*
X43767Y-25725D01*
X43767Y-26359D01*
X43758Y-26232D01*
X43706Y-26105D01*
X43615Y-26076D01*
X43314Y-26377D01*
X43615Y-26678D01*
X43706Y-26650D01*
X43773Y-26446D01*
X43773Y-27446D01*
X43758Y-27232D01*
X43706Y-27105D01*
X43615Y-27076D01*
X43529Y-27162D01*
X43529Y-26991D01*
X43500Y-26900D01*
X43441Y-26880D01*
X43500Y-26855D01*
X43529Y-26764D01*
X43228Y-26463D01*
X43142Y-26549D01*
X43142Y-26377D01*
X42841Y-26076D01*
X42750Y-26105D01*
X42682Y-26309D01*
X42697Y-26523D01*
X42750Y-26650D01*
X42841Y-26678D01*
X43142Y-26377D01*
X43142Y-26549D01*
X42927Y-26764D01*
X42956Y-26855D01*
X43015Y-26875D01*
X42956Y-26900D01*
X42927Y-26991D01*
X43228Y-27292D01*
X43529Y-26991D01*
X43529Y-27162D01*
X43314Y-27377D01*
X43615Y-27678D01*
X43706Y-27650D01*
X43773Y-27446D01*
X43773Y-28198D01*
X43529Y-28198D01*
X43529Y-27764D01*
X43228Y-27463D01*
X43142Y-27549D01*
X43142Y-27377D01*
X42841Y-27076D01*
X42750Y-27105D01*
X42682Y-27309D01*
X42697Y-27523D01*
X42750Y-27650D01*
X42841Y-27678D01*
X43142Y-27377D01*
X43142Y-27549D01*
X42927Y-27764D01*
X42956Y-27855D01*
X43159Y-27923D01*
X43373Y-27908D01*
X43500Y-27855D01*
X43529Y-27764D01*
X43529Y-28198D01*
X41849Y-28198D01*
X41996Y-28138D01*
X42114Y-28020D01*
X42177Y-27866D01*
X42178Y-27700D01*
X42114Y-27546D01*
X41996Y-27429D01*
X41843Y-27365D01*
X41677Y-27365D01*
X41523Y-27428D01*
X41405Y-27546D01*
X41341Y-27699D01*
X41341Y-27866D01*
X41405Y-28019D01*
X41522Y-28137D01*
X41669Y-28198D01*
X41089Y-28198D01*
X41126Y-28183D01*
X41159Y-28150D01*
X41177Y-28107D01*
X41177Y-28060D01*
X41177Y-27460D01*
X41160Y-27416D01*
X41155Y-27412D01*
X41299Y-27412D01*
X41299Y-27412D01*
X41299Y-27412D01*
X41363Y-27399D01*
X41418Y-27362D01*
X41607Y-27173D01*
X41676Y-27201D01*
X41842Y-27201D01*
X41996Y-27138D01*
X42114Y-27020D01*
X42177Y-26866D01*
X42178Y-26700D01*
X42178Y-25700D01*
X42114Y-25546D01*
X41996Y-25429D01*
X41843Y-25365D01*
X41677Y-25365D01*
X41523Y-25428D01*
X41405Y-25546D01*
X41341Y-25699D01*
X41341Y-25866D01*
X41405Y-26019D01*
X41522Y-26137D01*
X41676Y-26201D01*
X41842Y-26201D01*
X41996Y-26138D01*
X42114Y-26020D01*
X42177Y-25866D01*
X42178Y-25700D01*
X42178Y-26700D01*
X42114Y-26546D01*
X41996Y-26429D01*
X41843Y-26365D01*
X41677Y-26365D01*
X41523Y-26428D01*
X41405Y-26546D01*
X41341Y-26699D01*
X41341Y-26866D01*
X41370Y-26935D01*
X41229Y-27075D01*
X41058Y-27075D01*
X41114Y-27020D01*
X41177Y-26866D01*
X41178Y-26700D01*
X41114Y-26546D01*
X40996Y-26429D01*
X40843Y-26365D01*
X40677Y-26365D01*
X40523Y-26428D01*
X40424Y-26527D01*
X40424Y-26038D01*
X40522Y-26137D01*
X40676Y-26201D01*
X40842Y-26201D01*
X40996Y-26138D01*
X41114Y-26020D01*
X41177Y-25866D01*
X41178Y-25700D01*
X41114Y-25546D01*
X41020Y-25452D01*
X41020Y-25452D01*
X41028Y-25450D01*
X41083Y-25414D01*
X41378Y-25118D01*
X41378Y-25118D01*
X41378Y-25118D01*
X41415Y-25064D01*
X41420Y-25035D01*
X41522Y-25137D01*
X41676Y-25201D01*
X41842Y-25201D01*
X41996Y-25138D01*
X42114Y-25020D01*
X42177Y-24866D01*
X42178Y-24700D01*
X42114Y-24546D01*
X41996Y-24429D01*
X41843Y-24365D01*
X41677Y-24365D01*
X41523Y-24428D01*
X41427Y-24523D01*
X41427Y-24042D01*
X41522Y-24137D01*
X41676Y-24201D01*
X41842Y-24201D01*
X41996Y-24138D01*
X42114Y-24020D01*
X42177Y-23866D01*
X42178Y-23700D01*
X42114Y-23546D01*
X41996Y-23429D01*
X41843Y-23365D01*
X41677Y-23365D01*
X41523Y-23428D01*
X41427Y-23523D01*
X41427Y-23042D01*
X41522Y-23137D01*
X41676Y-23201D01*
X41842Y-23201D01*
X41996Y-23138D01*
X42114Y-23020D01*
X42177Y-22866D01*
X42178Y-22700D01*
X42114Y-22546D01*
X41996Y-22429D01*
X41843Y-22365D01*
X41677Y-22365D01*
X41523Y-22428D01*
X41427Y-22523D01*
X41427Y-22042D01*
X41522Y-22137D01*
X41676Y-22201D01*
X41842Y-22201D01*
X41996Y-22138D01*
X42114Y-22020D01*
X42177Y-21866D01*
X42178Y-21700D01*
X42149Y-21631D01*
X42461Y-21319D01*
X42464Y-21315D01*
X42489Y-21376D01*
X42556Y-21443D01*
X42644Y-21480D01*
X42739Y-21480D01*
X42871Y-21480D01*
X42931Y-21420D01*
X42931Y-21001D01*
X42923Y-21001D01*
X42923Y-20880D01*
X42931Y-20880D01*
X42931Y-20461D01*
X42871Y-20401D01*
X42739Y-20401D01*
X42644Y-20401D01*
X42556Y-20438D01*
X42510Y-20483D01*
X42510Y-19534D01*
X42567Y-19672D01*
X42825Y-19931D01*
X43163Y-20071D01*
X43528Y-20071D01*
X43865Y-19932D01*
X44124Y-19674D01*
X44261Y-19343D01*
X44261Y-28198D01*
M02*
