M48
;DRILL file {Pcbnew (2013-may-18)-stable} date Сб 29 авг 2015 23:55:12
;FORMAT={-:-/ absolute / metric / decimal}
FMAT,2
METRIC,TZ
T1C0.300
T2C1.000
T3C3.000
%
G90
G05
M71
T1
X65.4Y-69.2
X68.45Y-59.1
X68.75Y-62.95
X68.75Y-66.8
X70.Y-57.85
X70.35Y-55.15
X70.6Y-57.2
X70.75Y-58.4
X70.9Y-52.7
X73.2Y-62.9
X74.05Y-71.
X78.6Y-50.1
X79.5Y-62.85
X79.6Y-52.2
X79.9Y-59.2
X83.15Y-66.85
X84.1Y-63.9
X88.65Y-57.7
X89.6Y-61.45
X91.65Y-53.35
X94.1Y-55.8
X94.35Y-58.35
X96.65Y-64.65
X99.2Y-58.4
X101.Y-54.6
X101.4Y-63.05
X102.9Y-64.25
T2
X64.23Y-47.63
X64.23Y-50.17
X64.23Y-52.71
X64.23Y-55.25
X64.23Y-57.79
X64.23Y-60.33
X64.23Y-62.87
X64.23Y-65.41
X64.23Y-67.95
X64.23Y-70.49
X66.77Y-47.63
X66.77Y-50.17
X66.77Y-52.71
X66.77Y-55.25
X66.77Y-57.79
X66.77Y-60.33
X66.77Y-62.87
X66.77Y-65.41
X66.77Y-67.95
X66.77Y-70.49
X70.03Y-69.4
X70.19Y-48.6
X72.57Y-69.4
X72.73Y-48.6
X75.27Y-48.6
X75.73Y-69.4
X77.81Y-48.6
X78.27Y-69.4
X81.13Y-48.6
X81.43Y-69.4
X83.67Y-48.6
X83.97Y-69.4
X86.93Y-48.6
X87.13Y-69.4
X89.47Y-48.6
X89.67Y-69.4
X92.74Y-47.73
X92.74Y-50.27
X92.79Y-67.38
X92.79Y-69.92
X95.28Y-47.73
X95.28Y-50.27
X95.33Y-67.38
X95.33Y-69.92
X97.82Y-47.73
X97.82Y-50.27
X97.87Y-67.38
X97.87Y-69.92
X100.36Y-47.73
X100.36Y-50.27
X100.41Y-67.38
X100.41Y-69.92
X103.53Y-47.71
X103.53Y-50.25
X103.53Y-52.79
X103.53Y-55.33
X103.53Y-57.87
X103.53Y-60.41
X103.53Y-62.95
X103.53Y-65.49
X103.53Y-68.03
X103.53Y-70.57
X106.07Y-47.71
X106.07Y-50.25
X106.07Y-52.79
X106.07Y-55.33
X106.07Y-57.87
X106.07Y-60.41
X106.07Y-62.95
X106.07Y-65.49
X106.07Y-68.03
X106.07Y-70.57
X109.2Y-53.19
X109.2Y-55.73
X109.2Y-58.27
X109.2Y-60.81
X109.8Y-64.46
X109.8Y-67.
X109.8Y-69.54
T3
X83.3Y-60.7
X110.1Y-48.65
T0
M30
