M48
;DRILL file {Pcbnew (2013-may-18)-stable} date Вс 24 янв 2016 11:40:19
;FORMAT={-:-/ absolute / metric / decimal}
FMAT,2
METRIC,TZ
T1C0.300
T2C0.800
T3C1.000
T4C3.000
%
G90
G05
M71
T1
X246.761Y-107.569
X248.361Y-66.396
X248.539Y-80.137
X250.571Y-150.368
X251.333Y-69.85
X251.635Y-138.43
X252.035Y-151.93
X252.135Y-137.63
X252.222Y-102.362
X253.428Y-114.808
X253.746Y-79.375
X254.317Y-110.871
X254.635Y-81.026
X254.889Y-93.345
X255.587Y-84.709
X256.035Y-151.83
X256.413Y-112.204
X256.476Y-119.253
X256.667Y-84.772
X257.277Y-152.705
X257.365Y-112.141
X257.365Y-118.491
X257.556Y-90.106
X258.064Y-83.566
X258.064Y-87.376
X258.318Y-99.631
X258.648Y-149.911
X258.699Y-72.771
X258.775Y-79.35
X259.635Y-146.93
X260.223Y-85.471
X260.735Y-134.63
X261.175Y-118.618
X261.747Y-112.141
X262.065Y-102.362
X262.382Y-123.19
X262.966Y-152.806
X263.335Y-150.63
X263.398Y-74.422
X263.398Y-75.565
X263.835Y-144.13
X263.881Y-147.168
X264.033Y-70.675
X264.224Y-87.503
X264.287Y-125.73
X264.835Y-140.53
X265.557Y-84.582
X265.557Y-104.965
X265.735Y-142.33
X266.065Y-83.185
X266.065Y-112.141
X266.255Y-105.855
X266.954Y-78.994
X267.081Y-64.516
X267.135Y-144.93
X267.335Y-89.662
X267.652Y-119.507
X268.097Y-83.185
X268.351Y-75.946
X268.351Y-81.661
X268.635Y-146.93
X268.835Y-141.33
X269.835Y-141.33
X270.835Y-141.33
X270.916Y-78.994
X271.035Y-142.33
X271.145Y-89.789
X271.145Y-110.807
X271.435Y-146.33
X271.526Y-119.253
X271.735Y-145.43
X272.161Y-122.555
X272.224Y-104.076
X272.224Y-106.807
X272.235Y-144.53
X272.669Y-80.137
X272.796Y-121.666
X273.431Y-106.807
X273.431Y-117.348
X273.939Y-76.962
X274.32Y-90.297
X274.701Y-110.744
X274.726Y-68.58
X275.336Y-127.508
X276.098Y-76.454
X276.835Y-138.03
X276.86Y-80.772
X277.235Y-150.93
X277.749Y-74.93
X277.749Y-81.915
X278.035Y-141.63
X278.828Y-105.855
X278.892Y-88.9
X279.337Y-104.965
X279.464Y-102.362
X279.781Y-80.645
X280.861Y-120.904
X281.305Y-112.141
X281.559Y-105.855
X281.686Y-74.676
X281.943Y-86.875
X282.321Y-95.631
X282.702Y-80.645
X283.337Y-122.936
X284.353Y-74.676
X284.493Y-80.625
X285.877Y-70.866
X285.877Y-73.152
X286.004Y-80.645
X286.512Y-120.269
X286.693Y-85.275
X287.401Y-117.475
X287.401Y-123.571
X288.29Y-127.
X288.392Y-66.802
X289.179Y-72.517
X289.179Y-77.47
X289.306Y-88.773
X289.433Y-117.475
X290.957Y-71.501
X292.608Y-64.516
X294.081Y-66.802
X294.132Y-92.075
X294.894Y-109.601
X295.453Y-96.114
X295.91Y-94.615
X296.799Y-73.66
X296.799Y-86.106
X297.053Y-150.368
X298.117Y-138.43
X298.517Y-151.93
X298.617Y-137.63
X299.466Y-74.422
X299.466Y-85.725
X300.584Y-90.678
X301.092Y-70.917
X302.517Y-151.83
X303.759Y-152.705
X305.13Y-149.911
X306.117Y-146.93
X307.217Y-134.63
X309.204Y-82.79
X309.204Y-85.29
X309.204Y-87.691
X309.204Y-103.745
X309.204Y-106.245
X309.204Y-108.645
X309.204Y-124.447
X309.204Y-126.947
X309.204Y-129.346
X309.448Y-152.806
X309.817Y-150.63
X310.317Y-144.13
X310.363Y-147.168
X311.317Y-140.53
X312.217Y-142.33
X313.617Y-144.93
X314.204Y-89.29
X314.204Y-110.245
X314.204Y-130.946
X315.117Y-146.93
X315.317Y-141.33
X316.317Y-141.33
X317.317Y-141.33
X317.517Y-142.33
X317.917Y-146.33
X318.217Y-145.43
X318.717Y-144.53
X319.005Y-85.29
X319.005Y-106.245
X319.005Y-126.947
X323.317Y-138.03
X323.717Y-150.93
X324.517Y-141.63
T2
X251.495Y-143.63
X256.575Y-143.63
X297.977Y-143.63
X303.057Y-143.63
T3
X242.665Y-135.3
X242.665Y-137.84
X242.665Y-140.38
X242.665Y-142.92
X242.665Y-145.46
X242.665Y-148.
X242.665Y-150.54
X242.665Y-153.08
X242.665Y-155.62
X242.665Y-158.16
X244.094Y-108.648
X244.094Y-111.188
X244.729Y-73.279
X244.729Y-75.819
X244.729Y-79.756
X244.729Y-82.296
X244.729Y-84.836
X244.729Y-87.376
X245.205Y-135.3
X245.205Y-137.84
X245.205Y-140.38
X245.205Y-142.92
X245.205Y-145.46
X245.205Y-148.
X245.205Y-150.54
X245.205Y-153.08
X245.205Y-155.62
X245.205Y-158.16
X249.65Y-108.63
X249.65Y-111.17
X249.65Y-113.71
X249.65Y-116.25
X249.65Y-118.79
X249.65Y-121.33
X249.65Y-123.87
X249.65Y-126.41
X249.65Y-128.95
X249.65Y-131.49
X250.035Y-153.43
X250.158Y-73.07
X250.158Y-75.61
X250.158Y-78.15
X250.158Y-80.69
X250.158Y-83.23
X250.158Y-85.77
X250.158Y-88.31
X250.158Y-90.85
X250.158Y-93.39
X250.158Y-95.93
X252.035Y-153.43
X252.19Y-108.63
X252.19Y-111.17
X252.19Y-113.71
X252.19Y-116.25
X252.19Y-118.79
X252.19Y-121.33
X252.19Y-123.87
X252.19Y-126.41
X252.19Y-128.95
X252.19Y-131.49
X252.476Y-66.929
X252.698Y-73.07
X252.698Y-75.61
X252.698Y-78.15
X252.698Y-80.69
X252.698Y-83.23
X252.698Y-85.77
X252.698Y-88.31
X252.698Y-90.85
X252.698Y-93.39
X252.698Y-95.93
X253.111Y-101.092
X253.111Y-103.632
X254.035Y-153.43
X255.016Y-66.929
X255.651Y-101.092
X255.651Y-103.632
X255.958Y-94.8
X256.035Y-153.43
X256.334Y-126.873
X257.556Y-66.929
X257.635Y-137.16
X257.635Y-139.7
X258.191Y-101.092
X258.191Y-103.632
X258.334Y-126.873
X258.498Y-94.8
X260.334Y-126.873
X260.731Y-101.092
X260.731Y-103.632
X260.794Y-66.929
X261.671Y-94.8
X262.334Y-126.873
X263.271Y-101.092
X263.271Y-103.632
X263.334Y-66.929
X264.211Y-94.8
X265.875Y-66.929
X267.358Y-94.8
X268.605Y-129.794
X269.113Y-66.929
X269.898Y-94.8
X271.145Y-129.794
X271.653Y-66.929
X273.058Y-94.8
X273.685Y-129.794
X275.598Y-94.8
X279.019Y-101.092
X279.019Y-103.632
X279.019Y-128.905
X279.019Y-131.445
X279.527Y-65.532
X279.527Y-68.072
X280.972Y-91.186
X281.559Y-101.092
X281.559Y-103.632
X281.559Y-128.905
X281.559Y-131.445
X282.067Y-65.532
X282.067Y-68.072
X282.972Y-91.186
X283.305Y-135.3
X283.305Y-137.84
X283.305Y-140.38
X283.305Y-142.92
X283.305Y-145.46
X283.305Y-148.
X283.305Y-150.54
X283.305Y-153.08
X283.305Y-155.62
X283.305Y-158.16
X284.099Y-101.092
X284.099Y-103.632
X284.099Y-128.905
X284.099Y-131.445
X284.607Y-65.532
X284.607Y-68.072
X284.972Y-91.186
X285.845Y-135.3
X285.845Y-137.84
X285.845Y-140.38
X285.845Y-142.92
X285.845Y-145.46
X285.845Y-148.
X285.845Y-150.54
X285.845Y-153.08
X285.845Y-155.62
X285.845Y-158.16
X286.639Y-101.092
X286.639Y-103.632
X286.639Y-128.905
X286.639Y-131.445
X286.972Y-91.186
X287.147Y-65.532
X287.147Y-68.072
X289.147Y-135.3
X289.147Y-137.84
X289.147Y-140.38
X289.147Y-142.92
X289.147Y-145.46
X289.147Y-148.
X289.147Y-150.54
X289.147Y-153.08
X289.147Y-155.62
X289.147Y-158.16
X289.179Y-101.092
X289.179Y-103.632
X289.687Y-65.532
X289.687Y-68.072
X290.29Y-108.63
X290.29Y-111.17
X290.29Y-113.71
X290.29Y-116.25
X290.29Y-118.79
X290.29Y-121.33
X290.29Y-123.87
X290.29Y-126.41
X290.29Y-128.95
X290.29Y-131.49
X290.798Y-73.07
X290.798Y-75.61
X290.798Y-78.15
X290.798Y-80.69
X290.798Y-83.23
X290.798Y-85.77
X290.798Y-88.31
X290.798Y-90.85
X290.798Y-93.39
X290.798Y-95.93
X291.687Y-135.3
X291.687Y-137.84
X291.687Y-140.38
X291.687Y-142.92
X291.687Y-145.46
X291.687Y-148.
X291.687Y-150.54
X291.687Y-153.08
X291.687Y-155.62
X291.687Y-158.16
X292.83Y-108.63
X292.83Y-111.17
X292.83Y-113.71
X292.83Y-116.25
X292.83Y-118.79
X292.83Y-121.33
X292.83Y-123.87
X292.83Y-126.41
X292.83Y-128.95
X292.83Y-131.49
X293.338Y-73.07
X293.338Y-75.61
X293.338Y-78.15
X293.338Y-80.69
X293.338Y-83.23
X293.338Y-85.77
X293.338Y-88.31
X293.338Y-90.85
X293.338Y-93.39
X293.338Y-95.93
X296.517Y-153.43
X297.434Y-110.871
X297.434Y-113.411
X297.434Y-115.951
X297.434Y-118.491
X297.434Y-121.031
X298.196Y-76.708
X298.196Y-79.248
X298.196Y-81.788
X298.196Y-84.328
X298.517Y-153.43
X299.974Y-110.871
X299.974Y-113.411
X299.974Y-115.951
X299.974Y-118.491
X299.974Y-121.031
X300.517Y-153.43
X300.736Y-76.708
X300.736Y-79.248
X300.736Y-81.788
X300.736Y-84.328
X302.517Y-153.43
X304.117Y-137.16
X304.117Y-139.7
X318.404Y-74.251
X318.404Y-76.79
X318.404Y-79.331
X318.404Y-95.206
X318.404Y-97.745
X318.404Y-100.285
X318.404Y-115.906
X318.404Y-118.447
X318.404Y-120.986
X319.234Y-89.191
X319.234Y-110.145
X319.234Y-130.846
X321.774Y-89.191
X321.774Y-110.145
X321.774Y-130.846
X329.787Y-135.3
X329.787Y-137.84
X329.787Y-140.38
X329.787Y-142.92
X329.787Y-145.46
X329.787Y-148.
X329.787Y-150.54
X329.787Y-153.08
X329.787Y-155.62
X329.787Y-158.16
X332.327Y-135.3
X332.327Y-137.84
X332.327Y-140.38
X332.327Y-142.92
X332.327Y-145.46
X332.327Y-148.
X332.327Y-150.54
X332.327Y-153.08
X332.327Y-155.62
X332.327Y-158.16
T4
X244.094Y-102.54
X244.094Y-129.54
X244.602Y-66.98
X244.602Y-93.98
X298.704Y-102.54
X298.704Y-129.54
X299.212Y-66.98
X299.212Y-93.98
X306.104Y-73.691
X306.104Y-88.441
X306.104Y-94.645
X306.104Y-109.395
X306.104Y-115.346
X306.104Y-130.096
T0
M30
