G04 (created by PCBNEW (2013-may-18)-stable) date Вс 24 янв 2016 11:36:20*
%MOIN*%
G04 Gerber Fmt 3.4, Leading zero omitted, Abs format*
%FSLAX34Y34*%
G01*
G70*
G90*
G04 APERTURE LIST*
%ADD10C,0.00590551*%
%ADD11R,0.06X0.08*%
%ADD12R,0.0787402X0.0393701*%
%ADD13R,0.0984252X0.0787402*%
%ADD14O,0.0984252X0.0787402*%
%ADD15R,0.0787402X0.0984252*%
%ADD16O,0.0787402X0.0984252*%
%ADD17C,0.16*%
%ADD18R,0.137795X0.0787402*%
%ADD19R,0.036X0.036*%
%ADD20R,0.02X0.045*%
%ADD21R,0.055X0.035*%
%ADD22R,0.035X0.055*%
%ADD23R,0.06X0.06*%
%ADD24C,0.06*%
%ADD25R,0.03X0.02*%
%ADD26R,0.0276X0.0394*%
%ADD27R,0.0472X0.0472*%
%ADD28R,0.02X0.03*%
%ADD29C,0.056*%
%ADD30C,0.0590551*%
%ADD31R,0.0472X0.01*%
%ADD32R,0.01X0.0472*%
G04 APERTURE END LIST*
G54D10*
G54D11*
X124431Y-51553D03*
X123131Y-51553D03*
G54D12*
X124765Y-50569D03*
X124765Y-49978D03*
X124765Y-49388D03*
X122797Y-49388D03*
X122797Y-49978D03*
X122797Y-50569D03*
G54D13*
X125356Y-45632D03*
G54D14*
X125356Y-46632D03*
X125356Y-47632D03*
G54D15*
X125682Y-51514D03*
G54D16*
X126682Y-51514D03*
G54D17*
X120513Y-51219D03*
X120513Y-45412D03*
G54D18*
X127215Y-48175D03*
X127215Y-49175D03*
X127215Y-50175D03*
X127215Y-47175D03*
X127215Y-46175D03*
X127215Y-46175D03*
X127215Y-47175D03*
X127215Y-48175D03*
X127215Y-49175D03*
X127215Y-50175D03*
X127215Y-40025D03*
X127215Y-41025D03*
X127215Y-42025D03*
X127215Y-39025D03*
X127215Y-38025D03*
X127215Y-38025D03*
X127215Y-39025D03*
X127215Y-40025D03*
X127215Y-41025D03*
X127215Y-42025D03*
G54D17*
X120513Y-37262D03*
X120513Y-43069D03*
G54D15*
X125682Y-43364D03*
G54D16*
X126682Y-43364D03*
G54D13*
X125356Y-37482D03*
G54D14*
X125356Y-38482D03*
X125356Y-39482D03*
G54D12*
X124765Y-42419D03*
X124765Y-41828D03*
X124765Y-41238D03*
X122797Y-41238D03*
X122797Y-41828D03*
X122797Y-42419D03*
G54D11*
X124431Y-43403D03*
X123131Y-43403D03*
G54D19*
X105250Y-35700D03*
X105950Y-35700D03*
X105600Y-36500D03*
X101000Y-36300D03*
X101000Y-35600D03*
X101800Y-35950D03*
X106750Y-35700D03*
X107450Y-35700D03*
X107100Y-36500D03*
X102350Y-33250D03*
X102350Y-32550D03*
X103150Y-32900D03*
X102350Y-34750D03*
X102350Y-34050D03*
X103150Y-34400D03*
X102675Y-28150D03*
X102675Y-27450D03*
X103475Y-27800D03*
G54D20*
X108995Y-31240D03*
X109995Y-31240D03*
X110495Y-31240D03*
X110995Y-31240D03*
X111495Y-31240D03*
X111995Y-31240D03*
X112495Y-31240D03*
X112495Y-33740D03*
X111995Y-33740D03*
X111495Y-33740D03*
X110995Y-33740D03*
X110495Y-33740D03*
X109995Y-33740D03*
X109495Y-33740D03*
X108995Y-33740D03*
X109495Y-31240D03*
G54D21*
X102412Y-35648D03*
X102412Y-36398D03*
X103829Y-35648D03*
X103829Y-36398D03*
X103121Y-35648D03*
X103121Y-36398D03*
G54D22*
X111075Y-30100D03*
X111825Y-30100D03*
G54D21*
X102800Y-29225D03*
X102800Y-29975D03*
X102000Y-29975D03*
X102000Y-29225D03*
G54D23*
X96350Y-31400D03*
G54D24*
X96350Y-32400D03*
X96350Y-33400D03*
X96350Y-34400D03*
G54D23*
X99400Y-26350D03*
G54D24*
X100400Y-26350D03*
X101400Y-26350D03*
G54D23*
X100770Y-37322D03*
G54D24*
X101770Y-37322D03*
G54D23*
X106950Y-26350D03*
G54D24*
X105950Y-26350D03*
G54D23*
X105259Y-37322D03*
G54D24*
X106259Y-37322D03*
G54D23*
X107503Y-37322D03*
G54D24*
X108503Y-37322D03*
G54D23*
X99487Y-28767D03*
G54D24*
X98487Y-28767D03*
X99487Y-29767D03*
X98487Y-29767D03*
X99487Y-30767D03*
X98487Y-30767D03*
X99487Y-31767D03*
X98487Y-31767D03*
X99487Y-32767D03*
X98487Y-32767D03*
X99487Y-33767D03*
X98487Y-33767D03*
X99487Y-34767D03*
X98487Y-34767D03*
X99487Y-35767D03*
X98487Y-35767D03*
X99487Y-36767D03*
X98487Y-36767D03*
X99487Y-37767D03*
X98487Y-37767D03*
G54D23*
X114487Y-37767D03*
G54D24*
X115487Y-37767D03*
X114487Y-36767D03*
X115487Y-36767D03*
X114487Y-35767D03*
X115487Y-35767D03*
X114487Y-34767D03*
X115487Y-34767D03*
X114487Y-33767D03*
X115487Y-33767D03*
X114487Y-32767D03*
X115487Y-32767D03*
X114487Y-31767D03*
X115487Y-31767D03*
X114487Y-30767D03*
X115487Y-30767D03*
X114487Y-29767D03*
X115487Y-29767D03*
X114487Y-28767D03*
X115487Y-28767D03*
G54D25*
X101875Y-28225D03*
X101875Y-27475D03*
X100875Y-28225D03*
X101875Y-27850D03*
X100875Y-27475D03*
G54D19*
X104200Y-34050D03*
X104900Y-34050D03*
X104550Y-34850D03*
G54D26*
X111625Y-36800D03*
X112000Y-36800D03*
X112375Y-36800D03*
X112375Y-37800D03*
X112000Y-37800D03*
X111625Y-37800D03*
G54D25*
X104425Y-27475D03*
X104425Y-28225D03*
X105425Y-27475D03*
X104425Y-27850D03*
X105425Y-28225D03*
G54D22*
X110025Y-30100D03*
X109275Y-30100D03*
G54D21*
X101200Y-29975D03*
X101200Y-29225D03*
X112200Y-35225D03*
X112200Y-34475D03*
G54D22*
X104200Y-28975D03*
X104950Y-28975D03*
X107175Y-25400D03*
X106425Y-25400D03*
X104950Y-29750D03*
X104200Y-29750D03*
G54D21*
X101600Y-34025D03*
X101600Y-34775D03*
G54D22*
X104925Y-33300D03*
X104175Y-33300D03*
G54D21*
X100350Y-35575D03*
X100350Y-36325D03*
X101600Y-32525D03*
X101600Y-33275D03*
X104550Y-35650D03*
X104550Y-36400D03*
G54D22*
X100175Y-27500D03*
X99425Y-27500D03*
G54D23*
X102675Y-26350D03*
G54D24*
X103675Y-26350D03*
X104675Y-26350D03*
G54D23*
X103020Y-37322D03*
G54D24*
X104020Y-37322D03*
G54D27*
X108813Y-25400D03*
X107987Y-25400D03*
G54D23*
X110618Y-35900D03*
G54D24*
X111406Y-35900D03*
X112193Y-35900D03*
X112981Y-35900D03*
G54D23*
X117400Y-33200D03*
G54D24*
X118400Y-33200D03*
X117400Y-32200D03*
X118400Y-32200D03*
X117400Y-31200D03*
X118400Y-31200D03*
X117400Y-30200D03*
X118400Y-30200D03*
G54D17*
X117800Y-26370D03*
X117800Y-37000D03*
G54D22*
X107925Y-34950D03*
X107175Y-34950D03*
X106375Y-34950D03*
X105625Y-34950D03*
G54D17*
X96300Y-37000D03*
X96300Y-26370D03*
G54D23*
X96350Y-28850D03*
G54D24*
X96350Y-29850D03*
G54D23*
X114050Y-26800D03*
G54D24*
X114050Y-25800D03*
X113050Y-26800D03*
X113050Y-25800D03*
X112050Y-26800D03*
X112050Y-25800D03*
X111050Y-26800D03*
X111050Y-25800D03*
X110050Y-26800D03*
X110050Y-25800D03*
G54D23*
X114287Y-51767D03*
G54D24*
X115287Y-51767D03*
X114287Y-50767D03*
X115287Y-50767D03*
X114287Y-49767D03*
X115287Y-49767D03*
X114287Y-48767D03*
X115287Y-48767D03*
X114287Y-47767D03*
X115287Y-47767D03*
X114287Y-46767D03*
X115287Y-46767D03*
X114287Y-45767D03*
X115287Y-45767D03*
X114287Y-44767D03*
X115287Y-44767D03*
X114287Y-43767D03*
X115287Y-43767D03*
X114287Y-42767D03*
X115287Y-42767D03*
G54D23*
X99287Y-42767D03*
G54D24*
X98287Y-42767D03*
X99287Y-43767D03*
X98287Y-43767D03*
X99287Y-44767D03*
X98287Y-44767D03*
X99287Y-45767D03*
X98287Y-45767D03*
X99287Y-46767D03*
X98287Y-46767D03*
X99287Y-47767D03*
X98287Y-47767D03*
X99287Y-48767D03*
X98287Y-48767D03*
X99287Y-49767D03*
X98287Y-49767D03*
X99287Y-50767D03*
X98287Y-50767D03*
X99287Y-51767D03*
X98287Y-51767D03*
G54D19*
X101300Y-45400D03*
X100600Y-45400D03*
X100950Y-44600D03*
X110700Y-42950D03*
X110000Y-42950D03*
X110350Y-42150D03*
X104725Y-42950D03*
X104025Y-42950D03*
X104375Y-42150D03*
X101300Y-42950D03*
X100600Y-42950D03*
X100950Y-42150D03*
X105400Y-49250D03*
X106100Y-49250D03*
X105750Y-50050D03*
X103025Y-42950D03*
X102325Y-42950D03*
X102675Y-42150D03*
G54D26*
X101725Y-50850D03*
X102100Y-50850D03*
X102475Y-50850D03*
X102475Y-51850D03*
X102100Y-51850D03*
X101725Y-51850D03*
G54D28*
X105700Y-48025D03*
X106450Y-48025D03*
X105700Y-47025D03*
X106075Y-48025D03*
X106450Y-47025D03*
G54D25*
X102750Y-48425D03*
X102750Y-49175D03*
X103750Y-48425D03*
X102750Y-48800D03*
X103750Y-49175D03*
G54D22*
X104975Y-47750D03*
X104225Y-47750D03*
X104000Y-43650D03*
X104750Y-43650D03*
X111875Y-47600D03*
X111125Y-47600D03*
G54D21*
X104600Y-49225D03*
X104600Y-48475D03*
X102000Y-49125D03*
X102000Y-48375D03*
X104600Y-51125D03*
X104600Y-50375D03*
G54D22*
X100575Y-43650D03*
X101325Y-43650D03*
X104975Y-46350D03*
X104225Y-46350D03*
X104975Y-47050D03*
X104225Y-47050D03*
X102300Y-43650D03*
X103050Y-43650D03*
X105425Y-48600D03*
X106175Y-48600D03*
X100575Y-46150D03*
X101325Y-46150D03*
G54D23*
X109850Y-51750D03*
G54D24*
X109850Y-50750D03*
X110850Y-51750D03*
X110850Y-50750D03*
X111850Y-51750D03*
X111850Y-50750D03*
X112850Y-51750D03*
X112850Y-50750D03*
G54D23*
X107750Y-51100D03*
G54D24*
X106750Y-51100D03*
X105750Y-51100D03*
G54D23*
X96100Y-42775D03*
G54D24*
X96100Y-43775D03*
G54D27*
X103937Y-51950D03*
X104763Y-51950D03*
G54D23*
X100918Y-49950D03*
G54D24*
X101706Y-49950D03*
X102493Y-49950D03*
X103281Y-49950D03*
G54D23*
X103650Y-40800D03*
G54D24*
X103650Y-39800D03*
X102650Y-40800D03*
X102650Y-39800D03*
X101650Y-40800D03*
X101650Y-39800D03*
X100650Y-40800D03*
X100650Y-39800D03*
X99650Y-40800D03*
X99650Y-39800D03*
G54D23*
X113850Y-40800D03*
G54D24*
X113850Y-39800D03*
X112850Y-40800D03*
X112850Y-39800D03*
X111850Y-40800D03*
X111850Y-39800D03*
X110850Y-40800D03*
X110850Y-39800D03*
X109850Y-40800D03*
X109850Y-39800D03*
G54D23*
X117100Y-47650D03*
G54D24*
X118100Y-47650D03*
X117100Y-46650D03*
X118100Y-46650D03*
X117100Y-45650D03*
X118100Y-45650D03*
X117100Y-44650D03*
X118100Y-44650D03*
X117100Y-43650D03*
X118100Y-43650D03*
G54D17*
X96100Y-51000D03*
X96100Y-40370D03*
X117600Y-40370D03*
X117600Y-51000D03*
G54D22*
X109975Y-43625D03*
X110725Y-43625D03*
X100785Y-59200D03*
X100035Y-59200D03*
X99756Y-54933D03*
X100506Y-54933D03*
X99756Y-54027D03*
X100506Y-54027D03*
G54D21*
X98990Y-54991D03*
X98990Y-55741D03*
G54D22*
X99756Y-55720D03*
X100506Y-55720D03*
G54D21*
X103281Y-54520D03*
X103281Y-53770D03*
G54D22*
X107906Y-59421D03*
X108656Y-59421D03*
X102434Y-59381D03*
X103184Y-59381D03*
G54D21*
X108832Y-55030D03*
X108832Y-55780D03*
G54D23*
X98438Y-60405D03*
G54D24*
X99226Y-60405D03*
X100013Y-60405D03*
X100801Y-60405D03*
G54D29*
X99013Y-56547D03*
X101013Y-56547D03*
G54D23*
X96537Y-53267D03*
G54D24*
X95537Y-53267D03*
X96537Y-54267D03*
X95537Y-54267D03*
X96537Y-55267D03*
X95537Y-55267D03*
X96537Y-56267D03*
X95537Y-56267D03*
X96537Y-57267D03*
X95537Y-57267D03*
X96537Y-58267D03*
X95537Y-58267D03*
X96537Y-59267D03*
X95537Y-59267D03*
X96537Y-60267D03*
X95537Y-60267D03*
X96537Y-61267D03*
X95537Y-61267D03*
X96537Y-62267D03*
X95537Y-62267D03*
G54D23*
X111537Y-62267D03*
G54D24*
X112537Y-62267D03*
X111537Y-61267D03*
X112537Y-61267D03*
X111537Y-60267D03*
X112537Y-60267D03*
X111537Y-59267D03*
X112537Y-59267D03*
X111537Y-58267D03*
X112537Y-58267D03*
X111537Y-57267D03*
X112537Y-57267D03*
X111537Y-56267D03*
X112537Y-56267D03*
X111537Y-55267D03*
X112537Y-55267D03*
X111537Y-54267D03*
X112537Y-54267D03*
X111537Y-53267D03*
X112537Y-53267D03*
G54D22*
X97434Y-53830D03*
X98184Y-53830D03*
G54D30*
X101431Y-54000D03*
G54D21*
X101750Y-59725D03*
X101750Y-60475D03*
G54D31*
X103281Y-55583D03*
X103281Y-55780D03*
X103281Y-55977D03*
X103281Y-56174D03*
X103281Y-56371D03*
X103281Y-56567D03*
X103281Y-56764D03*
X103281Y-56961D03*
X103281Y-57157D03*
X103281Y-57354D03*
X103281Y-57551D03*
X103281Y-57747D03*
X103281Y-57944D03*
X103281Y-58141D03*
X103281Y-58338D03*
X103281Y-58535D03*
G54D32*
X104049Y-59303D03*
X104246Y-59303D03*
X104443Y-59303D03*
X104640Y-59303D03*
X104837Y-59303D03*
X105033Y-59303D03*
X105230Y-59303D03*
X105427Y-59303D03*
X105623Y-59303D03*
X105820Y-59303D03*
X106017Y-59303D03*
X106213Y-59303D03*
X106410Y-59303D03*
X106607Y-59303D03*
X106804Y-59303D03*
X107001Y-59303D03*
G54D31*
X107769Y-58535D03*
X107769Y-58338D03*
X107769Y-58141D03*
X107769Y-57944D03*
X107769Y-57747D03*
X107769Y-57551D03*
X107769Y-57354D03*
X107769Y-57157D03*
X107769Y-56961D03*
X107769Y-56764D03*
X107769Y-56567D03*
X107769Y-56371D03*
X107769Y-56174D03*
X107769Y-55977D03*
X107769Y-55780D03*
X107769Y-55583D03*
G54D32*
X107001Y-54815D03*
X106804Y-54815D03*
X106607Y-54815D03*
X106410Y-54815D03*
X106213Y-54815D03*
X106017Y-54815D03*
X105820Y-54815D03*
X105623Y-54815D03*
X105427Y-54815D03*
X105230Y-54815D03*
X105033Y-54815D03*
X104837Y-54815D03*
X104640Y-54815D03*
X104443Y-54815D03*
X104246Y-54815D03*
X104049Y-54815D03*
G54D22*
X119085Y-59200D03*
X118335Y-59200D03*
X118056Y-54933D03*
X118806Y-54933D03*
X118056Y-54027D03*
X118806Y-54027D03*
G54D21*
X117290Y-54991D03*
X117290Y-55741D03*
G54D22*
X118056Y-55720D03*
X118806Y-55720D03*
G54D21*
X121581Y-54520D03*
X121581Y-53770D03*
G54D22*
X126206Y-59421D03*
X126956Y-59421D03*
X120734Y-59381D03*
X121484Y-59381D03*
G54D21*
X127132Y-55030D03*
X127132Y-55780D03*
G54D23*
X116738Y-60405D03*
G54D24*
X117526Y-60405D03*
X118313Y-60405D03*
X119101Y-60405D03*
G54D29*
X117313Y-56547D03*
X119313Y-56547D03*
G54D23*
X114837Y-53267D03*
G54D24*
X113837Y-53267D03*
X114837Y-54267D03*
X113837Y-54267D03*
X114837Y-55267D03*
X113837Y-55267D03*
X114837Y-56267D03*
X113837Y-56267D03*
X114837Y-57267D03*
X113837Y-57267D03*
X114837Y-58267D03*
X113837Y-58267D03*
X114837Y-59267D03*
X113837Y-59267D03*
X114837Y-60267D03*
X113837Y-60267D03*
X114837Y-61267D03*
X113837Y-61267D03*
X114837Y-62267D03*
X113837Y-62267D03*
G54D23*
X129837Y-62267D03*
G54D24*
X130837Y-62267D03*
X129837Y-61267D03*
X130837Y-61267D03*
X129837Y-60267D03*
X130837Y-60267D03*
X129837Y-59267D03*
X130837Y-59267D03*
X129837Y-58267D03*
X130837Y-58267D03*
X129837Y-57267D03*
X130837Y-57267D03*
X129837Y-56267D03*
X130837Y-56267D03*
X129837Y-55267D03*
X130837Y-55267D03*
X129837Y-54267D03*
X130837Y-54267D03*
X129837Y-53267D03*
X130837Y-53267D03*
G54D22*
X115734Y-53830D03*
X116484Y-53830D03*
G54D30*
X119731Y-54000D03*
G54D21*
X120050Y-59725D03*
X120050Y-60475D03*
G54D31*
X121581Y-55583D03*
X121581Y-55780D03*
X121581Y-55977D03*
X121581Y-56174D03*
X121581Y-56371D03*
X121581Y-56567D03*
X121581Y-56764D03*
X121581Y-56961D03*
X121581Y-57157D03*
X121581Y-57354D03*
X121581Y-57551D03*
X121581Y-57747D03*
X121581Y-57944D03*
X121581Y-58141D03*
X121581Y-58338D03*
X121581Y-58535D03*
G54D32*
X122349Y-59303D03*
X122546Y-59303D03*
X122743Y-59303D03*
X122940Y-59303D03*
X123137Y-59303D03*
X123333Y-59303D03*
X123530Y-59303D03*
X123727Y-59303D03*
X123923Y-59303D03*
X124120Y-59303D03*
X124317Y-59303D03*
X124513Y-59303D03*
X124710Y-59303D03*
X124907Y-59303D03*
X125104Y-59303D03*
X125301Y-59303D03*
G54D31*
X126069Y-58535D03*
X126069Y-58338D03*
X126069Y-58141D03*
X126069Y-57944D03*
X126069Y-57747D03*
X126069Y-57551D03*
X126069Y-57354D03*
X126069Y-57157D03*
X126069Y-56961D03*
X126069Y-56764D03*
X126069Y-56567D03*
X126069Y-56371D03*
X126069Y-56174D03*
X126069Y-55977D03*
X126069Y-55780D03*
X126069Y-55583D03*
G54D32*
X125301Y-54815D03*
X125104Y-54815D03*
X124907Y-54815D03*
X124710Y-54815D03*
X124513Y-54815D03*
X124317Y-54815D03*
X124120Y-54815D03*
X123923Y-54815D03*
X123727Y-54815D03*
X123530Y-54815D03*
X123333Y-54815D03*
X123137Y-54815D03*
X122940Y-54815D03*
X122743Y-54815D03*
X122546Y-54815D03*
X122349Y-54815D03*
G54D11*
X124431Y-35153D03*
X123131Y-35153D03*
G54D12*
X124765Y-34169D03*
X124765Y-33578D03*
X124765Y-32988D03*
X122797Y-32988D03*
X122797Y-33578D03*
X122797Y-34169D03*
G54D13*
X125356Y-29232D03*
G54D14*
X125356Y-30232D03*
X125356Y-31232D03*
G54D15*
X125682Y-35114D03*
G54D16*
X126682Y-35114D03*
G54D17*
X120513Y-34819D03*
X120513Y-29012D03*
G54D18*
X127215Y-31775D03*
X127215Y-32775D03*
X127215Y-33775D03*
X127215Y-30775D03*
X127215Y-29775D03*
X127215Y-29775D03*
X127215Y-30775D03*
X127215Y-31775D03*
X127215Y-32775D03*
X127215Y-33775D03*
M02*
