G04 (created by PCBNEW (2013-may-18)-stable) date Вс 24 янв 2016 11:36:20*
%MOIN*%
G04 Gerber Fmt 3.4, Leading zero omitted, Abs format*
%FSLAX34Y34*%
G01*
G70*
G90*
G04 APERTURE LIST*
%ADD10C,0.00590551*%
%ADD11C,0.00787402*%
%ADD12C,0.00984252*%
%ADD13C,0.005*%
%ADD14C,0.006*%
%ADD15C,0.015*%
%ADD16C,0.0047*%
%ADD17C,0.008*%
%ADD18C,0.0039*%
%ADD19C,0.0026*%
%ADD20C,0.004*%
%ADD21C,0.002*%
%ADD22C,0.012*%
%ADD23C,0.01*%
%ADD24C,0.0051*%
%ADD25C,0.0043*%
%ADD26C,0.003*%
%ADD27C,0.00393701*%
G04 APERTURE END LIST*
G54D10*
G54D11*
X127800Y-44250D02*
X127850Y-44250D01*
X119200Y-44250D02*
X127800Y-44250D01*
X119200Y-36050D02*
X127850Y-36050D01*
X119200Y-52550D02*
X119200Y-25000D01*
X119050Y-52550D02*
X131350Y-52550D01*
X123171Y-48758D02*
G75*
G03X123171Y-48758I-98J0D01*
G74*
G01*
X123171Y-40608D02*
G75*
G03X123171Y-40608I-98J0D01*
G74*
G01*
X113200Y-52550D02*
X113200Y-62800D01*
X95000Y-52550D02*
X119050Y-52550D01*
X95000Y-38550D02*
X119050Y-38550D01*
G54D12*
X104651Y-56884D02*
X104689Y-56903D01*
X104764Y-56903D01*
X104801Y-56884D01*
X104820Y-56847D01*
X104820Y-56828D01*
X104801Y-56790D01*
X104764Y-56772D01*
X104708Y-56772D01*
X104670Y-56753D01*
X104651Y-56715D01*
X104651Y-56697D01*
X104670Y-56659D01*
X104708Y-56640D01*
X104764Y-56640D01*
X104801Y-56659D01*
X104933Y-56640D02*
X105083Y-56640D01*
X104989Y-56509D02*
X104989Y-56847D01*
X105008Y-56884D01*
X105045Y-56903D01*
X105083Y-56903D01*
X105214Y-56903D02*
X105214Y-56640D01*
X105214Y-56678D02*
X105233Y-56659D01*
X105270Y-56640D01*
X105326Y-56640D01*
X105364Y-56659D01*
X105383Y-56697D01*
X105383Y-56903D01*
X105383Y-56697D02*
X105401Y-56659D01*
X105439Y-56640D01*
X105495Y-56640D01*
X105533Y-56659D01*
X105551Y-56697D01*
X105551Y-56903D01*
X105701Y-56509D02*
X105945Y-56509D01*
X105814Y-56659D01*
X105870Y-56659D01*
X105908Y-56678D01*
X105926Y-56697D01*
X105945Y-56734D01*
X105945Y-56828D01*
X105926Y-56865D01*
X105908Y-56884D01*
X105870Y-56903D01*
X105758Y-56903D01*
X105720Y-56884D01*
X105701Y-56865D01*
X106095Y-56547D02*
X106114Y-56528D01*
X106151Y-56509D01*
X106245Y-56509D01*
X106282Y-56528D01*
X106301Y-56547D01*
X106320Y-56584D01*
X106320Y-56622D01*
X106301Y-56678D01*
X106076Y-56903D01*
X106320Y-56903D01*
X104258Y-57290D02*
X104408Y-57290D01*
X104314Y-57553D02*
X104314Y-57215D01*
X104333Y-57178D01*
X104370Y-57159D01*
X104408Y-57159D01*
X104745Y-57553D02*
X104520Y-57553D01*
X104633Y-57553D02*
X104633Y-57159D01*
X104595Y-57215D01*
X104558Y-57253D01*
X104520Y-57271D01*
X104989Y-57159D02*
X105026Y-57159D01*
X105064Y-57178D01*
X105083Y-57196D01*
X105101Y-57234D01*
X105120Y-57309D01*
X105120Y-57403D01*
X105101Y-57478D01*
X105083Y-57515D01*
X105064Y-57534D01*
X105026Y-57553D01*
X104989Y-57553D01*
X104951Y-57534D01*
X104933Y-57515D01*
X104914Y-57478D01*
X104895Y-57403D01*
X104895Y-57309D01*
X104914Y-57234D01*
X104933Y-57196D01*
X104951Y-57178D01*
X104989Y-57159D01*
X105251Y-57159D02*
X105495Y-57159D01*
X105364Y-57309D01*
X105420Y-57309D01*
X105458Y-57328D01*
X105476Y-57346D01*
X105495Y-57384D01*
X105495Y-57478D01*
X105476Y-57515D01*
X105458Y-57534D01*
X105420Y-57553D01*
X105308Y-57553D01*
X105270Y-57534D01*
X105251Y-57515D01*
X105664Y-57553D02*
X105664Y-57290D01*
X105664Y-57365D02*
X105683Y-57328D01*
X105701Y-57309D01*
X105739Y-57290D01*
X105776Y-57290D01*
X106058Y-57534D02*
X106020Y-57553D01*
X105945Y-57553D01*
X105908Y-57534D01*
X105889Y-57496D01*
X105889Y-57346D01*
X105908Y-57309D01*
X105945Y-57290D01*
X106020Y-57290D01*
X106058Y-57309D01*
X106076Y-57346D01*
X106076Y-57384D01*
X105889Y-57421D01*
X106189Y-57290D02*
X106339Y-57290D01*
X106245Y-57159D02*
X106245Y-57496D01*
X106264Y-57534D01*
X106301Y-57553D01*
X106339Y-57553D01*
X106639Y-57159D02*
X106564Y-57159D01*
X106526Y-57178D01*
X106507Y-57196D01*
X106470Y-57253D01*
X106451Y-57328D01*
X106451Y-57478D01*
X106470Y-57515D01*
X106489Y-57534D01*
X106526Y-57553D01*
X106601Y-57553D01*
X106639Y-57534D01*
X106657Y-57515D01*
X106676Y-57478D01*
X106676Y-57384D01*
X106657Y-57346D01*
X106639Y-57328D01*
X106601Y-57309D01*
X106526Y-57309D01*
X106489Y-57328D01*
X106470Y-57346D01*
X106451Y-57384D01*
X122951Y-56884D02*
X122989Y-56903D01*
X123064Y-56903D01*
X123101Y-56884D01*
X123120Y-56847D01*
X123120Y-56828D01*
X123101Y-56790D01*
X123064Y-56772D01*
X123008Y-56772D01*
X122970Y-56753D01*
X122951Y-56715D01*
X122951Y-56697D01*
X122970Y-56659D01*
X123008Y-56640D01*
X123064Y-56640D01*
X123101Y-56659D01*
X123233Y-56640D02*
X123383Y-56640D01*
X123289Y-56509D02*
X123289Y-56847D01*
X123308Y-56884D01*
X123345Y-56903D01*
X123383Y-56903D01*
X123514Y-56903D02*
X123514Y-56640D01*
X123514Y-56678D02*
X123533Y-56659D01*
X123570Y-56640D01*
X123626Y-56640D01*
X123664Y-56659D01*
X123683Y-56697D01*
X123683Y-56903D01*
X123683Y-56697D02*
X123701Y-56659D01*
X123739Y-56640D01*
X123795Y-56640D01*
X123833Y-56659D01*
X123851Y-56697D01*
X123851Y-56903D01*
X124001Y-56509D02*
X124245Y-56509D01*
X124114Y-56659D01*
X124170Y-56659D01*
X124208Y-56678D01*
X124226Y-56697D01*
X124245Y-56734D01*
X124245Y-56828D01*
X124226Y-56865D01*
X124208Y-56884D01*
X124170Y-56903D01*
X124058Y-56903D01*
X124020Y-56884D01*
X124001Y-56865D01*
X124395Y-56547D02*
X124414Y-56528D01*
X124451Y-56509D01*
X124545Y-56509D01*
X124582Y-56528D01*
X124601Y-56547D01*
X124620Y-56584D01*
X124620Y-56622D01*
X124601Y-56678D01*
X124376Y-56903D01*
X124620Y-56903D01*
X122558Y-57290D02*
X122708Y-57290D01*
X122614Y-57553D02*
X122614Y-57215D01*
X122633Y-57178D01*
X122670Y-57159D01*
X122708Y-57159D01*
X123045Y-57553D02*
X122820Y-57553D01*
X122933Y-57553D02*
X122933Y-57159D01*
X122895Y-57215D01*
X122858Y-57253D01*
X122820Y-57271D01*
X123289Y-57159D02*
X123326Y-57159D01*
X123364Y-57178D01*
X123383Y-57196D01*
X123401Y-57234D01*
X123420Y-57309D01*
X123420Y-57403D01*
X123401Y-57478D01*
X123383Y-57515D01*
X123364Y-57534D01*
X123326Y-57553D01*
X123289Y-57553D01*
X123251Y-57534D01*
X123233Y-57515D01*
X123214Y-57478D01*
X123195Y-57403D01*
X123195Y-57309D01*
X123214Y-57234D01*
X123233Y-57196D01*
X123251Y-57178D01*
X123289Y-57159D01*
X123551Y-57159D02*
X123795Y-57159D01*
X123664Y-57309D01*
X123720Y-57309D01*
X123758Y-57328D01*
X123776Y-57346D01*
X123795Y-57384D01*
X123795Y-57478D01*
X123776Y-57515D01*
X123758Y-57534D01*
X123720Y-57553D01*
X123608Y-57553D01*
X123570Y-57534D01*
X123551Y-57515D01*
X123964Y-57553D02*
X123964Y-57290D01*
X123964Y-57365D02*
X123983Y-57328D01*
X124001Y-57309D01*
X124039Y-57290D01*
X124076Y-57290D01*
X124358Y-57534D02*
X124320Y-57553D01*
X124245Y-57553D01*
X124208Y-57534D01*
X124189Y-57496D01*
X124189Y-57346D01*
X124208Y-57309D01*
X124245Y-57290D01*
X124320Y-57290D01*
X124358Y-57309D01*
X124376Y-57346D01*
X124376Y-57384D01*
X124189Y-57421D01*
X124489Y-57290D02*
X124639Y-57290D01*
X124545Y-57159D02*
X124545Y-57496D01*
X124564Y-57534D01*
X124601Y-57553D01*
X124639Y-57553D01*
X124939Y-57159D02*
X124864Y-57159D01*
X124826Y-57178D01*
X124807Y-57196D01*
X124770Y-57253D01*
X124751Y-57328D01*
X124751Y-57478D01*
X124770Y-57515D01*
X124789Y-57534D01*
X124826Y-57553D01*
X124901Y-57553D01*
X124939Y-57534D01*
X124957Y-57515D01*
X124976Y-57478D01*
X124976Y-57384D01*
X124957Y-57346D01*
X124939Y-57328D01*
X124901Y-57309D01*
X124826Y-57309D01*
X124789Y-57328D01*
X124770Y-57346D01*
X124751Y-57384D01*
G54D11*
X123171Y-32358D02*
G75*
G03X123171Y-32358I-98J0D01*
G74*
G01*
G54D13*
X124781Y-52003D02*
X124781Y-51103D01*
X124781Y-51103D02*
X124131Y-51103D01*
X123431Y-52003D02*
X122781Y-52003D01*
X122781Y-52003D02*
X122781Y-51103D01*
X122781Y-51103D02*
X123431Y-51103D01*
X124131Y-52003D02*
X124781Y-52003D01*
G54D10*
X124765Y-48994D02*
X122797Y-48994D01*
X122797Y-48994D02*
X122797Y-50963D01*
X122797Y-50963D02*
X124765Y-50963D01*
X124765Y-50963D02*
X124765Y-48994D01*
G54D14*
X124856Y-45132D02*
X125856Y-45132D01*
X125856Y-45132D02*
X125856Y-48132D01*
X125856Y-48132D02*
X124856Y-48132D01*
X124856Y-48132D02*
X124856Y-45132D01*
X125856Y-46132D02*
X124856Y-46132D01*
X125182Y-52014D02*
X125182Y-51014D01*
X125182Y-51014D02*
X127182Y-51014D01*
X127182Y-51014D02*
X127182Y-52014D01*
X127182Y-52014D02*
X125182Y-52014D01*
G54D15*
X121413Y-51219D02*
G75*
G03X121413Y-51219I-900J0D01*
G74*
G01*
X121413Y-45412D02*
G75*
G03X121413Y-45412I-900J0D01*
G74*
G01*
G54D10*
X131644Y-49159D02*
X128986Y-49159D01*
X128986Y-49159D02*
X128986Y-47190D01*
X128986Y-47190D02*
X131644Y-47190D01*
X128199Y-52112D02*
X128199Y-44237D01*
X128199Y-44237D02*
X131644Y-44237D01*
X131644Y-44237D02*
X131644Y-52112D01*
X131644Y-52112D02*
X128199Y-52112D01*
X131644Y-41009D02*
X128986Y-41009D01*
X128986Y-41009D02*
X128986Y-39040D01*
X128986Y-39040D02*
X131644Y-39040D01*
X128199Y-43962D02*
X128199Y-36087D01*
X128199Y-36087D02*
X131644Y-36087D01*
X131644Y-36087D02*
X131644Y-43962D01*
X131644Y-43962D02*
X128199Y-43962D01*
G54D15*
X121413Y-37262D02*
G75*
G03X121413Y-37262I-900J0D01*
G74*
G01*
X121413Y-43069D02*
G75*
G03X121413Y-43069I-900J0D01*
G74*
G01*
G54D14*
X125182Y-43864D02*
X125182Y-42864D01*
X125182Y-42864D02*
X127182Y-42864D01*
X127182Y-42864D02*
X127182Y-43864D01*
X127182Y-43864D02*
X125182Y-43864D01*
X124856Y-36982D02*
X125856Y-36982D01*
X125856Y-36982D02*
X125856Y-39982D01*
X125856Y-39982D02*
X124856Y-39982D01*
X124856Y-39982D02*
X124856Y-36982D01*
X125856Y-37982D02*
X124856Y-37982D01*
G54D10*
X124765Y-40844D02*
X122797Y-40844D01*
X122797Y-40844D02*
X122797Y-42813D01*
X122797Y-42813D02*
X124765Y-42813D01*
X124765Y-42813D02*
X124765Y-40844D01*
G54D13*
X124781Y-43853D02*
X124781Y-42953D01*
X124781Y-42953D02*
X124131Y-42953D01*
X123431Y-43853D02*
X122781Y-43853D01*
X122781Y-43853D02*
X122781Y-42953D01*
X122781Y-42953D02*
X123431Y-42953D01*
X124131Y-43853D02*
X124781Y-43853D01*
G54D16*
X105000Y-35950D02*
X106200Y-35950D01*
X106200Y-35950D02*
X106200Y-36250D01*
X106200Y-36250D02*
X105000Y-36250D01*
X105000Y-36250D02*
X105000Y-35950D01*
X101250Y-36550D02*
X101250Y-35350D01*
X101250Y-35350D02*
X101550Y-35350D01*
X101550Y-35350D02*
X101550Y-36550D01*
X101550Y-36550D02*
X101250Y-36550D01*
X106500Y-35950D02*
X107700Y-35950D01*
X107700Y-35950D02*
X107700Y-36250D01*
X107700Y-36250D02*
X106500Y-36250D01*
X106500Y-36250D02*
X106500Y-35950D01*
X102600Y-33500D02*
X102600Y-32300D01*
X102600Y-32300D02*
X102900Y-32300D01*
X102900Y-32300D02*
X102900Y-33500D01*
X102900Y-33500D02*
X102600Y-33500D01*
X102600Y-35000D02*
X102600Y-33800D01*
X102600Y-33800D02*
X102900Y-33800D01*
X102900Y-33800D02*
X102900Y-35000D01*
X102900Y-35000D02*
X102600Y-35000D01*
X102925Y-28400D02*
X102925Y-27200D01*
X102925Y-27200D02*
X103225Y-27200D01*
X103225Y-27200D02*
X103225Y-28400D01*
X103225Y-28400D02*
X102925Y-28400D01*
G54D17*
X108545Y-32190D02*
X108845Y-32190D01*
X108845Y-32190D02*
X108845Y-32790D01*
X108845Y-32790D02*
X108545Y-32790D01*
X112945Y-31590D02*
X112945Y-33390D01*
X112945Y-33390D02*
X108545Y-33390D01*
X108545Y-33390D02*
X108545Y-31590D01*
X108545Y-31590D02*
X112945Y-31590D01*
G54D18*
X102162Y-35373D02*
G75*
G03X102162Y-35373I-50J0D01*
G74*
G01*
X102112Y-35823D02*
X102112Y-35423D01*
X102112Y-35423D02*
X102712Y-35423D01*
X102712Y-35423D02*
X102712Y-35823D01*
X102712Y-36223D02*
X102712Y-36623D01*
X102712Y-36623D02*
X102112Y-36623D01*
X102112Y-36623D02*
X102112Y-36223D01*
X103579Y-35373D02*
G75*
G03X103579Y-35373I-50J0D01*
G74*
G01*
X103529Y-35823D02*
X103529Y-35423D01*
X103529Y-35423D02*
X104129Y-35423D01*
X104129Y-35423D02*
X104129Y-35823D01*
X104129Y-36223D02*
X104129Y-36623D01*
X104129Y-36623D02*
X103529Y-36623D01*
X103529Y-36623D02*
X103529Y-36223D01*
X102871Y-35373D02*
G75*
G03X102871Y-35373I-50J0D01*
G74*
G01*
X102821Y-35823D02*
X102821Y-35423D01*
X102821Y-35423D02*
X103421Y-35423D01*
X103421Y-35423D02*
X103421Y-35823D01*
X103421Y-36223D02*
X103421Y-36623D01*
X103421Y-36623D02*
X102821Y-36623D01*
X102821Y-36623D02*
X102821Y-36223D01*
X110850Y-30400D02*
G75*
G03X110850Y-30400I-50J0D01*
G74*
G01*
X111250Y-30400D02*
X110850Y-30400D01*
X110850Y-30400D02*
X110850Y-29800D01*
X110850Y-29800D02*
X111250Y-29800D01*
X111650Y-29800D02*
X112050Y-29800D01*
X112050Y-29800D02*
X112050Y-30400D01*
X112050Y-30400D02*
X111650Y-30400D01*
X102550Y-28950D02*
G75*
G03X102550Y-28950I-50J0D01*
G74*
G01*
X102500Y-29400D02*
X102500Y-29000D01*
X102500Y-29000D02*
X103100Y-29000D01*
X103100Y-29000D02*
X103100Y-29400D01*
X103100Y-29800D02*
X103100Y-30200D01*
X103100Y-30200D02*
X102500Y-30200D01*
X102500Y-30200D02*
X102500Y-29800D01*
X102350Y-30250D02*
G75*
G03X102350Y-30250I-50J0D01*
G74*
G01*
X102300Y-29800D02*
X102300Y-30200D01*
X102300Y-30200D02*
X101700Y-30200D01*
X101700Y-30200D02*
X101700Y-29800D01*
X101700Y-29400D02*
X101700Y-29000D01*
X101700Y-29000D02*
X102300Y-29000D01*
X102300Y-29000D02*
X102300Y-29400D01*
G54D13*
X101025Y-27250D02*
X101725Y-27250D01*
X101725Y-27250D02*
X101725Y-28450D01*
X101725Y-28450D02*
X101025Y-28450D01*
X101025Y-28450D02*
X101025Y-27250D01*
G54D16*
X103950Y-34300D02*
X105150Y-34300D01*
X105150Y-34300D02*
X105150Y-34600D01*
X105150Y-34600D02*
X103950Y-34600D01*
X103950Y-34600D02*
X103950Y-34300D01*
G54D13*
X111800Y-37600D02*
X111500Y-37400D01*
X112500Y-37600D02*
X111475Y-37600D01*
X111475Y-37600D02*
X111475Y-37000D01*
X111475Y-37000D02*
X112500Y-37000D01*
X112500Y-37000D02*
X112500Y-37600D01*
X105275Y-28450D02*
X104575Y-28450D01*
X104575Y-28450D02*
X104575Y-27250D01*
X104575Y-27250D02*
X105275Y-27250D01*
X105275Y-27250D02*
X105275Y-28450D01*
G54D18*
X110350Y-29800D02*
G75*
G03X110350Y-29800I-50J0D01*
G74*
G01*
X109850Y-29800D02*
X110250Y-29800D01*
X110250Y-29800D02*
X110250Y-30400D01*
X110250Y-30400D02*
X109850Y-30400D01*
X109450Y-30400D02*
X109050Y-30400D01*
X109050Y-30400D02*
X109050Y-29800D01*
X109050Y-29800D02*
X109450Y-29800D01*
X101550Y-30250D02*
G75*
G03X101550Y-30250I-50J0D01*
G74*
G01*
X101500Y-29800D02*
X101500Y-30200D01*
X101500Y-30200D02*
X100900Y-30200D01*
X100900Y-30200D02*
X100900Y-29800D01*
X100900Y-29400D02*
X100900Y-29000D01*
X100900Y-29000D02*
X101500Y-29000D01*
X101500Y-29000D02*
X101500Y-29400D01*
X112550Y-35500D02*
G75*
G03X112550Y-35500I-50J0D01*
G74*
G01*
X112500Y-35050D02*
X112500Y-35450D01*
X112500Y-35450D02*
X111900Y-35450D01*
X111900Y-35450D02*
X111900Y-35050D01*
X111900Y-34650D02*
X111900Y-34250D01*
X111900Y-34250D02*
X112500Y-34250D01*
X112500Y-34250D02*
X112500Y-34650D01*
X103975Y-29275D02*
G75*
G03X103975Y-29275I-50J0D01*
G74*
G01*
X104375Y-29275D02*
X103975Y-29275D01*
X103975Y-29275D02*
X103975Y-28675D01*
X103975Y-28675D02*
X104375Y-28675D01*
X104775Y-28675D02*
X105175Y-28675D01*
X105175Y-28675D02*
X105175Y-29275D01*
X105175Y-29275D02*
X104775Y-29275D01*
X107500Y-25100D02*
G75*
G03X107500Y-25100I-50J0D01*
G74*
G01*
X107000Y-25100D02*
X107400Y-25100D01*
X107400Y-25100D02*
X107400Y-25700D01*
X107400Y-25700D02*
X107000Y-25700D01*
X106600Y-25700D02*
X106200Y-25700D01*
X106200Y-25700D02*
X106200Y-25100D01*
X106200Y-25100D02*
X106600Y-25100D01*
X105275Y-29450D02*
G75*
G03X105275Y-29450I-50J0D01*
G74*
G01*
X104775Y-29450D02*
X105175Y-29450D01*
X105175Y-29450D02*
X105175Y-30050D01*
X105175Y-30050D02*
X104775Y-30050D01*
X104375Y-30050D02*
X103975Y-30050D01*
X103975Y-30050D02*
X103975Y-29450D01*
X103975Y-29450D02*
X104375Y-29450D01*
X101350Y-33750D02*
G75*
G03X101350Y-33750I-50J0D01*
G74*
G01*
X101300Y-34200D02*
X101300Y-33800D01*
X101300Y-33800D02*
X101900Y-33800D01*
X101900Y-33800D02*
X101900Y-34200D01*
X101900Y-34600D02*
X101900Y-35000D01*
X101900Y-35000D02*
X101300Y-35000D01*
X101300Y-35000D02*
X101300Y-34600D01*
X105250Y-33000D02*
G75*
G03X105250Y-33000I-50J0D01*
G74*
G01*
X104750Y-33000D02*
X105150Y-33000D01*
X105150Y-33000D02*
X105150Y-33600D01*
X105150Y-33600D02*
X104750Y-33600D01*
X104350Y-33600D02*
X103950Y-33600D01*
X103950Y-33600D02*
X103950Y-33000D01*
X103950Y-33000D02*
X104350Y-33000D01*
X100100Y-35300D02*
G75*
G03X100100Y-35300I-50J0D01*
G74*
G01*
X100050Y-35750D02*
X100050Y-35350D01*
X100050Y-35350D02*
X100650Y-35350D01*
X100650Y-35350D02*
X100650Y-35750D01*
X100650Y-36150D02*
X100650Y-36550D01*
X100650Y-36550D02*
X100050Y-36550D01*
X100050Y-36550D02*
X100050Y-36150D01*
X101350Y-32250D02*
G75*
G03X101350Y-32250I-50J0D01*
G74*
G01*
X101300Y-32700D02*
X101300Y-32300D01*
X101300Y-32300D02*
X101900Y-32300D01*
X101900Y-32300D02*
X101900Y-32700D01*
X101900Y-33100D02*
X101900Y-33500D01*
X101900Y-33500D02*
X101300Y-33500D01*
X101300Y-33500D02*
X101300Y-33100D01*
X104300Y-35375D02*
G75*
G03X104300Y-35375I-50J0D01*
G74*
G01*
X104250Y-35825D02*
X104250Y-35425D01*
X104250Y-35425D02*
X104850Y-35425D01*
X104850Y-35425D02*
X104850Y-35825D01*
X104850Y-36225D02*
X104850Y-36625D01*
X104850Y-36625D02*
X104250Y-36625D01*
X104250Y-36625D02*
X104250Y-36225D01*
X100500Y-27200D02*
G75*
G03X100500Y-27200I-50J0D01*
G74*
G01*
X100000Y-27200D02*
X100400Y-27200D01*
X100400Y-27200D02*
X100400Y-27800D01*
X100400Y-27800D02*
X100000Y-27800D01*
X99600Y-27800D02*
X99200Y-27800D01*
X99200Y-27800D02*
X99200Y-27200D01*
X99200Y-27200D02*
X99600Y-27200D01*
G54D19*
X108204Y-25282D02*
X108204Y-25154D01*
X108204Y-25154D02*
X108007Y-25154D01*
X108007Y-25282D02*
X108007Y-25154D01*
X108204Y-25282D02*
X108007Y-25282D01*
X108204Y-25527D02*
X108204Y-25468D01*
X108204Y-25468D02*
X108105Y-25468D01*
X108105Y-25527D02*
X108105Y-25468D01*
X108204Y-25527D02*
X108105Y-25527D01*
X108204Y-25332D02*
X108204Y-25273D01*
X108204Y-25273D02*
X108105Y-25273D01*
X108105Y-25332D02*
X108105Y-25273D01*
X108204Y-25332D02*
X108105Y-25332D01*
X108204Y-25478D02*
X108204Y-25322D01*
X108204Y-25322D02*
X108135Y-25322D01*
X108135Y-25478D02*
X108135Y-25322D01*
X108204Y-25478D02*
X108135Y-25478D01*
X108793Y-25282D02*
X108793Y-25154D01*
X108793Y-25154D02*
X108596Y-25154D01*
X108596Y-25282D02*
X108596Y-25154D01*
X108793Y-25282D02*
X108596Y-25282D01*
X108793Y-25646D02*
X108793Y-25518D01*
X108793Y-25518D02*
X108596Y-25518D01*
X108596Y-25646D02*
X108596Y-25518D01*
X108793Y-25646D02*
X108596Y-25646D01*
X108695Y-25332D02*
X108695Y-25273D01*
X108695Y-25273D02*
X108596Y-25273D01*
X108596Y-25332D02*
X108596Y-25273D01*
X108695Y-25332D02*
X108596Y-25332D01*
X108695Y-25527D02*
X108695Y-25468D01*
X108695Y-25468D02*
X108596Y-25468D01*
X108596Y-25527D02*
X108596Y-25468D01*
X108695Y-25527D02*
X108596Y-25527D01*
X108665Y-25478D02*
X108665Y-25322D01*
X108665Y-25322D02*
X108596Y-25322D01*
X108596Y-25478D02*
X108596Y-25322D01*
X108665Y-25478D02*
X108596Y-25478D01*
X108400Y-25439D02*
X108400Y-25361D01*
X108400Y-25361D02*
X108322Y-25361D01*
X108322Y-25439D02*
X108322Y-25361D01*
X108400Y-25439D02*
X108322Y-25439D01*
X108204Y-25636D02*
X108204Y-25518D01*
X108204Y-25518D02*
X108086Y-25518D01*
X108086Y-25636D02*
X108086Y-25518D01*
X108204Y-25636D02*
X108086Y-25636D01*
X108036Y-25646D02*
X108036Y-25557D01*
X108036Y-25557D02*
X108007Y-25557D01*
X108007Y-25646D02*
X108007Y-25557D01*
X108036Y-25646D02*
X108007Y-25646D01*
G54D20*
X108194Y-25174D02*
X108606Y-25174D01*
X108596Y-25626D02*
X108036Y-25626D01*
G54D21*
X108094Y-25577D02*
G75*
G03X108094Y-25577I-28J0D01*
G74*
G01*
G54D20*
X108007Y-25537D02*
G75*
G03X108007Y-25263I0J137D01*
G74*
G01*
X108793Y-25263D02*
G75*
G03X108793Y-25537I0J-137D01*
G74*
G01*
G54D15*
X118700Y-26370D02*
G75*
G03X118700Y-26370I-900J0D01*
G74*
G01*
X118700Y-37000D02*
G75*
G03X118700Y-37000I-900J0D01*
G74*
G01*
G54D18*
X108250Y-34650D02*
G75*
G03X108250Y-34650I-50J0D01*
G74*
G01*
X107750Y-34650D02*
X108150Y-34650D01*
X108150Y-34650D02*
X108150Y-35250D01*
X108150Y-35250D02*
X107750Y-35250D01*
X107350Y-35250D02*
X106950Y-35250D01*
X106950Y-35250D02*
X106950Y-34650D01*
X106950Y-34650D02*
X107350Y-34650D01*
X106700Y-34650D02*
G75*
G03X106700Y-34650I-50J0D01*
G74*
G01*
X106200Y-34650D02*
X106600Y-34650D01*
X106600Y-34650D02*
X106600Y-35250D01*
X106600Y-35250D02*
X106200Y-35250D01*
X105800Y-35250D02*
X105400Y-35250D01*
X105400Y-35250D02*
X105400Y-34650D01*
X105400Y-34650D02*
X105800Y-34650D01*
G54D15*
X97200Y-37000D02*
G75*
G03X97200Y-37000I-900J0D01*
G74*
G01*
X97200Y-26370D02*
G75*
G03X97200Y-26370I-900J0D01*
G74*
G01*
G54D16*
X101550Y-45150D02*
X100350Y-45150D01*
X100350Y-45150D02*
X100350Y-44850D01*
X100350Y-44850D02*
X101550Y-44850D01*
X101550Y-44850D02*
X101550Y-45150D01*
X110950Y-42700D02*
X109750Y-42700D01*
X109750Y-42700D02*
X109750Y-42400D01*
X109750Y-42400D02*
X110950Y-42400D01*
X110950Y-42400D02*
X110950Y-42700D01*
X104975Y-42700D02*
X103775Y-42700D01*
X103775Y-42700D02*
X103775Y-42400D01*
X103775Y-42400D02*
X104975Y-42400D01*
X104975Y-42400D02*
X104975Y-42700D01*
X101550Y-42700D02*
X100350Y-42700D01*
X100350Y-42700D02*
X100350Y-42400D01*
X100350Y-42400D02*
X101550Y-42400D01*
X101550Y-42400D02*
X101550Y-42700D01*
X105150Y-49500D02*
X106350Y-49500D01*
X106350Y-49500D02*
X106350Y-49800D01*
X106350Y-49800D02*
X105150Y-49800D01*
X105150Y-49800D02*
X105150Y-49500D01*
X103275Y-42700D02*
X102075Y-42700D01*
X102075Y-42700D02*
X102075Y-42400D01*
X102075Y-42400D02*
X103275Y-42400D01*
X103275Y-42400D02*
X103275Y-42700D01*
G54D13*
X101900Y-51650D02*
X101600Y-51450D01*
X102600Y-51650D02*
X101575Y-51650D01*
X101575Y-51650D02*
X101575Y-51050D01*
X101575Y-51050D02*
X102600Y-51050D01*
X102600Y-51050D02*
X102600Y-51650D01*
X106675Y-47175D02*
X106675Y-47875D01*
X106675Y-47875D02*
X105475Y-47875D01*
X105475Y-47875D02*
X105475Y-47175D01*
X105475Y-47175D02*
X106675Y-47175D01*
X103600Y-49400D02*
X102900Y-49400D01*
X102900Y-49400D02*
X102900Y-48200D01*
X102900Y-48200D02*
X103600Y-48200D01*
X103600Y-48200D02*
X103600Y-49400D01*
G54D18*
X105300Y-47450D02*
G75*
G03X105300Y-47450I-50J0D01*
G74*
G01*
X104800Y-47450D02*
X105200Y-47450D01*
X105200Y-47450D02*
X105200Y-48050D01*
X105200Y-48050D02*
X104800Y-48050D01*
X104400Y-48050D02*
X104000Y-48050D01*
X104000Y-48050D02*
X104000Y-47450D01*
X104000Y-47450D02*
X104400Y-47450D01*
X103775Y-43950D02*
G75*
G03X103775Y-43950I-50J0D01*
G74*
G01*
X104175Y-43950D02*
X103775Y-43950D01*
X103775Y-43950D02*
X103775Y-43350D01*
X103775Y-43350D02*
X104175Y-43350D01*
X104575Y-43350D02*
X104975Y-43350D01*
X104975Y-43350D02*
X104975Y-43950D01*
X104975Y-43950D02*
X104575Y-43950D01*
X112200Y-47300D02*
G75*
G03X112200Y-47300I-50J0D01*
G74*
G01*
X111700Y-47300D02*
X112100Y-47300D01*
X112100Y-47300D02*
X112100Y-47900D01*
X112100Y-47900D02*
X111700Y-47900D01*
X111300Y-47900D02*
X110900Y-47900D01*
X110900Y-47900D02*
X110900Y-47300D01*
X110900Y-47300D02*
X111300Y-47300D01*
X104950Y-49500D02*
G75*
G03X104950Y-49500I-50J0D01*
G74*
G01*
X104900Y-49050D02*
X104900Y-49450D01*
X104900Y-49450D02*
X104300Y-49450D01*
X104300Y-49450D02*
X104300Y-49050D01*
X104300Y-48650D02*
X104300Y-48250D01*
X104300Y-48250D02*
X104900Y-48250D01*
X104900Y-48250D02*
X104900Y-48650D01*
X102350Y-49400D02*
G75*
G03X102350Y-49400I-50J0D01*
G74*
G01*
X102300Y-48950D02*
X102300Y-49350D01*
X102300Y-49350D02*
X101700Y-49350D01*
X101700Y-49350D02*
X101700Y-48950D01*
X101700Y-48550D02*
X101700Y-48150D01*
X101700Y-48150D02*
X102300Y-48150D01*
X102300Y-48150D02*
X102300Y-48550D01*
X104950Y-51400D02*
G75*
G03X104950Y-51400I-50J0D01*
G74*
G01*
X104900Y-50950D02*
X104900Y-51350D01*
X104900Y-51350D02*
X104300Y-51350D01*
X104300Y-51350D02*
X104300Y-50950D01*
X104300Y-50550D02*
X104300Y-50150D01*
X104300Y-50150D02*
X104900Y-50150D01*
X104900Y-50150D02*
X104900Y-50550D01*
X100350Y-43950D02*
G75*
G03X100350Y-43950I-50J0D01*
G74*
G01*
X100750Y-43950D02*
X100350Y-43950D01*
X100350Y-43950D02*
X100350Y-43350D01*
X100350Y-43350D02*
X100750Y-43350D01*
X101150Y-43350D02*
X101550Y-43350D01*
X101550Y-43350D02*
X101550Y-43950D01*
X101550Y-43950D02*
X101150Y-43950D01*
X105300Y-46050D02*
G75*
G03X105300Y-46050I-50J0D01*
G74*
G01*
X104800Y-46050D02*
X105200Y-46050D01*
X105200Y-46050D02*
X105200Y-46650D01*
X105200Y-46650D02*
X104800Y-46650D01*
X104400Y-46650D02*
X104000Y-46650D01*
X104000Y-46650D02*
X104000Y-46050D01*
X104000Y-46050D02*
X104400Y-46050D01*
X105300Y-46750D02*
G75*
G03X105300Y-46750I-50J0D01*
G74*
G01*
X104800Y-46750D02*
X105200Y-46750D01*
X105200Y-46750D02*
X105200Y-47350D01*
X105200Y-47350D02*
X104800Y-47350D01*
X104400Y-47350D02*
X104000Y-47350D01*
X104000Y-47350D02*
X104000Y-46750D01*
X104000Y-46750D02*
X104400Y-46750D01*
X102075Y-43950D02*
G75*
G03X102075Y-43950I-50J0D01*
G74*
G01*
X102475Y-43950D02*
X102075Y-43950D01*
X102075Y-43950D02*
X102075Y-43350D01*
X102075Y-43350D02*
X102475Y-43350D01*
X102875Y-43350D02*
X103275Y-43350D01*
X103275Y-43350D02*
X103275Y-43950D01*
X103275Y-43950D02*
X102875Y-43950D01*
X105200Y-48900D02*
G75*
G03X105200Y-48900I-50J0D01*
G74*
G01*
X105600Y-48900D02*
X105200Y-48900D01*
X105200Y-48900D02*
X105200Y-48300D01*
X105200Y-48300D02*
X105600Y-48300D01*
X106000Y-48300D02*
X106400Y-48300D01*
X106400Y-48300D02*
X106400Y-48900D01*
X106400Y-48900D02*
X106000Y-48900D01*
X100350Y-46450D02*
G75*
G03X100350Y-46450I-50J0D01*
G74*
G01*
X100750Y-46450D02*
X100350Y-46450D01*
X100350Y-46450D02*
X100350Y-45850D01*
X100350Y-45850D02*
X100750Y-45850D01*
X101150Y-45850D02*
X101550Y-45850D01*
X101550Y-45850D02*
X101550Y-46450D01*
X101550Y-46450D02*
X101150Y-46450D01*
G54D22*
X109350Y-50250D02*
X113350Y-50250D01*
X113350Y-50250D02*
X113350Y-52250D01*
X113350Y-52250D02*
X109350Y-52250D01*
X109350Y-52250D02*
X109350Y-50250D01*
G54D19*
X104546Y-52068D02*
X104546Y-52196D01*
X104546Y-52196D02*
X104743Y-52196D01*
X104743Y-52068D02*
X104743Y-52196D01*
X104546Y-52068D02*
X104743Y-52068D01*
X104546Y-51823D02*
X104546Y-51882D01*
X104546Y-51882D02*
X104645Y-51882D01*
X104645Y-51823D02*
X104645Y-51882D01*
X104546Y-51823D02*
X104645Y-51823D01*
X104546Y-52018D02*
X104546Y-52077D01*
X104546Y-52077D02*
X104645Y-52077D01*
X104645Y-52018D02*
X104645Y-52077D01*
X104546Y-52018D02*
X104645Y-52018D01*
X104546Y-51872D02*
X104546Y-52028D01*
X104546Y-52028D02*
X104615Y-52028D01*
X104615Y-51872D02*
X104615Y-52028D01*
X104546Y-51872D02*
X104615Y-51872D01*
X103957Y-52068D02*
X103957Y-52196D01*
X103957Y-52196D02*
X104154Y-52196D01*
X104154Y-52068D02*
X104154Y-52196D01*
X103957Y-52068D02*
X104154Y-52068D01*
X103957Y-51704D02*
X103957Y-51832D01*
X103957Y-51832D02*
X104154Y-51832D01*
X104154Y-51704D02*
X104154Y-51832D01*
X103957Y-51704D02*
X104154Y-51704D01*
X104055Y-52018D02*
X104055Y-52077D01*
X104055Y-52077D02*
X104154Y-52077D01*
X104154Y-52018D02*
X104154Y-52077D01*
X104055Y-52018D02*
X104154Y-52018D01*
X104055Y-51823D02*
X104055Y-51882D01*
X104055Y-51882D02*
X104154Y-51882D01*
X104154Y-51823D02*
X104154Y-51882D01*
X104055Y-51823D02*
X104154Y-51823D01*
X104085Y-51872D02*
X104085Y-52028D01*
X104085Y-52028D02*
X104154Y-52028D01*
X104154Y-51872D02*
X104154Y-52028D01*
X104085Y-51872D02*
X104154Y-51872D01*
X104350Y-51911D02*
X104350Y-51989D01*
X104350Y-51989D02*
X104428Y-51989D01*
X104428Y-51911D02*
X104428Y-51989D01*
X104350Y-51911D02*
X104428Y-51911D01*
X104546Y-51714D02*
X104546Y-51832D01*
X104546Y-51832D02*
X104664Y-51832D01*
X104664Y-51714D02*
X104664Y-51832D01*
X104546Y-51714D02*
X104664Y-51714D01*
X104714Y-51704D02*
X104714Y-51793D01*
X104714Y-51793D02*
X104743Y-51793D01*
X104743Y-51704D02*
X104743Y-51793D01*
X104714Y-51704D02*
X104743Y-51704D01*
G54D20*
X104556Y-52176D02*
X104144Y-52176D01*
X104154Y-51724D02*
X104714Y-51724D01*
G54D21*
X104712Y-51773D02*
G75*
G03X104712Y-51773I-28J0D01*
G74*
G01*
G54D20*
X104743Y-51813D02*
G75*
G03X104743Y-52087I0J-137D01*
G74*
G01*
X103957Y-52087D02*
G75*
G03X103957Y-51813I0J137D01*
G74*
G01*
G54D15*
X97000Y-51000D02*
G75*
G03X97000Y-51000I-900J0D01*
G74*
G01*
X97000Y-40370D02*
G75*
G03X97000Y-40370I-900J0D01*
G74*
G01*
X118500Y-40370D02*
G75*
G03X118500Y-40370I-900J0D01*
G74*
G01*
X118500Y-51000D02*
G75*
G03X118500Y-51000I-900J0D01*
G74*
G01*
G54D18*
X109750Y-43925D02*
G75*
G03X109750Y-43925I-50J0D01*
G74*
G01*
X110150Y-43925D02*
X109750Y-43925D01*
X109750Y-43925D02*
X109750Y-43325D01*
X109750Y-43325D02*
X110150Y-43325D01*
X110550Y-43325D02*
X110950Y-43325D01*
X110950Y-43325D02*
X110950Y-43925D01*
X110950Y-43925D02*
X110550Y-43925D01*
X101110Y-58900D02*
G75*
G03X101110Y-58900I-50J0D01*
G74*
G01*
X100610Y-58900D02*
X101010Y-58900D01*
X101010Y-58900D02*
X101010Y-59500D01*
X101010Y-59500D02*
X100610Y-59500D01*
X100210Y-59500D02*
X99810Y-59500D01*
X99810Y-59500D02*
X99810Y-58900D01*
X99810Y-58900D02*
X100210Y-58900D01*
X99531Y-55233D02*
G75*
G03X99531Y-55233I-50J0D01*
G74*
G01*
X99931Y-55233D02*
X99531Y-55233D01*
X99531Y-55233D02*
X99531Y-54633D01*
X99531Y-54633D02*
X99931Y-54633D01*
X100331Y-54633D02*
X100731Y-54633D01*
X100731Y-54633D02*
X100731Y-55233D01*
X100731Y-55233D02*
X100331Y-55233D01*
X99531Y-54327D02*
G75*
G03X99531Y-54327I-50J0D01*
G74*
G01*
X99931Y-54327D02*
X99531Y-54327D01*
X99531Y-54327D02*
X99531Y-53727D01*
X99531Y-53727D02*
X99931Y-53727D01*
X100331Y-53727D02*
X100731Y-53727D01*
X100731Y-53727D02*
X100731Y-54327D01*
X100731Y-54327D02*
X100331Y-54327D01*
X98740Y-54716D02*
G75*
G03X98740Y-54716I-50J0D01*
G74*
G01*
X98690Y-55166D02*
X98690Y-54766D01*
X98690Y-54766D02*
X99290Y-54766D01*
X99290Y-54766D02*
X99290Y-55166D01*
X99290Y-55566D02*
X99290Y-55966D01*
X99290Y-55966D02*
X98690Y-55966D01*
X98690Y-55966D02*
X98690Y-55566D01*
X99531Y-56020D02*
G75*
G03X99531Y-56020I-50J0D01*
G74*
G01*
X99931Y-56020D02*
X99531Y-56020D01*
X99531Y-56020D02*
X99531Y-55420D01*
X99531Y-55420D02*
X99931Y-55420D01*
X100331Y-55420D02*
X100731Y-55420D01*
X100731Y-55420D02*
X100731Y-56020D01*
X100731Y-56020D02*
X100331Y-56020D01*
X103631Y-54795D02*
G75*
G03X103631Y-54795I-50J0D01*
G74*
G01*
X103581Y-54345D02*
X103581Y-54745D01*
X103581Y-54745D02*
X102981Y-54745D01*
X102981Y-54745D02*
X102981Y-54345D01*
X102981Y-53945D02*
X102981Y-53545D01*
X102981Y-53545D02*
X103581Y-53545D01*
X103581Y-53545D02*
X103581Y-53945D01*
X107681Y-59721D02*
G75*
G03X107681Y-59721I-50J0D01*
G74*
G01*
X108081Y-59721D02*
X107681Y-59721D01*
X107681Y-59721D02*
X107681Y-59121D01*
X107681Y-59121D02*
X108081Y-59121D01*
X108481Y-59121D02*
X108881Y-59121D01*
X108881Y-59121D02*
X108881Y-59721D01*
X108881Y-59721D02*
X108481Y-59721D01*
X102209Y-59681D02*
G75*
G03X102209Y-59681I-50J0D01*
G74*
G01*
X102609Y-59681D02*
X102209Y-59681D01*
X102209Y-59681D02*
X102209Y-59081D01*
X102209Y-59081D02*
X102609Y-59081D01*
X103009Y-59081D02*
X103409Y-59081D01*
X103409Y-59081D02*
X103409Y-59681D01*
X103409Y-59681D02*
X103009Y-59681D01*
X108582Y-54755D02*
G75*
G03X108582Y-54755I-50J0D01*
G74*
G01*
X108532Y-55205D02*
X108532Y-54805D01*
X108532Y-54805D02*
X109132Y-54805D01*
X109132Y-54805D02*
X109132Y-55205D01*
X109132Y-55605D02*
X109132Y-56005D01*
X109132Y-56005D02*
X108532Y-56005D01*
X108532Y-56005D02*
X108532Y-55605D01*
X97209Y-54130D02*
G75*
G03X97209Y-54130I-50J0D01*
G74*
G01*
X97609Y-54130D02*
X97209Y-54130D01*
X97209Y-54130D02*
X97209Y-53530D01*
X97209Y-53530D02*
X97609Y-53530D01*
X98009Y-53530D02*
X98409Y-53530D01*
X98409Y-53530D02*
X98409Y-54130D01*
X98409Y-54130D02*
X98009Y-54130D01*
X101500Y-59450D02*
G75*
G03X101500Y-59450I-50J0D01*
G74*
G01*
X101450Y-59900D02*
X101450Y-59500D01*
X101450Y-59500D02*
X102050Y-59500D01*
X102050Y-59500D02*
X102050Y-59900D01*
X102050Y-60300D02*
X102050Y-60700D01*
X102050Y-60700D02*
X101450Y-60700D01*
X101450Y-60700D02*
X101450Y-60300D01*
G54D19*
X103636Y-55622D02*
X103636Y-55544D01*
X103636Y-55819D02*
X103636Y-55741D01*
X103636Y-56016D02*
X103636Y-55937D01*
X103636Y-56213D02*
X103636Y-56134D01*
X103636Y-56410D02*
X103636Y-56331D01*
X103636Y-56607D02*
X103636Y-56528D01*
X103636Y-56804D02*
X103636Y-56725D01*
X103636Y-57000D02*
X103636Y-56922D01*
X103636Y-57196D02*
X103636Y-57118D01*
X103636Y-57393D02*
X103636Y-57314D01*
X103636Y-57590D02*
X103636Y-57511D01*
X103636Y-57787D02*
X103636Y-57708D01*
X103636Y-57984D02*
X103636Y-57905D01*
X103636Y-58181D02*
X103636Y-58102D01*
X103636Y-58377D02*
X103636Y-58299D01*
X103636Y-58574D02*
X103636Y-58496D01*
X104010Y-58948D02*
X104088Y-58948D01*
X104207Y-58948D02*
X104285Y-58948D01*
X104403Y-58948D02*
X104482Y-58948D01*
X104600Y-58948D02*
X104679Y-58948D01*
X104797Y-58948D02*
X104876Y-58948D01*
X104994Y-58948D02*
X105073Y-58948D01*
X105191Y-58948D02*
X105270Y-58948D01*
X105388Y-58948D02*
X105466Y-58948D01*
X105584Y-58948D02*
X105662Y-58948D01*
X105780Y-58948D02*
X105859Y-58948D01*
X105977Y-58948D02*
X106056Y-58948D01*
X106174Y-58948D02*
X106253Y-58948D01*
X106371Y-58948D02*
X106450Y-58948D01*
X106568Y-58948D02*
X106647Y-58948D01*
X106765Y-58948D02*
X106843Y-58948D01*
X106962Y-58948D02*
X107040Y-58948D01*
X107414Y-58574D02*
X107414Y-58496D01*
X107414Y-58377D02*
X107414Y-58299D01*
X107414Y-58181D02*
X107414Y-58102D01*
X107414Y-57984D02*
X107414Y-57905D01*
X107414Y-57787D02*
X107414Y-57708D01*
X107414Y-57590D02*
X107414Y-57511D01*
X107414Y-57393D02*
X107414Y-57314D01*
X107414Y-57196D02*
X107414Y-57118D01*
X107414Y-57000D02*
X107414Y-56922D01*
X107414Y-56804D02*
X107414Y-56725D01*
X107414Y-56607D02*
X107414Y-56528D01*
X107414Y-56410D02*
X107414Y-56331D01*
X107414Y-56213D02*
X107414Y-56134D01*
X107414Y-56016D02*
X107414Y-55937D01*
X107414Y-55819D02*
X107414Y-55741D01*
X107414Y-55622D02*
X107414Y-55544D01*
X106962Y-55170D02*
X107040Y-55170D01*
X106765Y-55170D02*
X106843Y-55170D01*
X106568Y-55170D02*
X106647Y-55170D01*
X106371Y-55170D02*
X106450Y-55170D01*
X106174Y-55170D02*
X106253Y-55170D01*
X105977Y-55170D02*
X106056Y-55170D01*
X105780Y-55170D02*
X105859Y-55170D01*
X105584Y-55170D02*
X105662Y-55170D01*
X105388Y-55170D02*
X105466Y-55170D01*
X105191Y-55170D02*
X105270Y-55170D01*
X104994Y-55170D02*
X105073Y-55170D01*
X104797Y-55170D02*
X104876Y-55170D01*
X104600Y-55170D02*
X104679Y-55170D01*
X104403Y-55170D02*
X104482Y-55170D01*
X104207Y-55170D02*
X104285Y-55170D01*
X104010Y-55170D02*
X104088Y-55170D01*
G54D17*
X103636Y-55327D02*
X103793Y-55170D01*
X103793Y-55170D02*
X107257Y-55170D01*
X107257Y-55170D02*
X107414Y-55327D01*
X107414Y-55327D02*
X107414Y-58791D01*
X107414Y-58791D02*
X107257Y-58948D01*
X107257Y-58948D02*
X103793Y-58948D01*
X103793Y-58948D02*
X103636Y-58791D01*
X103636Y-58791D02*
X103636Y-55327D01*
G54D13*
X104029Y-55485D02*
G75*
G03X104029Y-55485I-77J0D01*
G74*
G01*
G54D18*
X119410Y-58900D02*
G75*
G03X119410Y-58900I-50J0D01*
G74*
G01*
X118910Y-58900D02*
X119310Y-58900D01*
X119310Y-58900D02*
X119310Y-59500D01*
X119310Y-59500D02*
X118910Y-59500D01*
X118510Y-59500D02*
X118110Y-59500D01*
X118110Y-59500D02*
X118110Y-58900D01*
X118110Y-58900D02*
X118510Y-58900D01*
X117831Y-55233D02*
G75*
G03X117831Y-55233I-50J0D01*
G74*
G01*
X118231Y-55233D02*
X117831Y-55233D01*
X117831Y-55233D02*
X117831Y-54633D01*
X117831Y-54633D02*
X118231Y-54633D01*
X118631Y-54633D02*
X119031Y-54633D01*
X119031Y-54633D02*
X119031Y-55233D01*
X119031Y-55233D02*
X118631Y-55233D01*
X117831Y-54327D02*
G75*
G03X117831Y-54327I-50J0D01*
G74*
G01*
X118231Y-54327D02*
X117831Y-54327D01*
X117831Y-54327D02*
X117831Y-53727D01*
X117831Y-53727D02*
X118231Y-53727D01*
X118631Y-53727D02*
X119031Y-53727D01*
X119031Y-53727D02*
X119031Y-54327D01*
X119031Y-54327D02*
X118631Y-54327D01*
X117040Y-54716D02*
G75*
G03X117040Y-54716I-50J0D01*
G74*
G01*
X116990Y-55166D02*
X116990Y-54766D01*
X116990Y-54766D02*
X117590Y-54766D01*
X117590Y-54766D02*
X117590Y-55166D01*
X117590Y-55566D02*
X117590Y-55966D01*
X117590Y-55966D02*
X116990Y-55966D01*
X116990Y-55966D02*
X116990Y-55566D01*
X117831Y-56020D02*
G75*
G03X117831Y-56020I-50J0D01*
G74*
G01*
X118231Y-56020D02*
X117831Y-56020D01*
X117831Y-56020D02*
X117831Y-55420D01*
X117831Y-55420D02*
X118231Y-55420D01*
X118631Y-55420D02*
X119031Y-55420D01*
X119031Y-55420D02*
X119031Y-56020D01*
X119031Y-56020D02*
X118631Y-56020D01*
X121931Y-54795D02*
G75*
G03X121931Y-54795I-50J0D01*
G74*
G01*
X121881Y-54345D02*
X121881Y-54745D01*
X121881Y-54745D02*
X121281Y-54745D01*
X121281Y-54745D02*
X121281Y-54345D01*
X121281Y-53945D02*
X121281Y-53545D01*
X121281Y-53545D02*
X121881Y-53545D01*
X121881Y-53545D02*
X121881Y-53945D01*
X125981Y-59721D02*
G75*
G03X125981Y-59721I-50J0D01*
G74*
G01*
X126381Y-59721D02*
X125981Y-59721D01*
X125981Y-59721D02*
X125981Y-59121D01*
X125981Y-59121D02*
X126381Y-59121D01*
X126781Y-59121D02*
X127181Y-59121D01*
X127181Y-59121D02*
X127181Y-59721D01*
X127181Y-59721D02*
X126781Y-59721D01*
X120509Y-59681D02*
G75*
G03X120509Y-59681I-50J0D01*
G74*
G01*
X120909Y-59681D02*
X120509Y-59681D01*
X120509Y-59681D02*
X120509Y-59081D01*
X120509Y-59081D02*
X120909Y-59081D01*
X121309Y-59081D02*
X121709Y-59081D01*
X121709Y-59081D02*
X121709Y-59681D01*
X121709Y-59681D02*
X121309Y-59681D01*
X126882Y-54755D02*
G75*
G03X126882Y-54755I-50J0D01*
G74*
G01*
X126832Y-55205D02*
X126832Y-54805D01*
X126832Y-54805D02*
X127432Y-54805D01*
X127432Y-54805D02*
X127432Y-55205D01*
X127432Y-55605D02*
X127432Y-56005D01*
X127432Y-56005D02*
X126832Y-56005D01*
X126832Y-56005D02*
X126832Y-55605D01*
X115509Y-54130D02*
G75*
G03X115509Y-54130I-50J0D01*
G74*
G01*
X115909Y-54130D02*
X115509Y-54130D01*
X115509Y-54130D02*
X115509Y-53530D01*
X115509Y-53530D02*
X115909Y-53530D01*
X116309Y-53530D02*
X116709Y-53530D01*
X116709Y-53530D02*
X116709Y-54130D01*
X116709Y-54130D02*
X116309Y-54130D01*
X119800Y-59450D02*
G75*
G03X119800Y-59450I-50J0D01*
G74*
G01*
X119750Y-59900D02*
X119750Y-59500D01*
X119750Y-59500D02*
X120350Y-59500D01*
X120350Y-59500D02*
X120350Y-59900D01*
X120350Y-60300D02*
X120350Y-60700D01*
X120350Y-60700D02*
X119750Y-60700D01*
X119750Y-60700D02*
X119750Y-60300D01*
G54D19*
X121936Y-55622D02*
X121936Y-55544D01*
X121936Y-55819D02*
X121936Y-55741D01*
X121936Y-56016D02*
X121936Y-55937D01*
X121936Y-56213D02*
X121936Y-56134D01*
X121936Y-56410D02*
X121936Y-56331D01*
X121936Y-56607D02*
X121936Y-56528D01*
X121936Y-56804D02*
X121936Y-56725D01*
X121936Y-57000D02*
X121936Y-56922D01*
X121936Y-57196D02*
X121936Y-57118D01*
X121936Y-57393D02*
X121936Y-57314D01*
X121936Y-57590D02*
X121936Y-57511D01*
X121936Y-57787D02*
X121936Y-57708D01*
X121936Y-57984D02*
X121936Y-57905D01*
X121936Y-58181D02*
X121936Y-58102D01*
X121936Y-58377D02*
X121936Y-58299D01*
X121936Y-58574D02*
X121936Y-58496D01*
X122310Y-58948D02*
X122388Y-58948D01*
X122507Y-58948D02*
X122585Y-58948D01*
X122703Y-58948D02*
X122782Y-58948D01*
X122900Y-58948D02*
X122979Y-58948D01*
X123097Y-58948D02*
X123176Y-58948D01*
X123294Y-58948D02*
X123373Y-58948D01*
X123491Y-58948D02*
X123570Y-58948D01*
X123688Y-58948D02*
X123766Y-58948D01*
X123884Y-58948D02*
X123962Y-58948D01*
X124080Y-58948D02*
X124159Y-58948D01*
X124277Y-58948D02*
X124356Y-58948D01*
X124474Y-58948D02*
X124553Y-58948D01*
X124671Y-58948D02*
X124750Y-58948D01*
X124868Y-58948D02*
X124947Y-58948D01*
X125065Y-58948D02*
X125143Y-58948D01*
X125262Y-58948D02*
X125340Y-58948D01*
X125714Y-58574D02*
X125714Y-58496D01*
X125714Y-58377D02*
X125714Y-58299D01*
X125714Y-58181D02*
X125714Y-58102D01*
X125714Y-57984D02*
X125714Y-57905D01*
X125714Y-57787D02*
X125714Y-57708D01*
X125714Y-57590D02*
X125714Y-57511D01*
X125714Y-57393D02*
X125714Y-57314D01*
X125714Y-57196D02*
X125714Y-57118D01*
X125714Y-57000D02*
X125714Y-56922D01*
X125714Y-56804D02*
X125714Y-56725D01*
X125714Y-56607D02*
X125714Y-56528D01*
X125714Y-56410D02*
X125714Y-56331D01*
X125714Y-56213D02*
X125714Y-56134D01*
X125714Y-56016D02*
X125714Y-55937D01*
X125714Y-55819D02*
X125714Y-55741D01*
X125714Y-55622D02*
X125714Y-55544D01*
X125262Y-55170D02*
X125340Y-55170D01*
X125065Y-55170D02*
X125143Y-55170D01*
X124868Y-55170D02*
X124947Y-55170D01*
X124671Y-55170D02*
X124750Y-55170D01*
X124474Y-55170D02*
X124553Y-55170D01*
X124277Y-55170D02*
X124356Y-55170D01*
X124080Y-55170D02*
X124159Y-55170D01*
X123884Y-55170D02*
X123962Y-55170D01*
X123688Y-55170D02*
X123766Y-55170D01*
X123491Y-55170D02*
X123570Y-55170D01*
X123294Y-55170D02*
X123373Y-55170D01*
X123097Y-55170D02*
X123176Y-55170D01*
X122900Y-55170D02*
X122979Y-55170D01*
X122703Y-55170D02*
X122782Y-55170D01*
X122507Y-55170D02*
X122585Y-55170D01*
X122310Y-55170D02*
X122388Y-55170D01*
G54D17*
X121936Y-55327D02*
X122093Y-55170D01*
X122093Y-55170D02*
X125557Y-55170D01*
X125557Y-55170D02*
X125714Y-55327D01*
X125714Y-55327D02*
X125714Y-58791D01*
X125714Y-58791D02*
X125557Y-58948D01*
X125557Y-58948D02*
X122093Y-58948D01*
X122093Y-58948D02*
X121936Y-58791D01*
X121936Y-58791D02*
X121936Y-55327D01*
G54D13*
X122329Y-55485D02*
G75*
G03X122329Y-55485I-77J0D01*
G74*
G01*
X124781Y-35603D02*
X124781Y-34703D01*
X124781Y-34703D02*
X124131Y-34703D01*
X123431Y-35603D02*
X122781Y-35603D01*
X122781Y-35603D02*
X122781Y-34703D01*
X122781Y-34703D02*
X123431Y-34703D01*
X124131Y-35603D02*
X124781Y-35603D01*
G54D10*
X124765Y-32594D02*
X122797Y-32594D01*
X122797Y-32594D02*
X122797Y-34563D01*
X122797Y-34563D02*
X124765Y-34563D01*
X124765Y-34563D02*
X124765Y-32594D01*
G54D14*
X124856Y-28732D02*
X125856Y-28732D01*
X125856Y-28732D02*
X125856Y-31732D01*
X125856Y-31732D02*
X124856Y-31732D01*
X124856Y-31732D02*
X124856Y-28732D01*
X125856Y-29732D02*
X124856Y-29732D01*
X125182Y-35614D02*
X125182Y-34614D01*
X125182Y-34614D02*
X127182Y-34614D01*
X127182Y-34614D02*
X127182Y-35614D01*
X127182Y-35614D02*
X125182Y-35614D01*
G54D15*
X121413Y-34819D02*
G75*
G03X121413Y-34819I-900J0D01*
G74*
G01*
X121413Y-29012D02*
G75*
G03X121413Y-29012I-900J0D01*
G74*
G01*
G54D10*
X131644Y-32759D02*
X128986Y-32759D01*
X128986Y-32759D02*
X128986Y-30790D01*
X128986Y-30790D02*
X131644Y-30790D01*
X128199Y-35712D02*
X128199Y-27837D01*
X128199Y-27837D02*
X131644Y-27837D01*
X131644Y-27837D02*
X131644Y-35712D01*
X131644Y-35712D02*
X128199Y-35712D01*
G54D13*
X123731Y-51675D02*
X123631Y-51532D01*
X123559Y-51675D02*
X123559Y-51375D01*
X123674Y-51375D01*
X123702Y-51389D01*
X123717Y-51403D01*
X123731Y-51432D01*
X123731Y-51475D01*
X123717Y-51503D01*
X123702Y-51518D01*
X123674Y-51532D01*
X123559Y-51532D01*
X123831Y-51375D02*
X124031Y-51375D01*
X123902Y-51675D01*
G54D10*
X123461Y-48425D02*
X123461Y-48744D01*
X123480Y-48781D01*
X123499Y-48800D01*
X123536Y-48819D01*
X123611Y-48819D01*
X123649Y-48800D01*
X123667Y-48781D01*
X123686Y-48744D01*
X123686Y-48425D01*
X123855Y-48463D02*
X123874Y-48444D01*
X123911Y-48425D01*
X124005Y-48425D01*
X124042Y-48444D01*
X124061Y-48463D01*
X124080Y-48500D01*
X124080Y-48538D01*
X124061Y-48594D01*
X123836Y-48819D01*
X124080Y-48819D01*
X121952Y-50891D02*
X121764Y-51022D01*
X121952Y-51115D02*
X121558Y-51115D01*
X121558Y-50966D01*
X121577Y-50928D01*
X121596Y-50909D01*
X121633Y-50891D01*
X121689Y-50891D01*
X121727Y-50909D01*
X121746Y-50928D01*
X121764Y-50966D01*
X121764Y-51115D01*
X121577Y-50516D02*
X121558Y-50553D01*
X121558Y-50609D01*
X121577Y-50666D01*
X121615Y-50703D01*
X121652Y-50722D01*
X121727Y-50741D01*
X121783Y-50741D01*
X121858Y-50722D01*
X121896Y-50703D01*
X121933Y-50666D01*
X121952Y-50609D01*
X121952Y-50572D01*
X121933Y-50516D01*
X121914Y-50497D01*
X121783Y-50497D01*
X121783Y-50572D01*
X121746Y-50197D02*
X121764Y-50141D01*
X121783Y-50122D01*
X121821Y-50103D01*
X121877Y-50103D01*
X121914Y-50122D01*
X121933Y-50141D01*
X121952Y-50178D01*
X121952Y-50328D01*
X121558Y-50328D01*
X121558Y-50197D01*
X121577Y-50159D01*
X121596Y-50141D01*
X121633Y-50122D01*
X121671Y-50122D01*
X121708Y-50141D01*
X121727Y-50159D01*
X121746Y-50197D01*
X121746Y-50328D01*
X121802Y-49934D02*
X121802Y-49634D01*
X121952Y-49259D02*
X121952Y-49447D01*
X121558Y-49447D01*
X121746Y-49128D02*
X121746Y-48997D01*
X121952Y-48941D02*
X121952Y-49128D01*
X121558Y-49128D01*
X121558Y-48941D01*
X121952Y-48772D02*
X121558Y-48772D01*
X121558Y-48678D01*
X121577Y-48622D01*
X121615Y-48585D01*
X121652Y-48566D01*
X121727Y-48547D01*
X121783Y-48547D01*
X121858Y-48566D01*
X121896Y-48585D01*
X121933Y-48622D01*
X121952Y-48678D01*
X121952Y-48772D01*
G54D14*
X125885Y-46897D02*
X126209Y-46897D01*
X126247Y-46878D01*
X126266Y-46859D01*
X126285Y-46821D01*
X126285Y-46745D01*
X126266Y-46707D01*
X126247Y-46688D01*
X126209Y-46669D01*
X125885Y-46669D01*
X125885Y-46516D02*
X125885Y-46269D01*
X126038Y-46402D01*
X126038Y-46345D01*
X126057Y-46307D01*
X126076Y-46288D01*
X126114Y-46269D01*
X126209Y-46269D01*
X126247Y-46288D01*
X126266Y-46307D01*
X126285Y-46345D01*
X126285Y-46459D01*
X126266Y-46497D01*
X126247Y-46516D01*
X125961Y-50885D02*
X125961Y-50585D01*
X126075Y-50585D01*
X126104Y-50600D01*
X126118Y-50614D01*
X126132Y-50642D01*
X126132Y-50685D01*
X126118Y-50714D01*
X126104Y-50728D01*
X126075Y-50742D01*
X125961Y-50742D01*
X126247Y-50614D02*
X126261Y-50600D01*
X126290Y-50585D01*
X126361Y-50585D01*
X126390Y-50600D01*
X126404Y-50614D01*
X126418Y-50642D01*
X126418Y-50671D01*
X126404Y-50714D01*
X126232Y-50885D01*
X126418Y-50885D01*
G54D23*
G54D10*
X128752Y-48465D02*
X128358Y-48465D01*
X128358Y-48315D01*
X128377Y-48278D01*
X128396Y-48259D01*
X128433Y-48240D01*
X128489Y-48240D01*
X128527Y-48259D01*
X128546Y-48278D01*
X128564Y-48315D01*
X128564Y-48465D01*
X128752Y-47865D02*
X128752Y-48090D01*
X128752Y-47978D02*
X128358Y-47978D01*
X128414Y-48015D01*
X128452Y-48053D01*
X128471Y-48090D01*
X129619Y-51155D02*
X129638Y-51099D01*
X129638Y-51005D01*
X129619Y-50968D01*
X129600Y-50949D01*
X129563Y-50930D01*
X129525Y-50930D01*
X129488Y-50949D01*
X129469Y-50968D01*
X129450Y-51005D01*
X129431Y-51080D01*
X129413Y-51118D01*
X129394Y-51137D01*
X129356Y-51155D01*
X129319Y-51155D01*
X129281Y-51137D01*
X129263Y-51118D01*
X129244Y-51080D01*
X129244Y-50987D01*
X129263Y-50930D01*
X129431Y-50762D02*
X129431Y-50630D01*
X129638Y-50574D02*
X129638Y-50762D01*
X129244Y-50762D01*
X129244Y-50574D01*
X129638Y-50405D02*
X129244Y-50405D01*
X129638Y-50180D01*
X129244Y-50180D01*
X129619Y-50012D02*
X129638Y-49956D01*
X129638Y-49862D01*
X129619Y-49824D01*
X129600Y-49806D01*
X129563Y-49787D01*
X129525Y-49787D01*
X129488Y-49806D01*
X129469Y-49824D01*
X129450Y-49862D01*
X129431Y-49937D01*
X129413Y-49974D01*
X129394Y-49993D01*
X129356Y-50012D01*
X129319Y-50012D01*
X129281Y-49993D01*
X129263Y-49974D01*
X129244Y-49937D01*
X129244Y-49843D01*
X129263Y-49787D01*
X129244Y-49543D02*
X129244Y-49468D01*
X129263Y-49431D01*
X129300Y-49393D01*
X129375Y-49374D01*
X129506Y-49374D01*
X129581Y-49393D01*
X129619Y-49431D01*
X129638Y-49468D01*
X129638Y-49543D01*
X129619Y-49581D01*
X129581Y-49618D01*
X129506Y-49637D01*
X129375Y-49637D01*
X129300Y-49618D01*
X129263Y-49581D01*
X129244Y-49543D01*
X129638Y-48981D02*
X129450Y-49112D01*
X129638Y-49206D02*
X129244Y-49206D01*
X129244Y-49056D01*
X129263Y-49018D01*
X129281Y-48999D01*
X129319Y-48981D01*
X129375Y-48981D01*
X129413Y-48999D01*
X129431Y-49018D01*
X129450Y-49056D01*
X129450Y-49206D01*
X129675Y-48906D02*
X129675Y-48606D01*
X129600Y-48287D02*
X129619Y-48306D01*
X129638Y-48362D01*
X129638Y-48399D01*
X129619Y-48456D01*
X129581Y-48493D01*
X129544Y-48512D01*
X129469Y-48531D01*
X129413Y-48531D01*
X129338Y-48512D01*
X129300Y-48493D01*
X129263Y-48456D01*
X129244Y-48399D01*
X129244Y-48362D01*
X129263Y-48306D01*
X129281Y-48287D01*
X129244Y-48043D02*
X129244Y-47968D01*
X129263Y-47931D01*
X129300Y-47893D01*
X129375Y-47875D01*
X129506Y-47875D01*
X129581Y-47893D01*
X129619Y-47931D01*
X129638Y-47968D01*
X129638Y-48043D01*
X129619Y-48081D01*
X129581Y-48118D01*
X129506Y-48137D01*
X129375Y-48137D01*
X129300Y-48118D01*
X129263Y-48081D01*
X129244Y-48043D01*
X129638Y-47706D02*
X129244Y-47706D01*
X129638Y-47481D01*
X129244Y-47481D01*
X129638Y-47293D02*
X129244Y-47293D01*
X129638Y-47068D01*
X129244Y-47068D01*
X129431Y-46881D02*
X129431Y-46750D01*
X129638Y-46693D02*
X129638Y-46881D01*
X129244Y-46881D01*
X129244Y-46693D01*
X129600Y-46300D02*
X129619Y-46318D01*
X129638Y-46375D01*
X129638Y-46412D01*
X129619Y-46468D01*
X129581Y-46506D01*
X129544Y-46525D01*
X129469Y-46543D01*
X129413Y-46543D01*
X129338Y-46525D01*
X129300Y-46506D01*
X129263Y-46468D01*
X129244Y-46412D01*
X129244Y-46375D01*
X129263Y-46318D01*
X129281Y-46300D01*
X129244Y-46187D02*
X129244Y-45962D01*
X129638Y-46075D02*
X129244Y-46075D01*
X129244Y-45756D02*
X129244Y-45681D01*
X129263Y-45644D01*
X129300Y-45606D01*
X129375Y-45587D01*
X129506Y-45587D01*
X129581Y-45606D01*
X129619Y-45644D01*
X129638Y-45681D01*
X129638Y-45756D01*
X129619Y-45794D01*
X129581Y-45831D01*
X129506Y-45850D01*
X129375Y-45850D01*
X129300Y-45831D01*
X129263Y-45794D01*
X129244Y-45756D01*
X129638Y-45194D02*
X129450Y-45325D01*
X129638Y-45419D02*
X129244Y-45419D01*
X129244Y-45269D01*
X129263Y-45231D01*
X129281Y-45212D01*
X129319Y-45194D01*
X129375Y-45194D01*
X129413Y-45212D01*
X129431Y-45231D01*
X129450Y-45269D01*
X129450Y-45419D01*
X128752Y-40315D02*
X128358Y-40315D01*
X128358Y-40165D01*
X128377Y-40128D01*
X128396Y-40109D01*
X128433Y-40090D01*
X128489Y-40090D01*
X128527Y-40109D01*
X128546Y-40128D01*
X128564Y-40165D01*
X128564Y-40315D01*
X128752Y-39715D02*
X128752Y-39940D01*
X128752Y-39828D02*
X128358Y-39828D01*
X128414Y-39865D01*
X128452Y-39903D01*
X128471Y-39940D01*
X129619Y-43005D02*
X129638Y-42949D01*
X129638Y-42855D01*
X129619Y-42818D01*
X129600Y-42799D01*
X129563Y-42780D01*
X129525Y-42780D01*
X129488Y-42799D01*
X129469Y-42818D01*
X129450Y-42855D01*
X129431Y-42930D01*
X129413Y-42968D01*
X129394Y-42987D01*
X129356Y-43005D01*
X129319Y-43005D01*
X129281Y-42987D01*
X129263Y-42968D01*
X129244Y-42930D01*
X129244Y-42837D01*
X129263Y-42780D01*
X129431Y-42612D02*
X129431Y-42480D01*
X129638Y-42424D02*
X129638Y-42612D01*
X129244Y-42612D01*
X129244Y-42424D01*
X129638Y-42255D02*
X129244Y-42255D01*
X129638Y-42030D01*
X129244Y-42030D01*
X129619Y-41862D02*
X129638Y-41806D01*
X129638Y-41712D01*
X129619Y-41674D01*
X129600Y-41656D01*
X129563Y-41637D01*
X129525Y-41637D01*
X129488Y-41656D01*
X129469Y-41674D01*
X129450Y-41712D01*
X129431Y-41787D01*
X129413Y-41824D01*
X129394Y-41843D01*
X129356Y-41862D01*
X129319Y-41862D01*
X129281Y-41843D01*
X129263Y-41824D01*
X129244Y-41787D01*
X129244Y-41693D01*
X129263Y-41637D01*
X129244Y-41393D02*
X129244Y-41318D01*
X129263Y-41281D01*
X129300Y-41243D01*
X129375Y-41224D01*
X129506Y-41224D01*
X129581Y-41243D01*
X129619Y-41281D01*
X129638Y-41318D01*
X129638Y-41393D01*
X129619Y-41431D01*
X129581Y-41468D01*
X129506Y-41487D01*
X129375Y-41487D01*
X129300Y-41468D01*
X129263Y-41431D01*
X129244Y-41393D01*
X129638Y-40831D02*
X129450Y-40962D01*
X129638Y-41056D02*
X129244Y-41056D01*
X129244Y-40906D01*
X129263Y-40868D01*
X129281Y-40849D01*
X129319Y-40831D01*
X129375Y-40831D01*
X129413Y-40849D01*
X129431Y-40868D01*
X129450Y-40906D01*
X129450Y-41056D01*
X129675Y-40756D02*
X129675Y-40456D01*
X129600Y-40137D02*
X129619Y-40156D01*
X129638Y-40212D01*
X129638Y-40249D01*
X129619Y-40306D01*
X129581Y-40343D01*
X129544Y-40362D01*
X129469Y-40381D01*
X129413Y-40381D01*
X129338Y-40362D01*
X129300Y-40343D01*
X129263Y-40306D01*
X129244Y-40249D01*
X129244Y-40212D01*
X129263Y-40156D01*
X129281Y-40137D01*
X129244Y-39893D02*
X129244Y-39818D01*
X129263Y-39781D01*
X129300Y-39743D01*
X129375Y-39725D01*
X129506Y-39725D01*
X129581Y-39743D01*
X129619Y-39781D01*
X129638Y-39818D01*
X129638Y-39893D01*
X129619Y-39931D01*
X129581Y-39968D01*
X129506Y-39987D01*
X129375Y-39987D01*
X129300Y-39968D01*
X129263Y-39931D01*
X129244Y-39893D01*
X129638Y-39556D02*
X129244Y-39556D01*
X129638Y-39331D01*
X129244Y-39331D01*
X129638Y-39143D02*
X129244Y-39143D01*
X129638Y-38918D01*
X129244Y-38918D01*
X129431Y-38731D02*
X129431Y-38600D01*
X129638Y-38543D02*
X129638Y-38731D01*
X129244Y-38731D01*
X129244Y-38543D01*
X129600Y-38150D02*
X129619Y-38168D01*
X129638Y-38225D01*
X129638Y-38262D01*
X129619Y-38318D01*
X129581Y-38356D01*
X129544Y-38375D01*
X129469Y-38393D01*
X129413Y-38393D01*
X129338Y-38375D01*
X129300Y-38356D01*
X129263Y-38318D01*
X129244Y-38262D01*
X129244Y-38225D01*
X129263Y-38168D01*
X129281Y-38150D01*
X129244Y-38037D02*
X129244Y-37812D01*
X129638Y-37925D02*
X129244Y-37925D01*
X129244Y-37606D02*
X129244Y-37531D01*
X129263Y-37494D01*
X129300Y-37456D01*
X129375Y-37437D01*
X129506Y-37437D01*
X129581Y-37456D01*
X129619Y-37494D01*
X129638Y-37531D01*
X129638Y-37606D01*
X129619Y-37644D01*
X129581Y-37681D01*
X129506Y-37700D01*
X129375Y-37700D01*
X129300Y-37681D01*
X129263Y-37644D01*
X129244Y-37606D01*
X129638Y-37044D02*
X129450Y-37175D01*
X129638Y-37269D02*
X129244Y-37269D01*
X129244Y-37119D01*
X129263Y-37081D01*
X129281Y-37062D01*
X129319Y-37044D01*
X129375Y-37044D01*
X129413Y-37062D01*
X129431Y-37081D01*
X129450Y-37119D01*
X129450Y-37269D01*
G54D23*
G54D14*
X125961Y-42735D02*
X125961Y-42435D01*
X126075Y-42435D01*
X126104Y-42450D01*
X126118Y-42464D01*
X126132Y-42492D01*
X126132Y-42535D01*
X126118Y-42564D01*
X126104Y-42578D01*
X126075Y-42592D01*
X125961Y-42592D01*
X126247Y-42464D02*
X126261Y-42450D01*
X126290Y-42435D01*
X126361Y-42435D01*
X126390Y-42450D01*
X126404Y-42464D01*
X126418Y-42492D01*
X126418Y-42521D01*
X126404Y-42564D01*
X126232Y-42735D01*
X126418Y-42735D01*
X125885Y-38747D02*
X126209Y-38747D01*
X126247Y-38728D01*
X126266Y-38709D01*
X126285Y-38671D01*
X126285Y-38595D01*
X126266Y-38557D01*
X126247Y-38538D01*
X126209Y-38519D01*
X125885Y-38519D01*
X125885Y-38366D02*
X125885Y-38119D01*
X126038Y-38252D01*
X126038Y-38195D01*
X126057Y-38157D01*
X126076Y-38138D01*
X126114Y-38119D01*
X126209Y-38119D01*
X126247Y-38138D01*
X126266Y-38157D01*
X126285Y-38195D01*
X126285Y-38309D01*
X126266Y-38347D01*
X126247Y-38366D01*
G54D10*
X123461Y-40275D02*
X123461Y-40594D01*
X123480Y-40631D01*
X123499Y-40650D01*
X123536Y-40669D01*
X123611Y-40669D01*
X123649Y-40650D01*
X123667Y-40631D01*
X123686Y-40594D01*
X123686Y-40275D01*
X123855Y-40313D02*
X123874Y-40294D01*
X123911Y-40275D01*
X124005Y-40275D01*
X124042Y-40294D01*
X124061Y-40313D01*
X124080Y-40350D01*
X124080Y-40388D01*
X124061Y-40444D01*
X123836Y-40669D01*
X124080Y-40669D01*
X121952Y-42741D02*
X121764Y-42872D01*
X121952Y-42965D02*
X121558Y-42965D01*
X121558Y-42816D01*
X121577Y-42778D01*
X121596Y-42759D01*
X121633Y-42741D01*
X121689Y-42741D01*
X121727Y-42759D01*
X121746Y-42778D01*
X121764Y-42816D01*
X121764Y-42965D01*
X121577Y-42366D02*
X121558Y-42403D01*
X121558Y-42459D01*
X121577Y-42516D01*
X121615Y-42553D01*
X121652Y-42572D01*
X121727Y-42591D01*
X121783Y-42591D01*
X121858Y-42572D01*
X121896Y-42553D01*
X121933Y-42516D01*
X121952Y-42459D01*
X121952Y-42422D01*
X121933Y-42366D01*
X121914Y-42347D01*
X121783Y-42347D01*
X121783Y-42422D01*
X121746Y-42047D02*
X121764Y-41991D01*
X121783Y-41972D01*
X121821Y-41953D01*
X121877Y-41953D01*
X121914Y-41972D01*
X121933Y-41991D01*
X121952Y-42028D01*
X121952Y-42178D01*
X121558Y-42178D01*
X121558Y-42047D01*
X121577Y-42009D01*
X121596Y-41991D01*
X121633Y-41972D01*
X121671Y-41972D01*
X121708Y-41991D01*
X121727Y-42009D01*
X121746Y-42047D01*
X121746Y-42178D01*
X121802Y-41784D02*
X121802Y-41484D01*
X121952Y-41109D02*
X121952Y-41297D01*
X121558Y-41297D01*
X121746Y-40978D02*
X121746Y-40847D01*
X121952Y-40791D02*
X121952Y-40978D01*
X121558Y-40978D01*
X121558Y-40791D01*
X121952Y-40622D02*
X121558Y-40622D01*
X121558Y-40528D01*
X121577Y-40472D01*
X121615Y-40435D01*
X121652Y-40416D01*
X121727Y-40397D01*
X121783Y-40397D01*
X121858Y-40416D01*
X121896Y-40435D01*
X121933Y-40472D01*
X121952Y-40528D01*
X121952Y-40622D01*
G54D13*
X123731Y-43525D02*
X123631Y-43382D01*
X123559Y-43525D02*
X123559Y-43225D01*
X123674Y-43225D01*
X123702Y-43239D01*
X123717Y-43253D01*
X123731Y-43282D01*
X123731Y-43325D01*
X123717Y-43353D01*
X123702Y-43368D01*
X123674Y-43382D01*
X123559Y-43382D01*
X123831Y-43225D02*
X124031Y-43225D01*
X123902Y-43525D01*
G54D24*
X106171Y-36700D02*
X106142Y-36685D01*
X106114Y-36657D01*
X106071Y-36614D01*
X106042Y-36600D01*
X106014Y-36600D01*
X106028Y-36671D02*
X106000Y-36657D01*
X105971Y-36628D01*
X105957Y-36571D01*
X105957Y-36471D01*
X105971Y-36414D01*
X106000Y-36385D01*
X106028Y-36371D01*
X106085Y-36371D01*
X106114Y-36385D01*
X106142Y-36414D01*
X106157Y-36471D01*
X106157Y-36571D01*
X106142Y-36628D01*
X106114Y-36657D01*
X106085Y-36671D01*
X106028Y-36671D01*
X106257Y-36371D02*
X106457Y-36371D01*
X106328Y-36671D01*
X102000Y-36528D02*
X101985Y-36557D01*
X101957Y-36585D01*
X101914Y-36628D01*
X101900Y-36657D01*
X101900Y-36685D01*
X101971Y-36671D02*
X101957Y-36700D01*
X101928Y-36728D01*
X101871Y-36742D01*
X101771Y-36742D01*
X101714Y-36728D01*
X101685Y-36700D01*
X101671Y-36671D01*
X101671Y-36614D01*
X101685Y-36585D01*
X101714Y-36557D01*
X101771Y-36542D01*
X101871Y-36542D01*
X101928Y-36557D01*
X101957Y-36585D01*
X101971Y-36614D01*
X101971Y-36671D01*
X101771Y-36285D02*
X101971Y-36285D01*
X101657Y-36357D02*
X101871Y-36428D01*
X101871Y-36242D01*
X107721Y-36700D02*
X107692Y-36685D01*
X107664Y-36657D01*
X107621Y-36614D01*
X107592Y-36600D01*
X107564Y-36600D01*
X107578Y-36671D02*
X107550Y-36657D01*
X107521Y-36628D01*
X107507Y-36571D01*
X107507Y-36471D01*
X107521Y-36414D01*
X107550Y-36385D01*
X107578Y-36371D01*
X107635Y-36371D01*
X107664Y-36385D01*
X107692Y-36414D01*
X107707Y-36471D01*
X107707Y-36571D01*
X107692Y-36628D01*
X107664Y-36657D01*
X107635Y-36671D01*
X107578Y-36671D01*
X107964Y-36371D02*
X107907Y-36371D01*
X107878Y-36385D01*
X107864Y-36400D01*
X107835Y-36442D01*
X107821Y-36500D01*
X107821Y-36614D01*
X107835Y-36642D01*
X107850Y-36657D01*
X107878Y-36671D01*
X107935Y-36671D01*
X107964Y-36657D01*
X107978Y-36642D01*
X107992Y-36614D01*
X107992Y-36542D01*
X107978Y-36514D01*
X107964Y-36500D01*
X107935Y-36485D01*
X107878Y-36485D01*
X107850Y-36500D01*
X107835Y-36514D01*
X107821Y-36542D01*
X103350Y-32378D02*
X103335Y-32407D01*
X103307Y-32435D01*
X103264Y-32478D01*
X103250Y-32507D01*
X103250Y-32535D01*
X103321Y-32521D02*
X103307Y-32550D01*
X103278Y-32578D01*
X103221Y-32592D01*
X103121Y-32592D01*
X103064Y-32578D01*
X103035Y-32550D01*
X103021Y-32521D01*
X103021Y-32464D01*
X103035Y-32435D01*
X103064Y-32407D01*
X103121Y-32392D01*
X103221Y-32392D01*
X103278Y-32407D01*
X103307Y-32435D01*
X103321Y-32464D01*
X103321Y-32521D01*
X103021Y-32292D02*
X103021Y-32107D01*
X103135Y-32207D01*
X103135Y-32164D01*
X103150Y-32135D01*
X103164Y-32121D01*
X103192Y-32107D01*
X103264Y-32107D01*
X103292Y-32121D01*
X103307Y-32135D01*
X103321Y-32164D01*
X103321Y-32250D01*
X103307Y-32278D01*
X103292Y-32292D01*
X103350Y-33878D02*
X103335Y-33907D01*
X103307Y-33935D01*
X103264Y-33978D01*
X103250Y-34007D01*
X103250Y-34035D01*
X103321Y-34021D02*
X103307Y-34050D01*
X103278Y-34078D01*
X103221Y-34092D01*
X103121Y-34092D01*
X103064Y-34078D01*
X103035Y-34050D01*
X103021Y-34021D01*
X103021Y-33964D01*
X103035Y-33935D01*
X103064Y-33907D01*
X103121Y-33892D01*
X103221Y-33892D01*
X103278Y-33907D01*
X103307Y-33935D01*
X103321Y-33964D01*
X103321Y-34021D01*
X103050Y-33778D02*
X103035Y-33764D01*
X103021Y-33735D01*
X103021Y-33664D01*
X103035Y-33635D01*
X103050Y-33621D01*
X103078Y-33607D01*
X103107Y-33607D01*
X103150Y-33621D01*
X103321Y-33792D01*
X103321Y-33607D01*
X103650Y-28328D02*
X103635Y-28357D01*
X103607Y-28385D01*
X103564Y-28428D01*
X103550Y-28457D01*
X103550Y-28485D01*
X103621Y-28471D02*
X103607Y-28500D01*
X103578Y-28528D01*
X103521Y-28542D01*
X103421Y-28542D01*
X103364Y-28528D01*
X103335Y-28500D01*
X103321Y-28471D01*
X103321Y-28414D01*
X103335Y-28385D01*
X103364Y-28357D01*
X103421Y-28342D01*
X103521Y-28342D01*
X103578Y-28357D01*
X103607Y-28385D01*
X103621Y-28414D01*
X103621Y-28471D01*
X103621Y-28057D02*
X103621Y-28228D01*
X103621Y-28142D02*
X103321Y-28142D01*
X103364Y-28171D01*
X103392Y-28200D01*
X103407Y-28228D01*
G54D17*
X110490Y-31752D02*
X110490Y-32075D01*
X110509Y-32113D01*
X110528Y-32133D01*
X110566Y-32152D01*
X110642Y-32152D01*
X110680Y-32133D01*
X110700Y-32113D01*
X110719Y-32075D01*
X110719Y-31752D01*
X111119Y-32152D02*
X110890Y-32152D01*
X111004Y-32152D02*
X111004Y-31752D01*
X110966Y-31809D01*
X110928Y-31847D01*
X110890Y-31866D01*
X109478Y-33152D02*
X109478Y-32752D01*
X109630Y-32752D01*
X109669Y-32771D01*
X109688Y-32790D01*
X109707Y-32828D01*
X109707Y-32885D01*
X109688Y-32923D01*
X109669Y-32942D01*
X109630Y-32961D01*
X109478Y-32961D01*
X109859Y-33037D02*
X110050Y-33037D01*
X109821Y-33152D02*
X109954Y-32752D01*
X110088Y-33152D01*
X110221Y-33152D02*
X110221Y-32752D01*
X110354Y-33037D01*
X110488Y-32752D01*
X110488Y-33152D01*
X110735Y-32923D02*
X110697Y-32904D01*
X110678Y-32885D01*
X110659Y-32847D01*
X110659Y-32828D01*
X110678Y-32790D01*
X110697Y-32771D01*
X110735Y-32752D01*
X110811Y-32752D01*
X110850Y-32771D01*
X110869Y-32790D01*
X110888Y-32828D01*
X110888Y-32847D01*
X110869Y-32885D01*
X110850Y-32904D01*
X110811Y-32923D01*
X110735Y-32923D01*
X110697Y-32942D01*
X110678Y-32961D01*
X110659Y-32999D01*
X110659Y-33075D01*
X110678Y-33113D01*
X110697Y-33133D01*
X110735Y-33152D01*
X110811Y-33152D01*
X110850Y-33133D01*
X110869Y-33113D01*
X110888Y-33075D01*
X110888Y-32999D01*
X110869Y-32961D01*
X110850Y-32942D01*
X110811Y-32923D01*
X111230Y-32885D02*
X111230Y-33152D01*
X111135Y-32733D02*
X111040Y-33018D01*
X111288Y-33018D01*
X111516Y-32752D02*
X111554Y-32752D01*
X111592Y-32771D01*
X111611Y-32790D01*
X111630Y-32828D01*
X111650Y-32904D01*
X111650Y-32999D01*
X111630Y-33075D01*
X111611Y-33113D01*
X111592Y-33133D01*
X111554Y-33152D01*
X111516Y-33152D01*
X111478Y-33133D01*
X111459Y-33113D01*
X111440Y-33075D01*
X111421Y-32999D01*
X111421Y-32904D01*
X111440Y-32828D01*
X111459Y-32790D01*
X111478Y-32771D01*
X111516Y-32752D01*
X111783Y-32752D02*
X112030Y-32752D01*
X111897Y-32904D01*
X111954Y-32904D01*
X111992Y-32923D01*
X112011Y-32942D01*
X112030Y-32980D01*
X112030Y-33075D01*
X112011Y-33113D01*
X111992Y-33133D01*
X111954Y-33152D01*
X111840Y-33152D01*
X111802Y-33133D01*
X111783Y-33113D01*
G54D25*
X102521Y-35239D02*
X102428Y-35305D01*
X102521Y-35352D02*
X102324Y-35352D01*
X102324Y-35277D01*
X102334Y-35258D01*
X102343Y-35248D01*
X102362Y-35239D01*
X102390Y-35239D01*
X102409Y-35248D01*
X102418Y-35258D01*
X102428Y-35277D01*
X102428Y-35352D01*
X102409Y-35126D02*
X102399Y-35145D01*
X102390Y-35155D01*
X102371Y-35164D01*
X102362Y-35164D01*
X102343Y-35155D01*
X102334Y-35145D01*
X102324Y-35126D01*
X102324Y-35089D01*
X102334Y-35070D01*
X102343Y-35061D01*
X102362Y-35051D01*
X102371Y-35051D01*
X102390Y-35061D01*
X102399Y-35070D01*
X102409Y-35089D01*
X102409Y-35126D01*
X102418Y-35145D01*
X102428Y-35155D01*
X102446Y-35164D01*
X102484Y-35164D01*
X102503Y-35155D01*
X102512Y-35145D01*
X102521Y-35126D01*
X102521Y-35089D01*
X102512Y-35070D01*
X102503Y-35061D01*
X102484Y-35051D01*
X102446Y-35051D01*
X102428Y-35061D01*
X102418Y-35070D01*
X102409Y-35089D01*
X103919Y-35249D02*
X103825Y-35315D01*
X103919Y-35361D02*
X103722Y-35361D01*
X103722Y-35286D01*
X103731Y-35268D01*
X103741Y-35258D01*
X103760Y-35249D01*
X103788Y-35249D01*
X103806Y-35258D01*
X103816Y-35268D01*
X103825Y-35286D01*
X103825Y-35361D01*
X103722Y-35183D02*
X103722Y-35052D01*
X103919Y-35136D01*
X103200Y-35249D02*
X103107Y-35315D01*
X103200Y-35361D02*
X103003Y-35361D01*
X103003Y-35286D01*
X103013Y-35268D01*
X103022Y-35258D01*
X103041Y-35249D01*
X103069Y-35249D01*
X103088Y-35258D01*
X103097Y-35268D01*
X103107Y-35286D01*
X103107Y-35361D01*
X103003Y-35080D02*
X103003Y-35118D01*
X103013Y-35136D01*
X103022Y-35146D01*
X103050Y-35164D01*
X103088Y-35174D01*
X103163Y-35174D01*
X103182Y-35164D01*
X103191Y-35155D01*
X103200Y-35136D01*
X103200Y-35099D01*
X103191Y-35080D01*
X103182Y-35071D01*
X103163Y-35061D01*
X103116Y-35061D01*
X103097Y-35071D01*
X103088Y-35080D01*
X103079Y-35099D01*
X103079Y-35136D01*
X103088Y-35155D01*
X103097Y-35164D01*
X103116Y-35174D01*
X111623Y-29660D02*
X111613Y-29670D01*
X111585Y-29679D01*
X111567Y-29679D01*
X111538Y-29670D01*
X111520Y-29651D01*
X111510Y-29632D01*
X111501Y-29595D01*
X111501Y-29567D01*
X111510Y-29529D01*
X111520Y-29510D01*
X111538Y-29492D01*
X111567Y-29482D01*
X111585Y-29482D01*
X111613Y-29492D01*
X111623Y-29501D01*
X111810Y-29679D02*
X111698Y-29679D01*
X111754Y-29679D02*
X111754Y-29482D01*
X111735Y-29510D01*
X111717Y-29529D01*
X111698Y-29539D01*
X111998Y-29679D02*
X111886Y-29679D01*
X111942Y-29679D02*
X111942Y-29482D01*
X111923Y-29510D01*
X111904Y-29529D01*
X111886Y-29539D01*
X110982Y-29679D02*
X110870Y-29679D01*
X110926Y-29679D02*
X110926Y-29482D01*
X110907Y-29510D01*
X110888Y-29529D01*
X110870Y-29539D01*
X111151Y-29548D02*
X111151Y-29679D01*
X111067Y-29548D02*
X111067Y-29651D01*
X111076Y-29670D01*
X111095Y-29679D01*
X111123Y-29679D01*
X111142Y-29670D01*
X111151Y-29660D01*
X111311Y-29576D02*
X111245Y-29576D01*
X111245Y-29679D02*
X111245Y-29482D01*
X111339Y-29482D01*
X102757Y-30457D02*
X102691Y-30363D01*
X102644Y-30457D02*
X102644Y-30260D01*
X102719Y-30260D01*
X102738Y-30269D01*
X102747Y-30279D01*
X102757Y-30297D01*
X102757Y-30325D01*
X102747Y-30344D01*
X102738Y-30354D01*
X102719Y-30363D01*
X102644Y-30363D01*
X102926Y-30325D02*
X102926Y-30457D01*
X102879Y-30250D02*
X102832Y-30391D01*
X102954Y-30391D01*
X102860Y-30742D02*
X102795Y-30648D01*
X102748Y-30742D02*
X102748Y-30545D01*
X102823Y-30545D01*
X102842Y-30555D01*
X102851Y-30564D01*
X102860Y-30583D01*
X102860Y-30611D01*
X102851Y-30630D01*
X102842Y-30639D01*
X102823Y-30648D01*
X102748Y-30648D01*
X101967Y-30479D02*
X101901Y-30385D01*
X101854Y-30479D02*
X101854Y-30282D01*
X101929Y-30282D01*
X101948Y-30292D01*
X101957Y-30301D01*
X101967Y-30320D01*
X101967Y-30348D01*
X101957Y-30367D01*
X101948Y-30376D01*
X101929Y-30385D01*
X101854Y-30385D01*
X102145Y-30282D02*
X102051Y-30282D01*
X102042Y-30376D01*
X102051Y-30367D01*
X102070Y-30357D01*
X102117Y-30357D01*
X102136Y-30367D01*
X102145Y-30376D01*
X102154Y-30395D01*
X102154Y-30442D01*
X102145Y-30460D01*
X102136Y-30470D01*
X102117Y-30479D01*
X102070Y-30479D01*
X102051Y-30470D01*
X102042Y-30460D01*
X102060Y-30779D02*
X101995Y-30685D01*
X101948Y-30779D02*
X101948Y-30582D01*
X102023Y-30582D01*
X102042Y-30592D01*
X102051Y-30601D01*
X102060Y-30620D01*
X102060Y-30648D01*
X102051Y-30667D01*
X102042Y-30676D01*
X102023Y-30685D01*
X101948Y-30685D01*
G54D13*
X100159Y-28501D02*
X100159Y-28703D01*
X100171Y-28727D01*
X100183Y-28739D01*
X100207Y-28751D01*
X100254Y-28751D01*
X100278Y-28739D01*
X100290Y-28727D01*
X100302Y-28703D01*
X100302Y-28501D01*
X100409Y-28525D02*
X100421Y-28513D01*
X100445Y-28501D01*
X100504Y-28501D01*
X100528Y-28513D01*
X100540Y-28525D01*
X100552Y-28548D01*
X100552Y-28572D01*
X100540Y-28608D01*
X100397Y-28751D01*
X100552Y-28751D01*
X100821Y-28751D02*
X100821Y-28501D01*
X100964Y-28751D01*
X100964Y-28501D01*
X101226Y-28727D02*
X101214Y-28739D01*
X101178Y-28751D01*
X101154Y-28751D01*
X101119Y-28739D01*
X101095Y-28715D01*
X101083Y-28691D01*
X101071Y-28644D01*
X101071Y-28608D01*
X101083Y-28560D01*
X101095Y-28536D01*
X101119Y-28513D01*
X101154Y-28501D01*
X101178Y-28501D01*
X101214Y-28513D01*
X101226Y-28525D01*
X101333Y-28751D02*
X101333Y-28501D01*
X101428Y-28501D01*
X101452Y-28513D01*
X101464Y-28525D01*
X101476Y-28548D01*
X101476Y-28584D01*
X101464Y-28608D01*
X101452Y-28620D01*
X101428Y-28632D01*
X101333Y-28632D01*
X101702Y-28501D02*
X101583Y-28501D01*
X101571Y-28620D01*
X101583Y-28608D01*
X101607Y-28596D01*
X101666Y-28596D01*
X101690Y-28608D01*
X101702Y-28620D01*
X101714Y-28644D01*
X101714Y-28703D01*
X101702Y-28727D01*
X101690Y-28739D01*
X101666Y-28751D01*
X101607Y-28751D01*
X101583Y-28739D01*
X101571Y-28727D01*
X101940Y-28501D02*
X101821Y-28501D01*
X101809Y-28620D01*
X101821Y-28608D01*
X101845Y-28596D01*
X101904Y-28596D01*
X101928Y-28608D01*
X101940Y-28620D01*
X101952Y-28644D01*
X101952Y-28703D01*
X101940Y-28727D01*
X101928Y-28739D01*
X101904Y-28751D01*
X101845Y-28751D01*
X101821Y-28739D01*
X101809Y-28727D01*
X102190Y-28751D02*
X102047Y-28751D01*
X102119Y-28751D02*
X102119Y-28501D01*
X102095Y-28536D01*
X102071Y-28560D01*
X102047Y-28572D01*
G54D24*
X103971Y-35000D02*
X103942Y-34985D01*
X103914Y-34957D01*
X103871Y-34914D01*
X103842Y-34900D01*
X103814Y-34900D01*
X103828Y-34971D02*
X103800Y-34957D01*
X103771Y-34928D01*
X103757Y-34871D01*
X103757Y-34771D01*
X103771Y-34714D01*
X103800Y-34685D01*
X103828Y-34671D01*
X103885Y-34671D01*
X103914Y-34685D01*
X103942Y-34714D01*
X103957Y-34771D01*
X103957Y-34871D01*
X103942Y-34928D01*
X103914Y-34957D01*
X103885Y-34971D01*
X103828Y-34971D01*
X104228Y-34671D02*
X104085Y-34671D01*
X104071Y-34814D01*
X104085Y-34800D01*
X104114Y-34785D01*
X104185Y-34785D01*
X104214Y-34800D01*
X104228Y-34814D01*
X104242Y-34842D01*
X104242Y-34914D01*
X104228Y-34942D01*
X104214Y-34957D01*
X104185Y-34971D01*
X104114Y-34971D01*
X104085Y-34957D01*
X104071Y-34942D01*
G54D26*
X110871Y-37471D02*
X110871Y-37714D01*
X110885Y-37742D01*
X110900Y-37757D01*
X110928Y-37771D01*
X110985Y-37771D01*
X111014Y-37757D01*
X111028Y-37742D01*
X111042Y-37714D01*
X111042Y-37471D01*
X111157Y-37471D02*
X111342Y-37471D01*
X111242Y-37585D01*
X111285Y-37585D01*
X111314Y-37600D01*
X111328Y-37614D01*
X111342Y-37642D01*
X111342Y-37714D01*
X111328Y-37742D01*
X111314Y-37757D01*
X111285Y-37771D01*
X111200Y-37771D01*
X111171Y-37757D01*
X111157Y-37742D01*
G54D27*
X109319Y-36985D02*
X109319Y-37209D01*
X109332Y-37235D01*
X109346Y-37248D01*
X109372Y-37261D01*
X109424Y-37261D01*
X109451Y-37248D01*
X109464Y-37235D01*
X109477Y-37209D01*
X109477Y-36985D01*
X109595Y-37248D02*
X109634Y-37261D01*
X109700Y-37261D01*
X109726Y-37248D01*
X109739Y-37235D01*
X109752Y-37209D01*
X109752Y-37182D01*
X109739Y-37156D01*
X109726Y-37143D01*
X109700Y-37130D01*
X109647Y-37117D01*
X109621Y-37104D01*
X109608Y-37090D01*
X109595Y-37064D01*
X109595Y-37038D01*
X109608Y-37012D01*
X109621Y-36999D01*
X109647Y-36985D01*
X109713Y-36985D01*
X109752Y-36999D01*
X109962Y-37117D02*
X110002Y-37130D01*
X110015Y-37143D01*
X110028Y-37169D01*
X110028Y-37209D01*
X110015Y-37235D01*
X110002Y-37248D01*
X109975Y-37261D01*
X109870Y-37261D01*
X109870Y-36985D01*
X109962Y-36985D01*
X109989Y-36999D01*
X110002Y-37012D01*
X110015Y-37038D01*
X110015Y-37064D01*
X110002Y-37090D01*
X109989Y-37104D01*
X109962Y-37117D01*
X109870Y-37117D01*
X110277Y-37261D02*
X110146Y-37261D01*
X110146Y-36985D01*
X110527Y-37235D02*
X110514Y-37248D01*
X110474Y-37261D01*
X110448Y-37261D01*
X110409Y-37248D01*
X110382Y-37222D01*
X110369Y-37195D01*
X110356Y-37143D01*
X110356Y-37104D01*
X110369Y-37051D01*
X110382Y-37025D01*
X110409Y-36999D01*
X110448Y-36985D01*
X110474Y-36985D01*
X110514Y-36999D01*
X110527Y-37012D01*
X110763Y-36985D02*
X110710Y-36985D01*
X110684Y-36999D01*
X110671Y-37012D01*
X110645Y-37051D01*
X110632Y-37104D01*
X110632Y-37209D01*
X110645Y-37235D01*
X110658Y-37248D01*
X110684Y-37261D01*
X110737Y-37261D01*
X110763Y-37248D01*
X110776Y-37235D01*
X110789Y-37209D01*
X110789Y-37143D01*
X110776Y-37117D01*
X110763Y-37104D01*
X110737Y-37090D01*
X110684Y-37090D01*
X110658Y-37104D01*
X110645Y-37117D01*
X110632Y-37143D01*
X110907Y-37156D02*
X111117Y-37156D01*
X111367Y-37077D02*
X111367Y-37261D01*
X111301Y-36972D02*
X111235Y-37169D01*
X111406Y-37169D01*
G54D13*
X105709Y-27901D02*
X105709Y-28103D01*
X105721Y-28127D01*
X105733Y-28139D01*
X105757Y-28151D01*
X105804Y-28151D01*
X105828Y-28139D01*
X105840Y-28127D01*
X105852Y-28103D01*
X105852Y-27901D01*
X106078Y-27984D02*
X106078Y-28151D01*
X106019Y-27889D02*
X105959Y-28067D01*
X106114Y-28067D01*
X105721Y-27751D02*
X105721Y-27501D01*
X105804Y-27679D01*
X105888Y-27501D01*
X105888Y-27751D01*
X106150Y-27727D02*
X106138Y-27739D01*
X106102Y-27751D01*
X106078Y-27751D01*
X106042Y-27739D01*
X106019Y-27715D01*
X106007Y-27691D01*
X105995Y-27644D01*
X105995Y-27608D01*
X106007Y-27560D01*
X106019Y-27536D01*
X106042Y-27513D01*
X106078Y-27501D01*
X106102Y-27501D01*
X106138Y-27513D01*
X106150Y-27525D01*
X106257Y-27751D02*
X106257Y-27501D01*
X106352Y-27501D01*
X106376Y-27513D01*
X106388Y-27525D01*
X106400Y-27548D01*
X106400Y-27584D01*
X106388Y-27608D01*
X106376Y-27620D01*
X106352Y-27632D01*
X106257Y-27632D01*
X106483Y-27501D02*
X106650Y-27501D01*
X106542Y-27751D01*
X106721Y-27501D02*
X106876Y-27501D01*
X106792Y-27596D01*
X106828Y-27596D01*
X106852Y-27608D01*
X106864Y-27620D01*
X106876Y-27644D01*
X106876Y-27703D01*
X106864Y-27727D01*
X106852Y-27739D01*
X106828Y-27751D01*
X106757Y-27751D01*
X106733Y-27739D01*
X106721Y-27727D01*
X107019Y-27608D02*
X106995Y-27596D01*
X106983Y-27584D01*
X106971Y-27560D01*
X106971Y-27548D01*
X106983Y-27525D01*
X106995Y-27513D01*
X107019Y-27501D01*
X107066Y-27501D01*
X107090Y-27513D01*
X107102Y-27525D01*
X107114Y-27548D01*
X107114Y-27560D01*
X107102Y-27584D01*
X107090Y-27596D01*
X107066Y-27608D01*
X107019Y-27608D01*
X106995Y-27620D01*
X106983Y-27632D01*
X106971Y-27655D01*
X106971Y-27703D01*
X106983Y-27727D01*
X106995Y-27739D01*
X107019Y-27751D01*
X107066Y-27751D01*
X107090Y-27739D01*
X107102Y-27727D01*
X107114Y-27703D01*
X107114Y-27655D01*
X107102Y-27632D01*
X107090Y-27620D01*
X107066Y-27608D01*
X107197Y-27501D02*
X107352Y-27501D01*
X107269Y-27596D01*
X107304Y-27596D01*
X107328Y-27608D01*
X107340Y-27620D01*
X107352Y-27644D01*
X107352Y-27703D01*
X107340Y-27727D01*
X107328Y-27739D01*
X107304Y-27751D01*
X107233Y-27751D01*
X107209Y-27739D01*
X107197Y-27727D01*
X107590Y-27751D02*
X107447Y-27751D01*
X107519Y-27751D02*
X107519Y-27501D01*
X107495Y-27536D01*
X107471Y-27560D01*
X107447Y-27572D01*
G54D25*
X109485Y-29576D02*
X109420Y-29576D01*
X109420Y-29679D02*
X109420Y-29482D01*
X109513Y-29482D01*
X109654Y-29576D02*
X109682Y-29585D01*
X109692Y-29595D01*
X109701Y-29614D01*
X109701Y-29642D01*
X109692Y-29660D01*
X109682Y-29670D01*
X109664Y-29679D01*
X109589Y-29679D01*
X109589Y-29482D01*
X109654Y-29482D01*
X109673Y-29492D01*
X109682Y-29501D01*
X109692Y-29520D01*
X109692Y-29539D01*
X109682Y-29557D01*
X109673Y-29567D01*
X109654Y-29576D01*
X109589Y-29576D01*
X109889Y-29679D02*
X109776Y-29679D01*
X109832Y-29679D02*
X109832Y-29482D01*
X109814Y-29510D01*
X109795Y-29529D01*
X109776Y-29539D01*
X100760Y-29182D02*
X100770Y-29192D01*
X100779Y-29220D01*
X100779Y-29239D01*
X100770Y-29267D01*
X100751Y-29286D01*
X100732Y-29295D01*
X100695Y-29304D01*
X100667Y-29304D01*
X100629Y-29295D01*
X100610Y-29286D01*
X100592Y-29267D01*
X100582Y-29239D01*
X100582Y-29220D01*
X100592Y-29192D01*
X100601Y-29182D01*
X100582Y-29013D02*
X100582Y-29051D01*
X100592Y-29070D01*
X100601Y-29079D01*
X100629Y-29098D01*
X100667Y-29107D01*
X100742Y-29107D01*
X100760Y-29098D01*
X100770Y-29089D01*
X100779Y-29070D01*
X100779Y-29032D01*
X100770Y-29013D01*
X100760Y-29004D01*
X100742Y-28995D01*
X100695Y-28995D01*
X100676Y-29004D01*
X100667Y-29013D01*
X100657Y-29032D01*
X100657Y-29070D01*
X100667Y-29089D01*
X100676Y-29098D01*
X100695Y-29107D01*
X100582Y-30173D02*
X100582Y-30154D01*
X100592Y-30136D01*
X100601Y-30126D01*
X100620Y-30117D01*
X100657Y-30107D01*
X100704Y-30107D01*
X100742Y-30117D01*
X100760Y-30126D01*
X100770Y-30136D01*
X100779Y-30154D01*
X100779Y-30173D01*
X100770Y-30192D01*
X100760Y-30201D01*
X100742Y-30211D01*
X100704Y-30220D01*
X100657Y-30220D01*
X100620Y-30211D01*
X100601Y-30201D01*
X100592Y-30192D01*
X100582Y-30173D01*
X100760Y-30023D02*
X100770Y-30014D01*
X100779Y-30023D01*
X100770Y-30032D01*
X100760Y-30023D01*
X100779Y-30023D01*
X100779Y-29826D02*
X100779Y-29939D01*
X100779Y-29882D02*
X100582Y-29882D01*
X100610Y-29901D01*
X100629Y-29920D01*
X100639Y-29939D01*
X100648Y-29657D02*
X100779Y-29657D01*
X100648Y-29742D02*
X100751Y-29742D01*
X100770Y-29732D01*
X100779Y-29713D01*
X100779Y-29685D01*
X100770Y-29667D01*
X100760Y-29657D01*
X100676Y-29498D02*
X100676Y-29563D01*
X100779Y-29563D02*
X100582Y-29563D01*
X100582Y-29470D01*
X111779Y-34626D02*
X111685Y-34692D01*
X111779Y-34739D02*
X111582Y-34739D01*
X111582Y-34664D01*
X111592Y-34645D01*
X111601Y-34636D01*
X111620Y-34626D01*
X111648Y-34626D01*
X111667Y-34636D01*
X111676Y-34645D01*
X111685Y-34664D01*
X111685Y-34739D01*
X111779Y-34439D02*
X111779Y-34551D01*
X111779Y-34495D02*
X111582Y-34495D01*
X111610Y-34514D01*
X111629Y-34532D01*
X111639Y-34551D01*
X111582Y-34317D02*
X111582Y-34298D01*
X111592Y-34279D01*
X111601Y-34270D01*
X111620Y-34260D01*
X111657Y-34251D01*
X111704Y-34251D01*
X111742Y-34260D01*
X111760Y-34270D01*
X111770Y-34279D01*
X111779Y-34298D01*
X111779Y-34317D01*
X111770Y-34335D01*
X111760Y-34345D01*
X111742Y-34354D01*
X111704Y-34363D01*
X111657Y-34363D01*
X111620Y-34354D01*
X111601Y-34345D01*
X111592Y-34335D01*
X111582Y-34317D01*
X111779Y-35364D02*
X111779Y-35476D01*
X111779Y-35420D02*
X111582Y-35420D01*
X111610Y-35439D01*
X111629Y-35457D01*
X111639Y-35476D01*
X111760Y-35279D02*
X111770Y-35270D01*
X111779Y-35279D01*
X111770Y-35289D01*
X111760Y-35279D01*
X111779Y-35279D01*
X111582Y-35092D02*
X111582Y-35185D01*
X111676Y-35195D01*
X111667Y-35185D01*
X111657Y-35167D01*
X111657Y-35120D01*
X111667Y-35101D01*
X111676Y-35092D01*
X111695Y-35082D01*
X111742Y-35082D01*
X111760Y-35092D01*
X111770Y-35101D01*
X111779Y-35120D01*
X111779Y-35167D01*
X111770Y-35185D01*
X111760Y-35195D01*
X111779Y-34998D02*
X111582Y-34998D01*
X111704Y-34979D02*
X111779Y-34923D01*
X111648Y-34923D02*
X111723Y-34998D01*
X105417Y-28910D02*
X105407Y-28920D01*
X105379Y-28929D01*
X105360Y-28929D01*
X105332Y-28920D01*
X105313Y-28901D01*
X105304Y-28882D01*
X105295Y-28845D01*
X105295Y-28817D01*
X105304Y-28779D01*
X105313Y-28760D01*
X105332Y-28742D01*
X105360Y-28732D01*
X105379Y-28732D01*
X105407Y-28742D01*
X105417Y-28751D01*
X105604Y-28929D02*
X105492Y-28929D01*
X105548Y-28929D02*
X105548Y-28732D01*
X105529Y-28760D01*
X105510Y-28779D01*
X105492Y-28789D01*
X105373Y-29148D02*
X105373Y-29279D01*
X105326Y-29073D02*
X105279Y-29214D01*
X105401Y-29214D01*
X105476Y-29260D02*
X105485Y-29270D01*
X105476Y-29279D01*
X105467Y-29270D01*
X105476Y-29260D01*
X105476Y-29279D01*
X105551Y-29082D02*
X105682Y-29082D01*
X105598Y-29279D01*
X105842Y-29148D02*
X105842Y-29279D01*
X105757Y-29148D02*
X105757Y-29251D01*
X105767Y-29270D01*
X105786Y-29279D01*
X105814Y-29279D01*
X105832Y-29270D01*
X105842Y-29260D01*
X106001Y-29176D02*
X105936Y-29176D01*
X105936Y-29279D02*
X105936Y-29082D01*
X106029Y-29082D01*
X105817Y-25329D02*
X105751Y-25235D01*
X105704Y-25329D02*
X105704Y-25132D01*
X105779Y-25132D01*
X105798Y-25142D01*
X105807Y-25151D01*
X105817Y-25170D01*
X105817Y-25198D01*
X105807Y-25217D01*
X105798Y-25226D01*
X105779Y-25235D01*
X105704Y-25235D01*
X105892Y-25151D02*
X105901Y-25142D01*
X105920Y-25132D01*
X105967Y-25132D01*
X105986Y-25142D01*
X105995Y-25151D01*
X106004Y-25170D01*
X106004Y-25189D01*
X105995Y-25217D01*
X105882Y-25329D01*
X106004Y-25329D01*
X105699Y-25548D02*
X105699Y-25679D01*
X105653Y-25473D02*
X105606Y-25614D01*
X105728Y-25614D01*
X105784Y-25482D02*
X105915Y-25482D01*
X105831Y-25679D01*
X106028Y-25482D02*
X106047Y-25482D01*
X106065Y-25492D01*
X106075Y-25501D01*
X106084Y-25520D01*
X106093Y-25557D01*
X106093Y-25604D01*
X106084Y-25642D01*
X106075Y-25660D01*
X106065Y-25670D01*
X106047Y-25679D01*
X106028Y-25679D01*
X106009Y-25670D01*
X106000Y-25660D01*
X105990Y-25642D01*
X105981Y-25604D01*
X105981Y-25557D01*
X105990Y-25520D01*
X106000Y-25501D01*
X106009Y-25492D01*
X106028Y-25482D01*
X104823Y-30379D02*
X104757Y-30285D01*
X104710Y-30379D02*
X104710Y-30182D01*
X104785Y-30182D01*
X104804Y-30192D01*
X104813Y-30201D01*
X104823Y-30220D01*
X104823Y-30248D01*
X104813Y-30267D01*
X104804Y-30276D01*
X104785Y-30285D01*
X104710Y-30285D01*
X105010Y-30379D02*
X104898Y-30379D01*
X104954Y-30379D02*
X104954Y-30182D01*
X104935Y-30210D01*
X104917Y-30229D01*
X104898Y-30239D01*
X105198Y-30379D02*
X105086Y-30379D01*
X105142Y-30379D02*
X105142Y-30182D01*
X105123Y-30210D01*
X105104Y-30229D01*
X105086Y-30239D01*
X104063Y-30201D02*
X104073Y-30192D01*
X104092Y-30182D01*
X104139Y-30182D01*
X104157Y-30192D01*
X104167Y-30201D01*
X104176Y-30220D01*
X104176Y-30239D01*
X104167Y-30267D01*
X104054Y-30379D01*
X104176Y-30379D01*
X104260Y-30379D02*
X104260Y-30182D01*
X104279Y-30304D02*
X104336Y-30379D01*
X104336Y-30248D02*
X104260Y-30323D01*
X101179Y-34176D02*
X101085Y-34242D01*
X101179Y-34289D02*
X100982Y-34289D01*
X100982Y-34214D01*
X100992Y-34195D01*
X101001Y-34186D01*
X101020Y-34176D01*
X101048Y-34176D01*
X101067Y-34186D01*
X101076Y-34195D01*
X101085Y-34214D01*
X101085Y-34289D01*
X101179Y-33989D02*
X101179Y-34101D01*
X101179Y-34045D02*
X100982Y-34045D01*
X101010Y-34064D01*
X101029Y-34082D01*
X101039Y-34101D01*
X101001Y-33913D02*
X100992Y-33904D01*
X100982Y-33885D01*
X100982Y-33838D01*
X100992Y-33820D01*
X101001Y-33810D01*
X101020Y-33801D01*
X101039Y-33801D01*
X101067Y-33810D01*
X101179Y-33923D01*
X101179Y-33801D01*
X101179Y-34817D02*
X101179Y-34929D01*
X101179Y-34873D02*
X100982Y-34873D01*
X101010Y-34892D01*
X101029Y-34911D01*
X101039Y-34929D01*
X100982Y-34695D02*
X100982Y-34676D01*
X100992Y-34657D01*
X101001Y-34648D01*
X101020Y-34639D01*
X101057Y-34629D01*
X101104Y-34629D01*
X101142Y-34639D01*
X101160Y-34648D01*
X101170Y-34657D01*
X101179Y-34676D01*
X101179Y-34695D01*
X101170Y-34714D01*
X101160Y-34723D01*
X101142Y-34732D01*
X101104Y-34742D01*
X101057Y-34742D01*
X101020Y-34732D01*
X101001Y-34723D01*
X100992Y-34714D01*
X100982Y-34695D01*
X101179Y-34545D02*
X100982Y-34545D01*
X101104Y-34526D02*
X101179Y-34470D01*
X101048Y-34470D02*
X101123Y-34545D01*
X104773Y-32879D02*
X104707Y-32785D01*
X104660Y-32879D02*
X104660Y-32682D01*
X104735Y-32682D01*
X104754Y-32692D01*
X104763Y-32701D01*
X104773Y-32720D01*
X104773Y-32748D01*
X104763Y-32767D01*
X104754Y-32776D01*
X104735Y-32785D01*
X104660Y-32785D01*
X104960Y-32879D02*
X104848Y-32879D01*
X104904Y-32879D02*
X104904Y-32682D01*
X104885Y-32710D01*
X104867Y-32729D01*
X104848Y-32739D01*
X105139Y-32682D02*
X105045Y-32682D01*
X105036Y-32776D01*
X105045Y-32767D01*
X105064Y-32757D01*
X105111Y-32757D01*
X105129Y-32767D01*
X105139Y-32776D01*
X105148Y-32795D01*
X105148Y-32842D01*
X105139Y-32860D01*
X105129Y-32870D01*
X105111Y-32879D01*
X105064Y-32879D01*
X105045Y-32870D01*
X105036Y-32860D01*
X104132Y-32879D02*
X104020Y-32879D01*
X104076Y-32879D02*
X104076Y-32682D01*
X104057Y-32710D01*
X104038Y-32729D01*
X104020Y-32739D01*
X104254Y-32682D02*
X104273Y-32682D01*
X104292Y-32692D01*
X104301Y-32701D01*
X104310Y-32720D01*
X104320Y-32757D01*
X104320Y-32804D01*
X104310Y-32842D01*
X104301Y-32860D01*
X104292Y-32870D01*
X104273Y-32879D01*
X104254Y-32879D01*
X104235Y-32870D01*
X104226Y-32860D01*
X104217Y-32842D01*
X104207Y-32804D01*
X104207Y-32757D01*
X104217Y-32720D01*
X104226Y-32701D01*
X104235Y-32692D01*
X104254Y-32682D01*
X104404Y-32879D02*
X104404Y-32682D01*
X104423Y-32804D02*
X104479Y-32879D01*
X104479Y-32748D02*
X104404Y-32823D01*
X100579Y-35176D02*
X100485Y-35242D01*
X100579Y-35289D02*
X100382Y-35289D01*
X100382Y-35214D01*
X100392Y-35195D01*
X100401Y-35186D01*
X100420Y-35176D01*
X100448Y-35176D01*
X100467Y-35186D01*
X100476Y-35195D01*
X100485Y-35214D01*
X100485Y-35289D01*
X100579Y-34989D02*
X100579Y-35101D01*
X100579Y-35045D02*
X100382Y-35045D01*
X100410Y-35064D01*
X100429Y-35082D01*
X100439Y-35101D01*
X100448Y-34820D02*
X100579Y-34820D01*
X100373Y-34867D02*
X100514Y-34913D01*
X100514Y-34792D01*
X100279Y-35167D02*
X100279Y-35279D01*
X100279Y-35223D02*
X100082Y-35223D01*
X100110Y-35242D01*
X100129Y-35261D01*
X100139Y-35279D01*
X100082Y-35045D02*
X100082Y-35026D01*
X100092Y-35007D01*
X100101Y-34998D01*
X100120Y-34989D01*
X100157Y-34979D01*
X100204Y-34979D01*
X100242Y-34989D01*
X100260Y-34998D01*
X100270Y-35007D01*
X100279Y-35026D01*
X100279Y-35045D01*
X100270Y-35064D01*
X100260Y-35073D01*
X100242Y-35082D01*
X100204Y-35092D01*
X100157Y-35092D01*
X100120Y-35082D01*
X100101Y-35073D01*
X100092Y-35064D01*
X100082Y-35045D01*
X100279Y-34895D02*
X100082Y-34895D01*
X100204Y-34876D02*
X100279Y-34820D01*
X100148Y-34820D02*
X100223Y-34895D01*
X101179Y-32676D02*
X101085Y-32742D01*
X101179Y-32789D02*
X100982Y-32789D01*
X100982Y-32714D01*
X100992Y-32695D01*
X101001Y-32686D01*
X101020Y-32676D01*
X101048Y-32676D01*
X101067Y-32686D01*
X101076Y-32695D01*
X101085Y-32714D01*
X101085Y-32789D01*
X101179Y-32489D02*
X101179Y-32601D01*
X101179Y-32545D02*
X100982Y-32545D01*
X101010Y-32564D01*
X101029Y-32582D01*
X101039Y-32601D01*
X100982Y-32423D02*
X100982Y-32301D01*
X101057Y-32367D01*
X101057Y-32338D01*
X101067Y-32320D01*
X101076Y-32310D01*
X101095Y-32301D01*
X101142Y-32301D01*
X101160Y-32310D01*
X101170Y-32320D01*
X101179Y-32338D01*
X101179Y-32395D01*
X101170Y-32413D01*
X101160Y-32423D01*
X101179Y-33317D02*
X101179Y-33429D01*
X101179Y-33373D02*
X100982Y-33373D01*
X101010Y-33392D01*
X101029Y-33411D01*
X101039Y-33429D01*
X100982Y-33195D02*
X100982Y-33176D01*
X100992Y-33157D01*
X101001Y-33148D01*
X101020Y-33139D01*
X101057Y-33129D01*
X101104Y-33129D01*
X101142Y-33139D01*
X101160Y-33148D01*
X101170Y-33157D01*
X101179Y-33176D01*
X101179Y-33195D01*
X101170Y-33214D01*
X101160Y-33223D01*
X101142Y-33232D01*
X101104Y-33242D01*
X101057Y-33242D01*
X101020Y-33232D01*
X101001Y-33223D01*
X100992Y-33214D01*
X100982Y-33195D01*
X101179Y-33045D02*
X100982Y-33045D01*
X101104Y-33026D02*
X101179Y-32970D01*
X101048Y-32970D02*
X101123Y-33045D01*
X104629Y-35232D02*
X104535Y-35298D01*
X104629Y-35345D02*
X104432Y-35345D01*
X104432Y-35270D01*
X104442Y-35251D01*
X104451Y-35242D01*
X104470Y-35232D01*
X104498Y-35232D01*
X104517Y-35242D01*
X104526Y-35251D01*
X104535Y-35270D01*
X104535Y-35345D01*
X104629Y-35139D02*
X104629Y-35101D01*
X104620Y-35082D01*
X104610Y-35073D01*
X104582Y-35054D01*
X104545Y-35045D01*
X104470Y-35045D01*
X104451Y-35054D01*
X104442Y-35063D01*
X104432Y-35082D01*
X104432Y-35120D01*
X104442Y-35139D01*
X104451Y-35148D01*
X104470Y-35157D01*
X104517Y-35157D01*
X104535Y-35148D01*
X104545Y-35139D01*
X104554Y-35120D01*
X104554Y-35082D01*
X104545Y-35063D01*
X104535Y-35054D01*
X104517Y-35045D01*
X100117Y-28110D02*
X100107Y-28120D01*
X100079Y-28129D01*
X100060Y-28129D01*
X100032Y-28120D01*
X100013Y-28101D01*
X100004Y-28082D01*
X99995Y-28045D01*
X99995Y-28017D01*
X100004Y-27979D01*
X100013Y-27960D01*
X100032Y-27942D01*
X100060Y-27932D01*
X100079Y-27932D01*
X100107Y-27942D01*
X100117Y-27951D01*
X100295Y-27932D02*
X100201Y-27932D01*
X100192Y-28026D01*
X100201Y-28017D01*
X100220Y-28007D01*
X100267Y-28007D01*
X100286Y-28017D01*
X100295Y-28026D01*
X100304Y-28045D01*
X100304Y-28092D01*
X100295Y-28110D01*
X100286Y-28120D01*
X100267Y-28129D01*
X100220Y-28129D01*
X100201Y-28120D01*
X100192Y-28110D01*
X99510Y-28110D02*
X99501Y-28120D01*
X99473Y-28129D01*
X99454Y-28129D01*
X99426Y-28120D01*
X99407Y-28101D01*
X99398Y-28082D01*
X99389Y-28045D01*
X99389Y-28017D01*
X99398Y-27979D01*
X99407Y-27960D01*
X99426Y-27942D01*
X99454Y-27932D01*
X99473Y-27932D01*
X99501Y-27942D01*
X99510Y-27951D01*
G54D13*
X107907Y-26021D02*
X107764Y-26021D01*
X107764Y-25721D01*
X108007Y-25864D02*
X108107Y-25864D01*
X108150Y-26021D02*
X108007Y-26021D01*
X108007Y-25721D01*
X108150Y-25721D01*
X108278Y-26021D02*
X108278Y-25721D01*
X108350Y-25721D01*
X108392Y-25735D01*
X108421Y-25764D01*
X108435Y-25792D01*
X108450Y-25850D01*
X108450Y-25892D01*
X108435Y-25950D01*
X108421Y-25978D01*
X108392Y-26007D01*
X108350Y-26021D01*
X108278Y-26021D01*
G54D25*
X107773Y-34529D02*
X107707Y-34435D01*
X107660Y-34529D02*
X107660Y-34332D01*
X107735Y-34332D01*
X107754Y-34342D01*
X107763Y-34351D01*
X107773Y-34370D01*
X107773Y-34398D01*
X107763Y-34417D01*
X107754Y-34426D01*
X107735Y-34435D01*
X107660Y-34435D01*
X107960Y-34529D02*
X107848Y-34529D01*
X107904Y-34529D02*
X107904Y-34332D01*
X107885Y-34360D01*
X107867Y-34379D01*
X107848Y-34389D01*
X108026Y-34332D02*
X108157Y-34332D01*
X108073Y-34529D01*
X107082Y-34529D02*
X106970Y-34529D01*
X107026Y-34529D02*
X107026Y-34332D01*
X107007Y-34360D01*
X106988Y-34379D01*
X106970Y-34389D01*
X107204Y-34332D02*
X107223Y-34332D01*
X107242Y-34342D01*
X107251Y-34351D01*
X107260Y-34370D01*
X107270Y-34407D01*
X107270Y-34454D01*
X107260Y-34492D01*
X107251Y-34510D01*
X107242Y-34520D01*
X107223Y-34529D01*
X107204Y-34529D01*
X107185Y-34520D01*
X107176Y-34510D01*
X107167Y-34492D01*
X107157Y-34454D01*
X107157Y-34407D01*
X107167Y-34370D01*
X107176Y-34351D01*
X107185Y-34342D01*
X107204Y-34332D01*
X107354Y-34529D02*
X107354Y-34332D01*
X107373Y-34454D02*
X107429Y-34529D01*
X107429Y-34398D02*
X107354Y-34473D01*
X106223Y-34529D02*
X106157Y-34435D01*
X106110Y-34529D02*
X106110Y-34332D01*
X106185Y-34332D01*
X106204Y-34342D01*
X106213Y-34351D01*
X106223Y-34370D01*
X106223Y-34398D01*
X106213Y-34417D01*
X106204Y-34426D01*
X106185Y-34435D01*
X106110Y-34435D01*
X106410Y-34529D02*
X106298Y-34529D01*
X106354Y-34529D02*
X106354Y-34332D01*
X106335Y-34360D01*
X106317Y-34379D01*
X106298Y-34389D01*
X106579Y-34332D02*
X106542Y-34332D01*
X106523Y-34342D01*
X106514Y-34351D01*
X106495Y-34379D01*
X106486Y-34417D01*
X106486Y-34492D01*
X106495Y-34510D01*
X106504Y-34520D01*
X106523Y-34529D01*
X106561Y-34529D01*
X106579Y-34520D01*
X106589Y-34510D01*
X106598Y-34492D01*
X106598Y-34445D01*
X106589Y-34426D01*
X106579Y-34417D01*
X106561Y-34407D01*
X106523Y-34407D01*
X106504Y-34417D01*
X106495Y-34426D01*
X106486Y-34445D01*
X105582Y-34529D02*
X105470Y-34529D01*
X105526Y-34529D02*
X105526Y-34332D01*
X105507Y-34360D01*
X105488Y-34379D01*
X105470Y-34389D01*
X105704Y-34332D02*
X105723Y-34332D01*
X105742Y-34342D01*
X105751Y-34351D01*
X105760Y-34370D01*
X105770Y-34407D01*
X105770Y-34454D01*
X105760Y-34492D01*
X105751Y-34510D01*
X105742Y-34520D01*
X105723Y-34529D01*
X105704Y-34529D01*
X105685Y-34520D01*
X105676Y-34510D01*
X105667Y-34492D01*
X105657Y-34454D01*
X105657Y-34407D01*
X105667Y-34370D01*
X105676Y-34351D01*
X105685Y-34342D01*
X105704Y-34332D01*
X105854Y-34529D02*
X105854Y-34332D01*
X105873Y-34454D02*
X105929Y-34529D01*
X105929Y-34398D02*
X105854Y-34473D01*
G54D24*
X100321Y-44750D02*
X100292Y-44735D01*
X100264Y-44707D01*
X100221Y-44664D01*
X100192Y-44650D01*
X100164Y-44650D01*
X100178Y-44721D02*
X100150Y-44707D01*
X100121Y-44678D01*
X100107Y-44621D01*
X100107Y-44521D01*
X100121Y-44464D01*
X100150Y-44435D01*
X100178Y-44421D01*
X100235Y-44421D01*
X100264Y-44435D01*
X100292Y-44464D01*
X100307Y-44521D01*
X100307Y-44621D01*
X100292Y-44678D01*
X100264Y-44707D01*
X100235Y-44721D01*
X100178Y-44721D01*
X100578Y-44421D02*
X100435Y-44421D01*
X100421Y-44564D01*
X100435Y-44550D01*
X100464Y-44535D01*
X100535Y-44535D01*
X100564Y-44550D01*
X100578Y-44564D01*
X100592Y-44592D01*
X100592Y-44664D01*
X100578Y-44692D01*
X100564Y-44707D01*
X100535Y-44721D01*
X100464Y-44721D01*
X100435Y-44707D01*
X100421Y-44692D01*
X109721Y-42300D02*
X109692Y-42285D01*
X109664Y-42257D01*
X109621Y-42214D01*
X109592Y-42200D01*
X109564Y-42200D01*
X109578Y-42271D02*
X109550Y-42257D01*
X109521Y-42228D01*
X109507Y-42171D01*
X109507Y-42071D01*
X109521Y-42014D01*
X109550Y-41985D01*
X109578Y-41971D01*
X109635Y-41971D01*
X109664Y-41985D01*
X109692Y-42014D01*
X109707Y-42071D01*
X109707Y-42171D01*
X109692Y-42228D01*
X109664Y-42257D01*
X109635Y-42271D01*
X109578Y-42271D01*
X109964Y-41971D02*
X109907Y-41971D01*
X109878Y-41985D01*
X109864Y-42000D01*
X109835Y-42042D01*
X109821Y-42100D01*
X109821Y-42214D01*
X109835Y-42242D01*
X109850Y-42257D01*
X109878Y-42271D01*
X109935Y-42271D01*
X109964Y-42257D01*
X109978Y-42242D01*
X109992Y-42214D01*
X109992Y-42142D01*
X109978Y-42114D01*
X109964Y-42100D01*
X109935Y-42085D01*
X109878Y-42085D01*
X109850Y-42100D01*
X109835Y-42114D01*
X109821Y-42142D01*
X103771Y-42300D02*
X103742Y-42285D01*
X103714Y-42257D01*
X103671Y-42214D01*
X103642Y-42200D01*
X103614Y-42200D01*
X103628Y-42271D02*
X103600Y-42257D01*
X103571Y-42228D01*
X103557Y-42171D01*
X103557Y-42071D01*
X103571Y-42014D01*
X103600Y-41985D01*
X103628Y-41971D01*
X103685Y-41971D01*
X103714Y-41985D01*
X103742Y-42014D01*
X103757Y-42071D01*
X103757Y-42171D01*
X103742Y-42228D01*
X103714Y-42257D01*
X103685Y-42271D01*
X103628Y-42271D01*
X103857Y-41971D02*
X104042Y-41971D01*
X103942Y-42085D01*
X103985Y-42085D01*
X104014Y-42100D01*
X104028Y-42114D01*
X104042Y-42142D01*
X104042Y-42214D01*
X104028Y-42242D01*
X104014Y-42257D01*
X103985Y-42271D01*
X103900Y-42271D01*
X103871Y-42257D01*
X103857Y-42242D01*
X100321Y-42300D02*
X100292Y-42285D01*
X100264Y-42257D01*
X100221Y-42214D01*
X100192Y-42200D01*
X100164Y-42200D01*
X100178Y-42271D02*
X100150Y-42257D01*
X100121Y-42228D01*
X100107Y-42171D01*
X100107Y-42071D01*
X100121Y-42014D01*
X100150Y-41985D01*
X100178Y-41971D01*
X100235Y-41971D01*
X100264Y-41985D01*
X100292Y-42014D01*
X100307Y-42071D01*
X100307Y-42171D01*
X100292Y-42228D01*
X100264Y-42257D01*
X100235Y-42271D01*
X100178Y-42271D01*
X100564Y-42071D02*
X100564Y-42271D01*
X100492Y-41957D02*
X100421Y-42171D01*
X100607Y-42171D01*
X106371Y-50250D02*
X106342Y-50235D01*
X106314Y-50207D01*
X106271Y-50164D01*
X106242Y-50150D01*
X106214Y-50150D01*
X106228Y-50221D02*
X106200Y-50207D01*
X106171Y-50178D01*
X106157Y-50121D01*
X106157Y-50021D01*
X106171Y-49964D01*
X106200Y-49935D01*
X106228Y-49921D01*
X106285Y-49921D01*
X106314Y-49935D01*
X106342Y-49964D01*
X106357Y-50021D01*
X106357Y-50121D01*
X106342Y-50178D01*
X106314Y-50207D01*
X106285Y-50221D01*
X106228Y-50221D01*
X106642Y-50221D02*
X106471Y-50221D01*
X106557Y-50221D02*
X106557Y-49921D01*
X106528Y-49964D01*
X106500Y-49992D01*
X106471Y-50007D01*
X102071Y-42300D02*
X102042Y-42285D01*
X102014Y-42257D01*
X101971Y-42214D01*
X101942Y-42200D01*
X101914Y-42200D01*
X101928Y-42271D02*
X101900Y-42257D01*
X101871Y-42228D01*
X101857Y-42171D01*
X101857Y-42071D01*
X101871Y-42014D01*
X101900Y-41985D01*
X101928Y-41971D01*
X101985Y-41971D01*
X102014Y-41985D01*
X102042Y-42014D01*
X102057Y-42071D01*
X102057Y-42171D01*
X102042Y-42228D01*
X102014Y-42257D01*
X101985Y-42271D01*
X101928Y-42271D01*
X102171Y-42000D02*
X102185Y-41985D01*
X102214Y-41971D01*
X102285Y-41971D01*
X102314Y-41985D01*
X102328Y-42000D01*
X102342Y-42028D01*
X102342Y-42057D01*
X102328Y-42100D01*
X102157Y-42271D01*
X102342Y-42271D01*
G54D26*
X100921Y-51671D02*
X100921Y-51914D01*
X100935Y-51942D01*
X100950Y-51957D01*
X100978Y-51971D01*
X101035Y-51971D01*
X101064Y-51957D01*
X101078Y-51942D01*
X101092Y-51914D01*
X101092Y-51671D01*
X101221Y-51700D02*
X101235Y-51685D01*
X101264Y-51671D01*
X101335Y-51671D01*
X101364Y-51685D01*
X101378Y-51700D01*
X101392Y-51728D01*
X101392Y-51757D01*
X101378Y-51800D01*
X101207Y-51971D01*
X101392Y-51971D01*
G54D27*
X100319Y-51185D02*
X100319Y-51409D01*
X100332Y-51435D01*
X100346Y-51448D01*
X100372Y-51461D01*
X100424Y-51461D01*
X100451Y-51448D01*
X100464Y-51435D01*
X100477Y-51409D01*
X100477Y-51185D01*
X100595Y-51448D02*
X100634Y-51461D01*
X100700Y-51461D01*
X100726Y-51448D01*
X100739Y-51435D01*
X100752Y-51409D01*
X100752Y-51382D01*
X100739Y-51356D01*
X100726Y-51343D01*
X100700Y-51330D01*
X100647Y-51317D01*
X100621Y-51304D01*
X100608Y-51290D01*
X100595Y-51264D01*
X100595Y-51238D01*
X100608Y-51212D01*
X100621Y-51199D01*
X100647Y-51185D01*
X100713Y-51185D01*
X100752Y-51199D01*
X100962Y-51317D02*
X101002Y-51330D01*
X101015Y-51343D01*
X101028Y-51369D01*
X101028Y-51409D01*
X101015Y-51435D01*
X101002Y-51448D01*
X100975Y-51461D01*
X100870Y-51461D01*
X100870Y-51185D01*
X100962Y-51185D01*
X100989Y-51199D01*
X101002Y-51212D01*
X101015Y-51238D01*
X101015Y-51264D01*
X101002Y-51290D01*
X100989Y-51304D01*
X100962Y-51317D01*
X100870Y-51317D01*
X101277Y-51461D02*
X101146Y-51461D01*
X101146Y-51185D01*
X101527Y-51435D02*
X101514Y-51448D01*
X101474Y-51461D01*
X101448Y-51461D01*
X101409Y-51448D01*
X101382Y-51422D01*
X101369Y-51395D01*
X101356Y-51343D01*
X101356Y-51304D01*
X101369Y-51251D01*
X101382Y-51225D01*
X101409Y-51199D01*
X101448Y-51185D01*
X101474Y-51185D01*
X101514Y-51199D01*
X101527Y-51212D01*
X101763Y-51185D02*
X101710Y-51185D01*
X101684Y-51199D01*
X101671Y-51212D01*
X101645Y-51251D01*
X101632Y-51304D01*
X101632Y-51409D01*
X101645Y-51435D01*
X101658Y-51448D01*
X101684Y-51461D01*
X101737Y-51461D01*
X101763Y-51448D01*
X101776Y-51435D01*
X101789Y-51409D01*
X101789Y-51343D01*
X101776Y-51317D01*
X101763Y-51304D01*
X101737Y-51290D01*
X101684Y-51290D01*
X101658Y-51304D01*
X101645Y-51317D01*
X101632Y-51343D01*
X101907Y-51356D02*
X102117Y-51356D01*
X102367Y-51277D02*
X102367Y-51461D01*
X102301Y-51172D02*
X102235Y-51369D01*
X102406Y-51369D01*
G54D13*
X106809Y-47151D02*
X106809Y-47353D01*
X106821Y-47377D01*
X106833Y-47389D01*
X106857Y-47401D01*
X106904Y-47401D01*
X106928Y-47389D01*
X106940Y-47377D01*
X106952Y-47353D01*
X106952Y-47151D01*
X107202Y-47401D02*
X107059Y-47401D01*
X107130Y-47401D02*
X107130Y-47151D01*
X107107Y-47186D01*
X107083Y-47210D01*
X107059Y-47222D01*
X106821Y-47801D02*
X106821Y-47551D01*
X106964Y-47801D01*
X106964Y-47551D01*
X107226Y-47777D02*
X107214Y-47789D01*
X107178Y-47801D01*
X107154Y-47801D01*
X107119Y-47789D01*
X107095Y-47765D01*
X107083Y-47741D01*
X107071Y-47694D01*
X107071Y-47658D01*
X107083Y-47610D01*
X107095Y-47586D01*
X107119Y-47563D01*
X107154Y-47551D01*
X107178Y-47551D01*
X107214Y-47563D01*
X107226Y-47575D01*
X107333Y-47801D02*
X107333Y-47551D01*
X107428Y-47551D01*
X107452Y-47563D01*
X107464Y-47575D01*
X107476Y-47598D01*
X107476Y-47634D01*
X107464Y-47658D01*
X107452Y-47670D01*
X107428Y-47682D01*
X107333Y-47682D01*
X107702Y-47551D02*
X107583Y-47551D01*
X107571Y-47670D01*
X107583Y-47658D01*
X107607Y-47646D01*
X107666Y-47646D01*
X107690Y-47658D01*
X107702Y-47670D01*
X107714Y-47694D01*
X107714Y-47753D01*
X107702Y-47777D01*
X107690Y-47789D01*
X107666Y-47801D01*
X107607Y-47801D01*
X107583Y-47789D01*
X107571Y-47777D01*
X107940Y-47551D02*
X107821Y-47551D01*
X107809Y-47670D01*
X107821Y-47658D01*
X107845Y-47646D01*
X107904Y-47646D01*
X107928Y-47658D01*
X107940Y-47670D01*
X107952Y-47694D01*
X107952Y-47753D01*
X107940Y-47777D01*
X107928Y-47789D01*
X107904Y-47801D01*
X107845Y-47801D01*
X107821Y-47789D01*
X107809Y-47777D01*
X108190Y-47801D02*
X108047Y-47801D01*
X108119Y-47801D02*
X108119Y-47551D01*
X108095Y-47586D01*
X108071Y-47610D01*
X108047Y-47622D01*
X102859Y-47851D02*
X102859Y-48053D01*
X102871Y-48077D01*
X102883Y-48089D01*
X102907Y-48101D01*
X102954Y-48101D01*
X102978Y-48089D01*
X102990Y-48077D01*
X103002Y-48053D01*
X103002Y-47851D01*
X103097Y-47851D02*
X103252Y-47851D01*
X103169Y-47946D01*
X103204Y-47946D01*
X103228Y-47958D01*
X103240Y-47970D01*
X103252Y-47994D01*
X103252Y-48053D01*
X103240Y-48077D01*
X103228Y-48089D01*
X103204Y-48101D01*
X103133Y-48101D01*
X103109Y-48089D01*
X103097Y-48077D01*
X101421Y-47751D02*
X101421Y-47501D01*
X101504Y-47679D01*
X101588Y-47501D01*
X101588Y-47751D01*
X101850Y-47727D02*
X101838Y-47739D01*
X101802Y-47751D01*
X101778Y-47751D01*
X101742Y-47739D01*
X101719Y-47715D01*
X101707Y-47691D01*
X101695Y-47644D01*
X101695Y-47608D01*
X101707Y-47560D01*
X101719Y-47536D01*
X101742Y-47513D01*
X101778Y-47501D01*
X101802Y-47501D01*
X101838Y-47513D01*
X101850Y-47525D01*
X101957Y-47751D02*
X101957Y-47501D01*
X102052Y-47501D01*
X102076Y-47513D01*
X102088Y-47525D01*
X102100Y-47548D01*
X102100Y-47584D01*
X102088Y-47608D01*
X102076Y-47620D01*
X102052Y-47632D01*
X101957Y-47632D01*
X102183Y-47501D02*
X102350Y-47501D01*
X102242Y-47751D01*
X102421Y-47501D02*
X102576Y-47501D01*
X102492Y-47596D01*
X102528Y-47596D01*
X102552Y-47608D01*
X102564Y-47620D01*
X102576Y-47644D01*
X102576Y-47703D01*
X102564Y-47727D01*
X102552Y-47739D01*
X102528Y-47751D01*
X102457Y-47751D01*
X102433Y-47739D01*
X102421Y-47727D01*
X102719Y-47608D02*
X102695Y-47596D01*
X102683Y-47584D01*
X102671Y-47560D01*
X102671Y-47548D01*
X102683Y-47525D01*
X102695Y-47513D01*
X102719Y-47501D01*
X102766Y-47501D01*
X102790Y-47513D01*
X102802Y-47525D01*
X102814Y-47548D01*
X102814Y-47560D01*
X102802Y-47584D01*
X102790Y-47596D01*
X102766Y-47608D01*
X102719Y-47608D01*
X102695Y-47620D01*
X102683Y-47632D01*
X102671Y-47655D01*
X102671Y-47703D01*
X102683Y-47727D01*
X102695Y-47739D01*
X102719Y-47751D01*
X102766Y-47751D01*
X102790Y-47739D01*
X102802Y-47727D01*
X102814Y-47703D01*
X102814Y-47655D01*
X102802Y-47632D01*
X102790Y-47620D01*
X102766Y-47608D01*
X102897Y-47501D02*
X103052Y-47501D01*
X102969Y-47596D01*
X103004Y-47596D01*
X103028Y-47608D01*
X103040Y-47620D01*
X103052Y-47644D01*
X103052Y-47703D01*
X103040Y-47727D01*
X103028Y-47739D01*
X103004Y-47751D01*
X102933Y-47751D01*
X102909Y-47739D01*
X102897Y-47727D01*
X103290Y-47751D02*
X103147Y-47751D01*
X103219Y-47751D02*
X103219Y-47501D01*
X103195Y-47536D01*
X103171Y-47560D01*
X103147Y-47572D01*
G54D25*
X103717Y-47679D02*
X103651Y-47585D01*
X103604Y-47679D02*
X103604Y-47482D01*
X103679Y-47482D01*
X103698Y-47492D01*
X103707Y-47501D01*
X103717Y-47520D01*
X103717Y-47548D01*
X103707Y-47567D01*
X103698Y-47576D01*
X103679Y-47585D01*
X103604Y-47585D01*
X103792Y-47501D02*
X103801Y-47492D01*
X103820Y-47482D01*
X103867Y-47482D01*
X103886Y-47492D01*
X103895Y-47501D01*
X103904Y-47520D01*
X103904Y-47539D01*
X103895Y-47567D01*
X103782Y-47679D01*
X103904Y-47679D01*
X103582Y-48029D02*
X103470Y-48029D01*
X103526Y-48029D02*
X103526Y-47832D01*
X103507Y-47860D01*
X103488Y-47879D01*
X103470Y-47889D01*
X103704Y-47832D02*
X103723Y-47832D01*
X103742Y-47842D01*
X103751Y-47851D01*
X103760Y-47870D01*
X103770Y-47907D01*
X103770Y-47954D01*
X103760Y-47992D01*
X103751Y-48010D01*
X103742Y-48020D01*
X103723Y-48029D01*
X103704Y-48029D01*
X103685Y-48020D01*
X103676Y-48010D01*
X103667Y-47992D01*
X103657Y-47954D01*
X103657Y-47907D01*
X103667Y-47870D01*
X103676Y-47851D01*
X103685Y-47842D01*
X103704Y-47832D01*
X103854Y-48029D02*
X103854Y-47832D01*
X103873Y-47954D02*
X103929Y-48029D01*
X103929Y-47898D02*
X103854Y-47973D01*
X103967Y-44229D02*
X103901Y-44135D01*
X103854Y-44229D02*
X103854Y-44032D01*
X103929Y-44032D01*
X103948Y-44042D01*
X103957Y-44051D01*
X103967Y-44070D01*
X103967Y-44098D01*
X103957Y-44117D01*
X103948Y-44126D01*
X103929Y-44135D01*
X103854Y-44135D01*
X104079Y-44117D02*
X104060Y-44107D01*
X104051Y-44098D01*
X104042Y-44079D01*
X104042Y-44070D01*
X104051Y-44051D01*
X104060Y-44042D01*
X104079Y-44032D01*
X104117Y-44032D01*
X104136Y-44042D01*
X104145Y-44051D01*
X104154Y-44070D01*
X104154Y-44079D01*
X104145Y-44098D01*
X104136Y-44107D01*
X104117Y-44117D01*
X104079Y-44117D01*
X104060Y-44126D01*
X104051Y-44135D01*
X104042Y-44154D01*
X104042Y-44192D01*
X104051Y-44210D01*
X104060Y-44220D01*
X104079Y-44229D01*
X104117Y-44229D01*
X104136Y-44220D01*
X104145Y-44210D01*
X104154Y-44192D01*
X104154Y-44154D01*
X104145Y-44135D01*
X104136Y-44126D01*
X104117Y-44117D01*
X104532Y-44229D02*
X104420Y-44229D01*
X104476Y-44229D02*
X104476Y-44032D01*
X104457Y-44060D01*
X104438Y-44079D01*
X104420Y-44089D01*
X104654Y-44032D02*
X104673Y-44032D01*
X104692Y-44042D01*
X104701Y-44051D01*
X104710Y-44070D01*
X104720Y-44107D01*
X104720Y-44154D01*
X104710Y-44192D01*
X104701Y-44210D01*
X104692Y-44220D01*
X104673Y-44229D01*
X104654Y-44229D01*
X104635Y-44220D01*
X104626Y-44210D01*
X104617Y-44192D01*
X104607Y-44154D01*
X104607Y-44107D01*
X104617Y-44070D01*
X104626Y-44051D01*
X104635Y-44042D01*
X104654Y-44032D01*
X104804Y-44229D02*
X104804Y-44032D01*
X104823Y-44154D02*
X104879Y-44229D01*
X104879Y-44098D02*
X104804Y-44173D01*
X111917Y-47179D02*
X111851Y-47085D01*
X111804Y-47179D02*
X111804Y-46982D01*
X111879Y-46982D01*
X111898Y-46992D01*
X111907Y-47001D01*
X111917Y-47020D01*
X111917Y-47048D01*
X111907Y-47067D01*
X111898Y-47076D01*
X111879Y-47085D01*
X111804Y-47085D01*
X112086Y-47048D02*
X112086Y-47179D01*
X112039Y-46973D02*
X111992Y-47114D01*
X112114Y-47114D01*
X111035Y-47179D02*
X110923Y-47179D01*
X110979Y-47179D02*
X110979Y-46982D01*
X110960Y-47010D01*
X110942Y-47029D01*
X110923Y-47039D01*
X111120Y-47160D02*
X111129Y-47170D01*
X111120Y-47179D01*
X111110Y-47170D01*
X111120Y-47160D01*
X111120Y-47179D01*
X111307Y-46982D02*
X111214Y-46982D01*
X111204Y-47076D01*
X111214Y-47067D01*
X111232Y-47057D01*
X111279Y-47057D01*
X111298Y-47067D01*
X111307Y-47076D01*
X111317Y-47095D01*
X111317Y-47142D01*
X111307Y-47160D01*
X111298Y-47170D01*
X111279Y-47179D01*
X111232Y-47179D01*
X111214Y-47170D01*
X111204Y-47160D01*
X111401Y-47179D02*
X111401Y-46982D01*
X111420Y-47104D02*
X111476Y-47179D01*
X111476Y-47048D02*
X111401Y-47123D01*
X104210Y-48482D02*
X104220Y-48492D01*
X104229Y-48520D01*
X104229Y-48539D01*
X104220Y-48567D01*
X104201Y-48586D01*
X104182Y-48595D01*
X104145Y-48604D01*
X104117Y-48604D01*
X104079Y-48595D01*
X104060Y-48586D01*
X104042Y-48567D01*
X104032Y-48539D01*
X104032Y-48520D01*
X104042Y-48492D01*
X104051Y-48482D01*
X104032Y-48304D02*
X104032Y-48398D01*
X104126Y-48407D01*
X104117Y-48398D01*
X104107Y-48379D01*
X104107Y-48332D01*
X104117Y-48313D01*
X104126Y-48304D01*
X104145Y-48295D01*
X104192Y-48295D01*
X104210Y-48304D01*
X104220Y-48313D01*
X104229Y-48332D01*
X104229Y-48379D01*
X104220Y-48398D01*
X104210Y-48407D01*
X104098Y-49376D02*
X104229Y-49376D01*
X104023Y-49423D02*
X104164Y-49470D01*
X104164Y-49348D01*
X104210Y-49273D02*
X104220Y-49264D01*
X104229Y-49273D01*
X104220Y-49282D01*
X104210Y-49273D01*
X104229Y-49273D01*
X104032Y-49198D02*
X104032Y-49067D01*
X104229Y-49151D01*
X104098Y-48907D02*
X104229Y-48907D01*
X104098Y-48992D02*
X104201Y-48992D01*
X104220Y-48982D01*
X104229Y-48963D01*
X104229Y-48935D01*
X104220Y-48917D01*
X104210Y-48907D01*
X104126Y-48748D02*
X104126Y-48813D01*
X104229Y-48813D02*
X104032Y-48813D01*
X104032Y-48720D01*
X101579Y-48432D02*
X101485Y-48498D01*
X101579Y-48545D02*
X101382Y-48545D01*
X101382Y-48470D01*
X101392Y-48451D01*
X101401Y-48442D01*
X101420Y-48432D01*
X101448Y-48432D01*
X101467Y-48442D01*
X101476Y-48451D01*
X101485Y-48470D01*
X101485Y-48545D01*
X101382Y-48263D02*
X101382Y-48301D01*
X101392Y-48320D01*
X101401Y-48329D01*
X101429Y-48348D01*
X101467Y-48357D01*
X101542Y-48357D01*
X101560Y-48348D01*
X101570Y-48339D01*
X101579Y-48320D01*
X101579Y-48282D01*
X101570Y-48263D01*
X101560Y-48254D01*
X101542Y-48245D01*
X101495Y-48245D01*
X101476Y-48254D01*
X101467Y-48263D01*
X101457Y-48282D01*
X101457Y-48320D01*
X101467Y-48339D01*
X101476Y-48348D01*
X101495Y-48357D01*
X101401Y-49236D02*
X101392Y-49226D01*
X101382Y-49207D01*
X101382Y-49160D01*
X101392Y-49142D01*
X101401Y-49132D01*
X101420Y-49123D01*
X101439Y-49123D01*
X101467Y-49132D01*
X101579Y-49245D01*
X101579Y-49123D01*
X101579Y-49039D02*
X101382Y-49039D01*
X101504Y-49020D02*
X101579Y-48963D01*
X101448Y-48963D02*
X101523Y-49039D01*
X104179Y-50382D02*
X104085Y-50448D01*
X104179Y-50495D02*
X103982Y-50495D01*
X103982Y-50420D01*
X103992Y-50401D01*
X104001Y-50392D01*
X104020Y-50382D01*
X104048Y-50382D01*
X104067Y-50392D01*
X104076Y-50401D01*
X104085Y-50420D01*
X104085Y-50495D01*
X103982Y-50317D02*
X103982Y-50195D01*
X104057Y-50260D01*
X104057Y-50232D01*
X104067Y-50213D01*
X104076Y-50204D01*
X104095Y-50195D01*
X104142Y-50195D01*
X104160Y-50204D01*
X104170Y-50213D01*
X104179Y-50232D01*
X104179Y-50289D01*
X104170Y-50307D01*
X104160Y-50317D01*
X104048Y-51250D02*
X104179Y-51250D01*
X103973Y-51296D02*
X104114Y-51343D01*
X104114Y-51221D01*
X103982Y-51165D02*
X103982Y-51034D01*
X104179Y-51118D01*
X103982Y-50921D02*
X103982Y-50903D01*
X103992Y-50884D01*
X104001Y-50874D01*
X104020Y-50865D01*
X104057Y-50856D01*
X104104Y-50856D01*
X104142Y-50865D01*
X104160Y-50874D01*
X104170Y-50884D01*
X104179Y-50903D01*
X104179Y-50921D01*
X104170Y-50940D01*
X104160Y-50949D01*
X104142Y-50959D01*
X104104Y-50968D01*
X104057Y-50968D01*
X104020Y-50959D01*
X104001Y-50949D01*
X103992Y-50940D01*
X103982Y-50921D01*
X100517Y-44229D02*
X100451Y-44135D01*
X100404Y-44229D02*
X100404Y-44032D01*
X100479Y-44032D01*
X100498Y-44042D01*
X100507Y-44051D01*
X100517Y-44070D01*
X100517Y-44098D01*
X100507Y-44117D01*
X100498Y-44126D01*
X100479Y-44135D01*
X100404Y-44135D01*
X100610Y-44229D02*
X100648Y-44229D01*
X100667Y-44220D01*
X100676Y-44210D01*
X100695Y-44182D01*
X100704Y-44145D01*
X100704Y-44070D01*
X100695Y-44051D01*
X100686Y-44042D01*
X100667Y-44032D01*
X100629Y-44032D01*
X100610Y-44042D01*
X100601Y-44051D01*
X100592Y-44070D01*
X100592Y-44117D01*
X100601Y-44135D01*
X100610Y-44145D01*
X100629Y-44154D01*
X100667Y-44154D01*
X100686Y-44145D01*
X100695Y-44135D01*
X100704Y-44117D01*
X101182Y-44229D02*
X101070Y-44229D01*
X101126Y-44229D02*
X101126Y-44032D01*
X101107Y-44060D01*
X101088Y-44079D01*
X101070Y-44089D01*
X101304Y-44032D02*
X101323Y-44032D01*
X101342Y-44042D01*
X101351Y-44051D01*
X101360Y-44070D01*
X101370Y-44107D01*
X101370Y-44154D01*
X101360Y-44192D01*
X101351Y-44210D01*
X101342Y-44220D01*
X101323Y-44229D01*
X101304Y-44229D01*
X101285Y-44220D01*
X101276Y-44210D01*
X101267Y-44192D01*
X101257Y-44154D01*
X101257Y-44107D01*
X101267Y-44070D01*
X101276Y-44051D01*
X101285Y-44042D01*
X101304Y-44032D01*
X101454Y-44229D02*
X101454Y-44032D01*
X101473Y-44154D02*
X101529Y-44229D01*
X101529Y-44098D02*
X101454Y-44173D01*
X103717Y-46260D02*
X103707Y-46270D01*
X103679Y-46279D01*
X103660Y-46279D01*
X103632Y-46270D01*
X103613Y-46251D01*
X103604Y-46232D01*
X103595Y-46195D01*
X103595Y-46167D01*
X103604Y-46129D01*
X103613Y-46110D01*
X103632Y-46092D01*
X103660Y-46082D01*
X103679Y-46082D01*
X103707Y-46092D01*
X103717Y-46101D01*
X103886Y-46148D02*
X103886Y-46279D01*
X103839Y-46073D02*
X103792Y-46214D01*
X103914Y-46214D01*
X103226Y-46432D02*
X103245Y-46432D01*
X103263Y-46442D01*
X103273Y-46451D01*
X103282Y-46470D01*
X103292Y-46507D01*
X103292Y-46554D01*
X103282Y-46592D01*
X103273Y-46610D01*
X103263Y-46620D01*
X103245Y-46629D01*
X103226Y-46629D01*
X103207Y-46620D01*
X103198Y-46610D01*
X103188Y-46592D01*
X103179Y-46554D01*
X103179Y-46507D01*
X103188Y-46470D01*
X103198Y-46451D01*
X103207Y-46442D01*
X103226Y-46432D01*
X103376Y-46610D02*
X103385Y-46620D01*
X103376Y-46629D01*
X103367Y-46620D01*
X103376Y-46610D01*
X103376Y-46629D01*
X103573Y-46629D02*
X103460Y-46629D01*
X103517Y-46629D02*
X103517Y-46432D01*
X103498Y-46460D01*
X103479Y-46479D01*
X103460Y-46489D01*
X103742Y-46498D02*
X103742Y-46629D01*
X103657Y-46498D02*
X103657Y-46601D01*
X103667Y-46620D01*
X103686Y-46629D01*
X103714Y-46629D01*
X103732Y-46620D01*
X103742Y-46610D01*
X103901Y-46526D02*
X103836Y-46526D01*
X103836Y-46629D02*
X103836Y-46432D01*
X103929Y-46432D01*
X103717Y-46979D02*
X103651Y-46885D01*
X103604Y-46979D02*
X103604Y-46782D01*
X103679Y-46782D01*
X103698Y-46792D01*
X103707Y-46801D01*
X103717Y-46820D01*
X103717Y-46848D01*
X103707Y-46867D01*
X103698Y-46876D01*
X103679Y-46885D01*
X103604Y-46885D01*
X103904Y-46979D02*
X103792Y-46979D01*
X103848Y-46979D02*
X103848Y-46782D01*
X103829Y-46810D01*
X103810Y-46829D01*
X103792Y-46839D01*
X103582Y-47329D02*
X103470Y-47329D01*
X103526Y-47329D02*
X103526Y-47132D01*
X103507Y-47160D01*
X103488Y-47179D01*
X103470Y-47189D01*
X103704Y-47132D02*
X103723Y-47132D01*
X103742Y-47142D01*
X103751Y-47151D01*
X103760Y-47170D01*
X103770Y-47207D01*
X103770Y-47254D01*
X103760Y-47292D01*
X103751Y-47310D01*
X103742Y-47320D01*
X103723Y-47329D01*
X103704Y-47329D01*
X103685Y-47320D01*
X103676Y-47310D01*
X103667Y-47292D01*
X103657Y-47254D01*
X103657Y-47207D01*
X103667Y-47170D01*
X103676Y-47151D01*
X103685Y-47142D01*
X103704Y-47132D01*
X103854Y-47329D02*
X103854Y-47132D01*
X103873Y-47254D02*
X103929Y-47329D01*
X103929Y-47198D02*
X103854Y-47273D01*
X102267Y-44229D02*
X102201Y-44135D01*
X102154Y-44229D02*
X102154Y-44032D01*
X102229Y-44032D01*
X102248Y-44042D01*
X102257Y-44051D01*
X102267Y-44070D01*
X102267Y-44098D01*
X102257Y-44117D01*
X102248Y-44126D01*
X102229Y-44135D01*
X102154Y-44135D01*
X102332Y-44032D02*
X102464Y-44032D01*
X102379Y-44229D01*
X102832Y-44229D02*
X102720Y-44229D01*
X102776Y-44229D02*
X102776Y-44032D01*
X102757Y-44060D01*
X102738Y-44079D01*
X102720Y-44089D01*
X102954Y-44032D02*
X102973Y-44032D01*
X102992Y-44042D01*
X103001Y-44051D01*
X103010Y-44070D01*
X103020Y-44107D01*
X103020Y-44154D01*
X103010Y-44192D01*
X103001Y-44210D01*
X102992Y-44220D01*
X102973Y-44229D01*
X102954Y-44229D01*
X102935Y-44220D01*
X102926Y-44210D01*
X102917Y-44192D01*
X102907Y-44154D01*
X102907Y-44107D01*
X102917Y-44070D01*
X102926Y-44051D01*
X102935Y-44042D01*
X102954Y-44032D01*
X103104Y-44229D02*
X103104Y-44032D01*
X103123Y-44154D02*
X103179Y-44229D01*
X103179Y-44098D02*
X103104Y-44173D01*
X106667Y-48510D02*
X106657Y-48520D01*
X106629Y-48529D01*
X106610Y-48529D01*
X106582Y-48520D01*
X106563Y-48501D01*
X106554Y-48482D01*
X106545Y-48445D01*
X106545Y-48417D01*
X106554Y-48379D01*
X106563Y-48360D01*
X106582Y-48342D01*
X106610Y-48332D01*
X106629Y-48332D01*
X106657Y-48342D01*
X106667Y-48351D01*
X106854Y-48529D02*
X106742Y-48529D01*
X106798Y-48529D02*
X106798Y-48332D01*
X106779Y-48360D01*
X106760Y-48379D01*
X106742Y-48389D01*
X106682Y-48879D02*
X106570Y-48879D01*
X106626Y-48879D02*
X106626Y-48682D01*
X106607Y-48710D01*
X106588Y-48729D01*
X106570Y-48739D01*
X106851Y-48748D02*
X106851Y-48879D01*
X106767Y-48748D02*
X106767Y-48851D01*
X106776Y-48870D01*
X106795Y-48879D01*
X106823Y-48879D01*
X106842Y-48870D01*
X106851Y-48860D01*
X107011Y-48776D02*
X106945Y-48776D01*
X106945Y-48879D02*
X106945Y-48682D01*
X107039Y-48682D01*
X101767Y-46029D02*
X101701Y-45935D01*
X101654Y-46029D02*
X101654Y-45832D01*
X101729Y-45832D01*
X101748Y-45842D01*
X101757Y-45851D01*
X101767Y-45870D01*
X101767Y-45898D01*
X101757Y-45917D01*
X101748Y-45926D01*
X101729Y-45935D01*
X101654Y-45935D01*
X101945Y-45832D02*
X101851Y-45832D01*
X101842Y-45926D01*
X101851Y-45917D01*
X101870Y-45907D01*
X101917Y-45907D01*
X101936Y-45917D01*
X101945Y-45926D01*
X101954Y-45945D01*
X101954Y-45992D01*
X101945Y-46010D01*
X101936Y-46020D01*
X101917Y-46029D01*
X101870Y-46029D01*
X101851Y-46020D01*
X101842Y-46010D01*
X101782Y-46429D02*
X101670Y-46429D01*
X101726Y-46429D02*
X101726Y-46232D01*
X101707Y-46260D01*
X101688Y-46279D01*
X101670Y-46289D01*
X101904Y-46232D02*
X101923Y-46232D01*
X101942Y-46242D01*
X101951Y-46251D01*
X101960Y-46270D01*
X101970Y-46307D01*
X101970Y-46354D01*
X101960Y-46392D01*
X101951Y-46410D01*
X101942Y-46420D01*
X101923Y-46429D01*
X101904Y-46429D01*
X101885Y-46420D01*
X101876Y-46410D01*
X101867Y-46392D01*
X101857Y-46354D01*
X101857Y-46307D01*
X101867Y-46270D01*
X101876Y-46251D01*
X101885Y-46242D01*
X101904Y-46232D01*
X102054Y-46429D02*
X102054Y-46232D01*
X102073Y-46354D02*
X102129Y-46429D01*
X102129Y-46298D02*
X102054Y-46373D01*
G54D17*
X109940Y-50011D02*
X109940Y-49611D01*
X110169Y-50011D01*
X110169Y-49611D01*
X110588Y-50011D02*
X110454Y-49821D01*
X110359Y-50011D02*
X110359Y-49611D01*
X110511Y-49611D01*
X110550Y-49630D01*
X110569Y-49650D01*
X110588Y-49688D01*
X110588Y-49745D01*
X110569Y-49783D01*
X110550Y-49802D01*
X110511Y-49821D01*
X110359Y-49821D01*
X110892Y-49802D02*
X110759Y-49802D01*
X110759Y-50011D02*
X110759Y-49611D01*
X110950Y-49611D01*
X111083Y-49650D02*
X111102Y-49630D01*
X111140Y-49611D01*
X111235Y-49611D01*
X111273Y-49630D01*
X111292Y-49650D01*
X111311Y-49688D01*
X111311Y-49726D01*
X111292Y-49783D01*
X111064Y-50011D01*
X111311Y-50011D01*
X111654Y-49745D02*
X111654Y-50011D01*
X111559Y-49592D02*
X111464Y-49878D01*
X111711Y-49878D01*
X112054Y-50011D02*
X111864Y-50011D01*
X111864Y-49611D01*
X112264Y-49611D02*
X112302Y-49611D01*
X112340Y-49630D01*
X112359Y-49650D01*
X112378Y-49688D01*
X112397Y-49764D01*
X112397Y-49859D01*
X112378Y-49935D01*
X112359Y-49973D01*
X112340Y-49992D01*
X112302Y-50011D01*
X112264Y-50011D01*
X112226Y-49992D01*
X112207Y-49973D01*
X112188Y-49935D01*
X112169Y-49859D01*
X112169Y-49764D01*
X112188Y-49688D01*
X112207Y-49650D01*
X112226Y-49630D01*
X112264Y-49611D01*
X112778Y-50011D02*
X112550Y-50011D01*
X112664Y-50011D02*
X112664Y-49611D01*
X112626Y-49669D01*
X112588Y-49707D01*
X112550Y-49726D01*
G54D13*
X105178Y-51871D02*
X105178Y-51571D01*
X105250Y-51571D01*
X105292Y-51585D01*
X105321Y-51614D01*
X105335Y-51642D01*
X105350Y-51700D01*
X105350Y-51742D01*
X105335Y-51800D01*
X105321Y-51828D01*
X105292Y-51857D01*
X105250Y-51871D01*
X105178Y-51871D01*
X105635Y-51871D02*
X105464Y-51871D01*
X105550Y-51871D02*
X105550Y-51571D01*
X105521Y-51614D01*
X105492Y-51642D01*
X105464Y-51657D01*
X105307Y-52271D02*
X105164Y-52271D01*
X105164Y-51971D01*
X105407Y-52114D02*
X105507Y-52114D01*
X105550Y-52271D02*
X105407Y-52271D01*
X105407Y-51971D01*
X105550Y-51971D01*
X105678Y-52271D02*
X105678Y-51971D01*
X105750Y-51971D01*
X105792Y-51985D01*
X105821Y-52014D01*
X105835Y-52042D01*
X105850Y-52100D01*
X105850Y-52142D01*
X105835Y-52200D01*
X105821Y-52228D01*
X105792Y-52257D01*
X105750Y-52271D01*
X105678Y-52271D01*
G54D25*
X109873Y-44229D02*
X109807Y-44135D01*
X109760Y-44229D02*
X109760Y-44032D01*
X109835Y-44032D01*
X109854Y-44042D01*
X109863Y-44051D01*
X109873Y-44070D01*
X109873Y-44098D01*
X109863Y-44117D01*
X109854Y-44126D01*
X109835Y-44135D01*
X109760Y-44135D01*
X110060Y-44229D02*
X109948Y-44229D01*
X110004Y-44229D02*
X110004Y-44032D01*
X109985Y-44060D01*
X109967Y-44079D01*
X109948Y-44089D01*
X110182Y-44032D02*
X110201Y-44032D01*
X110220Y-44042D01*
X110229Y-44051D01*
X110239Y-44070D01*
X110248Y-44107D01*
X110248Y-44154D01*
X110239Y-44192D01*
X110229Y-44210D01*
X110220Y-44220D01*
X110201Y-44229D01*
X110182Y-44229D01*
X110164Y-44220D01*
X110154Y-44210D01*
X110145Y-44192D01*
X110136Y-44154D01*
X110136Y-44107D01*
X110145Y-44070D01*
X110154Y-44051D01*
X110164Y-44042D01*
X110182Y-44032D01*
X110582Y-44229D02*
X110470Y-44229D01*
X110526Y-44229D02*
X110526Y-44032D01*
X110507Y-44060D01*
X110488Y-44079D01*
X110470Y-44089D01*
X110704Y-44032D02*
X110723Y-44032D01*
X110742Y-44042D01*
X110751Y-44051D01*
X110760Y-44070D01*
X110770Y-44107D01*
X110770Y-44154D01*
X110760Y-44192D01*
X110751Y-44210D01*
X110742Y-44220D01*
X110723Y-44229D01*
X110704Y-44229D01*
X110685Y-44220D01*
X110676Y-44210D01*
X110667Y-44192D01*
X110657Y-44154D01*
X110657Y-44107D01*
X110667Y-44070D01*
X110676Y-44051D01*
X110685Y-44042D01*
X110704Y-44032D01*
X110854Y-44229D02*
X110854Y-44032D01*
X110873Y-44154D02*
X110929Y-44229D01*
X110929Y-44098D02*
X110854Y-44173D01*
X101282Y-59064D02*
X101273Y-59073D01*
X101245Y-59082D01*
X101226Y-59082D01*
X101198Y-59073D01*
X101179Y-59054D01*
X101170Y-59035D01*
X101160Y-58998D01*
X101160Y-58970D01*
X101170Y-58932D01*
X101179Y-58914D01*
X101198Y-58895D01*
X101226Y-58885D01*
X101245Y-58885D01*
X101273Y-58895D01*
X101282Y-58904D01*
X101451Y-58885D02*
X101414Y-58885D01*
X101395Y-58895D01*
X101385Y-58904D01*
X101367Y-58932D01*
X101357Y-58970D01*
X101357Y-59045D01*
X101367Y-59064D01*
X101376Y-59073D01*
X101395Y-59082D01*
X101432Y-59082D01*
X101451Y-59073D01*
X101460Y-59064D01*
X101470Y-59045D01*
X101470Y-58998D01*
X101460Y-58979D01*
X101451Y-58970D01*
X101432Y-58960D01*
X101395Y-58960D01*
X101376Y-58970D01*
X101367Y-58979D01*
X101357Y-58998D01*
X101228Y-59161D02*
X101246Y-59161D01*
X101265Y-59170D01*
X101274Y-59180D01*
X101284Y-59199D01*
X101293Y-59236D01*
X101293Y-59283D01*
X101284Y-59320D01*
X101274Y-59339D01*
X101265Y-59349D01*
X101246Y-59358D01*
X101228Y-59358D01*
X101209Y-59349D01*
X101199Y-59339D01*
X101190Y-59320D01*
X101181Y-59283D01*
X101181Y-59236D01*
X101190Y-59199D01*
X101199Y-59180D01*
X101209Y-59170D01*
X101228Y-59161D01*
X101378Y-59339D02*
X101387Y-59349D01*
X101378Y-59358D01*
X101368Y-59349D01*
X101378Y-59339D01*
X101378Y-59358D01*
X101575Y-59358D02*
X101462Y-59358D01*
X101518Y-59358D02*
X101518Y-59161D01*
X101500Y-59189D01*
X101481Y-59208D01*
X101462Y-59217D01*
X101744Y-59227D02*
X101744Y-59358D01*
X101659Y-59227D02*
X101659Y-59330D01*
X101668Y-59349D01*
X101687Y-59358D01*
X101715Y-59358D01*
X101734Y-59349D01*
X101744Y-59339D01*
X101903Y-59255D02*
X101837Y-59255D01*
X101837Y-59358D02*
X101837Y-59161D01*
X101931Y-59161D01*
X100886Y-55151D02*
X100877Y-55160D01*
X100848Y-55170D01*
X100830Y-55170D01*
X100802Y-55160D01*
X100783Y-55142D01*
X100773Y-55123D01*
X100764Y-55085D01*
X100764Y-55057D01*
X100773Y-55020D01*
X100783Y-55001D01*
X100802Y-54982D01*
X100830Y-54973D01*
X100848Y-54973D01*
X100877Y-54982D01*
X100886Y-54992D01*
X100952Y-54973D02*
X101074Y-54973D01*
X101008Y-55048D01*
X101036Y-55048D01*
X101055Y-55057D01*
X101064Y-55067D01*
X101074Y-55085D01*
X101074Y-55132D01*
X101064Y-55151D01*
X101055Y-55160D01*
X101036Y-55170D01*
X100980Y-55170D01*
X100961Y-55160D01*
X100952Y-55151D01*
X100910Y-55425D02*
X100919Y-55415D01*
X100938Y-55406D01*
X100985Y-55406D01*
X101004Y-55415D01*
X101013Y-55425D01*
X101023Y-55443D01*
X101023Y-55462D01*
X101013Y-55490D01*
X100901Y-55603D01*
X101023Y-55603D01*
X101145Y-55406D02*
X101163Y-55406D01*
X101182Y-55415D01*
X101192Y-55425D01*
X101201Y-55443D01*
X101210Y-55481D01*
X101210Y-55528D01*
X101201Y-55565D01*
X101192Y-55584D01*
X101182Y-55593D01*
X101163Y-55603D01*
X101145Y-55603D01*
X101126Y-55593D01*
X101116Y-55584D01*
X101107Y-55565D01*
X101098Y-55528D01*
X101098Y-55481D01*
X101107Y-55443D01*
X101116Y-55425D01*
X101126Y-55415D01*
X101145Y-55406D01*
X101295Y-55472D02*
X101295Y-55669D01*
X101295Y-55481D02*
X101313Y-55472D01*
X101351Y-55472D01*
X101370Y-55481D01*
X101379Y-55490D01*
X101389Y-55509D01*
X101389Y-55565D01*
X101379Y-55584D01*
X101370Y-55593D01*
X101351Y-55603D01*
X101313Y-55603D01*
X101295Y-55593D01*
X101539Y-55500D02*
X101473Y-55500D01*
X101473Y-55603D02*
X101473Y-55406D01*
X101567Y-55406D01*
X100099Y-53261D02*
X100089Y-53271D01*
X100061Y-53280D01*
X100042Y-53280D01*
X100014Y-53271D01*
X99995Y-53252D01*
X99986Y-53233D01*
X99977Y-53196D01*
X99977Y-53167D01*
X99986Y-53130D01*
X99995Y-53111D01*
X100014Y-53092D01*
X100042Y-53083D01*
X100061Y-53083D01*
X100089Y-53092D01*
X100099Y-53102D01*
X100174Y-53102D02*
X100183Y-53092D01*
X100202Y-53083D01*
X100249Y-53083D01*
X100267Y-53092D01*
X100277Y-53102D01*
X100286Y-53121D01*
X100286Y-53139D01*
X100277Y-53167D01*
X100164Y-53280D01*
X100286Y-53280D01*
X99808Y-53417D02*
X99817Y-53407D01*
X99836Y-53398D01*
X99883Y-53398D01*
X99902Y-53407D01*
X99911Y-53417D01*
X99920Y-53436D01*
X99920Y-53454D01*
X99911Y-53482D01*
X99798Y-53595D01*
X99920Y-53595D01*
X100042Y-53398D02*
X100061Y-53398D01*
X100080Y-53407D01*
X100089Y-53417D01*
X100099Y-53436D01*
X100108Y-53473D01*
X100108Y-53520D01*
X100099Y-53557D01*
X100089Y-53576D01*
X100080Y-53586D01*
X100061Y-53595D01*
X100042Y-53595D01*
X100024Y-53586D01*
X100014Y-53576D01*
X100005Y-53557D01*
X99995Y-53520D01*
X99995Y-53473D01*
X100005Y-53436D01*
X100014Y-53417D01*
X100024Y-53407D01*
X100042Y-53398D01*
X100192Y-53464D02*
X100192Y-53661D01*
X100192Y-53473D02*
X100211Y-53464D01*
X100249Y-53464D01*
X100267Y-53473D01*
X100277Y-53482D01*
X100286Y-53501D01*
X100286Y-53557D01*
X100277Y-53576D01*
X100267Y-53586D01*
X100249Y-53595D01*
X100211Y-53595D01*
X100192Y-53586D01*
X100436Y-53492D02*
X100371Y-53492D01*
X100371Y-53595D02*
X100371Y-53398D01*
X100464Y-53398D01*
X98184Y-55398D02*
X98194Y-55408D01*
X98203Y-55436D01*
X98203Y-55455D01*
X98194Y-55483D01*
X98175Y-55502D01*
X98156Y-55511D01*
X98119Y-55520D01*
X98091Y-55520D01*
X98053Y-55511D01*
X98034Y-55502D01*
X98016Y-55483D01*
X98006Y-55455D01*
X98006Y-55436D01*
X98016Y-55408D01*
X98025Y-55398D01*
X98006Y-55220D02*
X98006Y-55314D01*
X98100Y-55323D01*
X98091Y-55314D01*
X98081Y-55295D01*
X98081Y-55248D01*
X98091Y-55230D01*
X98100Y-55220D01*
X98119Y-55211D01*
X98166Y-55211D01*
X98184Y-55220D01*
X98194Y-55230D01*
X98203Y-55248D01*
X98203Y-55295D01*
X98194Y-55314D01*
X98184Y-55323D01*
X98379Y-55689D02*
X98370Y-55680D01*
X98361Y-55661D01*
X98361Y-55614D01*
X98370Y-55595D01*
X98379Y-55586D01*
X98398Y-55577D01*
X98417Y-55577D01*
X98445Y-55586D01*
X98558Y-55699D01*
X98558Y-55577D01*
X98361Y-55455D02*
X98361Y-55436D01*
X98370Y-55417D01*
X98379Y-55408D01*
X98398Y-55398D01*
X98436Y-55389D01*
X98483Y-55389D01*
X98520Y-55398D01*
X98539Y-55408D01*
X98548Y-55417D01*
X98558Y-55436D01*
X98558Y-55455D01*
X98548Y-55474D01*
X98539Y-55483D01*
X98520Y-55492D01*
X98483Y-55502D01*
X98436Y-55502D01*
X98398Y-55492D01*
X98379Y-55483D01*
X98370Y-55474D01*
X98361Y-55455D01*
X98426Y-55305D02*
X98623Y-55305D01*
X98436Y-55305D02*
X98426Y-55286D01*
X98426Y-55248D01*
X98436Y-55230D01*
X98445Y-55220D01*
X98464Y-55211D01*
X98520Y-55211D01*
X98539Y-55220D01*
X98548Y-55230D01*
X98558Y-55248D01*
X98558Y-55286D01*
X98548Y-55305D01*
X98454Y-55061D02*
X98454Y-55126D01*
X98558Y-55126D02*
X98361Y-55126D01*
X98361Y-55033D01*
X100099Y-56293D02*
X100089Y-56302D01*
X100061Y-56312D01*
X100042Y-56312D01*
X100014Y-56302D01*
X99995Y-56283D01*
X99986Y-56265D01*
X99977Y-56227D01*
X99977Y-56199D01*
X99986Y-56161D01*
X99995Y-56143D01*
X100014Y-56124D01*
X100042Y-56115D01*
X100061Y-56115D01*
X100089Y-56124D01*
X100099Y-56133D01*
X100267Y-56180D02*
X100267Y-56312D01*
X100221Y-56105D02*
X100174Y-56246D01*
X100296Y-56246D01*
X99808Y-56448D02*
X99817Y-56439D01*
X99836Y-56429D01*
X99883Y-56429D01*
X99902Y-56439D01*
X99911Y-56448D01*
X99920Y-56467D01*
X99920Y-56486D01*
X99911Y-56514D01*
X99798Y-56626D01*
X99920Y-56626D01*
X100042Y-56429D02*
X100061Y-56429D01*
X100080Y-56439D01*
X100089Y-56448D01*
X100099Y-56467D01*
X100108Y-56505D01*
X100108Y-56551D01*
X100099Y-56589D01*
X100089Y-56608D01*
X100080Y-56617D01*
X100061Y-56626D01*
X100042Y-56626D01*
X100024Y-56617D01*
X100014Y-56608D01*
X100005Y-56589D01*
X99995Y-56551D01*
X99995Y-56505D01*
X100005Y-56467D01*
X100014Y-56448D01*
X100024Y-56439D01*
X100042Y-56429D01*
X100192Y-56495D02*
X100192Y-56692D01*
X100192Y-56505D02*
X100211Y-56495D01*
X100249Y-56495D01*
X100267Y-56505D01*
X100277Y-56514D01*
X100286Y-56533D01*
X100286Y-56589D01*
X100277Y-56608D01*
X100267Y-56617D01*
X100249Y-56626D01*
X100211Y-56626D01*
X100192Y-56617D01*
X100436Y-56523D02*
X100371Y-56523D01*
X100371Y-56626D02*
X100371Y-56429D01*
X100464Y-56429D01*
X102436Y-54272D02*
X102446Y-54281D01*
X102455Y-54309D01*
X102455Y-54328D01*
X102446Y-54356D01*
X102427Y-54375D01*
X102408Y-54384D01*
X102371Y-54394D01*
X102343Y-54394D01*
X102305Y-54384D01*
X102286Y-54375D01*
X102268Y-54356D01*
X102258Y-54328D01*
X102258Y-54309D01*
X102268Y-54281D01*
X102277Y-54272D01*
X102455Y-54084D02*
X102455Y-54197D01*
X102455Y-54140D02*
X102258Y-54140D01*
X102286Y-54159D01*
X102305Y-54178D01*
X102315Y-54197D01*
X102258Y-53962D02*
X102258Y-53943D01*
X102268Y-53925D01*
X102277Y-53915D01*
X102296Y-53906D01*
X102333Y-53897D01*
X102380Y-53897D01*
X102418Y-53906D01*
X102436Y-53915D01*
X102446Y-53925D01*
X102455Y-53943D01*
X102455Y-53962D01*
X102446Y-53981D01*
X102436Y-53990D01*
X102418Y-54000D01*
X102380Y-54009D01*
X102333Y-54009D01*
X102296Y-54000D01*
X102277Y-53990D01*
X102268Y-53981D01*
X102258Y-53962D01*
X102613Y-54469D02*
X102613Y-54450D01*
X102622Y-54431D01*
X102631Y-54422D01*
X102650Y-54413D01*
X102688Y-54403D01*
X102735Y-54403D01*
X102772Y-54413D01*
X102791Y-54422D01*
X102800Y-54431D01*
X102810Y-54450D01*
X102810Y-54469D01*
X102800Y-54488D01*
X102791Y-54497D01*
X102772Y-54506D01*
X102735Y-54516D01*
X102688Y-54516D01*
X102650Y-54506D01*
X102631Y-54497D01*
X102622Y-54488D01*
X102613Y-54469D01*
X102791Y-54319D02*
X102800Y-54309D01*
X102810Y-54319D01*
X102800Y-54328D01*
X102791Y-54319D01*
X102810Y-54319D01*
X102810Y-54122D02*
X102810Y-54234D01*
X102810Y-54178D02*
X102613Y-54178D01*
X102641Y-54197D01*
X102659Y-54216D01*
X102669Y-54234D01*
X102678Y-53953D02*
X102810Y-53953D01*
X102678Y-54037D02*
X102781Y-54037D01*
X102800Y-54028D01*
X102810Y-54009D01*
X102810Y-53981D01*
X102800Y-53962D01*
X102791Y-53953D01*
X102706Y-53793D02*
X102706Y-53859D01*
X102810Y-53859D02*
X102613Y-53859D01*
X102613Y-53765D01*
X108248Y-59994D02*
X108239Y-60003D01*
X108211Y-60012D01*
X108192Y-60012D01*
X108164Y-60003D01*
X108145Y-59984D01*
X108136Y-59965D01*
X108126Y-59928D01*
X108126Y-59900D01*
X108136Y-59862D01*
X108145Y-59843D01*
X108164Y-59825D01*
X108192Y-59815D01*
X108211Y-59815D01*
X108239Y-59825D01*
X108248Y-59834D01*
X108342Y-60012D02*
X108379Y-60012D01*
X108398Y-60003D01*
X108408Y-59994D01*
X108426Y-59965D01*
X108436Y-59928D01*
X108436Y-59853D01*
X108426Y-59834D01*
X108417Y-59825D01*
X108398Y-59815D01*
X108361Y-59815D01*
X108342Y-59825D01*
X108333Y-59834D01*
X108323Y-59853D01*
X108323Y-59900D01*
X108333Y-59918D01*
X108342Y-59928D01*
X108361Y-59937D01*
X108398Y-59937D01*
X108417Y-59928D01*
X108426Y-59918D01*
X108436Y-59900D01*
X107957Y-60130D02*
X107976Y-60130D01*
X107995Y-60140D01*
X108004Y-60149D01*
X108014Y-60168D01*
X108023Y-60205D01*
X108023Y-60252D01*
X108014Y-60290D01*
X108004Y-60309D01*
X107995Y-60318D01*
X107976Y-60327D01*
X107957Y-60327D01*
X107939Y-60318D01*
X107929Y-60309D01*
X107920Y-60290D01*
X107910Y-60252D01*
X107910Y-60205D01*
X107920Y-60168D01*
X107929Y-60149D01*
X107939Y-60140D01*
X107957Y-60130D01*
X108107Y-60309D02*
X108117Y-60318D01*
X108107Y-60327D01*
X108098Y-60318D01*
X108107Y-60309D01*
X108107Y-60327D01*
X108304Y-60327D02*
X108192Y-60327D01*
X108248Y-60327D02*
X108248Y-60130D01*
X108229Y-60158D01*
X108211Y-60177D01*
X108192Y-60187D01*
X108473Y-60196D02*
X108473Y-60327D01*
X108389Y-60196D02*
X108389Y-60299D01*
X108398Y-60318D01*
X108417Y-60327D01*
X108445Y-60327D01*
X108464Y-60318D01*
X108473Y-60309D01*
X108633Y-60224D02*
X108567Y-60224D01*
X108567Y-60327D02*
X108567Y-60130D01*
X108661Y-60130D01*
X103037Y-59960D02*
X103027Y-59970D01*
X102999Y-59979D01*
X102980Y-59979D01*
X102952Y-59970D01*
X102933Y-59951D01*
X102924Y-59932D01*
X102915Y-59895D01*
X102915Y-59867D01*
X102924Y-59829D01*
X102933Y-59810D01*
X102952Y-59792D01*
X102980Y-59782D01*
X102999Y-59782D01*
X103027Y-59792D01*
X103037Y-59801D01*
X103149Y-59867D02*
X103130Y-59857D01*
X103121Y-59848D01*
X103112Y-59829D01*
X103112Y-59820D01*
X103121Y-59801D01*
X103130Y-59792D01*
X103149Y-59782D01*
X103187Y-59782D01*
X103206Y-59792D01*
X103215Y-59801D01*
X103224Y-59820D01*
X103224Y-59829D01*
X103215Y-59848D01*
X103206Y-59857D01*
X103187Y-59867D01*
X103149Y-59867D01*
X103130Y-59876D01*
X103121Y-59885D01*
X103112Y-59904D01*
X103112Y-59942D01*
X103121Y-59960D01*
X103130Y-59970D01*
X103149Y-59979D01*
X103187Y-59979D01*
X103206Y-59970D01*
X103215Y-59960D01*
X103224Y-59942D01*
X103224Y-59904D01*
X103215Y-59885D01*
X103206Y-59876D01*
X103187Y-59867D01*
X102746Y-60082D02*
X102765Y-60082D01*
X102783Y-60092D01*
X102793Y-60101D01*
X102802Y-60120D01*
X102812Y-60157D01*
X102812Y-60204D01*
X102802Y-60242D01*
X102793Y-60260D01*
X102783Y-60270D01*
X102765Y-60279D01*
X102746Y-60279D01*
X102727Y-60270D01*
X102718Y-60260D01*
X102708Y-60242D01*
X102699Y-60204D01*
X102699Y-60157D01*
X102708Y-60120D01*
X102718Y-60101D01*
X102727Y-60092D01*
X102746Y-60082D01*
X102896Y-60260D02*
X102905Y-60270D01*
X102896Y-60279D01*
X102887Y-60270D01*
X102896Y-60260D01*
X102896Y-60279D01*
X103093Y-60279D02*
X102980Y-60279D01*
X103037Y-60279D02*
X103037Y-60082D01*
X103018Y-60110D01*
X102999Y-60129D01*
X102980Y-60139D01*
X103262Y-60148D02*
X103262Y-60279D01*
X103177Y-60148D02*
X103177Y-60251D01*
X103187Y-60270D01*
X103206Y-60279D01*
X103234Y-60279D01*
X103252Y-60270D01*
X103262Y-60260D01*
X103421Y-60176D02*
X103356Y-60176D01*
X103356Y-60279D02*
X103356Y-60082D01*
X103449Y-60082D01*
X109444Y-55438D02*
X109454Y-55447D01*
X109463Y-55475D01*
X109463Y-55494D01*
X109454Y-55522D01*
X109435Y-55541D01*
X109416Y-55550D01*
X109379Y-55560D01*
X109351Y-55560D01*
X109313Y-55550D01*
X109294Y-55541D01*
X109275Y-55522D01*
X109266Y-55494D01*
X109266Y-55475D01*
X109275Y-55447D01*
X109285Y-55438D01*
X109266Y-55372D02*
X109266Y-55241D01*
X109463Y-55325D01*
X109581Y-55729D02*
X109581Y-55710D01*
X109590Y-55691D01*
X109600Y-55682D01*
X109619Y-55672D01*
X109656Y-55663D01*
X109703Y-55663D01*
X109741Y-55672D01*
X109759Y-55682D01*
X109769Y-55691D01*
X109778Y-55710D01*
X109778Y-55729D01*
X109769Y-55747D01*
X109759Y-55757D01*
X109741Y-55766D01*
X109703Y-55776D01*
X109656Y-55776D01*
X109619Y-55766D01*
X109600Y-55757D01*
X109590Y-55747D01*
X109581Y-55729D01*
X109759Y-55579D02*
X109769Y-55569D01*
X109778Y-55579D01*
X109769Y-55588D01*
X109759Y-55579D01*
X109778Y-55579D01*
X109778Y-55382D02*
X109778Y-55494D01*
X109778Y-55438D02*
X109581Y-55438D01*
X109609Y-55457D01*
X109628Y-55475D01*
X109637Y-55494D01*
X109647Y-55213D02*
X109778Y-55213D01*
X109647Y-55297D02*
X109750Y-55297D01*
X109769Y-55288D01*
X109778Y-55269D01*
X109778Y-55241D01*
X109769Y-55222D01*
X109759Y-55213D01*
X109675Y-55053D02*
X109675Y-55119D01*
X109778Y-55119D02*
X109581Y-55119D01*
X109581Y-55025D01*
X97644Y-54319D02*
X97579Y-54319D01*
X97579Y-54422D02*
X97579Y-54225D01*
X97673Y-54225D01*
X97813Y-54319D02*
X97841Y-54328D01*
X97851Y-54337D01*
X97860Y-54356D01*
X97860Y-54384D01*
X97851Y-54403D01*
X97841Y-54412D01*
X97823Y-54422D01*
X97748Y-54422D01*
X97748Y-54225D01*
X97813Y-54225D01*
X97832Y-54234D01*
X97841Y-54244D01*
X97851Y-54262D01*
X97851Y-54281D01*
X97841Y-54300D01*
X97832Y-54309D01*
X97813Y-54319D01*
X97748Y-54319D01*
X98048Y-54422D02*
X97935Y-54422D01*
X97991Y-54422D02*
X97991Y-54225D01*
X97973Y-54253D01*
X97954Y-54272D01*
X97935Y-54281D01*
X97447Y-53957D02*
X97382Y-53957D01*
X97382Y-54060D02*
X97382Y-53863D01*
X97476Y-53863D01*
X97551Y-54060D02*
X97551Y-53863D01*
X97738Y-54060D02*
X97644Y-54060D01*
X97644Y-53863D01*
X97776Y-53863D02*
X97888Y-53863D01*
X97832Y-54060D02*
X97832Y-53863D01*
X97954Y-53957D02*
X98020Y-53957D01*
X98048Y-54060D02*
X97954Y-54060D01*
X97954Y-53863D01*
X98048Y-53863D01*
X98245Y-54060D02*
X98179Y-53966D01*
X98132Y-54060D02*
X98132Y-53863D01*
X98207Y-53863D01*
X98226Y-53872D01*
X98235Y-53882D01*
X98245Y-53900D01*
X98245Y-53929D01*
X98235Y-53947D01*
X98226Y-53957D01*
X98207Y-53966D01*
X98132Y-53966D01*
X102246Y-60264D02*
X102246Y-60329D01*
X102349Y-60329D02*
X102152Y-60329D01*
X102152Y-60236D01*
X102246Y-60095D02*
X102255Y-60067D01*
X102265Y-60057D01*
X102284Y-60048D01*
X102312Y-60048D01*
X102330Y-60057D01*
X102340Y-60067D01*
X102349Y-60085D01*
X102349Y-60160D01*
X102152Y-60160D01*
X102152Y-60095D01*
X102162Y-60076D01*
X102171Y-60067D01*
X102190Y-60057D01*
X102209Y-60057D01*
X102227Y-60067D01*
X102237Y-60076D01*
X102246Y-60095D01*
X102246Y-60160D01*
X102171Y-59973D02*
X102162Y-59963D01*
X102152Y-59945D01*
X102152Y-59898D01*
X102162Y-59879D01*
X102171Y-59870D01*
X102190Y-59860D01*
X102209Y-59860D01*
X102237Y-59870D01*
X102349Y-59982D01*
X102349Y-59860D01*
X119582Y-59064D02*
X119573Y-59073D01*
X119545Y-59082D01*
X119526Y-59082D01*
X119498Y-59073D01*
X119479Y-59054D01*
X119470Y-59035D01*
X119460Y-58998D01*
X119460Y-58970D01*
X119470Y-58932D01*
X119479Y-58914D01*
X119498Y-58895D01*
X119526Y-58885D01*
X119545Y-58885D01*
X119573Y-58895D01*
X119582Y-58904D01*
X119751Y-58885D02*
X119714Y-58885D01*
X119695Y-58895D01*
X119685Y-58904D01*
X119667Y-58932D01*
X119657Y-58970D01*
X119657Y-59045D01*
X119667Y-59064D01*
X119676Y-59073D01*
X119695Y-59082D01*
X119732Y-59082D01*
X119751Y-59073D01*
X119760Y-59064D01*
X119770Y-59045D01*
X119770Y-58998D01*
X119760Y-58979D01*
X119751Y-58970D01*
X119732Y-58960D01*
X119695Y-58960D01*
X119676Y-58970D01*
X119667Y-58979D01*
X119657Y-58998D01*
X119528Y-59161D02*
X119546Y-59161D01*
X119565Y-59170D01*
X119574Y-59180D01*
X119584Y-59199D01*
X119593Y-59236D01*
X119593Y-59283D01*
X119584Y-59320D01*
X119574Y-59339D01*
X119565Y-59349D01*
X119546Y-59358D01*
X119528Y-59358D01*
X119509Y-59349D01*
X119499Y-59339D01*
X119490Y-59320D01*
X119481Y-59283D01*
X119481Y-59236D01*
X119490Y-59199D01*
X119499Y-59180D01*
X119509Y-59170D01*
X119528Y-59161D01*
X119678Y-59339D02*
X119687Y-59349D01*
X119678Y-59358D01*
X119668Y-59349D01*
X119678Y-59339D01*
X119678Y-59358D01*
X119875Y-59358D02*
X119762Y-59358D01*
X119818Y-59358D02*
X119818Y-59161D01*
X119800Y-59189D01*
X119781Y-59208D01*
X119762Y-59217D01*
X120044Y-59227D02*
X120044Y-59358D01*
X119959Y-59227D02*
X119959Y-59330D01*
X119968Y-59349D01*
X119987Y-59358D01*
X120015Y-59358D01*
X120034Y-59349D01*
X120044Y-59339D01*
X120203Y-59255D02*
X120137Y-59255D01*
X120137Y-59358D02*
X120137Y-59161D01*
X120231Y-59161D01*
X119186Y-55151D02*
X119177Y-55160D01*
X119148Y-55170D01*
X119130Y-55170D01*
X119102Y-55160D01*
X119083Y-55142D01*
X119073Y-55123D01*
X119064Y-55085D01*
X119064Y-55057D01*
X119073Y-55020D01*
X119083Y-55001D01*
X119102Y-54982D01*
X119130Y-54973D01*
X119148Y-54973D01*
X119177Y-54982D01*
X119186Y-54992D01*
X119252Y-54973D02*
X119374Y-54973D01*
X119308Y-55048D01*
X119336Y-55048D01*
X119355Y-55057D01*
X119364Y-55067D01*
X119374Y-55085D01*
X119374Y-55132D01*
X119364Y-55151D01*
X119355Y-55160D01*
X119336Y-55170D01*
X119280Y-55170D01*
X119261Y-55160D01*
X119252Y-55151D01*
X119210Y-55425D02*
X119219Y-55415D01*
X119238Y-55406D01*
X119285Y-55406D01*
X119304Y-55415D01*
X119313Y-55425D01*
X119323Y-55443D01*
X119323Y-55462D01*
X119313Y-55490D01*
X119201Y-55603D01*
X119323Y-55603D01*
X119445Y-55406D02*
X119463Y-55406D01*
X119482Y-55415D01*
X119492Y-55425D01*
X119501Y-55443D01*
X119510Y-55481D01*
X119510Y-55528D01*
X119501Y-55565D01*
X119492Y-55584D01*
X119482Y-55593D01*
X119463Y-55603D01*
X119445Y-55603D01*
X119426Y-55593D01*
X119416Y-55584D01*
X119407Y-55565D01*
X119398Y-55528D01*
X119398Y-55481D01*
X119407Y-55443D01*
X119416Y-55425D01*
X119426Y-55415D01*
X119445Y-55406D01*
X119595Y-55472D02*
X119595Y-55669D01*
X119595Y-55481D02*
X119613Y-55472D01*
X119651Y-55472D01*
X119670Y-55481D01*
X119679Y-55490D01*
X119689Y-55509D01*
X119689Y-55565D01*
X119679Y-55584D01*
X119670Y-55593D01*
X119651Y-55603D01*
X119613Y-55603D01*
X119595Y-55593D01*
X119839Y-55500D02*
X119773Y-55500D01*
X119773Y-55603D02*
X119773Y-55406D01*
X119867Y-55406D01*
X118399Y-53261D02*
X118389Y-53271D01*
X118361Y-53280D01*
X118342Y-53280D01*
X118314Y-53271D01*
X118295Y-53252D01*
X118286Y-53233D01*
X118277Y-53196D01*
X118277Y-53167D01*
X118286Y-53130D01*
X118295Y-53111D01*
X118314Y-53092D01*
X118342Y-53083D01*
X118361Y-53083D01*
X118389Y-53092D01*
X118399Y-53102D01*
X118474Y-53102D02*
X118483Y-53092D01*
X118502Y-53083D01*
X118549Y-53083D01*
X118567Y-53092D01*
X118577Y-53102D01*
X118586Y-53121D01*
X118586Y-53139D01*
X118577Y-53167D01*
X118464Y-53280D01*
X118586Y-53280D01*
X118108Y-53417D02*
X118117Y-53407D01*
X118136Y-53398D01*
X118183Y-53398D01*
X118202Y-53407D01*
X118211Y-53417D01*
X118220Y-53436D01*
X118220Y-53454D01*
X118211Y-53482D01*
X118098Y-53595D01*
X118220Y-53595D01*
X118342Y-53398D02*
X118361Y-53398D01*
X118380Y-53407D01*
X118389Y-53417D01*
X118399Y-53436D01*
X118408Y-53473D01*
X118408Y-53520D01*
X118399Y-53557D01*
X118389Y-53576D01*
X118380Y-53586D01*
X118361Y-53595D01*
X118342Y-53595D01*
X118324Y-53586D01*
X118314Y-53576D01*
X118305Y-53557D01*
X118295Y-53520D01*
X118295Y-53473D01*
X118305Y-53436D01*
X118314Y-53417D01*
X118324Y-53407D01*
X118342Y-53398D01*
X118492Y-53464D02*
X118492Y-53661D01*
X118492Y-53473D02*
X118511Y-53464D01*
X118549Y-53464D01*
X118567Y-53473D01*
X118577Y-53482D01*
X118586Y-53501D01*
X118586Y-53557D01*
X118577Y-53576D01*
X118567Y-53586D01*
X118549Y-53595D01*
X118511Y-53595D01*
X118492Y-53586D01*
X118736Y-53492D02*
X118671Y-53492D01*
X118671Y-53595D02*
X118671Y-53398D01*
X118764Y-53398D01*
X116484Y-55398D02*
X116494Y-55408D01*
X116503Y-55436D01*
X116503Y-55455D01*
X116494Y-55483D01*
X116475Y-55502D01*
X116456Y-55511D01*
X116419Y-55520D01*
X116391Y-55520D01*
X116353Y-55511D01*
X116334Y-55502D01*
X116316Y-55483D01*
X116306Y-55455D01*
X116306Y-55436D01*
X116316Y-55408D01*
X116325Y-55398D01*
X116306Y-55220D02*
X116306Y-55314D01*
X116400Y-55323D01*
X116391Y-55314D01*
X116381Y-55295D01*
X116381Y-55248D01*
X116391Y-55230D01*
X116400Y-55220D01*
X116419Y-55211D01*
X116466Y-55211D01*
X116484Y-55220D01*
X116494Y-55230D01*
X116503Y-55248D01*
X116503Y-55295D01*
X116494Y-55314D01*
X116484Y-55323D01*
X116679Y-55689D02*
X116670Y-55680D01*
X116661Y-55661D01*
X116661Y-55614D01*
X116670Y-55595D01*
X116679Y-55586D01*
X116698Y-55577D01*
X116717Y-55577D01*
X116745Y-55586D01*
X116858Y-55699D01*
X116858Y-55577D01*
X116661Y-55455D02*
X116661Y-55436D01*
X116670Y-55417D01*
X116679Y-55408D01*
X116698Y-55398D01*
X116736Y-55389D01*
X116783Y-55389D01*
X116820Y-55398D01*
X116839Y-55408D01*
X116848Y-55417D01*
X116858Y-55436D01*
X116858Y-55455D01*
X116848Y-55474D01*
X116839Y-55483D01*
X116820Y-55492D01*
X116783Y-55502D01*
X116736Y-55502D01*
X116698Y-55492D01*
X116679Y-55483D01*
X116670Y-55474D01*
X116661Y-55455D01*
X116726Y-55305D02*
X116923Y-55305D01*
X116736Y-55305D02*
X116726Y-55286D01*
X116726Y-55248D01*
X116736Y-55230D01*
X116745Y-55220D01*
X116764Y-55211D01*
X116820Y-55211D01*
X116839Y-55220D01*
X116848Y-55230D01*
X116858Y-55248D01*
X116858Y-55286D01*
X116848Y-55305D01*
X116754Y-55061D02*
X116754Y-55126D01*
X116858Y-55126D02*
X116661Y-55126D01*
X116661Y-55033D01*
X118399Y-56293D02*
X118389Y-56302D01*
X118361Y-56312D01*
X118342Y-56312D01*
X118314Y-56302D01*
X118295Y-56283D01*
X118286Y-56265D01*
X118277Y-56227D01*
X118277Y-56199D01*
X118286Y-56161D01*
X118295Y-56143D01*
X118314Y-56124D01*
X118342Y-56115D01*
X118361Y-56115D01*
X118389Y-56124D01*
X118399Y-56133D01*
X118567Y-56180D02*
X118567Y-56312D01*
X118521Y-56105D02*
X118474Y-56246D01*
X118596Y-56246D01*
X118108Y-56448D02*
X118117Y-56439D01*
X118136Y-56429D01*
X118183Y-56429D01*
X118202Y-56439D01*
X118211Y-56448D01*
X118220Y-56467D01*
X118220Y-56486D01*
X118211Y-56514D01*
X118098Y-56626D01*
X118220Y-56626D01*
X118342Y-56429D02*
X118361Y-56429D01*
X118380Y-56439D01*
X118389Y-56448D01*
X118399Y-56467D01*
X118408Y-56505D01*
X118408Y-56551D01*
X118399Y-56589D01*
X118389Y-56608D01*
X118380Y-56617D01*
X118361Y-56626D01*
X118342Y-56626D01*
X118324Y-56617D01*
X118314Y-56608D01*
X118305Y-56589D01*
X118295Y-56551D01*
X118295Y-56505D01*
X118305Y-56467D01*
X118314Y-56448D01*
X118324Y-56439D01*
X118342Y-56429D01*
X118492Y-56495D02*
X118492Y-56692D01*
X118492Y-56505D02*
X118511Y-56495D01*
X118549Y-56495D01*
X118567Y-56505D01*
X118577Y-56514D01*
X118586Y-56533D01*
X118586Y-56589D01*
X118577Y-56608D01*
X118567Y-56617D01*
X118549Y-56626D01*
X118511Y-56626D01*
X118492Y-56617D01*
X118736Y-56523D02*
X118671Y-56523D01*
X118671Y-56626D02*
X118671Y-56429D01*
X118764Y-56429D01*
X120736Y-54272D02*
X120746Y-54281D01*
X120755Y-54309D01*
X120755Y-54328D01*
X120746Y-54356D01*
X120727Y-54375D01*
X120708Y-54384D01*
X120671Y-54394D01*
X120643Y-54394D01*
X120605Y-54384D01*
X120586Y-54375D01*
X120568Y-54356D01*
X120558Y-54328D01*
X120558Y-54309D01*
X120568Y-54281D01*
X120577Y-54272D01*
X120755Y-54084D02*
X120755Y-54197D01*
X120755Y-54140D02*
X120558Y-54140D01*
X120586Y-54159D01*
X120605Y-54178D01*
X120615Y-54197D01*
X120558Y-53962D02*
X120558Y-53943D01*
X120568Y-53925D01*
X120577Y-53915D01*
X120596Y-53906D01*
X120633Y-53897D01*
X120680Y-53897D01*
X120718Y-53906D01*
X120736Y-53915D01*
X120746Y-53925D01*
X120755Y-53943D01*
X120755Y-53962D01*
X120746Y-53981D01*
X120736Y-53990D01*
X120718Y-54000D01*
X120680Y-54009D01*
X120633Y-54009D01*
X120596Y-54000D01*
X120577Y-53990D01*
X120568Y-53981D01*
X120558Y-53962D01*
X120913Y-54469D02*
X120913Y-54450D01*
X120922Y-54431D01*
X120931Y-54422D01*
X120950Y-54413D01*
X120988Y-54403D01*
X121035Y-54403D01*
X121072Y-54413D01*
X121091Y-54422D01*
X121100Y-54431D01*
X121110Y-54450D01*
X121110Y-54469D01*
X121100Y-54488D01*
X121091Y-54497D01*
X121072Y-54506D01*
X121035Y-54516D01*
X120988Y-54516D01*
X120950Y-54506D01*
X120931Y-54497D01*
X120922Y-54488D01*
X120913Y-54469D01*
X121091Y-54319D02*
X121100Y-54309D01*
X121110Y-54319D01*
X121100Y-54328D01*
X121091Y-54319D01*
X121110Y-54319D01*
X121110Y-54122D02*
X121110Y-54234D01*
X121110Y-54178D02*
X120913Y-54178D01*
X120941Y-54197D01*
X120959Y-54216D01*
X120969Y-54234D01*
X120978Y-53953D02*
X121110Y-53953D01*
X120978Y-54037D02*
X121081Y-54037D01*
X121100Y-54028D01*
X121110Y-54009D01*
X121110Y-53981D01*
X121100Y-53962D01*
X121091Y-53953D01*
X121006Y-53793D02*
X121006Y-53859D01*
X121110Y-53859D02*
X120913Y-53859D01*
X120913Y-53765D01*
X126548Y-59994D02*
X126539Y-60003D01*
X126511Y-60012D01*
X126492Y-60012D01*
X126464Y-60003D01*
X126445Y-59984D01*
X126436Y-59965D01*
X126426Y-59928D01*
X126426Y-59900D01*
X126436Y-59862D01*
X126445Y-59843D01*
X126464Y-59825D01*
X126492Y-59815D01*
X126511Y-59815D01*
X126539Y-59825D01*
X126548Y-59834D01*
X126642Y-60012D02*
X126679Y-60012D01*
X126698Y-60003D01*
X126708Y-59994D01*
X126726Y-59965D01*
X126736Y-59928D01*
X126736Y-59853D01*
X126726Y-59834D01*
X126717Y-59825D01*
X126698Y-59815D01*
X126661Y-59815D01*
X126642Y-59825D01*
X126633Y-59834D01*
X126623Y-59853D01*
X126623Y-59900D01*
X126633Y-59918D01*
X126642Y-59928D01*
X126661Y-59937D01*
X126698Y-59937D01*
X126717Y-59928D01*
X126726Y-59918D01*
X126736Y-59900D01*
X126257Y-60130D02*
X126276Y-60130D01*
X126295Y-60140D01*
X126304Y-60149D01*
X126314Y-60168D01*
X126323Y-60205D01*
X126323Y-60252D01*
X126314Y-60290D01*
X126304Y-60309D01*
X126295Y-60318D01*
X126276Y-60327D01*
X126257Y-60327D01*
X126239Y-60318D01*
X126229Y-60309D01*
X126220Y-60290D01*
X126210Y-60252D01*
X126210Y-60205D01*
X126220Y-60168D01*
X126229Y-60149D01*
X126239Y-60140D01*
X126257Y-60130D01*
X126407Y-60309D02*
X126417Y-60318D01*
X126407Y-60327D01*
X126398Y-60318D01*
X126407Y-60309D01*
X126407Y-60327D01*
X126604Y-60327D02*
X126492Y-60327D01*
X126548Y-60327D02*
X126548Y-60130D01*
X126529Y-60158D01*
X126511Y-60177D01*
X126492Y-60187D01*
X126773Y-60196D02*
X126773Y-60327D01*
X126689Y-60196D02*
X126689Y-60299D01*
X126698Y-60318D01*
X126717Y-60327D01*
X126745Y-60327D01*
X126764Y-60318D01*
X126773Y-60309D01*
X126933Y-60224D02*
X126867Y-60224D01*
X126867Y-60327D02*
X126867Y-60130D01*
X126961Y-60130D01*
X121337Y-59960D02*
X121327Y-59970D01*
X121299Y-59979D01*
X121280Y-59979D01*
X121252Y-59970D01*
X121233Y-59951D01*
X121224Y-59932D01*
X121215Y-59895D01*
X121215Y-59867D01*
X121224Y-59829D01*
X121233Y-59810D01*
X121252Y-59792D01*
X121280Y-59782D01*
X121299Y-59782D01*
X121327Y-59792D01*
X121337Y-59801D01*
X121449Y-59867D02*
X121430Y-59857D01*
X121421Y-59848D01*
X121412Y-59829D01*
X121412Y-59820D01*
X121421Y-59801D01*
X121430Y-59792D01*
X121449Y-59782D01*
X121487Y-59782D01*
X121506Y-59792D01*
X121515Y-59801D01*
X121524Y-59820D01*
X121524Y-59829D01*
X121515Y-59848D01*
X121506Y-59857D01*
X121487Y-59867D01*
X121449Y-59867D01*
X121430Y-59876D01*
X121421Y-59885D01*
X121412Y-59904D01*
X121412Y-59942D01*
X121421Y-59960D01*
X121430Y-59970D01*
X121449Y-59979D01*
X121487Y-59979D01*
X121506Y-59970D01*
X121515Y-59960D01*
X121524Y-59942D01*
X121524Y-59904D01*
X121515Y-59885D01*
X121506Y-59876D01*
X121487Y-59867D01*
X121046Y-60082D02*
X121065Y-60082D01*
X121083Y-60092D01*
X121093Y-60101D01*
X121102Y-60120D01*
X121112Y-60157D01*
X121112Y-60204D01*
X121102Y-60242D01*
X121093Y-60260D01*
X121083Y-60270D01*
X121065Y-60279D01*
X121046Y-60279D01*
X121027Y-60270D01*
X121018Y-60260D01*
X121008Y-60242D01*
X120999Y-60204D01*
X120999Y-60157D01*
X121008Y-60120D01*
X121018Y-60101D01*
X121027Y-60092D01*
X121046Y-60082D01*
X121196Y-60260D02*
X121205Y-60270D01*
X121196Y-60279D01*
X121187Y-60270D01*
X121196Y-60260D01*
X121196Y-60279D01*
X121393Y-60279D02*
X121280Y-60279D01*
X121337Y-60279D02*
X121337Y-60082D01*
X121318Y-60110D01*
X121299Y-60129D01*
X121280Y-60139D01*
X121562Y-60148D02*
X121562Y-60279D01*
X121477Y-60148D02*
X121477Y-60251D01*
X121487Y-60270D01*
X121506Y-60279D01*
X121534Y-60279D01*
X121552Y-60270D01*
X121562Y-60260D01*
X121721Y-60176D02*
X121656Y-60176D01*
X121656Y-60279D02*
X121656Y-60082D01*
X121749Y-60082D01*
X127744Y-55438D02*
X127754Y-55447D01*
X127763Y-55475D01*
X127763Y-55494D01*
X127754Y-55522D01*
X127735Y-55541D01*
X127716Y-55550D01*
X127679Y-55560D01*
X127651Y-55560D01*
X127613Y-55550D01*
X127594Y-55541D01*
X127575Y-55522D01*
X127566Y-55494D01*
X127566Y-55475D01*
X127575Y-55447D01*
X127585Y-55438D01*
X127566Y-55372D02*
X127566Y-55241D01*
X127763Y-55325D01*
X127881Y-55729D02*
X127881Y-55710D01*
X127890Y-55691D01*
X127900Y-55682D01*
X127919Y-55672D01*
X127956Y-55663D01*
X128003Y-55663D01*
X128041Y-55672D01*
X128059Y-55682D01*
X128069Y-55691D01*
X128078Y-55710D01*
X128078Y-55729D01*
X128069Y-55747D01*
X128059Y-55757D01*
X128041Y-55766D01*
X128003Y-55776D01*
X127956Y-55776D01*
X127919Y-55766D01*
X127900Y-55757D01*
X127890Y-55747D01*
X127881Y-55729D01*
X128059Y-55579D02*
X128069Y-55569D01*
X128078Y-55579D01*
X128069Y-55588D01*
X128059Y-55579D01*
X128078Y-55579D01*
X128078Y-55382D02*
X128078Y-55494D01*
X128078Y-55438D02*
X127881Y-55438D01*
X127909Y-55457D01*
X127928Y-55475D01*
X127937Y-55494D01*
X127947Y-55213D02*
X128078Y-55213D01*
X127947Y-55297D02*
X128050Y-55297D01*
X128069Y-55288D01*
X128078Y-55269D01*
X128078Y-55241D01*
X128069Y-55222D01*
X128059Y-55213D01*
X127975Y-55053D02*
X127975Y-55119D01*
X128078Y-55119D02*
X127881Y-55119D01*
X127881Y-55025D01*
X115944Y-54319D02*
X115879Y-54319D01*
X115879Y-54422D02*
X115879Y-54225D01*
X115973Y-54225D01*
X116113Y-54319D02*
X116141Y-54328D01*
X116151Y-54337D01*
X116160Y-54356D01*
X116160Y-54384D01*
X116151Y-54403D01*
X116141Y-54412D01*
X116123Y-54422D01*
X116048Y-54422D01*
X116048Y-54225D01*
X116113Y-54225D01*
X116132Y-54234D01*
X116141Y-54244D01*
X116151Y-54262D01*
X116151Y-54281D01*
X116141Y-54300D01*
X116132Y-54309D01*
X116113Y-54319D01*
X116048Y-54319D01*
X116348Y-54422D02*
X116235Y-54422D01*
X116291Y-54422D02*
X116291Y-54225D01*
X116273Y-54253D01*
X116254Y-54272D01*
X116235Y-54281D01*
X115747Y-53957D02*
X115682Y-53957D01*
X115682Y-54060D02*
X115682Y-53863D01*
X115776Y-53863D01*
X115851Y-54060D02*
X115851Y-53863D01*
X116038Y-54060D02*
X115944Y-54060D01*
X115944Y-53863D01*
X116076Y-53863D02*
X116188Y-53863D01*
X116132Y-54060D02*
X116132Y-53863D01*
X116254Y-53957D02*
X116320Y-53957D01*
X116348Y-54060D02*
X116254Y-54060D01*
X116254Y-53863D01*
X116348Y-53863D01*
X116545Y-54060D02*
X116479Y-53966D01*
X116432Y-54060D02*
X116432Y-53863D01*
X116507Y-53863D01*
X116526Y-53872D01*
X116535Y-53882D01*
X116545Y-53900D01*
X116545Y-53929D01*
X116535Y-53947D01*
X116526Y-53957D01*
X116507Y-53966D01*
X116432Y-53966D01*
X120546Y-60264D02*
X120546Y-60329D01*
X120649Y-60329D02*
X120452Y-60329D01*
X120452Y-60236D01*
X120546Y-60095D02*
X120555Y-60067D01*
X120565Y-60057D01*
X120584Y-60048D01*
X120612Y-60048D01*
X120630Y-60057D01*
X120640Y-60067D01*
X120649Y-60085D01*
X120649Y-60160D01*
X120452Y-60160D01*
X120452Y-60095D01*
X120462Y-60076D01*
X120471Y-60067D01*
X120490Y-60057D01*
X120509Y-60057D01*
X120527Y-60067D01*
X120537Y-60076D01*
X120546Y-60095D01*
X120546Y-60160D01*
X120471Y-59973D02*
X120462Y-59963D01*
X120452Y-59945D01*
X120452Y-59898D01*
X120462Y-59879D01*
X120471Y-59870D01*
X120490Y-59860D01*
X120509Y-59860D01*
X120537Y-59870D01*
X120649Y-59982D01*
X120649Y-59860D01*
G54D13*
X123731Y-35275D02*
X123631Y-35132D01*
X123559Y-35275D02*
X123559Y-34975D01*
X123674Y-34975D01*
X123702Y-34989D01*
X123717Y-35003D01*
X123731Y-35032D01*
X123731Y-35075D01*
X123717Y-35103D01*
X123702Y-35118D01*
X123674Y-35132D01*
X123559Y-35132D01*
X123831Y-34975D02*
X124031Y-34975D01*
X123902Y-35275D01*
G54D10*
X123461Y-32025D02*
X123461Y-32344D01*
X123480Y-32381D01*
X123499Y-32400D01*
X123536Y-32419D01*
X123611Y-32419D01*
X123649Y-32400D01*
X123667Y-32381D01*
X123686Y-32344D01*
X123686Y-32025D01*
X123855Y-32063D02*
X123874Y-32044D01*
X123911Y-32025D01*
X124005Y-32025D01*
X124042Y-32044D01*
X124061Y-32063D01*
X124080Y-32100D01*
X124080Y-32138D01*
X124061Y-32194D01*
X123836Y-32419D01*
X124080Y-32419D01*
X121952Y-34491D02*
X121764Y-34622D01*
X121952Y-34715D02*
X121558Y-34715D01*
X121558Y-34566D01*
X121577Y-34528D01*
X121596Y-34509D01*
X121633Y-34491D01*
X121689Y-34491D01*
X121727Y-34509D01*
X121746Y-34528D01*
X121764Y-34566D01*
X121764Y-34715D01*
X121577Y-34116D02*
X121558Y-34153D01*
X121558Y-34209D01*
X121577Y-34266D01*
X121615Y-34303D01*
X121652Y-34322D01*
X121727Y-34341D01*
X121783Y-34341D01*
X121858Y-34322D01*
X121896Y-34303D01*
X121933Y-34266D01*
X121952Y-34209D01*
X121952Y-34172D01*
X121933Y-34116D01*
X121914Y-34097D01*
X121783Y-34097D01*
X121783Y-34172D01*
X121746Y-33797D02*
X121764Y-33741D01*
X121783Y-33722D01*
X121821Y-33703D01*
X121877Y-33703D01*
X121914Y-33722D01*
X121933Y-33741D01*
X121952Y-33778D01*
X121952Y-33928D01*
X121558Y-33928D01*
X121558Y-33797D01*
X121577Y-33759D01*
X121596Y-33741D01*
X121633Y-33722D01*
X121671Y-33722D01*
X121708Y-33741D01*
X121727Y-33759D01*
X121746Y-33797D01*
X121746Y-33928D01*
X121802Y-33534D02*
X121802Y-33234D01*
X121952Y-32859D02*
X121952Y-33047D01*
X121558Y-33047D01*
X121746Y-32728D02*
X121746Y-32597D01*
X121952Y-32541D02*
X121952Y-32728D01*
X121558Y-32728D01*
X121558Y-32541D01*
X121952Y-32372D02*
X121558Y-32372D01*
X121558Y-32278D01*
X121577Y-32222D01*
X121615Y-32185D01*
X121652Y-32166D01*
X121727Y-32147D01*
X121783Y-32147D01*
X121858Y-32166D01*
X121896Y-32185D01*
X121933Y-32222D01*
X121952Y-32278D01*
X121952Y-32372D01*
G54D14*
X125885Y-30497D02*
X126209Y-30497D01*
X126247Y-30478D01*
X126266Y-30459D01*
X126285Y-30421D01*
X126285Y-30345D01*
X126266Y-30307D01*
X126247Y-30288D01*
X126209Y-30269D01*
X125885Y-30269D01*
X125885Y-30116D02*
X125885Y-29869D01*
X126038Y-30002D01*
X126038Y-29945D01*
X126057Y-29907D01*
X126076Y-29888D01*
X126114Y-29869D01*
X126209Y-29869D01*
X126247Y-29888D01*
X126266Y-29907D01*
X126285Y-29945D01*
X126285Y-30059D01*
X126266Y-30097D01*
X126247Y-30116D01*
X125961Y-34485D02*
X125961Y-34185D01*
X126075Y-34185D01*
X126104Y-34200D01*
X126118Y-34214D01*
X126132Y-34242D01*
X126132Y-34285D01*
X126118Y-34314D01*
X126104Y-34328D01*
X126075Y-34342D01*
X125961Y-34342D01*
X126247Y-34214D02*
X126261Y-34200D01*
X126290Y-34185D01*
X126361Y-34185D01*
X126390Y-34200D01*
X126404Y-34214D01*
X126418Y-34242D01*
X126418Y-34271D01*
X126404Y-34314D01*
X126232Y-34485D01*
X126418Y-34485D01*
G54D23*
G54D10*
X128752Y-32065D02*
X128358Y-32065D01*
X128358Y-31915D01*
X128377Y-31878D01*
X128396Y-31859D01*
X128433Y-31840D01*
X128489Y-31840D01*
X128527Y-31859D01*
X128546Y-31878D01*
X128564Y-31915D01*
X128564Y-32065D01*
X128752Y-31465D02*
X128752Y-31690D01*
X128752Y-31578D02*
X128358Y-31578D01*
X128414Y-31615D01*
X128452Y-31653D01*
X128471Y-31690D01*
X129619Y-34755D02*
X129638Y-34699D01*
X129638Y-34605D01*
X129619Y-34568D01*
X129600Y-34549D01*
X129563Y-34530D01*
X129525Y-34530D01*
X129488Y-34549D01*
X129469Y-34568D01*
X129450Y-34605D01*
X129431Y-34680D01*
X129413Y-34718D01*
X129394Y-34737D01*
X129356Y-34755D01*
X129319Y-34755D01*
X129281Y-34737D01*
X129263Y-34718D01*
X129244Y-34680D01*
X129244Y-34587D01*
X129263Y-34530D01*
X129431Y-34362D02*
X129431Y-34230D01*
X129638Y-34174D02*
X129638Y-34362D01*
X129244Y-34362D01*
X129244Y-34174D01*
X129638Y-34005D02*
X129244Y-34005D01*
X129638Y-33780D01*
X129244Y-33780D01*
X129619Y-33612D02*
X129638Y-33556D01*
X129638Y-33462D01*
X129619Y-33424D01*
X129600Y-33406D01*
X129563Y-33387D01*
X129525Y-33387D01*
X129488Y-33406D01*
X129469Y-33424D01*
X129450Y-33462D01*
X129431Y-33537D01*
X129413Y-33574D01*
X129394Y-33593D01*
X129356Y-33612D01*
X129319Y-33612D01*
X129281Y-33593D01*
X129263Y-33574D01*
X129244Y-33537D01*
X129244Y-33443D01*
X129263Y-33387D01*
X129244Y-33143D02*
X129244Y-33068D01*
X129263Y-33031D01*
X129300Y-32993D01*
X129375Y-32974D01*
X129506Y-32974D01*
X129581Y-32993D01*
X129619Y-33031D01*
X129638Y-33068D01*
X129638Y-33143D01*
X129619Y-33181D01*
X129581Y-33218D01*
X129506Y-33237D01*
X129375Y-33237D01*
X129300Y-33218D01*
X129263Y-33181D01*
X129244Y-33143D01*
X129638Y-32581D02*
X129450Y-32712D01*
X129638Y-32806D02*
X129244Y-32806D01*
X129244Y-32656D01*
X129263Y-32618D01*
X129281Y-32599D01*
X129319Y-32581D01*
X129375Y-32581D01*
X129413Y-32599D01*
X129431Y-32618D01*
X129450Y-32656D01*
X129450Y-32806D01*
X129675Y-32506D02*
X129675Y-32206D01*
X129600Y-31887D02*
X129619Y-31906D01*
X129638Y-31962D01*
X129638Y-31999D01*
X129619Y-32056D01*
X129581Y-32093D01*
X129544Y-32112D01*
X129469Y-32131D01*
X129413Y-32131D01*
X129338Y-32112D01*
X129300Y-32093D01*
X129263Y-32056D01*
X129244Y-31999D01*
X129244Y-31962D01*
X129263Y-31906D01*
X129281Y-31887D01*
X129244Y-31643D02*
X129244Y-31568D01*
X129263Y-31531D01*
X129300Y-31493D01*
X129375Y-31475D01*
X129506Y-31475D01*
X129581Y-31493D01*
X129619Y-31531D01*
X129638Y-31568D01*
X129638Y-31643D01*
X129619Y-31681D01*
X129581Y-31718D01*
X129506Y-31737D01*
X129375Y-31737D01*
X129300Y-31718D01*
X129263Y-31681D01*
X129244Y-31643D01*
X129638Y-31306D02*
X129244Y-31306D01*
X129638Y-31081D01*
X129244Y-31081D01*
X129638Y-30893D02*
X129244Y-30893D01*
X129638Y-30668D01*
X129244Y-30668D01*
X129431Y-30481D02*
X129431Y-30350D01*
X129638Y-30293D02*
X129638Y-30481D01*
X129244Y-30481D01*
X129244Y-30293D01*
X129600Y-29900D02*
X129619Y-29918D01*
X129638Y-29975D01*
X129638Y-30012D01*
X129619Y-30068D01*
X129581Y-30106D01*
X129544Y-30125D01*
X129469Y-30143D01*
X129413Y-30143D01*
X129338Y-30125D01*
X129300Y-30106D01*
X129263Y-30068D01*
X129244Y-30012D01*
X129244Y-29975D01*
X129263Y-29918D01*
X129281Y-29900D01*
X129244Y-29787D02*
X129244Y-29562D01*
X129638Y-29675D02*
X129244Y-29675D01*
X129244Y-29356D02*
X129244Y-29281D01*
X129263Y-29244D01*
X129300Y-29206D01*
X129375Y-29187D01*
X129506Y-29187D01*
X129581Y-29206D01*
X129619Y-29244D01*
X129638Y-29281D01*
X129638Y-29356D01*
X129619Y-29394D01*
X129581Y-29431D01*
X129506Y-29450D01*
X129375Y-29450D01*
X129300Y-29431D01*
X129263Y-29394D01*
X129244Y-29356D01*
X129638Y-28794D02*
X129450Y-28925D01*
X129638Y-29019D02*
X129244Y-29019D01*
X129244Y-28869D01*
X129263Y-28831D01*
X129281Y-28812D01*
X129319Y-28794D01*
X129375Y-28794D01*
X129413Y-28812D01*
X129431Y-28831D01*
X129450Y-28869D01*
X129450Y-29019D01*
M02*
