G04 (created by PCBNEW (2013-may-18)-stable) date Вс 24 янв 2016 11:36:20*
%MOIN*%
G04 Gerber Fmt 3.4, Leading zero omitted, Abs format*
%FSLAX34Y34*%
G01*
G70*
G90*
G04 APERTURE LIST*
%ADD10C,0.00590551*%
%ADD11C,0.00984252*%
%ADD12C,0.005*%
%ADD13C,0.0039*%
%ADD14C,0.01*%
%ADD15C,0.006*%
%ADD16C,0.012*%
%ADD17C,0.0125*%
%ADD18C,0.0026*%
%ADD19C,0.0043*%
%ADD20C,0.0047*%
%ADD21C,0.008*%
%ADD22C,0.00393701*%
%ADD23C,0.0035*%
G04 APERTURE END LIST*
G54D10*
G54D11*
X108518Y-35365D02*
X108387Y-35759D01*
X108256Y-35365D01*
X107956Y-35740D02*
X107993Y-35759D01*
X108068Y-35759D01*
X108106Y-35740D01*
X108124Y-35721D01*
X108143Y-35684D01*
X108143Y-35571D01*
X108124Y-35534D01*
X108106Y-35515D01*
X108068Y-35496D01*
X107993Y-35496D01*
X107956Y-35515D01*
X107618Y-35740D02*
X107656Y-35759D01*
X107731Y-35759D01*
X107768Y-35740D01*
X107787Y-35721D01*
X107806Y-35684D01*
X107806Y-35571D01*
X107787Y-35534D01*
X107768Y-35515D01*
X107731Y-35496D01*
X107656Y-35496D01*
X107618Y-35515D01*
X108890Y-30871D02*
X108909Y-30890D01*
X108965Y-30909D01*
X109002Y-30909D01*
X109059Y-30890D01*
X109096Y-30853D01*
X109115Y-30815D01*
X109134Y-30740D01*
X109134Y-30684D01*
X109115Y-30609D01*
X109096Y-30571D01*
X109059Y-30534D01*
X109002Y-30515D01*
X108965Y-30515D01*
X108909Y-30534D01*
X108890Y-30553D01*
X108552Y-30909D02*
X108552Y-30703D01*
X108571Y-30665D01*
X108609Y-30646D01*
X108684Y-30646D01*
X108721Y-30665D01*
X108552Y-30890D02*
X108590Y-30909D01*
X108684Y-30909D01*
X108721Y-30890D01*
X108740Y-30853D01*
X108740Y-30815D01*
X108721Y-30778D01*
X108684Y-30759D01*
X108590Y-30759D01*
X108552Y-30740D01*
X108196Y-30646D02*
X108196Y-30909D01*
X108365Y-30646D02*
X108365Y-30853D01*
X108346Y-30890D01*
X108309Y-30909D01*
X108252Y-30909D01*
X108215Y-30890D01*
X108196Y-30871D01*
X108027Y-30890D02*
X107990Y-30909D01*
X107915Y-30909D01*
X107877Y-30890D01*
X107859Y-30853D01*
X107859Y-30834D01*
X107877Y-30796D01*
X107915Y-30778D01*
X107971Y-30778D01*
X108009Y-30759D01*
X108027Y-30721D01*
X108027Y-30703D01*
X108009Y-30665D01*
X107971Y-30646D01*
X107915Y-30646D01*
X107877Y-30665D01*
X107746Y-30646D02*
X107596Y-30646D01*
X107690Y-30515D02*
X107690Y-30853D01*
X107671Y-30890D01*
X107634Y-30909D01*
X107596Y-30909D01*
X107465Y-30909D02*
X107465Y-30646D01*
X107465Y-30515D02*
X107484Y-30534D01*
X107465Y-30553D01*
X107446Y-30534D01*
X107465Y-30515D01*
X107465Y-30553D01*
X107109Y-30890D02*
X107146Y-30909D01*
X107221Y-30909D01*
X107259Y-30890D01*
X107278Y-30871D01*
X107296Y-30834D01*
X107296Y-30721D01*
X107278Y-30684D01*
X107259Y-30665D01*
X107221Y-30646D01*
X107146Y-30646D01*
X107109Y-30665D01*
X106453Y-30909D02*
X106640Y-30909D01*
X106640Y-30515D01*
X106378Y-30515D02*
X106153Y-30515D01*
X106265Y-30909D02*
X106265Y-30515D01*
X105740Y-30890D02*
X105703Y-30909D01*
X105628Y-30909D01*
X105590Y-30890D01*
X105571Y-30853D01*
X105571Y-30834D01*
X105590Y-30796D01*
X105628Y-30778D01*
X105684Y-30778D01*
X105721Y-30759D01*
X105740Y-30721D01*
X105740Y-30703D01*
X105721Y-30665D01*
X105684Y-30646D01*
X105628Y-30646D01*
X105590Y-30665D01*
X105440Y-30646D02*
X105347Y-30909D01*
X105253Y-30646D02*
X105347Y-30909D01*
X105384Y-31003D01*
X105403Y-31021D01*
X105440Y-31040D01*
X105122Y-30890D02*
X105084Y-30909D01*
X105009Y-30909D01*
X104972Y-30890D01*
X104953Y-30853D01*
X104953Y-30834D01*
X104972Y-30796D01*
X105009Y-30778D01*
X105065Y-30778D01*
X105103Y-30759D01*
X105122Y-30721D01*
X105122Y-30703D01*
X105103Y-30665D01*
X105065Y-30646D01*
X105009Y-30646D01*
X104972Y-30665D01*
X104840Y-30646D02*
X104690Y-30646D01*
X104784Y-30515D02*
X104784Y-30853D01*
X104765Y-30890D01*
X104728Y-30909D01*
X104690Y-30909D01*
X104409Y-30890D02*
X104447Y-30909D01*
X104522Y-30909D01*
X104559Y-30890D01*
X104578Y-30853D01*
X104578Y-30703D01*
X104559Y-30665D01*
X104522Y-30646D01*
X104447Y-30646D01*
X104409Y-30665D01*
X104390Y-30703D01*
X104390Y-30740D01*
X104578Y-30778D01*
X104222Y-30909D02*
X104222Y-30646D01*
X104222Y-30684D02*
X104203Y-30665D01*
X104165Y-30646D01*
X104109Y-30646D01*
X104072Y-30665D01*
X104053Y-30703D01*
X104053Y-30909D01*
X104053Y-30703D02*
X104034Y-30665D01*
X103997Y-30646D01*
X103940Y-30646D01*
X103903Y-30665D01*
X103884Y-30703D01*
X103884Y-30909D01*
X108037Y-31558D02*
X108037Y-31296D01*
X108037Y-31371D02*
X108018Y-31333D01*
X107999Y-31315D01*
X107962Y-31296D01*
X107924Y-31296D01*
X107793Y-31558D02*
X107793Y-31296D01*
X107793Y-31165D02*
X107812Y-31184D01*
X107793Y-31202D01*
X107774Y-31184D01*
X107793Y-31165D01*
X107793Y-31202D01*
X107662Y-31296D02*
X107512Y-31296D01*
X107606Y-31558D02*
X107606Y-31221D01*
X107587Y-31184D01*
X107549Y-31165D01*
X107512Y-31165D01*
X107324Y-31558D02*
X107362Y-31540D01*
X107381Y-31502D01*
X107381Y-31165D01*
X107024Y-31540D02*
X107062Y-31558D01*
X107137Y-31558D01*
X107174Y-31540D01*
X107193Y-31502D01*
X107193Y-31352D01*
X107174Y-31315D01*
X107137Y-31296D01*
X107062Y-31296D01*
X107024Y-31315D01*
X107006Y-31352D01*
X107006Y-31390D01*
X107193Y-31427D01*
X106556Y-31540D02*
X106518Y-31558D01*
X106443Y-31558D01*
X106406Y-31540D01*
X106387Y-31502D01*
X106387Y-31483D01*
X106406Y-31446D01*
X106443Y-31427D01*
X106500Y-31427D01*
X106537Y-31408D01*
X106556Y-31371D01*
X106556Y-31352D01*
X106537Y-31315D01*
X106500Y-31296D01*
X106443Y-31296D01*
X106406Y-31315D01*
X106218Y-31558D02*
X106218Y-31165D01*
X106050Y-31558D02*
X106050Y-31352D01*
X106068Y-31315D01*
X106106Y-31296D01*
X106162Y-31296D01*
X106200Y-31315D01*
X106218Y-31333D01*
X105862Y-31558D02*
X105862Y-31296D01*
X105862Y-31165D02*
X105881Y-31184D01*
X105862Y-31202D01*
X105843Y-31184D01*
X105862Y-31165D01*
X105862Y-31202D01*
X105525Y-31540D02*
X105562Y-31558D01*
X105637Y-31558D01*
X105675Y-31540D01*
X105693Y-31502D01*
X105693Y-31352D01*
X105675Y-31315D01*
X105637Y-31296D01*
X105562Y-31296D01*
X105525Y-31315D01*
X105506Y-31352D01*
X105506Y-31390D01*
X105693Y-31427D01*
X105281Y-31558D02*
X105318Y-31540D01*
X105337Y-31502D01*
X105337Y-31165D01*
X104962Y-31558D02*
X104962Y-31165D01*
X104962Y-31540D02*
X105000Y-31558D01*
X105075Y-31558D01*
X105112Y-31540D01*
X105131Y-31521D01*
X105150Y-31483D01*
X105150Y-31371D01*
X105131Y-31333D01*
X105112Y-31315D01*
X105075Y-31296D01*
X105000Y-31296D01*
X104962Y-31315D01*
X107128Y-32208D02*
X107128Y-31946D01*
X107128Y-32021D02*
X107109Y-31983D01*
X107090Y-31964D01*
X107053Y-31946D01*
X107015Y-31946D01*
X106734Y-32189D02*
X106771Y-32208D01*
X106846Y-32208D01*
X106884Y-32189D01*
X106903Y-32152D01*
X106903Y-32002D01*
X106884Y-31964D01*
X106846Y-31946D01*
X106771Y-31946D01*
X106734Y-31964D01*
X106715Y-32002D01*
X106715Y-32039D01*
X106903Y-32077D01*
X106584Y-31946D02*
X106490Y-32208D01*
X106396Y-31946D01*
X106246Y-32171D02*
X106228Y-32189D01*
X106246Y-32208D01*
X106265Y-32189D01*
X106246Y-32171D01*
X106246Y-32208D01*
X105890Y-31946D02*
X105890Y-32208D01*
X105984Y-31796D02*
X106078Y-32077D01*
X105834Y-32077D01*
X100650Y-28315D02*
X100612Y-28334D01*
X100556Y-28334D01*
X100500Y-28315D01*
X100462Y-28278D01*
X100443Y-28240D01*
X100425Y-28165D01*
X100425Y-28109D01*
X100443Y-28034D01*
X100462Y-27996D01*
X100500Y-27959D01*
X100556Y-27940D01*
X100593Y-27940D01*
X100650Y-27959D01*
X100668Y-27978D01*
X100668Y-28109D01*
X100593Y-28109D01*
X100837Y-27940D02*
X100837Y-28334D01*
X101062Y-27940D01*
X101062Y-28334D01*
X101249Y-27940D02*
X101249Y-28334D01*
X101343Y-28334D01*
X101399Y-28315D01*
X101437Y-28278D01*
X101456Y-28240D01*
X101474Y-28165D01*
X101474Y-28109D01*
X101456Y-28034D01*
X101437Y-27996D01*
X101399Y-27959D01*
X101343Y-27940D01*
X101249Y-27940D01*
X97096Y-29062D02*
X97096Y-28762D01*
X97096Y-28912D02*
X97621Y-28912D01*
X97115Y-29493D02*
X97115Y-29718D01*
X97509Y-29606D02*
X97115Y-29606D01*
X97115Y-29812D02*
X97509Y-30074D01*
X97115Y-30074D02*
X97509Y-29812D01*
X97240Y-34687D02*
X97634Y-34687D01*
X97353Y-34556D01*
X97634Y-34424D01*
X97240Y-34424D01*
X97596Y-34256D02*
X97615Y-34237D01*
X97634Y-34199D01*
X97634Y-34106D01*
X97615Y-34068D01*
X97596Y-34049D01*
X97559Y-34031D01*
X97521Y-34031D01*
X97465Y-34049D01*
X97240Y-34274D01*
X97240Y-34031D01*
X97240Y-33562D02*
X97634Y-33562D01*
X97353Y-33431D01*
X97634Y-33299D01*
X97240Y-33299D01*
X97240Y-32906D02*
X97240Y-33131D01*
X97240Y-33018D02*
X97634Y-33018D01*
X97578Y-33056D01*
X97540Y-33093D01*
X97521Y-33131D01*
X97353Y-32456D02*
X97353Y-32268D01*
X97240Y-32493D02*
X97634Y-32362D01*
X97240Y-32231D01*
X97259Y-31518D02*
X97240Y-31462D01*
X97240Y-31368D01*
X97259Y-31331D01*
X97278Y-31312D01*
X97315Y-31293D01*
X97353Y-31293D01*
X97390Y-31312D01*
X97409Y-31331D01*
X97428Y-31368D01*
X97446Y-31443D01*
X97465Y-31481D01*
X97484Y-31500D01*
X97521Y-31518D01*
X97559Y-31518D01*
X97596Y-31500D01*
X97615Y-31481D01*
X97634Y-31443D01*
X97634Y-31350D01*
X97615Y-31293D01*
X102971Y-28340D02*
X102971Y-28734D01*
X103121Y-28734D01*
X103159Y-28715D01*
X103178Y-28696D01*
X103196Y-28659D01*
X103196Y-28603D01*
X103178Y-28565D01*
X103159Y-28546D01*
X103121Y-28528D01*
X102971Y-28528D01*
X103421Y-28340D02*
X103384Y-28359D01*
X103365Y-28378D01*
X103346Y-28415D01*
X103346Y-28528D01*
X103365Y-28565D01*
X103384Y-28584D01*
X103421Y-28603D01*
X103478Y-28603D01*
X103515Y-28584D01*
X103534Y-28565D01*
X103553Y-28528D01*
X103553Y-28415D01*
X103534Y-28378D01*
X103515Y-28359D01*
X103478Y-28340D01*
X103421Y-28340D01*
X103684Y-28603D02*
X103759Y-28340D01*
X103834Y-28528D01*
X103909Y-28340D01*
X103984Y-28603D01*
X104284Y-28359D02*
X104246Y-28340D01*
X104171Y-28340D01*
X104134Y-28359D01*
X104115Y-28396D01*
X104115Y-28546D01*
X104134Y-28584D01*
X104171Y-28603D01*
X104246Y-28603D01*
X104284Y-28584D01*
X104303Y-28546D01*
X104303Y-28509D01*
X104115Y-28471D01*
X104471Y-28340D02*
X104471Y-28603D01*
X104471Y-28528D02*
X104490Y-28565D01*
X104509Y-28584D01*
X104546Y-28603D01*
X104584Y-28603D01*
X102615Y-27841D02*
X102915Y-27841D01*
X103534Y-27897D02*
X103590Y-27878D01*
X103609Y-27859D01*
X103628Y-27822D01*
X103628Y-27766D01*
X103609Y-27728D01*
X103590Y-27709D01*
X103553Y-27691D01*
X103403Y-27691D01*
X103403Y-28084D01*
X103534Y-28084D01*
X103571Y-28065D01*
X103590Y-28047D01*
X103609Y-28009D01*
X103609Y-27972D01*
X103590Y-27934D01*
X103571Y-27916D01*
X103534Y-27897D01*
X103403Y-27897D01*
X103796Y-27841D02*
X104096Y-27841D01*
X103946Y-27691D02*
X103946Y-27991D01*
X104584Y-27841D02*
X104884Y-27841D01*
X104734Y-27691D02*
X104734Y-27991D01*
X105412Y-28159D02*
X105468Y-28140D01*
X105562Y-28140D01*
X105600Y-28159D01*
X105618Y-28178D01*
X105637Y-28215D01*
X105637Y-28253D01*
X105618Y-28290D01*
X105600Y-28309D01*
X105562Y-28328D01*
X105487Y-28346D01*
X105450Y-28365D01*
X105431Y-28384D01*
X105412Y-28421D01*
X105412Y-28459D01*
X105431Y-28496D01*
X105450Y-28515D01*
X105487Y-28534D01*
X105581Y-28534D01*
X105637Y-28515D01*
X105806Y-28403D02*
X105806Y-28009D01*
X105806Y-28384D02*
X105843Y-28403D01*
X105918Y-28403D01*
X105956Y-28384D01*
X105975Y-28365D01*
X105993Y-28328D01*
X105993Y-28215D01*
X105975Y-28178D01*
X105956Y-28159D01*
X105918Y-28140D01*
X105843Y-28140D01*
X105806Y-28159D01*
X106312Y-28159D02*
X106275Y-28140D01*
X106200Y-28140D01*
X106162Y-28159D01*
X106143Y-28196D01*
X106143Y-28346D01*
X106162Y-28384D01*
X106200Y-28403D01*
X106275Y-28403D01*
X106312Y-28384D01*
X106331Y-28346D01*
X106331Y-28309D01*
X106143Y-28271D01*
X106668Y-28140D02*
X106668Y-28346D01*
X106649Y-28384D01*
X106612Y-28403D01*
X106537Y-28403D01*
X106500Y-28384D01*
X106668Y-28159D02*
X106631Y-28140D01*
X106537Y-28140D01*
X106500Y-28159D01*
X106481Y-28196D01*
X106481Y-28234D01*
X106500Y-28271D01*
X106537Y-28290D01*
X106631Y-28290D01*
X106668Y-28309D01*
X106856Y-28140D02*
X106856Y-28534D01*
X106893Y-28290D02*
X107006Y-28140D01*
X107006Y-28403D02*
X106856Y-28253D01*
X107324Y-28159D02*
X107287Y-28140D01*
X107212Y-28140D01*
X107174Y-28159D01*
X107156Y-28196D01*
X107156Y-28346D01*
X107174Y-28384D01*
X107212Y-28403D01*
X107287Y-28403D01*
X107324Y-28384D01*
X107343Y-28346D01*
X107343Y-28309D01*
X107156Y-28271D01*
X107512Y-28140D02*
X107512Y-28403D01*
X107512Y-28328D02*
X107531Y-28365D01*
X107549Y-28384D01*
X107587Y-28403D01*
X107624Y-28403D01*
X101780Y-35798D02*
X101761Y-35742D01*
X101742Y-35723D01*
X101705Y-35704D01*
X101649Y-35704D01*
X101611Y-35723D01*
X101592Y-35742D01*
X101574Y-35779D01*
X101574Y-35929D01*
X101967Y-35929D01*
X101967Y-35798D01*
X101949Y-35761D01*
X101930Y-35742D01*
X101892Y-35723D01*
X101855Y-35723D01*
X101817Y-35742D01*
X101799Y-35761D01*
X101780Y-35798D01*
X101780Y-35929D01*
X101574Y-35479D02*
X101592Y-35517D01*
X101611Y-35536D01*
X101649Y-35554D01*
X101761Y-35554D01*
X101799Y-35536D01*
X101817Y-35517D01*
X101836Y-35479D01*
X101836Y-35423D01*
X101817Y-35386D01*
X101799Y-35367D01*
X101761Y-35348D01*
X101649Y-35348D01*
X101611Y-35367D01*
X101592Y-35386D01*
X101574Y-35423D01*
X101574Y-35479D01*
X101574Y-35123D02*
X101592Y-35161D01*
X101630Y-35179D01*
X101967Y-35179D01*
X101836Y-35029D02*
X101836Y-34880D01*
X101967Y-34973D02*
X101630Y-34973D01*
X101592Y-34955D01*
X101574Y-34917D01*
X101574Y-34880D01*
X100598Y-35954D02*
X100580Y-35898D01*
X100580Y-35804D01*
X100598Y-35767D01*
X100617Y-35748D01*
X100655Y-35729D01*
X100692Y-35729D01*
X100729Y-35748D01*
X100748Y-35767D01*
X100767Y-35804D01*
X100786Y-35879D01*
X100804Y-35917D01*
X100823Y-35935D01*
X100861Y-35954D01*
X100898Y-35954D01*
X100936Y-35935D01*
X100954Y-35917D01*
X100973Y-35879D01*
X100973Y-35785D01*
X100954Y-35729D01*
X100580Y-35561D02*
X100973Y-35561D01*
X100580Y-35392D02*
X100786Y-35392D01*
X100823Y-35411D01*
X100842Y-35448D01*
X100842Y-35504D01*
X100823Y-35542D01*
X100804Y-35561D01*
X100842Y-35036D02*
X100580Y-35036D01*
X100842Y-35204D02*
X100636Y-35204D01*
X100598Y-35186D01*
X100580Y-35148D01*
X100580Y-35092D01*
X100598Y-35054D01*
X100617Y-35036D01*
X100842Y-34904D02*
X100842Y-34754D01*
X100973Y-34848D02*
X100636Y-34848D01*
X100598Y-34829D01*
X100580Y-34792D01*
X100580Y-34754D01*
X100842Y-34679D02*
X100842Y-34529D01*
X100973Y-34623D02*
X100636Y-34623D01*
X100598Y-34604D01*
X100580Y-34567D01*
X100580Y-34529D01*
X100598Y-34248D02*
X100580Y-34286D01*
X100580Y-34361D01*
X100598Y-34398D01*
X100636Y-34417D01*
X100786Y-34417D01*
X100823Y-34398D01*
X100842Y-34361D01*
X100842Y-34286D01*
X100823Y-34248D01*
X100786Y-34229D01*
X100748Y-34229D01*
X100711Y-34417D01*
X100580Y-34061D02*
X100842Y-34061D01*
X100767Y-34061D02*
X100804Y-34042D01*
X100823Y-34023D01*
X100842Y-33986D01*
X100842Y-33948D01*
X104446Y-35259D02*
X104446Y-34865D01*
X104034Y-35259D02*
X104165Y-35071D01*
X104259Y-35259D02*
X104259Y-34865D01*
X104109Y-34865D01*
X104071Y-34884D01*
X104053Y-34903D01*
X104034Y-34940D01*
X104034Y-34996D01*
X104053Y-35034D01*
X104071Y-35053D01*
X104109Y-35071D01*
X104259Y-35071D01*
X103509Y-35259D02*
X103546Y-35240D01*
X103565Y-35203D01*
X103565Y-34865D01*
X103209Y-35240D02*
X103246Y-35259D01*
X103321Y-35259D01*
X103359Y-35240D01*
X103378Y-35203D01*
X103378Y-35053D01*
X103359Y-35015D01*
X103321Y-34996D01*
X103246Y-34996D01*
X103209Y-35015D01*
X103190Y-35053D01*
X103190Y-35090D01*
X103378Y-35128D01*
X102853Y-35259D02*
X102853Y-34865D01*
X102853Y-35240D02*
X102890Y-35259D01*
X102965Y-35259D01*
X103003Y-35240D01*
X103021Y-35221D01*
X103040Y-35184D01*
X103040Y-35071D01*
X103021Y-35034D01*
X103003Y-35015D01*
X102965Y-34996D01*
X102890Y-34996D01*
X102853Y-35015D01*
X104343Y-35758D02*
X104043Y-35758D01*
X104193Y-35908D02*
X104193Y-35608D01*
X103256Y-35758D02*
X102956Y-35758D01*
X105203Y-34587D02*
X105203Y-34456D01*
X105409Y-34456D02*
X105015Y-34456D01*
X105015Y-34643D01*
X105409Y-34850D02*
X105390Y-34812D01*
X105353Y-34793D01*
X105015Y-34793D01*
X105409Y-35168D02*
X105203Y-35168D01*
X105165Y-35150D01*
X105146Y-35112D01*
X105146Y-35037D01*
X105165Y-35000D01*
X105390Y-35168D02*
X105409Y-35131D01*
X105409Y-35037D01*
X105390Y-35000D01*
X105353Y-34981D01*
X105315Y-34981D01*
X105278Y-35000D01*
X105259Y-35037D01*
X105259Y-35131D01*
X105240Y-35168D01*
X105390Y-35337D02*
X105409Y-35374D01*
X105409Y-35449D01*
X105390Y-35487D01*
X105353Y-35506D01*
X105334Y-35506D01*
X105296Y-35487D01*
X105278Y-35449D01*
X105278Y-35393D01*
X105259Y-35356D01*
X105221Y-35337D01*
X105203Y-35337D01*
X105165Y-35356D01*
X105146Y-35393D01*
X105146Y-35449D01*
X105165Y-35487D01*
X105409Y-35674D02*
X105015Y-35674D01*
X105409Y-35843D02*
X105203Y-35843D01*
X105165Y-35824D01*
X105146Y-35787D01*
X105146Y-35731D01*
X105165Y-35693D01*
X105184Y-35674D01*
X106015Y-34446D02*
X106409Y-34578D01*
X106015Y-34709D01*
X106409Y-34840D02*
X106146Y-34840D01*
X106015Y-34840D02*
X106034Y-34821D01*
X106053Y-34840D01*
X106034Y-34859D01*
X106015Y-34840D01*
X106053Y-34840D01*
X106409Y-35028D02*
X106015Y-35028D01*
X106165Y-35028D02*
X106146Y-35065D01*
X106146Y-35140D01*
X106165Y-35178D01*
X106184Y-35196D01*
X106221Y-35215D01*
X106334Y-35215D01*
X106371Y-35196D01*
X106390Y-35178D01*
X106409Y-35140D01*
X106409Y-35065D01*
X106390Y-35028D01*
X106409Y-35384D02*
X106146Y-35384D01*
X106221Y-35384D02*
X106184Y-35403D01*
X106165Y-35421D01*
X106146Y-35459D01*
X106146Y-35496D01*
X106409Y-35684D02*
X106390Y-35646D01*
X106371Y-35628D01*
X106334Y-35609D01*
X106221Y-35609D01*
X106184Y-35628D01*
X106165Y-35646D01*
X106146Y-35684D01*
X106146Y-35740D01*
X106165Y-35778D01*
X106184Y-35796D01*
X106221Y-35815D01*
X106334Y-35815D01*
X106371Y-35796D01*
X106390Y-35778D01*
X106409Y-35740D01*
X106409Y-35684D01*
X106719Y-56627D02*
X106719Y-56365D01*
X106719Y-56402D02*
X106701Y-56384D01*
X106663Y-56365D01*
X106607Y-56365D01*
X106569Y-56384D01*
X106551Y-56421D01*
X106551Y-56627D01*
X106551Y-56421D02*
X106532Y-56384D01*
X106494Y-56365D01*
X106438Y-56365D01*
X106401Y-56384D01*
X106382Y-56421D01*
X106382Y-56627D01*
X106194Y-56627D02*
X106194Y-56365D01*
X106194Y-56234D02*
X106213Y-56252D01*
X106194Y-56271D01*
X106176Y-56252D01*
X106194Y-56234D01*
X106194Y-56271D01*
X105838Y-56609D02*
X105876Y-56627D01*
X105951Y-56627D01*
X105988Y-56609D01*
X106007Y-56590D01*
X106026Y-56552D01*
X106026Y-56440D01*
X106007Y-56402D01*
X105988Y-56384D01*
X105951Y-56365D01*
X105876Y-56365D01*
X105838Y-56384D01*
X105669Y-56627D02*
X105669Y-56365D01*
X105669Y-56440D02*
X105651Y-56402D01*
X105632Y-56384D01*
X105594Y-56365D01*
X105557Y-56365D01*
X105369Y-56627D02*
X105407Y-56609D01*
X105426Y-56590D01*
X105444Y-56552D01*
X105444Y-56440D01*
X105426Y-56402D01*
X105407Y-56384D01*
X105369Y-56365D01*
X105313Y-56365D01*
X105276Y-56384D01*
X105257Y-56402D01*
X105238Y-56440D01*
X105238Y-56552D01*
X105257Y-56590D01*
X105276Y-56609D01*
X105313Y-56627D01*
X105369Y-56627D01*
X105088Y-56609D02*
X105032Y-56627D01*
X104938Y-56627D01*
X104901Y-56609D01*
X104882Y-56590D01*
X104863Y-56552D01*
X104863Y-56515D01*
X104882Y-56477D01*
X104901Y-56459D01*
X104938Y-56440D01*
X105013Y-56421D01*
X105051Y-56402D01*
X105070Y-56384D01*
X105088Y-56346D01*
X105088Y-56309D01*
X105070Y-56271D01*
X105051Y-56252D01*
X105013Y-56234D01*
X104920Y-56234D01*
X104863Y-56252D01*
X104695Y-56627D02*
X104695Y-56234D01*
X104601Y-56234D01*
X104545Y-56252D01*
X104507Y-56290D01*
X104488Y-56327D01*
X104470Y-56402D01*
X104470Y-56459D01*
X104488Y-56534D01*
X104507Y-56571D01*
X104545Y-56609D01*
X104601Y-56627D01*
X104695Y-56627D01*
X106560Y-57277D02*
X106785Y-57277D01*
X106672Y-57277D02*
X106672Y-56883D01*
X106710Y-56940D01*
X106747Y-56977D01*
X106785Y-56996D01*
X106185Y-57277D02*
X106410Y-57277D01*
X106297Y-57277D02*
X106297Y-56883D01*
X106335Y-56940D01*
X106372Y-56977D01*
X106410Y-56996D01*
X106035Y-56921D02*
X106016Y-56902D01*
X105979Y-56883D01*
X105885Y-56883D01*
X105848Y-56902D01*
X105829Y-56921D01*
X105810Y-56958D01*
X105810Y-56996D01*
X105829Y-57052D01*
X106054Y-57277D01*
X105810Y-57277D01*
X105641Y-57277D02*
X105641Y-56883D01*
X105173Y-56865D02*
X105510Y-57371D01*
X104929Y-56883D02*
X104929Y-57164D01*
X104948Y-57221D01*
X104985Y-57258D01*
X105041Y-57277D01*
X105079Y-57277D01*
X104741Y-57127D02*
X104441Y-57127D01*
X106719Y-57533D02*
X106494Y-57533D01*
X106607Y-57927D02*
X106607Y-57533D01*
X106363Y-57927D02*
X106363Y-57533D01*
X106269Y-57533D01*
X106213Y-57552D01*
X106176Y-57589D01*
X106157Y-57627D01*
X106138Y-57702D01*
X106138Y-57758D01*
X106157Y-57833D01*
X106176Y-57870D01*
X106213Y-57908D01*
X106269Y-57927D01*
X106363Y-57927D01*
X105988Y-57814D02*
X105801Y-57814D01*
X106026Y-57927D02*
X105894Y-57533D01*
X105763Y-57927D01*
X105407Y-57927D02*
X105538Y-57739D01*
X105632Y-57927D02*
X105632Y-57533D01*
X105482Y-57533D01*
X105444Y-57552D01*
X105426Y-57570D01*
X105407Y-57608D01*
X105407Y-57664D01*
X105426Y-57702D01*
X105444Y-57720D01*
X105482Y-57739D01*
X105632Y-57739D01*
X105238Y-57777D02*
X104938Y-57777D01*
X104526Y-57927D02*
X104657Y-57739D01*
X104751Y-57927D02*
X104751Y-57533D01*
X104601Y-57533D01*
X104563Y-57552D01*
X104545Y-57570D01*
X104526Y-57608D01*
X104526Y-57664D01*
X104545Y-57702D01*
X104563Y-57720D01*
X104601Y-57739D01*
X104751Y-57739D01*
X110763Y-55371D02*
X110369Y-55371D01*
X110651Y-55502D01*
X110369Y-55634D01*
X110763Y-55634D01*
X110726Y-56046D02*
X110744Y-56027D01*
X110763Y-55971D01*
X110763Y-55934D01*
X110744Y-55877D01*
X110707Y-55840D01*
X110669Y-55821D01*
X110594Y-55802D01*
X110538Y-55802D01*
X110463Y-55821D01*
X110426Y-55840D01*
X110388Y-55877D01*
X110369Y-55934D01*
X110369Y-55971D01*
X110388Y-56027D01*
X110407Y-56046D01*
X110369Y-56215D02*
X110688Y-56215D01*
X110726Y-56234D01*
X110744Y-56252D01*
X110763Y-56290D01*
X110763Y-56365D01*
X110744Y-56402D01*
X110726Y-56421D01*
X110688Y-56440D01*
X110369Y-56440D01*
X110744Y-57096D02*
X110763Y-57059D01*
X110763Y-56984D01*
X110744Y-56946D01*
X110726Y-56927D01*
X110688Y-56909D01*
X110576Y-56909D01*
X110538Y-56927D01*
X110519Y-56946D01*
X110501Y-56984D01*
X110501Y-57059D01*
X110519Y-57096D01*
X110763Y-57321D02*
X110744Y-57284D01*
X110726Y-57265D01*
X110688Y-57246D01*
X110576Y-57246D01*
X110538Y-57265D01*
X110519Y-57284D01*
X110501Y-57321D01*
X110501Y-57377D01*
X110519Y-57415D01*
X110538Y-57434D01*
X110576Y-57452D01*
X110688Y-57452D01*
X110726Y-57434D01*
X110744Y-57415D01*
X110763Y-57377D01*
X110763Y-57321D01*
X110501Y-57621D02*
X110763Y-57621D01*
X110538Y-57621D02*
X110519Y-57640D01*
X110501Y-57677D01*
X110501Y-57733D01*
X110519Y-57771D01*
X110557Y-57790D01*
X110763Y-57790D01*
X110501Y-57977D02*
X110763Y-57977D01*
X110538Y-57977D02*
X110519Y-57996D01*
X110501Y-58033D01*
X110501Y-58090D01*
X110519Y-58127D01*
X110557Y-58146D01*
X110763Y-58146D01*
X110744Y-58483D02*
X110763Y-58446D01*
X110763Y-58371D01*
X110744Y-58333D01*
X110707Y-58315D01*
X110557Y-58315D01*
X110519Y-58333D01*
X110501Y-58371D01*
X110501Y-58446D01*
X110519Y-58483D01*
X110557Y-58502D01*
X110594Y-58502D01*
X110632Y-58315D01*
X110744Y-58840D02*
X110763Y-58802D01*
X110763Y-58727D01*
X110744Y-58690D01*
X110726Y-58671D01*
X110688Y-58652D01*
X110576Y-58652D01*
X110538Y-58671D01*
X110519Y-58690D01*
X110501Y-58727D01*
X110501Y-58802D01*
X110519Y-58840D01*
X110501Y-58952D02*
X110501Y-59102D01*
X110369Y-59008D02*
X110707Y-59008D01*
X110744Y-59027D01*
X110763Y-59065D01*
X110763Y-59102D01*
X110763Y-59290D02*
X110744Y-59252D01*
X110726Y-59233D01*
X110688Y-59215D01*
X110576Y-59215D01*
X110538Y-59233D01*
X110519Y-59252D01*
X110501Y-59290D01*
X110501Y-59346D01*
X110519Y-59383D01*
X110538Y-59402D01*
X110576Y-59421D01*
X110688Y-59421D01*
X110726Y-59402D01*
X110744Y-59383D01*
X110763Y-59346D01*
X110763Y-59290D01*
X110763Y-59589D02*
X110501Y-59589D01*
X110576Y-59589D02*
X110538Y-59608D01*
X110519Y-59627D01*
X110501Y-59664D01*
X110501Y-59702D01*
X110407Y-60114D02*
X110388Y-60133D01*
X110369Y-60171D01*
X110369Y-60264D01*
X110388Y-60302D01*
X110407Y-60321D01*
X110444Y-60339D01*
X110482Y-60339D01*
X110538Y-60321D01*
X110763Y-60096D01*
X110763Y-60339D01*
X97177Y-60084D02*
X97570Y-60084D01*
X97289Y-59953D01*
X97570Y-59822D01*
X97177Y-59822D01*
X97214Y-59410D02*
X97196Y-59428D01*
X97177Y-59485D01*
X97177Y-59522D01*
X97196Y-59578D01*
X97233Y-59616D01*
X97270Y-59634D01*
X97345Y-59653D01*
X97402Y-59653D01*
X97477Y-59634D01*
X97514Y-59616D01*
X97552Y-59578D01*
X97570Y-59522D01*
X97570Y-59485D01*
X97552Y-59428D01*
X97533Y-59410D01*
X97570Y-59241D02*
X97252Y-59241D01*
X97214Y-59222D01*
X97196Y-59203D01*
X97177Y-59166D01*
X97177Y-59091D01*
X97196Y-59053D01*
X97214Y-59035D01*
X97252Y-59016D01*
X97570Y-59016D01*
X97196Y-58360D02*
X97177Y-58397D01*
X97177Y-58472D01*
X97196Y-58510D01*
X97214Y-58528D01*
X97252Y-58547D01*
X97364Y-58547D01*
X97402Y-58528D01*
X97420Y-58510D01*
X97439Y-58472D01*
X97439Y-58397D01*
X97420Y-58360D01*
X97177Y-58135D02*
X97196Y-58172D01*
X97214Y-58191D01*
X97252Y-58210D01*
X97364Y-58210D01*
X97402Y-58191D01*
X97420Y-58172D01*
X97439Y-58135D01*
X97439Y-58078D01*
X97420Y-58041D01*
X97402Y-58022D01*
X97364Y-58003D01*
X97252Y-58003D01*
X97214Y-58022D01*
X97196Y-58041D01*
X97177Y-58078D01*
X97177Y-58135D01*
X97439Y-57835D02*
X97177Y-57835D01*
X97402Y-57835D02*
X97420Y-57816D01*
X97439Y-57778D01*
X97439Y-57722D01*
X97420Y-57685D01*
X97383Y-57666D01*
X97177Y-57666D01*
X97439Y-57479D02*
X97177Y-57479D01*
X97402Y-57479D02*
X97420Y-57460D01*
X97439Y-57422D01*
X97439Y-57366D01*
X97420Y-57329D01*
X97383Y-57310D01*
X97177Y-57310D01*
X97196Y-56972D02*
X97177Y-57010D01*
X97177Y-57085D01*
X97196Y-57122D01*
X97233Y-57141D01*
X97383Y-57141D01*
X97420Y-57122D01*
X97439Y-57085D01*
X97439Y-57010D01*
X97420Y-56972D01*
X97383Y-56954D01*
X97345Y-56954D01*
X97308Y-57141D01*
X97196Y-56616D02*
X97177Y-56654D01*
X97177Y-56729D01*
X97196Y-56766D01*
X97214Y-56785D01*
X97252Y-56804D01*
X97364Y-56804D01*
X97402Y-56785D01*
X97420Y-56766D01*
X97439Y-56729D01*
X97439Y-56654D01*
X97420Y-56616D01*
X97439Y-56504D02*
X97439Y-56354D01*
X97570Y-56447D02*
X97233Y-56447D01*
X97196Y-56429D01*
X97177Y-56391D01*
X97177Y-56354D01*
X97177Y-56166D02*
X97196Y-56204D01*
X97214Y-56222D01*
X97252Y-56241D01*
X97364Y-56241D01*
X97402Y-56222D01*
X97420Y-56204D01*
X97439Y-56166D01*
X97439Y-56110D01*
X97420Y-56072D01*
X97402Y-56054D01*
X97364Y-56035D01*
X97252Y-56035D01*
X97214Y-56054D01*
X97196Y-56072D01*
X97177Y-56110D01*
X97177Y-56166D01*
X97177Y-55866D02*
X97439Y-55866D01*
X97364Y-55866D02*
X97402Y-55847D01*
X97420Y-55829D01*
X97439Y-55791D01*
X97439Y-55754D01*
X97177Y-55116D02*
X97177Y-55341D01*
X97177Y-55229D02*
X97570Y-55229D01*
X97514Y-55266D01*
X97477Y-55304D01*
X97458Y-55341D01*
X110763Y-53204D02*
X110763Y-52979D01*
X110763Y-53092D02*
X110369Y-53092D01*
X110426Y-53054D01*
X110463Y-53017D01*
X110482Y-52979D01*
X110763Y-53392D02*
X110763Y-53467D01*
X110744Y-53504D01*
X110726Y-53523D01*
X110669Y-53560D01*
X110594Y-53579D01*
X110444Y-53579D01*
X110407Y-53560D01*
X110388Y-53541D01*
X110369Y-53504D01*
X110369Y-53429D01*
X110388Y-53392D01*
X110407Y-53373D01*
X110444Y-53354D01*
X110538Y-53354D01*
X110576Y-53373D01*
X110594Y-53392D01*
X110613Y-53429D01*
X110613Y-53504D01*
X110594Y-53541D01*
X110576Y-53560D01*
X110538Y-53579D01*
X110763Y-62447D02*
X110763Y-62222D01*
X110763Y-62334D02*
X110369Y-62334D01*
X110426Y-62297D01*
X110463Y-62259D01*
X110482Y-62222D01*
X97177Y-62330D02*
X97177Y-62555D01*
X97177Y-62443D02*
X97570Y-62443D01*
X97514Y-62480D01*
X97477Y-62518D01*
X97458Y-62555D01*
X97177Y-62143D02*
X97177Y-62068D01*
X97196Y-62030D01*
X97214Y-62012D01*
X97270Y-61974D01*
X97345Y-61955D01*
X97495Y-61955D01*
X97533Y-61974D01*
X97552Y-61993D01*
X97570Y-62030D01*
X97570Y-62105D01*
X97552Y-62143D01*
X97533Y-62162D01*
X97495Y-62180D01*
X97402Y-62180D01*
X97364Y-62162D01*
X97345Y-62143D01*
X97327Y-62105D01*
X97327Y-62030D01*
X97345Y-61993D01*
X97364Y-61974D01*
X97402Y-61955D01*
X97177Y-53127D02*
X97177Y-53352D01*
X97177Y-53240D02*
X97570Y-53240D01*
X97514Y-53277D01*
X97477Y-53315D01*
X97458Y-53352D01*
X108112Y-61984D02*
X108131Y-62002D01*
X108187Y-62021D01*
X108225Y-62021D01*
X108281Y-62002D01*
X108318Y-61965D01*
X108337Y-61927D01*
X108356Y-61852D01*
X108356Y-61796D01*
X108337Y-61721D01*
X108318Y-61684D01*
X108281Y-61646D01*
X108225Y-61627D01*
X108187Y-61627D01*
X108131Y-61646D01*
X108112Y-61665D01*
X107775Y-62021D02*
X107775Y-61815D01*
X107794Y-61777D01*
X107831Y-61759D01*
X107906Y-61759D01*
X107944Y-61777D01*
X107775Y-62002D02*
X107812Y-62021D01*
X107906Y-62021D01*
X107944Y-62002D01*
X107962Y-61965D01*
X107962Y-61927D01*
X107944Y-61890D01*
X107906Y-61871D01*
X107812Y-61871D01*
X107775Y-61852D01*
X107419Y-61759D02*
X107419Y-62021D01*
X107587Y-61759D02*
X107587Y-61965D01*
X107569Y-62002D01*
X107531Y-62021D01*
X107475Y-62021D01*
X107437Y-62002D01*
X107419Y-61984D01*
X107250Y-62002D02*
X107212Y-62021D01*
X107137Y-62021D01*
X107100Y-62002D01*
X107081Y-61965D01*
X107081Y-61946D01*
X107100Y-61909D01*
X107137Y-61890D01*
X107194Y-61890D01*
X107231Y-61871D01*
X107250Y-61834D01*
X107250Y-61815D01*
X107231Y-61777D01*
X107194Y-61759D01*
X107137Y-61759D01*
X107100Y-61777D01*
X106969Y-61759D02*
X106819Y-61759D01*
X106912Y-61627D02*
X106912Y-61965D01*
X106894Y-62002D01*
X106856Y-62021D01*
X106819Y-62021D01*
X106687Y-62021D02*
X106687Y-61759D01*
X106687Y-61627D02*
X106706Y-61646D01*
X106687Y-61665D01*
X106669Y-61646D01*
X106687Y-61627D01*
X106687Y-61665D01*
X106331Y-62002D02*
X106369Y-62021D01*
X106444Y-62021D01*
X106481Y-62002D01*
X106500Y-61984D01*
X106519Y-61946D01*
X106519Y-61834D01*
X106500Y-61796D01*
X106481Y-61777D01*
X106444Y-61759D01*
X106369Y-61759D01*
X106331Y-61777D01*
X105675Y-62021D02*
X105863Y-62021D01*
X105863Y-61627D01*
X105600Y-61627D02*
X105375Y-61627D01*
X105488Y-62021D02*
X105488Y-61627D01*
X104963Y-62002D02*
X104925Y-62021D01*
X104850Y-62021D01*
X104813Y-62002D01*
X104794Y-61965D01*
X104794Y-61946D01*
X104813Y-61909D01*
X104850Y-61890D01*
X104906Y-61890D01*
X104944Y-61871D01*
X104963Y-61834D01*
X104963Y-61815D01*
X104944Y-61777D01*
X104906Y-61759D01*
X104850Y-61759D01*
X104813Y-61777D01*
X104663Y-61759D02*
X104569Y-62021D01*
X104475Y-61759D02*
X104569Y-62021D01*
X104606Y-62115D01*
X104625Y-62134D01*
X104663Y-62152D01*
X104344Y-62002D02*
X104306Y-62021D01*
X104232Y-62021D01*
X104194Y-62002D01*
X104175Y-61965D01*
X104175Y-61946D01*
X104194Y-61909D01*
X104232Y-61890D01*
X104288Y-61890D01*
X104325Y-61871D01*
X104344Y-61834D01*
X104344Y-61815D01*
X104325Y-61777D01*
X104288Y-61759D01*
X104232Y-61759D01*
X104194Y-61777D01*
X104063Y-61759D02*
X103913Y-61759D01*
X104007Y-61627D02*
X104007Y-61965D01*
X103988Y-62002D01*
X103950Y-62021D01*
X103913Y-62021D01*
X103632Y-62002D02*
X103669Y-62021D01*
X103744Y-62021D01*
X103782Y-62002D01*
X103800Y-61965D01*
X103800Y-61815D01*
X103782Y-61777D01*
X103744Y-61759D01*
X103669Y-61759D01*
X103632Y-61777D01*
X103613Y-61815D01*
X103613Y-61852D01*
X103800Y-61890D01*
X103444Y-62021D02*
X103444Y-61759D01*
X103444Y-61796D02*
X103425Y-61777D01*
X103388Y-61759D01*
X103332Y-61759D01*
X103294Y-61777D01*
X103275Y-61815D01*
X103275Y-62021D01*
X103275Y-61815D02*
X103257Y-61777D01*
X103219Y-61759D01*
X103163Y-61759D01*
X103125Y-61777D01*
X103107Y-61815D01*
X103107Y-62021D01*
X108300Y-62671D02*
X108300Y-62277D01*
X108169Y-62558D01*
X108037Y-62277D01*
X108037Y-62671D01*
X107625Y-62633D02*
X107644Y-62652D01*
X107700Y-62671D01*
X107737Y-62671D01*
X107794Y-62652D01*
X107831Y-62614D01*
X107850Y-62577D01*
X107869Y-62502D01*
X107869Y-62446D01*
X107850Y-62371D01*
X107831Y-62333D01*
X107794Y-62296D01*
X107737Y-62277D01*
X107700Y-62277D01*
X107644Y-62296D01*
X107625Y-62314D01*
X107456Y-62277D02*
X107456Y-62596D01*
X107437Y-62633D01*
X107419Y-62652D01*
X107381Y-62671D01*
X107306Y-62671D01*
X107269Y-62652D01*
X107250Y-62633D01*
X107231Y-62596D01*
X107231Y-62277D01*
X106744Y-62671D02*
X106744Y-62277D01*
X106744Y-62427D02*
X106706Y-62408D01*
X106631Y-62408D01*
X106594Y-62427D01*
X106575Y-62446D01*
X106556Y-62483D01*
X106556Y-62596D01*
X106575Y-62633D01*
X106594Y-62652D01*
X106631Y-62671D01*
X106706Y-62671D01*
X106744Y-62652D01*
X106331Y-62671D02*
X106369Y-62652D01*
X106387Y-62633D01*
X106406Y-62596D01*
X106406Y-62483D01*
X106387Y-62446D01*
X106369Y-62427D01*
X106331Y-62408D01*
X106275Y-62408D01*
X106238Y-62427D01*
X106219Y-62446D01*
X106200Y-62483D01*
X106200Y-62596D01*
X106219Y-62633D01*
X106238Y-62652D01*
X106275Y-62671D01*
X106331Y-62671D01*
X105863Y-62671D02*
X105863Y-62464D01*
X105881Y-62427D01*
X105919Y-62408D01*
X105994Y-62408D01*
X106031Y-62427D01*
X105863Y-62652D02*
X105900Y-62671D01*
X105994Y-62671D01*
X106031Y-62652D01*
X106050Y-62614D01*
X106050Y-62577D01*
X106031Y-62539D01*
X105994Y-62521D01*
X105900Y-62521D01*
X105863Y-62502D01*
X105675Y-62671D02*
X105675Y-62408D01*
X105675Y-62483D02*
X105656Y-62446D01*
X105638Y-62427D01*
X105600Y-62408D01*
X105563Y-62408D01*
X105263Y-62671D02*
X105263Y-62277D01*
X105263Y-62652D02*
X105300Y-62671D01*
X105375Y-62671D01*
X105413Y-62652D01*
X105431Y-62633D01*
X105450Y-62596D01*
X105450Y-62483D01*
X105431Y-62446D01*
X105413Y-62427D01*
X105375Y-62408D01*
X105300Y-62408D01*
X105263Y-62427D01*
X104775Y-62671D02*
X104775Y-62408D01*
X104775Y-62483D02*
X104756Y-62446D01*
X104738Y-62427D01*
X104700Y-62408D01*
X104663Y-62408D01*
X104381Y-62652D02*
X104419Y-62671D01*
X104494Y-62671D01*
X104531Y-62652D01*
X104550Y-62614D01*
X104550Y-62464D01*
X104531Y-62427D01*
X104494Y-62408D01*
X104419Y-62408D01*
X104381Y-62427D01*
X104363Y-62464D01*
X104363Y-62502D01*
X104550Y-62539D01*
X104232Y-62408D02*
X104138Y-62671D01*
X104044Y-62408D01*
X103932Y-62277D02*
X103688Y-62277D01*
X103819Y-62427D01*
X103763Y-62427D01*
X103725Y-62446D01*
X103707Y-62464D01*
X103688Y-62502D01*
X103688Y-62596D01*
X103707Y-62633D01*
X103725Y-62652D01*
X103763Y-62671D01*
X103875Y-62671D01*
X103913Y-62652D01*
X103932Y-62633D01*
X103519Y-62633D02*
X103500Y-62652D01*
X103519Y-62671D01*
X103538Y-62652D01*
X103519Y-62633D01*
X103519Y-62671D01*
X103125Y-62671D02*
X103350Y-62671D01*
X103238Y-62671D02*
X103238Y-62277D01*
X103275Y-62333D01*
X103313Y-62371D01*
X103350Y-62389D01*
X125019Y-56627D02*
X125019Y-56365D01*
X125019Y-56402D02*
X125001Y-56384D01*
X124963Y-56365D01*
X124907Y-56365D01*
X124869Y-56384D01*
X124851Y-56421D01*
X124851Y-56627D01*
X124851Y-56421D02*
X124832Y-56384D01*
X124794Y-56365D01*
X124738Y-56365D01*
X124701Y-56384D01*
X124682Y-56421D01*
X124682Y-56627D01*
X124494Y-56627D02*
X124494Y-56365D01*
X124494Y-56234D02*
X124513Y-56252D01*
X124494Y-56271D01*
X124476Y-56252D01*
X124494Y-56234D01*
X124494Y-56271D01*
X124138Y-56609D02*
X124176Y-56627D01*
X124251Y-56627D01*
X124288Y-56609D01*
X124307Y-56590D01*
X124326Y-56552D01*
X124326Y-56440D01*
X124307Y-56402D01*
X124288Y-56384D01*
X124251Y-56365D01*
X124176Y-56365D01*
X124138Y-56384D01*
X123969Y-56627D02*
X123969Y-56365D01*
X123969Y-56440D02*
X123951Y-56402D01*
X123932Y-56384D01*
X123894Y-56365D01*
X123857Y-56365D01*
X123669Y-56627D02*
X123707Y-56609D01*
X123726Y-56590D01*
X123744Y-56552D01*
X123744Y-56440D01*
X123726Y-56402D01*
X123707Y-56384D01*
X123669Y-56365D01*
X123613Y-56365D01*
X123576Y-56384D01*
X123557Y-56402D01*
X123538Y-56440D01*
X123538Y-56552D01*
X123557Y-56590D01*
X123576Y-56609D01*
X123613Y-56627D01*
X123669Y-56627D01*
X123388Y-56609D02*
X123332Y-56627D01*
X123238Y-56627D01*
X123201Y-56609D01*
X123182Y-56590D01*
X123163Y-56552D01*
X123163Y-56515D01*
X123182Y-56477D01*
X123201Y-56459D01*
X123238Y-56440D01*
X123313Y-56421D01*
X123351Y-56402D01*
X123370Y-56384D01*
X123388Y-56346D01*
X123388Y-56309D01*
X123370Y-56271D01*
X123351Y-56252D01*
X123313Y-56234D01*
X123220Y-56234D01*
X123163Y-56252D01*
X122995Y-56627D02*
X122995Y-56234D01*
X122901Y-56234D01*
X122845Y-56252D01*
X122807Y-56290D01*
X122788Y-56327D01*
X122770Y-56402D01*
X122770Y-56459D01*
X122788Y-56534D01*
X122807Y-56571D01*
X122845Y-56609D01*
X122901Y-56627D01*
X122995Y-56627D01*
X124860Y-57277D02*
X125085Y-57277D01*
X124972Y-57277D02*
X124972Y-56883D01*
X125010Y-56940D01*
X125047Y-56977D01*
X125085Y-56996D01*
X124485Y-57277D02*
X124710Y-57277D01*
X124597Y-57277D02*
X124597Y-56883D01*
X124635Y-56940D01*
X124672Y-56977D01*
X124710Y-56996D01*
X124335Y-56921D02*
X124316Y-56902D01*
X124279Y-56883D01*
X124185Y-56883D01*
X124148Y-56902D01*
X124129Y-56921D01*
X124110Y-56958D01*
X124110Y-56996D01*
X124129Y-57052D01*
X124354Y-57277D01*
X124110Y-57277D01*
X123941Y-57277D02*
X123941Y-56883D01*
X123473Y-56865D02*
X123810Y-57371D01*
X123229Y-56883D02*
X123229Y-57164D01*
X123248Y-57221D01*
X123285Y-57258D01*
X123341Y-57277D01*
X123379Y-57277D01*
X123041Y-57127D02*
X122741Y-57127D01*
X125019Y-57533D02*
X124794Y-57533D01*
X124907Y-57927D02*
X124907Y-57533D01*
X124663Y-57927D02*
X124663Y-57533D01*
X124569Y-57533D01*
X124513Y-57552D01*
X124476Y-57589D01*
X124457Y-57627D01*
X124438Y-57702D01*
X124438Y-57758D01*
X124457Y-57833D01*
X124476Y-57870D01*
X124513Y-57908D01*
X124569Y-57927D01*
X124663Y-57927D01*
X124288Y-57814D02*
X124101Y-57814D01*
X124326Y-57927D02*
X124194Y-57533D01*
X124063Y-57927D01*
X123707Y-57927D02*
X123838Y-57739D01*
X123932Y-57927D02*
X123932Y-57533D01*
X123782Y-57533D01*
X123744Y-57552D01*
X123726Y-57570D01*
X123707Y-57608D01*
X123707Y-57664D01*
X123726Y-57702D01*
X123744Y-57720D01*
X123782Y-57739D01*
X123932Y-57739D01*
X123538Y-57777D02*
X123238Y-57777D01*
X122826Y-57927D02*
X122957Y-57739D01*
X123051Y-57927D02*
X123051Y-57533D01*
X122901Y-57533D01*
X122863Y-57552D01*
X122845Y-57570D01*
X122826Y-57608D01*
X122826Y-57664D01*
X122845Y-57702D01*
X122863Y-57720D01*
X122901Y-57739D01*
X123051Y-57739D01*
X129063Y-55371D02*
X128669Y-55371D01*
X128951Y-55502D01*
X128669Y-55634D01*
X129063Y-55634D01*
X129026Y-56046D02*
X129044Y-56027D01*
X129063Y-55971D01*
X129063Y-55934D01*
X129044Y-55877D01*
X129007Y-55840D01*
X128969Y-55821D01*
X128894Y-55802D01*
X128838Y-55802D01*
X128763Y-55821D01*
X128726Y-55840D01*
X128688Y-55877D01*
X128669Y-55934D01*
X128669Y-55971D01*
X128688Y-56027D01*
X128707Y-56046D01*
X128669Y-56215D02*
X128988Y-56215D01*
X129026Y-56234D01*
X129044Y-56252D01*
X129063Y-56290D01*
X129063Y-56365D01*
X129044Y-56402D01*
X129026Y-56421D01*
X128988Y-56440D01*
X128669Y-56440D01*
X129044Y-57096D02*
X129063Y-57059D01*
X129063Y-56984D01*
X129044Y-56946D01*
X129026Y-56927D01*
X128988Y-56909D01*
X128876Y-56909D01*
X128838Y-56927D01*
X128819Y-56946D01*
X128801Y-56984D01*
X128801Y-57059D01*
X128819Y-57096D01*
X129063Y-57321D02*
X129044Y-57284D01*
X129026Y-57265D01*
X128988Y-57246D01*
X128876Y-57246D01*
X128838Y-57265D01*
X128819Y-57284D01*
X128801Y-57321D01*
X128801Y-57377D01*
X128819Y-57415D01*
X128838Y-57434D01*
X128876Y-57452D01*
X128988Y-57452D01*
X129026Y-57434D01*
X129044Y-57415D01*
X129063Y-57377D01*
X129063Y-57321D01*
X128801Y-57621D02*
X129063Y-57621D01*
X128838Y-57621D02*
X128819Y-57640D01*
X128801Y-57677D01*
X128801Y-57733D01*
X128819Y-57771D01*
X128857Y-57790D01*
X129063Y-57790D01*
X128801Y-57977D02*
X129063Y-57977D01*
X128838Y-57977D02*
X128819Y-57996D01*
X128801Y-58033D01*
X128801Y-58090D01*
X128819Y-58127D01*
X128857Y-58146D01*
X129063Y-58146D01*
X129044Y-58483D02*
X129063Y-58446D01*
X129063Y-58371D01*
X129044Y-58333D01*
X129007Y-58315D01*
X128857Y-58315D01*
X128819Y-58333D01*
X128801Y-58371D01*
X128801Y-58446D01*
X128819Y-58483D01*
X128857Y-58502D01*
X128894Y-58502D01*
X128932Y-58315D01*
X129044Y-58840D02*
X129063Y-58802D01*
X129063Y-58727D01*
X129044Y-58690D01*
X129026Y-58671D01*
X128988Y-58652D01*
X128876Y-58652D01*
X128838Y-58671D01*
X128819Y-58690D01*
X128801Y-58727D01*
X128801Y-58802D01*
X128819Y-58840D01*
X128801Y-58952D02*
X128801Y-59102D01*
X128669Y-59008D02*
X129007Y-59008D01*
X129044Y-59027D01*
X129063Y-59065D01*
X129063Y-59102D01*
X129063Y-59290D02*
X129044Y-59252D01*
X129026Y-59233D01*
X128988Y-59215D01*
X128876Y-59215D01*
X128838Y-59233D01*
X128819Y-59252D01*
X128801Y-59290D01*
X128801Y-59346D01*
X128819Y-59383D01*
X128838Y-59402D01*
X128876Y-59421D01*
X128988Y-59421D01*
X129026Y-59402D01*
X129044Y-59383D01*
X129063Y-59346D01*
X129063Y-59290D01*
X129063Y-59589D02*
X128801Y-59589D01*
X128876Y-59589D02*
X128838Y-59608D01*
X128819Y-59627D01*
X128801Y-59664D01*
X128801Y-59702D01*
X128707Y-60114D02*
X128688Y-60133D01*
X128669Y-60171D01*
X128669Y-60264D01*
X128688Y-60302D01*
X128707Y-60321D01*
X128744Y-60339D01*
X128782Y-60339D01*
X128838Y-60321D01*
X129063Y-60096D01*
X129063Y-60339D01*
X115477Y-60084D02*
X115870Y-60084D01*
X115589Y-59953D01*
X115870Y-59822D01*
X115477Y-59822D01*
X115514Y-59410D02*
X115496Y-59428D01*
X115477Y-59485D01*
X115477Y-59522D01*
X115496Y-59578D01*
X115533Y-59616D01*
X115570Y-59634D01*
X115645Y-59653D01*
X115702Y-59653D01*
X115777Y-59634D01*
X115814Y-59616D01*
X115852Y-59578D01*
X115870Y-59522D01*
X115870Y-59485D01*
X115852Y-59428D01*
X115833Y-59410D01*
X115870Y-59241D02*
X115552Y-59241D01*
X115514Y-59222D01*
X115496Y-59203D01*
X115477Y-59166D01*
X115477Y-59091D01*
X115496Y-59053D01*
X115514Y-59035D01*
X115552Y-59016D01*
X115870Y-59016D01*
X115496Y-58360D02*
X115477Y-58397D01*
X115477Y-58472D01*
X115496Y-58510D01*
X115514Y-58528D01*
X115552Y-58547D01*
X115664Y-58547D01*
X115702Y-58528D01*
X115720Y-58510D01*
X115739Y-58472D01*
X115739Y-58397D01*
X115720Y-58360D01*
X115477Y-58135D02*
X115496Y-58172D01*
X115514Y-58191D01*
X115552Y-58210D01*
X115664Y-58210D01*
X115702Y-58191D01*
X115720Y-58172D01*
X115739Y-58135D01*
X115739Y-58078D01*
X115720Y-58041D01*
X115702Y-58022D01*
X115664Y-58003D01*
X115552Y-58003D01*
X115514Y-58022D01*
X115496Y-58041D01*
X115477Y-58078D01*
X115477Y-58135D01*
X115739Y-57835D02*
X115477Y-57835D01*
X115702Y-57835D02*
X115720Y-57816D01*
X115739Y-57778D01*
X115739Y-57722D01*
X115720Y-57685D01*
X115683Y-57666D01*
X115477Y-57666D01*
X115739Y-57479D02*
X115477Y-57479D01*
X115702Y-57479D02*
X115720Y-57460D01*
X115739Y-57422D01*
X115739Y-57366D01*
X115720Y-57329D01*
X115683Y-57310D01*
X115477Y-57310D01*
X115496Y-56972D02*
X115477Y-57010D01*
X115477Y-57085D01*
X115496Y-57122D01*
X115533Y-57141D01*
X115683Y-57141D01*
X115720Y-57122D01*
X115739Y-57085D01*
X115739Y-57010D01*
X115720Y-56972D01*
X115683Y-56954D01*
X115645Y-56954D01*
X115608Y-57141D01*
X115496Y-56616D02*
X115477Y-56654D01*
X115477Y-56729D01*
X115496Y-56766D01*
X115514Y-56785D01*
X115552Y-56804D01*
X115664Y-56804D01*
X115702Y-56785D01*
X115720Y-56766D01*
X115739Y-56729D01*
X115739Y-56654D01*
X115720Y-56616D01*
X115739Y-56504D02*
X115739Y-56354D01*
X115870Y-56447D02*
X115533Y-56447D01*
X115496Y-56429D01*
X115477Y-56391D01*
X115477Y-56354D01*
X115477Y-56166D02*
X115496Y-56204D01*
X115514Y-56222D01*
X115552Y-56241D01*
X115664Y-56241D01*
X115702Y-56222D01*
X115720Y-56204D01*
X115739Y-56166D01*
X115739Y-56110D01*
X115720Y-56072D01*
X115702Y-56054D01*
X115664Y-56035D01*
X115552Y-56035D01*
X115514Y-56054D01*
X115496Y-56072D01*
X115477Y-56110D01*
X115477Y-56166D01*
X115477Y-55866D02*
X115739Y-55866D01*
X115664Y-55866D02*
X115702Y-55847D01*
X115720Y-55829D01*
X115739Y-55791D01*
X115739Y-55754D01*
X115477Y-55116D02*
X115477Y-55341D01*
X115477Y-55229D02*
X115870Y-55229D01*
X115814Y-55266D01*
X115777Y-55304D01*
X115758Y-55341D01*
X129063Y-53204D02*
X129063Y-52979D01*
X129063Y-53092D02*
X128669Y-53092D01*
X128726Y-53054D01*
X128763Y-53017D01*
X128782Y-52979D01*
X129063Y-53392D02*
X129063Y-53467D01*
X129044Y-53504D01*
X129026Y-53523D01*
X128969Y-53560D01*
X128894Y-53579D01*
X128744Y-53579D01*
X128707Y-53560D01*
X128688Y-53541D01*
X128669Y-53504D01*
X128669Y-53429D01*
X128688Y-53392D01*
X128707Y-53373D01*
X128744Y-53354D01*
X128838Y-53354D01*
X128876Y-53373D01*
X128894Y-53392D01*
X128913Y-53429D01*
X128913Y-53504D01*
X128894Y-53541D01*
X128876Y-53560D01*
X128838Y-53579D01*
X129063Y-62447D02*
X129063Y-62222D01*
X129063Y-62334D02*
X128669Y-62334D01*
X128726Y-62297D01*
X128763Y-62259D01*
X128782Y-62222D01*
X115477Y-62330D02*
X115477Y-62555D01*
X115477Y-62443D02*
X115870Y-62443D01*
X115814Y-62480D01*
X115777Y-62518D01*
X115758Y-62555D01*
X115477Y-62143D02*
X115477Y-62068D01*
X115496Y-62030D01*
X115514Y-62012D01*
X115570Y-61974D01*
X115645Y-61955D01*
X115795Y-61955D01*
X115833Y-61974D01*
X115852Y-61993D01*
X115870Y-62030D01*
X115870Y-62105D01*
X115852Y-62143D01*
X115833Y-62162D01*
X115795Y-62180D01*
X115702Y-62180D01*
X115664Y-62162D01*
X115645Y-62143D01*
X115627Y-62105D01*
X115627Y-62030D01*
X115645Y-61993D01*
X115664Y-61974D01*
X115702Y-61955D01*
X115477Y-53127D02*
X115477Y-53352D01*
X115477Y-53240D02*
X115870Y-53240D01*
X115814Y-53277D01*
X115777Y-53315D01*
X115758Y-53352D01*
X126412Y-61984D02*
X126431Y-62002D01*
X126487Y-62021D01*
X126525Y-62021D01*
X126581Y-62002D01*
X126618Y-61965D01*
X126637Y-61927D01*
X126656Y-61852D01*
X126656Y-61796D01*
X126637Y-61721D01*
X126618Y-61684D01*
X126581Y-61646D01*
X126525Y-61627D01*
X126487Y-61627D01*
X126431Y-61646D01*
X126412Y-61665D01*
X126075Y-62021D02*
X126075Y-61815D01*
X126094Y-61777D01*
X126131Y-61759D01*
X126206Y-61759D01*
X126244Y-61777D01*
X126075Y-62002D02*
X126112Y-62021D01*
X126206Y-62021D01*
X126244Y-62002D01*
X126262Y-61965D01*
X126262Y-61927D01*
X126244Y-61890D01*
X126206Y-61871D01*
X126112Y-61871D01*
X126075Y-61852D01*
X125719Y-61759D02*
X125719Y-62021D01*
X125887Y-61759D02*
X125887Y-61965D01*
X125869Y-62002D01*
X125831Y-62021D01*
X125775Y-62021D01*
X125737Y-62002D01*
X125719Y-61984D01*
X125550Y-62002D02*
X125512Y-62021D01*
X125437Y-62021D01*
X125400Y-62002D01*
X125381Y-61965D01*
X125381Y-61946D01*
X125400Y-61909D01*
X125437Y-61890D01*
X125494Y-61890D01*
X125531Y-61871D01*
X125550Y-61834D01*
X125550Y-61815D01*
X125531Y-61777D01*
X125494Y-61759D01*
X125437Y-61759D01*
X125400Y-61777D01*
X125269Y-61759D02*
X125119Y-61759D01*
X125212Y-61627D02*
X125212Y-61965D01*
X125194Y-62002D01*
X125156Y-62021D01*
X125119Y-62021D01*
X124987Y-62021D02*
X124987Y-61759D01*
X124987Y-61627D02*
X125006Y-61646D01*
X124987Y-61665D01*
X124969Y-61646D01*
X124987Y-61627D01*
X124987Y-61665D01*
X124631Y-62002D02*
X124669Y-62021D01*
X124744Y-62021D01*
X124781Y-62002D01*
X124800Y-61984D01*
X124819Y-61946D01*
X124819Y-61834D01*
X124800Y-61796D01*
X124781Y-61777D01*
X124744Y-61759D01*
X124669Y-61759D01*
X124631Y-61777D01*
X123975Y-62021D02*
X124163Y-62021D01*
X124163Y-61627D01*
X123900Y-61627D02*
X123675Y-61627D01*
X123788Y-62021D02*
X123788Y-61627D01*
X123263Y-62002D02*
X123225Y-62021D01*
X123150Y-62021D01*
X123113Y-62002D01*
X123094Y-61965D01*
X123094Y-61946D01*
X123113Y-61909D01*
X123150Y-61890D01*
X123206Y-61890D01*
X123244Y-61871D01*
X123263Y-61834D01*
X123263Y-61815D01*
X123244Y-61777D01*
X123206Y-61759D01*
X123150Y-61759D01*
X123113Y-61777D01*
X122963Y-61759D02*
X122869Y-62021D01*
X122775Y-61759D02*
X122869Y-62021D01*
X122906Y-62115D01*
X122925Y-62134D01*
X122963Y-62152D01*
X122644Y-62002D02*
X122606Y-62021D01*
X122532Y-62021D01*
X122494Y-62002D01*
X122475Y-61965D01*
X122475Y-61946D01*
X122494Y-61909D01*
X122532Y-61890D01*
X122588Y-61890D01*
X122625Y-61871D01*
X122644Y-61834D01*
X122644Y-61815D01*
X122625Y-61777D01*
X122588Y-61759D01*
X122532Y-61759D01*
X122494Y-61777D01*
X122363Y-61759D02*
X122213Y-61759D01*
X122307Y-61627D02*
X122307Y-61965D01*
X122288Y-62002D01*
X122250Y-62021D01*
X122213Y-62021D01*
X121932Y-62002D02*
X121969Y-62021D01*
X122044Y-62021D01*
X122082Y-62002D01*
X122100Y-61965D01*
X122100Y-61815D01*
X122082Y-61777D01*
X122044Y-61759D01*
X121969Y-61759D01*
X121932Y-61777D01*
X121913Y-61815D01*
X121913Y-61852D01*
X122100Y-61890D01*
X121744Y-62021D02*
X121744Y-61759D01*
X121744Y-61796D02*
X121725Y-61777D01*
X121688Y-61759D01*
X121632Y-61759D01*
X121594Y-61777D01*
X121575Y-61815D01*
X121575Y-62021D01*
X121575Y-61815D02*
X121557Y-61777D01*
X121519Y-61759D01*
X121463Y-61759D01*
X121425Y-61777D01*
X121407Y-61815D01*
X121407Y-62021D01*
X126600Y-62671D02*
X126600Y-62277D01*
X126469Y-62558D01*
X126337Y-62277D01*
X126337Y-62671D01*
X125925Y-62633D02*
X125944Y-62652D01*
X126000Y-62671D01*
X126037Y-62671D01*
X126094Y-62652D01*
X126131Y-62614D01*
X126150Y-62577D01*
X126169Y-62502D01*
X126169Y-62446D01*
X126150Y-62371D01*
X126131Y-62333D01*
X126094Y-62296D01*
X126037Y-62277D01*
X126000Y-62277D01*
X125944Y-62296D01*
X125925Y-62314D01*
X125756Y-62277D02*
X125756Y-62596D01*
X125737Y-62633D01*
X125719Y-62652D01*
X125681Y-62671D01*
X125606Y-62671D01*
X125569Y-62652D01*
X125550Y-62633D01*
X125531Y-62596D01*
X125531Y-62277D01*
X125044Y-62671D02*
X125044Y-62277D01*
X125044Y-62427D02*
X125006Y-62408D01*
X124931Y-62408D01*
X124894Y-62427D01*
X124875Y-62446D01*
X124856Y-62483D01*
X124856Y-62596D01*
X124875Y-62633D01*
X124894Y-62652D01*
X124931Y-62671D01*
X125006Y-62671D01*
X125044Y-62652D01*
X124631Y-62671D02*
X124669Y-62652D01*
X124687Y-62633D01*
X124706Y-62596D01*
X124706Y-62483D01*
X124687Y-62446D01*
X124669Y-62427D01*
X124631Y-62408D01*
X124575Y-62408D01*
X124538Y-62427D01*
X124519Y-62446D01*
X124500Y-62483D01*
X124500Y-62596D01*
X124519Y-62633D01*
X124538Y-62652D01*
X124575Y-62671D01*
X124631Y-62671D01*
X124163Y-62671D02*
X124163Y-62464D01*
X124181Y-62427D01*
X124219Y-62408D01*
X124294Y-62408D01*
X124331Y-62427D01*
X124163Y-62652D02*
X124200Y-62671D01*
X124294Y-62671D01*
X124331Y-62652D01*
X124350Y-62614D01*
X124350Y-62577D01*
X124331Y-62539D01*
X124294Y-62521D01*
X124200Y-62521D01*
X124163Y-62502D01*
X123975Y-62671D02*
X123975Y-62408D01*
X123975Y-62483D02*
X123956Y-62446D01*
X123938Y-62427D01*
X123900Y-62408D01*
X123863Y-62408D01*
X123563Y-62671D02*
X123563Y-62277D01*
X123563Y-62652D02*
X123600Y-62671D01*
X123675Y-62671D01*
X123713Y-62652D01*
X123731Y-62633D01*
X123750Y-62596D01*
X123750Y-62483D01*
X123731Y-62446D01*
X123713Y-62427D01*
X123675Y-62408D01*
X123600Y-62408D01*
X123563Y-62427D01*
X123075Y-62671D02*
X123075Y-62408D01*
X123075Y-62483D02*
X123056Y-62446D01*
X123038Y-62427D01*
X123000Y-62408D01*
X122963Y-62408D01*
X122681Y-62652D02*
X122719Y-62671D01*
X122794Y-62671D01*
X122831Y-62652D01*
X122850Y-62614D01*
X122850Y-62464D01*
X122831Y-62427D01*
X122794Y-62408D01*
X122719Y-62408D01*
X122681Y-62427D01*
X122663Y-62464D01*
X122663Y-62502D01*
X122850Y-62539D01*
X122532Y-62408D02*
X122438Y-62671D01*
X122344Y-62408D01*
X122232Y-62277D02*
X121988Y-62277D01*
X122119Y-62427D01*
X122063Y-62427D01*
X122025Y-62446D01*
X122007Y-62464D01*
X121988Y-62502D01*
X121988Y-62596D01*
X122007Y-62633D01*
X122025Y-62652D01*
X122063Y-62671D01*
X122175Y-62671D01*
X122213Y-62652D01*
X122232Y-62633D01*
X121819Y-62633D02*
X121800Y-62652D01*
X121819Y-62671D01*
X121838Y-62652D01*
X121819Y-62633D01*
X121819Y-62671D01*
X121425Y-62671D02*
X121650Y-62671D01*
X121538Y-62671D02*
X121538Y-62277D01*
X121575Y-62333D01*
X121613Y-62371D01*
X121650Y-62389D01*
G54D12*
X124072Y-48505D02*
X124072Y-49405D01*
X124072Y-49405D02*
X123422Y-49405D01*
X122722Y-48505D02*
X122072Y-48505D01*
X122072Y-48505D02*
X122072Y-49405D01*
X122072Y-49405D02*
X122722Y-49405D01*
X123422Y-48505D02*
X124072Y-48505D01*
X124072Y-49450D02*
X124072Y-50350D01*
X124072Y-50350D02*
X123422Y-50350D01*
X122722Y-49450D02*
X122072Y-49450D01*
X122072Y-49450D02*
X122072Y-50350D01*
X122072Y-50350D02*
X122722Y-50350D01*
X123422Y-49450D02*
X124072Y-49450D01*
X124072Y-50473D02*
X124072Y-51373D01*
X124072Y-51373D02*
X123422Y-51373D01*
X122722Y-50473D02*
X122072Y-50473D01*
X122072Y-50473D02*
X122072Y-51373D01*
X122072Y-51373D02*
X122722Y-51373D01*
X123422Y-50473D02*
X124072Y-50473D01*
X124072Y-42323D02*
X124072Y-43223D01*
X124072Y-43223D02*
X123422Y-43223D01*
X122722Y-42323D02*
X122072Y-42323D01*
X122072Y-42323D02*
X122072Y-43223D01*
X122072Y-43223D02*
X122722Y-43223D01*
X123422Y-42323D02*
X124072Y-42323D01*
X124072Y-41300D02*
X124072Y-42200D01*
X124072Y-42200D02*
X123422Y-42200D01*
X122722Y-41300D02*
X122072Y-41300D01*
X122072Y-41300D02*
X122072Y-42200D01*
X122072Y-42200D02*
X122722Y-42200D01*
X123422Y-41300D02*
X124072Y-41300D01*
X124072Y-40355D02*
X124072Y-41255D01*
X124072Y-41255D02*
X123422Y-41255D01*
X122722Y-40355D02*
X122072Y-40355D01*
X122072Y-40355D02*
X122072Y-41255D01*
X122072Y-41255D02*
X122722Y-41255D01*
X123422Y-40355D02*
X124072Y-40355D01*
G54D13*
X111011Y-31953D02*
G75*
G03X111011Y-31953I-50J0D01*
G74*
G01*
X111411Y-31953D02*
X111011Y-31953D01*
X111011Y-31953D02*
X111011Y-32553D01*
X111011Y-32553D02*
X111411Y-32553D01*
X111811Y-32553D02*
X112211Y-32553D01*
X112211Y-32553D02*
X112211Y-31953D01*
X112211Y-31953D02*
X111811Y-31953D01*
X110854Y-33301D02*
G75*
G03X110854Y-33301I-50J0D01*
G74*
G01*
X110354Y-33301D02*
X110754Y-33301D01*
X110754Y-33301D02*
X110754Y-32701D01*
X110754Y-32701D02*
X110354Y-32701D01*
X109954Y-32701D02*
X109554Y-32701D01*
X109554Y-32701D02*
X109554Y-33301D01*
X109554Y-33301D02*
X109954Y-33301D01*
X110854Y-32553D02*
G75*
G03X110854Y-32553I-50J0D01*
G74*
G01*
X110354Y-32553D02*
X110754Y-32553D01*
X110754Y-32553D02*
X110754Y-31953D01*
X110754Y-31953D02*
X110354Y-31953D01*
X109954Y-31953D02*
X109554Y-31953D01*
X109554Y-31953D02*
X109554Y-32553D01*
X109554Y-32553D02*
X109954Y-32553D01*
X111011Y-32701D02*
G75*
G03X111011Y-32701I-50J0D01*
G74*
G01*
X111411Y-32701D02*
X111011Y-32701D01*
X111011Y-32701D02*
X111011Y-33301D01*
X111011Y-33301D02*
X111411Y-33301D01*
X111811Y-33301D02*
X112211Y-33301D01*
X112211Y-33301D02*
X112211Y-32701D01*
X112211Y-32701D02*
X111811Y-32701D01*
X108585Y-33218D02*
G75*
G03X108585Y-33218I-50J0D01*
G74*
G01*
X108535Y-32768D02*
X108535Y-33168D01*
X108535Y-33168D02*
X109135Y-33168D01*
X109135Y-33168D02*
X109135Y-32768D01*
X109135Y-32368D02*
X109135Y-31968D01*
X109135Y-31968D02*
X108535Y-31968D01*
X108535Y-31968D02*
X108535Y-32368D01*
X113083Y-31938D02*
G75*
G03X113083Y-31938I-50J0D01*
G74*
G01*
X113033Y-32388D02*
X113033Y-31988D01*
X113033Y-31988D02*
X112433Y-31988D01*
X112433Y-31988D02*
X112433Y-32388D01*
X112433Y-32788D02*
X112433Y-33188D01*
X112433Y-33188D02*
X113033Y-33188D01*
X113033Y-33188D02*
X113033Y-32788D01*
G54D14*
X96850Y-34900D02*
X96850Y-30900D01*
X95850Y-34900D02*
X95850Y-30900D01*
X95850Y-30900D02*
X96850Y-30900D01*
X96850Y-34900D02*
X95850Y-34900D01*
G54D15*
X98900Y-25850D02*
X98900Y-26850D01*
X98900Y-26850D02*
X101900Y-26850D01*
X101900Y-26850D02*
X101900Y-25850D01*
X101900Y-25850D02*
X98900Y-25850D01*
X99900Y-26850D02*
X99900Y-25850D01*
X100270Y-36822D02*
X100270Y-37822D01*
X100270Y-37822D02*
X102270Y-37822D01*
X102270Y-37822D02*
X102270Y-36822D01*
X102270Y-36822D02*
X100270Y-36822D01*
X107450Y-26850D02*
X107450Y-25850D01*
X107450Y-25850D02*
X105450Y-25850D01*
X105450Y-25850D02*
X105450Y-26850D01*
X105450Y-26850D02*
X107450Y-26850D01*
X104759Y-36822D02*
X104759Y-37822D01*
X104759Y-37822D02*
X106759Y-37822D01*
X106759Y-37822D02*
X106759Y-36822D01*
X106759Y-36822D02*
X104759Y-36822D01*
X107003Y-36822D02*
X107003Y-37822D01*
X107003Y-37822D02*
X109003Y-37822D01*
X109003Y-37822D02*
X109003Y-36822D01*
X109003Y-36822D02*
X107003Y-36822D01*
G54D12*
X110675Y-29475D02*
X110675Y-30725D01*
X112700Y-29475D02*
X112700Y-30725D01*
X112700Y-30725D02*
X110300Y-30725D01*
X110300Y-30725D02*
X110300Y-29475D01*
X110300Y-29475D02*
X112700Y-29475D01*
X102725Y-29925D02*
X102725Y-28675D01*
X100700Y-29925D02*
X100700Y-28675D01*
X100700Y-28675D02*
X103100Y-28675D01*
X103100Y-28675D02*
X103100Y-29925D01*
X103100Y-29925D02*
X100700Y-29925D01*
G54D10*
X97963Y-28228D02*
X97963Y-38307D01*
X97963Y-38307D02*
X100011Y-38307D01*
X100011Y-38307D02*
X100011Y-28228D01*
X100011Y-28228D02*
X97963Y-28228D01*
X116011Y-38307D02*
X116011Y-28228D01*
X116011Y-28228D02*
X113963Y-28228D01*
X113963Y-28228D02*
X113963Y-38307D01*
X113963Y-38307D02*
X116011Y-38307D01*
G54D15*
X102175Y-25850D02*
X102175Y-26850D01*
X102175Y-26850D02*
X105175Y-26850D01*
X105175Y-26850D02*
X105175Y-25850D01*
X105175Y-25850D02*
X102175Y-25850D01*
X103175Y-26850D02*
X103175Y-25850D01*
X102520Y-36822D02*
X102520Y-37822D01*
X102520Y-37822D02*
X104520Y-37822D01*
X104520Y-37822D02*
X104520Y-36822D01*
X104520Y-36822D02*
X102520Y-36822D01*
G54D10*
X109831Y-35112D02*
X113768Y-35112D01*
X113768Y-35112D02*
X113768Y-38262D01*
X113768Y-38262D02*
X109831Y-38262D01*
X109831Y-35112D02*
X109831Y-38262D01*
G54D16*
X118900Y-33700D02*
X118900Y-29700D01*
X118900Y-29700D02*
X116900Y-29700D01*
X116900Y-29700D02*
X116900Y-33700D01*
X116900Y-33700D02*
X118900Y-33700D01*
G54D15*
X96850Y-28350D02*
X95850Y-28350D01*
X95850Y-28350D02*
X95850Y-30350D01*
X95850Y-30350D02*
X96850Y-30350D01*
X96850Y-30350D02*
X96850Y-28350D01*
G54D12*
X102725Y-31425D02*
X102725Y-30175D01*
X100700Y-31425D02*
X100700Y-30175D01*
X100700Y-30175D02*
X103100Y-30175D01*
X103100Y-30175D02*
X103100Y-31425D01*
X103100Y-31425D02*
X100700Y-31425D01*
G54D10*
X116026Y-25000D02*
X108073Y-25000D01*
X108073Y-25000D02*
X108073Y-27599D01*
X108073Y-27599D02*
X116026Y-27599D01*
X116026Y-27599D02*
X116026Y-25000D01*
X115811Y-52307D02*
X115811Y-42228D01*
X115811Y-42228D02*
X113763Y-42228D01*
X113763Y-42228D02*
X113763Y-52307D01*
X113763Y-52307D02*
X115811Y-52307D01*
X97763Y-42228D02*
X97763Y-52307D01*
X97763Y-52307D02*
X99811Y-52307D01*
X99811Y-52307D02*
X99811Y-42228D01*
X99811Y-42228D02*
X97763Y-42228D01*
G54D15*
X108250Y-51600D02*
X108250Y-50600D01*
X108250Y-50600D02*
X105250Y-50600D01*
X105250Y-50600D02*
X105250Y-51600D01*
X105250Y-51600D02*
X108250Y-51600D01*
X107250Y-50600D02*
X107250Y-51600D01*
X96600Y-42275D02*
X95600Y-42275D01*
X95600Y-42275D02*
X95600Y-44275D01*
X95600Y-44275D02*
X96600Y-44275D01*
X96600Y-44275D02*
X96600Y-42275D01*
G54D10*
X105868Y-45100D02*
X105868Y-42265D01*
X105868Y-42265D02*
X106734Y-42265D01*
X106734Y-42265D02*
X106734Y-43249D01*
X105868Y-45100D02*
X105868Y-47934D01*
X105868Y-47934D02*
X106380Y-47934D01*
X106380Y-47934D02*
X106734Y-47934D01*
X106734Y-47934D02*
X106734Y-46950D01*
X111734Y-45100D02*
G75*
G03X111734Y-45100I-2834J0D01*
G74*
G01*
X111380Y-45100D02*
G75*
G03X111380Y-45100I-2480J0D01*
G74*
G01*
G54D12*
X107025Y-49725D02*
X107025Y-48475D01*
X105000Y-49725D02*
X105000Y-48475D01*
X105000Y-48475D02*
X107400Y-48475D01*
X107400Y-48475D02*
X107400Y-49725D01*
X107400Y-49725D02*
X105000Y-49725D01*
X110400Y-49725D02*
X110400Y-48475D01*
X108375Y-49725D02*
X108375Y-48475D01*
X108375Y-48475D02*
X110775Y-48475D01*
X110775Y-48475D02*
X110775Y-49725D01*
X110775Y-49725D02*
X108375Y-49725D01*
G54D10*
X100131Y-49162D02*
X104068Y-49162D01*
X104068Y-49162D02*
X104068Y-52312D01*
X104068Y-52312D02*
X100131Y-52312D01*
X100131Y-49162D02*
X100131Y-52312D01*
X105626Y-39000D02*
X97673Y-39000D01*
X97673Y-39000D02*
X97673Y-41599D01*
X97673Y-41599D02*
X105626Y-41599D01*
X105626Y-41599D02*
X105626Y-39000D01*
X115826Y-39000D02*
X107873Y-39000D01*
X107873Y-39000D02*
X107873Y-41599D01*
X107873Y-41599D02*
X115826Y-41599D01*
X115826Y-41599D02*
X115826Y-39000D01*
X118899Y-49626D02*
X118899Y-41673D01*
X118899Y-41673D02*
X116300Y-41673D01*
X116300Y-41673D02*
X116300Y-49626D01*
X116300Y-49626D02*
X118899Y-49626D01*
G54D13*
X104921Y-54047D02*
G75*
G03X104921Y-54047I-50J0D01*
G74*
G01*
X104871Y-53597D02*
X104871Y-53997D01*
X104871Y-53997D02*
X105471Y-53997D01*
X105471Y-53997D02*
X105471Y-53597D01*
X105471Y-53197D02*
X105471Y-52797D01*
X105471Y-52797D02*
X104871Y-52797D01*
X104871Y-52797D02*
X104871Y-53197D01*
X107165Y-54047D02*
G75*
G03X107165Y-54047I-50J0D01*
G74*
G01*
X107115Y-53597D02*
X107115Y-53997D01*
X107115Y-53997D02*
X107715Y-53997D01*
X107715Y-53997D02*
X107715Y-53597D01*
X107715Y-53197D02*
X107715Y-52797D01*
X107715Y-52797D02*
X107115Y-52797D01*
X107115Y-52797D02*
X107115Y-53197D01*
X108031Y-54047D02*
G75*
G03X108031Y-54047I-50J0D01*
G74*
G01*
X107981Y-53597D02*
X107981Y-53997D01*
X107981Y-53997D02*
X108581Y-53997D01*
X108581Y-53997D02*
X108581Y-53597D01*
X108581Y-53197D02*
X108581Y-52797D01*
X108581Y-52797D02*
X107981Y-52797D01*
X107981Y-52797D02*
X107981Y-53197D01*
X103031Y-54047D02*
G75*
G03X103031Y-54047I-50J0D01*
G74*
G01*
X102981Y-53597D02*
X102981Y-53997D01*
X102981Y-53997D02*
X103581Y-53997D01*
X103581Y-53997D02*
X103581Y-53597D01*
X103581Y-53197D02*
X103581Y-52797D01*
X103581Y-52797D02*
X102981Y-52797D01*
X102981Y-52797D02*
X102981Y-53197D01*
X103976Y-54047D02*
G75*
G03X103976Y-54047I-50J0D01*
G74*
G01*
X103926Y-53597D02*
X103926Y-53997D01*
X103926Y-53997D02*
X104526Y-53997D01*
X104526Y-53997D02*
X104526Y-53597D01*
X104526Y-53197D02*
X104526Y-52797D01*
X104526Y-52797D02*
X103926Y-52797D01*
X103926Y-52797D02*
X103926Y-53197D01*
X107012Y-53933D02*
G75*
G03X107012Y-53933I-50J0D01*
G74*
G01*
X106512Y-53933D02*
X106912Y-53933D01*
X106912Y-53933D02*
X106912Y-53333D01*
X106912Y-53333D02*
X106512Y-53333D01*
X106112Y-53333D02*
X105712Y-53333D01*
X105712Y-53333D02*
X105712Y-53933D01*
X105712Y-53933D02*
X106112Y-53933D01*
G54D10*
X97651Y-59618D02*
X101588Y-59618D01*
X101588Y-59618D02*
X101588Y-62767D01*
X101588Y-62767D02*
X97651Y-62767D01*
X97651Y-59618D02*
X97651Y-62767D01*
G54D17*
X98763Y-55547D02*
X101263Y-55547D01*
X98763Y-57547D02*
X101263Y-57547D01*
X102263Y-56547D02*
G75*
G02X101263Y-57547I-1000J0D01*
G74*
G01*
X101263Y-55547D02*
G75*
G02X102263Y-56547I0J-1000D01*
G74*
G01*
X98763Y-57547D02*
G75*
G02X97763Y-56547I0J1000D01*
G74*
G01*
X97763Y-56547D02*
G75*
G02X98763Y-55547I1000J0D01*
G74*
G01*
G54D10*
X95013Y-52728D02*
X95013Y-62807D01*
X95013Y-62807D02*
X97061Y-62807D01*
X97061Y-62807D02*
X97061Y-52728D01*
X97061Y-52728D02*
X95013Y-52728D01*
X113061Y-62807D02*
X113061Y-52728D01*
X113061Y-52728D02*
X111013Y-52728D01*
X111013Y-52728D02*
X111013Y-62807D01*
X111013Y-62807D02*
X113061Y-62807D01*
G54D18*
X101031Y-54620D02*
X101031Y-54780D01*
X101031Y-54780D02*
X100801Y-54780D01*
X100801Y-54620D02*
X100801Y-54780D01*
X101031Y-54620D02*
X100801Y-54620D01*
X101031Y-54220D02*
X101031Y-54380D01*
X101031Y-54380D02*
X100801Y-54380D01*
X100801Y-54220D02*
X100801Y-54380D01*
X101031Y-54220D02*
X100801Y-54220D01*
G54D15*
X100781Y-54150D02*
X100781Y-54850D01*
X98381Y-54200D02*
X98381Y-54800D01*
X100781Y-54850D02*
X100631Y-54850D01*
X100631Y-54900D02*
X98481Y-54900D01*
X100781Y-54150D02*
X100631Y-54150D01*
X100631Y-54100D02*
X100631Y-54150D01*
X100631Y-54100D02*
X98481Y-54100D01*
X99481Y-54300D02*
X99631Y-54300D01*
X99631Y-54700D02*
X99631Y-54300D01*
X99631Y-54700D02*
X99481Y-54700D01*
X99481Y-54300D02*
X99481Y-54700D01*
X99331Y-54300D02*
X99331Y-54500D01*
X99781Y-54300D02*
X99781Y-54500D01*
X99781Y-54500D02*
X99981Y-54500D01*
X99781Y-54500D02*
X99781Y-54700D01*
X99331Y-54500D02*
X99131Y-54500D01*
X99331Y-54500D02*
X99331Y-54700D01*
X100631Y-54900D02*
X100631Y-54850D01*
X100631Y-54850D02*
X100631Y-54150D01*
X98481Y-54900D02*
G75*
G02X98381Y-54800I0J100D01*
G74*
G01*
X98381Y-54200D02*
G75*
G02X98481Y-54100I100J0D01*
G74*
G01*
G54D10*
X108085Y-58459D02*
X108085Y-58322D01*
X108085Y-61137D02*
X108085Y-59522D01*
X108085Y-55664D02*
X108085Y-57278D01*
X108085Y-54404D02*
X108085Y-54601D01*
X102612Y-54247D02*
X102612Y-61156D01*
X108085Y-61137D02*
X108085Y-61156D01*
X108085Y-61156D02*
X102632Y-61156D01*
X104207Y-54247D02*
X102612Y-54247D01*
X103301Y-60664D02*
X107967Y-60664D01*
X107967Y-60664D02*
X107967Y-57436D01*
X103301Y-55152D02*
X103301Y-60664D01*
X107967Y-57436D02*
X107967Y-55152D01*
X107967Y-55152D02*
X107652Y-55152D01*
X107652Y-54955D02*
X107652Y-55152D01*
X107652Y-55152D02*
X103301Y-55152D01*
X103301Y-55152D02*
X103301Y-54955D01*
X104207Y-54404D02*
X104207Y-54247D01*
X104207Y-54247D02*
X108085Y-54247D01*
X108085Y-54247D02*
X108085Y-54404D01*
G54D13*
X123221Y-54047D02*
G75*
G03X123221Y-54047I-50J0D01*
G74*
G01*
X123171Y-53597D02*
X123171Y-53997D01*
X123171Y-53997D02*
X123771Y-53997D01*
X123771Y-53997D02*
X123771Y-53597D01*
X123771Y-53197D02*
X123771Y-52797D01*
X123771Y-52797D02*
X123171Y-52797D01*
X123171Y-52797D02*
X123171Y-53197D01*
X125465Y-54047D02*
G75*
G03X125465Y-54047I-50J0D01*
G74*
G01*
X125415Y-53597D02*
X125415Y-53997D01*
X125415Y-53997D02*
X126015Y-53997D01*
X126015Y-53997D02*
X126015Y-53597D01*
X126015Y-53197D02*
X126015Y-52797D01*
X126015Y-52797D02*
X125415Y-52797D01*
X125415Y-52797D02*
X125415Y-53197D01*
X126331Y-54047D02*
G75*
G03X126331Y-54047I-50J0D01*
G74*
G01*
X126281Y-53597D02*
X126281Y-53997D01*
X126281Y-53997D02*
X126881Y-53997D01*
X126881Y-53997D02*
X126881Y-53597D01*
X126881Y-53197D02*
X126881Y-52797D01*
X126881Y-52797D02*
X126281Y-52797D01*
X126281Y-52797D02*
X126281Y-53197D01*
X121331Y-54047D02*
G75*
G03X121331Y-54047I-50J0D01*
G74*
G01*
X121281Y-53597D02*
X121281Y-53997D01*
X121281Y-53997D02*
X121881Y-53997D01*
X121881Y-53997D02*
X121881Y-53597D01*
X121881Y-53197D02*
X121881Y-52797D01*
X121881Y-52797D02*
X121281Y-52797D01*
X121281Y-52797D02*
X121281Y-53197D01*
X122276Y-54047D02*
G75*
G03X122276Y-54047I-50J0D01*
G74*
G01*
X122226Y-53597D02*
X122226Y-53997D01*
X122226Y-53997D02*
X122826Y-53997D01*
X122826Y-53997D02*
X122826Y-53597D01*
X122826Y-53197D02*
X122826Y-52797D01*
X122826Y-52797D02*
X122226Y-52797D01*
X122226Y-52797D02*
X122226Y-53197D01*
X125312Y-53933D02*
G75*
G03X125312Y-53933I-50J0D01*
G74*
G01*
X124812Y-53933D02*
X125212Y-53933D01*
X125212Y-53933D02*
X125212Y-53333D01*
X125212Y-53333D02*
X124812Y-53333D01*
X124412Y-53333D02*
X124012Y-53333D01*
X124012Y-53333D02*
X124012Y-53933D01*
X124012Y-53933D02*
X124412Y-53933D01*
G54D10*
X115951Y-59618D02*
X119888Y-59618D01*
X119888Y-59618D02*
X119888Y-62767D01*
X119888Y-62767D02*
X115951Y-62767D01*
X115951Y-59618D02*
X115951Y-62767D01*
G54D17*
X117063Y-55547D02*
X119563Y-55547D01*
X117063Y-57547D02*
X119563Y-57547D01*
X120563Y-56547D02*
G75*
G02X119563Y-57547I-1000J0D01*
G74*
G01*
X119563Y-55547D02*
G75*
G02X120563Y-56547I0J-1000D01*
G74*
G01*
X117063Y-57547D02*
G75*
G02X116063Y-56547I0J1000D01*
G74*
G01*
X116063Y-56547D02*
G75*
G02X117063Y-55547I1000J0D01*
G74*
G01*
G54D10*
X113313Y-52728D02*
X113313Y-62807D01*
X113313Y-62807D02*
X115361Y-62807D01*
X115361Y-62807D02*
X115361Y-52728D01*
X115361Y-52728D02*
X113313Y-52728D01*
X131361Y-62807D02*
X131361Y-52728D01*
X131361Y-52728D02*
X129313Y-52728D01*
X129313Y-52728D02*
X129313Y-62807D01*
X129313Y-62807D02*
X131361Y-62807D01*
G54D18*
X119331Y-54620D02*
X119331Y-54780D01*
X119331Y-54780D02*
X119101Y-54780D01*
X119101Y-54620D02*
X119101Y-54780D01*
X119331Y-54620D02*
X119101Y-54620D01*
X119331Y-54220D02*
X119331Y-54380D01*
X119331Y-54380D02*
X119101Y-54380D01*
X119101Y-54220D02*
X119101Y-54380D01*
X119331Y-54220D02*
X119101Y-54220D01*
G54D15*
X119081Y-54150D02*
X119081Y-54850D01*
X116681Y-54200D02*
X116681Y-54800D01*
X119081Y-54850D02*
X118931Y-54850D01*
X118931Y-54900D02*
X116781Y-54900D01*
X119081Y-54150D02*
X118931Y-54150D01*
X118931Y-54100D02*
X118931Y-54150D01*
X118931Y-54100D02*
X116781Y-54100D01*
X117781Y-54300D02*
X117931Y-54300D01*
X117931Y-54700D02*
X117931Y-54300D01*
X117931Y-54700D02*
X117781Y-54700D01*
X117781Y-54300D02*
X117781Y-54700D01*
X117631Y-54300D02*
X117631Y-54500D01*
X118081Y-54300D02*
X118081Y-54500D01*
X118081Y-54500D02*
X118281Y-54500D01*
X118081Y-54500D02*
X118081Y-54700D01*
X117631Y-54500D02*
X117431Y-54500D01*
X117631Y-54500D02*
X117631Y-54700D01*
X118931Y-54900D02*
X118931Y-54850D01*
X118931Y-54850D02*
X118931Y-54150D01*
X116781Y-54900D02*
G75*
G02X116681Y-54800I0J100D01*
G74*
G01*
X116681Y-54200D02*
G75*
G02X116781Y-54100I100J0D01*
G74*
G01*
G54D10*
X126385Y-58459D02*
X126385Y-58322D01*
X126385Y-61137D02*
X126385Y-59522D01*
X126385Y-55664D02*
X126385Y-57278D01*
X126385Y-54404D02*
X126385Y-54601D01*
X120912Y-54247D02*
X120912Y-61156D01*
X126385Y-61137D02*
X126385Y-61156D01*
X126385Y-61156D02*
X120932Y-61156D01*
X122507Y-54247D02*
X120912Y-54247D01*
X121601Y-60664D02*
X126267Y-60664D01*
X126267Y-60664D02*
X126267Y-57436D01*
X121601Y-55152D02*
X121601Y-60664D01*
X126267Y-57436D02*
X126267Y-55152D01*
X126267Y-55152D02*
X125952Y-55152D01*
X125952Y-54955D02*
X125952Y-55152D01*
X125952Y-55152D02*
X121601Y-55152D01*
X121601Y-55152D02*
X121601Y-54955D01*
X122507Y-54404D02*
X122507Y-54247D01*
X122507Y-54247D02*
X126385Y-54247D01*
X126385Y-54247D02*
X126385Y-54404D01*
G54D12*
X124072Y-32105D02*
X124072Y-33005D01*
X124072Y-33005D02*
X123422Y-33005D01*
X122722Y-32105D02*
X122072Y-32105D01*
X122072Y-32105D02*
X122072Y-33005D01*
X122072Y-33005D02*
X122722Y-33005D01*
X123422Y-32105D02*
X124072Y-32105D01*
X124072Y-33050D02*
X124072Y-33950D01*
X124072Y-33950D02*
X123422Y-33950D01*
X122722Y-33050D02*
X122072Y-33050D01*
X122072Y-33050D02*
X122072Y-33950D01*
X122072Y-33950D02*
X122722Y-33950D01*
X123422Y-33050D02*
X124072Y-33050D01*
X124072Y-34073D02*
X124072Y-34973D01*
X124072Y-34973D02*
X123422Y-34973D01*
X122722Y-34073D02*
X122072Y-34073D01*
X122072Y-34073D02*
X122072Y-34973D01*
X122072Y-34973D02*
X122722Y-34973D01*
X123422Y-34073D02*
X124072Y-34073D01*
X123122Y-49076D02*
X123222Y-48933D01*
X123294Y-49076D02*
X123294Y-48776D01*
X123179Y-48776D01*
X123151Y-48791D01*
X123136Y-48805D01*
X123122Y-48833D01*
X123122Y-48876D01*
X123136Y-48905D01*
X123151Y-48919D01*
X123179Y-48933D01*
X123294Y-48933D01*
X122865Y-48876D02*
X122865Y-49076D01*
X122936Y-48762D02*
X123008Y-48976D01*
X122822Y-48976D01*
X123122Y-50021D02*
X123222Y-49878D01*
X123294Y-50021D02*
X123294Y-49721D01*
X123179Y-49721D01*
X123151Y-49735D01*
X123136Y-49750D01*
X123122Y-49778D01*
X123122Y-49821D01*
X123136Y-49850D01*
X123151Y-49864D01*
X123179Y-49878D01*
X123294Y-49878D01*
X122851Y-49721D02*
X122994Y-49721D01*
X123008Y-49864D01*
X122994Y-49850D01*
X122965Y-49835D01*
X122894Y-49835D01*
X122865Y-49850D01*
X122851Y-49864D01*
X122836Y-49893D01*
X122836Y-49964D01*
X122851Y-49993D01*
X122865Y-50007D01*
X122894Y-50021D01*
X122965Y-50021D01*
X122994Y-50007D01*
X123008Y-49993D01*
X123122Y-51045D02*
X123222Y-50902D01*
X123294Y-51045D02*
X123294Y-50745D01*
X123179Y-50745D01*
X123151Y-50759D01*
X123136Y-50773D01*
X123122Y-50802D01*
X123122Y-50845D01*
X123136Y-50873D01*
X123151Y-50888D01*
X123179Y-50902D01*
X123294Y-50902D01*
X122865Y-50745D02*
X122922Y-50745D01*
X122951Y-50759D01*
X122965Y-50773D01*
X122994Y-50816D01*
X123008Y-50873D01*
X123008Y-50988D01*
X122994Y-51016D01*
X122979Y-51030D01*
X122951Y-51045D01*
X122894Y-51045D01*
X122865Y-51030D01*
X122851Y-51016D01*
X122836Y-50988D01*
X122836Y-50916D01*
X122851Y-50888D01*
X122865Y-50873D01*
X122894Y-50859D01*
X122951Y-50859D01*
X122979Y-50873D01*
X122994Y-50888D01*
X123008Y-50916D01*
X123122Y-42895D02*
X123222Y-42752D01*
X123294Y-42895D02*
X123294Y-42595D01*
X123179Y-42595D01*
X123151Y-42609D01*
X123136Y-42623D01*
X123122Y-42652D01*
X123122Y-42695D01*
X123136Y-42723D01*
X123151Y-42738D01*
X123179Y-42752D01*
X123294Y-42752D01*
X122865Y-42595D02*
X122922Y-42595D01*
X122951Y-42609D01*
X122965Y-42623D01*
X122994Y-42666D01*
X123008Y-42723D01*
X123008Y-42838D01*
X122994Y-42866D01*
X122979Y-42880D01*
X122951Y-42895D01*
X122894Y-42895D01*
X122865Y-42880D01*
X122851Y-42866D01*
X122836Y-42838D01*
X122836Y-42766D01*
X122851Y-42738D01*
X122865Y-42723D01*
X122894Y-42709D01*
X122951Y-42709D01*
X122979Y-42723D01*
X122994Y-42738D01*
X123008Y-42766D01*
X123122Y-41871D02*
X123222Y-41728D01*
X123294Y-41871D02*
X123294Y-41571D01*
X123179Y-41571D01*
X123151Y-41585D01*
X123136Y-41600D01*
X123122Y-41628D01*
X123122Y-41671D01*
X123136Y-41700D01*
X123151Y-41714D01*
X123179Y-41728D01*
X123294Y-41728D01*
X122851Y-41571D02*
X122994Y-41571D01*
X123008Y-41714D01*
X122994Y-41700D01*
X122965Y-41685D01*
X122894Y-41685D01*
X122865Y-41700D01*
X122851Y-41714D01*
X122836Y-41743D01*
X122836Y-41814D01*
X122851Y-41843D01*
X122865Y-41857D01*
X122894Y-41871D01*
X122965Y-41871D01*
X122994Y-41857D01*
X123008Y-41843D01*
X123122Y-40926D02*
X123222Y-40783D01*
X123294Y-40926D02*
X123294Y-40626D01*
X123179Y-40626D01*
X123151Y-40641D01*
X123136Y-40655D01*
X123122Y-40683D01*
X123122Y-40726D01*
X123136Y-40755D01*
X123151Y-40769D01*
X123179Y-40783D01*
X123294Y-40783D01*
X122865Y-40726D02*
X122865Y-40926D01*
X122936Y-40612D02*
X123008Y-40826D01*
X122822Y-40826D01*
G54D19*
X111644Y-31408D02*
X111709Y-31314D01*
X111756Y-31408D02*
X111756Y-31211D01*
X111681Y-31211D01*
X111663Y-31220D01*
X111653Y-31230D01*
X111644Y-31249D01*
X111644Y-31277D01*
X111653Y-31295D01*
X111663Y-31305D01*
X111681Y-31314D01*
X111756Y-31314D01*
X111578Y-31211D02*
X111456Y-31211D01*
X111522Y-31286D01*
X111494Y-31286D01*
X111475Y-31295D01*
X111466Y-31305D01*
X111456Y-31324D01*
X111456Y-31370D01*
X111466Y-31389D01*
X111475Y-31399D01*
X111494Y-31408D01*
X111550Y-31408D01*
X111569Y-31399D01*
X111578Y-31389D01*
X111728Y-31733D02*
X111841Y-31733D01*
X111784Y-31733D02*
X111784Y-31536D01*
X111803Y-31564D01*
X111822Y-31583D01*
X111841Y-31592D01*
X111606Y-31536D02*
X111587Y-31536D01*
X111569Y-31545D01*
X111559Y-31555D01*
X111550Y-31573D01*
X111541Y-31611D01*
X111541Y-31658D01*
X111550Y-31695D01*
X111559Y-31714D01*
X111569Y-31723D01*
X111587Y-31733D01*
X111606Y-31733D01*
X111625Y-31723D01*
X111634Y-31714D01*
X111644Y-31695D01*
X111653Y-31658D01*
X111653Y-31611D01*
X111644Y-31573D01*
X111634Y-31555D01*
X111625Y-31545D01*
X111606Y-31536D01*
X111456Y-31733D02*
X111456Y-31536D01*
X111437Y-31658D02*
X111381Y-31733D01*
X111381Y-31601D02*
X111456Y-31676D01*
X110187Y-33614D02*
X110196Y-33623D01*
X110225Y-33632D01*
X110243Y-33632D01*
X110271Y-33623D01*
X110290Y-33604D01*
X110300Y-33585D01*
X110309Y-33548D01*
X110309Y-33520D01*
X110300Y-33482D01*
X110290Y-33464D01*
X110271Y-33445D01*
X110243Y-33435D01*
X110225Y-33435D01*
X110196Y-33445D01*
X110187Y-33454D01*
X110121Y-33435D02*
X109999Y-33435D01*
X110065Y-33510D01*
X110037Y-33510D01*
X110018Y-33520D01*
X110009Y-33529D01*
X109999Y-33548D01*
X109999Y-33595D01*
X110009Y-33614D01*
X110018Y-33623D01*
X110037Y-33632D01*
X110093Y-33632D01*
X110112Y-33623D01*
X110121Y-33614D01*
X110665Y-33750D02*
X110647Y-33750D01*
X110628Y-33760D01*
X110619Y-33769D01*
X110609Y-33788D01*
X110600Y-33825D01*
X110600Y-33872D01*
X110609Y-33910D01*
X110619Y-33929D01*
X110628Y-33938D01*
X110647Y-33947D01*
X110665Y-33947D01*
X110684Y-33938D01*
X110694Y-33929D01*
X110703Y-33910D01*
X110712Y-33872D01*
X110712Y-33825D01*
X110703Y-33788D01*
X110694Y-33769D01*
X110684Y-33760D01*
X110665Y-33750D01*
X110515Y-33929D02*
X110506Y-33938D01*
X110515Y-33947D01*
X110525Y-33938D01*
X110515Y-33929D01*
X110515Y-33947D01*
X110384Y-33750D02*
X110365Y-33750D01*
X110347Y-33760D01*
X110337Y-33769D01*
X110328Y-33788D01*
X110318Y-33825D01*
X110318Y-33872D01*
X110328Y-33910D01*
X110337Y-33929D01*
X110347Y-33938D01*
X110365Y-33947D01*
X110384Y-33947D01*
X110403Y-33938D01*
X110412Y-33929D01*
X110422Y-33910D01*
X110431Y-33872D01*
X110431Y-33825D01*
X110422Y-33788D01*
X110412Y-33769D01*
X110403Y-33760D01*
X110384Y-33750D01*
X110131Y-33947D02*
X110243Y-33947D01*
X110187Y-33947D02*
X110187Y-33750D01*
X110206Y-33778D01*
X110225Y-33797D01*
X110243Y-33807D01*
X109953Y-33750D02*
X110046Y-33750D01*
X110056Y-33844D01*
X110046Y-33835D01*
X110028Y-33825D01*
X109981Y-33825D01*
X109962Y-33835D01*
X109953Y-33844D01*
X109943Y-33863D01*
X109943Y-33910D01*
X109953Y-33929D01*
X109962Y-33938D01*
X109981Y-33947D01*
X110028Y-33947D01*
X110046Y-33938D01*
X110056Y-33929D01*
X109774Y-33816D02*
X109774Y-33947D01*
X109859Y-33816D02*
X109859Y-33919D01*
X109849Y-33938D01*
X109831Y-33947D01*
X109802Y-33947D01*
X109784Y-33938D01*
X109774Y-33929D01*
X109615Y-33844D02*
X109680Y-33844D01*
X109680Y-33947D02*
X109680Y-33750D01*
X109587Y-33750D01*
X110177Y-31408D02*
X110243Y-31314D01*
X110290Y-31408D02*
X110290Y-31211D01*
X110215Y-31211D01*
X110196Y-31220D01*
X110187Y-31230D01*
X110177Y-31249D01*
X110177Y-31277D01*
X110187Y-31295D01*
X110196Y-31305D01*
X110215Y-31314D01*
X110290Y-31314D01*
X109990Y-31408D02*
X110102Y-31408D01*
X110046Y-31408D02*
X110046Y-31211D01*
X110065Y-31239D01*
X110083Y-31258D01*
X110102Y-31267D01*
X110271Y-31743D02*
X110384Y-31743D01*
X110328Y-31743D02*
X110328Y-31546D01*
X110347Y-31574D01*
X110365Y-31593D01*
X110384Y-31602D01*
X110150Y-31546D02*
X110131Y-31546D01*
X110112Y-31555D01*
X110103Y-31564D01*
X110093Y-31583D01*
X110084Y-31621D01*
X110084Y-31668D01*
X110093Y-31705D01*
X110103Y-31724D01*
X110112Y-31733D01*
X110131Y-31743D01*
X110150Y-31743D01*
X110168Y-31733D01*
X110178Y-31724D01*
X110187Y-31705D01*
X110196Y-31668D01*
X110196Y-31621D01*
X110187Y-31583D01*
X110178Y-31564D01*
X110168Y-31555D01*
X110150Y-31546D01*
X109999Y-31743D02*
X109999Y-31546D01*
X109981Y-31668D02*
X109924Y-31743D01*
X109924Y-31611D02*
X109999Y-31686D01*
X111644Y-33604D02*
X111653Y-33613D01*
X111681Y-33623D01*
X111700Y-33623D01*
X111728Y-33613D01*
X111747Y-33594D01*
X111756Y-33576D01*
X111766Y-33538D01*
X111766Y-33510D01*
X111756Y-33472D01*
X111747Y-33454D01*
X111728Y-33435D01*
X111700Y-33426D01*
X111681Y-33426D01*
X111653Y-33435D01*
X111644Y-33444D01*
X111569Y-33444D02*
X111559Y-33435D01*
X111541Y-33426D01*
X111494Y-33426D01*
X111475Y-33435D01*
X111466Y-33444D01*
X111456Y-33463D01*
X111456Y-33482D01*
X111466Y-33510D01*
X111578Y-33623D01*
X111456Y-33623D01*
X112028Y-33750D02*
X112010Y-33750D01*
X111991Y-33760D01*
X111981Y-33769D01*
X111972Y-33788D01*
X111963Y-33825D01*
X111963Y-33872D01*
X111972Y-33910D01*
X111981Y-33929D01*
X111991Y-33938D01*
X112010Y-33947D01*
X112028Y-33947D01*
X112047Y-33938D01*
X112057Y-33929D01*
X112066Y-33910D01*
X112075Y-33872D01*
X112075Y-33825D01*
X112066Y-33788D01*
X112057Y-33769D01*
X112047Y-33760D01*
X112028Y-33750D01*
X111878Y-33929D02*
X111869Y-33938D01*
X111878Y-33947D01*
X111888Y-33938D01*
X111878Y-33929D01*
X111878Y-33947D01*
X111700Y-33816D02*
X111700Y-33947D01*
X111747Y-33741D02*
X111794Y-33882D01*
X111672Y-33882D01*
X111616Y-33750D02*
X111484Y-33750D01*
X111569Y-33947D01*
X111325Y-33816D02*
X111325Y-33947D01*
X111409Y-33816D02*
X111409Y-33919D01*
X111400Y-33938D01*
X111381Y-33947D01*
X111353Y-33947D01*
X111334Y-33938D01*
X111325Y-33929D01*
X111165Y-33844D02*
X111231Y-33844D01*
X111231Y-33947D02*
X111231Y-33750D01*
X111137Y-33750D01*
X108209Y-32531D02*
X108218Y-32540D01*
X108246Y-32550D01*
X108265Y-32550D01*
X108293Y-32540D01*
X108312Y-32522D01*
X108321Y-32503D01*
X108331Y-32465D01*
X108331Y-32437D01*
X108321Y-32400D01*
X108312Y-32381D01*
X108293Y-32362D01*
X108265Y-32353D01*
X108246Y-32353D01*
X108218Y-32362D01*
X108209Y-32371D01*
X108115Y-32550D02*
X108077Y-32550D01*
X108059Y-32540D01*
X108049Y-32531D01*
X108030Y-32503D01*
X108021Y-32465D01*
X108021Y-32390D01*
X108030Y-32371D01*
X108040Y-32362D01*
X108059Y-32353D01*
X108096Y-32353D01*
X108115Y-32362D01*
X108124Y-32371D01*
X108134Y-32390D01*
X108134Y-32437D01*
X108124Y-32456D01*
X108115Y-32465D01*
X108096Y-32475D01*
X108059Y-32475D01*
X108040Y-32465D01*
X108030Y-32456D01*
X108021Y-32437D01*
X108273Y-32865D02*
X108386Y-32865D01*
X108330Y-32865D02*
X108330Y-32668D01*
X108349Y-32696D01*
X108367Y-32715D01*
X108386Y-32724D01*
X108105Y-32733D02*
X108105Y-32865D01*
X108189Y-32733D02*
X108189Y-32837D01*
X108180Y-32855D01*
X108161Y-32865D01*
X108133Y-32865D01*
X108114Y-32855D01*
X108105Y-32846D01*
X107945Y-32761D02*
X108011Y-32761D01*
X108011Y-32865D02*
X108011Y-32668D01*
X107917Y-32668D01*
X113307Y-33466D02*
X113317Y-33475D01*
X113345Y-33485D01*
X113363Y-33485D01*
X113392Y-33475D01*
X113410Y-33457D01*
X113420Y-33438D01*
X113429Y-33400D01*
X113429Y-33372D01*
X113420Y-33335D01*
X113410Y-33316D01*
X113392Y-33297D01*
X113363Y-33288D01*
X113345Y-33288D01*
X113317Y-33297D01*
X113307Y-33307D01*
X113138Y-33353D02*
X113138Y-33485D01*
X113185Y-33278D02*
X113232Y-33419D01*
X113110Y-33419D01*
X113588Y-33603D02*
X113569Y-33603D01*
X113551Y-33612D01*
X113541Y-33621D01*
X113532Y-33640D01*
X113522Y-33678D01*
X113522Y-33725D01*
X113532Y-33762D01*
X113541Y-33781D01*
X113551Y-33790D01*
X113569Y-33800D01*
X113588Y-33800D01*
X113607Y-33790D01*
X113616Y-33781D01*
X113626Y-33762D01*
X113635Y-33725D01*
X113635Y-33678D01*
X113626Y-33640D01*
X113616Y-33621D01*
X113607Y-33612D01*
X113588Y-33603D01*
X113438Y-33781D02*
X113429Y-33790D01*
X113438Y-33800D01*
X113447Y-33790D01*
X113438Y-33781D01*
X113438Y-33800D01*
X113241Y-33800D02*
X113354Y-33800D01*
X113297Y-33800D02*
X113297Y-33603D01*
X113316Y-33631D01*
X113335Y-33650D01*
X113354Y-33659D01*
X113072Y-33668D02*
X113072Y-33800D01*
X113157Y-33668D02*
X113157Y-33772D01*
X113147Y-33790D01*
X113128Y-33800D01*
X113100Y-33800D01*
X113082Y-33790D01*
X113072Y-33781D01*
X112913Y-33697D02*
X112978Y-33697D01*
X112978Y-33800D02*
X112978Y-33603D01*
X112885Y-33603D01*
G54D20*
X111542Y-30180D02*
X111552Y-30190D01*
X111580Y-30199D01*
X111598Y-30199D01*
X111627Y-30190D01*
X111645Y-30171D01*
X111655Y-30152D01*
X111664Y-30114D01*
X111664Y-30086D01*
X111655Y-30049D01*
X111645Y-30030D01*
X111627Y-30011D01*
X111598Y-30002D01*
X111580Y-30002D01*
X111552Y-30011D01*
X111542Y-30021D01*
X111430Y-30086D02*
X111448Y-30077D01*
X111458Y-30068D01*
X111467Y-30049D01*
X111467Y-30039D01*
X111458Y-30021D01*
X111448Y-30011D01*
X111430Y-30002D01*
X111392Y-30002D01*
X111373Y-30011D01*
X111364Y-30021D01*
X111355Y-30039D01*
X111355Y-30049D01*
X111364Y-30068D01*
X111373Y-30077D01*
X111392Y-30086D01*
X111430Y-30086D01*
X111448Y-30096D01*
X111458Y-30105D01*
X111467Y-30124D01*
X111467Y-30161D01*
X111458Y-30180D01*
X111448Y-30190D01*
X111430Y-30199D01*
X111392Y-30199D01*
X111373Y-30190D01*
X111364Y-30180D01*
X111355Y-30161D01*
X111355Y-30124D01*
X111364Y-30105D01*
X111373Y-30096D01*
X111392Y-30086D01*
X101942Y-29341D02*
X101952Y-29350D01*
X101980Y-29360D01*
X101998Y-29360D01*
X102027Y-29350D01*
X102045Y-29331D01*
X102055Y-29313D01*
X102064Y-29275D01*
X102064Y-29247D01*
X102055Y-29209D01*
X102045Y-29191D01*
X102027Y-29172D01*
X101998Y-29163D01*
X101980Y-29163D01*
X101952Y-29172D01*
X101942Y-29181D01*
X101877Y-29163D02*
X101745Y-29163D01*
X101830Y-29360D01*
G54D21*
X100625Y-31983D02*
X100225Y-31983D01*
X100511Y-32116D01*
X100225Y-32249D01*
X100625Y-32249D01*
X100587Y-32668D02*
X100606Y-32649D01*
X100625Y-32592D01*
X100625Y-32554D01*
X100606Y-32497D01*
X100568Y-32459D01*
X100530Y-32440D01*
X100454Y-32421D01*
X100397Y-32421D01*
X100320Y-32440D01*
X100282Y-32459D01*
X100244Y-32497D01*
X100225Y-32554D01*
X100225Y-32592D01*
X100244Y-32649D01*
X100263Y-32668D01*
X100225Y-32840D02*
X100549Y-32840D01*
X100587Y-32859D01*
X100606Y-32878D01*
X100625Y-32916D01*
X100625Y-32992D01*
X100606Y-33030D01*
X100587Y-33049D01*
X100549Y-33068D01*
X100225Y-33068D01*
X100625Y-33468D02*
X100625Y-33240D01*
X100625Y-33354D02*
X100225Y-33354D01*
X100282Y-33316D01*
X100320Y-33278D01*
X100339Y-33240D01*
X113834Y-31510D02*
X113434Y-31510D01*
X113720Y-31644D01*
X113434Y-31777D01*
X113834Y-31777D01*
X113796Y-32196D02*
X113815Y-32177D01*
X113834Y-32120D01*
X113834Y-32082D01*
X113815Y-32025D01*
X113777Y-31986D01*
X113739Y-31967D01*
X113662Y-31948D01*
X113605Y-31948D01*
X113529Y-31967D01*
X113491Y-31986D01*
X113453Y-32025D01*
X113434Y-32082D01*
X113434Y-32120D01*
X113453Y-32177D01*
X113472Y-32196D01*
X113434Y-32367D02*
X113758Y-32367D01*
X113796Y-32386D01*
X113815Y-32405D01*
X113834Y-32444D01*
X113834Y-32520D01*
X113815Y-32558D01*
X113796Y-32577D01*
X113758Y-32596D01*
X113434Y-32596D01*
X113472Y-32767D02*
X113453Y-32786D01*
X113434Y-32825D01*
X113434Y-32920D01*
X113453Y-32958D01*
X113472Y-32977D01*
X113510Y-32996D01*
X113548Y-32996D01*
X113605Y-32977D01*
X113834Y-32748D01*
X113834Y-32996D01*
G54D15*
X104070Y-27361D02*
X104070Y-26961D01*
X103841Y-27361D02*
X104013Y-27133D01*
X103841Y-26961D02*
X104070Y-27190D01*
X103689Y-27000D02*
X103670Y-26980D01*
X103632Y-26961D01*
X103536Y-26961D01*
X103498Y-26980D01*
X103479Y-27000D01*
X103460Y-27038D01*
X103460Y-27076D01*
X103479Y-27133D01*
X103708Y-27361D01*
X103460Y-27361D01*
G54D21*
X112241Y-34511D02*
X112241Y-34835D01*
X112225Y-34873D01*
X112208Y-34892D01*
X112175Y-34911D01*
X112108Y-34911D01*
X112075Y-34892D01*
X112058Y-34873D01*
X112041Y-34835D01*
X112041Y-34511D01*
X111891Y-34892D02*
X111841Y-34911D01*
X111758Y-34911D01*
X111725Y-34892D01*
X111708Y-34873D01*
X111691Y-34835D01*
X111691Y-34797D01*
X111708Y-34759D01*
X111725Y-34740D01*
X111758Y-34721D01*
X111825Y-34702D01*
X111858Y-34683D01*
X111875Y-34664D01*
X111891Y-34626D01*
X111891Y-34588D01*
X111875Y-34550D01*
X111858Y-34530D01*
X111825Y-34511D01*
X111741Y-34511D01*
X111691Y-34530D01*
X111425Y-34702D02*
X111375Y-34721D01*
X111358Y-34740D01*
X111341Y-34778D01*
X111341Y-34835D01*
X111358Y-34873D01*
X111375Y-34892D01*
X111408Y-34911D01*
X111541Y-34911D01*
X111541Y-34511D01*
X111425Y-34511D01*
X111391Y-34530D01*
X111375Y-34550D01*
X111358Y-34588D01*
X111358Y-34626D01*
X111375Y-34664D01*
X111391Y-34683D01*
X111425Y-34702D01*
X111541Y-34702D01*
X116611Y-30340D02*
X116211Y-30340D01*
X116611Y-30569D01*
X116211Y-30569D01*
X116611Y-30988D02*
X116421Y-30854D01*
X116611Y-30759D02*
X116211Y-30759D01*
X116211Y-30911D01*
X116230Y-30950D01*
X116250Y-30969D01*
X116288Y-30988D01*
X116345Y-30988D01*
X116383Y-30969D01*
X116402Y-30950D01*
X116421Y-30911D01*
X116421Y-30759D01*
X116402Y-31292D02*
X116402Y-31159D01*
X116611Y-31159D02*
X116211Y-31159D01*
X116211Y-31350D01*
X116250Y-31483D02*
X116230Y-31502D01*
X116211Y-31540D01*
X116211Y-31635D01*
X116230Y-31673D01*
X116250Y-31692D01*
X116288Y-31711D01*
X116326Y-31711D01*
X116383Y-31692D01*
X116611Y-31464D01*
X116611Y-31711D01*
X116345Y-32054D02*
X116611Y-32054D01*
X116192Y-31959D02*
X116478Y-31864D01*
X116478Y-32111D01*
X116611Y-32454D02*
X116611Y-32264D01*
X116211Y-32264D01*
X116211Y-32664D02*
X116211Y-32702D01*
X116230Y-32740D01*
X116250Y-32759D01*
X116288Y-32778D01*
X116364Y-32797D01*
X116459Y-32797D01*
X116535Y-32778D01*
X116573Y-32759D01*
X116592Y-32740D01*
X116611Y-32702D01*
X116611Y-32664D01*
X116592Y-32626D01*
X116573Y-32607D01*
X116535Y-32588D01*
X116459Y-32569D01*
X116364Y-32569D01*
X116288Y-32588D01*
X116250Y-32607D01*
X116230Y-32626D01*
X116211Y-32664D01*
X116611Y-33178D02*
X116611Y-32950D01*
X116611Y-33064D02*
X116211Y-33064D01*
X116269Y-33026D01*
X116307Y-32988D01*
X116326Y-32950D01*
G54D20*
X102026Y-31710D02*
X102036Y-31720D01*
X102064Y-31729D01*
X102082Y-31729D01*
X102111Y-31720D01*
X102129Y-31701D01*
X102139Y-31682D01*
X102148Y-31645D01*
X102148Y-31617D01*
X102139Y-31579D01*
X102129Y-31560D01*
X102111Y-31542D01*
X102082Y-31532D01*
X102064Y-31532D01*
X102036Y-31542D01*
X102026Y-31551D01*
X101839Y-31729D02*
X101951Y-31729D01*
X101895Y-31729D02*
X101895Y-31532D01*
X101914Y-31560D01*
X101932Y-31579D01*
X101951Y-31589D01*
X101717Y-31532D02*
X101698Y-31532D01*
X101679Y-31542D01*
X101670Y-31551D01*
X101660Y-31570D01*
X101651Y-31607D01*
X101651Y-31654D01*
X101660Y-31692D01*
X101670Y-31710D01*
X101679Y-31720D01*
X101698Y-31729D01*
X101717Y-31729D01*
X101735Y-31720D01*
X101745Y-31710D01*
X101754Y-31692D01*
X101763Y-31654D01*
X101763Y-31607D01*
X101754Y-31570D01*
X101745Y-31551D01*
X101735Y-31542D01*
X101717Y-31532D01*
G54D21*
X115592Y-27902D02*
X115459Y-27902D01*
X115402Y-28111D02*
X115592Y-28111D01*
X115592Y-27711D01*
X115402Y-27711D01*
X115269Y-27711D02*
X115002Y-28111D01*
X115002Y-27711D02*
X115269Y-28111D01*
X114907Y-27711D02*
X114678Y-27711D01*
X114792Y-28111D02*
X114792Y-27711D01*
X114545Y-27902D02*
X114411Y-27902D01*
X114354Y-28111D02*
X114545Y-28111D01*
X114545Y-27711D01*
X114354Y-27711D01*
X114183Y-28111D02*
X114183Y-27711D01*
X113954Y-28111D01*
X113954Y-27711D01*
X113783Y-28092D02*
X113726Y-28111D01*
X113630Y-28111D01*
X113592Y-28092D01*
X113573Y-28073D01*
X113554Y-28035D01*
X113554Y-27997D01*
X113573Y-27959D01*
X113592Y-27940D01*
X113630Y-27921D01*
X113707Y-27902D01*
X113745Y-27883D01*
X113764Y-27864D01*
X113783Y-27826D01*
X113783Y-27788D01*
X113764Y-27750D01*
X113745Y-27730D01*
X113707Y-27711D01*
X113611Y-27711D01*
X113554Y-27730D01*
X113383Y-28111D02*
X113383Y-27711D01*
X113116Y-27711D02*
X113040Y-27711D01*
X113002Y-27730D01*
X112964Y-27769D01*
X112945Y-27845D01*
X112945Y-27978D01*
X112964Y-28054D01*
X113002Y-28092D01*
X113040Y-28111D01*
X113116Y-28111D01*
X113154Y-28092D01*
X113192Y-28054D01*
X113211Y-27978D01*
X113211Y-27845D01*
X113192Y-27769D01*
X113154Y-27730D01*
X113116Y-27711D01*
X112773Y-28111D02*
X112773Y-27711D01*
X112545Y-28111D01*
X112545Y-27711D01*
X112354Y-27959D02*
X112050Y-27959D01*
X111630Y-28073D02*
X111650Y-28092D01*
X111707Y-28111D01*
X111745Y-28111D01*
X111802Y-28092D01*
X111840Y-28054D01*
X111859Y-28016D01*
X111878Y-27940D01*
X111878Y-27883D01*
X111859Y-27807D01*
X111840Y-27769D01*
X111802Y-27730D01*
X111745Y-27711D01*
X111707Y-27711D01*
X111650Y-27730D01*
X111630Y-27750D01*
X111383Y-27711D02*
X111307Y-27711D01*
X111269Y-27730D01*
X111230Y-27769D01*
X111211Y-27845D01*
X111211Y-27978D01*
X111230Y-28054D01*
X111269Y-28092D01*
X111307Y-28111D01*
X111383Y-28111D01*
X111421Y-28092D01*
X111459Y-28054D01*
X111478Y-27978D01*
X111478Y-27845D01*
X111459Y-27769D01*
X111421Y-27730D01*
X111383Y-27711D01*
X111040Y-28111D02*
X111040Y-27711D01*
X110811Y-28111D01*
X110811Y-27711D01*
X110621Y-28111D02*
X110621Y-27711D01*
X110392Y-28111D01*
X110392Y-27711D01*
X110202Y-27902D02*
X110069Y-27902D01*
X110011Y-28111D02*
X110202Y-28111D01*
X110202Y-27711D01*
X110011Y-27711D01*
X109611Y-28073D02*
X109630Y-28092D01*
X109688Y-28111D01*
X109726Y-28111D01*
X109783Y-28092D01*
X109821Y-28054D01*
X109840Y-28016D01*
X109859Y-27940D01*
X109859Y-27883D01*
X109840Y-27807D01*
X109821Y-27769D01*
X109783Y-27730D01*
X109726Y-27711D01*
X109688Y-27711D01*
X109630Y-27730D01*
X109611Y-27750D01*
X109497Y-27711D02*
X109269Y-27711D01*
X109383Y-28111D02*
X109383Y-27711D01*
X109059Y-27711D02*
X108983Y-27711D01*
X108945Y-27730D01*
X108907Y-27769D01*
X108888Y-27845D01*
X108888Y-27978D01*
X108907Y-28054D01*
X108945Y-28092D01*
X108983Y-28111D01*
X109059Y-28111D01*
X109097Y-28092D01*
X109135Y-28054D01*
X109154Y-27978D01*
X109154Y-27845D01*
X109135Y-27769D01*
X109097Y-27730D01*
X109059Y-27711D01*
X108488Y-28111D02*
X108621Y-27921D01*
X108716Y-28111D02*
X108716Y-27711D01*
X108564Y-27711D01*
X108526Y-27730D01*
X108507Y-27750D01*
X108488Y-27788D01*
X108488Y-27845D01*
X108507Y-27883D01*
X108526Y-27902D01*
X108564Y-27921D01*
X108716Y-27921D01*
X113561Y-46546D02*
X113161Y-46546D01*
X113447Y-46680D01*
X113161Y-46813D01*
X113561Y-46813D01*
X113523Y-47232D02*
X113542Y-47213D01*
X113561Y-47156D01*
X113561Y-47118D01*
X113542Y-47060D01*
X113504Y-47022D01*
X113466Y-47003D01*
X113390Y-46984D01*
X113333Y-46984D01*
X113257Y-47003D01*
X113219Y-47022D01*
X113180Y-47060D01*
X113161Y-47118D01*
X113161Y-47156D01*
X113180Y-47213D01*
X113200Y-47232D01*
X113161Y-47403D02*
X113485Y-47403D01*
X113523Y-47422D01*
X113542Y-47441D01*
X113561Y-47480D01*
X113561Y-47556D01*
X113542Y-47594D01*
X113523Y-47613D01*
X113485Y-47632D01*
X113161Y-47632D01*
X113200Y-47803D02*
X113180Y-47822D01*
X113161Y-47860D01*
X113161Y-47956D01*
X113180Y-47994D01*
X113200Y-48013D01*
X113238Y-48032D01*
X113276Y-48032D01*
X113333Y-48013D01*
X113561Y-47784D01*
X113561Y-48032D01*
X100449Y-46534D02*
X100049Y-46534D01*
X100335Y-46667D01*
X100049Y-46801D01*
X100449Y-46801D01*
X100411Y-47220D02*
X100430Y-47201D01*
X100449Y-47143D01*
X100449Y-47105D01*
X100430Y-47048D01*
X100392Y-47010D01*
X100354Y-46991D01*
X100277Y-46972D01*
X100220Y-46972D01*
X100144Y-46991D01*
X100106Y-47010D01*
X100068Y-47048D01*
X100049Y-47105D01*
X100049Y-47143D01*
X100068Y-47201D01*
X100087Y-47220D01*
X100049Y-47391D02*
X100373Y-47391D01*
X100411Y-47410D01*
X100430Y-47429D01*
X100449Y-47467D01*
X100449Y-47543D01*
X100430Y-47582D01*
X100411Y-47601D01*
X100373Y-47620D01*
X100049Y-47620D01*
X100449Y-48020D02*
X100449Y-47791D01*
X100449Y-47905D02*
X100049Y-47905D01*
X100106Y-47867D01*
X100144Y-47829D01*
X100163Y-47791D01*
G54D15*
X107540Y-50411D02*
X107540Y-50011D01*
X107388Y-50011D01*
X107350Y-50030D01*
X107330Y-50050D01*
X107311Y-50088D01*
X107311Y-50145D01*
X107330Y-50183D01*
X107350Y-50202D01*
X107388Y-50221D01*
X107540Y-50221D01*
X107083Y-50411D02*
X107121Y-50392D01*
X107140Y-50373D01*
X107159Y-50335D01*
X107159Y-50221D01*
X107140Y-50183D01*
X107121Y-50164D01*
X107083Y-50145D01*
X107026Y-50145D01*
X106988Y-50164D01*
X106969Y-50183D01*
X106950Y-50221D01*
X106950Y-50335D01*
X106969Y-50373D01*
X106988Y-50392D01*
X107026Y-50411D01*
X107083Y-50411D01*
X106816Y-50145D02*
X106740Y-50411D01*
X106664Y-50221D01*
X106588Y-50411D01*
X106511Y-50145D01*
X106207Y-50392D02*
X106245Y-50411D01*
X106321Y-50411D01*
X106359Y-50392D01*
X106378Y-50354D01*
X106378Y-50202D01*
X106359Y-50164D01*
X106321Y-50145D01*
X106245Y-50145D01*
X106207Y-50164D01*
X106188Y-50202D01*
X106188Y-50240D01*
X106378Y-50278D01*
X106016Y-50411D02*
X106016Y-50145D01*
X106016Y-50221D02*
X105997Y-50183D01*
X105978Y-50164D01*
X105940Y-50145D01*
X105902Y-50145D01*
X97001Y-42515D02*
X97244Y-42515D01*
X97272Y-42530D01*
X97287Y-42544D01*
X97301Y-42572D01*
X97301Y-42630D01*
X97287Y-42658D01*
X97272Y-42672D01*
X97244Y-42687D01*
X97001Y-42687D01*
X97287Y-42815D02*
X97301Y-42858D01*
X97301Y-42930D01*
X97287Y-42958D01*
X97272Y-42972D01*
X97244Y-42987D01*
X97215Y-42987D01*
X97187Y-42972D01*
X97172Y-42958D01*
X97158Y-42930D01*
X97144Y-42872D01*
X97130Y-42844D01*
X97115Y-42830D01*
X97087Y-42815D01*
X97058Y-42815D01*
X97030Y-42830D01*
X97015Y-42844D01*
X97001Y-42872D01*
X97001Y-42944D01*
X97015Y-42987D01*
X97215Y-43101D02*
X97215Y-43244D01*
X97301Y-43072D02*
X97001Y-43172D01*
X97301Y-43272D01*
X97301Y-43544D02*
X97158Y-43444D01*
X97301Y-43372D02*
X97001Y-43372D01*
X97001Y-43487D01*
X97015Y-43515D01*
X97030Y-43530D01*
X97058Y-43544D01*
X97101Y-43544D01*
X97130Y-43530D01*
X97144Y-43515D01*
X97158Y-43487D01*
X97158Y-43372D01*
X97001Y-43630D02*
X97001Y-43801D01*
X97301Y-43715D02*
X97001Y-43715D01*
X97301Y-44058D02*
X97301Y-43887D01*
X97301Y-43972D02*
X97001Y-43972D01*
X97044Y-43944D01*
X97072Y-43915D01*
X97087Y-43887D01*
G54D10*
X109209Y-45913D02*
X109153Y-45931D01*
X109134Y-45950D01*
X109115Y-45988D01*
X109115Y-46044D01*
X109134Y-46081D01*
X109153Y-46100D01*
X109190Y-46119D01*
X109340Y-46119D01*
X109340Y-45725D01*
X109209Y-45725D01*
X109171Y-45744D01*
X109153Y-45763D01*
X109134Y-45800D01*
X109134Y-45838D01*
X109153Y-45875D01*
X109171Y-45894D01*
X109209Y-45913D01*
X109340Y-45913D01*
X109003Y-45725D02*
X108778Y-45725D01*
X108890Y-46119D02*
X108890Y-45725D01*
X108440Y-46119D02*
X108665Y-46119D01*
X108553Y-46119D02*
X108553Y-45725D01*
X108590Y-45781D01*
X108628Y-45819D01*
X108665Y-45838D01*
X109834Y-45003D02*
X109778Y-45021D01*
X109759Y-45040D01*
X109740Y-45078D01*
X109740Y-45134D01*
X109759Y-45171D01*
X109778Y-45190D01*
X109815Y-45209D01*
X109965Y-45209D01*
X109965Y-44815D01*
X109834Y-44815D01*
X109796Y-44834D01*
X109778Y-44853D01*
X109759Y-44890D01*
X109759Y-44928D01*
X109778Y-44965D01*
X109796Y-44984D01*
X109834Y-45003D01*
X109965Y-45003D01*
X109590Y-45096D02*
X109403Y-45096D01*
X109628Y-45209D02*
X109496Y-44815D01*
X109365Y-45209D01*
X109290Y-44815D02*
X109065Y-44815D01*
X109178Y-45209D02*
X109178Y-44815D01*
X108990Y-44815D02*
X108765Y-44815D01*
X108878Y-45209D02*
X108878Y-44815D01*
X108634Y-45003D02*
X108503Y-45003D01*
X108446Y-45209D02*
X108634Y-45209D01*
X108634Y-44815D01*
X108446Y-44815D01*
X108053Y-45209D02*
X108184Y-45021D01*
X108278Y-45209D02*
X108278Y-44815D01*
X108128Y-44815D01*
X108090Y-44834D01*
X108071Y-44853D01*
X108053Y-44890D01*
X108053Y-44946D01*
X108071Y-44984D01*
X108090Y-45003D01*
X108128Y-45021D01*
X108278Y-45021D01*
X107809Y-45021D02*
X107809Y-45209D01*
X107940Y-44815D02*
X107809Y-45021D01*
X107678Y-44815D01*
G54D20*
X106232Y-50010D02*
X106242Y-50020D01*
X106270Y-50029D01*
X106289Y-50029D01*
X106317Y-50020D01*
X106336Y-50001D01*
X106345Y-49982D01*
X106354Y-49945D01*
X106354Y-49917D01*
X106345Y-49879D01*
X106336Y-49860D01*
X106317Y-49842D01*
X106289Y-49832D01*
X106270Y-49832D01*
X106242Y-49842D01*
X106232Y-49851D01*
X106157Y-49851D02*
X106148Y-49842D01*
X106129Y-49832D01*
X106082Y-49832D01*
X106063Y-49842D01*
X106054Y-49851D01*
X106045Y-49870D01*
X106045Y-49889D01*
X106054Y-49917D01*
X106167Y-50029D01*
X106045Y-50029D01*
X106504Y-48354D02*
X106617Y-48354D01*
X106561Y-48354D02*
X106561Y-48157D01*
X106579Y-48185D01*
X106598Y-48204D01*
X106617Y-48214D01*
X106382Y-48157D02*
X106364Y-48157D01*
X106345Y-48167D01*
X106336Y-48176D01*
X106326Y-48195D01*
X106317Y-48232D01*
X106317Y-48279D01*
X106326Y-48317D01*
X106336Y-48335D01*
X106345Y-48345D01*
X106364Y-48354D01*
X106382Y-48354D01*
X106401Y-48345D01*
X106411Y-48335D01*
X106420Y-48317D01*
X106429Y-48279D01*
X106429Y-48232D01*
X106420Y-48195D01*
X106411Y-48176D01*
X106401Y-48167D01*
X106382Y-48157D01*
X106195Y-48157D02*
X106176Y-48157D01*
X106157Y-48167D01*
X106148Y-48176D01*
X106139Y-48195D01*
X106129Y-48232D01*
X106129Y-48279D01*
X106139Y-48317D01*
X106148Y-48335D01*
X106157Y-48345D01*
X106176Y-48354D01*
X106195Y-48354D01*
X106214Y-48345D01*
X106223Y-48335D01*
X106232Y-48317D01*
X106242Y-48279D01*
X106242Y-48232D01*
X106232Y-48195D01*
X106223Y-48176D01*
X106214Y-48167D01*
X106195Y-48157D01*
X105960Y-48223D02*
X105960Y-48354D01*
X106045Y-48223D02*
X106045Y-48326D01*
X106035Y-48345D01*
X106017Y-48354D01*
X105988Y-48354D01*
X105970Y-48345D01*
X105960Y-48335D01*
X105801Y-48251D02*
X105866Y-48251D01*
X105866Y-48354D02*
X105866Y-48157D01*
X105773Y-48157D01*
X109607Y-50010D02*
X109617Y-50020D01*
X109645Y-50029D01*
X109664Y-50029D01*
X109692Y-50020D01*
X109711Y-50001D01*
X109720Y-49982D01*
X109729Y-49945D01*
X109729Y-49917D01*
X109720Y-49879D01*
X109711Y-49860D01*
X109692Y-49842D01*
X109664Y-49832D01*
X109645Y-49832D01*
X109617Y-49842D01*
X109607Y-49851D01*
X109542Y-49832D02*
X109420Y-49832D01*
X109485Y-49907D01*
X109457Y-49907D01*
X109438Y-49917D01*
X109429Y-49926D01*
X109420Y-49945D01*
X109420Y-49992D01*
X109429Y-50010D01*
X109438Y-50020D01*
X109457Y-50029D01*
X109514Y-50029D01*
X109532Y-50020D01*
X109542Y-50010D01*
X109879Y-48354D02*
X109992Y-48354D01*
X109936Y-48354D02*
X109936Y-48157D01*
X109954Y-48185D01*
X109973Y-48204D01*
X109992Y-48214D01*
X109757Y-48157D02*
X109739Y-48157D01*
X109720Y-48167D01*
X109711Y-48176D01*
X109701Y-48195D01*
X109692Y-48232D01*
X109692Y-48279D01*
X109701Y-48317D01*
X109711Y-48335D01*
X109720Y-48345D01*
X109739Y-48354D01*
X109757Y-48354D01*
X109776Y-48345D01*
X109786Y-48335D01*
X109795Y-48317D01*
X109804Y-48279D01*
X109804Y-48232D01*
X109795Y-48195D01*
X109786Y-48176D01*
X109776Y-48167D01*
X109757Y-48157D01*
X109570Y-48157D02*
X109551Y-48157D01*
X109532Y-48167D01*
X109523Y-48176D01*
X109514Y-48195D01*
X109504Y-48232D01*
X109504Y-48279D01*
X109514Y-48317D01*
X109523Y-48335D01*
X109532Y-48345D01*
X109551Y-48354D01*
X109570Y-48354D01*
X109589Y-48345D01*
X109598Y-48335D01*
X109607Y-48317D01*
X109617Y-48279D01*
X109617Y-48232D01*
X109607Y-48195D01*
X109598Y-48176D01*
X109589Y-48167D01*
X109570Y-48157D01*
X109335Y-48223D02*
X109335Y-48354D01*
X109420Y-48223D02*
X109420Y-48326D01*
X109410Y-48345D01*
X109392Y-48354D01*
X109363Y-48354D01*
X109345Y-48345D01*
X109335Y-48335D01*
X109176Y-48251D02*
X109241Y-48251D01*
X109241Y-48354D02*
X109241Y-48157D01*
X109148Y-48157D01*
G54D21*
X102541Y-48511D02*
X102541Y-48835D01*
X102525Y-48873D01*
X102508Y-48892D01*
X102475Y-48911D01*
X102408Y-48911D01*
X102375Y-48892D01*
X102358Y-48873D01*
X102341Y-48835D01*
X102341Y-48511D01*
X102191Y-48892D02*
X102141Y-48911D01*
X102058Y-48911D01*
X102025Y-48892D01*
X102008Y-48873D01*
X101991Y-48835D01*
X101991Y-48797D01*
X102008Y-48759D01*
X102025Y-48740D01*
X102058Y-48721D01*
X102125Y-48702D01*
X102158Y-48683D01*
X102175Y-48664D01*
X102191Y-48626D01*
X102191Y-48588D01*
X102175Y-48550D01*
X102158Y-48530D01*
X102125Y-48511D01*
X102041Y-48511D01*
X101991Y-48530D01*
X101725Y-48702D02*
X101675Y-48721D01*
X101658Y-48740D01*
X101641Y-48778D01*
X101641Y-48835D01*
X101658Y-48873D01*
X101675Y-48892D01*
X101708Y-48911D01*
X101841Y-48911D01*
X101841Y-48511D01*
X101725Y-48511D01*
X101691Y-48530D01*
X101675Y-48550D01*
X101658Y-48588D01*
X101658Y-48626D01*
X101675Y-48664D01*
X101691Y-48683D01*
X101725Y-48702D01*
X101841Y-48702D01*
X102507Y-41711D02*
X102240Y-41711D01*
X102507Y-42111D01*
X102240Y-42111D01*
X102030Y-42111D02*
X102069Y-42092D01*
X102088Y-42073D01*
X102107Y-42035D01*
X102107Y-41921D01*
X102088Y-41883D01*
X102069Y-41864D01*
X102030Y-41845D01*
X101973Y-41845D01*
X101935Y-41864D01*
X101916Y-41883D01*
X101897Y-41921D01*
X101897Y-42035D01*
X101916Y-42073D01*
X101935Y-42092D01*
X101973Y-42111D01*
X102030Y-42111D01*
X101726Y-41845D02*
X101726Y-42111D01*
X101726Y-41883D02*
X101707Y-41864D01*
X101669Y-41845D01*
X101611Y-41845D01*
X101573Y-41864D01*
X101554Y-41902D01*
X101554Y-42111D01*
X101211Y-42092D02*
X101250Y-42111D01*
X101326Y-42111D01*
X101364Y-42092D01*
X101383Y-42054D01*
X101383Y-41902D01*
X101364Y-41864D01*
X101326Y-41845D01*
X101250Y-41845D01*
X101211Y-41864D01*
X101192Y-41902D01*
X101192Y-41940D01*
X101383Y-41978D01*
X100811Y-42111D02*
X101040Y-42111D01*
X100926Y-42111D02*
X100926Y-41711D01*
X100964Y-41769D01*
X101002Y-41807D01*
X101040Y-41826D01*
X112657Y-41761D02*
X112390Y-41761D01*
X112657Y-42161D01*
X112390Y-42161D01*
X112180Y-42161D02*
X112219Y-42142D01*
X112238Y-42123D01*
X112257Y-42085D01*
X112257Y-41971D01*
X112238Y-41933D01*
X112219Y-41914D01*
X112180Y-41895D01*
X112123Y-41895D01*
X112085Y-41914D01*
X112066Y-41933D01*
X112047Y-41971D01*
X112047Y-42085D01*
X112066Y-42123D01*
X112085Y-42142D01*
X112123Y-42161D01*
X112180Y-42161D01*
X111876Y-41895D02*
X111876Y-42161D01*
X111876Y-41933D02*
X111857Y-41914D01*
X111819Y-41895D01*
X111761Y-41895D01*
X111723Y-41914D01*
X111704Y-41952D01*
X111704Y-42161D01*
X111361Y-42142D02*
X111400Y-42161D01*
X111476Y-42161D01*
X111514Y-42142D01*
X111533Y-42104D01*
X111533Y-41952D01*
X111514Y-41914D01*
X111476Y-41895D01*
X111400Y-41895D01*
X111361Y-41914D01*
X111342Y-41952D01*
X111342Y-41990D01*
X111533Y-42028D01*
X111190Y-41800D02*
X111171Y-41780D01*
X111133Y-41761D01*
X111038Y-41761D01*
X111000Y-41780D01*
X110980Y-41800D01*
X110961Y-41838D01*
X110961Y-41876D01*
X110980Y-41933D01*
X111209Y-42161D01*
X110961Y-42161D01*
X116052Y-42107D02*
X116052Y-42240D01*
X116261Y-42297D02*
X116261Y-42107D01*
X115861Y-42107D01*
X115861Y-42297D01*
X115861Y-42430D02*
X116261Y-42697D01*
X115861Y-42697D02*
X116261Y-42430D01*
X115861Y-42792D02*
X115861Y-43021D01*
X116261Y-42907D02*
X115861Y-42907D01*
X116052Y-43154D02*
X116052Y-43288D01*
X116261Y-43345D02*
X116261Y-43154D01*
X115861Y-43154D01*
X115861Y-43345D01*
X116261Y-43516D02*
X115861Y-43516D01*
X116261Y-43745D01*
X115861Y-43745D01*
X116242Y-43916D02*
X116261Y-43973D01*
X116261Y-44069D01*
X116242Y-44107D01*
X116223Y-44126D01*
X116185Y-44145D01*
X116147Y-44145D01*
X116109Y-44126D01*
X116090Y-44107D01*
X116071Y-44069D01*
X116052Y-43992D01*
X116033Y-43954D01*
X116014Y-43935D01*
X115976Y-43916D01*
X115938Y-43916D01*
X115900Y-43935D01*
X115880Y-43954D01*
X115861Y-43992D01*
X115861Y-44088D01*
X115880Y-44145D01*
X116261Y-44316D02*
X115861Y-44316D01*
X115861Y-44583D02*
X115861Y-44659D01*
X115880Y-44697D01*
X115919Y-44735D01*
X115995Y-44754D01*
X116128Y-44754D01*
X116204Y-44735D01*
X116242Y-44697D01*
X116261Y-44659D01*
X116261Y-44583D01*
X116242Y-44545D01*
X116204Y-44507D01*
X116128Y-44488D01*
X115995Y-44488D01*
X115919Y-44507D01*
X115880Y-44545D01*
X115861Y-44583D01*
X116261Y-44926D02*
X115861Y-44926D01*
X116261Y-45154D01*
X115861Y-45154D01*
X116109Y-45345D02*
X116109Y-45650D01*
X116223Y-46069D02*
X116242Y-46050D01*
X116261Y-45992D01*
X116261Y-45954D01*
X116242Y-45897D01*
X116204Y-45859D01*
X116166Y-45840D01*
X116090Y-45821D01*
X116033Y-45821D01*
X115957Y-45840D01*
X115919Y-45859D01*
X115880Y-45897D01*
X115861Y-45954D01*
X115861Y-45992D01*
X115880Y-46050D01*
X115900Y-46069D01*
X115861Y-46316D02*
X115861Y-46392D01*
X115880Y-46430D01*
X115919Y-46469D01*
X115995Y-46488D01*
X116128Y-46488D01*
X116204Y-46469D01*
X116242Y-46430D01*
X116261Y-46392D01*
X116261Y-46316D01*
X116242Y-46278D01*
X116204Y-46240D01*
X116128Y-46221D01*
X115995Y-46221D01*
X115919Y-46240D01*
X115880Y-46278D01*
X115861Y-46316D01*
X116261Y-46659D02*
X115861Y-46659D01*
X116261Y-46888D01*
X115861Y-46888D01*
X116261Y-47078D02*
X115861Y-47078D01*
X116261Y-47307D01*
X115861Y-47307D01*
X116052Y-47497D02*
X116052Y-47630D01*
X116261Y-47688D02*
X116261Y-47497D01*
X115861Y-47497D01*
X115861Y-47688D01*
X116223Y-48088D02*
X116242Y-48069D01*
X116261Y-48011D01*
X116261Y-47973D01*
X116242Y-47916D01*
X116204Y-47878D01*
X116166Y-47859D01*
X116090Y-47840D01*
X116033Y-47840D01*
X115957Y-47859D01*
X115919Y-47878D01*
X115880Y-47916D01*
X115861Y-47973D01*
X115861Y-48011D01*
X115880Y-48069D01*
X115900Y-48088D01*
X115861Y-48202D02*
X115861Y-48430D01*
X116261Y-48316D02*
X115861Y-48316D01*
X115861Y-48640D02*
X115861Y-48716D01*
X115880Y-48754D01*
X115919Y-48792D01*
X115995Y-48811D01*
X116128Y-48811D01*
X116204Y-48792D01*
X116242Y-48754D01*
X116261Y-48716D01*
X116261Y-48640D01*
X116242Y-48602D01*
X116204Y-48564D01*
X116128Y-48545D01*
X115995Y-48545D01*
X115919Y-48564D01*
X115880Y-48602D01*
X115861Y-48640D01*
X116261Y-49211D02*
X116071Y-49078D01*
X116261Y-48983D02*
X115861Y-48983D01*
X115861Y-49135D01*
X115880Y-49173D01*
X115900Y-49192D01*
X115938Y-49211D01*
X115995Y-49211D01*
X116033Y-49192D01*
X116052Y-49173D01*
X116071Y-49135D01*
X116071Y-48983D01*
G54D19*
X104817Y-53364D02*
X104724Y-53299D01*
X104817Y-53252D02*
X104620Y-53252D01*
X104620Y-53327D01*
X104630Y-53346D01*
X104639Y-53355D01*
X104658Y-53364D01*
X104686Y-53364D01*
X104705Y-53355D01*
X104714Y-53346D01*
X104724Y-53327D01*
X104724Y-53252D01*
X104620Y-53543D02*
X104620Y-53449D01*
X104714Y-53439D01*
X104705Y-53449D01*
X104695Y-53467D01*
X104695Y-53514D01*
X104705Y-53533D01*
X104714Y-53543D01*
X104733Y-53552D01*
X104780Y-53552D01*
X104799Y-53543D01*
X104808Y-53533D01*
X104817Y-53514D01*
X104817Y-53467D01*
X104808Y-53449D01*
X104799Y-53439D01*
X105307Y-53346D02*
X105307Y-53477D01*
X105354Y-53270D02*
X105401Y-53411D01*
X105279Y-53411D01*
X105222Y-53280D02*
X105091Y-53280D01*
X105175Y-53477D01*
X105016Y-53477D02*
X105016Y-53280D01*
X104997Y-53402D02*
X104941Y-53477D01*
X104941Y-53346D02*
X105016Y-53421D01*
X107022Y-52971D02*
X106928Y-52905D01*
X107022Y-52858D02*
X106825Y-52858D01*
X106825Y-52933D01*
X106835Y-52952D01*
X106844Y-52961D01*
X106863Y-52971D01*
X106891Y-52971D01*
X106910Y-52961D01*
X106919Y-52952D01*
X106928Y-52933D01*
X106928Y-52858D01*
X106891Y-53139D02*
X107022Y-53139D01*
X106816Y-53093D02*
X106956Y-53046D01*
X106956Y-53168D01*
X107512Y-53346D02*
X107512Y-53477D01*
X107558Y-53270D02*
X107605Y-53411D01*
X107483Y-53411D01*
X107427Y-53280D02*
X107296Y-53280D01*
X107380Y-53477D01*
X107221Y-53477D02*
X107221Y-53280D01*
X107202Y-53402D02*
X107146Y-53477D01*
X107146Y-53346D02*
X107221Y-53421D01*
X107967Y-53364D02*
X107873Y-53299D01*
X107967Y-53252D02*
X107770Y-53252D01*
X107770Y-53327D01*
X107779Y-53346D01*
X107789Y-53355D01*
X107808Y-53364D01*
X107836Y-53364D01*
X107854Y-53355D01*
X107864Y-53346D01*
X107873Y-53327D01*
X107873Y-53252D01*
X107770Y-53430D02*
X107770Y-53552D01*
X107845Y-53486D01*
X107845Y-53514D01*
X107854Y-53533D01*
X107864Y-53543D01*
X107883Y-53552D01*
X107930Y-53552D01*
X107948Y-53543D01*
X107958Y-53533D01*
X107967Y-53514D01*
X107967Y-53458D01*
X107958Y-53439D01*
X107948Y-53430D01*
X108456Y-53346D02*
X108456Y-53477D01*
X108503Y-53270D02*
X108550Y-53411D01*
X108428Y-53411D01*
X108372Y-53280D02*
X108241Y-53280D01*
X108325Y-53477D01*
X108166Y-53477D02*
X108166Y-53280D01*
X108147Y-53402D02*
X108091Y-53477D01*
X108091Y-53346D02*
X108166Y-53421D01*
X102495Y-53364D02*
X102401Y-53299D01*
X102495Y-53252D02*
X102298Y-53252D01*
X102298Y-53327D01*
X102307Y-53346D01*
X102316Y-53355D01*
X102335Y-53364D01*
X102363Y-53364D01*
X102382Y-53355D01*
X102391Y-53346D01*
X102401Y-53327D01*
X102401Y-53252D01*
X102316Y-53439D02*
X102307Y-53449D01*
X102298Y-53467D01*
X102298Y-53514D01*
X102307Y-53533D01*
X102316Y-53543D01*
X102335Y-53552D01*
X102354Y-53552D01*
X102382Y-53543D01*
X102495Y-53430D01*
X102495Y-53552D01*
X102718Y-53261D02*
X102849Y-53261D01*
X102643Y-53214D02*
X102783Y-53167D01*
X102783Y-53289D01*
X102652Y-53346D02*
X102652Y-53477D01*
X102849Y-53392D01*
X102849Y-53552D02*
X102652Y-53552D01*
X102774Y-53571D02*
X102849Y-53627D01*
X102718Y-53627D02*
X102793Y-53552D01*
X103833Y-53364D02*
X103739Y-53299D01*
X103833Y-53252D02*
X103636Y-53252D01*
X103636Y-53327D01*
X103646Y-53346D01*
X103655Y-53355D01*
X103674Y-53364D01*
X103702Y-53364D01*
X103721Y-53355D01*
X103730Y-53346D01*
X103739Y-53327D01*
X103739Y-53252D01*
X103833Y-53552D02*
X103833Y-53439D01*
X103833Y-53496D02*
X103636Y-53496D01*
X103664Y-53477D01*
X103683Y-53458D01*
X103692Y-53439D01*
X104362Y-53346D02*
X104362Y-53477D01*
X104409Y-53270D02*
X104456Y-53411D01*
X104334Y-53411D01*
X104277Y-53280D02*
X104146Y-53280D01*
X104231Y-53477D01*
X104071Y-53477D02*
X104071Y-53280D01*
X104052Y-53402D02*
X103996Y-53477D01*
X103996Y-53346D02*
X104071Y-53421D01*
X106345Y-52946D02*
X106355Y-52956D01*
X106383Y-52965D01*
X106402Y-52965D01*
X106430Y-52956D01*
X106449Y-52937D01*
X106458Y-52918D01*
X106467Y-52881D01*
X106467Y-52852D01*
X106458Y-52815D01*
X106449Y-52796D01*
X106430Y-52777D01*
X106402Y-52768D01*
X106383Y-52768D01*
X106355Y-52777D01*
X106345Y-52787D01*
X106158Y-52965D02*
X106270Y-52965D01*
X106214Y-52965D02*
X106214Y-52768D01*
X106233Y-52796D01*
X106252Y-52815D01*
X106270Y-52824D01*
X106636Y-53044D02*
X106617Y-53044D01*
X106599Y-53053D01*
X106589Y-53062D01*
X106580Y-53081D01*
X106570Y-53119D01*
X106570Y-53166D01*
X106580Y-53203D01*
X106589Y-53222D01*
X106599Y-53231D01*
X106617Y-53241D01*
X106636Y-53241D01*
X106655Y-53231D01*
X106664Y-53222D01*
X106674Y-53203D01*
X106683Y-53166D01*
X106683Y-53119D01*
X106674Y-53081D01*
X106664Y-53062D01*
X106655Y-53053D01*
X106636Y-53044D01*
X106486Y-53222D02*
X106477Y-53231D01*
X106486Y-53241D01*
X106495Y-53231D01*
X106486Y-53222D01*
X106486Y-53241D01*
X106289Y-53241D02*
X106402Y-53241D01*
X106345Y-53241D02*
X106345Y-53044D01*
X106364Y-53072D01*
X106383Y-53091D01*
X106402Y-53100D01*
X106120Y-53109D02*
X106120Y-53241D01*
X106205Y-53109D02*
X106205Y-53213D01*
X106195Y-53231D01*
X106176Y-53241D01*
X106148Y-53241D01*
X106130Y-53231D01*
X106120Y-53222D01*
X105961Y-53137D02*
X106026Y-53137D01*
X106026Y-53241D02*
X106026Y-53044D01*
X105933Y-53044D01*
G54D21*
X99915Y-62339D02*
X99915Y-61939D01*
X99762Y-61939D01*
X99724Y-61958D01*
X99705Y-61977D01*
X99686Y-62015D01*
X99686Y-62072D01*
X99705Y-62110D01*
X99724Y-62129D01*
X99762Y-62148D01*
X99915Y-62148D01*
X99553Y-61939D02*
X99305Y-61939D01*
X99439Y-62091D01*
X99381Y-62091D01*
X99343Y-62110D01*
X99324Y-62129D01*
X99305Y-62167D01*
X99305Y-62262D01*
X99324Y-62300D01*
X99343Y-62320D01*
X99381Y-62339D01*
X99496Y-62339D01*
X99534Y-62320D01*
X99553Y-62300D01*
G54D16*
X101759Y-57725D02*
X101359Y-58325D01*
X101359Y-57725D02*
X101759Y-58325D01*
X101159Y-57782D02*
X101130Y-57754D01*
X101073Y-57725D01*
X100930Y-57725D01*
X100873Y-57754D01*
X100845Y-57782D01*
X100816Y-57839D01*
X100816Y-57896D01*
X100845Y-57982D01*
X101187Y-58325D01*
X100816Y-58325D01*
X100262Y-58022D02*
X100319Y-57993D01*
X100347Y-57964D01*
X100376Y-57907D01*
X100376Y-57879D01*
X100347Y-57822D01*
X100319Y-57793D01*
X100262Y-57764D01*
X100147Y-57764D01*
X100090Y-57793D01*
X100062Y-57822D01*
X100033Y-57879D01*
X100033Y-57907D01*
X100062Y-57964D01*
X100090Y-57993D01*
X100147Y-58022D01*
X100262Y-58022D01*
X100319Y-58050D01*
X100347Y-58079D01*
X100376Y-58136D01*
X100376Y-58250D01*
X100347Y-58307D01*
X100319Y-58336D01*
X100262Y-58364D01*
X100147Y-58364D01*
X100090Y-58336D01*
X100062Y-58307D01*
X100033Y-58250D01*
X100033Y-58136D01*
X100062Y-58079D01*
X100090Y-58050D01*
X100147Y-58022D01*
X99776Y-58364D02*
X99776Y-57764D01*
X99576Y-58193D01*
X99376Y-57764D01*
X99376Y-58364D01*
X99090Y-58364D02*
X99090Y-57764D01*
X99090Y-58050D02*
X98747Y-58050D01*
X98747Y-58364D02*
X98747Y-57764D01*
X98519Y-57964D02*
X98205Y-57964D01*
X98519Y-58364D01*
X98205Y-58364D01*
G54D14*
X94699Y-57472D02*
X94299Y-57472D01*
X94299Y-57624D01*
X94318Y-57662D01*
X94337Y-57682D01*
X94375Y-57701D01*
X94432Y-57701D01*
X94470Y-57682D01*
X94489Y-57662D01*
X94508Y-57624D01*
X94508Y-57472D01*
X94699Y-58082D02*
X94699Y-57853D01*
X94699Y-57967D02*
X94299Y-57967D01*
X94356Y-57929D01*
X94394Y-57891D01*
X94413Y-57853D01*
G54D21*
X94703Y-58451D02*
X94303Y-58451D01*
X94588Y-58585D01*
X94303Y-58718D01*
X94703Y-58718D01*
X94665Y-59137D02*
X94684Y-59118D01*
X94703Y-59061D01*
X94703Y-59023D01*
X94684Y-58965D01*
X94646Y-58927D01*
X94608Y-58908D01*
X94531Y-58889D01*
X94474Y-58889D01*
X94398Y-58908D01*
X94360Y-58927D01*
X94322Y-58965D01*
X94303Y-59023D01*
X94303Y-59061D01*
X94322Y-59118D01*
X94341Y-59137D01*
X94303Y-59308D02*
X94627Y-59308D01*
X94665Y-59327D01*
X94684Y-59346D01*
X94703Y-59385D01*
X94703Y-59461D01*
X94684Y-59499D01*
X94665Y-59518D01*
X94627Y-59537D01*
X94303Y-59537D01*
X94703Y-59937D02*
X94703Y-59708D01*
X94703Y-59823D02*
X94303Y-59823D01*
X94360Y-59785D01*
X94398Y-59746D01*
X94417Y-59708D01*
G54D14*
X113699Y-57472D02*
X113299Y-57472D01*
X113299Y-57624D01*
X113318Y-57662D01*
X113337Y-57682D01*
X113375Y-57701D01*
X113432Y-57701D01*
X113470Y-57682D01*
X113489Y-57662D01*
X113508Y-57624D01*
X113508Y-57472D01*
X113432Y-58043D02*
X113699Y-58043D01*
X113280Y-57948D02*
X113565Y-57853D01*
X113565Y-58101D01*
G54D21*
X113679Y-58491D02*
X113279Y-58491D01*
X113565Y-58624D01*
X113279Y-58757D01*
X113679Y-58757D01*
X113641Y-59176D02*
X113660Y-59157D01*
X113679Y-59100D01*
X113679Y-59062D01*
X113660Y-59005D01*
X113622Y-58967D01*
X113584Y-58948D01*
X113508Y-58929D01*
X113451Y-58929D01*
X113374Y-58948D01*
X113336Y-58967D01*
X113298Y-59005D01*
X113279Y-59062D01*
X113279Y-59100D01*
X113298Y-59157D01*
X113317Y-59176D01*
X113279Y-59348D02*
X113603Y-59348D01*
X113641Y-59367D01*
X113660Y-59386D01*
X113679Y-59424D01*
X113679Y-59500D01*
X113660Y-59538D01*
X113641Y-59557D01*
X113603Y-59576D01*
X113279Y-59576D01*
X113317Y-59748D02*
X113298Y-59767D01*
X113279Y-59805D01*
X113279Y-59900D01*
X113298Y-59938D01*
X113317Y-59957D01*
X113355Y-59976D01*
X113393Y-59976D01*
X113451Y-59957D01*
X113679Y-59729D01*
X113679Y-59976D01*
G54D22*
X100341Y-53525D02*
X100146Y-53525D01*
X100251Y-53645D01*
X100206Y-53645D01*
X100176Y-53660D01*
X100161Y-53675D01*
X100146Y-53705D01*
X100146Y-53780D01*
X100161Y-53810D01*
X100176Y-53825D01*
X100206Y-53840D01*
X100296Y-53840D01*
X100326Y-53825D01*
X100341Y-53810D01*
X100026Y-53555D02*
X100011Y-53540D01*
X99981Y-53525D01*
X99906Y-53525D01*
X99876Y-53540D01*
X99861Y-53555D01*
X99846Y-53585D01*
X99846Y-53615D01*
X99861Y-53660D01*
X100041Y-53840D01*
X99846Y-53840D01*
X99741Y-53525D02*
X99531Y-53525D01*
X99666Y-53840D01*
X99276Y-53525D02*
X99336Y-53525D01*
X99366Y-53540D01*
X99381Y-53555D01*
X99411Y-53600D01*
X99426Y-53660D01*
X99426Y-53780D01*
X99411Y-53810D01*
X99396Y-53825D01*
X99366Y-53840D01*
X99306Y-53840D01*
X99276Y-53825D01*
X99261Y-53810D01*
X99247Y-53780D01*
X99247Y-53705D01*
X99261Y-53675D01*
X99276Y-53660D01*
X99306Y-53645D01*
X99366Y-53645D01*
X99396Y-53660D01*
X99411Y-53675D01*
X99426Y-53705D01*
X99067Y-53660D02*
X99097Y-53645D01*
X99112Y-53630D01*
X99127Y-53600D01*
X99127Y-53585D01*
X99112Y-53555D01*
X99097Y-53540D01*
X99067Y-53525D01*
X99007Y-53525D01*
X98977Y-53540D01*
X98962Y-53555D01*
X98947Y-53585D01*
X98947Y-53600D01*
X98962Y-53630D01*
X98977Y-53645D01*
X99007Y-53660D01*
X99067Y-53660D01*
X99097Y-53675D01*
X99112Y-53690D01*
X99127Y-53720D01*
X99127Y-53780D01*
X99112Y-53810D01*
X99097Y-53825D01*
X99067Y-53840D01*
X99007Y-53840D01*
X98977Y-53825D01*
X98962Y-53810D01*
X98947Y-53780D01*
X98947Y-53720D01*
X98962Y-53690D01*
X98977Y-53675D01*
X99007Y-53660D01*
X98812Y-53840D02*
X98812Y-53525D01*
X98812Y-53675D02*
X98632Y-53675D01*
X98632Y-53840D02*
X98632Y-53525D01*
X98512Y-53630D02*
X98347Y-53630D01*
X98512Y-53840D01*
X98347Y-53840D01*
G54D10*
X103592Y-61067D02*
X103772Y-61067D01*
X103682Y-61067D02*
X103682Y-60752D01*
X103712Y-60797D01*
X103742Y-60827D01*
X103772Y-60842D01*
X103292Y-61067D02*
X103472Y-61067D01*
X103382Y-61067D02*
X103382Y-60752D01*
X103412Y-60797D01*
X103442Y-60827D01*
X103472Y-60842D01*
X103172Y-60782D02*
X103157Y-60767D01*
X103127Y-60752D01*
X103052Y-60752D01*
X103022Y-60767D01*
X103007Y-60782D01*
X102992Y-60812D01*
X102992Y-60842D01*
X103007Y-60887D01*
X103187Y-61067D01*
X102992Y-61067D01*
X102767Y-60752D02*
X102767Y-60977D01*
X102782Y-61022D01*
X102812Y-61052D01*
X102857Y-61067D01*
X102887Y-61067D01*
X104197Y-60575D02*
X104376Y-60575D01*
X104287Y-60575D02*
X104287Y-60260D01*
X104316Y-60305D01*
X104346Y-60335D01*
X104376Y-60350D01*
X103897Y-60575D02*
X104077Y-60575D01*
X103987Y-60575D02*
X103987Y-60260D01*
X104017Y-60305D01*
X104047Y-60335D01*
X104077Y-60350D01*
X103777Y-60290D02*
X103762Y-60275D01*
X103732Y-60260D01*
X103657Y-60260D01*
X103627Y-60275D01*
X103612Y-60290D01*
X103597Y-60320D01*
X103597Y-60350D01*
X103612Y-60395D01*
X103792Y-60575D01*
X103597Y-60575D01*
X103462Y-60575D02*
X103462Y-60260D01*
G54D23*
X105255Y-56100D02*
X105255Y-56386D01*
X105272Y-56420D01*
X105289Y-56437D01*
X105323Y-56454D01*
X105390Y-56454D01*
X105424Y-56437D01*
X105441Y-56420D01*
X105458Y-56386D01*
X105458Y-56100D01*
X105812Y-56454D02*
X105609Y-56454D01*
X105711Y-56454D02*
X105711Y-56100D01*
X105677Y-56150D01*
X105643Y-56184D01*
X105609Y-56201D01*
G54D19*
X123117Y-53364D02*
X123024Y-53299D01*
X123117Y-53252D02*
X122920Y-53252D01*
X122920Y-53327D01*
X122930Y-53346D01*
X122939Y-53355D01*
X122958Y-53364D01*
X122986Y-53364D01*
X123005Y-53355D01*
X123014Y-53346D01*
X123024Y-53327D01*
X123024Y-53252D01*
X122920Y-53543D02*
X122920Y-53449D01*
X123014Y-53439D01*
X123005Y-53449D01*
X122995Y-53467D01*
X122995Y-53514D01*
X123005Y-53533D01*
X123014Y-53543D01*
X123033Y-53552D01*
X123080Y-53552D01*
X123099Y-53543D01*
X123108Y-53533D01*
X123117Y-53514D01*
X123117Y-53467D01*
X123108Y-53449D01*
X123099Y-53439D01*
X123607Y-53346D02*
X123607Y-53477D01*
X123654Y-53270D02*
X123701Y-53411D01*
X123579Y-53411D01*
X123522Y-53280D02*
X123391Y-53280D01*
X123475Y-53477D01*
X123316Y-53477D02*
X123316Y-53280D01*
X123297Y-53402D02*
X123241Y-53477D01*
X123241Y-53346D02*
X123316Y-53421D01*
X125322Y-52971D02*
X125228Y-52905D01*
X125322Y-52858D02*
X125125Y-52858D01*
X125125Y-52933D01*
X125135Y-52952D01*
X125144Y-52961D01*
X125163Y-52971D01*
X125191Y-52971D01*
X125210Y-52961D01*
X125219Y-52952D01*
X125228Y-52933D01*
X125228Y-52858D01*
X125191Y-53139D02*
X125322Y-53139D01*
X125116Y-53093D02*
X125256Y-53046D01*
X125256Y-53168D01*
X125812Y-53346D02*
X125812Y-53477D01*
X125858Y-53270D02*
X125905Y-53411D01*
X125783Y-53411D01*
X125727Y-53280D02*
X125596Y-53280D01*
X125680Y-53477D01*
X125521Y-53477D02*
X125521Y-53280D01*
X125502Y-53402D02*
X125446Y-53477D01*
X125446Y-53346D02*
X125521Y-53421D01*
X126267Y-53364D02*
X126173Y-53299D01*
X126267Y-53252D02*
X126070Y-53252D01*
X126070Y-53327D01*
X126079Y-53346D01*
X126089Y-53355D01*
X126108Y-53364D01*
X126136Y-53364D01*
X126154Y-53355D01*
X126164Y-53346D01*
X126173Y-53327D01*
X126173Y-53252D01*
X126070Y-53430D02*
X126070Y-53552D01*
X126145Y-53486D01*
X126145Y-53514D01*
X126154Y-53533D01*
X126164Y-53543D01*
X126183Y-53552D01*
X126230Y-53552D01*
X126248Y-53543D01*
X126258Y-53533D01*
X126267Y-53514D01*
X126267Y-53458D01*
X126258Y-53439D01*
X126248Y-53430D01*
X126756Y-53346D02*
X126756Y-53477D01*
X126803Y-53270D02*
X126850Y-53411D01*
X126728Y-53411D01*
X126672Y-53280D02*
X126541Y-53280D01*
X126625Y-53477D01*
X126466Y-53477D02*
X126466Y-53280D01*
X126447Y-53402D02*
X126391Y-53477D01*
X126391Y-53346D02*
X126466Y-53421D01*
X120795Y-53364D02*
X120701Y-53299D01*
X120795Y-53252D02*
X120598Y-53252D01*
X120598Y-53327D01*
X120607Y-53346D01*
X120616Y-53355D01*
X120635Y-53364D01*
X120663Y-53364D01*
X120682Y-53355D01*
X120691Y-53346D01*
X120701Y-53327D01*
X120701Y-53252D01*
X120616Y-53439D02*
X120607Y-53449D01*
X120598Y-53467D01*
X120598Y-53514D01*
X120607Y-53533D01*
X120616Y-53543D01*
X120635Y-53552D01*
X120654Y-53552D01*
X120682Y-53543D01*
X120795Y-53430D01*
X120795Y-53552D01*
X121018Y-53261D02*
X121149Y-53261D01*
X120943Y-53214D02*
X121083Y-53167D01*
X121083Y-53289D01*
X120952Y-53346D02*
X120952Y-53477D01*
X121149Y-53392D01*
X121149Y-53552D02*
X120952Y-53552D01*
X121074Y-53571D02*
X121149Y-53627D01*
X121018Y-53627D02*
X121093Y-53552D01*
X122133Y-53364D02*
X122039Y-53299D01*
X122133Y-53252D02*
X121936Y-53252D01*
X121936Y-53327D01*
X121946Y-53346D01*
X121955Y-53355D01*
X121974Y-53364D01*
X122002Y-53364D01*
X122021Y-53355D01*
X122030Y-53346D01*
X122039Y-53327D01*
X122039Y-53252D01*
X122133Y-53552D02*
X122133Y-53439D01*
X122133Y-53496D02*
X121936Y-53496D01*
X121964Y-53477D01*
X121983Y-53458D01*
X121992Y-53439D01*
X122662Y-53346D02*
X122662Y-53477D01*
X122709Y-53270D02*
X122756Y-53411D01*
X122634Y-53411D01*
X122577Y-53280D02*
X122446Y-53280D01*
X122531Y-53477D01*
X122371Y-53477D02*
X122371Y-53280D01*
X122352Y-53402D02*
X122296Y-53477D01*
X122296Y-53346D02*
X122371Y-53421D01*
X124645Y-52946D02*
X124655Y-52956D01*
X124683Y-52965D01*
X124702Y-52965D01*
X124730Y-52956D01*
X124749Y-52937D01*
X124758Y-52918D01*
X124767Y-52881D01*
X124767Y-52852D01*
X124758Y-52815D01*
X124749Y-52796D01*
X124730Y-52777D01*
X124702Y-52768D01*
X124683Y-52768D01*
X124655Y-52777D01*
X124645Y-52787D01*
X124458Y-52965D02*
X124570Y-52965D01*
X124514Y-52965D02*
X124514Y-52768D01*
X124533Y-52796D01*
X124552Y-52815D01*
X124570Y-52824D01*
X124936Y-53044D02*
X124917Y-53044D01*
X124899Y-53053D01*
X124889Y-53062D01*
X124880Y-53081D01*
X124870Y-53119D01*
X124870Y-53166D01*
X124880Y-53203D01*
X124889Y-53222D01*
X124899Y-53231D01*
X124917Y-53241D01*
X124936Y-53241D01*
X124955Y-53231D01*
X124964Y-53222D01*
X124974Y-53203D01*
X124983Y-53166D01*
X124983Y-53119D01*
X124974Y-53081D01*
X124964Y-53062D01*
X124955Y-53053D01*
X124936Y-53044D01*
X124786Y-53222D02*
X124777Y-53231D01*
X124786Y-53241D01*
X124795Y-53231D01*
X124786Y-53222D01*
X124786Y-53241D01*
X124589Y-53241D02*
X124702Y-53241D01*
X124645Y-53241D02*
X124645Y-53044D01*
X124664Y-53072D01*
X124683Y-53091D01*
X124702Y-53100D01*
X124420Y-53109D02*
X124420Y-53241D01*
X124505Y-53109D02*
X124505Y-53213D01*
X124495Y-53231D01*
X124476Y-53241D01*
X124448Y-53241D01*
X124430Y-53231D01*
X124420Y-53222D01*
X124261Y-53137D02*
X124326Y-53137D01*
X124326Y-53241D02*
X124326Y-53044D01*
X124233Y-53044D01*
G54D21*
X118215Y-62339D02*
X118215Y-61939D01*
X118062Y-61939D01*
X118024Y-61958D01*
X118005Y-61977D01*
X117986Y-62015D01*
X117986Y-62072D01*
X118005Y-62110D01*
X118024Y-62129D01*
X118062Y-62148D01*
X118215Y-62148D01*
X117853Y-61939D02*
X117605Y-61939D01*
X117739Y-62091D01*
X117681Y-62091D01*
X117643Y-62110D01*
X117624Y-62129D01*
X117605Y-62167D01*
X117605Y-62262D01*
X117624Y-62300D01*
X117643Y-62320D01*
X117681Y-62339D01*
X117796Y-62339D01*
X117834Y-62320D01*
X117853Y-62300D01*
G54D16*
X120059Y-57725D02*
X119659Y-58325D01*
X119659Y-57725D02*
X120059Y-58325D01*
X119459Y-57782D02*
X119430Y-57754D01*
X119373Y-57725D01*
X119230Y-57725D01*
X119173Y-57754D01*
X119145Y-57782D01*
X119116Y-57839D01*
X119116Y-57896D01*
X119145Y-57982D01*
X119487Y-58325D01*
X119116Y-58325D01*
X118562Y-58022D02*
X118619Y-57993D01*
X118647Y-57964D01*
X118676Y-57907D01*
X118676Y-57879D01*
X118647Y-57822D01*
X118619Y-57793D01*
X118562Y-57764D01*
X118447Y-57764D01*
X118390Y-57793D01*
X118362Y-57822D01*
X118333Y-57879D01*
X118333Y-57907D01*
X118362Y-57964D01*
X118390Y-57993D01*
X118447Y-58022D01*
X118562Y-58022D01*
X118619Y-58050D01*
X118647Y-58079D01*
X118676Y-58136D01*
X118676Y-58250D01*
X118647Y-58307D01*
X118619Y-58336D01*
X118562Y-58364D01*
X118447Y-58364D01*
X118390Y-58336D01*
X118362Y-58307D01*
X118333Y-58250D01*
X118333Y-58136D01*
X118362Y-58079D01*
X118390Y-58050D01*
X118447Y-58022D01*
X118076Y-58364D02*
X118076Y-57764D01*
X117876Y-58193D01*
X117676Y-57764D01*
X117676Y-58364D01*
X117390Y-58364D02*
X117390Y-57764D01*
X117390Y-58050D02*
X117047Y-58050D01*
X117047Y-58364D02*
X117047Y-57764D01*
X116819Y-57964D02*
X116505Y-57964D01*
X116819Y-58364D01*
X116505Y-58364D01*
G54D14*
X112999Y-57472D02*
X112599Y-57472D01*
X112599Y-57624D01*
X112618Y-57662D01*
X112637Y-57682D01*
X112675Y-57701D01*
X112732Y-57701D01*
X112770Y-57682D01*
X112789Y-57662D01*
X112808Y-57624D01*
X112808Y-57472D01*
X112999Y-58082D02*
X112999Y-57853D01*
X112999Y-57967D02*
X112599Y-57967D01*
X112656Y-57929D01*
X112694Y-57891D01*
X112713Y-57853D01*
G54D21*
X113003Y-58451D02*
X112603Y-58451D01*
X112888Y-58585D01*
X112603Y-58718D01*
X113003Y-58718D01*
X112965Y-59137D02*
X112984Y-59118D01*
X113003Y-59061D01*
X113003Y-59023D01*
X112984Y-58965D01*
X112946Y-58927D01*
X112908Y-58908D01*
X112831Y-58889D01*
X112774Y-58889D01*
X112698Y-58908D01*
X112660Y-58927D01*
X112622Y-58965D01*
X112603Y-59023D01*
X112603Y-59061D01*
X112622Y-59118D01*
X112641Y-59137D01*
X112603Y-59308D02*
X112927Y-59308D01*
X112965Y-59327D01*
X112984Y-59346D01*
X113003Y-59385D01*
X113003Y-59461D01*
X112984Y-59499D01*
X112965Y-59518D01*
X112927Y-59537D01*
X112603Y-59537D01*
X113003Y-59937D02*
X113003Y-59708D01*
X113003Y-59823D02*
X112603Y-59823D01*
X112660Y-59785D01*
X112698Y-59746D01*
X112717Y-59708D01*
G54D14*
X131999Y-57472D02*
X131599Y-57472D01*
X131599Y-57624D01*
X131618Y-57662D01*
X131637Y-57682D01*
X131675Y-57701D01*
X131732Y-57701D01*
X131770Y-57682D01*
X131789Y-57662D01*
X131808Y-57624D01*
X131808Y-57472D01*
X131732Y-58043D02*
X131999Y-58043D01*
X131580Y-57948D02*
X131865Y-57853D01*
X131865Y-58101D01*
G54D21*
X131979Y-58491D02*
X131579Y-58491D01*
X131865Y-58624D01*
X131579Y-58757D01*
X131979Y-58757D01*
X131941Y-59176D02*
X131960Y-59157D01*
X131979Y-59100D01*
X131979Y-59062D01*
X131960Y-59005D01*
X131922Y-58967D01*
X131884Y-58948D01*
X131808Y-58929D01*
X131751Y-58929D01*
X131674Y-58948D01*
X131636Y-58967D01*
X131598Y-59005D01*
X131579Y-59062D01*
X131579Y-59100D01*
X131598Y-59157D01*
X131617Y-59176D01*
X131579Y-59348D02*
X131903Y-59348D01*
X131941Y-59367D01*
X131960Y-59386D01*
X131979Y-59424D01*
X131979Y-59500D01*
X131960Y-59538D01*
X131941Y-59557D01*
X131903Y-59576D01*
X131579Y-59576D01*
X131617Y-59748D02*
X131598Y-59767D01*
X131579Y-59805D01*
X131579Y-59900D01*
X131598Y-59938D01*
X131617Y-59957D01*
X131655Y-59976D01*
X131693Y-59976D01*
X131751Y-59957D01*
X131979Y-59729D01*
X131979Y-59976D01*
G54D22*
X118641Y-53525D02*
X118446Y-53525D01*
X118551Y-53645D01*
X118506Y-53645D01*
X118476Y-53660D01*
X118461Y-53675D01*
X118446Y-53705D01*
X118446Y-53780D01*
X118461Y-53810D01*
X118476Y-53825D01*
X118506Y-53840D01*
X118596Y-53840D01*
X118626Y-53825D01*
X118641Y-53810D01*
X118326Y-53555D02*
X118311Y-53540D01*
X118281Y-53525D01*
X118206Y-53525D01*
X118176Y-53540D01*
X118161Y-53555D01*
X118146Y-53585D01*
X118146Y-53615D01*
X118161Y-53660D01*
X118341Y-53840D01*
X118146Y-53840D01*
X118041Y-53525D02*
X117831Y-53525D01*
X117966Y-53840D01*
X117576Y-53525D02*
X117636Y-53525D01*
X117666Y-53540D01*
X117681Y-53555D01*
X117711Y-53600D01*
X117726Y-53660D01*
X117726Y-53780D01*
X117711Y-53810D01*
X117696Y-53825D01*
X117666Y-53840D01*
X117606Y-53840D01*
X117576Y-53825D01*
X117561Y-53810D01*
X117547Y-53780D01*
X117547Y-53705D01*
X117561Y-53675D01*
X117576Y-53660D01*
X117606Y-53645D01*
X117666Y-53645D01*
X117696Y-53660D01*
X117711Y-53675D01*
X117726Y-53705D01*
X117367Y-53660D02*
X117397Y-53645D01*
X117412Y-53630D01*
X117427Y-53600D01*
X117427Y-53585D01*
X117412Y-53555D01*
X117397Y-53540D01*
X117367Y-53525D01*
X117307Y-53525D01*
X117277Y-53540D01*
X117262Y-53555D01*
X117247Y-53585D01*
X117247Y-53600D01*
X117262Y-53630D01*
X117277Y-53645D01*
X117307Y-53660D01*
X117367Y-53660D01*
X117397Y-53675D01*
X117412Y-53690D01*
X117427Y-53720D01*
X117427Y-53780D01*
X117412Y-53810D01*
X117397Y-53825D01*
X117367Y-53840D01*
X117307Y-53840D01*
X117277Y-53825D01*
X117262Y-53810D01*
X117247Y-53780D01*
X117247Y-53720D01*
X117262Y-53690D01*
X117277Y-53675D01*
X117307Y-53660D01*
X117112Y-53840D02*
X117112Y-53525D01*
X117112Y-53675D02*
X116932Y-53675D01*
X116932Y-53840D02*
X116932Y-53525D01*
X116812Y-53630D02*
X116647Y-53630D01*
X116812Y-53840D01*
X116647Y-53840D01*
G54D10*
X121892Y-61067D02*
X122072Y-61067D01*
X121982Y-61067D02*
X121982Y-60752D01*
X122012Y-60797D01*
X122042Y-60827D01*
X122072Y-60842D01*
X121592Y-61067D02*
X121772Y-61067D01*
X121682Y-61067D02*
X121682Y-60752D01*
X121712Y-60797D01*
X121742Y-60827D01*
X121772Y-60842D01*
X121472Y-60782D02*
X121457Y-60767D01*
X121427Y-60752D01*
X121352Y-60752D01*
X121322Y-60767D01*
X121307Y-60782D01*
X121292Y-60812D01*
X121292Y-60842D01*
X121307Y-60887D01*
X121487Y-61067D01*
X121292Y-61067D01*
X121067Y-60752D02*
X121067Y-60977D01*
X121082Y-61022D01*
X121112Y-61052D01*
X121157Y-61067D01*
X121187Y-61067D01*
X122497Y-60575D02*
X122676Y-60575D01*
X122587Y-60575D02*
X122587Y-60260D01*
X122616Y-60305D01*
X122646Y-60335D01*
X122676Y-60350D01*
X122197Y-60575D02*
X122377Y-60575D01*
X122287Y-60575D02*
X122287Y-60260D01*
X122317Y-60305D01*
X122347Y-60335D01*
X122377Y-60350D01*
X122077Y-60290D02*
X122062Y-60275D01*
X122032Y-60260D01*
X121957Y-60260D01*
X121927Y-60275D01*
X121912Y-60290D01*
X121897Y-60320D01*
X121897Y-60350D01*
X121912Y-60395D01*
X122092Y-60575D01*
X121897Y-60575D01*
X121762Y-60575D02*
X121762Y-60260D01*
G54D23*
X123555Y-56100D02*
X123555Y-56386D01*
X123572Y-56420D01*
X123589Y-56437D01*
X123623Y-56454D01*
X123690Y-56454D01*
X123724Y-56437D01*
X123741Y-56420D01*
X123758Y-56386D01*
X123758Y-56100D01*
X124112Y-56454D02*
X123909Y-56454D01*
X124011Y-56454D02*
X124011Y-56100D01*
X123977Y-56150D01*
X123943Y-56184D01*
X123909Y-56201D01*
G54D12*
X123122Y-32676D02*
X123222Y-32533D01*
X123294Y-32676D02*
X123294Y-32376D01*
X123179Y-32376D01*
X123151Y-32391D01*
X123136Y-32405D01*
X123122Y-32433D01*
X123122Y-32476D01*
X123136Y-32505D01*
X123151Y-32519D01*
X123179Y-32533D01*
X123294Y-32533D01*
X122865Y-32476D02*
X122865Y-32676D01*
X122936Y-32362D02*
X123008Y-32576D01*
X122822Y-32576D01*
X123122Y-33621D02*
X123222Y-33478D01*
X123294Y-33621D02*
X123294Y-33321D01*
X123179Y-33321D01*
X123151Y-33335D01*
X123136Y-33350D01*
X123122Y-33378D01*
X123122Y-33421D01*
X123136Y-33450D01*
X123151Y-33464D01*
X123179Y-33478D01*
X123294Y-33478D01*
X122851Y-33321D02*
X122994Y-33321D01*
X123008Y-33464D01*
X122994Y-33450D01*
X122965Y-33435D01*
X122894Y-33435D01*
X122865Y-33450D01*
X122851Y-33464D01*
X122836Y-33493D01*
X122836Y-33564D01*
X122851Y-33593D01*
X122865Y-33607D01*
X122894Y-33621D01*
X122965Y-33621D01*
X122994Y-33607D01*
X123008Y-33593D01*
X123122Y-34645D02*
X123222Y-34502D01*
X123294Y-34645D02*
X123294Y-34345D01*
X123179Y-34345D01*
X123151Y-34359D01*
X123136Y-34373D01*
X123122Y-34402D01*
X123122Y-34445D01*
X123136Y-34473D01*
X123151Y-34488D01*
X123179Y-34502D01*
X123294Y-34502D01*
X122865Y-34345D02*
X122922Y-34345D01*
X122951Y-34359D01*
X122965Y-34373D01*
X122994Y-34416D01*
X123008Y-34473D01*
X123008Y-34588D01*
X122994Y-34616D01*
X122979Y-34630D01*
X122951Y-34645D01*
X122894Y-34645D01*
X122865Y-34630D01*
X122851Y-34616D01*
X122836Y-34588D01*
X122836Y-34516D01*
X122851Y-34488D01*
X122865Y-34473D01*
X122894Y-34459D01*
X122951Y-34459D01*
X122979Y-34473D01*
X122994Y-34488D01*
X123008Y-34516D01*
M02*
