G04 (created by PCBNEW (2013-may-18)-stable) date Вс 24 янв 2016 11:36:20*
%MOIN*%
G04 Gerber Fmt 3.4, Leading zero omitted, Abs format*
%FSLAX34Y34*%
G01*
G70*
G90*
G04 APERTURE LIST*
%ADD10C,0.00590551*%
%ADD11R,0.06X0.08*%
%ADD12R,0.0984252X0.0787402*%
%ADD13O,0.0984252X0.0787402*%
%ADD14R,0.0787402X0.0984252*%
%ADD15O,0.0787402X0.0984252*%
%ADD16C,0.16*%
%ADD17R,0.137795X0.0787402*%
%ADD18R,0.035X0.055*%
%ADD19R,0.055X0.035*%
%ADD20R,0.06X0.06*%
%ADD21C,0.06*%
%ADD22R,0.1004X0.0984*%
%ADD23R,0.15748X0.11811*%
%ADD24C,0.056*%
%ADD25C,0.0590551*%
%ADD26R,0.026X0.062*%
%ADD27R,0.046X0.086*%
G04 APERTURE END LIST*
G54D10*
G54D11*
X123722Y-48955D03*
X122422Y-48955D03*
X123722Y-49900D03*
X122422Y-49900D03*
X123722Y-50923D03*
X122422Y-50923D03*
G54D12*
X125356Y-45632D03*
G54D13*
X125356Y-46632D03*
X125356Y-47632D03*
G54D14*
X125682Y-51514D03*
G54D15*
X126682Y-51514D03*
G54D16*
X120513Y-51219D03*
X120513Y-45412D03*
G54D17*
X127215Y-48175D03*
X127215Y-49175D03*
X127215Y-50175D03*
X127215Y-47175D03*
X127215Y-46175D03*
X127215Y-46175D03*
X127215Y-47175D03*
X127215Y-48175D03*
X127215Y-49175D03*
X127215Y-50175D03*
X127215Y-40025D03*
X127215Y-41025D03*
X127215Y-42025D03*
X127215Y-39025D03*
X127215Y-38025D03*
X127215Y-38025D03*
X127215Y-39025D03*
X127215Y-40025D03*
X127215Y-41025D03*
X127215Y-42025D03*
G54D16*
X120513Y-37262D03*
X120513Y-43069D03*
G54D14*
X125682Y-43364D03*
G54D15*
X126682Y-43364D03*
G54D12*
X125356Y-37482D03*
G54D13*
X125356Y-38482D03*
X125356Y-39482D03*
G54D11*
X123722Y-42773D03*
X122422Y-42773D03*
X123722Y-41750D03*
X122422Y-41750D03*
X123722Y-40805D03*
X122422Y-40805D03*
G54D18*
X111236Y-32253D03*
X111986Y-32253D03*
X110529Y-33001D03*
X109779Y-33001D03*
X110529Y-32253D03*
X109779Y-32253D03*
X111236Y-33001D03*
X111986Y-33001D03*
G54D19*
X108835Y-32943D03*
X108835Y-32193D03*
X112733Y-32213D03*
X112733Y-32963D03*
G54D20*
X96350Y-31400D03*
G54D21*
X96350Y-32400D03*
X96350Y-33400D03*
X96350Y-34400D03*
G54D20*
X99400Y-26350D03*
G54D21*
X100400Y-26350D03*
X101400Y-26350D03*
G54D20*
X100770Y-37322D03*
G54D21*
X101770Y-37322D03*
G54D20*
X106950Y-26350D03*
G54D21*
X105950Y-26350D03*
G54D20*
X105259Y-37322D03*
G54D21*
X106259Y-37322D03*
G54D20*
X107503Y-37322D03*
G54D21*
X108503Y-37322D03*
G54D22*
X110506Y-30100D03*
X112494Y-30100D03*
X102894Y-29300D03*
X100906Y-29300D03*
G54D20*
X99487Y-28767D03*
G54D21*
X98487Y-28767D03*
X99487Y-29767D03*
X98487Y-29767D03*
X99487Y-30767D03*
X98487Y-30767D03*
X99487Y-31767D03*
X98487Y-31767D03*
X99487Y-32767D03*
X98487Y-32767D03*
X99487Y-33767D03*
X98487Y-33767D03*
X99487Y-34767D03*
X98487Y-34767D03*
X99487Y-35767D03*
X98487Y-35767D03*
X99487Y-36767D03*
X98487Y-36767D03*
X99487Y-37767D03*
X98487Y-37767D03*
G54D20*
X114487Y-37767D03*
G54D21*
X115487Y-37767D03*
X114487Y-36767D03*
X115487Y-36767D03*
X114487Y-35767D03*
X115487Y-35767D03*
X114487Y-34767D03*
X115487Y-34767D03*
X114487Y-33767D03*
X115487Y-33767D03*
X114487Y-32767D03*
X115487Y-32767D03*
X114487Y-31767D03*
X115487Y-31767D03*
X114487Y-30767D03*
X115487Y-30767D03*
X114487Y-29767D03*
X115487Y-29767D03*
X114487Y-28767D03*
X115487Y-28767D03*
G54D20*
X102675Y-26350D03*
G54D21*
X103675Y-26350D03*
X104675Y-26350D03*
G54D20*
X103020Y-37322D03*
G54D21*
X104020Y-37322D03*
G54D20*
X110618Y-35900D03*
G54D21*
X111406Y-35900D03*
X112193Y-35900D03*
X112981Y-35900D03*
G54D20*
X117400Y-33200D03*
G54D21*
X118400Y-33200D03*
X117400Y-32200D03*
X118400Y-32200D03*
X117400Y-31200D03*
X118400Y-31200D03*
X117400Y-30200D03*
X118400Y-30200D03*
G54D16*
X117800Y-26370D03*
X117800Y-37000D03*
X96300Y-37000D03*
X96300Y-26370D03*
G54D20*
X96350Y-28850D03*
G54D21*
X96350Y-29850D03*
G54D22*
X102894Y-30800D03*
X100906Y-30800D03*
G54D20*
X114050Y-26800D03*
G54D21*
X114050Y-25800D03*
X113050Y-26800D03*
X113050Y-25800D03*
X112050Y-26800D03*
X112050Y-25800D03*
X111050Y-26800D03*
X111050Y-25800D03*
X110050Y-26800D03*
X110050Y-25800D03*
G54D20*
X114287Y-51767D03*
G54D21*
X115287Y-51767D03*
X114287Y-50767D03*
X115287Y-50767D03*
X114287Y-49767D03*
X115287Y-49767D03*
X114287Y-48767D03*
X115287Y-48767D03*
X114287Y-47767D03*
X115287Y-47767D03*
X114287Y-46767D03*
X115287Y-46767D03*
X114287Y-45767D03*
X115287Y-45767D03*
X114287Y-44767D03*
X115287Y-44767D03*
X114287Y-43767D03*
X115287Y-43767D03*
X114287Y-42767D03*
X115287Y-42767D03*
G54D20*
X99287Y-42767D03*
G54D21*
X98287Y-42767D03*
X99287Y-43767D03*
X98287Y-43767D03*
X99287Y-44767D03*
X98287Y-44767D03*
X99287Y-45767D03*
X98287Y-45767D03*
X99287Y-46767D03*
X98287Y-46767D03*
X99287Y-47767D03*
X98287Y-47767D03*
X99287Y-48767D03*
X98287Y-48767D03*
X99287Y-49767D03*
X98287Y-49767D03*
X99287Y-50767D03*
X98287Y-50767D03*
X99287Y-51767D03*
X98287Y-51767D03*
G54D20*
X109850Y-51750D03*
G54D21*
X109850Y-50750D03*
X110850Y-51750D03*
X110850Y-50750D03*
X111850Y-51750D03*
X111850Y-50750D03*
X112850Y-51750D03*
X112850Y-50750D03*
G54D20*
X107750Y-51100D03*
G54D21*
X106750Y-51100D03*
X105750Y-51100D03*
G54D20*
X96100Y-42775D03*
G54D21*
X96100Y-43775D03*
G54D23*
X105159Y-45100D03*
X112443Y-45100D03*
G54D22*
X107194Y-49100D03*
X105206Y-49100D03*
X110569Y-49100D03*
X108581Y-49100D03*
G54D20*
X100918Y-49950D03*
G54D21*
X101706Y-49950D03*
X102493Y-49950D03*
X103281Y-49950D03*
G54D20*
X103650Y-40800D03*
G54D21*
X103650Y-39800D03*
X102650Y-40800D03*
X102650Y-39800D03*
X101650Y-40800D03*
X101650Y-39800D03*
X100650Y-40800D03*
X100650Y-39800D03*
X99650Y-40800D03*
X99650Y-39800D03*
G54D20*
X113850Y-40800D03*
G54D21*
X113850Y-39800D03*
X112850Y-40800D03*
X112850Y-39800D03*
X111850Y-40800D03*
X111850Y-39800D03*
X110850Y-40800D03*
X110850Y-39800D03*
X109850Y-40800D03*
X109850Y-39800D03*
G54D20*
X117100Y-47650D03*
G54D21*
X118100Y-47650D03*
X117100Y-46650D03*
X118100Y-46650D03*
X117100Y-45650D03*
X118100Y-45650D03*
X117100Y-44650D03*
X118100Y-44650D03*
X117100Y-43650D03*
X118100Y-43650D03*
G54D16*
X96100Y-51000D03*
X96100Y-40370D03*
X117600Y-40370D03*
X117600Y-51000D03*
G54D19*
X105171Y-53772D03*
X105171Y-53022D03*
X107415Y-53772D03*
X107415Y-53022D03*
X108281Y-53772D03*
X108281Y-53022D03*
X103281Y-53772D03*
X103281Y-53022D03*
X104226Y-53772D03*
X104226Y-53022D03*
G54D18*
X106687Y-53633D03*
X105937Y-53633D03*
G54D20*
X98438Y-60405D03*
G54D21*
X99226Y-60405D03*
X100013Y-60405D03*
X100801Y-60405D03*
G54D24*
X99013Y-56547D03*
X101013Y-56547D03*
G54D20*
X96537Y-53267D03*
G54D21*
X95537Y-53267D03*
X96537Y-54267D03*
X95537Y-54267D03*
X96537Y-55267D03*
X95537Y-55267D03*
X96537Y-56267D03*
X95537Y-56267D03*
X96537Y-57267D03*
X95537Y-57267D03*
X96537Y-58267D03*
X95537Y-58267D03*
X96537Y-59267D03*
X95537Y-59267D03*
X96537Y-60267D03*
X95537Y-60267D03*
X96537Y-61267D03*
X95537Y-61267D03*
X96537Y-62267D03*
X95537Y-62267D03*
G54D20*
X111537Y-62267D03*
G54D21*
X112537Y-62267D03*
X111537Y-61267D03*
X112537Y-61267D03*
X111537Y-60267D03*
X112537Y-60267D03*
X111537Y-59267D03*
X112537Y-59267D03*
X111537Y-58267D03*
X112537Y-58267D03*
X111537Y-57267D03*
X112537Y-57267D03*
X111537Y-56267D03*
X112537Y-56267D03*
X111537Y-55267D03*
X112537Y-55267D03*
X111537Y-54267D03*
X112537Y-54267D03*
X111537Y-53267D03*
X112537Y-53267D03*
G54D25*
X101431Y-54000D03*
X101431Y-55000D03*
G54D26*
X103540Y-54700D03*
X104410Y-54700D03*
X104840Y-54700D03*
X105270Y-54700D03*
X105710Y-54700D03*
X106140Y-54700D03*
X106570Y-54700D03*
X107010Y-54700D03*
X107440Y-54700D03*
X103984Y-54700D03*
G54D27*
X102990Y-57800D03*
X108290Y-57800D03*
G54D26*
X107870Y-54700D03*
G54D27*
X108360Y-58991D03*
X102317Y-58991D03*
X108360Y-55133D03*
X102317Y-55133D03*
G54D19*
X123471Y-53772D03*
X123471Y-53022D03*
X125715Y-53772D03*
X125715Y-53022D03*
X126581Y-53772D03*
X126581Y-53022D03*
X121581Y-53772D03*
X121581Y-53022D03*
X122526Y-53772D03*
X122526Y-53022D03*
G54D18*
X124987Y-53633D03*
X124237Y-53633D03*
G54D20*
X116738Y-60405D03*
G54D21*
X117526Y-60405D03*
X118313Y-60405D03*
X119101Y-60405D03*
G54D24*
X117313Y-56547D03*
X119313Y-56547D03*
G54D20*
X114837Y-53267D03*
G54D21*
X113837Y-53267D03*
X114837Y-54267D03*
X113837Y-54267D03*
X114837Y-55267D03*
X113837Y-55267D03*
X114837Y-56267D03*
X113837Y-56267D03*
X114837Y-57267D03*
X113837Y-57267D03*
X114837Y-58267D03*
X113837Y-58267D03*
X114837Y-59267D03*
X113837Y-59267D03*
X114837Y-60267D03*
X113837Y-60267D03*
X114837Y-61267D03*
X113837Y-61267D03*
X114837Y-62267D03*
X113837Y-62267D03*
G54D20*
X129837Y-62267D03*
G54D21*
X130837Y-62267D03*
X129837Y-61267D03*
X130837Y-61267D03*
X129837Y-60267D03*
X130837Y-60267D03*
X129837Y-59267D03*
X130837Y-59267D03*
X129837Y-58267D03*
X130837Y-58267D03*
X129837Y-57267D03*
X130837Y-57267D03*
X129837Y-56267D03*
X130837Y-56267D03*
X129837Y-55267D03*
X130837Y-55267D03*
X129837Y-54267D03*
X130837Y-54267D03*
X129837Y-53267D03*
X130837Y-53267D03*
G54D25*
X119731Y-54000D03*
X119731Y-55000D03*
G54D26*
X121840Y-54700D03*
X122710Y-54700D03*
X123140Y-54700D03*
X123570Y-54700D03*
X124010Y-54700D03*
X124440Y-54700D03*
X124870Y-54700D03*
X125310Y-54700D03*
X125740Y-54700D03*
X122284Y-54700D03*
G54D27*
X121290Y-57800D03*
X126590Y-57800D03*
G54D26*
X126170Y-54700D03*
G54D27*
X126660Y-58991D03*
X120617Y-58991D03*
X126660Y-55133D03*
X120617Y-55133D03*
G54D11*
X123722Y-32555D03*
X122422Y-32555D03*
X123722Y-33500D03*
X122422Y-33500D03*
X123722Y-34523D03*
X122422Y-34523D03*
G54D12*
X125356Y-29232D03*
G54D13*
X125356Y-30232D03*
X125356Y-31232D03*
G54D14*
X125682Y-35114D03*
G54D15*
X126682Y-35114D03*
G54D16*
X120513Y-34819D03*
X120513Y-29012D03*
G54D17*
X127215Y-31775D03*
X127215Y-32775D03*
X127215Y-33775D03*
X127215Y-30775D03*
X127215Y-29775D03*
X127215Y-29775D03*
X127215Y-30775D03*
X127215Y-31775D03*
X127215Y-32775D03*
X127215Y-33775D03*
M02*
